<?xml version="1.0" encoding="utf-8"?>
<!-- Generator: Adobe Illustrator 16.0.0, SVG Export Plug-In . SVG Version: 6.00 Build 0)  -->
<!DOCTYPE svg PUBLIC "-//W3C//DTD SVG 1.1//EN" "http://www.w3.org/Graphics/SVG/1.1/DTD/svg11.dtd">
<svg version="1.1" id="Layer_1" xmlns="http://www.w3.org/2000/svg" xmlns:xlink="http://www.w3.org/1999/xlink" x="0px" y="0px"
	 width="57px" height="57px" viewBox="0 0 57 57" enable-background="new 0 0 57 57" xml:space="preserve">
<g>
	<rect x="-0.216" y="0.135" fill="#0992A3" width="57" height="57"/>
	<path fill="#FFFFFF" d="M38.806,30.356l-9.809,9.809c-0.214,0.184-0.461,0.276-0.707,0.276s-0.492-0.093-0.707-0.276l-9.839-9.839
		c-0.277-0.308-0.37-0.708-0.216-1.077c0.154-0.369,0.522-0.615,0.922-0.615h5.903V17.812c0-0.553,0.43-0.983,0.984-0.983h5.902
		c0.555,0,0.984,0.43,0.984,0.983v10.823h5.903c0.554,0,0.983,0.43,0.983,0.983C39.112,29.896,38.99,30.142,38.806,30.356z"/>
</g>
</svg>
