<?xml version="1.0" encoding="utf-8"?>
<!-- Generator: Adobe Illustrator 16.0.0, SVG Export Plug-In . SVG Version: 6.00 Build 0)  -->
<!DOCTYPE svg PUBLIC "-//W3C//DTD SVG 1.1//EN" "http://www.w3.org/Graphics/SVG/1.1/DTD/svg11.dtd">
<svg version="1.1" id="Layer_1" xmlns="http://www.w3.org/2000/svg" xmlns:xlink="http://www.w3.org/1999/xlink" x="0px" y="0px"
	 width="94px" height="94px" viewBox="46.167 67 94 94" enable-background="new 46.167 67 94 94" xml:space="preserve">
<g>
	<g>
		<path fill="#939598" d="M-153.132,21.148c-3.636,3.633-3.636,9.525,0,13.159c3.635,3.633,9.529,3.634,13.165,0
			c3.635-3.633,3.635-9.525,0-13.159C-143.603,17.515-149.497,17.515-153.132,21.148z"/>
		<path fill="#939598" d="M-136.354,41.139c-5.61,5.609-5.61,14.7,0,20.307c5.608,5.607,14.704,5.607,20.314-0.001
			c5.608-5.606,5.608-14.697-0.001-20.305C-121.65,35.533-130.744,35.533-136.354,41.139z"/>
		<circle fill="#939598" cx="-168.651" cy="18.423" r="5.923"/>
	</g>
</g>
<g>
	<g>
		
			<image overflow="visible" opacity="0.75" width="125" height="127" xlink:href="96EBC068.png"  transform="matrix(1 0 0 1 -115.1665 47.1587)">
		</image>
		<g>
			<g>
				<circle fill="#E6E7E8" cx="-89.26" cy="58.833" r="7.333"/>
				<circle fill="#E6E7E8" cx="-66.96" cy="66.903" r="11.315"/>
				<circle fill="#E6E7E8" cx="-40.138" cy="124.088" r="47.122"/>
				<circle fill="#E6E7E8" cx="-106.317" cy="56.333" r="4.667"/>
			</g>
		</g>
	</g>
	<g>
		<defs>
			<circle id="SVGID_1_" cx="-40.138" cy="124.088" r="47.055"/>
		</defs>
		<clipPath id="SVGID_2_">
			<use xlink:href="#SVGID_1_"  overflow="visible"/>
		</clipPath>
	</g>
</g>
<g>
	<defs>
		<circle id="SVGID_3_" cx="93.222" cy="114.057" r="47.055"/>
	</defs>
	<clipPath id="SVGID_4_">
		<use xlink:href="#SVGID_3_"  overflow="visible"/>
	</clipPath>
	<g clip-path="url(#SVGID_4_)">
		<path fill="#0492A2" d="M75.669,137.828c6.718,0,12.789-2.719,17.194-7.121c0.092-0.09,0.172-0.182,0.256-0.271
			c1.064-1.094,2.023-2.289,2.867-3.561c0.004-0.01,0.01-0.016,0.01-0.016c0.201-0.314,0.402-0.635,0.598-0.951
			c0,0,0.012-0.033,0.021-0.045c0.188-0.316,0.365-0.633,0.537-0.953c0.016-0.029,0.025-0.059,0.039-0.082
			c0.168-0.313,0.326-0.627,0.479-0.949c0.014-0.037,0.035-0.08,0.057-0.127c0.141-0.305,0.279-0.615,0.41-0.926
			c0.025-0.059,0.045-0.123,0.07-0.182c0.123-0.295,0.24-0.596,0.35-0.9c0.023-0.082,0.055-0.164,0.078-0.242
			c0.104-0.285,0.199-0.574,0.291-0.867c0.035-0.098,0.057-0.207,0.088-0.311c0.08-0.271,0.158-0.541,0.227-0.816
			c0.035-0.133,0.061-0.262,0.09-0.395c0.059-0.252,0.119-0.508,0.174-0.768c0.033-0.152,0.057-0.318,0.086-0.479
			c0.045-0.232,0.084-0.463,0.123-0.699c0.025-0.191,0.051-0.385,0.074-0.586c0.025-0.208,0.059-0.405,0.076-0.612
			c0.027-0.242,0.037-0.488,0.057-0.732c0.01-0.16,0.031-0.326,0.035-0.49c0.021-0.404,0.035-0.824,0.035-1.24
			c-0.006-6.717-2.721-12.785-7.127-17.193c-4.405-4.402-10.476-7.121-17.194-7.121c-6.728,0-12.791,2.719-17.198,7.121
			c-4.403,4.408-7.122,10.477-7.122,17.193c0,6.729,2.718,12.796,7.122,17.2C62.878,135.109,68.941,137.828,75.669,137.828z
			 M96.783,132.925c-5.24,5.695-12.761,9.271-21.114,9.271c-8.176,0-15.543-3.424-20.769-8.91
			c-7.811,6.305-12.815,16.016-12.815,26.91c0,0.547,0.015,1.1,0.04,1.637h67.904c0.027-0.537,0.041-1.09,0.041-1.637
			C110.07,149.087,104.861,139.21,96.783,132.925z"/>
		<g>
			<path fill="#0492A2" d="M125.369,130.103c-2.857,1.041-6.033,1.348-9.23,0.727l0,0c-1.068-0.213-2.082-0.523-3.039-0.906l0,0
				c-0.262,0.107-0.518,0.211-0.773,0.305l0,0c-6.092,2.213-11.031,0.184-11.244,0.102l0,0c-0.723-0.299-1.186-1.012-1.162-1.795
				l0,0c0.025-0.779,0.537-1.469,1.281-1.715l0,0c0,0,0.016-0.01,0.084-0.031l0,0c0.283-0.098,1.344-0.535,2.24-1.254l0,0
				c0.748-0.602,1.322-1.293,1.541-2.125l0,0c-0.748-1.131-1.363-2.352-1.834-3.633l0,0c-1.041-2.838-1.35-6.011-0.725-9.2l0,0
				c1.199-6.145,5.535-10.895,11.016-12.9l0,0c2.852-1.047,6.033-1.354,9.225-0.729l0,0l-0.357,1.844l-0.357,1.836
				c-2.516-0.492-4.982-0.254-7.221,0.566l0,0c-4.301,1.578-7.688,5.285-8.625,10.102l0,0c-0.49,2.508-0.248,4.959,0.564,7.188l0,0
				c0.438,1.205,1.047,2.332,1.797,3.357l0,0c0.262,0.355,0.385,0.787,0.355,1.227l0,0c-0.123,1.891-0.988,3.357-1.988,4.432l0,0
				c1.234-0.037,2.639-0.248,4.121-0.793l0,0c0.398-0.143,0.807-0.32,1.23-0.516l0,0c0.498-0.246,1.078-0.252,1.586-0.021l0,0
				c0.959,0.439,1.955,0.773,3.004,0.977l0,0c2.508,0.492,4.984,0.25,7.215-0.564l0,0c4.301-1.578,7.689-5.285,8.629-10.11l0,0
				c0.488-2.506,0.258-4.98-0.566-7.219l0,0c-1.574-4.301-5.289-7.682-10.102-8.625l0,0l0.357-1.836l0.357-1.844
				c6.152,1.203,10.898,5.531,12.908,11.018l0,0c1.047,2.852,1.355,6.029,0.729,9.231l0,0c-1.205,6.146-5.535,10.895-11.012,12.898
				l0,0C125.373,130.103,125.369,130.103,125.369,130.103L125.369,130.103z"/>
		</g>
		<g>
			<path fill="#0492A2" d="M113.302,105.997l5.057-1.852l1.424,3.881l1.885,8.16l-3.129,1.144l-3.814-7.45L113.302,105.997z
				 M118.191,118.808l4.725-1.73l1.527,4.172l-4.725,1.734L118.191,118.808z"/>
		</g>
	</g>
</g>
</svg>
