<?xml version="1.0" encoding="utf-8"?>
<!-- Generator: Adobe Illustrator 16.0.0, SVG Export Plug-In . SVG Version: 6.00 Build 0)  -->
<!DOCTYPE svg PUBLIC "-//W3C//DTD SVG 1.1//EN" "http://www.w3.org/Graphics/SVG/1.1/DTD/svg11.dtd">
<svg version="1.1" id="Layer_1" xmlns="http://www.w3.org/2000/svg" xmlns:xlink="http://www.w3.org/1999/xlink" x="0px" y="0px"
	 width="656.071px" height="300.082px" viewBox="-176.667 -11.167 656.071 300.082"
	 enable-background="new -176.667 -11.167 656.071 300.082" xml:space="preserve">
<g>
	<g>
		
			<image overflow="visible" opacity="0.75" width="179" height="182" xlink:href="A6BD4FAE.png"  transform="matrix(1 0 0 1 296.8335 -6.1665)">
		</image>
		<g>
			<g>
				<circle fill="#939598" cx="332.741" cy="9.265" r="10.727"/>
				<circle fill="#939598" cx="365.362" cy="21.069" r="16.554"/>
				<path fill="#939598" d="M335.667,104.721c0-38.067,30.863-68.932,68.932-68.932c38.069,0,68.93,30.865,68.93,68.932
					c0,38.07-30.86,68.931-68.93,68.931C366.53,173.652,335.667,142.792,335.667,104.721z"/>
				<path fill="#939598" d="M300.961,5.607c0-3.771,3.059-6.827,6.826-6.827c3.772,0,6.829,3.056,6.829,6.827
					c0,3.771-3.057,6.827-6.829,6.827C304.02,12.434,300.961,9.378,300.961,5.607z"/>
			</g>
		</g>
	</g>
</g>
<g>
	<g>
		
			<image overflow="visible" opacity="0.75" width="180" height="182" xlink:href="A6BD4FA9.png"  transform="matrix(1 0 0 1 -176.1665 -6.1665)">
		</image>
		<g>
			<g>
				<circle fill="#939598" cx="-30.411" cy="9.265" r="10.727"/>
				<circle fill="#939598" cx="-63.031" cy="21.069" r="16.553"/>
				<path fill="#939598" d="M-33.335,104.721c0-38.067-30.866-68.932-68.933-68.932c-38.068,0-68.931,30.865-68.931,68.932
					c0,38.07,30.863,68.931,68.931,68.931C-64.201,173.652-33.335,142.792-33.335,104.721z"/>
				<circle fill="#939598" cx="-5.46" cy="5.607" r="6.827"/>
			</g>
		</g>
	</g>
</g>
<g>
	<g>
		
			<image overflow="visible" opacity="0.75" width="160" height="221" xlink:href="A6BD4FA8.png"  transform="matrix(1 0 0 1 -36.1665 60.8335)">
		</image>
		<g>
			<g>
				<circle fill="#939598" cx="98.874" cy="95.644" r="10.727"/>
				<circle fill="#939598" cx="76.981" cy="126.482" r="16.553"/>
				<circle fill="#939598" cx="37.746" cy="210.133" r="68.932"/>
				<circle fill="#939598" cx="114.469" cy="72.142" r="6.827"/>
			</g>
		</g>
	</g>
</g>
<g>
	<g>
		
			<image overflow="visible" opacity="0.75" width="159" height="221" xlink:href="A6BD4FA7.png"  transform="matrix(1 0 0 1 176.8335 60.8335)">
		</image>
		<g>
			<g>
				<path fill="#939598" d="M192.73,95.644c0-5.923,4.802-10.727,10.724-10.727c5.927,0,10.729,4.803,10.729,10.727
					c0,5.924-4.803,10.728-10.729,10.728C197.532,106.372,192.73,101.568,192.73,95.644z"/>
				<path fill="#939598" d="M208.794,126.482c0-9.143,7.412-16.554,16.557-16.554c9.139,0,16.551,7.411,16.551,16.554
					c0,9.142-7.412,16.552-16.551,16.552C216.207,143.034,208.794,135.624,208.794,126.482z"/>
				<path fill="#939598" d="M195.653,210.133c0-38.067,30.865-68.932,68.935-68.932c38.066,0,68.93,30.864,68.93,68.932
					c0,38.071-30.863,68.933-68.93,68.933C226.518,279.066,195.653,248.205,195.653,210.133z"/>
				<circle fill="#939598" cx="187.862" cy="72.142" r="6.827"/>
			</g>
		</g>
	</g>
</g>
<g>
	<g>
		
			<image overflow="visible" opacity="0.75" width="179" height="182" xlink:href="A6BD4FB6.png"  transform="matrix(1 0 0 1 296.8335 -5.1665)">
		</image>
		<g>
			<g>
				<circle fill="#E6E7E8" cx="332.74" cy="9.706" r="10.727"/>
				<circle fill="#E6E7E8" cx="365.361" cy="21.511" r="16.554"/>
				<circle fill="#E6E7E8" cx="404.596" cy="105.163" r="68.931"/>
				<path fill="#E6E7E8" d="M300.96,6.048c0-3.771,3.059-6.827,6.826-6.827c3.772,0,6.828,3.056,6.828,6.827
					s-3.056,6.827-6.828,6.827C304.019,12.875,300.96,9.82,300.96,6.048z"/>
			</g>
		</g>
	</g>
</g>
<g>
	<g>
		
			<image overflow="visible" opacity="0.75" width="180" height="182" xlink:href="A6BD4FB9.png"  transform="matrix(1 0 0 1 -176.1665 -5.1665)">
		</image>
		<g>
			<g>
				<circle fill="#E6E7E8" cx="-30.412" cy="9.706" r="10.727"/>
				<circle fill="#E6E7E8" cx="-63.032" cy="21.511" r="16.553"/>
				<circle fill="#E6E7E8" cx="-102.268" cy="105.163" r="68.932"/>
				<circle fill="#E6E7E8" cx="-5.461" cy="6.048" r="6.827"/>
			</g>
		</g>
	</g>
</g>
<g>
	<g>
		
			<image overflow="visible" opacity="0.75" width="160" height="221" xlink:href="A6BD4FB8.png"  transform="matrix(1 0 0 1 -36.1665 60.8335)">
		</image>
		<g>
			<g>
				<circle fill="#E6E7E8" cx="98.873" cy="96.085" r="10.727"/>
				<circle fill="#E6E7E8" cx="76.98" cy="126.923" r="16.553"/>
				<circle fill="#E6E7E8" cx="37.744" cy="210.575" r="68.932"/>
				<circle fill="#E6E7E8" cx="114.467" cy="72.583" r="6.827"/>
			</g>
		</g>
	</g>
</g>
<g>
	<g>
		
			<image overflow="visible" opacity="0.75" width="159" height="221" xlink:href="A6BD4FBF.png"  transform="matrix(1 0 0 1 176.8335 60.8335)">
		</image>
		<g>
			<g>
				<circle fill="#E6E7E8" cx="203.455" cy="96.085" r="10.727"/>
				<path fill="#E6E7E8" d="M208.793,126.923c0-9.144,7.412-16.554,16.557-16.554c9.139,0,16.551,7.411,16.551,16.554
					c0,9.142-7.412,16.551-16.551,16.551C216.206,143.474,208.793,136.065,208.793,126.923z"/>
				<path fill="#E6E7E8" d="M195.652,210.575c0-38.067,30.865-68.932,68.934-68.932c38.066,0,68.93,30.864,68.93,68.932
					c0,38.071-30.863,68.933-68.93,68.933C226.517,279.507,195.652,248.646,195.652,210.575z"/>
				<circle fill="#E6E7E8" cx="187.861" cy="72.583" r="6.827"/>
			</g>
		</g>
	</g>
</g>
</svg>
