<?xml version="1.0" encoding="utf-8"?>
<!-- Generator: Adobe Illustrator 16.0.0, SVG Export Plug-In . SVG Version: 6.00 Build 0)  -->
<!DOCTYPE svg PUBLIC "-//W3C//DTD SVG 1.1//EN" "http://www.w3.org/Graphics/SVG/1.1/DTD/svg11.dtd">
<svg version="1.1" id="Layer_1" xmlns="http://www.w3.org/2000/svg" xmlns:xlink="http://www.w3.org/1999/xlink" x="0px" y="0px"
	 width="36px" height="99px" viewBox="0 0 36 99" enable-background="new 0 0 36 99" xml:space="preserve">
<rect x="1.556" y="72.939" fill="#D0D2D3" width="26" height="26.061"/>
<rect x="1.234" y="39.939" fill="#D0D2D3" width="26" height="26.061"/>
<g>
	<rect x="1.556" y="6.938" fill="#D0D2D3" width="26" height="26.062"/>
</g>
<g>
	<g>
		<rect x="-129.772" y="15.194" fill="#FFFFFF" width="71.365" height="44.304"/>
		<rect x="-58.407" y="15.194" fill="#D0D2D3" width="41.141" height="44.304"/>
	</g>
	<g>
		<text transform="matrix(1 0 0 1 -111.7241 44.4609)" fill="#404041" font-family="'Comfortaa-Bold'" font-size="19.7791">Yes</text>
	</g>
	<g>
		<text transform="matrix(1 0 0 1 -44.646 44.5732)" fill="#404041" font-family="'FontAwesome'" font-size="20.8335"></text>
	</g>
</g>
<g>
	<g>
		<path fill="#404041" d="M19.919,50.818l-5.418,5.418c-0.07,0.07-0.174,0.116-0.268,0.116c-0.092,0-0.197-0.046-0.268-0.116
			l-5.418-5.418c-0.07-0.07-0.115-0.175-0.115-0.268s0.045-0.197,0.115-0.268l0.582-0.581c0.07-0.07,0.162-0.116,0.268-0.116
			c0.092,0,0.197,0.046,0.268,0.116l4.568,4.569l4.57-4.569c0.07-0.07,0.174-0.116,0.268-0.116c0.092,0,0.197,0.046,0.268,0.116
			l0.58,0.581c0.07,0.07,0.117,0.175,0.117,0.268S19.989,50.748,19.919,50.818z"/>
	</g>
</g>
<g>
	<g>
		<path fill="#404041" d="M19.919,83.949l-5.418,5.418c-0.07,0.07-0.174,0.116-0.268,0.116c-0.092,0-0.197-0.046-0.268-0.116
			l-5.418-5.418c-0.07-0.07-0.115-0.175-0.115-0.268s0.045-0.197,0.115-0.268l0.582-0.581c0.07-0.07,0.162-0.116,0.268-0.116
			c0.092,0,0.197,0.046,0.268,0.116l4.568,4.569l4.57-4.569c0.07-0.07,0.174-0.116,0.268-0.116c0.092,0,0.197,0.046,0.268,0.116
			l0.58,0.581c0.07,0.07,0.117,0.175,0.117,0.268S19.989,83.879,19.919,83.949z"/>
	</g>
</g>
<g opacity="0.5">
	<g>
		<path fill="#404041" d="M19.919,17.818l-5.418,5.418c-0.07,0.07-0.174,0.116-0.268,0.116c-0.092,0-0.197-0.046-0.268-0.116
			l-5.418-5.418c-0.07-0.07-0.115-0.175-0.115-0.268s0.045-0.197,0.115-0.268l0.582-0.581c0.07-0.07,0.162-0.116,0.268-0.116
			c0.092,0,0.197,0.046,0.268,0.116l4.568,4.569l4.57-4.569c0.07-0.07,0.174-0.116,0.268-0.116c0.092,0,0.197,0.046,0.268,0.116
			l0.58,0.581c0.07,0.07,0.117,0.175,0.117,0.268S19.989,17.748,19.919,17.818z"/>
	</g>
</g>
</svg>
