<?xml version="1.0" encoding="utf-8"?>
<!-- Generator: Adobe Illustrator 16.0.0, SVG Export Plug-In . SVG Version: 6.00 Build 0)  -->
<!DOCTYPE svg PUBLIC "-//W3C//DTD SVG 1.1//EN" "http://www.w3.org/Graphics/SVG/1.1/DTD/svg11.dtd">
<svg version="1.1" id="Layer_1" xmlns="http://www.w3.org/2000/svg" xmlns:xlink="http://www.w3.org/1999/xlink" x="0px" y="0px"
	 width="36px" height="99px" viewBox="0 0 36 99" enable-background="new 0 0 36 99" xml:space="preserve">
<g>
	<g>
		<path fill="#404041" d="M19.919,50.818l-5.418,5.418c-0.07,0.07-0.174,0.115-0.268,0.115c-0.092,0-0.197-0.045-0.268-0.115
			l-5.418-5.418c-0.07-0.07-0.115-0.176-0.115-0.269s0.045-0.196,0.115-0.268l0.582-0.581c0.07-0.07,0.162-0.116,0.268-0.116
			c0.092,0,0.197,0.046,0.268,0.116l4.568,4.568l4.57-4.568c0.07-0.07,0.174-0.116,0.268-0.116c0.093,0,0.197,0.046,0.269,0.116
			l0.58,0.581c0.069,0.069,0.117,0.175,0.117,0.268S19.988,50.748,19.919,50.818z"/>
	</g>
</g>
<g>
	<g>
		<path fill="#404041" d="M19.919,83.949l-5.418,5.418c-0.07,0.07-0.174,0.115-0.268,0.115c-0.092,0-0.197-0.045-0.268-0.115
			l-5.418-5.418c-0.07-0.07-0.115-0.176-0.115-0.268c0-0.094,0.045-0.197,0.115-0.269l0.582-0.581
			c0.07-0.07,0.162-0.116,0.268-0.116c0.092,0,0.197,0.046,0.268,0.116l4.568,4.568l4.57-4.568c0.07-0.07,0.174-0.116,0.268-0.116
			c0.093,0,0.197,0.046,0.269,0.116l0.58,0.581c0.069,0.069,0.117,0.175,0.117,0.269C20.036,83.773,19.988,83.879,19.919,83.949z"/>
	</g>
</g>
<path fill="#1A1A1A" d="M4.091,9.116v21.706h20.932V9.116H4.091z M22.282,27.903H6.829V12.035h15.453V27.903z"/>
<path fill="#1A1A1A" d="M4.091,42.116v21.706h20.932V42.116H4.091z M22.282,60.902H6.829V45.035h15.453V60.902z"/>
<path fill="#1A1A1A" d="M4.091,75.246v21.707h20.932V75.246H4.091z M22.282,94.033H6.829V78.165h15.453V94.033z"/>
</svg>
