<?xml version="1.0" encoding="utf-8"?>
<!-- Generator: Adobe Illustrator 16.0.0, SVG Export Plug-In . SVG Version: 6.00 Build 0)  -->
<!DOCTYPE svg PUBLIC "-//W3C//DTD SVG 1.1//EN" "http://www.w3.org/Graphics/SVG/1.1/DTD/svg11.dtd">
<svg version="1.1" id="Layer_1" xmlns="http://www.w3.org/2000/svg" xmlns:xlink="http://www.w3.org/1999/xlink" x="0px" y="0px"
	 width="188.667px" height="230.667px" viewBox="0 0 188.667 230.667" enable-background="new 0 0 188.667 230.667"
	 xml:space="preserve">
<g>
	
		<image overflow="visible" opacity="0.75" width="788" height="963" xlink:href="1E8D645E.png"  transform="matrix(0.24 0 0 0.24 -1.5 -1.1665)">
	</image>
	<g>
		<g>
			<path fill="#939598" d="M23.944,11.482c-3.636,3.633-3.636,9.525,0,13.159c3.635,3.633,9.529,3.634,13.165,0
				c3.635-3.633,3.635-9.525,0-13.159C33.473,7.848,27.579,7.848,23.944,11.482z"/>
			<path fill="#939598" d="M40.722,31.472c-5.61,5.609-5.61,14.7,0,20.307c5.608,5.607,14.704,5.607,20.314-0.001
				c5.608-5.606,5.608-14.697-0.001-20.305C55.426,25.866,46.332,25.866,40.722,31.472z"/>
			<ellipse fill="#939598" cx="96.962" cy="139.333" rx="88.538" ry="88.498"/>
			<circle fill="#939598" cx="8.425" cy="8.756" r="5.923"/>
		</g>
	</g>
</g>
<g>
	
		<image overflow="visible" opacity="0.75" width="788" height="963" xlink:href="1E8D645F.png"  transform="matrix(0.24 0 0 0.24 -0.8467 -0.1538)">
	</image>
	<g>
		<g>
			<path fill="#E6E7E8" d="M24.597,12.495c-3.636,3.633-3.636,9.525,0,13.159c3.635,3.633,9.529,3.634,13.165,0
				c3.635-3.633,3.635-9.525,0-13.159C34.126,8.86,28.232,8.86,24.597,12.495z"/>
			<path fill="#E6E7E8" d="M41.375,32.485c-5.61,5.609-5.61,14.7,0,20.307c5.608,5.607,14.704,5.607,20.314-0.001
				c5.608-5.606,5.608-14.697-0.001-20.305C56.08,26.879,46.985,26.879,41.375,32.485z"/>
			<ellipse fill="#E6E7E8" cx="97.616" cy="140.347" rx="88.538" ry="88.499"/>
			<circle fill="#E6E7E8" cx="9.079" cy="9.769" r="5.923"/>
		</g>
	</g>
</g>
</svg>
