<?xml version="1.0" encoding="utf-8"?>
<!-- Generator: Adobe Illustrator 16.0.0, SVG Export Plug-In . SVG Version: 6.00 Build 0)  -->
<!DOCTYPE svg PUBLIC "-//W3C//DTD SVG 1.1//EN" "http://www.w3.org/Graphics/SVG/1.1/DTD/svg11.dtd">
<svg version="1.1" id="Layer_1" xmlns="http://www.w3.org/2000/svg" xmlns:xlink="http://www.w3.org/1999/xlink" x="0px" y="0px"
	 width="124.667px" height="125px" viewBox="30.833 51.5 124.667 125" enable-background="new 30.833 51.5 124.667 125"
	 xml:space="preserve">
<g>
	<g>
		
			<image overflow="visible" opacity="0.75" width="125" height="127" xlink:href="36727757.png"  transform="matrix(1 0 0 1 29.8335 49.8335)">
		</image>
		<g>
			<g>
				<circle fill="#939598" cx="55.74" cy="61.508" r="7.333"/>
				<circle fill="#939598" cx="78.04" cy="69.578" r="11.315"/>
				<circle fill="#939598" cx="104.862" cy="126.763" r="47.122"/>
				<circle fill="#939598" cx="38.683" cy="59.008" r="4.667"/>
			</g>
		</g>
	</g>
	<g>
		<defs>
			<circle id="SVGID_1_" cx="104.862" cy="126.763" r="47.055"/>
		</defs>
		<use xlink:href="#SVGID_1_"  overflow="visible" fill="#939598"/>
		<clipPath id="SVGID_2_">
			<use xlink:href="#SVGID_1_"  overflow="visible"/>
		</clipPath>
		<g clip-path="url(#SVGID_2_)">
			<path fill="#939598" d="M87.309,150.533c6.718,0,12.79-2.719,17.194-7.121c0.091-0.09,0.172-0.182,0.256-0.271
				c1.063-1.094,2.023-2.289,2.866-3.561c0.005-0.01,0.01-0.016,0.01-0.016c0.202-0.314,0.403-0.635,0.599-0.951
				c0,0,0.012-0.033,0.021-0.045c0.188-0.316,0.365-0.633,0.537-0.953c0.015-0.029,0.025-0.059,0.039-0.082
				c0.168-0.313,0.326-0.627,0.479-0.949c0.014-0.037,0.034-0.08,0.057-0.127c0.141-0.305,0.278-0.615,0.41-0.926
				c0.025-0.059,0.045-0.123,0.07-0.182c0.123-0.295,0.24-0.596,0.35-0.9c0.023-0.082,0.054-0.164,0.078-0.242
				c0.104-0.285,0.199-0.574,0.291-0.867c0.034-0.098,0.057-0.207,0.088-0.311c0.079-0.271,0.158-0.541,0.227-0.816
				c0.035-0.133,0.06-0.262,0.09-0.395c0.059-0.252,0.119-0.508,0.174-0.768c0.032-0.152,0.057-0.318,0.086-0.479
				c0.045-0.232,0.084-0.463,0.123-0.699c0.025-0.191,0.05-0.385,0.074-0.586c0.025-0.207,0.059-0.404,0.076-0.611
				c0.027-0.242,0.037-0.488,0.057-0.732c0.01-0.16,0.03-0.326,0.035-0.49c0.021-0.404,0.034-0.824,0.034-1.24
				c-0.005-6.717-2.721-12.785-7.126-17.193c-4.404-4.402-10.476-7.121-17.194-7.121c-6.728,0-12.791,2.719-17.198,7.121
				c-4.403,4.408-7.122,10.476-7.122,17.193c0,6.729,2.718,12.795,7.122,17.199C74.518,147.814,80.581,150.533,87.309,150.533z
				 M108.422,145.63c-5.24,5.695-12.761,9.271-21.114,9.271c-8.176,0-15.543-3.424-20.769-8.91
				c-7.811,6.305-12.815,16.016-12.815,26.91c0,0.547,0.015,1.1,0.04,1.637h67.904c0.027-0.537,0.041-1.09,0.041-1.637
				C121.709,161.792,116.5,151.916,108.422,145.63z"/>
			<g>
				<path fill="#939598" d="M137.007,142.808c-2.856,1.041-6.032,1.348-9.229,0.727l0,0c-1.068-0.213-2.083-0.523-3.039-0.906l0,0
					c-0.262,0.107-0.518,0.211-0.773,0.305l0,0c-6.092,2.213-11.031,0.184-11.244,0.102l0,0c-0.724-0.299-1.187-1.012-1.162-1.795
					l0,0c0.025-0.779,0.537-1.469,1.281-1.715l0,0c0,0,0.015-0.01,0.084-0.031l0,0c0.283-0.098,1.344-0.535,2.24-1.254l0,0
					c0.748-0.602,1.322-1.293,1.541-2.125l0,0c-0.748-1.131-1.363-2.352-1.834-3.633l0,0c-1.041-2.838-1.35-6.01-0.725-9.199l0,0
					c1.199-6.145,5.534-10.894,11.016-12.9l0,0c2.852-1.047,6.033-1.354,9.225-0.729l0,0l-0.357,1.844l-0.357,1.836
					c-2.516-0.492-4.983-0.254-7.222,0.566l0,0c-4.3,1.578-7.687,5.285-8.624,10.101l0,0c-0.49,2.508-0.248,4.959,0.564,7.188l0,0
					c0.438,1.205,1.046,2.332,1.797,3.357l0,0c0.262,0.355,0.385,0.787,0.355,1.227l0,0c-0.123,1.891-0.988,3.357-1.988,4.432l0,0
					c1.234-0.037,2.638-0.248,4.12-0.793l0,0c0.399-0.143,0.808-0.32,1.231-0.516l0,0c0.497-0.246,1.078-0.252,1.586-0.021l0,0
					c0.958,0.439,1.955,0.773,3.004,0.977l0,0c2.508,0.492,4.984,0.25,7.215-0.564l0,0c4.301-1.578,7.688-5.285,8.629-10.109l0,0
					c0.488-2.506,0.257-4.98-0.566-7.219l0,0c-1.575-4.301-5.289-7.681-10.102-8.625l0,0l0.357-1.836l0.357-1.844
					c6.151,1.203,10.898,5.531,12.908,11.017l0,0c1.047,2.852,1.355,6.029,0.729,9.23l0,0c-1.206,6.146-5.535,10.895-11.012,12.898
					l0,0C137.012,142.808,137.007,142.808,137.007,142.808L137.007,142.808z"/>
			</g>
			<g>
				<path fill="#939598" d="M124.941,118.703l5.058-1.852l1.424,3.881l1.884,8.16l-3.128,1.143l-3.814-7.449L124.941,118.703z
					 M129.831,131.513l4.725-1.73l1.526,4.172l-4.724,1.734L129.831,131.513z"/>
			</g>
		</g>
	</g>
</g>
<g>
	<g>
		<path fill="#939598" d="M-153.132,21.148c-3.636,3.633-3.636,9.525,0,13.159c3.635,3.633,9.529,3.634,13.165,0
			c3.635-3.633,3.635-9.525,0-13.159C-143.603,17.515-149.497,17.515-153.132,21.148z"/>
		<path fill="#939598" d="M-136.354,41.139c-5.61,5.609-5.61,14.7,0,20.307c5.608,5.607,14.704,5.607,20.314-0.001
			c5.608-5.606,5.608-14.697-0.001-20.305C-121.65,35.533-130.744,35.533-136.354,41.139z"/>
		<circle fill="#939598" cx="-168.651" cy="18.423" r="5.923"/>
	</g>
</g>
<g>
	<g>
		
			<image overflow="visible" opacity="0.75" width="125" height="127" xlink:href="36727755.png"  transform="matrix(1 0 0 1 30.8335 50.8335)">
		</image>
		<g>
			<g>
				<circle fill="#E6E7E8" cx="56.74" cy="62.508" r="7.333"/>
				<circle fill="#E6E7E8" cx="79.04" cy="70.578" r="11.315"/>
				<circle fill="#E6E7E8" cx="105.862" cy="127.763" r="47.122"/>
				<circle fill="#E6E7E8" cx="39.683" cy="60.008" r="4.667"/>
			</g>
		</g>
	</g>
	<g>
		<defs>
			<circle id="SVGID_3_" cx="105.862" cy="127.763" r="47.055"/>
		</defs>
		<clipPath id="SVGID_4_">
			<use xlink:href="#SVGID_3_"  overflow="visible"/>
		</clipPath>
	</g>
</g>
</svg>
