<?xml version="1.0" encoding="utf-8"?>
<!-- Generator: Adobe Illustrator 16.0.0, SVG Export Plug-In . SVG Version: 6.00 Build 0)  -->
<!DOCTYPE svg PUBLIC "-//W3C//DTD SVG 1.1//EN" "http://www.w3.org/Graphics/SVG/1.1/DTD/svg11.dtd">
<svg version="1.1" id="Layer_1" xmlns="http://www.w3.org/2000/svg" xmlns:xlink="http://www.w3.org/1999/xlink" x="0px" y="0px"
	 width="61px" height="52px" viewBox="0 0 61 52" enable-background="new 0 0 61 52" xml:space="preserve">
<g>
	<path fill="#F1F2F2" d="M28.154,33.091C28.154,43.506,19.722,52,9.384,52H7.038c-1.283,0-2.346-1.071-2.346-2.363v-4.728
		c0-1.292,1.063-2.363,2.346-2.363h2.346c5.169,0,9.385-4.247,9.385-9.455v-1.182c0-1.958-1.576-3.546-3.519-3.546H7.038
		C3.152,28.363,0,25.188,0,21.273V7.091C0,3.176,3.152,0,7.038,0h14.077c3.886,0,7.039,3.176,7.039,7.091V33.091z M61,33.091
		C61,43.506,52.568,52,42.23,52h-2.346c-1.283,0-2.346-1.071-2.346-2.363v-4.728c0-1.292,1.063-2.363,2.346-2.363h2.346
		c5.17,0,9.385-4.247,9.385-9.455v-1.182c0-1.958-1.576-3.546-3.52-3.546h-8.211c-3.886,0-7.039-3.175-7.039-7.09V7.091
		C32.846,3.176,35.999,0,39.885,0h14.076C57.848,0,61,3.176,61,7.091V33.091z"/>
</g>
</svg>
