<?xml version="1.0" encoding="utf-8"?>
<!-- Generator: Adobe Illustrator 16.0.0, SVG Export Plug-In . SVG Version: 6.00 Build 0)  -->
<!DOCTYPE svg PUBLIC "-//W3C//DTD SVG 1.1//EN" "http://www.w3.org/Graphics/SVG/1.1/DTD/svg11.dtd">
<svg version="1.1" id="Layer_1" xmlns="http://www.w3.org/2000/svg" xmlns:xlink="http://www.w3.org/1999/xlink" x="0px" y="0px"
	 width="69px" height="54px" viewBox="0 0 69 54" enable-background="new 0 0 69 54" xml:space="preserve">
<g>
	<path fill="#BE1E2D" d="M69,12.273c0,1.342-1.117,2.454-2.464,2.454H2.464C1.117,14.727,0,13.615,0,12.273V2.455
		C0,1.112,1.117,0,2.464,0h64.072C67.883,0,69,1.112,69,2.455V12.273z M69,31.909c0,1.342-1.117,2.454-2.464,2.454H2.464
		C1.117,34.363,0,33.251,0,31.909v-9.818c0-1.342,1.117-2.455,2.464-2.455h64.072c1.347,0,2.464,1.112,2.464,2.455V31.909z
		 M69,51.546C69,52.888,67.883,54,66.536,54H2.464C1.117,54,0,52.888,0,51.546v-9.818c0-1.343,1.117-2.455,2.464-2.455h64.072
		c1.347,0,2.464,1.112,2.464,2.455V51.546z M64.071,29.454v-4.909H24.643v4.909H64.071z M64.071,49.091v-4.909H39.429v4.909H64.071z
		 M64.071,9.818V4.909H49.286v4.909H64.071z"/>
</g>
</svg>
