<?xml version="1.0" encoding="utf-8"?>
<!-- Generator: Adobe Illustrator 16.0.0, SVG Export Plug-In . SVG Version: 6.00 Build 0)  -->
<!DOCTYPE svg PUBLIC "-//W3C//DTD SVG 1.1//EN" "http://www.w3.org/Graphics/SVG/1.1/DTD/svg11.dtd">
<svg version="1.1" id="Layer_1" xmlns="http://www.w3.org/2000/svg" xmlns:xlink="http://www.w3.org/1999/xlink" x="0px" y="0px"
	 width="67.625px" height="47.661px" viewBox="0 0 67.625 47.661" enable-background="new 0 0 67.625 47.661" xml:space="preserve">
<g>
	<path fill="#0992A3" d="M67.625,41.43c0,3.441-2.79,6.23-6.231,6.23H6.23c-3.441,0-6.23-2.789-6.23-6.23V6.23
		C0,2.789,2.789,0,6.23,0h55.163c3.441,0,6.231,2.789,6.231,6.23V41.43z"/>
	<g>
		<path fill="#F1F2F2" d="M17.312,21.585c-0.586,0.284-1.352,0.426-2.296,0.426c-1.232,0-2.201-0.362-2.907-1.087
			c-0.706-0.724-1.059-1.689-1.059-2.896c0-1.285,0.396-2.326,1.19-3.125c0.793-0.799,1.823-1.198,3.089-1.198
			c0.784,0,1.445,0.099,1.982,0.296v1.742c-0.538-0.321-1.15-0.482-1.837-0.482c-0.754,0-1.363,0.237-1.826,0.711
			s-0.694,1.117-0.694,1.927c0,0.777,0.218,1.396,0.655,1.857c0.437,0.461,1.025,0.691,1.764,0.691c0.706,0,1.352-0.171,1.938-0.515
			V21.585z"/>
		<path fill="#F1F2F2" d="M24.044,21.871H22.28v-3.26c0-0.84-0.306-1.26-0.918-1.26c-0.313,0-0.568,0.118-0.762,0.353
			c-0.194,0.235-0.292,0.534-0.292,0.896v3.271h-1.77V13.38h1.77v3.607h0.022c0.433-0.661,1.021-0.991,1.765-0.991
			c1.299,0,1.949,0.784,1.949,2.353V21.871z"/>
		<path fill="#F1F2F2" d="M28.177,22.011c-0.956,0-1.707-0.268-2.254-0.804c-0.547-0.536-0.82-1.263-0.82-2.182
			c0-0.949,0.284-1.69,0.851-2.227c0.568-0.536,1.335-0.804,2.302-0.804c0.952,0,1.699,0.268,2.24,0.804
			c0.542,0.536,0.813,1.245,0.813,2.125c0,0.952-0.279,1.705-0.837,2.257C29.913,21.735,29.148,22.011,28.177,22.011z
			 M28.222,17.351c-0.418,0-0.743,0.144-0.975,0.431c-0.231,0.288-0.347,0.695-0.347,1.221c0,1.102,0.444,1.652,1.333,1.652
			c0.848,0,1.271-0.566,1.271-1.697C29.505,17.887,29.077,17.351,28.222,17.351z"/>
		<path fill="#F1F2F2" d="M35.19,22.011c-0.956,0-1.708-0.268-2.255-0.804c-0.547-0.536-0.82-1.263-0.82-2.182
			c0-0.949,0.284-1.69,0.851-2.227c0.568-0.536,1.335-0.804,2.302-0.804c0.952,0,1.699,0.268,2.24,0.804
			c0.541,0.536,0.813,1.245,0.813,2.125c0,0.952-0.279,1.705-0.838,2.257S36.161,22.011,35.19,22.011z M35.235,17.351
			c-0.418,0-0.744,0.144-0.975,0.431c-0.232,0.288-0.348,0.695-0.348,1.221c0,1.102,0.444,1.652,1.333,1.652
			c0.848,0,1.271-0.566,1.271-1.697C36.518,17.887,36.09,17.351,35.235,17.351z"/>
		<path fill="#F1F2F2" d="M42.202,22.011c-0.955,0-1.707-0.268-2.254-0.804c-0.547-0.536-0.82-1.263-0.82-2.182
			c0-0.949,0.283-1.69,0.851-2.227c0.567-0.536,1.335-0.804,2.302-0.804c0.953,0,1.699,0.268,2.24,0.804
			c0.542,0.536,0.813,1.245,0.813,2.125c0,0.952-0.279,1.705-0.837,2.257C43.938,21.735,43.173,22.011,42.202,22.011z
			 M42.247,17.351c-0.418,0-0.743,0.144-0.975,0.431c-0.231,0.288-0.348,0.695-0.348,1.221c0,1.102,0.445,1.652,1.334,1.652
			c0.848,0,1.271-0.566,1.271-1.697C43.53,17.887,43.103,17.351,42.247,17.351z"/>
		<path fill="#F1F2F2" d="M46.106,21.72v-1.434c0.291,0.175,0.582,0.306,0.871,0.392s0.563,0.129,0.82,0.129
			c0.314,0,0.561-0.043,0.742-0.129s0.271-0.217,0.271-0.392c0-0.112-0.041-0.206-0.123-0.28s-0.188-0.14-0.316-0.196
			c-0.129-0.056-0.27-0.106-0.423-0.151s-0.301-0.095-0.442-0.151c-0.229-0.086-0.429-0.178-0.602-0.277
			c-0.174-0.099-0.32-0.214-0.438-0.345s-0.207-0.282-0.27-0.454c-0.061-0.172-0.092-0.375-0.092-0.61
			c0-0.321,0.07-0.598,0.21-0.829s0.327-0.421,0.56-0.568c0.234-0.147,0.501-0.256,0.802-0.325c0.3-0.069,0.613-0.104,0.938-0.104
			c0.254,0,0.512,0.02,0.772,0.059c0.261,0.039,0.519,0.096,0.772,0.17v1.367c-0.224-0.13-0.463-0.229-0.719-0.294
			S48.935,17.2,48.688,17.2c-0.115,0-0.225,0.01-0.328,0.031c-0.102,0.021-0.193,0.051-0.271,0.09s-0.14,0.089-0.185,0.151
			c-0.045,0.062-0.067,0.131-0.067,0.21c0,0.104,0.033,0.194,0.102,0.269c0.066,0.075,0.154,0.139,0.263,0.193
			s0.229,0.103,0.361,0.146c0.132,0.043,0.265,0.087,0.396,0.132c0.234,0.082,0.447,0.172,0.638,0.269s0.354,0.211,0.49,0.341
			c0.136,0.131,0.241,0.284,0.313,0.459c0.073,0.175,0.109,0.385,0.109,0.627c0,0.34-0.074,0.63-0.221,0.871
			c-0.148,0.241-0.344,0.437-0.588,0.588c-0.245,0.151-0.527,0.261-0.846,0.331c-0.32,0.069-0.651,0.104-0.995,0.104
			C47.229,22.011,46.644,21.914,46.106,21.72z"/>
		<path fill="#F1F2F2" d="M56.681,19.507h-3.741c0.06,0.833,0.585,1.249,1.574,1.249c0.631,0,1.185-0.149,1.663-0.448v1.277
			c-0.53,0.284-1.219,0.426-2.066,0.426c-0.926,0-1.645-0.257-2.156-0.77c-0.512-0.514-0.768-1.229-0.768-2.148
			c0-0.952,0.276-1.706,0.829-2.263c0.552-0.556,1.231-0.834,2.038-0.834c0.837,0,1.484,0.249,1.941,0.745s0.686,1.17,0.686,2.022
			V19.507z M55.04,18.421c0-0.821-0.332-1.232-0.997-1.232c-0.284,0-0.529,0.118-0.736,0.353c-0.208,0.235-0.333,0.528-0.378,0.879
			H55.04z"/>
		<path fill="#F1F2F2" d="M29.737,28.5c-0.228-0.09-0.446-0.135-0.655-0.135c-0.567,0-0.852,0.309-0.852,0.925v0.61h1.311v1.305
			H28.23v4.431h-1.764v-4.431h-0.963v-1.305h0.963V29.19c0-0.654,0.213-1.18,0.639-1.58c0.426-0.399,1.004-0.6,1.736-0.6
			c0.358,0,0.657,0.037,0.896,0.112V28.5z"/>
		<path fill="#F1F2F2" d="M31.289,28.994c-0.299,0-0.543-0.089-0.734-0.267c-0.19-0.177-0.286-0.395-0.286-0.652
			c0-0.265,0.095-0.481,0.286-0.649s0.435-0.252,0.734-0.252c0.302,0,0.548,0.084,0.736,0.252s0.283,0.385,0.283,0.649
			c0,0.27-0.095,0.489-0.283,0.661S31.591,28.994,31.289,28.994z M32.163,35.636h-1.77v-5.735h1.77V35.636z"/>
		<path fill="#F1F2F2" d="M35.423,35.636h-1.77v-8.491h1.77V35.636z"/>
		<path fill="#F1F2F2" d="M42.065,33.272h-3.742c0.061,0.834,0.585,1.25,1.574,1.25c0.631,0,1.186-0.149,1.664-0.448v1.276
			c-0.531,0.284-1.219,0.426-2.066,0.426c-0.927,0-1.646-0.256-2.157-0.77c-0.511-0.514-0.767-1.229-0.767-2.148
			c0-0.952,0.275-1.706,0.828-2.263c0.553-0.556,1.232-0.835,2.039-0.835c0.836,0,1.483,0.249,1.941,0.746
			c0.457,0.496,0.686,1.17,0.686,2.021V33.272z M40.425,32.186c0-0.821-0.333-1.232-0.998-1.232c-0.283,0-0.529,0.117-0.736,0.354
			c-0.207,0.234-0.333,0.527-0.378,0.879H40.425z"/>
	</g>
</g>
</svg>
