<?xml version="1.0" encoding="utf-8"?>
<!-- Generator: Adobe Illustrator 16.0.0, SVG Export Plug-In . SVG Version: 6.00 Build 0)  -->
<!DOCTYPE svg PUBLIC "-//W3C//DTD SVG 1.1//EN" "http://www.w3.org/Graphics/SVG/1.1/DTD/svg11.dtd">
<svg version="1.1" id="Layer_1" xmlns="http://www.w3.org/2000/svg" xmlns:xlink="http://www.w3.org/1999/xlink" x="0px" y="0px"
	 width="155.562px" height="57.34px" viewBox="-41.781 33.344 155.562 57.34" enable-background="new -41.781 33.344 155.562 57.34"
	 xml:space="preserve">
<g>
	<g>
		<g>
			<g>
				<rect x="-41.781" y="33.344" fill="#0492A2" width="155.562" height="57.34"/>
			</g>
			<g>
				<g>
					<path fill="#FFFFFF" d="M11.6,71.873c0,0.247-0.164,0.493-0.391,0.596c-0.226,0.103-0.513,0.082-0.698-0.082l-3.943-3.286
						c-0.144-0.145-0.226-0.328-0.226-0.514v-6.572H-6.802v3.943c0,0.514-0.308,0.965-0.76,1.191
						c-0.473,0.205-1.027,0.144-1.417-0.186l-7.887-6.572c-0.596-0.492-0.596-1.52,0-2.012l7.887-6.572
						c0.39-0.329,0.944-0.411,1.417-0.186c0.452,0.227,0.76,0.678,0.76,1.191v3.943h17.725c0.37,0,0.678,0.287,0.678,0.657V71.873z"
						/>
				</g>
				<g>
					<path fill="#FFFFFF" d="M45.135,63.723c0,1.299-0.375,2.305-1.127,3.019c-0.752,0.713-1.842,1.069-3.268,1.069
						c-0.943,0-1.691-0.135-2.242-0.403v-1.818c0.72,0.419,1.446,0.629,2.18,0.629c0.729,0,1.295-0.192,1.695-0.578
						c0.401-0.385,0.602-0.907,0.602-1.568v-0.554h-0.027c-0.492,0.784-1.219,1.176-2.18,1.176c-0.894,0-1.603-0.314-2.127-0.943
						c-0.523-0.629-0.785-1.472-0.785-2.529c0-1.185,0.291-2.126,0.875-2.823c0.583-0.697,1.351-1.046,2.303-1.046
						c0.853,0,1.49,0.328,1.914,0.984h0.027v-0.813h2.16V63.723z M43.002,61.159v-0.554c0-0.442-0.131-0.819-0.393-1.132
						c-0.262-0.312-0.603-0.468-1.021-0.468c-0.479,0-0.855,0.187-1.129,0.561s-0.41,0.9-0.41,1.579
						c0,0.583,0.131,1.045,0.391,1.385c0.26,0.339,0.615,0.509,1.066,0.509c0.446,0,0.807-0.172,1.083-0.517
						C42.865,62.179,43.002,61.725,43.002,61.159z"/>
					<path fill="#FFFFFF" d="M50.275,64.693c-1.166,0-2.084-0.327-2.751-0.981c-0.667-0.653-1.001-1.541-1.001-2.662
						c0-1.157,0.346-2.063,1.039-2.717c0.692-0.654,1.629-0.981,2.809-0.981c1.162,0,2.074,0.327,2.734,0.981
						c0.661,0.653,0.992,1.519,0.992,2.594c0,1.162-0.342,2.08-1.022,2.755S51.461,64.693,50.275,64.693z M50.33,59.006
						c-0.51,0-0.906,0.176-1.189,0.526c-0.282,0.351-0.424,0.848-0.424,1.49c0,1.345,0.543,2.017,1.627,2.017
						c1.035,0,1.553-0.69,1.553-2.071C51.896,59.66,51.374,59.006,50.33,59.006z"/>
					<path fill="#FFFFFF" d="M61.549,63.709h-0.027v0.813h-2.16V54.159h2.16v4.416h0.027c0.533-0.815,1.291-1.224,2.275-1.224
						c0.902,0,1.598,0.31,2.086,0.93c0.487,0.62,0.73,1.468,0.73,2.543c0,1.167-0.284,2.104-0.854,2.81
						c-0.57,0.706-1.331,1.06-2.283,1.06C62.643,64.693,61.99,64.365,61.549,63.709z M61.486,60.756v0.718
						c0,0.451,0.131,0.825,0.391,1.121s0.592,0.444,0.998,0.444c0.492,0,0.873-0.19,1.145-0.571c0.271-0.38,0.406-0.919,0.406-1.616
						c0-0.579-0.123-1.031-0.372-1.356c-0.249-0.326-0.603-0.489-1.063-0.489c-0.433,0-0.791,0.162-1.076,0.485
						S61.486,60.236,61.486,60.756z"/>
					<path fill="#FFFFFF" d="M73.867,64.522h-2.045v-1.005h-0.027c-0.469,0.784-1.164,1.176-2.084,1.176
						c-0.68,0-1.214-0.192-1.604-0.577c-0.39-0.386-0.584-0.899-0.584-1.542c0-1.358,0.804-2.142,2.412-2.352l1.9-0.253
						c0-0.766-0.414-1.148-1.244-1.148c-0.834,0-1.627,0.248-2.379,0.745v-1.627c0.301-0.155,0.713-0.292,1.234-0.41
						s0.997-0.178,1.426-0.178c1.996,0,2.994,0.996,2.994,2.987V64.522z M71.836,61.679v-0.472l-1.271,0.164
						c-0.701,0.091-1.053,0.408-1.053,0.95c0,0.246,0.086,0.447,0.257,0.605c0.171,0.156,0.402,0.235,0.694,0.235
						c0.405,0,0.735-0.14,0.99-0.421C71.709,62.462,71.836,62.107,71.836,61.679z"/>
					<path fill="#FFFFFF" d="M80.881,64.27c-0.488,0.282-1.192,0.424-2.113,0.424c-1.075,0-1.945-0.326-2.611-0.978
						c-0.665-0.651-0.998-1.492-0.998-2.522c0-1.189,0.357-2.127,1.07-2.813c0.713-0.686,1.667-1.028,2.861-1.028
						c0.824,0,1.422,0.109,1.791,0.328v1.832c-0.451-0.337-0.955-0.506-1.512-0.506c-0.619,0-1.11,0.181-1.473,0.544
						c-0.362,0.361-0.543,0.862-0.543,1.5c0,0.62,0.173,1.106,0.52,1.459c0.346,0.354,0.822,0.53,1.428,0.53
						c0.538,0,1.064-0.169,1.58-0.506V64.27z"/>
					<path fill="#FFFFFF" d="M89.309,64.522h-2.59l-2.236-3.473h-0.027v3.473h-2.16V54.159h2.16v6.597h0.027l2.086-3.233h2.563
						l-2.508,3.288L89.309,64.522z"/>
				</g>
			</g>
		</g>
	</g>
</g>
</svg>
