<?xml version="1.0" encoding="utf-8"?>
<!-- Generator: Adobe Illustrator 16.0.0, SVG Export Plug-In . SVG Version: 6.00 Build 0)  -->
<!DOCTYPE svg PUBLIC "-//W3C//DTD SVG 1.1//EN" "http://www.w3.org/Graphics/SVG/1.1/DTD/svg11.dtd">
<svg version="1.1" id="Layer_1" xmlns="http://www.w3.org/2000/svg" xmlns:xlink="http://www.w3.org/1999/xlink" x="0px" y="0px"
	 width="3.417px" height="6.333px" viewBox="0 0 3.417 6.333" enable-background="new 0 0 3.417 6.333" xml:space="preserve">
<g>
	<path fill="#D1D3D4" d="M-509.188,5.887c-0.326,0-0.597-0.27-0.814-0.805c-0.217-0.537-0.326-1.193-0.326-1.979
		c0-0.805,0.112-1.461,0.335-1.979c0.223-0.514,0.502-0.771,0.836-0.771c0.338,0,0.615,0.264,0.83,0.781
		c0.215,0.521,0.323,1.178,0.323,1.969c0,0.818-0.11,1.484-0.329,2.006C-508.553,5.627-508.837,5.887-509.188,5.887z"/>
	<path fill="#D1D3D4" d="M-505.712,5.887c-0.326,0-0.597-0.27-0.814-0.805c-0.217-0.537-0.325-1.193-0.325-1.979
		c0-0.805,0.111-1.461,0.334-1.979c0.223-0.514,0.502-0.771,0.836-0.771c0.338,0,0.615,0.264,0.83,0.781
		c0.215,0.521,0.323,1.178,0.323,1.969c0,0.818-0.11,1.484-0.329,2.006C-505.077,5.627-505.362,5.887-505.712,5.887z"/>
	<path fill="#D1D3D4" d="M-502.237,5.887c-0.326,0-0.598-0.27-0.814-0.805c-0.217-0.537-0.326-1.193-0.326-1.979
		c0-0.805,0.112-1.461,0.335-1.979c0.223-0.514,0.502-0.771,0.836-0.771c0.338,0,0.614,0.264,0.829,0.781
		c0.215,0.521,0.323,1.178,0.323,1.969c0,0.818-0.109,1.484-0.329,2.006C-501.602,5.627-501.887,5.887-502.237,5.887z"/>
	<path fill="#D1D3D4" d="M-498.762,5.887c-0.326,0-0.597-0.27-0.814-0.805c-0.216-0.537-0.325-1.193-0.325-1.979
		c0-0.805,0.112-1.461,0.335-1.979c0.223-0.514,0.502-0.771,0.836-0.771c0.338,0,0.615,0.264,0.83,0.781
		c0.215,0.521,0.323,1.178,0.323,1.969c0,0.818-0.11,1.484-0.329,2.006C-498.126,5.627-498.411,5.887-498.762,5.887z"/>
	<path fill="#D1D3D4" d="M-495.286,5.887c-0.326,0-0.597-0.27-0.814-0.805c-0.217-0.537-0.326-1.193-0.326-1.979
		c0-0.805,0.112-1.461,0.335-1.979c0.223-0.514,0.501-0.771,0.836-0.771c0.338,0,0.615,0.264,0.83,0.781
		c0.215,0.521,0.322,1.178,0.322,1.969c0,0.818-0.109,1.484-0.329,2.006C-494.65,5.627-494.936,5.887-495.286,5.887z"/>
	<path fill="#D1D3D4" d="M-491.811,5.887c-0.326,0-0.597-0.27-0.814-0.805c-0.217-0.537-0.326-1.193-0.326-1.979
		c0-0.805,0.112-1.461,0.335-1.979c0.223-0.514,0.501-0.771,0.836-0.771c0.338,0,0.614,0.264,0.829,0.781
		c0.215,0.521,0.323,1.178,0.323,1.969c0,0.818-0.11,1.484-0.329,2.006C-491.175,5.627-491.46,5.887-491.811,5.887z"/>
	<path fill="#D1D3D4" d="M-488.335,5.887c-0.326,0-0.597-0.27-0.814-0.805c-0.217-0.537-0.326-1.193-0.326-1.979
		c0-0.805,0.112-1.461,0.335-1.979c0.223-0.514,0.501-0.771,0.836-0.771c0.338,0,0.615,0.264,0.83,0.781
		c0.215,0.521,0.322,1.178,0.322,1.969c0,0.818-0.11,1.484-0.329,2.006C-487.7,5.627-487.985,5.887-488.335,5.887z"/>
	<path fill="#D1D3D4" d="M-484.86,5.887c-0.326,0-0.598-0.27-0.814-0.805C-485.891,4.545-486,3.889-486,3.104
		c0-0.805,0.112-1.461,0.335-1.979c0.223-0.514,0.501-0.771,0.836-0.771c0.338,0,0.614,0.264,0.83,0.781
		c0.215,0.521,0.322,1.178,0.322,1.969c0,0.818-0.11,1.484-0.329,2.006C-484.225,5.627-484.509,5.887-484.86,5.887z"/>
	<path fill="#D1D3D4" d="M-481.385,5.887c-0.325,0-0.597-0.27-0.814-0.805c-0.217-0.537-0.326-1.193-0.326-1.979
		c0-0.805,0.112-1.461,0.335-1.979c0.223-0.514,0.501-0.771,0.836-0.771c0.338,0,0.615,0.264,0.83,0.781
		c0.215,0.521,0.322,1.178,0.322,1.969c0,0.818-0.109,1.484-0.329,2.006C-480.749,5.627-481.034,5.887-481.385,5.887z"/>
	<path fill="#D1D3D4" d="M-477.909,5.887c-0.326,0-0.597-0.27-0.814-0.805c-0.217-0.537-0.326-1.193-0.326-1.979
		c0-0.805,0.112-1.461,0.335-1.979c0.223-0.514,0.502-0.771,0.836-0.771c0.338,0,0.614,0.264,0.83,0.781
		c0.215,0.521,0.322,1.178,0.322,1.969c0,0.818-0.109,1.484-0.329,2.006C-477.274,5.627-477.559,5.887-477.909,5.887z"/>
	<path fill="#D1D3D4" d="M-474.434,5.887c-0.325,0-0.597-0.27-0.814-0.805c-0.217-0.537-0.325-1.193-0.325-1.979
		c0-0.805,0.111-1.461,0.334-1.979c0.224-0.514,0.502-0.771,0.836-0.771c0.338,0,0.615,0.264,0.83,0.781
		c0.215,0.521,0.322,1.178,0.322,1.969c0,0.818-0.109,1.484-0.329,2.006C-473.798,5.627-474.083,5.887-474.434,5.887z"/>
	<path fill="#D1D3D4" d="M-470.958,5.887c-0.326,0-0.597-0.27-0.814-0.805c-0.217-0.537-0.326-1.193-0.326-1.979
		c0-0.805,0.112-1.461,0.335-1.979c0.223-0.514,0.502-0.771,0.836-0.771c0.338,0,0.615,0.264,0.83,0.781
		c0.214,0.521,0.322,1.178,0.322,1.969c0,0.818-0.109,1.484-0.329,2.006C-470.323,5.627-470.608,5.887-470.958,5.887z"/>
	<path fill="#D1D3D4" d="M-467.483,5.887c-0.325,0-0.597-0.27-0.814-0.805c-0.217-0.537-0.325-1.193-0.325-1.979
		c0-0.805,0.111-1.461,0.335-1.979c0.223-0.514,0.502-0.771,0.836-0.771c0.338,0,0.614,0.264,0.83,0.781
		c0.215,0.521,0.322,1.178,0.322,1.969c0,0.818-0.109,1.484-0.329,2.006C-466.848,5.627-467.132,5.887-467.483,5.887z"/>
	<path fill="#D1D3D4" d="M-464.008,5.887c-0.326,0-0.597-0.27-0.814-0.805c-0.217-0.537-0.326-1.193-0.326-1.979
		c0-0.805,0.112-1.461,0.335-1.979c0.223-0.514,0.502-0.771,0.836-0.771c0.338,0,0.615,0.264,0.83,0.781
		c0.215,0.521,0.322,1.178,0.322,1.969c0,0.818-0.109,1.484-0.329,2.006C-463.372,5.627-463.657,5.887-464.008,5.887z"/>
	<path fill="#D1D3D4" d="M-460.532,5.887c-0.326,0-0.597-0.27-0.814-0.805c-0.217-0.537-0.326-1.193-0.326-1.979
		c0-0.805,0.112-1.461,0.335-1.979c0.223-0.514,0.502-0.771,0.836-0.771c0.338,0,0.614,0.264,0.83,0.781
		c0.215,0.521,0.322,1.178,0.322,1.969c0,0.818-0.109,1.484-0.328,2.006C-459.897,5.627-460.182,5.887-460.532,5.887z"/>
	<path fill="#D1D3D4" d="M-457.057,5.887c-0.325,0-0.597-0.27-0.814-0.805c-0.217-0.537-0.325-1.193-0.325-1.979
		c0-0.805,0.111-1.461,0.334-1.979c0.224-0.514,0.502-0.771,0.836-0.771c0.338,0,0.615,0.264,0.83,0.781
		c0.215,0.521,0.323,1.178,0.323,1.969c0,0.818-0.11,1.484-0.329,2.006C-456.421,5.627-456.707,5.887-457.057,5.887z"/>
	<path fill="#D1D3D4" d="M-453.582,5.887c-0.326,0-0.597-0.27-0.814-0.805c-0.217-0.537-0.326-1.193-0.326-1.979
		c0-0.805,0.112-1.461,0.335-1.979c0.223-0.514,0.502-0.771,0.836-0.771c0.338,0,0.614,0.264,0.83,0.781
		c0.215,0.521,0.323,1.178,0.323,1.969c0,0.818-0.109,1.484-0.329,2.006C-452.946,5.627-453.231,5.887-453.582,5.887z"/>
	<path fill="#D1D3D4" d="M-450.106,5.887c-0.325,0-0.597-0.27-0.814-0.805c-0.216-0.537-0.325-1.193-0.325-1.979
		c0-0.805,0.111-1.461,0.334-1.979c0.224-0.514,0.502-0.771,0.836-0.771c0.338,0,0.615,0.264,0.83,0.781
		c0.215,0.521,0.323,1.178,0.323,1.969c0,0.818-0.11,1.484-0.329,2.006C-449.471,5.627-449.755,5.887-450.106,5.887z"/>
	<path fill="#D1D3D4" d="M-446.631,5.887c-0.326,0-0.597-0.27-0.814-0.805c-0.217-0.537-0.326-1.193-0.326-1.979
		c0-0.805,0.112-1.461,0.335-1.979c0.223-0.514,0.502-0.771,0.836-0.771c0.338,0,0.615,0.264,0.83,0.781
		c0.215,0.521,0.322,1.178,0.322,1.969c0,0.818-0.109,1.484-0.329,2.006C-445.995,5.627-446.28,5.887-446.631,5.887z"/>
	<path fill="#D1D3D4" d="M-443.156,5.887c-0.325,0-0.597-0.27-0.813-0.805c-0.217-0.537-0.325-1.193-0.325-1.979
		c0-0.805,0.111-1.461,0.334-1.979c0.224-0.514,0.502-0.771,0.836-0.771c0.339,0,0.615,0.264,0.83,0.781
		c0.215,0.521,0.322,1.178,0.322,1.969c0,0.818-0.109,1.484-0.328,2.006C-442.52,5.627-442.804,5.887-443.156,5.887z"/>
	<path fill="#D1D3D4" d="M-439.68,5.887c-0.325,0-0.597-0.27-0.813-0.805c-0.217-0.537-0.326-1.193-0.326-1.979
		c0-0.805,0.111-1.461,0.335-1.979c0.224-0.514,0.502-0.771,0.837-0.771c0.338,0,0.614,0.264,0.829,0.781
		c0.216,0.521,0.323,1.178,0.323,1.969c0,0.818-0.11,1.484-0.33,2.006C-439.044,5.627-439.33,5.887-439.68,5.887z"/>
	<path fill="#D1D3D4" d="M-436.205,5.887c-0.326,0-0.598-0.27-0.814-0.805c-0.217-0.537-0.325-1.193-0.325-1.979
		c0-0.805,0.112-1.461,0.335-1.979c0.223-0.514,0.502-0.771,0.836-0.771c0.338,0,0.615,0.264,0.83,0.781
		c0.215,0.521,0.322,1.178,0.322,1.969c0,0.818-0.109,1.484-0.328,2.006C-435.569,5.627-435.854,5.887-436.205,5.887z"/>
	<path fill="#D1D3D4" d="M-432.729,5.887c-0.325,0-0.597-0.27-0.814-0.805c-0.217-0.537-0.325-1.193-0.325-1.979
		c0-0.805,0.111-1.461,0.335-1.979c0.223-0.514,0.502-0.771,0.836-0.771c0.339,0,0.614,0.264,0.829,0.781
		c0.216,0.521,0.323,1.178,0.323,1.969c0,0.818-0.11,1.484-0.329,2.006C-432.093,5.627-432.378,5.887-432.729,5.887z"/>
	<path fill="#D1D3D4" d="M-429.253,5.887c-0.326,0-0.598-0.27-0.814-0.805c-0.217-0.537-0.326-1.193-0.326-1.979
		c0-0.805,0.113-1.461,0.336-1.979c0.223-0.514,0.502-0.771,0.836-0.771c0.338,0,0.614,0.264,0.829,0.781
		c0.216,0.521,0.323,1.178,0.323,1.969c0,0.818-0.109,1.484-0.329,2.006C-428.619,5.627-428.903,5.887-429.253,5.887z"/>
	<path fill="#D1D3D4" d="M-425.779,5.887c-0.325,0-0.597-0.27-0.813-0.805c-0.217-0.537-0.325-1.193-0.325-1.979
		c0-0.805,0.111-1.461,0.334-1.979c0.225-0.514,0.502-0.771,0.836-0.771c0.339,0,0.615,0.264,0.83,0.781
		c0.215,0.521,0.322,1.178,0.322,1.969c0,0.818-0.109,1.484-0.328,2.006C-425.142,5.627-425.427,5.887-425.779,5.887z"/>
	<path fill="#D1D3D4" d="M-422.302,5.887c-0.326,0-0.598-0.27-0.814-0.805c-0.217-0.537-0.326-1.193-0.326-1.979
		c0-0.805,0.112-1.461,0.336-1.979c0.223-0.514,0.501-0.771,0.836-0.771c0.338,0,0.614,0.264,0.829,0.781
		c0.215,0.521,0.322,1.178,0.322,1.969c0,0.818-0.109,1.484-0.329,2.006C-421.667,5.627-421.953,5.887-422.302,5.887z"/>
	<path fill="#D1D3D4" d="M-418.828,5.887c-0.325,0-0.598-0.27-0.814-0.805c-0.217-0.537-0.325-1.193-0.325-1.979
		c0-0.805,0.112-1.461,0.335-1.979c0.224-0.514,0.502-0.771,0.836-0.771c0.338,0,0.615,0.264,0.83,0.781
		c0.215,0.521,0.322,1.178,0.322,1.969c0,0.818-0.109,1.484-0.328,2.006C-418.192,5.627-418.476,5.887-418.828,5.887z"/>
	<path fill="#D1D3D4" d="M-415.352,5.887c-0.325,0-0.597-0.27-0.813-0.805c-0.218-0.537-0.326-1.193-0.326-1.979
		c0-0.805,0.111-1.461,0.335-1.979c0.224-0.514,0.501-0.771,0.836-0.771c0.339,0,0.614,0.264,0.83,0.781
		c0.215,0.521,0.322,1.178,0.322,1.969c0,0.818-0.109,1.484-0.329,2.006C-414.716,5.627-415.001,5.887-415.352,5.887z"/>
	<path fill="#D1D3D4" d="M-411.876,5.887c-0.326,0-0.598-0.27-0.814-0.805c-0.217-0.537-0.326-1.193-0.326-1.979
		c0-0.805,0.113-1.461,0.336-1.979c0.223-0.514,0.502-0.771,0.836-0.771c0.338,0,0.614,0.264,0.83,0.781
		c0.215,0.521,0.322,1.178,0.322,1.969c0,0.818-0.109,1.484-0.329,2.006C-411.242,5.627-411.526,5.887-411.876,5.887z"/>
	<path fill="#D1D3D4" d="M-408.402,5.887c-0.324,0-0.597-0.27-0.813-0.805c-0.218-0.537-0.325-1.193-0.325-1.979
		c0-0.805,0.111-1.461,0.334-1.979c0.224-0.514,0.502-0.771,0.836-0.771c0.339,0,0.615,0.264,0.83,0.781
		c0.215,0.521,0.322,1.178,0.322,1.969c0,0.818-0.109,1.484-0.328,2.006C-407.765,5.627-408.05,5.887-408.402,5.887z"/>
	<path fill="#D1D3D4" d="M-404.925,5.887c-0.326,0-0.598-0.27-0.814-0.805c-0.217-0.537-0.326-1.193-0.326-1.979
		c0-0.805,0.112-1.461,0.336-1.979c0.223-0.514,0.502-0.771,0.836-0.771c0.338,0,0.614,0.264,0.829,0.781
		c0.215,0.521,0.322,1.178,0.322,1.969c0,0.818-0.108,1.484-0.329,2.006C-404.291,5.627-404.576,5.887-404.925,5.887z"/>
	<path fill="#D1D3D4" d="M-401.451,5.887c-0.325,0-0.598-0.27-0.814-0.805c-0.217-0.537-0.324-1.193-0.324-1.979
		c0-0.805,0.111-1.461,0.334-1.979c0.224-0.514,0.502-0.771,0.836-0.771c0.338,0,0.615,0.264,0.83,0.781
		c0.215,0.521,0.322,1.178,0.322,1.969c0,0.818-0.109,1.484-0.328,2.006C-400.815,5.627-401.099,5.887-401.451,5.887z"/>
	<path fill="#D1D3D4" d="M-397.975,5.887c-0.325,0-0.597-0.27-0.813-0.805c-0.218-0.537-0.326-1.193-0.326-1.979
		c0-0.805,0.111-1.461,0.335-1.979c0.224-0.514,0.502-0.771,0.836-0.771c0.338,0,0.614,0.264,0.83,0.781
		c0.215,0.521,0.321,1.178,0.321,1.969c0,0.818-0.108,1.484-0.328,2.006C-397.339,5.627-397.625,5.887-397.975,5.887z"/>
	<path fill="#D1D3D4" d="M-394.5,5.887c-0.326,0-0.598-0.27-0.814-0.805c-0.217-0.537-0.325-1.193-0.325-1.979
		c0-0.805,0.111-1.461,0.335-1.979c0.223-0.514,0.502-0.771,0.836-0.771c0.338,0,0.614,0.264,0.83,0.781
		c0.215,0.521,0.322,1.178,0.322,1.969c0,0.818-0.109,1.484-0.328,2.006C-393.865,5.627-394.149,5.887-394.5,5.887z"/>
	<path fill="#D1D3D4" d="M-391.025,5.887c-0.325,0-0.596-0.27-0.813-0.805c-0.217-0.537-0.325-1.193-0.325-1.979
		c0-0.805,0.111-1.461,0.334-1.979c0.224-0.514,0.502-0.771,0.836-0.771c0.339,0,0.615,0.264,0.83,0.781
		c0.216,0.521,0.323,1.178,0.323,1.969c0,0.818-0.11,1.484-0.329,2.006C-390.388,5.627-390.673,5.887-391.025,5.887z"/>
	<path fill="#D1D3D4" d="M-387.548,5.887c-0.326,0-0.598-0.27-0.814-0.805c-0.217-0.537-0.326-1.193-0.326-1.979
		c0-0.805,0.112-1.461,0.336-1.979c0.223-0.514,0.502-0.771,0.836-0.771c0.338,0,0.613,0.264,0.829,0.781
		c0.216,0.521,0.323,1.178,0.323,1.969c0,0.818-0.11,1.484-0.329,2.006C-386.914,5.627-387.199,5.887-387.548,5.887z"/>
	<path fill="#D1D3D4" d="M-384.074,5.887c-0.325,0-0.597-0.27-0.814-0.805c-0.217-0.537-0.324-1.193-0.324-1.979
		c0-0.805,0.111-1.461,0.334-1.979c0.224-0.514,0.502-0.771,0.836-0.771c0.338,0,0.615,0.264,0.83,0.781
		c0.215,0.521,0.322,1.178,0.322,1.969c0,0.818-0.109,1.484-0.328,2.006C-383.438,5.627-383.723,5.887-384.074,5.887z"/>
	<path fill="#D1D3D4" d="M-380.598,5.887c-0.325,0-0.597-0.27-0.813-0.805c-0.217-0.537-0.326-1.193-0.326-1.979
		c0-0.805,0.111-1.461,0.335-1.979c0.224-0.514,0.502-0.771,0.836-0.771c0.338,0,0.614,0.264,0.829,0.781
		c0.216,0.521,0.323,1.178,0.323,1.969c0,0.818-0.109,1.484-0.329,2.006C-379.962,5.627-380.248,5.887-380.598,5.887z"/>
	<path fill="#D1D3D4" d="M-377.123,5.887c-0.326,0-0.598-0.27-0.814-0.805c-0.217-0.537-0.325-1.193-0.325-1.979
		c0-0.805,0.111-1.461,0.335-1.979c0.223-0.514,0.502-0.771,0.836-0.771c0.338,0,0.614,0.264,0.83,0.781
		c0.215,0.521,0.322,1.178,0.322,1.969c0,0.818-0.109,1.484-0.328,2.006C-376.488,5.627-376.772,5.887-377.123,5.887z"/>
	<path fill="#D1D3D4" d="M-373.648,5.887c-0.325,0-0.596-0.27-0.813-0.805c-0.217-0.537-0.325-1.193-0.325-1.979
		c0-0.805,0.111-1.461,0.334-1.979c0.224-0.514,0.502-0.771,0.837-0.771c0.338,0,0.614,0.264,0.829,0.781
		c0.215,0.521,0.322,1.178,0.322,1.969c0,0.818-0.109,1.484-0.328,2.006C-373.011,5.627-373.296,5.887-373.648,5.887z"/>
	<path fill="#D1D3D4" d="M-370.171,5.887c-0.326,0-0.598-0.27-0.814-0.805c-0.217-0.537-0.326-1.193-0.326-1.979
		c0-0.805,0.112-1.461,0.336-1.979c0.223-0.514,0.502-0.771,0.836-0.771c0.338,0,0.614,0.264,0.829,0.781
		c0.216,0.521,0.323,1.178,0.323,1.969c0,0.818-0.11,1.484-0.329,2.006C-369.537,5.627-369.822,5.887-370.171,5.887z"/>
	<path fill="#D1D3D4" d="M-366.697,5.887c-0.325,0-0.597-0.27-0.814-0.805c-0.217-0.537-0.325-1.193-0.325-1.979
		c0-0.805,0.112-1.461,0.335-1.979c0.223-0.514,0.502-0.771,0.836-0.771c0.339,0,0.615,0.264,0.83,0.781
		c0.215,0.521,0.322,1.178,0.322,1.969c0,0.818-0.109,1.484-0.328,2.006C-366.06,5.627-366.346,5.887-366.697,5.887z"/>
	<path fill="#D1D3D4" d="M-363.22,5.887c-0.326,0-0.598-0.27-0.814-0.805c-0.217-0.537-0.326-1.193-0.326-1.979
		c0-0.805,0.112-1.461,0.336-1.979c0.223-0.514,0.501-0.771,0.836-0.771c0.338,0,0.613,0.264,0.828,0.781
		c0.216,0.521,0.323,1.178,0.323,1.969c0,0.818-0.11,1.484-0.329,2.006C-362.585,5.627-362.871,5.887-363.22,5.887z"/>
	<path fill="#D1D3D4" d="M-359.746,5.887c-0.326,0-0.598-0.27-0.814-0.805c-0.217-0.537-0.325-1.193-0.325-1.979
		c0-0.805,0.112-1.461,0.335-1.979c0.224-0.514,0.502-0.771,0.836-0.771c0.338,0,0.615,0.264,0.83,0.781
		c0.215,0.521,0.322,1.178,0.322,1.969c0,0.818-0.109,1.484-0.329,2.006C-359.11,5.627-359.395,5.887-359.746,5.887z"/>
	<path fill="#D1D3D4" d="M-356.27,5.887c-0.326,0-0.597-0.27-0.813-0.805c-0.218-0.537-0.326-1.193-0.326-1.979
		c0-0.805,0.111-1.461,0.335-1.979c0.224-0.514,0.501-0.771,0.836-0.771c0.338,0,0.614,0.264,0.829,0.781
		c0.215,0.521,0.322,1.178,0.322,1.969c0,0.818-0.109,1.484-0.328,2.006C-355.634,5.627-355.919,5.887-356.27,5.887z"/>
	<path fill="#D1D3D4" d="M-352.794,5.887c-0.326,0-0.598-0.27-0.814-0.805c-0.217-0.537-0.326-1.193-0.326-1.979
		c0-0.805,0.112-1.461,0.336-1.979c0.223-0.514,0.502-0.771,0.836-0.771c0.338,0,0.614,0.264,0.83,0.781
		c0.215,0.521,0.322,1.178,0.322,1.969c0,0.818-0.11,1.484-0.329,2.006C-352.16,5.627-352.444,5.887-352.794,5.887z"/>
	<path fill="#D1D3D4" d="M-349.32,5.887c-0.325,0-0.597-0.27-0.813-0.805c-0.218-0.537-0.326-1.193-0.326-1.979
		c0-0.805,0.112-1.461,0.335-1.979c0.224-0.514,0.502-0.771,0.836-0.771c0.338,0,0.615,0.264,0.83,0.781
		c0.215,0.521,0.322,1.178,0.322,1.969c0,0.818-0.109,1.484-0.328,2.006C-348.683,5.627-348.968,5.887-349.32,5.887z"/>
	<path fill="#D1D3D4" d="M-345.843,5.887c-0.326,0-0.598-0.27-0.814-0.805c-0.217-0.537-0.326-1.193-0.326-1.979
		c0-0.805,0.111-1.461,0.336-1.979c0.223-0.514,0.501-0.771,0.836-0.771c0.338,0,0.613,0.264,0.829,0.781
		c0.215,0.521,0.322,1.178,0.322,1.969c0,0.818-0.109,1.484-0.329,2.006C-345.208,5.627-345.494,5.887-345.843,5.887z"/>
	<path fill="#D1D3D4" d="M-342.369,5.887c-0.326,0-0.598-0.27-0.814-0.805c-0.217-0.537-0.325-1.193-0.325-1.979
		c0-0.805,0.112-1.461,0.335-1.979c0.223-0.514,0.502-0.771,0.836-0.771c0.338,0,0.615,0.264,0.83,0.781
		c0.215,0.521,0.322,1.178,0.322,1.969c0,0.818-0.109,1.484-0.329,2.006C-341.733,5.627-342.018,5.887-342.369,5.887z"/>
	<path fill="#D1D3D4" d="M-338.893,5.887c-0.325,0-0.598-0.27-0.813-0.805c-0.218-0.537-0.326-1.193-0.326-1.979
		c0-0.805,0.111-1.461,0.335-1.979c0.224-0.514,0.502-0.771,0.836-0.771c0.338,0,0.614,0.264,0.829,0.781
		c0.215,0.521,0.322,1.178,0.322,1.969c0,0.818-0.109,1.484-0.328,2.006C-338.257,5.627-338.542,5.887-338.893,5.887z"/>
	<path fill="#D1D3D4" d="M-335.417,5.887c-0.326,0-0.598-0.27-0.814-0.805c-0.217-0.537-0.325-1.193-0.325-1.979
		c0-0.805,0.111-1.461,0.335-1.979c0.223-0.514,0.502-0.771,0.836-0.771c0.338,0,0.614,0.264,0.83,0.781
		c0.215,0.521,0.322,1.178,0.322,1.969c0,0.818-0.109,1.484-0.329,2.006C-334.783,5.627-335.067,5.887-335.417,5.887z"/>
	<path fill="#D1D3D4" d="M-331.943,5.887c-0.325,0-0.597-0.27-0.813-0.805c-0.218-0.537-0.325-1.193-0.325-1.979
		c0-0.805,0.111-1.461,0.334-1.979c0.224-0.514,0.502-0.771,0.836-0.771c0.338,0,0.615,0.264,0.83,0.781
		c0.215,0.521,0.322,1.178,0.322,1.969c0,0.818-0.109,1.484-0.328,2.006C-331.307,5.627-331.591,5.887-331.943,5.887z"/>
	<path fill="#D1D3D4" d="M-328.467,5.887c-0.325,0-0.597-0.27-0.813-0.805c-0.217-0.537-0.326-1.193-0.326-1.979
		c0-0.805,0.111-1.461,0.335-1.979c0.224-0.514,0.503-0.771,0.836-0.771c0.339,0,0.614,0.264,0.83,0.781
		c0.216,0.521,0.322,1.178,0.322,1.969c0,0.818-0.109,1.484-0.329,2.006C-327.832,5.627-328.117,5.887-328.467,5.887z"/>
	<path fill="#D1D3D4" d="M-324.992,5.887c-0.326,0-0.597-0.27-0.814-0.805c-0.217-0.537-0.325-1.193-0.325-1.979
		c0-0.805,0.112-1.461,0.335-1.979c0.223-0.514,0.502-0.771,0.836-0.771c0.338,0,0.615,0.264,0.83,0.781
		c0.215,0.521,0.322,1.178,0.322,1.969c0,0.818-0.109,1.484-0.328,2.006C-324.356,5.627-324.641,5.887-324.992,5.887z"/>
	<path fill="#D1D3D4" d="M-321.516,5.887c-0.325,0-0.597-0.27-0.814-0.805c-0.216-0.537-0.325-1.193-0.325-1.979
		c0-0.805,0.111-1.461,0.335-1.979c0.224-0.514,0.502-0.771,0.836-0.771c0.338,0,0.614,0.264,0.829,0.781
		c0.216,0.521,0.323,1.178,0.323,1.969c0,0.818-0.11,1.484-0.329,2.006C-320.88,5.627-321.166,5.887-321.516,5.887z"/>
	<path fill="#D1D3D4" d="M-318.041,5.887c-0.326,0-0.598-0.27-0.814-0.805c-0.217-0.537-0.325-1.193-0.325-1.979
		c0-0.805,0.111-1.461,0.335-1.979c0.223-0.514,0.502-0.771,0.836-0.771c0.338,0,0.614,0.264,0.83,0.781
		c0.215,0.521,0.322,1.178,0.322,1.969c0,0.818-0.109,1.484-0.329,2.006C-317.406,5.627-317.691,5.887-318.041,5.887z"/>
	<path fill="#D1D3D4" d="M-314.566,5.887c-0.325,0-0.597-0.27-0.813-0.805c-0.217-0.537-0.325-1.193-0.325-1.979
		c0-0.805,0.111-1.461,0.334-1.979c0.224-0.514,0.502-0.771,0.836-0.771c0.339,0,0.615,0.264,0.83,0.781
		c0.215,0.521,0.322,1.178,0.322,1.969c0,0.818-0.109,1.484-0.328,2.006C-313.93,5.627-314.214,5.887-314.566,5.887z"/>
	<path fill="#D1D3D4" d="M-311.09,5.887c-0.325,0-0.597-0.27-0.813-0.805c-0.217-0.537-0.326-1.193-0.326-1.979
		c0-0.805,0.111-1.461,0.335-1.979c0.224-0.514,0.502-0.771,0.836-0.771c0.339,0,0.614,0.264,0.83,0.781
		c0.216,0.521,0.323,1.178,0.323,1.969c0,0.818-0.11,1.484-0.33,2.006C-310.455,5.627-310.74,5.887-311.09,5.887z"/>
	<path fill="#D1D3D4" d="M-307.615,5.887c-0.326,0-0.597-0.27-0.814-0.805c-0.217-0.537-0.325-1.193-0.325-1.979
		c0-0.805,0.112-1.461,0.335-1.979c0.223-0.514,0.502-0.771,0.836-0.771c0.338,0,0.615,0.264,0.83,0.781
		c0.215,0.521,0.322,1.178,0.322,1.969c0,0.818-0.109,1.484-0.328,2.006C-306.979,5.627-307.264,5.887-307.615,5.887z"/>
	<path fill="#D1D3D4" d="M-304.14,5.887c-0.324,0-0.596-0.27-0.813-0.805c-0.216-0.537-0.325-1.193-0.325-1.979
		c0-0.805,0.111-1.461,0.335-1.979c0.224-0.514,0.502-0.771,0.836-0.771c0.339,0,0.614,0.264,0.829,0.781
		c0.216,0.521,0.323,1.178,0.323,1.969c0,0.818-0.11,1.484-0.329,2.006C-303.503,5.627-303.789,5.887-304.14,5.887z"/>
	<path fill="#D1D3D4" d="M-300.664,5.887c-0.326,0-0.598-0.27-0.814-0.805c-0.217-0.537-0.326-1.193-0.326-1.979
		c0-0.805,0.113-1.461,0.336-1.979c0.223-0.514,0.502-0.771,0.836-0.771c0.338,0,0.615,0.264,0.83,0.781
		c0.215,0.521,0.322,1.178,0.322,1.969c0,0.818-0.109,1.484-0.329,2.006C-300.028,5.627-300.313,5.887-300.664,5.887z"/>
	<path fill="#D1D3D4" d="M-297.188,5.887c-0.326,0-0.598-0.27-0.814-0.805c-0.217-0.537-0.325-1.193-0.325-1.979
		c0-0.805,0.111-1.461,0.335-1.979c0.224-0.514,0.501-0.771,0.836-0.771c0.338,0,0.614,0.264,0.829,0.781
		c0.215,0.521,0.322,1.178,0.322,1.969c0,0.818-0.109,1.484-0.328,2.006C-296.552,5.627-296.837,5.887-297.188,5.887z"/>
	<path fill="#D1D3D4" d="M-293.712,5.887c-0.326,0-0.598-0.27-0.814-0.805c-0.217-0.537-0.326-1.193-0.326-1.979
		c0-0.805,0.112-1.461,0.336-1.979c0.223-0.514,0.501-0.771,0.836-0.771c0.338,0,0.614,0.264,0.829,0.781
		c0.216,0.521,0.323,1.178,0.323,1.969c0,0.818-0.11,1.484-0.33,2.006C-293.078,5.627-293.363,5.887-293.712,5.887z"/>
	<path fill="#D1D3D4" d="M-290.238,5.887c-0.326,0-0.598-0.27-0.813-0.805c-0.218-0.537-0.326-1.193-0.326-1.979
		c0-0.805,0.112-1.461,0.335-1.979c0.224-0.514,0.502-0.771,0.836-0.771c0.338,0,0.615,0.264,0.83,0.781
		c0.215,0.521,0.322,1.178,0.322,1.969c0,0.818-0.109,1.484-0.328,2.006C-289.602,5.627-289.886,5.887-290.238,5.887z"/>
	<path fill="#D1D3D4" d="M-286.762,5.887c-0.325,0-0.597-0.27-0.813-0.805c-0.218-0.537-0.326-1.193-0.326-1.979
		c0-0.805,0.111-1.461,0.335-1.979c0.224-0.514,0.502-0.771,0.836-0.771c0.339,0,0.614,0.264,0.829,0.781
		c0.216,0.521,0.323,1.178,0.323,1.969c0,0.818-0.11,1.484-0.329,2.006C-286.126,5.627-286.412,5.887-286.762,5.887z"/>
	<path fill="#D1D3D4" d="M-283.287,5.887c-0.326,0-0.598-0.27-0.814-0.805c-0.217-0.537-0.326-1.193-0.326-1.979
		c0-0.805,0.113-1.461,0.336-1.979c0.223-0.514,0.502-0.771,0.836-0.771c0.338,0,0.614,0.264,0.83,0.781
		c0.215,0.521,0.322,1.178,0.322,1.969c0,0.818-0.109,1.484-0.329,2.006C-282.651,5.627-282.936,5.887-283.287,5.887z"/>
	<path fill="#D1D3D4" d="M-279.812,5.887c-0.324,0-0.597-0.27-0.813-0.805c-0.217-0.537-0.325-1.193-0.325-1.979
		c0-0.805,0.111-1.461,0.335-1.979c0.224-0.514,0.501-0.771,0.836-0.771c0.338,0,0.614,0.264,0.829,0.781
		c0.215,0.521,0.322,1.178,0.322,1.969c0,0.818-0.109,1.484-0.328,2.006C-279.175,5.627-279.46,5.887-279.812,5.887z"/>
	<path fill="#D1D3D4" d="M-276.335,5.887c-0.326,0-0.598-0.27-0.814-0.805c-0.217-0.537-0.326-1.193-0.326-1.979
		c0-0.805,0.112-1.461,0.336-1.979c0.223-0.514,0.501-0.771,0.836-0.771c0.338,0,0.614,0.264,0.83,0.781
		c0.214,0.521,0.321,1.178,0.321,1.969c0,0.818-0.108,1.484-0.329,2.006C-275.701,5.627-275.986,5.887-276.335,5.887z"/>
	<path fill="#D1D3D4" d="M-272.861,5.887c-0.325,0-0.598-0.27-0.813-0.805C-273.892,4.545-274,3.889-274,3.104
		c0-0.805,0.112-1.461,0.335-1.979c0.224-0.514,0.502-0.771,0.836-0.771c0.338,0,0.615,0.264,0.83,0.781
		c0.215,0.521,0.322,1.178,0.322,1.969c0,0.818-0.109,1.484-0.328,2.006C-272.225,5.627-272.509,5.887-272.861,5.887z"/>
	<path fill="#D1D3D4" d="M-269.385,5.887c-0.325,0-0.597-0.27-0.813-0.805c-0.218-0.537-0.326-1.193-0.326-1.979
		c0-0.805,0.111-1.461,0.335-1.979c0.224-0.514,0.502-0.771,0.836-0.771c0.339,0,0.614,0.264,0.83,0.781
		c0.216,0.521,0.322,1.178,0.322,1.969c0,0.818-0.109,1.484-0.329,2.006C-268.75,5.627-269.035,5.887-269.385,5.887z"/>
	<path fill="#D1D3D4" d="M-265.91,5.887c-0.326,0-0.598-0.27-0.814-0.805c-0.217-0.537-0.325-1.193-0.325-1.979
		c0-0.805,0.112-1.461,0.335-1.979c0.223-0.514,0.502-0.771,0.836-0.771c0.338,0,0.614,0.264,0.83,0.781
		c0.215,0.521,0.322,1.178,0.322,1.969c0,0.818-0.109,1.484-0.329,2.006C-265.275,5.627-265.559,5.887-265.91,5.887z"/>
	<path fill="#D1D3D4" d="M-262.435,5.887c-0.324,0-0.597-0.27-0.813-0.805c-0.217-0.537-0.325-1.193-0.325-1.979
		c0-0.805,0.111-1.461,0.334-1.979c0.225-0.514,0.503-0.771,0.836-0.771c0.339,0,0.615,0.264,0.83,0.781
		c0.216,0.521,0.322,1.178,0.322,1.969c0,0.818-0.109,1.484-0.328,2.006C-261.798,5.627-262.083,5.887-262.435,5.887z"/>
	<path fill="#D1D3D4" d="M-258.958,5.887c-0.326,0-0.598-0.27-0.814-0.805c-0.217-0.537-0.326-1.193-0.326-1.979
		c0-0.805,0.112-1.461,0.336-1.979c0.223-0.514,0.502-0.771,0.836-0.771c0.338,0,0.614,0.264,0.829,0.781
		c0.216,0.521,0.323,1.178,0.323,1.969c0,0.818-0.109,1.484-0.329,2.006C-258.324,5.627-258.609,5.887-258.958,5.887z"/>
	<path fill="#D1D3D4" d="M-255.484,5.887c-0.325,0-0.597-0.27-0.814-0.805c-0.216-0.537-0.324-1.193-0.324-1.979
		c0-0.805,0.111-1.461,0.334-1.979c0.224-0.514,0.502-0.771,0.836-0.771c0.338,0,0.615,0.264,0.83,0.781
		c0.215,0.521,0.322,1.178,0.322,1.969c0,0.818-0.109,1.484-0.328,2.006C-254.848,5.627-255.132,5.887-255.484,5.887z"/>
	<path fill="#D1D3D4" d="M-252.008,5.887c-0.325,0-0.597-0.27-0.813-0.805c-0.217-0.537-0.326-1.193-0.326-1.979
		c0-0.805,0.111-1.461,0.335-1.979c0.224-0.514,0.502-0.771,0.836-0.771c0.338,0,0.614,0.264,0.83,0.781
		c0.215,0.521,0.322,1.178,0.322,1.969c0,0.818-0.109,1.484-0.329,2.006C-251.373,5.627-251.658,5.887-252.008,5.887z"/>
	<path fill="#D1D3D4" d="M-248.533,5.887c-0.326,0-0.598-0.27-0.814-0.805c-0.217-0.537-0.325-1.193-0.325-1.979
		c0-0.805,0.111-1.461,0.335-1.979c0.223-0.514,0.502-0.771,0.836-0.771c0.338,0,0.614,0.264,0.83,0.781
		c0.215,0.521,0.322,1.178,0.322,1.969c0,0.818-0.109,1.484-0.328,2.006C-247.898,5.627-248.182,5.887-248.533,5.887z"/>
	<path fill="#D1D3D4" d="M-245.058,5.887c-0.325,0-0.596-0.27-0.813-0.805c-0.217-0.537-0.325-1.193-0.325-1.979
		c0-0.805,0.111-1.461,0.334-1.979c0.224-0.514,0.502-0.771,0.836-0.771c0.339,0,0.615,0.264,0.83,0.781
		c0.216,0.521,0.323,1.178,0.323,1.969c0,0.818-0.11,1.484-0.329,2.006C-244.421,5.627-244.707,5.887-245.058,5.887z"/>
	<path fill="#D1D3D4" d="M-241.582,5.887c-0.326,0-0.598-0.27-0.814-0.805c-0.217-0.537-0.326-1.193-0.326-1.979
		c0-0.805,0.112-1.461,0.336-1.979c0.223-0.514,0.502-0.771,0.836-0.771c0.338,0,0.613,0.264,0.829,0.781
		c0.216,0.521,0.323,1.178,0.323,1.969c0,0.818-0.11,1.484-0.329,2.006C-240.947,5.627-241.232,5.887-241.582,5.887z"/>
	<path fill="#D1D3D4" d="M-238.107,5.887c-0.325,0-0.597-0.27-0.814-0.805c-0.216-0.537-0.324-1.193-0.324-1.979
		c0-0.805,0.111-1.461,0.334-1.979c0.224-0.514,0.502-0.771,0.836-0.771c0.339,0,0.615,0.264,0.83,0.781
		c0.215,0.521,0.322,1.178,0.322,1.969c0,0.818-0.109,1.484-0.328,2.006C-237.471,5.627-237.755,5.887-238.107,5.887z"/>
	<path fill="#D1D3D4" d="M-234.63,5.887c-0.326,0-0.598-0.27-0.814-0.805c-0.217-0.537-0.326-1.193-0.326-1.979
		c0-0.805,0.112-1.461,0.335-1.979c0.224-0.514,0.502-0.771,0.837-0.771c0.338,0,0.614,0.264,0.829,0.781
		c0.215,0.521,0.322,1.178,0.322,1.969c0,0.818-0.109,1.484-0.329,2.006C-233.996,5.627-234.281,5.887-234.63,5.887z"/>
	<path fill="#D1D3D4" d="M-231.156,5.887c-0.326,0-0.598-0.27-0.814-0.805c-0.217-0.537-0.325-1.193-0.325-1.979
		c0-0.805,0.112-1.461,0.335-1.979c0.223-0.514,0.502-0.771,0.836-0.771c0.338,0,0.615,0.264,0.83,0.781
		c0.215,0.521,0.322,1.178,0.322,1.969c0,0.818-0.109,1.484-0.328,2.006C-230.52,5.627-230.805,5.887-231.156,5.887z"/>
	<path fill="#D1D3D4" d="M-227.68,5.887c-0.326,0-0.597-0.27-0.814-0.805c-0.217-0.537-0.325-1.193-0.325-1.979
		c0-0.805,0.111-1.461,0.335-1.979c0.223-0.514,0.501-0.771,0.836-0.771c0.338,0,0.614,0.264,0.829,0.781
		c0.216,0.521,0.323,1.178,0.323,1.969c0,0.818-0.11,1.484-0.329,2.006C-227.044,5.627-227.33,5.887-227.68,5.887z"/>
	<path fill="#D1D3D4" d="M-224.205,5.887c-0.326,0-0.598-0.27-0.814-0.805c-0.217-0.537-0.326-1.193-0.326-1.979
		c0-0.805,0.112-1.461,0.336-1.979c0.223-0.514,0.502-0.771,0.836-0.771c0.338,0,0.614,0.264,0.829,0.781
		c0.216,0.521,0.323,1.178,0.323,1.969c0,0.818-0.11,1.484-0.329,2.006C-223.57,5.627-223.854,5.887-224.205,5.887z"/>
	<path fill="#D1D3D4" d="M-220.73,5.887c-0.325,0-0.597-0.27-0.813-0.805c-0.218-0.537-0.325-1.193-0.325-1.979
		c0-0.805,0.111-1.461,0.334-1.979c0.224-0.514,0.502-0.771,0.836-0.771c0.339,0,0.615,0.264,0.83,0.781
		c0.215,0.521,0.322,1.178,0.322,1.969c0,0.818-0.109,1.484-0.328,2.006C-220.093,5.627-220.378,5.887-220.73,5.887z"/>
	<path fill="#D1D3D4" d="M-217.253,5.887c-0.326,0-0.598-0.27-0.814-0.805c-0.217-0.537-0.326-1.193-0.326-1.979
		c0-0.805,0.112-1.461,0.336-1.979c0.223-0.514,0.501-0.771,0.836-0.771c0.338,0,0.613,0.264,0.829,0.781
		c0.215,0.521,0.322,1.178,0.322,1.969c0,0.818-0.109,1.484-0.329,2.006C-216.619,5.627-216.904,5.887-217.253,5.887z"/>
	<path fill="#D1D3D4" d="M-213.779,5.887c-0.325,0-0.598-0.27-0.814-0.805c-0.217-0.537-0.325-1.193-0.325-1.979
		c0-0.805,0.112-1.461,0.335-1.979c0.224-0.514,0.502-0.771,0.836-0.771c0.338,0,0.615,0.264,0.83,0.781
		c0.215,0.521,0.322,1.178,0.322,1.969c0,0.818-0.109,1.484-0.329,2.006C-213.143,5.627-213.428,5.887-213.779,5.887z"/>
	<path fill="#D1D3D4" d="M-210.303,5.887c-0.325,0-0.597-0.27-0.813-0.805c-0.218-0.537-0.326-1.193-0.326-1.979
		c0-0.805,0.111-1.461,0.335-1.979c0.224-0.514,0.502-0.771,0.836-0.771c0.338,0,0.614,0.264,0.829,0.781
		c0.215,0.521,0.322,1.178,0.322,1.969c0,0.818-0.108,1.484-0.328,2.006C-209.667,5.627-209.953,5.887-210.303,5.887z"/>
	<path fill="#D1D3D4" d="M-206.828,5.887c-0.326,0-0.598-0.27-0.814-0.805c-0.217-0.537-0.325-1.193-0.325-1.979
		c0-0.805,0.111-1.461,0.335-1.979c0.223-0.514,0.502-0.771,0.836-0.771c0.338,0,0.614,0.264,0.83,0.781
		c0.215,0.521,0.322,1.178,0.322,1.969c0,0.818-0.109,1.484-0.329,2.006C-206.193,5.627-206.477,5.887-206.828,5.887z"/>
	<path fill="#D1D3D4" d="M-203.353,5.887c-0.325,0-0.597-0.27-0.813-0.805c-0.218-0.537-0.325-1.193-0.325-1.979
		c0-0.805,0.111-1.461,0.334-1.979c0.224-0.514,0.502-0.771,0.836-0.771c0.339,0,0.615,0.264,0.83,0.781
		c0.215,0.521,0.322,1.178,0.322,1.969c0,0.818-0.109,1.484-0.328,2.006C-202.716,5.627-203.001,5.887-203.353,5.887z"/>
	<path fill="#D1D3D4" d="M-199.876,5.887c-0.326,0-0.598-0.27-0.814-0.805c-0.217-0.537-0.326-1.193-0.326-1.979
		c0-0.805,0.112-1.461,0.336-1.979c0.223-0.514,0.502-0.771,0.836-0.771c0.338,0,0.613,0.264,0.829,0.781
		c0.215,0.521,0.322,1.178,0.322,1.969c0,0.818-0.109,1.484-0.329,2.006C-199.242,5.627-199.527,5.887-199.876,5.887z"/>
	<path fill="#D1D3D4" d="M-196.402,5.887c-0.325,0-0.598-0.27-0.814-0.805c-0.217-0.537-0.325-1.193-0.325-1.979
		c0-0.805,0.112-1.461,0.335-1.979c0.223-0.514,0.502-0.771,0.836-0.771c0.338,0,0.615,0.264,0.83,0.781
		c0.215,0.521,0.322,1.178,0.322,1.969c0,0.818-0.109,1.484-0.329,2.006C-195.766,5.627-196.051,5.887-196.402,5.887z"/>
	<path fill="#D1D3D4" d="M-192.926,5.887c-0.325,0-0.597-0.27-0.813-0.805c-0.218-0.537-0.326-1.193-0.326-1.979
		c0-0.805,0.111-1.461,0.335-1.979c0.224-0.514,0.502-0.771,0.836-0.771c0.338,0,0.614,0.264,0.829,0.781
		c0.216,0.521,0.322,1.178,0.322,1.969c0,0.818-0.109,1.484-0.328,2.006C-192.291,5.627-192.576,5.887-192.926,5.887z"/>
	<path fill="#D1D3D4" d="M-189.451,5.887c-0.326,0-0.598-0.27-0.814-0.805c-0.217-0.537-0.325-1.193-0.325-1.979
		c0-0.805,0.111-1.461,0.335-1.979c0.223-0.514,0.502-0.771,0.836-0.771c0.338,0,0.614,0.264,0.83,0.781
		c0.215,0.521,0.322,1.178,0.322,1.969c0,0.818-0.109,1.484-0.329,2.006C-188.816,5.627-189.1,5.887-189.451,5.887z"/>
	<path fill="#D1D3D4" d="M-185.976,5.887c-0.325,0-0.596-0.27-0.813-0.805c-0.217-0.537-0.325-1.193-0.325-1.979
		c0-0.805,0.111-1.461,0.334-1.979c0.224-0.514,0.502-0.771,0.836-0.771c0.338,0,0.615,0.264,0.83,0.781
		c0.215,0.521,0.322,1.178,0.322,1.969c0,0.818-0.109,1.484-0.328,2.006C-185.339,5.627-185.625,5.887-185.976,5.887z"/>
	<path fill="#D1D3D4" d="M-182.5,5.887c-0.325,0-0.597-0.27-0.813-0.805c-0.217-0.537-0.326-1.193-0.326-1.979
		c0-0.805,0.111-1.461,0.336-1.979c0.223-0.514,0.502-0.771,0.835-0.771c0.339,0,0.614,0.264,0.83,0.781
		c0.216,0.521,0.323,1.178,0.323,1.969c0,0.818-0.11,1.484-0.329,2.006C-181.865,5.627-182.15,5.887-182.5,5.887z"/>
	<path fill="#D1D3D4" d="M-179.025,5.887c-0.326,0-0.597-0.27-0.814-0.805c-0.217-0.537-0.325-1.193-0.325-1.979
		c0-0.805,0.112-1.461,0.335-1.979c0.223-0.514,0.502-0.771,0.836-0.771c0.339,0,0.615,0.264,0.83,0.781
		c0.215,0.521,0.322,1.178,0.322,1.969c0,0.818-0.109,1.484-0.328,2.006C-178.389,5.627-178.674,5.887-179.025,5.887z"/>
	<path fill="#D1D3D4" d="M-175.549,5.887c-0.325,0-0.597-0.27-0.813-0.805c-0.217-0.537-0.326-1.193-0.326-1.979
		c0-0.805,0.111-1.461,0.335-1.979c0.224-0.514,0.502-0.771,0.836-0.771c0.339,0,0.614,0.264,0.829,0.781
		c0.216,0.521,0.323,1.178,0.323,1.969c0,0.818-0.11,1.484-0.329,2.006C-174.914,5.627-175.199,5.887-175.549,5.887z"/>
	<path fill="#D1D3D4" d="M-172.074,5.887c-0.326,0-0.598-0.27-0.814-0.805c-0.217-0.537-0.325-1.193-0.325-1.979
		c0-0.805,0.111-1.461,0.335-1.979c0.223-0.514,0.502-0.771,0.836-0.771c0.338,0,0.615,0.264,0.83,0.781
		c0.215,0.521,0.322,1.178,0.322,1.969c0,0.818-0.109,1.484-0.329,2.006C-171.438,5.627-171.724,5.887-172.074,5.887z"/>
	<path fill="#D1D3D4" d="M-168.599,5.887c-0.325,0-0.597-0.27-0.813-0.805c-0.217-0.537-0.325-1.193-0.325-1.979
		c0-0.805,0.111-1.461,0.334-1.979c0.224-0.514,0.502-0.771,0.837-0.771c0.338,0,0.614,0.264,0.829,0.781
		c0.215,0.521,0.322,1.178,0.322,1.969c0,0.818-0.109,1.484-0.328,2.006C-167.962,5.627-168.248,5.887-168.599,5.887z"/>
	<path fill="#D1D3D4" d="M-165.123,5.887c-0.326,0-0.598-0.27-0.814-0.805c-0.217-0.537-0.326-1.193-0.326-1.979
		c0-0.805,0.112-1.461,0.336-1.979c0.223-0.514,0.502-0.771,0.836-0.771c0.338,0,0.614,0.264,0.829,0.781
		c0.216,0.521,0.323,1.178,0.323,1.969c0,0.818-0.11,1.484-0.329,2.006C-164.488,5.627-164.772,5.887-165.123,5.887z"/>
	<path fill="#D1D3D4" d="M-161.648,5.887c-0.326,0-0.597-0.27-0.814-0.805c-0.217-0.537-0.325-1.193-0.325-1.979
		c0-0.805,0.112-1.461,0.335-1.979c0.224-0.514,0.502-0.771,0.836-0.771c0.338,0,0.615,0.264,0.83,0.781
		c0.215,0.521,0.322,1.178,0.322,1.969c0,0.818-0.109,1.484-0.328,2.006C-161.012,5.627-161.296,5.887-161.648,5.887z"/>
	<path fill="#D1D3D4" d="M-158.172,5.887c-0.325,0-0.597-0.27-0.813-0.805c-0.217-0.537-0.326-1.193-0.326-1.979
		c0-0.805,0.111-1.461,0.336-1.979c0.223-0.514,0.501-0.771,0.835-0.771c0.339,0,0.614,0.264,0.829,0.781
		c0.216,0.521,0.323,1.178,0.323,1.969c0,0.818-0.11,1.484-0.329,2.006C-157.537,5.627-157.822,5.887-158.172,5.887z"/>
	<path fill="#D1D3D4" d="M-154.697,5.887c-0.326,0-0.598-0.27-0.814-0.805c-0.217-0.537-0.326-1.193-0.326-1.979
		c0-0.805,0.113-1.461,0.336-1.979c0.223-0.514,0.502-0.771,0.836-0.771c0.338,0,0.615,0.264,0.83,0.781
		c0.215,0.521,0.322,1.178,0.322,1.969c0,0.818-0.109,1.484-0.329,2.006C-154.061,5.627-154.346,5.887-154.697,5.887z"/>
	<path fill="#D1D3D4" d="M-151.221,5.887c-0.325,0-0.598-0.27-0.813-0.805c-0.218-0.537-0.326-1.193-0.326-1.979
		c0-0.805,0.111-1.461,0.335-1.979c0.224-0.514,0.501-0.771,0.836-0.771c0.338,0,0.614,0.264,0.829,0.781
		c0.215,0.521,0.322,1.178,0.322,1.969c0,0.818-0.109,1.484-0.328,2.006C-150.585,5.627-150.871,5.887-151.221,5.887z"/>
	<path fill="#D1D3D4" d="M-147.746,5.887c-0.326,0-0.598-0.27-0.814-0.805c-0.217-0.537-0.326-1.193-0.326-1.979
		c0-0.805,0.112-1.461,0.336-1.979c0.223-0.514,0.501-0.771,0.836-0.771c0.338,0,0.614,0.264,0.83,0.781
		c0.215,0.521,0.322,1.178,0.322,1.969c0,0.818-0.11,1.484-0.33,2.006C-147.111,5.627-147.396,5.887-147.746,5.887z"/>
	<path fill="#D1D3D4" d="M-144.271,5.887c-0.325,0-0.597-0.27-0.813-0.805c-0.218-0.537-0.326-1.193-0.326-1.979
		c0-0.805,0.112-1.461,0.335-1.979c0.224-0.514,0.502-0.771,0.836-0.771c0.338,0,0.615,0.264,0.83,0.781
		c0.215,0.521,0.322,1.178,0.322,1.969c0,0.818-0.109,1.484-0.328,2.006C-143.635,5.627-143.919,5.887-144.271,5.887z"/>
	<path fill="#D1D3D4" d="M-140.795,5.887c-0.325,0-0.597-0.27-0.813-0.805c-0.217-0.537-0.326-1.193-0.326-1.979
		c0-0.805,0.111-1.461,0.335-1.979c0.224-0.514,0.502-0.771,0.836-0.771c0.339,0,0.614,0.264,0.83,0.781
		c0.215,0.521,0.322,1.178,0.322,1.969c0,0.818-0.109,1.484-0.329,2.006C-140.16,5.627-140.445,5.887-140.795,5.887z"/>
	<path fill="#D1D3D4" d="M-137.32,5.887c-0.326,0-0.598-0.27-0.814-0.805c-0.217-0.537-0.326-1.193-0.326-1.979
		c0-0.805,0.113-1.461,0.336-1.979c0.223-0.514,0.502-0.771,0.836-0.771c0.338,0,0.615,0.264,0.83,0.781
		c0.215,0.521,0.322,1.178,0.322,1.969c0,0.818-0.109,1.484-0.329,2.006C-136.684,5.627-136.969,5.887-137.32,5.887z"/>
	<path fill="#D1D3D4" d="M-133.845,5.887c-0.324,0-0.597-0.27-0.813-0.805c-0.217-0.537-0.325-1.193-0.325-1.979
		c0-0.805,0.111-1.461,0.335-1.979c0.224-0.514,0.502-0.771,0.836-0.771c0.338,0,0.614,0.264,0.829,0.781
		c0.216,0.521,0.322,1.178,0.322,1.969c0,0.818-0.109,1.484-0.328,2.006C-133.208,5.627-133.494,5.887-133.845,5.887z"/>
	<path fill="#D1D3D4" d="M-130.369,5.887c-0.326,0-0.598-0.27-0.814-0.805c-0.217-0.537-0.326-1.193-0.326-1.979
		c0-0.805,0.112-1.461,0.336-1.979c0.223-0.514,0.502-0.771,0.836-0.771c0.338,0,0.614,0.264,0.83,0.781
		c0.215,0.521,0.322,1.178,0.322,1.969c0,0.818-0.109,1.484-0.33,2.006C-129.734,5.627-130.019,5.887-130.369,5.887z"/>
	<path fill="#D1D3D4" d="M-126.894,5.887c-0.325,0-0.598-0.27-0.813-0.805c-0.218-0.537-0.325-1.193-0.325-1.979
		c0-0.805,0.111-1.461,0.334-1.979c0.224-0.514,0.502-0.771,0.836-0.771c0.338,0,0.615,0.264,0.83,0.781
		c0.215,0.521,0.322,1.178,0.322,1.969c0,0.818-0.109,1.484-0.328,2.006C-126.258,5.627-126.542,5.887-126.894,5.887z"/>
	<path fill="#D1D3D4" d="M-123.418,5.887c-0.325,0-0.597-0.27-0.813-0.805c-0.217-0.537-0.326-1.193-0.326-1.979
		c0-0.805,0.111-1.461,0.335-1.979c0.224-0.514,0.502-0.771,0.836-0.771c0.339,0,0.614,0.264,0.83,0.781
		c0.216,0.521,0.323,1.178,0.323,1.969c0,0.818-0.11,1.484-0.33,2.006C-122.783,5.627-123.068,5.887-123.418,5.887z"/>
	<path fill="#D1D3D4" d="M-119.943,5.887c-0.326,0-0.598-0.27-0.814-0.805c-0.217-0.537-0.325-1.193-0.325-1.979
		c0-0.805,0.112-1.461,0.335-1.979c0.223-0.514,0.502-0.771,0.836-0.771c0.338,0,0.614,0.264,0.83,0.781
		c0.215,0.521,0.322,1.178,0.322,1.969c0,0.818-0.109,1.484-0.328,2.006C-119.308,5.627-119.592,5.887-119.943,5.887z"/>
	<path fill="#D1D3D4" d="M-116.468,5.887c-0.324,0-0.596-0.27-0.813-0.805c-0.216-0.537-0.325-1.193-0.325-1.979
		c0-0.805,0.111-1.461,0.334-1.979c0.225-0.514,0.503-0.771,0.836-0.771c0.339,0,0.615,0.264,0.83,0.781
		c0.216,0.521,0.323,1.178,0.323,1.969c0,0.818-0.11,1.484-0.329,2.006C-115.832,5.627-116.117,5.887-116.468,5.887z"/>
	<path fill="#D1D3D4" d="M-112.992,5.887c-0.326,0-0.598-0.27-0.814-0.805c-0.217-0.537-0.326-1.193-0.326-1.979
		c0-0.805,0.112-1.461,0.336-1.979c0.223-0.514,0.502-0.771,0.836-0.771c0.338,0,0.614,0.264,0.829,0.781
		c0.216,0.521,0.323,1.178,0.323,1.969c0,0.818-0.109,1.484-0.329,2.006C-112.357,5.627-112.642,5.887-112.992,5.887z"/>
	<path fill="#D1D3D4" d="M-109.517,5.887c-0.325,0-0.597-0.27-0.814-0.805c-0.216-0.537-0.324-1.193-0.324-1.979
		c0-0.805,0.111-1.461,0.334-1.979c0.224-0.514,0.502-0.771,0.836-0.771c0.339,0,0.615,0.264,0.83,0.781
		c0.215,0.521,0.322,1.178,0.322,1.969c0,0.818-0.109,1.484-0.328,2.006C-108.881,5.627-109.166,5.887-109.517,5.887z"/>
	<path fill="#D1D3D4" d="M-106.042,5.887c-0.325,0-0.597-0.27-0.813-0.805c-0.217-0.537-0.326-1.193-0.326-1.979
		c0-0.805,0.111-1.461,0.335-1.979c0.224-0.514,0.502-0.771,0.836-0.771c0.339,0,0.614,0.264,0.83,0.781
		c0.216,0.521,0.323,1.178,0.323,1.969c0,0.818-0.11,1.484-0.33,2.006C-105.406,5.627-105.691,5.887-106.042,5.887z"/>
	<path fill="#D1D3D4" d="M-102.566,5.887c-0.326,0-0.598-0.27-0.814-0.805c-0.217-0.537-0.325-1.193-0.325-1.979
		c0-0.805,0.112-1.461,0.335-1.979c0.223-0.514,0.502-0.771,0.836-0.771c0.338,0,0.615,0.264,0.83,0.781
		c0.215,0.521,0.322,1.178,0.322,1.969c0,0.818-0.109,1.484-0.328,2.006C-101.931,5.627-102.215,5.887-102.566,5.887z"/>
	<path fill="#D1D3D4" d="M-99.09,5.887c-0.325,0-0.597-0.27-0.814-0.805c-0.217-0.537-0.325-1.193-0.325-1.979
		c0-0.805,0.111-1.461,0.334-1.979c0.224-0.514,0.502-0.771,0.837-0.771c0.339,0,0.614,0.264,0.829,0.781
		c0.216,0.521,0.323,1.178,0.323,1.969c0,0.818-0.11,1.484-0.329,2.006C-98.455,5.627-98.74,5.887-99.09,5.887z"/>
	<path fill="#D1D3D4" d="M-95.615,5.887c-0.326,0-0.598-0.27-0.814-0.805c-0.217-0.537-0.326-1.193-0.326-1.979
		c0-0.805,0.113-1.461,0.336-1.979c0.223-0.514,0.502-0.771,0.836-0.771c0.338,0,0.614,0.264,0.829,0.781
		c0.216,0.521,0.323,1.178,0.323,1.969c0,0.818-0.11,1.484-0.329,2.006C-94.98,5.627-95.265,5.887-95.615,5.887z"/>
	<path fill="#D1D3D4" d="M-92.14,5.887c-0.325,0-0.597-0.27-0.814-0.805c-0.216-0.537-0.324-1.193-0.324-1.979
		c0-0.805,0.111-1.461,0.334-1.979c0.224-0.514,0.502-0.771,0.836-0.771c0.339,0,0.615,0.264,0.83,0.781
		c0.215,0.521,0.322,1.178,0.322,1.969c0,0.818-0.109,1.484-0.328,2.006C-91.503,5.627-91.789,5.887-92.14,5.887z"/>
	<path fill="#D1D3D4" d="M-88.664,5.887c-0.326,0-0.598-0.27-0.814-0.805c-0.217-0.537-0.326-1.193-0.326-1.979
		c0-0.805,0.112-1.461,0.336-1.979c0.223-0.514,0.501-0.771,0.836-0.771c0.338,0,0.614,0.264,0.829,0.781
		c0.215,0.521,0.322,1.178,0.322,1.969c0,0.818-0.109,1.484-0.329,2.006C-88.029,5.627-88.314,5.887-88.664,5.887z"/>
	<path fill="#D1D3D4" d="M-85.189,5.887c-0.326,0-0.598-0.27-0.814-0.805c-0.217-0.537-0.325-1.193-0.325-1.979
		c0-0.805,0.112-1.461,0.335-1.979c0.224-0.514,0.502-0.771,0.836-0.771c0.338,0,0.615,0.264,0.83,0.781
		c0.215,0.521,0.322,1.178,0.322,1.969c0,0.818-0.109,1.484-0.328,2.006C-84.553,5.627-84.837,5.887-85.189,5.887z"/>
	<path fill="#D1D3D4" d="M-81.713,5.887c-0.325,0-0.597-0.27-0.813-0.805c-0.218-0.537-0.326-1.193-0.326-1.979
		c0-0.805,0.111-1.461,0.335-1.979c0.224-0.514,0.501-0.771,0.836-0.771c0.338,0,0.614,0.264,0.83,0.781
		c0.215,0.521,0.322,1.178,0.322,1.969c0,0.818-0.109,1.484-0.329,2.006C-81.078,5.627-81.363,5.887-81.713,5.887z"/>
	<path fill="#D1D3D4" d="M-78.238,5.887c-0.326,0-0.598-0.27-0.814-0.805c-0.217-0.537-0.326-1.193-0.326-1.979
		c0-0.805,0.112-1.461,0.336-1.979c0.223-0.514,0.502-0.771,0.836-0.771c0.338,0,0.614,0.264,0.83,0.781
		c0.215,0.521,0.322,1.178,0.322,1.969c0,0.818-0.109,1.484-0.329,2.006C-77.603,5.627-77.887,5.887-78.238,5.887z"/>
	<path fill="#D1D3D4" d="M-74.763,5.887c-0.325,0-0.597-0.27-0.813-0.805c-0.217-0.537-0.326-1.193-0.326-1.979
		c0-0.805,0.112-1.461,0.335-1.979c0.224-0.514,0.503-0.771,0.836-0.771c0.339,0,0.615,0.264,0.83,0.781
		c0.215,0.521,0.322,1.178,0.322,1.969c0,0.818-0.109,1.484-0.328,2.006C-74.126,5.627-74.412,5.887-74.763,5.887z"/>
	<path fill="#D1D3D4" d="M-71.287,5.887c-0.326,0-0.598-0.27-0.814-0.805c-0.217-0.537-0.326-1.193-0.326-1.979
		c0-0.805,0.112-1.461,0.336-1.979c0.223-0.514,0.502-0.771,0.836-0.771c0.338,0,0.614,0.264,0.829,0.781
		c0.215,0.521,0.322,1.178,0.322,1.969c0,0.818-0.109,1.484-0.329,2.006C-70.652,5.627-70.937,5.887-71.287,5.887z"/>
	<path fill="#D1D3D4" d="M-67.812,5.887c-0.325,0-0.598-0.27-0.814-0.805c-0.217-0.537-0.324-1.193-0.324-1.979
		c0-0.805,0.111-1.461,0.334-1.979c0.224-0.514,0.502-0.771,0.836-0.771c0.338,0,0.615,0.264,0.83,0.781
		c0.215,0.521,0.322,1.178,0.322,1.969c0,0.818-0.109,1.484-0.329,2.006C-67.176,5.627-67.461,5.887-67.812,5.887z"/>
	<path fill="#D1D3D4" d="M-64.336,5.887c-0.325,0-0.597-0.27-0.813-0.805c-0.218-0.537-0.326-1.193-0.326-1.979
		c0-0.805,0.111-1.461,0.335-1.979c0.224-0.514,0.502-0.771,0.836-0.771c0.338,0,0.614,0.264,0.83,0.781
		c0.215,0.521,0.322,1.178,0.322,1.969c0,0.818-0.109,1.484-0.329,2.006C-63.701,5.627-63.986,5.887-64.336,5.887z"/>
	<path fill="#D1D3D4" d="M-60.861,5.887c-0.326,0-0.598-0.27-0.814-0.805C-61.892,4.545-62,3.889-62,3.104
		c0-0.805,0.111-1.461,0.335-1.979c0.223-0.514,0.502-0.771,0.836-0.771c0.338,0,0.614,0.264,0.83,0.781
		c0.215,0.521,0.322,1.178,0.322,1.969c0,0.818-0.109,1.484-0.329,2.006C-60.226,5.627-60.51,5.887-60.861,5.887z"/>
	<path fill="#D1D3D4" d="M-57.386,5.887c-0.325,0-0.596-0.27-0.813-0.805c-0.218-0.537-0.325-1.193-0.325-1.979
		c0-0.805,0.111-1.461,0.334-1.979c0.224-0.514,0.502-0.771,0.836-0.771c0.339,0,0.615,0.264,0.83,0.781
		c0.216,0.521,0.322,1.178,0.322,1.969c0,0.818-0.109,1.484-0.328,2.006C-56.75,5.627-57.035,5.887-57.386,5.887z"/>
	<path fill="#D1D3D4" d="M-53.91,5.887c-0.326,0-0.598-0.27-0.814-0.805c-0.217-0.537-0.326-1.193-0.326-1.979
		c0-0.805,0.112-1.461,0.336-1.979c0.223-0.514,0.502-0.771,0.836-0.771c0.338,0,0.613,0.264,0.829,0.781
		c0.216,0.521,0.322,1.178,0.322,1.969c0,0.818-0.109,1.484-0.328,2.006C-53.275,5.627-53.56,5.887-53.91,5.887z"/>
	<path fill="#D1D3D4" d="M-50.435,5.887c-0.325,0-0.597-0.27-0.814-0.805c-0.217-0.537-0.325-1.193-0.325-1.979
		c0-0.805,0.112-1.461,0.335-1.979c0.224-0.514,0.502-0.771,0.836-0.771c0.338,0,0.615,0.264,0.83,0.781
		c0.215,0.521,0.322,1.178,0.322,1.969c0,0.818-0.109,1.484-0.328,2.006C-49.799,5.627-50.084,5.887-50.435,5.887z"/>
	<path fill="#D1D3D4" d="M-46.959,5.887c-0.325,0-0.597-0.27-0.813-0.805c-0.217-0.537-0.326-1.193-0.326-1.979
		c0-0.805,0.111-1.461,0.335-1.979c0.224-0.514,0.502-0.771,0.836-0.771c0.339,0,0.614,0.264,0.829,0.781
		c0.216,0.521,0.323,1.178,0.323,1.969c0,0.818-0.109,1.484-0.329,2.006C-46.324,5.627-46.609,5.887-46.959,5.887z"/>
	<path fill="#D1D3D4" d="M-43.484,5.887c-0.326,0-0.598-0.27-0.814-0.805c-0.217-0.537-0.325-1.193-0.325-1.979
		c0-0.805,0.111-1.461,0.335-1.979c0.223-0.514,0.502-0.771,0.836-0.771c0.338,0,0.614,0.264,0.83,0.781
		c0.215,0.521,0.322,1.178,0.322,1.969c0,0.818-0.109,1.484-0.329,2.006C-42.849,5.627-43.133,5.887-43.484,5.887z"/>
	<path fill="#D1D3D4" d="M-40.009,5.887c-0.325,0-0.596-0.27-0.813-0.805c-0.217-0.537-0.325-1.193-0.325-1.979
		c0-0.805,0.111-1.461,0.334-1.979c0.224-0.514,0.502-0.771,0.837-0.771c0.338,0,0.614,0.264,0.829,0.781
		c0.216,0.521,0.323,1.178,0.323,1.969c0,0.818-0.11,1.484-0.329,2.006C-39.373,5.627-39.658,5.887-40.009,5.887z"/>
	<path fill="#D1D3D4" d="M-36.534,5.887c-0.325,0-0.597-0.27-0.813-0.805c-0.217-0.537-0.326-1.193-0.326-1.979
		c0-0.805,0.112-1.461,0.336-1.979c0.223-0.514,0.502-0.771,0.836-0.771c0.338,0,0.614,0.264,0.829,0.781
		c0.216,0.521,0.323,1.178,0.323,1.969c0,0.818-0.11,1.484-0.329,2.006C-35.898,5.627-36.183,5.887-36.534,5.887z"/>
	<path fill="#D1D3D4" d="M-33.058,5.887c-0.325,0-0.597-0.27-0.814-0.805c-0.217-0.537-0.325-1.193-0.325-1.979
		c0-0.805,0.112-1.461,0.335-1.979c0.223-0.514,0.502-0.771,0.836-0.771c0.339,0,0.615,0.264,0.83,0.781
		c0.215,0.521,0.322,1.178,0.322,1.969c0,0.818-0.109,1.484-0.328,2.006C-32.421,5.627-32.707,5.887-33.058,5.887z"/>
	<path fill="#D1D3D4" d="M-29.582,5.887c-0.326,0-0.598-0.27-0.814-0.805c-0.217-0.537-0.326-1.193-0.326-1.979
		c0-0.805,0.112-1.461,0.336-1.979c0.223-0.514,0.501-0.771,0.836-0.771c0.338,0,0.613,0.264,0.828,0.781
		c0.216,0.521,0.323,1.178,0.323,1.969c0,0.818-0.11,1.484-0.329,2.006C-28.947,5.627-29.232,5.887-29.582,5.887z"/>
	<path fill="#D1D3D4" d="M-26.107,5.887c-0.326,0-0.598-0.27-0.814-0.805c-0.217-0.537-0.325-1.193-0.325-1.979
		c0-0.805,0.112-1.461,0.335-1.979c0.224-0.514,0.502-0.771,0.836-0.771c0.338,0,0.615,0.264,0.83,0.781
		c0.215,0.521,0.322,1.178,0.322,1.969c0,0.818-0.109,1.484-0.329,2.006C-25.471,5.627-25.756,5.887-26.107,5.887z"/>
	<path fill="#D1D3D4" d="M-22.631,5.887c-0.326,0-0.598-0.27-0.813-0.805c-0.218-0.537-0.326-1.193-0.326-1.979
		c0-0.805,0.111-1.461,0.335-1.979c0.224-0.514,0.501-0.771,0.836-0.771c0.338,0,0.614,0.264,0.829,0.781
		c0.215,0.521,0.322,1.178,0.322,1.969c0,0.818-0.109,1.484-0.328,2.006C-21.996,5.627-22.281,5.887-22.631,5.887z"/>
	<path fill="#D1D3D4" d="M-19.156,5.887c-0.326,0-0.598-0.27-0.814-0.805c-0.217-0.537-0.326-1.193-0.326-1.979
		c0-0.805,0.112-1.461,0.336-1.979c0.223-0.514,0.502-0.771,0.836-0.771c0.338,0,0.614,0.264,0.829,0.781
		c0.216,0.521,0.323,1.178,0.323,1.969c0,0.818-0.11,1.484-0.329,2.006C-18.521,5.627-18.805,5.887-19.156,5.887z"/>
	<path fill="#D1D3D4" d="M-15.681,5.887c-0.325,0-0.597-0.27-0.813-0.805c-0.218-0.537-0.326-1.193-0.326-1.979
		c0-0.805,0.112-1.461,0.335-1.979c0.224-0.514,0.502-0.771,0.836-0.771c0.338,0,0.615,0.264,0.83,0.781
		c0.215,0.521,0.322,1.178,0.322,1.969c0,0.818-0.109,1.484-0.328,2.006C-15.044,5.627-15.33,5.887-15.681,5.887z"/>
	<path fill="#D1D3D4" d="M-12.206,5.887c-0.325,0-0.597-0.27-0.813-0.805c-0.217-0.537-0.326-1.193-0.326-1.979
		c0-0.805,0.111-1.461,0.336-1.979c0.223-0.514,0.501-0.771,0.835-0.771c0.339,0,0.614,0.264,0.83,0.781
		c0.215,0.521,0.322,1.178,0.322,1.969c0,0.818-0.11,1.484-0.329,2.006C-11.57,5.627-11.855,5.887-12.206,5.887z"/>
	<path fill="#D1D3D4" d="M-8.73,5.887c-0.326,0-0.598-0.27-0.814-0.805C-9.761,4.545-9.87,3.889-9.87,3.104
		c0-0.805,0.112-1.461,0.335-1.979c0.223-0.514,0.502-0.771,0.836-0.771c0.338,0,0.615,0.264,0.83,0.781
		c0.215,0.521,0.322,1.178,0.322,1.969c0,0.818-0.109,1.484-0.329,2.006C-8.094,5.627-8.379,5.887-8.73,5.887z"/>
	<path fill="#D1D3D4" d="M-5.254,5.887c-0.325,0-0.598-0.27-0.813-0.805c-0.218-0.537-0.326-1.193-0.326-1.979
		c0-0.805,0.111-1.461,0.335-1.979c0.224-0.514,0.501-0.771,0.836-0.771c0.338,0,0.614,0.264,0.829,0.781
		c0.215,0.521,0.322,1.178,0.322,1.969c0,0.818-0.109,1.484-0.328,2.006C-4.619,5.627-4.904,5.887-5.254,5.887z"/>
	<path fill="#D1D3D4" d="M-1.779,5.887c-0.326,0-0.598-0.27-0.814-0.805C-2.81,4.545-2.919,3.889-2.919,3.104
		c0-0.805,0.112-1.461,0.336-1.979c0.223-0.514,0.502-0.771,0.836-0.771c0.338,0,0.614,0.264,0.83,0.781
		c0.215,0.521,0.322,1.178,0.322,1.969c0,0.818-0.109,1.484-0.33,2.006C-1.144,5.627-1.428,5.887-1.779,5.887z"/>
	<path fill="#D1D3D4" d="M1.696,5.887c-0.325,0-0.597-0.27-0.813-0.805C0.665,4.545,0.557,3.889,0.557,3.104
		c0-0.805,0.111-1.461,0.334-1.979c0.224-0.514,0.502-0.771,0.836-0.771c0.338,0,0.615,0.264,0.83,0.781
		c0.215,0.521,0.322,1.178,0.322,1.969c0,0.818-0.109,1.484-0.328,2.006C2.332,5.627,2.047,5.887,1.696,5.887z"/>
	<path fill="#D1D3D4" d="M5.171,5.887c-0.325,0-0.597-0.27-0.813-0.805C4.141,4.545,4.032,3.889,4.032,3.104
		c0-0.805,0.111-1.461,0.335-1.979C4.59,0.611,4.87,0.354,5.203,0.354c0.338,0,0.615,0.264,0.83,0.781
		c0.215,0.521,0.321,1.178,0.321,1.969c0,0.818-0.108,1.484-0.327,2.006C5.807,5.627,5.523,5.887,5.171,5.887z"/>
	<path fill="#D1D3D4" d="M8.646,5.887c-0.325,0-0.597-0.27-0.813-0.805C7.616,4.545,7.507,3.889,7.507,3.104
		c0-0.805,0.111-1.461,0.334-1.979c0.224-0.514,0.503-0.771,0.836-0.771c0.339,0,0.615,0.264,0.83,0.781
		C9.723,1.656,9.83,2.313,9.83,3.104c0,0.818-0.109,1.484-0.327,2.006C9.282,5.627,8.998,5.887,8.646,5.887z"/>
	<path fill="#D1D3D4" d="M12.123,5.887c-0.325,0-0.597-0.27-0.813-0.805c-0.218-0.537-0.326-1.193-0.326-1.979
		c0-0.805,0.112-1.461,0.335-1.979c0.224-0.514,0.503-0.771,0.836-0.771c0.338,0,0.615,0.264,0.83,0.781
		c0.215,0.521,0.322,1.178,0.322,1.969c0,0.818-0.109,1.484-0.328,2.006C12.758,5.627,12.473,5.887,12.123,5.887z"/>
	<path fill="#D1D3D4" d="M15.597,5.887c-0.325,0-0.597-0.27-0.813-0.805c-0.218-0.537-0.326-1.193-0.326-1.979
		c0-0.805,0.112-1.461,0.335-1.979c0.224-0.514,0.503-0.771,0.836-0.771c0.338,0,0.614,0.264,0.829,0.781
		c0.216,0.521,0.323,1.178,0.323,1.969c0,0.818-0.11,1.484-0.328,2.006C16.232,5.627,15.948,5.887,15.597,5.887z"/>
	<path fill="#D1D3D4" d="M19.074,5.887c-0.326,0-0.597-0.27-0.814-0.805c-0.217-0.537-0.325-1.193-0.325-1.979
		c0-0.805,0.111-1.461,0.334-1.979c0.224-0.514,0.503-0.771,0.837-0.771c0.338,0,0.614,0.264,0.829,0.781
		c0.216,0.521,0.323,1.178,0.323,1.969c0,0.818-0.11,1.484-0.328,2.006C19.708,5.627,19.424,5.887,19.074,5.887z"/>
	<path fill="#D1D3D4" d="M22.548,5.887c-0.326,0-0.597-0.27-0.814-0.805c-0.217-0.537-0.325-1.193-0.325-1.979
		c0-0.805,0.111-1.461,0.334-1.979c0.224-0.514,0.503-0.771,0.837-0.771c0.338,0,0.614,0.264,0.829,0.781
		c0.216,0.521,0.323,1.178,0.323,1.969c0,0.818-0.11,1.484-0.328,2.006C23.183,5.627,22.899,5.887,22.548,5.887z"/>
	<path fill="#D1D3D4" d="M26.024,5.887c-0.325,0-0.596-0.27-0.813-0.805c-0.217-0.537-0.325-1.193-0.325-1.979
		c0-0.805,0.111-1.461,0.334-1.979c0.224-0.514,0.503-0.771,0.836-0.771c0.339,0,0.615,0.264,0.83,0.781
		c0.216,0.521,0.323,1.178,0.323,1.969c0,0.818-0.11,1.484-0.329,2.006C26.66,5.627,26.375,5.887,26.024,5.887z"/>
	<path fill="#D1D3D4" d="M29.499,5.887c-0.325,0-0.597-0.27-0.813-0.805c-0.218-0.537-0.326-1.193-0.326-1.979
		c0-0.805,0.112-1.461,0.335-1.979c0.224-0.514,0.502-0.771,0.837-0.771c0.338,0,0.614,0.264,0.829,0.781
		c0.215,0.521,0.322,1.178,0.322,1.969c0,0.818-0.109,1.484-0.328,2.006C30.134,5.627,29.85,5.887,29.499,5.887z"/>
	<path fill="#D1D3D4" d="M32.975,5.887c-0.325,0-0.597-0.27-0.813-0.805c-0.218-0.537-0.326-1.193-0.326-1.979
		c0-0.805,0.112-1.461,0.334-1.979c0.225-0.514,0.503-0.771,0.838-0.771c0.338,0,0.614,0.264,0.829,0.781
		c0.215,0.521,0.322,1.178,0.322,1.969c0,0.818-0.109,1.484-0.328,2.006C33.61,5.627,33.327,5.887,32.975,5.887z"/>
	<path fill="#D1D3D4" d="M36.45,5.887c-0.325,0-0.597-0.27-0.813-0.805c-0.218-0.537-0.326-1.193-0.326-1.979
		c0-0.805,0.112-1.461,0.334-1.979c0.225-0.514,0.504-0.771,0.837-0.771c0.339,0,0.615,0.264,0.83,0.781
		c0.215,0.521,0.322,1.178,0.322,1.969c0,0.818-0.109,1.484-0.328,2.006C37.084,5.627,36.8,5.887,36.45,5.887z"/>
	<path fill="#D1D3D4" d="M39.925,5.887c-0.324,0-0.597-0.27-0.813-0.805c-0.218-0.537-0.326-1.193-0.326-1.979
		c0-0.805,0.111-1.461,0.334-1.979c0.225-0.514,0.504-0.771,0.837-0.771c0.338,0,0.614,0.264,0.829,0.781
		c0.215,0.521,0.322,1.178,0.322,1.969c0,0.818-0.109,1.484-0.327,2.006C40.561,5.627,40.277,5.887,39.925,5.887z"/>
	<path fill="#D1D3D4" d="M43.4,5.887c-0.324,0-0.596-0.27-0.813-0.805c-0.218-0.537-0.325-1.193-0.325-1.979
		c0-0.805,0.111-1.461,0.334-1.979c0.225-0.514,0.503-0.771,0.837-0.771c0.338,0,0.614,0.264,0.829,0.781
		c0.216,0.521,0.323,1.178,0.323,1.969c0,0.818-0.11,1.484-0.329,2.006C44.036,5.627,43.751,5.887,43.4,5.887z"/>
	<path fill="#D1D3D4" d="M46.876,5.887c-0.325,0-0.596-0.27-0.813-0.805c-0.218-0.537-0.326-1.193-0.326-1.979
		c0-0.805,0.112-1.461,0.335-1.979c0.224-0.514,0.503-0.771,0.837-0.771c0.338,0,0.614,0.264,0.829,0.781
		c0.216,0.521,0.323,1.178,0.323,1.969c0,0.818-0.11,1.484-0.329,2.006C47.511,5.627,47.228,5.887,46.876,5.887z"/>
	<path fill="#D1D3D4" d="M50.351,5.887c-0.325,0-0.596-0.27-0.813-0.805c-0.218-0.537-0.326-1.193-0.326-1.979
		c0-0.805,0.112-1.461,0.335-1.979c0.224-0.514,0.503-0.771,0.836-0.771c0.339,0,0.615,0.264,0.83,0.781
		c0.216,0.521,0.323,1.178,0.323,1.969c0,0.818-0.11,1.484-0.329,2.006C50.986,5.627,50.703,5.887,50.351,5.887z"/>
	<path fill="#D1D3D4" d="M53.828,5.887c-0.325,0-0.596-0.27-0.813-0.805c-0.218-0.537-0.326-1.193-0.326-1.979
		c0-0.805,0.112-1.461,0.334-1.979c0.225-0.514,0.504-0.771,0.837-0.771c0.338,0,0.615,0.264,0.83,0.781
		c0.215,0.521,0.322,1.178,0.322,1.969c0,0.818-0.109,1.484-0.328,2.006C54.462,5.627,54.178,5.887,53.828,5.887z"/>
	<path fill="#D1D3D4" d="M57.302,5.887c-0.325,0-0.597-0.27-0.814-0.805c-0.217-0.537-0.325-1.193-0.325-1.979
		c0-0.805,0.111-1.461,0.334-1.979C56.721,0.611,57,0.354,57.333,0.354c0.338,0,0.614,0.264,0.829,0.781
		c0.216,0.521,0.323,1.178,0.323,1.969c0,0.818-0.11,1.484-0.328,2.006C57.937,5.627,57.653,5.887,57.302,5.887z"/>
	<path fill="#D1D3D4" d="M60.778,5.887c-0.325,0-0.596-0.27-0.813-0.805c-0.218-0.537-0.326-1.193-0.326-1.979
		c0-0.805,0.112-1.461,0.335-1.979c0.224-0.514,0.503-0.771,0.837-0.771c0.338,0,0.614,0.264,0.829,0.781
		c0.216,0.521,0.323,1.178,0.323,1.969c0,0.818-0.11,1.484-0.329,2.006C61.414,5.627,61.129,5.887,60.778,5.887z"/>
	<path fill="#D1D3D4" d="M64.252,5.887c-0.325,0-0.596-0.27-0.813-0.805c-0.218-0.537-0.326-1.193-0.326-1.979
		c0-0.805,0.112-1.461,0.335-1.979c0.224-0.514,0.503-0.771,0.837-0.771c0.338,0,0.614,0.264,0.829,0.781
		c0.216,0.521,0.323,1.178,0.323,1.969c0,0.818-0.11,1.484-0.329,2.006C64.888,5.627,64.604,5.887,64.252,5.887z"/>
	<path fill="#D1D3D4" d="M67.729,5.887c-0.325,0-0.596-0.27-0.813-0.805c-0.218-0.537-0.326-1.193-0.326-1.979
		c0-0.805,0.112-1.461,0.334-1.979c0.225-0.514,0.504-0.771,0.837-0.771c0.339,0,0.615,0.264,0.83,0.781
		c0.216,0.521,0.323,1.178,0.323,1.969c0,0.818-0.11,1.484-0.329,2.006C68.364,5.627,68.08,5.887,67.729,5.887z"/>
	<path fill="#D1D3D4" d="M71.205,5.887c-0.326,0-0.598-0.27-0.814-0.805c-0.218-0.537-0.326-1.193-0.326-1.979
		c0-0.805,0.112-1.461,0.335-1.979c0.224-0.514,0.503-0.771,0.836-0.771c0.338,0,0.614,0.264,0.829,0.781
		c0.216,0.521,0.323,1.178,0.323,1.969c0,0.818-0.11,1.484-0.328,2.006C71.839,5.627,71.554,5.887,71.205,5.887z"/>
	<path fill="#D1D3D4" d="M74.68,5.887c-0.325,0-0.597-0.27-0.814-0.805c-0.218-0.537-0.325-1.193-0.325-1.979
		c0-0.805,0.111-1.461,0.334-1.979c0.225-0.514,0.504-0.771,0.837-0.771c0.338,0,0.614,0.264,0.829,0.781
		c0.216,0.521,0.323,1.178,0.323,1.969c0,0.818-0.11,1.484-0.329,2.006C75.316,5.627,75.031,5.887,74.68,5.887z"/>
	<path fill="#D1D3D4" d="M78.155,5.887c-0.326,0-0.597-0.27-0.814-0.805c-0.218-0.537-0.326-1.193-0.326-1.979
		c0-0.805,0.112-1.461,0.336-1.979c0.223-0.514,0.502-0.771,0.836-0.771c0.338,0,0.614,0.264,0.829,0.781
		c0.216,0.521,0.323,1.178,0.323,1.969c0,0.818-0.11,1.484-0.329,2.006C78.791,5.627,78.505,5.887,78.155,5.887z"/>
	<path fill="#D1D3D4" d="M81.631,5.887c-0.326,0-0.597-0.27-0.814-0.805c-0.218-0.537-0.326-1.193-0.326-1.979
		c0-0.805,0.112-1.461,0.335-1.979c0.224-0.514,0.503-0.771,0.836-0.771c0.339,0,0.615,0.264,0.83,0.781
		c0.216,0.521,0.323,1.178,0.323,1.969c0,0.818-0.11,1.484-0.329,2.006C82.266,5.627,81.982,5.887,81.631,5.887z"/>
	<path fill="#D1D3D4" d="M85.106,5.887c-0.326,0-0.597-0.27-0.814-0.805c-0.218-0.537-0.326-1.193-0.326-1.979
		c0-0.805,0.112-1.461,0.335-1.979c0.224-0.514,0.503-0.771,0.836-0.771c0.339,0,0.615,0.264,0.83,0.781
		c0.216,0.521,0.322,1.178,0.322,1.969c0,0.818-0.109,1.484-0.328,2.006C85.741,5.627,85.456,5.887,85.106,5.887z"/>
	<path fill="#D1D3D4" d="M88.582,5.887c-0.325,0-0.597-0.27-0.814-0.805c-0.217-0.537-0.325-1.193-0.325-1.979
		c0-0.805,0.112-1.461,0.335-1.979C88,0.611,88.28,0.354,88.613,0.354c0.338,0,0.614,0.264,0.829,0.781
		c0.216,0.521,0.323,1.178,0.323,1.969c0,0.818-0.11,1.484-0.328,2.006C89.217,5.627,88.932,5.887,88.582,5.887z"/>
	<path fill="#D1D3D4" d="M92.056,5.887c-0.325,0-0.597-0.27-0.814-0.805c-0.217-0.537-0.325-1.193-0.325-1.979
		c0-0.805,0.111-1.461,0.335-1.979c0.223-0.514,0.502-0.771,0.836-0.771c0.338,0,0.614,0.264,0.829,0.781
		c0.216,0.521,0.323,1.178,0.323,1.969c0,0.818-0.11,1.484-0.329,2.006C92.692,5.627,92.407,5.887,92.056,5.887z"/>
	<path fill="#D1D3D4" d="M95.533,5.887c-0.326,0-0.597-0.27-0.814-0.805c-0.218-0.537-0.326-1.193-0.326-1.979
		c0-0.805,0.112-1.461,0.336-1.979c0.223-0.514,0.502-0.771,0.836-0.771c0.338,0,0.614,0.264,0.829,0.781
		c0.216,0.521,0.323,1.178,0.323,1.969c0,0.818-0.11,1.484-0.329,2.006C96.167,5.627,95.883,5.887,95.533,5.887z"/>
	<path fill="#D1D3D4" d="M99.007,5.887c-0.326,0-0.597-0.27-0.814-0.805c-0.218-0.537-0.325-1.193-0.325-1.979
		c0-0.805,0.111-1.461,0.335-1.979c0.223-0.514,0.502-0.771,0.836-0.771c0.338,0,0.614,0.264,0.829,0.781
		c0.216,0.521,0.323,1.178,0.323,1.969c0,0.818-0.11,1.484-0.329,2.006C99.642,5.627,99.358,5.887,99.007,5.887z"/>
	<path fill="#D1D3D4" d="M102.484,5.887c-0.326,0-0.598-0.27-0.814-0.805c-0.218-0.537-0.326-1.193-0.326-1.979
		c0-0.805,0.112-1.461,0.335-1.979c0.224-0.514,0.503-0.771,0.836-0.771c0.338,0,0.615,0.264,0.829,0.781
		c0.216,0.521,0.323,1.178,0.323,1.969c0,0.818-0.109,1.484-0.328,2.006C103.119,5.627,102.833,5.887,102.484,5.887z"/>
	<path fill="#D1D3D4" d="M105.958,5.887c-0.326,0-0.598-0.27-0.814-0.805c-0.218-0.537-0.325-1.193-0.325-1.979
		c0-0.805,0.11-1.461,0.334-1.979c0.224-0.514,0.503-0.771,0.836-0.771c0.338,0,0.614,0.264,0.829,0.781
		c0.216,0.521,0.323,1.178,0.323,1.969c0,0.818-0.11,1.484-0.328,2.006C106.593,5.627,106.308,5.887,105.958,5.887z"/>
	<path fill="#D1D3D4" d="M109.434,5.887c-0.326,0-0.597-0.27-0.814-0.805c-0.218-0.537-0.325-1.193-0.325-1.979
		c0-0.805,0.111-1.461,0.335-1.979c0.223-0.514,0.502-0.771,0.836-0.771c0.338,0,0.614,0.264,0.829,0.781
		c0.216,0.521,0.323,1.178,0.323,1.969c0,0.818-0.11,1.484-0.329,2.006C110.07,5.627,109.785,5.887,109.434,5.887z"/>
	<path fill="#D1D3D4" d="M112.909,5.887c-0.326,0-0.597-0.27-0.814-0.805c-0.217-0.537-0.325-1.193-0.325-1.979
		c0-0.805,0.111-1.461,0.335-1.979c0.223-0.514,0.502-0.771,0.836-0.771c0.338,0,0.614,0.264,0.829,0.781
		c0.216,0.521,0.323,1.178,0.323,1.969c0,0.818-0.11,1.484-0.329,2.006C113.543,5.627,113.259,5.887,112.909,5.887z"/>
	<path fill="#D1D3D4" d="M116.385,5.887c-0.326,0-0.597-0.27-0.814-0.805c-0.218-0.537-0.325-1.193-0.325-1.979
		c0-0.805,0.111-1.461,0.334-1.979c0.224-0.514,0.503-0.771,0.836-0.771c0.339,0,0.615,0.264,0.83,0.781
		c0.216,0.521,0.323,1.178,0.323,1.969c0,0.818-0.11,1.484-0.329,2.006C117.02,5.627,116.735,5.887,116.385,5.887z"/>
	<path fill="#D1D3D4" d="M119.86,5.887c-0.326,0-0.597-0.27-0.814-0.805c-0.217-0.537-0.325-1.193-0.325-1.979
		c0-0.805,0.111-1.461,0.334-1.979c0.224-0.514,0.503-0.771,0.836-0.771c0.338,0,0.615,0.264,0.83,0.781
		c0.215,0.521,0.322,1.178,0.322,1.969c0,0.818-0.109,1.484-0.327,2.006C120.495,5.627,120.209,5.887,119.86,5.887z"/>
	<path fill="#D1D3D4" d="M123.335,5.887c-0.325,0-0.597-0.27-0.814-0.805c-0.217-0.537-0.324-1.193-0.324-1.979
		c0-0.805,0.11-1.461,0.334-1.979c0.224-0.514,0.502-0.771,0.836-0.771c0.338,0,0.614,0.264,0.829,0.781
		c0.216,0.521,0.323,1.178,0.323,1.969c0,0.818-0.11,1.484-0.328,2.006C123.971,5.627,123.686,5.887,123.335,5.887z"/>
	<path fill="#D1D3D4" d="M126.81,5.887c-0.326,0-0.597-0.27-0.814-0.805c-0.217-0.537-0.325-1.193-0.325-1.979
		c0-0.805,0.111-1.461,0.335-1.979c0.223-0.514,0.502-0.771,0.836-0.771c0.339,0,0.614,0.264,0.829,0.781
		c0.216,0.521,0.323,1.178,0.323,1.969c0,0.818-0.11,1.484-0.328,2.006C127.446,5.627,127.161,5.887,126.81,5.887z"/>
	<path fill="#D1D3D4" d="M130.287,5.887c-0.326,0-0.597-0.27-0.814-0.805c-0.217-0.537-0.325-1.193-0.325-1.979
		c0-0.805,0.111-1.461,0.335-1.979c0.223-0.514,0.502-0.771,0.836-0.771c0.338,0,0.614,0.264,0.829,0.781
		c0.216,0.521,0.323,1.178,0.323,1.969c0,0.818-0.11,1.484-0.328,2.006C130.921,5.627,130.637,5.887,130.287,5.887z"/>
	<path fill="#D1D3D4" d="M133.761,5.887c-0.326,0-0.597-0.27-0.814-0.805c-0.217-0.537-0.325-1.193-0.325-1.979
		c0-0.805,0.111-1.461,0.334-1.979c0.224-0.514,0.503-0.771,0.837-0.771c0.338,0,0.615,0.264,0.829,0.781
		c0.216,0.521,0.323,1.178,0.323,1.969c0,0.818-0.11,1.484-0.328,2.006C134.396,5.627,134.111,5.887,133.761,5.887z"/>
	<path fill="#D1D3D4" d="M137.238,5.887c-0.326,0-0.598-0.27-0.814-0.805c-0.217-0.537-0.325-1.193-0.325-1.979
		c0-0.805,0.11-1.461,0.334-1.979c0.224-0.514,0.503-0.771,0.837-0.771c0.338,0,0.614,0.264,0.828,0.781
		c0.216,0.521,0.323,1.178,0.323,1.969c0,0.818-0.11,1.484-0.327,2.006C137.873,5.627,137.587,5.887,137.238,5.887z"/>
	<path fill="#D1D3D4" d="M140.711,5.887c-0.325,0-0.597-0.27-0.813-0.805c-0.217-0.537-0.325-1.193-0.325-1.979
		c0-0.805,0.111-1.461,0.334-1.979c0.224-0.514,0.503-0.771,0.837-0.771c0.338,0,0.614,0.264,0.828,0.781
		c0.216,0.521,0.323,1.178,0.323,1.969c0,0.818-0.11,1.484-0.328,2.006C141.347,5.627,141.063,5.887,140.711,5.887z"/>
	<path fill="#D1D3D4" d="M144.188,5.887c-0.326,0-0.597-0.27-0.813-0.805c-0.218-0.537-0.326-1.193-0.326-1.979
		c0-0.805,0.112-1.461,0.335-1.979c0.223-0.514,0.502-0.771,0.837-0.771c0.338,0,0.614,0.264,0.828,0.781
		c0.216,0.521,0.323,1.178,0.323,1.969c0,0.818-0.11,1.484-0.328,2.006C144.823,5.627,144.539,5.887,144.188,5.887z"/>
	<path fill="#D1D3D4" d="M147.663,5.887c-0.326,0-0.597-0.27-0.813-0.805c-0.218-0.537-0.326-1.193-0.326-1.979
		c0-0.805,0.112-1.461,0.334-1.979c0.225-0.514,0.503-0.771,0.837-0.771c0.339,0,0.615,0.264,0.829,0.781
		c0.216,0.521,0.323,1.178,0.323,1.969c0,0.818-0.11,1.484-0.328,2.006C148.297,5.627,148.014,5.887,147.663,5.887z"/>
	<path fill="#D1D3D4" d="M151.139,5.887c-0.326,0-0.597-0.27-0.813-0.805C150.108,4.545,150,3.889,150,3.104
		c0-0.805,0.112-1.461,0.334-1.979c0.225-0.514,0.503-0.771,0.837-0.771c0.338,0,0.614,0.264,0.829,0.781
		c0.215,0.521,0.322,1.178,0.322,1.969c0,0.818-0.109,1.484-0.327,2.006C151.774,5.627,151.49,5.887,151.139,5.887z"/>
	<path fill="#D1D3D4" d="M154.613,5.887c-0.324,0-0.597-0.27-0.813-0.805c-0.218-0.537-0.326-1.193-0.326-1.979
		c0-0.805,0.111-1.461,0.334-1.979c0.225-0.514,0.503-0.771,0.837-0.771c0.338,0,0.614,0.264,0.829,0.781
		c0.215,0.521,0.322,1.178,0.322,1.969c0,0.818-0.109,1.484-0.327,2.006C155.249,5.627,154.964,5.887,154.613,5.887z"/>
	<path fill="#D1D3D4" d="M158.089,5.887c-0.326,0-0.597-0.27-0.813-0.805c-0.218-0.537-0.326-1.193-0.326-1.979
		c0-0.805,0.112-1.461,0.335-1.979c0.224-0.514,0.502-0.771,0.837-0.771c0.338,0,0.614,0.264,0.829,0.781
		c0.215,0.521,0.322,1.178,0.322,1.969c0,0.818-0.11,1.484-0.328,2.006C158.725,5.627,158.441,5.887,158.089,5.887z"/>
	<path fill="#D1D3D4" d="M161.564,5.887c-0.325,0-0.597-0.27-0.813-0.805c-0.218-0.537-0.326-1.193-0.326-1.979
		c0-0.805,0.112-1.461,0.335-1.979c0.224-0.514,0.503-0.771,0.837-0.771c0.338,0,0.614,0.264,0.829,0.781
		c0.215,0.521,0.322,1.178,0.322,1.969c0,0.818-0.109,1.484-0.328,2.006C162.199,5.627,161.916,5.887,161.564,5.887z"/>
	<path fill="#D1D3D4" d="M165.041,5.887c-0.325,0-0.597-0.27-0.813-0.805c-0.218-0.537-0.326-1.193-0.326-1.979
		c0-0.805,0.112-1.461,0.334-1.979c0.225-0.514,0.504-0.771,0.837-0.771c0.339,0,0.615,0.264,0.83,0.781
		c0.215,0.521,0.322,1.178,0.322,1.969c0,0.818-0.109,1.484-0.328,2.006C165.675,5.627,165.391,5.887,165.041,5.887z"/>
	<path fill="#D1D3D4" d="M168.515,5.887c-0.325,0-0.598-0.27-0.813-0.805c-0.218-0.537-0.326-1.193-0.326-1.979
		c0-0.805,0.112-1.461,0.334-1.979c0.225-0.514,0.504-0.771,0.837-0.771c0.338,0,0.615,0.264,0.829,0.781
		c0.216,0.521,0.322,1.178,0.322,1.969c0,0.818-0.108,1.484-0.327,2.006C169.15,5.627,168.866,5.887,168.515,5.887z"/>
	<path fill="#D1D3D4" d="M171.991,5.887c-0.324,0-0.597-0.27-0.813-0.805c-0.217-0.537-0.325-1.193-0.325-1.979
		c0-0.805,0.111-1.461,0.334-1.979c0.224-0.514,0.503-0.771,0.837-0.771c0.338,0,0.614,0.264,0.829,0.781
		c0.216,0.521,0.322,1.178,0.322,1.969c0,0.818-0.109,1.484-0.327,2.006C172.626,5.627,172.342,5.887,171.991,5.887z"/>
	<path fill="#D1D3D4" d="M175.465,5.887c-0.325,0-0.597-0.27-0.813-0.805c-0.218-0.537-0.326-1.193-0.326-1.979
		c0-0.805,0.112-1.461,0.335-1.979c0.224-0.514,0.503-0.771,0.837-0.771c0.338,0,0.614,0.264,0.829,0.781
		c0.216,0.521,0.322,1.178,0.322,1.969c0,0.818-0.109,1.484-0.328,2.006C176.101,5.627,175.817,5.887,175.465,5.887z"/>
	<path fill="#D1D3D4" d="M178.942,5.887c-0.325,0-0.597-0.27-0.813-0.805c-0.218-0.537-0.326-1.193-0.326-1.979
		c0-0.805,0.112-1.461,0.335-1.979c0.224-0.514,0.503-0.771,0.837-0.771c0.338,0,0.614,0.264,0.829,0.781
		c0.216,0.521,0.322,1.178,0.322,1.969c0,0.818-0.109,1.484-0.328,2.006C179.577,5.627,179.293,5.887,178.942,5.887z"/>
	<path fill="#D1D3D4" d="M182.417,5.887c-0.325,0-0.596-0.27-0.813-0.805c-0.218-0.537-0.326-1.193-0.326-1.979
		c0-0.805,0.112-1.461,0.334-1.979c0.225-0.514,0.504-0.771,0.837-0.771c0.339,0,0.615,0.264,0.83,0.781
		c0.216,0.521,0.323,1.178,0.323,1.969c0,0.818-0.11,1.484-0.329,2.006C183.051,5.627,182.767,5.887,182.417,5.887z"/>
	<path fill="#D1D3D4" d="M185.893,5.887c-0.325,0-0.598-0.27-0.813-0.805c-0.218-0.537-0.326-1.193-0.326-1.979
		c0-0.805,0.111-1.461,0.334-1.979c0.225-0.514,0.504-0.771,0.837-0.771c0.338,0,0.614,0.264,0.829,0.781
		c0.216,0.521,0.322,1.178,0.322,1.969c0,0.818-0.109,1.484-0.327,2.006C186.528,5.627,186.244,5.887,185.893,5.887z"/>
	<path fill="#D1D3D4" d="M189.367,5.887c-0.324,0-0.596-0.27-0.813-0.805c-0.218-0.537-0.325-1.193-0.325-1.979
		c0-0.805,0.111-1.461,0.334-1.979c0.225-0.514,0.503-0.771,0.837-0.771c0.338,0,0.614,0.264,0.829,0.781
		c0.216,0.521,0.323,1.178,0.323,1.969c0,0.818-0.11,1.484-0.329,2.006C190.003,5.627,189.718,5.887,189.367,5.887z"/>
	<path fill="#D1D3D4" d="M192.843,5.887c-0.325,0-0.596-0.27-0.813-0.805c-0.218-0.537-0.326-1.193-0.326-1.979
		c0-0.805,0.112-1.461,0.335-1.979c0.224-0.514,0.503-0.771,0.837-0.771c0.338,0,0.614,0.264,0.829,0.781
		c0.216,0.521,0.323,1.178,0.323,1.969c0,0.818-0.11,1.484-0.329,2.006C193.478,5.627,193.195,5.887,192.843,5.887z"/>
	<path fill="#D1D3D4" d="M196.319,5.887c-0.326,0-0.597-0.27-0.814-0.805c-0.218-0.537-0.326-1.193-0.326-1.979
		c0-0.805,0.112-1.461,0.335-1.979c0.224-0.514,0.503-0.771,0.836-0.771c0.339,0,0.615,0.264,0.83,0.781
		c0.216,0.521,0.323,1.178,0.323,1.969c0,0.818-0.11,1.484-0.329,2.006C196.954,5.627,196.669,5.887,196.319,5.887z"/>
	<path fill="#D1D3D4" d="M199.795,5.887c-0.326,0-0.597-0.27-0.814-0.805c-0.218-0.537-0.326-1.193-0.326-1.979
		c0-0.805,0.112-1.461,0.334-1.979c0.225-0.514,0.504-0.771,0.837-0.771c0.338,0,0.615,0.264,0.83,0.781
		c0.215,0.521,0.322,1.178,0.322,1.969c0,0.818-0.109,1.484-0.328,2.006C200.43,5.627,200.145,5.887,199.795,5.887z"/>
	<path fill="#D1D3D4" d="M203.269,5.887c-0.325,0-0.597-0.27-0.814-0.805c-0.217-0.537-0.325-1.193-0.325-1.979
		c0-0.805,0.112-1.461,0.335-1.979c0.224-0.514,0.503-0.771,0.836-0.771c0.338,0,0.614,0.264,0.829,0.781
		c0.216,0.521,0.323,1.178,0.323,1.969c0,0.818-0.11,1.484-0.328,2.006C203.905,5.627,203.62,5.887,203.269,5.887z"/>
	<path fill="#D1D3D4" d="M206.746,5.887c-0.326,0-0.597-0.27-0.814-0.805c-0.218-0.537-0.326-1.193-0.326-1.979
		c0-0.805,0.112-1.461,0.336-1.979c0.223-0.514,0.502-0.771,0.836-0.771c0.338,0,0.614,0.264,0.829,0.781
		c0.216,0.521,0.323,1.178,0.323,1.969c0,0.818-0.11,1.484-0.329,2.006C207.381,5.627,207.096,5.887,206.746,5.887z"/>
	<path fill="#D1D3D4" d="M210.22,5.887c-0.326,0-0.597-0.27-0.814-0.805c-0.218-0.537-0.326-1.193-0.326-1.979
		c0-0.805,0.112-1.461,0.336-1.979c0.223-0.514,0.502-0.771,0.836-0.771c0.338,0,0.614,0.264,0.829,0.781
		c0.216,0.521,0.323,1.178,0.323,1.969c0,0.818-0.11,1.484-0.329,2.006C210.855,5.627,210.571,5.887,210.22,5.887z"/>
	<path fill="#D1D3D4" d="M213.697,5.887c-0.326,0-0.597-0.27-0.814-0.805c-0.218-0.537-0.326-1.193-0.326-1.979
		c0-0.805,0.112-1.461,0.335-1.979c0.224-0.514,0.503-0.771,0.836-0.771c0.339,0,0.615,0.264,0.83,0.781
		c0.216,0.521,0.323,1.178,0.323,1.969c0,0.818-0.11,1.484-0.329,2.006C214.332,5.627,214.046,5.887,213.697,5.887z"/>
	<path fill="#D1D3D4" d="M217.171,5.887c-0.326,0-0.598-0.27-0.814-0.805c-0.218-0.537-0.326-1.193-0.326-1.979
		c0-0.805,0.112-1.461,0.335-1.979c0.224-0.514,0.503-0.771,0.836-0.771c0.338,0,0.614,0.264,0.829,0.781
		c0.216,0.521,0.323,1.178,0.323,1.969c0,0.818-0.109,1.484-0.328,2.006C217.806,5.627,217.521,5.887,217.171,5.887z"/>
	<path fill="#D1D3D4" d="M220.647,5.887c-0.325,0-0.597-0.27-0.814-0.805c-0.217-0.537-0.325-1.193-0.325-1.979
		c0-0.805,0.111-1.461,0.335-1.979c0.224-0.514,0.503-0.771,0.836-0.771c0.338,0,0.614,0.264,0.829,0.781
		c0.216,0.521,0.323,1.178,0.323,1.969c0,0.818-0.11,1.484-0.329,2.006C221.283,5.627,220.998,5.887,220.647,5.887z"/>
	<path fill="#D1D3D4" d="M224.122,5.887c-0.326,0-0.597-0.27-0.814-0.805c-0.218-0.537-0.326-1.193-0.326-1.979
		c0-0.805,0.112-1.461,0.336-1.979c0.223-0.514,0.502-0.771,0.836-0.771c0.338,0,0.614,0.264,0.829,0.781
		c0.216,0.521,0.323,1.178,0.323,1.969c0,0.818-0.11,1.484-0.329,2.006C224.757,5.627,224.472,5.887,224.122,5.887z"/>
	<path fill="#D1D3D4" d="M227.598,5.887c-0.326,0-0.597-0.27-0.814-0.805c-0.218-0.537-0.326-1.193-0.326-1.979
		c0-0.805,0.112-1.461,0.336-1.979c0.223-0.514,0.502-0.771,0.835-0.771c0.339,0,0.615,0.264,0.83,0.781
		c0.216,0.521,0.323,1.178,0.323,1.969c0,0.818-0.11,1.484-0.329,2.006C228.233,5.627,227.949,5.887,227.598,5.887z"/>
	<path fill="#D1D3D4" d="M231.073,5.887c-0.326,0-0.597-0.27-0.814-0.805c-0.218-0.537-0.325-1.193-0.325-1.979
		c0-0.805,0.111-1.461,0.334-1.979c0.224-0.514,0.503-0.771,0.836-0.771c0.339,0,0.615,0.264,0.83,0.781
		c0.216,0.521,0.323,1.178,0.323,1.969c0,0.818-0.11,1.484-0.329,2.006C231.708,5.627,231.422,5.887,231.073,5.887z"/>
	<path fill="#D1D3D4" d="M234.549,5.887c-0.326,0-0.598-0.27-0.814-0.805c-0.218-0.537-0.325-1.193-0.325-1.979
		c0-0.805,0.111-1.461,0.334-1.979c0.224-0.514,0.503-0.771,0.836-0.771c0.338,0,0.614,0.264,0.829,0.781
		c0.216,0.521,0.323,1.178,0.323,1.969c0,0.818-0.11,1.484-0.328,2.006C235.184,5.627,234.899,5.887,234.549,5.887z"/>
	<path fill="#D1D3D4" d="M238.023,5.887c-0.325,0-0.597-0.27-0.814-0.805c-0.217-0.537-0.324-1.193-0.324-1.979
		c0-0.805,0.11-1.461,0.334-1.979c0.223-0.514,0.502-0.771,0.836-0.771c0.338,0,0.614,0.264,0.829,0.781
		c0.216,0.521,0.323,1.178,0.323,1.969c0,0.818-0.11,1.484-0.328,2.006C238.659,5.627,238.374,5.887,238.023,5.887z"/>
	<path fill="#D1D3D4" d="M241.5,5.887c-0.326,0-0.597-0.27-0.814-0.805c-0.218-0.537-0.325-1.193-0.325-1.979
		c0-0.805,0.111-1.461,0.335-1.979c0.223-0.514,0.502-0.771,0.836-0.771c0.338,0,0.614,0.264,0.829,0.781
		c0.216,0.521,0.323,1.178,0.323,1.969c0,0.818-0.11,1.484-0.329,2.006C242.134,5.627,241.85,5.887,241.5,5.887z"/>
	<path fill="#D1D3D4" d="M244.974,5.887c-0.326,0-0.597-0.27-0.814-0.805c-0.217-0.537-0.325-1.193-0.325-1.979
		c0-0.805,0.111-1.461,0.335-1.979c0.223-0.514,0.502-0.771,0.836-0.771c0.338,0,0.614,0.264,0.829,0.781
		c0.216,0.521,0.323,1.178,0.323,1.969c0,0.818-0.11,1.484-0.328,2.006C245.609,5.627,245.325,5.887,244.974,5.887z"/>
	<path fill="#D1D3D4" d="M248.451,5.887c-0.326,0-0.597-0.27-0.814-0.805c-0.217-0.537-0.325-1.193-0.325-1.979
		c0-0.805,0.111-1.461,0.334-1.979c0.224-0.514,0.503-0.771,0.836-0.771c0.338,0,0.615,0.264,0.83,0.781
		c0.215,0.521,0.322,1.178,0.322,1.969c0,0.818-0.109,1.484-0.327,2.006C249.085,5.627,248.8,5.887,248.451,5.887z"/>
	<path fill="#D1D3D4" d="M251.925,5.887c-0.326,0-0.598-0.27-0.814-0.805c-0.217-0.537-0.325-1.193-0.325-1.979
		c0-0.805,0.11-1.461,0.334-1.979c0.224-0.514,0.503-0.771,0.836-0.771c0.339,0,0.614,0.264,0.829,0.781
		c0.216,0.521,0.323,1.178,0.323,1.969c0,0.818-0.11,1.484-0.327,2.006C252.56,5.627,252.275,5.887,251.925,5.887z"/>
	<path fill="#D1D3D4" d="M255.401,5.887c-0.325,0-0.597-0.27-0.814-0.805c-0.217-0.537-0.325-1.193-0.325-1.979
		c0-0.805,0.111-1.461,0.335-1.979c0.223-0.514,0.502-0.771,0.836-0.771c0.338,0,0.614,0.264,0.829,0.781
		c0.216,0.521,0.323,1.178,0.323,1.969c0,0.818-0.11,1.484-0.328,2.006C256.037,5.627,255.751,5.887,255.401,5.887z"/>
	<path fill="#D1D3D4" d="M258.875,5.887c-0.326,0-0.597-0.27-0.814-0.805c-0.217-0.537-0.325-1.193-0.325-1.979
		c0-0.805,0.111-1.461,0.335-1.979c0.223-0.514,0.502-0.771,0.837-0.771c0.338,0,0.614,0.264,0.828,0.781
		c0.216,0.521,0.323,1.178,0.323,1.969c0,0.818-0.11,1.484-0.328,2.006C259.51,5.627,259.226,5.887,258.875,5.887z"/>
	<path fill="#D1D3D4" d="M262.352,5.887c-0.326,0-0.597-0.27-0.814-0.805c-0.217-0.537-0.325-1.193-0.325-1.979
		c0-0.805,0.111-1.461,0.334-1.979c0.224-0.514,0.503-0.771,0.836-0.771c0.34,0,0.615,0.264,0.83,0.781
		c0.216,0.521,0.323,1.178,0.323,1.969c0,0.818-0.11,1.484-0.328,2.006C262.987,5.627,262.703,5.887,262.352,5.887z"/>
	<path fill="#D1D3D4" d="M265.827,5.887c-0.326,0-0.597-0.27-0.814-0.805c-0.217-0.537-0.325-1.193-0.325-1.979
		c0-0.805,0.112-1.461,0.334-1.979c0.224-0.514,0.503-0.771,0.837-0.771c0.338,0,0.614,0.264,0.829,0.781
		c0.215,0.521,0.322,1.178,0.322,1.969c0,0.818-0.109,1.484-0.327,2.006C266.461,5.627,266.176,5.887,265.827,5.887z"/>
	<path fill="#D1D3D4" d="M269.302,5.887c-0.325,0-0.597-0.27-0.814-0.805c-0.216-0.537-0.324-1.193-0.324-1.979
		c0-0.805,0.111-1.461,0.334-1.979c0.224-0.514,0.502-0.771,0.837-0.771c0.338,0,0.614,0.264,0.828,0.781
		c0.216,0.521,0.323,1.178,0.323,1.969c0,0.818-0.11,1.484-0.328,2.006C269.938,5.627,269.653,5.887,269.302,5.887z"/>
	<path fill="#D1D3D4" d="M272.777,5.887c-0.326,0-0.597-0.27-0.814-0.805c-0.217-0.537-0.325-1.193-0.325-1.979
		c0-0.805,0.112-1.461,0.335-1.979c0.224-0.514,0.502-0.771,0.837-0.771c0.338,0,0.614,0.264,0.828,0.781
		c0.216,0.521,0.323,1.178,0.323,1.969c0,0.818-0.11,1.484-0.328,2.006C273.413,5.627,273.128,5.887,272.777,5.887z"/>
	<path fill="#D1D3D4" d="M276.253,5.887c-0.326,0-0.597-0.27-0.814-0.805c-0.217-0.537-0.325-1.193-0.325-1.979
		c0-0.805,0.112-1.461,0.335-1.979c0.224-0.514,0.502-0.771,0.836-0.771c0.339,0,0.615,0.264,0.829,0.781
		c0.216,0.521,0.323,1.178,0.323,1.969c0,0.818-0.11,1.484-0.328,2.006C276.888,5.627,276.605,5.887,276.253,5.887z"/>
	<path fill="#D1D3D4" d="M279.728,5.887c-0.325,0-0.597-0.27-0.814-0.805c-0.217-0.537-0.325-1.193-0.325-1.979
		c0-0.805,0.112-1.461,0.334-1.979c0.225-0.514,0.503-0.771,0.837-0.771c0.339,0,0.615,0.264,0.83,0.781
		c0.215,0.521,0.322,1.178,0.322,1.969c0,0.818-0.11,1.484-0.328,2.006C280.363,5.627,280.079,5.887,279.728,5.887z"/>
	<path fill="#D1D3D4" d="M283.205,5.887c-0.326,0-0.598-0.27-0.814-0.805c-0.217-0.537-0.325-1.193-0.325-1.979
		c0-0.805,0.112-1.461,0.334-1.979c0.225-0.514,0.503-0.771,0.837-0.771c0.338,0,0.614,0.264,0.829,0.781
		c0.215,0.521,0.322,1.178,0.322,1.969c0,0.818-0.11,1.484-0.327,2.006C283.839,5.627,283.555,5.887,283.205,5.887z"/>
	<path fill="#D1D3D4" d="M286.678,5.887c-0.324,0-0.597-0.27-0.813-0.805c-0.217-0.537-0.325-1.193-0.325-1.979
		c0-0.805,0.111-1.461,0.334-1.979c0.224-0.514,0.503-0.771,0.837-0.771c0.338,0,0.614,0.264,0.829,0.781
		c0.215,0.521,0.322,1.178,0.322,1.969c0,0.818-0.109,1.484-0.328,2.006C287.314,5.627,287.03,5.887,286.678,5.887z"/>
	<path fill="#D1D3D4" d="M290.155,5.887c-0.325,0-0.597-0.27-0.813-0.805c-0.218-0.537-0.326-1.193-0.326-1.979
		c0-0.805,0.112-1.461,0.335-1.979c0.224-0.514,0.502-0.771,0.837-0.771c0.338,0,0.614,0.264,0.829,0.781
		c0.215,0.521,0.322,1.178,0.322,1.969c0,0.818-0.109,1.484-0.328,2.006C290.791,5.627,290.506,5.887,290.155,5.887z"/>
	<path fill="#D1D3D4" d="M293.629,5.887c-0.325,0-0.597-0.27-0.813-0.805c-0.218-0.537-0.326-1.193-0.326-1.979
		c0-0.805,0.112-1.461,0.335-1.979c0.224-0.514,0.502-0.771,0.837-0.771c0.338,0,0.614,0.264,0.829,0.781
		c0.215,0.521,0.322,1.178,0.322,1.969c0,0.818-0.109,1.484-0.328,2.006C294.264,5.627,293.981,5.887,293.629,5.887z"/>
	<path fill="#D1D3D4" d="M297.106,5.887c-0.325,0-0.597-0.27-0.813-0.805c-0.218-0.537-0.326-1.193-0.326-1.979
		c0-0.805,0.112-1.461,0.334-1.979c0.225-0.514,0.503-0.771,0.837-0.771c0.338,0,0.615,0.264,0.829,0.781
		c0.215,0.521,0.322,1.178,0.322,1.969c0,0.818-0.108,1.484-0.327,2.006C297.741,5.627,297.457,5.887,297.106,5.887z"/>
	<path fill="#D1D3D4" d="M300.581,5.887c-0.325,0-0.598-0.27-0.813-0.805c-0.218-0.537-0.326-1.193-0.326-1.979
		c0-0.805,0.111-1.461,0.334-1.979c0.225-0.514,0.503-0.771,0.837-0.771c0.338,0,0.614,0.264,0.829,0.781
		c0.215,0.521,0.322,1.178,0.322,1.969c0,0.818-0.109,1.484-0.327,2.006C301.215,5.627,300.931,5.887,300.581,5.887z"/>
	<path fill="#D1D3D4" d="M304.056,5.887c-0.325,0-0.597-0.27-0.813-0.805c-0.218-0.537-0.326-1.193-0.326-1.979
		c0-0.805,0.112-1.461,0.335-1.979c0.224-0.514,0.502-0.771,0.837-0.771c0.338,0,0.614,0.264,0.829,0.781
		c0.215,0.521,0.322,1.178,0.322,1.969c0,0.818-0.109,1.484-0.328,2.006C304.692,5.627,304.408,5.887,304.056,5.887z"/>
	<path fill="#D1D3D4" d="M307.531,5.887c-0.325,0-0.597-0.27-0.813-0.805c-0.218-0.537-0.326-1.193-0.326-1.979
		c0-0.805,0.112-1.461,0.335-1.979c0.224-0.514,0.503-0.771,0.837-0.771c0.338,0,0.614,0.264,0.829,0.781
		c0.216,0.521,0.323,1.178,0.323,1.969c0,0.818-0.11,1.484-0.329,2.006C308.166,5.627,307.882,5.887,307.531,5.887z"/>
	<path fill="#D1D3D4" d="M311.007,5.887c-0.325,0-0.597-0.27-0.813-0.805c-0.218-0.537-0.326-1.193-0.326-1.979
		c0-0.805,0.112-1.461,0.334-1.979c0.225-0.514,0.504-0.771,0.837-0.771c0.339,0,0.615,0.264,0.83,0.781
		c0.215,0.521,0.322,1.178,0.322,1.969c0,0.818-0.109,1.484-0.328,2.006C311.642,5.627,311.358,5.887,311.007,5.887z"/>
	<path fill="#D1D3D4" d="M314.482,5.887c-0.325,0-0.596-0.27-0.813-0.805c-0.218-0.537-0.326-1.193-0.326-1.979
		c0-0.805,0.112-1.461,0.334-1.979c0.225-0.514,0.504-0.771,0.837-0.771c0.338,0,0.615,0.264,0.83,0.781
		c0.215,0.521,0.322,1.178,0.322,1.969c0,0.818-0.109,1.484-0.328,2.006C315.117,5.627,314.833,5.887,314.482,5.887z"/>
	<path fill="#D1D3D4" d="M317.958,5.887c-0.324,0-0.596-0.27-0.813-0.805c-0.217-0.537-0.325-1.193-0.325-1.979
		c0-0.805,0.111-1.461,0.334-1.979c0.225-0.514,0.503-0.771,0.837-0.771c0.338,0,0.614,0.264,0.829,0.781
		c0.216,0.521,0.323,1.178,0.323,1.969c0,0.818-0.11,1.484-0.328,2.006C318.593,5.627,318.309,5.887,317.958,5.887z"/>
	<path fill="#D1D3D4" d="M321.432,5.887c-0.325,0-0.596-0.27-0.813-0.805c-0.218-0.537-0.326-1.193-0.326-1.979
		c0-0.805,0.112-1.461,0.335-1.979c0.224-0.514,0.503-0.771,0.837-0.771c0.338,0,0.614,0.264,0.829,0.781
		c0.216,0.521,0.323,1.178,0.323,1.969c0,0.818-0.11,1.484-0.329,2.006C322.068,5.627,321.784,5.887,321.432,5.887z"/>
	<path fill="#D1D3D4" d="M324.909,5.887c-0.325,0-0.596-0.27-0.813-0.805c-0.218-0.537-0.326-1.193-0.326-1.979
		c0-0.805,0.112-1.461,0.335-1.979c0.224-0.514,0.503-0.771,0.837-0.771c0.338,0,0.614,0.264,0.829,0.781
		c0.216,0.521,0.323,1.178,0.323,1.969c0,0.818-0.11,1.484-0.329,2.006C325.543,5.627,325.26,5.887,324.909,5.887z"/>
	<path fill="#D1D3D4" d="M328.383,5.887c-0.325,0-0.596-0.27-0.813-0.805c-0.218-0.537-0.326-1.193-0.326-1.979
		c0-0.805,0.112-1.461,0.334-1.979c0.225-0.514,0.504-0.771,0.837-0.771c0.339,0,0.615,0.264,0.83,0.781
		c0.216,0.521,0.323,1.178,0.323,1.969c0,0.818-0.11,1.484-0.329,2.006C329.018,5.627,328.734,5.887,328.383,5.887z"/>
	<path fill="#D1D3D4" d="M331.86,5.887c-0.325,0-0.597-0.27-0.813-0.805c-0.218-0.537-0.326-1.193-0.326-1.979
		c0-0.805,0.112-1.461,0.334-1.979c0.225-0.514,0.504-0.771,0.837-0.771c0.338,0,0.614,0.264,0.829,0.781
		c0.216,0.521,0.323,1.178,0.323,1.969c0,0.818-0.11,1.484-0.328,2.006C332.495,5.627,332.21,5.887,331.86,5.887z"/>
	<path fill="#D1D3D4" d="M335.333,5.887c-0.324,0-0.596-0.27-0.813-0.805c-0.217-0.537-0.325-1.193-0.325-1.979
		c0-0.805,0.111-1.461,0.334-1.979c0.225-0.514,0.504-0.771,0.837-0.771c0.338,0,0.614,0.264,0.829,0.781
		c0.216,0.521,0.323,1.178,0.323,1.969c0,0.818-0.11,1.484-0.329,2.006C335.97,5.627,335.685,5.887,335.333,5.887z"/>
	<path fill="#D1D3D4" d="M338.81,5.887c-0.325,0-0.596-0.27-0.813-0.805c-0.218-0.537-0.326-1.193-0.326-1.979
		c0-0.805,0.112-1.461,0.335-1.979c0.224-0.514,0.503-0.771,0.837-0.771c0.338,0,0.614,0.264,0.829,0.781
		c0.216,0.521,0.323,1.178,0.323,1.969c0,0.818-0.11,1.484-0.329,2.006C339.446,5.627,339.162,5.887,338.81,5.887z"/>
	<path fill="#D1D3D4" d="M342.286,5.887c-0.326,0-0.597-0.27-0.814-0.805c-0.218-0.537-0.326-1.193-0.326-1.979
		c0-0.805,0.112-1.461,0.335-1.979c0.224-0.514,0.503-0.771,0.836-0.771c0.339,0,0.615,0.264,0.83,0.781
		c0.216,0.521,0.323,1.178,0.323,1.969c0,0.818-0.11,1.484-0.329,2.006C342.92,5.627,342.636,5.887,342.286,5.887z"/>
	<path fill="#D1D3D4" d="M345.762,5.887c-0.326,0-0.597-0.27-0.814-0.805c-0.218-0.537-0.326-1.193-0.326-1.979
		c0-0.805,0.112-1.461,0.335-1.979c0.224-0.514,0.503-0.771,0.836-0.771c0.338,0,0.615,0.264,0.83,0.781
		c0.215,0.521,0.322,1.178,0.322,1.969c0,0.818-0.109,1.484-0.328,2.006C346.397,5.627,346.112,5.887,345.762,5.887z"/>
	<path fill="#D1D3D4" d="M349.236,5.887c-0.325,0-0.597-0.27-0.814-0.805c-0.217-0.537-0.325-1.193-0.325-1.979
		c0-0.805,0.112-1.461,0.335-1.979c0.224-0.514,0.503-0.771,0.836-0.771c0.338,0,0.614,0.264,0.829,0.781
		c0.216,0.521,0.323,1.178,0.323,1.969c0,0.818-0.11,1.484-0.328,2.006C349.872,5.627,349.586,5.887,349.236,5.887z"/>
	<path fill="#D1D3D4" d="M352.712,5.887c-0.326,0-0.597-0.27-0.814-0.805c-0.218-0.537-0.326-1.193-0.326-1.979
		c0-0.805,0.112-1.461,0.336-1.979c0.223-0.514,0.502-0.771,0.836-0.771c0.338,0,0.614,0.264,0.829,0.781
		c0.216,0.521,0.323,1.178,0.323,1.969c0,0.818-0.11,1.484-0.329,2.006C353.348,5.627,353.063,5.887,352.712,5.887z"/>
	<path fill="#D1D3D4" d="M356.187,5.887c-0.326,0-0.597-0.27-0.814-0.805c-0.218-0.537-0.326-1.193-0.326-1.979
		c0-0.805,0.112-1.461,0.336-1.979c0.223-0.514,0.502-0.771,0.836-0.771c0.338,0,0.614,0.264,0.829,0.781
		c0.216,0.521,0.323,1.178,0.323,1.969c0,0.818-0.11,1.484-0.329,2.006C356.822,5.627,356.538,5.887,356.187,5.887z"/>
	<path fill="#D1D3D4" d="M359.664,5.887c-0.326,0-0.597-0.27-0.814-0.805c-0.218-0.537-0.326-1.193-0.326-1.979
		c0-0.805,0.112-1.461,0.335-1.979c0.224-0.514,0.503-0.771,0.836-0.771c0.339,0,0.615,0.264,0.83,0.781
		c0.216,0.521,0.323,1.178,0.323,1.969c0,0.818-0.11,1.484-0.329,2.006C360.298,5.627,360.013,5.887,359.664,5.887z"/>
	<path fill="#D1D3D4" d="M363.138,5.887c-0.326,0-0.598-0.27-0.814-0.805c-0.218-0.537-0.326-1.193-0.326-1.979
		c0-0.805,0.112-1.461,0.335-1.979c0.224-0.514,0.503-0.771,0.836-0.771c0.338,0,0.615,0.264,0.829,0.781
		c0.216,0.521,0.323,1.178,0.323,1.969c0,0.818-0.109,1.484-0.328,2.006C363.773,5.627,363.488,5.887,363.138,5.887z"/>
	<path fill="#D1D3D4" d="M366.614,5.887c-0.325,0-0.597-0.27-0.814-0.805c-0.217-0.537-0.325-1.193-0.325-1.979
		c0-0.805,0.111-1.461,0.335-1.979c0.224-0.514,0.503-0.771,0.836-0.771c0.338,0,0.614,0.264,0.829,0.781
		c0.216,0.521,0.323,1.178,0.323,1.969c0,0.818-0.11,1.484-0.329,2.006C367.25,5.627,366.964,5.887,366.614,5.887z"/>
	<path fill="#D1D3D4" d="M370.088,5.887c-0.326,0-0.597-0.27-0.814-0.805c-0.218-0.537-0.325-1.193-0.325-1.979
		c0-0.805,0.111-1.461,0.335-1.979c0.223-0.514,0.502-0.771,0.836-0.771c0.338,0,0.614,0.264,0.829,0.781
		c0.216,0.521,0.323,1.178,0.323,1.969c0,0.818-0.11,1.484-0.329,2.006C370.724,5.627,370.439,5.887,370.088,5.887z"/>
	<path fill="#D1D3D4" d="M373.565,5.887c-0.326,0-0.597-0.27-0.814-0.805c-0.218-0.537-0.325-1.193-0.325-1.979
		c0-0.805,0.111-1.461,0.335-1.979c0.223-0.514,0.502-0.771,0.836-0.771c0.338,0,0.614,0.264,0.829,0.781
		c0.216,0.521,0.323,1.178,0.323,1.969c0,0.818-0.11,1.484-0.329,2.006C374.2,5.627,373.916,5.887,373.565,5.887z"/>
	<path fill="#D1D3D4" d="M377.04,5.887c-0.326,0-0.597-0.27-0.814-0.805c-0.218-0.537-0.325-1.193-0.325-1.979
		c0-0.805,0.111-1.461,0.334-1.979c0.224-0.514,0.503-0.771,0.836-0.771c0.339,0,0.615,0.264,0.83,0.781
		c0.216,0.521,0.323,1.178,0.323,1.969c0,0.818-0.11,1.484-0.329,2.006C377.674,5.627,377.389,5.887,377.04,5.887z"/>
	<path fill="#D1D3D4" d="M380.516,5.887c-0.326,0-0.598-0.27-0.814-0.805c-0.218-0.537-0.325-1.193-0.325-1.979
		c0-0.805,0.111-1.461,0.334-1.979c0.224-0.514,0.503-0.771,0.836-0.771c0.338,0,0.614,0.264,0.829,0.781
		c0.216,0.521,0.323,1.178,0.323,1.969c0,0.818-0.109,1.484-0.328,2.006C381.151,5.627,380.866,5.887,380.516,5.887z"/>
	<path fill="#D1D3D4" d="M383.99,5.887c-0.325,0-0.597-0.27-0.814-0.805c-0.217-0.537-0.324-1.193-0.324-1.979
		c0-0.805,0.11-1.461,0.334-1.979c0.224-0.514,0.502-0.771,0.836-0.771c0.338,0,0.614,0.264,0.829,0.781
		c0.216,0.521,0.323,1.178,0.323,1.969c0,0.818-0.11,1.484-0.328,2.006C384.625,5.627,384.34,5.887,383.99,5.887z"/>
	<path fill="#D1D3D4" d="M387.466,5.887c-0.326,0-0.597-0.27-0.814-0.805c-0.218-0.537-0.325-1.193-0.325-1.979
		c0-0.805,0.111-1.461,0.335-1.979c0.223-0.514,0.502-0.771,0.836-0.771c0.338,0,0.614,0.264,0.829,0.781
		c0.216,0.521,0.323,1.178,0.323,1.969c0,0.818-0.11,1.484-0.329,2.006C388.101,5.627,387.817,5.887,387.466,5.887z"/>
	<path fill="#D1D3D4" d="M390.941,5.887c-0.326,0-0.597-0.27-0.814-0.805c-0.217-0.537-0.325-1.193-0.325-1.979
		c0-0.805,0.111-1.461,0.335-1.979c0.223-0.514,0.502-0.771,0.836-0.771c0.338,0,0.614,0.264,0.829,0.781
		c0.216,0.521,0.323,1.178,0.323,1.969c0,0.818-0.11,1.484-0.328,2.006C391.576,5.627,391.292,5.887,390.941,5.887z"/>
	<path fill="#D1D3D4" d="M394.417,5.887c-0.326,0-0.597-0.27-0.814-0.805c-0.217-0.537-0.325-1.193-0.325-1.979
		c0-0.805,0.111-1.461,0.334-1.979c0.224-0.514,0.503-0.771,0.836-0.771c0.339,0,0.615,0.264,0.83,0.781
		c0.216,0.521,0.323,1.178,0.323,1.969c0,0.818-0.11,1.484-0.328,2.006C395.052,5.627,394.767,5.887,394.417,5.887z"/>
	<path fill="#D1D3D4" d="M397.892,5.887c-0.326,0-0.598-0.27-0.814-0.805c-0.217-0.537-0.325-1.193-0.325-1.979
		c0-0.805,0.111-1.461,0.334-1.979c0.224-0.514,0.503-0.771,0.836-0.771c0.339,0,0.614,0.264,0.829,0.781
		c0.216,0.521,0.323,1.178,0.323,1.969c0,0.818-0.11,1.484-0.327,2.006C398.527,5.627,398.242,5.887,397.892,5.887z"/>
	<path fill="#D1D3D4" d="M401.368,5.887c-0.325,0-0.597-0.27-0.814-0.805c-0.217-0.537-0.325-1.193-0.325-1.979
		c0-0.805,0.111-1.461,0.335-1.979c0.223-0.514,0.502-0.771,0.836-0.771c0.339,0,0.614,0.264,0.829,0.781
		c0.216,0.521,0.323,1.178,0.323,1.969c0,0.818-0.11,1.484-0.328,2.006C402.003,5.627,401.718,5.887,401.368,5.887z"/>
	<path fill="#D1D3D4" d="M404.842,5.887c-0.326,0-0.597-0.27-0.814-0.805c-0.217-0.537-0.325-1.193-0.325-1.979
		c0-0.805,0.112-1.461,0.335-1.979c0.223-0.514,0.502-0.771,0.837-0.771c0.338,0,0.614,0.264,0.828,0.781
		c0.216,0.521,0.323,1.178,0.323,1.969c0,0.818-0.11,1.484-0.328,2.006C405.478,5.627,405.193,5.887,404.842,5.887z"/>
	<path fill="#D1D3D4" d="M408.319,5.887c-0.326,0-0.597-0.27-0.814-0.805c-0.217-0.537-0.325-1.193-0.325-1.979
		c0-0.805,0.111-1.461,0.334-1.979c0.224-0.514,0.503-0.771,0.837-0.771c0.339,0,0.615,0.264,0.829,0.781
		c0.216,0.521,0.323,1.178,0.323,1.969c0,0.818-0.11,1.484-0.328,2.006C408.954,5.627,408.669,5.887,408.319,5.887z"/>
	<path fill="#D1D3D4" d="M411.793,5.887c-0.326,0-0.597-0.27-0.813-0.805c-0.218-0.537-0.326-1.193-0.326-1.979
		c0-0.805,0.112-1.461,0.334-1.979c0.224-0.514,0.503-0.771,0.837-0.771c0.338,0,0.614,0.264,0.829,0.781
		c0.215,0.521,0.322,1.178,0.322,1.969c0,0.818-0.109,1.484-0.327,2.006C412.428,5.627,412.144,5.887,411.793,5.887z"/>
	<path fill="#D1D3D4" d="M415.269,5.887c-0.325,0-0.597-0.27-0.813-0.805c-0.217-0.537-0.325-1.193-0.325-1.979
		c0-0.805,0.111-1.461,0.334-1.979c0.224-0.514,0.503-0.771,0.837-0.771c0.338,0,0.614,0.264,0.828,0.781
		c0.216,0.521,0.323,1.178,0.323,1.969c0,0.818-0.11,1.484-0.328,2.006C415.905,5.627,415.62,5.887,415.269,5.887z"/>
	<path fill="#D1D3D4" d="M418.744,5.887c-0.326,0-0.597-0.27-0.813-0.805c-0.218-0.537-0.326-1.193-0.326-1.979
		c0-0.805,0.112-1.461,0.335-1.979c0.224-0.514,0.502-0.771,0.837-0.771c0.338,0,0.614,0.264,0.829,0.781
		c0.215,0.521,0.322,1.178,0.322,1.969c0,0.818-0.11,1.484-0.328,2.006C419.379,5.627,419.095,5.887,418.744,5.887z"/>
	<path fill="#D1D3D4" d="M422.22,5.887c-0.326,0-0.597-0.27-0.813-0.805c-0.218-0.537-0.326-1.193-0.326-1.979
		c0-0.805,0.112-1.461,0.335-1.979c0.224-0.514,0.502-0.771,0.836-0.771c0.339,0,0.615,0.264,0.829,0.781
		c0.216,0.521,0.323,1.178,0.323,1.969c0,0.818-0.11,1.484-0.328,2.006C422.855,5.627,422.572,5.887,422.22,5.887z"/>
	<path fill="#D1D3D4" d="M425.695,5.887c-0.325,0-0.597-0.27-0.813-0.805c-0.218-0.537-0.326-1.193-0.326-1.979
		c0-0.805,0.112-1.461,0.334-1.979c0.225-0.514,0.503-0.771,0.837-0.771c0.339,0,0.615,0.264,0.83,0.781
		c0.215,0.521,0.322,1.178,0.322,1.969c0,0.818-0.109,1.484-0.328,2.006C426.33,5.627,426.045,5.887,425.695,5.887z"/>
	<path fill="#D1D3D4" d="M429.171,5.887c-0.325,0-0.598-0.27-0.813-0.805c-0.218-0.537-0.326-1.193-0.326-1.979
		c0-0.805,0.112-1.461,0.334-1.979c0.225-0.514,0.503-0.771,0.837-0.771c0.338,0,0.615,0.264,0.829,0.781
		c0.215,0.521,0.322,1.178,0.322,1.969c0,0.818-0.11,1.484-0.327,2.006C429.806,5.627,429.522,5.887,429.171,5.887z"/>
	<path fill="#D1D3D4" d="M432.646,5.887c-0.326,0-0.598-0.27-0.814-0.805c-0.217-0.537-0.325-1.193-0.325-1.979
		c0-0.805,0.111-1.461,0.334-1.979c0.224-0.514,0.503-0.771,0.837-0.771c0.338,0,0.614,0.264,0.829,0.781
		c0.216,0.521,0.322,1.178,0.322,1.969c0,0.818-0.109,1.484-0.327,2.006C433.281,5.627,432.997,5.887,432.646,5.887z"/>
	<path fill="#D1D3D4" d="M436.122,5.887c-0.326,0-0.597-0.27-0.813-0.805c-0.218-0.537-0.326-1.193-0.326-1.979
		c0-0.805,0.112-1.461,0.335-1.979c0.224-0.514,0.502-0.771,0.837-0.771c0.338,0,0.614,0.264,0.828,0.781
		c0.216,0.521,0.323,1.178,0.323,1.969c0,0.818-0.11,1.484-0.328,2.006C436.757,5.627,436.473,5.887,436.122,5.887z"/>
	<path fill="#D1D3D4" d="M439.596,5.887c-0.325,0-0.597-0.27-0.813-0.805c-0.218-0.537-0.326-1.193-0.326-1.979
		c0-0.805,0.112-1.461,0.334-1.979c0.225-0.514,0.504-0.771,0.838-0.771c0.338,0,0.614,0.264,0.829,0.781
		c0.216,0.521,0.322,1.178,0.322,1.969c0,0.818-0.109,1.484-0.328,2.006C440.231,5.627,439.948,5.887,439.596,5.887z"/>
	<path fill="#D1D3D4" d="M443.073,5.887c-0.325,0-0.597-0.27-0.813-0.805c-0.218-0.537-0.326-1.193-0.326-1.979
		c0-0.805,0.112-1.461,0.334-1.979c0.225-0.514,0.504-0.771,0.837-0.771c0.339,0,0.614,0.264,0.829,0.781
		c0.217,0.521,0.322,1.178,0.322,1.969c0,0.818-0.108,1.484-0.327,2.006C443.708,5.627,443.423,5.887,443.073,5.887z"/>
	<path fill="#D1D3D4" d="M446.546,5.887c-0.324,0-0.596-0.27-0.813-0.805c-0.218-0.537-0.326-1.193-0.326-1.979
		c0-0.805,0.111-1.461,0.334-1.979c0.225-0.514,0.504-0.771,0.837-0.771c0.338,0,0.614,0.264,0.829,0.781
		c0.216,0.521,0.322,1.178,0.322,1.969c0,0.818-0.109,1.484-0.327,2.006C447.182,5.627,446.898,5.887,446.546,5.887z"/>
	<path fill="#D1D3D4" d="M450.023,5.887c-0.324,0-0.597-0.27-0.813-0.805c-0.218-0.537-0.325-1.193-0.325-1.979
		c0-0.805,0.111-1.461,0.334-1.979c0.225-0.514,0.503-0.771,0.837-0.771c0.338,0,0.614,0.264,0.829,0.781
		c0.216,0.521,0.322,1.178,0.322,1.969c0,0.818-0.109,1.484-0.328,2.006C450.659,5.627,450.375,5.887,450.023,5.887z"/>
	<path fill="#D1D3D4" d="M453.498,5.887c-0.325,0-0.597-0.27-0.813-0.805c-0.218-0.537-0.326-1.193-0.326-1.979
		c0-0.805,0.112-1.461,0.335-1.979c0.224-0.514,0.503-0.771,0.837-0.771c0.338,0,0.614,0.264,0.829,0.781
		c0.216,0.521,0.322,1.178,0.322,1.969c0,0.818-0.109,1.484-0.328,2.006C454.132,5.627,453.849,5.887,453.498,5.887z"/>
	<path fill="#D1D3D4" d="M456.974,5.887c-0.325,0-0.597-0.27-0.813-0.805c-0.218-0.537-0.326-1.193-0.326-1.979
		c0-0.805,0.112-1.461,0.335-1.979c0.224-0.514,0.503-0.771,0.836-0.771c0.339,0,0.615,0.264,0.83,0.781
		c0.216,0.521,0.322,1.178,0.322,1.969c0,0.818-0.109,1.484-0.328,2.006C457.609,5.627,457.326,5.887,456.974,5.887z"/>
	<path fill="#D1D3D4" d="M460.449,5.887c-0.325,0-0.598-0.27-0.813-0.805c-0.218-0.537-0.326-1.193-0.326-1.979
		c0-0.805,0.112-1.461,0.334-1.979c0.225-0.514,0.504-0.771,0.837-0.771c0.338,0,0.615,0.264,0.83,0.781
		c0.215,0.521,0.322,1.178,0.322,1.969c0,0.818-0.109,1.484-0.328,2.006C461.083,5.627,460.799,5.887,460.449,5.887z"/>
	<path fill="#D1D3D4" d="M463.925,5.887c-0.325,0-0.598-0.27-0.814-0.805c-0.217-0.537-0.325-1.193-0.325-1.979
		c0-0.805,0.112-1.461,0.334-1.979c0.224-0.514,0.503-0.771,0.837-0.771c0.338,0,0.614,0.264,0.829,0.781
		c0.216,0.521,0.322,1.178,0.322,1.969c0,0.818-0.109,1.484-0.327,2.006C464.56,5.627,464.276,5.887,463.925,5.887z"/>
	<path fill="#D1D3D4" d="M467.4,5.887c-0.326,0-0.597-0.27-0.814-0.805c-0.217-0.537-0.326-1.193-0.326-1.979
		c0-0.805,0.112-1.461,0.335-1.979c0.224-0.514,0.503-0.771,0.837-0.771c0.338,0,0.614,0.264,0.829,0.781
		c0.216,0.521,0.323,1.178,0.323,1.969c0,0.818-0.11,1.484-0.329,2.006C468.036,5.627,467.75,5.887,467.4,5.887z"/>
	<path fill="#D1D3D4" d="M470.875,5.887c-0.325,0-0.596-0.27-0.813-0.805c-0.218-0.537-0.326-1.193-0.326-1.979
		c0-0.805,0.112-1.461,0.335-1.979c0.224-0.514,0.503-0.771,0.837-0.771c0.338,0,0.614,0.264,0.829,0.781
		c0.216,0.521,0.323,1.178,0.323,1.969c0,0.818-0.11,1.484-0.329,2.006C471.511,5.627,471.227,5.887,470.875,5.887z"/>
	<path fill="#D1D3D4" d="M474.351,5.887c-0.326,0-0.597-0.27-0.814-0.805c-0.218-0.537-0.326-1.193-0.326-1.979
		c0-0.805,0.112-1.461,0.335-1.979c0.224-0.514,0.503-0.771,0.836-0.771c0.339,0,0.615,0.264,0.83,0.781
		c0.216,0.521,0.323,1.178,0.323,1.969c0,0.818-0.11,1.484-0.329,2.006C474.986,5.627,474.701,5.887,474.351,5.887z"/>
	<path fill="#D1D3D4" d="M477.828,5.887c-0.326,0-0.598-0.27-0.814-0.805c-0.218-0.537-0.326-1.193-0.326-1.979
		c0-0.805,0.111-1.461,0.335-1.979c0.224-0.514,0.503-0.771,0.836-0.771c0.338,0,0.614,0.264,0.829,0.781
		c0.216,0.521,0.323,1.178,0.323,1.969c0,0.818-0.11,1.484-0.328,2.006C478.462,5.627,478.177,5.887,477.828,5.887z"/>
	<path fill="#D1D3D4" d="M481.301,5.887c-0.325,0-0.597-0.27-0.814-0.805c-0.217-0.537-0.325-1.193-0.325-1.979
		c0-0.805,0.111-1.461,0.335-1.979c0.224-0.514,0.503-0.771,0.836-0.771c0.338,0,0.614,0.264,0.829,0.781
		c0.216,0.521,0.323,1.178,0.323,1.969c0,0.818-0.11,1.484-0.329,2.006C481.937,5.627,481.652,5.887,481.301,5.887z"/>
	<path fill="#D1D3D4" d="M484.778,5.887c-0.326,0-0.597-0.27-0.814-0.805c-0.218-0.537-0.326-1.193-0.326-1.979
		c0-0.805,0.112-1.461,0.336-1.979c0.223-0.514,0.502-0.771,0.836-0.771c0.338,0,0.614,0.264,0.829,0.781
		c0.216,0.521,0.323,1.178,0.323,1.969c0,0.818-0.11,1.484-0.329,2.006C485.414,5.627,485.128,5.887,484.778,5.887z"/>
	<path fill="#D1D3D4" d="M488.252,5.887c-0.326,0-0.597-0.27-0.814-0.805c-0.218-0.537-0.326-1.193-0.326-1.979
		c0-0.805,0.112-1.461,0.335-1.979c0.224-0.514,0.503-0.771,0.836-0.771c0.339,0,0.615,0.264,0.83,0.781
		c0.216,0.521,0.323,1.178,0.323,1.969c0,0.818-0.11,1.484-0.329,2.006C488.887,5.627,488.603,5.887,488.252,5.887z"/>
	<path fill="#D1D3D4" d="M491.729,5.887c-0.326,0-0.597-0.27-0.814-0.805c-0.218-0.537-0.326-1.193-0.326-1.979
		c0-0.805,0.112-1.461,0.335-1.979c0.224-0.514,0.503-0.771,0.836-0.771c0.338,0,0.615,0.264,0.83,0.781
		c0.215,0.521,0.322,1.178,0.322,1.969c0,0.818-0.109,1.484-0.328,2.006C492.364,5.627,492.079,5.887,491.729,5.887z"/>
	<path fill="#D1D3D4" d="M495.203,5.887c-0.325,0-0.597-0.27-0.814-0.805c-0.217-0.537-0.325-1.193-0.325-1.979
		c0-0.805,0.112-1.461,0.335-1.979c0.224-0.514,0.503-0.771,0.836-0.771c0.338,0,0.614,0.264,0.829,0.781
		c0.216,0.521,0.323,1.178,0.323,1.969c0,0.818-0.109,1.484-0.328,2.006C495.838,5.627,495.553,5.887,495.203,5.887z"/>
	<path fill="#D1D3D4" d="M498.679,5.887c-0.326,0-0.597-0.27-0.814-0.805c-0.217-0.537-0.326-1.193-0.326-1.979
		c0-0.805,0.112-1.461,0.336-1.979c0.223-0.514,0.502-0.771,0.836-0.771c0.338,0,0.614,0.264,0.829,0.781
		c0.216,0.521,0.323,1.178,0.323,1.969c0,0.818-0.11,1.484-0.329,2.006C499.315,5.627,499.03,5.887,498.679,5.887z"/>
	<path fill="#D1D3D4" d="M502.154,5.887c-0.326,0-0.597-0.27-0.814-0.805c-0.218-0.537-0.325-1.193-0.325-1.979
		c0-0.805,0.111-1.461,0.335-1.979c0.223-0.514,0.502-0.771,0.836-0.771c0.338,0,0.614,0.264,0.829,0.781
		c0.216,0.521,0.323,1.178,0.323,1.969c0,0.818-0.11,1.484-0.329,2.006C502.789,5.627,502.504,5.887,502.154,5.887z"/>
	<path fill="#D1D3D4" d="M505.63,5.887c-0.326,0-0.597-0.27-0.814-0.805c-0.218-0.537-0.325-1.193-0.325-1.979
		c0-0.805,0.111-1.461,0.335-1.979c0.223-0.514,0.502-0.771,0.835-0.771c0.339,0,0.615,0.264,0.83,0.781
		c0.216,0.521,0.323,1.178,0.323,1.969c0,0.818-0.11,1.484-0.329,2.006C506.265,5.627,505.98,5.887,505.63,5.887z"/>
	<path fill="#D1D3D4" d="M509.105,5.887c-0.326,0-0.598-0.27-0.814-0.805c-0.218-0.537-0.325-1.193-0.325-1.979
		c0-0.805,0.111-1.461,0.334-1.979c0.224-0.514,0.503-0.771,0.836-0.771c0.339,0,0.615,0.264,0.829,0.781
		c0.217,0.521,0.324,1.178,0.324,1.969c0,0.818-0.11,1.484-0.329,2.006C509.74,5.627,509.455,5.887,509.105,5.887z"/>
	<path fill="#D1D3D4" d="M512.581,5.887c-0.325,0-0.597-0.27-0.813-0.805c-0.218-0.537-0.325-1.193-0.325-1.979
		c0-0.805,0.11-1.461,0.334-1.979c0.224-0.514,0.503-0.771,0.836-0.771c0.338,0,0.614,0.264,0.829,0.781
		c0.216,0.521,0.323,1.178,0.323,1.969c0,0.818-0.11,1.484-0.329,2.006C513.216,5.627,512.931,5.887,512.581,5.887z"/>
	<path fill="#D1D3D4" d="M516.055,5.887c-0.325,0-0.597-0.27-0.814-0.805c-0.217-0.537-0.325-1.193-0.325-1.979
		c0-0.805,0.111-1.461,0.335-1.979c0.223-0.514,0.502-0.771,0.836-0.771c0.338,0,0.614,0.264,0.829,0.781
		c0.216,0.521,0.323,1.178,0.323,1.969c0,0.818-0.11,1.484-0.328,2.006C516.691,5.627,516.406,5.887,516.055,5.887z"/>
</g>
</svg>
