<?xml version="1.0" encoding="utf-8"?>
<!-- Generator: Adobe Illustrator 16.0.0, SVG Export Plug-In . SVG Version: 6.00 Build 0)  -->
<!DOCTYPE svg PUBLIC "-//W3C//DTD SVG 1.1//EN" "http://www.w3.org/Graphics/SVG/1.1/DTD/svg11.dtd">
<svg version="1.1" id="Layer_1" xmlns="http://www.w3.org/2000/svg" xmlns:xlink="http://www.w3.org/1999/xlink" x="0px" y="0px"
	 width="33.75px" height="26.968px" viewBox="0 0 33.75 26.968" enable-background="new 0 0 33.75 26.968" xml:space="preserve">
<text transform="matrix(1 0 0 1 0.6133 25.9683)" fill="#414042" font-family="'FontAwesome'" font-size="32.6">  </text>
<g>
	<text transform="matrix(1 0 0 1 19.1455 67.7866)" fill="#414042" font-family="'FontAwesome'" font-size="33.8155"> </text>
	<g>
		<path fill="#414042" d="M95.928,45.435c0,0.321-0.283,0.604-0.604,0.604H69.953c-0.32,0-0.604-0.283-0.604-0.604v-3.624
			c0-0.32,0.283-0.604,0.604-0.604h25.371c0.32,0,0.604,0.283,0.604,0.604V45.435z M95.928,52.684c0,0.32-0.283,0.604-0.604,0.604
			H69.953c-0.32,0-0.604-0.283-0.604-0.604V49.06c0-0.321,0.283-0.604,0.604-0.604h25.371c0.32,0,0.604,0.283,0.604,0.604V52.684z
			 M95.928,59.932c0,0.321-0.283,0.604-0.604,0.604H69.953c-0.32,0-0.604-0.283-0.604-0.604v-3.624c0-0.32,0.283-0.604,0.604-0.604
			h25.371c0.32,0,0.604,0.283,0.604,0.604V59.932z M95.928,67.181c0,0.32-0.283,0.604-0.604,0.604H69.953
			c-0.32,0-0.604-0.284-0.604-0.604v-3.624c0-0.321,0.283-0.604,0.604-0.604h25.371c0.32,0,0.604,0.283,0.604,0.604V67.181z"/>
		<text transform="matrix(1 0 0 1 62.1895 45.7231)"><tspan x="0" y="0" fill="#414042" font-family="'Ebrima-Bold'" font-size="5.8943">1</tspan><tspan x="0" y="7.073" fill="#414042" font-family="'Ebrima-Bold'" font-size="5.8943">2</tspan><tspan x="0" y="14.146" fill="#414042" font-family="'Ebrima-Bold'" font-size="5.8943">3</tspan><tspan x="0" y="21.22" fill="#414042" font-family="'Ebrima-Bold'" font-size="5.8943">4</tspan></text>
	</g>
</g>
</svg>
