<?xml version="1.0" encoding="utf-8"?>
<!-- Generator: Adobe Illustrator 16.0.0, SVG Export Plug-In . SVG Version: 6.00 Build 0)  -->
<!DOCTYPE svg PUBLIC "-//W3C//DTD SVG 1.1//EN" "http://www.w3.org/Graphics/SVG/1.1/DTD/svg11.dtd">
<svg version="1.1" id="Layer_1" xmlns="http://www.w3.org/2000/svg" xmlns:xlink="http://www.w3.org/1999/xlink" x="0px" y="0px"
	 width="35.375px" height="28.221px" viewBox="0 0 35.375 28.221" enable-background="new 0 0 35.375 28.221" xml:space="preserve">
<g>
	<text transform="matrix(1 0 0 1 1.0205 27.2212)" fill="#414042" font-family="'FontAwesome'" font-size="33.8155"> </text>
	<g>
		<path fill="#414042" d="M77.803,4.869c0,0.321-0.283,0.604-0.604,0.604H51.828c-0.32,0-0.604-0.283-0.604-0.604V1.245
			c0-0.32,0.283-0.604,0.604-0.604h25.371c0.32,0,0.604,0.283,0.604,0.604V4.869z M77.803,12.118c0,0.32-0.283,0.604-0.604,0.604
			H51.828c-0.32,0-0.604-0.283-0.604-0.604V8.494c0-0.321,0.283-0.604,0.604-0.604h25.371c0.32,0,0.604,0.283,0.604,0.604V12.118z
			 M77.803,19.366c0,0.321-0.283,0.604-0.604,0.604H51.828c-0.32,0-0.604-0.283-0.604-0.604v-3.624c0-0.32,0.283-0.604,0.604-0.604
			h25.371c0.32,0,0.604,0.283,0.604,0.604V19.366z M77.803,26.615c0,0.32-0.283,0.604-0.604,0.604H51.828
			c-0.32,0-0.604-0.284-0.604-0.604v-3.624c0-0.321,0.283-0.604,0.604-0.604h25.371c0.32,0,0.604,0.283,0.604,0.604V26.615z"/>
		<text transform="matrix(1 0 0 1 44.0645 5.1572)"><tspan x="0" y="0" fill="#414042" font-family="'Ebrima-Bold'" font-size="5.8943">1</tspan><tspan x="0" y="7.073" fill="#414042" font-family="'Ebrima-Bold'" font-size="5.8943">2</tspan><tspan x="0" y="14.146" fill="#414042" font-family="'Ebrima-Bold'" font-size="5.8943">3</tspan><tspan x="0" y="21.219" fill="#414042" font-family="'Ebrima-Bold'" font-size="5.8943">4</tspan></text>
	</g>
</g>
</svg>
