<?xml version="1.0" encoding="utf-8"?>
<!-- Generator: Adobe Illustrator 16.0.0, SVG Export Plug-In . SVG Version: 6.00 Build 0)  -->
<!DOCTYPE svg PUBLIC "-//W3C//DTD SVG 1.1//EN" "http://www.w3.org/Graphics/SVG/1.1/DTD/svg11.dtd">
<svg version="1.1" id="Layer_1" xmlns="http://www.w3.org/2000/svg" xmlns:xlink="http://www.w3.org/1999/xlink" x="0px" y="0px"
	 width="35.375px" height="28.221px" viewBox="0 0 35.375 28.221" enable-background="new 0 0 35.375 28.221" xml:space="preserve">
<g>
	<g>
		<path fill="#414042" d="M-37.575,4.873c0,0.321-0.283,0.604-0.604,0.604h-3.623c-0.321,0-0.604-0.283-0.604-0.604V1.249
			c0-0.321,0.283-0.604,0.604-0.604h3.623c0.321,0,0.604,0.283,0.604,0.604V4.873z M-37.575,12.121c0,0.321-0.283,0.604-0.604,0.604
			h-3.623c-0.321,0-0.604-0.283-0.604-0.604V8.497c0-0.321,0.283-0.604,0.604-0.604h3.623c0.321,0,0.604,0.283,0.604,0.604V12.121z
			 M-37.575,19.369c0,0.321-0.283,0.604-0.604,0.604h-3.623c-0.321,0-0.604-0.283-0.604-0.604v-3.624
			c0-0.321,0.283-0.604,0.604-0.604h3.623c0.321,0,0.604,0.283,0.604,0.604V19.369z M-37.575,26.617
			c0,0.321-0.283,0.604-0.604,0.604h-3.623c-0.321,0-0.604-0.283-0.604-0.604v-3.624c0-0.321,0.283-0.604,0.604-0.604h3.623
			c0.321,0,0.604,0.283,0.604,0.604V26.617z M-8.583,4.873c0,0.321-0.283,0.604-0.604,0.604h-25.367
			c-0.321,0-0.604-0.283-0.604-0.604V1.249c0-0.321,0.283-0.604,0.604-0.604h25.367c0.321,0,0.604,0.283,0.604,0.604V4.873z
			 M-8.583,12.121c0,0.321-0.283,0.604-0.604,0.604h-25.367c-0.321,0-0.604-0.283-0.604-0.604V8.497
			c0-0.321,0.283-0.604,0.604-0.604h25.367c0.321,0,0.604,0.283,0.604,0.604V12.121z M-8.583,19.369
			c0,0.321-0.283,0.604-0.604,0.604h-25.367c-0.321,0-0.604-0.283-0.604-0.604v-3.624c0-0.321,0.283-0.604,0.604-0.604h25.367
			c0.321,0,0.604,0.283,0.604,0.604V19.369z M-8.583,26.617c0,0.321-0.283,0.604-0.604,0.604h-25.367
			c-0.321,0-0.604-0.283-0.604-0.604v-3.624c0-0.321,0.283-0.604,0.604-0.604h25.367c0.321,0,0.604,0.283,0.604,0.604V26.617z"/>
	</g>
	<g>
		<path fill="#414042" d="M34.375,4.869c0,0.321-0.283,0.604-0.604,0.604H8.4c-0.32,0-0.604-0.283-0.604-0.604V1.245
			c0-0.32,0.283-0.604,0.604-0.604h25.371c0.32,0,0.604,0.283,0.604,0.604V4.869z M34.375,12.118c0,0.32-0.283,0.604-0.604,0.604
			H8.4c-0.32,0-0.604-0.283-0.604-0.604V8.494C7.797,8.173,8.08,7.89,8.4,7.89h25.371c0.32,0,0.604,0.283,0.604,0.604V12.118z
			 M34.375,19.366c0,0.321-0.283,0.604-0.604,0.604H8.4c-0.32,0-0.604-0.283-0.604-0.604v-3.624c0-0.32,0.283-0.604,0.604-0.604
			h25.371c0.32,0,0.604,0.283,0.604,0.604V19.366z M34.375,26.615c0,0.32-0.283,0.604-0.604,0.604H8.4
			c-0.32,0-0.604-0.284-0.604-0.604v-3.624c0-0.321,0.283-0.604,0.604-0.604h25.371c0.32,0,0.604,0.283,0.604,0.604V26.615z"/>
		<g>
			<path fill="#414042" d="M3.736,5.157h-2.61v-0.72H1.98v-2.57l-0.878,0.19V1.321l1.785-0.36v3.477h0.849V5.157z"/>
			<path fill="#414042" d="M1.992,11.459v0.018h1.675v0.754H0.95v-0.708l1.184-1.131c0.237-0.229,0.405-0.42,0.502-0.574
				C2.732,9.663,2.781,9.5,2.781,9.33c0-0.38-0.205-0.57-0.613-0.57c-0.355,0-0.694,0.141-1.019,0.423v-0.8
				C1.508,8.15,1.913,8.034,2.363,8.034c0.422,0,0.752,0.106,0.989,0.318c0.236,0.212,0.355,0.499,0.355,0.859
				c0,0.481-0.289,0.979-0.866,1.494L1.992,11.459z"/>
			<path fill="#414042" d="M1.06,19.168v-0.792c0.276,0.202,0.599,0.302,0.967,0.302c0.232,0,0.413-0.05,0.543-0.15
				c0.13-0.1,0.194-0.239,0.194-0.417c0-0.184-0.08-0.326-0.24-0.426c-0.16-0.1-0.381-0.149-0.661-0.149H1.491V16.84h0.343
				c0.537,0,0.806-0.179,0.806-0.536c0-0.335-0.206-0.503-0.618-0.503c-0.276,0-0.545,0.089-0.807,0.268v-0.743
				c0.29-0.146,0.628-0.219,1.014-0.219c0.422,0,0.75,0.095,0.985,0.285s0.353,0.437,0.353,0.74c0,0.539-0.273,0.876-0.82,1.013
				v0.015c0.292,0.036,0.522,0.143,0.691,0.318c0.168,0.176,0.253,0.391,0.253,0.646c0,0.386-0.141,0.691-0.423,0.916
				c-0.282,0.224-0.672,0.336-1.169,0.336C1.673,19.375,1.326,19.307,1.06,19.168z"/>
			<path fill="#414042" d="M3.872,25.499H3.377v0.878H2.548v-0.878H0.749V24.92l1.732-2.67h0.896v2.602h0.495V25.499z M2.56,23.159
				H2.542c-0.027,0.069-0.079,0.177-0.155,0.322l-0.884,1.37h1.045v-1.298C2.548,23.438,2.552,23.307,2.56,23.159z"/>
		</g>
	</g>
</g>
</svg>
