<?xml version="1.0" encoding="utf-8"?>
<!-- Generator: Adobe Illustrator 16.0.0, SVG Export Plug-In . SVG Version: 6.00 Build 0)  -->
<!DOCTYPE svg PUBLIC "-//W3C//DTD SVG 1.1//EN" "http://www.w3.org/Graphics/SVG/1.1/DTD/svg11.dtd">
<svg version="1.1" id="Layer_1" xmlns="http://www.w3.org/2000/svg" xmlns:xlink="http://www.w3.org/1999/xlink" x="0px" y="0px"
	 width="108.333px" height="66.667px" viewBox="0 0 108.333 66.667" enable-background="new 0 0 108.333 66.667"
	 xml:space="preserve">
<g>
	<g>
		<polyline fill="#E6E7E8" points="63.94,10.065 76.652,27.419 51.313,27.419 		"/>
		<circle fill="#0992A3" cx="51.66" cy="14.455" r="12.964"/>
		<g>
			<g>
				<g>
					<path fill="#E6E7E8" d="M45.285,17.718H43.01v2.109h2.535v0.634h-3.291v-5.852h3.161v0.634H43.01v1.849h2.275V17.718z"/>
					<path fill="#E6E7E8" d="M46.422,19.541c0.338,0.208,0.833,0.382,1.354,0.382c0.772,0,1.224-0.408,1.224-0.999
						c0-0.547-0.313-0.859-1.103-1.163c-0.955-0.339-1.545-0.833-1.545-1.658c0-0.912,0.755-1.589,1.893-1.589
						c0.599,0,1.033,0.139,1.293,0.286l-0.208,0.617c-0.191-0.104-0.582-0.278-1.111-0.278c-0.799,0-1.103,0.478-1.103,0.877
						c0,0.547,0.356,0.816,1.163,1.129c0.99,0.382,1.494,0.859,1.494,1.719c0,0.903-0.669,1.685-2.049,1.685
						c-0.564,0-1.181-0.165-1.493-0.373L46.422,19.541z"/>
					<path fill="#E6E7E8" d="M54.895,20.27c-0.278,0.14-0.833,0.278-1.545,0.278c-1.649,0-2.891-1.042-2.891-2.961
						c0-1.832,1.242-3.073,3.056-3.073c0.729,0,1.189,0.156,1.389,0.261l-0.182,0.616c-0.287-0.139-0.695-0.243-1.181-0.243
						c-1.372,0-2.283,0.877-2.283,2.414c0,1.432,0.825,2.353,2.249,2.353c0.46,0,0.929-0.096,1.233-0.243L54.895,20.27z"/>
					<path fill="#E6E7E8" d="M57.194,15.252h-1.779v-0.643h4.332v0.643h-1.788v5.209h-0.765V15.252z"/>
				</g>
			</g>
			<g>
				<g>
					<polygon fill="#E6E7E8" points="48.579,12.068 48.722,11.066 48.865,10.065 49.724,10.925 50.583,11.783 49.581,11.927 					
						"/>
					<polygon fill="#E6E7E8" points="53.444,8.341 50.584,11.2 50.298,10.914 53.157,8.055 52.583,7.481 49.724,10.341 
						49.438,10.055 52.298,7.193 52.012,6.907 49.147,9.772 50.867,11.491 53.73,8.627 					"/>
					<path fill="#E6E7E8" d="M54.629,7.772c0.152-0.147,0.147-0.401-0.011-0.56l-1.145-1.146c-0.158-0.157-0.411-0.162-0.561-0.011
						c-0.012,0.012-0.017,0.027-0.028,0.041l-0.006-0.007L52.328,6.64l1.718,1.719l0.549-0.55l-0.007-0.008
						C54.603,7.79,54.617,7.787,54.629,7.772z"/>
				</g>
			</g>
		</g>
	</g>
	<g>
		<path fill="#542437" d="M2.304,52.427V36.503h9.573v2.025H4.557v4.824h7.114v2.049H4.557v4.975h7.559v2.051H2.304z"/>
		<path fill="#542437" d="M18.012,52.63l-5.066-10.723l2.33,0.002l3.246,6.979l3.021-6.984l2.288,0.004L18.99,52.63H18.012z"/>
		<path fill="#542437" d="M34.186,51.31c-0.674,0.434-1.389,0.766-2.144,0.996c-0.756,0.232-1.525,0.348-2.306,0.348
			c-1.654,0-2.979-0.514-3.972-1.543c-0.995-1.027-1.491-2.398-1.491-4.115c0-1.578,0.477-2.855,1.428-3.828
			c0.953-0.977,2.195-1.465,3.729-1.465c1.51,0,2.711,0.498,3.603,1.49c0.892,0.996,1.337,2.338,1.337,4.031v0.307h-7.877
			c0,0.479,0.085,0.914,0.256,1.303c0.17,0.393,0.412,0.736,0.723,1.031c0.599,0.555,1.392,0.83,2.378,0.83
			c0.683,0,1.383-0.121,2.1-0.369c0.718-0.246,1.463-0.619,2.236-1.119V51.31z M26.492,46.041l5.567-0.012
			c-0.069-0.744-0.346-1.35-0.832-1.822c-0.487-0.469-1.093-0.705-1.822-0.705c-0.797,0-1.441,0.213-1.935,0.637
			C26.978,44.564,26.651,45.199,26.492,46.041z"/>
		<path fill="#542437" d="M36.327,52.427v-10.52h2.095v1.285c0.531-0.504,1.059-0.867,1.582-1.094s1.078-0.34,1.662-0.34
			c1.13,0,2.025,0.33,2.686,0.99s0.991,1.566,0.991,2.717v6.961h-2.095v-6.424c0-0.842-0.18-1.467-0.54-1.877
			c-0.362-0.408-0.92-0.613-1.679-0.613c-0.532,0-0.998,0.102-1.402,0.309c-0.4,0.203-0.802,0.549-1.205,1.033v7.572H36.327z"/>
		<path fill="#542437" d="M53.766,52.095c-0.296,0.168-0.638,0.299-1.025,0.393c-0.386,0.096-0.801,0.143-1.24,0.143
			c-1.184,0-2.017-0.279-2.5-0.842c-0.481-0.561-0.723-1.586-0.723-3.074V43.73h-1.786v-0.207l3.675-4.063h0.24v2.447h3.29v1.822
			h-3.29v4.826c0,0.865,0.105,1.43,0.318,1.695c0.221,0.25,0.627,0.375,1.219,0.375c0.342,0,0.658-0.041,0.951-0.125
			c0.292-0.082,0.582-0.211,0.871-0.387V52.095z"/>
		<path fill="#FED093" d="M78.526,47.156c0-1.525,0.542-2.818,1.627-3.883c1.086-1.061,2.41-1.592,3.973-1.592
			c0.729,0,1.433,0.141,2.111,0.42c0.682,0.281,1.285,0.688,1.816,1.219c0.53,0.531,0.937,1.125,1.219,1.781
			c0.279,0.656,0.42,1.342,0.42,2.055c0,0.729-0.144,1.43-0.433,2.105c-0.144,0.342-0.315,0.66-0.513,0.957s-0.432,0.572-0.705,0.83
			c-0.517,0.518-1.111,0.91-1.787,1.178c-0.674,0.27-1.385,0.404-2.129,0.404c-1.563,0-2.887-0.529-3.973-1.594
			C79.068,49.974,78.526,48.681,78.526,47.156z M80.721,47.156c0,0.973,0.332,1.805,0.998,2.498
			c0.664,0.695,1.458,1.041,2.385,1.041c0.917,0,1.711-0.348,2.378-1.045c0.669-0.699,1.002-1.529,1.002-2.494
			c0-0.949-0.333-1.771-0.995-2.471c-0.665-0.697-1.459-1.047-2.385-1.047c-0.934,0-1.73,0.344-2.391,1.031
			C81.053,45.355,80.721,46.185,80.721,47.156z"/>
		<path fill="#FED093" d="M91,51.708v-2.242c0.631,0.41,1.24,0.727,1.828,0.951c0.588,0.223,1.121,0.334,1.598,0.334
			c0.548,0,0.973-0.1,1.276-0.299c0.303-0.203,0.456-0.479,0.456-0.826c0-0.434-0.574-0.939-1.721-1.514l-0.773-0.398
			c-0.987-0.5-1.66-0.986-2.021-1.451c-0.359-0.467-0.539-1.039-0.539-1.713c0-0.881,0.314-1.58,0.943-2.096
			c0.63-0.516,1.496-0.773,2.596-0.773c0.608,0,1.18,0.068,1.72,0.211c0.538,0.141,1.07,0.357,1.593,0.652v2.049
			c-0.637-0.355-1.229-0.617-1.775-0.783c-0.258-0.084-0.512-0.15-0.763-0.195s-0.501-0.068-0.751-0.068
			c-0.242,0-0.44,0.018-0.592,0.047c-0.151,0.031-0.295,0.092-0.434,0.182c-0.233,0.152-0.353,0.371-0.353,0.66
			c0,0.523,0.733,1.152,2.198,1.879l0.193,0.092c1.137,0.566,1.883,1.076,2.236,1.518c0.353,0.445,0.529,0.996,0.529,1.656
			c0,0.928-0.347,1.666-1.041,2.221c-0.693,0.555-1.615,0.83-2.762,0.83c-0.682,0-1.318-0.074-1.904-0.227
			C92.149,52.251,91.571,52.021,91,51.708z"/>
		<path fill="#FED093" d="M106.252,52.095c-0.295,0.168-0.637,0.299-1.023,0.393c-0.387,0.096-0.8,0.143-1.24,0.143
			c-1.184,0-2.017-0.279-2.498-0.842c-0.481-0.561-0.723-1.586-0.723-3.074V43.73H98.98v-0.207l3.678-4.063h0.237v2.447h3.291v1.822
			h-3.291v4.826c0,0.865,0.107,1.43,0.32,1.695c0.219,0.25,0.625,0.375,1.217,0.375c0.342,0,0.658-0.041,0.95-0.125
			c0.295-0.082,0.583-0.211,0.87-0.387V52.095z"/>
		<g>
			<circle fill="#FED093" cx="74.563" cy="32.885" r="1.585"/>
		</g>
		<g>
			<circle fill="#542437" cx="59.755" cy="32.885" r="1.585"/>
		</g>
		<g>
			<path fill="#FED093" d="M66.562,43.853c-0.015-0.031,1.871,0.607,7.257-6.93c0.918-1.104,2.041-0.684,2.245,0.018
				c0,1.463,0,15.566,0,15.566H73.92v-12.15c-1.303,1.631-3.344,3.592-6.078,4.443c-0.203,0.164-0.496,0.295-0.832,0.363
				c-0.162,0.031-0.32,0.043-0.467,0.043c-0.478-0.012-0.888-0.68-0.832-0.781C65.843,44.191,66.159,43.976,66.562,43.853z"/>
		</g>
		<g>
			<path fill="#542437" d="M67.856,43.853c0,0-1.872,0.607-7.258-6.93c-0.918-1.104-2.039-0.684-2.244,0.018
				c0,1.463,0,15.566,0,15.566h2.145v-12.15c1.303,1.631,3.344,3.592,6.076,4.443c0.205,0.164,0.496,0.295,0.832,0.363
				c0.162,0.031,0.275,0.045,0.468,0.043c0.192-0.006,0.895-0.363,0.833-0.781C68.782,43.847,67.856,43.853,67.856,43.853z"/>
		</g>
		<g>
			<path fill="#FED093" d="M66.915,45.093c-0.164,0.209-0.572,0.164-0.912-0.102c-0.341-0.266-0.484-0.65-0.319-0.861
				c0.083-0.105,0.226-0.146,0.39-0.129c0.165,0.02,0.78,0.482,0.845,0.617C67.002,44.796,67.008,44.972,66.915,45.093z"/>
		</g>
	</g>
	<g>
		<g>
			<path fill="#A7A9AC" d="M21.544,63.457c0.387,0.238,0.952,0.436,1.547,0.436c0.883,0,1.398-0.465,1.398-1.141
				c0-0.625-0.357-0.98-1.26-1.328c-1.091-0.387-1.766-0.953-1.766-1.895c0-1.041,0.863-1.814,2.163-1.814
				c0.684,0,1.18,0.158,1.478,0.326l-0.238,0.705c-0.218-0.119-0.665-0.318-1.27-0.318c-0.913,0-1.26,0.547-1.26,1.002
				c0,0.625,0.407,0.934,1.329,1.289c1.131,0.438,1.706,0.982,1.706,1.965c0,1.031-0.764,1.924-2.341,1.924
				c-0.645,0-1.349-0.188-1.706-0.426L21.544,63.457z"/>
			<path fill="#A7A9AC" d="M27.496,58.359c0.01,0.297-0.208,0.535-0.555,0.535c-0.308,0-0.526-0.238-0.526-0.535
				c0-0.309,0.229-0.545,0.546-0.545C27.288,57.814,27.496,58.05,27.496,58.359z M26.524,64.507v-4.801h0.873v4.801H26.524z"/>
			<path fill="#A7A9AC" d="M29.896,58.33v1.377h1.25v0.666h-1.25v2.588c0,0.596,0.168,0.932,0.655,0.932
				c0.228,0,0.396-0.029,0.506-0.059l0.04,0.654c-0.169,0.07-0.437,0.119-0.774,0.119c-0.406,0-0.734-0.129-0.942-0.367
				c-0.248-0.258-0.337-0.684-0.337-1.25v-2.617H28.3v-0.666h0.744v-1.15L29.896,58.33z"/>
			<path fill="#A7A9AC" d="M32.555,62.267c0.02,1.18,0.773,1.666,1.646,1.666c0.625,0,1.002-0.109,1.329-0.248l0.149,0.625
				c-0.308,0.139-0.833,0.297-1.597,0.297c-1.478,0-2.36-0.973-2.36-2.42s0.853-2.588,2.251-2.588c1.567,0,1.983,1.377,1.983,2.26
				c0,0.18-0.02,0.318-0.03,0.408H32.555z M35.114,61.642c0.01-0.557-0.228-1.42-1.21-1.42c-0.883,0-1.27,0.814-1.339,1.42H35.114z"
				/>
			<path fill="#A7A9AC" d="M43.843,64.291c-0.317,0.158-0.952,0.316-1.766,0.316c-1.884,0-3.303-1.189-3.303-3.383
				c0-2.092,1.418-3.51,3.491-3.51c0.833,0,1.359,0.178,1.587,0.297l-0.208,0.705c-0.328-0.16-0.793-0.279-1.349-0.279
				c-1.567,0-2.608,1.002-2.608,2.758c0,1.637,0.942,2.688,2.569,2.688c0.525,0,1.061-0.109,1.408-0.277L43.843,64.291z"/>
			<path fill="#A7A9AC" d="M44.866,61.205c0-0.564-0.01-1.051-0.04-1.498h0.764l0.03,0.943h0.04
				c0.218-0.645,0.744-1.051,1.329-1.051c0.099,0,0.168,0.01,0.248,0.029v0.822c-0.089-0.02-0.178-0.029-0.297-0.029
				c-0.615,0-1.051,0.467-1.17,1.121c-0.02,0.119-0.04,0.258-0.04,0.406v2.559h-0.863V61.205z"/>
			<path fill="#A7A9AC" d="M48.497,62.267c0.02,1.18,0.773,1.666,1.646,1.666c0.625,0,1.002-0.109,1.329-0.248l0.149,0.625
				c-0.308,0.139-0.833,0.297-1.597,0.297c-1.478,0-2.36-0.973-2.36-2.42s0.853-2.588,2.251-2.588c1.567,0,1.983,1.377,1.983,2.26
				c0,0.18-0.02,0.318-0.03,0.408H48.497z M51.056,61.642c0.01-0.557-0.228-1.42-1.21-1.42c-0.883,0-1.27,0.814-1.339,1.42H51.056z"
				/>
			<path fill="#A7A9AC" d="M55.639,64.507l-0.07-0.605H55.54c-0.268,0.377-0.783,0.715-1.468,0.715
				c-0.972,0-1.468-0.684-1.468-1.379c0-1.16,1.031-1.795,2.886-1.785v-0.1c0-0.396-0.109-1.109-1.091-1.109
				c-0.447,0-0.913,0.139-1.25,0.355l-0.198-0.574c0.396-0.258,0.972-0.426,1.577-0.426c1.468,0,1.824,1,1.824,1.963v1.795
				c0,0.416,0.021,0.824,0.08,1.15H55.639z M55.509,62.058c-0.952-0.02-2.033,0.148-2.033,1.08c0,0.566,0.377,0.834,0.823,0.834
				c0.625,0,1.021-0.396,1.16-0.803c0.03-0.09,0.05-0.189,0.05-0.277V62.058z"/>
			<path fill="#A7A9AC" d="M58.774,58.33v1.377h1.249v0.666h-1.249v2.588c0,0.596,0.168,0.932,0.654,0.932
				c0.229,0,0.396-0.029,0.506-0.059l0.039,0.654c-0.168,0.07-0.436,0.119-0.773,0.119c-0.406,0-0.734-0.129-0.941-0.367
				c-0.248-0.258-0.338-0.684-0.338-1.25v-2.617h-0.744v-0.666h0.744v-1.15L58.774,58.33z"/>
			<path fill="#A7A9AC" d="M65.291,62.068c0,1.775-1.229,2.549-2.391,2.549c-1.3,0-2.301-0.951-2.301-2.469
				c0-1.607,1.052-2.549,2.38-2.549C64.358,59.599,65.291,60.599,65.291,62.068z M61.482,62.117c0,1.053,0.604,1.846,1.458,1.846
				c0.833,0,1.458-0.783,1.458-1.865c0-0.813-0.407-1.844-1.438-1.844S61.482,61.205,61.482,62.117z"/>
			<path fill="#A7A9AC" d="M66.393,61.205c0-0.564-0.011-1.051-0.04-1.498h0.764l0.03,0.943h0.039
				c0.219-0.645,0.744-1.051,1.329-1.051c0.099,0,0.169,0.01,0.248,0.029v0.822c-0.089-0.02-0.179-0.029-0.298-0.029
				c-0.615,0-1.051,0.467-1.17,1.121c-0.02,0.119-0.04,0.258-0.04,0.406v2.559h-0.862V61.205z"/>
			<path fill="#A7A9AC" d="M72.631,58.556h-2.033v-0.732h4.949v0.732h-2.043v5.951h-0.873V58.556z"/>
			<path fill="#A7A9AC" d="M79.903,62.068c0,1.775-1.23,2.549-2.391,2.549c-1.299,0-2.301-0.951-2.301-2.469
				c0-1.607,1.051-2.549,2.381-2.549C78.97,59.599,79.903,60.599,79.903,62.068z M76.094,62.117c0,1.053,0.605,1.846,1.458,1.846
				c0.833,0,1.458-0.783,1.458-1.865c0-0.813-0.406-1.844-1.438-1.844C76.541,60.253,76.094,61.205,76.094,62.117z"/>
			<path fill="#A7A9AC" d="M85.349,62.068c0,1.775-1.229,2.549-2.391,2.549c-1.3,0-2.301-0.951-2.301-2.469
				c0-1.607,1.052-2.549,2.38-2.549C84.417,59.599,85.349,60.599,85.349,62.068z M81.541,62.117c0,1.053,0.604,1.846,1.458,1.846
				c0.833,0,1.458-0.783,1.458-1.865c0-0.813-0.407-1.844-1.438-1.844S81.541,61.205,81.541,62.117z"/>
			<path fill="#A7A9AC" d="M86.451,57.466h0.872v7.041h-0.872V57.466z"/>
		</g>
		<g>
			<circle fill="#0992A3" cx="7.615" cy="61.714" r="0.938"/>
			<circle fill="#542437" cx="9.962" cy="61.714" r="0.939"/>
			<circle fill="#0992A3" cx="12.308" cy="61.714" r="0.938"/>
		</g>
		<g>
			<circle fill="#0992A3" cx="96.249" cy="61.714" r="0.939"/>
			<circle fill="#542437" cx="98.595" cy="61.714" r="0.938"/>
			<circle fill="#0992A3" cx="100.942" cy="61.714" r="0.938"/>
		</g>
	</g>
</g>
</svg>
