<?xml version="1.0" encoding="utf-8"?>
<!-- Generator: Adobe Illustrator 16.0.0, SVG Export Plug-In . SVG Version: 6.00 Build 0)  -->
<!DOCTYPE svg PUBLIC "-//W3C//DTD SVG 1.1//EN" "http://www.w3.org/Graphics/SVG/1.1/DTD/svg11.dtd">
<svg version="1.1" id="Layer_1" xmlns="http://www.w3.org/2000/svg" xmlns:xlink="http://www.w3.org/1999/xlink" x="0px" y="0px"
	 width="129px" height="81px" viewBox="0 0 129 81" enable-background="new 0 0 129 81" xml:space="preserve">
<g>
	<g>
		<polyline fill="#E6E7E8" points="76.49,10.602 92.266,32.064 60.82,32.064 		"/>
		<ellipse fill="#0992A3" cx="61.25" cy="16.032" rx="16.088" ry="16.032"/>
		<g>
			<g>
				<g>
					<path fill="#E6E7E8" d="M53.34,20.063h-2.823v2.61h3.146v0.784H49.58v-7.24h3.921v0.784h-2.984v2.288h2.823V20.063z"/>
					<path fill="#E6E7E8" d="M54.751,22.319c0.42,0.258,1.034,0.473,1.681,0.473c0.958,0,1.519-0.505,1.519-1.235
						c0-0.677-0.388-1.063-1.368-1.439c-1.185-0.419-1.918-1.031-1.918-2.052c0-1.128,0.938-1.966,2.349-1.966
						c0.743,0,1.282,0.172,1.605,0.354l-0.258,0.763c-0.237-0.129-0.722-0.344-1.379-0.344c-0.991,0-1.368,0.591-1.368,1.085
						c0,0.677,0.442,1.01,1.443,1.396c1.229,0.473,1.853,1.063,1.853,2.127c0,1.117-0.83,2.084-2.542,2.084
						c-0.7,0-1.465-0.204-1.853-0.462L54.751,22.319z"/>
					<path fill="#E6E7E8" d="M65.265,23.222c-0.345,0.172-1.034,0.344-1.917,0.344c-2.047,0-3.587-1.289-3.587-3.663
						c0-2.267,1.541-3.803,3.792-3.803c0.905,0,1.476,0.193,1.724,0.322l-0.226,0.763c-0.355-0.172-0.862-0.301-1.465-0.301
						c-1.702,0-2.833,1.085-2.833,2.986c0,1.772,1.023,2.911,2.79,2.911c0.571,0,1.153-0.118,1.53-0.301L65.265,23.222z"/>
					<path fill="#E6E7E8" d="M68.119,17.013h-2.208v-0.795h5.376v0.795h-2.219v6.445h-0.949V17.013z"/>
				</g>
			</g>
			<g>
				<g>
					<polygon fill="#E6E7E8" points="57.427,13.08 57.604,11.84 57.782,10.602 58.849,11.664 59.915,12.727 58.671,12.903 					"/>
					<polygon fill="#E6E7E8" points="63.464,8.469 59.916,12.005 59.561,11.651 63.108,8.114 62.397,7.406 58.849,10.943 
						58.493,10.589 62.042,7.051 61.687,6.697 58.132,10.24 60.267,12.365 63.819,8.823 					"/>
					<path fill="#E6E7E8" d="M64.936,7.767c0.188-0.184,0.182-0.497-0.014-0.693l-1.421-1.417c-0.195-0.195-0.51-0.201-0.696-0.014
						c-0.015,0.016-0.021,0.034-0.035,0.051l-0.007-0.008L62.08,6.366l2.133,2.125l0.681-0.679l-0.009-0.01
						C64.903,7.789,64.921,7.784,64.936,7.767z"/>
				</g>
			</g>
		</g>
	</g>
	<g>
		<path fill="#542437" d="M0,62.991V43.298h11.88v2.505H2.797v5.969h8.828v2.533H2.797v6.151h9.38v2.535H0z"/>
		<path fill="#542437" d="M19.494,63.244l-6.287-13.262l2.892,0.002l4.028,8.631l3.749-8.637l2.839,0.004l-6.007,13.262H19.494z"/>
		<path fill="#542437" d="M39.566,61.612c-0.837,0.535-1.724,0.945-2.661,1.231s-1.893,0.428-2.861,0.428
			c-2.053,0-3.697-0.634-4.93-1.906c-1.234-1.271-1.851-2.968-1.851-5.089c0-1.952,0.591-3.532,1.772-4.737
			c1.183-1.206,2.724-1.81,4.627-1.81c1.874,0,3.364,0.615,4.471,1.843c1.107,1.232,1.66,2.893,1.66,4.986v0.379h-9.775
			c0,0.592,0.105,1.129,0.317,1.611c0.212,0.484,0.511,0.909,0.897,1.274c0.744,0.686,1.728,1.028,2.952,1.028
			c0.848,0,1.716-0.152,2.606-0.458c0.891-0.306,1.816-0.767,2.775-1.386V61.612z M30.018,55.093l6.909-0.014
			c-0.086-0.92-0.429-1.67-1.032-2.253c-0.604-0.58-1.357-0.872-2.261-0.872c-0.99,0-1.789,0.263-2.401,0.788
			S30.215,54.052,30.018,55.093z"/>
		<path fill="#542437" d="M42.222,62.991V49.982h2.6v1.59c0.659-0.622,1.313-1.074,1.963-1.353c0.649-0.279,1.338-0.42,2.063-0.42
			c1.402,0,2.513,0.407,3.333,1.224c0.82,0.815,1.229,1.937,1.229,3.361v8.606h-2.6v-7.943c0-1.041-0.223-1.813-0.67-2.321
			c-0.449-0.504-1.142-0.759-2.083-0.759c-0.66,0-1.239,0.126-1.74,0.381c-0.497,0.252-0.996,0.68-1.495,1.279v9.363H42.222z"/>
		<path fill="#542437" d="M63.864,62.583c-0.367,0.206-0.792,0.368-1.272,0.484c-0.479,0.119-0.994,0.177-1.539,0.177
			c-1.47,0-2.503-0.346-3.103-1.041c-0.598-0.694-0.896-1.961-0.896-3.802v-6.165h-2.217v-0.255l4.562-5.024h0.297v3.025h4.082
			v2.254h-4.082v5.968c0,1.07,0.13,1.77,0.395,2.099c0.274,0.309,0.778,0.463,1.512,0.463c0.424,0,0.817-0.051,1.18-0.154
			c0.362-0.103,0.723-0.263,1.081-0.479V62.583z"/>
		<path fill="#FED093" d="M94.59,56.473c0-1.886,0.674-3.485,2.02-4.801c1.348-1.313,2.992-1.97,4.932-1.97
			c0.904,0,1.777,0.174,2.619,0.52c0.844,0.349,1.594,0.851,2.254,1.507c0.658,0.657,1.162,1.392,1.512,2.203
			c0.348,0.813,0.521,1.659,0.521,2.541c0,0.901-0.178,1.769-0.535,2.604c-0.18,0.425-0.393,0.817-0.637,1.184
			c-0.246,0.367-0.537,0.708-0.877,1.027c-0.641,0.64-1.379,1.125-2.217,1.457c-0.836,0.333-1.717,0.5-2.641,0.5
			c-1.939,0-3.584-0.655-4.932-1.971C95.264,59.96,94.59,58.36,94.59,56.473z M97.314,56.473c0,1.202,0.412,2.232,1.238,3.09
			c0.824,0.86,1.811,1.289,2.961,1.289c1.139,0,2.123-0.433,2.949-1.295c0.83-0.863,1.244-1.892,1.244-3.084
			c0-1.174-0.412-2.191-1.236-3.056c-0.822-0.861-1.809-1.294-2.957-1.294c-1.16,0-2.148,0.425-2.967,1.275
			C97.727,54.246,97.314,55.271,97.314,56.473z"/>
		<path fill="#FED093" d="M110.072,62.104v-2.773c0.783,0.506,1.539,0.899,2.268,1.176s1.393,0.414,1.984,0.414
			c0.68,0,1.207-0.124,1.582-0.371c0.377-0.249,0.566-0.59,0.566-1.022c0-0.535-0.713-1.159-2.135-1.871l-0.959-0.493
			c-1.225-0.618-2.061-1.218-2.508-1.794c-0.447-0.578-0.672-1.284-0.672-2.119c0-1.09,0.393-1.954,1.172-2.59
			c0.783-0.639,1.855-0.958,3.221-0.958c0.756,0,1.465,0.086,2.135,0.261c0.668,0.174,1.328,0.442,1.977,0.808v2.534
			c-0.791-0.439-1.525-0.763-2.203-0.969c-0.32-0.105-0.637-0.186-0.947-0.242c-0.311-0.056-0.621-0.083-0.932-0.083
			c-0.301,0-0.547,0.02-0.734,0.057c-0.188,0.038-0.367,0.112-0.537,0.224c-0.291,0.19-0.439,0.461-0.439,0.817
			c0,0.647,0.91,1.424,2.729,2.323l0.24,0.112c1.412,0.703,2.338,1.331,2.775,1.878c0.438,0.551,0.658,1.232,0.658,2.05
			c0,1.146-0.432,2.061-1.293,2.745c-0.861,0.686-2.004,1.027-3.428,1.027c-0.846,0-1.635-0.093-2.363-0.281
			C111.498,62.775,110.779,62.489,110.072,62.104z"/>
		<path fill="#FED093" d="M129,62.583c-0.365,0.206-0.791,0.368-1.27,0.484c-0.48,0.119-0.994,0.177-1.541,0.177
			c-1.469,0-2.502-0.346-3.1-1.041c-0.598-0.694-0.896-1.961-0.896-3.802v-6.165h-2.219v-0.255l4.564-5.024h0.295v3.025h4.084v2.254
			h-4.084v5.968c0,1.07,0.131,1.77,0.396,2.099c0.271,0.309,0.775,0.463,1.51,0.463c0.424,0,0.816-0.051,1.18-0.154
			c0.365-0.103,0.725-0.263,1.08-0.479V62.583z"/>
		<g>
			
				<ellipse transform="matrix(-0.9999 -0.0138 0.0138 -0.9999 178.802 78.8823)" fill="#FED093" cx="89.673" cy="38.825" rx="1.966" ry="1.961"/>
		</g>
		<g>
			
				<ellipse transform="matrix(-0.9999 -0.0138 0.0138 -0.9999 142.0538 78.629)" fill="#542437" cx="71.298" cy="38.825" rx="1.966" ry="1.961"/>
		</g>
		<g>
			<path fill="#FED093" d="M79.744,52.388c-0.02-0.039,2.322,0.751,9.004-8.569c1.141-1.364,2.535-0.845,2.787,0.022
				c0,1.809,0,19.25,0,19.25h-2.66V48.064c-1.615,2.018-4.15,4.442-7.543,5.495c-0.252,0.202-0.615,0.366-1.031,0.449
				c-0.203,0.039-0.398,0.055-0.58,0.053c-0.594-0.014-1.102-0.841-1.031-0.965C78.854,52.807,79.242,52.54,79.744,52.388z"/>
		</g>
		<g>
			<path fill="#542437" d="M81.35,52.388c0,0-2.322,0.751-9.006-8.569c-1.141-1.364-2.531-0.845-2.785,0.022
				c0,1.809,0,19.25,0,19.25h2.66V48.064c1.617,2.018,4.15,4.442,7.541,5.495c0.254,0.202,0.615,0.366,1.033,0.449
				c0.199,0.039,0.342,0.057,0.58,0.053c0.238-0.006,1.109-0.447,1.033-0.965C82.498,52.382,81.35,52.388,81.35,52.388z"/>
		</g>
		<g>
			<path fill="#FED093" d="M80.182,53.922c-0.205,0.259-0.711,0.204-1.133-0.125s-0.6-0.806-0.395-1.066
				c0.102-0.13,0.279-0.181,0.482-0.157c0.205,0.023,0.967,0.595,1.049,0.763C80.289,53.556,80.297,53.773,80.182,53.922z"/>
		</g>
	</g>
	<g>
		<g>
			<path fill="#A7A9AC" d="M16.432,76.631c0.48,0.295,1.182,0.54,1.921,0.54c1.096,0,1.736-0.576,1.736-1.411
				c0-0.772-0.443-1.214-1.564-1.644c-1.354-0.479-2.192-1.178-2.192-2.343c0-1.288,1.071-2.245,2.685-2.245
				c0.85,0,1.465,0.196,1.835,0.404l-0.296,0.871c-0.271-0.147-0.825-0.393-1.576-0.393c-1.133,0-1.563,0.675-1.563,1.239
				c0,0.772,0.504,1.153,1.65,1.595c1.404,0.54,2.118,1.215,2.118,2.429c0,1.276-0.948,2.381-2.906,2.381
				c-0.8,0-1.675-0.233-2.118-0.528L16.432,76.631z"/>
			<path fill="#A7A9AC" d="M23.819,70.325c0.013,0.368-0.258,0.663-0.689,0.663c-0.382,0-0.652-0.295-0.652-0.663
				c0-0.38,0.283-0.675,0.677-0.675C23.561,69.65,23.819,69.945,23.819,70.325z M22.612,77.932v-5.938h1.083v5.938H22.612z"/>
			<path fill="#A7A9AC" d="M26.798,70.289v1.705h1.552v0.821h-1.552v3.202c0,0.736,0.209,1.153,0.813,1.153
				c0.283,0,0.492-0.037,0.628-0.073l0.049,0.81c-0.209,0.086-0.542,0.147-0.96,0.147c-0.505,0-0.912-0.16-1.17-0.454
				c-0.308-0.319-0.419-0.847-0.419-1.546v-3.239h-0.923v-0.821h0.923V70.57L26.798,70.289z"/>
			<path fill="#A7A9AC" d="M30.097,75.159c0.024,1.46,0.96,2.061,2.044,2.061c0.776,0,1.244-0.135,1.65-0.307l0.185,0.773
				c-0.382,0.172-1.035,0.368-1.983,0.368c-1.834,0-2.931-1.203-2.931-2.994s1.059-3.201,2.795-3.201
				c1.946,0,2.463,1.705,2.463,2.797c0,0.221-0.025,0.393-0.037,0.503H30.097z M33.274,74.386c0.012-0.687-0.283-1.754-1.502-1.754
				c-1.096,0-1.576,1.006-1.662,1.754H33.274z"/>
			<path fill="#A7A9AC" d="M44.108,77.662c-0.394,0.196-1.182,0.393-2.192,0.393c-2.34,0-4.101-1.473-4.101-4.184
				c0-2.589,1.761-4.343,4.334-4.343c1.034,0,1.687,0.221,1.97,0.368l-0.259,0.871c-0.406-0.197-0.985-0.344-1.674-0.344
				c-1.946,0-3.239,1.239-3.239,3.41c0,2.024,1.17,3.325,3.189,3.325c0.652,0,1.317-0.136,1.749-0.344L44.108,77.662z"/>
			<path fill="#A7A9AC" d="M45.374,73.847c0-0.699-0.012-1.301-0.049-1.853h0.948l0.037,1.165h0.049c0.271-0.797,0.924-1.3,1.65-1.3
				c0.123,0,0.209,0.012,0.308,0.036v1.019c-0.111-0.024-0.222-0.037-0.369-0.037c-0.764,0-1.306,0.577-1.453,1.387
				c-0.025,0.147-0.049,0.318-0.049,0.503v3.165h-1.071V73.847z"/>
			<path fill="#A7A9AC" d="M49.88,75.159c0.024,1.46,0.96,2.061,2.044,2.061c0.776,0,1.244-0.135,1.65-0.307l0.185,0.773
				c-0.382,0.172-1.035,0.368-1.983,0.368c-1.834,0-2.931-1.203-2.931-2.994s1.059-3.201,2.795-3.201
				c1.946,0,2.463,1.705,2.463,2.797c0,0.221-0.025,0.393-0.037,0.503H49.88z M53.057,74.386c0.012-0.687-0.283-1.754-1.502-1.754
				c-1.096,0-1.576,1.006-1.662,1.754H53.057z"/>
			<path fill="#A7A9AC" d="M58.745,77.932l-0.086-0.748h-0.037c-0.333,0.466-0.973,0.883-1.822,0.883
				c-1.207,0-1.822-0.847-1.822-1.705c0-1.436,1.28-2.221,3.583-2.208V74.03c0-0.49-0.135-1.374-1.354-1.374
				c-0.554,0-1.133,0.172-1.551,0.441l-0.247-0.711c0.493-0.319,1.207-0.527,1.958-0.527c1.822,0,2.266,1.238,2.266,2.429v2.221
				c0,0.515,0.025,1.018,0.099,1.423H58.745z M58.584,74.901c-1.182-0.024-2.524,0.185-2.524,1.337c0,0.699,0.468,1.031,1.022,1.031
				c0.776,0,1.269-0.491,1.441-0.994c0.037-0.11,0.062-0.233,0.062-0.344V74.901z"/>
			<path fill="#A7A9AC" d="M62.634,70.289v1.705h1.552v0.821h-1.552v3.202c0,0.736,0.209,1.153,0.813,1.153
				c0.283,0,0.492-0.037,0.628-0.073l0.049,0.81c-0.209,0.086-0.542,0.147-0.96,0.147c-0.505,0-0.912-0.16-1.17-0.454
				c-0.308-0.319-0.419-0.847-0.419-1.546v-3.239h-0.923v-0.821h0.923V70.57L62.634,70.289z"/>
			<path fill="#A7A9AC" d="M70.723,74.914c0,2.195-1.527,3.152-2.967,3.152c-1.613,0-2.857-1.178-2.857-3.055
				c0-1.987,1.305-3.152,2.955-3.152C69.566,71.859,70.723,73.098,70.723,74.914z M65.994,74.975c0,1.301,0.752,2.282,1.811,2.282
				c1.035,0,1.811-0.969,1.811-2.307c0-1.006-0.506-2.281-1.785-2.281C66.549,72.669,65.994,73.847,65.994,74.975z"/>
			<path fill="#A7A9AC" d="M72.088,73.847c0-0.699-0.012-1.301-0.049-1.853h0.947l0.037,1.165h0.049c0.271-0.797,0.924-1.3,1.65-1.3
				c0.123,0,0.209,0.012,0.309,0.036v1.019c-0.111-0.024-0.223-0.037-0.369-0.037c-0.764,0-1.307,0.577-1.453,1.387
				c-0.025,0.147-0.051,0.318-0.051,0.503v3.165h-1.07V73.847z"/>
			<path fill="#A7A9AC" d="M79.832,70.57h-2.525v-0.907h6.145v0.907h-2.535v7.361h-1.084V70.57z"/>
			<path fill="#A7A9AC" d="M88.857,74.914c0,2.195-1.527,3.152-2.967,3.152c-1.613,0-2.857-1.178-2.857-3.055
				c0-1.987,1.305-3.152,2.955-3.152C87.699,71.859,88.857,73.098,88.857,74.914z M84.129,74.975c0,1.301,0.752,2.282,1.811,2.282
				c1.033,0,1.811-0.969,1.811-2.307c0-1.006-0.506-2.281-1.787-2.281C84.684,72.669,84.129,73.847,84.129,74.975z"/>
			<path fill="#A7A9AC" d="M95.615,74.914c0,2.195-1.527,3.152-2.967,3.152c-1.613,0-2.857-1.178-2.857-3.055
				c0-1.987,1.305-3.152,2.955-3.152C94.457,71.859,95.615,73.098,95.615,74.914z M90.887,74.975c0,1.301,0.752,2.282,1.811,2.282
				c1.033,0,1.811-0.969,1.811-2.307c0-1.006-0.506-2.281-1.787-2.281C91.441,72.669,90.887,73.847,90.887,74.975z"/>
			<path fill="#A7A9AC" d="M96.98,69.222h1.084v8.71H96.98V69.222z"/>
		</g>
		<g>
			<ellipse fill="#0992A3" cx="6.591" cy="74.479" rx="1.165" ry="1.159"/>
			<ellipse fill="#542437" cx="9.504" cy="74.479" rx="1.165" ry="1.159"/>
			<ellipse fill="#0992A3" cx="12.416" cy="74.479" rx="1.165" ry="1.159"/>
		</g>
		<g>
			<ellipse fill="#0992A3" cx="116.585" cy="74.479" rx="1.165" ry="1.159"/>
			<circle fill="#542437" cx="119.496" cy="74.479" r="1.164"/>
			<ellipse fill="#0992A3" cx="122.409" cy="74.479" rx="1.165" ry="1.159"/>
		</g>
	</g>
</g>
</svg>
