<?xml version="1.0" encoding="utf-8"?>
<!-- Generator: Adobe Illustrator 16.0.0, SVG Export Plug-In . SVG Version: 6.00 Build 0)  -->
<!DOCTYPE svg PUBLIC "-//W3C//DTD SVG 1.1//EN" "http://www.w3.org/Graphics/SVG/1.1/DTD/svg11.dtd">
<svg version="1.1" id="Layer_1" xmlns="http://www.w3.org/2000/svg" xmlns:xlink="http://www.w3.org/1999/xlink" x="0px" y="0px"
	 width="218px" height="138px" viewBox="0 0 218 138" enable-background="new 0 0 218 138" xml:space="preserve">
<g>
	<g>
		<polyline fill="#E6E7E8" points="129.264,18.063 155.92,54.627 102.781,54.627 		"/>
		<path fill="#0992A3" d="M76.321,27.313C76.321,12.228,88.493,0,103.509,0c15.014,0,27.186,12.228,27.186,27.313
			c0,15.088-12.172,27.315-27.186,27.315C88.493,54.627,76.321,42.401,76.321,27.313z"/>
		<g>
			<g>
				<g>
					<path fill="#E6E7E8" d="M90.138,34.185h-4.77v4.446h5.315v1.335h-6.899V27.635h6.626v1.335h-5.042v3.897h4.77V34.185z"/>
					<path fill="#E6E7E8" d="M92.523,38.027c0.71,0.439,1.748,0.805,2.84,0.805c1.62,0,2.567-0.86,2.567-2.104
						c0-1.153-0.656-1.811-2.312-2.452c-2.002-0.713-3.24-1.756-3.24-3.494c0-1.921,1.583-3.348,3.968-3.348
						c1.256,0,2.167,0.292,2.712,0.604l-0.437,1.299c-0.4-0.22-1.22-0.585-2.33-0.585c-1.675,0-2.312,1.006-2.312,1.848
						c0,1.153,0.746,1.72,2.439,2.378c2.075,0.805,3.131,1.811,3.131,3.623c0,1.903-1.402,3.549-4.296,3.549
						c-1.183,0-2.476-0.348-3.131-0.787L92.523,38.027z"/>
					<path fill="#E6E7E8" d="M110.291,39.564c-0.583,0.292-1.748,0.585-3.24,0.585c-3.459,0-6.062-2.196-6.062-6.239
						c0-3.86,2.603-6.477,6.408-6.477c1.529,0,2.494,0.329,2.912,0.549l-0.382,1.299c-0.601-0.292-1.456-0.512-2.476-0.512
						c-2.876,0-4.788,1.848-4.788,5.086c0,3.019,1.729,4.958,4.715,4.958c0.965,0,1.948-0.201,2.585-0.512L110.291,39.564z"/>
					<path fill="#E6E7E8" d="M115.115,28.989h-3.732v-1.354h9.084v1.354h-3.75v10.977h-1.602V28.989z"/>
				</g>
			</g>
			<g>
				<g>
					<polygon fill="#E6E7E8" points="97.048,22.284 97.346,20.171 97.647,18.063 99.45,19.873 101.251,21.683 99.149,21.984 					
						"/>
					<polygon fill="#E6E7E8" points="107.25,14.429 101.253,20.453 100.654,19.85 106.647,13.826 105.446,12.619 99.45,18.644 
						98.848,18.039 104.847,12.012 104.246,11.409 98.239,17.446 101.846,21.067 107.85,15.032 					"/>
					<path fill="#E6E7E8" d="M109.736,13.233c0.318-0.313,0.308-0.846-0.022-1.182l-2.401-2.413
						c-0.33-0.332-0.861-0.341-1.177-0.023c-0.025,0.026-0.035,0.06-0.059,0.086l-0.013-0.013l-1.154,1.156l3.604,3.621l1.152-1.156
						l-0.016-0.018C109.681,13.268,109.711,13.262,109.736,13.233z"/>
				</g>
			</g>
		</g>
	</g>
	<g>
		<path fill="#542437" d="M0,107.319V73.768h20.076v4.267H4.726v10.169h14.919v4.316H4.726v10.479h15.853v4.32H0z"/>
		<path fill="#542437" d="M32.943,107.75L22.319,85.155l4.887,0.004l6.806,14.704l6.335-14.714l4.798,0.006L34.995,107.75H32.943z"
			/>
		<path fill="#542437" d="M66.863,104.969c-1.415,0.911-2.913,1.611-4.497,2.099c-1.585,0.487-3.199,0.729-4.836,0.729
			c-3.471,0-6.247-1.08-8.331-3.249c-2.085-2.164-3.128-5.055-3.128-8.669c0-3.325,1-6.018,2.996-8.069
			c1.999-2.057,4.604-3.083,7.819-3.083c3.166,0,5.686,1.046,7.555,3.14c1.871,2.099,2.804,4.926,2.804,8.493v0.647H50.727
			c0,1.007,0.178,1.923,0.537,2.744c0.358,0.825,0.864,1.548,1.517,2.171c1.257,1.168,2.92,1.751,4.989,1.751
			c1.433,0,2.9-0.258,4.404-0.778c1.506-0.521,3.069-1.307,4.69-2.361V104.969z M50.727,93.862l11.676-0.023
			c-0.145-1.569-0.725-2.845-1.745-3.84c-1.021-0.988-2.292-1.484-3.82-1.484c-1.672,0-3.023,0.447-4.058,1.343
			C51.745,90.752,51.062,92.088,50.727,93.862z"/>
		<path fill="#542437" d="M71.352,107.319V85.155h4.393v2.71c1.115-1.062,2.219-1.831,3.317-2.305
			c1.098-0.478,2.261-0.716,3.487-0.716c2.37,0,4.248,0.692,5.633,2.085c1.385,1.389,2.077,3.298,2.077,5.726v14.664h-4.394V93.786
			c0-1.774-0.377-3.091-1.132-3.955c-0.758-0.859-1.929-1.293-3.521-1.293c-1.116,0-2.093,0.215-2.941,0.649
			c-0.839,0.428-1.682,1.156-2.526,2.179v15.953H71.352z"/>
		<path fill="#542437" d="M107.925,106.623c-0.621,0.351-1.337,0.627-2.149,0.826c-0.81,0.201-1.68,0.301-2.6,0.301
			c-2.483,0-4.23-0.591-5.243-1.773c-1.009-1.184-1.516-3.342-1.516-6.479V88.995H92.67v-0.434L100.379,80h0.502v5.155h6.898v3.84
			h-6.898v10.168c0,1.823,0.22,3.015,0.666,3.574c0.464,0.527,1.315,0.789,2.556,0.789c0.716,0,1.38-0.086,1.994-0.262
			c0.612-0.176,1.221-0.447,1.827-0.815V106.623z"/>
		<path fill="#FED093" d="M159.85,96.213c0-3.213,1.139-5.938,3.414-8.18c2.277-2.238,5.055-3.354,8.332-3.354
			c1.529,0,3.004,0.295,4.428,0.885c1.428,0.594,2.695,1.448,3.809,2.566c1.111,1.12,1.965,2.37,2.555,3.753
			c0.588,1.386,0.883,2.828,0.883,4.33c0,1.534-0.303,3.013-0.908,4.436c-0.301,0.723-0.66,1.393-1.074,2.016
			c-0.414,0.626-0.906,1.207-1.48,1.751c-1.082,1.091-2.33,1.916-3.748,2.482c-1.414,0.567-2.902,0.853-4.463,0.853
			c-3.277,0-6.055-1.116-8.332-3.358C160.988,102.154,159.85,99.429,159.85,96.213z M164.455,96.213
			c0,2.049,0.697,3.803,2.092,5.265c1.393,1.465,3.059,2.194,5.002,2.194c1.924,0,3.588-0.735,4.988-2.204
			c1.402-1.473,2.102-3.223,2.102-5.255c0-2-0.697-3.733-2.088-5.206c-1.395-1.468-3.061-2.204-5.002-2.204
			c-1.957,0-3.629,0.723-5.014,2.172C165.152,92.42,164.455,94.167,164.455,96.213z"/>
		<path fill="#FED093" d="M186.014,105.808v-4.725c1.32,0.861,2.6,1.531,3.832,2.002c1.232,0.472,2.354,0.706,3.352,0.706
			c1.15,0,2.041-0.211,2.678-0.633c0.635-0.424,0.955-1.004,0.955-1.74c0-0.912-1.205-1.977-3.607-3.189l-1.621-0.84
			c-2.072-1.054-3.482-2.075-4.24-3.056c-0.756-0.985-1.133-2.188-1.133-3.61c0-1.856,0.662-3.329,1.979-4.413
			c1.322-1.087,3.137-1.631,5.445-1.631c1.275,0,2.475,0.146,3.607,0.443c1.127,0.296,2.244,0.754,3.338,1.376v4.316
			c-1.334-0.749-2.576-1.299-3.723-1.65c-0.541-0.179-1.074-0.315-1.598-0.411c-0.527-0.096-1.053-0.143-1.576-0.143
			c-0.51,0-0.924,0.033-1.242,0.096c-0.316,0.066-0.617,0.192-0.906,0.382c-0.492,0.324-0.74,0.786-0.74,1.393
			c0,1.104,1.537,2.427,4.607,3.959l0.408,0.191c2.383,1.197,3.949,2.269,4.688,3.2c0.74,0.937,1.111,2.098,1.111,3.49
			c0,1.953-0.727,3.511-2.184,4.679c-1.455,1.166-3.387,1.75-5.791,1.75c-1.43,0-2.764-0.159-3.996-0.48
			C188.422,106.951,187.209,106.463,186.014,105.808z"/>
		<path fill="#FED093" d="M218,106.623c-0.619,0.351-1.336,0.627-2.148,0.826c-0.811,0.201-1.676,0.301-2.6,0.301
			c-2.482,0-4.23-0.591-5.24-1.773c-1.01-1.184-1.516-3.342-1.516-6.479V88.995h-3.748v-0.434L210.461,80h0.498v5.155h6.902v3.84
			h-6.902v10.168c0,1.823,0.223,3.015,0.672,3.574c0.459,0.527,1.309,0.789,2.551,0.789c0.717,0,1.379-0.086,1.992-0.262
			c0.619-0.176,1.223-0.447,1.826-0.815V106.623z"/>
		<g>
			
				<ellipse transform="matrix(-0.9999 -0.0138 0.0138 -0.9999 302.1538 134.3781)" fill="#FED093" cx="151.541" cy="66.146" rx="3.323" ry="3.338"/>
		</g>
		<g>
			
				<ellipse transform="matrix(-0.9999 -0.0138 0.0138 -0.9999 240.0519 133.9482)" fill="#542437" cx="120.488" cy="66.146" rx="3.325" ry="3.338"/>
		</g>
		<g>
			<path fill="#FED093" d="M134.762,89.254c-0.033-0.066,3.922,1.279,15.217-14.602c1.928-2.323,4.281-1.438,4.709,0.04
				c0,3.08,0,32.796,0,32.796h-4.494V81.887c-2.732,3.438-7.014,7.568-12.748,9.362c-0.426,0.345-1.039,0.624-1.744,0.767
				c-0.342,0.066-0.672,0.092-0.979,0.089c-1.002-0.022-1.863-1.432-1.746-1.644C133.254,89.967,133.916,89.512,134.762,89.254z"/>
		</g>
		<g>
			<path fill="#542437" d="M137.473,89.254c0,0-3.924,1.279-15.217-14.602c-1.926-2.323-4.279-1.438-4.709,0.04
				c0,3.08,0,32.796,0,32.796h4.496V81.887c2.734,3.438,7.014,7.568,12.744,9.362c0.43,0.345,1.041,0.624,1.746,0.767
				c0.34,0.066,0.578,0.096,0.98,0.089c0.402-0.01,1.877-0.762,1.746-1.644C139.416,89.244,137.473,89.254,137.473,89.254z"/>
		</g>
		<g>
			<path fill="#FED093" d="M135.502,91.866c-0.346,0.44-1.203,0.348-1.914-0.213c-0.715-0.559-1.016-1.372-0.67-1.816
				c0.172-0.222,0.473-0.308,0.818-0.269s1.635,1.016,1.771,1.3C135.684,91.243,135.697,91.614,135.502,91.866z"/>
		</g>
	</g>
	<g>
		<g>
			<path fill="#A7A9AC" d="M27.768,130.559c0.811,0.502,1.997,0.92,3.245,0.92c1.851,0,2.932-0.982,2.932-2.404
				c0-1.316-0.749-2.069-2.641-2.801c-2.288-0.815-3.702-2.007-3.702-3.993c0-2.195,1.81-3.825,4.534-3.825
				c1.435,0,2.475,0.334,3.099,0.689l-0.499,1.484c-0.458-0.251-1.394-0.669-2.662-0.669c-1.914,0-2.642,1.149-2.642,2.111
				c0,1.317,0.853,1.965,2.787,2.718c2.371,0.92,3.577,2.069,3.577,4.139c0,2.174-1.602,4.056-4.908,4.056
				c-1.352,0-2.829-0.397-3.577-0.898L27.768,130.559z"/>
			<path fill="#A7A9AC" d="M40.25,119.813c0.021,0.627-0.437,1.129-1.165,1.129c-0.645,0-1.102-0.502-1.102-1.129
				c0-0.647,0.478-1.149,1.144-1.149C39.813,118.664,40.25,119.166,40.25,119.813z M38.211,132.774v-10.118h1.831v10.118H38.211z"/>
			<path fill="#A7A9AC" d="M45.284,119.751v2.905h2.621v1.401h-2.621v5.456c0,1.254,0.354,1.965,1.373,1.965
				c0.479,0,0.832-0.063,1.061-0.126l0.083,1.38c-0.354,0.146-0.915,0.251-1.622,0.251c-0.853,0-1.539-0.271-1.976-0.773
				c-0.52-0.544-0.707-1.442-0.707-2.634v-5.519h-1.56v-1.401h1.56v-2.425L45.284,119.751z"/>
			<path fill="#A7A9AC" d="M50.859,128.05c0.042,2.488,1.623,3.512,3.453,3.512c1.31,0,2.101-0.229,2.787-0.522l0.312,1.317
				c-0.645,0.293-1.747,0.627-3.348,0.627c-3.099,0-4.95-2.049-4.95-5.101s1.789-5.456,4.721-5.456c3.286,0,4.16,2.905,4.16,4.767
				c0,0.376-0.042,0.669-0.063,0.856H50.859z M56.226,126.733c0.021-1.171-0.479-2.989-2.538-2.989
				c-1.851,0-2.662,1.714-2.808,2.989H56.226z"/>
			<path fill="#A7A9AC" d="M74.532,132.314c-0.666,0.335-1.997,0.669-3.702,0.669c-3.952,0-6.926-2.509-6.926-7.128
				c0-4.411,2.974-7.4,7.321-7.4c1.747,0,2.85,0.376,3.328,0.627l-0.437,1.484c-0.687-0.335-1.664-0.586-2.829-0.586
				c-3.286,0-5.47,2.111-5.47,5.812c0,3.449,1.976,5.665,5.387,5.665c1.102,0,2.225-0.229,2.953-0.585L74.532,132.314z"/>
			<path fill="#A7A9AC" d="M76.677,125.813c0-1.191-0.021-2.216-0.083-3.157h1.602l0.062,1.986h0.083
				c0.458-1.358,1.56-2.216,2.787-2.216c0.208,0,0.354,0.021,0.52,0.063v1.735c-0.187-0.042-0.374-0.063-0.624-0.063
				c-1.289,0-2.204,0.982-2.454,2.362c-0.042,0.25-0.083,0.543-0.083,0.856v5.394h-1.81V125.813z"/>
			<path fill="#A7A9AC" d="M84.292,128.05c0.042,2.488,1.623,3.512,3.453,3.512c1.31,0,2.101-0.229,2.787-0.522l0.312,1.317
				c-0.645,0.293-1.747,0.627-3.348,0.627c-3.099,0-4.95-2.049-4.95-5.101s1.789-5.456,4.721-5.456c3.286,0,4.16,2.905,4.16,4.767
				c0,0.376-0.042,0.669-0.063,0.856H84.292z M89.658,126.733c0.021-1.171-0.479-2.989-2.538-2.989
				c-1.851,0-2.662,1.714-2.808,2.989H89.658z"/>
			<path fill="#A7A9AC" d="M99.269,132.774l-0.146-1.275h-0.062c-0.562,0.795-1.643,1.505-3.078,1.505
				c-2.039,0-3.078-1.442-3.078-2.905c0-2.446,2.163-3.784,6.052-3.763v-0.209c0-0.836-0.229-2.342-2.288-2.342
				c-0.936,0-1.913,0.293-2.621,0.753l-0.416-1.213c0.832-0.543,2.038-0.898,3.307-0.898c3.078,0,3.827,2.111,3.827,4.139v3.784
				c0,0.878,0.042,1.735,0.167,2.425H99.269z M98.999,127.611c-1.997-0.042-4.264,0.313-4.264,2.278
				c0,1.191,0.791,1.756,1.726,1.756c1.311,0,2.142-0.836,2.434-1.693c0.063-0.188,0.104-0.397,0.104-0.585V127.611z"/>
			<path fill="#A7A9AC" d="M105.844,119.751v2.905h2.621v1.401h-2.621v5.456c0,1.254,0.354,1.965,1.373,1.965
				c0.479,0,0.832-0.063,1.061-0.126l0.083,1.38c-0.354,0.146-0.915,0.251-1.622,0.251c-0.853,0-1.539-0.271-1.976-0.773
				c-0.52-0.544-0.707-1.442-0.707-2.634v-5.519h-1.56v-1.401h1.56v-2.425L105.844,119.751z"/>
			<path fill="#A7A9AC" d="M119.51,127.632c0,3.742-2.578,5.372-5.012,5.372c-2.725,0-4.825-2.007-4.825-5.205
				c0-3.387,2.204-5.372,4.991-5.372C117.555,122.427,119.51,124.538,119.51,127.632z M111.523,127.736
				c0,2.216,1.27,3.889,3.059,3.889c1.746,0,3.057-1.651,3.057-3.931c0-1.714-0.854-3.888-3.016-3.888
				S111.523,125.813,111.523,127.736z"/>
			<path fill="#A7A9AC" d="M121.822,125.813c0-1.191-0.021-2.216-0.084-3.157h1.602l0.063,1.986h0.084
				c0.457-1.358,1.561-2.216,2.787-2.216c0.207,0,0.354,0.021,0.52,0.063v1.735c-0.188-0.042-0.375-0.063-0.623-0.063
				c-1.291,0-2.205,0.982-2.455,2.362c-0.041,0.25-0.084,0.543-0.084,0.856v5.394h-1.809V125.813z"/>
			<path fill="#A7A9AC" d="M134.908,120.231h-4.264v-1.547h10.377v1.547h-4.283v12.543h-1.83V120.231z"/>
			<path fill="#A7A9AC" d="M150.154,127.632c0,3.742-2.578,5.372-5.012,5.372c-2.725,0-4.826-2.007-4.826-5.205
				c0-3.387,2.205-5.372,4.992-5.372C148.199,122.427,150.154,124.538,150.154,127.632z M142.168,127.736
				c0,2.216,1.27,3.889,3.057,3.889c1.748,0,3.059-1.651,3.059-3.931c0-1.714-0.854-3.888-3.016-3.888
				C143.104,123.807,142.168,125.813,142.168,127.736z"/>
			<path fill="#A7A9AC" d="M161.576,127.632c0,3.742-2.578,5.372-5.012,5.372c-2.725,0-4.826-2.007-4.826-5.205
				c0-3.387,2.205-5.372,4.992-5.372C159.621,122.427,161.576,124.538,161.576,127.632z M153.59,127.736
				c0,2.216,1.27,3.889,3.057,3.889c1.748,0,3.059-1.651,3.059-3.931c0-1.714-0.854-3.888-3.016-3.888
				C154.525,123.807,153.59,125.813,153.59,127.736z"/>
			<path fill="#A7A9AC" d="M163.889,117.933h1.83v14.842h-1.83V117.933z"/>
		</g>
		<g>
			<ellipse fill="#0992A3" cx="11.139" cy="126.89" rx="1.968" ry="1.976"/>
			<ellipse fill="#542437" cx="16.06" cy="126.89" rx="1.968" ry="1.976"/>
			<ellipse fill="#0992A3" cx="20.981" cy="126.89" rx="1.968" ry="1.976"/>
		</g>
		<g>
			<ellipse fill="#0992A3" cx="197.02" cy="126.89" rx="1.969" ry="1.976"/>
			<ellipse fill="#542437" cx="201.94" cy="126.89" rx="1.968" ry="1.976"/>
			<ellipse fill="#0992A3" cx="206.861" cy="126.89" rx="1.969" ry="1.976"/>
		</g>
	</g>
</g>
</svg>
