<?xml version="1.0" encoding="utf-8"?>
<!-- Generator: Adobe Illustrator 16.0.0, SVG Export Plug-In . SVG Version: 6.00 Build 0)  -->
<!DOCTYPE svg PUBLIC "-//W3C//DTD SVG 1.1//EN" "http://www.w3.org/Graphics/SVG/1.1/DTD/svg11.dtd">
<svg version="1.1" id="Layer_1" xmlns="http://www.w3.org/2000/svg" xmlns:xlink="http://www.w3.org/1999/xlink" x="0px" y="0px"
	 width="112.5px" height="45.375px" viewBox="0 0 112.5 45.375" enable-background="new 0 0 112.5 45.375" xml:space="preserve">
<g>
	<g>
		<g>
			<g>
				<path fill="#414042" d="M35.539,22.777l-7.705,16.385c-0.445,0.932-1.418,1.504-2.436,1.504s-1.99-0.572-2.414-1.504
					l-7.727-16.385c-0.551-1.164-0.699-2.498-0.699-3.789c0-5.992,4.848-10.84,10.84-10.84c5.99,0,10.84,4.848,10.84,10.84
					C36.238,20.279,36.089,21.613,35.539,22.777z M25.398,13.568c-2.984,0-5.42,2.434-5.42,5.42c0,2.984,2.436,5.42,5.42,5.42
					s5.42-2.436,5.42-5.42C30.818,16.002,28.382,13.568,25.398,13.568z"/>
			</g>
		</g>
		<g>
			<g>
				<path fill="#A7A9AC" d="M69.32,31.135c-0.088,0.105-0.229,0.176-0.371,0.193c-0.018,0-0.035,0-0.053,0
					c-0.141,0-0.266-0.035-0.371-0.123L56.287,21L44.048,31.205c-0.123,0.088-0.266,0.141-0.424,0.123
					c-0.141-0.018-0.283-0.088-0.371-0.193l-1.098-1.311c-0.193-0.229-0.158-0.6,0.072-0.795l12.715-10.594
					c0.742-0.619,1.945-0.619,2.688,0l4.316,3.607v-3.447c0-0.318,0.246-0.566,0.566-0.566h3.395c0.318,0,0.566,0.248,0.566,0.566
					v7.215l3.873,3.219c0.229,0.195,0.264,0.566,0.07,0.795L69.32,31.135z M66.474,39.535c0,0.617-0.514,1.131-1.133,1.131H58.55
					v-6.791h-4.527v6.791h-6.791c-0.619,0-1.131-0.514-1.131-1.131v-8.49c0-0.035,0.018-0.07,0.018-0.105l10.168-8.383l10.17,8.383
					c0.018,0.035,0.018,0.07,0.018,0.105V39.535z"/>
			</g>
			<g>
				<path fill="#6D6E71" d="M89.794,31.135c-0.09,0.105-0.23,0.176-0.373,0.193c-0.018,0-0.035,0-0.053,0
					c-0.141,0-0.264-0.035-0.371-0.123L76.759,21L64.521,31.205c-0.123,0.088-0.264,0.141-0.424,0.123
					c-0.141-0.018-0.283-0.088-0.371-0.193l-1.096-1.311c-0.195-0.229-0.16-0.6,0.07-0.795l12.715-10.594
					c0.742-0.619,1.945-0.619,2.688,0l4.316,3.607v-3.447c0-0.318,0.246-0.566,0.566-0.566h3.395c0.318,0,0.566,0.248,0.566,0.566
					v7.215l3.873,3.219c0.23,0.195,0.266,0.566,0.07,0.795L89.794,31.135z M86.947,39.535c0,0.617-0.514,1.131-1.133,1.131h-6.791
					v-6.791h-4.527v6.791h-6.791c-0.619,0-1.131-0.514-1.131-1.131v-8.49c0-0.035,0.018-0.07,0.018-0.105l10.168-8.383l10.17,8.383
					c0.018,0.035,0.018,0.07,0.018,0.105V39.535z"/>
			</g>
			<g>
				<path fill="#0992A3" d="M54.046,34.445c-0.059,0.07-0.15,0.115-0.242,0.127c-0.012,0-0.023,0-0.035,0
					c-0.092,0-0.174-0.023-0.242-0.08l-7.986-6.66l-7.986,6.66c-0.08,0.057-0.174,0.092-0.277,0.08
					c-0.092-0.012-0.184-0.057-0.242-0.127l-0.715-0.854c-0.127-0.15-0.105-0.393,0.047-0.52l8.297-6.912
					c0.484-0.404,1.27-0.404,1.754,0l2.816,2.354v-2.25c0-0.209,0.16-0.369,0.369-0.369h2.217c0.207,0,0.367,0.16,0.367,0.369v4.709
					l2.527,2.1c0.15,0.127,0.174,0.369,0.047,0.52L54.046,34.445z M52.187,39.928c0,0.404-0.334,0.738-0.738,0.738h-4.432v-4.432
					h-2.953v4.432h-4.432c-0.404,0-0.74-0.334-0.74-0.738v-5.539c0-0.023,0.012-0.047,0.012-0.07l6.637-5.471l6.637,5.471
					c0.01,0.023,0.01,0.047,0.01,0.07V39.928z"/>
			</g>
			<g>
				<g>
					<path fill="#D1D3D4" d="M75.826,33.385c-0.068,0.082-0.176,0.135-0.283,0.148c-0.014,0-0.027,0-0.041,0
						c-0.107,0-0.203-0.025-0.283-0.094l-9.348-7.795l-9.348,7.795c-0.096,0.068-0.203,0.107-0.324,0.094
						c-0.107-0.014-0.217-0.066-0.285-0.148l-0.836-1c-0.148-0.176-0.121-0.459,0.055-0.607l9.711-8.09
						c0.568-0.473,1.486-0.473,2.053,0l3.297,2.754v-2.633c0-0.244,0.189-0.434,0.432-0.434h2.594c0.244,0,0.434,0.189,0.434,0.434
						v5.512l2.957,2.457c0.176,0.148,0.203,0.432,0.055,0.607L75.826,33.385z M73.652,39.801c0,0.473-0.393,0.865-0.865,0.865
						h-5.188v-5.188h-3.457v5.188h-5.188c-0.475,0-0.865-0.393-0.865-0.865v-6.482c0-0.027,0.014-0.055,0.014-0.082l7.768-6.402
						l7.766,6.402c0.016,0.027,0.016,0.055,0.016,0.082V39.801z"/>
				</g>
			</g>
		</g>
		
			<rect x="1.958" y="2.055" fill="none" stroke="#414042" stroke-width="4" stroke-miterlimit="10" width="108.655" height="41.371"/>
	</g>
</g>
</svg>
