<?xml version="1.0" encoding="utf-8"?>
<!-- Generator: Adobe Illustrator 16.0.0, SVG Export Plug-In . SVG Version: 6.00 Build 0)  -->
<!DOCTYPE svg PUBLIC "-//W3C//DTD SVG 1.1//EN" "http://www.w3.org/Graphics/SVG/1.1/DTD/svg11.dtd">
<svg version="1.1" id="Layer_1" xmlns="http://www.w3.org/2000/svg" xmlns:xlink="http://www.w3.org/1999/xlink" x="0px" y="0px"
	 width="25px" height="20px" viewBox="0 0 25 20" enable-background="new 0 0 25 20" xml:space="preserve">
<g>
	<path fill="#414042" d="M25,17.917C25,19.062,24.063,20,22.916,20H2.084C0.937,20,0,19.062,0,17.917V2.083C0,0.938,0.937,0,2.084,0
		h20.832C24.063,0,25,0.938,25,2.083V17.917z M2.084,1.667c-0.224,0-0.417,0.196-0.417,0.417v15.834
		c0,0.221,0.193,0.416,0.417,0.416h20.832c0.224,0,0.418-0.195,0.418-0.416V2.083c0-0.221-0.194-0.417-0.418-0.417H2.084z
		 M5.832,8.333c-1.379,0-2.5-1.12-2.5-2.501c0-1.379,1.121-2.5,2.5-2.5c1.381,0,2.501,1.12,2.501,2.5
		C8.333,7.213,7.213,8.333,5.832,8.333z M21.667,16.667H3.333v-2.501L7.5,10l2.083,2.083l6.667-6.667l5.417,5.418V16.667z"/>
</g>
<g>
	<circle fill="none" stroke="#414042" stroke-width="2.5" stroke-miterlimit="10" cx="97.383" cy="-29.031" r="10.374"/>
	<g>
		<circle fill="#1A1A1A" cx="92.041" cy="-32.369" r="2.003"/>
		<polygon fill="#1A1A1A" points="95.046,-27.361 93.376,-29.031 90.039,-25.691 90.039,-23.687 104.73,-23.687 104.73,-28.362 
			100.388,-32.703 		"/>
	</g>
</g>
</svg>
