<?xml version="1.0" encoding="utf-8"?>
<!-- Generator: Adobe Illustrator 16.0.0, SVG Export Plug-In . SVG Version: 6.00 Build 0)  -->
<!DOCTYPE svg PUBLIC "-//W3C//DTD SVG 1.1//EN" "http://www.w3.org/Graphics/SVG/1.1/DTD/svg11.dtd">
<svg version="1.1" id="Layer_1" xmlns="http://www.w3.org/2000/svg" xmlns:xlink="http://www.w3.org/1999/xlink" x="0px" y="0px"
	 width="117.183px" height="89.959px" viewBox="0 0 117.183 89.959" enable-background="new 0 0 117.183 89.959"
	 xml:space="preserve">
<g>
	<path fill="#808285" d="M41.591,60.23c8.319,0,15.839-3.367,21.293-8.819c0.111-0.111,0.213-0.225,0.317-0.336
		c1.315-1.354,2.506-2.835,3.548-4.409c0.008-0.013,0.013-0.021,0.013-0.021c0.251-0.389,0.501-0.786,0.743-1.178
		c0,0,0.014-0.04,0.026-0.056c0.231-0.391,0.452-0.783,0.665-1.18c0.017-0.037,0.031-0.072,0.048-0.102
		c0.208-0.387,0.404-0.776,0.593-1.176c0.018-0.046,0.041-0.099,0.07-0.157c0.174-0.377,0.344-0.762,0.508-1.146
		c0.031-0.073,0.056-0.153,0.088-0.226c0.151-0.366,0.297-0.737,0.432-1.115c0.029-0.102,0.066-0.203,0.098-0.3
		c0.127-0.354,0.246-0.711,0.36-1.074c0.04-0.121,0.069-0.256,0.108-0.385c0.097-0.336,0.195-0.67,0.281-1.011
		c0.043-0.164,0.072-0.324,0.111-0.488c0.072-0.313,0.146-0.63,0.215-0.95c0.039-0.189,0.07-0.395,0.106-0.594
		c0.056-0.287,0.104-0.573,0.151-0.866c0.032-0.236,0.062-0.476,0.093-0.725c0.031-0.257,0.073-0.501,0.095-0.757
		c0.033-0.3,0.045-0.605,0.07-0.907c0.012-0.199,0.035-0.404,0.043-0.607c0.026-0.501,0.041-1.021,0.041-1.536
		c-0.005-8.318-3.369-15.834-8.824-21.293C57.431,3.367,49.911,0,41.591,0c-8.332,0-15.84,3.367-21.299,8.818
		c-5.454,5.459-8.819,12.975-8.819,21.293c0,8.333,3.365,15.846,8.819,21.3C25.751,56.863,33.259,60.23,41.591,60.23z M67.74,54.159
		c-6.49,7.053-15.805,11.481-26.148,11.481c-10.125,0-19.25-4.24-25.72-11.034C6.197,62.414,0,74.441,0,87.933
		c0,0.677,0.018,1.362,0.049,2.026h84.095c0.033-0.664,0.051-1.35,0.051-2.026C84.195,74.175,77.741,61.942,67.74,54.159z"/>
	<g>
		<path fill="#808285" d="M103.138,50.664c-3.536,1.289-7.469,1.669-11.428,0.899l0,0c-1.324-0.264-2.582-0.648-3.765-1.122l0,0
			c-0.324,0.133-0.642,0.262-0.958,0.377l0,0c-7.544,2.74-13.661,0.229-13.925,0.126l0,0c-0.897-0.37-1.471-1.253-1.438-2.223l0,0
			c0.031-0.965,0.664-1.819,1.586-2.123l0,0c0,0,0.018-0.013,0.104-0.039l0,0c0.352-0.121,1.665-0.663,2.775-1.554l0,0
			c0.926-0.744,1.637-1.601,1.908-2.632l0,0c-0.926-1.4-1.688-2.912-2.271-4.498l0,0c-1.289-3.515-1.672-7.442-0.897-11.393l0,0
			c1.485-7.61,6.853-13.492,13.642-15.976l0,0c3.531-1.297,7.473-1.677,11.425-0.903l0,0l-0.442,2.284l-0.443,2.273
			c-3.115-0.609-6.172-0.314-8.945,0.701l0,0c-5.323,1.954-9.518,6.545-10.678,12.51l0,0c-0.607,3.105-0.308,6.142,0.699,8.901l0,0
			c0.541,1.493,1.293,2.888,2.225,4.158l0,0c0.324,0.44,0.477,0.975,0.44,1.519l0,0c-0.153,2.342-1.224,4.158-2.462,5.488l0,0
			c1.528-0.046,3.265-0.307,5.101-0.981l0,0c0.496-0.177,1.001-0.396,1.526-0.639l0,0c0.614-0.305,1.335-0.312,1.964-0.027l0,0
			c1.185,0.544,2.422,0.958,3.72,1.21l0,0c3.106,0.609,6.174,0.31,8.936-0.699l0,0c5.326-1.954,9.521-6.545,10.687-12.52l0,0
			c0.604-3.104,0.317-6.168-0.702-8.94l0,0c-1.951-5.326-6.55-9.513-12.51-10.681l0,0l0.443-2.273l0.442-2.284
			c7.616,1.49,13.497,6.851,15.985,13.645l0,0c1.297,3.531,1.679,7.467,0.902,11.432l0,0c-1.494,7.612-6.854,13.492-13.637,15.974
			l0,0C103.146,50.664,103.138,50.664,103.138,50.664L103.138,50.664z"/>
	</g>
	<g>
		<path fill="#808285" d="M88.195,20.811l6.265-2.292l1.764,4.806l2.331,10.105l-3.872,1.416l-4.724-9.227L88.195,20.811z
			 M94.251,36.676l5.852-2.143l1.889,5.166l-5.849,2.148L94.251,36.676z"/>
	</g>
</g>
</svg>
