<?xml version="1.0" encoding="utf-8"?>
<!-- Generator: Adobe Illustrator 16.0.0, SVG Export Plug-In . SVG Version: 6.00 Build 0)  -->
<!DOCTYPE svg PUBLIC "-//W3C//DTD SVG 1.1//EN" "http://www.w3.org/Graphics/SVG/1.1/DTD/svg11.dtd">
<svg version="1.1" id="Layer_1" xmlns="http://www.w3.org/2000/svg" xmlns:xlink="http://www.w3.org/1999/xlink" x="0px" y="0px"
	 width="122px" height="122px" viewBox="0 0 122 122" enable-background="new 0 0 122 122" xml:space="preserve">
<circle fill="#F1F2F2" cx="61" cy="61.001" r="61"/>
<path fill="#414042" d="M50.132,72.084c5.318,0,10.126-2.151,13.613-5.637c0.072-0.072,0.137-0.145,0.203-0.217
	c0.842-0.865,1.603-1.813,2.269-2.818c0.004-0.008,0.008-0.012,0.008-0.012c0.16-0.249,0.32-0.503,0.474-0.754
	c0,0,0.01-0.025,0.018-0.035c0.148-0.25,0.289-0.501,0.425-0.755c0.012-0.023,0.02-0.046,0.031-0.064
	c0.133-0.248,0.259-0.497,0.379-0.752c0.012-0.029,0.027-0.063,0.044-0.1c0.112-0.242,0.221-0.487,0.326-0.733
	c0.02-0.047,0.035-0.097,0.056-0.144c0.098-0.234,0.189-0.472,0.276-0.713c0.019-0.064,0.042-0.129,0.062-0.191
	c0.082-0.227,0.158-0.455,0.23-0.688c0.026-0.076,0.044-0.162,0.069-0.244c0.063-0.216,0.125-0.429,0.18-0.647
	c0.027-0.105,0.047-0.207,0.071-0.314c0.046-0.199,0.095-0.399,0.138-0.606c0.025-0.121,0.045-0.253,0.067-0.38
	c0.035-0.183,0.066-0.366,0.098-0.551c0.02-0.152,0.039-0.306,0.059-0.466c0.021-0.164,0.047-0.32,0.061-0.484
	c0.021-0.191,0.029-0.386,0.045-0.581c0.008-0.127,0.024-0.257,0.028-0.388c0.017-0.319,0.026-0.651,0.026-0.98
	c-0.004-5.319-2.154-10.122-5.642-13.613c-3.487-3.485-8.294-5.637-13.613-5.637c-5.327,0-10.126,2.152-13.617,5.637
	c-3.486,3.491-5.638,8.294-5.638,13.613c0,5.328,2.152,10.13,5.638,13.618C40.006,69.933,44.806,72.084,50.132,72.084z
	 M66.849,68.203c-4.147,4.509-10.104,7.341-16.716,7.341c-6.473,0-12.307-2.711-16.444-7.054
	c-6.184,4.989-10.146,12.68-10.146,21.305c0,0.433,0.011,0.869,0.031,1.296h53.762c0.021-0.427,0.032-0.863,0.032-1.296
	C77.368,80.998,73.244,73.18,66.849,68.203z"/>
<g>
	<path fill="#414042" d="M89.481,65.97c-2.263,0.824-4.777,1.066-7.308,0.575l0,0c-0.847-0.17-1.649-0.416-2.406-0.72l0,0
		c-0.208,0.086-0.411,0.168-0.613,0.244l0,0c-4.822,1.75-8.732,0.144-8.902,0.077l0,0c-0.573-0.235-0.939-0.801-0.92-1.421l0,0
		c0.021-0.615,0.425-1.161,1.015-1.356l0,0c0,0,0.012-0.008,0.067-0.025l0,0c0.224-0.078,1.063-0.423,1.773-0.992l0,0
		c0.592-0.476,1.047-1.023,1.22-1.682l0,0c-0.592-0.895-1.079-1.861-1.451-2.875l0,0c-0.825-2.25-1.069-4.76-0.575-7.284l0,0
		c0.95-4.865,4.382-8.625,8.722-10.214l0,0c2.258-0.829,4.776-1.072,7.303-0.577l0,0l-0.283,1.46l-0.282,1.454
		c-1.992-0.39-3.945-0.201-5.717,0.448l0,0c-3.405,1.25-6.086,4.185-6.828,7.998l0,0c-0.388,1.984-0.197,3.926,0.446,5.689l0,0
		c0.347,0.953,0.828,1.848,1.423,2.659l0,0c0.207,0.281,0.304,0.624,0.281,0.971l0,0c-0.097,1.497-0.782,2.659-1.573,3.509l0,0
		c0.977-0.029,2.087-0.197,3.261-0.628l0,0c0.316-0.112,0.64-0.253,0.976-0.409l0,0c0.393-0.194,0.853-0.198,1.256-0.016l0,0
		c0.759,0.347,1.548,0.612,2.378,0.772l0,0c1.984,0.39,3.945,0.198,5.712-0.446l0,0c3.405-1.25,6.087-4.184,6.832-8.004l0,0
		c0.387-1.984,0.203-3.943-0.448-5.715l0,0c-1.248-3.405-4.188-6.082-7.998-6.828l0,0l0.282-1.454l0.283-1.46
		c4.871,0.953,8.629,4.38,10.22,8.723l0,0c0.83,2.259,1.074,4.774,0.577,7.31l0,0c-0.954,4.865-4.382,8.623-8.717,10.212l0,0
		C89.485,65.97,89.481,65.97,89.481,65.97L89.481,65.97z"/>
</g>
<g>
	<path fill="#414042" d="M79.927,46.883l4.005-1.466l1.127,3.074l1.491,6.46l-2.476,0.906l-3.021-5.898L79.927,46.883z
		 M83.799,57.026l3.741-1.37l1.207,3.304l-3.739,1.373L83.799,57.026z"/>
</g>
</svg>
