<?xml version="1.0" encoding="utf-8"?>
<!-- Generator: Adobe Illustrator 16.0.0, SVG Export Plug-In . SVG Version: 6.00 Build 0)  -->
<!DOCTYPE svg PUBLIC "-//W3C//DTD SVG 1.1//EN" "http://www.w3.org/Graphics/SVG/1.1/DTD/svg11.dtd">
<svg version="1.1" id="Layer_1" xmlns="http://www.w3.org/2000/svg" xmlns:xlink="http://www.w3.org/1999/xlink" x="0px" y="0px"
	 width="112.833px" height="45.5px" viewBox="0 0 112.833 45.5" enable-background="new 0 0 112.833 45.5" xml:space="preserve">
<g>
	<g>
		<path fill="#A7A9AC" d="M35.939,15.21H28.25v22.014h-6.09V15.21h-7.651v-4.944h21.431V15.21z"/>
	</g>
	<g>
		
			<rect x="2.209" y="2.104" fill="none" stroke="#414042" stroke-width="4" stroke-miterlimit="10" width="108.654" height="41.37"/>
	</g>
	<g>
		<path fill="#0992A3" d="M105.048,36.06c0,0.637-1.131,1.164-2.498,1.164H37.602c-1.366,0-2.498-0.527-2.498-1.164v-2.328
			c0-0.637,1.132-1.164,2.498-1.164h64.949c1.367,0,2.498,0.527,2.498,1.164V36.06z M105.048,22.091
			c0,0.637-1.131,1.164-2.498,1.164H42.598c-1.366,0-2.498-0.527-2.498-1.164v-2.328c0-0.637,1.132-1.164,2.498-1.164h59.953
			c1.367,0,2.498,0.527,2.498,1.164V22.091z M105.048,29.075c0,0.637-1.131,1.164-2.498,1.164H52.59
			c-1.366,0-2.498-0.527-2.498-1.164v-2.328c0-0.637,1.132-1.164,2.498-1.164h49.96c1.367,0,2.498,0.527,2.498,1.164V29.075z
			 M105.048,15.106c0,0.637-1.131,1.164-2.498,1.164H57.586c-1.366,0-2.498-0.527-2.498-1.164v-2.328
			c0-0.637,1.132-1.164,2.498-1.164h44.964c1.367,0,2.498,0.527,2.498,1.164V15.106z"/>
	</g>
</g>
</svg>
