<?xml version="1.0" encoding="utf-8"?>
<!-- Generator: Adobe Illustrator 16.0.0, SVG Export Plug-In . SVG Version: 6.00 Build 0)  -->
<!DOCTYPE svg PUBLIC "-//W3C//DTD SVG 1.1//EN" "http://www.w3.org/Graphics/SVG/1.1/DTD/svg11.dtd">
<svg version="1.1" id="Layer_1" xmlns="http://www.w3.org/2000/svg" xmlns:xlink="http://www.w3.org/1999/xlink" x="0px" y="0px"
	 width="67.625px" height="47.661px" viewBox="0 0 67.625 47.661" enable-background="new 0 0 67.625 47.661" xml:space="preserve">
<g>
	<path fill="#414042" d="M67.625,41.431c0,3.441-2.79,6.23-6.231,6.23H6.23c-3.441,0-6.23-2.789-6.23-6.23V6.23
		C0,2.789,2.789,0,6.23,0h55.163c3.441,0,6.231,2.789,6.231,6.23V41.431z"/>
	<g>
		<g>
			<path fill="#F1F2F2" d="M18.064,34.642c0,2.412-1.124,3.619-3.372,3.619c-2.181,0-3.271-1.18-3.271-3.535v-4.637h1.815v4.66
				c0,1.299,0.508,1.947,1.523,1.947c0.997,0,1.496-0.627,1.496-1.881v-4.727h1.809V34.642z"/>
			<path fill="#F1F2F2" d="M21.621,35.353v2.768h-1.809v-8.031h2.834c2.024,0,3.036,0.852,3.036,2.559
				c0,0.807-0.291,1.459-0.871,1.957c-0.581,0.5-1.356,0.748-2.327,0.748H21.621z M21.621,31.478v2.504h0.711
				c0.963,0,1.445-0.422,1.445-1.266c0-0.826-0.482-1.238-1.445-1.238H21.621z"/>
			<path fill="#F1F2F2" d="M31.641,38.121h-4.783v-8.031h1.809v6.564h2.974V38.121z"/>
			<path fill="#F1F2F2" d="M36.116,38.261c-1.15,0-2.087-0.375-2.812-1.123c-0.725-0.75-1.087-1.725-1.087-2.928
				c0-1.27,0.368-2.297,1.104-3.08s1.71-1.176,2.923-1.176c1.146,0,2.074,0.375,2.781,1.125c0.708,0.75,1.062,1.74,1.062,2.969
				c0,1.262-0.366,2.279-1.101,3.053C38.253,37.875,37.296,38.261,36.116,38.261z M36.194,31.511c-0.635,0-1.139,0.238-1.513,0.715
				c-0.373,0.475-0.56,1.105-0.56,1.889c0,0.797,0.187,1.426,0.56,1.889c0.374,0.463,0.863,0.693,1.468,0.693
				c0.624,0,1.118-0.225,1.484-0.674s0.549-1.074,0.549-1.873c0-0.834-0.177-1.48-0.532-1.943
				C37.296,31.744,36.811,31.511,36.194,31.511z"/>
			<path fill="#F1F2F2" d="M48.483,38.121h-1.972l-0.571-1.787h-2.856l-0.566,1.787h-1.959l2.923-8.031h2.146L48.483,38.121z
				 M45.525,34.945l-0.861-2.699c-0.064-0.203-0.109-0.443-0.135-0.723h-0.045c-0.02,0.234-0.065,0.469-0.141,0.699l-0.873,2.723
				H45.525z"/>
			<path fill="#F1F2F2" d="M49.486,38.121v-8.031h2.845c2.853,0,4.279,1.305,4.279,3.914c0,1.252-0.39,2.25-1.168,2.996
				c-0.778,0.748-1.815,1.121-3.111,1.121H49.486z M51.295,31.562v5.092h0.896c0.784,0,1.398-0.236,1.846-0.707
				c0.445-0.471,0.669-1.111,0.669-1.92c0-0.766-0.222-1.369-0.663-1.807c-0.443-0.439-1.064-0.658-1.863-0.658H51.295z"/>
		</g>
	</g>
	<g>
		<path fill="#F1F2F2" d="M41.486,19.814c0,0.529-0.429,0.957-0.957,0.957H25.862c-0.528,0-0.957-0.428-0.957-0.957v-3.188
			c0-0.529,0.428-0.957,0.957-0.957h4.633l1.345,1.355c0.368,0.358,0.847,0.558,1.354,0.558c0.509,0,0.986-0.199,1.355-0.558
			l1.355-1.355h4.623c0.528,0,0.957,0.428,0.957,0.957V19.814z M38.107,11.654l-4.463,4.464c-0.12,0.13-0.289,0.189-0.449,0.189
			c-0.158,0-0.328-0.06-0.447-0.189l-4.464-4.464c-0.189-0.18-0.239-0.458-0.14-0.697c0.1-0.229,0.329-0.389,0.588-0.389h2.551
			V6.104c0-0.349,0.289-0.638,0.637-0.638h2.551c0.35,0,0.639,0.289,0.639,0.638v4.464h2.551c0.259,0,0.488,0.16,0.588,0.389
			C38.348,11.196,38.297,11.474,38.107,11.654z M37.021,18.22c-0.348,0-0.637,0.289-0.637,0.638s0.289,0.638,0.637,0.638
			c0.35,0,0.639-0.289,0.639-0.638S37.371,18.22,37.021,18.22z M39.572,18.22c-0.348,0-0.637,0.289-0.637,0.638
			s0.289,0.638,0.637,0.638c0.35,0,0.639-0.289,0.639-0.638S39.922,18.22,39.572,18.22z"/>
	</g>
</g>
</svg>
