<?xml version="1.0" encoding="utf-8"?>
<!-- Generator: Adobe Illustrator 16.0.0, SVG Export Plug-In . SVG Version: 6.00 Build 0)  -->
<!DOCTYPE svg PUBLIC "-//W3C//DTD SVG 1.1//EN" "http://www.w3.org/Graphics/SVG/1.1/DTD/svg11.dtd">
<svg version="1.1" id="Layer_1" xmlns="http://www.w3.org/2000/svg" xmlns:xlink="http://www.w3.org/1999/xlink" x="0px" y="0px"
	 width="1.667px" height="264px" viewBox="0 0 1.667 264" enable-background="new 0 0 1.667 264" xml:space="preserve">
<g>
	<line fill="none" stroke="#E6E7E8" stroke-miterlimit="10" x1="-350.668" y1="-22.832" x2="-350.668" y2="286.833"/>
	<line fill="none" stroke="#E6E7E8" stroke-miterlimit="10" x1="-349.012" y1="-22.832" x2="-349.012" y2="286.833"/>
	<line fill="none" stroke="#E6E7E8" stroke-miterlimit="10" x1="-347.355" y1="-22.832" x2="-347.355" y2="286.833"/>
	<line fill="none" stroke="#E6E7E8" stroke-miterlimit="10" x1="-345.699" y1="-22.832" x2="-345.699" y2="286.833"/>
	<line fill="none" stroke="#E6E7E8" stroke-miterlimit="10" x1="-344.043" y1="-22.832" x2="-344.043" y2="286.833"/>
	<line fill="none" stroke="#E6E7E8" stroke-miterlimit="10" x1="-342.387" y1="-22.832" x2="-342.387" y2="286.833"/>
	<line fill="none" stroke="#E6E7E8" stroke-miterlimit="10" x1="-340.73" y1="-22.832" x2="-340.73" y2="286.833"/>
	<line fill="none" stroke="#E6E7E8" stroke-miterlimit="10" x1="-339.074" y1="-22.832" x2="-339.074" y2="286.833"/>
	<line fill="none" stroke="#E6E7E8" stroke-miterlimit="10" x1="-337.417" y1="-22.832" x2="-337.417" y2="286.833"/>
	<line fill="none" stroke="#E6E7E8" stroke-miterlimit="10" x1="-335.761" y1="-22.832" x2="-335.761" y2="286.833"/>
	<line fill="none" stroke="#E6E7E8" stroke-miterlimit="10" x1="-334.105" y1="-22.832" x2="-334.105" y2="286.833"/>
	<line fill="none" stroke="#E6E7E8" stroke-miterlimit="10" x1="-332.449" y1="-22.832" x2="-332.449" y2="286.833"/>
	<line fill="none" stroke="#E6E7E8" stroke-miterlimit="10" x1="-330.792" y1="-22.832" x2="-330.792" y2="286.833"/>
	<line fill="none" stroke="#E6E7E8" stroke-miterlimit="10" x1="-329.136" y1="-22.832" x2="-329.136" y2="286.833"/>
	<line fill="none" stroke="#E6E7E8" stroke-miterlimit="10" x1="-327.479" y1="-22.832" x2="-327.479" y2="286.833"/>
	<line fill="none" stroke="#E6E7E8" stroke-miterlimit="10" x1="-325.823" y1="-22.832" x2="-325.823" y2="286.833"/>
	<line fill="none" stroke="#E6E7E8" stroke-miterlimit="10" x1="-324.167" y1="-22.832" x2="-324.167" y2="286.833"/>
	<line fill="none" stroke="#E6E7E8" stroke-miterlimit="10" x1="-322.511" y1="-22.832" x2="-322.511" y2="286.833"/>
	<line fill="none" stroke="#E6E7E8" stroke-miterlimit="10" x1="-320.854" y1="-22.832" x2="-320.854" y2="286.833"/>
	<line fill="none" stroke="#E6E7E8" stroke-miterlimit="10" x1="-319.198" y1="-22.832" x2="-319.198" y2="286.833"/>
	<line fill="none" stroke="#E6E7E8" stroke-miterlimit="10" x1="-317.542" y1="-22.832" x2="-317.542" y2="286.833"/>
	<line fill="none" stroke="#E6E7E8" stroke-miterlimit="10" x1="-315.886" y1="-22.832" x2="-315.886" y2="286.833"/>
	<line fill="none" stroke="#E6E7E8" stroke-miterlimit="10" x1="-314.229" y1="-22.832" x2="-314.229" y2="286.833"/>
	<line fill="none" stroke="#E6E7E8" stroke-miterlimit="10" x1="-312.573" y1="-22.832" x2="-312.573" y2="286.833"/>
	<line fill="none" stroke="#E6E7E8" stroke-miterlimit="10" x1="-310.917" y1="-22.832" x2="-310.917" y2="286.833"/>
	<line fill="none" stroke="#E6E7E8" stroke-miterlimit="10" x1="-309.26" y1="-22.832" x2="-309.26" y2="286.833"/>
	<line fill="none" stroke="#E6E7E8" stroke-miterlimit="10" x1="-307.604" y1="-22.832" x2="-307.604" y2="286.833"/>
	<line fill="none" stroke="#E6E7E8" stroke-miterlimit="10" x1="-305.948" y1="-22.832" x2="-305.948" y2="286.833"/>
	<line fill="none" stroke="#E6E7E8" stroke-miterlimit="10" x1="-304.292" y1="-22.832" x2="-304.292" y2="286.833"/>
	<line fill="none" stroke="#E6E7E8" stroke-miterlimit="10" x1="-302.635" y1="-22.832" x2="-302.635" y2="286.833"/>
	<line fill="none" stroke="#E6E7E8" stroke-miterlimit="10" x1="-300.979" y1="-22.832" x2="-300.979" y2="286.833"/>
	<line fill="none" stroke="#E6E7E8" stroke-miterlimit="10" x1="-299.323" y1="-22.832" x2="-299.323" y2="286.833"/>
	<line fill="none" stroke="#E6E7E8" stroke-miterlimit="10" x1="-297.667" y1="-22.832" x2="-297.667" y2="286.833"/>
	<line fill="none" stroke="#E6E7E8" stroke-miterlimit="10" x1="-296.01" y1="-22.832" x2="-296.01" y2="286.833"/>
	<line fill="none" stroke="#E6E7E8" stroke-miterlimit="10" x1="-294.354" y1="-22.832" x2="-294.354" y2="286.833"/>
	<line fill="none" stroke="#E6E7E8" stroke-miterlimit="10" x1="-292.697" y1="-22.832" x2="-292.697" y2="286.833"/>
	<line fill="none" stroke="#E6E7E8" stroke-miterlimit="10" x1="-291.041" y1="-22.832" x2="-291.041" y2="286.833"/>
	<line fill="none" stroke="#E6E7E8" stroke-miterlimit="10" x1="-289.385" y1="-22.832" x2="-289.385" y2="286.833"/>
	<line fill="none" stroke="#E6E7E8" stroke-miterlimit="10" x1="-287.729" y1="-22.832" x2="-287.729" y2="286.833"/>
	<line fill="none" stroke="#E6E7E8" stroke-miterlimit="10" x1="-286.072" y1="-22.832" x2="-286.072" y2="286.833"/>
	<line fill="none" stroke="#E6E7E8" stroke-miterlimit="10" x1="-284.416" y1="-22.832" x2="-284.416" y2="286.833"/>
	<line fill="none" stroke="#E6E7E8" stroke-miterlimit="10" x1="-282.76" y1="-22.832" x2="-282.76" y2="286.833"/>
	<line fill="none" stroke="#E6E7E8" stroke-miterlimit="10" x1="-281.104" y1="-22.832" x2="-281.104" y2="286.833"/>
	<line fill="none" stroke="#E6E7E8" stroke-miterlimit="10" x1="-279.447" y1="-22.832" x2="-279.447" y2="286.833"/>
	<line fill="none" stroke="#E6E7E8" stroke-miterlimit="10" x1="-277.791" y1="-22.832" x2="-277.791" y2="286.833"/>
	<line fill="none" stroke="#E6E7E8" stroke-miterlimit="10" x1="-276.134" y1="-22.832" x2="-276.134" y2="286.833"/>
	<line fill="none" stroke="#E6E7E8" stroke-miterlimit="10" x1="-274.478" y1="-22.832" x2="-274.478" y2="286.833"/>
	<line fill="none" stroke="#E6E7E8" stroke-miterlimit="10" x1="-272.822" y1="-22.832" x2="-272.822" y2="286.833"/>
	<line fill="none" stroke="#E6E7E8" stroke-miterlimit="10" x1="-271.166" y1="-22.832" x2="-271.166" y2="286.833"/>
	<line fill="none" stroke="#E6E7E8" stroke-miterlimit="10" x1="-269.51" y1="-22.832" x2="-269.51" y2="286.833"/>
	<line fill="none" stroke="#E6E7E8" stroke-miterlimit="10" x1="-267.854" y1="-22.832" x2="-267.854" y2="286.833"/>
	<line fill="none" stroke="#E6E7E8" stroke-miterlimit="10" x1="-266.197" y1="-22.832" x2="-266.197" y2="286.833"/>
	<line fill="none" stroke="#E6E7E8" stroke-miterlimit="10" x1="-264.541" y1="-22.832" x2="-264.541" y2="286.833"/>
	<line fill="none" stroke="#E6E7E8" stroke-miterlimit="10" x1="-262.884" y1="-22.832" x2="-262.884" y2="286.833"/>
	<line fill="none" stroke="#E6E7E8" stroke-miterlimit="10" x1="-261.228" y1="-22.832" x2="-261.228" y2="286.833"/>
	<line fill="none" stroke="#E6E7E8" stroke-miterlimit="10" x1="-259.571" y1="-22.832" x2="-259.571" y2="286.833"/>
	<line fill="none" stroke="#E6E7E8" stroke-miterlimit="10" x1="-257.915" y1="-22.832" x2="-257.915" y2="286.833"/>
	<line fill="none" stroke="#E6E7E8" stroke-miterlimit="10" x1="-256.259" y1="-22.832" x2="-256.259" y2="286.833"/>
	<line fill="none" stroke="#E6E7E8" stroke-miterlimit="10" x1="-254.603" y1="-22.832" x2="-254.603" y2="286.833"/>
	<line fill="none" stroke="#E6E7E8" stroke-miterlimit="10" x1="-252.946" y1="-22.832" x2="-252.946" y2="286.833"/>
	<line fill="none" stroke="#E6E7E8" stroke-miterlimit="10" x1="-251.29" y1="-22.832" x2="-251.29" y2="286.833"/>
	<line fill="none" stroke="#E6E7E8" stroke-miterlimit="10" x1="-249.634" y1="-22.832" x2="-249.634" y2="286.833"/>
	<line fill="none" stroke="#E6E7E8" stroke-miterlimit="10" x1="-247.978" y1="-22.832" x2="-247.978" y2="286.833"/>
	<line fill="none" stroke="#E6E7E8" stroke-miterlimit="10" x1="-246.32" y1="-22.832" x2="-246.32" y2="286.833"/>
	<line fill="none" stroke="#E6E7E8" stroke-miterlimit="10" x1="-244.664" y1="-22.832" x2="-244.664" y2="286.833"/>
	<line fill="none" stroke="#E6E7E8" stroke-miterlimit="10" x1="-243.008" y1="-22.832" x2="-243.008" y2="286.833"/>
	<line fill="none" stroke="#E6E7E8" stroke-miterlimit="10" x1="-241.352" y1="-22.832" x2="-241.352" y2="286.833"/>
	<line fill="none" stroke="#E6E7E8" stroke-miterlimit="10" x1="-239.695" y1="-22.832" x2="-239.695" y2="286.833"/>
	<line fill="none" stroke="#E6E7E8" stroke-miterlimit="10" x1="-238.039" y1="-22.832" x2="-238.039" y2="286.833"/>
	<line fill="none" stroke="#E6E7E8" stroke-miterlimit="10" x1="-236.383" y1="-22.832" x2="-236.383" y2="286.833"/>
	<line fill="none" stroke="#E6E7E8" stroke-miterlimit="10" x1="-234.727" y1="-22.832" x2="-234.727" y2="286.833"/>
	<line fill="none" stroke="#E6E7E8" stroke-miterlimit="10" x1="-233.07" y1="-22.832" x2="-233.07" y2="286.833"/>
	<line fill="none" stroke="#E6E7E8" stroke-miterlimit="10" x1="-231.414" y1="-22.832" x2="-231.414" y2="286.833"/>
	<line fill="none" stroke="#E6E7E8" stroke-miterlimit="10" x1="-229.758" y1="-22.832" x2="-229.758" y2="286.833"/>
	<line fill="none" stroke="#E6E7E8" stroke-miterlimit="10" x1="-228.102" y1="-22.832" x2="-228.102" y2="286.833"/>
	<line fill="none" stroke="#E6E7E8" stroke-miterlimit="10" x1="-226.445" y1="-22.832" x2="-226.445" y2="286.833"/>
	<line fill="none" stroke="#E6E7E8" stroke-miterlimit="10" x1="-224.789" y1="-22.832" x2="-224.789" y2="286.833"/>
	<line fill="none" stroke="#E6E7E8" stroke-miterlimit="10" x1="-223.133" y1="-22.832" x2="-223.133" y2="286.833"/>
	<line fill="none" stroke="#E6E7E8" stroke-miterlimit="10" x1="-221.477" y1="-22.832" x2="-221.477" y2="286.833"/>
	<line fill="none" stroke="#E6E7E8" stroke-miterlimit="10" x1="-219.82" y1="-22.832" x2="-219.82" y2="286.833"/>
	<line fill="none" stroke="#E6E7E8" stroke-miterlimit="10" x1="-218.164" y1="-22.832" x2="-218.164" y2="286.833"/>
	<line fill="none" stroke="#E6E7E8" stroke-miterlimit="10" x1="-216.508" y1="-22.832" x2="-216.508" y2="286.833"/>
	<line fill="none" stroke="#E6E7E8" stroke-miterlimit="10" x1="-214.852" y1="-22.832" x2="-214.852" y2="286.833"/>
	<line fill="none" stroke="#E6E7E8" stroke-miterlimit="10" x1="-213.195" y1="-22.832" x2="-213.195" y2="286.833"/>
	<line fill="none" stroke="#E6E7E8" stroke-miterlimit="10" x1="-211.539" y1="-22.832" x2="-211.539" y2="286.833"/>
	<line fill="none" stroke="#E6E7E8" stroke-miterlimit="10" x1="-209.883" y1="-22.832" x2="-209.883" y2="286.833"/>
	<line fill="none" stroke="#E6E7E8" stroke-miterlimit="10" x1="-208.227" y1="-22.832" x2="-208.227" y2="286.833"/>
	<line fill="none" stroke="#E6E7E8" stroke-miterlimit="10" x1="-206.57" y1="-22.832" x2="-206.57" y2="286.833"/>
	<line fill="none" stroke="#E6E7E8" stroke-miterlimit="10" x1="-204.914" y1="-22.832" x2="-204.914" y2="286.833"/>
	<line fill="none" stroke="#E6E7E8" stroke-miterlimit="10" x1="-203.258" y1="-22.832" x2="-203.258" y2="286.833"/>
	<line fill="none" stroke="#E6E7E8" stroke-miterlimit="10" x1="-201.602" y1="-22.832" x2="-201.602" y2="286.833"/>
	<line fill="none" stroke="#E6E7E8" stroke-miterlimit="10" x1="-199.944" y1="-22.832" x2="-199.944" y2="286.833"/>
	<line fill="none" stroke="#E6E7E8" stroke-miterlimit="10" x1="-198.288" y1="-22.832" x2="-198.288" y2="286.833"/>
	<line fill="none" stroke="#E6E7E8" stroke-miterlimit="10" x1="-196.632" y1="-22.832" x2="-196.632" y2="286.833"/>
	<line fill="none" stroke="#E6E7E8" stroke-miterlimit="10" x1="-194.976" y1="-22.832" x2="-194.976" y2="286.833"/>
	<line fill="none" stroke="#E6E7E8" stroke-miterlimit="10" x1="-193.319" y1="-22.832" x2="-193.319" y2="286.833"/>
	<line fill="none" stroke="#E6E7E8" stroke-miterlimit="10" x1="-191.663" y1="-22.832" x2="-191.663" y2="286.833"/>
	<line fill="none" stroke="#E6E7E8" stroke-miterlimit="10" x1="-190.007" y1="-22.832" x2="-190.007" y2="286.833"/>
	<line fill="none" stroke="#E6E7E8" stroke-miterlimit="10" x1="-188.351" y1="-22.832" x2="-188.351" y2="286.833"/>
	<line fill="none" stroke="#E6E7E8" stroke-miterlimit="10" x1="-186.694" y1="-22.832" x2="-186.694" y2="286.833"/>
	<line fill="none" stroke="#E6E7E8" stroke-miterlimit="10" x1="-185.038" y1="-22.832" x2="-185.038" y2="286.833"/>
	<line fill="none" stroke="#E6E7E8" stroke-miterlimit="10" x1="-183.381" y1="-22.832" x2="-183.381" y2="286.833"/>
	<line fill="none" stroke="#E6E7E8" stroke-miterlimit="10" x1="-181.725" y1="-22.832" x2="-181.725" y2="286.833"/>
	<line fill="none" stroke="#E6E7E8" stroke-miterlimit="10" x1="-180.068" y1="-22.832" x2="-180.068" y2="286.833"/>
	<line fill="none" stroke="#E6E7E8" stroke-miterlimit="10" x1="-178.412" y1="-22.832" x2="-178.412" y2="286.833"/>
	<line fill="none" stroke="#E6E7E8" stroke-miterlimit="10" x1="-176.756" y1="-22.832" x2="-176.756" y2="286.833"/>
	<line fill="none" stroke="#E6E7E8" stroke-miterlimit="10" x1="-175.1" y1="-22.832" x2="-175.1" y2="286.833"/>
	<line fill="none" stroke="#E6E7E8" stroke-miterlimit="10" x1="-173.443" y1="-22.832" x2="-173.443" y2="286.833"/>
	<line fill="none" stroke="#E6E7E8" stroke-miterlimit="10" x1="-171.787" y1="-22.832" x2="-171.787" y2="286.833"/>
	<line fill="none" stroke="#E6E7E8" stroke-miterlimit="10" x1="-170.131" y1="-22.832" x2="-170.131" y2="286.833"/>
	<line fill="none" stroke="#E6E7E8" stroke-miterlimit="10" x1="-168.475" y1="-22.832" x2="-168.475" y2="286.833"/>
	<line fill="none" stroke="#E6E7E8" stroke-miterlimit="10" x1="-166.818" y1="-22.832" x2="-166.818" y2="286.833"/>
	<line fill="none" stroke="#E6E7E8" stroke-miterlimit="10" x1="-165.162" y1="-22.832" x2="-165.162" y2="286.833"/>
	<line fill="none" stroke="#E6E7E8" stroke-miterlimit="10" x1="-163.506" y1="-22.832" x2="-163.506" y2="286.833"/>
	<line fill="none" stroke="#E6E7E8" stroke-miterlimit="10" x1="-161.85" y1="-22.832" x2="-161.85" y2="286.833"/>
	<line fill="none" stroke="#E6E7E8" stroke-miterlimit="10" x1="-160.193" y1="-22.832" x2="-160.193" y2="286.833"/>
	<line fill="none" stroke="#E6E7E8" stroke-miterlimit="10" x1="-158.537" y1="-22.832" x2="-158.537" y2="286.833"/>
	<line fill="none" stroke="#E6E7E8" stroke-miterlimit="10" x1="-156.881" y1="-22.832" x2="-156.881" y2="286.833"/>
	<line fill="none" stroke="#E6E7E8" stroke-miterlimit="10" x1="-155.225" y1="-22.832" x2="-155.225" y2="286.833"/>
	<line fill="none" stroke="#E6E7E8" stroke-miterlimit="10" x1="-153.568" y1="-22.832" x2="-153.568" y2="286.833"/>
	<line fill="none" stroke="#E6E7E8" stroke-miterlimit="10" x1="-151.912" y1="-22.832" x2="-151.912" y2="286.833"/>
	<line fill="none" stroke="#E6E7E8" stroke-miterlimit="10" x1="-150.256" y1="-22.832" x2="-150.256" y2="286.833"/>
	<line fill="none" stroke="#E6E7E8" stroke-miterlimit="10" x1="-148.6" y1="-22.832" x2="-148.6" y2="286.833"/>
	<line fill="none" stroke="#E6E7E8" stroke-miterlimit="10" x1="-146.943" y1="-22.832" x2="-146.943" y2="286.833"/>
	<line fill="none" stroke="#E6E7E8" stroke-miterlimit="10" x1="-145.287" y1="-22.832" x2="-145.287" y2="286.833"/>
	<line fill="none" stroke="#E6E7E8" stroke-miterlimit="10" x1="-143.631" y1="-22.832" x2="-143.631" y2="286.833"/>
	<line fill="none" stroke="#E6E7E8" stroke-miterlimit="10" x1="-141.975" y1="-22.832" x2="-141.975" y2="286.833"/>
	<line fill="none" stroke="#E6E7E8" stroke-miterlimit="10" x1="-140.318" y1="-22.832" x2="-140.318" y2="286.833"/>
	<line fill="none" stroke="#E6E7E8" stroke-miterlimit="10" x1="-138.662" y1="-22.832" x2="-138.662" y2="286.833"/>
	<line fill="none" stroke="#E6E7E8" stroke-miterlimit="10" x1="-137.005" y1="-22.832" x2="-137.005" y2="286.833"/>
	<line fill="none" stroke="#E6E7E8" stroke-miterlimit="10" x1="-135.349" y1="-22.832" x2="-135.349" y2="286.833"/>
	<line fill="none" stroke="#E6E7E8" stroke-miterlimit="10" x1="-133.692" y1="-22.832" x2="-133.692" y2="286.833"/>
	<line fill="none" stroke="#E6E7E8" stroke-miterlimit="10" x1="-132.036" y1="-22.832" x2="-132.036" y2="286.833"/>
	<line fill="none" stroke="#E6E7E8" stroke-miterlimit="10" x1="-130.38" y1="-22.832" x2="-130.38" y2="286.833"/>
	<line fill="none" stroke="#E6E7E8" stroke-miterlimit="10" x1="-128.724" y1="-22.832" x2="-128.724" y2="286.833"/>
	<line fill="none" stroke="#E6E7E8" stroke-miterlimit="10" x1="-127.067" y1="-22.832" x2="-127.067" y2="286.833"/>
	<line fill="none" stroke="#E6E7E8" stroke-miterlimit="10" x1="-125.411" y1="-22.832" x2="-125.411" y2="286.833"/>
	<line fill="none" stroke="#E6E7E8" stroke-miterlimit="10" x1="-123.755" y1="-22.832" x2="-123.755" y2="286.833"/>
	<line fill="none" stroke="#E6E7E8" stroke-miterlimit="10" x1="-122.099" y1="-22.832" x2="-122.099" y2="286.833"/>
	<line fill="none" stroke="#E6E7E8" stroke-miterlimit="10" x1="-120.442" y1="-22.832" x2="-120.442" y2="286.833"/>
	<line fill="none" stroke="#E6E7E8" stroke-miterlimit="10" x1="-118.785" y1="-22.832" x2="-118.785" y2="286.833"/>
	<line fill="none" stroke="#E6E7E8" stroke-miterlimit="10" x1="-117.129" y1="-22.832" x2="-117.129" y2="286.833"/>
	<line fill="none" stroke="#E6E7E8" stroke-miterlimit="10" x1="-115.473" y1="-22.832" x2="-115.473" y2="286.833"/>
	<line fill="none" stroke="#E6E7E8" stroke-miterlimit="10" x1="-113.816" y1="-22.832" x2="-113.816" y2="286.833"/>
	<line fill="none" stroke="#E6E7E8" stroke-miterlimit="10" x1="-112.16" y1="-22.832" x2="-112.16" y2="286.833"/>
	<line fill="none" stroke="#E6E7E8" stroke-miterlimit="10" x1="-110.504" y1="-22.832" x2="-110.504" y2="286.833"/>
	<line fill="none" stroke="#E6E7E8" stroke-miterlimit="10" x1="-108.848" y1="-22.832" x2="-108.848" y2="286.833"/>
	<line fill="none" stroke="#E6E7E8" stroke-miterlimit="10" x1="-107.191" y1="-22.832" x2="-107.191" y2="286.833"/>
	<line fill="none" stroke="#E6E7E8" stroke-miterlimit="10" x1="-105.535" y1="-22.832" x2="-105.535" y2="286.833"/>
	<line fill="none" stroke="#E6E7E8" stroke-miterlimit="10" x1="-103.879" y1="-22.832" x2="-103.879" y2="286.833"/>
	<line fill="none" stroke="#E6E7E8" stroke-miterlimit="10" x1="-102.223" y1="-22.832" x2="-102.223" y2="286.833"/>
	<line fill="none" stroke="#E6E7E8" stroke-miterlimit="10" x1="-100.566" y1="-22.832" x2="-100.566" y2="286.833"/>
	<line fill="none" stroke="#E6E7E8" stroke-miterlimit="10" x1="-98.91" y1="-22.832" x2="-98.91" y2="286.833"/>
	<line fill="none" stroke="#E6E7E8" stroke-miterlimit="10" x1="-97.254" y1="-22.832" x2="-97.254" y2="286.833"/>
	<line fill="none" stroke="#E6E7E8" stroke-miterlimit="10" x1="-95.598" y1="-22.832" x2="-95.598" y2="286.833"/>
	<line fill="none" stroke="#E6E7E8" stroke-miterlimit="10" x1="-93.941" y1="-22.832" x2="-93.941" y2="286.833"/>
	<line fill="none" stroke="#E6E7E8" stroke-miterlimit="10" x1="-92.285" y1="-22.832" x2="-92.285" y2="286.833"/>
	<line fill="none" stroke="#E6E7E8" stroke-miterlimit="10" x1="-90.629" y1="-22.832" x2="-90.629" y2="286.833"/>
	<line fill="none" stroke="#E6E7E8" stroke-miterlimit="10" x1="-88.973" y1="-22.832" x2="-88.973" y2="286.833"/>
	<line fill="none" stroke="#E6E7E8" stroke-miterlimit="10" x1="-87.316" y1="-22.832" x2="-87.316" y2="286.833"/>
	<line fill="none" stroke="#E6E7E8" stroke-miterlimit="10" x1="-85.66" y1="-22.832" x2="-85.66" y2="286.833"/>
	<line fill="none" stroke="#E6E7E8" stroke-miterlimit="10" x1="-84.004" y1="-22.832" x2="-84.004" y2="286.833"/>
	<line fill="none" stroke="#E6E7E8" stroke-miterlimit="10" x1="-82.348" y1="-22.832" x2="-82.348" y2="286.833"/>
	<line fill="none" stroke="#E6E7E8" stroke-miterlimit="10" x1="-80.691" y1="-22.832" x2="-80.691" y2="286.833"/>
	<line fill="none" stroke="#E6E7E8" stroke-miterlimit="10" x1="-79.035" y1="-22.832" x2="-79.035" y2="286.833"/>
	<line fill="none" stroke="#E6E7E8" stroke-miterlimit="10" x1="-77.379" y1="-22.832" x2="-77.379" y2="286.833"/>
	<line fill="none" stroke="#E6E7E8" stroke-miterlimit="10" x1="-75.723" y1="-22.832" x2="-75.723" y2="286.833"/>
	<line fill="none" stroke="#E6E7E8" stroke-miterlimit="10" x1="-74.065" y1="-22.832" x2="-74.065" y2="286.833"/>
	<line fill="none" stroke="#E6E7E8" stroke-miterlimit="10" x1="-72.409" y1="-22.832" x2="-72.409" y2="286.833"/>
	<line fill="none" stroke="#E6E7E8" stroke-miterlimit="10" x1="-70.753" y1="-22.832" x2="-70.753" y2="286.833"/>
	<line fill="none" stroke="#E6E7E8" stroke-miterlimit="10" x1="-69.097" y1="-22.832" x2="-69.097" y2="286.833"/>
	<line fill="none" stroke="#E6E7E8" stroke-miterlimit="10" x1="-67.44" y1="-22.832" x2="-67.44" y2="286.833"/>
	<line fill="none" stroke="#E6E7E8" stroke-miterlimit="10" x1="-65.784" y1="-22.832" x2="-65.784" y2="286.833"/>
	<line fill="none" stroke="#E6E7E8" stroke-miterlimit="10" x1="-64.128" y1="-22.832" x2="-64.128" y2="286.833"/>
	<line fill="none" stroke="#E6E7E8" stroke-miterlimit="10" x1="-62.472" y1="-22.832" x2="-62.472" y2="286.833"/>
	<line fill="none" stroke="#E6E7E8" stroke-miterlimit="10" x1="-60.815" y1="-22.832" x2="-60.815" y2="286.833"/>
	<line fill="none" stroke="#E6E7E8" stroke-miterlimit="10" x1="-59.159" y1="-22.832" x2="-59.159" y2="286.833"/>
	<line fill="none" stroke="#E6E7E8" stroke-miterlimit="10" x1="-57.503" y1="-22.832" x2="-57.503" y2="286.833"/>
	<line fill="none" stroke="#E6E7E8" stroke-miterlimit="10" x1="-55.846" y1="-22.832" x2="-55.846" y2="286.833"/>
	<line fill="none" stroke="#E6E7E8" stroke-miterlimit="10" x1="-54.189" y1="-22.832" x2="-54.189" y2="286.833"/>
	<line fill="none" stroke="#E6E7E8" stroke-miterlimit="10" x1="-52.533" y1="-22.832" x2="-52.533" y2="286.833"/>
	<line fill="none" stroke="#E6E7E8" stroke-miterlimit="10" x1="-50.877" y1="-22.832" x2="-50.877" y2="286.833"/>
	<line fill="none" stroke="#E6E7E8" stroke-miterlimit="10" x1="-49.221" y1="-22.832" x2="-49.221" y2="286.833"/>
	<line fill="none" stroke="#E6E7E8" stroke-miterlimit="10" x1="-47.564" y1="-22.832" x2="-47.564" y2="286.833"/>
	<line fill="none" stroke="#E6E7E8" stroke-miterlimit="10" x1="-45.908" y1="-22.832" x2="-45.908" y2="286.833"/>
	<line fill="none" stroke="#E6E7E8" stroke-miterlimit="10" x1="-44.252" y1="-22.832" x2="-44.252" y2="286.833"/>
	<line fill="none" stroke="#E6E7E8" stroke-miterlimit="10" x1="-42.596" y1="-22.832" x2="-42.596" y2="286.833"/>
	<line fill="none" stroke="#E6E7E8" stroke-miterlimit="10" x1="-40.939" y1="-22.832" x2="-40.939" y2="286.833"/>
	<line fill="none" stroke="#E6E7E8" stroke-miterlimit="10" x1="-39.283" y1="-22.832" x2="-39.283" y2="286.833"/>
	<line fill="none" stroke="#E6E7E8" stroke-miterlimit="10" x1="-37.627" y1="-22.832" x2="-37.627" y2="286.833"/>
	<line fill="none" stroke="#E6E7E8" stroke-miterlimit="10" x1="-35.971" y1="-22.832" x2="-35.971" y2="286.833"/>
	<line fill="none" stroke="#E6E7E8" stroke-miterlimit="10" x1="-34.314" y1="-22.832" x2="-34.314" y2="286.833"/>
	<line fill="none" stroke="#E6E7E8" stroke-miterlimit="10" x1="-32.658" y1="-22.832" x2="-32.658" y2="286.833"/>
	<line fill="none" stroke="#E6E7E8" stroke-miterlimit="10" x1="-31.002" y1="-22.832" x2="-31.002" y2="286.833"/>
	<line fill="none" stroke="#E6E7E8" stroke-miterlimit="10" x1="-29.346" y1="-22.832" x2="-29.346" y2="286.833"/>
	<line fill="none" stroke="#E6E7E8" stroke-miterlimit="10" x1="-27.689" y1="-22.832" x2="-27.689" y2="286.833"/>
	<line fill="none" stroke="#E6E7E8" stroke-miterlimit="10" x1="-26.033" y1="-22.832" x2="-26.033" y2="286.833"/>
	<line fill="none" stroke="#E6E7E8" stroke-miterlimit="10" x1="-24.377" y1="-22.832" x2="-24.377" y2="286.833"/>
	<line fill="none" stroke="#E6E7E8" stroke-miterlimit="10" x1="-22.721" y1="-22.832" x2="-22.721" y2="286.833"/>
	<line fill="none" stroke="#E6E7E8" stroke-miterlimit="10" x1="-21.064" y1="-22.832" x2="-21.064" y2="286.833"/>
	<line fill="none" stroke="#E6E7E8" stroke-miterlimit="10" x1="-19.408" y1="-22.832" x2="-19.408" y2="286.833"/>
	<line fill="none" stroke="#E6E7E8" stroke-miterlimit="10" x1="-17.752" y1="-22.832" x2="-17.752" y2="286.833"/>
	<line fill="none" stroke="#E6E7E8" stroke-miterlimit="10" x1="-16.096" y1="-22.832" x2="-16.096" y2="286.833"/>
	<line fill="none" stroke="#E6E7E8" stroke-miterlimit="10" x1="-14.439" y1="-22.832" x2="-14.439" y2="286.833"/>
	<line fill="none" stroke="#E6E7E8" stroke-miterlimit="10" x1="-12.783" y1="-22.832" x2="-12.783" y2="286.833"/>
	<line fill="none" stroke="#E6E7E8" stroke-miterlimit="10" x1="-11.127" y1="-22.832" x2="-11.127" y2="286.833"/>
	<line fill="none" stroke="#E6E7E8" stroke-miterlimit="10" x1="-9.47" y1="-22.832" x2="-9.47" y2="286.833"/>
	<line fill="none" stroke="#E6E7E8" stroke-miterlimit="10" x1="-7.813" y1="-22.832" x2="-7.813" y2="286.833"/>
	<line fill="none" stroke="#E6E7E8" stroke-miterlimit="10" x1="-6.157" y1="-22.832" x2="-6.157" y2="286.833"/>
	<line fill="none" stroke="#E6E7E8" stroke-miterlimit="10" x1="-4.501" y1="-22.832" x2="-4.501" y2="286.833"/>
	<line fill="none" stroke="#E6E7E8" stroke-miterlimit="10" x1="-2.844" y1="-22.832" x2="-2.844" y2="286.833"/>
	<line fill="none" stroke="#E6E7E8" stroke-miterlimit="10" x1="-1.188" y1="-22.832" x2="-1.188" y2="286.833"/>
	<line fill="none" stroke="#E6E7E8" stroke-miterlimit="10" x1="0.469" y1="-22.832" x2="0.469" y2="286.833"/>
	<line fill="none" stroke="#E6E7E8" stroke-miterlimit="10" x1="2.125" y1="-22.832" x2="2.125" y2="286.833"/>
	<line fill="none" stroke="#E6E7E8" stroke-miterlimit="10" x1="3.781" y1="-22.832" x2="3.781" y2="286.833"/>
	<line fill="none" stroke="#E6E7E8" stroke-miterlimit="10" x1="5.438" y1="-22.832" x2="5.438" y2="286.833"/>
	<line fill="none" stroke="#E6E7E8" stroke-miterlimit="10" x1="7.094" y1="-22.832" x2="7.094" y2="286.833"/>
	<line fill="none" stroke="#E6E7E8" stroke-miterlimit="10" x1="8.75" y1="-22.832" x2="8.75" y2="286.833"/>
	<line fill="none" stroke="#E6E7E8" stroke-miterlimit="10" x1="10.406" y1="-22.832" x2="10.406" y2="286.833"/>
	<line fill="none" stroke="#E6E7E8" stroke-miterlimit="10" x1="12.063" y1="-22.832" x2="12.063" y2="286.833"/>
	<line fill="none" stroke="#E6E7E8" stroke-miterlimit="10" x1="13.719" y1="-22.832" x2="13.719" y2="286.833"/>
	<line fill="none" stroke="#E6E7E8" stroke-miterlimit="10" x1="15.375" y1="-22.832" x2="15.375" y2="286.833"/>
	<line fill="none" stroke="#E6E7E8" stroke-miterlimit="10" x1="17.031" y1="-22.832" x2="17.031" y2="286.833"/>
	<line fill="none" stroke="#E6E7E8" stroke-miterlimit="10" x1="18.688" y1="-22.832" x2="18.688" y2="286.833"/>
	<line fill="none" stroke="#E6E7E8" stroke-miterlimit="10" x1="20.344" y1="-22.832" x2="20.344" y2="286.833"/>
	<line fill="none" stroke="#E6E7E8" stroke-miterlimit="10" x1="22" y1="-22.832" x2="22" y2="286.833"/>
	<line fill="none" stroke="#E6E7E8" stroke-miterlimit="10" x1="23.656" y1="-22.832" x2="23.656" y2="286.833"/>
	<line fill="none" stroke="#E6E7E8" stroke-miterlimit="10" x1="25.313" y1="-22.832" x2="25.313" y2="286.833"/>
	<line fill="none" stroke="#E6E7E8" stroke-miterlimit="10" x1="26.969" y1="-22.832" x2="26.969" y2="286.833"/>
	<line fill="none" stroke="#E6E7E8" stroke-miterlimit="10" x1="28.625" y1="-22.832" x2="28.625" y2="286.833"/>
	<line fill="none" stroke="#E6E7E8" stroke-miterlimit="10" x1="30.281" y1="-22.832" x2="30.281" y2="286.833"/>
	<line fill="none" stroke="#E6E7E8" stroke-miterlimit="10" x1="31.938" y1="-22.832" x2="31.938" y2="286.833"/>
	<line fill="none" stroke="#E6E7E8" stroke-miterlimit="10" x1="33.594" y1="-22.832" x2="33.594" y2="286.833"/>
	<line fill="none" stroke="#E6E7E8" stroke-miterlimit="10" x1="35.25" y1="-22.832" x2="35.25" y2="286.833"/>
	<line fill="none" stroke="#E6E7E8" stroke-miterlimit="10" x1="36.906" y1="-22.832" x2="36.906" y2="286.833"/>
	<line fill="none" stroke="#E6E7E8" stroke-miterlimit="10" x1="38.563" y1="-22.832" x2="38.563" y2="286.833"/>
	<line fill="none" stroke="#E6E7E8" stroke-miterlimit="10" x1="40.219" y1="-22.832" x2="40.219" y2="286.833"/>
	<line fill="none" stroke="#E6E7E8" stroke-miterlimit="10" x1="41.875" y1="-22.832" x2="41.875" y2="286.833"/>
	<line fill="none" stroke="#E6E7E8" stroke-miterlimit="10" x1="43.531" y1="-22.832" x2="43.531" y2="286.833"/>
	<line fill="none" stroke="#E6E7E8" stroke-miterlimit="10" x1="45.188" y1="-22.832" x2="45.188" y2="286.833"/>
	<line fill="none" stroke="#E6E7E8" stroke-miterlimit="10" x1="46.846" y1="-22.832" x2="46.846" y2="286.833"/>
	<line fill="none" stroke="#E6E7E8" stroke-miterlimit="10" x1="48.502" y1="-22.832" x2="48.502" y2="286.833"/>
	<line fill="none" stroke="#E6E7E8" stroke-miterlimit="10" x1="50.158" y1="-22.832" x2="50.158" y2="286.833"/>
	<line fill="none" stroke="#E6E7E8" stroke-miterlimit="10" x1="51.814" y1="-22.832" x2="51.814" y2="286.833"/>
	<line fill="none" stroke="#E6E7E8" stroke-miterlimit="10" x1="53.471" y1="-22.832" x2="53.471" y2="286.833"/>
	<line fill="none" stroke="#E6E7E8" stroke-miterlimit="10" x1="55.127" y1="-22.832" x2="55.127" y2="286.833"/>
	<line fill="none" stroke="#E6E7E8" stroke-miterlimit="10" x1="56.783" y1="-22.832" x2="56.783" y2="286.833"/>
	<line fill="none" stroke="#E6E7E8" stroke-miterlimit="10" x1="58.439" y1="-22.832" x2="58.439" y2="286.833"/>
	<line fill="none" stroke="#E6E7E8" stroke-miterlimit="10" x1="60.096" y1="-22.832" x2="60.096" y2="286.833"/>
	<line fill="none" stroke="#E6E7E8" stroke-miterlimit="10" x1="61.752" y1="-22.832" x2="61.752" y2="286.833"/>
	<line fill="none" stroke="#E6E7E8" stroke-miterlimit="10" x1="63.408" y1="-22.832" x2="63.408" y2="286.833"/>
	<line fill="none" stroke="#E6E7E8" stroke-miterlimit="10" x1="65.064" y1="-22.832" x2="65.064" y2="286.833"/>
	<line fill="none" stroke="#E6E7E8" stroke-miterlimit="10" x1="66.721" y1="-22.832" x2="66.721" y2="286.833"/>
	<line fill="none" stroke="#E6E7E8" stroke-miterlimit="10" x1="68.377" y1="-22.832" x2="68.377" y2="286.833"/>
	<line fill="none" stroke="#E6E7E8" stroke-miterlimit="10" x1="70.033" y1="-22.832" x2="70.033" y2="286.833"/>
	<line fill="none" stroke="#E6E7E8" stroke-miterlimit="10" x1="71.689" y1="-22.832" x2="71.689" y2="286.833"/>
	<line fill="none" stroke="#E6E7E8" stroke-miterlimit="10" x1="73.346" y1="-22.832" x2="73.346" y2="286.833"/>
	<line fill="none" stroke="#E6E7E8" stroke-miterlimit="10" x1="75.002" y1="-22.832" x2="75.002" y2="286.833"/>
	<line fill="none" stroke="#E6E7E8" stroke-miterlimit="10" x1="76.658" y1="-22.832" x2="76.658" y2="286.833"/>
	<line fill="none" stroke="#E6E7E8" stroke-miterlimit="10" x1="78.314" y1="-22.832" x2="78.314" y2="286.833"/>
	<line fill="none" stroke="#E6E7E8" stroke-miterlimit="10" x1="79.971" y1="-22.832" x2="79.971" y2="286.833"/>
	<line fill="none" stroke="#E6E7E8" stroke-miterlimit="10" x1="81.627" y1="-22.832" x2="81.627" y2="286.833"/>
	<line fill="none" stroke="#E6E7E8" stroke-miterlimit="10" x1="83.283" y1="-22.832" x2="83.283" y2="286.833"/>
	<line fill="none" stroke="#E6E7E8" stroke-miterlimit="10" x1="84.939" y1="-22.832" x2="84.939" y2="286.833"/>
	<line fill="none" stroke="#E6E7E8" stroke-miterlimit="10" x1="86.596" y1="-22.832" x2="86.596" y2="286.833"/>
	<line fill="none" stroke="#E6E7E8" stroke-miterlimit="10" x1="88.252" y1="-22.832" x2="88.252" y2="286.833"/>
	<line fill="none" stroke="#E6E7E8" stroke-miterlimit="10" x1="89.908" y1="-22.832" x2="89.908" y2="286.833"/>
	<line fill="none" stroke="#E6E7E8" stroke-miterlimit="10" x1="91.564" y1="-22.832" x2="91.564" y2="286.833"/>
	<line fill="none" stroke="#E6E7E8" stroke-miterlimit="10" x1="93.221" y1="-22.832" x2="93.221" y2="286.833"/>
	<line fill="none" stroke="#E6E7E8" stroke-miterlimit="10" x1="94.877" y1="-22.832" x2="94.877" y2="286.833"/>
	<line fill="none" stroke="#E6E7E8" stroke-miterlimit="10" x1="96.533" y1="-22.832" x2="96.533" y2="286.833"/>
	<line fill="none" stroke="#E6E7E8" stroke-miterlimit="10" x1="98.189" y1="-22.832" x2="98.189" y2="286.833"/>
	<line fill="none" stroke="#E6E7E8" stroke-miterlimit="10" x1="99.846" y1="-22.832" x2="99.846" y2="286.833"/>
	<line fill="none" stroke="#E6E7E8" stroke-miterlimit="10" x1="101.502" y1="-22.832" x2="101.502" y2="286.833"/>
	<line fill="none" stroke="#E6E7E8" stroke-miterlimit="10" x1="103.158" y1="-22.832" x2="103.158" y2="286.833"/>
	<line fill="none" stroke="#E6E7E8" stroke-miterlimit="10" x1="104.814" y1="-22.832" x2="104.814" y2="286.833"/>
	<line fill="none" stroke="#E6E7E8" stroke-miterlimit="10" x1="106.471" y1="-22.832" x2="106.471" y2="286.833"/>
	<line fill="none" stroke="#E6E7E8" stroke-miterlimit="10" x1="108.127" y1="-22.832" x2="108.127" y2="286.833"/>
	<line fill="none" stroke="#E6E7E8" stroke-miterlimit="10" x1="109.783" y1="-22.832" x2="109.783" y2="286.833"/>
	<line fill="none" stroke="#E6E7E8" stroke-miterlimit="10" x1="111.441" y1="-22.832" x2="111.441" y2="286.833"/>
	<line fill="none" stroke="#E6E7E8" stroke-miterlimit="10" x1="113.098" y1="-22.832" x2="113.098" y2="286.833"/>
	<line fill="none" stroke="#E6E7E8" stroke-miterlimit="10" x1="114.754" y1="-22.832" x2="114.754" y2="286.833"/>
	<line fill="none" stroke="#E6E7E8" stroke-miterlimit="10" x1="116.41" y1="-22.832" x2="116.41" y2="286.833"/>
	<line fill="none" stroke="#E6E7E8" stroke-miterlimit="10" x1="118.066" y1="-22.832" x2="118.066" y2="286.833"/>
	<line fill="none" stroke="#E6E7E8" stroke-miterlimit="10" x1="119.723" y1="-22.832" x2="119.723" y2="286.833"/>
	<line fill="none" stroke="#E6E7E8" stroke-miterlimit="10" x1="121.379" y1="-22.832" x2="121.379" y2="286.833"/>
	<line fill="none" stroke="#E6E7E8" stroke-miterlimit="10" x1="123.035" y1="-22.832" x2="123.035" y2="286.833"/>
	<line fill="none" stroke="#E6E7E8" stroke-miterlimit="10" x1="124.691" y1="-22.832" x2="124.691" y2="286.833"/>
	<line fill="none" stroke="#E6E7E8" stroke-miterlimit="10" x1="126.348" y1="-22.832" x2="126.348" y2="286.833"/>
	<line fill="none" stroke="#E6E7E8" stroke-miterlimit="10" x1="128.004" y1="-22.832" x2="128.004" y2="286.833"/>
	<line fill="none" stroke="#E6E7E8" stroke-miterlimit="10" x1="129.66" y1="-22.832" x2="129.66" y2="286.833"/>
	<line fill="none" stroke="#E6E7E8" stroke-miterlimit="10" x1="131.316" y1="-22.832" x2="131.316" y2="286.833"/>
	<line fill="none" stroke="#E6E7E8" stroke-miterlimit="10" x1="132.973" y1="-22.832" x2="132.973" y2="286.833"/>
	<line fill="none" stroke="#E6E7E8" stroke-miterlimit="10" x1="134.629" y1="-22.832" x2="134.629" y2="286.833"/>
	<line fill="none" stroke="#E6E7E8" stroke-miterlimit="10" x1="136.285" y1="-22.832" x2="136.285" y2="286.833"/>
	<line fill="none" stroke="#E6E7E8" stroke-miterlimit="10" x1="137.941" y1="-22.832" x2="137.941" y2="286.833"/>
	<line fill="none" stroke="#E6E7E8" stroke-miterlimit="10" x1="139.598" y1="-22.832" x2="139.598" y2="286.833"/>
	<line fill="none" stroke="#E6E7E8" stroke-miterlimit="10" x1="141.254" y1="-22.832" x2="141.254" y2="286.833"/>
	<line fill="none" stroke="#E6E7E8" stroke-miterlimit="10" x1="142.91" y1="-22.832" x2="142.91" y2="286.833"/>
	<line fill="none" stroke="#E6E7E8" stroke-miterlimit="10" x1="144.566" y1="-22.832" x2="144.566" y2="286.833"/>
	<line fill="none" stroke="#E6E7E8" stroke-miterlimit="10" x1="146.223" y1="-22.832" x2="146.223" y2="286.833"/>
	<line fill="none" stroke="#E6E7E8" stroke-miterlimit="10" x1="147.879" y1="-22.832" x2="147.879" y2="286.833"/>
	<line fill="none" stroke="#E6E7E8" stroke-miterlimit="10" x1="149.535" y1="-22.832" x2="149.535" y2="286.833"/>
	<line fill="none" stroke="#E6E7E8" stroke-miterlimit="10" x1="151.191" y1="-22.832" x2="151.191" y2="286.833"/>
	<line fill="none" stroke="#E6E7E8" stroke-miterlimit="10" x1="152.848" y1="-22.832" x2="152.848" y2="286.833"/>
	<line fill="none" stroke="#E6E7E8" stroke-miterlimit="10" x1="154.504" y1="-22.832" x2="154.504" y2="286.833"/>
	<line fill="none" stroke="#E6E7E8" stroke-miterlimit="10" x1="156.16" y1="-22.832" x2="156.16" y2="286.833"/>
	<line fill="none" stroke="#E6E7E8" stroke-miterlimit="10" x1="157.816" y1="-22.832" x2="157.816" y2="286.833"/>
	<line fill="none" stroke="#E6E7E8" stroke-miterlimit="10" x1="159.473" y1="-22.832" x2="159.473" y2="286.833"/>
	<line fill="none" stroke="#E6E7E8" stroke-miterlimit="10" x1="161.129" y1="-22.832" x2="161.129" y2="286.833"/>
	<line fill="none" stroke="#E6E7E8" stroke-miterlimit="10" x1="162.785" y1="-22.832" x2="162.785" y2="286.833"/>
	<line fill="none" stroke="#E6E7E8" stroke-miterlimit="10" x1="164.441" y1="-22.832" x2="164.441" y2="286.833"/>
	<line fill="none" stroke="#E6E7E8" stroke-miterlimit="10" x1="166.098" y1="-22.832" x2="166.098" y2="286.833"/>
	<line fill="none" stroke="#E6E7E8" stroke-miterlimit="10" x1="167.754" y1="-22.832" x2="167.754" y2="286.833"/>
	<line fill="none" stroke="#E6E7E8" stroke-miterlimit="10" x1="169.41" y1="-22.832" x2="169.41" y2="286.833"/>
	<line fill="none" stroke="#E6E7E8" stroke-miterlimit="10" x1="171.066" y1="-22.832" x2="171.066" y2="286.833"/>
	<line fill="none" stroke="#E6E7E8" stroke-miterlimit="10" x1="172.723" y1="-22.832" x2="172.723" y2="286.833"/>
	<line fill="none" stroke="#E6E7E8" stroke-miterlimit="10" x1="174.381" y1="-22.832" x2="174.381" y2="286.833"/>
	<line fill="none" stroke="#E6E7E8" stroke-miterlimit="10" x1="176.037" y1="-22.832" x2="176.037" y2="286.833"/>
	<line fill="none" stroke="#E6E7E8" stroke-miterlimit="10" x1="177.693" y1="-22.832" x2="177.693" y2="286.833"/>
	<line fill="none" stroke="#E6E7E8" stroke-miterlimit="10" x1="179.35" y1="-22.832" x2="179.35" y2="286.833"/>
	<line fill="none" stroke="#E6E7E8" stroke-miterlimit="10" x1="181.006" y1="-22.832" x2="181.006" y2="286.833"/>
	<line fill="none" stroke="#E6E7E8" stroke-miterlimit="10" x1="182.662" y1="-22.832" x2="182.662" y2="286.833"/>
	<line fill="none" stroke="#E6E7E8" stroke-miterlimit="10" x1="184.318" y1="-22.832" x2="184.318" y2="286.833"/>
	<line fill="none" stroke="#E6E7E8" stroke-miterlimit="10" x1="185.975" y1="-22.832" x2="185.975" y2="286.833"/>
	<line fill="none" stroke="#E6E7E8" stroke-miterlimit="10" x1="187.631" y1="-22.832" x2="187.631" y2="286.833"/>
	<line fill="none" stroke="#E6E7E8" stroke-miterlimit="10" x1="189.287" y1="-22.832" x2="189.287" y2="286.833"/>
	<line fill="none" stroke="#E6E7E8" stroke-miterlimit="10" x1="190.943" y1="-22.832" x2="190.943" y2="286.833"/>
	<line fill="none" stroke="#E6E7E8" stroke-miterlimit="10" x1="192.6" y1="-22.832" x2="192.6" y2="286.833"/>
	<line fill="none" stroke="#E6E7E8" stroke-miterlimit="10" x1="194.256" y1="-22.832" x2="194.256" y2="286.833"/>
	<line fill="none" stroke="#E6E7E8" stroke-miterlimit="10" x1="195.912" y1="-22.832" x2="195.912" y2="286.833"/>
	<line fill="none" stroke="#E6E7E8" stroke-miterlimit="10" x1="197.568" y1="-22.832" x2="197.568" y2="286.833"/>
	<line fill="none" stroke="#E6E7E8" stroke-miterlimit="10" x1="199.225" y1="-22.832" x2="199.225" y2="286.833"/>
	<line fill="none" stroke="#E6E7E8" stroke-miterlimit="10" x1="200.881" y1="-22.832" x2="200.881" y2="286.833"/>
	<line fill="none" stroke="#E6E7E8" stroke-miterlimit="10" x1="202.537" y1="-22.832" x2="202.537" y2="286.833"/>
	<line fill="none" stroke="#E6E7E8" stroke-miterlimit="10" x1="204.193" y1="-22.832" x2="204.193" y2="286.833"/>
	<line fill="none" stroke="#E6E7E8" stroke-miterlimit="10" x1="205.85" y1="-22.832" x2="205.85" y2="286.833"/>
	<line fill="none" stroke="#E6E7E8" stroke-miterlimit="10" x1="207.506" y1="-22.832" x2="207.506" y2="286.833"/>
	<line fill="none" stroke="#E6E7E8" stroke-miterlimit="10" x1="209.162" y1="-22.832" x2="209.162" y2="286.833"/>
	<line fill="none" stroke="#E6E7E8" stroke-miterlimit="10" x1="210.818" y1="-22.832" x2="210.818" y2="286.833"/>
	<line fill="none" stroke="#E6E7E8" stroke-miterlimit="10" x1="212.475" y1="-22.832" x2="212.475" y2="286.833"/>
	<line fill="none" stroke="#E6E7E8" stroke-miterlimit="10" x1="214.131" y1="-22.832" x2="214.131" y2="286.833"/>
	<line fill="none" stroke="#E6E7E8" stroke-miterlimit="10" x1="215.787" y1="-22.832" x2="215.787" y2="286.833"/>
	<line fill="none" stroke="#E6E7E8" stroke-miterlimit="10" x1="217.443" y1="-22.832" x2="217.443" y2="286.833"/>
	<line fill="none" stroke="#E6E7E8" stroke-miterlimit="10" x1="219.1" y1="-22.832" x2="219.1" y2="286.833"/>
	<line fill="none" stroke="#E6E7E8" stroke-miterlimit="10" x1="220.756" y1="-22.832" x2="220.756" y2="286.833"/>
	<line fill="none" stroke="#E6E7E8" stroke-miterlimit="10" x1="222.412" y1="-22.832" x2="222.412" y2="286.833"/>
	<line fill="none" stroke="#E6E7E8" stroke-miterlimit="10" x1="224.068" y1="-22.832" x2="224.068" y2="286.833"/>
	<line fill="none" stroke="#E6E7E8" stroke-miterlimit="10" x1="225.725" y1="-22.832" x2="225.725" y2="286.833"/>
	<line fill="none" stroke="#E6E7E8" stroke-miterlimit="10" x1="227.381" y1="-22.832" x2="227.381" y2="286.833"/>
	<line fill="none" stroke="#E6E7E8" stroke-miterlimit="10" x1="229.037" y1="-22.832" x2="229.037" y2="286.833"/>
	<line fill="none" stroke="#E6E7E8" stroke-miterlimit="10" x1="230.693" y1="-22.832" x2="230.693" y2="286.833"/>
	<line fill="none" stroke="#E6E7E8" stroke-miterlimit="10" x1="232.35" y1="-22.832" x2="232.35" y2="286.833"/>
	<line fill="none" stroke="#E6E7E8" stroke-miterlimit="10" x1="234.006" y1="-22.832" x2="234.006" y2="286.833"/>
	<line fill="none" stroke="#E6E7E8" stroke-miterlimit="10" x1="235.662" y1="-22.832" x2="235.662" y2="286.833"/>
	<line fill="none" stroke="#E6E7E8" stroke-miterlimit="10" x1="237.32" y1="-22.832" x2="237.32" y2="286.833"/>
	<line fill="none" stroke="#E6E7E8" stroke-miterlimit="10" x1="238.977" y1="-22.832" x2="238.977" y2="286.833"/>
	<line fill="none" stroke="#E6E7E8" stroke-miterlimit="10" x1="240.633" y1="-22.832" x2="240.633" y2="286.833"/>
	<line fill="none" stroke="#E6E7E8" stroke-miterlimit="10" x1="242.289" y1="-22.832" x2="242.289" y2="286.833"/>
	<line fill="none" stroke="#E6E7E8" stroke-miterlimit="10" x1="243.945" y1="-22.832" x2="243.945" y2="286.833"/>
	<line fill="none" stroke="#E6E7E8" stroke-miterlimit="10" x1="245.602" y1="-22.832" x2="245.602" y2="286.833"/>
	<line fill="none" stroke="#E6E7E8" stroke-miterlimit="10" x1="247.258" y1="-22.832" x2="247.258" y2="286.833"/>
	<line fill="none" stroke="#E6E7E8" stroke-miterlimit="10" x1="248.914" y1="-22.832" x2="248.914" y2="286.833"/>
	<line fill="none" stroke="#E6E7E8" stroke-miterlimit="10" x1="250.57" y1="-22.832" x2="250.57" y2="286.833"/>
	<line fill="none" stroke="#E6E7E8" stroke-miterlimit="10" x1="252.227" y1="-22.832" x2="252.227" y2="286.833"/>
	<line fill="none" stroke="#E6E7E8" stroke-miterlimit="10" x1="253.883" y1="-22.832" x2="253.883" y2="286.833"/>
	<line fill="none" stroke="#E6E7E8" stroke-miterlimit="10" x1="255.539" y1="-22.832" x2="255.539" y2="286.833"/>
	<line fill="none" stroke="#E6E7E8" stroke-miterlimit="10" x1="257.195" y1="-22.832" x2="257.195" y2="286.833"/>
	<line fill="none" stroke="#E6E7E8" stroke-miterlimit="10" x1="258.852" y1="-22.832" x2="258.852" y2="286.833"/>
	<line fill="none" stroke="#E6E7E8" stroke-miterlimit="10" x1="260.508" y1="-22.832" x2="260.508" y2="286.833"/>
	<line fill="none" stroke="#E6E7E8" stroke-miterlimit="10" x1="262.164" y1="-22.832" x2="262.164" y2="286.833"/>
	<line fill="none" stroke="#E6E7E8" stroke-miterlimit="10" x1="263.82" y1="-22.832" x2="263.82" y2="286.833"/>
	<line fill="none" stroke="#E6E7E8" stroke-miterlimit="10" x1="265.477" y1="-22.832" x2="265.477" y2="286.833"/>
	<line fill="none" stroke="#E6E7E8" stroke-miterlimit="10" x1="267.133" y1="-22.832" x2="267.133" y2="286.833"/>
	<line fill="none" stroke="#E6E7E8" stroke-miterlimit="10" x1="268.789" y1="-22.832" x2="268.789" y2="286.833"/>
	<line fill="none" stroke="#E6E7E8" stroke-miterlimit="10" x1="270.445" y1="-22.832" x2="270.445" y2="286.833"/>
	<line fill="none" stroke="#E6E7E8" stroke-miterlimit="10" x1="272.102" y1="-22.832" x2="272.102" y2="286.833"/>
	<line fill="none" stroke="#E6E7E8" stroke-miterlimit="10" x1="273.758" y1="-22.832" x2="273.758" y2="286.833"/>
	<line fill="none" stroke="#E6E7E8" stroke-miterlimit="10" x1="275.414" y1="-22.832" x2="275.414" y2="286.833"/>
	<line fill="none" stroke="#E6E7E8" stroke-miterlimit="10" x1="277.07" y1="-22.832" x2="277.07" y2="286.833"/>
	<line fill="none" stroke="#E6E7E8" stroke-miterlimit="10" x1="278.727" y1="-22.832" x2="278.727" y2="286.833"/>
	<line fill="none" stroke="#E6E7E8" stroke-miterlimit="10" x1="280.383" y1="-22.832" x2="280.383" y2="286.833"/>
	<line fill="none" stroke="#E6E7E8" stroke-miterlimit="10" x1="282.039" y1="-22.832" x2="282.039" y2="286.833"/>
	<line fill="none" stroke="#E6E7E8" stroke-miterlimit="10" x1="283.695" y1="-22.832" x2="283.695" y2="286.833"/>
	<line fill="none" stroke="#E6E7E8" stroke-miterlimit="10" x1="285.352" y1="-22.832" x2="285.352" y2="286.833"/>
	<line fill="none" stroke="#E6E7E8" stroke-miterlimit="10" x1="287.008" y1="-22.832" x2="287.008" y2="286.833"/>
	<line fill="none" stroke="#E6E7E8" stroke-miterlimit="10" x1="288.664" y1="-22.832" x2="288.664" y2="286.833"/>
	<line fill="none" stroke="#E6E7E8" stroke-miterlimit="10" x1="290.32" y1="-22.832" x2="290.32" y2="286.833"/>
	<line fill="none" stroke="#E6E7E8" stroke-miterlimit="10" x1="291.977" y1="-22.832" x2="291.977" y2="286.833"/>
	<line fill="none" stroke="#E6E7E8" stroke-miterlimit="10" x1="293.633" y1="-22.832" x2="293.633" y2="286.833"/>
	<line fill="none" stroke="#E6E7E8" stroke-miterlimit="10" x1="295.289" y1="-22.832" x2="295.289" y2="286.833"/>
	<line fill="none" stroke="#E6E7E8" stroke-miterlimit="10" x1="296.945" y1="-22.832" x2="296.945" y2="286.833"/>
	<line fill="none" stroke="#E6E7E8" stroke-miterlimit="10" x1="298.602" y1="-22.832" x2="298.602" y2="286.833"/>
	<line fill="none" stroke="#E6E7E8" stroke-miterlimit="10" x1="300.258" y1="-22.832" x2="300.258" y2="286.833"/>
	<line fill="none" stroke="#E6E7E8" stroke-miterlimit="10" x1="301.916" y1="-22.832" x2="301.916" y2="286.833"/>
	<line fill="none" stroke="#E6E7E8" stroke-miterlimit="10" x1="303.572" y1="-22.832" x2="303.572" y2="286.833"/>
	<line fill="none" stroke="#E6E7E8" stroke-miterlimit="10" x1="305.229" y1="-22.832" x2="305.229" y2="286.833"/>
	<line fill="none" stroke="#E6E7E8" stroke-miterlimit="10" x1="306.885" y1="-22.832" x2="306.885" y2="286.833"/>
	<line fill="none" stroke="#E6E7E8" stroke-miterlimit="10" x1="308.541" y1="-22.832" x2="308.541" y2="286.833"/>
	<line fill="none" stroke="#E6E7E8" stroke-miterlimit="10" x1="310.197" y1="-22.832" x2="310.197" y2="286.833"/>
	<line fill="none" stroke="#E6E7E8" stroke-miterlimit="10" x1="311.854" y1="-22.832" x2="311.854" y2="286.833"/>
	<line fill="none" stroke="#E6E7E8" stroke-miterlimit="10" x1="313.51" y1="-22.832" x2="313.51" y2="286.833"/>
	<line fill="none" stroke="#E6E7E8" stroke-miterlimit="10" x1="315.166" y1="-22.832" x2="315.166" y2="286.833"/>
	<line fill="none" stroke="#E6E7E8" stroke-miterlimit="10" x1="316.822" y1="-22.832" x2="316.822" y2="286.833"/>
	<line fill="none" stroke="#E6E7E8" stroke-miterlimit="10" x1="318.479" y1="-22.832" x2="318.479" y2="286.833"/>
	<line fill="none" stroke="#E6E7E8" stroke-miterlimit="10" x1="320.135" y1="-22.832" x2="320.135" y2="286.833"/>
	<line fill="none" stroke="#E6E7E8" stroke-miterlimit="10" x1="321.791" y1="-22.832" x2="321.791" y2="286.833"/>
	<line fill="none" stroke="#E6E7E8" stroke-miterlimit="10" x1="323.447" y1="-22.832" x2="323.447" y2="286.833"/>
	<line fill="none" stroke="#E6E7E8" stroke-miterlimit="10" x1="325.104" y1="-22.832" x2="325.104" y2="286.833"/>
	<line fill="none" stroke="#E6E7E8" stroke-miterlimit="10" x1="326.76" y1="-22.832" x2="326.76" y2="286.833"/>
	<line fill="none" stroke="#E6E7E8" stroke-miterlimit="10" x1="328.416" y1="-22.832" x2="328.416" y2="286.833"/>
	<line fill="none" stroke="#E6E7E8" stroke-miterlimit="10" x1="330.072" y1="-22.832" x2="330.072" y2="286.833"/>
	<line fill="none" stroke="#E6E7E8" stroke-miterlimit="10" x1="331.729" y1="-22.832" x2="331.729" y2="286.833"/>
	<line fill="none" stroke="#E6E7E8" stroke-miterlimit="10" x1="333.385" y1="-22.832" x2="333.385" y2="286.833"/>
	<line fill="none" stroke="#E6E7E8" stroke-miterlimit="10" x1="335.041" y1="-22.832" x2="335.041" y2="286.833"/>
	<line fill="none" stroke="#E6E7E8" stroke-miterlimit="10" x1="336.697" y1="-22.832" x2="336.697" y2="286.833"/>
	<line fill="none" stroke="#E6E7E8" stroke-miterlimit="10" x1="338.354" y1="-22.832" x2="338.354" y2="286.833"/>
	<line fill="none" stroke="#E6E7E8" stroke-miterlimit="10" x1="340.01" y1="-22.832" x2="340.01" y2="286.833"/>
	<line fill="none" stroke="#E6E7E8" stroke-miterlimit="10" x1="341.666" y1="-22.832" x2="341.666" y2="286.833"/>
	<line fill="none" stroke="#E6E7E8" stroke-miterlimit="10" x1="343.322" y1="-22.832" x2="343.322" y2="286.833"/>
	<line fill="none" stroke="#E6E7E8" stroke-miterlimit="10" x1="344.979" y1="-22.832" x2="344.979" y2="286.833"/>
	<line fill="none" stroke="#E6E7E8" stroke-miterlimit="10" x1="346.635" y1="-22.832" x2="346.635" y2="286.833"/>
	<line fill="none" stroke="#E6E7E8" stroke-miterlimit="10" x1="348.291" y1="-22.832" x2="348.291" y2="286.833"/>
</g>
</svg>
