<?xml version="1.0" encoding="utf-8"?>
<!-- Generator: Adobe Illustrator 16.0.0, SVG Export Plug-In . SVG Version: 6.00 Build 0)  -->
<!DOCTYPE svg PUBLIC "-//W3C//DTD SVG 1.1//EN" "http://www.w3.org/Graphics/SVG/1.1/DTD/svg11.dtd">
<svg version="1.1" id="Layer_1" xmlns="http://www.w3.org/2000/svg" xmlns:xlink="http://www.w3.org/1999/xlink" x="0px" y="0px"
	 width="116px" height="194px" viewBox="0 0 116 194" enable-background="new 0 0 116 194" xml:space="preserve">
<path fill="#542437" stroke="#EB008B" stroke-miterlimit="10" d="M0,123v71h116v-71H0z M29.761,137.962
	c4.809,0,8.704,3.899,8.704,8.705c0,4.81-3.896,8.708-8.704,8.708c-4.806,0-8.705-3.898-8.705-8.708
	C21.056,141.861,24.955,137.962,29.761,137.962z M9.944,180.801c0-12.941,7.436-23.437,20.375-23.437
	c12.942,0,20.378,10.495,20.378,23.437H9.944z M75,170H58v-3h17V170z M105,163H58v-3h47V163z M105,157H58v-4h47V157z M105,150H58v-4
	h47V150z M105,143H58v-3h47V143z"/>
<g>
	<path fill="#542437" stroke="#EB008B" stroke-miterlimit="10" d="M133.793,43.218v88.021c0,3.136,3.967,6.153,7.1,6.153h9.416
		V36.924h-9.416C137.76,36.924,133.793,40.083,133.793,43.218z"/>
	<path fill="#542437" stroke="#EB008B" stroke-miterlimit="10" d="M221.875,78.213V43.218c0-3.135-1.182-6.294-4.32-6.294h-64.494
		v100.469h64.494c3.139,0,4.32-3.018,4.32-6.152v-6.233v-13.763v-4.129V94.729v-2.753V78.213z M187.38,71.563
		c4.015,0,7.269,3.256,7.269,7.267c0,4.016-3.254,7.271-7.269,7.271c-4.013,0-7.269-3.256-7.269-7.271
		C180.111,74.819,183.367,71.563,187.38,71.563z M170.836,107.329c0-10.806,6.207-19.566,17.012-19.566s17.016,8.761,17.016,19.566
		H170.836z"/>
	<rect x="221.875" y="111.244" fill="#542437" stroke="#EB008B" stroke-miterlimit="10" width="6.881" height="13.762"/>
	<rect x="221.875" y="94.729" fill="#542437" stroke="#EB008B" stroke-miterlimit="10" width="6.881" height="12.387"/>
	<rect x="221.875" y="78.213" fill="#542437" stroke="#EB008B" stroke-miterlimit="10" width="6.881" height="13.763"/>
</g>
<g>
	<path fill="#542437" d="M35.348,67.083c-4.98,0-9.506,2.277-12.877,5.988c-3.682,4.055-5.987,9.823-5.987,16.229h5.987h11.484
		c1.89-7.775,6.353-14.284,12.238-18.175C43.125,68.582,39.385,67.083,35.348,67.083z"/>
	<circle fill="#542437" cx="35.348" cy="57.008" r="8.641"/>
	<path fill="#542437" d="M93.587,71.997c-3.321-3.443-7.677-5.536-12.451-5.536c-3.994,0-7.695,1.467-10.744,3.962
		c6.279,3.683,11.117,10.27,13.215,18.257h9.98H100C100,82.032,97.518,76.069,93.587,71.997z"/>
	<circle fill="#542437" cx="58.856" cy="53.38" r="11.577"/>
	<path fill="#542437" d="M82.323,88.681c-2.098-7.677-6.818-13.975-12.91-17.399c-3.201-1.801-6.781-2.81-10.557-2.81
		c-4.235,0-8.221,1.271-11.707,3.504c-5.692,3.645-10.035,9.862-11.918,17.325c-0.619,2.448-0.978,5.028-1.025,7.699h49.301
		C83.455,94.104,83.042,91.312,82.323,88.681z"/>
	<circle fill="#542437" cx="81.136" cy="56.386" r="8.64"/>
</g>
</svg>
