<?xml version="1.0" encoding="utf-8"?>
<!-- Generator: Adobe Illustrator 16.0.0, SVG Export Plug-In . SVG Version: 6.00 Build 0)  -->
<!DOCTYPE svg PUBLIC "-//W3C//DTD SVG 1.1//EN" "http://www.w3.org/Graphics/SVG/1.1/DTD/svg11.dtd">
<svg version="1.1" id="Layer_1" xmlns="http://www.w3.org/2000/svg" xmlns:xlink="http://www.w3.org/1999/xlink" x="0px" y="0px"
	 width="91px" height="194px" viewBox="0 -48.5 91 194" enable-background="new 0 -48.5 91 194" xml:space="preserve">
<path fill="#542437" d="M5.547-48.5C2.503-48.5,0-46.613,0-43.567v85.499C0,44.979,2.503,48.5,5.547,48.5H17v-97H5.547z"/>
<path fill="#542437" d="M80.013-48.5H19v97h61.013c3.049,0,4.987-3.521,4.987-6.568v-85.499C85-46.613,83.062-48.5,80.013-48.5z
	 M50.703-16.036c3.901,0,7.06,3.162,7.06,7.06c0,3.9-3.159,7.062-7.06,7.062c-3.899,0-7.062-3.162-7.062-7.062
	C43.641-12.873,46.803-16.036,50.703-16.036z M34.632,18.707c0-10.496,6.03-19.008,16.524-19.008
	c10.496,0,16.526,8.512,16.526,19.008H34.632z"/>
<rect x="85" y="23.5" fill="#542437" width="6" height="14"/>
<rect x="85" y="6.5" fill="#542437" width="6" height="14"/>
<rect x="85" y="-9.5" fill="#542437" width="6" height="14"/>
<path fill="#542437" d="M-124.273-114v47h75v-47H-124.273z M-104.551-102.673c3.104,0,5.618,2.516,5.618,5.617
	c0,3.104-2.514,5.62-5.618,5.62c-3.101,0-5.617-2.516-5.617-5.62C-110.168-100.157-107.652-102.673-104.551-102.673z
	 M-117.34-75.027c0-8.353,4.799-15.125,13.15-15.125c8.352,0,13.15,6.772,13.15,15.125H-117.34z M-74.273-80h-13v-2h13V-80z
	 M-56.273-84h-31v-2h31V-84z M-56.273-88h-31v-2h31V-88z M-56.273-92h-31v-2h31V-92z M-56.273-96h-31v-2h31V-96z M-56.273-100h-31
	v-2h31V-100z"/>
<path fill="#542437" stroke="#EB008B" stroke-miterlimit="10" d="M5.547,49.125C2.503,49.125,0,51.012,0,54.059v85.498
	c0,3.047,2.503,6.568,5.547,6.568H17v-97H5.547z"/>
<path fill="#542437" stroke="#EB008B" stroke-miterlimit="10" d="M80.014,49.125H19v97h61.014c3.049,0,4.986-3.521,4.986-6.568
	V54.059C85,51.012,83.063,49.125,80.014,49.125z M50.703,81.589c3.9,0,7.061,3.162,7.061,7.06c0,3.9-3.16,7.063-7.061,7.063
	c-3.898,0-7.062-3.162-7.062-7.063C43.641,84.752,46.803,81.589,50.703,81.589z M34.632,116.332c0-10.496,6.03-19.008,16.524-19.008
	c10.496,0,16.525,8.512,16.525,19.008H34.632z"/>
<rect x="85" y="121.125" fill="#542437" stroke="#EB008B" stroke-miterlimit="10" width="6" height="14"/>
<rect x="85" y="104.125" fill="#542437" stroke="#EB008B" stroke-miterlimit="10" width="6" height="14"/>
<rect x="85" y="88.125" fill="#542437" stroke="#EB008B" stroke-miterlimit="10" width="6" height="14"/>
<g>
	<path fill="#542437" stroke="#EB008B" stroke-miterlimit="10" d="M161.793-4.228v88.021c0,3.137,3.967,6.154,7.1,6.154h9.416
		V-10.521h-9.416C165.76-10.521,161.793-7.363,161.793-4.228z"/>
	<path fill="#542437" stroke="#EB008B" stroke-miterlimit="10" d="M249.875,30.767V-4.228c0-3.135-1.182-6.294-4.321-6.294h-64.493
		V89.947h64.493c3.14,0,4.321-3.018,4.321-6.154v-6.232V63.799V59.67V47.283V44.53V30.767z M215.38,24.117
		c4.015,0,7.269,3.256,7.269,7.267c0,4.016-3.254,7.271-7.269,7.271c-4.013,0-7.269-3.256-7.269-7.271
		C208.111,27.373,211.367,24.117,215.38,24.117z M198.836,59.883c0-10.805,6.207-19.566,17.011-19.566
		c10.806,0,17.016,8.761,17.016,19.566H198.836z"/>
	<rect x="249.875" y="63.799" fill="#542437" stroke="#EB008B" stroke-miterlimit="10" width="6.881" height="13.762"/>
	<rect x="249.875" y="47.283" fill="#542437" stroke="#EB008B" stroke-miterlimit="10" width="6.881" height="12.387"/>
	<rect x="249.875" y="30.767" fill="#542437" stroke="#EB008B" stroke-miterlimit="10" width="6.881" height="13.763"/>
</g>
</svg>
