<?xml version="1.0" encoding="utf-8"?>
<!-- Generator: Adobe Illustrator 16.0.0, SVG Export Plug-In . SVG Version: 6.00 Build 0)  -->
<!DOCTYPE svg PUBLIC "-//W3C//DTD SVG 1.1//EN" "http://www.w3.org/Graphics/SVG/1.1/DTD/svg11.dtd">
<svg version="1.1" id="Layer_1" xmlns="http://www.w3.org/2000/svg" xmlns:xlink="http://www.w3.org/1999/xlink" x="0px" y="0px"
	 width="116px" height="194px" viewBox="0 0 116 194" enable-background="new 0 0 116 194" xml:space="preserve">
<path fill="#542437" stroke="#EB008B" stroke-miterlimit="10" d="M0,123v71h116v-71H0z M29.761,137.962
	c4.809,0,8.704,3.899,8.704,8.705c0,4.81-3.896,8.708-8.704,8.708c-4.806,0-8.705-3.898-8.705-8.708
	C21.056,141.861,24.955,137.962,29.761,137.962z M9.944,180.801c0-12.941,7.436-23.437,20.375-23.437
	c12.942,0,20.378,10.495,20.378,23.437H9.944z M75,170H58v-3h17V170z M105,163H58v-3h47V163z M105,157H58v-4h47V157z M105,150H58v-4
	h47V150z M105,143H58v-3h47V143z"/>
<g>
	<path fill="#542437" stroke="#EB008B" stroke-miterlimit="10" d="M133.793,43.218v88.021c0,3.136,3.967,6.153,7.1,6.153h9.416
		V36.924h-9.416C137.76,36.924,133.793,40.083,133.793,43.218z"/>
	<path fill="#542437" stroke="#EB008B" stroke-miterlimit="10" d="M221.875,78.213V43.218c0-3.135-1.182-6.294-4.32-6.294h-64.494
		v100.469h64.494c3.139,0,4.32-3.018,4.32-6.152v-6.233v-13.763v-4.129V94.729v-2.753V78.213z M187.38,71.563
		c4.015,0,7.269,3.256,7.269,7.267c0,4.016-3.254,7.271-7.269,7.271c-4.013,0-7.269-3.256-7.269-7.271
		C180.111,74.819,183.367,71.563,187.38,71.563z M170.836,107.329c0-10.806,6.207-19.566,17.012-19.566s17.016,8.761,17.016,19.566
		H170.836z"/>
	<rect x="221.875" y="111.244" fill="#542437" stroke="#EB008B" stroke-miterlimit="10" width="6.881" height="13.762"/>
	<rect x="221.875" y="94.729" fill="#542437" stroke="#EB008B" stroke-miterlimit="10" width="6.881" height="12.387"/>
	<rect x="221.875" y="78.213" fill="#542437" stroke="#EB008B" stroke-miterlimit="10" width="6.881" height="13.763"/>
</g>
<g>
	<polygon fill="#542437" points="55.661,28.972 29.571,45.795 11.266,31.253 37.982,13.987 	"/>
	<polygon fill="#542437" points="82.179,45.795 55.661,28.972 73.319,13.987 100,30.968 	"/>
	<polygon fill="#542437" points="37.983,76.732 11.266,60.051 29.571,45.795 55.661,61.334 	"/>
	<polygon fill="#542437" points="100,60.194 73.625,76.732 55.661,61.334 82.179,45.795 	"/>
	<polygon fill="#542437" points="73.651,79.776 55.661,64.266 38.112,79.848 28.858,74.209 28.858,79.868 55.661,97 82.33,80.568 
		82.33,74.366 	"/>
</g>
</svg>
