<?xml version="1.0" encoding="utf-8"?>
<!-- Generator: Adobe Illustrator 16.0.0, SVG Export Plug-In . SVG Version: 6.00 Build 0)  -->
<!DOCTYPE svg PUBLIC "-//W3C//DTD SVG 1.1//EN" "http://www.w3.org/Graphics/SVG/1.1/DTD/svg11.dtd">
<svg version="1.1" id="Layer_1" xmlns="http://www.w3.org/2000/svg" xmlns:xlink="http://www.w3.org/1999/xlink" x="0px" y="0px"
	 width="95.928px" height="194px" viewBox="0 -48.5 95.928 194" enable-background="new 0 -48.5 95.928 194" xml:space="preserve">
<g>
	<path fill="#542437" stroke="#EB008B" stroke-miterlimit="10" d="M58.893,70.031v6.699c0,2.111,1.71,3.819,3.819,3.819h6.707
		L58.893,70.031z"/>
	<path fill="#542437" stroke="#EB008B" stroke-miterlimit="10" d="M69.392,104.771V83.204h-9.549c-2.11,0-3.817-1.71-3.817-3.821
		v-9.352H29.35c-2.108,0-3.817,1.708-3.817,3.814v30.926H69.392z M37.358,87.66H56.66c0.879,0,1.59,0.711,1.59,1.587
		c0,0.879-0.711,1.592-1.59,1.592H37.358c-0.879,0-1.593-0.713-1.593-1.592C35.766,88.371,36.479,87.66,37.358,87.66z
		 M37.358,94.656H56.66c0.879,0,1.59,0.71,1.59,1.592c0,0.879-0.711,1.59-1.59,1.59H37.358c-0.879,0-1.593-0.711-1.593-1.59
		C35.766,95.367,36.479,94.656,37.358,94.656z"/>
	<path fill="#542437" stroke="#EB008B" stroke-miterlimit="10" d="M85.268,107.732H69.392v-0.265h-43.86v0.265H10.66
		c-5.888,0-10.66,4.771-10.66,10.662v16.445c0,5.889,4.772,10.66,10.66,10.66h74.607c5.89,0,10.661-4.771,10.661-10.66v-16.445
		C95.929,112.504,91.157,107.732,85.268,107.732z M69.907,130.207c0,2.365-3.477,4.287-7.747,4.287H33.764
		c-4.265,0-7.741-1.922-7.741-4.287v-3.143c0-0.478,0.693-0.859,1.547-0.859h6.118c0.856,0,1.55,0.383,1.55,0.859v0.785
		c0,0.85,1.252,1.543,2.79,1.543H57.9c1.541,0,2.79-0.693,2.79-1.543v-0.785c0-0.478,0.696-0.859,1.549-0.859h6.119
		c0.856,0,1.55,0.383,1.55,0.859L69.907,130.207L69.907,130.207z M86.467,140.889c-1.967,0-3.558-1.595-3.558-3.558
		c0-1.679,1.165-3.089,2.729-3.458v1.551c0,0.458,0.373,0.826,0.829,0.826c0.452,0,0.819-0.368,0.819-0.826v-1.551
		c1.568,0.369,2.733,1.779,2.733,3.458C90.02,139.294,88.427,140.889,86.467,140.889z"/>
</g>
<g>
	<path fill="#542437" d="M58.893-26.968v6.699c0,2.111,1.711,3.819,3.819,3.819h6.707L58.893-26.968z"/>
	<path fill="#542437" d="M69.393,7.772v-21.567h-9.55c-2.11,0-3.817-1.71-3.817-3.821v-9.352H29.35
		c-2.108,0-3.817,1.708-3.817,3.814V7.772H69.393z M37.358-9.339H56.66c0.879,0,1.59,0.711,1.59,1.587
		c0,0.879-0.711,1.592-1.59,1.592H37.358c-0.879,0-1.593-0.713-1.593-1.592C35.766-8.628,36.479-9.339,37.358-9.339z M37.358-2.343
		H56.66c0.879,0,1.59,0.71,1.59,1.592c0,0.879-0.711,1.59-1.59,1.59H37.358c-0.879,0-1.593-0.711-1.593-1.59
		C35.766-1.632,36.479-2.343,37.358-2.343z"/>
	<path fill="#542437" d="M85.268,10.733H69.393v-0.265h-43.86v0.265H10.66C4.772,10.733,0,15.504,0,21.395V37.84
		C0,43.729,4.772,48.5,10.66,48.5h74.607c5.89,0,10.66-4.771,10.66-10.66V21.395C95.93,15.504,91.157,10.733,85.268,10.733z
		 M69.907,33.208c0,2.365-3.478,4.287-7.747,4.287H33.764c-4.265,0-7.741-1.922-7.741-4.287v-3.143c0-0.478,0.693-0.859,1.547-0.859
		h6.118c0.856,0,1.55,0.383,1.55,0.859v0.785c0,0.85,1.252,1.543,2.79,1.543H57.9c1.541,0,2.789-0.693,2.789-1.543v-0.785
		c0-0.478,0.697-0.859,1.549-0.859h6.119c0.856,0,1.551,0.383,1.551,0.859L69.907,33.208L69.907,33.208z M86.467,43.889
		c-1.967,0-3.558-1.595-3.558-3.558c0-1.679,1.165-3.089,2.729-3.458v1.551c0,0.458,0.373,0.826,0.828,0.826
		c0.452,0,0.819-0.368,0.819-0.826v-1.551c1.567,0.369,2.733,1.779,2.733,3.458C90.02,42.294,88.427,43.889,86.467,43.889z"/>
</g>
</svg>
