<?xml version="1.0" encoding="utf-8"?>
<!-- Generator: Adobe Illustrator 16.0.0, SVG Export Plug-In . SVG Version: 6.00 Build 0)  -->
<!DOCTYPE svg PUBLIC "-//W3C//DTD SVG 1.1//EN" "http://www.w3.org/Graphics/SVG/1.1/DTD/svg11.dtd">
<svg version="1.1" id="Layer_1" xmlns="http://www.w3.org/2000/svg" xmlns:xlink="http://www.w3.org/1999/xlink" x="0px" y="0px"
	 width="122px" height="194px" viewBox="-0.169 0 122 194" enable-background="new -0.169 0 122 194" xml:space="preserve">
<g>
	<path fill="#542437" stroke="#EB008B" stroke-miterlimit="10" d="M-190.107,32.537v6.699c0,2.111,1.71,3.819,3.819,3.819h6.707
		L-190.107,32.537z"/>
	<path fill="#542437" stroke="#EB008B" stroke-miterlimit="10" d="M-179.608,67.277V45.71h-9.549c-2.11,0-3.817-1.71-3.817-3.821
		v-9.352h-26.676c-2.107,0-3.816,1.708-3.816,3.814v30.926H-179.608z M-211.643,50.166h19.303c0.879,0,1.59,0.711,1.59,1.587
		c0,0.879-0.711,1.592-1.59,1.592h-19.303c-0.879,0-1.593-0.713-1.593-1.592C-213.234,50.877-212.521,50.166-211.643,50.166z
		 M-211.643,57.162h19.303c0.879,0,1.59,0.71,1.59,1.592c0,0.879-0.711,1.59-1.59,1.59h-19.303c-0.879,0-1.593-0.711-1.593-1.59
		C-213.234,57.873-212.521,57.162-211.643,57.162z"/>
	<path fill="#542437" stroke="#EB008B" stroke-miterlimit="10" d="M-163.732,70.238h-15.876v-0.266h-43.859v0.266h-14.872
		c-5.889,0-10.66,4.771-10.66,10.662v16.444c0,5.891,4.771,10.66,10.66,10.66h74.606c5.891,0,10.661-4.771,10.661-10.66V80.9
		C-153.071,75.01-157.843,70.238-163.732,70.238z M-179.093,92.713c0,2.365-3.478,4.287-7.747,4.287h-28.396
		c-4.265,0-7.741-1.922-7.741-4.287V89.57c0-0.479,0.693-0.859,1.547-0.859h6.118c0.856,0,1.55,0.383,1.55,0.859v0.785
		c0,0.85,1.253,1.543,2.79,1.543h19.872c1.541,0,2.79-0.693,2.79-1.543V89.57c0-0.479,0.696-0.859,1.549-0.859h6.119
		c0.856,0,1.551,0.383,1.551,0.859L-179.093,92.713L-179.093,92.713z M-162.533,103.395c-1.967,0-3.558-1.595-3.558-3.558
		c0-1.679,1.165-3.089,2.729-3.458v1.551c0,0.459,0.373,0.826,0.829,0.826c0.452,0,0.819-0.367,0.819-0.826v-1.551
		c1.567,0.369,2.732,1.779,2.732,3.458C-158.98,101.8-160.573,103.395-162.533,103.395z"/>
</g>
<g>
	<path fill="#542437" d="M-190.107-64.462v6.699c0,2.111,1.711,3.819,3.819,3.819h6.707L-190.107-64.462z"/>
	<path fill="#542437" d="M-179.607-29.722v-21.567h-9.55c-2.11,0-3.817-1.71-3.817-3.821v-9.352h-26.676
		c-2.107,0-3.816,1.708-3.816,3.814v30.926H-179.607z M-211.643-46.833h19.303c0.879,0,1.59,0.711,1.59,1.587
		c0,0.879-0.711,1.592-1.59,1.592h-19.303c-0.879,0-1.593-0.713-1.593-1.592C-213.234-46.122-212.521-46.833-211.643-46.833z
		 M-211.643-39.837h19.303c0.879,0,1.59,0.71,1.59,1.592c0,0.879-0.711,1.59-1.59,1.59h-19.303c-0.879,0-1.593-0.711-1.593-1.59
		C-213.234-39.126-212.521-39.837-211.643-39.837z"/>
	<path fill="#542437" d="M-163.732-26.761h-15.875v-0.265h-43.859v0.265h-14.873c-5.889,0-10.66,4.771-10.66,10.662V0.346
		c0,5.889,4.771,10.66,10.66,10.66h74.606c5.891,0,10.66-4.771,10.66-10.66v-16.445C-153.07-21.99-157.843-26.761-163.732-26.761z
		 M-179.093-4.286c0,2.365-3.479,4.287-7.747,4.287h-28.396c-4.265,0-7.741-1.922-7.741-4.287v-3.143
		c0-0.478,0.693-0.859,1.547-0.859h6.118c0.856,0,1.55,0.383,1.55,0.859v0.785c0,0.85,1.253,1.543,2.79,1.543h19.872
		c1.541,0,2.789-0.693,2.789-1.543v-0.785c0-0.478,0.697-0.859,1.549-0.859h6.119c0.856,0,1.552,0.383,1.552,0.859L-179.093-4.286
		L-179.093-4.286z M-162.533,6.395c-1.967,0-3.558-1.595-3.558-3.558c0-1.679,1.165-3.089,2.729-3.458V0.93
		c0,0.458,0.373,0.826,0.828,0.826c0.452,0,0.819-0.368,0.819-0.826v-1.551c1.566,0.369,2.732,1.779,2.732,3.458
		C-158.98,4.8-160.573,6.395-162.533,6.395z"/>
</g>
<g>
	<polygon fill="#542437" points="23.698,84.074 23.698,85.099 24.536,84.588 	"/>
	<path fill="#542437" d="M24.295,73.15c0.476,0,0.848-0.208,1.117-0.621c0.228-0.354,0.34-0.786,0.34-1.284
		c0-0.497-0.114-0.924-0.348-1.281c-0.269-0.418-0.638-0.625-1.109-0.625c-0.464,0-0.834,0.208-1.108,0.625
		c-0.233,0.362-0.35,0.79-0.35,1.281c0,0.483,0.12,0.913,0.358,1.277C23.47,72.943,23.836,73.15,24.295,73.15z"/>
	<path fill="#542437" d="M25.476,54.751c0.186-0.386,0.278-0.792,0.278-1.215c0-0.327-0.058-0.628-0.177-0.907
		c-0.155-0.357-0.375-0.535-0.659-0.535c-0.29,0-0.511,0.19-0.66,0.574c-0.114,0.284-0.171,0.596-0.171,0.938
		c0,0.639,0.165,1.29,0.496,1.953C24.95,55.475,25.247,55.207,25.476,54.751z"/>
	<path fill="#542437" d="M17.93,39.458v47.043c0,1.988,1.616,3.601,3.603,3.601h9.201V35.857h-9.201
		C19.546,35.857,17.93,37.474,17.93,39.458z M25.645,84.86l-3.403,2.066V85.98l0.806-0.48v-1.819l-0.806-0.488v-0.922l3.403,2.052
		V84.86z M22.242,40.729l3.418,2.837l-0.001-3.434h0.711v5.106l0.001,0.001h-0.001v-0.001l-4.129-3.455V40.729z M22.242,46.039
		c0.078,0.005,0.178,0.003,0.302-0.007c0.145-0.011,0.245-0.017,0.302-0.017c0.476,0,0.84,0.134,1.093,0.397
		c0.208,0.21,0.383,0.564,0.527,1.061c0.098,0.346,0.196,0.692,0.294,1.039c0.208,0.619,0.372,0.929,0.498,0.929
		c0.173,0,0.308-0.131,0.401-0.396c0.061-0.186,0.092-0.389,0.092-0.61c0-0.501-0.217-1.137-0.651-1.907l0.574-0.512
		c0.52,0.766,0.781,1.553,0.781,2.364c0,0.477-0.083,0.896-0.25,1.265c-0.216,0.474-0.538,0.712-0.963,0.712
		c-0.315,0-0.587-0.233-0.815-0.697c-0.114-0.239-0.274-0.711-0.481-1.418c-0.178-0.594-0.33-0.968-0.458-1.124
		c-0.114-0.135-0.295-0.202-0.544-0.202v3.533h-0.702V46.039z M22.917,51.42l0.525,0.543c-0.396,0.559-0.595,1.136-0.595,1.734
		c0,0.397,0.064,0.749,0.193,1.053c0.15,0.371,0.382,0.623,0.698,0.751c-0.238-0.656-0.354-1.286-0.354-1.89
		c0-0.584,0.111-1.105,0.331-1.567c0.281-0.583,0.678-0.874,1.201-0.874c0.531,0,0.936,0.275,1.214,0.829
		c0.218,0.438,0.326,0.953,0.326,1.542c0,0.758-0.172,1.421-0.511,1.983c-0.402,0.672-0.959,1.008-1.672,1.008
		c-0.692,0-1.235-0.306-1.626-0.915c-0.339-0.527-0.512-1.158-0.512-1.891C22.135,52.866,22.396,52.096,22.917,51.42z
		 M22.372,58.318c0.158-0.442,0.417-0.886,0.779-1.318l0.572,0.557c-0.31,0.403-0.529,0.751-0.66,1.046
		c-0.148,0.357-0.224,0.761-0.224,1.209c0,0.33,0.05,0.654,0.147,0.969c0.14,0.435,0.336,0.651,0.591,0.651
		c0.278,0,0.456-0.24,0.534-0.719c0.025-0.177,0.039-0.518,0.039-1.023h0.705c0,0.053,0,0.127,0,0.227
		c-0.005,0.096-0.006,0.169-0.006,0.214c0,0.635,0.133,0.954,0.402,0.954c0.186,0,0.323-0.134,0.411-0.402
		c0.061-0.191,0.092-0.406,0.092-0.645c0-0.624-0.208-1.261-0.621-1.914l0.61-0.52c0.477,0.756,0.714,1.577,0.714,2.464
		c0,0.48-0.083,0.896-0.248,1.239c-0.209,0.45-0.532,0.675-0.96,0.675c-0.114,0-0.241-0.032-0.379-0.095
		c-0.14-0.062-0.243-0.135-0.312-0.225c-0.23,0.452-0.554,0.675-0.967,0.675c-0.494,0-0.877-0.307-1.145-0.922
		c-0.208-0.477-0.311-0.999-0.311-1.574C22.135,59.276,22.213,58.765,22.372,58.318z M22.242,64.905v-1.054l3.418,2.835l-0.001-3.43
		h0.711v5.104l0.001,0.001h-0.001v-0.001L22.242,64.905z M22.663,69.354c0.396-0.618,0.941-0.93,1.633-0.93
		c0.693,0,1.239,0.312,1.643,0.93c0.345,0.533,0.519,1.163,0.519,1.89c0,0.738-0.174,1.367-0.519,1.901
		c-0.397,0.607-0.944,0.913-1.643,0.913c-0.691,0-1.238-0.308-1.633-0.924c-0.352-0.536-0.528-1.165-0.528-1.89
		C22.135,70.516,22.311,69.888,22.663,69.354z M22.955,74.583l0.62,0.447c-0.247,0.426-0.418,0.76-0.511,1.01
		c-0.146,0.359-0.217,0.725-0.217,1.097c0,0.324,0.07,0.624,0.209,0.893c0.172,0.328,0.405,0.497,0.701,0.497
		c0.273,0,0.481-0.186,0.621-0.552c0.098-0.27,0.146-0.57,0.146-0.897c0-0.521-0.133-1.038-0.398-1.55v-0.556h2.246v4.027
		l-0.71-0.007v-3.139h-0.591c0.104,0.427,0.157,0.832,0.157,1.226c0,0.584-0.109,1.09-0.326,1.528
		c-0.271,0.549-0.676,0.818-1.208,0.818c-0.512,0-0.911-0.27-1.2-0.81c-0.238-0.444-0.359-0.948-0.359-1.506
		C22.134,76.235,22.408,75.394,22.955,74.583z"/>
	<path fill="#542437" d="M121.661,29.393v-0.004c-0.685-0.056-1.222-0.622-1.222-1.321c0-0.029,0.008-0.058,0.008-0.089
		c-4.895,0.012-9.8,0.088-14.694,0.008c-0.787-0.012-1.557,0.081-2.557,0.081c-1.303,0-0.788,0.94-0.806,2.054l-0.363,0.162
		c0,0,0.48,0.121,0.443,0.363c-0.039,0.242-0.123,0.727-0.244,0.767c-0.118,0.04,0,0.282-0.078,0.402
		c-0.084,0.121,0.038,0.647,0.038,0.647s0.284,0.243,0.161,0.565c-0.121,0.322-0.077,0.726,0.123,0.646c0,0,0,0.282-0.284,0.402
		c-0.284,0.121-0.967,0.284-1.21,0.243c0,0-0.2,0.323-0.36,0.243c0,0-0.063,0.124-0.157,0.267h0.799c2.553,0,4.63,2.077,4.63,4.629
		v47.044c0,2.553-2.077,4.632-4.63,4.632H21.531c-2.554,0-4.63-2.08-4.63-4.632V39.459c0-2.552,2.076-4.629,4.63-4.629h72.917
		c-0.06-0.136-0.103-0.275-0.092-0.391c0.046-0.363-0.275-0.928-0.44-1.13c-0.162-0.203,0.12-0.403,0.12-0.403
		s-0.2-0.525-0.161-0.686c0.041-0.162-0.36-0.162-0.444-0.404c-0.077-0.243,0.045-0.646-0.12-1.049
		c-0.163-0.402-0.765-0.604-1.411-0.565c-0.021-0.537,0.14-1.199-0.204-1.633c-0.569-0.719-2.618-0.545-3.416-0.554
		c-2.71-0.039-5.417-0.043-8.127-0.042c-7.334,0.002-14.668,0.004-22.005,0.003c-8.316-0.001-16.631-0.001-24.945-0.001
		c-7.154,0.001-14.306,0.001-21.461,0c-3.076,0-6.153,0-9.228,0c0.004,0.029,0.009,0.06,0.009,0.09c0,0.569-0.357,1.043-0.857,1.236
		v0.179c0.5,0.19,0.857,0.667,0.857,1.233c0,0.568-0.357,1.043-0.857,1.235v0.178c0.5,0.19,0.857,0.666,0.857,1.233
		c0,0.568-0.357,1.043-0.857,1.233v0.178c0.5,0.191,0.857,0.666,0.857,1.234c0,0.568-0.357,1.042-0.857,1.232v0.179
		c0.5,0.19,0.857,0.666,0.857,1.233s-0.357,1.043-0.857,1.233v0.179c0.5,0.191,0.857,0.666,0.857,1.234
		c0,0.566-0.357,1.042-0.857,1.232v0.18c0.5,0.191,0.857,0.665,0.857,1.234c0,0.567-0.356,1.05-0.857,1.242c0,0.321,0,0.501,0,0.501
		c5.045,0.688,9.019,7.937,9.019,16.793c0,8.858-3.974,16.104-9.019,16.795v0.472c0.501,0.191,0.857,0.672,0.857,1.241
		c0,0.566-0.357,1.044-0.857,1.233v0.176c0.5,0.193,0.857,0.667,0.857,1.237c0,0.566-0.357,1.045-0.857,1.234v0.176
		c0.5,0.193,0.857,0.667,0.857,1.238c0,0.566-0.357,1.044-0.857,1.234v0.176c0.5,0.193,0.857,0.667,0.857,1.238
		c0,0.566-0.357,1.044-0.857,1.232v0.177c0.5,0.193,0.857,0.667,0.857,1.237c0,0.565-0.357,1.043-0.857,1.232v0.178
		c0.5,0.191,0.857,0.666,0.857,1.236c0,0.565-0.357,1.044-0.857,1.231v0.179c0.5,0.192,0.857,0.667,0.857,1.236
		c0,0.044-0.007,0.082-0.01,0.126H120.45c-0.005-0.044-0.012-0.082-0.012-0.126c0-0.7,0.536-1.262,1.221-1.321v-0.003
		c-0.685-0.057-1.221-0.623-1.221-1.321s0.536-1.263,1.221-1.32v-0.004c-0.685-0.059-1.221-0.621-1.221-1.319
		c0-0.701,0.536-1.268,1.221-1.32V90.25c-0.685-0.059-1.221-0.621-1.221-1.32c0-0.7,0.536-1.267,1.221-1.32v-0.004
		c-0.685-0.058-1.221-0.627-1.221-1.32c0-0.7,0.536-1.263,1.221-1.319v-0.005c-0.685-0.058-1.221-0.626-1.221-1.32
		c0-0.705,0.536-1.261,1.221-1.32v-0.004c-0.685-0.058-1.221-0.627-1.221-1.321c0-0.699,0.536-1.266,1.221-1.324v-0.39
		c-5.047-0.692-9.019-7.937-9.019-16.792c0-8.855,3.974-16.105,9.019-16.794v-0.421c-0.685-0.059-1.221-0.625-1.221-1.322
		c0-0.699,0.536-1.263,1.221-1.321v-0.004c-0.685-0.059-1.221-0.624-1.221-1.321c0-0.698,0.536-1.263,1.221-1.322v-0.003
		c-0.685-0.058-1.221-0.623-1.221-1.321c0-0.698,0.536-1.262,1.221-1.321v-0.011c-0.685-0.058-1.221-0.622-1.221-1.321
		c0-0.698,0.536-1.262,1.221-1.321v-0.002c-0.685-0.059-1.221-0.624-1.221-1.322c0-0.698,0.536-1.264,1.221-1.321v-0.003
		c-0.685-0.058-1.221-0.622-1.221-1.321C120.439,30.017,120.977,29.451,121.661,29.393z"/>
	<path fill="#542437" d="M98.374,57.723c0.466,0,0.833-0.208,1.109-0.63c0.229-0.362,0.349-0.786,0.349-1.278
		c0-0.485-0.119-0.912-0.354-1.277c-0.275-0.42-0.643-0.629-1.104-0.629c-0.476,0-0.845,0.207-1.116,0.622
		c-0.227,0.358-0.342,0.784-0.342,1.285c0,0.498,0.115,0.923,0.353,1.278C97.535,57.516,97.904,57.723,98.374,57.723z"/>
	<path fill="#542437" d="M92.056,90.102h9.205c1.983,0,3.601-1.613,3.601-3.601V39.457c0-1.984-1.617-3.601-3.601-3.601h-1.757
		c-0.007-0.047-0.016-0.078-0.016-0.083c-0.002,0-0.002,0-0.003,0c0,0,0.084,0.324-0.038,0.525C99.324,36.5,98.52,36.58,98.52,36.58
		s-0.205,0.646-0.205,0.767c0,0.122-0.203,0.605-0.483,0.686c-0.281,0.081-0.767,0.243-0.928,0.443
		c-0.161,0.202-0.644,0.324-0.765,0.363c-0.129,0.041-0.206,0.322-0.449,0.404c-0.058,0.02-0.181,0.046-0.34,0.074l-0.254,1.452
		c0,0,0.498,1.199,0.397,2.1c-0.057,0.535-0.296,1.5-0.296,1.5l-0.503,2.599l0.102-1.399c0,0,0.04-0.61,0.09-1.219
		c0.034-0.376,0.071-0.752,0.111-0.981c0.099-0.6,0.099-1.501-0.303-1.9c-0.399-0.401-0.696-2.146-0.696-2.146
		c-0.162-0.201-0.082-1.332,0.245-1.572c0,0,0.039-1.654,0.52-1.898l0,0c-0.002,0.002-0.007,0.005-0.009,0.005h-2.698V90.102
		L92.056,90.102z M100.43,86.329l-3.421-2.836v3.434h-0.712v-5.105l-0.001-0.001h0.001v0.001l4.133,3.454V86.329L100.43,86.329z
		 M97.022,42.202l3.407-2.068v0.947l-0.81,0.479v1.821l0.81,0.486v0.923l-3.407-2.053V42.202z M96.297,48.061l0.712,0.007v3.137
		H97.6c-0.106-0.423-0.159-0.831-0.159-1.224c0-0.584,0.111-1.092,0.326-1.527c0.274-0.545,0.677-0.82,1.208-0.82
		c0.511,0,0.912,0.271,1.202,0.813c0.237,0.445,0.357,0.946,0.357,1.504c0,0.873-0.275,1.714-0.823,2.526l-0.618-0.451
		c0.246-0.425,0.418-0.759,0.512-1.006c0.144-0.362,0.217-0.73,0.217-1.102c0-0.325-0.07-0.622-0.21-0.891
		c-0.172-0.332-0.4-0.496-0.699-0.496c-0.275,0-0.481,0.183-0.623,0.55c-0.096,0.269-0.146,0.569-0.146,0.899
		c0,0.521,0.133,1.04,0.4,1.551v0.557h-2.247L96.297,48.061L96.297,48.061z M96.729,53.915c0.398-0.609,0.945-0.913,1.645-0.913
		c0.691,0,1.239,0.306,1.633,0.922c0.352,0.537,0.528,1.167,0.528,1.89c0,0.729-0.177,1.36-0.528,1.89
		c-0.396,0.62-0.941,0.931-1.633,0.931c-0.692,0-1.238-0.311-1.645-0.931c-0.342-0.53-0.515-1.163-0.515-1.89
		C96.215,55.081,96.387,54.447,96.729,53.915z M96.296,58.7L96.296,58.7L96.296,58.7l4.134,3.455v1.054l-3.421-2.835v3.433h-0.712
		L96.296,58.7L96.296,58.7z M96.462,65.752c0.209-0.447,0.529-0.673,0.96-0.673c0.113,0,0.24,0.032,0.38,0.093
		c0.138,0.063,0.245,0.137,0.31,0.226c0.23-0.447,0.552-0.674,0.968-0.674c0.497,0,0.878,0.307,1.146,0.922
		c0.208,0.474,0.312,0.999,0.312,1.573c0,0.567-0.076,1.076-0.238,1.522c-0.155,0.446-0.418,0.888-0.779,1.32l-0.568-0.559
		c0.31-0.4,0.526-0.749,0.658-1.044c0.146-0.358,0.222-0.759,0.222-1.209c0-0.329-0.051-0.652-0.146-0.968
		c-0.138-0.436-0.336-0.649-0.59-0.649c-0.277,0-0.459,0.24-0.535,0.718c-0.024,0.175-0.038,0.516-0.038,1.022h-0.706
		c0-0.055,0-0.128,0-0.225c0.007-0.097,0.014-0.171,0.014-0.215c0-0.634-0.138-0.954-0.406-0.954c-0.188,0-0.324,0.134-0.413,0.403
		c-0.06,0.188-0.093,0.402-0.093,0.642c0,0.624,0.209,1.264,0.619,1.916l-0.608,0.518c-0.476-0.754-0.71-1.578-0.71-2.464
		C96.215,66.512,96.296,66.099,96.462,65.752z M96.726,71.531c0.402-0.67,0.956-1.005,1.669-1.005c0.696,0,1.237,0.304,1.63,0.913
		c0.34,0.527,0.511,1.16,0.511,1.892c0,0.861-0.261,1.631-0.782,2.309l-0.527-0.545c0.4-0.558,0.597-1.135,0.597-1.734
		c0-0.399-0.065-0.747-0.195-1.052c-0.146-0.372-0.379-0.625-0.696-0.752c0.238,0.659,0.355,1.287,0.355,1.89
		c0,0.585-0.11,1.106-0.332,1.566c-0.279,0.586-0.677,0.877-1.199,0.877c-0.531,0-0.938-0.278-1.214-0.831
		c-0.219-0.438-0.326-0.952-0.326-1.542C96.215,72.757,96.385,72.094,96.726,71.531z M96.463,77.418
		c0.217-0.475,0.538-0.71,0.964-0.71c0.314,0,0.588,0.229,0.814,0.695c0.112,0.239,0.275,0.711,0.479,1.418
		c0.181,0.592,0.33,0.971,0.461,1.125c0.114,0.133,0.297,0.2,0.543,0.2v-3.533h0.705v4.409c-0.078-0.007-0.177-0.003-0.304,0.007
		c-0.147,0.011-0.246,0.015-0.303,0.015c-0.476,0-0.839-0.133-1.089-0.395c-0.209-0.21-0.384-0.566-0.525-1.063
		c-0.103-0.343-0.202-0.692-0.298-1.037c-0.208-0.622-0.373-0.932-0.498-0.932c-0.172,0-0.308,0.133-0.401,0.396
		c-0.062,0.189-0.093,0.394-0.093,0.615c0,0.499,0.218,1.135,0.651,1.906l-0.571,0.51c-0.523-0.765-0.782-1.548-0.782-2.364
		C96.215,78.206,96.297,77.784,96.463,77.418z"/>
	<polygon fill="#542437" points="98.969,42.985 98.969,41.963 98.135,42.473 	"/>
	<path fill="#542437" d="M97.754,74.966c0.291,0,0.509-0.192,0.659-0.573c0.115-0.285,0.171-0.597,0.171-0.936
		c0.002-0.643-0.166-1.295-0.496-1.953c-0.367,0.082-0.667,0.35-0.893,0.804c-0.187,0.388-0.279,0.792-0.279,1.217
		c0,0.325,0.057,0.629,0.18,0.906C97.248,74.787,97.47,74.966,97.754,74.966z"/>
	<path fill="#542437" d="M65.592,59.39c-0.268,0-0.463,0.094-0.579,0.28c-0.119,0.186-0.175,0.398-0.175,0.629v3.667l1.513-1.517
		v-2.149c0-0.234-0.055-0.444-0.166-0.629C66.075,59.483,65.878,59.39,65.592,59.39z"/>
	<g>
		<path fill="#542437" d="M31.763,35.857v54.244h59.263V35.857H31.763z M46.086,49.307h-2.224v14.91h-3.617v-14.91h-2.224v-3.615
			h8.063L46.086,49.307L46.086,49.307z M50.308,64.217h-3.612V45.692h3.612V64.217z M60.239,49.328c-0.79,0-1.531,0.148-2.223,0.441
			c-0.692,0.295-1.293,0.696-1.808,1.201c-0.517,0.506-0.923,1.101-1.226,1.783c-0.305,0.683-0.454,1.418-0.454,2.212
			c0,0.791,0.149,1.529,0.454,2.212c0.303,0.683,0.716,1.277,1.239,1.781c0.523,0.506,1.129,0.907,1.819,1.201
			c0.691,0.294,1.42,0.442,2.198,0.442v3.612c-1.277,0.002-2.484-0.239-3.611-0.718c-1.133-0.478-2.121-1.138-2.972-1.972
			c-0.85-0.833-1.52-1.813-2.009-2.945c-0.485-1.127-0.729-2.333-0.729-3.614c0-1.278,0.244-2.484,0.729-3.615
			c0.49-1.129,1.162-2.112,2.009-2.944c0.852-0.834,1.839-1.493,2.972-1.974c1.125-0.479,2.334-0.721,3.611-0.721L60.239,49.328
			L60.239,49.328z M68.801,53c0,0.858-0.115,1.636-0.353,2.334c-0.236,0.701-0.578,1.405-1.033,2.113
			c0.287,0.268,0.509,0.634,0.67,1.099c0.16,0.463,0.237,0.888,0.237,1.276v4.398h-3.61v-4.372l-0.249,0.127v4.246h-3.614V45.695
			h3.614l0.007,9.68c0.23-0.369,0.407-0.75,0.532-1.138c0.127-0.386,0.184-0.8,0.184-1.238l0.022-7.305h3.592V53z M75.936,49.307
			h-2.907v7.435h2.081v3.613h-2.081v0.248h2.907v3.613h-6.518V45.692h6.518V49.307z M84.601,49.307h-2.22v14.91h-3.612v-14.91
			h-2.224v-3.615h8.056V49.307z"/>
		<path fill="#542437" d="M66.227,57.318c-0.555,0-1.011,0.228-1.365,0.683c0.441,0.035,0.827,0.208,1.163,0.517
			c0.338,0.313,0.536,0.688,0.606,1.125l1.362-0.833c-0.131-0.386-0.349-0.732-0.654-1.037
			C67.036,57.471,66.667,57.318,66.227,57.318z"/>
		<path fill="#542437" d="M65.127,54.385c-0.087,0.287-0.187,0.506-0.305,0.658c-0.119,0.152-0.247,0.347-0.379,0.583l-1.574,2.881
			c0.133-0.051,0.306-0.131,0.514-0.242c0.212-0.109,0.43-0.235,0.66-0.378c0.225-0.143,0.439-0.284,0.641-0.417
			c0.201-0.135,0.354-0.253,0.454-0.355c0.539-0.539,0.957-1.165,1.256-1.882c0.306-0.716,0.455-1.463,0.455-2.236v-5.435l1.7-1.718
			l-3.212-0.007l0.019,7.157C65.355,53.467,65.278,53.932,65.127,54.385z"/>
		<polygon fill="#542437" points="71.488,62.266 74.217,62.266 75.734,60.75 73.004,60.75 		"/>
		<polygon fill="#542437" points="48.357,62.447 48.357,47.462 50.107,45.82 46.837,45.818 46.845,63.965 		"/>
		<path fill="#542437" d="M53.951,57.846c-0.206,0-0.39-0.059-0.558-0.176c0.44,1.091,1.103,2.022,1.997,2.789
			c0.893,0.767,1.914,1.293,3.059,1.58l1.543-1.289c-0.56-0.015-1.1-0.113-1.636-0.29c-0.529-0.176-1.018-0.423-1.463-0.744
			c-0.448-0.321-0.85-0.695-1.202-1.124c-0.356-0.431-0.64-0.905-0.858-1.429c-0.053,0.187-0.158,0.348-0.327,0.481
			C54.338,57.777,54.151,57.846,53.951,57.846z"/>
		<polygon fill="#542437" points="60.974,45.838 60.974,63.965 62.487,62.447 62.487,47.537 64.206,45.844 		"/>
		<path fill="#542437" d="M53.664,48.615c-0.811,0.825-1.443,1.781-1.91,2.869c-0.461,1.085-0.694,2.244-0.694,3.475
			c0,0.335,0.025,0.707,0.076,1.112c0.051,0.402,0.127,0.81,0.229,1.213c0.099,0.404,0.222,0.794,0.363,1.174
			c0.142,0.379,0.316,0.704,0.518,0.972c0.083,0.12,0.172,0.22,0.267,0.306c0.092,0.083,0.213,0.125,0.367,0.125
			c0.234,0,0.421-0.084,0.566-0.252c0.142-0.169,0.214-0.362,0.214-0.581c0-0.085-0.017-0.152-0.037-0.204
			c-0.023-0.05-0.058-0.108-0.09-0.176c-0.303-0.607-0.541-1.201-0.709-1.78c-0.166-0.585-0.25-1.22-0.25-1.91
			c0-0.877,0.148-1.72,0.44-2.529c0.294-0.808,0.704-1.542,1.229-2.199c0.52-0.656,1.142-1.213,1.869-1.667
			c0.724-0.455,1.519-0.784,2.375-0.986l1.468-1.719c-1.229,0.036-2.382,0.297-3.459,0.786
			C55.414,47.132,54.472,47.789,53.664,48.615z"/>
		<polygon fill="#542437" points="78.912,63.965 80.431,62.447 80.431,47.687 78.912,49.178 		"/>
		<polygon fill="#542437" points="78.563,47.354 82.527,47.354 84.346,45.838 76.69,45.838 76.695,49.047 		"/>
		<polygon fill="#542437" points="40.394,63.965 41.907,62.447 41.907,47.687 40.394,49.178 		"/>
		<polygon fill="#542437" points="71.488,58.401 73.408,58.401 74.927,56.886 73.004,56.886 		"/>
		<polygon fill="#542437" points="44.006,47.355 45.827,45.837 38.165,45.837 38.165,45.838 38.165,49.047 40.038,47.355 		"/>
		<polygon fill="#542437" points="71.076,62.447 71.076,47.353 74.085,47.353 75.602,45.837 69.564,45.837 69.564,45.838 
			69.567,63.965 		"/>
	</g>
	<path fill="#ECD078" d="M100.006,35.441c-0.022,0.045-0.036,0.089-0.036,0.13c0-0.001,0.002-0.001,0.002-0.002
		C99.972,35.528,99.985,35.485,100.006,35.441z"/>
	<g>
		<path fill="#F1F1F2" d="M45.692,82.443h-1.107L44.023,81.5h-2.133l-0.569,0.943H40.24l2.401-3.981h0.628L45.692,82.443z
			 M43.552,80.739l-0.599-0.979l-0.597,0.979H43.552z"/>
		<path fill="#F1F1F2" d="M50.608,80.466c0,0.673-0.269,1.185-0.809,1.534c-0.46,0.296-1.043,0.442-1.747,0.442h-2.118v-3.981h2.118
			c0.677,0,1.26,0.158,1.739,0.48C50.336,79.305,50.608,79.816,50.608,80.466z M49.575,80.459c0-0.396-0.162-0.7-0.484-0.909
			c-0.275-0.189-0.619-0.283-1.03-0.283h-1.112v2.369h1.112c0.429,0,0.776-0.085,1.044-0.258
			C49.416,81.166,49.575,80.863,49.575,80.459z"/>
		<path fill="#F1F1F2" d="M56.44,82.443H55.43v-2.365l-1.505,1.856l-1.544-1.856v2.365h-1.008v-3.981h0.817l1.711,2.078l1.723-2.078
			h0.817V82.443z"/>
		<path fill="#F1F1F2" d="M58.661,82.443H57.64v-3.988h1.021V82.443z"/>
		<path fill="#F1F1F2" d="M63.778,79.252h-1.861v3.189h-1.014v-3.189h-1.856v-0.791h4.733v0.791H63.778z"/>
		<path fill="#F1F1F2" d="M71.59,80.459c0,0.694-0.318,1.229-0.952,1.618c-0.545,0.324-1.181,0.489-1.912,0.489
			c-0.713,0-1.342-0.172-1.887-0.508c-0.64-0.396-0.959-0.926-0.959-1.599c0-0.677,0.316-1.209,0.949-1.595
			c0.542-0.324,1.169-0.488,1.897-0.488c0.744,0,1.378,0.156,1.912,0.471C71.271,79.226,71.59,79.763,71.59,80.459z M70.563,80.459
			c0-0.429-0.205-0.761-0.623-0.999c-0.345-0.193-0.747-0.289-1.214-0.289c-0.46,0-0.858,0.096-1.195,0.289
			c-0.413,0.238-0.618,0.57-0.618,0.999c0,0.431,0.205,0.763,0.618,0.999c0.335,0.193,0.735,0.289,1.195,0.289
			c0.467,0,0.869-0.096,1.214-0.289C70.357,81.226,70.563,80.896,70.563,80.459z"/>
		<path fill="#F1F1F2" d="M76.552,82.443h-0.598l-2.557-2.377v2.377h-0.996v-3.981h0.597l2.557,2.385v-2.385h0.997V82.443z"/>
		<path fill="#F1F1F2" d="M82.381,82.443h-4.642v-3.981h4.452v0.816h-3.447v0.656h2.257v0.806h-2.257v0.896h3.637V82.443z"/>
	</g>
	<g>
		<path fill="#F1F1F2" d="M62.85,71.963l0.886,2.729l-0.096,0.074l-2.312-1.698l-2.335,1.698l-0.1-0.074l0.884-2.729l-2.313-1.674
			l0.024-0.12h2.878l0.885-2.729h0.127l0.884,2.729h2.85l0.049,0.12L62.85,71.963z M61.25,67.898l-0.788,2.386H57.93l3.321,1.081
			V67.898z M59.947,71.909L59.16,74.32l2.043-2.83L59.947,71.909z M62.162,70.286l-0.786,1.083l3.318-1.083H62.162z M62.678,71.909
			l-1.256-0.419l2.044,2.83L62.678,71.909z"/>
	</g>
	<path fill="#F3ECD3" d="M90.798,28.917c-0.101,0.149-0.248,0.3-0.199,0.45c0.049,0.151,0.298,0.351,0.551,0.4
		c0.248,0.049,0.55,0.448,0.55,0.448l-0.151,0.401l0.45,0.299l0.202,0.5l-1.153,0.499h0.899l0.554-0.049l-0.1,0.4
		c0,0-0.25,0.2-0.056,0.301c0.204,0.1,0.652,0.349,0.652,0.549c0,0.202,0,0.452,0,0.452s-0.052,0.399-0.095,0.599
		c-0.056,0.2,0.195,0.599,0.195,0.599l0.55,0.4c0,0,0.254,0.25,0.254,0.5c0,0.25,0,0.45,0,0.45s-0.05,0,0.047,0.2
		c0.098,0.201,0.098,0.551,0.098,0.551s0,0.05-0.194,0.349c-0.206,0.3-0.206,0.3-0.206,0.3s-0.248,0.352-0.054,0.702
		c0.208,0.351,0.105,1,0.105,1.25s-0.351,0.35-0.149,0.6c0.202,0.25,0.548,0.499,0.548,0.499s0.4,0.5,0.4,0.75
		c0,0.25,0.05,0.649,0.05,0.649s-0.097,0.45,0.053,0.551s0.201,0.4,0.201,0.551c0,0.149,0.146,0.5,0.052,0.8
		c-0.102,0.301-0.201,0.5-0.151,0.75c0.05,0.25,0.1,0.449,0.1,0.449l-0.052,1.05l0.02-0.091l0.032-0.458c0,0,0.04-0.61,0.09-1.219
		c0.035-0.376,0.073-0.752,0.112-0.981c0.098-0.6,0.098-1.501-0.302-1.901c-0.401-0.4-0.699-2.145-0.699-2.145
		c-0.161-0.201-0.082-1.332,0.246-1.573c0,0,0.038-1.654,0.521-1.897l0.043-0.442c0,0-0.486-0.606-0.448-0.97
		c0.046-0.363-0.277-0.928-0.441-1.13c-0.161-0.203,0.12-0.402,0.12-0.402s-0.199-0.526-0.161-0.686
		c0.041-0.162-0.361-0.162-0.443-0.405c-0.078-0.243,0.043-0.647-0.119-1.049c-0.165-0.402-0.765-0.604-1.414-0.565
		c-0.019-0.538,0.141-1.2-0.202-1.633c-0.291-0.367-0.964-0.5-1.663-0.545l-0.09,0.292l0.351,0.351
		C90.297,28.667,90.896,28.767,90.798,28.917z"/>
	<path fill="#F3ECD3" d="M99.486,35.77c0,0,0.084,0.324-0.037,0.525c-0.123,0.202-0.929,0.282-0.929,0.282s-0.204,0.647-0.204,0.767
		c0,0.122-0.202,0.606-0.483,0.686c-0.281,0.081-0.767,0.243-0.928,0.443c-0.161,0.202-0.644,0.324-0.766,0.363
		c-0.128,0.042-0.205,0.322-0.448,0.405c-0.058,0.02-0.181,0.046-0.34,0.074l-0.254,1.452c0,0,0.497,1.199,0.397,2.099
		c-0.058,0.535-0.296,1.5-0.296,1.5l-0.336,1.736L94.8,46.615l0.3-0.85l0.149-0.851l0.148-0.447c0,0,0.199-0.153,0.248-0.301
		c0.053-0.151-0.051-0.5-0.051-0.5s0.15-0.55,0.2-0.8c0.055-0.25,0.103-0.75,0.055-1c-0.055-0.25-0.151-0.449-0.151-0.449l0.249-0.4
		l-0.098-0.5c0,0-0.055-0.399,0-0.649c0.049-0.25,0.552-0.15,0.75-0.201c0.196-0.049,0.746-0.399,0.746-0.399
		s0.252-0.349,0.202-0.601c-0.051-0.249,0.847-0.349,0.997-0.7c0.152-0.351,0.705-0.351,0.951-0.351l1.404-0.449l0.245-0.202
		c0,0,0,0,0.051-0.35c0.052-0.349,0.251-0.099,0.251-0.099s0,0,0.149-0.05c0.15-0.049,0.301,0.05,0.452,0
		c0.148-0.049,0.248-0.15,0.201-0.299c-0.053-0.15-0.401-0.25-0.452-0.401c-0.051-0.149,0.202-0.349,0.501-0.4
		c0.302-0.05,0.649,0.05,1.001-0.149c0.352-0.201,0.446-0.701,0.396-0.951c-0.045-0.249-0.446-0.85-0.446-0.85
		s-0.3-0.649-0.352-0.849c-0.051-0.201,0-0.301,0.251-0.501c0.248-0.198-0.201-0.8-0.201-0.8s-0.052-0.449-0.151-0.699
		c-0.098-0.25,0.151-0.651,0.302-0.849c0.15-0.2,0.299-0.351,0.247-0.7c-0.046-0.35-0.247-0.451-0.247-0.451
		s-0.027-0.217,0.051-0.494c-1.229,0.026-0.739,0.952-0.756,2.046l-0.362,0.162c0,0,0.48,0.121,0.443,0.363
		c-0.04,0.241-0.124,0.726-0.243,0.767c-0.119,0.039,0,0.282-0.08,0.402c-0.084,0.121,0.039,0.647,0.039,0.647
		s0.284,0.242,0.16,0.565c-0.119,0.322-0.076,0.725,0.124,0.646c0,0,0,0.282-0.284,0.402c-0.283,0.121-0.967,0.284-1.21,0.242
		c0,0-0.2,0.324-0.361,0.243c0,0-0.122,0.242-0.284,0.444c-0.16,0.201-0.363,0.404-0.363,0.565
		C99.972,35.73,99.61,35.85,99.486,35.77z"/>
</g>
<g>
	<polygon fill="#542437" points="23.698,181.074 23.698,182.101 24.536,181.589 	"/>
	<path fill="#542437" d="M24.295,170.15c0.476,0,0.848-0.207,1.117-0.62c0.228-0.354,0.34-0.786,0.34-1.284
		c0-0.497-0.114-0.924-0.348-1.279c-0.27-0.418-0.638-0.627-1.109-0.627c-0.464,0-0.834,0.209-1.108,0.627
		c-0.234,0.36-0.35,0.788-0.35,1.279c0,0.484,0.12,0.913,0.358,1.277C23.47,169.945,23.836,170.15,24.295,170.15z"/>
	<path fill="#542437" d="M25.475,151.752c0.186-0.386,0.279-0.791,0.279-1.215c0-0.327-0.058-0.629-0.176-0.905
		c-0.156-0.357-0.375-0.536-0.66-0.536c-0.289,0-0.511,0.191-0.66,0.573c-0.114,0.284-0.172,0.597-0.172,0.938
		c0,0.64,0.165,1.29,0.496,1.952C24.95,152.476,25.246,152.208,25.475,151.752z"/>
	<path fill="#542437" d="M17.93,136.46v47.043c0,1.986,1.616,3.601,3.603,3.601h9.2v-54.244h-9.2
		C19.546,132.859,17.93,134.475,17.93,136.46z M25.645,181.862l-3.403,2.065v-0.946l0.806-0.48v-1.817l-0.806-0.488v-0.922
		l3.403,2.05V181.862z M22.242,137.729l3.418,2.838l-0.002-3.433h0.711v5.106h0.001H26.37l0,0l-4.129-3.455L22.242,137.729
		L22.242,137.729z M22.242,143.042c0.078,0.004,0.177,0.002,0.302-0.009c0.145-0.011,0.245-0.018,0.302-0.018
		c0.476,0,0.84,0.136,1.092,0.398c0.208,0.209,0.384,0.564,0.528,1.061c0.097,0.345,0.196,0.691,0.294,1.038
		c0.208,0.62,0.371,0.93,0.498,0.93c0.172,0,0.308-0.131,0.4-0.396c0.062-0.185,0.093-0.388,0.093-0.609
		c0-0.502-0.217-1.137-0.651-1.908l0.573-0.513c0.519,0.768,0.781,1.554,0.781,2.363c0,0.478-0.084,0.897-0.25,1.266
		c-0.216,0.475-0.538,0.713-0.963,0.713c-0.316,0-0.587-0.234-0.815-0.697c-0.114-0.239-0.274-0.711-0.48-1.419
		c-0.177-0.595-0.33-0.968-0.459-1.125c-0.114-0.133-0.295-0.2-0.544-0.2v3.532H22.24v-4.406H22.242z M22.917,148.422l0.525,0.543
		c-0.396,0.56-0.595,1.137-0.595,1.735c0,0.396,0.064,0.748,0.193,1.052c0.15,0.372,0.382,0.624,0.699,0.753
		c-0.238-0.656-0.355-1.287-0.355-1.891c0-0.584,0.112-1.104,0.332-1.567c0.281-0.582,0.677-0.873,1.201-0.873
		c0.531,0,0.936,0.274,1.214,0.829c0.217,0.438,0.326,0.952,0.326,1.542c0,0.759-0.172,1.42-0.512,1.982
		c-0.401,0.672-0.959,1.008-1.672,1.008c-0.692,0-1.235-0.305-1.625-0.914c-0.339-0.525-0.512-1.158-0.512-1.889
		C22.135,149.867,22.396,149.098,22.917,148.422z M22.372,155.318c0.158-0.441,0.417-0.884,0.779-1.316l0.572,0.556
		c-0.309,0.403-0.528,0.752-0.659,1.047c-0.148,0.357-0.225,0.762-0.225,1.208c0,0.33,0.051,0.655,0.148,0.97
		c0.139,0.435,0.335,0.652,0.591,0.652c0.278,0,0.456-0.241,0.534-0.72c0.024-0.177,0.039-0.519,0.039-1.023h0.705
		c0,0.053,0,0.126,0,0.227c-0.006,0.097-0.007,0.17-0.007,0.214c0,0.635,0.133,0.954,0.401,0.954c0.186,0,0.324-0.134,0.411-0.401
		c0.061-0.191,0.093-0.406,0.093-0.646c0-0.623-0.208-1.261-0.621-1.913l0.609-0.521c0.477,0.756,0.715,1.576,0.715,2.464
		c0,0.481-0.084,0.896-0.248,1.24c-0.209,0.448-0.532,0.674-0.96,0.674c-0.114,0-0.241-0.032-0.38-0.095s-0.243-0.136-0.311-0.226
		c-0.23,0.452-0.554,0.676-0.968,0.676c-0.494,0-0.877-0.308-1.146-0.922c-0.208-0.476-0.311-0.999-0.311-1.574
		C22.135,156.276,22.213,155.768,22.372,155.318z M22.242,161.906v-1.054l3.418,2.837l-0.002-3.431h0.711v5.105h0.001H26.37l0,0
		L22.242,161.906z M22.663,166.355c0.396-0.616,0.941-0.929,1.633-0.929c0.693,0,1.239,0.313,1.643,0.929
		c0.345,0.534,0.518,1.163,0.518,1.891c0,0.737-0.173,1.366-0.518,1.9c-0.397,0.608-0.944,0.913-1.643,0.913
		c-0.691,0-1.239-0.307-1.633-0.924c-0.352-0.535-0.528-1.164-0.528-1.89C22.135,167.517,22.311,166.89,22.663,166.355z
		 M22.955,171.583l0.621,0.449c-0.248,0.425-0.418,0.759-0.512,1.009c-0.145,0.361-0.216,0.726-0.216,1.1
		c0,0.323,0.07,0.621,0.208,0.892c0.172,0.328,0.406,0.496,0.702,0.496c0.273,0,0.48-0.186,0.621-0.552
		c0.097-0.27,0.145-0.57,0.145-0.898c0-0.521-0.132-1.038-0.398-1.55v-0.556h2.246V176l-0.71-0.007v-3.141h-0.591
		c0.103,0.427,0.157,0.832,0.157,1.226c0,0.586-0.108,1.092-0.327,1.527c-0.271,0.55-0.675,0.82-1.207,0.82
		c-0.512,0-0.911-0.271-1.2-0.81c-0.239-0.445-0.359-0.949-0.359-1.506C22.134,173.236,22.408,172.395,22.955,171.583z"/>
	<path fill="#542437" stroke="#EB008B" stroke-miterlimit="10" d="M121.661,126.394v-0.003c-0.685-0.057-1.222-0.623-1.222-1.321
		c0-0.029,0.008-0.058,0.008-0.089c-4.895,0.012-9.8,0.089-14.694,0.008c-0.787-0.011-1.557,0.081-2.557,0.081
		c-1.303,0-0.788,0.94-0.806,2.054l-0.363,0.161c0,0,0.48,0.122,0.443,0.363c-0.039,0.243-0.123,0.728-0.244,0.767
		c-0.118,0.039,0,0.282-0.078,0.403c-0.084,0.12,0.038,0.647,0.038,0.647s0.284,0.241,0.161,0.564
		c-0.121,0.321-0.077,0.726,0.123,0.646c0,0,0,0.282-0.284,0.4c-0.284,0.121-0.967,0.286-1.21,0.245c0,0-0.2,0.323-0.36,0.242
		c0,0-0.063,0.124-0.157,0.267h0.799c2.553,0,4.63,2.076,4.63,4.63v47.045c0,2.553-2.077,4.631-4.63,4.631H21.531
		c-2.554,0-4.63-2.078-4.63-4.631V136.46c0-2.552,2.076-4.628,4.63-4.628h72.917c-0.06-0.138-0.103-0.275-0.092-0.392
		c0.046-0.362-0.275-0.929-0.44-1.129c-0.162-0.204,0.12-0.402,0.12-0.402s-0.2-0.527-0.161-0.686
		c0.041-0.163-0.36-0.163-0.444-0.406c-0.077-0.243,0.045-0.646-0.12-1.049c-0.163-0.4-0.765-0.602-1.411-0.563
		c-0.021-0.539,0.14-1.201-0.204-1.633c-0.569-0.721-2.618-0.546-3.416-0.554c-2.71-0.04-5.417-0.043-8.127-0.042
		c-7.334,0.001-14.668,0.004-22.005,0.002c-8.316-0.001-16.631-0.001-24.946-0.001c-7.154,0.001-14.306,0.001-21.46,0
		c-3.077,0-6.154,0-9.229,0c0.004,0.03,0.01,0.061,0.01,0.091c0,0.568-0.357,1.043-0.857,1.236v0.179
		c0.5,0.189,0.857,0.667,0.857,1.232c0,0.568-0.357,1.044-0.857,1.235v0.178c0.5,0.191,0.857,0.669,0.857,1.233
		c0,0.568-0.357,1.045-0.857,1.234v0.177c0.5,0.193,0.857,0.669,0.857,1.236c0,0.568-0.357,1.042-0.857,1.231v0.181
		c0.5,0.189,0.857,0.664,0.857,1.232c0,0.566-0.357,1.044-0.857,1.233v0.179c0.5,0.19,0.857,0.666,0.857,1.234
		c0,0.566-0.357,1.042-0.857,1.232v0.179c0.5,0.191,0.857,0.667,0.857,1.235c0,0.566-0.356,1.049-0.857,1.241
		c0,0.322,0,0.501,0,0.501c5.045,0.688,9.018,7.937,9.018,16.793c0,8.859-3.974,16.104-9.018,16.796v0.472
		c0.501,0.191,0.857,0.674,0.857,1.241c0,0.566-0.357,1.044-0.857,1.233v0.177c0.5,0.193,0.857,0.666,0.857,1.236
		c0,0.566-0.357,1.045-0.857,1.234v0.176c0.5,0.192,0.857,0.668,0.857,1.238c0,0.566-0.357,1.043-0.857,1.232v0.177
		c0.5,0.193,0.857,0.667,0.857,1.236c0,0.566-0.357,1.046-0.857,1.235v0.175c0.5,0.192,0.857,0.668,0.857,1.238
		c0,0.566-0.357,1.043-0.857,1.232v0.177c0.5,0.193,0.857,0.667,0.857,1.236c0,0.566-0.357,1.044-0.857,1.231v0.179
		c0.5,0.193,0.857,0.666,0.857,1.236c0,0.045-0.008,0.082-0.011,0.127h117.938c-0.005-0.045-0.012-0.082-0.012-0.127
		c0-0.7,0.537-1.262,1.221-1.32v-0.004c-0.684-0.057-1.221-0.623-1.221-1.322c0-0.696,0.537-1.261,1.221-1.318v-0.004
		c-0.684-0.059-1.221-0.623-1.221-1.32c0-0.702,0.537-1.267,1.221-1.32v-0.005c-0.684-0.06-1.221-0.622-1.221-1.32
		c0-0.699,0.537-1.267,1.221-1.32v-0.004c-0.684-0.059-1.221-0.627-1.221-1.32c0-0.7,0.537-1.264,1.221-1.318v-0.008
		c-0.684-0.057-1.221-0.625-1.221-1.318c0-0.706,0.537-1.262,1.221-1.32v-0.004c-0.684-0.059-1.221-0.627-1.221-1.322
		c0-0.698,0.537-1.265,1.221-1.323v-0.39c-5.046-0.691-9.02-7.937-9.02-16.792c0-8.857,3.974-16.105,9.02-16.796v-0.42
		c-0.684-0.057-1.221-0.625-1.221-1.32c0-0.7,0.537-1.265,1.221-1.32v-0.003c-0.684-0.06-1.221-0.626-1.221-1.322
		c0-0.699,0.537-1.264,1.221-1.32v-0.006c-0.684-0.058-1.221-0.622-1.221-1.32s0.537-1.262,1.221-1.32v-0.011
		c-0.684-0.06-1.221-0.624-1.221-1.322c0-0.697,0.537-1.262,1.221-1.318v-0.004c-0.684-0.058-1.221-0.624-1.221-1.32
		c0-0.698,0.537-1.265,1.221-1.32v-0.004c-0.684-0.057-1.221-0.623-1.221-1.322C120.439,127.019,120.977,126.452,121.661,126.394z"
		/>
	<path fill="#542437" d="M98.374,154.724c0.466,0,0.833-0.207,1.109-0.629c0.229-0.361,0.349-0.786,0.349-1.277
		c0-0.486-0.119-0.913-0.354-1.277c-0.275-0.42-0.643-0.629-1.104-0.629c-0.476,0-0.845,0.205-1.116,0.62
		c-0.227,0.356-0.342,0.784-0.342,1.286c0,0.497,0.115,0.922,0.353,1.277C97.535,154.517,97.904,154.724,98.374,154.724z"/>
	<path fill="#542437" d="M92.056,187.104h9.205c1.983,0,3.601-1.614,3.601-3.601v-47.045c0-1.983-1.617-3.601-3.601-3.601h-1.757
		c-0.007-0.046-0.016-0.078-0.016-0.084c-0.002,0-0.002,0-0.003,0c0,0,0.084,0.323-0.038,0.523
		c-0.123,0.204-0.928,0.284-0.928,0.284s-0.205,0.646-0.205,0.767c0,0.121-0.203,0.605-0.483,0.687
		c-0.281,0.08-0.767,0.241-0.928,0.442c-0.161,0.202-0.644,0.323-0.765,0.361c-0.129,0.041-0.206,0.323-0.449,0.403
		c-0.058,0.021-0.181,0.047-0.34,0.075l-0.254,1.451c0,0,0.498,1.2,0.397,2.1c-0.057,0.536-0.296,1.501-0.296,1.501l-0.503,2.6
		l0.102-1.399c0,0,0.04-0.609,0.09-1.219c0.034-0.375,0.071-0.752,0.111-0.98c0.099-0.601,0.099-1.501-0.303-1.901
		c-0.399-0.4-0.696-2.144-0.696-2.144c-0.162-0.202-0.082-1.333,0.245-1.573c0,0,0.039-1.656,0.52-1.897v-0.001
		c-0.002,0.003-0.007,0.005-0.009,0.007h-2.698V187.104L92.056,187.104z M100.43,183.329l-3.421-2.835v3.434h-0.712v-5.104
		l-0.001-0.002h0.001v0.002l4.133,3.454V183.329L100.43,183.329z M97.022,139.202l3.407-2.067v0.947l-0.81,0.477v1.821l0.81,0.487
		v0.922l-3.407-2.053V139.202z M96.297,145.063l0.712,0.008v3.139H97.6c-0.106-0.423-0.159-0.831-0.159-1.224
		c0-0.586,0.111-1.092,0.326-1.527c0.274-0.545,0.677-0.82,1.208-0.82c0.511,0,0.912,0.271,1.202,0.813
		c0.237,0.445,0.357,0.947,0.357,1.507c0,0.872-0.275,1.713-0.823,2.526l-0.618-0.452c0.246-0.424,0.418-0.758,0.512-1.006
		c0.144-0.363,0.217-0.729,0.217-1.101c0-0.325-0.07-0.622-0.21-0.892c-0.172-0.333-0.4-0.495-0.699-0.495
		c-0.275,0-0.481,0.181-0.623,0.549c-0.096,0.27-0.146,0.569-0.146,0.9c0,0.52,0.133,1.038,0.4,1.549v0.556h-2.247L96.297,145.063
		L96.297,145.063z M96.729,150.916c0.398-0.609,0.945-0.913,1.645-0.913c0.691,0,1.239,0.306,1.633,0.922
		c0.352,0.538,0.528,1.167,0.528,1.891c0,0.729-0.177,1.359-0.528,1.891c-0.396,0.62-0.941,0.931-1.633,0.931
		c-0.692,0-1.238-0.311-1.645-0.931c-0.342-0.531-0.515-1.161-0.515-1.891C96.215,152.081,96.387,151.448,96.729,150.916z
		 M96.296,155.701L96.296,155.701l0.001,0.002l4.133,3.453v1.055l-3.421-2.836v3.433h-0.712v-5.104L96.296,155.701z M96.462,162.753
		c0.209-0.444,0.529-0.671,0.96-0.671c0.113,0,0.24,0.03,0.38,0.093c0.138,0.063,0.245,0.138,0.31,0.227
		c0.23-0.448,0.552-0.676,0.968-0.676c0.497,0,0.878,0.308,1.146,0.922c0.208,0.474,0.312,0.999,0.312,1.573
		c0,0.567-0.076,1.075-0.238,1.521c-0.155,0.447-0.418,0.889-0.779,1.321l-0.568-0.56c0.31-0.4,0.526-0.749,0.658-1.044
		c0.146-0.357,0.222-0.759,0.222-1.209c0-0.329-0.051-0.652-0.146-0.969c-0.138-0.435-0.336-0.648-0.59-0.648
		c-0.277,0-0.459,0.239-0.535,0.718c-0.024,0.178-0.038,0.515-0.038,1.024h-0.706c0-0.058,0-0.131,0-0.226
		c0.007-0.098,0.014-0.173,0.014-0.216c0-0.635-0.138-0.954-0.406-0.954c-0.188,0-0.324,0.134-0.413,0.403
		c-0.06,0.189-0.093,0.4-0.093,0.642c0,0.624,0.209,1.266,0.619,1.916l-0.608,0.516c-0.476-0.752-0.71-1.577-0.71-2.462
		C96.215,163.513,96.296,163.1,96.462,162.753z M96.726,168.533c0.402-0.672,0.956-1.006,1.669-1.006
		c0.696,0,1.237,0.304,1.63,0.913c0.34,0.527,0.511,1.16,0.511,1.893c0,0.861-0.261,1.631-0.782,2.309l-0.527-0.547
		c0.4-0.556,0.597-1.133,0.597-1.733c0-0.4-0.065-0.747-0.195-1.053c-0.146-0.371-0.379-0.623-0.696-0.752
		c0.238,0.659,0.355,1.286,0.355,1.891c0,0.584-0.11,1.105-0.332,1.565c-0.279,0.586-0.677,0.877-1.199,0.877
		c-0.531,0-0.938-0.277-1.214-0.831c-0.219-0.438-0.326-0.952-0.326-1.542C96.215,169.759,96.385,169.097,96.726,168.533z
		 M96.463,174.419c0.217-0.474,0.538-0.707,0.964-0.707c0.314,0,0.588,0.229,0.814,0.694c0.112,0.238,0.275,0.711,0.479,1.417
		c0.181,0.594,0.33,0.971,0.461,1.126c0.114,0.132,0.297,0.2,0.543,0.2v-3.534h0.705v4.409c-0.078-0.007-0.177-0.003-0.304,0.008
		c-0.147,0.011-0.246,0.014-0.303,0.014c-0.476,0-0.839-0.132-1.089-0.395c-0.209-0.211-0.384-0.566-0.525-1.063
		c-0.103-0.343-0.202-0.691-0.298-1.036c-0.208-0.622-0.373-0.931-0.498-0.931c-0.172,0-0.308,0.132-0.401,0.395
		c-0.062,0.189-0.093,0.394-0.093,0.615c0,0.498,0.218,1.136,0.651,1.906l-0.571,0.509c-0.523-0.765-0.782-1.549-0.782-2.363
		C96.215,175.207,96.297,174.785,96.463,174.419z"/>
	<polygon fill="#542437" points="98.969,139.986 98.969,138.965 98.135,139.476 	"/>
	<path fill="#542437" d="M97.754,171.968c0.291,0,0.509-0.191,0.659-0.573c0.115-0.284,0.171-0.598,0.171-0.937
		c0.002-0.644-0.166-1.296-0.496-1.953c-0.367,0.082-0.667,0.351-0.893,0.804c-0.187,0.388-0.279,0.794-0.279,1.217
		c0,0.325,0.057,0.631,0.18,0.906C97.248,171.787,97.47,171.968,97.754,171.968z"/>
	<path fill="#542437" d="M65.592,156.391c-0.268,0-0.463,0.095-0.579,0.28c-0.119,0.187-0.175,0.397-0.175,0.629v3.667l1.513-1.516
		V157.3c0-0.233-0.055-0.441-0.166-0.629C66.075,156.485,65.878,156.391,65.592,156.391z"/>
	<g>
		<path fill="#542437" d="M31.762,132.859v54.244h59.264v-54.244H31.762z M46.086,146.309h-2.224v14.91h-3.617v-14.91h-2.224v-3.615
			h8.063L46.086,146.309L46.086,146.309z M50.308,161.219h-3.612v-18.525h3.612V161.219z M60.239,146.329
			c-0.79,0-1.531,0.148-2.223,0.441c-0.692,0.295-1.293,0.695-1.808,1.201c-0.517,0.506-0.923,1.101-1.226,1.783
			c-0.305,0.683-0.454,1.419-0.454,2.212c0,0.791,0.149,1.529,0.454,2.212c0.303,0.683,0.716,1.277,1.239,1.781
			c0.523,0.506,1.129,0.908,1.819,1.203c0.691,0.291,1.42,0.439,2.198,0.439v3.612c-1.277,0.002-2.484-0.239-3.611-0.718
			c-1.133-0.476-2.121-1.139-2.972-1.973c-0.85-0.833-1.52-1.813-2.009-2.945c-0.485-1.127-0.729-2.331-0.729-3.614
			c0-1.275,0.244-2.483,0.729-3.612c0.49-1.13,1.162-2.112,2.009-2.945c0.852-0.834,1.839-1.491,2.972-1.974
			c1.125-0.478,2.334-0.721,3.611-0.721L60.239,146.329L60.239,146.329z M68.801,150.001c0,0.858-0.115,1.635-0.353,2.334
			c-0.236,0.7-0.578,1.404-1.033,2.111c0.287,0.269,0.509,0.635,0.67,1.1c0.16,0.463,0.237,0.888,0.237,1.277v4.398h-3.61v-4.372
			l-0.249,0.127v4.245h-3.614v-18.524h3.614l0.007,9.679c0.23-0.37,0.407-0.75,0.532-1.139c0.127-0.386,0.184-0.8,0.184-1.236
			l0.022-7.304h3.592V150.001z M75.936,146.309h-2.907v7.435h2.081v3.612h-2.081v0.248h2.907v3.615h-6.518v-18.525h6.518V146.309z
			 M84.601,146.309h-2.22v14.91h-3.612v-14.91h-2.224v-3.615h8.056V146.309z"/>
		<path fill="#542437" d="M66.227,154.32c-0.555,0-1.011,0.227-1.365,0.683c0.441,0.033,0.827,0.207,1.163,0.516
			c0.338,0.313,0.536,0.688,0.606,1.126l1.362-0.834c-0.131-0.387-0.349-0.733-0.654-1.037
			C67.036,154.472,66.667,154.32,66.227,154.32z"/>
		<path fill="#542437" d="M65.127,151.386c-0.087,0.288-0.187,0.506-0.305,0.658c-0.119,0.151-0.247,0.347-0.379,0.584l-1.574,2.88
			c0.133-0.05,0.306-0.13,0.514-0.241c0.212-0.108,0.43-0.233,0.66-0.377c0.225-0.145,0.439-0.284,0.641-0.418
			c0.201-0.136,0.354-0.254,0.454-0.355c0.539-0.538,0.957-1.165,1.256-1.882c0.306-0.714,0.455-1.461,0.455-2.234v-5.434l1.7-1.719
			l-3.212-0.008l0.019,7.156C65.355,150.47,65.278,150.933,65.127,151.386z"/>
		<polygon fill="#542437" points="71.488,159.268 74.217,159.268 75.734,157.75 73.004,157.75 		"/>
		<polygon fill="#542437" points="48.357,159.449 48.357,144.463 50.107,142.82 46.837,142.82 46.845,160.967 		"/>
		<path fill="#542437" d="M53.951,154.847c-0.206,0-0.39-0.059-0.558-0.177c0.44,1.092,1.103,2.022,1.997,2.789
			c0.893,0.767,1.914,1.294,3.059,1.581l1.543-1.288c-0.56-0.016-1.1-0.112-1.636-0.291c-0.529-0.177-1.018-0.424-1.463-0.743
			c-0.448-0.323-0.85-0.695-1.202-1.126c-0.356-0.431-0.64-0.902-0.858-1.428c-0.053,0.187-0.158,0.347-0.327,0.481
			C54.338,154.779,54.151,154.847,53.951,154.847z"/>
		<polygon fill="#542437" points="60.974,142.84 60.974,160.967 62.487,159.449 62.487,144.537 64.206,142.846 		"/>
		<path fill="#542437" d="M53.664,145.616c-0.811,0.824-1.443,1.78-1.91,2.868c-0.461,1.086-0.694,2.244-0.694,3.476
			c0,0.336,0.025,0.707,0.076,1.111c0.051,0.403,0.127,0.81,0.229,1.213c0.099,0.403,0.222,0.795,0.363,1.174
			c0.142,0.381,0.316,0.704,0.518,0.972c0.083,0.12,0.172,0.22,0.267,0.306c0.092,0.086,0.213,0.127,0.367,0.127
			c0.234,0,0.421-0.086,0.566-0.252c0.142-0.168,0.214-0.36,0.214-0.58c0-0.084-0.017-0.152-0.037-0.206
			c-0.023-0.05-0.058-0.105-0.09-0.173c-0.303-0.607-0.541-1.203-0.709-1.781c-0.168-0.583-0.25-1.219-0.25-1.909
			c0-0.877,0.148-1.719,0.44-2.527c0.294-0.808,0.704-1.544,1.229-2.2c0.52-0.655,1.142-1.213,1.869-1.669
			c0.724-0.453,1.518-0.782,2.375-0.986l1.467-1.719c-1.229,0.036-2.382,0.299-3.459,0.786
			C55.414,144.134,54.472,144.791,53.664,145.616z"/>
		<polygon fill="#542437" points="78.912,160.967 80.431,159.449 80.431,144.688 78.912,146.18 		"/>
		<polygon fill="#542437" points="78.563,144.355 82.527,144.355 84.346,142.84 76.69,142.84 76.695,146.049 		"/>
		<polygon fill="#542437" points="40.394,160.967 41.907,159.449 41.907,144.688 40.394,146.18 		"/>
		<polygon fill="#542437" points="71.488,155.402 73.408,155.402 74.927,153.888 73.004,153.888 		"/>
		<polygon fill="#542437" points="44.006,144.357 45.827,142.838 38.165,142.838 38.165,142.84 38.165,146.049 40.038,144.357 		"/>
		<polygon fill="#542437" points="71.076,159.449 71.076,144.355 74.085,144.355 75.602,142.838 69.564,142.838 69.564,142.84 
			69.567,160.967 		"/>
	</g>
	<path fill="#ECD078" d="M100.006,132.443c-0.022,0.044-0.036,0.089-0.036,0.128l0.002-0.001
		C99.972,132.528,99.985,132.487,100.006,132.443z"/>
	<g>
		<path fill="#F1F1F2" d="M45.692,179.443h-1.107l-0.562-0.943h-2.133l-0.569,0.943H40.24l2.401-3.98h0.628L45.692,179.443z
			 M43.552,177.74l-0.599-0.979l-0.597,0.979H43.552z"/>
		<path fill="#F1F1F2" d="M50.608,177.467c0,0.674-0.269,1.185-0.809,1.537c-0.46,0.293-1.043,0.439-1.747,0.439h-2.118v-3.98h2.118
			c0.677,0,1.26,0.158,1.739,0.48C50.336,176.306,50.608,176.816,50.608,177.467z M49.575,177.46c0-0.396-0.162-0.698-0.484-0.909
			c-0.275-0.189-0.619-0.282-1.03-0.282h-1.112v2.369h1.112c0.429,0,0.776-0.086,1.044-0.259
			C49.416,178.168,49.575,177.864,49.575,177.46z"/>
		<path fill="#F1F1F2" d="M56.44,179.443H55.43v-2.364l-1.505,1.856l-1.544-1.856v2.364h-1.008v-3.98h0.817l1.711,2.077l1.723-2.077
			h0.817V179.443z"/>
		<path fill="#F1F1F2" d="M58.661,179.443H57.64v-3.988h1.021V179.443z"/>
		<path fill="#F1F1F2" d="M63.778,176.254h-1.861v3.189h-1.014v-3.189h-1.856v-0.791h4.733v0.791H63.778z"/>
		<path fill="#F1F1F2" d="M71.59,177.46c0,0.693-0.318,1.229-0.952,1.621c-0.545,0.323-1.181,0.485-1.912,0.485
			c-0.713,0-1.342-0.171-1.887-0.507c-0.64-0.397-0.959-0.926-0.959-1.6c0-0.677,0.316-1.21,0.949-1.596
			c0.542-0.323,1.169-0.487,1.897-0.487c0.744,0,1.378,0.159,1.912,0.474C71.271,176.228,71.59,176.765,71.59,177.46z
			 M70.563,177.46c0-0.429-0.205-0.761-0.623-0.999c-0.345-0.192-0.747-0.289-1.214-0.289c-0.46,0-0.858,0.097-1.195,0.289
			c-0.413,0.238-0.618,0.57-0.618,0.999c0,0.431,0.205,0.763,0.618,0.999c0.335,0.192,0.735,0.289,1.195,0.289
			c0.467,0,0.869-0.097,1.214-0.289C70.357,178.227,70.563,177.897,70.563,177.46z"/>
		<path fill="#F1F1F2" d="M76.552,179.443h-0.598l-2.557-2.376v2.376h-0.996v-3.98h0.597l2.557,2.385v-2.385h0.997V179.443z"/>
		<path fill="#F1F1F2" d="M82.381,179.443h-4.642v-3.98h4.452v0.816h-3.447v0.655h2.257v0.806h-2.257v0.897h3.637V179.443z"/>
	</g>
	<g>
		<path fill="#F1F1F2" d="M62.85,168.964l0.886,2.73l-0.096,0.075l-2.312-1.699l-2.335,1.699l-0.1-0.075l0.884-2.73l-2.313-1.674
			l0.024-0.12h2.878l0.885-2.727h0.127l0.884,2.727h2.85l0.049,0.12L62.85,168.964z M61.25,164.901l-0.788,2.385H57.93l3.321,1.081
			V164.901z M59.947,168.91l-0.787,2.411l2.043-2.829L59.947,168.91z M62.162,167.286l-0.786,1.085l3.318-1.085H62.162z
			 M62.678,168.91l-1.256-0.418l2.044,2.829L62.678,168.91z"/>
	</g>
	<path fill="#F3ECD3" d="M90.798,125.918c-0.101,0.149-0.248,0.3-0.199,0.45s0.298,0.35,0.551,0.401
		c0.248,0.049,0.55,0.447,0.55,0.447l-0.151,0.4l0.45,0.3l0.202,0.5l-1.153,0.501h0.899l0.554-0.05l-0.1,0.399
		c0,0-0.25,0.2-0.056,0.303c0.204,0.098,0.652,0.348,0.652,0.55c0,0.2,0,0.45,0,0.45s-0.052,0.4-0.095,0.599
		c-0.056,0.2,0.195,0.599,0.195,0.599l0.55,0.402c0,0,0.254,0.248,0.254,0.498c0,0.252,0,0.45,0,0.45s-0.05,0,0.047,0.2
		c0.098,0.2,0.098,0.551,0.098,0.551s0,0.052-0.194,0.35c-0.206,0.301-0.206,0.301-0.206,0.301s-0.248,0.35-0.054,0.7
		c0.208,0.352,0.105,1,0.105,1.251c0,0.25-0.351,0.35-0.149,0.599c0.202,0.25,0.548,0.5,0.548,0.5s0.4,0.5,0.4,0.75
		s0.05,0.648,0.05,0.648s-0.097,0.45,0.053,0.553c0.149,0.1,0.201,0.4,0.201,0.55c0,0.15,0.146,0.501,0.052,0.801
		c-0.102,0.3-0.201,0.5-0.151,0.749c0.05,0.25,0.1,0.45,0.1,0.45l-0.052,1.049l0.02-0.09l0.032-0.459c0,0,0.04-0.609,0.09-1.219
		c0.035-0.375,0.073-0.752,0.112-0.98c0.098-0.601,0.098-1.501-0.302-1.901c-0.401-0.4-0.699-2.145-0.699-2.145
		c-0.161-0.201-0.082-1.333,0.246-1.572c0,0,0.038-1.656,0.521-1.897l0.043-0.442c0,0-0.486-0.606-0.448-0.971
		c0.046-0.362-0.277-0.929-0.441-1.129c-0.161-0.204,0.12-0.402,0.12-0.402s-0.199-0.527-0.161-0.687
		c0.041-0.162-0.361-0.162-0.443-0.405c-0.078-0.243,0.043-0.645-0.119-1.049c-0.165-0.4-0.765-0.602-1.414-0.563
		c-0.019-0.538,0.141-1.201-0.202-1.633c-0.291-0.367-0.964-0.501-1.663-0.546l-0.09,0.291l0.351,0.35
		C90.297,125.669,90.896,125.768,90.798,125.918z"/>
	<path fill="#F3ECD3" d="M99.486,132.771c0,0,0.084,0.323-0.037,0.523c-0.123,0.202-0.929,0.282-0.929,0.282
		s-0.204,0.647-0.204,0.767c0,0.124-0.202,0.606-0.483,0.687c-0.281,0.082-0.767,0.243-0.928,0.443
		c-0.161,0.201-0.644,0.323-0.766,0.362c-0.128,0.041-0.205,0.323-0.448,0.405c-0.058,0.019-0.181,0.047-0.34,0.073l-0.254,1.453
		c0,0,0.497,1.199,0.397,2.1c-0.058,0.534-0.296,1.499-0.296,1.499l-0.336,1.736l-0.063,0.513l0.3-0.849l0.149-0.851l0.148-0.448
		c0,0,0.199-0.151,0.248-0.3c0.053-0.152-0.051-0.501-0.051-0.501s0.15-0.552,0.2-0.8c0.055-0.25,0.103-0.751,0.055-1.001
		c-0.055-0.248-0.151-0.448-0.151-0.448l0.249-0.402l-0.098-0.5c0,0-0.055-0.4,0-0.648c0.049-0.249,0.552-0.15,0.75-0.202
		c0.196-0.048,0.746-0.398,0.746-0.398s0.252-0.351,0.202-0.601c-0.051-0.248,0.847-0.349,0.997-0.7
		c0.152-0.351,0.705-0.351,0.951-0.351l1.404-0.45l0.245-0.2c0,0,0,0,0.051-0.35c0.052-0.351,0.251-0.101,0.251-0.101
		s0,0,0.149-0.05c0.15-0.048,0.301,0.05,0.452,0c0.148-0.048,0.248-0.15,0.201-0.298c-0.053-0.15-0.401-0.251-0.452-0.402
		c-0.051-0.15,0.202-0.351,0.501-0.4c0.302-0.05,0.649,0.05,1.001-0.15s0.446-0.7,0.396-0.95c-0.045-0.246-0.446-0.851-0.446-0.851
		s-0.3-0.648-0.352-0.849c-0.051-0.202,0-0.3,0.251-0.502c0.248-0.198-0.201-0.799-0.201-0.799s-0.052-0.448-0.151-0.7
		c-0.098-0.248,0.151-0.65,0.302-0.849c0.15-0.201,0.299-0.351,0.247-0.699c-0.046-0.352-0.247-0.451-0.247-0.451
		s-0.027-0.217,0.051-0.493c-1.229,0.024-0.739,0.95-0.756,2.045l-0.362,0.163c0,0,0.48,0.12,0.443,0.361
		c-0.04,0.241-0.124,0.727-0.243,0.766c-0.119,0.04,0,0.284-0.08,0.402c-0.084,0.122,0.039,0.646,0.039,0.646
		s0.284,0.243,0.16,0.566c-0.119,0.322-0.076,0.726,0.124,0.646c0,0,0,0.282-0.284,0.402c-0.283,0.121-0.967,0.284-1.21,0.242
		c0,0-0.2,0.324-0.361,0.243c0,0-0.122,0.243-0.284,0.445c-0.16,0.2-0.363,0.403-0.363,0.564
		C99.972,132.732,99.61,132.853,99.486,132.771z"/>
</g>
<g>
	<polygon fill="#542437" points="-133.807,82.871 -133.807,83.992 -132.891,83.433 	"/>
	<path fill="#542437" d="M-133.154,70.93c0.52,0,0.927-0.227,1.221-0.678c0.249-0.389,0.372-0.859,0.372-1.404
		c0-0.543-0.125-1.01-0.381-1.4c-0.293-0.457-0.697-0.684-1.212-0.684c-0.508,0-0.912,0.227-1.211,0.684
		c-0.255,0.396-0.383,0.863-0.383,1.4c0,0.527,0.131,0.998,0.391,1.396C-134.057,70.703-133.656,70.93-133.154,70.93z"/>
	<path fill="#542437" d="M-131.864,50.818c0.203-0.422,0.304-0.865,0.304-1.328c0-0.357-0.063-0.687-0.194-0.991
		c-0.169-0.391-0.409-0.585-0.72-0.585c-0.317,0-0.559,0.208-0.721,0.627c-0.125,0.31-0.187,0.651-0.187,1.025
		c0,0.699,0.18,1.41,0.542,2.135C-132.438,51.609-132.114,51.316-131.864,50.818z"/>
	<path fill="#542437" d="M-140.112,34.101v51.423c0,2.174,1.766,3.938,3.938,3.938h10.058V30.165h-10.058
		C-138.346,30.165-140.112,31.932-140.112,34.101z M-131.679,83.73l-3.72,2.26v-1.035l0.881-0.525v-1.988l-0.881-0.533V80.9
		l3.72,2.242V83.73z M-135.398,35.49l3.737,3.101l-0.001-3.753h0.778v5.582l0.001,0.001h-0.001v-0.001l-4.514-3.776V35.49z
		 M-135.398,41.294c0.085,0.005,0.195,0.003,0.331-0.008c0.158-0.013,0.268-0.019,0.33-0.019c0.52,0,0.918,0.147,1.194,0.434
		c0.227,0.23,0.419,0.617,0.577,1.16c0.107,0.378,0.214,0.756,0.321,1.136c0.227,0.676,0.407,1.015,0.544,1.015
		c0.189,0,0.337-0.143,0.439-0.433c0.067-0.203,0.101-0.425,0.101-0.667c0-0.548-0.237-1.243-0.712-2.085l0.627-0.56
		c0.568,0.838,0.854,1.698,0.854,2.584c0,0.521-0.091,0.98-0.273,1.382c-0.236,0.519-0.587,0.779-1.052,0.779
		c-0.345,0-0.642-0.255-0.891-0.762c-0.125-0.261-0.3-0.777-0.526-1.55c-0.194-0.65-0.36-1.058-0.501-1.229
		c-0.125-0.147-0.323-0.22-0.595-0.22v3.862h-0.768V41.294z M-134.661,47.177l0.574,0.594c-0.433,0.61-0.65,1.242-0.65,1.896
		c0,0.434,0.07,0.818,0.211,1.15c0.164,0.406,0.417,0.681,0.763,0.822c-0.261-0.717-0.388-1.406-0.388-2.066
		c0-0.638,0.122-1.208,0.362-1.713c0.307-0.637,0.742-0.955,1.313-0.955c0.581,0,1.023,0.301,1.327,0.906
		c0.238,0.479,0.356,1.041,0.356,1.686c0,0.829-0.188,1.553-0.559,2.168c-0.439,0.734-1.048,1.102-1.827,1.102
		c-0.757,0-1.35-0.334-1.778-1c-0.37-0.576-0.559-1.266-0.559-2.067C-135.516,48.757-135.23,47.916-134.661,47.177z
		 M-135.257,54.717c0.172-0.484,0.456-0.968,0.852-1.441l0.625,0.609c-0.339,0.44-0.579,0.821-0.722,1.143
		c-0.162,0.391-0.245,0.832-0.245,1.322c0,0.361,0.055,0.715,0.161,1.059c0.153,0.475,0.368,0.712,0.646,0.712
		c0.304,0,0.498-0.263,0.584-0.786c0.027-0.193,0.042-0.566,0.042-1.119h0.771c0,0.058,0,0.139,0,0.248
		c-0.006,0.105-0.007,0.185-0.007,0.234c0,0.695,0.146,1.043,0.44,1.043c0.203,0,0.353-0.146,0.449-0.439
		c0.067-0.209,0.101-0.444,0.101-0.705c0-0.682-0.227-1.379-0.678-2.092l0.667-0.568c0.521,0.826,0.78,1.723,0.78,2.693
		c0,0.525-0.091,0.979-0.271,1.355c-0.229,0.492-0.581,0.738-1.049,0.738c-0.125,0-0.264-0.035-0.415-0.104
		c-0.153-0.067-0.266-0.147-0.341-0.245c-0.252,0.494-0.606,0.737-1.057,0.737c-0.54,0-0.959-0.335-1.252-1.007
		c-0.227-0.521-0.34-1.092-0.34-1.721C-135.516,55.764-135.43,55.206-135.257,54.717z M-135.398,61.918v-1.152l3.737,3.1
		l-0.001-3.75h0.778v5.58h0.001h-0.001l0,0L-135.398,61.918z M-134.938,66.781c0.433-0.676,1.029-1.017,1.785-1.017
		c0.757,0,1.354,0.341,1.795,1.017c0.377,0.582,0.567,1.271,0.567,2.065c0,0.806-0.19,1.494-0.567,2.078
		c-0.434,0.664-1.032,0.998-1.795,0.998c-0.756,0-1.353-0.337-1.785-1.011c-0.384-0.586-0.577-1.272-0.577-2.065
		C-135.516,68.051-135.323,67.363-134.938,66.781z M-134.62,72.496l0.678,0.488c-0.27,0.467-0.457,0.832-0.559,1.104
		c-0.159,0.394-0.237,0.793-0.237,1.2c0,0.354,0.076,0.681,0.228,0.976c0.188,0.358,0.443,0.543,0.766,0.543
		c0.299,0,0.526-0.203,0.679-0.604c0.107-0.295,0.16-0.623,0.16-0.98c0-0.57-0.145-1.135-0.435-1.695v-0.606h2.455v4.401
		l-0.777-0.008v-3.432h-0.646c0.114,0.467,0.172,0.91,0.172,1.34c0,0.639-0.119,1.191-0.357,1.67c-0.297,0.6-0.739,0.895-1.32,0.895
		c-0.56,0-0.996-0.295-1.312-0.885c-0.26-0.486-0.392-1.037-0.392-1.646C-135.517,74.303-135.217,73.383-134.62,72.496z"/>
	<path fill="#542437" d="M-26.722,23.098v-0.004c-0.748-0.061-1.335-0.68-1.335-1.444c0-0.032,0.008-0.063,0.008-0.097
		c-5.351,0.013-10.712,0.096-16.063,0.009c-0.86-0.013-1.701,0.088-2.795,0.088c-1.424,0-0.861,1.028-0.881,2.245l-0.396,0.177
		c0,0,0.525,0.132,0.484,0.397c-0.043,0.264-0.135,0.794-0.267,0.838c-0.129,0.043,0,0.308-0.086,0.44
		c-0.092,0.132,0.042,0.707,0.042,0.707s0.311,0.265,0.176,0.618c-0.132,0.352-0.084,0.793,0.135,0.706c0,0,0,0.309-0.311,0.44
		c-0.311,0.132-1.057,0.31-1.322,0.265c0,0-0.219,0.354-0.395,0.266c0,0-0.068,0.135-0.172,0.292h0.873
		c2.791,0,5.062,2.27,5.062,5.06v51.425c0,2.791-2.271,5.063-5.062,5.063h-87.15c-2.792,0-5.061-2.272-5.061-5.063V34.102
		c0-2.79,2.269-5.06,5.061-5.06h79.706c-0.065-0.149-0.112-0.301-0.101-0.427c0.051-0.397-0.301-1.014-0.481-1.235
		c-0.177-0.222,0.132-0.44,0.132-0.44s-0.219-0.575-0.177-0.75c0.045-0.177-0.394-0.177-0.485-0.442
		c-0.084-0.266,0.049-0.707-0.131-1.147c-0.179-0.44-0.836-0.661-1.543-0.618c-0.023-0.587,0.152-1.311-0.223-1.785
		c-0.623-0.786-2.862-0.595-3.734-0.605c-2.963-0.043-5.922-0.047-8.884-0.046c-8.017,0.002-16.034,0.005-24.054,0.003
		c-9.09-0.001-18.18-0.001-27.268-0.001c-7.82,0.001-15.638,0.001-23.459,0c-3.362,0-6.726,0-10.087,0
		c0.004,0.032,0.01,0.066,0.01,0.099c0,0.622-0.39,1.141-0.937,1.351v0.195c0.547,0.208,0.937,0.729,0.937,1.348
		c0,0.621-0.39,1.14-0.937,1.35v0.195c0.547,0.208,0.937,0.728,0.937,1.348c0,0.621-0.39,1.14-0.937,1.348v0.195
		c0.547,0.209,0.937,0.728,0.937,1.349s-0.39,1.139-0.937,1.347v0.196c0.547,0.208,0.937,0.728,0.937,1.348s-0.39,1.14-0.937,1.348
		v0.196c0.547,0.209,0.937,0.728,0.937,1.349c0,0.619-0.39,1.139-0.937,1.347v0.196c0.547,0.209,0.937,0.727,0.937,1.349
		c0,0.62-0.389,1.147-0.937,1.357c0,0.351,0,0.548,0,0.548c5.515,0.752,9.859,8.676,9.859,18.357c0,9.683-4.344,17.604-9.859,18.358
		v0.517c0.548,0.209,0.937,0.735,0.937,1.356c0,0.619-0.39,1.142-0.937,1.349v0.192c0.547,0.211,0.937,0.729,0.937,1.353
		c0,0.619-0.39,1.142-0.937,1.349v0.192c0.547,0.211,0.937,0.729,0.937,1.353c0,0.619-0.39,1.143-0.937,1.35v0.191
		c0.547,0.211,0.937,0.729,0.937,1.354c0,0.619-0.39,1.141-0.937,1.348v0.193c0.547,0.211,0.937,0.729,0.937,1.352
		c0,0.618-0.39,1.141-0.937,1.348v0.193c0.547,0.211,0.937,0.729,0.937,1.353c0,0.618-0.39,1.141-0.937,1.346v0.195
		c0.547,0.211,0.937,0.729,0.937,1.353c0,0.047-0.008,0.088-0.011,0.137h128.921c-0.006-0.049-0.014-0.09-0.014-0.137
		c0-0.767,0.587-1.38,1.335-1.445v-0.004c-0.748-0.062-1.335-0.681-1.335-1.443c0-0.764,0.587-1.381,1.335-1.443v-0.004
		c-0.748-0.064-1.335-0.68-1.335-1.443c0-0.766,0.587-1.385,1.335-1.442v-0.009c-0.748-0.064-1.335-0.68-1.335-1.443
		c0-0.766,0.587-1.385,1.335-1.443v-0.004c-0.748-0.064-1.335-0.686-1.335-1.443c0-0.766,0.587-1.381,1.335-1.442v-0.006
		c-0.748-0.063-1.335-0.685-1.335-1.443c0-0.771,0.587-1.379,1.335-1.442v-0.006c-0.748-0.063-1.335-0.685-1.335-1.443
		c0-0.764,0.587-1.383,1.335-1.447v-0.426c-5.517-0.756-9.858-8.676-9.858-18.356s4.344-17.605,9.858-18.358v-0.46
		c-0.748-0.064-1.335-0.683-1.335-1.445c0-0.764,0.587-1.381,1.335-1.444v-0.004c-0.748-0.064-1.335-0.682-1.335-1.444
		c0-0.764,0.587-1.381,1.335-1.445v-0.004c-0.748-0.063-1.335-0.681-1.335-1.444c0-0.763,0.587-1.38,1.335-1.444v-0.012
		c-0.748-0.063-1.335-0.68-1.335-1.444c0-0.763,0.587-1.38,1.335-1.444v-0.002c-0.748-0.064-1.335-0.682-1.335-1.445
		c0-0.763,0.587-1.382,1.335-1.444V25.99c-0.748-0.063-1.335-0.68-1.335-1.444C-28.057,23.78-27.47,23.162-26.722,23.098z"/>
	<path fill="#542437" d="M-52.177,54.066c0.509,0,0.91-0.227,1.212-0.688c0.251-0.396,0.381-0.859,0.381-1.397
		c0-0.53-0.13-0.997-0.387-1.396c-0.302-0.459-0.702-0.688-1.206-0.688c-0.521,0-0.924,0.226-1.221,0.679
		c-0.247,0.391-0.373,0.857-0.373,1.405c0,0.544,0.126,1.009,0.385,1.397C-53.094,53.84-52.69,54.066-52.177,54.066z"/>
	<path fill="#542437" d="M-59.084,89.461h10.063c2.168,0,3.936-1.764,3.936-3.938V34.1c0-2.169-1.768-3.936-3.936-3.936h-1.921
		c-0.007-0.052-0.017-0.085-0.017-0.091c-0.002,0-0.002,0-0.004,0c0,0,0.092,0.354-0.041,0.574c-0.135,0.22-1.015,0.308-1.015,0.308
		s-0.224,0.707-0.224,0.838c0,0.133-0.222,0.662-0.528,0.75c-0.308,0.088-0.838,0.265-1.015,0.484
		c-0.176,0.221-0.703,0.354-0.836,0.397c-0.141,0.045-0.225,0.352-0.49,0.442c-0.063,0.022-0.198,0.051-0.372,0.081l-0.277,1.587
		c0,0,0.544,1.311,0.435,2.295c-0.063,0.585-0.323,1.64-0.323,1.64l-0.55,2.841l0.11-1.53c0,0,0.044-0.667,0.099-1.332
		c0.037-0.411,0.078-0.822,0.121-1.072c0.108-0.656,0.108-1.641-0.33-2.078c-0.437-0.438-0.762-2.345-0.762-2.345
		c-0.177-0.22-0.09-1.456,0.269-1.719c0,0,0.042-1.808,0.567-2.074l0,0c-0.002,0.002-0.007,0.005-0.01,0.006h-2.949V89.461
		L-59.084,89.461z M-49.931,85.336l-3.739-3.1v3.754h-0.777v-5.582h-0.002h0.002l0,0l4.518,3.776L-49.931,85.336L-49.931,85.336z
		 M-53.654,37.1l3.724-2.261v1.035l-0.885,0.524v1.99l0.885,0.532v1.009l-3.724-2.244V37.1z M-54.447,43.505l0.777,0.008v3.429
		h0.646c-0.116-0.462-0.174-0.908-0.174-1.337c0-0.639,0.121-1.194,0.356-1.669c0.3-0.596,0.739-0.896,1.32-0.896
		c0.558,0,0.997,0.296,1.313,0.889c0.26,0.486,0.391,1.034,0.391,1.644c0,0.954-0.301,1.874-0.899,2.762l-0.676-0.493
		c0.269-0.464,0.457-0.829,0.56-1.1c0.156-0.396,0.236-0.798,0.236-1.204c0-0.355-0.076-0.68-0.229-0.974
		c-0.188-0.363-0.438-0.542-0.765-0.542c-0.301,0-0.526,0.2-0.682,0.601c-0.104,0.294-0.16,0.622-0.16,0.983
		c0,0.57,0.146,1.136,0.438,1.695v0.609h-2.457v-4.405H-54.447z M-53.975,49.904c0.436-0.666,1.033-0.998,1.798-0.998
		c0.755,0,1.354,0.334,1.784,1.008c0.385,0.587,0.578,1.275,0.578,2.066c0,0.797-0.193,1.486-0.578,2.066
		c-0.432,0.678-1.029,1.018-1.784,1.018c-0.757,0-1.354-0.34-1.798-1.018c-0.374-0.58-0.563-1.271-0.563-2.066
		C-54.537,51.178-54.35,50.486-53.975,49.904z M-54.449,55.135h0.002v0.001l4.517,3.776v1.152l-3.739-3.1v3.752h-0.777v-5.58
		L-54.449,55.135z M-54.268,62.844c0.229-0.489,0.579-0.736,1.05-0.736c0.124,0,0.263,0.035,0.415,0.102
		c0.15,0.068,0.268,0.15,0.339,0.248c0.251-0.489,0.603-0.737,1.058-0.737c0.543,0,0.959,0.336,1.252,1.008
		c0.228,0.519,0.341,1.093,0.341,1.72c0,0.619-0.084,1.176-0.261,1.664c-0.17,0.487-0.457,0.971-0.852,1.442l-0.622-0.61
		c0.339-0.438,0.576-0.818,0.72-1.142c0.16-0.392,0.242-0.83,0.242-1.322c0-0.36-0.055-0.713-0.16-1.059
		c-0.15-0.476-0.367-0.71-0.645-0.71c-0.303,0-0.502,0.263-0.585,0.785c-0.026,0.192-0.042,0.564-0.042,1.119h-0.771
		c0-0.061,0-0.141,0-0.246c0.008-0.106,0.015-0.188,0.015-0.235c0-0.692-0.15-1.043-0.443-1.043c-0.205,0-0.354,0.146-0.452,0.44
		c-0.064,0.207-0.101,0.439-0.101,0.701c0,0.682,0.228,1.383,0.677,2.094l-0.665,0.566c-0.521-0.824-0.776-1.725-0.776-2.693
		C-54.537,63.674-54.449,63.222-54.268,62.844z M-53.979,69.16c0.44-0.732,1.046-1.099,1.825-1.099c0.761,0,1.352,0.332,1.781,0.998
		c0.371,0.576,0.559,1.269,0.559,2.067c0,0.941-0.285,1.783-0.855,2.523l-0.576-0.596c0.438-0.609,0.652-1.241,0.652-1.896
		c0-0.436-0.072-0.815-0.214-1.149c-0.159-0.406-0.414-0.683-0.761-0.822c0.26,0.72,0.389,1.406,0.389,2.065
		c0,0.64-0.121,1.209-0.363,1.712c-0.306,0.641-0.74,0.959-1.312,0.959c-0.58,0-1.025-0.304-1.326-0.908
		c-0.239-0.479-0.356-1.041-0.356-1.687C-54.537,70.5-54.352,69.775-53.979,69.16z M-54.267,75.596
		c0.237-0.52,0.589-0.775,1.054-0.775c0.344,0,0.643,0.25,0.891,0.76c0.123,0.261,0.301,0.777,0.524,1.55
		c0.197,0.647,0.36,1.062,0.503,1.229c0.125,0.146,0.325,0.219,0.594,0.219v-3.862h0.771v4.819
		c-0.086-0.008-0.193-0.004-0.332,0.008c-0.162,0.013-0.27,0.017-0.331,0.017c-0.521,0-0.917-0.146-1.19-0.433
		c-0.229-0.229-0.42-0.618-0.574-1.161c-0.112-0.375-0.221-0.757-0.326-1.134c-0.227-0.68-0.407-1.019-0.544-1.019
		c-0.188,0-0.336,0.146-0.438,0.433c-0.067,0.207-0.102,0.431-0.102,0.672c0,0.546,0.238,1.242,0.712,2.084l-0.625,0.558
		c-0.571-0.836-0.854-1.692-0.854-2.584C-54.537,76.457-54.447,75.996-54.267,75.596z"/>
	<polygon fill="#542437" points="-51.527,37.957 -51.527,36.839 -52.438,37.396 	"/>
	<path fill="#542437" d="M-52.855,72.916c0.318,0,0.557-0.211,0.721-0.627c0.126-0.312,0.188-0.652,0.188-1.023
		c0.002-0.703-0.182-1.416-0.543-2.135c-0.401,0.09-0.729,0.383-0.976,0.879c-0.204,0.424-0.306,0.865-0.306,1.33
		c0,0.355,0.063,0.688,0.197,0.99C-53.408,72.719-53.166,72.916-52.855,72.916z"/>
	<path fill="#542437" d="M-88.012,55.889c-0.293,0-0.506,0.103-0.633,0.306c-0.13,0.203-0.191,0.435-0.191,0.688v4.008l1.653-1.659
		v-2.349c0-0.256-0.06-0.485-0.181-0.688C-87.483,55.991-87.699,55.889-88.012,55.889z"/>
	<g>
		<path fill="#542437" d="M-124.991,30.165v59.296h64.782V30.165H-124.991z M-109.333,44.867h-2.431v16.299h-3.953V44.867h-2.431
			v-3.951h8.814L-109.333,44.867L-109.333,44.867z M-104.719,61.166h-3.949v-20.25h3.949V61.166z M-93.864,44.89
			c-0.863,0-1.674,0.162-2.43,0.483c-0.757,0.322-1.414,0.76-1.976,1.312c-0.565,0.553-1.009,1.203-1.34,1.949
			c-0.333,0.747-0.497,1.551-0.497,2.418c0,0.865,0.164,1.672,0.497,2.418c0.331,0.746,0.782,1.396,1.354,1.947
			c0.572,0.553,1.234,0.991,1.988,1.313c0.756,0.321,1.553,0.483,2.403,0.483v3.949c-1.396,0.002-2.715-0.262-3.947-0.785
			c-1.238-0.522-2.318-1.244-3.249-2.156c-0.929-0.91-1.661-1.982-2.196-3.219c-0.531-1.232-0.797-2.55-0.797-3.951
			c0-1.397,0.266-2.715,0.797-3.951c0.535-1.235,1.27-2.309,2.196-3.219c0.931-0.912,2.011-1.631,3.249-2.157
			c1.23-0.524,2.552-0.788,3.947-0.788L-93.864,44.89L-93.864,44.89z M-84.504,48.903c0,0.938-0.126,1.788-0.386,2.552
			c-0.258,0.766-0.632,1.535-1.129,2.309c0.313,0.293,0.556,0.693,0.731,1.201c0.176,0.506,0.26,0.971,0.26,1.395v4.808h-3.946
			v-4.779l-0.272,0.139v4.64h-3.951v-20.25h3.951l0.008,10.582c0.252-0.404,0.445-0.82,0.582-1.244
			c0.139-0.422,0.201-0.875,0.201-1.353l0.024-7.985h3.927V48.903z M-76.705,44.867h-3.178v8.127h2.274v3.949h-2.274v0.271h3.178
			v3.95h-7.125V40.916h7.125V44.867z M-67.233,44.867h-2.427v16.299h-3.948V44.867h-2.431v-3.951h8.806V44.867z"/>
		<path fill="#542437" d="M-87.318,53.624c-0.606,0-1.104,0.249-1.492,0.746c0.482,0.038,0.904,0.228,1.271,0.565
			c0.369,0.342,0.586,0.752,0.662,1.229l1.489-0.911c-0.144-0.422-0.382-0.801-0.716-1.133
			C-86.434,53.791-86.836,53.624-87.318,53.624z"/>
		<path fill="#542437" d="M-88.52,50.417c-0.096,0.313-0.204,0.553-0.333,0.719c-0.13,0.166-0.271,0.379-0.415,0.637l-1.721,3.15
			c0.146-0.056,0.334-0.143,0.562-0.264c0.231-0.119,0.47-0.257,0.722-0.413c0.246-0.157,0.48-0.31,0.7-0.456
			c0.22-0.148,0.388-0.277,0.496-0.389c0.589-0.589,1.046-1.273,1.373-2.057c0.334-0.782,0.498-1.599,0.498-2.444v-5.94l1.858-1.878
			l-3.512-0.008l0.021,7.823C-88.271,49.415-88.354,49.922-88.52,50.417z"/>
		<polygon fill="#542437" points="-81.566,59.033 -78.584,59.033 -76.925,57.375 -79.91,57.375 		"/>
		<polygon fill="#542437" points="-106.852,59.23 -106.852,42.85 -104.938,41.055 -108.513,41.053 -108.505,60.89 		"/>
		<path fill="#542437" d="M-100.737,54.201c-0.225,0-0.426-0.064-0.61-0.193c0.481,1.193,1.205,2.211,2.183,3.049
			c0.976,0.838,2.092,1.414,3.344,1.727l1.687-1.409c-0.612-0.017-1.202-0.123-1.788-0.317c-0.578-0.193-1.113-0.463-1.6-0.813
			c-0.489-0.351-0.928-0.76-1.314-1.228c-0.389-0.471-0.699-0.989-0.938-1.562c-0.058,0.204-0.173,0.38-0.357,0.526
			C-100.313,54.125-100.519,54.201-100.737,54.201z"/>
		<polygon fill="#542437" points="-93.06,41.075 -93.06,60.89 -91.406,59.23 -91.406,42.932 -89.527,41.082 		"/>
		<path fill="#542437" d="M-101.051,44.11c-0.887,0.902-1.578,1.947-2.088,3.136c-0.504,1.186-0.759,2.453-0.759,3.799
			c0,0.366,0.028,0.772,0.083,1.215c0.056,0.44,0.14,0.885,0.251,1.326c0.108,0.441,0.243,0.868,0.397,1.283
			c0.156,0.415,0.346,0.77,0.566,1.063c0.091,0.131,0.188,0.24,0.292,0.334c0.101,0.091,0.233,0.137,0.401,0.137
			c0.256,0,0.461-0.092,0.619-0.275c0.155-0.185,0.234-0.396,0.234-0.635c0-0.093-0.018-0.166-0.04-0.223
			c-0.026-0.055-0.063-0.118-0.098-0.192c-0.332-0.664-0.591-1.313-0.775-1.946c-0.182-0.639-0.273-1.333-0.273-2.087
			c0-0.959,0.162-1.88,0.481-2.765c0.321-0.883,0.769-1.685,1.343-2.404c0.568-0.717,1.248-1.326,2.043-1.823
			c0.791-0.497,1.66-0.857,2.596-1.078l1.604-1.879c-1.344,0.039-2.604,0.325-3.781,0.859
			C-99.138,42.49-100.167,43.208-101.051,44.11z"/>
		<polygon fill="#542437" points="-73.451,60.89 -71.791,59.23 -71.791,43.096 -73.451,44.726 		"/>
		<polygon fill="#542437" points="-73.834,42.732 -69.5,42.732 -67.512,41.075 -75.88,41.075 -75.875,44.583 		"/>
		<polygon fill="#542437" points="-115.557,60.89 -113.903,59.23 -113.903,43.096 -115.557,44.726 		"/>
		<polygon fill="#542437" points="-81.566,54.808 -79.468,54.808 -77.808,53.152 -79.91,53.152 		"/>
		<polygon fill="#542437" points="-111.607,42.733 -109.618,41.074 -117.993,41.074 -117.993,41.075 -117.993,44.583 
			-115.946,42.733 		"/>
		<polygon fill="#542437" points="-82.017,59.23 -82.017,42.73 -78.728,42.73 -77.07,41.074 -83.67,41.074 -83.67,41.075 
			-83.666,60.89 		"/>
	</g>
	<path fill="#ECD078" d="M-50.394,29.709c-0.024,0.049-0.039,0.097-0.039,0.142c0-0.001,0.002-0.002,0.002-0.003
		C-50.431,29.805-50.416,29.758-50.394,29.709z"/>
	<g>
		<path fill="#F1F1F2" d="M-109.765,81.088h-1.21l-0.614-1.031h-2.332l-0.622,1.031h-1.182l2.625-4.352h0.686L-109.765,81.088z
			 M-112.104,79.226l-0.654-1.071l-0.653,1.071H-112.104z"/>
		<path fill="#F1F1F2" d="M-104.391,78.928c0,0.736-0.294,1.295-0.884,1.677c-0.503,0.323-1.14,0.483-1.91,0.483h-2.315v-4.352
			h2.315c0.741,0,1.378,0.172,1.901,0.524C-104.688,77.658-104.391,78.217-104.391,78.928z M-105.521,78.92
			c0-0.434-0.177-0.766-0.529-0.994c-0.301-0.207-0.677-0.309-1.126-0.309h-1.216v2.588h1.216c0.469,0,0.848-0.092,1.141-0.281
			C-105.694,79.691-105.521,79.361-105.521,78.92z"/>
		<path fill="#F1F1F2" d="M-98.016,81.088h-1.105v-2.584l-1.645,2.029l-1.688-2.029v2.584h-1.102v-4.352h0.893l1.871,2.271
			l1.883-2.271h0.893V81.088z"/>
		<path fill="#F1F1F2" d="M-95.589,81.088h-1.116v-4.359h1.116V81.088z"/>
		<path fill="#F1F1F2" d="M-89.994,77.601h-2.035v3.485h-1.108v-3.485h-2.029v-0.864h5.174v0.864H-89.994z"/>
		<path fill="#F1F1F2" d="M-81.455,78.92c0,0.758-0.349,1.344-1.041,1.769c-0.596,0.354-1.291,0.534-2.09,0.534
			c-0.779,0-1.468-0.188-2.063-0.555c-0.7-0.434-1.049-1.012-1.049-1.748c0-0.74,0.346-1.322,1.037-1.744
			c0.593-0.354,1.278-0.533,2.074-0.533c0.813,0,1.506,0.171,2.09,0.516C-81.804,77.572-81.455,78.158-81.455,78.92z M-82.578,78.92
			c0-0.469-0.225-0.832-0.682-1.092c-0.377-0.211-0.816-0.316-1.326-0.316c-0.503,0-0.938,0.105-1.308,0.316
			c-0.451,0.26-0.675,0.623-0.675,1.092c0,0.471,0.224,0.834,0.675,1.092c0.366,0.211,0.805,0.316,1.308,0.316
			c0.51,0,0.949-0.105,1.326-0.316C-82.803,79.758-82.578,79.396-82.578,78.92z"/>
		<path fill="#F1F1F2" d="M-76.031,81.088h-0.653l-2.795-2.598v2.598h-1.089v-4.352h0.652l2.795,2.606v-2.606h1.09V81.088z"/>
		<path fill="#F1F1F2" d="M-69.66,81.088h-5.073v-4.352h4.866v0.893h-3.768v0.717h2.467v0.881h-2.467v0.979h3.975V81.088z"/>
	</g>
	<g>
		<path fill="#F1F1F2" d="M-91.009,69.633l0.968,2.984l-0.104,0.08l-2.527-1.855l-2.553,1.855l-0.109-0.08l0.967-2.984l-2.528-1.83
			l0.026-0.131h3.146l0.968-2.983h0.139l0.967,2.983h3.115l0.054,0.131L-91.009,69.633z M-92.758,65.189l-0.861,2.608h-2.769
			l3.63,1.182V65.189z M-94.183,69.574l-0.86,2.635l2.234-3.094L-94.183,69.574z M-91.762,67.799l-0.859,1.184l3.627-1.184H-91.762z
			 M-91.197,69.574l-1.373-0.459l2.234,3.094L-91.197,69.574z"/>
	</g>
	<path fill="#F3ECD3" d="M-60.459,22.578c-0.109,0.163-0.271,0.328-0.218,0.491c0.054,0.165,0.326,0.384,0.603,0.438
		c0.271,0.054,0.601,0.49,0.601,0.49l-0.165,0.439l0.492,0.327l0.221,0.547l-1.261,0.546h0.983l0.604-0.054l-0.108,0.438
		c0,0-0.273,0.219-0.061,0.329c0.223,0.109,0.713,0.381,0.713,0.601c0,0.22,0,0.494,0,0.494s-0.057,0.436-0.104,0.654
		c-0.061,0.219,0.213,0.655,0.213,0.655l0.602,0.438c0,0,0.277,0.273,0.277,0.546c0,0.274,0,0.492,0,0.492s-0.055,0,0.051,0.219
		c0.107,0.219,0.107,0.602,0.107,0.602s0,0.055-0.213,0.381c-0.225,0.328-0.225,0.328-0.225,0.328s-0.271,0.384-0.059,0.767
		c0.227,0.383,0.115,1.092,0.115,1.366s-0.384,0.383-0.164,0.656c0.222,0.273,0.6,0.546,0.6,0.546s0.438,0.546,0.438,0.82
		c0,0.273,0.055,0.71,0.055,0.71s-0.106,0.492,0.057,0.602c0.164,0.11,0.221,0.437,0.221,0.602c0,0.163,0.159,0.546,0.057,0.874
		c-0.111,0.329-0.221,0.547-0.166,0.82s0.109,0.491,0.109,0.491l-0.057,1.148l0.021-0.099l0.035-0.501c0,0,0.043-0.667,0.098-1.332
		c0.039-0.411,0.08-0.822,0.123-1.072c0.106-0.656,0.106-1.641-0.33-2.078c-0.438-0.438-0.764-2.345-0.764-2.345
		c-0.177-0.22-0.09-1.456,0.269-1.719c0,0,0.042-1.808,0.569-2.074l0.047-0.484c0,0-0.532-0.662-0.49-1.06
		c0.05-0.397-0.303-1.014-0.482-1.235c-0.177-0.222,0.131-0.44,0.131-0.44s-0.218-0.575-0.176-0.75
		c0.045-0.177-0.395-0.177-0.484-0.442c-0.086-0.266,0.047-0.707-0.131-1.147c-0.18-0.44-0.836-0.661-1.545-0.618
		c-0.021-0.587,0.153-1.311-0.222-1.785c-0.317-0.401-1.054-0.547-1.817-0.596l-0.099,0.319l0.383,0.383
		C-61.007,22.305-60.351,22.414-60.459,22.578z"/>
	<path fill="#F3ECD3" d="M-50.961,30.069c0,0,0.092,0.354-0.041,0.574c-0.135,0.22-1.015,0.308-1.015,0.308
		s-0.224,0.707-0.224,0.838c0,0.133-0.221,0.662-0.528,0.75s-0.838,0.265-1.015,0.484c-0.176,0.221-0.703,0.354-0.836,0.397
		c-0.141,0.045-0.225,0.352-0.49,0.442c-0.063,0.022-0.198,0.051-0.372,0.081l-0.277,1.587c0,0,0.544,1.311,0.435,2.295
		c-0.063,0.585-0.323,1.64-0.323,1.64l-0.367,1.898l-0.069,0.561l0.327-0.929l0.164-0.93l0.162-0.489c0,0,0.218-0.167,0.271-0.329
		c0.058-0.165-0.055-0.547-0.055-0.547s0.164-0.601,0.219-0.874c0.06-0.273,0.111-0.82,0.06-1.094
		c-0.06-0.272-0.166-0.491-0.166-0.491l0.272-0.437l-0.106-0.547c0,0-0.06-0.437,0-0.71c0.054-0.273,0.603-0.164,0.819-0.219
		c0.215-0.054,0.816-0.436,0.816-0.436s0.275-0.382,0.221-0.657c-0.056-0.272,0.926-0.381,1.09-0.765
		c0.166-0.383,0.771-0.383,1.039-0.383l1.535-0.491l0.269-0.22c0,0,0,0,0.056-0.383c0.057-0.382,0.274-0.108,0.274-0.108
		s0,0,0.163-0.055c0.164-0.054,0.328,0.055,0.494,0c0.162-0.054,0.271-0.164,0.22-0.327c-0.058-0.164-0.438-0.273-0.494-0.438
		c-0.056-0.164,0.221-0.382,0.548-0.437c0.33-0.055,0.71,0.054,1.094-0.164c0.385-0.219,0.488-0.766,0.434-1.039
		c-0.049-0.272-0.487-0.929-0.487-0.929s-0.328-0.71-0.385-0.928c-0.056-0.22,0-0.329,0.274-0.548
		c0.271-0.217-0.22-0.874-0.22-0.874s-0.057-0.491-0.166-0.765c-0.106-0.273,0.166-0.711,0.33-0.928
		c0.164-0.219,0.327-0.384,0.271-0.765c-0.051-0.383-0.271-0.493-0.271-0.493s-0.03-0.237,0.056-0.54
		c-1.344,0.029-0.809,1.04-0.826,2.237l-0.396,0.177c0,0,0.525,0.132,0.484,0.397c-0.043,0.264-0.135,0.794-0.266,0.838
		c-0.13,0.043,0,0.308-0.087,0.44c-0.092,0.132,0.042,0.707,0.042,0.707s0.311,0.265,0.176,0.618
		c-0.131,0.352-0.084,0.793,0.135,0.706c0,0,0,0.309-0.311,0.44c-0.31,0.132-1.057,0.31-1.322,0.265c0,0-0.219,0.354-0.395,0.266
		c0,0-0.134,0.264-0.311,0.485c-0.176,0.22-0.397,0.442-0.397,0.618C-50.431,30.026-50.826,30.157-50.961,30.069z"/>
</g>
</svg>
