<?xml version="1.0" encoding="utf-8"?>
<!-- Generator: Adobe Illustrator 16.0.0, SVG Export Plug-In . SVG Version: 6.00 Build 0)  -->
<!DOCTYPE svg PUBLIC "-//W3C//DTD SVG 1.1//EN" "http://www.w3.org/Graphics/SVG/1.1/DTD/svg11.dtd">
<svg version="1.1" id="Layer_1" xmlns="http://www.w3.org/2000/svg" xmlns:xlink="http://www.w3.org/1999/xlink" x="0px" y="0px"
	 width="22px" height="22px" viewBox="0 0 22 22" enable-background="new 0 0 22 22" xml:space="preserve">
<g>
	<path fill="#E6E7E8" d="M11,21.641C5.125,21.641,0.359,16.874,0.359,11C0.359,5.125,5.125,0.359,11,0.359S21.641,5.125,21.641,11
		C21.641,16.874,16.875,21.641,11,21.641z M17.914,10.376l-1.262-1.26L11.638,4.1c-0.167-0.166-0.389-0.25-0.624-0.25
		s-0.457,0.083-0.623,0.25L9.13,5.361C8.963,5.527,8.88,5.749,8.88,5.984c0,0.236,0.083,0.458,0.25,0.624l2.618,2.619H4.793
		c-0.485,0-0.887,0.401-0.887,0.887v1.773c0,0.485,0.401,0.887,0.887,0.887h6.955L9.13,15.392c-0.167,0.166-0.264,0.389-0.264,0.624
		s0.097,0.457,0.264,0.624l1.261,1.26c0.166,0.166,0.388,0.25,0.623,0.25s0.457-0.084,0.624-0.25l5.015-5.016l1.262-1.26
		c0.166-0.167,0.249-0.389,0.249-0.624S18.08,10.543,17.914,10.376z"/>
</g>
</svg>
