<?xml version="1.0" encoding="utf-8"?>
<!-- Generator: Adobe Illustrator 16.0.0, SVG Export Plug-In . SVG Version: 6.00 Build 0)  -->
<!DOCTYPE svg PUBLIC "-//W3C//DTD SVG 1.1//EN" "http://www.w3.org/Graphics/SVG/1.1/DTD/svg11.dtd">
<svg version="1.1" id="Layer_1" xmlns="http://www.w3.org/2000/svg" xmlns:xlink="http://www.w3.org/1999/xlink" x="0px" y="0px"
	 width="95px" height="102px" viewBox="0 0 95 102" enable-background="new 0 0 95 102" xml:space="preserve">
<g>
	<rect fill="#FED093" width="95.001" height="60"/>
	<rect x="2.154" y="1.78" fill="#F1F2F2" width="90.691" height="56.44"/>
</g>
<g>
	<rect y="42" fill="#FED093" width="95.001" height="60"/>
	<rect x="2.154" y="43.78" fill="#F1F2F2" width="90.691" height="56.439"/>
</g>
<rect x="2.154" y="20.833" fill="#F1F2F2" width="90.691" height="47"/>
<path fill="#FED093" d="M23.711,70.833h47.791c0,0,0.39-3.419-0.909-5.437c-1.442-2.251-6.299-3.653-11.094-5.653
	c-4.807-2.001-5.947-2.696-5.947-2.696l-1.3-4.601c0,0,3.059-1.386,3.614-5.715c1.129,0.323,2.307-2.936,2.371-3.99
	c0.063-1.012-0.158-2.586-1.531-2.299c0.032-0.22,0.058-0.438,0.083-0.653c0-0.013,0-0.022,0.005-0.028
	c0.235-1.853,0.383-3.469,0.302-4.364c-0.22-2.308-1.716-4.688-4.178-6.162c-0.019-0.006-0.035-0.012-0.054-0.019
	c-1.312-0.532-3.295-1.329-5.501-1.411c-1.944,0.05-3.788,0.386-5.035,1.411c-0.205,0.166-0.533,0.594-0.768,0.708
	c-0.076,0.037-1.759,0.383-2.512,1.64c-1.116,1.854-0.825,6.753-0.547,8.878c-1.376-0.287-1.588,1.287-1.526,2.299
	c0.064,1.055,1.241,4.313,2.372,3.99c0.552,4.329,3.613,5.715,3.613,5.715l-1.306,4.601c0,0-1.135,0.695-5.94,2.696
	c-4.805,2-9.653,3.402-11.101,5.653C23.321,67.414,23.711,70.833,23.711,70.833z"/>
</svg>
