<?xml version="1.0" encoding="utf-8"?>
<!-- Generator: Adobe Illustrator 16.0.0, SVG Export Plug-In . SVG Version: 6.00 Build 0)  -->
<!DOCTYPE svg PUBLIC "-//W3C//DTD SVG 1.1//EN" "http://www.w3.org/Graphics/SVG/1.1/DTD/svg11.dtd">
<svg version="1.1" id="Layer_1" xmlns="http://www.w3.org/2000/svg" xmlns:xlink="http://www.w3.org/1999/xlink" x="0px" y="0px"
	 width="254px" height="148px" viewBox="0 -5 254 148" enable-background="new 0 -5 254 148" xml:space="preserve">
<g>
	<g>
		<rect y="4.934" fill="#FED093" width="217.962" height="138"/>
		<rect x="4.943" y="9.027" fill="#F1F2F2" width="208.077" height="129.813"/>
	</g>
	<g>
		<rect x="36.038" y="5" fill="#FED093" width="217.962" height="138"/>
		<rect x="40.981" y="9.094" fill="#F1F2F2" width="208.076" height="129.813"/>
	</g>
</g>
<g>
	<rect y="-5" fill="#FED093" width="217.962" height="138"/>
	<rect x="4.943" y="-0.906" fill="#F1F2F2" width="208.077" height="129.813"/>
</g>
<rect x="36.038" y="-4.934" fill="#FED093" width="217.962" height="138"/>
<rect x="40.981" y="-0.84" fill="#F1F2F2" width="208.076" height="129.813"/>
<rect x="29.667" y="-0.906" fill="#F1F2F2" width="118.667" height="129.813"/>
<rect x="4.943" y="9.427" fill="#F1F2F2" width="244.113" height="129.813"/>
<path fill="#FED093" d="M75.206,121.549h109.669c0,0,0.893-7.865-2.088-12.504c-3.311-5.178-14.453-8.404-25.457-13.002
	c-11.03-4.604-13.646-6.203-13.646-6.203L140.7,79.258c0,0,7.018-3.188,8.294-13.144c2.59,0.744,5.292-6.752,5.439-9.179
	c0.145-2.327-0.36-5.948-3.514-5.288c0.074-0.503,0.133-1.004,0.189-1.501c0-0.028,0-0.051,0.011-0.066
	c0.54-4.26,0.88-7.979,0.694-10.037c-0.506-5.309-3.938-10.784-9.586-14.171c-0.045-0.014-0.084-0.029-0.127-0.044
	c-3.008-1.224-7.561-3.058-12.623-3.246c-4.46,0.114-8.69,0.889-11.555,3.246c-0.469,0.382-1.223,1.366-1.762,1.629
	c-0.175,0.083-4.035,0.881-5.764,3.771c-2.561,4.265-1.893,15.531-1.256,20.419c-3.158-0.66-3.643,2.961-3.502,5.288
	c0.147,2.427,2.848,9.923,5.443,9.179c1.268,9.956,8.291,13.144,8.291,13.144l-2.996,10.582c0,0-2.604,1.6-13.631,6.203
	c-11.025,4.598-22.15,7.824-25.473,13.002C74.312,113.684,75.206,121.549,75.206,121.549z"/>
</svg>
