<?xml version="1.0" encoding="utf-8"?>
<!-- Generator: Adobe Illustrator 16.0.0, SVG Export Plug-In . SVG Version: 6.00 Build 0)  -->
<!DOCTYPE svg PUBLIC "-//W3C//DTD SVG 1.1//EN" "http://www.w3.org/Graphics/SVG/1.1/DTD/svg11.dtd">
<svg version="1.1" id="Layer_1" xmlns="http://www.w3.org/2000/svg" xmlns:xlink="http://www.w3.org/1999/xlink" x="0px" y="0px"
	 width="303px" height="154px" viewBox="0 0 303 154" enable-background="new 0 0 303 154" xml:space="preserve">
<g>
	<g>
		<rect fill="#0992A4" width="302.999" height="154"/>
		<rect x="8.265" y="6.283" fill="#F1F2F2" width="286.468" height="141.435"/>
	</g>
	<path fill="#0992A4" d="M94.797,126.396h109.89c0,0,0.893-7.85-2.095-12.482c-3.314-5.168-14.479-8.389-25.506-12.978
		c-11.055-4.598-13.674-6.191-13.674-6.191l-2.99-10.564c0,0,7.032-3.18,8.311-13.12c2.596,0.743,5.303-6.74,5.451-9.163
		c0.144-2.323-0.362-5.938-3.521-5.278c0.074-0.501,0.133-1.002,0.19-1.499c0-0.028,0-0.051,0.01-0.066
		c0.541-4.252,0.882-7.964,0.698-10.018c-0.51-5.299-3.948-10.765-9.607-14.147c-0.044-0.014-0.083-0.028-0.125-0.042
		c-3.016-1.223-7.576-3.052-12.648-3.241c-4.472,0.114-8.71,0.887-11.578,3.241c-0.469,0.381-1.226,1.362-1.765,1.625
		c-0.176,0.083-4.045,0.879-5.777,3.764c-2.566,4.257-1.896,15.504-1.258,20.383c-3.164-0.659-3.651,2.955-3.509,5.278
		c0.149,2.423,2.854,9.906,5.455,9.163c1.271,9.94,8.308,13.12,8.308,13.12l-3.002,10.564c0,0-2.609,1.594-13.658,6.191
		c-11.049,4.589-22.195,7.81-25.523,12.978C93.901,118.546,94.797,126.396,94.797,126.396z"/>
</g>
</svg>
