<?xml version="1.0" encoding="utf-8"?>
<!-- Generator: Adobe Illustrator 16.0.0, SVG Export Plug-In . SVG Version: 6.00 Build 0)  -->
<!DOCTYPE svg PUBLIC "-//W3C//DTD SVG 1.1//EN" "http://www.w3.org/Graphics/SVG/1.1/DTD/svg11.dtd">
<svg version="1.1" id="Layer_1" xmlns="http://www.w3.org/2000/svg" xmlns:xlink="http://www.w3.org/1999/xlink" x="0px" y="0px"
	 width="479.5px" height="541.535px" viewBox="0 0 479.5 541.535" enable-background="new 0 0 479.5 541.535" xml:space="preserve">
<g>
	<rect x="115.369" y="357.665" fill="#0992A4" width="364.131" height="185.07"/>
	<rect x="125.301" y="365.216" fill="#F1F2F2" width="344.265" height="169.971"/>
</g>
<g>
	<rect y="356.464" fill="#0992A4" width="364.131" height="185.071"/>
	<rect x="9.933" y="364.015" fill="#F1F2F2" width="344.266" height="169.971"/>
</g>
<g>
	<rect fill="#0992A4" width="364.131" height="185.07"/>
	<rect x="9.933" y="7.55" fill="#F1F2F2" width="344.266" height="169.97"/>
</g>
<g>
	<rect y="182.328" fill="#0992A4" width="364.131" height="185.07"/>
	<rect x="9.933" y="189.879" fill="#F1F2F2" width="344.266" height="169.97"/>
</g>
<g>
	<rect x="115.369" y="1.202" fill="#0992A4" width="364.131" height="185.071"/>
	<rect x="125.301" y="8.752" fill="#F1F2F2" width="344.265" height="169.97"/>
</g>
<g>
	<rect x="115.369" y="183.528" fill="#0992A4" width="364.131" height="185.071"/>
	<rect x="125.301" y="191.079" fill="#F1F2F2" width="344.265" height="169.972"/>
</g>
<rect x="9.933" y="7.55" fill="#F1F2F2" width="459.634" height="527.636"/>
<path fill="#0992A4" d="M112.318,391.555h267.376c0,0,2.173-19.101-5.096-30.373c-8.065-12.575-35.232-20.411-62.061-31.575
	c-26.896-11.187-33.27-15.065-33.27-15.065l-7.275-25.705c0,0,17.109-7.736,20.22-31.922c6.316,1.807,12.902-16.398,13.265-22.296
	c0.349-5.652-0.882-14.446-8.566-12.843c0.181-1.221,0.323-2.438,0.463-3.645c0-0.07,0-0.126,0.023-0.161
	c1.316-10.347,2.146-19.378,1.699-24.377c-1.239-12.893-9.605-26.193-23.376-34.421c-0.105-0.032-0.202-0.067-0.305-0.104
	c-7.337-2.975-18.434-7.425-30.774-7.886c-10.88,0.277-21.194,2.157-28.172,7.886c-1.142,0.927-2.983,3.315-4.293,3.955
	c-0.429,0.202-9.842,2.14-14.057,9.157c-6.243,10.357-4.612,37.725-3.061,49.595c-7.699-1.604-8.882,7.19-8.539,12.843
	c0.363,5.897,6.945,24.103,13.272,22.296c3.093,24.186,20.215,31.922,20.215,31.922l-7.305,25.705c0,0-6.349,3.879-33.231,15.065
	c-26.884,11.164-54.004,19-62.102,31.575C110.139,372.454,112.318,391.555,112.318,391.555z"/>
</svg>
