<?xml version="1.0" encoding="utf-8"?>
<!-- Generator: Adobe Illustrator 16.0.0, SVG Export Plug-In . SVG Version: 6.00 Build 0)  -->
<!DOCTYPE svg PUBLIC "-//W3C//DTD SVG 1.1//EN" "http://www.w3.org/Graphics/SVG/1.1/DTD/svg11.dtd">
<svg version="1.1" id="Layer_1" xmlns="http://www.w3.org/2000/svg" xmlns:xlink="http://www.w3.org/1999/xlink" x="0px" y="0px"
	 width="200px" height="158px" viewBox="3 0 200 158" enable-background="new 3 0 200 158" xml:space="preserve">
<path fill="#FED093" d="M203,148c0,5.521-4.547,10-10.152,10H13.152C7.546,158,3,153.521,3,148V10C3,4.477,7.546,0,13.152,0h179.695
	C198.453,0,203,4.477,203,10V148z"/>
<g>
	<path fill="#542437" d="M79.644,112.08c0,0.533-0.111,1.021-0.33,1.467c-0.221,0.447-0.518,0.832-0.89,1.158
		c-0.371,0.326-0.806,0.58-1.303,0.76c-0.495,0.18-1.026,0.27-1.592,0.27h-6.902v-14.176h7.048c0.509,0,0.971,0.107,1.384,0.32
		s0.765,0.488,1.055,0.828c0.289,0.34,0.514,0.725,0.672,1.158c0.158,0.432,0.237,0.869,0.237,1.307
		c0,0.719-0.186,1.375-0.558,1.967c-0.372,0.594-0.889,1.035-1.552,1.328c0.842,0.24,1.506,0.686,1.996,1.338
		C79.397,110.457,79.644,111.215,79.644,112.08z M70.052,102.777v5.229h5.043c0.357,0,0.692-0.07,1.002-0.221
		c0.309-0.146,0.578-0.338,0.806-0.578c0.229-0.24,0.403-0.518,0.527-0.828c0.124-0.313,0.186-0.645,0.186-0.986
		c0-0.359-0.059-0.699-0.176-1.02c-0.117-0.318-0.282-0.598-0.496-0.83c-0.214-0.23-0.469-0.418-0.766-0.561
		c-0.296-0.139-0.616-0.209-0.961-0.209H70.05v0.004H70.052z M78.195,111.84c0-0.346-0.062-0.682-0.186-1.008
		s-0.3-0.611-0.527-0.857c-0.227-0.246-0.496-0.445-0.807-0.6c-0.31-0.152-0.646-0.229-1.002-0.229h-5.622v5.369h5.477
		c0.372,0,0.725-0.072,1.056-0.221c0.33-0.146,0.613-0.344,0.848-0.59s0.42-0.531,0.558-0.855
		C78.127,112.523,78.195,112.188,78.195,111.84z"/>
	<path fill="#542437" d="M87.455,106.529c-0.95,0.027-1.776,0.281-2.479,0.76s-1.199,1.139-1.489,1.977v6.469H82.08v-10.4h1.323
		v2.496c0.372-0.73,0.861-1.344,1.468-1.826c0.606-0.484,1.262-0.729,1.963-0.729c0.125,0,0.24,0,0.353,0
		c0.109,0,0.199,0.008,0.268,0.021L87.455,106.529L87.455,106.529z"/>
	<path fill="#542437" d="M93.49,115.934c-0.786,0-1.506-0.143-2.16-0.43c-0.653-0.285-1.22-0.676-1.694-1.168
		c-0.476-0.492-0.844-1.064-1.105-1.717s-0.392-1.338-0.392-2.057c0-0.73,0.134-1.424,0.403-2.076
		c0.269-0.652,0.64-1.227,1.114-1.717c0.477-0.492,1.041-0.887,1.696-1.18c0.654-0.293,1.367-0.438,2.139-0.438
		s1.484,0.146,2.139,0.438c0.654,0.293,1.22,0.688,1.695,1.18c0.476,0.49,0.848,1.063,1.116,1.717
		c0.269,0.652,0.402,1.346,0.402,2.076c0,0.719-0.134,1.402-0.402,2.057c-0.269,0.652-0.641,1.225-1.116,1.717
		c-0.475,0.492-1.04,0.883-1.695,1.168C94.977,115.791,94.263,115.934,93.49,115.934z M89.585,110.584
		c0,0.584,0.101,1.127,0.3,1.627c0.2,0.498,0.475,0.938,0.827,1.316c0.352,0.377,0.765,0.676,1.239,0.889
		c0.476,0.213,0.982,0.32,1.521,0.32c0.537,0,1.043-0.111,1.52-0.33s0.893-0.521,1.251-0.898c0.357-0.379,0.641-0.822,0.848-1.328
		c0.206-0.506,0.31-1.051,0.31-1.637c0-0.572-0.103-1.115-0.31-1.627c-0.208-0.512-0.49-0.959-0.848-1.338
		c-0.358-0.379-0.771-0.678-1.239-0.898c-0.47-0.219-0.972-0.33-1.51-0.33c-0.539,0-1.043,0.111-1.52,0.33
		c-0.475,0.221-0.888,0.523-1.24,0.908c-0.351,0.387-0.63,0.836-0.837,1.348C89.688,109.449,89.585,109.998,89.585,110.584z"/>
	<path fill="#542437" d="M114.368,105.332h1.363l-4.609,10.402h-1.18l-2.295-5.313l-2.294,5.313h-1.179l-4.609-10.402h1.344
		l3.928,9.004l2.047-4.752l-1.838-4.232h1.195l1.406,3.396l1.385-3.396h1.199l-1.818,4.232l2.047,4.752L114.368,105.332z"/>
	<path fill="#542437" d="M120.901,115.934c-0.842,0-1.662-0.133-2.461-0.396c-0.8-0.27-1.488-0.652-2.065-1.158l0.641-0.92
		c0.604,0.479,1.222,0.84,1.851,1.078c0.627,0.238,1.297,0.357,2.014,0.357c0.87,0,1.561-0.168,2.079-0.508
		c0.515-0.34,0.772-0.822,0.772-1.447c0-0.293-0.068-0.537-0.205-0.729c-0.139-0.193-0.343-0.363-0.61-0.51
		c-0.271-0.146-0.606-0.275-1.015-0.389c-0.406-0.114-0.877-0.23-1.414-0.352c-0.621-0.146-1.155-0.293-1.612-0.438
		c-0.456-0.146-0.831-0.313-1.126-0.5c-0.297-0.188-0.518-0.416-0.664-0.688c-0.145-0.272-0.217-0.614-0.217-1.028
		c0-0.521,0.108-0.979,0.322-1.377c0.213-0.4,0.5-0.729,0.867-0.988c0.364-0.26,0.794-0.455,1.282-0.59
		c0.487-0.134,1.009-0.199,1.562-0.199c0.825,0,1.575,0.132,2.252,0.39c0.676,0.26,1.221,0.604,1.633,1.028l-0.684,0.8
		c-0.4-0.399-0.884-0.699-1.457-0.897c-0.57-0.199-1.166-0.302-1.787-0.302c-0.371,0-0.715,0.037-1.033,0.111
		c-0.318,0.071-0.596,0.188-0.838,0.35c-0.24,0.158-0.432,0.361-0.568,0.607c-0.137,0.247-0.206,0.536-0.206,0.868
		c0,0.279,0.048,0.507,0.146,0.681c0.098,0.172,0.254,0.321,0.476,0.448c0.221,0.125,0.499,0.238,0.838,0.339
		c0.338,0.1,0.748,0.202,1.229,0.311c0.688,0.16,1.293,0.318,1.817,0.479c0.524,0.16,0.964,0.346,1.313,0.559
		c0.352,0.213,0.615,0.475,0.797,0.779c0.177,0.307,0.269,0.678,0.269,1.115c0,0.959-0.38,1.719-1.136,2.277
		C123.2,115.654,122.18,115.934,120.901,115.934z"/>
	<path fill="#542437" d="M132.061,115.934c-0.786,0-1.508-0.143-2.171-0.43c-0.663-0.285-1.232-0.678-1.715-1.178
		c-0.482-0.498-0.857-1.074-1.126-1.727c-0.269-0.654-0.405-1.354-0.405-2.098c0-0.73,0.137-1.422,0.405-2.064
		c0.269-0.646,0.644-1.211,1.126-1.697c0.48-0.486,1.051-0.871,1.703-1.158c0.656-0.287,1.375-0.43,2.162-0.43
		c0.785,0,1.504,0.143,2.158,0.43c0.656,0.287,1.217,0.676,1.687,1.168c0.468,0.492,0.832,1.059,1.095,1.697
		c0.262,0.639,0.394,1.316,0.394,2.035c0,0.105-0.005,0.213-0.011,0.318c-0.006,0.107-0.017,0.182-0.03,0.221h-9.196
		c0.04,0.561,0.174,1.076,0.402,1.549c0.226,0.473,0.516,0.881,0.867,1.227c0.352,0.348,0.758,0.617,1.219,0.809
		c0.463,0.193,0.953,0.289,1.478,0.289c0.361,0,0.712-0.045,1.058-0.139c0.344-0.094,0.662-0.221,0.949-0.379
		c0.289-0.16,0.549-0.357,0.775-0.59c0.229-0.232,0.404-0.488,0.527-0.768l1.221,0.316c-0.167,0.389-0.4,0.736-0.702,1.051
		c-0.303,0.313-0.655,0.586-1.058,0.816c-0.4,0.23-0.842,0.412-1.32,0.539C133.065,115.871,132.571,115.934,132.061,115.934z
		 M136.03,109.984c-0.043-0.561-0.178-1.068-0.404-1.527c-0.229-0.459-0.518-0.855-0.868-1.188
		c-0.354-0.334-0.763-0.594-1.229-0.779c-0.47-0.186-0.965-0.279-1.49-0.279c-0.522,0-1.021,0.094-1.486,0.279
		c-0.47,0.188-0.88,0.445-1.23,0.779c-0.352,0.332-0.633,0.73-0.849,1.195c-0.214,0.469-0.339,0.975-0.382,1.52H136.03z"/>
</g>
<g>
	<path fill="#542437" d="M105.673,74.688c-2.321,0-4.292,1.903-4.292,4.144c0,2.243,1.97,4.145,4.292,4.145s4.291-1.899,4.291-4.145
		C109.963,76.59,107.993,74.688,105.673,74.688L105.673,74.688L105.673,74.688z M88.089,74.688c-2.321,0-4.292,1.903-4.292,4.144
		c0,2.243,1.97,4.145,4.292,4.145c2.462,0,4.29-1.899,4.29-4.145C92.379,76.59,90.406,74.688,88.089,74.688L88.089,74.688
		L88.089,74.688z M75.427,40.446l3.307-0.748l4.854,19.905h28.207l5.484-14.471l0.071,0.07l4.363-11.484l8.088-1.833l0.772,3.191
		l-6.33,1.426l-9.985,26.43h-0.069l-4.082,10.531H83.025v-3.261h24.69l2.814-7.27H80.843L75.427,40.446L75.427,40.446z M84.5,44.726
		l2.32-2.449l8.792,8.019V28.623h3.375v21.741l9.147-8.086l2.319,2.449L97.299,56.344L84.5,44.726L84.5,44.726z"/>
</g>
</svg>
