<?xml version="1.0" encoding="utf-8"?>
<!-- Generator: Adobe Illustrator 16.0.0, SVG Export Plug-In . SVG Version: 6.00 Build 0)  -->
<!DOCTYPE svg PUBLIC "-//W3C//DTD SVG 1.1//EN" "http://www.w3.org/Graphics/SVG/1.1/DTD/svg11.dtd">
<svg version="1.1" id="Layer_1" xmlns="http://www.w3.org/2000/svg" xmlns:xlink="http://www.w3.org/1999/xlink" x="0px" y="0px"
	 width="121px" height="94px" viewBox="38 32 121 94" enable-background="new 38 32 121 94" xml:space="preserve">
<path fill="#FED093" d="M159,120.052c0,3.284-2.751,5.948-6.143,5.948H44.143C40.75,126,38,123.336,38,120.052V37.949
	C38,34.664,40.75,32,44.143,32h108.715c3.392,0,6.143,2.664,6.143,5.949V120.052z"/>
<g>
	<path fill="#542437" d="M83.33,105.213c0,0.37-0.078,0.709-0.231,1.017c-0.155,0.311-0.363,0.578-0.623,0.804
		c-0.26,0.226-0.563,0.402-0.911,0.527c-0.346,0.124-0.719,0.187-1.114,0.187h-4.83v-9.83h4.932c0.355,0,0.679,0.075,0.968,0.223
		s0.535,0.338,0.738,0.574c0.202,0.235,0.359,0.502,0.47,0.803c0.111,0.3,0.166,0.603,0.166,0.906c0,0.499-0.13,0.954-0.391,1.363
		c-0.26,0.412-0.621,0.718-1.085,0.921c0.588,0.167,1.053,0.476,1.396,0.929C83.158,104.088,83.33,104.613,83.33,105.213z
		 M76.618,98.763v3.626h3.529c0.251,0,0.485-0.05,0.701-0.152c0.217-0.103,0.405-0.235,0.564-0.401
		c0.159-0.166,0.282-0.358,0.369-0.574c0.087-0.217,0.13-0.447,0.13-0.685c0-0.25-0.042-0.485-0.123-0.706
		c-0.082-0.222-0.198-0.415-0.347-0.576c-0.15-0.161-0.329-0.289-0.536-0.388c-0.207-0.096-0.431-0.146-0.672-0.146h-3.615V98.763z
		 M82.316,105.047c0-0.24-0.043-0.473-0.13-0.699c-0.087-0.226-0.21-0.424-0.368-0.595c-0.159-0.17-0.348-0.309-0.565-0.415
		c-0.216-0.106-0.451-0.158-0.701-0.158h-3.934v3.723h3.832c0.26,0,0.507-0.051,0.738-0.152c0.232-0.103,0.429-0.239,0.593-0.409
		c0.164-0.171,0.294-0.368,0.39-0.594C82.268,105.521,82.316,105.287,82.316,105.047z"/>
	<path fill="#542437" d="M88.796,101.364c-0.665,0.019-1.244,0.194-1.735,0.526c-0.492,0.332-0.839,0.79-1.042,1.371v4.485h-0.984
		v-7.212h0.925v1.729c0.262-0.507,0.603-0.93,1.028-1.266c0.423-0.336,0.882-0.506,1.373-0.506c0.087,0,0.168,0,0.246,0
		c0.077,0,0.14,0.005,0.188,0.015L88.796,101.364L88.796,101.364z"/>
	<path fill="#542437" d="M93.019,107.885c-0.55,0-1.054-0.099-1.512-0.298c-0.457-0.198-0.853-0.468-1.185-0.81
		c-0.333-0.342-0.592-0.738-0.774-1.19c-0.183-0.452-0.274-0.927-0.274-1.426c0-0.507,0.094-0.987,0.282-1.44
		c0.188-0.452,0.448-0.849,0.78-1.19c0.333-0.341,0.729-0.614,1.187-0.817c0.457-0.203,0.957-0.304,1.496-0.304
		s1.039,0.101,1.496,0.304c0.458,0.203,0.854,0.477,1.187,0.817c0.333,0.342,0.592,0.737,0.781,1.19
		c0.188,0.453,0.282,0.934,0.282,1.44c0,0.499-0.094,0.973-0.282,1.426c-0.188,0.452-0.448,0.849-0.781,1.19
		s-0.728,0.611-1.187,0.81C94.058,107.786,93.559,107.885,93.019,107.885z M90.286,104.176c0,0.405,0.07,0.781,0.21,1.128
		c0.14,0.346,0.333,0.649,0.578,0.913c0.247,0.261,0.536,0.469,0.868,0.616c0.333,0.147,0.688,0.222,1.063,0.222
		c0.376,0,0.731-0.077,1.063-0.229c0.333-0.151,0.625-0.36,0.875-0.623c0.25-0.264,0.448-0.57,0.592-0.921s0.217-0.729,0.217-1.135
		c0-0.397-0.072-0.773-0.217-1.128c-0.145-0.355-0.343-0.666-0.592-0.929c-0.251-0.262-0.541-0.469-0.868-0.623
		c-0.329-0.151-0.68-0.229-1.056-0.229c-0.377,0-0.729,0.077-1.063,0.229c-0.333,0.154-0.622,0.363-0.868,0.63
		c-0.246,0.27-0.441,0.58-0.586,0.936C90.358,103.389,90.286,103.77,90.286,104.176z"/>
	<path fill="#542437" d="M107.628,100.534h0.954l-3.226,7.213h-0.825l-1.606-3.683l-1.604,3.683h-0.824l-3.226-7.213h0.94
		l2.748,6.243l1.432-3.295l-1.286-2.935h0.838l0.983,2.354l0.97-2.354h0.839l-1.273,2.935l1.434,3.295L107.628,100.534z"/>
	<path fill="#542437" d="M112.198,107.885c-0.588,0-1.163-0.092-1.722-0.275c-0.56-0.187-1.041-0.452-1.445-0.803l0.448-0.638
		c0.423,0.333,0.854,0.582,1.294,0.747c0.438,0.167,0.908,0.249,1.409,0.249c0.608,0,1.092-0.117,1.455-0.353
		c0.36-0.236,0.541-0.57,0.541-1.004c0-0.203-0.048-0.372-0.144-0.505c-0.098-0.135-0.239-0.252-0.428-0.354s-0.424-0.19-0.71-0.27
		c-0.284-0.079-0.614-0.16-0.988-0.243c-0.436-0.101-0.81-0.203-1.129-0.304c-0.32-0.102-0.582-0.217-0.788-0.347
		c-0.207-0.129-0.363-0.288-0.465-0.477c-0.101-0.189-0.151-0.427-0.151-0.714c0-0.36,0.076-0.68,0.226-0.955
		c0.148-0.277,0.351-0.506,0.606-0.685c0.255-0.181,0.557-0.316,0.897-0.409c0.342-0.094,0.706-0.139,1.092-0.139
		c0.578,0,1.104,0.091,1.576,0.271c0.473,0.179,0.854,0.417,1.144,0.713l-0.479,0.554c-0.28-0.276-0.619-0.484-1.02-0.623
		c-0.399-0.138-0.815-0.208-1.251-0.208c-0.259,0-0.5,0.025-0.724,0.076c-0.222,0.051-0.416,0.132-0.585,0.243
		c-0.168,0.11-0.303,0.25-0.399,0.422c-0.095,0.172-0.144,0.372-0.144,0.602c0,0.194,0.033,0.352,0.101,0.472
		c0.07,0.119,0.179,0.223,0.333,0.312c0.155,0.086,0.35,0.165,0.587,0.233c0.236,0.07,0.522,0.142,0.86,0.216
		c0.48,0.112,0.904,0.222,1.272,0.333c0.367,0.111,0.674,0.239,0.918,0.388c0.247,0.147,0.432,0.328,0.559,0.54
		c0.124,0.212,0.188,0.47,0.188,0.774c0,0.664-0.266,1.19-0.794,1.578C113.808,107.692,113.094,107.885,112.198,107.885z"/>
	<path fill="#542437" d="M120.008,107.885c-0.551,0-1.056-0.099-1.52-0.298c-0.464-0.198-0.863-0.47-1.2-0.816
		c-0.338-0.345-0.6-0.745-0.788-1.197c-0.188-0.454-0.282-0.938-0.282-1.453c0-0.508,0.095-0.986,0.282-1.433
		c0.188-0.448,0.45-0.84,0.788-1.178c0.337-0.336,0.736-0.604,1.192-0.803c0.459-0.198,0.962-0.298,1.513-0.298
		c0.55,0,1.053,0.1,1.511,0.298c0.458,0.199,0.851,0.47,1.18,0.81c0.327,0.342,0.582,0.734,0.767,1.178
		c0.183,0.442,0.274,0.912,0.274,1.411c0,0.073-0.003,0.148-0.008,0.221c-0.004,0.075-0.012,0.126-0.021,0.153h-6.436
		c0.027,0.389,0.121,0.746,0.281,1.073c0.157,0.328,0.361,0.611,0.607,0.851c0.246,0.241,0.529,0.429,0.853,0.561
		c0.323,0.135,0.668,0.201,1.034,0.201c0.253,0,0.498-0.032,0.738-0.096c0.241-0.066,0.465-0.153,0.665-0.264
		c0.202-0.111,0.384-0.248,0.543-0.409c0.16-0.161,0.284-0.338,0.369-0.532l0.854,0.22c-0.117,0.27-0.279,0.511-0.491,0.729
		c-0.212,0.217-0.459,0.406-0.739,0.566s-0.589,0.285-0.924,0.374C120.711,107.842,120.364,107.885,120.008,107.885z
		 M122.785,103.761c-0.03-0.389-0.123-0.741-0.283-1.061c-0.16-0.318-0.361-0.593-0.606-0.823c-0.248-0.231-0.534-0.41-0.861-0.54
		c-0.328-0.129-0.675-0.193-1.042-0.193c-0.366,0-0.714,0.064-1.041,0.193c-0.329,0.13-0.615,0.309-0.861,0.54
		c-0.246,0.23-0.443,0.508-0.594,0.83c-0.149,0.324-0.237,0.676-0.268,1.054H122.785z"/>
</g>
<g>
	<path fill="#542437" d="M102.792,80.249c-1.734,0-3.205,1.409-3.205,3.067c0,1.66,1.471,3.068,3.205,3.068
		c1.733,0,3.205-1.407,3.205-3.068C105.996,81.657,104.525,80.249,102.792,80.249L102.792,80.249L102.792,80.249z M89.658,80.249
		c-1.734,0-3.206,1.409-3.206,3.067c0,1.66,1.472,3.068,3.206,3.068c1.839,0,3.204-1.407,3.204-3.068
		C92.862,81.657,91.39,80.249,89.658,80.249L89.658,80.249L89.658,80.249z M80.2,54.905l2.47-0.553l3.624,14.732h21.068
		l4.097-10.711l0.054,0.052l3.259-8.5l6.041-1.356l0.577,2.362l-4.729,1.056l-7.458,19.563h-0.053l-3.049,7.794H85.875v-2.414
		h18.442l2.102-5.381H84.246L80.2,54.905L80.2,54.905z M86.977,58.073l1.734-1.813l6.566,5.935V46.154h2.521v16.092l6.833-5.985
		l1.732,1.813l-9.828,8.598L86.977,58.073L86.977,58.073z"/>
</g>
</svg>
