<?xml version="1.0" encoding="utf-8"?>
<!-- Generator: Adobe Illustrator 16.0.0, SVG Export Plug-In . SVG Version: 6.00 Build 0)  -->
<!DOCTYPE svg PUBLIC "-//W3C//DTD SVG 1.1//EN" "http://www.w3.org/Graphics/SVG/1.1/DTD/svg11.dtd">
<svg version="1.1" id="Layer_1" xmlns="http://www.w3.org/2000/svg" xmlns:xlink="http://www.w3.org/1999/xlink" x="0px" y="0px"
	 width="206px" height="158px" viewBox="-4.5 0 206 158" enable-background="new -4.5 0 206 158" xml:space="preserve">
<path fill="#FED093" d="M201.5,148c0,5.521-4.684,10-10.457,10H5.957C0.182,158-4.5,153.521-4.5,148V10c0-5.523,4.682-10,10.457-10
	h185.086c5.773,0,10.457,4.477,10.457,10V148z"/>
<g>
	<path fill="#542437" d="M76.885,112.08c0,0.533-0.111,1.021-0.33,1.467c-0.221,0.447-0.518,0.832-0.89,1.158
		c-0.371,0.326-0.805,0.58-1.302,0.76c-0.496,0.18-1.027,0.27-1.592,0.27h-6.903v-14.176h7.048c0.509,0,0.971,0.107,1.384,0.32
		s0.765,0.488,1.055,0.828c0.289,0.34,0.513,0.725,0.672,1.158c0.158,0.432,0.237,0.869,0.237,1.307
		c0,0.719-0.186,1.375-0.558,1.967c-0.372,0.594-0.888,1.035-1.551,1.328c0.841,0.24,1.505,0.686,1.996,1.338
		C76.639,110.457,76.885,111.215,76.885,112.08z M67.293,102.777v5.229h5.043c0.358,0,0.693-0.071,1.002-0.221
		c0.309-0.146,0.578-0.338,0.806-0.578c0.228-0.24,0.403-0.517,0.527-0.828c0.124-0.313,0.186-0.644,0.186-0.987
		c0-0.359-0.059-0.699-0.176-1.019c-0.117-0.319-0.282-0.597-0.496-0.83c-0.214-0.231-0.469-0.418-0.766-0.56
		c-0.296-0.139-0.616-0.209-0.961-0.209h-5.167V102.777z M75.437,111.84c0-0.346-0.062-0.682-0.186-1.008s-0.3-0.611-0.527-0.857
		c-0.227-0.246-0.496-0.445-0.807-0.6c-0.309-0.152-0.645-0.229-1.002-0.229h-5.622v5.369h5.477c0.372,0,0.724-0.072,1.055-0.22
		c0.331-0.147,0.614-0.344,0.848-0.59c0.234-0.246,0.42-0.531,0.558-0.856C75.368,112.523,75.437,112.188,75.437,111.84z"/>
	<path fill="#542437" d="M84.697,106.529c-0.951,0.027-1.777,0.281-2.48,0.76c-0.703,0.479-1.199,1.139-1.489,1.977v6.469h-1.406
		v-10.401h1.323v2.496c0.372-0.731,0.861-1.343,1.468-1.826c0.606-0.485,1.261-0.729,1.962-0.729c0.125,0,0.241,0,0.353,0
		c0.109,0,0.199,0.008,0.268,0.021L84.697,106.529L84.697,106.529z"/>
	<path fill="#542437" d="M90.732,115.934c-0.786,0-1.506-0.143-2.16-0.43c-0.654-0.285-1.22-0.676-1.695-1.168
		s-0.844-1.064-1.105-1.717c-0.262-0.652-0.392-1.338-0.392-2.057c0-0.73,0.134-1.424,0.403-2.076s0.64-1.226,1.115-1.717
		c0.476-0.492,1.041-0.886,1.696-1.179c0.654-0.293,1.367-0.438,2.139-0.438c0.771,0,1.484,0.146,2.138,0.438
		c0.655,0.293,1.22,0.687,1.696,1.179c0.475,0.491,0.847,1.063,1.116,1.717c0.268,0.652,0.402,1.346,0.402,2.076
		c0,0.719-0.134,1.403-0.402,2.057c-0.269,0.652-0.641,1.225-1.116,1.717s-1.04,0.883-1.696,1.168
		C92.218,115.791,91.504,115.934,90.732,115.934z M86.826,110.584c0,0.584,0.101,1.127,0.3,1.627c0.2,0.498,0.475,0.938,0.827,1.316
		c0.352,0.377,0.765,0.676,1.24,0.889s0.982,0.32,1.52,0.32c0.537,0,1.043-0.111,1.52-0.33c0.476-0.219,0.892-0.521,1.251-0.898
		c0.357-0.379,0.64-0.822,0.847-1.328c0.206-0.506,0.31-1.051,0.31-1.637c0-0.572-0.103-1.115-0.31-1.627
		c-0.208-0.512-0.49-0.959-0.847-1.338c-0.359-0.379-0.772-0.678-1.24-0.898c-0.469-0.219-0.971-0.33-1.509-0.33
		c-0.539,0-1.043,0.111-1.52,0.33c-0.475,0.221-0.888,0.523-1.24,0.908c-0.351,0.387-0.63,0.836-0.837,1.348
		C86.93,109.449,86.826,109.998,86.826,110.584z"/>
	<path fill="#542437" d="M111.609,105.332h1.363l-4.609,10.402h-1.179l-2.296-5.312l-2.293,5.312h-1.179l-4.609-10.402h1.344
		l3.927,9.004l2.047-4.752l-1.838-4.232h1.196l1.405,3.396l1.386-3.396h1.198l-1.818,4.232l2.047,4.752L111.609,105.332z"/>
	<path fill="#542437" d="M118.142,115.934c-0.841,0-1.662-0.133-2.461-0.397c-0.799-0.269-1.488-0.652-2.065-1.158l0.641-0.92
		c0.604,0.479,1.221,0.84,1.85,1.078c0.627,0.239,1.298,0.358,2.014,0.358c0.87,0,1.561-0.168,2.079-0.508
		c0.515-0.34,0.773-0.822,0.773-1.447c0-0.293-0.068-0.537-0.206-0.729c-0.138-0.193-0.342-0.363-0.61-0.51
		c-0.27-0.146-0.606-0.275-1.014-0.389c-0.406-0.114-0.878-0.23-1.414-0.351c-0.622-0.146-1.156-0.293-1.613-0.438
		c-0.456-0.146-0.831-0.313-1.126-0.5c-0.297-0.187-0.518-0.416-0.664-0.688c-0.144-0.272-0.216-0.614-0.216-1.028
		c0-0.521,0.108-0.979,0.322-1.377c0.212-0.4,0.5-0.729,0.867-0.988c0.364-0.26,0.794-0.455,1.282-0.59
		c0.488-0.134,1.009-0.199,1.561-0.199c0.826,0,1.576,0.131,2.253,0.389c0.675,0.26,1.22,0.604,1.633,1.029l-0.684,0.799
		c-0.4-0.4-0.884-0.699-1.457-0.898c-0.57-0.199-1.166-0.301-1.788-0.301c-0.37,0-0.714,0.037-1.033,0.111
		c-0.318,0.072-0.596,0.189-0.837,0.35c-0.24,0.158-0.432,0.361-0.569,0.607c-0.137,0.248-0.206,0.537-0.206,0.869
		c0,0.279,0.048,0.506,0.145,0.68c0.099,0.172,0.255,0.322,0.476,0.449c0.221,0.125,0.499,0.238,0.838,0.338
		c0.338,0.1,0.748,0.203,1.23,0.311c0.687,0.16,1.293,0.318,1.817,0.479s0.964,0.346,1.313,0.559
		c0.352,0.213,0.616,0.474,0.797,0.779c0.177,0.307,0.269,0.678,0.269,1.116c0,0.959-0.38,1.718-1.136,2.277
		C120.442,115.654,119.421,115.934,118.142,115.934z"/>
	<path fill="#542437" d="M129.302,115.934c-0.786,0-1.508-0.143-2.171-0.43c-0.663-0.285-1.233-0.678-1.715-1.178
		c-0.483-0.498-0.857-1.074-1.126-1.727c-0.269-0.654-0.405-1.353-0.405-2.097c0-0.731,0.137-1.422,0.405-2.065
		c0.269-0.646,0.643-1.211,1.126-1.697c0.481-0.486,1.051-0.871,1.703-1.158c0.656-0.287,1.375-0.43,2.162-0.43
		c0.785,0,1.504,0.143,2.159,0.43s1.216,0.676,1.686,1.168c0.468,0.492,0.832,1.059,1.095,1.697
		c0.262,0.639,0.393,1.316,0.393,2.035c0,0.106-0.004,0.213-0.01,0.319c-0.007,0.107-0.017,0.181-0.031,0.22h-9.196
		c0.04,0.561,0.174,1.076,0.402,1.549c0.226,0.473,0.516,0.881,0.867,1.227c0.352,0.348,0.758,0.617,1.219,0.809
		c0.463,0.193,0.954,0.289,1.478,0.289c0.361,0,0.712-0.045,1.057-0.139c0.344-0.094,0.663-0.221,0.95-0.379
		c0.289-0.16,0.548-0.357,0.775-0.59c0.229-0.232,0.405-0.488,0.527-0.768l1.221,0.317c-0.167,0.388-0.4,0.736-0.702,1.05
		c-0.303,0.313-0.656,0.586-1.057,0.817c-0.401,0.231-0.842,0.412-1.321,0.539C130.307,115.871,129.812,115.934,129.302,115.934z
		 M133.271,109.984c-0.043-0.56-0.177-1.068-0.404-1.527c-0.229-0.459-0.517-0.855-0.868-1.188c-0.354-0.334-0.763-0.593-1.23-0.779
		c-0.469-0.186-0.965-0.279-1.489-0.279c-0.523,0-1.021,0.094-1.487,0.279c-0.47,0.188-0.88,0.445-1.231,0.779
		c-0.351,0.332-0.633,0.731-0.848,1.196c-0.214,0.468-0.339,0.974-0.382,1.519H133.271z"/>
</g>
<g>
	<path fill="#542437" d="M102.246,74.688c-2.321,0-4.292,1.903-4.292,4.144c0,2.243,1.97,4.145,4.292,4.145s4.291-1.9,4.291-4.145
		C106.536,76.59,104.567,74.688,102.246,74.688L102.246,74.688L102.246,74.688z M84.662,74.688c-2.321,0-4.292,1.903-4.292,4.144
		c0,2.243,1.97,4.145,4.292,4.145c2.462,0,4.29-1.9,4.29-4.145C88.952,76.59,86.98,74.688,84.662,74.688L84.662,74.688
		L84.662,74.688z M72,40.446l3.307-0.748l4.853,19.905h28.207l5.485-14.471l0.071,0.07l4.363-11.484l8.088-1.833l0.772,3.191
		l-6.33,1.426l-9.985,26.43h-0.07l-4.082,10.531h-27.08v-3.261h24.69l2.814-7.27H77.416L72,40.446L72,40.446z M81.073,44.726
		l2.321-2.449l8.792,8.019V28.623h3.375v21.741l9.147-8.086l2.32,2.449L93.872,56.344L81.073,44.726L81.073,44.726z"/>
</g>
</svg>
