<?xml version="1.0" encoding="utf-8"?>
<!-- Generator: Adobe Illustrator 16.0.0, SVG Export Plug-In . SVG Version: 6.00 Build 0)  -->
<!DOCTYPE svg PUBLIC "-//W3C//DTD SVG 1.1//EN" "http://www.w3.org/Graphics/SVG/1.1/DTD/svg11.dtd">
<svg version="1.1" id="Layer_1" xmlns="http://www.w3.org/2000/svg" xmlns:xlink="http://www.w3.org/1999/xlink" x="0px" y="0px"
	 width="60px" height="48px" viewBox="68.5 55 60 48" enable-background="new 68.5 55 60 48" xml:space="preserve">
<path fill="#FED093" d="M128.5,99.963c0,1.678-1.365,3.037-3.047,3.037H71.546c-1.683,0-3.046-1.359-3.046-3.037V58.038
	C68.5,56.36,69.863,55,71.546,55h53.907c1.682,0,3.047,1.36,3.047,3.038V99.963z"/>
<g>
	<path fill="#542437" d="M90.978,92.386c0,0.189-0.04,0.361-0.115,0.519c-0.078,0.159-0.18,0.296-0.309,0.411
		c-0.129,0.114-0.279,0.205-0.452,0.269c-0.171,0.063-0.356,0.096-0.553,0.096h-2.395v-5.021H89.6c0.176,0,0.337,0.039,0.48,0.116
		c0.144,0.073,0.266,0.17,0.367,0.291c0.1,0.121,0.178,0.257,0.233,0.411c0.055,0.152,0.082,0.307,0.082,0.462
		c0,0.256-0.064,0.487-0.194,0.697c-0.128,0.211-0.309,0.366-0.538,0.469c0.292,0.085,0.522,0.243,0.693,0.474
		C90.892,91.811,90.978,92.08,90.978,92.386z M87.65,89.093v1.85h1.75c0.124,0,0.24-0.024,0.348-0.076
		c0.107-0.054,0.2-0.12,0.28-0.206c0.079-0.083,0.14-0.182,0.182-0.291c0.043-0.112,0.065-0.23,0.065-0.351
		c0-0.128-0.021-0.248-0.062-0.361s-0.098-0.212-0.172-0.295c-0.074-0.081-0.162-0.147-0.265-0.198
		c-0.103-0.046-0.214-0.073-0.334-0.073H87.65V89.093z M90.475,92.302c0-0.123-0.021-0.242-0.065-0.358
		c-0.042-0.115-0.104-0.215-0.183-0.305c-0.079-0.086-0.172-0.156-0.28-0.211c-0.107-0.055-0.223-0.081-0.347-0.081h-1.95v1.901
		h1.899c0.13,0,0.252-0.024,0.366-0.078c0.115-0.052,0.212-0.122,0.294-0.209c0.081-0.086,0.146-0.186,0.193-0.303
		C90.452,92.543,90.475,92.424,90.475,92.302z"/>
	<path fill="#542437" d="M93.688,90.421c-0.33,0.009-0.617,0.1-0.861,0.269c-0.244,0.17-0.416,0.402-0.516,0.699v2.291h-0.488
		v-3.683h0.458v0.885c0.129-0.261,0.299-0.476,0.51-0.648c0.21-0.171,0.438-0.259,0.681-0.259c0.043,0,0.083,0,0.122,0
		s0.07,0.004,0.094,0.008V90.421L93.688,90.421z"/>
	<path fill="#542437" d="M95.782,93.75c-0.273,0-0.522-0.05-0.75-0.151c-0.226-0.102-0.423-0.239-0.587-0.414
		c-0.165-0.176-0.293-0.376-0.383-0.607c-0.091-0.231-0.136-0.474-0.136-0.729c0-0.258,0.046-0.505,0.14-0.736
		c0.092-0.229,0.222-0.431,0.387-0.607c0.165-0.174,0.361-0.314,0.588-0.417c0.227-0.104,0.475-0.155,0.743-0.155
		s0.515,0.052,0.741,0.155c0.228,0.103,0.423,0.243,0.589,0.417c0.166,0.177,0.293,0.378,0.387,0.607
		c0.093,0.231,0.14,0.479,0.14,0.736c0,0.255-0.047,0.497-0.14,0.729c-0.094,0.231-0.222,0.432-0.387,0.607
		c-0.166,0.175-0.361,0.313-0.589,0.414C96.297,93.7,96.05,93.75,95.782,93.75z M94.427,91.854c0,0.21,0.035,0.398,0.104,0.578
		c0.069,0.177,0.164,0.332,0.287,0.466c0.122,0.133,0.266,0.238,0.43,0.313c0.165,0.077,0.341,0.113,0.527,0.113
		s0.362-0.039,0.527-0.116c0.165-0.078,0.31-0.185,0.434-0.317c0.125-0.134,0.222-0.291,0.293-0.471
		c0.072-0.179,0.107-0.371,0.107-0.58c0-0.203-0.035-0.395-0.107-0.575c-0.072-0.182-0.17-0.34-0.293-0.475
		c-0.125-0.133-0.268-0.239-0.43-0.317c-0.163-0.076-0.337-0.117-0.523-0.117c-0.188,0-0.362,0.041-0.527,0.117
		c-0.166,0.078-0.309,0.185-0.431,0.322s-0.218,0.294-0.291,0.478C94.463,91.453,94.427,91.648,94.427,91.854z"/>
	<path fill="#542437" d="M103.026,89.997h0.473l-1.6,3.683h-0.41l-0.794-1.881l-0.798,1.881H99.49l-1.6-3.683h0.466l1.362,3.188
		l0.711-1.684l-0.638-1.498h0.414l0.49,1.203l0.479-1.203h0.416l-0.633,1.498l0.711,1.684L103.026,89.997z"/>
	<path fill="#542437" d="M105.292,93.75c-0.292,0-0.577-0.047-0.854-0.143c-0.277-0.094-0.516-0.228-0.716-0.409l0.22-0.325
		c0.212,0.17,0.424,0.299,0.643,0.382c0.218,0.086,0.451,0.128,0.699,0.128c0.302,0,0.543-0.062,0.721-0.18
		c0.18-0.121,0.27-0.293,0.27-0.514c0-0.104-0.023-0.189-0.072-0.257c-0.048-0.068-0.118-0.129-0.211-0.181
		s-0.211-0.097-0.352-0.138c-0.142-0.041-0.305-0.081-0.49-0.125c-0.217-0.052-0.402-0.104-0.56-0.155
		c-0.159-0.051-0.29-0.109-0.392-0.177c-0.103-0.065-0.18-0.146-0.229-0.243c-0.053-0.098-0.078-0.218-0.078-0.364
		c0-0.184,0.039-0.347,0.113-0.488c0.074-0.141,0.174-0.258,0.301-0.349c0.125-0.093,0.275-0.161,0.443-0.21
		c0.172-0.048,0.352-0.07,0.543-0.07c0.288,0,0.549,0.047,0.781,0.14c0.234,0.089,0.424,0.212,0.568,0.362l-0.238,0.284
		c-0.139-0.142-0.308-0.248-0.505-0.318c-0.198-0.07-0.404-0.106-0.62-0.106c-0.129,0-0.25,0.013-0.359,0.039
		c-0.109,0.025-0.207,0.067-0.291,0.123c-0.083,0.057-0.15,0.129-0.197,0.216c-0.049,0.088-0.071,0.191-0.071,0.309
		c0,0.099,0.017,0.177,0.05,0.238c0.034,0.063,0.088,0.114,0.165,0.161c0.077,0.043,0.173,0.084,0.292,0.118
		c0.116,0.036,0.259,0.072,0.426,0.109c0.237,0.058,0.447,0.114,0.631,0.171c0.182,0.056,0.334,0.122,0.455,0.198
		c0.123,0.075,0.213,0.167,0.276,0.275c0.063,0.109,0.095,0.24,0.095,0.396c0,0.338-0.134,0.607-0.395,0.806
		C106.09,93.651,105.737,93.75,105.292,93.75z"/>
	<path fill="#542437" d="M109.166,93.75c-0.275,0-0.523-0.05-0.756-0.151c-0.229-0.102-0.427-0.241-0.593-0.418
		c-0.168-0.177-0.299-0.379-0.393-0.61c-0.092-0.232-0.141-0.479-0.141-0.742c0-0.26,0.049-0.505,0.141-0.731
		c0.094-0.229,0.225-0.429,0.393-0.602c0.166-0.172,0.364-0.308,0.589-0.411c0.229-0.102,0.479-0.151,0.751-0.151
		c0.273,0,0.522,0.05,0.75,0.151c0.228,0.104,0.421,0.241,0.585,0.415c0.162,0.175,0.287,0.375,0.378,0.601
		c0.093,0.226,0.137,0.466,0.137,0.721c0,0.036-0.001,0.076-0.003,0.112c-0.002,0.039-0.006,0.064-0.01,0.078h-3.192
		c0.016,0.199,0.061,0.382,0.142,0.549c0.077,0.167,0.178,0.312,0.3,0.434c0.123,0.124,0.264,0.219,0.423,0.286
		c0.16,0.067,0.332,0.104,0.513,0.104c0.126,0,0.248-0.018,0.365-0.05c0.12-0.033,0.23-0.078,0.331-0.135
		c0.1-0.057,0.191-0.125,0.271-0.208c0.078-0.083,0.14-0.171,0.181-0.271l0.424,0.111c-0.059,0.139-0.139,0.26-0.243,0.373
		c-0.104,0.109-0.227,0.206-0.366,0.289c-0.14,0.081-0.293,0.146-0.459,0.19C109.514,93.729,109.342,93.75,109.166,93.75z
		 M110.541,91.644c-0.014-0.198-0.059-0.378-0.139-0.541s-0.179-0.302-0.301-0.419c-0.123-0.119-0.265-0.21-0.428-0.277
		c-0.163-0.065-0.335-0.099-0.517-0.099c-0.183,0-0.354,0.033-0.517,0.099c-0.163,0.067-0.306,0.158-0.427,0.277
		c-0.122,0.117-0.221,0.258-0.295,0.422c-0.074,0.166-0.117,0.345-0.133,0.538H110.541z"/>
</g>
<g>
	<path fill="#542437" d="M100.628,79.638c-0.86,0-1.588,0.72-1.588,1.567c0,0.846,0.728,1.566,1.588,1.566
		c0.859,0,1.589-0.719,1.589-1.566S101.487,79.638,100.628,79.638L100.628,79.638L100.628,79.638z M94.116,79.638
		c-0.86,0-1.59,0.72-1.59,1.567c0,0.846,0.729,1.566,1.59,1.566c0.912,0,1.588-0.719,1.588-1.566S94.974,79.638,94.116,79.638
		L94.116,79.638L94.116,79.638z M89.425,66.696l1.225-0.282l1.798,7.523h10.446l2.032-5.469l0.026,0.026l1.615-4.34l2.996-0.693
		l0.286,1.206l-2.344,0.539l-3.699,9.99h-0.024l-1.513,3.98H92.24v-1.232h9.145l1.042-2.748H91.432L89.425,66.696L89.425,66.696z
		 M92.786,68.314l0.861-0.926l3.255,3.031v-8.191h1.251v8.217l3.388-3.056l0.86,0.926l-4.874,4.39L92.786,68.314L92.786,68.314z"/>
</g>
</svg>
