<?xml version="1.0" encoding="utf-8"?>
<!-- Generator: Adobe Illustrator 16.0.0, SVG Export Plug-In . SVG Version: 6.00 Build 0)  -->
<!DOCTYPE svg PUBLIC "-//W3C//DTD SVG 1.1//EN" "http://www.w3.org/Graphics/SVG/1.1/DTD/svg11.dtd">
<svg version="1.1" id="Layer_1" xmlns="http://www.w3.org/2000/svg" xmlns:xlink="http://www.w3.org/1999/xlink" x="0px" y="0px"
	 width="197px" height="158px" viewBox="0 0 197 158" enable-background="new 0 0 197 158" xml:space="preserve">
<path fill="#FED093" d="M197,148c0,5.522-4.478,10-10,10H10c-5.523,0-10-4.478-10-10V10C0,4.477,4.477,0,10,0h177
	c5.522,0,10,4.477,10,10V148z"/>
<g>
	<path fill="#542437" d="M76.52,112.08c0,0.533-0.107,1.021-0.319,1.467c-0.213,0.447-0.5,0.832-0.859,1.158s-0.778,0.58-1.258,0.76
		c-0.479,0.18-0.992,0.27-1.538,0.27h-6.669v-14.176h6.809c0.492,0,0.938,0.107,1.337,0.32c0.399,0.213,0.739,0.488,1.019,0.828
		c0.279,0.34,0.496,0.725,0.649,1.158c0.153,0.432,0.229,0.869,0.229,1.307c0,0.719-0.18,1.375-0.539,1.967
		c-0.359,0.594-0.858,1.035-1.498,1.328c0.812,0.24,1.454,0.686,1.927,1.338S76.52,111.215,76.52,112.08z M67.255,102.777v5.23
		h4.872c0.346,0,0.669-0.072,0.968-0.221c0.299-0.145,0.559-0.338,0.779-0.578s0.389-0.516,0.509-0.828
		c0.12-0.313,0.18-0.643,0.18-0.988c0-0.359-0.057-0.699-0.17-1.018c-0.113-0.32-0.273-0.596-0.479-0.83
		c-0.207-0.232-0.453-0.418-0.739-0.559c-0.287-0.139-0.596-0.209-0.929-0.209H67.255z M75.122,111.84
		c0-0.346-0.06-0.682-0.18-1.008c-0.12-0.326-0.29-0.611-0.509-0.857s-0.479-0.445-0.779-0.6c-0.299-0.152-0.623-0.229-0.968-0.229
		h-5.431v5.369h5.291c0.359,0,0.699-0.072,1.019-0.219s0.592-0.344,0.819-0.59c0.226-0.246,0.406-0.531,0.539-0.857
		C75.055,112.523,75.122,112.188,75.122,111.84z"/>
	<path fill="#542437" d="M84.067,106.529c-0.918,0.027-1.717,0.281-2.396,0.76s-1.158,1.139-1.438,1.977v6.469h-1.358v-10.402h1.278
		v2.496c0.359-0.732,0.832-1.342,1.418-1.826c0.585-0.486,1.218-0.73,1.896-0.73c0.12,0,0.233,0,0.34,0
		c0.106,0,0.192,0.008,0.259,0.021V106.529z"/>
	<path fill="#542437" d="M89.897,115.934c-0.759,0-1.455-0.143-2.086-0.43c-0.632-0.285-1.178-0.676-1.637-1.168
		c-0.459-0.492-0.816-1.064-1.068-1.717c-0.253-0.652-0.379-1.338-0.379-2.057c0-0.73,0.13-1.424,0.389-2.076
		c0.26-0.652,0.619-1.225,1.078-1.717c0.459-0.492,1.005-0.885,1.638-1.178c0.632-0.293,1.321-0.439,2.066-0.439
		c0.745,0,1.434,0.146,2.066,0.439s1.178,0.686,1.638,1.178c0.459,0.492,0.818,1.064,1.078,1.717
		c0.259,0.652,0.389,1.346,0.389,2.076c0,0.719-0.13,1.404-0.389,2.057c-0.26,0.652-0.619,1.225-1.078,1.717
		c-0.459,0.492-1.005,0.883-1.638,1.168C91.332,115.791,90.643,115.934,89.897,115.934z M86.124,110.584
		c0,0.584,0.097,1.127,0.29,1.627c0.193,0.498,0.459,0.938,0.799,1.316s0.739,0.676,1.198,0.889c0.459,0.213,0.949,0.32,1.468,0.32
		s1.008-0.111,1.468-0.33c0.459-0.219,0.861-0.52,1.208-0.898c0.346-0.379,0.619-0.822,0.818-1.328s0.3-1.051,0.3-1.637
		c0-0.572-0.1-1.115-0.3-1.627s-0.473-0.959-0.818-1.338c-0.347-0.379-0.746-0.678-1.198-0.898c-0.453-0.219-0.938-0.33-1.458-0.33
		s-1.008,0.111-1.468,0.33c-0.459,0.221-0.858,0.523-1.198,0.908c-0.339,0.387-0.609,0.836-0.809,1.348
		C86.224,109.449,86.124,109.998,86.124,110.584z"/>
	<path fill="#542437" d="M110.064,105.332h1.318l-4.453,10.402h-1.139l-2.217-5.311l-2.215,5.311h-1.139l-4.453-10.402h1.298
		l3.794,9.004l1.977-4.752l-1.777-4.232h1.158l1.357,3.395l1.338-3.395h1.158l-1.756,4.232l1.977,4.752L110.064,105.332z"/>
	<path fill="#542437" d="M116.375,115.934c-0.813,0-1.605-0.133-2.377-0.398c-0.771-0.268-1.438-0.652-1.996-1.158l0.619-0.92
		c0.584,0.48,1.18,0.84,1.787,1.078c0.605,0.24,1.254,0.359,1.945,0.359c0.84,0,1.508-0.168,2.008-0.508
		c0.498-0.34,0.748-0.822,0.748-1.447c0-0.293-0.066-0.537-0.199-0.729c-0.133-0.193-0.33-0.363-0.59-0.51s-0.586-0.275-0.979-0.389
		s-0.848-0.23-1.367-0.35c-0.6-0.146-1.117-0.293-1.557-0.439s-0.803-0.313-1.088-0.5c-0.287-0.186-0.5-0.416-0.641-0.688
		c-0.139-0.273-0.209-0.615-0.209-1.029c0-0.52,0.104-0.979,0.311-1.377c0.205-0.4,0.484-0.729,0.838-0.988
		c0.352-0.26,0.766-0.455,1.238-0.59c0.473-0.133,0.975-0.199,1.508-0.199c0.799,0,1.523,0.131,2.176,0.389
		c0.652,0.26,1.178,0.604,1.578,1.029l-0.66,0.799c-0.387-0.4-0.855-0.699-1.408-0.898c-0.551-0.199-1.127-0.301-1.727-0.301
		c-0.359,0-0.691,0.037-0.998,0.111c-0.307,0.072-0.576,0.189-0.809,0.35c-0.232,0.158-0.416,0.361-0.549,0.607
		c-0.133,0.248-0.199,0.537-0.199,0.869c0,0.279,0.045,0.506,0.139,0.68c0.094,0.172,0.246,0.322,0.459,0.449
		c0.213,0.125,0.482,0.238,0.809,0.338s0.723,0.203,1.189,0.311c0.664,0.16,1.25,0.318,1.756,0.479s0.93,0.346,1.268,0.559
		c0.34,0.213,0.596,0.473,0.77,0.779c0.172,0.307,0.26,0.678,0.26,1.117c0,0.959-0.367,1.717-1.098,2.277
		C118.598,115.654,117.611,115.934,116.375,115.934z"/>
	<path fill="#542437" d="M127.156,115.934c-0.76,0-1.457-0.143-2.098-0.43c-0.639-0.285-1.191-0.678-1.656-1.178
		c-0.467-0.498-0.828-1.074-1.088-1.727s-0.391-1.352-0.391-2.096c0-0.732,0.131-1.422,0.391-2.066
		c0.26-0.646,0.621-1.211,1.088-1.697c0.465-0.486,1.016-0.871,1.646-1.158c0.633-0.287,1.328-0.43,2.088-0.43
		c0.758,0,1.453,0.143,2.086,0.43s1.174,0.676,1.627,1.168s0.805,1.059,1.059,1.697c0.252,0.639,0.379,1.316,0.379,2.035
		c0,0.107-0.004,0.213-0.01,0.32s-0.016,0.18-0.029,0.219h-8.885c0.039,0.561,0.168,1.076,0.389,1.549
		c0.219,0.473,0.498,0.881,0.838,1.227c0.34,0.348,0.732,0.617,1.178,0.809c0.447,0.193,0.922,0.289,1.428,0.289
		c0.348,0,0.686-0.045,1.02-0.139c0.332-0.094,0.639-0.221,0.918-0.379c0.279-0.16,0.529-0.357,0.748-0.59
		c0.221-0.232,0.391-0.488,0.51-0.768l1.178,0.318c-0.16,0.387-0.387,0.736-0.678,1.049c-0.293,0.313-0.633,0.586-1.02,0.818
		s-0.813,0.412-1.277,0.539C128.127,115.871,127.648,115.934,127.156,115.934z M130.99,109.984c-0.041-0.559-0.17-1.068-0.391-1.527
		c-0.219-0.459-0.498-0.855-0.838-1.188c-0.34-0.334-0.736-0.592-1.188-0.779c-0.453-0.186-0.932-0.279-1.438-0.279
		s-0.986,0.094-1.438,0.279c-0.453,0.188-0.85,0.445-1.189,0.779c-0.338,0.332-0.611,0.732-0.818,1.197
		c-0.207,0.467-0.328,0.973-0.369,1.518H130.99z"/>
</g>
<g>
	<path fill="#542437" d="M101.02,74.688c-2.243,0-4.146,1.903-4.146,4.144c0,2.243,1.903,4.144,4.146,4.144
		c2.242,0,4.145-1.9,4.145-4.144C105.164,76.59,103.262,74.688,101.02,74.688L101.02,74.688L101.02,74.688z M84.033,74.688
		c-2.242,0-4.146,1.903-4.146,4.144c0,2.243,1.903,4.144,4.146,4.144c2.379,0,4.144-1.9,4.144-4.144
		C88.177,76.59,86.273,74.688,84.033,74.688L84.033,74.688L84.033,74.688z M71.801,40.446l3.194-0.748l4.688,19.905h27.249
		l5.299-14.471l0.068,0.07l4.215-11.484l7.813-1.833l0.746,3.191l-6.115,1.426l-9.646,26.43h-0.068l-3.943,10.531h-26.16v-3.261
		h23.852l2.719-7.27H77.033L71.801,40.446L71.801,40.446z M80.566,44.726l2.242-2.449l8.494,8.019V28.623h3.26v21.741l8.836-8.086
		l2.242,2.449l-12.71,11.617L80.566,44.726L80.566,44.726z"/>
</g>
</svg>
