<?xml version="1.0" encoding="utf-8"?>
<!-- Generator: Adobe Illustrator 16.0.0, SVG Export Plug-In . SVG Version: 6.00 Build 0)  -->
<!DOCTYPE svg PUBLIC "-//W3C//DTD SVG 1.1//EN" "http://www.w3.org/Graphics/SVG/1.1/DTD/svg11.dtd">
<svg version="1.1" id="Layer_1" xmlns="http://www.w3.org/2000/svg" xmlns:xlink="http://www.w3.org/1999/xlink" x="0px" y="0px"
	 width="24.375px" height="24.452px" viewBox="-38.393 -5.5 24.375 24.452" enable-background="new -38.393 -5.5 24.375 24.452"
	 xml:space="preserve">
<g>
	<path fill="#542437" d="M95.533,8.079c-4.323-4.301-12.58-5.995-16.905-1.69L44.041,40.824C39.723,45.128,39.723,52.1,44.045,56.4
		c4.319,4.307,11.322,4.307,15.646,0l8.045-8.014L82.9,33.292c4.325-4.301,5.447-10.158,1.125-14.457
		c-4.317-4.305-10.199-3.187-14.518,1.115L54.346,35.051l1.622,1.614l15.16-15.093c3.421-3.405,7.854-4.527,11.273-1.123
		c3.42,3.404,2.293,7.821-1.122,11.222L66.115,46.77l-8.054,8.02c-3.415,3.398-8.979,3.398-12.396,0
		c-3.417-3.407-3.417-8.947,0-12.348L80.253,8c3.42-3.4,10.235-1.711,13.652,1.692c3.416,3.403,5.119,10.191,1.695,13.594
		L65.412,53.352l1.624,1.619l30.195-30.072C101.549,20.601,99.851,12.379,95.533,8.079z"/>
</g>
<g>
	<path fill="none" stroke="#542437" stroke-width="2" stroke-linecap="round" stroke-miterlimit="10" d="M220.589,91.604
		c0,0.99-0.784,1.793-1.757,1.793h-14.6c-0.971,0-1.756-0.803-1.756-1.793V72.02h18.111L220.589,91.604L220.589,91.604z"/>
	
		<line fill="none" stroke="#542437" stroke-width="2" stroke-linecap="round" stroke-miterlimit="10" x1="206.119" y1="72.02" x2="206.119" y2="93.396"/>
	
		<line fill="none" stroke="#542437" stroke-width="2" stroke-linecap="round" stroke-miterlimit="10" x1="211.533" y1="72.02" x2="211.533" y2="93.396"/>
	
		<line fill="none" stroke="#542437" stroke-width="2" stroke-linecap="round" stroke-miterlimit="10" x1="216.947" y1="72.02" x2="216.947" y2="93.396"/>
	<path fill="none" stroke="#542437" stroke-width="2" stroke-linecap="round" stroke-miterlimit="10" d="M207.702,68.836v-2.438
		c0-0.991,0.786-1.795,1.758-1.795h4.146c0.971,0,1.758,0.804,1.758,1.795v2.438"/>
	<path fill="#542437" d="M223.051,70.75c0,0.99-0.787,1.795-1.758,1.795h-19.52c-0.971,0-1.758-0.805-1.758-1.795v0.073
		c0-0.991,0.787-1.794,1.758-1.794h19.52c0.971,0,1.757,0.804,1.757,1.794L223.051,70.75L223.051,70.75z"/>
</g>
<text transform="matrix(1 0 0 1 157.501 148.7207)" fill="#542437" font-family="'Raleway'" font-size="10.4236">Delete</text>
<g>
	<path fill="none" stroke="#542437" stroke-width="2" stroke-linecap="round" stroke-miterlimit="10" d="M57.308-20.471
		c0,0.782-0.634,1.416-1.417,1.416H44.125c-0.783,0-1.417-0.633-1.417-1.416v-15.462h14.599V-20.471z"/>
	
		<line fill="none" stroke="#542437" stroke-width="2" stroke-linecap="round" stroke-miterlimit="10" x1="45.645" y1="-35.933" x2="45.645" y2="-19.055"/>
	
		<line fill="none" stroke="#542437" stroke-width="2" stroke-linecap="round" stroke-miterlimit="10" x1="50.008" y1="-35.933" x2="50.008" y2="-19.055"/>
	
		<line fill="none" stroke="#542437" stroke-width="2" stroke-linecap="round" stroke-miterlimit="10" x1="54.372" y1="-35.933" x2="54.372" y2="-19.055"/>
	<path fill="none" stroke="#542437" stroke-width="2" stroke-linecap="round" stroke-miterlimit="10" d="M46.921-38.446v-1.925
		c0-0.782,0.634-1.417,1.416-1.417h3.342c0.782,0,1.417,0.634,1.417,1.417v1.925"/>
	<path fill="#542437" d="M59.291-36.935c0,0.781-0.635,1.416-1.417,1.416H42.142c-0.783,0-1.417-0.635-1.417-1.416v0.057
		c0-0.782,0.634-1.417,1.417-1.417h15.732c0.782,0,1.417,0.634,1.417,1.417V-36.935z"/>
</g>
<g>
	<path fill="#542437" d="M-25.129,14.604c-0.935,0-1.729,0.793-1.729,1.728c0,0.936,0.794,1.729,1.729,1.729
		s1.729-0.793,1.729-1.729C-23.4,15.398-24.194,14.604-25.129,14.604L-25.129,14.604L-25.129,14.604z M-32.213,14.604
		c-0.935,0-1.729,0.793-1.729,1.728c0,0.936,0.794,1.729,1.729,1.729c0.992,0,1.729-0.793,1.729-1.729
		C-30.485,15.398-31.279,14.604-32.213,14.604L-32.213,14.604L-32.213,14.604z M-37.314,0.322l1.332-0.312l1.956,8.303h11.364
		l2.21-6.036l0.028,0.029l1.757-4.79l3.259-0.765l0.312,1.331l-2.55,0.595l-4.024,11.024H-21.7l-1.645,4.394h-10.91v-1.361h9.948
		l1.133-3.033h-11.959L-37.314,0.322L-37.314,0.322z M-33.659,2.107l0.935-1.022l3.542,3.345V-4.61h1.359v9.068l3.685-3.373
		l0.935,1.022l-5.3,4.845L-33.659,2.107L-33.659,2.107z"/>
</g>
</svg>
