<?xml version="1.0" encoding="utf-8"?>
<!-- Generator: Adobe Illustrator 16.0.0, SVG Export Plug-In . SVG Version: 6.00 Build 0)  -->
<!DOCTYPE svg PUBLIC "-//W3C//DTD SVG 1.1//EN" "http://www.w3.org/Graphics/SVG/1.1/DTD/svg11.dtd">
<svg version="1.1" id="Layer_1" xmlns="http://www.w3.org/2000/svg" xmlns:xlink="http://www.w3.org/1999/xlink" x="0px" y="0px"
	 width="54px" height="55px" viewBox="0 0 54 55" enable-background="new 0 0 54 55" xml:space="preserve">
<g>
	<path fill="#542437" d="M29.617,46.613c-2.273,0-4.203,1.926-4.203,4.192c0,2.271,1.929,4.194,4.203,4.194
		c2.272,0,4.202-1.924,4.202-4.194C33.819,48.539,31.89,46.613,29.617,46.613L29.617,46.613L29.617,46.613z M12.399,46.613
		c-2.273,0-4.202,1.926-4.202,4.192c0,2.271,1.929,4.194,4.202,4.194c2.412,0,4.2-1.924,4.2-4.194
		C16.599,48.539,14.67,46.613,12.399,46.613L12.399,46.613L12.399,46.613z M0,11.964l3.238-0.756l4.751,20.141H35.61l5.372-14.642
		l0.069,0.07l4.271-11.621l7.92-1.854L54,6.531l-6.198,1.444l-9.78,26.744h-0.069l-3.997,10.656H7.438v-3.3h24.177l2.756-7.356
		H5.303L0,11.964L0,11.964z M8.885,16.295l2.273-2.478l8.61,8.114V0h3.305v22l8.956-8.182l2.273,2.478L21.418,28.051L8.885,16.295
		L8.885,16.295z"/>
</g>
</svg>
