<?xml version="1.0" encoding="utf-8"?>
<!-- Generator: Adobe Illustrator 16.0.0, SVG Export Plug-In . SVG Version: 6.00 Build 0)  -->
<!DOCTYPE svg PUBLIC "-//W3C//DTD SVG 1.1//EN" "http://www.w3.org/Graphics/SVG/1.1/DTD/svg11.dtd">
<svg version="1.1" id="Layer_1" xmlns="http://www.w3.org/2000/svg" xmlns:xlink="http://www.w3.org/1999/xlink" x="0px" y="0px"
	 width="162px" height="127px" viewBox="17.5 15.5 162 127" enable-background="new 17.5 15.5 162 127" xml:space="preserve">
<path fill="#FED093" d="M179.5,134.463c0,4.438-3.684,8.037-8.224,8.037H25.724c-4.542,0-8.224-3.6-8.224-8.037V23.538
	c0-4.439,3.682-8.038,8.224-8.038h145.553c4.54,0,8.224,3.599,8.224,8.038V134.463z"/>
<g>
	<path fill="#542437" d="M78.189,114.415c0,0.5-0.104,0.958-0.309,1.374c-0.208,0.42-0.486,0.78-0.834,1.086
		c-0.348,0.305-0.754,0.543-1.22,0.712c-0.464,0.168-0.962,0.252-1.492,0.252h-6.467v-13.28h6.604c0.476,0,0.91,0.101,1.296,0.301
		c0.387,0.199,0.717,0.456,0.988,0.775c0.271,0.318,0.481,0.679,0.629,1.085c0.148,0.404,0.222,0.813,0.222,1.224
		c0,0.674-0.174,1.289-0.523,1.843c-0.348,0.557-0.832,0.97-1.453,1.244c0.788,0.226,1.41,0.643,1.87,1.254
		C77.959,112.896,78.189,113.605,78.189,114.415z M69.204,105.7v4.899h4.725c0.336,0,0.649-0.067,0.939-0.206
		c0.29-0.138,0.542-0.317,0.755-0.542c0.213-0.225,0.377-0.484,0.494-0.776c0.116-0.293,0.174-0.604,0.174-0.925
		c0-0.337-0.055-0.655-0.165-0.954c-0.11-0.299-0.265-0.56-0.464-0.778c-0.201-0.217-0.439-0.391-0.717-0.523
		c-0.277-0.13-0.578-0.196-0.9-0.196h-4.84V105.7z M76.833,114.19c0-0.324-0.057-0.639-0.174-0.944
		c-0.117-0.305-0.281-0.572-0.493-0.803c-0.213-0.23-0.465-0.418-0.756-0.562c-0.29-0.144-0.604-0.214-0.938-0.214h-5.267v5.029
		h5.131c0.348,0,0.678-0.068,0.988-0.205c0.31-0.139,0.575-0.323,0.794-0.553c0.219-0.231,0.394-0.498,0.522-0.803
		C76.768,114.831,76.833,114.516,76.833,114.19z"/>
	<path fill="#542437" d="M85.508,109.216c-0.891,0.025-1.665,0.263-2.324,0.711s-1.123,1.067-1.394,1.853v6.06h-1.317v-9.744h1.238
		v2.338c0.35-0.686,0.807-1.257,1.376-1.71c0.567-0.455,1.181-0.684,1.838-0.684c0.116,0,0.225,0,0.33,0
		c0.103,0,0.187,0.007,0.251,0.02L85.508,109.216L85.508,109.216z"/>
	<path fill="#542437" d="M91.162,118.025c-0.736,0-1.411-0.134-2.023-0.402c-0.612-0.268-1.142-0.633-1.587-1.094
		c-0.446-0.462-0.792-0.998-1.036-1.608c-0.245-0.611-0.367-1.253-0.367-1.927c0-0.685,0.125-1.334,0.377-1.945
		c0.252-0.611,0.6-1.147,1.045-1.608c0.445-0.461,0.975-0.83,1.589-1.104c0.612-0.274,1.28-0.411,2.003-0.411
		c0.722,0,1.391,0.137,2.003,0.411c0.614,0.274,1.144,0.644,1.589,1.104s0.793,0.996,1.045,1.608
		c0.251,0.611,0.377,1.261,0.377,1.945c0,0.674-0.126,1.314-0.377,1.927c-0.252,0.61-0.6,1.146-1.045,1.608
		c-0.446,0.461-0.975,0.826-1.589,1.094C92.553,117.892,91.885,118.025,91.162,118.025z M87.502,113.014
		c0,0.548,0.094,1.056,0.282,1.524c0.187,0.467,0.445,0.878,0.774,1.233c0.33,0.353,0.717,0.633,1.162,0.833
		c0.446,0.199,0.921,0.299,1.424,0.299c0.503,0,0.979-0.104,1.424-0.309c0.446-0.204,0.836-0.487,1.172-0.842
		c0.335-0.355,0.6-0.771,0.793-1.244c0.193-0.474,0.291-0.984,0.291-1.533c0-0.536-0.097-1.045-0.291-1.523
		c-0.194-0.48-0.46-0.899-0.793-1.255c-0.336-0.354-0.725-0.634-1.162-0.842c-0.44-0.204-0.91-0.309-1.415-0.309
		c-0.505,0-0.977,0.104-1.423,0.309c-0.445,0.208-0.833,0.491-1.162,0.852c-0.33,0.363-0.591,0.783-0.785,1.263
		C87.6,111.951,87.502,112.465,87.502,113.014z"/>
	<path fill="#542437" d="M110.721,108.094h1.277l-4.318,9.745h-1.104l-2.151-4.976l-2.148,4.976h-1.104l-4.318-9.745h1.259
		l3.679,8.436l1.917-4.452l-1.722-3.965h1.121l1.316,3.181l1.299-3.181h1.123l-1.705,3.965l1.919,4.452L110.721,108.094z"/>
	<path fill="#542437" d="M116.84,118.025c-0.787,0-1.558-0.124-2.306-0.372c-0.748-0.252-1.394-0.611-1.935-1.085l0.6-0.861
		c0.567,0.449,1.144,0.786,1.733,1.01c0.587,0.225,1.216,0.336,1.887,0.336c0.814,0,1.461-0.158,1.948-0.477
		c0.481-0.318,0.724-0.771,0.724-1.355c0-0.274-0.063-0.503-0.192-0.683c-0.13-0.182-0.32-0.341-0.572-0.478
		c-0.252-0.138-0.567-0.258-0.95-0.364c-0.381-0.106-0.822-0.216-1.324-0.328c-0.583-0.137-1.083-0.274-1.511-0.411
		c-0.429-0.137-0.779-0.293-1.056-0.468c-0.277-0.175-0.485-0.39-0.622-0.645c-0.135-0.256-0.202-0.576-0.202-0.964
		c0-0.487,0.102-0.919,0.302-1.291c0.198-0.374,0.469-0.683,0.813-0.925c0.341-0.244,0.744-0.427,1.201-0.553
		s0.945-0.188,1.462-0.188c0.773,0,1.478,0.123,2.11,0.365s1.144,0.564,1.53,0.964l-0.641,0.748
		c-0.375-0.374-0.828-0.654-1.364-0.842c-0.535-0.187-1.093-0.281-1.676-0.281c-0.347,0-0.669,0.034-0.968,0.104
		c-0.298,0.068-0.558,0.178-0.784,0.328c-0.225,0.148-0.404,0.338-0.534,0.569c-0.127,0.232-0.192,0.503-0.192,0.813
		c0,0.263,0.045,0.475,0.135,0.638c0.094,0.16,0.239,0.301,0.446,0.42c0.207,0.117,0.468,0.224,0.785,0.316
		c0.316,0.094,0.7,0.19,1.152,0.291c0.644,0.151,1.211,0.299,1.703,0.449c0.491,0.151,0.902,0.324,1.229,0.524
		c0.33,0.199,0.578,0.443,0.747,0.729c0.166,0.287,0.251,0.635,0.251,1.046c0,0.897-0.354,1.609-1.063,2.133
		C118.995,117.765,118.039,118.025,116.84,118.025z"/>
	<path fill="#542437" d="M127.296,118.025c-0.737,0-1.413-0.134-2.035-0.402c-0.62-0.268-1.155-0.635-1.606-1.104
		c-0.452-0.466-0.803-1.007-1.055-1.617c-0.251-0.613-0.379-1.268-0.379-1.964c0-0.686,0.128-1.332,0.379-1.936
		c0.252-0.605,0.603-1.135,1.055-1.591c0.451-0.454,0.985-0.815,1.597-1.084c0.614-0.269,1.287-0.403,2.025-0.403
		c0.735,0,1.409,0.135,2.022,0.403s1.139,0.634,1.579,1.094c0.438,0.461,0.779,0.991,1.026,1.591
		c0.244,0.598,0.367,1.232,0.367,1.906c0,0.1-0.004,0.2-0.01,0.299c-0.006,0.101-0.016,0.17-0.028,0.206h-8.616
		c0.037,0.525,0.163,1.009,0.377,1.451c0.211,0.442,0.483,0.825,0.813,1.148c0.329,0.326,0.709,0.579,1.141,0.758
		c0.434,0.182,0.895,0.271,1.385,0.271c0.339,0,0.667-0.043,0.989-0.13c0.322-0.089,0.622-0.207,0.891-0.355
		c0.271-0.15,0.514-0.335,0.727-0.553c0.214-0.218,0.38-0.457,0.494-0.719l1.143,0.297c-0.156,0.363-0.374,0.689-0.657,0.983
		c-0.284,0.293-0.615,0.549-0.99,0.766s-0.788,0.386-1.237,0.505C128.237,117.967,127.772,118.025,127.296,118.025z
		 M131.015,112.453c-0.041-0.525-0.165-1.001-0.38-1.433c-0.214-0.43-0.483-0.801-0.813-1.112c-0.331-0.313-0.715-0.555-1.152-0.729
		c-0.439-0.174-0.904-0.262-1.396-0.262c-0.49,0-0.956,0.088-1.394,0.262c-0.44,0.175-0.824,0.417-1.153,0.729
		c-0.329,0.312-0.593,0.686-0.795,1.121c-0.2,0.438-0.317,0.913-0.357,1.424H131.015z"/>
</g>
<g>
	<path fill="#542437" d="M104.246,80.688c-2.321,0-4.291,1.903-4.291,4.145c0,2.243,1.97,4.145,4.291,4.145s4.291-1.9,4.291-4.145
		C108.536,82.59,106.567,80.688,104.246,80.688L104.246,80.688L104.246,80.688z M86.662,80.688c-2.321,0-4.292,1.903-4.292,4.145
		c0,2.243,1.97,4.145,4.292,4.145c2.463,0,4.289-1.9,4.289-4.145C90.951,82.59,88.98,80.688,86.662,80.688L86.662,80.688
		L86.662,80.688z M74,46.446l3.307-0.748l4.852,19.905h28.207l5.485-14.471l0.071,0.07l4.363-11.484l8.088-1.833l0.772,3.191
		l-6.33,1.426l-9.985,26.43h-0.07l-4.082,10.531h-27.08v-3.261h24.69l2.814-7.27H79.416L74,46.446L74,46.446z M83.072,50.726
		l2.322-2.449l8.791,8.019V34.623h3.376v21.741l9.147-8.086l2.32,2.449L95.871,62.344L83.072,50.726L83.072,50.726z"/>
</g>
</svg>
