<?xml version="1.0" encoding="utf-8"?>
<!-- Generator: Adobe Illustrator 16.0.0, SVG Export Plug-In . SVG Version: 6.00 Build 0)  -->
<!DOCTYPE svg PUBLIC "-//W3C//DTD SVG 1.1//EN" "http://www.w3.org/Graphics/SVG/1.1/DTD/svg11.dtd">
<svg version="1.1" id="Layer_1" xmlns="http://www.w3.org/2000/svg" xmlns:xlink="http://www.w3.org/1999/xlink" x="0px" y="0px"
	 width="40px" height="32px" viewBox="0 0 40 32" enable-background="new 0 0 40 32" xml:space="preserve">
<polygon fill="#0591A3" points="706.473,0 550.473,0 208.498,0 196.498,0 156,0 52.497,0 40.498,0 0,0 40.498,31.025 40.498,43.219 
	40.498,78.881 706.473,78.881 "/>
<polygon fill="#D0D2D3" points="128.39,-238.306 13.876,-238.306 -237.153,-238.306 -245.962,-238.306 -275.688,-238.306 
	-351.666,-238.306 -360.474,-238.306 -390.202,-238.306 -360.474,-215.532 -360.474,-206.582 -360.474,-180.404 128.39,-180.404 
	430.202,-180.404 430.202,-238.306 "/>
<polygon fill="#0591A3" points="-399.966,-312.23 -407.901,-312.23 -442.81,-312.23 -407.901,-282.359 -407.901,-191.795 
	377.595,-191.795 377.595,-312.23 "/>
</svg>
