<?xml version="1.0" encoding="utf-8"?>
<!-- Generator: Adobe Illustrator 16.0.0, SVG Export Plug-In . SVG Version: 6.00 Build 0)  -->
<!DOCTYPE svg PUBLIC "-//W3C//DTD SVG 1.1//EN" "http://www.w3.org/Graphics/SVG/1.1/DTD/svg11.dtd">
<svg version="1.1" id="Layer_1" xmlns="http://www.w3.org/2000/svg" xmlns:xlink="http://www.w3.org/1999/xlink" x="0px" y="0px"
	 width="170px" height="82px" viewBox="0 0 170 82" enable-background="new 0 0 170 82" xml:space="preserve">
<g>
	<path fill="#CCCCCC" d="M170,75.44c0,3.623-2.928,6.56-6.539,6.56H6.539C2.927,82,0,79.063,0,75.44V6.56C0,2.937,2.927,0,6.539,0
		h156.922C167.072,0,170,2.937,170,6.56V75.44z"/>
	<g>
		<rect x="78.41" y="5.741" fill="#542437" width="84.184" height="7.653"/>
		<rect x="78.41" y="18.313" fill="#542437" width="84.184" height="7.654"/>
		<rect x="78.41" y="30.887" fill="#542437" width="84.184" height="7.654"/>
		<rect x="78.41" y="43.46" fill="#542437" width="84.184" height="7.654"/>
		<rect x="7.305" y="56.033" fill="#542437" width="155.289" height="7.653"/>
		<rect x="7.305" y="68.606" fill="#542437" width="155.289" height="7.653"/>
		<g>
			<ellipse fill="#542437" cx="15.18" cy="13.909" rx="6.582" ry="6.604"/>
			<path fill="#542437" d="M72.689,51.114V34.542c-3.913-2.597-9.027-4.173-14.627-4.173c-11.151,0-20.388,6.235-22.019,14.373
				c-2.833-2.741-7.18-4.497-12.058-4.497c-8.042,0-14.648,4.771-15.388,10.87H72.689z"/>
		</g>
	</g>
</g>
</svg>
