<?xml version="1.0" encoding="utf-8"?>
<!-- Generator: Adobe Illustrator 16.0.0, SVG Export Plug-In . SVG Version: 6.00 Build 0)  -->
<!DOCTYPE svg PUBLIC "-//W3C//DTD SVG 1.1//EN" "http://www.w3.org/Graphics/SVG/1.1/DTD/svg11.dtd">
<svg version="1.1" id="Layer_1" xmlns="http://www.w3.org/2000/svg" xmlns:xlink="http://www.w3.org/1999/xlink" x="0px" y="0px"
	 width="36px" height="99px" viewBox="0.321 3.977 36 99" enable-background="new 0.321 3.977 36 99" xml:space="preserve">
<g>
	<rect x="1.556" y="76.916" fill="#0591A3" width="26" height="26.061"/>
	<rect x="4.806" y="80.173" fill="#F1F1F2" width="19.5" height="19.546"/>
	<path fill="#ECD078" d="M12.909,96.474l23.413-26.497L12.909,88.399c-2.517-6.056-7.621-8.073-7.621-8.073l-4.966,4.792
		C9.636,88.145,12.909,96.474,12.909,96.474z"/>
</g>
<rect x="-81.187" y="58.699" fill="#D95B43" width="29.792" height="29.615"/>
<g>
	<rect x="86.332" y="45.449" fill="#C02943" width="40" height="40"/>
	<rect x="91.332" y="50.449" fill="#542437" width="30" height="30"/>
</g>
<g>
	<rect x="108.616" y="-9.819" fill="#0591A3" width="37.84" height="37.839"/>
	<rect x="113.39" y="-5.046" fill="#F1F1F2" width="28.293" height="28.292"/>
</g>
<g>
	<rect x="1.234" y="43.916" fill="#0591A3" width="26" height="26.061"/>
	<rect x="4.484" y="47.173" fill="#F1F1F2" width="19.5" height="19.546"/>
	<path fill="#ECD078" d="M12.587,63.474L36,36.977L12.587,55.4c-2.517-6.056-7.621-8.074-7.621-8.074L0,52.118
		C9.314,55.145,12.587,63.474,12.587,63.474z"/>
</g>
<g>
	<rect x="1.556" y="10.915" fill="#0591A3" width="26" height="26.062"/>
	<rect x="4.806" y="14.172" fill="#F1F1F2" width="19.499" height="19.546"/>
</g>
</svg>
