<?xml version="1.0" encoding="utf-8"?>
<!-- Generator: Adobe Illustrator 16.0.0, SVG Export Plug-In . SVG Version: 6.00 Build 0)  -->
<!DOCTYPE svg PUBLIC "-//W3C//DTD SVG 1.1//EN" "http://www.w3.org/Graphics/SVG/1.1/DTD/svg11.dtd">
<svg version="1.1" id="Layer_1" xmlns="http://www.w3.org/2000/svg" xmlns:xlink="http://www.w3.org/1999/xlink" x="0px" y="0px"
	 width="36px" height="99px" viewBox="0 0 36 99" enable-background="new 0 0 36 99" xml:space="preserve">
<rect x="1.556" y="72.939" fill="#542437" width="26" height="26.061"/>
<rect x="4.806" y="76.195" fill="#FFD093" width="19.5" height="19.547"/>
<path fill="#0591A3" d="M12.909,92.498L36.322,66L12.909,84.422c-2.517-6.056-7.621-8.072-7.621-8.072l-4.966,4.793
	C9.636,84.168,12.909,92.498,12.909,92.498z"/>
<rect x="-81.187" y="58.699" fill="#D95B43" width="29.792" height="29.615"/>
<rect x="40.332" y="17.949" fill="#542437" width="30" height="30"/>
<g>
	<rect x="108.616" y="-9.819" fill="#0591A3" width="37.84" height="37.839"/>
	<rect x="113.391" y="-5.046" fill="#F1F1F2" width="28.293" height="28.292"/>
</g>
<rect x="1.234" y="39.939" fill="#542437" width="26" height="26.061"/>
<rect x="4.484" y="43.196" fill="#FFD093" width="19.5" height="19.546"/>
<path fill="#0591A3" d="M12.587,59.498L36,33L12.587,51.424c-2.517-6.057-7.621-8.074-7.621-8.074L0,48.142
	C9.314,51.168,12.587,59.498,12.587,59.498z"/>
<g>
	<rect x="1.556" y="6.938" fill="#542437" width="26" height="26.062"/>
	<rect x="4.806" y="10.195" fill="#FFD093" width="19.499" height="19.546"/>
</g>
<g>
	<g>
		<path fill="#FFD093" d="M279.444-41.825c0,3.865-3.582,6.998-8,6.998h-596.222c-4.418,0-8-3.133-8-6.998v-356.403
			c0-3.865,3.582-6.999,8-6.999h596.222c4.418,0,8,3.134,8,6.999V-41.825z"/>
		<g>
			<g>
				<g>
					<g>
						<g>
							<g>
								<path fill="#542437" d="M266.47-371.488l-4.076,4.075l-9.098-9.097l-9.826,9.825l-4.512-4.513l9.824-9.826l-9.096-9.098
									l4.074-4.075l9.098,9.098l9.826-9.825l4.512,4.513l-9.824,9.825L266.47-371.488z"/>
							</g>
						</g>
					</g>
				</g>
			</g>
		</g>
	</g>
	<g>
		<g>
			<circle fill="#0591A3" cx="-200.314" cy="-221.431" r="48.136"/>
			<circle fill="#FFD093" cx="-200.314" cy="-221.431" r="44.928"/>
			<path fill="#0591A3" d="M-227.321-200.334h54.014c0,0,0.441-3.867-1.027-6.148c-1.631-2.545-7.117-4.133-12.538-6.392
				c-5.432-2.264-6.721-3.049-6.721-3.049l-1.469-5.204c0,0,3.456-1.564,4.084-6.462c1.276,0.366,2.606-3.319,2.679-4.513
				c0.072-1.144-0.179-2.925-1.73-2.602c0.037-0.246,0.066-0.493,0.095-0.736c0-0.017,0-0.026,0.005-0.032
				c0.265-2.096,0.433-3.922,0.343-4.936c-0.251-2.611-1.943-5.304-4.723-6.967c-0.021-0.007-0.04-0.014-0.063-0.02
				c-1.479-0.604-3.724-1.506-6.215-1.599c-2.198,0.057-4.282,0.437-5.694,1.599c-0.228,0.185-0.601,0.667-0.865,0.8
				c-0.088,0.039-1.989,0.432-2.84,1.853c-1.262,2.098-0.934,7.638-0.618,10.038c-1.555-0.323-1.795,1.458-1.726,2.602
				c0.073,1.193,1.404,4.879,2.682,4.513c0.624,4.897,4.084,6.462,4.084,6.462l-1.478,5.204c0,0-1.281,0.785-6.713,3.049
				c-5.429,2.259-10.908,3.847-12.544,6.392C-227.762-204.201-227.321-200.334-227.321-200.334z"/>
		</g>
		<g>
			<circle fill="#0591A3" cx="-26.175" cy="-221.148" r="48.136"/>
			<circle fill="#FFD093" cx="-26.174" cy="-221.148" r="44.928"/>
			<path fill="#0591A3" d="M-53.181-200.052H0.832c0,0,0.44-3.866-1.027-6.147c-1.63-2.543-7.116-4.134-12.539-6.391
				c-5.432-2.266-6.72-3.051-6.72-3.051l-1.469-5.202c0,0,3.455-1.567,4.084-6.464c1.276,0.364,2.605-3.319,2.679-4.514
				c0.071-1.143-0.179-2.924-1.729-2.6c0.036-0.245,0.065-0.494,0.093-0.737c0-0.015,0-0.025,0.005-0.034
				c0.266-2.094,0.436-3.922,0.344-4.931c-0.252-2.611-1.942-5.303-4.724-6.97c-0.021-0.007-0.038-0.014-0.063-0.022
				c-1.479-0.601-3.724-1.503-6.215-1.596c-2.197,0.059-4.282,0.437-5.692,1.596c-0.23,0.19-0.602,0.673-0.867,0.803
				c-0.086,0.039-1.988,0.432-2.838,1.852c-1.264,2.099-0.934,7.638-0.619,10.04c-1.555-0.324-1.795,1.457-1.726,2.6
				c0.073,1.194,1.403,4.878,2.681,4.514c0.625,4.896,4.086,6.464,4.086,6.464l-1.479,5.202c0,0-1.282,0.785-6.714,3.051
				c-5.429,2.257-10.907,3.848-12.544,6.391C-53.621-203.918-53.181-200.052-53.181-200.052z"/>
		</g>
		<g>
			<circle fill="#0591A3" cx="147.965" cy="-220.865" r="48.136"/>
			<circle fill="#FFD093" cx="147.966" cy="-220.865" r="44.928"/>
			<path fill="#0591A3" d="M120.958-199.769h54.015c0,0,0.438-3.865-1.029-6.146c-1.63-2.546-7.116-4.134-12.538-6.395
				c-5.432-2.264-6.721-3.048-6.721-3.048l-1.468-5.205c0,0,3.456-1.564,4.083-6.463c1.277,0.367,2.606-3.317,2.681-4.51
				c0.072-1.145-0.18-2.925-1.731-2.602c0.037-0.248,0.067-0.494,0.094-0.737c0-0.015,0-0.025,0.006-0.032
				c0.266-2.095,0.434-3.922,0.343-4.937c-0.251-2.608-1.942-5.302-4.724-6.967c-0.019-0.007-0.039-0.013-0.063-0.021
				c-1.48-0.602-3.724-1.504-6.215-1.596c-2.197,0.055-4.281,0.435-5.694,1.596c-0.228,0.186-0.6,0.671-0.864,0.801
				c-0.088,0.041-1.989,0.432-2.839,1.854c-1.263,2.097-0.933,7.635-0.62,10.038c-1.553-0.323-1.794,1.457-1.724,2.602
				c0.073,1.192,1.403,4.877,2.682,4.51c0.622,4.898,4.083,6.463,4.083,6.463l-1.477,5.205c0,0-1.283,0.784-6.715,3.048
				c-5.429,2.261-10.906,3.849-12.543,6.395C120.52-203.634,120.958-199.769,120.958-199.769z"/>
		</g>
		<text transform="matrix(1 0 0 1 -232.2866 -156.7832)"><tspan x="0" y="0" fill="#542437" font-family="'Raleway-Bold'" font-size="13">Lucy Cook</tspan><tspan x="-50.822" y="15.6" fill="#542437" font-family="'Raleway'" font-size="13">Director of Finance, Delloite</tspan></text>
		<text transform="matrix(1 0 0 1 -69.521 -156.7832)"><tspan x="0" y="0" fill="#542437" font-family="'Raleway-Bold'" font-size="13">George Currie</tspan><tspan x="-33.669" y="15.6" fill="#542437" font-family="'Raleway'" font-size="13">web developer, freelance</tspan></text>
		<g>
			<rect x="-37.608" y="-126.755" fill="#542437" width="23.173" height="23.171"/>
			<rect x="-34.713" y="-123.858" fill="#FFD093" width="17.38" height="17.38"/>
		</g>
		<g>
			<rect x="-211.403" y="-126.755" fill="#542437" width="23.173" height="23.171"/>
			<rect x="-208.507" y="-123.858" fill="#FFD093" width="17.38" height="17.38"/>
		</g>
		<text transform="matrix(1 0 0 1 115.3271 -156.7832)"><tspan x="0" y="0" fill="#542437" font-family="'Raleway-Bold'" font-size="13">Lucy Cook</tspan><tspan x="-50.822" y="15.6" fill="#542437" font-family="'Raleway'" font-size="13">Director of Finance, Delloite</tspan></text>
		<g>
			<rect x="136.209" y="-126.755" fill="#542437" width="23.173" height="23.171"/>
			<rect x="139.105" y="-123.858" fill="#FFD093" width="17.381" height="17.38"/>
		</g>
	</g>
	<g>
		<text transform="matrix(1 0 0 1 -270.418 -316.0039)" fill="#542437" font-family="'Raleway'" font-size="18.546">Search EventMost:</text>
		<g>
			<path fill="#FFFFFF" d="M-88.42-332.913c-1.691,0-3.063,1.369-3.063,3.063v15.992c0,1.691,1.371,3.061,3.063,3.061h253.39
				v-22.115H-88.42z"/>
			<path fill="#542437" d="M218.368-332.913H164.97v22.115h53.398c1.691,0,3.063-1.369,3.063-3.061v-15.992
				C221.431-331.544,220.06-332.913,218.368-332.913z"/>
			<text transform="matrix(1 0 0 1 -85.5977 -318.1162)" fill="#542437" font-family="'Raleway'" font-size="9.8912">search for people...</text>
			<text transform="matrix(1 0 0 1 184.3506 -317.7314)" fill="#F1F1F2" font-family="'Raleway-Medium'" font-size="11.1276">GO</text>
		</g>
	</g>
</g>
</svg>
