<?xml version="1.0" encoding="utf-8"?>
<!-- Generator: Adobe Illustrator 16.0.0, SVG Export Plug-In . SVG Version: 6.00 Build 0)  -->
<!DOCTYPE svg PUBLIC "-//W3C//DTD SVG 1.1//EN" "http://www.w3.org/Graphics/SVG/1.1/DTD/svg11.dtd">
<svg version="1.1" id="Layer_1" xmlns="http://www.w3.org/2000/svg" xmlns:xlink="http://www.w3.org/1999/xlink" x="0px" y="0px"
	 width="36px" height="99px" viewBox="0 0 36 99" enable-background="new 0 0 36 99" xml:space="preserve">
<g>
	<rect x="1.556" y="72.939" fill="#542437" width="26" height="26.061"/>
	<rect x="4.806" y="76.196" fill="#F1F1F2" width="19.5" height="19.546"/>
	<path fill="#ECD078" d="M12.909,92.498L36.322,66L12.909,84.422c-2.517-6.056-7.621-8.072-7.621-8.072l-4.966,4.792
		C9.636,84.168,12.909,92.498,12.909,92.498z"/>
</g>
<rect x="-81.187" y="58.699" fill="#D95B43" width="29.792" height="29.615"/>
<rect x="40.332" y="17.949" fill="#542437" width="30" height="30"/>
<g>
	<rect x="108.616" y="-9.819" fill="#0591A3" width="37.84" height="37.839"/>
	<rect x="113.391" y="-5.046" fill="#F1F1F2" width="28.293" height="28.292"/>
</g>
<g>
	<rect x="1.234" y="39.939" fill="#542437" width="26" height="26.061"/>
	<rect x="4.484" y="43.196" fill="#F1F1F2" width="19.5" height="19.546"/>
	<path fill="#ECD078" d="M12.587,59.498L36,33L12.587,51.424c-2.517-6.057-7.621-8.074-7.621-8.074L0,48.142
		C9.314,51.168,12.587,59.498,12.587,59.498z"/>
</g>
<g>
	<rect x="1.556" y="6.938" fill="#542437" width="26" height="26.062"/>
	<rect x="4.806" y="10.195" fill="#F1F1F2" width="19.499" height="19.546"/>
</g>
</svg>
