<?xml version="1.0" encoding="utf-8"?>
<!-- Generator: Adobe Illustrator 16.0.0, SVG Export Plug-In . SVG Version: 6.00 Build 0)  -->
<!DOCTYPE svg PUBLIC "-//W3C//DTD SVG 1.1//EN" "http://www.w3.org/Graphics/SVG/1.1/DTD/svg11.dtd">
<svg version="1.1" id="Layer_1" xmlns="http://www.w3.org/2000/svg" xmlns:xlink="http://www.w3.org/1999/xlink" x="0px" y="0px"
	 width="42.294px" height="33.26px" viewBox="0 0 42.294 33.26" enable-background="new 0 0 42.294 33.26" xml:space="preserve">
<g>
	<path fill="#E6E7E8" d="M2.979,7.26c-1.608,0-2.686,1.491-2.686,3.1v18.937c0,1.608,1.077,3.964,2.686,3.964h3.314v-26H2.979z"/>
	<path fill="#E6E7E8" d="M39.396,33.26c1.609,0,2.897-2.355,2.897-3.964V10.359c0-1.609-1.288-3.1-2.897-3.1h-3.103v26H39.396z"/>
	<polyline fill="#E6E7E8" points="35.294,7.26 8.294,7.26 8.294,33.26 35.294,33.26 	"/>
	<path fill="#E6E7E8" d="M31.294,9.532c0,2.059-1.669,3.728-3.728,3.728H16.021c-2.059,0-3.728-1.669-3.728-3.728V3.987
		c0-2.059,1.669-3.728,3.728-3.728h11.545c2.059,0,3.728,1.669,3.728,3.728V9.532z M27.294,3.918c0-0.687-0.327-0.659-1.014-0.659
		H15.329c-0.685,0-1.035-0.028-1.035,0.659v6.472c0,0.686,0.351,1.87,1.035,1.87H26.28c0.687,0,1.014-1.184,1.014-1.87V3.918z"/>
</g>
</svg>
