<?xml version="1.0" encoding="utf-8"?>
<!-- Generator: Adobe Illustrator 16.0.0, SVG Export Plug-In . SVG Version: 6.00 Build 0)  -->
<!DOCTYPE svg PUBLIC "-//W3C//DTD SVG 1.1//EN" "http://www.w3.org/Graphics/SVG/1.1/DTD/svg11.dtd">
<svg version="1.1" id="Layer_1" xmlns="http://www.w3.org/2000/svg" xmlns:xlink="http://www.w3.org/1999/xlink" x="0px" y="0px"
	 width="250px" height="87px" viewBox="0 0 250 87" enable-background="new 0 0 250 87" xml:space="preserve">
<polygon fill="#FED093" points="205.059,0 128.297,0 121.704,0 44.941,0 0,0 0,44.682 0,67.834 0,87 27.211,87 121.704,87 
	128.297,87 222.789,87 250,87 250,67.834 250,44.682 250,0 "/>
<g>
	
		<ellipse transform="matrix(0.0139 -0.9999 0.9999 0.0139 -30.6826 79.3651)" fill="#542437" cx="24.898" cy="55.239" rx="3.187" ry="3.205"/>
</g>
<g>
	<path fill="#542437" d="M23.392,63.357C15.989,73.658,11.857,76.361,9.979,77.06c0.938,0.363,1.353,0.235,1.353,0.235
		s1.874-0.011,1.723,1.15c0.005,0.038-0.007,0.073-0.007,0.109c4.657-1.927,8.201-5.367,10.55-8.293v17.59h4.336
		c0-8.59,0-22.449,0-24.453C27.521,61.986,25.25,61.139,23.392,63.357z"/>
</g>
<g>
	<path fill="#542437" d="M6.994,78.445c0.267-0.471,0.905-0.906,1.722-1.15c-0.01-0.021,0.377,0.094,1.263-0.235
		c-1.524-0.59-4.441-2.491-9.256-8.374v5.97c1.792,1.518,3.879,2.907,6.272,3.898C6.986,78.508,6.982,78.468,6.994,78.445z"/>
</g>
<g>
	<path fill="#542437" d="M50.137,45.088c0-1.066,0.188-2.129,0.566-3.188c0.377-1.058,0.926-2.004,1.646-2.837
		c0.721-0.833,1.609-1.513,2.666-2.038s2.255-0.788,3.596-0.788c1.592,0,2.95,0.359,4.074,1.075c1.123,0.717,1.961,1.65,2.514,2.8
		l-1.408,0.85c-0.286-0.583-0.629-1.075-1.031-1.475c-0.402-0.4-0.838-0.725-1.308-0.975c-0.47-0.25-0.956-0.429-1.458-0.537
		s-0.998-0.163-1.484-0.163c-1.073,0-2.02,0.217-2.841,0.65c-0.822,0.434-1.513,1-2.075,1.7c-0.562,0.7-0.985,1.487-1.27,2.362
		c-0.285,0.875-0.427,1.763-0.427,2.662c0,0.984,0.171,1.926,0.515,2.825c0.344,0.9,0.813,1.696,1.409,2.388
		c0.595,0.691,1.298,1.242,2.112,1.65c0.813,0.408,1.697,0.612,2.653,0.612c0.503,0,1.018-0.063,1.546-0.188s1.04-0.325,1.534-0.601
		c0.494-0.274,0.951-0.616,1.37-1.024s0.771-0.904,1.056-1.487l1.459,0.75c-0.286,0.666-0.688,1.254-1.208,1.762
		c-0.52,0.509-1.098,0.938-1.734,1.288c-0.638,0.35-1.312,0.616-2.024,0.8c-0.713,0.184-1.413,0.275-2.1,0.275
		c-1.224,0-2.347-0.267-3.37-0.801c-1.022-0.533-1.903-1.229-2.64-2.087c-0.738-0.858-1.312-1.833-1.723-2.925
		C50.342,47.334,50.137,46.222,50.137,45.088z"/>
	<path fill="#542437" d="M74.729,42.563c-1.156,0.034-2.162,0.35-3.017,0.95c-0.855,0.6-1.458,1.425-1.811,2.476v8.1h-1.709V41.063
		H69.8v3.125c0.453-0.917,1.047-1.679,1.785-2.288s1.534-0.913,2.389-0.913c0.151,0,0.293,0,0.428,0s0.243,0.009,0.327,0.025V42.563
		z"/>
	<path fill="#542437" d="M82.75,54.338c-0.956,0-1.836-0.18-2.64-0.537c-0.805-0.358-1.5-0.851-2.087-1.476
		c-0.587-0.625-1.043-1.346-1.371-2.162c-0.327-0.816-0.49-1.691-0.49-2.625c0-0.917,0.164-1.779,0.49-2.588
		c0.327-0.808,0.783-1.516,1.371-2.125c0.586-0.608,1.278-1.091,2.075-1.45c0.795-0.358,1.672-0.538,2.627-0.538
		c0.955,0,1.832,0.179,2.627,0.538s1.479,0.846,2.049,1.462c0.57,0.617,1.014,1.325,1.333,2.125c0.318,0.8,0.478,1.65,0.478,2.55
		c0,0.134-0.004,0.267-0.012,0.4c-0.009,0.134-0.021,0.225-0.038,0.274H77.973c0.05,0.7,0.213,1.347,0.49,1.938
		c0.277,0.592,0.629,1.104,1.056,1.538s0.922,0.771,1.484,1.013c0.561,0.241,1.16,0.362,1.797,0.362
		c0.436,0,0.863-0.059,1.283-0.175c0.418-0.117,0.805-0.275,1.157-0.476s0.667-0.445,0.943-0.737
		c0.276-0.291,0.49-0.612,0.641-0.963l1.484,0.4c-0.201,0.483-0.486,0.921-0.855,1.313s-0.796,0.733-1.282,1.025
		c-0.486,0.291-1.022,0.517-1.609,0.675S83.37,54.338,82.75,54.338z M87.578,46.888c-0.05-0.7-0.213-1.337-0.49-1.912
		c-0.277-0.575-0.629-1.071-1.056-1.488c-0.428-0.417-0.927-0.741-1.497-0.975c-0.57-0.233-1.173-0.35-1.81-0.35
		c-0.638,0-1.241,0.117-1.811,0.35c-0.569,0.234-1.068,0.559-1.496,0.975c-0.427,0.417-0.771,0.917-1.031,1.5
		c-0.261,0.583-0.415,1.217-0.465,1.899H87.578z"/>
	<path fill="#542437" d="M95.247,54.338c-0.67,0-1.282-0.104-1.835-0.313s-1.027-0.496-1.42-0.862
		c-0.395-0.366-0.701-0.792-0.918-1.275c-0.218-0.483-0.327-0.991-0.327-1.524c0-0.601,0.134-1.146,0.403-1.638
		c0.268-0.491,0.645-0.913,1.131-1.263c0.486-0.35,1.069-0.621,1.748-0.813s1.429-0.287,2.25-0.287c0.654,0,1.324,0.059,2.012,0.175
		c0.687,0.116,1.299,0.283,1.836,0.5v-1.175c0-1.15-0.332-2.063-0.994-2.738c-0.662-0.675-1.555-1.013-2.678-1.013
		c-0.704,0-1.404,0.134-2.099,0.4c-0.696,0.267-1.405,0.65-2.125,1.15l-0.604-1.125c0.855-0.566,1.685-0.992,2.49-1.275
		c0.804-0.283,1.643-0.425,2.515-0.425c1.592,0,2.857,0.458,3.797,1.375c0.938,0.917,1.408,2.184,1.408,3.8v5.875
		c0,0.467,0.202,0.7,0.604,0.7v1.5c-0.134,0.017-0.26,0.029-0.377,0.037c-0.118,0.009-0.218,0.013-0.302,0.013
		c-0.335,0-0.641-0.1-0.918-0.3c-0.276-0.2-0.432-0.5-0.465-0.9l-0.051-1.024c-0.569,0.767-1.32,1.362-2.25,1.787
		S96.203,54.338,95.247,54.338z M95.674,53.038c0.754,0,1.505-0.163,2.251-0.487c0.746-0.325,1.336-0.771,1.772-1.338
		c0.117-0.15,0.218-0.313,0.302-0.487c0.083-0.175,0.126-0.338,0.126-0.487v-2.125c-0.57-0.217-1.166-0.384-1.785-0.5
		c-0.621-0.117-1.224-0.176-1.811-0.176c-1.224,0-2.217,0.246-2.979,0.738c-0.763,0.491-1.144,1.171-1.144,2.037
		c0,0.35,0.066,0.691,0.201,1.025c0.134,0.333,0.339,0.633,0.616,0.899c0.276,0.267,0.616,0.483,1.018,0.65
		C94.644,52.955,95.122,53.038,95.674,53.038z"/>
	<path fill="#542437" d="M111.717,53.463c-0.101,0.05-0.248,0.117-0.44,0.2c-0.193,0.083-0.415,0.167-0.667,0.25
		s-0.537,0.158-0.855,0.225c-0.319,0.066-0.654,0.101-1.006,0.101c-0.369,0-0.721-0.051-1.056-0.15
		c-0.335-0.1-0.629-0.254-0.88-0.463c-0.251-0.208-0.453-0.471-0.604-0.787s-0.227-0.684-0.227-1.1v-9.325h-1.81v-1.35h1.81v-4.4
		h1.71v4.4h3.017v1.35h-3.017v8.85c0.033,0.483,0.201,0.838,0.503,1.063c0.301,0.226,0.662,0.338,1.081,0.338
		c0.486,0,0.914-0.079,1.283-0.237c0.369-0.158,0.604-0.271,0.704-0.338L111.717,53.463z"/>
	<path fill="#542437" d="M119.461,54.338c-0.956,0-1.836-0.18-2.64-0.537c-0.805-0.358-1.5-0.851-2.087-1.476
		c-0.587-0.625-1.043-1.346-1.371-2.162c-0.327-0.816-0.49-1.691-0.49-2.625c0-0.917,0.164-1.779,0.49-2.588
		c0.327-0.808,0.783-1.516,1.371-2.125c0.586-0.608,1.278-1.091,2.074-1.45c0.796-0.358,1.672-0.538,2.628-0.538
		c0.955,0,1.831,0.179,2.627,0.538c0.796,0.358,1.479,0.846,2.049,1.462c0.57,0.617,1.014,1.325,1.333,2.125
		c0.318,0.8,0.477,1.65,0.477,2.55c0,0.134-0.004,0.267-0.012,0.4c-0.009,0.134-0.021,0.225-0.038,0.274h-11.19
		c0.051,0.7,0.214,1.347,0.491,1.938c0.276,0.592,0.629,1.104,1.056,1.538s0.922,0.771,1.483,1.013
		c0.562,0.241,1.161,0.362,1.797,0.362c0.437,0,0.864-0.059,1.283-0.175c0.418-0.117,0.804-0.275,1.156-0.476
		c0.353-0.2,0.667-0.445,0.943-0.737c0.276-0.291,0.49-0.612,0.641-0.963l1.484,0.4c-0.201,0.483-0.486,0.921-0.855,1.313
		c-0.369,0.392-0.796,0.733-1.283,1.025c-0.486,0.291-1.022,0.517-1.609,0.675S120.081,54.338,119.461,54.338z M124.289,46.888
		c-0.05-0.7-0.214-1.337-0.49-1.912s-0.628-1.071-1.056-1.488c-0.428-0.417-0.927-0.741-1.497-0.975
		c-0.57-0.233-1.173-0.35-1.81-0.35c-0.638,0-1.241,0.117-1.811,0.35c-0.57,0.234-1.068,0.559-1.496,0.975
		c-0.427,0.417-0.771,0.917-1.031,1.5c-0.26,0.583-0.415,1.217-0.465,1.899H124.289z"/>
	<path fill="#542437" d="M140.658,54.338c-0.955,0-1.835-0.18-2.64-0.537c-0.805-0.358-1.501-0.851-2.087-1.476
		c-0.587-0.625-1.044-1.346-1.371-2.162c-0.326-0.816-0.49-1.691-0.49-2.625c0-0.917,0.164-1.779,0.49-2.588
		c0.327-0.808,0.784-1.516,1.371-2.125c0.586-0.608,1.277-1.091,2.075-1.45c0.795-0.358,1.672-0.538,2.626-0.538
		c0.956,0,1.832,0.179,2.629,0.538c0.796,0.358,1.479,0.846,2.049,1.462c0.569,0.617,1.014,1.325,1.332,2.125s0.479,1.65,0.479,2.55
		c0,0.134-0.006,0.267-0.014,0.4s-0.022,0.225-0.038,0.274h-11.189c0.051,0.7,0.214,1.347,0.491,1.938
		c0.276,0.592,0.629,1.104,1.055,1.538c0.429,0.434,0.923,0.771,1.484,1.013c0.561,0.241,1.16,0.362,1.798,0.362
		c0.436,0,0.863-0.059,1.282-0.175c0.419-0.117,0.805-0.275,1.156-0.476c0.353-0.2,0.667-0.445,0.943-0.737
		c0.276-0.291,0.491-0.612,0.642-0.963l1.483,0.4c-0.202,0.483-0.487,0.921-0.854,1.313c-0.369,0.392-0.797,0.733-1.282,1.025
		c-0.487,0.291-1.023,0.517-1.61,0.675C141.883,54.259,141.278,54.338,140.658,54.338z M145.487,46.888
		c-0.051-0.7-0.214-1.337-0.491-1.912s-0.629-1.071-1.056-1.488c-0.428-0.417-0.927-0.741-1.496-0.975
		c-0.57-0.233-1.174-0.35-1.812-0.35c-0.636,0-1.24,0.117-1.81,0.35c-0.57,0.234-1.068,0.559-1.496,0.975
		c-0.428,0.417-0.771,0.917-1.031,1.5c-0.26,0.583-0.415,1.217-0.465,1.899H145.487z"/>
	<path fill="#542437" d="M153.256,54.088l-5.331-13.025h1.786l4.501,11.45l4.525-11.45h1.66l-5.33,13.025H153.256z"/>
	<path fill="#542437" d="M168.395,54.338c-0.956,0-1.836-0.18-2.641-0.537c-0.806-0.358-1.501-0.851-2.087-1.476
		c-0.588-0.625-1.045-1.346-1.37-2.162c-0.327-0.816-0.491-1.691-0.491-2.625c0-0.917,0.164-1.779,0.491-2.588
		c0.325-0.808,0.782-1.516,1.37-2.125c0.586-0.608,1.277-1.091,2.074-1.45c0.796-0.358,1.672-0.538,2.627-0.538
		c0.956,0,1.831,0.179,2.628,0.538c0.796,0.358,1.479,0.846,2.049,1.462c0.57,0.617,1.015,1.325,1.333,2.125s0.479,1.65,0.479,2.55
		c0,0.134-0.005,0.267-0.013,0.4c-0.009,0.134-0.021,0.225-0.038,0.274h-11.189c0.051,0.7,0.214,1.347,0.49,1.938
		c0.276,0.592,0.629,1.104,1.056,1.538c0.428,0.434,0.922,0.771,1.483,1.013c0.563,0.241,1.161,0.362,1.799,0.362
		c0.435,0,0.863-0.059,1.282-0.175c0.419-0.117,0.805-0.275,1.156-0.476s0.666-0.445,0.943-0.737
		c0.276-0.291,0.49-0.612,0.642-0.963l1.483,0.4c-0.202,0.483-0.486,0.921-0.855,1.313s-0.796,0.733-1.282,1.025
		c-0.486,0.291-1.022,0.517-1.609,0.675S169.014,54.338,168.395,54.338z M173.222,46.888c-0.051-0.7-0.214-1.337-0.491-1.912
		c-0.275-0.575-0.628-1.071-1.056-1.488c-0.427-0.417-0.926-0.741-1.496-0.975c-0.569-0.233-1.174-0.35-1.811-0.35
		s-1.24,0.117-1.81,0.35c-0.571,0.234-1.069,0.559-1.496,0.975c-0.429,0.417-0.772,0.917-1.031,1.5
		c-0.261,0.583-0.415,1.217-0.466,1.899H173.222z"/>
	<path fill="#542437" d="M188.434,54.088h-1.709v-7.275c0-1.55-0.227-2.675-0.68-3.375c-0.452-0.7-1.156-1.05-2.111-1.05
		c-0.503,0-1.006,0.092-1.509,0.275s-0.973,0.441-1.408,0.775s-0.816,0.729-1.144,1.187c-0.327,0.459-0.575,0.955-0.742,1.488v7.975
		h-1.71V41.063h1.559v2.95c0.269-0.466,0.6-0.896,0.993-1.287c0.395-0.392,0.834-0.729,1.32-1.013c0.486-0.283,1.002-0.5,1.547-0.65
		c0.544-0.15,1.11-0.225,1.697-0.225c0.737,0,1.353,0.134,1.848,0.4c0.494,0.267,0.893,0.642,1.194,1.125
		c0.302,0.484,0.52,1.075,0.654,1.775c0.134,0.7,0.2,1.476,0.2,2.325V54.088z"/>
	<path fill="#542437" d="M198.215,53.463c-0.1,0.05-0.247,0.117-0.439,0.2c-0.193,0.083-0.415,0.167-0.666,0.25
		c-0.252,0.083-0.538,0.158-0.855,0.225c-0.318,0.066-0.653,0.101-1.006,0.101c-0.369,0-0.722-0.051-1.057-0.15
		c-0.336-0.1-0.628-0.254-0.88-0.463c-0.251-0.208-0.453-0.471-0.603-0.787c-0.151-0.316-0.228-0.684-0.228-1.1v-9.325h-1.81v-1.35
		h1.81v-4.4h1.71v4.4h3.018v1.35h-3.018v8.85c0.034,0.483,0.202,0.838,0.503,1.063c0.302,0.226,0.662,0.338,1.082,0.338
		c0.486,0,0.913-0.079,1.281-0.237c0.37-0.158,0.604-0.271,0.704-0.338L198.215,53.463z"/>
</g>
</svg>
