<?xml version="1.0" encoding="utf-8"?>
<!-- Generator: Adobe Illustrator 16.0.0, SVG Export Plug-In . SVG Version: 6.00 Build 0)  -->
<!DOCTYPE svg PUBLIC "-//W3C//DTD SVG 1.1//EN" "http://www.w3.org/Graphics/SVG/1.1/DTD/svg11.dtd">
<svg version="1.1" id="Layer_1" xmlns="http://www.w3.org/2000/svg" xmlns:xlink="http://www.w3.org/1999/xlink" x="0px" y="0px"
	 width="403.667px" height="49.167px" viewBox="0 0 403.667 49.167" enable-background="new 0 0 403.667 49.167"
	 xml:space="preserve">
<g>
	<g>
		<g>
			<path fill="#FFFFFF" stroke="#FFFFFF" stroke-miterlimit="10" d="M399.111,0.59h-69.896c-2.18,0-3.943,1.77-3.943,3.943V36.43
				h77.779V4.533C403.051,2.359,401.287,0.59,399.111,0.59z"/>
			<path fill="#FFFFFF" stroke="#FFFFFF" stroke-miterlimit="10" d="M325.271,44.688c0,2.18,1.764,3.945,3.943,3.945h69.896
				c2.176,0,3.939-1.766,3.939-3.945v-3.684h-77.779V44.688z"/>
		</g>
	</g>
	<g>
		<g>
			<path fill="#262262" stroke="#262262" stroke-miterlimit="10" d="M236.768,0.59h-69.895c-2.18,0-3.945,1.77-3.945,3.943V36.43
				h77.779V4.533C240.707,2.359,238.943,0.59,236.768,0.59z"/>
			<path fill="#262262" stroke="#262262" stroke-miterlimit="10" d="M162.928,44.688c0,2.18,1.766,3.945,3.945,3.945h69.895
				c2.176,0,3.939-1.766,3.939-3.945v-3.684h-77.779V44.688z"/>
		</g>
	</g>
	<g>
		<g>
			<linearGradient id="SVGID_1_" gradientUnits="userSpaceOnUse" x1="81.7559" y1="18.5103" x2="159.5352" y2="18.5103">
				<stop  offset="0" style="stop-color:#00B8E9"/>
				<stop  offset="0.427" style="stop-color:#009ACA"/>
				<stop  offset="0.5077" style="stop-color:#0090BD"/>
				<stop  offset="0.8347" style="stop-color:#006D8E"/>
				<stop  offset="1" style="stop-color:#00607E"/>
			</linearGradient>
			<path fill="url(#SVGID_1_)" d="M155.596,0.59H85.701c-2.18,0-3.945,1.77-3.945,3.943V36.43h77.779V4.533
				C159.535,2.359,157.771,0.59,155.596,0.59z"/>
			<linearGradient id="SVGID_2_" gradientUnits="userSpaceOnUse" x1="81.7559" y1="44.8188" x2="159.5352" y2="44.8188">
				<stop  offset="0" style="stop-color:#00B8E9"/>
				<stop  offset="0.427" style="stop-color:#009ACA"/>
				<stop  offset="0.5077" style="stop-color:#0090BD"/>
				<stop  offset="0.8347" style="stop-color:#006D8E"/>
				<stop  offset="1" style="stop-color:#00607E"/>
			</linearGradient>
			<path fill="url(#SVGID_2_)" d="M81.756,44.688c0,2.18,1.766,3.945,3.945,3.945h69.895c2.176,0,3.939-1.766,3.939-3.945v-3.684
				H81.756V44.688z"/>
		</g>
	</g>
	<g>
		<g>
			<path fill="#FFFFFF" stroke="#FFFFFF" stroke-miterlimit="10" d="M74.424,0.59H4.528c-2.18,0-3.945,1.77-3.945,3.943V36.43h77.78
				V4.533C78.363,2.359,76.6,0.59,74.424,0.59z"/>
			<path fill="#FFFFFF" stroke="#FFFFFF" stroke-miterlimit="10" d="M0.583,44.688c0,2.18,1.766,3.945,3.945,3.945h69.896
				c2.176,0,3.939-1.766,3.939-3.945v-3.684H0.583V44.688z"/>
		</g>
	</g>
	<path fill="#0066B3" d="M249.996,4.254c0-2.02,1.639-3.664,3.666-3.664h-5.619c-2.178,0-3.943,1.77-3.943,3.943V36.43h5.896v-2.541
		V4.254z"/>
	<path fill="#FFFFFF" stroke="#FFFFFF" stroke-miterlimit="10" d="M321.879,4.533c0-2.174-1.764-3.943-3.939-3.943h-64.277
		c-2.027,0-3.666,1.645-3.666,3.664v29.635v2.541h71.883V4.533z"/>
	<path fill="#0066B3" d="M249.996,41.004H244.1v3.684c0,2.18,1.766,3.945,3.943,3.945h69.896c2.176,0,3.939-1.766,3.939-3.945
		v-1.494v-2.189H249.996z"/>
	<g>
		<path fill="#FFFFFF" d="M296.081,46.998v-5.078h1.76c0.404,0,0.762,0.066,1.068,0.2c0.309,0.134,0.564,0.314,0.77,0.544
			c0.205,0.229,0.359,0.497,0.461,0.805c0.104,0.308,0.154,0.635,0.154,0.983c0,0.386-0.057,0.735-0.172,1.048
			c-0.115,0.312-0.279,0.579-0.494,0.801s-0.473,0.394-0.775,0.515c-0.303,0.122-0.641,0.183-1.012,0.183H296.081z M299.644,44.452
			c0-0.286-0.039-0.55-0.119-0.791c-0.078-0.24-0.195-0.446-0.35-0.618c-0.156-0.172-0.346-0.307-0.568-0.404
			c-0.225-0.098-0.48-0.146-0.766-0.146h-1.115v3.934h1.115c0.291,0,0.549-0.05,0.775-0.15c0.227-0.1,0.416-0.238,0.564-0.415
			c0.15-0.176,0.266-0.385,0.344-0.625C299.604,44.994,299.644,44.733,299.644,44.452z"/>
		<path fill="#FFFFFF" d="M304.663,46.425v0.572h-3.447v-5.078h3.383v0.572h-2.738v1.645h2.381v0.537h-2.381v1.752H304.663z"/>
		<path fill="#FFFFFF" d="M309.478,45.689c0,0.195-0.039,0.374-0.119,0.536c-0.078,0.162-0.186,0.301-0.32,0.415
			c-0.137,0.114-0.295,0.202-0.473,0.265c-0.18,0.062-0.371,0.093-0.576,0.093h-2.41v-5.078h2.525c0.176,0,0.336,0.038,0.479,0.114
			s0.266,0.176,0.365,0.297c0.1,0.122,0.178,0.26,0.232,0.415s0.082,0.312,0.082,0.469c0,0.252-0.063,0.486-0.189,0.7
			c-0.127,0.215-0.307,0.375-0.541,0.479c0.291,0.086,0.521,0.244,0.691,0.476C309.392,45.101,309.478,45.374,309.478,45.689z
			 M306.224,42.477v1.695h1.615c0.115,0,0.219-0.022,0.314-0.068c0.096-0.045,0.178-0.105,0.248-0.182
			c0.068-0.076,0.123-0.166,0.164-0.269s0.061-0.211,0.061-0.325c0-0.119-0.02-0.231-0.057-0.336
			c-0.039-0.105-0.09-0.196-0.154-0.272s-0.143-0.136-0.236-0.179c-0.092-0.043-0.191-0.064-0.297-0.064H306.224z M308.827,45.575
			c0-0.115-0.021-0.226-0.063-0.333c-0.039-0.107-0.094-0.201-0.164-0.282c-0.068-0.081-0.15-0.146-0.246-0.193
			s-0.201-0.071-0.314-0.071h-1.816v1.745h1.766c0.119,0,0.229-0.024,0.33-0.072c0.1-0.047,0.188-0.11,0.264-0.189
			c0.076-0.078,0.137-0.17,0.18-0.275C308.806,45.798,308.827,45.689,308.827,45.575z"/>
		<path fill="#FFFFFF" d="M313.847,42.492h-1.752v4.506h-0.645v-4.506h-1.752v-0.572h4.148V42.492z"/>
	</g>
	<g>
		<g>
			<polygon fill="#0066B3" points="284.037,26.334 279.967,26.334 282.51,10.695 286.582,10.695 			"/>
			<path fill="#0066B3" d="M276.541,10.695l-3.883,10.756l-0.459-2.316v0.002l-1.371-7.033c0,0-0.164-1.408-1.932-1.408h-6.416
				l-0.076,0.264c0,0,1.963,0.408,4.26,1.789l3.537,13.586h4.244l6.477-15.639H276.541z"/>
			<path fill="#0066B3" d="M308.568,26.334h3.738l-3.26-15.639h-3.273c-1.512,0-1.879,1.166-1.879,1.166l-6.072,14.473h4.242
				l0.85-2.321h5.178L308.568,26.334z M304.088,20.803l2.139-5.854l1.203,5.854H304.088z"/>
			<path fill="#0066B3" d="M298.141,14.455l0.58-3.357c0,0-1.793-0.684-3.662-0.684c-2.021,0-6.82,0.885-6.82,5.178
				c0,4.041,5.633,4.094,5.633,6.215s-5.053,1.742-6.719,0.402l-0.605,3.512c0,0,1.816,0.885,4.596,0.885s6.971-1.44,6.971-5.356
				c0-4.064-5.682-4.445-5.682-6.213C292.432,13.268,296.398,13.496,298.141,14.455z"/>
		</g>
		<path fill="#FAA634" d="M272.199,19.137l-1.371-7.033c0,0-0.164-1.408-1.932-1.408h-6.416l-0.076,0.264
			c0,0,3.086,0.641,6.045,3.035C271.275,16.283,272.199,19.137,272.199,19.137z"/>
	</g>
	<g>
		<g>
			<polygon fill="#0066B3" points="360.006,26.963 355.934,26.963 358.479,11.322 362.551,11.322 			"/>
			<path fill="#0066B3" d="M352.508,11.322l-3.881,10.756l-0.461-2.314h0.002l-1.371-7.033c0,0-0.164-1.408-1.93-1.408h-6.418
				l-0.076,0.264c0,0,1.963,0.408,4.26,1.789l3.537,13.588h4.242l6.48-15.641H352.508z"/>
			<path fill="#0066B3" d="M384.537,26.963h3.738l-3.26-15.641h-3.273c-1.512,0-1.881,1.166-1.881,1.166l-6.07,14.475h4.242
				l0.85-2.325h5.176L384.537,26.963z M380.055,21.43l2.141-5.854l1.205,5.854H380.055z"/>
			<path fill="#0066B3" d="M374.107,15.082l0.582-3.357c0,0-1.793-0.684-3.662-0.684c-2.021,0-6.82,0.885-6.82,5.178
				c0,4.041,5.633,4.094,5.633,6.215s-5.053,1.742-6.719,0.402l-0.605,3.512c0,0,1.818,0.885,4.596,0.885
				c2.779,0,6.973-1.44,6.973-5.356c0-4.066-5.686-4.445-5.686-6.213C368.398,13.895,372.365,14.123,374.107,15.082z"/>
		</g>
		<path fill="#FAA634" d="M348.168,19.764l-1.371-7.033c0,0-0.164-1.408-1.93-1.408h-6.418l-0.076,0.264
			c0,0,3.086,0.641,6.043,3.035C347.244,16.91,348.168,19.764,348.168,19.764z"/>
	</g>
	<g>
		<path fill-rule="evenodd" clip-rule="evenodd" fill="#FCB131" d="M201.412,30.297c2.82,2.598,6.609,4.176,10.729,4.176
			c8.846,0,16.006-7.215,16.006-16.09c0-8.902-7.16-16.119-16.006-16.119c-4.119,0-7.908,1.576-10.729,4.176
			c-3.234,2.957-5.279,7.215-5.279,11.943C196.133,23.109,198.178,27.368,201.412,30.297L201.412,30.297z"/>
		<path fill-rule="evenodd" clip-rule="evenodd" fill="#FCB131" d="M226.018,27.34c0-0.277,0.223-0.498,0.498-0.498
			c0.305,0,0.525,0.221,0.525,0.498c0,0.303-0.221,0.525-0.525,0.525C226.24,27.866,226.018,27.643,226.018,27.34L226.018,27.34z
			 M226.516,27.754c0.221,0,0.414-0.193,0.414-0.414c0-0.223-0.193-0.389-0.414-0.389c-0.193,0-0.387,0.166-0.387,0.389
			C226.129,27.561,226.322,27.754,226.516,27.754L226.516,27.754z M226.461,27.588h-0.111v-0.471h0.193c0.029,0,0.084,0,0.111,0.029
			c0.055,0.027,0.055,0.057,0.055,0.111c0,0.053-0.027,0.109-0.082,0.109l0.109,0.221h-0.139l-0.055-0.193h-0.082V27.588v-0.277
			h0.055c0.027,0,0.057,0,0.057,0c0.025,0,0.025-0.027,0.025-0.053c0-0.029,0-0.029-0.025-0.055c0,0-0.029,0-0.057,0h-0.055v0.107
			V27.588L226.461,27.588z"/>
		<path fill-rule="evenodd" clip-rule="evenodd" fill="#ED1C2E" d="M206.582,16.668c-0.055-0.58-0.166-1.133-0.275-1.715h-9.787
			c0.111-0.58,0.275-1.135,0.443-1.686h8.873c-0.193-0.58-0.414-1.162-0.662-1.713h-7.521c0.277-0.582,0.582-1.162,0.912-1.717
			h5.668c-0.359-0.578-0.773-1.16-1.217-1.686h-3.234c0.498-0.607,1.051-1.188,1.631-1.713c-2.848-2.572-6.605-4.176-10.754-4.176
			c-8.818,0-16.008,7.217-16.008,16.119c0,8.875,7.189,16.09,16.008,16.09c4.148,0,7.906-1.578,10.754-4.176l0,0l0,0
			c0.582-0.525,1.107-1.078,1.604-1.686h-3.234c-0.441-0.555-0.828-1.105-1.217-1.713h5.668c0.359-0.555,0.664-1.106,0.941-1.717
			h-7.521c-0.248-0.551-0.496-1.105-0.689-1.686h8.873c0.195-0.553,0.332-1.133,0.471-1.713c0.109-0.555,0.221-1.135,0.275-1.715
			c0.057-0.553,0.084-1.105,0.084-1.686C206.666,17.801,206.639,17.221,206.582,16.668L206.582,16.668z"/>
		<path fill-rule="evenodd" clip-rule="evenodd" fill="#FFFFFF" d="M226.018,22.113c0-0.303,0.223-0.525,0.498-0.525
			c0.305,0,0.525,0.223,0.525,0.525c0,0.277-0.221,0.525-0.525,0.525C226.24,22.639,226.018,22.391,226.018,22.113L226.018,22.113z
			 M226.516,22.502c0.221,0,0.414-0.166,0.414-0.389c0-0.221-0.193-0.385-0.414-0.385c-0.193,0-0.387,0.164-0.387,0.385
			C226.129,22.336,226.322,22.502,226.516,22.502L226.516,22.502z M226.461,22.336h-0.111v-0.443h0.193c0.029,0,0.084,0,0.111,0
			c0.055,0.029,0.055,0.084,0.055,0.139c0,0.027-0.027,0.082-0.082,0.111l0.109,0.193h-0.139l-0.055-0.166h-0.082V22.336v-0.25
			h0.055c0.027,0,0.057,0,0.057-0.027c0.025,0,0.025-0.027,0.025-0.055c0,0,0-0.027-0.025-0.027c0-0.029-0.029,0-0.057,0h-0.055
			v0.109V22.336L226.461,22.336z"/>
		<path fill-rule="evenodd" clip-rule="evenodd" fill="#003473" d="M195.967,23.025c-0.525,0.139-0.912,0.223-1.299,0.223
			c-0.83,0-1.328-0.525-1.328-1.465c0-0.195,0.027-0.389,0.057-0.609l0.109-0.637l0.084-0.525l0.746-4.533h1.658l-0.193,0.994h1.051
			l-0.25,1.66h-1.049l-0.443,2.709c-0.027,0.139-0.027,0.221-0.027,0.275c0,0.359,0.166,0.5,0.58,0.5
			c0.193,0,0.359-0.029,0.525-0.057L195.967,23.025L195.967,23.025z"/>
		<path fill-rule="evenodd" clip-rule="evenodd" fill="#003473" d="M201.33,22.973c-0.607,0.166-1.16,0.248-1.77,0.248
			c-1.879,0-2.959-0.996-2.959-2.961c0-2.293,1.273-3.949,3.043-3.949c1.41,0,2.322,0.938,2.322,2.404
			c0,0.496-0.057,0.967-0.193,1.629h-3.457c-0.027,0.111-0.027,0.168-0.027,0.223c0,0.773,0.525,1.162,1.521,1.162
			c0.635,0,1.188-0.141,1.797-0.414L201.33,22.973L201.33,22.973z M200.309,19.018c0-0.139,0-0.248,0-0.332
			c0-0.553-0.307-0.857-0.832-0.857c-0.553,0-0.939,0.416-1.104,1.189H200.309L200.309,19.018z"/>
		<polygon fill-rule="evenodd" clip-rule="evenodd" fill="#003473" points="182.695,23.109 180.982,23.109 181.979,16.834 
			179.738,23.109 178.549,23.109 178.412,16.861 177.361,23.109 175.674,23.109 177.029,14.953 179.545,14.953 179.6,19.984 
			181.287,14.953 184.051,14.953 182.695,23.109 		"/>
		<path fill-rule="evenodd" clip-rule="evenodd" fill="#003473" d="M186.871,20.15c-0.166-0.027-0.221-0.027-0.332-0.027
			c-0.996,0-1.492,0.389-1.492,0.994c0,0.418,0.248,0.693,0.635,0.693C186.512,21.811,186.844,21.117,186.871,20.15L186.871,20.15z
			 M188.254,23.109h-1.494l0.027-0.691c-0.387,0.525-0.912,0.803-1.822,0.803c-0.83,0-1.549-0.748-1.549-1.826
			c0-0.303,0.055-0.58,0.137-0.857c0.277-1.021,1.301-1.658,2.877-1.686c0.193,0,0.496,0,0.773,0.027
			c0.055-0.223,0.055-0.303,0.055-0.441c0-0.443-0.359-0.58-1.16-0.58c-0.498,0-1.051,0.082-1.438,0.221l-0.25,0.055l-0.109,0.027
			l0.248-1.492c0.801-0.248,1.383-0.357,2.02-0.357c1.49,0,2.293,0.688,2.293,1.961c0,0.33,0.027,0.58-0.082,1.299l-0.389,2.377
			l-0.055,0.416l-0.027,0.332l-0.027,0.221L188.254,23.109L188.254,23.109z"/>
		<path fill-rule="evenodd" clip-rule="evenodd" fill="#003473" d="M209.68,16.529c0.498,0,0.939,0.139,1.549,0.443l0.303-1.77
			c-0.166-0.084-0.221-0.084-0.441-0.166l-0.691-0.193c-0.221-0.055-0.496-0.084-0.803-0.084c-0.855,0-1.354,0.029-1.879,0.332
			c-0.277,0.193-0.635,0.443-1.023,0.885l-0.221-0.055l-1.77,1.242l0.082-0.691h-1.824l-1.078,6.637h1.742l0.635-3.566
			c0,0,0.25-0.498,0.359-0.664c0.332-0.414,0.609-0.414,0.969-0.414c0.055,0,0.111,0,0.139,0c-0.055,0.387-0.084,0.803-0.084,1.271
			c0,2.156,1.217,3.512,3.098,3.512c0.469,0,0.883-0.057,1.52-0.223l0.305-1.879c-0.553,0.305-1.051,0.441-1.467,0.441
			c-1.021,0-1.629-0.773-1.629-1.99C207.469,17.801,208.381,16.529,209.68,16.529L209.68,16.529z"/>
		<path fill-rule="evenodd" clip-rule="evenodd" fill="#003473" d="M224.359,14.953l-0.387,2.322
			c-0.414-0.635-0.912-0.939-1.576-0.939c-0.914,0-1.77,0.525-2.295,1.521v-0.029l-1.105-0.664l0.111-0.691h-1.852l-1.053,6.637
			h1.715l0.58-3.566c0,0,0.443-0.498,0.553-0.664c0.277-0.332,0.553-0.387,0.775-0.414c-0.193,0.553-0.305,1.217-0.305,1.963
			c0,1.658,0.857,2.764,2.129,2.764c0.635,0,1.133-0.219,1.604-0.746l-0.084,0.664h1.633l1.326-8.156H224.359L224.359,14.953z
			 M222.23,21.535c-0.58,0-0.885-0.443-0.885-1.301c0-1.301,0.553-2.24,1.355-2.24c0.607,0,0.912,0.471,0.912,1.301
			C223.613,20.621,223.061,21.535,222.23,21.535L222.23,21.535z"/>
		<path fill-rule="evenodd" clip-rule="evenodd" fill="#003473" d="M214.24,20.15c-0.166-0.027-0.219-0.027-0.33-0.027
			c-0.996,0-1.492,0.389-1.492,0.994c0,0.418,0.248,0.693,0.635,0.693C213.881,21.811,214.213,21.117,214.24,20.15L214.24,20.15z
			 M215.623,23.109h-1.52l0.055-0.691c-0.387,0.525-0.912,0.803-1.824,0.803c-0.857,0-1.604-0.719-1.604-1.826
			c0-1.576,1.188-2.543,3.068-2.543c0.193,0,0.498,0,0.746,0.027c0.055-0.223,0.084-0.303,0.084-0.441
			c0-0.443-0.359-0.58-1.189-0.58c-0.471,0-1.051,0.082-1.438,0.221l-0.223,0.055l-0.109,0.027l0.248-1.492
			c0.803-0.248,1.383-0.357,2.02-0.357c1.492,0,2.266,0.688,2.266,1.961c0,0.33,0.055,0.58-0.082,1.299l-0.359,2.377l-0.055,0.416
			l-0.057,0.332l-0.027,0.221V23.109L215.623,23.109z"/>
		<path fill-rule="evenodd" clip-rule="evenodd" fill="#003473" d="M191.875,17.885c0.332,0,0.801,0.027,1.299,0.109l0.25-1.547
			c-0.498-0.057-1.162-0.137-1.549-0.137c-1.936,0-2.57,1.049-2.57,2.266c0,0.801,0.359,1.381,1.299,1.824
			c0.691,0.332,0.801,0.387,0.801,0.691c0,0.414-0.357,0.662-1.023,0.662c-0.523,0-1.021-0.082-1.574-0.277l-0.193,1.521
			l0.027,0.027l0.332,0.057c0.109,0.027,0.248,0.057,0.441,0.082c0.414,0.027,0.775,0.057,0.996,0.057
			c1.936,0,2.736-0.748,2.736-2.213c0-0.912-0.441-1.465-1.299-1.852c-0.746-0.334-0.83-0.387-0.83-0.691
			S191.35,17.885,191.875,17.885L191.875,17.885z"/>
		<path fill-rule="evenodd" clip-rule="evenodd" fill="#FFFFFF" d="M212.002,14.676l-0.305,1.771
			c-0.607-0.305-1.051-0.443-1.547-0.443c-1.301,0-2.213,1.271-2.213,3.07c0,1.242,0.609,1.988,1.631,1.988
			c0.414,0,0.912-0.137,1.465-0.414l-0.303,1.854c-0.637,0.164-1.051,0.248-1.521,0.248c-1.879,0-3.041-1.355-3.041-3.539
			c0-2.9,1.604-4.947,3.898-4.947c0.305,0,0.58,0.025,0.803,0.082l0.689,0.166C211.779,14.594,211.836,14.623,212.002,14.676
			L212.002,14.676z"/>
		<path fill-rule="evenodd" clip-rule="evenodd" fill="#FFFFFF" d="M206.416,15.893c-0.055,0-0.109,0-0.164,0
			c-0.58,0-0.914,0.277-1.439,1.08l0.166-1.025h-1.574l-1.078,6.637h1.74c0.637-4.064,0.801-4.756,1.633-4.756
			c0.055,0,0.055,0,0.109,0c0.166-0.801,0.387-1.381,0.664-1.906L206.416,15.893L206.416,15.893z"/>
		<path fill-rule="evenodd" clip-rule="evenodd" fill="#FFFFFF" d="M196.408,22.502c-0.469,0.164-0.855,0.221-1.242,0.221
			c-0.885,0-1.383-0.498-1.383-1.465c0-0.166,0.027-0.389,0.055-0.58l0.111-0.666l0.082-0.523l0.748-4.535h1.713l-0.193,0.994h0.885
			l-0.221,1.633h-0.885l-0.471,2.764c-0.027,0.111-0.027,0.193-0.027,0.277c0,0.332,0.166,0.471,0.58,0.471
			c0.193,0,0.359,0,0.471-0.055L196.408,22.502L196.408,22.502z"/>
		<path fill-rule="evenodd" clip-rule="evenodd" fill="#FFFFFF" d="M189.746,18.051c0,0.828,0.387,1.408,1.301,1.852
			c0.717,0.332,0.828,0.441,0.828,0.719c0,0.416-0.305,0.607-0.996,0.607c-0.523,0-0.994-0.082-1.547-0.248l-0.25,1.521l0.084,0.025
			l0.305,0.057c0.109,0.027,0.248,0.055,0.469,0.055c0.387,0.057,0.719,0.057,0.939,0.057c1.826,0,2.682-0.691,2.682-2.213
			c0-0.912-0.359-1.438-1.215-1.852c-0.746-0.334-0.83-0.414-0.83-0.719c0-0.359,0.305-0.525,0.857-0.525
			c0.332,0,0.801,0.027,1.244,0.084l0.248-1.523c-0.441-0.082-1.133-0.137-1.52-0.137C190.41,15.811,189.719,16.834,189.746,18.051
			L189.746,18.051z"/>
		<path fill-rule="evenodd" clip-rule="evenodd" fill="#FFFFFF" d="M225.244,22.584h-1.631l0.082-0.637
			c-0.469,0.498-0.967,0.719-1.602,0.719c-1.273,0-2.104-1.078-2.104-2.736c0-2.211,1.301-4.092,2.822-4.092
			c0.689,0,1.188,0.305,1.658,0.912l0.387-2.322h1.715L225.244,22.584L225.244,22.584z M222.701,21.037
			c0.801,0,1.354-0.941,1.354-2.24c0-0.857-0.303-1.301-0.91-1.301c-0.775,0-1.355,0.912-1.355,2.211
			C221.789,20.592,222.094,21.037,222.701,21.037L222.701,21.037z"/>
		<path fill-rule="evenodd" clip-rule="evenodd" fill="#FFFFFF" d="M201.717,22.445c-0.607,0.193-1.16,0.277-1.797,0.277
			c-1.934,0-2.93-1.023-2.93-2.986c0-2.266,1.271-3.953,3.012-3.953c1.439,0,2.352,0.939,2.352,2.406
			c0,0.496-0.057,0.967-0.221,1.658h-3.43c-0.027,0.082-0.027,0.137-0.027,0.193c0,0.773,0.525,1.16,1.521,1.16
			c0.635,0,1.188-0.109,1.797-0.414L201.717,22.445L201.717,22.445z M200.75,18.492c0-0.139,0-0.248,0-0.332
			c0-0.553-0.305-0.855-0.83-0.855c-0.553,0-0.939,0.414-1.105,1.188H200.75L200.75,18.492z"/>
		<polygon fill-rule="evenodd" clip-rule="evenodd" fill="#FFFFFF" points="183.139,22.584 181.424,22.584 182.42,16.311 
			180.182,22.584 178.992,22.584 178.854,16.363 177.803,22.584 176.199,22.584 177.555,14.428 180.043,14.428 180.125,19.488 
			181.783,14.428 184.494,14.428 183.139,22.584 		"/>
		<path fill-rule="evenodd" clip-rule="evenodd" fill="#FFFFFF" d="M187.424,19.627c-0.166,0-0.248-0.029-0.387-0.029
			c-0.967,0-1.465,0.359-1.465,1.023c0,0.416,0.221,0.664,0.607,0.664C186.898,21.285,187.396,20.621,187.424,19.627L187.424,19.627
			z M188.695,22.584h-1.438l0.027-0.691c-0.441,0.553-1.023,0.803-1.824,0.803c-0.939,0-1.576-0.719-1.576-1.797
			c0-1.631,1.105-2.572,3.041-2.572c0.193,0,0.443,0.027,0.719,0.057c0.055-0.223,0.055-0.305,0.055-0.416
			c0-0.441-0.303-0.607-1.104-0.607c-0.498,0-1.053,0.055-1.439,0.166l-0.248,0.082l-0.166,0.027l0.248-1.492
			c0.857-0.25,1.439-0.332,2.074-0.332c1.494,0,2.295,0.662,2.295,1.936c0,0.332-0.027,0.58-0.139,1.328l-0.387,2.348l-0.055,0.416
			l-0.027,0.332l-0.029,0.248L188.695,22.584L188.695,22.584z"/>
		<path fill-rule="evenodd" clip-rule="evenodd" fill="#FFFFFF" d="M214.795,19.627c-0.195,0-0.277-0.029-0.389-0.029
			c-0.994,0-1.492,0.359-1.492,1.023c0,0.416,0.248,0.664,0.635,0.664C214.24,21.285,214.766,20.621,214.795,19.627L214.795,19.627z
			 M216.066,22.584h-1.438l0.025-0.691c-0.441,0.553-1.021,0.803-1.824,0.803c-0.939,0-1.576-0.719-1.576-1.797
			c0-1.631,1.107-2.572,3.043-2.572c0.191,0,0.441,0.027,0.691,0.057c0.055-0.223,0.082-0.305,0.082-0.416
			c0-0.441-0.305-0.607-1.105-0.607c-0.498,0-1.078,0.055-1.465,0.166l-0.223,0.082l-0.166,0.027l0.25-1.492
			c0.857-0.25,1.438-0.332,2.072-0.332c1.494,0,2.268,0.662,2.268,1.936c0,0.332,0,0.58-0.137,1.328l-0.361,2.348l-0.055,0.416
			l-0.057,0.332l-0.025,0.248V22.584L216.066,22.584z"/>
		<path fill-rule="evenodd" clip-rule="evenodd" fill="#FFFFFF" d="M220.711,15.893c-0.055,0-0.111,0-0.166,0
			c-0.58,0-0.912,0.277-1.438,1.08l0.166-1.025h-1.576l-1.051,6.637h1.713c0.637-4.064,0.803-4.756,1.631-4.756
			c0.057,0,0.057,0,0.111,0c0.166-0.801,0.387-1.381,0.662-1.906L220.711,15.893L220.711,15.893z"/>
	</g>
	<g>
		<g>
			<polygon fill="#FFFFFF" points="141.211,11.871 142.129,14.117 140.266,14.117 			"/>
			<path fill="#FFFFFF" d="M124.676,11.805h1.98c0.574,0,1.047,0.32,1.047,0.715c0,0.396-0.473,0.715-1.047,0.715h-1.98V11.805z"/>
			<polygon fill="#FFFFFF" points="100.217,11.871 99.285,14.117 101.148,14.117 			"/>
			<path fill="#FFFFFF" d="M111.346,18.885c0,0.033,0,0.16,0,0.16h4.42h0.357h5.195h1.84h2.912c0,0,0-2.023,0-2.617
				c0.113,0,0.27,0,0.311,0c-0.002,0.189-0.008,1.197-0.008,1.197v1.42h4.227v0.025h3.346v-0.674
				c0.576,0.363,1.16,0.566,1.609,0.633l0.102,0.016h4.045c0,0,0.516-1.23,0.662-1.582c0.639,0,0.986,0,1.619,0
				c0.154,0.357,0.678,1.582,0.678,1.582h6.107c0,0,0-1.246,0-1.357c0.094,0.156,0.818,1.357,0.818,1.357h4.861V8.664h-4.764
				c0,0,0,1.086,0,1.293c-0.078-0.129-0.781-1.293-0.781-1.293h-4.926c0,0,0,0.92,0,1.215c-0.014-0.031-0.51-1.215-0.51-1.215H138.9
				l-0.002,0.008c-0.1-0.004-2.656-0.072-2.656-0.072c-0.801,0.035-1.598,0.258-2.297,0.691V8.664h-1.418h-3.346v0.291
				c-0.795-0.33-1.563-0.313-1.855-0.291h-4.168h-1.418h-0.422h-5.195h-1.418h-0.357h-3.588c0,0-0.799,1.787-1.178,2.635
				c-0.383-0.852-1.186-2.635-1.186-2.635h-5.361c0,0,0,1.117,0,1.307c-0.021-0.053-0.549-1.307-0.549-1.307h-4.578l-2.109,5.006
				v3.713l3.076-7.301h2.695l2.91,6.932v-6.932h3.025l2.107,4.686l2.094-4.686h3.025v7.543h-1.941v-5.207l-2.4,5.207h-1.57
				l-2.412-5.182v5.182h-1.672h-0.256h-1.852l-0.662-1.582h-3.5l-0.676,1.582h-1.992v1.42h2.902c0,0,0.523-1.225,0.678-1.582
				c0.635,0,0.98,0,1.617,0c0.146,0.352,0.662,1.582,0.662,1.582h6.143c0,0,0-0.15,0-0.193c0.031,0.07,0.088,0.193,0.088,0.193
				h3.383C111.271,19.045,111.324,18.934,111.346,18.885z M136.23,10.018l2.361,0.064v1.697l-1.939,0.025c0,0-1.264,0-1.418,1.646
				c-0.02,0.189-0.027,0.363-0.025,0.525c0.006,2.549,2.213,1.758,2.285,1.736l2.375-5.631h2.68l2.873,6.842v-6.842h2.707l3,4.965
				v-4.965h1.928v7.543h-2.643l-3.039-5.039v5.039h-1.646h-0.307h-1.799l-0.678-1.582h-3.498l-0.664,1.582h-1.762h-0.318h-0.92
				c0,0-2.578-0.369-2.578-3.561C133.205,9.877,136.129,10.043,136.23,10.018z M130.627,10.082h1.926v7.57h-1.926V10.082z
				 M122.762,10.082h4.648c0,0,2.424-0.293,2.424,2.209c0,1.303-1.072,1.76-1.072,1.76s0.932,0.436,0.932,1.711v1.863h-1.877v-1.467
				c0,0-0.076-1.15-1.275-1.15h-1.865v2.617h-1.914V10.082z M115.791,10.082h5.977v1.76h-4.049v1.164h3.945v1.707h-3.945v1.279
				h4.049v1.633h-5.977V10.082z"/>
		</g>
		<g>
			<path fill="none" d="M154.104,25.711v2.641c0.209-0.373,0.344-0.859,0.344-1.508C154.447,26.36,154.313,25.995,154.104,25.711z"
				/>
			<rect x="154.104" y="21.953" fill="none" width="0.002" height="1.762"/>
			<path fill="#FFFFFF" d="M150.133,24.252c0,0.623,1.393,0.535,1.393,0.535s1.809-0.129,2.578,0.924v-1.996h-2.949
				C151.154,23.715,150.133,23.51,150.133,24.252z"/>
			<path fill="#FFFFFF" d="M150.439,21.953h3.664v-1.418l-3.607,0.002c-0.117-0.006-0.898-0.027-1.74,0.318v-0.32l-5.012,0.002
				c-0.119-0.006-0.885-0.027-1.717,0.309v-0.297h-1.42h-7.391v0.291c-0.793-0.326-1.559-0.314-1.854-0.291h-6.012v0.236
				c-0.752-0.283-1.453-0.281-1.721-0.262h-4.598l-1.469,0.012h-0.619c0,0-1.004,1.086-1.582,1.713
				c-0.576-0.631-1.576-1.725-1.576-1.725h-9.014v10.395h9.166c0,0,0.92-1.006,1.414-1.549c0.49,0.541,1.404,1.549,1.404,1.549
				h5.609c0,0,0-1.938,0-2.426c0.17,0,0.459,0,0.459,0c0.85,0,1.744-0.082,2.525-0.398v2.836h4.752c0,0,0-2.023,0-2.617
				c0.115,0,0.271,0,0.313,0c-0.002,0.189-0.008,1.197-0.008,1.197v1.42h4.701v-0.012h6.918v-0.016l2.859-0.002
				c0.113,0.006,0.23,0.014,0.23,0.014c0.563,0,1.146-0.115,1.695-0.34v0.33l4.826-0.004c0.113,0.006,0.232,0.014,0.232,0.014
				c0.75,0,1.547-0.193,2.232-0.611v-1.951c-0.574,1.023-1.717,1.143-2.207,1.143c-0.143,0-0.23-0.01-0.23-0.01h-3.41v-1.736h2.977
				c0,0,1.084,0.127,1.084-0.598c0-0.68-1.621-0.627-1.621-0.627s-2.643,0.23-2.643-2.247
				C148.053,21.813,150.439,21.953,150.439,21.953z M122.852,27.073h-1.875v2.426h-1.891h-1.674l-2.027-2.234l-2.045,2.234h-1.16
				h-5.963v-7.557h5.963h1.008l2.197,2.398l2.209-2.387h1.467v-0.012h4.646c0,0,2.426-0.268,2.426,2.219
				C126.133,26.383,125.328,27.073,122.852,27.073z M133.717,27.647v1.863h-1.863v-1.467c0,0-0.078-1.148-1.277-1.148h-1.865v2.615
				h-1.914v-7.543h4.646c0,0,2.426-0.293,2.426,2.209c0,1.301-1.072,1.76-1.072,1.76S133.717,26.37,133.717,27.647z M140.635,23.715
				h-4.047v1.16h3.945v1.713h-3.945v1.277h4.047v1.633h-5.973v-7.532h5.973V23.715z M145.145,29.495c-0.145,0-0.232-0.01-0.232-0.01
				h-3.408v-1.736h2.988c0,0,1.072,0.127,1.072-0.598c0-0.68-1.621-0.627-1.621-0.627s-2.643,0.23-2.643-2.247
				c0-2.465,2.385-2.324,2.385-2.324h3.68v1.762h-2.963c0,0-1.021-0.205-1.021,0.537c0,0.623,1.391,0.535,1.391,0.535
				s2.924-0.215,2.924,2.057C147.695,29.28,145.811,29.495,145.145,29.495z"/>
			<polygon fill="#FFFFFF" points="119.061,28.415 119.061,23.168 116.688,25.785 			"/>
			<path fill="#FFFFFF" d="M130.691,23.689h-1.98v1.43h1.98c0.574,0,1.047-0.318,1.047-0.715S131.266,23.689,130.691,23.689z"/>
			<polygon fill="#FFFFFF" points="108.146,23.715 108.146,24.875 112.078,24.875 112.078,26.588 108.146,26.588 108.146,27.866 
				112.18,27.866 114.068,25.785 112.18,23.715 			"/>
			<path fill="#FFFFFF" d="M122.953,23.676h-1.977v1.43h1.977c0.576,0,1.047-0.318,1.047-0.713
				C124,23.996,123.529,23.676,122.953,23.676z"/>
		</g>
	</g>
	<path fill="#FFFFFF" d="M91.396,30.93c0-1.572,1.264-2.836,2.848-2.836c1.57,0,2.834,1.264,2.834,2.836
		c0,1.57-1.264,2.834-2.834,2.834C92.66,33.764,91.396,32.5,91.396,30.93 M91.818,30.93c0,1.326,1.033,2.412,2.426,2.412
		c1.377,0,2.412-1.086,2.412-2.412c0-1.342-1.02-2.414-2.412-2.414C92.84,28.516,91.818,29.588,91.818,30.93 M94.945,32.233
		c-0.063-0.217-0.076-0.613-0.076-0.705c0-0.191-0.025-0.395-0.383-0.395h-0.779v1.1h-0.459v-2.656h1.238
		c0.42,0,0.895,0.139,0.895,0.74c0,0.332-0.141,0.484-0.293,0.602c0.127,0.063,0.23,0.178,0.24,0.471l0.014,0.461
		c0.014,0.139,0.025,0.166,0.127,0.229v0.154H94.945 M93.707,30.725h0.74c0.244,0,0.459-0.063,0.459-0.383
		c0-0.332-0.229-0.357-0.395-0.357h-0.805V30.725"/>
	<g>
		<path fill="#FFFFFF" stroke="#262262" stroke-miterlimit="10" d="M22.324,17.438c0.107-0.676,0.083-1.256-0.076-1.746
			c-0.161-0.486-0.439-0.873-0.832-1.168c-0.351-0.264-0.767-0.459-1.229-0.582c-0.468-0.123-1.044-0.188-1.713-0.188
			c-1.509,0-3.015,0-4.527,0c-0.313,1.943-0.633,3.891-0.949,5.832c-0.313,1.941-0.63,3.889-0.948,5.83c0.977,0,1.952,0,2.93,0
			c0.209-1.271,0.418-2.543,0.626-3.814c0.506,0,1.021,0,1.535,0c0.411,0,0.798-0.035,1.144-0.102
			c0.34-0.064,0.676-0.164,0.982-0.281c0.308-0.121,0.592-0.268,0.859-0.441c0.262-0.172,0.514-0.361,0.742-0.561
			c0.378-0.332,0.689-0.74,0.943-1.23C22.065,18.494,22.238,17.98,22.324,17.438z M19.305,17.504
			c-0.054,0.359-0.143,0.641-0.243,0.85c-0.104,0.209-0.27,0.408-0.497,0.604c-0.11,0.092-0.262,0.178-0.448,0.25
			c-0.188,0.076-0.362,0.133-0.519,0.158c-0.188,0.031-0.413,0.045-0.657,0.051c-0.246,0.006-0.498,0.01-0.782,0.01
			c-0.067,0-0.141,0-0.201,0c0.189-1.164,0.38-2.33,0.569-3.494c0.133,0,0.273,0,0.414,0c0.428,0,0.775,0.006,1.02,0.025
			c0.252,0.02,0.503,0.088,0.766,0.209c0.199,0.092,0.367,0.252,0.484,0.49S19.356,17.178,19.305,17.504z"/>
		<path fill="#FFFFFF" stroke="#262262" stroke-miterlimit="10" d="M29.851,17.127c-0.611-0.502-1.67-0.758-3.194-0.758
			c-0.606,0-1.233,0.055-1.856,0.16c-0.621,0.107-1.074,0.201-1.359,0.279c-0.11,0.709-0.229,1.414-0.346,2.123
			c0.073,0,0.156,0,0.235,0c0.44-0.184,0.894-0.334,1.339-0.451c0.457-0.119,0.844-0.174,1.166-0.174
			c0.714,0,1.242,0.092,1.568,0.275s0.456,0.523,0.373,1.006c0,0.018-0.004,0.035-0.01,0.049c-0.803,0.053-1.553,0.125-2.261,0.219
			c-0.702,0.092-1.32,0.264-1.858,0.504c-0.523,0.232-0.953,0.553-1.281,0.951c-0.33,0.402-0.544,0.932-0.649,1.584
			c-0.13,0.793,0.025,1.449,0.452,1.975c0.424,0.52,1.031,0.783,1.807,0.783c0.42,0,0.757-0.033,0.99-0.096
			c0.244-0.064,0.501-0.156,0.764-0.275c0.273-0.127,0.492-0.25,0.658-0.373c0.168-0.123,0.364-0.268,0.576-0.426
			c-0.051,0.311-0.102,0.623-0.152,0.934c0.906,0,1.811,0,2.725,0c0.162-0.996,0.323-1.996,0.486-2.99
			c0.161-0.996,0.321-1.996,0.486-2.992C30.679,18.398,30.46,17.631,29.851,17.127z M27.186,23.123
			c-0.239,0.197-0.491,0.352-0.757,0.459c-0.27,0.111-0.525,0.166-0.766,0.166c-0.436,0-0.75-0.078-0.943-0.23
			c-0.196-0.154-0.256-0.439-0.189-0.852c0.043-0.281,0.139-0.506,0.301-0.676c0.161-0.17,0.368-0.299,0.62-0.379
			c0.296-0.1,0.591-0.17,0.883-0.203c0.294-0.035,0.68-0.07,1.149-0.121C27.382,21.898,27.282,22.512,27.186,23.123z"/>
		<path fill="#FFFFFF" stroke="#262262" stroke-miterlimit="10" d="M37.92,16.619c-0.44,0.924-0.884,1.842-1.323,2.764
			c-0.436,0.916-0.869,1.842-1.312,2.76c-0.156-0.918-0.32-1.84-0.475-2.76c-0.153-0.92-0.317-1.84-0.475-2.764
			c-0.965,0-1.926,0-2.884,0c0.307,1.434,0.616,2.865,0.921,4.297c0.303,1.43,0.601,2.865,0.909,4.295
			c-0.631,1.145-1.262,2.29-1.889,3.43c0.979,0,1.962,0,2.942,0c1.06-2.004,2.139-4.006,3.199-6.008
			c1.06-2.002,2.132-4.008,3.199-6.014C39.797,16.619,38.856,16.619,37.92,16.619z"/>
		<path fill="#FFFFFF" stroke="#262262" stroke-miterlimit="10" d="M50.288,17.438c0.107-0.676,0.086-1.256-0.078-1.746
			c-0.162-0.486-0.444-0.873-0.832-1.168c-0.347-0.268-0.764-0.461-1.228-0.582c-0.474-0.125-1.043-0.188-1.713-0.188
			c-1.507,0-3.014,0-4.526,0c-0.313,1.943-0.633,3.891-0.949,5.832s-0.631,3.889-0.95,5.83c0.979,0,1.956,0,2.931,0
			c0.209-1.271,0.415-2.543,0.621-3.814c0.514,0,1.02,0,1.534,0c0.411,0,0.8-0.035,1.144-0.102c0.352-0.066,0.68-0.166,0.984-0.281
			c0.31-0.123,0.598-0.268,0.863-0.441c0.262-0.172,0.51-0.361,0.737-0.561c0.381-0.336,0.691-0.74,0.942-1.23
			C50.024,18.494,50.202,17.98,50.288,17.438z M47.269,17.504c-0.057,0.359-0.139,0.639-0.246,0.85
			c-0.104,0.209-0.267,0.408-0.495,0.604c-0.111,0.092-0.263,0.178-0.445,0.25c-0.192,0.076-0.366,0.131-0.527,0.158
			c-0.183,0.027-0.408,0.045-0.653,0.051c-0.244,0.006-0.502,0.01-0.781,0.01c-0.073,0-0.139,0-0.199,0
			c0.189-1.164,0.379-2.33,0.568-3.494c0.134,0,0.273,0,0.412,0c0.432,0,0.775,0.006,1.023,0.025
			c0.249,0.02,0.502,0.088,0.765,0.209c0.199,0.092,0.364,0.254,0.478,0.49C47.282,16.895,47.323,17.178,47.269,17.504z"/>
		<path fill="#FFFFFF" stroke="#262262" stroke-miterlimit="10" d="M57.813,17.127c-0.617-0.504-1.669-0.758-3.193-0.758
			c-0.61,0-1.234,0.055-1.859,0.16c-0.618,0.107-1.071,0.201-1.355,0.279c-0.117,0.709-0.229,1.414-0.345,2.123
			c0.072,0,0.154,0,0.233,0c0.441-0.184,0.894-0.334,1.34-0.451c0.455-0.119,0.848-0.174,1.166-0.174
			c0.713,0,1.238,0.092,1.563,0.275c0.328,0.186,0.461,0.523,0.379,1.006c0,0.018-0.007,0.035-0.012,0.049
			c-0.802,0.053-1.557,0.125-2.26,0.219c-0.709,0.094-1.327,0.268-1.859,0.504c-0.527,0.234-0.959,0.555-1.281,0.951
			c-0.329,0.404-0.549,0.932-0.655,1.584c-0.128,0.793,0.025,1.449,0.459,1.975c0.427,0.516,1.027,0.783,1.808,0.783
			c0.418,0,0.75-0.033,0.986-0.096c0.241-0.064,0.5-0.152,0.766-0.275c0.268-0.123,0.485-0.25,0.652-0.373
			c0.174-0.127,0.364-0.268,0.583-0.426c-0.051,0.311-0.101,0.623-0.151,0.934c0.904,0,1.809,0,2.725,0
			c0.16-0.996,0.322-1.996,0.483-2.99c0.163-0.996,0.323-1.996,0.487-2.992C58.642,18.398,58.425,17.629,57.813,17.127z
			 M55.149,23.123c-0.239,0.197-0.497,0.352-0.759,0.459c-0.267,0.111-0.526,0.166-0.766,0.166c-0.435,0-0.748-0.078-0.941-0.23
			c-0.196-0.154-0.263-0.439-0.196-0.852c0.045-0.281,0.143-0.51,0.308-0.676c0.164-0.172,0.368-0.299,0.62-0.379
			c0.296-0.1,0.592-0.17,0.88-0.203c0.297-0.035,0.68-0.07,1.151-0.121C55.345,21.898,55.244,22.512,55.149,23.123z"/>
		<path fill="#FFFFFF" stroke="#262262" stroke-miterlimit="10" d="M61.045,13.229c-0.335,2.033-0.665,4.064-0.995,6.094
			c-0.328,2.029-0.656,4.063-0.992,6.094c0.914,0,1.824,0,2.74,0c0.329-2.031,0.662-4.064,0.994-6.094
			c0.331-2.029,0.658-4.061,0.992-6.094C62.868,13.229,61.96,13.229,61.045,13.229z"/>
	</g>
</g>
</svg>
