<?xml version="1.0" encoding="utf-8"?>
<!-- Generator: Adobe Illustrator 16.0.0, SVG Export Plug-In . SVG Version: 6.00 Build 0)  -->
<!DOCTYPE svg PUBLIC "-//W3C//DTD SVG 1.1//EN" "http://www.w3.org/Graphics/SVG/1.1/DTD/svg11.dtd">
<svg version="1.1" id="Layer_1" xmlns="http://www.w3.org/2000/svg" xmlns:xlink="http://www.w3.org/1999/xlink" x="0px" y="0px"
	 width="403px" height="60px" viewBox="-174 45 403 60" enable-background="new -174 45 403 60" xml:space="preserve">
<g>
	<g>
		<g>
			<path fill="#FFFFFF" stroke="#FFFFFF" stroke-miterlimit="10" d="M224.059,45h-87.673c-2.733,0-4.945,2.21-4.945,4.925v39.836
				h97.559V49.925C228.999,47.21,226.787,45,224.059,45z"/>
			<path fill="#FFFFFF" stroke="#FFFFFF" stroke-miterlimit="10" d="M131.44,100.073c0,2.723,2.212,4.927,4.945,4.927h87.673
				c2.729,0,4.94-2.204,4.94-4.927v-4.601H131.44V100.073z"/>
		</g>
	</g>
	<g>
		<g>
			<path fill="#262261" stroke="#262261" stroke-miterlimit="10" d="M20.431,45h-87.669c-2.733,0-4.948,2.21-4.948,4.925v39.836
				h97.559V49.925C25.373,47.21,23.161,45,20.431,45z"/>
			<path fill="#262261" stroke="#262261" stroke-miterlimit="10" d="M-72.186,100.073c0,2.723,2.215,4.927,4.948,4.927h87.669
				c2.729,0,4.942-2.204,4.942-4.927v-4.601h-97.559V100.073z"/>
		</g>
	</g>
	<g>
		<g>
			<linearGradient id="SVGID_1_" gradientUnits="userSpaceOnUse" x1="-174" y1="67.3804" x2="-76.4419" y2="67.3804">
				<stop  offset="0" style="stop-color:#00B7E8"/>
				<stop  offset="0.427" style="stop-color:#009ACA"/>
				<stop  offset="0.5191" style="stop-color:#008FBC"/>
				<stop  offset="0.8385" style="stop-color:#006D8F"/>
				<stop  offset="1" style="stop-color:#00607E"/>
			</linearGradient>
			<path fill="url(#SVGID_1_)" d="M-81.383,45h-87.669c-2.733,0-4.948,2.21-4.948,4.925v39.836h97.558V49.925
				C-76.442,47.21-78.653,45-81.383,45z"/>
			<linearGradient id="SVGID_2_" gradientUnits="userSpaceOnUse" x1="-174" y1="100.2363" x2="-76.4419" y2="100.2363">
				<stop  offset="0" style="stop-color:#00B7E8"/>
				<stop  offset="0.427" style="stop-color:#009ACA"/>
				<stop  offset="0.5191" style="stop-color:#008FBC"/>
				<stop  offset="0.8385" style="stop-color:#006D8F"/>
				<stop  offset="1" style="stop-color:#00607E"/>
			</linearGradient>
			<path fill="url(#SVGID_2_)" d="M-174,100.073c0,2.723,2.215,4.927,4.948,4.927h87.669c2.729,0,4.941-2.204,4.941-4.927v-4.601
				H-174V100.073z"/>
		</g>
	</g>
	<path fill="#0066B2" d="M37.023,49.576c0-2.522,2.056-4.576,4.599-4.576h-7.049c-2.73,0-4.945,2.21-4.945,4.925v39.836h7.396
		v-3.174V49.576z"/>
	<path fill="#FFFFFF" stroke="#FFFFFF" stroke-miterlimit="10" d="M127.185,49.925c0-2.715-2.212-4.925-4.94-4.925H41.622
		c-2.543,0-4.599,2.054-4.599,4.576v37.011v3.174h90.161V49.925z"/>
	<path fill="#0066B2" d="M37.023,95.473h-7.396v4.601c0,2.723,2.215,4.927,4.945,4.927h87.671c2.729,0,4.94-2.204,4.94-4.927v-1.866
		v-2.734H37.023z"/>
	<g>
		<path fill="#FFFFFF" d="M94.828,102.958v-6.342h2.207c0.508,0,0.955,0.083,1.341,0.25s0.707,0.393,0.965,0.679
			c0.257,0.286,0.449,0.621,0.578,1.005s0.193,0.794,0.193,1.229c0,0.482-0.072,0.918-0.216,1.309c-0.144,0.39-0.35,0.724-0.619,1
			c-0.269,0.277-0.594,0.491-0.973,0.644c-0.38,0.151-0.804,0.228-1.27,0.228H94.828z M99.296,99.778
			c0-0.357-0.05-0.687-0.148-0.987s-0.245-0.559-0.439-0.772c-0.194-0.215-0.433-0.383-0.713-0.505
			c-0.281-0.122-0.602-0.183-0.96-0.183h-1.399v4.912h1.399c0.364,0,0.688-0.063,0.973-0.188s0.521-0.298,0.709-0.518
			c0.188-0.221,0.332-0.481,0.431-0.782C99.246,100.456,99.296,100.13,99.296,99.778z"/>
		<path fill="#FFFFFF" d="M105.594,102.243v0.715h-4.324v-6.342h4.243v0.715h-3.436v2.054h2.987v0.67h-2.987v2.188H105.594z"/>
		<path fill="#FFFFFF" d="M111.63,101.323c0,0.244-0.049,0.468-0.147,0.67c-0.099,0.203-0.233,0.375-0.404,0.519
			c-0.17,0.143-0.367,0.253-0.592,0.33c-0.224,0.077-0.465,0.116-0.722,0.116h-3.023v-6.342h3.167c0.221,0,0.421,0.048,0.601,0.143
			c0.18,0.096,0.332,0.219,0.458,0.371c0.125,0.151,0.223,0.324,0.291,0.518c0.069,0.194,0.104,0.389,0.104,0.585
			c0,0.316-0.079,0.607-0.238,0.876c-0.158,0.268-0.384,0.468-0.677,0.599c0.364,0.106,0.653,0.305,0.865,0.594
			C111.524,100.59,111.63,100.931,111.63,101.323z M107.549,97.313v2.117h2.027c0.144,0,0.274-0.028,0.395-0.085
			c0.119-0.057,0.223-0.132,0.31-0.228s0.155-0.207,0.206-0.335s0.076-0.264,0.076-0.406c0-0.149-0.023-0.289-0.071-0.42
			s-0.112-0.244-0.193-0.34c-0.08-0.095-0.179-0.169-0.296-0.223c-0.116-0.054-0.24-0.081-0.372-0.081H107.549z M110.813,101.181
			c0-0.144-0.025-0.281-0.076-0.415c-0.051-0.135-0.119-0.252-0.206-0.354c-0.087-0.101-0.189-0.182-0.31-0.241
			c-0.119-0.06-0.251-0.089-0.395-0.089h-2.278v2.18h2.216c0.149,0,0.287-0.03,0.412-0.09c0.126-0.06,0.236-0.139,0.332-0.236
			c0.096-0.099,0.171-0.213,0.225-0.344S110.813,101.323,110.813,101.181z"/>
		<path fill="#FFFFFF" d="M117.111,97.331h-2.197v5.627h-0.808v-5.627h-2.198v-0.715h5.203V97.331z"/>
	</g>
	<g>
		<g>
			<polygon fill="#0066B2" points="79.722,77.151 74.615,77.151 77.805,57.62 82.912,57.62 			"/>
			<path fill="#0066B2" d="M70.318,57.62l-4.87,13.433l-0.575-2.893v0.002l-1.72-8.784c0,0-0.206-1.758-2.423-1.758h-8.047
				l-0.096,0.33c0,0,2.462,0.51,5.342,2.234l4.437,16.967h5.324l8.123-19.531H70.318z"/>
			<path fill="#0066B2" d="M110.49,77.151h4.688l-4.088-19.531h-4.106c-1.896,0-2.357,1.457-2.357,1.457l-7.615,18.075h5.32
				l1.066-2.898h6.493L110.49,77.151z M104.87,70.243l2.683-7.311l1.509,7.311H104.87z"/>
			<path fill="#0066B2" d="M97.411,62.315l0.727-4.193c0,0-2.249-0.854-4.593-0.854c-2.535,0-8.556,1.105-8.556,6.466
				c0,5.047,7.066,5.113,7.066,7.762s-6.338,2.176-8.428,0.502l-0.759,4.386c0,0,2.278,1.105,5.765,1.105
				c3.485,0,8.742-1.798,8.742-6.689c0-5.076-7.126-5.551-7.126-7.759C90.25,60.833,95.226,61.118,97.411,62.315z"/>
		</g>
		<path fill="#F9A533" d="M64.873,68.162l-1.72-8.784c0,0-0.206-1.758-2.423-1.758h-8.047l-0.096,0.33c0,0,3.871,0.799,7.581,3.791
			C63.714,64.599,64.873,68.162,64.873,68.162z"/>
	</g>
	<g>
		<g>
			<polygon fill="#0066B2" points="175.008,77.937 169.899,77.937 173.093,58.403 178.2,58.403 			"/>
			<path fill="#0066B2" d="M165.603,58.403l-4.867,13.432l-0.578-2.89h0.002l-1.719-8.784c0,0-0.206-1.758-2.42-1.758h-8.051
				l-0.096,0.33c0,0,2.462,0.51,5.343,2.234l4.438,16.97h5.32l8.129-19.533H165.603z"/>
			<path fill="#0066B2" d="M205.777,77.937h4.689l-4.089-19.533h-4.105c-1.896,0-2.358,1.456-2.358,1.456l-7.615,18.077h5.32
				l1.065-2.903h6.492L205.777,77.937z M200.155,71.026l2.686-7.311l1.511,7.311H200.155z"/>
			<path fill="#0066B2" d="M192.695,63.099l0.73-4.193c0,0-2.249-0.853-4.594-0.853c-2.535,0-8.555,1.104-8.555,6.466
				c0,5.046,7.066,5.112,7.066,7.761s-6.339,2.176-8.428,0.502l-0.761,4.386c0,0,2.281,1.104,5.765,1.104
				c3.486,0,8.746-1.797,8.746-6.688c0-5.078-7.131-5.552-7.131-7.759C185.535,61.616,190.51,61.901,192.695,63.099z"/>
		</g>
		<path fill="#F9A533" d="M160.159,68.945l-1.719-8.784c0,0-0.206-1.758-2.42-1.758h-8.051l-0.096,0.33c0,0,3.871,0.799,7.579,3.79
			C159,65.382,160.159,68.945,160.159,68.945z"/>
	</g>
	<g>
		<path fill-rule="evenodd" clip-rule="evenodd" fill="#FCB131" d="M-23.916,82.1c3.539,3.244,8.291,5.216,13.458,5.216
			c11.095,0,20.076-9.011,20.076-20.094c0-11.118-8.98-20.131-20.076-20.131c-5.167,0-9.919,1.968-13.458,5.215
			c-4.056,3.693-6.621,9.01-6.621,14.916C-30.537,73.124-27.972,78.441-23.916,82.1L-23.916,82.1z"/>
		<path fill-rule="evenodd" clip-rule="evenodd" fill="#FCB131" d="M6.947,78.406c0-0.346,0.28-0.621,0.625-0.621
			c0.382,0,0.658,0.275,0.658,0.621c0,0.379-0.276,0.657-0.658,0.657C7.227,79.063,6.947,78.785,6.947,78.406L6.947,78.406z
			 M7.573,78.924c0.276,0,0.52-0.241,0.52-0.518c0-0.278-0.243-0.484-0.52-0.484c-0.243,0-0.485,0.206-0.485,0.484
			C7.087,78.683,7.33,78.924,7.573,78.924L7.573,78.924z M7.503,78.717h-0.14v-0.589h0.243c0.037,0,0.105,0,0.14,0.037
			c0.068,0.035,0.068,0.071,0.068,0.14c0,0.065-0.035,0.137-0.103,0.137l0.138,0.275H7.674l-0.068-0.241H7.503V78.717V78.37h0.069
			c0.034,0,0.07,0,0.07,0c0.031,0,0.031-0.034,0.031-0.065c0-0.037,0-0.037-0.031-0.068c0,0-0.037,0-0.07,0H7.503v0.134V78.717
			L7.503,78.717z"/>
		<path fill-rule="evenodd" clip-rule="evenodd" fill="#ED1C2E" d="M-17.43,65.079c-0.07-0.724-0.208-1.415-0.346-2.142h-12.276
			c0.14-0.724,0.346-1.417,0.556-2.105h11.129c-0.243-0.724-0.52-1.452-0.831-2.139h-9.434c0.347-0.727,0.73-1.452,1.144-2.144
			h7.109c-0.451-0.722-0.97-1.449-1.527-2.104h-4.057c0.625-0.759,1.318-1.483,2.045-2.14c-3.571-3.212-8.284-5.215-13.488-5.215
			c-11.061,0-20.078,9.013-20.078,20.131c0,11.083,9.018,20.094,20.078,20.094c5.204,0,9.917-1.972,13.488-5.216l0,0l0,0
			c0.73-0.656,1.39-1.346,2.012-2.104h-4.057c-0.553-0.693-1.039-1.381-1.525-2.14h7.109c0.45-0.692,0.833-1.38,1.18-2.145h-9.434
			c-0.312-0.687-0.623-1.38-0.865-2.104h11.129c0.245-0.69,0.416-1.415,0.59-2.139c0.138-0.692,0.276-1.417,0.346-2.142
			c0.071-0.69,0.105-1.38,0.105-2.104C-17.324,66.494-17.359,65.77-17.43,65.079L-17.43,65.079z"/>
		<path fill-rule="evenodd" clip-rule="evenodd" fill="#FFFFFF" d="M6.947,71.879c0-0.377,0.28-0.656,0.625-0.656
			c0.382,0,0.658,0.278,0.658,0.656c0,0.347-0.276,0.657-0.658,0.657C7.227,72.536,6.947,72.226,6.947,71.879L6.947,71.879z
			 M7.573,72.365c0.276,0,0.52-0.208,0.52-0.486c0-0.275-0.243-0.48-0.52-0.48c-0.243,0-0.485,0.205-0.485,0.48
			C7.087,72.158,7.33,72.365,7.573,72.365L7.573,72.365z M7.503,72.158h-0.14v-0.554h0.243c0.037,0,0.105,0,0.14,0
			c0.068,0.037,0.068,0.105,0.068,0.173c0,0.034-0.035,0.102-0.103,0.139l0.138,0.241H7.674L7.606,71.95H7.503V72.158v-0.312h0.069
			c0.034,0,0.07,0,0.07-0.034c0.031,0,0.031-0.034,0.031-0.068c0,0,0-0.034-0.031-0.034c0-0.037-0.037,0-0.07,0H7.503v0.137V72.158
			L7.503,72.158z"/>
		<path fill-rule="evenodd" clip-rule="evenodd" fill="#003473" d="M-30.745,73.019c-0.66,0.173-1.144,0.278-1.63,0.278
			c-1.041,0-1.666-0.656-1.666-1.83c0-0.244,0.035-0.485,0.071-0.761l0.137-0.795l0.105-0.656l0.936-5.662h2.08l-0.242,1.242h1.317
			l-0.313,2.073h-1.315l-0.556,3.383c-0.035,0.173-0.035,0.275-0.035,0.344c0,0.449,0.208,0.625,0.728,0.625
			c0.243,0,0.451-0.037,0.659-0.071L-30.745,73.019L-30.745,73.019z"/>
		<path fill-rule="evenodd" clip-rule="evenodd" fill="#003473" d="M-24.018,72.953c-0.761,0.208-1.455,0.31-2.219,0.31
			c-2.357,0-3.711-1.244-3.711-3.698c0-2.864,1.597-4.932,3.817-4.932c1.769,0,2.913,1.17,2.913,3.002
			c0,0.62-0.071,1.207-0.243,2.034h-4.335c-0.035,0.139-0.035,0.21-0.035,0.278c0,0.966,0.659,1.452,1.908,1.452
			c0.796,0,1.489-0.176,2.254-0.517L-24.018,72.953L-24.018,72.953z M-25.299,68.014c0-0.174,0-0.311,0-0.416
			c0-0.69-0.385-1.07-1.043-1.07c-0.694,0-1.179,0.519-1.384,1.486H-25.299L-25.299,68.014z"/>
		<polygon fill-rule="evenodd" clip-rule="evenodd" fill="#003473" points="-47.391,73.124 -49.54,73.124 -48.291,65.287 
			-51.1,73.124 -52.593,73.124 -52.764,65.321 -54.082,73.124 -56.198,73.124 -54.498,62.938 -51.343,62.938 -51.274,69.221 
			-49.157,62.938 -45.691,62.938 -47.391,73.124 		"/>
		<path fill-rule="evenodd" clip-rule="evenodd" fill="#003473" d="M-42.153,69.428c-0.208-0.033-0.277-0.033-0.417-0.033
			c-1.249,0-1.872,0.485-1.872,1.241c0,0.522,0.311,0.866,0.796,0.866C-42.604,71.502-42.188,70.636-42.153,69.428L-42.153,69.428z
			 M-40.419,73.124h-1.875l0.035-0.863c-0.485,0.656-1.144,1.002-2.286,1.002c-1.042,0-1.943-0.934-1.943-2.28
			c0-0.378,0.068-0.725,0.171-1.071c0.349-1.276,1.632-2.071,3.609-2.106c0.243,0,0.622,0,0.97,0.035
			c0.068-0.278,0.068-0.378,0.068-0.552c0-0.553-0.451-0.724-1.456-0.724c-0.624,0-1.317,0.103-1.803,0.276l-0.314,0.068
			l-0.137,0.034l0.311-1.864c1.005-0.31,1.735-0.446,2.533-0.446c1.869,0,2.877,0.858,2.877,2.448c0,0.413,0.034,0.724-0.104,1.622
			l-0.488,2.968l-0.068,0.52l-0.035,0.415l-0.034,0.276L-40.419,73.124L-40.419,73.124z"/>
		<path fill-rule="evenodd" clip-rule="evenodd" fill="#003473" d="M-13.545,64.906c0.625,0,1.179,0.173,1.943,0.554l0.379-2.21
			c-0.208-0.105-0.277-0.105-0.554-0.208l-0.867-0.241c-0.277-0.068-0.624-0.105-1.008-0.105c-1.073,0-1.697,0.037-2.356,0.415
			c-0.348,0.241-0.796,0.553-1.284,1.105l-0.277-0.069l-2.22,1.551l0.103-0.863h-2.288l-1.352,8.288h2.185l0.796-4.454
			c0,0,0.313-0.622,0.451-0.829c0.417-0.517,0.765-0.517,1.215-0.517c0.069,0,0.14,0,0.175,0c-0.069,0.482-0.106,1.002-0.106,1.588
			c0,2.693,1.526,4.386,3.885,4.386c0.588,0,1.107-0.071,1.906-0.278l0.383-2.346c-0.693,0.38-1.318,0.551-1.84,0.551
			c-1.281,0-2.043-0.966-2.043-2.485C-16.318,66.494-15.174,64.906-13.545,64.906L-13.545,64.906z"/>
		<path fill-rule="evenodd" clip-rule="evenodd" fill="#003473" d="M4.868,62.938l-0.485,2.9c-0.519-0.793-1.144-1.173-1.977-1.173
			c-1.146,0-2.22,0.656-2.879,1.9v-0.036l-1.386-0.83l0.139-0.863h-2.323l-1.32,8.288h2.15l0.729-4.454c0,0,0.556-0.622,0.693-0.829
			c0.349-0.415,0.693-0.483,0.973-0.517c-0.243,0.691-0.382,1.52-0.382,2.452c0,2.071,1.076,3.451,2.67,3.451
			c0.796,0,1.421-0.273,2.012-0.932l-0.105,0.829h2.048l1.664-10.186H4.868L4.868,62.938z M2.197,71.158
			c-0.728,0-1.11-0.554-1.11-1.625c0-1.624,0.694-2.798,1.7-2.798c0.762,0,1.144,0.588,1.144,1.625
			C3.932,70.016,3.239,71.158,2.197,71.158L2.197,71.158z"/>
		<path fill-rule="evenodd" clip-rule="evenodd" fill="#003473" d="M-7.824,69.428c-0.208-0.033-0.275-0.033-0.415-0.033
			c-1.25,0-1.872,0.485-1.872,1.241c0,0.522,0.312,0.866,0.797,0.866C-8.275,71.502-7.859,70.636-7.824,69.428L-7.824,69.428z
			 M-6.09,73.124h-1.906l0.069-0.863c-0.486,0.656-1.145,1.002-2.289,1.002c-1.075,0-2.011-0.897-2.011-2.28
			c0-1.969,1.489-3.177,3.849-3.177c0.243,0,0.625,0,0.936,0.035c0.068-0.278,0.105-0.378,0.105-0.552
			c0-0.553-0.451-0.724-1.492-0.724c-0.59,0-1.318,0.103-1.804,0.276l-0.279,0.068l-0.137,0.034l0.311-1.864
			c1.007-0.31,1.734-0.446,2.533-0.446c1.872,0,2.842,0.858,2.842,2.448c0,0.413,0.068,0.724-0.103,1.622l-0.451,2.968l-0.068,0.52
			l-0.07,0.415l-0.035,0.276V73.124L-6.09,73.124z"/>
		<path fill-rule="evenodd" clip-rule="evenodd" fill="#003473" d="M-35.877,66.599c0.416,0,1.004,0.034,1.629,0.136l0.313-1.932
			c-0.625-0.07-1.458-0.17-1.942-0.17c-2.428,0-3.224,1.309-3.224,2.829c0,1,0.45,1.724,1.629,2.278
			c0.867,0.415,1.004,0.482,1.004,0.863c0,0.517-0.448,0.827-1.283,0.827c-0.657,0-1.282-0.103-1.976-0.346l-0.242,1.9l0.034,0.034
			l0.417,0.071c0.138,0.034,0.312,0.071,0.554,0.103c0.52,0.034,0.973,0.071,1.25,0.071c2.428,0,3.432-0.934,3.432-2.764
			c0-1.139-0.553-1.83-1.629-2.313c-0.936-0.417-1.041-0.483-1.041-0.863S-36.537,66.599-35.877,66.599L-35.877,66.599z"/>
		<path fill-rule="evenodd" clip-rule="evenodd" fill="#FFFFFF" d="M-10.633,62.591l-0.381,2.212
			c-0.762-0.38-1.318-0.553-1.94-0.553c-1.632,0-2.776,1.588-2.776,3.834c0,1.552,0.765,2.483,2.046,2.483
			c0.52,0,1.144-0.17,1.837-0.517l-0.38,2.315c-0.799,0.205-1.318,0.31-1.908,0.31c-2.356,0-3.815-1.692-3.815-4.419
			c0-3.622,2.012-6.179,4.891-6.179c0.382,0,0.727,0.032,1.007,0.102l0.864,0.207C-10.912,62.489-10.841,62.525-10.633,62.591
			L-10.633,62.591z"/>
		<path fill-rule="evenodd" clip-rule="evenodd" fill="#FFFFFF" d="M-17.638,64.111c-0.069,0-0.138,0-0.207,0
			c-0.728,0-1.146,0.346-1.805,1.349l0.208-1.281h-1.974l-1.353,8.288h2.183c0.798-5.076,1.003-5.939,2.047-5.939
			c0.069,0,0.069,0,0.138,0c0.208-1,0.484-1.725,0.833-2.381L-17.638,64.111L-17.638,64.111z"/>
		<path fill-rule="evenodd" clip-rule="evenodd" fill="#FFFFFF" d="M-30.192,72.365c-0.587,0.205-1.072,0.276-1.558,0.276
			c-1.109,0-1.734-0.622-1.734-1.83c0-0.207,0.035-0.485,0.068-0.724l0.14-0.832l0.103-0.654l0.938-5.664h2.148l-0.243,1.242h1.109
			l-0.276,2.039h-1.11l-0.59,3.451c-0.035,0.139-0.035,0.242-0.035,0.347c0,0.415,0.208,0.588,0.728,0.588
			c0.243,0,0.451,0,0.591-0.068L-30.192,72.365L-30.192,72.365z"/>
		<path fill-rule="evenodd" clip-rule="evenodd" fill="#FFFFFF" d="M-38.547,66.806c0,1.034,0.485,1.759,1.632,2.313
			c0.898,0.415,1.039,0.551,1.039,0.897c0,0.52-0.383,0.759-1.25,0.759c-0.657,0-1.247-0.103-1.94-0.31l-0.313,1.9l0.105,0.031
			l0.383,0.071c0.136,0.034,0.312,0.069,0.588,0.069c0.484,0.07,0.901,0.07,1.178,0.07c2.291,0,3.364-0.863,3.364-2.763
			c0-1.14-0.451-1.796-1.524-2.313c-0.936-0.417-1.042-0.517-1.042-0.897c0-0.449,0.382-0.656,1.076-0.656
			c0.417,0,1.004,0.034,1.561,0.105l0.311-1.903c-0.554-0.103-1.421-0.171-1.906-0.171C-37.715,64.008-38.581,65.287-38.547,66.806
			L-38.547,66.806z"/>
		<path fill-rule="evenodd" clip-rule="evenodd" fill="#FFFFFF" d="M5.978,72.467H3.932l0.103-0.795
			c-0.588,0.623-1.212,0.898-2.009,0.898c-1.597,0-2.638-1.346-2.638-3.417c0-2.761,1.632-5.11,3.541-5.11
			c0.865,0,1.489,0.381,2.08,1.139l0.484-2.9h2.151L5.978,72.467L5.978,72.467z M2.788,70.536c1.005,0,1.698-1.175,1.698-2.797
			c0-1.071-0.379-1.625-1.142-1.625c-0.973,0-1.7,1.139-1.7,2.761C1.644,69.979,2.025,70.536,2.788,70.536L2.788,70.536z"/>
		<path fill-rule="evenodd" clip-rule="evenodd" fill="#FFFFFF" d="M-23.532,72.294c-0.763,0.242-1.456,0.347-2.254,0.347
			c-2.425,0-3.675-1.279-3.675-3.73c0-2.829,1.596-4.937,3.778-4.937c1.805,0,2.95,1.173,2.95,3.005c0,0.62-0.071,1.208-0.277,2.071
			h-4.302c-0.034,0.103-0.034,0.17-0.034,0.241c0,0.966,0.659,1.449,1.909,1.449c0.796,0,1.489-0.137,2.253-0.518L-23.532,72.294
			L-23.532,72.294z M-24.746,67.357c0-0.173,0-0.31,0-0.415c0-0.69-0.382-1.068-1.041-1.068c-0.693,0-1.178,0.518-1.386,1.483
			H-24.746L-24.746,67.357z"/>
		<polygon fill-rule="evenodd" clip-rule="evenodd" fill="#FFFFFF" points="-46.835,72.467 -48.986,72.467 -47.737,64.633 
			-50.544,72.467 -52.036,72.467 -52.209,64.699 -53.529,72.467 -55.539,72.467 -53.839,62.281 -50.719,62.281 -50.616,68.602 
			-48.535,62.281 -45.135,62.281 -46.835,72.467 		"/>
		<path fill-rule="evenodd" clip-rule="evenodd" fill="#FFFFFF" d="M-41.46,68.775c-0.208,0-0.311-0.037-0.485-0.037
			c-1.213,0-1.837,0.448-1.837,1.278c0,0.52,0.277,0.829,0.762,0.829C-42.12,70.845-41.495,70.016-41.46,68.775L-41.46,68.775z
			 M-39.866,72.467h-1.803l0.035-0.863c-0.554,0.69-1.285,1.002-2.289,1.002c-1.179,0-1.977-0.897-1.977-2.244
			c0-2.037,1.387-3.212,3.814-3.212c0.242,0,0.556,0.034,0.901,0.071c0.069-0.278,0.069-0.381,0.069-0.52
			c0-0.551-0.38-0.759-1.384-0.759c-0.625,0-1.32,0.069-1.806,0.208l-0.311,0.102l-0.208,0.034l0.311-1.863
			c1.075-0.312,1.806-0.415,2.601-0.415c1.874,0,2.879,0.827,2.879,2.417c0,0.415-0.034,0.725-0.173,1.659l-0.486,2.932l-0.068,0.52
			l-0.035,0.414l-0.037,0.31L-39.866,72.467L-39.866,72.467z"/>
		<path fill-rule="evenodd" clip-rule="evenodd" fill="#FFFFFF" d="M-7.129,68.775c-0.246,0-0.348-0.037-0.487-0.037
			c-1.247,0-1.873,0.448-1.873,1.278c0,0.52,0.311,0.829,0.797,0.829C-7.824,70.845-7.166,70.016-7.129,68.775L-7.129,68.775z
			 M-5.534,72.467h-1.804l0.032-0.863c-0.554,0.69-1.281,1.002-2.289,1.002c-1.178,0-1.977-0.897-1.977-2.244
			c0-2.037,1.389-3.212,3.817-3.212c0.24,0,0.554,0.034,0.867,0.071c0.068-0.278,0.103-0.381,0.103-0.52
			c0-0.551-0.383-0.759-1.387-0.759c-0.624,0-1.352,0.069-1.837,0.208l-0.279,0.102l-0.208,0.034l0.313-1.863
			c1.076-0.312,1.803-0.415,2.599-0.415c1.874,0,2.845,0.827,2.845,2.417c0,0.415,0,0.725-0.172,1.659l-0.453,2.932l-0.068,0.52
			l-0.071,0.414l-0.031,0.31V72.467L-5.534,72.467z"/>
		<path fill-rule="evenodd" clip-rule="evenodd" fill="#FFFFFF" d="M0.291,64.111c-0.068,0-0.14,0-0.208,0
			c-0.728,0-1.144,0.346-1.803,1.349l0.208-1.281h-1.977l-1.318,8.288h2.148c0.799-5.076,1.007-5.939,2.046-5.939
			c0.071,0,0.071,0,0.14,0c0.208-1,0.485-1.725,0.83-2.381L0.291,64.111L0.291,64.111z"/>
	</g>
	<g>
		<g>
			<polygon fill="#FFFFFF" points="-99.426,59.089 -98.274,61.894 -100.612,61.894 			"/>
			<path fill="#FFFFFF" d="M-120.166,59.005h2.484c0.72,0,1.313,0.4,1.313,0.893c0,0.496-0.594,0.893-1.313,0.893h-2.484V59.005z"/>
			<polygon fill="#FFFFFF" points="-150.845,59.089 -152.014,61.894 -149.676,61.894 			"/>
			<path fill="#FFFFFF" d="M-136.885,67.848c0,0.042,0,0.2,0,0.2h5.544h0.448h6.516h2.308h3.652c0,0,0-2.526,0-3.268
				c0.143,0,0.338,0,0.39,0c-0.002,0.237-0.01,1.495-0.01,1.495v1.773h5.301v0.032h4.197v-0.841c0.723,0.453,1.456,0.707,2.019,0.79
				l0.126,0.019h5.074c0,0,0.647-1.536,0.831-1.975c0.801,0,1.237,0,2.031,0c0.193,0.446,0.85,1.975,0.85,1.975h7.66
				c0,0,0-1.556,0-1.695c0.118,0.195,1.027,1.695,1.027,1.695h6.097V55.084h-5.975c0,0,0,1.356,0,1.614
				c-0.098-0.161-0.979-1.614-0.979-1.614h-6.178c0,0,0,1.149,0,1.517c-0.018-0.04-0.64-1.517-0.64-1.517h-5.728l-0.002,0.009
				c-0.125-0.005-3.332-0.09-3.332-0.09c-1.004,0.044-2.003,0.322-2.881,0.863v-0.782h-1.778h-4.197v0.363
				c-0.997-0.413-1.959-0.391-2.327-0.363h-5.228h-1.778h-0.53h-6.516h-1.778h-0.449h-4.5c0,0-1.002,2.231-1.478,3.29
				c-0.48-1.063-1.487-3.29-1.487-3.29h-6.725c0,0,0,1.395,0,1.631c-0.026-0.066-0.688-1.631-0.688-1.631h-5.742l-2.646,6.251v4.637
				l3.859-9.118h3.381l3.649,8.657v-8.657h3.795l2.644,5.851l2.625-5.851h3.795v9.42h-2.436v-6.503l-3.011,6.503h-1.969
				l-3.026-6.471v6.471h-2.097h-0.322h-2.322l-0.83-1.976h-4.39l-0.848,1.976h-2.499v1.773h3.641c0,0,0.657-1.529,0.85-1.975
				c0.797,0,1.23,0,2.029,0c0.184,0.439,0.831,1.975,0.831,1.975h7.704c0,0,0-0.187,0-0.242c0.04,0.089,0.111,0.242,0.111,0.242
				h4.244C-136.978,68.047-136.912,67.909-136.885,67.848z M-105.672,56.773l2.961,0.081v2.12l-2.432,0.031c0,0-1.585,0-1.779,2.057
				c-0.024,0.236-0.034,0.453-0.032,0.656c0.007,3.183,2.775,2.195,2.866,2.168l2.979-7.032h3.362l3.604,8.544v-8.544h3.395
				l3.763,6.2v-6.2h2.417v9.42h-3.314l-3.813-6.293v6.293h-2.065h-0.384H-96.4l-0.85-1.976h-4.387l-0.833,1.976h-2.21h-0.399h-1.154
				c0,0-3.234-0.461-3.234-4.447C-109.467,56.599-105.8,56.806-105.672,56.773z M-112.701,56.854h2.416v9.454h-2.416V56.854z
				 M-122.566,56.854h5.831c0,0,3.04-0.366,3.04,2.759c0,1.626-1.345,2.198-1.345,2.198s1.169,0.544,1.169,2.137v2.327h-2.355
				v-1.832c0,0-0.095-1.436-1.599-1.436h-2.34v3.268h-2.4V56.854z M-131.31,56.854h7.497v2.197h-5.079v1.454h4.949v2.132h-4.949
				v1.598h5.079v2.039h-7.497V56.854z"/>
		</g>
		<g>
			<path fill="none" d="M-83.255,76.373v3.298c0.263-0.466,0.432-1.074,0.432-1.884C-82.824,77.183-82.992,76.727-83.255,76.373z"/>
			<rect x="-83.255" y="71.679" fill="none" width="0.003" height="2.201"/>
			<path fill="#FFFFFF" d="M-88.235,74.551c0,0.778,1.746,0.668,1.746,0.668s2.269-0.161,3.233,1.154V73.88h-3.698
				C-86.954,73.88-88.235,73.624-88.235,74.551z"/>
			<path fill="#FFFFFF" d="M-87.851,71.679h4.595v-1.77l-4.524,0.002c-0.147-0.008-1.127-0.034-2.183,0.397v-0.399l-6.286,0.002
				c-0.15-0.008-1.11-0.034-2.154,0.385v-0.371h-1.781h-9.269v0.364c-0.995-0.407-1.956-0.393-2.326-0.364h-7.541v0.295
				c-0.943-0.354-1.823-0.351-2.158-0.327h-5.767l-1.843,0.015h-0.776c0,0-1.259,1.356-1.984,2.139
				c-0.722-0.788-1.978-2.154-1.978-2.154h-11.305v12.981h11.498c0,0,1.154-1.256,1.773-1.934c0.615,0.676,1.761,1.934,1.761,1.934
				h7.036c0,0,0-2.419,0-3.029c0.213,0,0.575,0,0.575,0c1.066,0,2.188-0.102,3.167-0.498v3.543h5.961c0,0,0-2.527,0-3.269
				c0.145,0,0.34,0,0.391,0c-0.002,0.235-0.01,1.494-0.01,1.494v1.774h5.897v-0.016h8.677v-0.02l3.586-0.002
				c0.143,0.008,0.29,0.018,0.29,0.018c0.705,0,1.438-0.144,2.126-0.425v0.412l6.053-0.005c0.143,0.008,0.292,0.018,0.292,0.018
				c0.941,0,1.94-0.242,2.799-0.765v-2.436c-0.72,1.278-2.153,1.426-2.767,1.426c-0.179,0-0.29-0.012-0.29-0.012h-4.277v-2.169
				h3.733c0,0,1.359,0.159,1.359-0.745c0-0.85-2.034-0.783-2.034-0.783s-3.314,0.287-3.314-2.806
				C-90.844,71.504-87.851,71.679-87.851,71.679z M-122.454,78.073h-2.352v3.029h-2.371h-2.1l-2.543-2.791l-2.564,2.791h-1.455
				h-7.48v-9.438h7.48h1.264l2.755,2.996l2.771-2.981h1.84v-0.014h5.828c0,0,3.043-0.334,3.043,2.771
				C-118.338,77.212-119.348,78.073-122.454,78.073z M-108.825,78.789v2.327h-2.337v-1.831c0,0-0.098-1.435-1.603-1.435h-2.339
				v3.266h-2.4v-9.419h5.828c0,0,3.042-0.366,3.042,2.759c0,1.625-1.345,2.198-1.345,2.198S-108.825,77.194-108.825,78.789z
				 M-100.148,73.88h-5.076v1.449h4.949v2.14h-4.949v1.595h5.076v2.039h-7.492v-9.406h7.492V73.88z M-94.492,81.097
				c-0.181,0-0.292-0.012-0.292-0.012h-4.275v-2.169h3.749c0,0,1.345,0.159,1.345-0.745c0-0.85-2.034-0.783-2.034-0.783
				s-3.314,0.287-3.314-2.806c0-3.078,2.991-2.903,2.991-2.903h4.615v2.201h-3.716c0,0-1.281-0.256-1.281,0.671
				c0,0.778,1.744,0.668,1.744,0.668s3.667-0.268,3.667,2.568C-91.292,80.829-93.657,81.097-94.492,81.097z"/>
			<polygon fill="#FFFFFF" points="-127.209,79.749 -127.209,73.197 -130.185,76.465 			"/>
			<path fill="#FFFFFF" d="M-112.62,73.848h-2.484v1.785h2.484c0.72,0,1.313-0.397,1.313-0.892
				C-111.308,74.246-111.9,73.848-112.62,73.848z"/>
			<polygon fill="#FFFFFF" points="-140.898,73.88 -140.898,75.329 -135.967,75.329 -135.967,77.469 -140.898,77.469 
				-140.898,79.063 -135.839,79.063 -133.471,76.465 -135.839,73.88 			"/>
			<path fill="#FFFFFF" d="M-122.326,73.831h-2.48v1.786h2.48c0.723,0,1.313-0.398,1.313-0.891
				C-121.013,74.231-121.604,73.831-122.326,73.831z"/>
		</g>
	</g>
	<path fill="#FFFFFF" d="M-161.908,82.891c0-1.964,1.585-3.543,3.572-3.543c1.97,0,3.555,1.579,3.555,3.543
		c0,1.961-1.585,3.54-3.555,3.54C-160.323,86.431-161.908,84.852-161.908,82.891 M-161.378,82.891c0,1.655,1.295,3.013,3.042,3.013
		c1.727,0,3.025-1.357,3.025-3.013c0-1.677-1.279-3.016-3.025-3.016C-160.098,79.875-161.378,81.214-161.378,82.891
		 M-157.457,84.518c-0.078-0.271-0.095-0.767-0.095-0.881c0-0.239-0.032-0.493-0.479-0.493h-0.978v1.374h-0.575V81.2h1.553
		c0.526,0,1.122,0.173,1.122,0.924c0,0.414-0.176,0.605-0.367,0.751c0.159,0.078,0.289,0.222,0.301,0.588l0.017,0.575
		c0.017,0.174,0.032,0.209,0.16,0.286v0.193H-157.457 M-159.01,82.634h0.929c0.306,0,0.576-0.078,0.576-0.479
		c0-0.414-0.287-0.445-0.495-0.445h-1.009V82.634"/>
</g>
</svg>
