<?xml version="1.0" encoding="utf-8"?>
<!-- Generator: Adobe Illustrator 16.0.0, SVG Export Plug-In . SVG Version: 6.00 Build 0)  -->
<!DOCTYPE svg PUBLIC "-//W3C//DTD SVG 1.1//EN" "http://www.w3.org/Graphics/SVG/1.1/DTD/svg11.dtd">
<svg version="1.1" id="Layer_1" xmlns="http://www.w3.org/2000/svg" xmlns:xlink="http://www.w3.org/1999/xlink" x="0px" y="0px"
	 width="242px" height="216px" viewBox="0 0 242 216" enable-background="new 0 0 242 216" xml:space="preserve">
<g>
	<g>
		<g>
			<rect fill="#0992A3" width="242" height="216"/>
			<rect x="3.493" y="2.563" fill="#F1F2F2" width="234.53" height="209.308"/>
		</g>
	</g>
	<g>
		<g>
			<g>
				<polygon fill="#0992A3" points="164.532,167.951 70.923,157.25 83.749,43.749 177.359,54.451 				"/>
				<polygon fill="#F1F2F2" points="163.688,136.5 78.763,126.793 87.665,48.008 172.59,57.716 				"/>
			</g>
			<g>
				<polygon fill="#0992A3" points="158.782,157.514 65.118,167.752 52.848,54.188 146.51,43.95 				"/>
				<polygon fill="#F1F2F2" points="151.087,127.016 66.116,136.303 57.6,57.476 142.57,48.189 				"/>
			</g>
		</g>
	</g>
</g>
<g>
	<g>
		<path fill="#542437" d="M44.6,100.365l5.813,9.585l5.838-9.585h1.896l-6.886,11.192v6.625H49.54v-6.675l-6.836-11.142H44.6z"/>
		<path fill="#542437" d="M66.73,118.308c-1.231,0-2.358-0.255-3.381-0.766c-1.023-0.51-1.9-1.188-2.632-2.033
			c-0.732-0.844-1.297-1.81-1.696-2.897c-0.399-1.089-0.599-2.2-0.599-3.338c0-1.188,0.212-2.325,0.637-3.413
			c0.424-1.087,1.01-2.049,1.759-2.886c0.749-0.837,1.63-1.501,2.645-1.996c1.015-0.493,2.112-0.74,3.293-0.74
			c1.23,0,2.358,0.264,3.38,0.791c1.023,0.527,1.897,1.217,2.62,2.07c0.724,0.853,1.285,1.819,1.684,2.898
			c0.399,1.08,0.599,2.18,0.599,3.3c0,1.188-0.212,2.326-0.636,3.413c-0.424,1.088-1.007,2.045-1.747,2.874
			c-0.741,0.827-1.618,1.488-2.632,1.982S67.912,118.308,66.73,118.308z M60.168,109.273c0,0.971,0.158,1.902,0.474,2.799
			c0.316,0.894,0.765,1.689,1.348,2.384c0.582,0.693,1.272,1.246,2.07,1.655c0.799,0.411,1.688,0.615,2.67,0.615
			c0.998,0,1.905-0.218,2.719-0.653c0.815-0.435,1.505-1.004,2.071-1.706c0.565-0.702,1.002-1.497,1.31-2.384
			c0.308-0.886,0.461-1.79,0.461-2.71c0-0.97-0.162-1.903-0.486-2.798c-0.324-0.895-0.777-1.685-1.36-2.371s-1.272-1.234-2.07-1.644
			c-0.799-0.41-1.681-0.615-2.645-0.615c-0.998,0-1.905,0.213-2.719,0.64c-0.815,0.427-1.506,0.992-2.071,1.694
			c-0.566,0.703-1.002,1.498-1.31,2.384C60.322,107.45,60.168,108.353,60.168,109.273z"/>
		<path fill="#542437" d="M85.567,116.727c1.115,0,2.042-0.214,2.782-0.64c0.74-0.428,1.331-0.988,1.771-1.682
			c0.44-0.694,0.748-1.484,0.923-2.372c0.174-0.887,0.262-1.78,0.262-2.685v-8.984h1.747v8.984c0,1.204-0.133,2.347-0.399,3.425
			c-0.266,1.079-0.694,2.029-1.285,2.849c-0.59,0.819-1.359,1.473-2.308,1.957c-0.948,0.486-2.104,0.729-3.468,0.729
			c-1.414,0-2.595-0.255-3.543-0.766c-0.948-0.51-1.713-1.184-2.295-2.02c-0.583-0.837-0.998-1.79-1.248-2.861
			c-0.25-1.07-0.374-2.176-0.374-3.313v-8.984h1.722v8.984c0,0.938,0.091,1.849,0.274,2.735c0.183,0.887,0.494,1.673,0.936,2.358
			c0.44,0.686,1.026,1.239,1.758,1.656C83.555,116.518,84.47,116.727,85.567,116.727z"/>
		<path fill="#542437" d="M97.244,118.182v-17.817h7.46c0.765,0,1.472,0.163,2.121,0.489c0.648,0.327,1.206,0.753,1.671,1.28
			c0.465,0.527,0.828,1.125,1.085,1.794c0.258,0.669,0.387,1.347,0.387,2.033c0,0.652-0.096,1.276-0.287,1.869
			c-0.191,0.594-0.461,1.129-0.811,1.606c-0.35,0.477-0.765,0.879-1.248,1.204c-0.482,0.326-1.023,0.549-1.622,0.665l4.367,6.876
			h-1.971l-4.191-6.574h-5.24v6.574H97.244z M98.965,110.051h5.813c0.516,0,0.986-0.112,1.41-0.339
			c0.424-0.226,0.786-0.53,1.085-0.916c0.3-0.385,0.532-0.819,0.699-1.305s0.25-0.996,0.25-1.531s-0.096-1.05-0.287-1.543
			s-0.449-0.924-0.773-1.292c-0.325-0.368-0.707-0.661-1.148-0.878c-0.441-0.217-0.902-0.326-1.385-0.326h-5.664V110.051z"/>
		<path fill="#542437" d="M120.098,118.182v-17.817h1.722v16.261h10.254v1.556H120.098z"/>
		<path fill="#542437" d="M140.882,118.308c-1.232,0-2.358-0.255-3.381-0.766c-1.022-0.51-1.9-1.188-2.633-2.033
			c-0.731-0.844-1.297-1.81-1.695-2.897c-0.4-1.089-0.6-2.2-0.6-3.338c0-1.188,0.211-2.325,0.636-3.413
			c0.425-1.087,1.01-2.049,1.759-2.886c0.748-0.837,1.63-1.501,2.645-1.996c1.015-0.493,2.113-0.74,3.295-0.74
			c1.229,0,2.356,0.264,3.38,0.791s1.896,1.217,2.619,2.07c0.724,0.853,1.285,1.819,1.685,2.898c0.399,1.08,0.599,2.18,0.599,3.3
			c0,1.188-0.212,2.326-0.636,3.413c-0.425,1.088-1.007,2.045-1.746,2.874c-0.741,0.827-1.618,1.488-2.633,1.982
			S142.063,118.308,140.882,118.308z M134.319,109.273c0,0.971,0.158,1.902,0.475,2.799c0.316,0.894,0.765,1.689,1.347,2.384
			c0.582,0.693,1.273,1.246,2.07,1.655c0.8,0.411,1.688,0.615,2.671,0.615c0.998,0,1.904-0.218,2.719-0.653
			c0.815-0.435,1.505-1.004,2.071-1.706c0.565-0.702,1.002-1.497,1.31-2.384c0.308-0.886,0.461-1.79,0.461-2.71
			c0-0.97-0.161-1.903-0.485-2.798c-0.325-0.895-0.777-1.685-1.36-2.371s-1.272-1.234-2.07-1.644
			c-0.799-0.41-1.68-0.615-2.645-0.615c-0.998,0-1.904,0.213-2.72,0.64c-0.815,0.427-1.507,0.992-2.071,1.694
			c-0.565,0.703-1.002,1.498-1.311,2.384C134.473,107.45,134.319,108.353,134.319,109.273z"/>
		<path fill="#542437" d="M165.383,115.597c-1.646,1.808-3.535,2.711-5.664,2.711c-1.197,0-2.3-0.26-3.306-0.777
			c-1.007-0.52-1.88-1.206-2.62-2.059c-0.74-0.854-1.318-1.819-1.734-2.897c-0.415-1.081-0.624-2.188-0.624-3.325
			c0-1.188,0.205-2.326,0.612-3.414s0.973-2.045,1.695-2.874c0.725-0.828,1.589-1.489,2.596-1.983
			c1.007-0.493,2.101-0.74,3.281-0.74c0.864,0,1.65,0.096,2.357,0.289s1.339,0.46,1.896,0.803c0.557,0.343,1.043,0.753,1.46,1.23
			c0.415,0.477,0.764,1,1.047,1.568l-1.348,0.903c-0.582-1.104-1.339-1.916-2.27-2.434c-0.932-0.519-1.987-0.778-3.169-0.778
			c-0.982,0-1.867,0.209-2.656,0.627c-0.792,0.418-1.464,0.974-2.021,1.668s-0.986,1.489-1.284,2.384
			c-0.301,0.896-0.45,1.819-0.45,2.773c0,1.004,0.171,1.957,0.512,2.861c0.341,0.902,0.812,1.693,1.41,2.37
			c0.598,0.679,1.301,1.218,2.107,1.619c0.807,0.402,1.685,0.603,2.633,0.603c1.014,0,1.979-0.238,2.895-0.716
			c0.914-0.477,1.795-1.226,2.645-2.245v-2.986h-3.917v-1.356h5.413v8.759h-1.496V115.597z"/>
		<path fill="#542437" d="M177.757,118.308c-1.231,0-2.358-0.255-3.381-0.766c-1.022-0.51-1.9-1.188-2.633-2.033
			c-0.731-0.844-1.297-1.81-1.695-2.897c-0.399-1.089-0.6-2.2-0.6-3.338c0-1.188,0.212-2.325,0.637-3.413
			c0.424-1.087,1.01-2.049,1.758-2.886c0.749-0.837,1.631-1.501,2.646-1.996c1.015-0.493,2.113-0.74,3.294-0.74
			c1.23,0,2.356,0.264,3.38,0.791s1.896,1.217,2.62,2.07c0.723,0.853,1.284,1.819,1.684,2.898c0.4,1.08,0.599,2.18,0.599,3.3
			c0,1.188-0.211,2.326-0.636,3.413c-0.425,1.088-1.007,2.045-1.746,2.874c-0.74,0.827-1.618,1.488-2.633,1.982
			S178.938,118.308,177.757,118.308z M171.195,109.273c0,0.971,0.157,1.902,0.475,2.799c0.315,0.894,0.764,1.689,1.347,2.384
			c0.582,0.693,1.272,1.246,2.07,1.655c0.799,0.411,1.688,0.615,2.67,0.615c0.998,0,1.904-0.218,2.72-0.653
			c0.814-0.435,1.504-1.004,2.07-1.706c0.565-0.702,1.002-1.497,1.311-2.384c0.307-0.886,0.461-1.79,0.461-2.71
			c0-0.97-0.162-1.903-0.485-2.798c-0.326-0.895-0.778-1.685-1.36-2.371c-0.583-0.686-1.273-1.234-2.07-1.644
			c-0.8-0.41-1.681-0.615-2.646-0.615c-0.998,0-1.904,0.213-2.719,0.64c-0.816,0.427-1.507,0.992-2.072,1.694
			c-0.565,0.703-1.002,1.498-1.31,2.384C171.348,107.45,171.195,108.353,171.195,109.273z"/>
	</g>
</g>
</svg>
