<?xml version="1.0" encoding="utf-8"?>
<!-- Generator: Adobe Illustrator 16.0.0, SVG Export Plug-In . SVG Version: 6.00 Build 0)  -->
<!DOCTYPE svg PUBLIC "-//W3C//DTD SVG 1.1//EN" "http://www.w3.org/Graphics/SVG/1.1/DTD/svg11.dtd">
<svg version="1.1" id="Layer_1" xmlns="http://www.w3.org/2000/svg" xmlns:xlink="http://www.w3.org/1999/xlink" x="0px" y="0px"
	 width="150px" height="150px" viewBox="0 0 150 150" enable-background="new 0 0 150 150" xml:space="preserve">
<rect x="-526" y="-893" fill="#F1F1F2" width="1200" height="1936.647"/>
<circle fill="#542437" cx="75" cy="75.5" r="74.5"/>
<circle fill="#F1F1F2" cx="75" cy="75.5" r="69.535"/>
<path fill="#542437" d="M33.202,108.152h83.597c0,0,0.682-5.983-1.59-9.517c-2.523-3.938-11.016-6.395-19.406-9.893
	c-8.406-3.503-10.402-4.72-10.402-4.72l-2.272-8.056c0,0,5.351-2.423,6.32-10.001c1.977,0.566,4.034-5.138,4.147-6.984
	c0.108-1.771-0.275-4.526-2.681-4.024c0.058-0.382,0.104-0.765,0.146-1.143c0-0.022,0-0.039,0.01-0.05
	c0.412-3.241,0.673-6.071,0.531-7.636c-0.39-4.041-3.006-8.207-7.31-10.785c-0.035-0.01-0.063-0.022-0.099-0.034
	c-2.293-0.931-5.764-2.326-9.622-2.47c-3.4,0.086-6.626,0.675-8.809,2.47c-0.355,0.291-0.932,1.04-1.34,1.24
	c-0.134,0.063-3.078,0.669-4.395,2.869c-1.952,3.246-1.443,11.819-0.957,15.539c-2.406-0.502-2.778,2.252-2.669,4.024
	c0.112,1.847,2.172,7.551,4.149,6.984c0.966,7.578,6.321,10.001,6.321,10.001l-2.286,8.056c0,0-1.983,1.217-10.39,4.721
	c-8.404,3.498-16.882,5.954-19.417,9.893C32.52,102.169,33.202,108.152,33.202,108.152z"/>
<g>
	<circle fill="#0591A3" cx="543.633" cy="0" r="54"/>
	<circle fill="#F1F1F2" cx="543.633" cy="0" r="50.4"/>
	<path fill="#0591A3" d="M513.336,23.668h60.594c0,0,0.494-4.338-1.151-6.897c-1.83-2.854-7.984-4.636-14.066-7.171
		c-6.094-2.539-7.539-3.421-7.539-3.421l-1.647-5.837c0,0,3.877-1.757,4.582-7.25c1.432,0.411,2.924-3.724,3.006-5.063
		c0.08-1.284-0.201-3.281-1.941-2.917c0.041-0.277,0.074-0.554,0.105-0.828c0-0.016,0-0.028,0.006-0.037
		c0.297-2.349,0.485-4.4,0.385-5.535c-0.281-2.928-2.18-5.948-5.299-7.816c-0.023-0.008-0.045-0.016-0.07-0.024
		c-1.66-0.675-4.178-1.687-6.973-1.791c-2.465,0.063-4.803,0.49-6.388,1.791c-0.256,0.211-0.674,0.753-0.971,0.898
		c-0.098,0.046-2.229,0.485-3.186,2.08c-1.416,2.353-1.047,8.567-0.693,11.263c-1.744-0.364-2.014,1.633-1.936,2.917
		c0.082,1.339,1.573,5.473,3.008,5.063c0.699,5.493,4.582,7.25,4.582,7.25l-1.658,5.837c0,0-1.438,0.882-7.531,3.421
		c-6.09,2.535-12.235,4.316-14.072,7.171C512.842,19.331,513.336,23.668,513.336,23.668z"/>
</g>
<g>
	<circle fill="#542437" cx="280.041" cy="245.691" r="60.217"/>
	<circle fill="#E6E7E8" cx="280.041" cy="245.691" r="56.203"/>
	<path fill="#542437" d="M246.256,272.084h67.57c0,0,0.551-4.838-1.285-7.691c-2.041-3.184-8.904-5.168-15.686-7.996
		c-6.795-2.832-8.408-3.814-8.408-3.814l-1.838-6.51c0,0,4.324-1.959,5.109-8.084c1.598,0.457,3.26-4.152,3.354-5.646
		c0.088-1.432-0.225-3.659-2.166-3.253c0.045-0.309,0.082-0.617,0.117-0.923c0-0.019,0-0.032,0.006-0.041
		c0.334-2.62,0.543-4.907,0.43-6.173c-0.314-3.266-2.43-6.633-5.906-8.716c-0.029-0.009-0.053-0.019-0.08-0.027
		c-1.852-0.753-4.658-1.88-7.777-1.997c-2.748,0.07-5.355,0.547-7.119,1.997c-0.287,0.235-0.754,0.841-1.084,1.002
		c-0.107,0.052-2.488,0.541-3.553,2.319c-1.576,2.623-1.166,9.553-0.773,12.559c-1.945-0.406-2.244,1.821-2.156,3.253
		c0.09,1.493,1.754,6.103,3.354,5.646c0.779,6.125,5.107,8.084,5.107,8.084l-1.846,6.51c0,0-1.604,0.982-8.398,3.814
		c-6.793,2.828-13.646,4.813-15.695,7.996C245.705,267.246,246.256,272.084,246.256,272.084z"/>
</g>
</svg>
