<?xml version="1.0" encoding="utf-8"?>
<!-- Generator: Adobe Illustrator 16.0.0, SVG Export Plug-In . SVG Version: 6.00 Build 0)  -->
<!DOCTYPE svg PUBLIC "-//W3C//DTD SVG 1.1//EN" "http://www.w3.org/Graphics/SVG/1.1/DTD/svg11.dtd">
<svg version="1.1" id="Layer_1" xmlns="http://www.w3.org/2000/svg" xmlns:xlink="http://www.w3.org/1999/xlink" x="0px" y="0px"
	 width="44px" height="56.75px" viewBox="0 0 44 56.75" enable-background="new 0 0 44 56.75" xml:space="preserve">
<g>
	<path fill="none" stroke="#542437" stroke-width="2" stroke-linecap="round" stroke-miterlimit="10" d="M39.299,52.699
		c0,1.893-1.501,3.426-3.357,3.426H8.057c-1.854,0-3.356-1.533-3.356-3.426V15.29h34.598V52.699z"/>
	
		<line fill="none" stroke="#542437" stroke-width="2" stroke-linecap="round" stroke-miterlimit="10" x1="11.659" y1="15.29" x2="11.659" y2="56.125"/>
	
		<line fill="none" stroke="#542437" stroke-width="2" stroke-linecap="round" stroke-miterlimit="10" x1="21.999" y1="15.29" x2="21.999" y2="56.125"/>
	
		<line fill="none" stroke="#542437" stroke-width="2" stroke-linecap="round" stroke-miterlimit="10" x1="32.342" y1="15.29" x2="32.342" y2="56.125"/>
	<path fill="none" stroke="#542437" stroke-width="2" stroke-linecap="round" stroke-miterlimit="10" d="M14.683,9.21V4.552
		c0-1.893,1.503-3.427,3.357-3.427h7.92c1.852,0,3.357,1.534,3.357,3.427V9.21"/>
	<path fill="#542437" d="M44,12.866c0,1.89-1.503,3.426-3.357,3.426H3.357C1.503,16.292,0,14.756,0,12.866v0.138
		c0-1.893,1.503-3.427,3.357-3.427h37.285c1.854,0,3.357,1.535,3.357,3.427V12.866z"/>
</g>
</svg>
