<?xml version="1.0" encoding="utf-8"?>
<!-- Generator: Adobe Illustrator 16.0.0, SVG Export Plug-In . SVG Version: 6.00 Build 0)  -->
<!DOCTYPE svg PUBLIC "-//W3C//DTD SVG 1.1//EN" "http://www.w3.org/Graphics/SVG/1.1/DTD/svg11.dtd">
<svg version="1.1" id="Layer_1" xmlns="http://www.w3.org/2000/svg" xmlns:xlink="http://www.w3.org/1999/xlink" x="0px" y="0px"
	 width="155px" height="97px" viewBox="0 0 155 97" enable-background="new 0 0 155 97" xml:space="preserve">
<g>
	<path fill="#0992A4" d="M155,89.004c0,4.416-3.584,7.996-8.003,7.996H8.004C3.584,97,0,93.42,0,89.004V7.996
		C0,3.58,3.584,0,8.004,0h138.993C151.416,0,155,3.58,155,7.996V89.004z"/>
	<g>
		<path fill="#F1F2F2" d="M41.359,84.229V66.486h6.003c1.417,0,2.659,0.234,3.727,0.701s1.954,1.1,2.663,1.898
			s1.238,1.736,1.589,2.811c0.351,1.076,0.524,2.221,0.524,3.438c0,1.348-0.199,2.568-0.6,3.66s-0.967,2.023-1.701,2.799
			c-0.733,0.773-1.625,1.375-2.676,1.799c-1.051,0.426-2.226,0.637-3.526,0.637H41.359z M54.115,75.334
			c0-1.066-0.15-2.045-0.45-2.938c-0.3-0.891-0.737-1.662-1.313-2.311c-0.574-0.65-1.279-1.154-2.113-1.512
			c-0.834-0.359-1.793-0.537-2.876-0.537h-4.276V82.68h4.276c1.101,0,2.071-0.188,2.913-0.563s1.547-0.891,2.114-1.549
			c0.566-0.658,0.996-1.434,1.288-2.324C53.969,77.354,54.115,76.383,54.115,75.334z"/>
		<path fill="#F1F2F2" d="M64.594,84.479c-0.95,0-1.826-0.18-2.626-0.537s-1.492-0.85-2.075-1.475
			c-0.584-0.625-1.039-1.344-1.363-2.16c-0.325-0.816-0.488-1.691-0.488-2.625c0-0.916,0.163-1.777,0.488-2.586
			c0.324-0.809,0.779-1.516,1.363-2.123c0.583-0.609,1.271-1.092,2.063-1.451c0.792-0.357,1.664-0.537,2.613-0.537
			c0.951,0,1.822,0.18,2.614,0.537c0.792,0.359,1.472,0.846,2.038,1.463s1.009,1.324,1.326,2.123
			c0.316,0.801,0.475,1.65,0.475,2.549c0,0.135-0.004,0.268-0.012,0.4c-0.01,0.133-0.021,0.225-0.038,0.275h-11.13
			c0.051,0.699,0.213,1.346,0.488,1.936c0.275,0.592,0.625,1.105,1.051,1.537c0.424,0.434,0.916,0.771,1.475,1.012
			c0.559,0.242,1.154,0.363,1.789,0.363c0.434,0,0.857-0.059,1.275-0.176c0.416-0.115,0.8-0.273,1.15-0.475
			c0.35-0.199,0.662-0.445,0.938-0.736s0.488-0.613,0.638-0.963l1.476,0.4c-0.199,0.482-0.483,0.92-0.85,1.313
			c-0.367,0.391-0.793,0.732-1.275,1.023c-0.484,0.293-1.018,0.518-1.602,0.676S65.211,84.479,64.594,84.479z M69.396,77.033
			c-0.051-0.701-0.213-1.338-0.488-1.912s-0.625-1.07-1.051-1.486c-0.425-0.418-0.921-0.742-1.488-0.975
			c-0.566-0.234-1.166-0.352-1.801-0.352c-0.633,0-1.233,0.117-1.801,0.352c-0.566,0.232-1.063,0.557-1.487,0.975
			c-0.425,0.416-0.767,0.916-1.025,1.498c-0.259,0.584-0.413,1.217-0.463,1.9H69.396z"/>
		<path fill="#F1F2F2" d="M73.648,65.988h1.7v15.293c0,0.482,0.133,0.861,0.4,1.137c0.267,0.273,0.642,0.412,1.125,0.412
			c0.184,0,0.4-0.025,0.65-0.076c0.25-0.049,0.483-0.115,0.7-0.199l0.3,1.375c-0.316,0.133-0.704,0.24-1.162,0.324
			c-0.459,0.084-0.855,0.125-1.188,0.125c-0.784,0-1.4-0.221-1.851-0.662s-0.675-1.063-0.675-1.861V65.988z"/>
		<path fill="#F1F2F2" d="M85.878,84.479c-0.95,0-1.826-0.18-2.626-0.537c-0.801-0.357-1.493-0.85-2.076-1.475
			c-0.584-0.625-1.038-1.344-1.363-2.16s-0.487-1.691-0.487-2.625c0-0.916,0.162-1.777,0.487-2.586s0.779-1.516,1.363-2.123
			c0.583-0.609,1.271-1.092,2.063-1.451c0.792-0.357,1.663-0.537,2.613-0.537s1.821,0.18,2.614,0.537
			c0.791,0.359,1.471,0.846,2.038,1.463c0.566,0.617,1.009,1.324,1.325,2.123c0.316,0.801,0.476,1.65,0.476,2.549
			c0,0.135-0.005,0.268-0.013,0.4c-0.009,0.133-0.021,0.225-0.037,0.275h-11.13c0.05,0.699,0.212,1.346,0.487,1.936
			c0.275,0.592,0.625,1.105,1.051,1.537c0.425,0.434,0.917,0.771,1.476,1.012c0.559,0.242,1.154,0.363,1.788,0.363
			c0.434,0,0.858-0.059,1.275-0.176c0.417-0.115,0.801-0.273,1.15-0.475c0.351-0.199,0.663-0.445,0.938-0.736
			c0.274-0.291,0.487-0.613,0.638-0.963l1.476,0.4c-0.2,0.482-0.484,0.92-0.851,1.313c-0.367,0.391-0.792,0.732-1.275,1.023
			c-0.484,0.293-1.018,0.518-1.601,0.676C87.095,84.4,86.494,84.479,85.878,84.479z M90.68,77.033
			c-0.05-0.701-0.213-1.338-0.487-1.912c-0.275-0.574-0.626-1.07-1.051-1.486c-0.425-0.418-0.922-0.742-1.488-0.975
			c-0.566-0.234-1.167-0.352-1.801-0.352s-1.234,0.117-1.801,0.352c-0.566,0.232-1.063,0.557-1.488,0.975
			c-0.425,0.416-0.767,0.916-1.025,1.498c-0.259,0.584-0.412,1.217-0.462,1.9H90.68z"/>
		<path fill="#F1F2F2" d="M101.033,83.604c-0.1,0.051-0.246,0.117-0.438,0.201s-0.412,0.166-0.662,0.25
			c-0.251,0.082-0.534,0.158-0.851,0.225c-0.317,0.066-0.65,0.1-1.001,0.1c-0.366,0-0.717-0.051-1.05-0.15
			c-0.334-0.1-0.626-0.254-0.876-0.461c-0.25-0.209-0.45-0.471-0.6-0.787c-0.15-0.316-0.226-0.684-0.226-1.1v-9.322H93.53v-1.348
			h1.801v-4.398h1.701v4.398h3.001v1.348h-3.001v8.848c0.033,0.482,0.2,0.836,0.5,1.061s0.658,0.338,1.075,0.338
			c0.483,0,0.909-0.078,1.275-0.238c0.367-0.158,0.601-0.27,0.7-0.336L101.033,83.604z"/>
		<path fill="#F1F2F2" d="M108.737,84.479c-0.95,0-1.826-0.18-2.626-0.537c-0.801-0.357-1.493-0.85-2.076-1.475
			c-0.584-0.625-1.038-1.344-1.363-2.16s-0.487-1.691-0.487-2.625c0-0.916,0.162-1.777,0.487-2.586s0.779-1.516,1.363-2.123
			c0.583-0.609,1.271-1.092,2.063-1.451c0.792-0.357,1.663-0.537,2.613-0.537s1.821,0.18,2.614,0.537
			c0.791,0.359,1.471,0.846,2.038,1.463c0.566,0.617,1.009,1.324,1.325,2.123c0.316,0.801,0.476,1.65,0.476,2.549
			c0,0.135-0.005,0.268-0.013,0.4c-0.009,0.133-0.021,0.225-0.037,0.275h-11.13c0.05,0.699,0.212,1.346,0.487,1.936
			c0.275,0.592,0.625,1.105,1.051,1.537c0.425,0.434,0.917,0.771,1.476,1.012c0.559,0.242,1.154,0.363,1.788,0.363
			c0.434,0,0.858-0.059,1.275-0.176c0.417-0.115,0.801-0.273,1.15-0.475c0.351-0.199,0.663-0.445,0.938-0.736
			c0.274-0.291,0.487-0.613,0.638-0.963l1.476,0.4c-0.2,0.482-0.484,0.92-0.851,1.313c-0.367,0.391-0.792,0.732-1.275,1.023
			c-0.484,0.293-1.018,0.518-1.601,0.676C109.954,84.4,109.354,84.479,108.737,84.479z M113.539,77.033
			c-0.05-0.701-0.213-1.338-0.487-1.912c-0.275-0.574-0.626-1.07-1.051-1.486c-0.425-0.418-0.922-0.742-1.488-0.975
			c-0.566-0.234-1.167-0.352-1.801-0.352s-1.234,0.117-1.801,0.352c-0.566,0.232-1.063,0.557-1.488,0.975
			c-0.425,0.416-0.767,0.916-1.025,1.498c-0.259,0.584-0.412,1.217-0.462,1.9H113.539z"/>
	</g>
	<g>
		<path fill="none" stroke="#F1F2F2" stroke-width="2" stroke-linecap="round" stroke-miterlimit="10" d="M89.214,53.553
			c0,1.336-1.082,2.416-2.421,2.416H66.689c-1.337,0-2.42-1.08-2.42-2.416V27.156h24.944V53.553z"/>
		
			<line fill="none" stroke="#F1F2F2" stroke-width="2" stroke-linecap="round" stroke-miterlimit="10" x1="69.287" y1="27.156" x2="69.287" y2="55.969"/>
		
			<line fill="none" stroke="#F1F2F2" stroke-width="2" stroke-linecap="round" stroke-miterlimit="10" x1="76.741" y1="27.156" x2="76.741" y2="55.969"/>
		
			<line fill="none" stroke="#F1F2F2" stroke-width="2" stroke-linecap="round" stroke-miterlimit="10" x1="84.197" y1="27.156" x2="84.197" y2="55.969"/>
		<path fill="none" stroke="#F1F2F2" stroke-width="2" stroke-linecap="round" stroke-miterlimit="10" d="M71.467,22.867V19.58
			c0-1.336,1.084-2.418,2.42-2.418h5.71c1.335,0,2.421,1.082,2.421,2.418v3.287"/>
		<path fill="#F1F2F2" stroke="#F1F2F2" stroke-miterlimit="10" d="M92.603,25.447c0,1.332-1.083,2.418-2.421,2.418h-26.88
			c-1.337,0-2.421-1.086-2.421-2.418v0.098c0-1.336,1.084-2.42,2.421-2.42h26.88c1.338,0,2.421,1.084,2.421,2.42V25.447z"/>
	</g>
</g>
</svg>
