<?xml version="1.0" encoding="utf-8"?>
<!-- Generator: Adobe Illustrator 16.0.0, SVG Export Plug-In . SVG Version: 6.00 Build 0)  -->
<!DOCTYPE svg PUBLIC "-//W3C//DTD SVG 1.1//EN" "http://www.w3.org/Graphics/SVG/1.1/DTD/svg11.dtd">
<svg version="1.1" id="Layer_1" xmlns="http://www.w3.org/2000/svg" xmlns:xlink="http://www.w3.org/1999/xlink" x="0px" y="0px"
	 width="43px" height="39.958px" viewBox="7.5 12.5 43 39.958" enable-background="new 7.5 12.5 43 39.958" xml:space="preserve">
<g>
	<path fill="none" stroke="#542437" stroke-width="2" stroke-linecap="round" stroke-miterlimit="10" d="M41.675,49.797
		c0,1.332-1.058,2.411-2.362,2.411H19.687c-1.305,0-2.361-1.079-2.361-2.411V23.469h24.35V49.797z"/>
	
		<line fill="none" stroke="#542437" stroke-width="2" stroke-linecap="round" stroke-miterlimit="10" x1="22.222" y1="23.469" x2="22.222" y2="52.208"/>
	
		<line fill="none" stroke="#542437" stroke-width="2" stroke-linecap="round" stroke-miterlimit="10" x1="29.5" y1="23.469" x2="29.5" y2="52.208"/>
	
		<line fill="none" stroke="#542437" stroke-width="2" stroke-linecap="round" stroke-miterlimit="10" x1="36.778" y1="23.469" x2="36.778" y2="52.208"/>
	<path fill="none" stroke="#542437" stroke-width="2" stroke-linecap="round" stroke-miterlimit="10" d="M24.351,19.19v-3.278
		c0-1.332,1.058-2.412,2.362-2.412h5.575c1.304,0,2.361,1.08,2.361,2.412v3.278"/>
	<path fill="#542437" d="M44.982,21.763c0,1.33-1.058,2.411-2.363,2.411h-26.24c-1.305,0-2.362-1.081-2.362-2.411v0.097
		c0-1.332,1.058-2.411,2.362-2.411h26.24c1.306,0,2.363,1.08,2.363,2.411V21.763L44.982,21.763z"/>
</g>
</svg>
