<?xml version="1.0" encoding="utf-8"?>
<!-- Generator: Adobe Illustrator 16.0.0, SVG Export Plug-In . SVG Version: 6.00 Build 0)  -->
<!DOCTYPE svg PUBLIC "-//W3C//DTD SVG 1.1//EN" "http://www.w3.org/Graphics/SVG/1.1/DTD/svg11.dtd">
<svg version="1.1" id="Layer_1" xmlns="http://www.w3.org/2000/svg" xmlns:xlink="http://www.w3.org/1999/xlink" x="0px" y="0px"
	 width="1px" height="1px" viewBox="489.5 174.5 1 1" enable-background="new 489.5 174.5 1 1" xml:space="preserve">
<rect x="-5" y="-0.393" opacity="0.5" fill="#F1F2F2" enable-background="new    " width="987" height="350"/>
<g>
	<path fill="#542437" d="M563.521,445.942c-0.582-0.146-1.188-0.23-1.813-0.23h-0.928v2.735v0.4h-9.281v-0.4v-2.735h-2.742H526.24
		h-2.74v2.735v0.4h-9.279v-0.4v-2.735h-0.93c-0.627,0-1.232,0.084-1.813,0.23c-3.224,0.809-5.612,3.711-5.612,7.18v8.489h6.729
		c1.024,0,1.857,0.83,1.857,1.852c0,1.024-0.833,1.854-1.857,1.854h-6.729v4.631h6.729c1.024,0,1.857,0.83,1.857,1.853
		c0,1.023-0.833,1.854-1.857,1.854h-6.729v4.629h6.729c1.024,0,1.857,0.83,1.857,1.854c0,1.022-0.833,1.854-1.857,1.854h-6.729
		v2.777c0,4.093,3.323,7.408,7.425,7.408h48.417c4.102,0,7.426-3.315,7.426-7.408v-31.643
		C569.134,449.653,566.744,446.75,563.521,445.942z M540.47,474.099v6.989h-5.938v-6.989c-2.688-1.149-4.567-3.813-4.567-6.916
		c0-4.154,3.371-7.521,7.537-7.521c4.163,0,7.538,3.365,7.538,7.521C545.038,470.284,543.156,472.948,540.47,474.099z"/>
	<path fill="#542437" d="M523.5,436.674c0.008-3.846,3.125-6.959,6.979-6.965h14.041c3.852,0.006,6.973,3.119,6.979,6.965v9.038
		h9.281v-9.038c-0.002-8.964-7.277-16.224-16.261-16.226h-14.041c-8.981,0.002-16.257,7.262-16.259,16.226v9.038h9.279
		L523.5,436.674L523.5,436.674z"/>
</g>
</svg>
