<?xml version="1.0" encoding="utf-8"?>
<!-- Generator: Adobe Illustrator 16.0.0, SVG Export Plug-In . SVG Version: 6.00 Build 0)  -->
<!DOCTYPE svg PUBLIC "-//W3C//DTD SVG 1.1//EN" "http://www.w3.org/Graphics/SVG/1.1/DTD/svg11.dtd">
<svg version="1.1" id="Layer_1" xmlns="http://www.w3.org/2000/svg" xmlns:xlink="http://www.w3.org/1999/xlink" x="0px" y="0px"
	 width="155px" height="97px" viewBox="0 0 155 97" enable-background="new 0 0 155 97" xml:space="preserve">
<g>
	<path fill="#0992A4" d="M155,89.003c0,4.416-3.584,7.998-8.003,7.998H8.004C3.584,97.001,0,93.419,0,89.003V7.997
		C0,3.581,3.584,0,8.004,0h138.993C151.416,0,155,3.581,155,7.997V89.003z"/>
</g>
<g>
	<path fill="#F1F1F2" d="M18.579,83.662v-17.75h6c1.416,0,2.658,0.233,3.725,0.7s1.954,1.1,2.663,1.899
		c0.708,0.801,1.237,1.738,1.587,2.813c0.351,1.075,0.525,2.222,0.525,3.438c0,1.351-0.2,2.571-0.6,3.663
		c-0.4,1.092-0.967,2.024-1.7,2.8s-1.625,1.375-2.675,1.8c-1.051,0.425-2.226,0.638-3.525,0.638H18.579z M31.329,74.762
		c0-1.066-0.15-2.045-0.45-2.938c-0.3-0.891-0.737-1.662-1.313-2.313c-0.575-0.649-1.279-1.153-2.112-1.512
		c-0.834-0.358-1.792-0.538-2.875-0.538h-4.275v14.65h4.275c1.1,0,2.07-0.188,2.912-0.563s1.546-0.892,2.113-1.55
		c0.566-0.658,0.995-1.434,1.287-2.325C31.182,76.783,31.329,75.813,31.329,74.762z"/>
	<path fill="#F1F1F2" d="M41.728,83.912c-0.95,0-1.821-0.18-2.612-0.537c-0.792-0.358-1.476-0.846-2.051-1.463
		c-0.574-0.616-1.021-1.333-1.337-2.15c-0.317-0.816-0.476-1.675-0.476-2.574c0-0.917,0.163-1.783,0.488-2.601
		c0.324-0.816,0.774-1.533,1.35-2.149c0.575-0.617,1.258-1.108,2.05-1.476c0.792-0.366,1.654-0.55,2.588-0.55
		c0.933,0,1.796,0.184,2.587,0.55c0.792,0.367,1.476,0.858,2.051,1.476c0.574,0.616,1.024,1.333,1.35,2.149
		c0.325,0.817,0.487,1.684,0.487,2.601c0,0.899-0.162,1.758-0.487,2.574c-0.325,0.817-0.775,1.534-1.35,2.15
		c-0.575,0.617-1.259,1.104-2.051,1.463C43.524,83.732,42.661,83.912,41.728,83.912z M37.002,77.212
		c0,0.733,0.121,1.413,0.363,2.038c0.241,0.625,0.574,1.175,1,1.649c0.425,0.476,0.925,0.847,1.5,1.112
		c0.574,0.268,1.188,0.4,1.837,0.4c0.65,0,1.263-0.138,1.838-0.412c0.575-0.275,1.079-0.65,1.513-1.125
		c0.433-0.476,0.774-1.029,1.024-1.663c0.25-0.633,0.375-1.316,0.375-2.05c0-0.717-0.125-1.396-0.375-2.037s-0.592-1.2-1.024-1.676
		c-0.434-0.475-0.934-0.85-1.5-1.125c-0.567-0.274-1.176-0.412-1.825-0.412c-0.65,0-1.263,0.138-1.838,0.412
		c-0.575,0.275-1.075,0.654-1.5,1.138s-0.763,1.046-1.013,1.688S37.002,76.479,37.002,77.212z"/>
	<path fill="#F1F1F2" d="M66.978,70.637h1.649l-5.574,13.025h-1.426l-2.774-6.65l-2.775,6.65h-1.425l-5.575-13.025h1.625
		l4.75,11.275l2.476-5.95l-2.226-5.3h1.45l1.7,4.25l1.675-4.25h1.45l-2.2,5.3l2.475,5.95L66.978,70.637z"/>
	<path fill="#F1F1F2" d="M81.803,83.662h-1.699v-7.275c0-1.55-0.227-2.675-0.676-3.375c-0.449-0.699-1.15-1.05-2.1-1.05
		c-0.5,0-1,0.092-1.5,0.275s-0.967,0.441-1.399,0.774c-0.434,0.334-0.813,0.729-1.138,1.188c-0.325,0.459-0.571,0.955-0.737,1.488
		v7.975h-1.7V70.637h1.55v2.95c0.267-0.466,0.596-0.896,0.987-1.287s0.829-0.729,1.313-1.013s0.996-0.5,1.538-0.65
		c0.541-0.149,1.104-0.225,1.688-0.225c0.732,0,1.345,0.134,1.837,0.4c0.49,0.267,0.887,0.642,1.188,1.125
		c0.299,0.483,0.516,1.074,0.65,1.774c0.133,0.7,0.199,1.476,0.199,2.325V83.662z"/>
	<path fill="#F1F1F2" d="M85.402,65.412h1.699v15.3c0,0.483,0.135,0.862,0.4,1.138c0.268,0.275,0.643,0.412,1.125,0.412
		c0.184,0,0.4-0.024,0.65-0.074c0.25-0.051,0.482-0.117,0.699-0.2l0.301,1.375c-0.316,0.134-0.705,0.241-1.162,0.325
		c-0.459,0.083-0.855,0.125-1.188,0.125c-0.783,0-1.4-0.221-1.85-0.663c-0.451-0.441-0.676-1.063-0.676-1.862V65.412z"/>
	<path fill="#F1F1F2" d="M97.527,83.912c-0.949,0-1.82-0.18-2.611-0.537c-0.793-0.358-1.477-0.846-2.051-1.463
		c-0.574-0.616-1.021-1.333-1.338-2.15c-0.316-0.816-0.475-1.675-0.475-2.574c0-0.917,0.162-1.783,0.488-2.601
		c0.324-0.816,0.773-1.533,1.35-2.149c0.574-0.617,1.258-1.108,2.049-1.476c0.793-0.366,1.654-0.55,2.588-0.55
		s1.797,0.184,2.588,0.55c0.791,0.367,1.475,0.858,2.051,1.476c0.574,0.616,1.023,1.333,1.35,2.149
		c0.324,0.817,0.486,1.684,0.486,2.601c0,0.899-0.162,1.758-0.486,2.574c-0.326,0.817-0.775,1.534-1.35,2.15
		c-0.576,0.617-1.26,1.104-2.051,1.463C99.324,83.732,98.461,83.912,97.527,83.912z M92.803,77.212c0,0.733,0.121,1.413,0.363,2.038
		c0.24,0.625,0.574,1.175,1,1.649c0.424,0.476,0.924,0.847,1.5,1.112c0.574,0.268,1.188,0.4,1.836,0.4
		c0.65,0,1.264-0.138,1.838-0.412c0.576-0.275,1.08-0.65,1.514-1.125c0.432-0.476,0.773-1.029,1.023-1.663
		c0.25-0.633,0.375-1.316,0.375-2.05c0-0.717-0.125-1.396-0.375-2.037s-0.592-1.2-1.023-1.676c-0.434-0.475-0.934-0.85-1.5-1.125
		c-0.568-0.274-1.176-0.412-1.826-0.412s-1.262,0.138-1.838,0.412c-0.574,0.275-1.074,0.654-1.5,1.138
		c-0.424,0.483-0.762,1.046-1.012,1.688S92.803,76.479,92.803,77.212z"/>
	<path fill="#F1F1F2" d="M110.229,83.912c-0.668,0-1.275-0.104-1.826-0.313c-0.549-0.208-1.021-0.496-1.412-0.862
		c-0.393-0.366-0.695-0.792-0.912-1.275s-0.326-0.991-0.326-1.524c0-0.601,0.135-1.146,0.4-1.638
		c0.268-0.491,0.643-0.913,1.125-1.263c0.484-0.35,1.063-0.621,1.738-0.813c0.674-0.191,1.42-0.287,2.236-0.287
		c0.65,0,1.316,0.059,2,0.175s1.293,0.283,1.826,0.5v-1.175c0-1.15-0.33-2.063-0.988-2.738c-0.658-0.675-1.545-1.012-2.662-1.012
		c-0.699,0-1.396,0.133-2.088,0.399s-1.396,0.65-2.111,1.15l-0.602-1.125c0.852-0.566,1.676-0.991,2.477-1.275
		c0.799-0.283,1.633-0.425,2.5-0.425c1.582,0,2.84,0.459,3.773,1.375c0.934,0.917,1.4,2.184,1.4,3.8v5.875
		c0,0.467,0.201,0.7,0.6,0.7v1.5c-0.133,0.017-0.258,0.029-0.375,0.037c-0.115,0.009-0.217,0.013-0.299,0.013
		c-0.334,0-0.639-0.1-0.912-0.3c-0.275-0.2-0.43-0.5-0.463-0.9l-0.051-1.024c-0.566,0.767-1.313,1.362-2.236,1.787
		C112.115,83.699,111.178,83.912,110.229,83.912z M110.652,82.612c0.75,0,1.496-0.163,2.238-0.487
		c0.74-0.325,1.328-0.771,1.762-1.338c0.117-0.15,0.217-0.313,0.301-0.487c0.082-0.175,0.125-0.338,0.125-0.487v-2.125
		c-0.566-0.217-1.158-0.384-1.775-0.5c-0.617-0.117-1.217-0.176-1.801-0.176c-1.217,0-2.203,0.246-2.961,0.738
		c-0.76,0.491-1.139,1.171-1.139,2.037c0,0.35,0.066,0.691,0.201,1.025c0.133,0.333,0.336,0.633,0.611,0.899s0.613,0.483,1.014,0.65
		C109.627,82.529,110.104,82.612,110.652,82.612z"/>
	<path fill="#F1F1F2" d="M125.877,83.912c-0.9,0-1.734-0.188-2.5-0.563c-0.768-0.375-1.43-0.871-1.988-1.487
		s-0.99-1.329-1.299-2.138s-0.463-1.654-0.463-2.537c0-0.917,0.15-1.788,0.449-2.613c0.301-0.824,0.713-1.545,1.238-2.162
		c0.525-0.616,1.15-1.104,1.875-1.463c0.725-0.357,1.521-0.537,2.387-0.537c1.102,0,2.076,0.287,2.926,0.862
		s1.525,1.271,2.025,2.088v-7.95h1.699v16.05c0,0.467,0.201,0.7,0.6,0.7v1.5c-0.283,0.05-0.508,0.075-0.674,0.075
		c-0.418,0-0.76-0.121-1.025-0.362c-0.268-0.242-0.4-0.529-0.4-0.863v-1.375c-0.533,0.851-1.236,1.525-2.111,2.025
		S126.826,83.912,125.877,83.912z M126.227,82.412c0.434,0,0.889-0.083,1.363-0.25c0.475-0.166,0.916-0.396,1.324-0.688
		c0.408-0.291,0.764-0.633,1.063-1.025c0.301-0.391,0.484-0.813,0.551-1.262v-4.025c-0.168-0.45-0.412-0.871-0.738-1.263
		c-0.324-0.392-0.691-0.737-1.1-1.037s-0.842-0.533-1.301-0.7c-0.457-0.166-0.912-0.25-1.361-0.25c-0.701,0-1.338,0.15-1.912,0.45
		c-0.576,0.3-1.063,0.696-1.463,1.188s-0.713,1.054-0.938,1.688s-0.338,1.283-0.338,1.95c0,0.699,0.125,1.366,0.375,2
		c0.25,0.633,0.592,1.188,1.025,1.662s0.945,0.854,1.537,1.138S125.543,82.412,126.227,82.412z"/>
</g>
<path fill-rule="evenodd" clip-rule="evenodd" fill="#F1F2F2" d="M67.721,9v17.636h-9.008l18.02,17.635L94.75,26.636h-9.01V9H67.721
	L67.721,9z M101.217,51.178v5.668H50.271v-5.668V40.062h5.922v11.116h39.098V40.062h5.926V51.178z"/>
</svg>
