<?xml version="1.0" encoding="utf-8"?>
<!-- Generator: Adobe Illustrator 16.0.0, SVG Export Plug-In . SVG Version: 6.00 Build 0)  -->
<!DOCTYPE svg PUBLIC "-//W3C//DTD SVG 1.1//EN" "http://www.w3.org/Graphics/SVG/1.1/DTD/svg11.dtd">
<svg version="1.1" id="Layer_1" xmlns="http://www.w3.org/2000/svg" xmlns:xlink="http://www.w3.org/1999/xlink" x="0px" y="0px"
	 width="78px" height="26px" viewBox="0 0 78 26" enable-background="new 0 0 78 26" xml:space="preserve">
<g>
	<g>
		<path fill="#542437" d="M78,21c0,2.75-2.25,5-5,5H5c-2.75,0-5-2.25-5-5V5c0-2.75,2.25-5,5-5h68c2.75,0,5,2.25,5,5V21z"/>
	</g>
</g>
<g>
	<path fill="#ECD078" d="M64.503,18.195l-3.858-9.897h1.513l2.733,6.88l2.781-6.88h1.453l-3.911,9.897H64.503z"/>
</g>
<line fill="none" stroke="#ECD078" stroke-miterlimit="10" x1="53.385" y1="0" x2="53.385" y2="26"/>
<g>
	<g>
		<path fill="#542437" d="M74.21-8.82c0,2.75-2.25,5-5,5H8.521c-2.75,0-5-2.25-5-5v-5.446c0-2.75,2.25-5,5-5H69.21
			c2.75,0,5,2.25,5,5V-8.82z"/>
	</g>
	<text transform="matrix(1 0 0 1 21.9019 -7.1338)" fill="#ECD078" font-family="'Raleway-Medium'" font-size="14">0</text>
	<text transform="matrix(0 1 -1 0 58.3721 -15.0923)" fill="#ECD078" font-family="'Raleway-Medium'" font-size="14">&gt;</text>
	<line fill="#ECD078" stroke="#ECD078" stroke-miterlimit="10" x1="51.569" y1="-19.266" x2="51.569" y2="-3.82"/>
</g>
</svg>
