<?xml version="1.0" encoding="utf-8"?>
<!-- Generator: Adobe Illustrator 16.0.0, SVG Export Plug-In . SVG Version: 6.00 Build 0)  -->
<!DOCTYPE svg PUBLIC "-//W3C//DTD SVG 1.1//EN" "http://www.w3.org/Graphics/SVG/1.1/DTD/svg11.dtd">
<svg version="1.1" id="Layer_1" xmlns="http://www.w3.org/2000/svg" xmlns:xlink="http://www.w3.org/1999/xlink" x="0px" y="0px"
	 width="62px" height="62px" viewBox="29 29.5 62 62" enable-background="new 29 29.5 62 62" xml:space="preserve">
<g>
	<circle fill="#F1F1F2" cx="60" cy="60.5" r="31"/>
	<circle fill="#0992A4" cx="60" cy="60.5" r="28.933"/>
	<path fill="#F1F2F2" d="M42.606,74.086h34.785c0,0,0.285-2.491-0.662-3.96c-1.049-1.64-4.582-2.661-8.074-4.117
		c-3.498-1.456-4.328-1.962-4.328-1.962l-0.945-3.351c0,0,2.225-1.008,2.629-4.162c0.82,0.235,1.68-2.138,1.727-2.906
		c0.045-0.737-0.115-1.884-1.117-1.675c0.025-0.159,0.045-0.317,0.063-0.475c0-0.01,0-0.018,0.002-0.022
		c0.172-1.348,0.281-2.525,0.225-3.178c-0.162-1.681-1.252-3.415-3.043-4.487c-0.012-0.005-0.023-0.009-0.041-0.014
		c-0.951-0.388-2.398-0.968-4.002-1.028c-1.414,0.036-2.757,0.281-3.666,1.028c-0.147,0.121-0.388,0.433-0.558,0.516
		c-0.057,0.025-1.281,0.278-1.829,1.193c-0.813,1.351-0.601,4.918-0.398,6.465c-1-0.209-1.157,0.938-1.112,1.675
		c0.047,0.768,0.904,3.142,1.726,2.906c0.401,3.153,2.63,4.162,2.63,4.162l-0.951,3.35c0,0-0.826,0.506-4.324,1.963
		c-3.496,1.457-7.025,2.479-8.079,4.117C42.323,71.595,42.606,74.086,42.606,74.086z"/>
</g>
</svg>
