<?xml version="1.0" encoding="utf-8"?>
<!-- Generator: Adobe Illustrator 16.0.0, SVG Export Plug-In . SVG Version: 6.00 Build 0)  -->
<!DOCTYPE svg PUBLIC "-//W3C//DTD SVG 1.1//EN" "http://www.w3.org/Graphics/SVG/1.1/DTD/svg11.dtd">
<svg version="1.1" id="Layer_1" xmlns="http://www.w3.org/2000/svg" xmlns:xlink="http://www.w3.org/1999/xlink" x="0px" y="0px"
	 width="120px" height="121px" viewBox="0 0 120 121" enable-background="new 0 0 120 121" xml:space="preserve">
<path fill="#0992A4" d="M120,115.408c0,3.088-2.152,5.592-4.807,5.592H4.804C2.152,121,0,118.496,0,115.408V5.591
	C0,2.504,2.152,0,4.804,0h110.391C117.848,0,120,2.504,120,5.591V115.408z"/>
<g>
	<circle fill="#F1F1F2" cx="61.307" cy="37.041" r="31.252"/>
	<circle fill="#0992A4" cx="61.307" cy="37.041" r="29.168"/>
	<path fill="#F1F2F2" d="M43.772,50.737H78.84c0,0,0.286-2.511-0.668-3.992c-1.059-1.652-4.62-2.683-8.141-4.15
		c-3.526-1.469-4.363-1.979-4.363-1.979l-0.953-3.378c0,0,2.244-1.016,2.651-4.195c0.827,0.237,1.692-2.155,1.739-2.93
		c0.047-0.743-0.115-1.899-1.125-1.688c0.025-0.16,0.045-0.32,0.063-0.479c0-0.01,0-0.017,0.002-0.022
		c0.173-1.359,0.282-2.546,0.226-3.203c-0.164-1.695-1.263-3.443-3.067-4.524c-0.013-0.005-0.024-0.009-0.041-0.014
		c-0.96-0.391-2.418-0.976-4.035-1.036c-1.426,0.036-2.78,0.283-3.696,1.036c-0.148,0.122-0.391,0.436-0.562,0.52
		c-0.057,0.026-1.291,0.281-1.844,1.203c-0.82,1.362-0.606,4.958-0.401,6.518c-1.009-0.211-1.166,0.945-1.121,1.688
		c0.048,0.774,0.911,3.167,1.74,2.93c0.405,3.179,2.652,4.195,2.652,4.195l-0.959,3.378c0,0-0.833,0.51-4.359,1.979
		c-3.524,1.468-7.082,2.499-8.144,4.15C43.487,48.226,43.772,50.737,43.772,50.737z"/>
</g>
<g>
	<path fill="#F1F2F2" d="M56.065,83.314v0.992h-7.632V72.947h7.487v0.992h-6.384v4.096h5.568v0.943h-5.568v4.336H56.065z"/>
	<path fill="#F1F2F2" d="M61.121,84.468c-0.576,0-1.109-0.12-1.6-0.36c-0.491-0.239-0.915-0.557-1.272-0.951
		c-0.357-0.396-0.635-0.852-0.832-1.367c-0.197-0.518-0.296-1.059-0.296-1.624c0-0.587,0.096-1.146,0.288-1.673
		c0.191-0.527,0.456-0.989,0.792-1.385c0.336-0.395,0.736-0.705,1.2-0.936c0.464-0.23,0.973-0.345,1.527-0.345
		c0.704,0,1.328,0.185,1.872,0.553s0.978,0.813,1.296,1.336v-5.088h1.09v10.271c0,0.3,0.127,0.449,0.383,0.449v0.959
		c-0.182,0.032-0.325,0.049-0.432,0.049c-0.268,0-0.486-0.078-0.656-0.231c-0.17-0.155-0.256-0.339-0.256-0.554v-0.879
		c-0.342,0.543-0.793,0.977-1.353,1.295C62.313,84.309,61.729,84.468,61.121,84.468z M61.346,83.508c0.276,0,0.567-0.054,0.871-0.16
		c0.305-0.105,0.588-0.253,0.85-0.439c0.261-0.188,0.486-0.405,0.68-0.655c0.191-0.251,0.311-0.521,0.352-0.81v-2.575
		c-0.105-0.287-0.264-0.558-0.472-0.808s-0.442-0.473-0.704-0.664s-0.539-0.342-0.832-0.448s-0.584-0.159-0.872-0.159
		c-0.446,0-0.855,0.096-1.224,0.287c-0.368,0.191-0.68,0.445-0.937,0.761c-0.256,0.313-0.456,0.675-0.6,1.08
		s-0.216,0.821-0.216,1.248c0,0.446,0.08,0.874,0.24,1.278c0.159,0.406,0.378,0.762,0.655,1.064
		c0.277,0.303,0.605,0.547,0.984,0.729C60.5,83.417,60.907,83.508,61.346,83.508z"/>
	<path fill="#F1F2F2" d="M67.633,74.229v-1.601h1.088v1.601H67.633z M67.633,84.309v-8.336h1.088v8.336H67.633z"/>
	<path fill="#F1F2F2" d="M75.089,83.907c-0.063,0.032-0.157,0.075-0.28,0.128c-0.123,0.054-0.264,0.107-0.424,0.16
		c-0.16,0.054-0.342,0.102-0.544,0.145c-0.202,0.042-0.416,0.063-0.641,0.063c-0.234,0-0.458-0.03-0.673-0.096
		c-0.213-0.063-0.398-0.162-0.56-0.296s-0.288-0.302-0.384-0.504c-0.098-0.202-0.145-0.438-0.145-0.704v-5.968h-1.151v-0.864h1.151
		v-2.815h1.088v2.815h1.92v0.864h-1.92V82.5c0.021,0.311,0.127,0.535,0.32,0.68c0.191,0.145,0.42,0.217,0.688,0.217
		c0.309,0,0.581-0.052,0.814-0.152c0.234-0.102,0.385-0.174,0.448-0.217L75.089,83.907z"/>
	<path fill="#F1F2F2" d="M40.61,103.587V92.228h4.703c0.491,0,0.941,0.104,1.353,0.313c0.41,0.208,0.766,0.479,1.063,0.814
		c0.299,0.336,0.531,0.719,0.696,1.146s0.248,0.858,0.248,1.296c0,0.471-0.077,0.92-0.231,1.352
		c-0.155,0.434-0.376,0.813-0.664,1.146c-0.288,0.332-0.633,0.599-1.032,0.8c-0.4,0.203-0.846,0.305-1.336,0.305h-3.696v4.191H40.61
		V103.587z M41.713,98.403h3.632c0.331,0,0.632-0.072,0.904-0.217c0.271-0.145,0.504-0.336,0.696-0.575
		c0.191-0.24,0.341-0.519,0.447-0.832c0.106-0.314,0.16-0.644,0.16-0.984c0-0.352-0.062-0.686-0.184-1
		c-0.123-0.313-0.288-0.589-0.496-0.823s-0.453-0.418-0.736-0.553c-0.282-0.133-0.578-0.199-0.888-0.199h-3.536v5.184H41.713z"/>
	<path fill="#F1F2F2" d="M54.433,96.211c-0.736,0.021-1.376,0.224-1.92,0.608c-0.544,0.384-0.928,0.91-1.152,1.584v5.184h-1.088
		v-8.336h1.024v2c0.288-0.587,0.666-1.074,1.136-1.464c0.469-0.39,0.977-0.584,1.52-0.584c0.098,0,0.188,0,0.272,0
		s0.154,0.005,0.208,0.017V96.211z"/>
	<path fill="#F1F2F2" d="M59.104,103.747c-0.607,0-1.165-0.115-1.672-0.344c-0.507-0.229-0.943-0.542-1.313-0.938
		c-0.369-0.395-0.652-0.854-0.855-1.376c-0.202-0.521-0.305-1.071-0.305-1.646c0-0.587,0.104-1.142,0.313-1.664
		s0.496-0.981,0.864-1.376s0.806-0.71,1.313-0.944c0.506-0.233,1.059-0.353,1.654-0.353c0.598,0,1.149,0.117,1.656,0.353
		s0.943,0.55,1.313,0.944c0.367,0.395,0.655,0.854,0.863,1.376s0.313,1.077,0.313,1.664c0,0.575-0.104,1.125-0.313,1.646
		c-0.209,0.522-0.496,0.981-0.863,1.376c-0.367,0.396-0.806,0.707-1.313,0.938C60.254,103.632,59.702,103.747,59.104,103.747z
		 M56.081,99.459c0,0.47,0.076,0.904,0.23,1.304c0.155,0.4,0.368,0.752,0.641,1.058c0.271,0.304,0.592,0.541,0.961,0.712
		c0.367,0.171,0.76,0.256,1.176,0.256s0.808-0.088,1.176-0.266c0.368-0.176,0.689-0.416,0.969-0.719
		c0.276-0.305,0.495-0.658,0.655-1.063s0.24-0.843,0.24-1.313c0-0.457-0.08-0.894-0.24-1.304s-0.379-0.769-0.655-1.071
		c-0.277-0.305-0.598-0.545-0.961-0.721c-0.361-0.176-0.752-0.264-1.168-0.264s-0.808,0.088-1.176,0.264s-0.688,0.419-0.96,0.729
		c-0.271,0.31-0.488,0.67-0.647,1.08C56.161,98.55,56.081,98.989,56.081,99.459z"/>
	<path fill="#F1F2F2" d="M65.473,97.091h-1.151v-0.863h1.151v-1.199c0-0.385,0.056-0.773,0.168-1.168
		c0.112-0.396,0.288-0.747,0.526-1.057c0.24-0.31,0.548-0.563,0.922-0.761c0.373-0.196,0.814-0.296,1.326-0.296
		c0.599,0,1.104,0.091,1.521,0.271c0.416,0.182,0.715,0.342,0.896,0.479l-0.495,0.784c-0.183-0.16-0.438-0.296-0.769-0.408
		c-0.332-0.111-0.693-0.168-1.089-0.168c-0.342,0-0.632,0.069-0.872,0.208c-0.24,0.14-0.438,0.313-0.592,0.528
		c-0.154,0.213-0.27,0.458-0.344,0.734c-0.075,0.277-0.112,0.551-0.112,0.816v1.23h4.177v7.36h-1.089v-6.496h-3.088v6.496h-1.088
		V97.091L65.473,97.091z"/>
	<path fill="#F1F2F2" d="M73.12,91.907h1.088v9.792c0,0.31,0.086,0.552,0.256,0.728c0.171,0.176,0.41,0.264,0.721,0.264
		c0.117,0,0.256-0.016,0.416-0.047s0.309-0.074,0.447-0.129l0.191,0.881c-0.203,0.086-0.451,0.154-0.744,0.207
		c-0.293,0.055-0.547,0.08-0.76,0.08c-0.502,0-0.896-0.141-1.184-0.424c-0.288-0.281-0.434-0.68-0.434-1.19V91.907H73.12z"/>
	<path fill="#F1F2F2" d="M80.944,103.747c-0.607,0-1.168-0.115-1.681-0.344c-0.513-0.229-0.954-0.544-1.328-0.944
		c-0.373-0.399-0.664-0.86-0.872-1.384s-0.313-1.083-0.313-1.682c0-0.586,0.104-1.138,0.313-1.654
		c0.208-0.518,0.499-0.971,0.872-1.36c0.374-0.39,0.813-0.698,1.32-0.928s1.063-0.345,1.672-0.345s1.165,0.115,1.672,0.345
		s0.94,0.541,1.306,0.937c0.361,0.395,0.645,0.849,0.848,1.359c0.201,0.512,0.303,1.057,0.303,1.632
		c0,0.086-0.003,0.171-0.008,0.257c-0.006,0.086-0.014,0.145-0.023,0.176h-7.119c0.03,0.447,0.135,0.861,0.312,1.24
		c0.176,0.379,0.399,0.707,0.672,0.983s0.587,0.493,0.944,0.647c0.356,0.154,0.738,0.231,1.144,0.231
		c0.276,0,0.55-0.037,0.815-0.112c0.268-0.074,0.513-0.176,0.736-0.304c0.225-0.128,0.424-0.285,0.6-0.472
		c0.177-0.188,0.313-0.393,0.408-0.616l0.943,0.256c-0.128,0.31-0.309,0.59-0.544,0.84c-0.233,0.251-0.507,0.47-0.815,0.656
		c-0.31,0.187-0.65,0.331-1.023,0.433C81.723,103.696,81.339,103.747,80.944,103.747z M84.016,98.978
		c-0.03-0.446-0.136-0.854-0.312-1.224c-0.176-0.368-0.4-0.686-0.672-0.952c-0.272-0.267-0.59-0.475-0.953-0.623
		c-0.362-0.149-0.746-0.225-1.151-0.225s-0.789,0.074-1.151,0.225c-0.363,0.148-0.681,0.356-0.951,0.623
		c-0.272,0.268-0.492,0.588-0.656,0.961c-0.166,0.373-0.264,0.778-0.297,1.215H84.016z"/>
</g>
</svg>
