<?xml version="1.0" encoding="utf-8"?>
<!-- Generator: Adobe Illustrator 16.0.0, SVG Export Plug-In . SVG Version: 6.00 Build 0)  -->
<!DOCTYPE svg PUBLIC "-//W3C//DTD SVG 1.1//EN" "http://www.w3.org/Graphics/SVG/1.1/DTD/svg11.dtd">
<svg version="1.1" id="Layer_1" xmlns="http://www.w3.org/2000/svg" xmlns:xlink="http://www.w3.org/1999/xlink" x="0px" y="0px"
	 width="120px" height="121px" viewBox="0 0 120 121" enable-background="new 0 0 120 121" xml:space="preserve">
<path fill="#0992A4" d="M120,115.408c0,3.088-2.152,5.592-4.807,5.592H4.804C2.152,121,0,118.496,0,115.408V5.591
	C0,2.504,2.152,0,4.804,0h110.391C117.848,0,120,2.504,120,5.591V115.408z"/>
<g>
	<circle fill="#F1F1F2" cx="61.307" cy="37.041" r="31.252"/>
	<circle fill="#0992A4" cx="61.306" cy="37.041" r="29.168"/>
	<path fill="#F1F2F2" d="M43.772,50.737h35.068c0,0,0.286-2.511-0.668-3.992c-1.059-1.652-4.62-2.683-8.141-4.15
		c-3.526-1.469-4.363-1.979-4.363-1.979l-0.953-3.378c0,0,2.244-1.016,2.651-4.195c0.828,0.237,1.692-2.155,1.739-2.93
		c0.047-0.743-0.115-1.899-1.124-1.688c0.025-0.16,0.044-0.32,0.063-0.479c0-0.01,0-0.017,0.002-0.022
		c0.173-1.359,0.282-2.546,0.225-3.203c-0.163-1.695-1.262-3.443-3.067-4.524c-0.013-0.005-0.025-0.009-0.041-0.014
		c-0.96-0.391-2.418-0.976-4.035-1.036c-1.426,0.036-2.78,0.283-3.696,1.036c-0.148,0.122-0.391,0.436-0.562,0.52
		c-0.057,0.026-1.291,0.281-1.844,1.203c-0.82,1.362-0.606,4.958-0.401,6.518c-1.009-0.211-1.166,0.945-1.121,1.688
		c0.048,0.774,0.911,3.167,1.74,2.93c0.405,3.179,2.652,4.195,2.652,4.195l-0.959,3.378c0,0-0.833,0.51-4.359,1.979
		c-3.524,1.468-7.082,2.499-8.144,4.15C43.487,48.226,43.772,50.737,43.772,50.737z"/>
</g>
<g>
	<path fill="#F1F2F2" d="M56.065,83.315v0.992h-7.632v-11.36h7.487v0.992h-6.384v4.096h5.568v0.944h-5.568v4.336H56.065z"/>
	<path fill="#F1F2F2" d="M61.121,84.468c-0.576,0-1.109-0.12-1.6-0.36c-0.491-0.24-0.915-0.557-1.272-0.952
		c-0.357-0.395-0.635-0.851-0.832-1.367c-0.197-0.518-0.296-1.059-0.296-1.624c0-0.587,0.096-1.145,0.288-1.673
		c0.191-0.527,0.456-0.989,0.792-1.384s0.736-0.706,1.2-0.936s0.973-0.345,1.527-0.345c0.704,0,1.328,0.185,1.872,0.553
		s0.977,0.813,1.296,1.336v-5.088h1.089v10.271c0,0.299,0.128,0.448,0.384,0.448v0.96c-0.182,0.032-0.326,0.048-0.433,0.048
		c-0.267,0-0.485-0.077-0.655-0.231c-0.171-0.155-0.257-0.339-0.257-0.553v-0.88c-0.341,0.544-0.792,0.977-1.352,1.296
		C62.313,84.308,61.729,84.468,61.121,84.468z M61.345,83.508c0.277,0,0.568-0.054,0.872-0.16c0.305-0.106,0.587-0.253,0.849-0.44
		c0.261-0.187,0.487-0.405,0.68-0.655c0.192-0.251,0.31-0.521,0.352-0.809v-2.576c-0.106-0.287-0.264-0.557-0.472-0.808
		c-0.208-0.25-0.442-0.472-0.704-0.664c-0.262-0.191-0.539-0.341-0.832-0.448c-0.293-0.106-0.584-0.159-0.872-0.159
		c-0.447,0-0.855,0.096-1.224,0.287c-0.368,0.192-0.68,0.446-0.937,0.761c-0.256,0.314-0.456,0.675-0.6,1.08
		s-0.216,0.821-0.216,1.248c0,0.447,0.08,0.874,0.24,1.279c0.159,0.405,0.378,0.761,0.655,1.064s0.605,0.547,0.984,0.728
		C60.5,83.417,60.907,83.508,61.345,83.508z"/>
	<path fill="#F1F2F2" d="M67.633,74.228v-1.6h1.088v1.6H67.633z M67.633,84.308v-8.336h1.088v8.336H67.633z"/>
	<path fill="#F1F2F2" d="M75.089,83.907c-0.064,0.032-0.157,0.075-0.28,0.128c-0.123,0.054-0.264,0.107-0.424,0.16
		c-0.16,0.054-0.342,0.102-0.544,0.145c-0.203,0.042-0.416,0.063-0.641,0.063c-0.234,0-0.458-0.031-0.672-0.096
		c-0.213-0.064-0.399-0.162-0.56-0.296s-0.288-0.302-0.384-0.504c-0.097-0.203-0.145-0.438-0.145-0.704v-5.968h-1.151v-0.864h1.151
		v-2.816h1.088v2.816h1.92v0.864h-1.92V82.5c0.021,0.31,0.128,0.535,0.32,0.68c0.192,0.144,0.421,0.216,0.688,0.216
		c0.309,0,0.581-0.051,0.815-0.152c0.234-0.101,0.384-0.173,0.448-0.216L75.089,83.907z"/>
	<path fill="#F1F2F2" d="M36.233,103.508V94.18l-4.144,7.216h-0.656l-4.16-7.216v9.328H26.17v-11.36h1.136l4.448,7.776l4.447-7.776
		h1.137v11.36H36.233z"/>
	<path fill="#F1F2F2" d="M40.426,106.084c0.053,0.011,0.106,0.019,0.159,0.023c0.054,0.006,0.106,0.009,0.16,0.009
		c0.106,0,0.222-0.011,0.344-0.032c0.123-0.021,0.211-0.043,0.265-0.064c0.053-0.021,0.109-0.066,0.168-0.136
		s0.133-0.192,0.224-0.368s0.205-0.421,0.344-0.735c0.139-0.315,0.315-0.739,0.528-1.272l-3.632-8.336h1.136l3.088,7.328
		l2.849-7.328h1.04l-4.336,10.752c-0.16,0.395-0.376,0.688-0.648,0.88c-0.271,0.192-0.653,0.288-1.144,0.288
		c-0.203,0-0.385-0.016-0.544-0.048V106.084z"/>
	<path fill="#F1F2F2" d="M52.554,103.508v-11.36h4.703c0.491,0,0.941,0.104,1.353,0.313c0.41,0.208,0.766,0.479,1.063,0.815
		c0.299,0.336,0.531,0.718,0.696,1.145s0.248,0.858,0.248,1.296c0,0.47-0.077,0.92-0.231,1.352
		c-0.155,0.433-0.376,0.813-0.664,1.145s-0.633,0.598-1.032,0.8c-0.4,0.203-0.846,0.304-1.336,0.304h-3.696v4.192H52.554z
		 M53.657,98.324h3.632c0.331,0,0.632-0.072,0.904-0.217c0.271-0.144,0.504-0.336,0.696-0.575c0.191-0.24,0.341-0.518,0.447-0.832
		s0.16-0.643,0.16-0.984c0-0.352-0.062-0.686-0.184-1c-0.123-0.314-0.288-0.589-0.496-0.824c-0.208-0.234-0.453-0.418-0.736-0.552
		c-0.282-0.133-0.578-0.2-0.888-0.2h-3.536V98.324z"/>
	<path fill="#F1F2F2" d="M66.377,96.132c-0.736,0.021-1.376,0.224-1.92,0.608c-0.544,0.384-0.928,0.911-1.152,1.584v5.184h-1.088
		v-8.336h1.024v2c0.288-0.587,0.666-1.074,1.136-1.464c0.469-0.39,0.976-0.584,1.52-0.584c0.097,0,0.187,0,0.272,0
		c0.085,0,0.154,0.005,0.208,0.016V96.132z"/>
	<path fill="#F1F2F2" d="M71.049,103.668c-0.607,0-1.165-0.115-1.672-0.344c-0.507-0.229-0.943-0.542-1.312-0.937
		s-0.653-0.854-0.856-1.376c-0.202-0.522-0.304-1.072-0.304-1.647c0-0.587,0.104-1.142,0.312-1.664s0.496-0.981,0.864-1.376
		s0.806-0.71,1.313-0.944c0.506-0.234,1.059-0.353,1.655-0.353c0.598,0,1.149,0.118,1.656,0.353s0.944,0.55,1.313,0.944
		c0.367,0.395,0.655,0.854,0.863,1.376s0.313,1.077,0.313,1.664c0,0.575-0.104,1.125-0.313,1.647s-0.496,0.981-0.863,1.376
		c-0.368,0.395-0.806,0.707-1.313,0.937C72.198,103.553,71.646,103.668,71.049,103.668z M68.025,99.38
		c0,0.47,0.077,0.904,0.231,1.304c0.155,0.4,0.368,0.752,0.641,1.057c0.271,0.304,0.592,0.541,0.96,0.712s0.76,0.256,1.176,0.256
		s0.808-0.088,1.176-0.265c0.368-0.176,0.69-0.416,0.969-0.72c0.276-0.304,0.495-0.658,0.655-1.063s0.24-0.843,0.24-1.313
		c0-0.458-0.08-0.894-0.24-1.304s-0.379-0.769-0.655-1.072c-0.278-0.304-0.598-0.544-0.961-0.72
		c-0.362-0.176-0.752-0.264-1.168-0.264s-0.808,0.088-1.176,0.264s-0.688,0.419-0.96,0.728c-0.271,0.31-0.488,0.67-0.647,1.08
		C68.105,98.471,68.025,98.91,68.025,99.38z"/>
	<path fill="#F1F2F2" d="M77.417,97.012h-1.152v-0.864h1.152v-1.199c0-0.385,0.056-0.773,0.168-1.168s0.288-0.747,0.527-1.057
		c0.24-0.309,0.547-0.563,0.921-0.76c0.373-0.197,0.815-0.296,1.327-0.296c0.598,0,1.104,0.091,1.521,0.271
		c0.416,0.182,0.715,0.342,0.896,0.48l-0.495,0.784c-0.182-0.16-0.438-0.296-0.769-0.408s-0.693-0.168-1.088-0.168
		c-0.342,0-0.632,0.069-0.872,0.208s-0.438,0.314-0.592,0.528c-0.155,0.213-0.27,0.458-0.344,0.735
		c-0.075,0.277-0.112,0.55-0.112,0.816v1.231h4.176v7.36h-1.088v-6.496h-3.088v6.496h-1.088V97.012z"/>
	<path fill="#F1F2F2" d="M85.064,91.828h1.088v9.792c0,0.31,0.086,0.552,0.256,0.728c0.171,0.176,0.411,0.264,0.721,0.264
		c0.117,0,0.256-0.016,0.416-0.048c0.16-0.031,0.309-0.074,0.447-0.128l0.192,0.88c-0.203,0.086-0.451,0.155-0.744,0.208
		c-0.293,0.054-0.547,0.08-0.76,0.08c-0.502,0-0.896-0.141-1.184-0.424c-0.288-0.282-0.433-0.68-0.433-1.191V91.828z"/>
	<path fill="#F1F2F2" d="M92.889,103.668c-0.608,0-1.168-0.115-1.681-0.344c-0.512-0.229-0.954-0.544-1.328-0.944
		c-0.373-0.4-0.664-0.861-0.872-1.384s-0.312-1.083-0.312-1.681c0-0.586,0.104-1.138,0.312-1.655s0.499-0.971,0.872-1.36
		c0.374-0.39,0.813-0.698,1.32-0.928s1.064-0.345,1.672-0.345c0.608,0,1.165,0.115,1.672,0.345s0.941,0.541,1.305,0.936
		c0.362,0.395,0.645,0.849,0.848,1.36C96.898,98.18,97,98.724,97,99.3c0,0.086-0.003,0.171-0.008,0.256
		c-0.006,0.086-0.014,0.145-0.023,0.176h-7.12c0.031,0.448,0.136,0.862,0.312,1.24c0.176,0.379,0.4,0.707,0.672,0.984
		c0.272,0.277,0.587,0.493,0.944,0.647c0.357,0.155,0.738,0.232,1.144,0.232c0.277,0,0.55-0.037,0.816-0.112
		c0.267-0.074,0.512-0.176,0.736-0.304c0.224-0.128,0.424-0.285,0.6-0.472s0.312-0.393,0.408-0.616l0.943,0.256
		c-0.128,0.31-0.309,0.59-0.544,0.84c-0.234,0.251-0.507,0.47-0.815,0.656c-0.31,0.187-0.651,0.331-1.024,0.432
		C93.667,103.617,93.283,103.668,92.889,103.668z M95.96,98.899c-0.031-0.447-0.136-0.855-0.312-1.224s-0.4-0.686-0.672-0.952
		c-0.272-0.267-0.59-0.475-0.952-0.624c-0.363-0.149-0.747-0.224-1.152-0.224s-0.789,0.074-1.151,0.224
		c-0.363,0.149-0.681,0.357-0.952,0.624c-0.272,0.267-0.491,0.587-0.656,0.96c-0.166,0.374-0.264,0.779-0.296,1.216H95.96z"/>
</g>
</svg>
