<?xml version="1.0" encoding="utf-8"?>
<!-- Generator: Adobe Illustrator 16.0.0, SVG Export Plug-In . SVG Version: 6.00 Build 0)  -->
<!DOCTYPE svg PUBLIC "-//W3C//DTD SVG 1.1//EN" "http://www.w3.org/Graphics/SVG/1.1/DTD/svg11.dtd">
<svg version="1.1" id="Layer_1" xmlns="http://www.w3.org/2000/svg" xmlns:xlink="http://www.w3.org/1999/xlink" x="0px" y="0px"
	 width="155px" height="97px" viewBox="0 0 155 97" enable-background="new 0 0 155 97" xml:space="preserve">
<g>
	<path fill="#0992A4" d="M155,89.003c0,4.416-3.584,7.998-8.003,7.998H8.004C3.584,97.001,0,93.419,0,89.003V7.997
		C0,3.581,3.584,0,8.004,0h138.993C151.416,0,155,3.581,155,7.997V89.003z"/>
	<g>
		<path fill="#F1F2F2" d="M22.242,82.679v1.551h-11.93V66.487h11.705v1.549h-9.98v6.396h8.705v1.475h-8.705v6.771H22.242z"/>
		<path fill="#F1F2F2" d="M30.145,84.479c-0.899,0-1.734-0.188-2.5-0.563c-0.768-0.375-1.43-0.871-1.988-1.488
			c-0.56-0.615-0.992-1.328-1.301-2.135c-0.309-0.809-0.463-1.654-0.463-2.537c0-0.916,0.15-1.787,0.45-2.611
			s0.713-1.545,1.237-2.162c0.525-0.615,1.151-1.102,1.876-1.461c0.726-0.357,1.522-0.537,2.389-0.537
			c1.101,0,2.076,0.287,2.927,0.861s1.525,1.271,2.025,2.088v-7.947h1.701V82.03c0,0.465,0.2,0.699,0.6,0.699v1.5
			c-0.283,0.049-0.509,0.074-0.675,0.074c-0.417,0-0.759-0.121-1.026-0.361c-0.266-0.242-0.398-0.529-0.398-0.863v-1.375
			c-0.535,0.85-1.238,1.525-2.113,2.025C32.009,84.229,31.096,84.479,30.145,84.479z M30.496,82.979c0.432,0,0.888-0.084,1.362-0.25
			c0.476-0.166,0.917-0.395,1.325-0.688c0.409-0.291,0.764-0.633,1.063-1.025c0.3-0.391,0.483-0.811,0.55-1.26v-4.023
			c-0.167-0.451-0.412-0.871-0.737-1.264c-0.325-0.391-0.692-0.736-1.101-1.035c-0.408-0.301-0.843-0.533-1.301-0.701
			c-0.458-0.166-0.912-0.25-1.363-0.25c-0.7,0-1.338,0.15-1.912,0.451c-0.576,0.299-1.063,0.695-1.464,1.186
			c-0.4,0.492-0.714,1.055-0.938,1.688s-0.338,1.283-0.338,1.949c0,0.699,0.125,1.365,0.375,2c0.25,0.631,0.593,1.186,1.026,1.66
			s0.946,0.855,1.538,1.137C29.174,82.837,29.812,82.979,30.496,82.979z"/>
		<path fill="#F1F2F2" d="M40.324,68.485v-2.498h1.701v2.498H40.324z M40.324,84.229V71.21h1.701v13.02H40.324z"/>
		<path fill="#F1F2F2" d="M51.979,83.604c-0.1,0.049-0.246,0.117-0.438,0.199c-0.191,0.084-0.412,0.168-0.662,0.25
			c-0.25,0.084-0.534,0.158-0.851,0.225c-0.317,0.066-0.649,0.102-1.001,0.102c-0.366,0-0.717-0.051-1.05-0.15
			c-0.334-0.1-0.626-0.254-0.876-0.463s-0.449-0.471-0.6-0.787s-0.226-0.684-0.226-1.1v-9.32h-1.8v-1.35h1.8v-4.398h1.701v4.398
			h3.001v1.35h-3.001v8.846c0.033,0.482,0.2,0.838,0.5,1.061c0.3,0.227,0.659,0.338,1.075,0.338c0.484,0,0.909-0.078,1.275-0.236
			c0.367-0.158,0.602-0.271,0.701-0.338L51.979,83.604z"/>
		<path fill="#F1F2F2" d="M64.759,84.479c-1.017,0-2.01-0.168-2.977-0.5c-0.968-0.334-1.801-0.816-2.501-1.451l0.775-1.148
			c0.734,0.6,1.479,1.049,2.238,1.35c0.76,0.299,1.572,0.449,2.438,0.449c1.05,0,1.889-0.213,2.514-0.637
			c0.626-0.424,0.938-1.029,0.938-1.813c0-0.365-0.084-0.67-0.25-0.91c-0.168-0.242-0.413-0.455-0.738-0.639
			s-0.733-0.346-1.227-0.486c-0.49-0.143-1.063-0.289-1.712-0.438c-0.751-0.184-1.401-0.367-1.951-0.551
			c-0.55-0.182-1.005-0.391-1.362-0.625c-0.359-0.232-0.626-0.52-0.801-0.861c-0.176-0.34-0.263-0.77-0.263-1.287
			c0-0.65,0.129-1.225,0.388-1.725c0.258-0.5,0.607-0.912,1.051-1.236c0.441-0.324,0.958-0.57,1.551-0.736
			c0.592-0.166,1.221-0.25,1.888-0.25c1.001,0,1.909,0.162,2.726,0.486c0.816,0.326,1.477,0.754,1.977,1.287l-0.826,1
			c-0.482-0.5-1.07-0.875-1.763-1.125s-1.413-0.375-2.163-0.375c-0.45,0-0.867,0.047-1.25,0.137
			c-0.385,0.092-0.723,0.238-1.014,0.438c-0.292,0.201-0.521,0.455-0.688,0.764c-0.168,0.309-0.25,0.67-0.25,1.086
			c0,0.35,0.057,0.635,0.175,0.85c0.116,0.217,0.309,0.404,0.575,0.563s0.604,0.299,1.014,0.424
			c0.408,0.125,0.903,0.256,1.487,0.389c0.833,0.199,1.567,0.4,2.201,0.6s1.163,0.434,1.587,0.699
			c0.426,0.268,0.747,0.592,0.964,0.975c0.216,0.385,0.325,0.85,0.325,1.398c0,1.201-0.459,2.15-1.375,2.85
			C67.543,84.13,66.309,84.479,64.759,84.479z"/>
		<path fill="#F1F2F2" d="M83.517,84.229h-1.7v-7.273c0-1.48-0.256-2.59-0.764-3.322c-0.509-0.732-1.255-1.1-2.237-1.1
			c-0.485,0-0.964,0.096-1.438,0.287c-0.477,0.191-0.922,0.455-1.339,0.787c-0.418,0.334-0.78,0.725-1.087,1.174
			c-0.309,0.451-0.539,0.943-0.688,1.475v7.973h-1.7V65.987h1.7v8.17c0.534-0.982,1.258-1.756,2.177-2.322
			c0.916-0.566,1.898-0.85,2.95-0.85c0.75,0,1.387,0.137,1.913,0.412c0.525,0.275,0.951,0.658,1.275,1.148
			c0.324,0.492,0.563,1.084,0.713,1.775c0.151,0.691,0.226,1.453,0.226,2.285V84.229z"/>
		<path fill="#F1F2F2" d="M90.496,84.479c-0.669,0-1.276-0.105-1.827-0.313c-0.549-0.209-1.022-0.496-1.413-0.863
			c-0.393-0.365-0.695-0.791-0.912-1.273c-0.217-0.484-0.326-0.992-0.326-1.525c0-0.6,0.135-1.145,0.4-1.637
			c0.268-0.49,0.643-0.912,1.125-1.262c0.484-0.35,1.063-0.621,1.739-0.813c0.674-0.191,1.421-0.287,2.237-0.287
			c0.65,0,1.317,0.059,2.001,0.176c0.684,0.115,1.293,0.283,1.827,0.5v-1.174c0-1.15-0.331-2.063-0.989-2.738
			c-0.658-0.674-1.545-1.012-2.663-1.012c-0.699,0-1.397,0.133-2.089,0.4c-0.691,0.266-1.396,0.65-2.112,1.15l-0.602-1.125
			c0.852-0.566,1.677-0.99,2.478-1.275c0.799-0.283,1.634-0.424,2.501-0.424c1.583,0,2.841,0.459,3.775,1.373
			c0.934,0.918,1.4,2.184,1.4,3.799v5.873c0,0.465,0.201,0.699,0.601,0.699v1.5c-0.133,0.016-0.259,0.029-0.376,0.037
			c-0.115,0.008-0.217,0.012-0.299,0.012c-0.334,0-0.639-0.1-0.912-0.299c-0.275-0.201-0.43-0.5-0.463-0.9l-0.051-1.023
			c-0.567,0.766-1.313,1.361-2.237,1.785C92.383,84.267,91.445,84.479,90.496,84.479z M90.92,83.179c0.75,0,1.496-0.162,2.239-0.486
			c0.74-0.324,1.328-0.771,1.762-1.338c0.117-0.15,0.218-0.313,0.302-0.486c0.082-0.176,0.125-0.338,0.125-0.488v-2.123
			c-0.567-0.217-1.159-0.383-1.776-0.5s-1.218-0.176-1.802-0.176c-1.217,0-2.204,0.246-2.962,0.738
			c-0.761,0.49-1.14,1.17-1.14,2.035c0,0.35,0.066,0.691,0.201,1.025c0.133,0.334,0.337,0.633,0.612,0.9
			c0.275,0.266,0.613,0.482,1.014,0.648C89.894,83.097,90.37,83.179,90.92,83.179z"/>
		<path fill="#F1F2F2" d="M107.251,72.708c-1.151,0.035-2.151,0.352-3.002,0.951c-0.85,0.6-1.449,1.424-1.799,2.475v8.096h-1.702
			V71.21h1.601v3.123c0.451-0.916,1.043-1.678,1.775-2.287c0.735-0.607,1.526-0.91,2.376-0.91c0.15,0,0.291,0,0.427,0
			c0.133,0,0.24,0.008,0.324,0.023V72.708z"/>
		<path fill="#F1F2F2" d="M109.527,68.485v-2.498h1.701v2.498H109.527z M109.527,84.229V71.21h1.701v13.02H109.527z"/>
		<path fill="#F1F2F2" d="M125.835,84.229h-1.702v-7.273c0-1.549-0.225-2.674-0.674-3.373c-0.452-0.699-1.151-1.049-2.103-1.049
			c-0.501,0-1.001,0.092-1.501,0.275s-0.967,0.441-1.399,0.773c-0.434,0.334-0.813,0.729-1.139,1.188
			c-0.324,0.459-0.57,0.955-0.736,1.486v7.973h-1.702V71.21h1.552v2.947c0.266-0.465,0.596-0.895,0.986-1.285
			c0.393-0.393,0.83-0.73,1.313-1.012c0.484-0.283,0.996-0.5,1.539-0.65c0.541-0.15,1.104-0.225,1.688-0.225
			c0.732,0,1.347,0.133,1.837,0.4c0.492,0.266,0.889,0.641,1.188,1.123c0.301,0.484,0.518,1.074,0.65,1.773
			c0.134,0.701,0.202,1.477,0.202,2.324V84.229z"/>
		<path fill="#F1F2F2" d="M134.637,84.403c-0.9,0-1.721-0.188-2.464-0.563c-0.742-0.375-1.383-0.869-1.925-1.486
			c-0.543-0.615-0.963-1.324-1.264-2.123c-0.299-0.801-0.449-1.625-0.449-2.475c0-0.9,0.145-1.762,0.438-2.586
			c0.291-0.826,0.703-1.545,1.236-2.162c0.534-0.617,1.173-1.107,1.915-1.475c0.741-0.365,1.563-0.549,2.462-0.549
			c1.118,0,2.085,0.279,2.902,0.838c0.816,0.557,1.518,1.26,2.1,2.111V71.21h1.526v13.068c0,0.9-0.17,1.695-0.512,2.387
			s-0.801,1.27-1.376,1.736c-0.576,0.467-1.254,0.816-2.038,1.049c-0.785,0.234-1.609,0.352-2.478,0.352
			c-1.482,0-2.685-0.268-3.601-0.801c-0.917-0.533-1.659-1.248-2.226-2.148l1.051-0.824c0.517,0.832,1.2,1.445,2.05,1.836
			c0.851,0.393,1.759,0.588,2.726,0.588c0.636,0,1.239-0.088,1.813-0.262c0.576-0.176,1.077-0.434,1.501-0.775
			c0.426-0.342,0.764-0.775,1.014-1.299c0.25-0.525,0.375-1.139,0.375-1.838v-2.574c-0.518,0.834-1.205,1.492-2.063,1.975
			C136.491,84.163,135.587,84.403,134.637,84.403z M135.112,82.979c0.5,0,0.992-0.092,1.475-0.275
			c0.484-0.184,0.923-0.428,1.313-0.736c0.393-0.309,0.721-0.654,0.988-1.037c0.266-0.385,0.441-0.775,0.525-1.174v-4.023
			c-0.184-0.467-0.438-0.9-0.764-1.301c-0.324-0.398-0.688-0.74-1.086-1.023c-0.401-0.283-0.831-0.508-1.29-0.676
			c-0.457-0.166-0.92-0.25-1.388-0.25c-0.734,0-1.383,0.154-1.949,0.463c-0.569,0.309-1.052,0.713-1.452,1.211
			c-0.4,0.5-0.703,1.068-0.912,1.701c-0.21,0.633-0.313,1.273-0.313,1.924c0,0.699,0.126,1.365,0.376,1.998s0.592,1.188,1.025,1.662
			s0.945,0.85,1.538,1.125C133.791,82.841,134.428,82.979,135.112,82.979z"/>
	</g>
	<g>
		<g>
			<polygon fill="#F1F2F2" points="100.73,36.212 95.077,36.255 95.077,29.149 95.077,23.907 95.077,22.108 70.097,22.108 
				70.097,29.149 88.031,29.149 88.03,36.312 81.871,36.361 91.308,51.024 			"/>
			<polygon fill="#F1F2F2" points="50.271,36.919 55.925,36.877 55.925,43.984 55.925,49.226 55.925,51.024 80.906,51.024 
				80.906,43.984 62.971,43.984 62.972,36.819 69.131,36.772 59.695,22.108 			"/>
		</g>
	</g>
</g>
</svg>
