<?xml version="1.0" encoding="utf-8"?>
<!-- Generator: Adobe Illustrator 16.0.0, SVG Export Plug-In . SVG Version: 6.00 Build 0)  -->
<!DOCTYPE svg PUBLIC "-//W3C//DTD SVG 1.1//EN" "http://www.w3.org/Graphics/SVG/1.1/DTD/svg11.dtd">
<svg version="1.1" id="Layer_1" xmlns="http://www.w3.org/2000/svg" xmlns:xlink="http://www.w3.org/1999/xlink" x="0px" y="0px"
	 width="33px" height="20px" viewBox="0 0 33 20" enable-background="new 0 0 33 20" xml:space="preserve">
<g>
	<g>
		<path fill="#542437" d="M22.182,12.116l-5.18,5.391c-0.215,0.224-0.589,0.225-0.804,0l-5.126-5.317L0.809,19.9
			C0.928,19.962,1.059,20,1.2,20h30.599c0.145,0,0.279-0.039,0.398-0.104L22.182,12.116z"/>
		<path fill="#542437" d="M32.967,19.241c0.02-0.073,0.033-0.15,0.033-0.23V1.112l-9.99,10.395L32.967,19.241z"/>
		<path fill="#542437" d="M10.243,11.67L0,1.048v18.054c0,0.083,0.015,0.162,0.035,0.238L10.243,11.67z"/>
	</g>
	<path fill="#542437" d="M16.913,16.205L32.445,0.043L0.554,0l15.623,16.204C16.375,16.409,16.717,16.409,16.913,16.205z"/>
</g>
</svg>
