<?xml version="1.0" encoding="utf-8"?>
<!-- Generator: Adobe Illustrator 16.0.0, SVG Export Plug-In . SVG Version: 6.00 Build 0)  -->
<!DOCTYPE svg PUBLIC "-//W3C//DTD SVG 1.1//EN" "http://www.w3.org/Graphics/SVG/1.1/DTD/svg11.dtd">
<svg version="1.1" id="Layer_1" xmlns="http://www.w3.org/2000/svg" xmlns:xlink="http://www.w3.org/1999/xlink" x="0px" y="0px"
	 width="24.167px" height="14.646px" viewBox="0 0 24.167 14.646" enable-background="new 0 0 24.167 14.646" xml:space="preserve">
<g>
	<g>
		<path fill="#542437" d="M16.244,8.873l-3.793,3.948c-0.157,0.164-0.431,0.165-0.589,0L8.108,8.927l-7.516,5.646
			c0.087,0.045,0.183,0.074,0.287,0.074h22.408c0.106,0,0.205-0.029,0.292-0.076L16.244,8.873z"/>
		<path fill="#542437" d="M24.143,14.091c0.015-0.053,0.024-0.109,0.024-0.168V0.814l-7.316,7.612L24.143,14.091z"/>
		<path fill="#542437" d="M7.501,8.546L0,0.768v13.222c0,0.061,0.011,0.118,0.026,0.174L7.501,8.546z"/>
	</g>
	<path fill="#542437" d="M12.386,11.868L23.761,0.032L0.406,0l11.441,11.866C11.992,12.017,12.242,12.017,12.386,11.868z"/>
</g>
<g>
	<g>
		<path fill="#542437" d="M8.149-25.81c0.003-1.091,0.887-1.976,1.977-1.977h3.912v-2.63h-3.912c-2.545,0-4.606,2.061-4.606,4.607
			v2.567h2.629V-25.81z"/>
		<path fill="#542437" d="M19.457-22.627c-0.166-0.041-0.338-0.066-0.514-0.066h-0.164h-0.1h-2.63h-0.777h-1.202H8.893H8.117v0.777
			v0.114H5.488v-0.114v-0.777H5.225c-0.177,0-0.35,0.025-0.514,0.066c-0.913,0.23-1.59,1.054-1.59,2.039v2.411h1.907
			c0.29,0,0.527,0.234,0.527,0.525c0,0.291-0.236,0.526-0.527,0.526H3.121v1.314h1.907c0.29,0,0.527,0.235,0.527,0.527
			c0,0.29-0.236,0.526-0.527,0.526H3.121v1.315h1.907c0.29,0,0.527,0.235,0.527,0.526c0,0.291-0.237,0.524-0.527,0.524H3.121v0.79
			c0,1.161,0.942,2.103,2.104,2.103h13.718c1.161,0,2.103-0.942,2.103-2.103v-8.984C21.048-21.573,20.369-22.397,19.457-22.627z
			 M12.953-15.028v2.052h-1.739v-2.052c-0.787-0.338-1.338-1.12-1.338-2.029c0-1.22,0.989-2.209,2.208-2.209
			c1.22,0,2.209,0.99,2.209,2.209C14.292-16.149,13.741-15.367,12.953-15.028z"/>
	</g>
	<path fill="#542437" d="M8.149-25.81c0.003-1.091,0.887-1.976,1.977-1.977h3.912v-2.63h-3.912c-2.545,0-4.606,2.061-4.606,4.607
		v2.567h2.629V-25.81z M14.072-22.693H8.894H8.118v0.777v0.114h-2.63v-0.114v-0.777H5.225c-0.177,0-0.35,0.025-0.514,0.066
		c-0.809,0.204-1.429,0.873-1.562,1.708c0.758,0.058,1.475,0.092,2.131,0.092c3.808,0,6.237-1.107,8.952-1.865H14.072z"/>
</g>
</svg>
