<?xml version="1.0" encoding="utf-8"?>
<!-- Generator: Adobe Illustrator 16.0.0, SVG Export Plug-In . SVG Version: 6.00 Build 0)  -->
<!DOCTYPE svg PUBLIC "-//W3C//DTD SVG 1.1//EN" "http://www.w3.org/Graphics/SVG/1.1/DTD/svg11.dtd">
<svg version="1.1" id="Layer_1" xmlns="http://www.w3.org/2000/svg" xmlns:xlink="http://www.w3.org/1999/xlink" x="0px" y="0px"
	 width="256px" height="171px" viewBox="0 0 256 171" enable-background="new 0 0 256 171" xml:space="preserve">
<g>
	<rect x="1" fill="#F1F1F2" width="256" height="171"/>
	<path fill="#E6E7E8" d="M160.594,85.5l-0.566,0.566c0.178,0.225,0.287,0.502,0.287,0.807c0,14.273-3.957,23.773-14.149,34
		c-2.495,2.449-5.337,4.988-8.392,7.57l-0.858,16.285c-0.043,0.434-0.302,0.858-0.687,1.123l-16.519,9.625
		c-0.216,0.125-0.432,0.176-0.69,0.176c-0.006,0-0.013-0.004-0.02-0.004L134.363,171H246.16L160.594,85.5z"/>
	<g>
		<path fill="#542437" d="M27.577,65.282V34.231h18.682v3.95H31.976v9.411h13.881v3.994H31.976v9.701h14.749v3.995H27.577z"/>
		<path fill="#542437" d="M58.231,65.683l-9.884-20.909l4.545,0.003l6.335,13.606l5.895-13.617l4.464,0.008L60.14,65.683H58.231z"/>
		<path fill="#542437" d="M89.793,63.106c-1.317,0.846-2.711,1.491-4.184,1.944c-1.476,0.451-2.977,0.676-4.5,0.676
			c-3.229,0-5.813-1.001-7.751-3.007c-1.941-2.005-2.91-4.68-2.91-8.025c0-3.076,0.928-5.566,2.787-7.467
			c1.859-1.902,4.283-2.853,7.275-2.853c2.947,0,5.291,0.97,7.03,2.908c1.741,1.939,2.61,4.558,2.61,7.857v0.6H74.778
			c0,0.933,0.167,1.78,0.5,2.542c0.333,0.761,0.804,1.43,1.411,2.007c1.169,1.082,2.717,1.622,4.642,1.622
			c1.333,0,2.699-0.241,4.098-0.722c1.402-0.48,2.855-1.209,4.365-2.185L89.793,63.106L89.793,63.106z M74.778,52.831l10.864-0.022
			c-0.134-1.449-0.675-2.634-1.624-3.552c-0.948-0.915-2.132-1.375-3.552-1.375c-1.557,0-2.814,0.413-3.777,1.245
			C75.727,49.953,75.09,51.187,74.778,52.831z"/>
		<path fill="#542437" d="M93.968,65.282V44.773h4.089v2.508c1.036-0.983,2.065-1.695,3.087-2.136
			c1.021-0.441,2.104-0.66,3.244-0.66c2.205,0,3.953,0.644,5.241,1.93c1.289,1.285,1.933,3.051,1.933,5.3v13.567h-4.087V52.757
			c0-1.641-0.352-2.858-1.055-3.657c-0.705-0.8-1.796-1.198-3.277-1.198c-1.037,0-1.946,0.198-2.734,0.601
			c-0.784,0.397-1.568,1.071-2.352,2.014v14.764L93.968,65.282L93.968,65.282z"/>
		<path fill="#542437" d="M127.998,64.639c-0.578,0.326-1.243,0.579-1.998,0.766c-0.754,0.185-1.563,0.278-2.42,0.278
			c-2.311,0-3.937-0.548-4.878-1.642c-0.94-1.096-1.411-3.094-1.411-5.997v-9.719h-3.485v-0.399l7.173-7.925h0.467v4.772h6.418
			v3.552h-6.418v9.413c0,1.686,0.206,2.788,0.621,3.306c0.431,0.489,1.223,0.73,2.377,0.73c0.666,0,1.284-0.08,1.855-0.242
			c0.568-0.163,1.136-0.417,1.698-0.754L127.998,64.639L127.998,64.639z"/>
		<path fill="#FFD093" d="M176.316,55.006c0-2.974,1.059-5.497,3.176-7.57c2.119-2.07,4.703-3.105,7.752-3.105
			c1.423,0,2.795,0.273,4.121,0.82c1.328,0.548,2.507,1.34,3.543,2.374c1.035,1.035,1.826,2.194,2.377,3.474
			c0.548,1.281,0.82,2.616,0.82,4.007c0,1.42-0.281,2.789-0.844,4.106c-0.281,0.665-0.615,1.288-1,1.864
			c-0.385,0.577-0.844,1.117-1.377,1.619c-1.008,1.008-2.167,1.771-3.488,2.298c-1.315,0.524-2.701,0.789-4.151,0.789
			c-3.05,0-5.634-1.037-7.753-3.109C177.374,60.502,176.316,57.98,176.316,55.006z M180.602,55.006c0,1.893,0.646,3.519,1.945,4.872
			c1.295,1.355,2.846,2.031,4.654,2.031c1.789,0,3.338-0.68,4.641-2.041c1.303-1.362,1.955-2.982,1.955-4.862
			c0-1.85-0.65-3.455-1.943-4.816c-1.296-1.361-2.848-2.041-4.652-2.041c-1.822,0-3.377,0.667-4.666,2.007
			C181.248,51.495,180.602,53.111,180.602,55.006z"/>
		<path fill="#FFD093" d="M200.658,63.883v-4.372c1.229,0.798,2.42,1.417,3.566,1.854c1.146,0.437,2.188,0.654,3.12,0.654
			c1.065,0,1.896-0.194,2.489-0.588c0.59-0.391,0.888-0.928,0.888-1.608c0-0.845-1.118-1.827-3.354-2.952l-1.51-0.777
			c-1.926-0.977-3.238-1.921-3.942-2.83c-0.703-0.91-1.056-2.022-1.056-3.34c0-1.717,0.614-3.077,1.844-4.084
			c1.229-1.006,2.916-1.508,5.064-1.508c1.187,0,2.303,0.137,3.354,0.411c1.05,0.273,2.089,0.697,3.106,1.274v3.996
			c-1.242-0.695-2.397-1.207-3.464-1.531c-0.504-0.163-1-0.288-1.487-0.379c-0.489-0.087-0.978-0.133-1.467-0.133
			c-0.475,0-0.859,0.032-1.154,0.091c-0.297,0.06-0.576,0.178-0.844,0.354c-0.459,0.297-0.689,0.726-0.689,1.288
			c0,1.021,1.431,2.244,4.289,3.662l0.377,0.18c2.219,1.105,3.677,2.097,4.363,2.961c0.688,0.867,1.033,1.942,1.033,3.231
			c0,1.806-0.678,3.248-2.033,4.328c-1.353,1.08-3.149,1.621-5.385,1.621c-1.332,0-2.574-0.149-3.721-0.446
			C202.9,64.943,201.771,64.491,200.658,63.883z"/>
		<path fill="#FFD093" d="M230.423,64.639c-0.577,0.326-1.245,0.579-1.999,0.766c-0.755,0.185-1.561,0.278-2.42,0.278
			c-2.313,0-3.938-0.548-4.875-1.642c-0.939-1.096-1.41-3.094-1.41-5.997v-9.719h-3.488v-0.399l7.178-7.925h0.464v4.772h6.422v3.552
			h-6.422v9.413c0,1.686,0.206,2.788,0.622,3.306c0.429,0.489,1.222,0.73,2.375,0.73c0.668,0,1.283-0.08,1.855-0.242
			c0.572-0.163,1.137-0.417,1.698-0.754V64.639z"/>
		<g>
			<circle fill="#FFD093" cx="168.584" cy="27.181" r="3.092"/>
		</g>
		<g>
			<circle fill="#542437" cx="139.689" cy="27.181" r="3.093"/>
		</g>
		<g>
			<path fill="#FFD093" d="M152.97,48.567c-0.028-0.063,3.651,1.181,14.16-13.514c1.793-2.152,3.983-1.332,4.382,0.038
				c0,2.848,0,30.349,0,30.349h-4.184V41.747c-2.543,3.182-6.525,7.005-11.858,8.665c-0.397,0.317-0.968,0.576-1.626,0.707
				c-0.314,0.063-0.624,0.088-0.911,0.083c-0.931-0.019-1.729-1.324-1.622-1.519C151.566,49.226,152.184,48.804,152.97,48.567z"/>
		</g>
		<g>
			<path fill="#542437" d="M155.494,48.567c0,0-3.652,1.181-14.16-13.514c-1.791-2.152-3.982-1.332-4.381,0.038
				c0,2.848,0,30.349,0,30.349h4.184V41.747c2.543,3.182,6.525,7.005,11.857,8.665c0.398,0.317,0.968,0.576,1.627,0.707
				c0.313,0.063,0.535,0.092,0.91,0.083c0.375-0.006,1.746-0.702,1.625-1.519C157.302,48.556,155.494,48.567,155.494,48.567z"/>
		</g>
		<g>
			<path fill="#FFD093" d="M153.656,50.982c-0.317,0.409-1.115,0.321-1.779-0.197c-0.664-0.518-0.941-1.271-0.622-1.68
				c0.16-0.203,0.44-0.284,0.763-0.25c0.32,0.037,1.521,0.94,1.646,1.205C153.828,50.404,153.841,50.749,153.656,50.982z"/>
		</g>
	</g>
	<path fill="none" d="M146.55,95.131c-2.278,0-4.129,1.842-4.129,4.123c0,1.213,0.53,2.289,1.362,3.043l5.813-5.809
		C148.841,95.66,147.762,95.131,146.55,95.131z"/>
	<path fill="#FFD093" d="M142.421,99.254c0-2.281,1.851-4.123,4.129-4.123c1.212,0,2.291,0.529,3.046,1.357l10.432-10.422
		c-0.272-0.346-0.707-0.566-1.174-0.566c-14.972,0-23.187,3.439-33.942,14.143c-2.449,2.493-4.988,5.325-7.569,8.385l-16.302,0.852
		c-0.432,0.051-0.862,0.301-1.119,0.689l-9.635,16.506c-0.301,0.514-0.217,1.203,0.213,1.68l2.753,2.75
		c0.26,0.258,0.646,0.383,0.991,0.383c0.128,0,0.257,0,0.385-0.037l11.875-3.66l6.184,6.183l31.097-31.074
		C142.951,101.543,142.421,100.467,142.421,99.254z"/>
	<path fill="#06737B" d="M115.276,152.514l2.753,2.748c0.295,0.254,0.633,0.381,0.971,0.387l-4.109-4.106
		C114.901,151.887,115.031,152.234,115.276,152.514z"/>
	<path fill="#542437" d="M119.71,155.477l16.519-9.625c0.385-0.264,0.644-0.688,0.687-1.123l0.858-16.285
		c3.055-2.582,5.896-5.12,8.392-7.569c10.192-10.228,14.149-19.728,14.149-34c0-0.306-0.109-0.582-0.287-0.808l-10.432,10.423
		c0.667,0.733,1.083,1.696,1.083,2.766c0,2.281-1.851,4.123-4.129,4.123c-1.067,0-2.032-0.416-2.767-1.08l-31.096,31.074
		l5.903,5.899l-3.656,11.869c-0.037,0.131-0.047,0.267-0.043,0.4l4.109,4.107c0.007,0,0.013,0.004,0.02,0.004
		C119.278,155.652,119.493,155.602,119.71,155.477z"/>
</g>
</svg>
