<?xml version="1.0" encoding="utf-8"?>
<!-- Generator: Adobe Illustrator 16.0.0, SVG Export Plug-In . SVG Version: 6.00 Build 0)  -->
<!DOCTYPE svg PUBLIC "-//W3C//DTD SVG 1.1//EN" "http://www.w3.org/Graphics/SVG/1.1/DTD/svg11.dtd">
<svg version="1.1" id="Layer_1" xmlns="http://www.w3.org/2000/svg" xmlns:xlink="http://www.w3.org/1999/xlink" x="0px" y="0px"
	 width="200px" height="176px" viewBox="0 0 200 176" enable-background="new 0 0 200 176" xml:space="preserve">
<g>
	<path fill="#0992A4" d="M118.5,5.304v43.157h61.236c8.279,0,14.979,6.729,14.979,15.033v92.164c0,8.308-6.699,15.042-14.979,15.042
		H20.246c-8.256,0-14.963-6.734-14.963-15.042V63.494c0-8.304,6.707-15.033,14.963-15.033h61.251V5.304H118.5 M99.996,26.388
		c3.273,0,5.912-2.656,5.912-5.935c0-3.269-2.639-5.934-5.912-5.934c-3.253,0-5.912,2.666-5.912,5.934
		C94.084,23.732,96.743,26.388,99.996,26.388 M85.977,56.76c-2.338,0-4.203-1.831-4.398-4.126H63.818
		c-2.401,0-4.347,1.944-4.347,4.356c0,2.408,1.946,4.361,4.347,4.361h72.366c2.391,0,4.338-1.953,4.338-4.361
		c0-2.412-1.947-4.356-4.338-4.356h-17.756c-0.203,2.295-2.07,4.126-4.424,4.126H85.977 M39.978,110.959
		c-0.145-0.029-0.277-0.049-0.395-0.049c-1.396,0-1.615,1.792-1.542,2.98c0.08,1.275,1.442,5.116,2.815,5.116
		c0.063,0,0.136-0.011,0.197-0.03c0.704,5.523,4.58,7.281,4.58,7.281l-1.665,5.857c0,0-1.43,0.894-7.53,3.442
		c-6.092,2.549-12.25,4.337-14.087,7.208c-1.639,2.58-1.144,6.93-1.144,6.93h60.647c0,0,0.498-4.35-1.156-6.93
		c-1.837-2.871-7.993-4.659-14.079-7.208c-6.093-2.549-7.548-3.442-7.548-3.442l-1.651-5.857c0,0,3.888-1.758,4.591-7.281
		c0.071,0.02,0.134,0.03,0.207,0.03c1.366,0,2.733-3.841,2.803-5.116c0.076-1.188-0.165-2.98-1.547-2.98
		c-0.126,0-0.261,0.02-0.403,0.049c0.043-0.276,0.07-0.557,0.105-0.84c0-0.01,0-0.027,0.011-0.027
		c0.296-2.365,0.483-4.424,0.379-5.559c-0.276-2.96-2.175-5.99-5.299-7.864c-0.019-0.013-0.045-0.021-0.065-0.021
		c-1.672-0.686-4.185-1.699-6.981-1.808c-2.465,0.069-4.803,0.496-6.395,1.808c-0.255,0.205-0.672,0.757-0.974,0.9
		c-0.088,0.039-2.222,0.484-3.184,2.091C39.258,102.002,39.619,108.246,39.978,110.959 M90.799,100.377h80.751v-5.303H90.799
		V100.377 M90.799,110.98h80.751v-5.301H90.799V110.98 M90.799,121.584h80.751v-5.303H90.799V121.584 M90.799,131.852h61.248v-4.625
		H90.799V131.852 M99.996,15.587c2.684,0,4.857,2.173,4.857,4.866c0,2.69-2.174,4.879-4.857,4.879c-2.68,0-4.85-2.188-4.85-4.879
		C95.146,17.76,97.316,15.587,99.996,15.587 M118.5,0H81.497c-2.921,0-5.28,2.368-5.28,5.304v37.852H20.246
		C9.087,43.156,0,52.28,0,63.494v92.164C0,166.877,9.087,176,20.246,176h159.491c11.172,0,20.264-9.123,20.264-20.342V63.494
		c0-11.214-9.092-20.338-20.264-20.338h-55.951V5.304C123.785,2.368,121.422,0,118.5,0L118.5,0z"/>
	<path fill="#F1F2F2" d="M179.736,48.461H118.5V5.304H81.497v43.157H20.246c-8.256,0-14.963,6.729-14.963,15.033v92.164
		c0,8.308,6.707,15.042,14.963,15.042h159.491c8.279,0,14.979-6.734,14.979-15.042V63.494
		C194.715,55.19,188.016,48.461,179.736,48.461z M81.855,149.695H21.208c0,0-0.496-4.35,1.144-6.93
		c1.837-2.871,7.995-4.659,14.087-7.208c6.1-2.549,7.53-3.442,7.53-3.442l1.665-5.857c0,0-3.876-1.758-4.58-7.281
		c-1.435,0.41-2.933-3.747-3.012-5.086c-0.081-1.294,0.183-3.307,1.937-2.932c-0.359-2.713-0.719-8.957,0.692-11.319
		c0.962-1.606,3.096-2.052,3.184-2.091c0.302-0.144,0.718-0.695,0.974-0.9c1.591-1.312,3.929-1.738,6.395-1.808
		c2.796,0.108,5.309,1.122,6.981,1.808c0.02,0,0.046,0.008,0.065,0.021c3.124,1.874,5.023,4.904,5.299,7.864
		c0.104,1.135-0.083,3.193-0.379,5.559c-0.011,0-0.011,0.018-0.011,0.027c-0.035,0.283-0.062,0.563-0.105,0.84
		c1.745-0.375,2.025,1.638,1.95,2.932c-0.078,1.339-1.579,5.496-3.01,5.086c-0.703,5.523-4.591,7.281-4.591,7.281l1.651,5.857
		c0,0,1.455,0.894,7.548,3.442c6.086,2.549,12.242,4.337,14.079,7.208C82.353,145.346,81.855,149.695,81.855,149.695z
		 M136.184,61.351H63.818c-2.401,0-4.347-1.953-4.347-4.361c0-2.412,1.946-4.356,4.347-4.356h17.761
		c0.195,2.295,2.06,4.126,4.398,4.126h28.027c2.354,0,4.221-1.831,4.424-4.126h17.756c2.391,0,4.338,1.944,4.338,4.356
		C140.521,59.397,138.574,61.351,136.184,61.351z M105.908,20.453c0,3.279-2.639,5.935-5.912,5.935
		c-3.253,0-5.912-2.656-5.912-5.935c0-3.269,2.659-5.934,5.912-5.934C103.27,14.519,105.908,17.185,105.908,20.453z M104.854,20.453
		c0,2.69-2.174,4.879-4.857,4.879c-2.68,0-4.85-2.188-4.85-4.879c0-2.693,2.169-4.866,4.85-4.866
		C102.68,15.587,104.854,17.76,104.854,20.453z M171.551,100.377H90.799v-5.303h80.751V100.377z M171.551,110.98H90.799v-5.301
		h80.751V110.98z M171.551,121.584H90.799v-5.303h80.751V121.584z M152.047,131.852H90.799v-4.625h61.248V131.852z"/>
	<g>
		<path fill="#0992A4" d="M105.908,20.453c0,3.279-2.639,5.935-5.912,5.935c-3.253,0-5.912-2.656-5.912-5.935
			c0-3.269,2.659-5.934,5.912-5.934C103.27,14.519,105.908,17.185,105.908,20.453z"/>
	</g>
</g>
</svg>
