<?xml version="1.0" encoding="utf-8"?>
<!-- Generator: Adobe Illustrator 16.0.0, SVG Export Plug-In . SVG Version: 6.00 Build 0)  -->
<!DOCTYPE svg PUBLIC "-//W3C//DTD SVG 1.1//EN" "http://www.w3.org/Graphics/SVG/1.1/DTD/svg11.dtd">
<svg version="1.1" id="Layer_1" xmlns="http://www.w3.org/2000/svg" xmlns:xlink="http://www.w3.org/1999/xlink" x="0px" y="0px"
	 width="255px" height="169px" viewBox="0 0 255 169" enable-background="new 0 0 255 169" xml:space="preserve">
<g>
	<path fill="#1093A4" d="M150.963-47.498V7.239h77.668c10.502,0,18.998,8.535,18.998,19.067V143.2
		c0,10.538-8.496,19.079-18.998,19.079H26.345c-10.471,0-18.978-8.541-18.978-19.079V26.306c0-10.532,8.507-19.067,18.978-19.067
		h77.687v-54.737H150.963 M127.494-20.756c4.152,0,7.498-3.369,7.498-7.527c0-4.146-3.346-7.526-7.498-7.526
		c-4.126,0-7.498,3.381-7.498,7.526C119.996-24.125,123.368-20.756,127.494-20.756 M109.714,17.765
		c-2.966,0-5.331-2.322-5.578-5.233H81.608c-3.045,0-5.513,2.466-5.513,5.525c0,3.054,2.468,5.531,5.513,5.531h91.784
		c3.033,0,5.502-2.478,5.502-5.531c0-3.059-2.469-5.525-5.502-5.525h-22.521c-0.258,2.912-2.625,5.233-5.609,5.233H109.714
		 M51.371,86.507c-0.184-0.037-0.351-0.062-0.501-0.062c-1.771,0-2.048,2.273-1.955,3.779c0.102,1.618,1.828,6.488,3.57,6.488
		c0.079,0,0.173-0.013,0.25-0.037c0.893,7.006,5.809,9.235,5.809,9.235l-2.112,7.429c0,0-1.813,1.132-9.55,4.365
		c-7.727,3.232-15.537,5.499-17.867,9.141c-2.079,3.272-1.451,8.789-1.451,8.789h76.921c0,0,0.632-5.517-1.466-8.789
		c-2.331-3.642-10.139-5.908-17.857-9.141c-7.729-3.233-9.573-4.365-9.573-4.365l-2.095-7.429c0,0,4.932-2.229,5.823-9.235
		c0.09,0.024,0.17,0.037,0.263,0.037c1.732,0,3.467-4.87,3.555-6.488c0.097-1.506-0.209-3.779-1.962-3.779
		c-0.159,0-0.331,0.024-0.511,0.062c0.054-0.35,0.089-0.706,0.133-1.065c0-0.013,0-0.034,0.015-0.034
		c0.375-3,0.612-5.611,0.48-7.051c-0.351-3.753-2.759-7.598-6.721-9.973c-0.024-0.018-0.058-0.027-0.083-0.027
		c-2.121-0.87-5.308-2.155-8.854-2.294c-3.127,0.089-6.093,0.629-8.111,2.294c-0.324,0.26-0.853,0.959-1.235,1.142
		c-0.111,0.05-2.818,0.614-4.038,2.65C50.458,75.146,50.916,83.065,51.371,86.507 M115.829,73.085h102.419v-6.726H115.829V73.085
		 M115.829,86.534h102.419v-6.724H115.829V86.534 M115.829,99.982h102.419v-6.726H115.829V99.982 M115.829,113.006h77.683v-5.866
		h-77.683V113.006 M127.494-34.456c3.404,0,6.16,2.756,6.16,6.172c0,3.412-2.756,6.188-6.16,6.188c-3.399,0-6.151-2.775-6.151-6.188
		C121.343-31.7,124.095-34.456,127.494-34.456 M150.963-54.225h-46.932c-3.704,0-6.697,3.003-6.697,6.728V0.511H26.345
		c-14.153,0-25.679,11.572-25.679,25.795V143.2c0,14.229,11.525,25.8,25.679,25.8h202.286c14.172,0,25.703-11.571,25.703-25.8
		V26.306c0-14.223-11.531-25.795-25.703-25.795h-70.963v-48.009C157.666-51.222,154.67-54.225,150.963-54.225L150.963-54.225z"/>
	<path fill="#F2F2F2" d="M228.631,7.239h-77.668v-54.737h-46.932V7.239H26.345c-10.471,0-18.978,8.535-18.978,19.067V143.2
		c0,10.538,8.507,19.079,18.978,19.079h202.286c10.502,0,19-8.541,19-19.079V26.306C247.629,15.774,239.133,7.239,228.631,7.239z
		 M104.485,135.637h-76.92c0,0-0.63-5.517,1.45-8.789c2.33-3.642,10.141-5.91,17.867-9.143c7.737-3.233,9.551-4.365,9.551-4.365
		l2.111-7.429c0,0-4.916-2.229-5.809-9.235c-1.82,0.521-3.72-4.751-3.82-6.451c-0.103-1.64,0.232-4.193,2.457-3.718
		c-0.455-3.441-0.912-11.36,0.877-14.355c1.221-2.036,3.928-2.604,4.039-2.653c0.383-0.183,0.911-0.882,1.235-1.142
		c2.018-1.662,4.982-2.202,8.111-2.292c3.546,0.137,6.733,1.422,8.854,2.292c0.025,0,0.059,0.013,0.083,0.027
		c3.962,2.378,6.37,6.22,6.72,9.976c0.133,1.439-0.104,4.048-0.48,7.05c-0.014,0-0.014,0.022-0.014,0.035
		c-0.044,0.356-0.078,0.713-0.133,1.064c2.213-0.476,2.568,2.076,2.473,3.719c-0.099,1.697-2.003,6.971-3.817,6.45
		c-0.892,7.006-5.823,9.235-5.823,9.235l2.095,7.43c0,0,1.845,1.132,9.573,4.364c7.719,3.232,15.526,5.499,17.856,9.141
		C105.117,130.12,104.485,135.637,104.485,135.637z M173.393,23.588H81.608c-3.045,0-5.513-2.478-5.513-5.531
		c0-3.059,2.468-5.525,5.513-5.525h22.527c0.247,2.912,2.612,5.233,5.578,5.233h35.548c2.984,0,5.352-2.322,5.609-5.233h22.521
		c3.033,0,5.502,2.466,5.502,5.525C178.895,21.11,176.424,23.588,173.393,23.588z M133.654-28.284c0,3.412-2.756,6.188-6.159,6.188
		c-3.399,0-6.151-2.775-6.151-6.188c0-3.416,2.751-6.172,6.151-6.172C130.898-34.456,133.654-31.7,133.654-28.284z M218.25,73.085
		H115.829v-6.726h102.419v6.726H218.25z M218.25,86.534H115.829v-6.724h102.419v6.724H218.25z M218.25,99.982H115.829v-6.726
		h102.419v6.726H218.25z M193.512,113.006h-77.683v-5.866h77.683V113.006z"/>
</g>
<rect x="86.417" y="-7.167" fill="#F2F2F2" width="83.583" height="7.678"/>
<g>
	<rect x="70.333" y="0.511" fill="#1093A4" width="112.333" height="6.739"/>
	<rect x="70.333" y="0.511" fill="#1093A4" width="112.333" height="6.739"/>
	<rect x="70.333" y="0.511" fill="#1093A4" width="112.333" height="6.739"/>
</g>
</svg>
