<?xml version="1.0" encoding="utf-8"?>
<!-- Generator: Adobe Illustrator 16.0.0, SVG Export Plug-In . SVG Version: 6.00 Build 0)  -->
<!DOCTYPE svg PUBLIC "-//W3C//DTD SVG 1.1//EN" "http://www.w3.org/Graphics/SVG/1.1/DTD/svg11.dtd">
<svg version="1.1" id="Layer_1" xmlns="http://www.w3.org/2000/svg" xmlns:xlink="http://www.w3.org/1999/xlink" x="0px" y="0px"
	 width="120px" height="121px" viewBox="0 0 120 121" enable-background="new 0 0 120 121" xml:space="preserve">
<g>
	<path fill="#FED093" d="M120,115.41c0,3.089-2.152,5.59-4.806,5.59H4.806C2.152,121,0,118.499,0,115.41V5.591
		C0,2.504,2.152,0,4.806,0h110.389C117.848,0,120,2.504,120,5.591V115.41z"/>
	<text transform="matrix(1.0036 0 0 1 4.0127 84.2676)"><tspan x="0" y="0" fill="#542437" font-family="'Raleway'" font-size="15.9454">Exit this person</tspan><tspan x="15.3" y="19.135" fill="#542437" font-family="'Raleway'" font-size="15.9454">from event</tspan></text>
	<g>
		<path fill="#542437" d="M67.993,20.237c2.286-0.843,3.454-3.373,2.608-5.651c-0.848-2.277-3.386-3.44-5.673-2.597
			c-2.286,0.843-3.452,3.373-2.606,5.65C63.169,19.917,65.708,21.081,67.993,20.237z M83.418,22.864
			c-0.891-1.056-2.471-1.193-3.53-0.307l-5.892,4.933l-8.472-5.211c-0.379-0.338-0.822-0.617-1.322-0.814l-0.309-0.19l-0.045,0.069
			c-0.672-0.202-1.362-0.237-2.021-0.124l-0.018-0.056l-12.912,4.252c-1.072,0.282-1.863,1.253-1.861,2.409l0.002,9.481
			c0,1.378,1.121,2.495,2.504,2.494c1.383,0,2.505-1.117,2.505-2.495v-7.671l4.789-1.577l-3.588,9.043
			c-0.502,1.261-0.377,2.614,0.227,3.72l-1.711,3.732l-12.404-0.27l-0.002,0.051c-0.952,0.107-1.823,0.695-2.251,1.625L35.301,49.9
			c-0.645,1.411-0.021,3.078,1.395,3.722c1.416,0.646,3.089,0.023,3.735-1.388l1.047-2.287l11.85,0.258
			c1.148,0.093,2.285-0.527,2.793-1.634l2.151-4.695l5.382,2.257l0.381,12.699l0.057-0.001c0.162,0.966,0.809,1.828,1.789,2.213
			l3.714,1.464c1.486,0.586,3.168-0.139,3.758-1.623c0.588-1.482-0.141-3.16-1.629-3.746l-1.967-0.775l-0.365-12.188
			c0-0.073-0.002-0.144-0.006-0.215V43.96c-0.072-1.077-0.749-2.071-1.823-2.495l-5.179-3.317l3.769-9.618l6.624,4.076
			c0.906,0.637,2.16,0.615,3.05-0.128l7.286-6.098C84.17,25.493,84.307,23.919,83.418,22.864z"/>
	</g>
</g>
</svg>
