<?xml version="1.0" encoding="utf-8"?>
<!-- Generator: Adobe Illustrator 16.0.0, SVG Export Plug-In . SVG Version: 6.00 Build 0)  -->
<!DOCTYPE svg PUBLIC "-//W3C//DTD SVG 1.1//EN" "http://www.w3.org/Graphics/SVG/1.1/DTD/svg11.dtd">
<svg version="1.1" id="Layer_1" xmlns="http://www.w3.org/2000/svg" xmlns:xlink="http://www.w3.org/1999/xlink" x="0px" y="0px"
	 width="32px" height="32px" viewBox="0 0 32 32" enable-background="new 0 0 32 32" xml:space="preserve">
<path fill="#542437" d="M16,0C7.164,0,0,7.164,0,16c0,8.837,7.164,16,16,16c8.837,0,16-7.163,16-16C32,7.164,24.837,0,16,0z
	 M19.427,16.006h-2.241c0,3.582,0,7.994,0,7.994h-3.323c0,0,0-4.368,0-7.994h-1.579v-2.824h1.579v-1.828
	c0-1.309,0.622-3.354,3.354-3.354l2.46,0.01v2.742c0,0-1.495,0-1.786,0s-0.704,0.144-0.704,0.77v1.66h2.532L19.427,16.006z"/>
</svg>
