<?xml version="1.0" encoding="utf-8"?>
<!-- Generator: Adobe Illustrator 16.0.0, SVG Export Plug-In . SVG Version: 6.00 Build 0)  -->
<!DOCTYPE svg PUBLIC "-//W3C//DTD SVG 1.1//EN" "http://www.w3.org/Graphics/SVG/1.1/DTD/svg11.dtd">
<svg version="1.1" id="Layer_1" xmlns="http://www.w3.org/2000/svg" xmlns:xlink="http://www.w3.org/1999/xlink" x="0px" y="0px"
	 width="120px" height="121px" viewBox="0 0 120 121" enable-background="new 0 0 120 121" xml:space="preserve">
<g>
	<path fill="#0992A4" d="M120,115.41c0,3.089-2.152,5.59-4.804,5.59H4.804C2.152,121,0,118.499,0,115.41V5.591
		C0,2.504,2.152,0,4.804,0h110.393C117.848,0,120,2.504,120,5.591V115.41z"/>
	<g>
			</g>
	<g>
		<path fill="#F1F2F2" d="M40.017,38.461c-4.348,0-8.296,1.98-11.24,5.209c-3.213,3.527-5.226,8.543-5.226,14.115h5.226H38.8
			c1.65-6.763,5.548-12.424,10.684-15.807C46.806,39.766,43.541,38.461,40.017,38.461z"/>
		<ellipse fill="#F1F2F2" cx="40.017" cy="29.698" rx="7.541" ry="7.514"/>
		<path fill="#F1F2F2" d="M90.853,42.734c-2.899-2.993-6.703-4.813-10.867-4.813c-3.489,0-6.719,1.276-9.379,3.446
			c5.481,3.203,9.703,8.932,11.535,15.877h8.711h5.599C96.451,51.464,94.282,46.277,90.853,42.734z"/>
		<ellipse fill="#F1F2F2" cx="60.538" cy="26.543" rx="10.104" ry="10.069"/>
		<path fill="#F1F2F2" d="M81.021,57.244c-1.83-6.675-5.952-12.152-11.268-15.132c-2.796-1.566-5.919-2.443-9.215-2.443
			c-3.698,0-7.177,1.105-10.219,3.047c-4.97,3.17-8.759,8.578-10.404,15.069c-0.539,2.13-0.854,4.373-0.895,6.696h43.033
			C82.009,61.962,81.647,59.534,81.021,57.244z"/>
		<ellipse fill="#F1F2F2" cx="79.985" cy="29.158" rx="7.54" ry="7.515"/>
	</g>
</g>
</svg>
