<?xml version="1.0" encoding="utf-8"?>
<!-- Generator: Adobe Illustrator 16.0.0, SVG Export Plug-In . SVG Version: 6.00 Build 0)  -->
<!DOCTYPE svg PUBLIC "-//W3C//DTD SVG 1.1//EN" "http://www.w3.org/Graphics/SVG/1.1/DTD/svg11.dtd">
<svg version="1.1" id="Layer_1" xmlns="http://www.w3.org/2000/svg" xmlns:xlink="http://www.w3.org/1999/xlink" x="0px" y="0px"
	 width="478px" height="393px" viewBox="0 0 478 393" enable-background="new 0 0 478 393" xml:space="preserve">
<g>
	<polyline fill="none" stroke="#939598" stroke-width="2" stroke-miterlimit="10" points="449.33,361.964 45.189,361.964 45.189,0 	
		"/>
	<g>
		<g>
			<line fill="none" stroke="#A7A9AC" stroke-miterlimit="10" x1="45.189" y1="26.36" x2="51.189" y2="26.36"/>
			
				<line fill="none" stroke="#A7A9AC" stroke-miterlimit="10" stroke-dasharray="11.8831,11.8831" x1="63.072" y1="26.36" x2="437.389" y2="26.36"/>
			<line fill="none" stroke="#A7A9AC" stroke-miterlimit="10" x1="443.33" y1="26.36" x2="449.33" y2="26.36"/>
		</g>
	</g>
	<g>
		<g>
			<line fill="none" stroke="#A7A9AC" stroke-miterlimit="10" x1="45.189" y1="74.279" x2="51.189" y2="74.279"/>
			
				<line fill="none" stroke="#A7A9AC" stroke-miterlimit="10" stroke-dasharray="11.8831,11.8831" x1="63.072" y1="74.279" x2="437.389" y2="74.279"/>
			<line fill="none" stroke="#A7A9AC" stroke-miterlimit="10" x1="443.33" y1="74.279" x2="449.33" y2="74.279"/>
		</g>
	</g>
	<g>
		<g>
			<line fill="none" stroke="#A7A9AC" stroke-miterlimit="10" x1="45.189" y1="122.199" x2="51.189" y2="122.199"/>
			
				<line fill="none" stroke="#A7A9AC" stroke-miterlimit="10" stroke-dasharray="11.8831,11.8831" x1="63.072" y1="122.199" x2="437.389" y2="122.199"/>
			<line fill="none" stroke="#A7A9AC" stroke-miterlimit="10" x1="443.33" y1="122.199" x2="449.33" y2="122.199"/>
		</g>
	</g>
	<g>
		<g>
			<line fill="none" stroke="#A7A9AC" stroke-miterlimit="10" x1="45.189" y1="170.119" x2="51.189" y2="170.119"/>
			
				<line fill="none" stroke="#A7A9AC" stroke-miterlimit="10" stroke-dasharray="11.8831,11.8831" x1="63.072" y1="170.119" x2="437.389" y2="170.119"/>
			<line fill="none" stroke="#A7A9AC" stroke-miterlimit="10" x1="443.33" y1="170.119" x2="449.33" y2="170.119"/>
		</g>
	</g>
	<g>
		<g>
			<line fill="none" stroke="#A7A9AC" stroke-miterlimit="10" x1="45.189" y1="218.038" x2="51.189" y2="218.038"/>
			
				<line fill="none" stroke="#A7A9AC" stroke-miterlimit="10" stroke-dasharray="11.8831,11.8831" x1="63.072" y1="218.038" x2="437.389" y2="218.038"/>
			<line fill="none" stroke="#A7A9AC" stroke-miterlimit="10" x1="443.33" y1="218.038" x2="449.33" y2="218.038"/>
		</g>
	</g>
	<g>
		<g>
			<line fill="none" stroke="#A7A9AC" stroke-miterlimit="10" x1="45.189" y1="264.956" x2="51.189" y2="264.956"/>
			
				<line fill="none" stroke="#A7A9AC" stroke-miterlimit="10" stroke-dasharray="11.8831,11.8831" x1="63.072" y1="264.956" x2="437.389" y2="264.956"/>
			<line fill="none" stroke="#A7A9AC" stroke-miterlimit="10" x1="443.33" y1="264.956" x2="449.33" y2="264.956"/>
		</g>
	</g>
	<g>
		<g>
			<line fill="none" stroke="#A7A9AC" stroke-miterlimit="10" x1="45.189" y1="312.875" x2="51.189" y2="312.875"/>
			
				<line fill="none" stroke="#A7A9AC" stroke-miterlimit="10" stroke-dasharray="11.8831,11.8831" x1="63.072" y1="312.875" x2="437.389" y2="312.875"/>
			<line fill="none" stroke="#A7A9AC" stroke-miterlimit="10" x1="443.33" y1="312.875" x2="449.33" y2="312.875"/>
		</g>
	</g>
	<polyline fill="none" stroke="#0992A4" stroke-width="3" stroke-miterlimit="10" points="45.189,361.964 174.82,297.849 
		292.766,287.83 310.941,245.755 340.744,235.736 382.725,180.982 407.816,51.405 449.33,11.333 	"/>
	<g>
		<path fill="#542437" d="M10.574,318.646v1.242H3.796v-1.242h2.839v-8.575c-0.12,0.161-0.307,0.334-0.56,0.521
			c-0.253,0.188-0.537,0.361-0.85,0.521c-0.313,0.16-0.636,0.294-0.97,0.4c-0.333,0.107-0.626,0.16-0.879,0.16v-1.321
			c0.307,0,0.643-0.087,1.01-0.262c0.366-0.173,0.712-0.373,1.04-0.601c0.326-0.227,0.603-0.441,0.829-0.641
			c0.227-0.2,0.354-0.335,0.38-0.401h1.399v10.198H10.574z"/>
		<path fill="#542437" d="M22.188,314.017c0,0.882-0.127,1.694-0.38,2.436c-0.253,0.74-0.603,1.383-1.049,1.924
			c-0.447,0.541-0.977,0.961-1.589,1.262c-0.613,0.3-1.28,0.451-1.999,0.451c-0.72,0-1.387-0.151-1.999-0.451
			c-0.614-0.301-1.143-0.721-1.59-1.262c-0.446-0.541-0.796-1.184-1.049-1.924c-0.253-0.741-0.379-1.554-0.379-2.436
			c0-0.881,0.126-1.692,0.379-2.434c0.253-0.741,0.603-1.383,1.049-1.924c0.447-0.541,0.976-0.964,1.59-1.272
			c0.612-0.306,1.279-0.461,1.999-0.461c0.719,0,1.386,0.155,1.999,0.461c0.612,0.309,1.143,0.731,1.589,1.272
			c0.446,0.541,0.796,1.183,1.049,1.924C22.062,312.324,22.188,313.136,22.188,314.017z M20.809,314.017
			c0-0.721-0.089-1.375-0.27-1.963c-0.18-0.587-0.43-1.092-0.75-1.513c-0.319-0.421-0.703-0.747-1.149-0.981
			c-0.447-0.233-0.937-0.351-1.469-0.351c-0.547,0-1.043,0.117-1.49,0.351c-0.446,0.234-0.83,0.561-1.149,0.981
			c-0.319,0.421-0.569,0.926-0.75,1.513c-0.18,0.588-0.27,1.242-0.27,1.963c0,0.723,0.09,1.377,0.27,1.964
			c0.18,0.588,0.43,1.093,0.75,1.514c0.32,0.421,0.703,0.744,1.149,0.972c0.447,0.227,0.943,0.34,1.49,0.34
			c0.533,0,1.022-0.113,1.469-0.34c0.446-0.228,0.83-0.551,1.149-0.972c0.32-0.421,0.57-0.926,0.75-1.514
			C20.719,315.394,20.809,314.739,20.809,314.017z"/>
		<path fill="#542437" d="M34.483,314.017c0,0.882-0.127,1.694-0.38,2.436c-0.253,0.74-0.603,1.383-1.049,1.924
			s-0.977,0.961-1.589,1.262c-0.613,0.3-1.279,0.451-1.999,0.451s-1.386-0.151-1.999-0.451c-0.613-0.301-1.143-0.721-1.589-1.262
			c-0.447-0.541-0.797-1.184-1.049-1.924c-0.253-0.741-0.38-1.554-0.38-2.436c0-0.881,0.126-1.692,0.38-2.434
			c0.252-0.741,0.603-1.383,1.049-1.924c0.446-0.541,0.976-0.964,1.589-1.272c0.613-0.306,1.279-0.461,1.999-0.461
			s1.386,0.155,1.999,0.461c0.613,0.309,1.143,0.731,1.589,1.272s0.796,1.183,1.049,1.924S34.483,313.136,34.483,314.017z
			 M33.103,314.017c0-0.721-0.09-1.375-0.27-1.963c-0.18-0.587-0.429-1.092-0.75-1.513c-0.32-0.421-0.703-0.747-1.149-0.981
			c-0.447-0.233-0.936-0.351-1.469-0.351c-0.546,0-1.043,0.117-1.489,0.351c-0.447,0.234-0.83,0.561-1.149,0.981
			s-0.57,0.926-0.75,1.513c-0.18,0.588-0.27,1.242-0.27,1.963c0,0.723,0.09,1.377,0.27,1.964c0.18,0.588,0.43,1.093,0.75,1.514
			s0.703,0.744,1.149,0.972c0.446,0.227,0.943,0.34,1.489,0.34c0.533,0,1.022-0.113,1.469-0.34c0.447-0.228,0.83-0.551,1.149-0.972
			c0.32-0.421,0.57-0.926,0.75-1.514C33.013,315.394,33.103,314.739,33.103,314.017z"/>
	</g>
	<g>
		<path fill="#542437" d="M1.378,271.802c0-0.494,0.043-0.979,0.13-1.453c0.086-0.474,0.253-0.932,0.5-1.372s0.586-0.865,1.02-1.272
			s0.99-0.791,1.669-1.152c0.36-0.187,0.75-0.377,1.169-0.57c0.42-0.193,0.81-0.411,1.17-0.651c0.36-0.241,0.656-0.508,0.89-0.802
			c0.233-0.293,0.35-0.642,0.35-1.042c0-0.253-0.057-0.508-0.17-0.761c-0.113-0.254-0.279-0.481-0.5-0.682
			c-0.22-0.201-0.494-0.36-0.819-0.48c-0.327-0.12-0.704-0.181-1.13-0.181c-0.44,0-0.837,0.063-1.189,0.19
			c-0.354,0.127-0.663,0.276-0.929,0.451c-0.267,0.173-0.49,0.356-0.67,0.551c-0.18,0.193-0.316,0.35-0.409,0.471l-0.899-0.981
			c0.079-0.08,0.232-0.228,0.459-0.441c0.227-0.213,0.523-0.428,0.889-0.641c0.367-0.214,0.8-0.404,1.3-0.571
			c0.5-0.167,1.063-0.251,1.689-0.251c0.6,0,1.136,0.084,1.609,0.251c0.473,0.167,0.876,0.397,1.209,0.691s0.586,0.631,0.76,1.012
			c0.173,0.381,0.26,0.784,0.26,1.212c0,0.561-0.13,1.045-0.39,1.453c-0.26,0.407-0.577,0.758-0.95,1.052
			c-0.374,0.293-0.756,0.534-1.149,0.721c-0.393,0.188-0.716,0.341-0.97,0.461c-0.6,0.268-1.1,0.528-1.499,0.781
			c-0.4,0.255-0.727,0.515-0.98,0.782c-0.253,0.267-0.443,0.561-0.569,0.881c-0.127,0.321-0.217,0.688-0.27,1.102h6.997v1.243H1.378
			z"/>
		<path fill="#542437" d="M22.188,265.931c0,0.882-0.127,1.693-0.38,2.435c-0.253,0.741-0.603,1.383-1.049,1.924
			c-0.447,0.541-0.977,0.962-1.589,1.262c-0.613,0.301-1.28,0.451-1.999,0.451c-0.72,0-1.387-0.15-1.999-0.451
			c-0.614-0.3-1.143-0.721-1.59-1.262c-0.446-0.541-0.796-1.183-1.049-1.924c-0.253-0.741-0.379-1.553-0.379-2.435
			s0.126-1.692,0.379-2.435c0.253-0.741,0.603-1.382,1.049-1.923c0.447-0.541,0.976-0.965,1.59-1.272
			c0.612-0.307,1.279-0.461,1.999-0.461c0.719,0,1.386,0.154,1.999,0.461c0.612,0.308,1.143,0.731,1.589,1.272
			c0.446,0.541,0.796,1.182,1.049,1.923C22.062,264.238,22.188,265.049,22.188,265.931z M20.809,265.931
			c0-0.721-0.089-1.376-0.27-1.964c-0.18-0.587-0.43-1.092-0.75-1.513c-0.319-0.42-0.703-0.747-1.149-0.98
			c-0.447-0.234-0.937-0.352-1.469-0.352c-0.547,0-1.043,0.117-1.49,0.352c-0.446,0.233-0.83,0.561-1.149,0.98
			c-0.319,0.421-0.569,0.926-0.75,1.513c-0.18,0.588-0.27,1.243-0.27,1.964c0,0.722,0.09,1.376,0.27,1.964s0.43,1.093,0.75,1.513
			c0.32,0.421,0.703,0.745,1.149,0.972c0.447,0.228,0.943,0.341,1.49,0.341c0.533,0,1.022-0.113,1.469-0.341
			c0.446-0.227,0.83-0.551,1.149-0.972c0.32-0.42,0.57-0.925,0.75-1.513C20.719,267.307,20.809,266.652,20.809,265.931z"/>
		<path fill="#542437" d="M34.483,265.931c0,0.882-0.127,1.693-0.38,2.435s-0.603,1.383-1.049,1.924s-0.977,0.962-1.589,1.262
			c-0.613,0.301-1.279,0.451-1.999,0.451s-1.386-0.15-1.999-0.451c-0.613-0.3-1.143-0.721-1.589-1.262
			c-0.447-0.541-0.797-1.183-1.049-1.924c-0.253-0.741-0.38-1.553-0.38-2.435s0.126-1.692,0.38-2.435
			c0.252-0.741,0.603-1.382,1.049-1.923c0.446-0.541,0.976-0.965,1.589-1.272c0.613-0.307,1.279-0.461,1.999-0.461
			s1.386,0.154,1.999,0.461c0.613,0.308,1.143,0.731,1.589,1.272s0.796,1.182,1.049,1.923
			C34.356,264.238,34.483,265.049,34.483,265.931z M33.103,265.931c0-0.721-0.09-1.376-0.27-1.964
			c-0.18-0.587-0.429-1.092-0.75-1.513c-0.32-0.42-0.703-0.747-1.149-0.98c-0.447-0.234-0.936-0.352-1.469-0.352
			c-0.546,0-1.043,0.117-1.489,0.352c-0.447,0.233-0.83,0.561-1.149,0.98c-0.32,0.421-0.57,0.926-0.75,1.513
			c-0.18,0.588-0.27,1.243-0.27,1.964c0,0.722,0.09,1.376,0.27,1.964c0.18,0.588,0.43,1.093,0.75,1.513
			c0.32,0.421,0.703,0.745,1.149,0.972c0.446,0.228,0.943,0.341,1.489,0.341c0.533,0,1.022-0.113,1.469-0.341
			c0.447-0.227,0.83-0.551,1.149-0.972c0.32-0.42,0.57-0.925,0.75-1.513C33.013,267.307,33.103,266.652,33.103,265.931z"/>
	</g>
	<g>
		<path fill="#542437" d="M7.176,218.986c0.879,0.147,1.583,0.548,2.109,1.203c0.526,0.654,0.79,1.462,0.79,2.424
			c0,0.601-0.11,1.151-0.33,1.652c-0.22,0.501-0.534,0.929-0.94,1.283c-0.407,0.354-0.893,0.628-1.459,0.821
			c-0.566,0.192-1.196,0.291-1.889,0.291c-1.013,0-1.899-0.205-2.659-0.612c-0.759-0.407-1.333-0.971-1.719-1.693l0.94-0.86
			c0.28,0.587,0.706,1.055,1.279,1.401c0.573,0.348,1.292,0.521,2.159,0.521c1,0,1.786-0.243,2.359-0.731
			c0.573-0.487,0.859-1.185,0.859-2.094c0-0.922-0.3-1.649-0.899-2.184c-0.6-0.534-1.466-0.801-2.599-0.801h-0.5v-1.163h0.54
			c1.026,0,1.812-0.24,2.359-0.722c0.546-0.48,0.82-1.102,0.82-1.862c0-0.401-0.074-0.752-0.22-1.052
			c-0.147-0.302-0.35-0.555-0.609-0.763c-0.26-0.206-0.567-0.362-0.919-0.471c-0.354-0.106-0.737-0.16-1.149-0.16
			c-0.76,0-1.43,0.17-2.009,0.512c-0.58,0.341-1.016,0.812-1.31,1.412l-0.879-0.842c0.16-0.347,0.386-0.664,0.68-0.952
			c0.293-0.286,0.626-0.53,1-0.73s0.786-0.357,1.239-0.471s0.919-0.17,1.399-0.17c0.613,0,1.176,0.086,1.689,0.26
			c0.513,0.174,0.957,0.418,1.33,0.731s0.663,0.691,0.87,1.132c0.207,0.441,0.31,0.93,0.31,1.462c0,0.401-0.06,0.786-0.18,1.153
			c-0.12,0.367-0.293,0.694-0.52,0.981c-0.226,0.287-0.503,0.527-0.829,0.722C7.959,218.81,7.589,218.933,7.176,218.986z"/>
		<path fill="#542437" d="M22.189,217.844c0,0.882-0.127,1.693-0.38,2.436c-0.253,0.74-0.603,1.382-1.05,1.923
			c-0.446,0.541-0.977,0.962-1.589,1.263c-0.613,0.3-1.28,0.451-1.999,0.451c-0.72,0-1.387-0.151-1.999-0.451
			c-0.614-0.301-1.143-0.722-1.59-1.263c-0.446-0.541-0.796-1.183-1.049-1.923c-0.253-0.742-0.379-1.554-0.379-2.436
			c0-0.881,0.126-1.692,0.379-2.434c0.253-0.742,0.603-1.383,1.049-1.924c0.447-0.541,0.976-0.964,1.59-1.272
			c0.612-0.307,1.279-0.461,1.999-0.461c0.719,0,1.386,0.154,1.999,0.461c0.612,0.309,1.143,0.731,1.589,1.272
			c0.447,0.541,0.796,1.182,1.05,1.924C22.062,216.151,22.189,216.963,22.189,217.844z M20.809,217.844
			c0-0.721-0.089-1.375-0.27-1.963c-0.18-0.587-0.43-1.092-0.75-1.513c-0.319-0.421-0.703-0.747-1.149-0.981
			c-0.446-0.233-0.936-0.352-1.469-0.352c-0.547,0-1.043,0.118-1.49,0.352c-0.446,0.234-0.83,0.561-1.149,0.981
			c-0.319,0.421-0.569,0.926-0.75,1.513c-0.18,0.588-0.27,1.242-0.27,1.963c0,0.723,0.09,1.377,0.27,1.964
			c0.18,0.588,0.43,1.093,0.75,1.514c0.32,0.421,0.703,0.744,1.149,0.972c0.447,0.227,0.943,0.34,1.49,0.34
			c0.533,0,1.022-0.113,1.469-0.34c0.447-0.228,0.83-0.551,1.149-0.972c0.32-0.421,0.57-0.926,0.75-1.514
			C20.72,219.221,20.809,218.566,20.809,217.844z"/>
		<path fill="#542437" d="M34.483,217.844c0,0.882-0.127,1.693-0.38,2.436c-0.253,0.74-0.603,1.382-1.049,1.923
			s-0.977,0.962-1.589,1.263c-0.613,0.3-1.279,0.451-1.999,0.451s-1.386-0.151-1.999-0.451c-0.613-0.301-1.143-0.722-1.589-1.263
			c-0.447-0.541-0.797-1.183-1.049-1.923c-0.253-0.742-0.38-1.554-0.38-2.436c0-0.881,0.126-1.692,0.38-2.434
			c0.252-0.742,0.603-1.383,1.049-1.924c0.446-0.541,0.976-0.964,1.589-1.272c0.613-0.307,1.279-0.461,1.999-0.461
			s1.386,0.154,1.999,0.461c0.613,0.309,1.143,0.731,1.589,1.272s0.796,1.182,1.049,1.924
			C34.356,216.151,34.483,216.963,34.483,217.844z M33.104,217.844c0-0.721-0.09-1.375-0.27-1.963
			c-0.18-0.587-0.429-1.092-0.75-1.513c-0.32-0.421-0.703-0.747-1.149-0.981c-0.447-0.233-0.936-0.352-1.469-0.352
			c-0.546,0-1.043,0.118-1.489,0.352c-0.447,0.234-0.83,0.561-1.149,0.981c-0.32,0.421-0.57,0.926-0.75,1.513
			c-0.18,0.588-0.27,1.242-0.27,1.963c0,0.723,0.09,1.377,0.27,1.964c0.18,0.588,0.43,1.093,0.75,1.514
			c0.319,0.421,0.703,0.744,1.149,0.972c0.446,0.227,0.943,0.34,1.489,0.34c0.533,0,1.022-0.113,1.469-0.34
			c0.447-0.228,0.83-0.551,1.149-0.972c0.32-0.421,0.57-0.926,0.75-1.514C33.014,219.221,33.104,218.566,33.104,217.844z"/>
	</g>
	<g>
		<path fill="#542437" d="M7.276,178.173v-3.566H0.599v-1.202l7.097-9.217h0.939v9.177h1.759v1.242H8.635v3.566H7.276z
			 M2.038,173.365h5.358v-7.033L2.038,173.365z"/>
		<path fill="#542437" d="M22.189,169.757c0,0.882-0.127,1.694-0.38,2.435c-0.253,0.741-0.603,1.383-1.05,1.924
			c-0.446,0.541-0.977,0.961-1.589,1.262c-0.613,0.3-1.28,0.451-1.999,0.451c-0.72,0-1.387-0.151-1.999-0.451
			c-0.614-0.3-1.143-0.721-1.59-1.262c-0.446-0.541-0.796-1.183-1.049-1.924c-0.253-0.741-0.379-1.553-0.379-2.435
			c0-0.881,0.126-1.692,0.379-2.434c0.253-0.741,0.603-1.382,1.049-1.923c0.447-0.541,0.976-0.964,1.59-1.272
			c0.612-0.306,1.279-0.461,1.999-0.461c0.719,0,1.386,0.155,1.999,0.461c0.612,0.308,1.143,0.731,1.589,1.272
			c0.447,0.541,0.796,1.182,1.05,1.923C22.062,168.065,22.189,168.876,22.189,169.757z M20.809,169.757
			c0-0.721-0.089-1.375-0.27-1.963c-0.18-0.587-0.43-1.092-0.75-1.512c-0.319-0.421-0.703-0.748-1.149-0.981
			c-0.446-0.234-0.936-0.351-1.469-0.351c-0.547,0-1.043,0.117-1.49,0.351c-0.446,0.234-0.83,0.561-1.149,0.981
			c-0.319,0.42-0.569,0.925-0.75,1.512c-0.18,0.588-0.27,1.243-0.27,1.963c0,0.722,0.09,1.377,0.27,1.964
			c0.18,0.588,0.43,1.093,0.75,1.513c0.32,0.421,0.703,0.745,1.149,0.972c0.447,0.227,0.943,0.34,1.49,0.34
			c0.533,0,1.022-0.113,1.469-0.34c0.447-0.227,0.83-0.551,1.149-0.972c0.32-0.42,0.57-0.925,0.75-1.513
			C20.72,171.134,20.809,170.479,20.809,169.757z"/>
		<path fill="#542437" d="M34.483,169.757c0,0.882-0.127,1.694-0.38,2.435c-0.253,0.741-0.603,1.383-1.049,1.924
			s-0.977,0.961-1.589,1.262c-0.613,0.3-1.279,0.451-1.999,0.451s-1.386-0.151-1.999-0.451c-0.613-0.3-1.143-0.721-1.589-1.262
			c-0.447-0.541-0.797-1.183-1.049-1.924c-0.253-0.741-0.38-1.553-0.38-2.435c0-0.881,0.126-1.692,0.38-2.434
			c0.252-0.741,0.603-1.382,1.049-1.923c0.446-0.541,0.976-0.964,1.589-1.272c0.613-0.306,1.279-0.461,1.999-0.461
			s1.386,0.155,1.999,0.461c0.613,0.308,1.143,0.731,1.589,1.272s0.796,1.182,1.049,1.923
			C34.356,168.065,34.483,168.876,34.483,169.757z M33.104,169.757c0-0.721-0.09-1.375-0.27-1.963
			c-0.18-0.587-0.429-1.092-0.75-1.512c-0.32-0.421-0.703-0.748-1.149-0.981s-0.936-0.351-1.469-0.351
			c-0.546,0-1.043,0.117-1.489,0.351c-0.447,0.234-0.83,0.561-1.149,0.981c-0.32,0.42-0.57,0.925-0.75,1.512
			c-0.18,0.588-0.27,1.243-0.27,1.963c0,0.722,0.09,1.377,0.27,1.964c0.18,0.588,0.43,1.093,0.75,1.513
			c0.319,0.421,0.703,0.745,1.149,0.972c0.446,0.227,0.943,0.34,1.489,0.34c0.533,0,1.022-0.113,1.469-0.34s0.83-0.551,1.149-0.972
			c0.32-0.42,0.57-0.925,0.75-1.513C33.014,171.134,33.104,170.479,33.104,169.757z"/>
	</g>
	<g>
		<path fill="#542437" d="M5.597,121.291c0.652,0,1.259,0.11,1.819,0.331c0.56,0.22,1.05,0.531,1.47,0.932
			c0.419,0.401,0.75,0.878,0.989,1.433s0.36,1.165,0.36,1.833c0,0.708-0.13,1.352-0.39,1.933c-0.26,0.581-0.614,1.075-1.06,1.483
			c-0.447,0.407-0.97,0.724-1.569,0.951s-1.24,0.341-1.919,0.341c-0.506,0-0.989-0.063-1.449-0.191
			c-0.459-0.127-0.883-0.31-1.269-0.551c-0.387-0.241-0.737-0.528-1.05-0.862s-0.57-0.708-0.77-1.122l0.9-0.681
			c0.373,0.655,0.883,1.182,1.529,1.583c0.646,0.4,1.356,0.601,2.129,0.601c0.493,0,0.953-0.083,1.38-0.25
			c0.426-0.167,0.799-0.404,1.119-0.711s0.57-0.674,0.75-1.102c0.18-0.428,0.27-0.895,0.27-1.403c0-0.494-0.087-0.945-0.26-1.352
			c-0.173-0.408-0.414-0.758-0.72-1.052c-0.307-0.294-0.663-0.521-1.069-0.682c-0.407-0.16-0.85-0.24-1.33-0.24
			c-0.64,0-1.236,0.137-1.789,0.41c-0.553,0.274-1.003,0.671-1.35,1.192H1.059c0.013-0.08,0.046-0.26,0.1-0.541
			c0.053-0.281,0.12-0.614,0.2-1.001c0.08-0.388,0.167-0.818,0.26-1.292c0.093-0.474,0.187-0.952,0.28-1.432
			c0.227-1.123,0.473-2.372,0.74-3.747h6.856v1.262H3.658l-0.98,5.11c0.346-0.375,0.77-0.664,1.27-0.872
			C4.448,121.394,4.997,121.291,5.597,121.291z"/>
		<path fill="#542437" d="M22.189,121.671c0,0.882-0.127,1.694-0.38,2.435c-0.253,0.741-0.603,1.382-1.049,1.923
			c-0.447,0.541-0.977,0.962-1.589,1.262c-0.613,0.3-1.28,0.451-1.999,0.451c-0.72,0-1.387-0.151-1.999-0.451
			c-0.614-0.3-1.143-0.721-1.59-1.262c-0.446-0.541-0.796-1.183-1.049-1.923c-0.253-0.741-0.379-1.553-0.379-2.435
			c0-0.881,0.126-1.692,0.379-2.434c0.253-0.741,0.603-1.382,1.049-1.923c0.447-0.541,0.976-0.964,1.59-1.272
			c0.612-0.307,1.279-0.461,1.999-0.461c0.719,0,1.386,0.154,1.999,0.461c0.612,0.308,1.143,0.731,1.589,1.272
			c0.446,0.541,0.796,1.182,1.049,1.923C22.063,119.979,22.189,120.79,22.189,121.671z M20.81,121.671
			c0-0.721-0.089-1.375-0.27-1.963c-0.18-0.587-0.43-1.092-0.75-1.513c-0.319-0.42-0.703-0.747-1.149-0.981
			c-0.447-0.234-0.937-0.351-1.469-0.351c-0.547,0-1.043,0.117-1.49,0.351c-0.446,0.234-0.83,0.561-1.149,0.981
			c-0.319,0.421-0.569,0.926-0.75,1.513c-0.18,0.588-0.27,1.243-0.27,1.963c0,0.722,0.09,1.376,0.27,1.964
			c0.18,0.588,0.43,1.093,0.75,1.513c0.32,0.421,0.703,0.745,1.149,0.972c0.447,0.227,0.943,0.34,1.49,0.34
			c0.533,0,1.022-0.113,1.469-0.34c0.446-0.227,0.83-0.551,1.149-0.972c0.32-0.42,0.57-0.925,0.75-1.513
			C20.72,123.047,20.81,122.393,20.81,121.671z"/>
		<path fill="#542437" d="M34.484,121.671c0,0.882-0.127,1.694-0.38,2.435c-0.253,0.741-0.603,1.382-1.049,1.923
			s-0.977,0.962-1.589,1.262c-0.613,0.3-1.279,0.451-1.999,0.451s-1.386-0.151-1.999-0.451c-0.613-0.3-1.143-0.721-1.589-1.262
			c-0.447-0.541-0.797-1.183-1.049-1.923c-0.253-0.741-0.38-1.553-0.38-2.435c0-0.881,0.126-1.692,0.38-2.434
			c0.252-0.741,0.603-1.382,1.049-1.923c0.446-0.541,0.976-0.964,1.589-1.272c0.613-0.307,1.279-0.461,1.999-0.461
			s1.386,0.154,1.999,0.461c0.613,0.308,1.143,0.731,1.589,1.272s0.796,1.182,1.049,1.923
			C34.357,119.979,34.484,120.79,34.484,121.671z M33.104,121.671c0-0.721-0.09-1.375-0.27-1.963
			c-0.18-0.587-0.429-1.092-0.75-1.513c-0.32-0.42-0.703-0.747-1.149-0.981s-0.936-0.351-1.469-0.351
			c-0.546,0-1.043,0.117-1.489,0.351c-0.447,0.234-0.83,0.561-1.149,0.981c-0.32,0.421-0.57,0.926-0.75,1.513
			c-0.18,0.588-0.27,1.243-0.27,1.963c0,0.722,0.09,1.376,0.27,1.964c0.18,0.588,0.43,1.093,0.75,1.513
			c0.32,0.421,0.703,0.745,1.149,0.972c0.446,0.227,0.943,0.34,1.489,0.34c0.533,0,1.022-0.113,1.469-0.34s0.83-0.551,1.149-0.972
			c0.32-0.42,0.57-0.925,0.75-1.513C33.014,123.047,33.104,122.393,33.104,121.671z"/>
	</g>
	<g>
		<path fill="#542437" d="M10.116,74.767c0,0.681-0.13,1.319-0.39,1.914c-0.26,0.594-0.613,1.111-1.06,1.552
			c-0.447,0.44-0.977,0.788-1.589,1.042c-0.613,0.253-1.272,0.38-1.979,0.38c-0.747,0-1.433-0.137-2.059-0.411
			s-1.167-0.664-1.619-1.172C0.966,77.565,0.616,76.941,0.37,76.2C0.123,75.458,0,74.626,0,73.705c0-1.442,0.126-2.701,0.38-3.776
			c0.252-1.075,0.609-1.971,1.069-2.686c0.459-0.714,1.01-1.246,1.649-1.593c0.639-0.347,1.353-0.521,2.139-0.521
			c0.933,0,1.772,0.234,2.519,0.702c0.746,0.467,1.313,1.115,1.699,1.943l-0.879,0.801c-0.267-0.681-0.707-1.225-1.32-1.633
			c-0.613-0.407-1.293-0.611-2.039-0.611c-0.586,0-1.119,0.14-1.599,0.421c-0.48,0.28-0.89,0.685-1.229,1.212
			c-0.34,0.527-0.607,1.179-0.8,1.954c-0.193,0.774-0.29,1.649-0.29,2.624c0.293-0.788,0.796-1.416,1.509-1.883
			c0.713-0.466,1.522-0.701,2.429-0.701c0.68,0,1.316,0.124,1.909,0.371c0.593,0.248,1.109,0.588,1.549,1.022
			c0.44,0.434,0.786,0.945,1.04,1.533C9.989,73.472,10.116,74.099,10.116,74.767z M5.118,78.454c0.506,0,0.982-0.097,1.429-0.291
			c0.446-0.194,0.84-0.457,1.18-0.792c0.339-0.333,0.606-0.724,0.799-1.172c0.193-0.447,0.29-0.925,0.29-1.433
			c0-0.507-0.1-0.985-0.3-1.433c-0.2-0.447-0.467-0.837-0.8-1.172c-0.333-0.333-0.727-0.598-1.179-0.792
			C6.083,71.178,5.61,71.08,5.118,71.08c-0.507,0-0.987,0.098-1.439,0.291c-0.453,0.194-0.85,0.458-1.189,0.792
			c-0.34,0.334-0.607,0.725-0.8,1.172c-0.193,0.448-0.29,0.926-0.29,1.433c0,0.508,0.1,0.981,0.299,1.423
			c0.2,0.44,0.47,0.832,0.81,1.172s0.733,0.607,1.18,0.801C4.134,78.357,4.611,78.454,5.118,78.454z"/>
		<path fill="#542437" d="M22.189,73.584c0,0.881-0.127,1.693-0.38,2.435c-0.253,0.741-0.603,1.382-1.049,1.923
			c-0.447,0.541-0.977,0.962-1.589,1.262c-0.613,0.3-1.28,0.451-1.999,0.451c-0.72,0-1.387-0.15-1.999-0.451
			c-0.614-0.3-1.143-0.721-1.59-1.262c-0.446-0.541-0.796-1.183-1.049-1.923c-0.253-0.742-0.379-1.554-0.379-2.435
			s0.126-1.692,0.379-2.434c0.253-0.742,0.603-1.382,1.049-1.923c0.447-0.541,0.976-0.964,1.59-1.273
			c0.612-0.306,1.279-0.46,1.999-0.46c0.719,0,1.386,0.154,1.999,0.46c0.612,0.309,1.143,0.732,1.589,1.273
			c0.446,0.541,0.796,1.182,1.049,1.923C22.063,71.892,22.189,72.703,22.189,73.584z M20.81,73.584c0-0.721-0.089-1.375-0.27-1.963
			c-0.18-0.587-0.43-1.092-0.75-1.513c-0.319-0.42-0.703-0.747-1.149-0.981c-0.447-0.234-0.937-0.352-1.469-0.352
			c-0.547,0-1.043,0.118-1.49,0.352c-0.446,0.234-0.83,0.561-1.149,0.981c-0.319,0.421-0.569,0.926-0.75,1.513
			c-0.18,0.588-0.27,1.242-0.27,1.963c0,0.722,0.09,1.376,0.27,1.963c0.18,0.588,0.43,1.093,0.75,1.514
			c0.32,0.42,0.703,0.745,1.149,0.972c0.447,0.227,0.943,0.34,1.49,0.34c0.533,0,1.022-0.114,1.469-0.34
			c0.446-0.227,0.83-0.551,1.149-0.972c0.32-0.421,0.57-0.925,0.75-1.514C20.72,74.961,20.81,74.307,20.81,73.584z"/>
		<path fill="#542437" d="M34.484,73.584c0,0.881-0.127,1.693-0.38,2.435c-0.253,0.741-0.603,1.382-1.049,1.923
			s-0.977,0.962-1.589,1.262c-0.613,0.3-1.279,0.451-1.999,0.451s-1.386-0.15-1.999-0.451c-0.613-0.3-1.143-0.721-1.589-1.262
			c-0.447-0.541-0.797-1.183-1.049-1.923c-0.253-0.742-0.38-1.554-0.38-2.435s0.126-1.692,0.38-2.434
			c0.252-0.742,0.603-1.382,1.049-1.923c0.446-0.541,0.976-0.964,1.589-1.273c0.613-0.306,1.279-0.46,1.999-0.46
			s1.386,0.154,1.999,0.46c0.613,0.309,1.143,0.732,1.589,1.273s0.796,1.182,1.049,1.923S34.484,72.703,34.484,73.584z
			 M33.104,73.584c0-0.721-0.09-1.375-0.27-1.963c-0.18-0.587-0.429-1.092-0.75-1.513c-0.32-0.42-0.703-0.747-1.149-0.981
			s-0.936-0.352-1.469-0.352c-0.546,0-1.043,0.118-1.489,0.352c-0.447,0.234-0.83,0.561-1.149,0.981
			c-0.32,0.421-0.57,0.926-0.75,1.513c-0.18,0.588-0.27,1.242-0.27,1.963c0,0.722,0.09,1.376,0.27,1.963
			c0.18,0.588,0.43,1.093,0.75,1.514c0.32,0.42,0.703,0.745,1.149,0.972c0.446,0.227,0.943,0.34,1.489,0.34
			c0.533,0,1.022-0.114,1.469-0.34c0.447-0.227,0.83-0.551,1.149-0.972c0.32-0.421,0.57-0.925,0.75-1.514
			C33.014,74.961,33.104,74.307,33.104,73.584z"/>
	</g>
	<g>
		<path fill="#542437" d="M8.595,20.95H0.938v-1.262h9.816L3.578,33.914h-1.56L8.595,20.95z"/>
		<path fill="#542437" d="M22.189,25.498c0,0.881-0.127,1.693-0.38,2.435c-0.253,0.741-0.603,1.382-1.05,1.923
			c-0.446,0.541-0.977,0.962-1.589,1.262c-0.613,0.3-1.28,0.451-1.999,0.451c-0.72,0-1.387-0.15-1.999-0.451
			c-0.614-0.3-1.143-0.721-1.59-1.262c-0.446-0.541-0.796-1.183-1.049-1.923c-0.253-0.742-0.379-1.554-0.379-2.435
			s0.126-1.692,0.379-2.434c0.253-0.742,0.603-1.382,1.049-1.923c0.447-0.541,0.976-0.965,1.59-1.273
			c0.612-0.306,1.279-0.46,1.999-0.46c0.719,0,1.386,0.154,1.999,0.46c0.612,0.308,1.143,0.732,1.589,1.273
			c0.447,0.541,0.796,1.182,1.05,1.923C22.062,23.806,22.189,24.617,22.189,25.498z M20.809,25.498c0-0.721-0.089-1.375-0.27-1.963
			c-0.18-0.587-0.43-1.092-0.75-1.513c-0.319-0.42-0.703-0.748-1.149-0.981c-0.446-0.234-0.936-0.352-1.469-0.352
			c-0.547,0-1.043,0.118-1.49,0.352c-0.446,0.233-0.83,0.561-1.149,0.981c-0.319,0.421-0.569,0.926-0.75,1.513
			c-0.18,0.588-0.27,1.242-0.27,1.963c0,0.722,0.09,1.376,0.27,1.963c0.18,0.588,0.43,1.093,0.75,1.514
			c0.32,0.42,0.703,0.745,1.149,0.971c0.447,0.227,0.943,0.341,1.49,0.341c0.533,0,1.022-0.114,1.469-0.341
			c0.447-0.227,0.83-0.551,1.149-0.971c0.32-0.421,0.57-0.926,0.75-1.514C20.72,26.875,20.809,26.22,20.809,25.498z"/>
		<path fill="#542437" d="M34.483,25.498c0,0.881-0.127,1.693-0.38,2.435c-0.253,0.741-0.603,1.382-1.049,1.923
			s-0.977,0.962-1.589,1.262c-0.613,0.3-1.279,0.451-1.999,0.451s-1.386-0.15-1.999-0.451c-0.613-0.3-1.143-0.721-1.589-1.262
			c-0.447-0.541-0.797-1.183-1.049-1.923c-0.253-0.742-0.38-1.554-0.38-2.435s0.126-1.692,0.38-2.434
			c0.252-0.742,0.603-1.382,1.049-1.923c0.446-0.541,0.976-0.965,1.589-1.273c0.613-0.306,1.279-0.46,1.999-0.46
			s1.386,0.154,1.999,0.46c0.613,0.308,1.143,0.732,1.589,1.273s0.796,1.182,1.049,1.923S34.483,24.617,34.483,25.498z
			 M33.104,25.498c0-0.721-0.09-1.375-0.27-1.963c-0.18-0.587-0.429-1.092-0.75-1.513c-0.32-0.42-0.703-0.748-1.149-0.981
			c-0.447-0.234-0.936-0.352-1.469-0.352c-0.546,0-1.043,0.118-1.489,0.352c-0.447,0.233-0.83,0.561-1.149,0.981
			c-0.32,0.421-0.57,0.926-0.75,1.513c-0.18,0.588-0.27,1.242-0.27,1.963c0,0.722,0.09,1.376,0.27,1.963
			c0.18,0.588,0.43,1.093,0.75,1.514c0.319,0.42,0.703,0.745,1.149,0.971c0.446,0.227,0.943,0.341,1.489,0.341
			c0.533,0,1.022-0.114,1.469-0.341c0.447-0.227,0.83-0.551,1.149-0.971c0.32-0.421,0.57-0.926,0.75-1.514
			C33.014,26.875,33.104,26.22,33.104,25.498z"/>
	</g>
	<g>
		<path fill="#542437" d="M40.001,388.771v1.243h-6.777v-1.243h2.839v-8.575c-0.12,0.161-0.307,0.334-0.56,0.521
			c-0.253,0.188-0.537,0.361-0.85,0.521c-0.313,0.161-0.636,0.294-0.97,0.4c-0.333,0.107-0.626,0.16-0.879,0.16v-1.321
			c0.307,0,0.643-0.087,1.01-0.262c0.366-0.173,0.713-0.373,1.04-0.601c0.326-0.227,0.603-0.44,0.829-0.641
			c0.227-0.2,0.354-0.334,0.38-0.401h1.399v10.198H40.001z"/>
		<path fill="#542437" d="M51.617,384.144c0,0.881-0.127,1.693-0.38,2.435s-0.603,1.383-1.049,1.924
			c-0.447,0.541-0.977,0.962-1.589,1.262c-0.613,0.301-1.279,0.451-1.999,0.451s-1.386-0.15-1.999-0.451
			c-0.613-0.3-1.143-0.721-1.589-1.262c-0.447-0.541-0.797-1.183-1.049-1.924c-0.253-0.741-0.38-1.554-0.38-2.435
			c0-0.882,0.126-1.692,0.38-2.435c0.252-0.741,0.603-1.382,1.049-1.923c0.446-0.541,0.976-0.965,1.589-1.273
			c0.613-0.306,1.279-0.461,1.999-0.461s1.386,0.155,1.999,0.461c0.613,0.309,1.143,0.732,1.589,1.273
			c0.446,0.541,0.796,1.182,1.049,1.923C51.49,382.451,51.617,383.262,51.617,384.144z M50.237,384.144
			c0-0.722-0.09-1.376-0.27-1.964c-0.18-0.587-0.43-1.092-0.75-1.513c-0.32-0.42-0.703-0.747-1.149-0.98
			c-0.447-0.234-0.936-0.352-1.469-0.352c-0.546,0-1.043,0.117-1.489,0.352c-0.447,0.233-0.83,0.561-1.149,0.98
			c-0.32,0.421-0.57,0.926-0.75,1.513c-0.18,0.588-0.27,1.242-0.27,1.964s0.09,1.376,0.27,1.963c0.18,0.588,0.43,1.093,0.75,1.514
			c0.319,0.421,0.703,0.744,1.149,0.972c0.446,0.227,0.943,0.341,1.489,0.341c0.533,0,1.022-0.114,1.469-0.341
			c0.446-0.228,0.83-0.551,1.149-0.972s0.57-0.926,0.75-1.514C50.147,385.52,50.237,384.865,50.237,384.144z"/>
		<path fill="#542437" d="M64.23,375.788l-9.456,14.227h-1.54l9.436-14.227H64.23z"/>
		<path fill="#542437" d="M72.506,388.771v1.243h-6.777v-1.243h2.839v-8.575c-0.12,0.161-0.307,0.334-0.56,0.521
			c-0.253,0.188-0.537,0.361-0.85,0.521c-0.313,0.161-0.636,0.294-0.97,0.4c-0.333,0.107-0.626,0.16-0.879,0.16v-1.321
			c0.306,0,0.643-0.087,1.01-0.262c0.366-0.173,0.712-0.373,1.04-0.601c0.326-0.227,0.603-0.44,0.829-0.641s0.354-0.334,0.38-0.401
			h1.399v10.198H72.506z"/>
		<path fill="#542437" d="M84.521,375.788l-9.456,14.227h-1.539l9.436-14.227H84.521z"/>
		<path fill="#542437" d="M85.64,390.015c0-0.494,0.043-0.979,0.129-1.453c0.086-0.474,0.253-0.932,0.5-1.373
			c0.247-0.439,0.586-0.864,1.02-1.271c0.433-0.407,0.99-0.791,1.669-1.152c0.36-0.188,0.75-0.377,1.169-0.57
			c0.42-0.194,0.81-0.411,1.17-0.651c0.36-0.241,0.656-0.508,0.889-0.802c0.233-0.293,0.35-0.642,0.35-1.042
			c0-0.253-0.057-0.508-0.17-0.761c-0.113-0.255-0.279-0.481-0.5-0.682c-0.22-0.201-0.494-0.36-0.82-0.48
			c-0.327-0.121-0.703-0.182-1.129-0.182c-0.44,0-0.837,0.063-1.189,0.191c-0.354,0.127-0.663,0.276-0.929,0.451
			c-0.267,0.173-0.49,0.356-0.67,0.551c-0.18,0.193-0.316,0.35-0.409,0.47l-0.9-0.98c0.08-0.081,0.233-0.228,0.46-0.441
			c0.227-0.214,0.522-0.428,0.889-0.641c0.367-0.214,0.8-0.404,1.3-0.571c0.5-0.167,1.063-0.251,1.689-0.251
			c0.6,0,1.136,0.084,1.609,0.251c0.473,0.167,0.876,0.397,1.209,0.691c0.333,0.293,0.586,0.631,0.76,1.012
			c0.173,0.38,0.26,0.784,0.26,1.212c0,0.561-0.13,1.045-0.39,1.453c-0.26,0.406-0.577,0.758-0.95,1.052
			c-0.374,0.293-0.756,0.533-1.149,0.721c-0.394,0.188-0.716,0.34-0.97,0.461c-0.6,0.268-1.1,0.528-1.5,0.781
			c-0.399,0.255-0.726,0.515-0.979,0.782c-0.253,0.267-0.443,0.561-0.569,0.881c-0.127,0.321-0.217,0.688-0.27,1.102h6.997v1.243
			H85.64z"/>
		<path fill="#542437" d="M106.45,384.144c0,0.881-0.127,1.693-0.38,2.435c-0.253,0.741-0.603,1.383-1.049,1.924
			c-0.446,0.541-0.977,0.962-1.589,1.262c-0.614,0.301-1.28,0.451-1.999,0.451c-0.72,0-1.387-0.15-1.999-0.451
			c-0.614-0.3-1.143-0.721-1.59-1.262c-0.446-0.541-0.796-1.183-1.049-1.924c-0.253-0.741-0.38-1.554-0.38-2.435
			c0-0.882,0.126-1.692,0.38-2.435c0.253-0.741,0.603-1.382,1.049-1.923c0.447-0.541,0.976-0.965,1.59-1.273
			c0.612-0.306,1.279-0.461,1.999-0.461c0.719,0,1.385,0.155,1.999,0.461c0.612,0.309,1.143,0.732,1.589,1.273
			c0.447,0.541,0.796,1.182,1.049,1.923C106.323,382.451,106.45,383.262,106.45,384.144z M105.07,384.144
			c0-0.722-0.09-1.376-0.27-1.964c-0.18-0.587-0.43-1.092-0.75-1.513c-0.319-0.42-0.703-0.747-1.149-0.98
			c-0.446-0.234-0.936-0.352-1.469-0.352c-0.547,0-1.043,0.117-1.49,0.352c-0.446,0.233-0.83,0.561-1.149,0.98
			c-0.319,0.421-0.569,0.926-0.75,1.513c-0.18,0.588-0.27,1.242-0.27,1.964s0.09,1.376,0.27,1.963c0.18,0.588,0.43,1.093,0.75,1.514
			c0.32,0.421,0.703,0.744,1.149,0.972c0.447,0.227,0.943,0.341,1.49,0.341c0.533,0,1.022-0.114,1.469-0.341
			c0.447-0.228,0.83-0.551,1.149-0.972c0.32-0.421,0.57-0.926,0.75-1.514C104.98,385.52,105.07,384.865,105.07,384.144z"/>
		<path fill="#542437" d="M115.686,388.771v1.243h-6.777v-1.243h2.839v-8.575c-0.12,0.161-0.307,0.334-0.56,0.521
			c-0.253,0.188-0.537,0.361-0.85,0.521c-0.313,0.161-0.636,0.294-0.97,0.4c-0.333,0.107-0.626,0.16-0.879,0.16v-1.321
			c0.307,0,0.643-0.087,1.01-0.262c0.366-0.173,0.712-0.373,1.04-0.601c0.326-0.227,0.603-0.44,0.829-0.641
			c0.227-0.2,0.354-0.334,0.38-0.401h1.399v10.198H115.686z"/>
		<path fill="#542437" d="M123.002,385.286c0.88,0.146,1.583,0.548,2.109,1.202c0.526,0.654,0.79,1.463,0.79,2.425
			c0,0.601-0.11,1.151-0.33,1.652c-0.22,0.5-0.533,0.928-0.94,1.282s-0.893,0.628-1.459,0.821c-0.566,0.193-1.196,0.291-1.889,0.291
			c-1.013,0-1.899-0.204-2.659-0.611c-0.76-0.408-1.333-0.972-1.72-1.693l0.94-0.861c0.28,0.587,0.707,1.055,1.279,1.402
			c0.573,0.347,1.292,0.521,2.159,0.521c1,0,1.786-0.244,2.359-0.732c0.573-0.487,0.859-1.185,0.859-2.094
			c0-0.921-0.3-1.649-0.899-2.184c-0.6-0.534-1.466-0.801-2.599-0.801h-0.5v-1.162h0.54c1.026,0,1.813-0.241,2.359-0.723
			c0.547-0.479,0.82-1.102,0.82-1.862c0-0.401-0.074-0.751-0.22-1.052c-0.147-0.301-0.35-0.555-0.61-0.762
			c-0.26-0.207-0.566-0.363-0.919-0.471c-0.354-0.106-0.736-0.16-1.149-0.16c-0.76,0-1.43,0.17-2.009,0.511
			c-0.58,0.341-1.016,0.812-1.31,1.412l-0.879-0.841c0.16-0.348,0.387-0.665,0.68-0.952s0.626-0.53,1-0.731
			c0.373-0.2,0.787-0.356,1.239-0.47c0.453-0.114,0.919-0.171,1.399-0.171c0.613,0,1.176,0.086,1.689,0.261
			c0.513,0.173,0.957,0.417,1.33,0.73c0.373,0.314,0.663,0.691,0.87,1.132c0.207,0.441,0.31,0.93,0.31,1.463
			c0,0.401-0.06,0.785-0.18,1.152c-0.12,0.368-0.293,0.694-0.52,0.982c-0.227,0.286-0.503,0.527-0.83,0.721
			C123.785,385.108,123.415,385.232,123.002,385.286z"/>
	</g>
	<g>
		<path fill="#542437" d="M212.922,388.771v1.243h-6.777v-1.243h2.839v-8.575c-0.12,0.161-0.307,0.334-0.56,0.521
			c-0.254,0.188-0.537,0.361-0.85,0.521c-0.313,0.161-0.636,0.294-0.969,0.4c-0.333,0.107-0.626,0.16-0.879,0.16v-1.321
			c0.306,0,0.643-0.087,1.009-0.262c0.367-0.173,0.713-0.373,1.04-0.601c0.327-0.227,0.603-0.44,0.83-0.641s0.354-0.334,0.38-0.401
			h1.399v10.198H212.922z"/>
		<path fill="#542437" d="M224.536,384.144c0,0.881-0.127,1.693-0.38,2.435c-0.252,0.741-0.603,1.383-1.049,1.924
			c-0.447,0.541-0.976,0.962-1.589,1.262c-0.613,0.301-1.28,0.451-1.999,0.451c-0.72,0-1.386-0.15-1.999-0.451
			c-0.613-0.3-1.143-0.721-1.589-1.262c-0.447-0.541-0.796-1.183-1.05-1.924c-0.253-0.741-0.379-1.554-0.379-2.435
			c0-0.882,0.126-1.692,0.379-2.435c0.254-0.741,0.604-1.382,1.05-1.923c0.446-0.541,0.976-0.965,1.589-1.273
			c0.613-0.306,1.279-0.461,1.999-0.461c0.719,0,1.386,0.155,1.999,0.461c0.613,0.309,1.142,0.732,1.589,1.273
			c0.446,0.541,0.797,1.182,1.049,1.923C224.409,382.451,224.536,383.262,224.536,384.144z M223.157,384.144
			c0-0.722-0.09-1.376-0.269-1.964c-0.181-0.587-0.431-1.092-0.75-1.513c-0.32-0.42-0.704-0.747-1.15-0.98
			c-0.446-0.234-0.936-0.352-1.469-0.352c-0.547,0-1.043,0.117-1.49,0.352c-0.447,0.233-0.83,0.561-1.15,0.98
			c-0.319,0.421-0.569,0.926-0.75,1.513c-0.18,0.588-0.27,1.242-0.27,1.964s0.09,1.376,0.27,1.963
			c0.181,0.588,0.431,1.093,0.75,1.514c0.32,0.421,0.703,0.744,1.15,0.972c0.446,0.227,0.943,0.341,1.49,0.341
			c0.533,0,1.023-0.114,1.469-0.341c0.446-0.228,0.83-0.551,1.15-0.972c0.319-0.421,0.569-0.926,0.75-1.514
			C223.067,385.52,223.157,384.865,223.157,384.144z"/>
		<path fill="#542437" d="M237.15,375.788l-9.456,14.227h-1.539l9.435-14.227H237.15z"/>
		<path fill="#542437" d="M245.428,388.771v1.243h-6.778v-1.243h2.838v-8.575c-0.12,0.161-0.307,0.334-0.559,0.521
			c-0.254,0.188-0.537,0.361-0.852,0.521c-0.312,0.161-0.636,0.294-0.969,0.4c-0.333,0.107-0.626,0.16-0.879,0.16v-1.321
			c0.307,0,0.644-0.087,1.009-0.262c0.367-0.173,0.714-0.373,1.04-0.601c0.326-0.227,0.604-0.44,0.83-0.641
			c0.226-0.2,0.353-0.334,0.379-0.401h1.4v10.198H245.428z"/>
		<path fill="#542437" d="M251.463,383.763c0.654,0,1.26,0.11,1.82,0.331c0.561,0.22,1.049,0.531,1.469,0.931
			c0.42,0.401,0.75,0.879,0.99,1.434s0.359,1.165,0.359,1.833c0,0.709-0.129,1.353-0.391,1.934c-0.26,0.581-0.613,1.075-1.059,1.483
			c-0.447,0.406-0.969,0.724-1.57,0.95c-0.6,0.228-1.238,0.342-1.918,0.342c-0.508,0-0.99-0.063-1.449-0.19
			c-0.461-0.128-0.883-0.311-1.27-0.551c-0.387-0.241-0.736-0.528-1.049-0.862c-0.314-0.334-0.57-0.708-0.771-1.122l0.9-0.681
			c0.373,0.654,0.883,1.182,1.529,1.583c0.646,0.399,1.355,0.601,2.129,0.601c0.494,0,0.953-0.083,1.379-0.251
			c0.428-0.167,0.801-0.403,1.121-0.711c0.318-0.308,0.568-0.674,0.75-1.102c0.178-0.428,0.268-0.896,0.268-1.403
			c0-0.494-0.086-0.944-0.258-1.352c-0.174-0.408-0.414-0.759-0.721-1.052c-0.307-0.295-0.664-0.521-1.07-0.682
			c-0.406-0.161-0.848-0.24-1.328-0.24c-0.641,0-1.236,0.137-1.789,0.41c-0.555,0.273-1.004,0.671-1.35,1.192h-1.26
			c0.014-0.08,0.047-0.26,0.1-0.541c0.053-0.28,0.121-0.614,0.201-1.002c0.08-0.387,0.166-0.817,0.26-1.292
			c0.092-0.474,0.186-0.952,0.279-1.433c0.227-1.122,0.473-2.371,0.738-3.747h6.857v1.263h-5.836l-0.98,5.109
			c0.346-0.374,0.77-0.664,1.27-0.871C250.314,383.866,250.863,383.763,251.463,383.763z"/>
		<path fill="#542437" d="M268.457,375.788L259,390.015h-1.539l9.436-14.227H268.457z"/>
		<path fill="#542437" d="M269.574,390.015c0-0.494,0.045-0.979,0.131-1.453c0.086-0.474,0.254-0.932,0.5-1.373
			c0.246-0.439,0.586-0.864,1.02-1.271s0.99-0.791,1.67-1.152c0.359-0.188,0.748-0.377,1.168-0.57
			c0.42-0.194,0.811-0.411,1.17-0.651c0.361-0.241,0.656-0.508,0.891-0.802c0.232-0.293,0.35-0.642,0.35-1.042
			c0-0.253-0.057-0.508-0.17-0.761c-0.113-0.255-0.281-0.481-0.5-0.682c-0.219-0.201-0.492-0.36-0.82-0.48
			c-0.326-0.121-0.703-0.182-1.129-0.182c-0.439,0-0.836,0.063-1.189,0.191c-0.354,0.127-0.664,0.276-0.93,0.451
			c-0.266,0.173-0.488,0.356-0.67,0.551c-0.18,0.193-0.316,0.35-0.41,0.47l-0.898-0.98c0.08-0.081,0.232-0.228,0.459-0.441
			s0.523-0.428,0.891-0.641c0.367-0.214,0.799-0.404,1.299-0.571s1.063-0.251,1.689-0.251c0.6,0,1.137,0.084,1.609,0.251
			s0.875,0.397,1.209,0.691c0.334,0.293,0.586,0.631,0.76,1.012c0.174,0.38,0.26,0.784,0.26,1.212c0,0.561-0.129,1.045-0.389,1.453
			c-0.26,0.406-0.578,0.758-0.951,1.052c-0.373,0.293-0.756,0.533-1.148,0.721c-0.395,0.188-0.717,0.34-0.971,0.461
			c-0.6,0.268-1.098,0.528-1.498,0.781c-0.4,0.255-0.727,0.515-0.98,0.782c-0.254,0.267-0.443,0.561-0.568,0.881
			c-0.127,0.321-0.217,0.688-0.271,1.102h6.996v1.243H269.574z"/>
		<path fill="#542437" d="M290.387,384.144c0,0.881-0.127,1.693-0.381,2.435c-0.252,0.741-0.604,1.383-1.049,1.924
			c-0.447,0.541-0.977,0.962-1.59,1.262c-0.613,0.301-1.279,0.451-1.998,0.451c-0.721,0-1.387-0.15-2-0.451
			c-0.613-0.3-1.143-0.721-1.588-1.262c-0.447-0.541-0.797-1.183-1.051-1.924s-0.381-1.554-0.381-2.435
			c0-0.882,0.127-1.692,0.381-2.435c0.254-0.741,0.604-1.382,1.051-1.923c0.445-0.541,0.975-0.965,1.588-1.273
			c0.613-0.306,1.279-0.461,2-0.461c0.719,0,1.385,0.155,1.998,0.461c0.613,0.309,1.143,0.732,1.59,1.273
			c0.445,0.541,0.797,1.182,1.049,1.923C290.26,382.451,290.387,383.262,290.387,384.144z M289.006,384.144
			c0-0.722-0.09-1.376-0.27-1.964c-0.18-0.587-0.43-1.092-0.748-1.513c-0.32-0.42-0.705-0.747-1.15-0.98
			c-0.445-0.234-0.936-0.352-1.469-0.352c-0.547,0-1.045,0.117-1.49,0.352c-0.447,0.233-0.83,0.561-1.15,0.98
			c-0.318,0.421-0.568,0.926-0.748,1.513c-0.18,0.588-0.27,1.242-0.27,1.964s0.09,1.376,0.27,1.963
			c0.18,0.588,0.43,1.093,0.748,1.514c0.32,0.421,0.703,0.744,1.15,0.972c0.445,0.227,0.943,0.341,1.49,0.341
			c0.533,0,1.023-0.114,1.469-0.341c0.445-0.228,0.83-0.551,1.15-0.972c0.318-0.421,0.568-0.926,0.748-1.514
			C288.916,385.52,289.006,384.865,289.006,384.144z"/>
		<path fill="#542437" d="M299.621,388.771v1.243h-6.777v-1.243h2.84v-8.575c-0.121,0.161-0.307,0.334-0.561,0.521
			c-0.252,0.188-0.535,0.361-0.85,0.521c-0.313,0.161-0.637,0.294-0.969,0.4c-0.334,0.107-0.627,0.16-0.879,0.16v-1.321
			c0.307,0,0.643-0.087,1.008-0.262c0.367-0.173,0.715-0.373,1.041-0.601c0.326-0.227,0.602-0.44,0.828-0.641
			s0.354-0.334,0.381-0.401h1.398v10.198H299.621z"/>
		<path fill="#542437" d="M306.938,385.286c0.879,0.146,1.582,0.548,2.109,1.202s0.789,1.463,0.789,2.425
			c0,0.601-0.109,1.151-0.328,1.652c-0.221,0.5-0.533,0.928-0.941,1.282c-0.406,0.354-0.893,0.628-1.459,0.821
			s-1.195,0.291-1.889,0.291c-1.014,0-1.898-0.204-2.658-0.611c-0.76-0.408-1.332-0.972-1.719-1.693l0.938-0.861
			c0.281,0.587,0.707,1.055,1.281,1.402c0.572,0.347,1.291,0.521,2.158,0.521c1,0,1.785-0.244,2.359-0.732
			c0.572-0.487,0.859-1.185,0.859-2.094c0-0.921-0.301-1.649-0.898-2.184c-0.602-0.534-1.469-0.801-2.6-0.801h-0.5v-1.162h0.539
			c1.025,0,1.813-0.241,2.359-0.723c0.545-0.479,0.818-1.102,0.818-1.862c0-0.401-0.072-0.751-0.219-1.052s-0.35-0.555-0.609-0.762
			s-0.566-0.363-0.92-0.471c-0.354-0.106-0.736-0.16-1.148-0.16c-0.76,0-1.432,0.17-2.01,0.511c-0.58,0.341-1.018,0.812-1.311,1.412
			l-0.879-0.841c0.16-0.348,0.387-0.665,0.68-0.952s0.627-0.53,1-0.731c0.373-0.2,0.785-0.356,1.238-0.47
			c0.453-0.114,0.92-0.171,1.4-0.171c0.613,0,1.176,0.086,1.689,0.261c0.514,0.173,0.955,0.417,1.328,0.73
			c0.373,0.314,0.664,0.691,0.871,1.132c0.207,0.441,0.309,0.93,0.309,1.463c0,0.401-0.059,0.785-0.18,1.152
			c-0.119,0.368-0.293,0.694-0.52,0.982c-0.227,0.286-0.504,0.527-0.83,0.721S307.352,385.232,306.938,385.286z"/>
	</g>
	<g>
		<path fill="#542437" d="M377.848,388.771v1.243h-6.777v-1.243h2.838v-8.575c-0.121,0.161-0.307,0.334-0.559,0.521
			c-0.254,0.188-0.537,0.361-0.852,0.521c-0.313,0.161-0.637,0.294-0.969,0.4c-0.332,0.107-0.627,0.16-0.879,0.16v-1.321
			c0.307,0,0.643-0.087,1.008-0.262c0.367-0.173,0.715-0.373,1.041-0.601c0.326-0.227,0.604-0.44,0.83-0.641
			c0.225-0.2,0.352-0.334,0.379-0.401h1.4v10.198H377.848z"/>
		<path fill="#542437" d="M389.461,384.144c0,0.881-0.127,1.693-0.381,2.435c-0.252,0.741-0.602,1.383-1.049,1.924
			s-0.977,0.962-1.588,1.262c-0.613,0.301-1.281,0.451-2,0.451s-1.387-0.15-2-0.451c-0.611-0.3-1.143-0.721-1.588-1.262
			c-0.447-0.541-0.797-1.183-1.051-1.924c-0.252-0.741-0.379-1.554-0.379-2.435c0-0.882,0.127-1.692,0.379-2.435
			c0.254-0.741,0.604-1.382,1.051-1.923c0.445-0.541,0.977-0.965,1.588-1.273c0.613-0.306,1.281-0.461,2-0.461s1.387,0.155,2,0.461
			c0.611,0.309,1.141,0.732,1.588,1.273s0.797,1.182,1.049,1.923C389.334,382.451,389.461,383.262,389.461,384.144z
			 M388.082,384.144c0-0.722-0.09-1.376-0.27-1.964c-0.182-0.587-0.432-1.092-0.75-1.513c-0.32-0.42-0.703-0.747-1.15-0.98
			c-0.445-0.234-0.936-0.352-1.469-0.352c-0.547,0-1.043,0.117-1.49,0.352c-0.447,0.233-0.828,0.561-1.148,0.98
			c-0.32,0.421-0.57,0.926-0.75,1.513c-0.18,0.588-0.27,1.242-0.27,1.964s0.09,1.376,0.27,1.963c0.18,0.588,0.43,1.093,0.75,1.514
			s0.701,0.744,1.148,0.972c0.447,0.227,0.943,0.341,1.49,0.341c0.533,0,1.023-0.114,1.469-0.341c0.447-0.228,0.83-0.551,1.15-0.972
			c0.318-0.421,0.568-0.926,0.75-1.514C387.992,385.52,388.082,384.865,388.082,384.144z"/>
		<path fill="#542437" d="M402.074,375.788l-9.455,14.227h-1.539l9.436-14.227H402.074z"/>
		<path fill="#542437" d="M408.992,385.286c0.879,0.146,1.582,0.548,2.109,1.202c0.525,0.654,0.789,1.463,0.789,2.425
			c0,0.601-0.109,1.151-0.33,1.652c-0.219,0.5-0.533,0.928-0.939,1.282s-0.893,0.628-1.459,0.821s-1.197,0.291-1.889,0.291
			c-1.014,0-1.9-0.204-2.66-0.611c-0.76-0.408-1.332-0.972-1.719-1.693l0.939-0.861c0.279,0.587,0.707,1.055,1.279,1.402
			c0.574,0.347,1.293,0.521,2.16,0.521c0.998,0,1.785-0.244,2.357-0.732c0.572-0.487,0.859-1.185,0.859-2.094
			c0-0.921-0.299-1.649-0.898-2.184s-1.467-0.801-2.6-0.801h-0.5v-1.162h0.541c1.025,0,1.813-0.241,2.359-0.723
			c0.545-0.479,0.818-1.102,0.818-1.862c0-0.401-0.074-0.751-0.221-1.052c-0.145-0.301-0.348-0.555-0.609-0.762
			c-0.26-0.207-0.566-0.363-0.92-0.471c-0.354-0.106-0.734-0.16-1.148-0.16c-0.76,0-1.43,0.17-2.008,0.511
			c-0.58,0.341-1.018,0.812-1.311,1.412l-0.879-0.841c0.16-0.348,0.387-0.665,0.678-0.952c0.293-0.287,0.627-0.53,1-0.731
			c0.373-0.2,0.787-0.356,1.24-0.47c0.453-0.114,0.92-0.171,1.4-0.171c0.611,0,1.174,0.086,1.688,0.261
			c0.514,0.173,0.957,0.417,1.33,0.73c0.373,0.314,0.662,0.691,0.869,1.132c0.207,0.441,0.311,0.93,0.311,1.463
			c0,0.401-0.061,0.785-0.18,1.152c-0.121,0.368-0.293,0.694-0.52,0.982c-0.229,0.286-0.504,0.527-0.83,0.721
			S409.404,385.232,408.992,385.286z"/>
		<path fill="#542437" d="M424.004,384.144c0,0.881-0.127,1.693-0.379,2.435c-0.254,0.741-0.604,1.383-1.049,1.924
			c-0.447,0.541-0.977,0.962-1.59,1.262c-0.613,0.301-1.279,0.451-2,0.451c-0.719,0-1.385-0.15-1.998-0.451
			c-0.613-0.3-1.143-0.721-1.59-1.262s-0.797-1.183-1.051-1.924c-0.252-0.741-0.379-1.554-0.379-2.435
			c0-0.882,0.127-1.692,0.379-2.435c0.254-0.741,0.604-1.382,1.051-1.923s0.977-0.965,1.59-1.273
			c0.613-0.306,1.279-0.461,1.998-0.461c0.721,0,1.387,0.155,2,0.461c0.613,0.309,1.143,0.732,1.59,1.273
			c0.445,0.541,0.795,1.182,1.049,1.923C423.877,382.451,424.004,383.262,424.004,384.144z M422.625,384.144
			c0-0.722-0.09-1.376-0.27-1.964c-0.18-0.587-0.43-1.092-0.75-1.513c-0.32-0.42-0.703-0.747-1.148-0.98
			c-0.447-0.234-0.938-0.352-1.471-0.352c-0.545,0-1.043,0.117-1.488,0.352c-0.447,0.233-0.83,0.561-1.15,0.98
			c-0.318,0.421-0.568,0.926-0.75,1.513c-0.18,0.588-0.27,1.242-0.27,1.964s0.09,1.376,0.27,1.963
			c0.182,0.588,0.432,1.093,0.75,1.514c0.32,0.421,0.703,0.744,1.15,0.972c0.445,0.227,0.943,0.341,1.488,0.341
			c0.533,0,1.023-0.114,1.471-0.341c0.445-0.228,0.828-0.551,1.148-0.972s0.57-0.926,0.75-1.514
			C422.535,385.52,422.625,384.865,422.625,384.144z"/>
		<path fill="#542437" d="M436.619,375.788l-9.455,14.227h-1.539l9.436-14.227H436.619z"/>
		<path fill="#542437" d="M437.738,390.015c0-0.494,0.043-0.979,0.131-1.453c0.086-0.474,0.252-0.932,0.5-1.373
			c0.246-0.439,0.586-0.864,1.02-1.271c0.432-0.407,0.988-0.791,1.668-1.152c0.361-0.188,0.75-0.377,1.17-0.57
			c0.42-0.194,0.811-0.411,1.17-0.651c0.359-0.241,0.656-0.508,0.889-0.802c0.232-0.293,0.35-0.642,0.35-1.042
			c0-0.253-0.057-0.508-0.17-0.761c-0.113-0.255-0.279-0.481-0.498-0.682c-0.221-0.201-0.494-0.36-0.82-0.48
			c-0.326-0.121-0.703-0.182-1.131-0.182c-0.438,0-0.836,0.063-1.188,0.191c-0.354,0.127-0.664,0.276-0.932,0.451
			c-0.266,0.173-0.488,0.356-0.668,0.551c-0.18,0.193-0.316,0.35-0.41,0.47l-0.9-0.98c0.08-0.081,0.234-0.228,0.461-0.441
			s0.523-0.428,0.889-0.641c0.367-0.214,0.799-0.404,1.299-0.571s1.064-0.251,1.689-0.251c0.6,0,1.137,0.084,1.611,0.251
			c0.471,0.167,0.875,0.397,1.209,0.691c0.332,0.293,0.586,0.631,0.76,1.012c0.172,0.38,0.26,0.784,0.26,1.212
			c0,0.561-0.131,1.045-0.391,1.453c-0.26,0.406-0.576,0.758-0.949,1.052c-0.373,0.293-0.756,0.533-1.15,0.721
			c-0.393,0.188-0.717,0.34-0.969,0.461c-0.6,0.268-1.1,0.528-1.5,0.781c-0.4,0.255-0.727,0.515-0.979,0.782
			c-0.254,0.267-0.443,0.561-0.57,0.881c-0.127,0.321-0.217,0.688-0.27,1.102h6.996v1.243H437.738z"/>
		<path fill="#542437" d="M458.549,384.144c0,0.881-0.127,1.693-0.381,2.435c-0.252,0.741-0.604,1.383-1.049,1.924
			c-0.447,0.541-0.977,0.962-1.59,1.262c-0.613,0.301-1.279,0.451-1.998,0.451c-0.721,0-1.387-0.15-2-0.451
			c-0.613-0.3-1.143-0.721-1.588-1.262c-0.447-0.541-0.797-1.183-1.051-1.924s-0.381-1.554-0.381-2.435
			c0-0.882,0.127-1.692,0.381-2.435c0.254-0.741,0.604-1.382,1.051-1.923c0.445-0.541,0.975-0.965,1.588-1.273
			c0.613-0.306,1.279-0.461,2-0.461c0.719,0,1.385,0.155,1.998,0.461c0.613,0.309,1.143,0.732,1.59,1.273
			c0.445,0.541,0.797,1.182,1.049,1.923C458.422,382.451,458.549,383.262,458.549,384.144z M457.168,384.144
			c0-0.722-0.09-1.376-0.27-1.964c-0.18-0.587-0.43-1.092-0.748-1.513c-0.32-0.42-0.705-0.747-1.15-0.98
			c-0.445-0.234-0.936-0.352-1.469-0.352c-0.547,0-1.043,0.117-1.49,0.352c-0.447,0.233-0.83,0.561-1.15,0.98
			c-0.318,0.421-0.568,0.926-0.748,1.513c-0.18,0.588-0.27,1.242-0.27,1.964s0.09,1.376,0.27,1.963
			c0.18,0.588,0.43,1.093,0.748,1.514c0.32,0.421,0.703,0.744,1.15,0.972c0.447,0.227,0.943,0.341,1.49,0.341
			c0.533,0,1.023-0.114,1.469-0.341c0.445-0.228,0.83-0.551,1.15-0.972c0.318-0.421,0.568-0.926,0.748-1.514
			C457.078,385.52,457.168,384.865,457.168,384.144z"/>
		<path fill="#542437" d="M467.783,388.771v1.243h-6.775v-1.243h2.838v-8.575c-0.121,0.161-0.307,0.334-0.561,0.521
			c-0.252,0.188-0.535,0.361-0.85,0.521c-0.313,0.161-0.637,0.294-0.969,0.4c-0.334,0.107-0.627,0.16-0.879,0.16v-1.321
			c0.307,0,0.643-0.087,1.008-0.262c0.367-0.173,0.715-0.373,1.041-0.601c0.326-0.227,0.602-0.44,0.828-0.641
			s0.354-0.334,0.381-0.401h1.4v10.198H467.783z"/>
		<path fill="#542437" d="M475.102,385.286c0.879,0.146,1.582,0.548,2.109,1.202c0.525,0.654,0.789,1.463,0.789,2.425
			c0,0.601-0.109,1.151-0.33,1.652c-0.219,0.5-0.533,0.928-0.939,1.282s-0.893,0.628-1.459,0.821s-1.197,0.291-1.889,0.291
			c-1.014,0-1.9-0.204-2.66-0.611c-0.76-0.408-1.332-0.972-1.719-1.693l0.939-0.861c0.279,0.587,0.707,1.055,1.279,1.402
			c0.572,0.347,1.293,0.521,2.16,0.521c0.998,0,1.785-0.244,2.357-0.732c0.572-0.487,0.859-1.185,0.859-2.094
			c0-0.921-0.299-1.649-0.898-2.184s-1.467-0.801-2.6-0.801h-0.5v-1.162h0.541c1.025,0,1.813-0.241,2.359-0.723
			c0.545-0.479,0.818-1.102,0.818-1.862c0-0.401-0.074-0.751-0.221-1.052c-0.145-0.301-0.348-0.555-0.609-0.762
			c-0.26-0.207-0.566-0.363-0.92-0.471c-0.354-0.106-0.734-0.16-1.148-0.16c-0.76,0-1.43,0.17-2.008,0.511
			c-0.58,0.341-1.018,0.812-1.311,1.412l-0.879-0.841c0.16-0.348,0.385-0.665,0.678-0.952s0.627-0.53,1-0.731
			c0.373-0.2,0.787-0.356,1.24-0.47c0.453-0.114,0.92-0.171,1.4-0.171c0.611,0,1.174,0.086,1.688,0.261
			c0.514,0.173,0.957,0.417,1.33,0.73c0.373,0.314,0.662,0.691,0.869,1.132c0.207,0.441,0.311,0.93,0.311,1.463
			c0,0.401-0.061,0.785-0.18,1.152c-0.121,0.368-0.293,0.694-0.52,0.982c-0.229,0.286-0.504,0.527-0.83,0.721
			S475.514,385.232,475.102,385.286z"/>
	</g>
</g>
</svg>
