<?xml version="1.0" encoding="utf-8"?>
<!-- Generator: Adobe Illustrator 16.0.0, SVG Export Plug-In . SVG Version: 6.00 Build 0)  -->
<!DOCTYPE svg PUBLIC "-//W3C//DTD SVG 1.1//EN" "http://www.w3.org/Graphics/SVG/1.1/DTD/svg11.dtd">
<svg version="1.1" id="Layer_1" xmlns="http://www.w3.org/2000/svg" xmlns:xlink="http://www.w3.org/1999/xlink" x="0px" y="0px"
	 width="240px" height="166px" viewBox="0 0 240 166" enable-background="new 0 0 240 166" xml:space="preserve">
<g>
	<rect x="56.393" y="93.984" fill="#0992A4" width="35.44" height="72.016"/>
	<rect x="101.566" y="119.444" fill="#FED093" width="35.44" height="46.556"/>
	<rect x="146.739" y="59.795" fill="#0992A4" width="35.439" height="106.205"/>
	<rect x="191.912" y="26.333" fill="#FED093" width="35.44" height="139.667"/>
	<polyline fill="none" stroke="#542437" stroke-width="2" stroke-miterlimit="10" points="240,166 43.278,166 43.278,0.873 	"/>
	<g>
		<g>
			<path fill="#542437" d="M120.394,139.288c0.642,0.107,1.154,0.398,1.537,0.874c0.384,0.475,0.577,1.061,0.577,1.76
				c0,0.437-0.08,0.836-0.241,1.201c-0.16,0.363-0.39,0.673-0.685,0.93c-0.297,0.257-0.651,0.456-1.064,0.597
				s-0.872,0.211-1.377,0.211c-0.738,0-1.384-0.147-1.938-0.443c-0.553-0.296-0.971-0.706-1.253-1.229l0.685-0.626
				c0.204,0.428,0.515,0.767,0.933,1.019c0.418,0.252,0.942,0.379,1.574,0.379c0.729,0,1.302-0.178,1.72-0.531
				s0.626-0.86,0.626-1.521c0-0.669-0.218-1.198-0.655-1.585c-0.438-0.389-1.069-0.583-1.895-0.583h-0.364v-0.844h0.394
				c0.748,0,1.321-0.174,1.72-0.523c0.397-0.35,0.597-0.8,0.597-1.353c0-0.292-0.053-0.546-0.159-0.765
				c-0.107-0.218-0.256-0.402-0.444-0.553c-0.189-0.15-0.413-0.264-0.671-0.342c-0.258-0.077-0.537-0.116-0.838-0.116
				c-0.554,0-1.042,0.124-1.465,0.371c-0.422,0.247-0.741,0.589-0.954,1.025l-0.641-0.61c0.117-0.252,0.281-0.482,0.495-0.692
				c0.214-0.208,0.457-0.385,0.729-0.53c0.272-0.146,0.573-0.259,0.903-0.342c0.33-0.082,0.67-0.124,1.02-0.124
				c0.447,0,0.857,0.063,1.232,0.189c0.373,0.126,0.697,0.303,0.969,0.531c0.271,0.227,0.482,0.502,0.634,0.821
				c0.149,0.32,0.226,0.674,0.226,1.063c0,0.29-0.044,0.568-0.131,0.836c-0.088,0.266-0.213,0.504-0.38,0.713
				c-0.164,0.208-0.366,0.383-0.604,0.523C120.965,139.16,120.695,139.25,120.394,139.288z"/>
		</g>
	</g>
	<g>
		<g>
			<path fill="#542437" d="M166.704,105.332h-5.581v-0.916h7.154l-5.231,10.329h-1.136L166.704,105.332z"/>
		</g>
	</g>
	<g>
		<g>
			<path fill="#542437" d="M207.949,95.265v0.901h-4.94v-0.901h2.069v-6.227c-0.087,0.116-0.223,0.242-0.408,0.378
				c-0.185,0.136-0.391,0.262-0.619,0.378s-0.464,0.214-0.707,0.291c-0.242,0.077-0.456,0.116-0.64,0.116v-0.959
				c0.223,0,0.468-0.063,0.734-0.189c0.268-0.127,0.521-0.272,0.759-0.438c0.237-0.165,0.438-0.319,0.604-0.466
				c0.165-0.145,0.257-0.242,0.276-0.29h1.021v7.405H207.949z"/>
			<path fill="#542437" d="M216.415,91.903c0,0.641-0.093,1.229-0.276,1.768c-0.185,0.539-0.439,1.004-0.766,1.397
				c-0.325,0.393-0.711,0.697-1.158,0.916c-0.447,0.218-0.933,0.327-1.457,0.327s-1.01-0.109-1.457-0.327
				c-0.447-0.219-0.833-0.523-1.158-0.916c-0.326-0.394-0.581-0.858-0.766-1.397c-0.184-0.538-0.277-1.127-0.277-1.768
				s0.094-1.229,0.277-1.768c0.185-0.538,0.439-1.003,0.766-1.396c0.325-0.393,0.711-0.701,1.158-0.924s0.933-0.335,1.457-0.335
				s1.01,0.112,1.457,0.335s0.833,0.531,1.158,0.924c0.326,0.394,0.581,0.858,0.766,1.396
				C216.322,90.675,216.415,91.263,216.415,91.903z M215.41,91.903c0-0.523-0.066-0.998-0.197-1.426
				c-0.132-0.427-0.313-0.792-0.547-1.099c-0.232-0.305-0.513-0.543-0.838-0.713c-0.324-0.169-0.682-0.255-1.07-0.255
				c-0.398,0-0.76,0.086-1.086,0.255c-0.325,0.17-0.604,0.408-0.838,0.713c-0.233,0.307-0.415,0.672-0.547,1.099
				c-0.131,0.428-0.195,0.902-0.195,1.426c0,0.524,0.064,0.999,0.195,1.426c0.132,0.428,0.313,0.793,0.547,1.099
				s0.513,0.541,0.838,0.706c0.326,0.165,0.688,0.247,1.086,0.247c0.389,0,0.746-0.082,1.07-0.247
				c0.325-0.165,0.605-0.4,0.838-0.706c0.233-0.306,0.415-0.671,0.547-1.099C215.344,92.902,215.41,92.428,215.41,91.903z"/>
		</g>
	</g>
	<g>
		<g>
			<path fill="#542437" d="M74.179,125.453c0.476,0,0.918,0.08,1.326,0.239c0.408,0.16,0.765,0.386,1.071,0.677
				c0.306,0.291,0.546,0.638,0.721,1.04c0.175,0.402,0.262,0.847,0.262,1.331c0,0.514-0.094,0.982-0.284,1.404
				c-0.189,0.421-0.447,0.781-0.772,1.076c-0.326,0.296-0.707,0.526-1.144,0.691c-0.437,0.164-0.903,0.247-1.398,0.247
				c-0.37,0-0.722-0.046-1.057-0.138c-0.335-0.093-0.644-0.227-0.925-0.4c-0.282-0.174-0.537-0.383-0.765-0.625
				c-0.229-0.243-0.416-0.515-0.562-0.815l0.656-0.494c0.272,0.475,0.644,0.857,1.115,1.148c0.471,0.292,0.988,0.437,1.552,0.437
				c0.359,0,0.694-0.061,1.005-0.182s0.583-0.294,0.816-0.517c0.233-0.223,0.416-0.49,0.547-0.8c0.131-0.31,0.197-0.65,0.197-1.019
				c0-0.358-0.063-0.686-0.189-0.982c-0.126-0.295-0.302-0.55-0.525-0.764c-0.224-0.213-0.483-0.377-0.779-0.494
				c-0.297-0.116-0.619-0.175-0.969-0.175c-0.466,0-0.901,0.101-1.304,0.299c-0.403,0.198-0.731,0.487-0.983,0.864h-0.918
				c0.01-0.058,0.034-0.188,0.073-0.393c0.039-0.203,0.087-0.445,0.146-0.727c0.059-0.282,0.122-0.595,0.189-0.938
				c0.068-0.344,0.136-0.691,0.204-1.04c0.165-0.814,0.345-1.722,0.539-2.721h4.999v0.917h-4.255l-0.714,3.709
				c0.252-0.271,0.561-0.482,0.925-0.633C73.341,125.527,73.742,125.453,74.179,125.453z"/>
		</g>
	</g>
	<g>
		<path fill="#542437" d="M0,10.33V0h6.776v0.902H1.005v3.797h4.882v0.844H1.005v4.787H0z"/>
		<path fill="#542437" d="M12.065,3.623c-0.67,0.02-1.253,0.204-1.749,0.553c-0.495,0.349-0.845,0.829-1.049,1.44v4.713h-0.99V2.75
			h0.932v1.818c0.262-0.534,0.607-0.977,1.035-1.332c0.428-0.354,0.889-0.531,1.384-0.531c0.088,0,0.17,0,0.248,0
			c0.078,0,0.141,0.005,0.189,0.015V3.623z"/>
		<path fill="#542437" d="M16.32,10.475c-0.554,0-1.062-0.104-1.522-0.313c-0.461-0.209-0.86-0.493-1.195-0.852
			c-0.335-0.359-0.595-0.776-0.779-1.251s-0.277-0.975-0.277-1.499c0-0.534,0.095-1.038,0.285-1.513s0.452-0.892,0.787-1.251
			c0.335-0.358,0.733-0.645,1.195-0.858s0.964-0.32,1.508-0.32c0.544,0,1.047,0.106,1.508,0.32s0.86,0.5,1.195,0.858
			c0.335,0.359,0.598,0.776,0.787,1.251s0.284,0.979,0.284,1.513c0,0.523-0.094,1.023-0.284,1.499s-0.452,0.892-0.787,1.251
			c-0.335,0.359-0.733,0.643-1.195,0.852C17.367,10.371,16.864,10.475,16.32,10.475z M13.566,6.576c0,0.426,0.07,0.822,0.211,1.186
			s0.335,0.684,0.583,0.96c0.248,0.276,0.539,0.492,0.875,0.647c0.335,0.155,0.692,0.232,1.071,0.232c0.378,0,0.735-0.08,1.071-0.24
			c0.335-0.161,0.629-0.378,0.882-0.655c0.252-0.277,0.452-0.599,0.597-0.968c0.146-0.368,0.219-0.766,0.219-1.193
			c0-0.417-0.073-0.812-0.219-1.186c-0.145-0.373-0.345-0.698-0.597-0.975c-0.253-0.276-0.544-0.495-0.875-0.654
			c-0.331-0.16-0.685-0.24-1.064-0.24s-0.736,0.08-1.071,0.24c-0.335,0.16-0.627,0.38-0.875,0.662s-0.444,0.609-0.59,0.982
			C13.639,5.75,13.566,6.149,13.566,6.576z"/>
		<path fill="#542437" d="M33.005,10.33h-0.991V6.096c0-0.882-0.138-1.532-0.415-1.949c-0.277-0.417-0.697-0.625-1.261-0.625
			c-0.291,0-0.565,0.053-0.823,0.16c-0.258,0.107-0.496,0.257-0.714,0.451c-0.219,0.194-0.411,0.424-0.575,0.691
			c-0.166,0.267-0.292,0.56-0.379,0.88v4.626h-0.991V6.096c0-0.902-0.136-1.557-0.408-1.964s-0.69-0.611-1.253-0.611
			c-0.573,0-1.083,0.199-1.53,0.597c-0.447,0.397-0.768,0.921-0.962,1.571v4.641h-0.99V2.75h0.903v1.716
			c0.311-0.582,0.719-1.035,1.224-1.36c0.505-0.325,1.064-0.487,1.676-0.487c0.641,0,1.156,0.179,1.545,0.538
			c0.388,0.359,0.622,0.83,0.7,1.412c0.709-1.3,1.69-1.949,2.943-1.949c0.417,0,0.774,0.078,1.071,0.232
			c0.296,0.155,0.535,0.376,0.714,0.662c0.18,0.286,0.311,0.63,0.394,1.033c0.083,0.403,0.124,0.851,0.124,1.346V10.33z"/>
		<path fill="#542437" d="M35.016,4.219V2.793h0.831v1.426H35.016z M35.016,10.33V8.904h0.831v1.426H35.016z"/>
	</g>
	<g>
		<path fill="#542437" d="M9.093,52.398h0.694v6.232c0,0.198,0.054,0.352,0.163,0.464s0.262,0.168,0.459,0.168
			c0.075,0,0.163-0.01,0.265-0.031c0.102-0.02,0.197-0.047,0.285-0.082l0.123,0.561c-0.13,0.054-0.288,0.098-0.475,0.132
			c-0.187,0.034-0.348,0.051-0.484,0.051c-0.319,0-0.571-0.09-0.754-0.27c-0.184-0.18-0.276-0.433-0.276-0.759V52.398z"/>
		<path fill="#542437" d="M14.04,59.934c-0.388,0-0.743-0.073-1.066-0.219c-0.323-0.146-0.602-0.345-0.836-0.596
			c-0.234-0.251-0.416-0.543-0.545-0.876s-0.194-0.682-0.194-1.049c0-0.373,0.066-0.726,0.199-1.059
			c0.133-0.333,0.316-0.625,0.551-0.876c0.234-0.251,0.513-0.452,0.836-0.601c0.323-0.149,0.675-0.224,1.056-0.224
			c0.381,0,0.733,0.075,1.056,0.224c0.323,0.149,0.602,0.35,0.836,0.601c0.234,0.251,0.418,0.543,0.551,0.876
			c0.132,0.333,0.199,0.686,0.199,1.059c0,0.367-0.066,0.716-0.199,1.049c-0.133,0.333-0.316,0.625-0.551,0.876
			c-0.235,0.251-0.514,0.45-0.836,0.596C14.773,59.861,14.421,59.934,14.04,59.934z M12.112,57.205c0,0.299,0.05,0.575,0.148,0.83
			c0.099,0.254,0.235,0.479,0.408,0.672c0.173,0.193,0.377,0.344,0.612,0.453c0.235,0.109,0.485,0.163,0.75,0.163
			c0.265,0,0.516-0.056,0.75-0.168c0.235-0.112,0.44-0.265,0.617-0.458c0.177-0.193,0.316-0.419,0.418-0.677
			c0.102-0.258,0.153-0.537,0.153-0.835c0-0.292-0.051-0.568-0.153-0.83c-0.102-0.261-0.241-0.488-0.418-0.683
			c-0.177-0.193-0.381-0.346-0.612-0.458c-0.231-0.112-0.479-0.168-0.745-0.168c-0.265,0-0.515,0.056-0.75,0.168
			c-0.234,0.112-0.438,0.266-0.612,0.463c-0.174,0.197-0.311,0.426-0.413,0.688C12.164,56.626,12.112,56.906,12.112,57.205z"/>
		<path fill="#542437" d="M20.466,55.138c-0.469,0.014-0.877,0.143-1.224,0.387c-0.347,0.245-0.591,0.581-0.734,1.009v3.299h-0.693
			v-5.306h0.653V55.8c0.184-0.374,0.425-0.684,0.724-0.932c0.299-0.248,0.623-0.372,0.969-0.372c0.062,0,0.119,0,0.173,0
			s0.099,0.003,0.133,0.01V55.138z"/>
		<path fill="#542437" d="M23.72,59.934c-0.388,0-0.745-0.073-1.071-0.219c-0.327-0.146-0.608-0.346-0.847-0.601
			c-0.238-0.255-0.423-0.548-0.556-0.881c-0.133-0.333-0.199-0.689-0.199-1.07c0-0.373,0.066-0.725,0.199-1.054
			c0.132-0.329,0.318-0.618,0.556-0.866c0.238-0.248,0.519-0.445,0.842-0.591c0.323-0.146,0.678-0.219,1.066-0.219
			s0.743,0.073,1.066,0.219c0.323,0.146,0.6,0.345,0.832,0.596c0.231,0.251,0.411,0.54,0.541,0.866
			c0.129,0.326,0.194,0.672,0.194,1.039c0,0.055-0.002,0.109-0.005,0.164s-0.008,0.091-0.015,0.112h-4.539
			c0.02,0.285,0.086,0.548,0.199,0.789c0.112,0.241,0.255,0.45,0.428,0.626c0.174,0.177,0.375,0.314,0.602,0.412
			c0.228,0.099,0.471,0.148,0.729,0.148c0.177,0,0.35-0.024,0.52-0.071s0.327-0.112,0.469-0.193c0.143-0.082,0.271-0.182,0.382-0.3
			c0.112-0.119,0.199-0.25,0.26-0.393l0.602,0.163c-0.082,0.197-0.197,0.375-0.346,0.535c-0.15,0.16-0.324,0.299-0.521,0.418
			c-0.198,0.119-0.415,0.21-0.653,0.274C24.216,59.902,23.972,59.934,23.72,59.934z M25.679,56.899
			c-0.021-0.285-0.086-0.545-0.199-0.779c-0.112-0.234-0.255-0.437-0.428-0.606c-0.173-0.169-0.376-0.302-0.607-0.396
			c-0.231-0.095-0.476-0.143-0.734-0.143s-0.503,0.047-0.735,0.143c-0.231,0.095-0.434,0.227-0.606,0.396
			c-0.173,0.17-0.313,0.374-0.418,0.611c-0.106,0.238-0.168,0.496-0.189,0.774H25.679z"/>
		<path fill="#542437" d="M35.287,59.833h-0.693v-2.963c0-0.618-0.097-1.073-0.291-1.365s-0.488-0.438-0.882-0.438
			c-0.204,0-0.396,0.038-0.577,0.112s-0.347,0.18-0.5,0.315c-0.153,0.136-0.288,0.297-0.403,0.484
			c-0.116,0.187-0.204,0.392-0.265,0.616v3.238h-0.694v-2.963c0-0.632-0.095-1.09-0.285-1.375c-0.191-0.285-0.483-0.428-0.877-0.428
			c-0.401,0-0.758,0.139-1.071,0.417c-0.313,0.279-0.537,0.645-0.673,1.1v3.249h-0.693v-5.306h0.632v1.202
			c0.217-0.408,0.503-0.725,0.857-0.953c0.353-0.227,0.744-0.341,1.173-0.341c0.449,0,0.809,0.125,1.081,0.376
			c0.272,0.251,0.435,0.581,0.49,0.988c0.497-0.91,1.183-1.365,2.061-1.365c0.292,0,0.542,0.054,0.75,0.163
			c0.208,0.108,0.374,0.263,0.5,0.463c0.125,0.2,0.218,0.441,0.275,0.723c0.058,0.282,0.086,0.595,0.086,0.942V59.833z"/>
	</g>
	<g>
		<path fill="#542437" d="M9.093,74.948h0.694v6.233c0,0.197,0.054,0.352,0.163,0.464c0.109,0.111,0.262,0.168,0.459,0.168
			c0.075,0,0.163-0.011,0.265-0.031c0.102-0.02,0.197-0.047,0.285-0.082l0.123,0.561c-0.13,0.055-0.288,0.098-0.475,0.133
			c-0.187,0.033-0.348,0.051-0.484,0.051c-0.319,0-0.571-0.09-0.754-0.27s-0.276-0.434-0.276-0.759V74.948z"/>
		<path fill="#542437" d="M14.04,82.484c-0.388,0-0.743-0.073-1.066-0.219c-0.323-0.146-0.602-0.345-0.836-0.595
			c-0.234-0.252-0.416-0.544-0.545-0.877c-0.129-0.332-0.194-0.682-0.194-1.048c0-0.374,0.066-0.727,0.199-1.06
			c0.133-0.333,0.316-0.625,0.551-0.876c0.234-0.251,0.513-0.452,0.836-0.601c0.323-0.149,0.675-0.224,1.056-0.224
			c0.381,0,0.733,0.075,1.056,0.224c0.323,0.149,0.602,0.35,0.836,0.601c0.234,0.251,0.418,0.543,0.551,0.876
			c0.132,0.333,0.199,0.686,0.199,1.06c0,0.366-0.066,0.716-0.199,1.048c-0.133,0.333-0.316,0.625-0.551,0.877
			c-0.235,0.25-0.514,0.449-0.836,0.595C14.773,82.411,14.421,82.484,14.04,82.484z M12.112,79.755c0,0.299,0.05,0.575,0.148,0.83
			c0.099,0.254,0.235,0.479,0.408,0.672c0.173,0.193,0.377,0.345,0.612,0.453c0.235,0.108,0.485,0.163,0.75,0.163
			c0.265,0,0.516-0.057,0.75-0.168c0.235-0.111,0.44-0.265,0.617-0.458c0.177-0.194,0.316-0.419,0.418-0.677
			c0.102-0.258,0.153-0.537,0.153-0.835c0-0.292-0.051-0.569-0.153-0.83c-0.102-0.262-0.241-0.489-0.418-0.683
			s-0.381-0.346-0.612-0.458c-0.231-0.112-0.479-0.168-0.745-0.168c-0.265,0-0.515,0.056-0.75,0.168
			c-0.234,0.112-0.438,0.266-0.612,0.463c-0.174,0.197-0.311,0.426-0.413,0.688C12.164,79.177,12.112,79.457,12.112,79.755z"/>
		<path fill="#542437" d="M20.466,77.688c-0.469,0.014-0.877,0.143-1.224,0.387c-0.347,0.245-0.591,0.581-0.734,1.009v3.299h-0.693
			v-5.306h0.653v1.273c0.184-0.374,0.425-0.684,0.724-0.932c0.299-0.248,0.623-0.372,0.969-0.372c0.062,0,0.119,0,0.173,0
			s0.099,0.003,0.133,0.01V77.688z"/>
		<path fill="#542437" d="M23.72,82.484c-0.388,0-0.745-0.073-1.071-0.219c-0.327-0.146-0.608-0.346-0.847-0.601
			c-0.238-0.255-0.423-0.548-0.556-0.881c-0.133-0.333-0.199-0.689-0.199-1.069c0-0.374,0.066-0.725,0.199-1.054
			c0.132-0.329,0.318-0.618,0.556-0.866c0.238-0.248,0.519-0.445,0.842-0.591c0.323-0.146,0.678-0.219,1.066-0.219
			s0.743,0.073,1.066,0.219c0.323,0.146,0.6,0.345,0.832,0.596c0.231,0.251,0.411,0.54,0.541,0.866
			c0.129,0.326,0.194,0.672,0.194,1.039c0,0.055-0.002,0.109-0.005,0.163s-0.008,0.091-0.015,0.112h-4.539
			c0.02,0.285,0.086,0.548,0.199,0.789c0.112,0.241,0.255,0.45,0.428,0.626c0.174,0.177,0.375,0.315,0.602,0.413
			c0.228,0.099,0.471,0.148,0.729,0.148c0.177,0,0.35-0.024,0.52-0.072c0.17-0.047,0.327-0.111,0.469-0.193
			c0.143-0.081,0.271-0.182,0.382-0.3c0.112-0.119,0.199-0.25,0.26-0.393l0.602,0.164c-0.082,0.197-0.197,0.375-0.346,0.535
			c-0.15,0.159-0.324,0.299-0.521,0.417c-0.198,0.118-0.415,0.21-0.653,0.274C24.216,82.452,23.972,82.484,23.72,82.484z
			 M25.679,79.45c-0.021-0.285-0.086-0.544-0.199-0.779c-0.112-0.234-0.255-0.436-0.428-0.606c-0.173-0.169-0.376-0.302-0.607-0.396
			c-0.231-0.095-0.476-0.143-0.734-0.143s-0.503,0.047-0.735,0.143c-0.231,0.095-0.434,0.227-0.606,0.396
			c-0.173,0.17-0.313,0.374-0.418,0.611c-0.106,0.238-0.168,0.496-0.189,0.774H25.679z"/>
		<path fill="#542437" d="M35.287,82.383h-0.693v-2.963c0-0.618-0.097-1.073-0.291-1.365s-0.488-0.438-0.882-0.438
			c-0.204,0-0.396,0.038-0.577,0.112s-0.347,0.18-0.5,0.315c-0.153,0.136-0.288,0.297-0.403,0.484
			c-0.116,0.187-0.204,0.392-0.265,0.616v3.238h-0.694v-2.963c0-0.632-0.095-1.09-0.285-1.375c-0.191-0.285-0.483-0.428-0.877-0.428
			c-0.401,0-0.758,0.139-1.071,0.417c-0.313,0.279-0.537,0.645-0.673,1.1v3.249h-0.693v-5.306h0.632v1.202
			c0.217-0.408,0.503-0.725,0.857-0.953c0.353-0.227,0.744-0.341,1.173-0.341c0.449,0,0.809,0.125,1.081,0.376
			c0.272,0.251,0.435,0.581,0.49,0.988c0.497-0.91,1.183-1.365,2.061-1.365c0.292,0,0.542,0.054,0.75,0.163
			c0.208,0.108,0.374,0.263,0.5,0.463c0.125,0.2,0.218,0.441,0.275,0.723c0.058,0.282,0.086,0.596,0.086,0.942V82.383z"/>
	</g>
	<g>
		<path fill="#542437" d="M9.093,97.499h0.694v6.232c0,0.197,0.054,0.353,0.163,0.464c0.109,0.112,0.262,0.168,0.459,0.168
			c0.075,0,0.163-0.01,0.265-0.03c0.102-0.021,0.197-0.048,0.285-0.081l0.123,0.56c-0.13,0.054-0.288,0.099-0.475,0.132
			c-0.187,0.034-0.348,0.051-0.484,0.051c-0.319,0-0.571-0.09-0.754-0.27s-0.276-0.432-0.276-0.758V97.499z"/>
		<path fill="#542437" d="M14.04,105.035c-0.388,0-0.743-0.072-1.066-0.219c-0.323-0.146-0.602-0.344-0.836-0.596
			c-0.234-0.25-0.416-0.544-0.545-0.876s-0.194-0.682-0.194-1.049c0-0.373,0.066-0.726,0.199-1.059
			c0.133-0.334,0.316-0.625,0.551-0.877c0.234-0.25,0.513-0.451,0.836-0.6c0.323-0.149,0.675-0.225,1.056-0.225
			c0.381,0,0.733,0.075,1.056,0.225c0.323,0.148,0.602,0.35,0.836,0.6c0.234,0.252,0.418,0.543,0.551,0.877
			c0.132,0.333,0.199,0.686,0.199,1.059c0,0.367-0.066,0.717-0.199,1.049c-0.133,0.332-0.316,0.626-0.551,0.876
			c-0.235,0.252-0.514,0.45-0.836,0.596C14.773,104.963,14.421,105.035,14.04,105.035z M12.112,102.306c0,0.3,0.05,0.576,0.148,0.83
			c0.099,0.255,0.235,0.479,0.408,0.672c0.173,0.194,0.377,0.346,0.612,0.454c0.235,0.109,0.485,0.163,0.75,0.163
			c0.265,0,0.516-0.056,0.75-0.168c0.235-0.112,0.44-0.265,0.617-0.459c0.177-0.193,0.316-0.419,0.418-0.677
			c0.102-0.258,0.153-0.536,0.153-0.836c0-0.291-0.051-0.568-0.153-0.829c-0.102-0.261-0.241-0.488-0.418-0.684
			c-0.177-0.193-0.381-0.346-0.612-0.457c-0.231-0.112-0.479-0.168-0.745-0.168c-0.265,0-0.515,0.056-0.75,0.168
			c-0.234,0.111-0.438,0.266-0.612,0.463c-0.174,0.198-0.311,0.427-0.413,0.688C12.164,101.728,12.112,102.008,12.112,102.306z"/>
		<path fill="#542437" d="M20.466,100.239c-0.469,0.014-0.877,0.143-1.224,0.387s-0.591,0.581-0.734,1.009v3.299h-0.693v-5.306
			h0.653v1.272c0.184-0.373,0.425-0.684,0.724-0.931c0.299-0.248,0.623-0.372,0.969-0.372c0.062,0,0.119,0,0.173,0
			s0.099,0.003,0.133,0.011V100.239z"/>
		<path fill="#542437" d="M23.72,105.035c-0.388,0-0.745-0.072-1.071-0.219c-0.327-0.146-0.608-0.346-0.847-0.6
			c-0.238-0.256-0.423-0.55-0.556-0.882c-0.133-0.332-0.199-0.689-0.199-1.069c0-0.373,0.066-0.725,0.199-1.054
			c0.132-0.33,0.318-0.619,0.556-0.866c0.238-0.247,0.519-0.444,0.842-0.591c0.323-0.145,0.678-0.219,1.066-0.219
			s0.743,0.074,1.066,0.219c0.323,0.146,0.6,0.346,0.832,0.596c0.231,0.252,0.411,0.539,0.541,0.866
			c0.129,0.326,0.194,0.672,0.194,1.038c0,0.055-0.002,0.108-0.005,0.163c-0.003,0.056-0.008,0.093-0.015,0.112h-4.539
			c0.02,0.285,0.086,0.549,0.199,0.789c0.112,0.241,0.255,0.449,0.428,0.626c0.174,0.178,0.375,0.314,0.602,0.413
			c0.228,0.099,0.471,0.147,0.729,0.147c0.177,0,0.35-0.023,0.52-0.07c0.17-0.048,0.327-0.113,0.469-0.193
			c0.143-0.082,0.271-0.182,0.382-0.301c0.112-0.12,0.199-0.251,0.26-0.394l0.602,0.164c-0.082,0.196-0.197,0.376-0.346,0.534
			c-0.15,0.16-0.324,0.299-0.521,0.418c-0.198,0.119-0.415,0.211-0.653,0.274C24.216,105.003,23.972,105.035,23.72,105.035z
			 M25.679,102c-0.021-0.284-0.086-0.544-0.199-0.777c-0.112-0.234-0.255-0.438-0.428-0.607c-0.173-0.169-0.376-0.302-0.607-0.396
			c-0.231-0.095-0.476-0.143-0.734-0.143s-0.503,0.048-0.735,0.143c-0.231,0.095-0.434,0.228-0.606,0.396
			c-0.173,0.17-0.313,0.375-0.418,0.611c-0.106,0.238-0.168,0.496-0.189,0.773H25.679z"/>
		<path fill="#542437" d="M35.287,104.934h-0.693v-2.963c0-0.618-0.097-1.073-0.291-1.365s-0.488-0.438-0.882-0.438
			c-0.204,0-0.396,0.038-0.577,0.113c-0.18,0.074-0.347,0.18-0.5,0.314c-0.153,0.137-0.288,0.297-0.403,0.485
			c-0.116,0.186-0.204,0.391-0.265,0.615v3.238h-0.694v-2.963c0-0.632-0.095-1.091-0.285-1.376
			c-0.191-0.285-0.483-0.428-0.877-0.428c-0.401,0-0.758,0.14-1.071,0.418s-0.537,0.646-0.673,1.101v3.248h-0.693v-5.306h0.632
			v1.201c0.217-0.407,0.503-0.725,0.857-0.951c0.353-0.228,0.744-0.342,1.173-0.342c0.449,0,0.809,0.126,1.081,0.377
			s0.435,0.58,0.49,0.987c0.497-0.909,1.183-1.364,2.061-1.364c0.292,0,0.542,0.055,0.75,0.164c0.208,0.107,0.374,0.262,0.5,0.463
			c0.125,0.199,0.218,0.44,0.275,0.723s0.086,0.596,0.086,0.942V104.934z"/>
	</g>
	<g>
		<path fill="#542437" d="M9.093,120.049h0.694v6.232c0,0.198,0.054,0.353,0.163,0.464c0.109,0.112,0.262,0.168,0.459,0.168
			c0.075,0,0.163-0.01,0.265-0.03c0.102-0.021,0.197-0.048,0.285-0.081l0.123,0.56c-0.13,0.054-0.288,0.099-0.475,0.132
			c-0.187,0.034-0.348,0.051-0.484,0.051c-0.319,0-0.571-0.09-0.754-0.27s-0.276-0.432-0.276-0.758V120.049z"/>
		<path fill="#542437" d="M14.04,127.585c-0.388,0-0.743-0.072-1.066-0.219c-0.323-0.146-0.602-0.344-0.836-0.596
			c-0.234-0.25-0.416-0.544-0.545-0.876s-0.194-0.682-0.194-1.049c0-0.373,0.066-0.726,0.199-1.059s0.316-0.625,0.551-0.877
			c0.234-0.25,0.513-0.451,0.836-0.6c0.323-0.149,0.675-0.225,1.056-0.225c0.381,0,0.733,0.075,1.056,0.225
			c0.323,0.148,0.602,0.35,0.836,0.6c0.234,0.252,0.418,0.544,0.551,0.877c0.132,0.333,0.199,0.686,0.199,1.059
			c0,0.367-0.066,0.717-0.199,1.049c-0.133,0.332-0.316,0.626-0.551,0.876c-0.235,0.252-0.514,0.45-0.836,0.596
			C14.773,127.513,14.421,127.585,14.04,127.585z M12.112,124.855c0,0.3,0.05,0.576,0.148,0.83c0.099,0.255,0.235,0.479,0.408,0.672
			c0.173,0.194,0.377,0.346,0.612,0.454c0.235,0.109,0.485,0.163,0.75,0.163c0.265,0,0.516-0.056,0.75-0.168
			c0.235-0.112,0.44-0.265,0.617-0.459c0.177-0.193,0.316-0.419,0.418-0.677c0.102-0.258,0.153-0.536,0.153-0.836
			c0-0.291-0.051-0.568-0.153-0.829c-0.102-0.261-0.241-0.488-0.418-0.684c-0.177-0.193-0.381-0.346-0.612-0.457
			c-0.231-0.112-0.479-0.168-0.745-0.168c-0.265,0-0.515,0.056-0.75,0.168c-0.234,0.111-0.438,0.266-0.612,0.463
			c-0.174,0.198-0.311,0.427-0.413,0.688C12.164,124.277,12.112,124.558,12.112,124.855z"/>
		<path fill="#542437" d="M20.466,122.789c-0.469,0.014-0.877,0.143-1.224,0.387c-0.347,0.245-0.591,0.581-0.734,1.009v3.299h-0.693
			v-5.306h0.653v1.273c0.184-0.374,0.425-0.685,0.724-0.932c0.299-0.248,0.623-0.372,0.969-0.372c0.062,0,0.119,0,0.173,0
			s0.099,0.003,0.133,0.011V122.789z"/>
		<path fill="#542437" d="M23.72,127.585c-0.388,0-0.745-0.072-1.071-0.219c-0.327-0.146-0.608-0.346-0.847-0.6
			c-0.238-0.256-0.423-0.55-0.556-0.882c-0.133-0.332-0.199-0.689-0.199-1.069c0-0.373,0.066-0.725,0.199-1.054
			c0.132-0.329,0.318-0.619,0.556-0.866c0.238-0.247,0.519-0.444,0.842-0.591c0.323-0.145,0.678-0.219,1.066-0.219
			s0.743,0.074,1.066,0.219c0.323,0.146,0.6,0.346,0.832,0.596c0.231,0.252,0.411,0.54,0.541,0.866
			c0.129,0.326,0.194,0.672,0.194,1.038c0,0.055-0.002,0.109-0.005,0.164s-0.008,0.092-0.015,0.111h-4.539
			c0.02,0.285,0.086,0.549,0.199,0.789c0.112,0.241,0.255,0.449,0.428,0.627c0.174,0.177,0.375,0.313,0.602,0.412
			c0.228,0.099,0.471,0.147,0.729,0.147c0.177,0,0.35-0.023,0.52-0.07c0.17-0.048,0.327-0.113,0.469-0.193
			c0.143-0.082,0.271-0.182,0.382-0.301c0.112-0.12,0.199-0.251,0.26-0.394l0.602,0.164c-0.082,0.197-0.197,0.376-0.346,0.534
			c-0.15,0.16-0.324,0.299-0.521,0.418c-0.198,0.119-0.415,0.211-0.653,0.274C24.216,127.553,23.972,127.585,23.72,127.585z
			 M25.679,124.55c-0.021-0.284-0.086-0.544-0.199-0.777c-0.112-0.234-0.255-0.438-0.428-0.607
			c-0.173-0.169-0.376-0.302-0.607-0.396c-0.231-0.095-0.476-0.143-0.734-0.143s-0.503,0.048-0.735,0.143
			c-0.231,0.095-0.434,0.228-0.606,0.396c-0.173,0.17-0.313,0.375-0.418,0.611c-0.106,0.238-0.168,0.496-0.189,0.773H25.679z"/>
		<path fill="#542437" d="M35.287,127.483h-0.693v-2.963c0-0.618-0.097-1.072-0.291-1.365c-0.194-0.292-0.488-0.438-0.882-0.438
			c-0.204,0-0.396,0.038-0.577,0.113c-0.18,0.074-0.347,0.18-0.5,0.314c-0.153,0.137-0.288,0.298-0.403,0.485
			c-0.116,0.186-0.204,0.391-0.265,0.615v3.238h-0.694v-2.963c0-0.632-0.095-1.09-0.285-1.376c-0.191-0.285-0.483-0.428-0.877-0.428
			c-0.401,0-0.758,0.14-1.071,0.418c-0.313,0.279-0.537,0.646-0.673,1.101v3.248h-0.693v-5.306h0.632v1.201
			c0.217-0.407,0.503-0.725,0.857-0.951c0.353-0.228,0.744-0.342,1.173-0.342c0.449,0,0.809,0.126,1.081,0.377
			s0.435,0.58,0.49,0.988c0.497-0.91,1.183-1.365,2.061-1.365c0.292,0,0.542,0.055,0.75,0.164c0.208,0.107,0.374,0.262,0.5,0.463
			c0.125,0.199,0.218,0.44,0.275,0.724c0.058,0.281,0.086,0.595,0.086,0.941V127.483z"/>
	</g>
	<g>
		<path fill="#542437" d="M9.093,142.6h0.694v6.233c0,0.197,0.054,0.352,0.163,0.464c0.109,0.111,0.262,0.168,0.459,0.168
			c0.075,0,0.163-0.011,0.265-0.031c0.102-0.02,0.197-0.047,0.285-0.082l0.123,0.561c-0.13,0.055-0.288,0.098-0.475,0.133
			c-0.187,0.033-0.348,0.051-0.484,0.051c-0.319,0-0.571-0.09-0.754-0.27s-0.276-0.434-0.276-0.759V142.6z"/>
		<path fill="#542437" d="M14.04,150.136c-0.388,0-0.743-0.073-1.066-0.219c-0.323-0.146-0.602-0.345-0.836-0.595
			c-0.234-0.252-0.416-0.544-0.545-0.877c-0.129-0.332-0.194-0.682-0.194-1.048c0-0.374,0.066-0.728,0.199-1.06
			s0.316-0.625,0.551-0.876c0.234-0.252,0.513-0.451,0.836-0.601c0.323-0.149,0.675-0.224,1.056-0.224
			c0.381,0,0.733,0.074,1.056,0.224c0.323,0.149,0.602,0.349,0.836,0.601c0.234,0.251,0.418,0.544,0.551,0.876
			c0.132,0.332,0.199,0.686,0.199,1.06c0,0.366-0.066,0.716-0.199,1.048c-0.133,0.333-0.316,0.625-0.551,0.877
			c-0.235,0.25-0.514,0.449-0.836,0.595C14.773,150.063,14.421,150.136,14.04,150.136z M12.112,147.407
			c0,0.299,0.05,0.575,0.148,0.83c0.099,0.254,0.235,0.479,0.408,0.673c0.173,0.193,0.377,0.344,0.612,0.452
			c0.235,0.108,0.485,0.163,0.75,0.163c0.265,0,0.516-0.057,0.75-0.168c0.235-0.111,0.44-0.265,0.617-0.458
			c0.177-0.194,0.316-0.42,0.418-0.678c0.102-0.258,0.153-0.536,0.153-0.834c0-0.294-0.051-0.569-0.153-0.831
			c-0.102-0.262-0.241-0.488-0.418-0.682c-0.177-0.194-0.381-0.347-0.612-0.459c-0.231-0.112-0.479-0.168-0.745-0.168
			c-0.265,0-0.515,0.056-0.75,0.168c-0.234,0.112-0.438,0.267-0.612,0.464c-0.174,0.196-0.311,0.426-0.413,0.687
			C12.164,146.828,12.112,147.107,12.112,147.407z"/>
		<path fill="#542437" d="M20.466,145.339c-0.469,0.014-0.877,0.143-1.224,0.387c-0.347,0.246-0.591,0.581-0.734,1.009v3.3h-0.693
			v-5.305h0.653v1.272c0.184-0.374,0.425-0.685,0.724-0.933c0.299-0.247,0.623-0.371,0.969-0.371c0.062,0,0.119,0,0.173,0
			s0.099,0.004,0.133,0.01V145.339z"/>
		<path fill="#542437" d="M23.72,150.136c-0.388,0-0.745-0.073-1.071-0.219c-0.327-0.146-0.608-0.346-0.847-0.601
			c-0.238-0.254-0.423-0.548-0.556-0.881c-0.133-0.333-0.199-0.688-0.199-1.069c0-0.374,0.066-0.725,0.199-1.054
			c0.132-0.329,0.318-0.618,0.556-0.866c0.238-0.248,0.519-0.444,0.842-0.59c0.323-0.146,0.678-0.219,1.066-0.219
			s0.743,0.072,1.066,0.219c0.323,0.146,0.6,0.344,0.832,0.595c0.231,0.251,0.411,0.541,0.541,0.866
			c0.129,0.325,0.194,0.672,0.194,1.039c0,0.055-0.002,0.109-0.005,0.163s-0.008,0.091-0.015,0.112h-4.539
			c0.02,0.285,0.086,0.547,0.199,0.788c0.112,0.241,0.255,0.451,0.428,0.627c0.174,0.177,0.375,0.314,0.602,0.412
			c0.228,0.099,0.471,0.148,0.729,0.148c0.177,0,0.35-0.024,0.52-0.072c0.17-0.047,0.327-0.111,0.469-0.193
			c0.143-0.081,0.271-0.182,0.382-0.3c0.112-0.118,0.199-0.25,0.26-0.393l0.602,0.163c-0.082,0.197-0.197,0.375-0.346,0.535
			c-0.15,0.159-0.324,0.299-0.521,0.417c-0.198,0.118-0.415,0.21-0.653,0.274C24.216,150.104,23.972,150.136,23.72,150.136z
			 M25.679,147.102c-0.021-0.285-0.086-0.545-0.199-0.779c-0.112-0.234-0.255-0.436-0.428-0.606
			c-0.173-0.17-0.376-0.302-0.607-0.396c-0.231-0.096-0.476-0.143-0.734-0.143s-0.503,0.047-0.735,0.143
			c-0.231,0.095-0.434,0.227-0.606,0.396c-0.173,0.171-0.313,0.374-0.418,0.612c-0.106,0.237-0.168,0.495-0.189,0.773H25.679z"/>
		<path fill="#542437" d="M35.287,150.034h-0.693v-2.964c0-0.617-0.097-1.072-0.291-1.364s-0.488-0.438-0.882-0.438
			c-0.204,0-0.396,0.037-0.577,0.111c-0.18,0.075-0.347,0.18-0.5,0.316c-0.153,0.136-0.288,0.298-0.403,0.483
			c-0.116,0.188-0.204,0.393-0.265,0.616v3.238h-0.694v-2.964c0-0.631-0.095-1.089-0.285-1.374
			c-0.191-0.285-0.483-0.428-0.877-0.428c-0.401,0-0.758,0.139-1.071,0.417c-0.313,0.279-0.537,0.646-0.673,1.1v3.249h-0.693v-5.305
			h0.632v1.201c0.217-0.408,0.503-0.725,0.857-0.953c0.353-0.227,0.744-0.34,1.173-0.34c0.449,0,0.809,0.125,1.081,0.376
			s0.435,0.58,0.49,0.988c0.497-0.91,1.183-1.364,2.061-1.364c0.292,0,0.542,0.054,0.75,0.162c0.208,0.109,0.374,0.264,0.5,0.463
			c0.125,0.201,0.218,0.441,0.275,0.724s0.086,0.596,0.086,0.941V150.034z"/>
	</g>
</g>
</svg>
