<?xml version="1.0" encoding="utf-8"?>
<!-- Generator: Adobe Illustrator 16.0.0, SVG Export Plug-In . SVG Version: 6.00 Build 0)  -->
<!DOCTYPE svg PUBLIC "-//W3C//DTD SVG 1.1//EN" "http://www.w3.org/Graphics/SVG/1.1/DTD/svg11.dtd">
<svg version="1.1" id="Layer_1" xmlns="http://www.w3.org/2000/svg" xmlns:xlink="http://www.w3.org/1999/xlink" x="0px" y="0px"
	 width="27px" height="36px" viewBox="0 0 27 36" enable-background="new 0 0 27 36" xml:space="preserve">
<g>
	<path fill="#542437" d="M23.883,0c-1.746-0.025-3.18,1.39-3.205,3.16s1.371,3.224,3.117,3.248c1.742,0.025,3.18-1.39,3.205-3.159
		C27.021,1.479,25.627,0.025,23.883,0z"/>
</g>
<g>
	<path fill="#542437" d="M22.354,11.368C15.053,21.727,10.979,24.445,9.127,25.147c0.925,0.365,1.334,0.236,1.334,0.236
		s1.848-0.011,1.699,1.157c0.005,0.038-0.007,0.073-0.007,0.109c4.591-1.938,8.085-5.396,10.402-8.339V36h4.277
		c0-8.638,0-22.575,0-24.591C26.426,9.989,24.186,9.137,22.354,11.368z"/>
</g>
<g>
	<path fill="#542437" d="M6.184,26.541c0.263-0.474,0.893-0.911,1.697-1.157c-0.01-0.021,0.373,0.095,1.246-0.236
		C7.625,24.554,4.748,22.643,0,16.727v6.003c1.767,1.526,3.825,2.924,6.185,3.92C6.176,26.604,6.172,26.563,6.184,26.541z"/>
</g>
</svg>
