<?xml version="1.0" encoding="utf-8"?>
<!-- Generator: Adobe Illustrator 16.0.0, SVG Export Plug-In . SVG Version: 6.00 Build 0)  -->
<!DOCTYPE svg PUBLIC "-//W3C//DTD SVG 1.1//EN" "http://www.w3.org/Graphics/SVG/1.1/DTD/svg11.dtd">
<svg version="1.1" id="Layer_1" xmlns="http://www.w3.org/2000/svg" xmlns:xlink="http://www.w3.org/1999/xlink" x="0px" y="0px"
	 width="32px" height="32px" viewBox="0 0 32 32" enable-background="new 0 0 32 32" xml:space="preserve">
<g>
	<g>
		<path fill="#542437" d="M16.959,14.824v-0.033c-0.006,0.012-0.014,0.023-0.022,0.033H16.959z"/>
		<path fill="#542437" d="M16,0C7.165,0,0,7.164,0,16c0,8.838,7.165,16,16,16c8.837,0,16-7.162,16-16C32,7.164,24.837,0,16,0z
			 M11.634,23.646H8.203V13.33h3.431V23.646z M9.918,11.92H9.896C8.746,11.92,8,11.127,8,10.137c0-1.012,0.768-1.784,1.939-1.784
			c1.174,0,1.898,0.771,1.918,1.784C11.857,11.127,11.114,11.92,9.918,11.92z M24,23.646h-3.429v-5.521
			c0-1.386-0.496-2.333-1.738-2.333c-0.947,0-1.512,0.641-1.761,1.256c-0.09,0.22-0.113,0.525-0.113,0.836v5.762H13.53
			c0,0,0.046-9.35,0-10.317h3.429v1.461c0.458-0.705,1.271-1.703,3.092-1.703c2.257,0,3.949,1.473,3.949,4.643V23.646z"/>
	</g>
</g>
</svg>
