<?xml version="1.0" encoding="utf-8"?>
<!-- Generator: Adobe Illustrator 16.0.0, SVG Export Plug-In . SVG Version: 6.00 Build 0)  -->
<!DOCTYPE svg PUBLIC "-//W3C//DTD SVG 1.1//EN" "http://www.w3.org/Graphics/SVG/1.1/DTD/svg11.dtd">
<svg version="1.1" id="Layer_1" xmlns="http://www.w3.org/2000/svg" xmlns:xlink="http://www.w3.org/1999/xlink" x="0px" y="0px"
	 width="112px" height="85px" viewBox="0 0 112 85" enable-background="new 0 0 112 85" xml:space="preserve">
<g>
	<g>
		<path fill="#0992A4" d="M62.387,58.955c-0.377,1.003-0.767,2.02-1.157,3.022C82.511,62.578,99,66.806,99,71.933
			c0,5.543-19.251,10.034-43,10.034c-23.749,0-43-4.491-43-10.034c0-5.104,16.332-9.313,37.464-9.947
			c-0.392-0.999-0.781-2.014-1.159-3.022C21.536,59.735,0,65.245,0,71.933C0,79.149,25.071,85,56,85s56-5.851,56-13.067
			C112,65.22,90.307,59.694,62.387,58.955z"/>
		<path fill="#0992A4" d="M56,72.456c-0.726,0-1.93-2.088-3.275-5.056c-9.327,0.365-16.439,2.254-16.439,4.532
			c0,2.54,8.826,4.601,19.714,4.601c10.889,0,19.714-2.061,19.714-4.601c0-2.302-7.249-4.202-16.706-4.542
			C57.707,70.349,56.581,72.456,56,72.456z"/>
	</g>
	<path fill="#0992A4" d="M56,0c-9.773,0-17.697,7.918-17.697,17.684S53.543,71.164,56,71.164c1.756,0,17.695-43.715,17.695-53.48
		S65.773,0,56,0z"/>
</g>
</svg>
