<?xml version="1.0" encoding="utf-8"?>
<!-- Generator: Adobe Illustrator 16.0.0, SVG Export Plug-In . SVG Version: 6.00 Build 0)  -->
<!DOCTYPE svg PUBLIC "-//W3C//DTD SVG 1.1//EN" "http://www.w3.org/Graphics/SVG/1.1/DTD/svg11.dtd">
<svg version="1.1" id="Layer_1" xmlns="http://www.w3.org/2000/svg" xmlns:xlink="http://www.w3.org/1999/xlink" x="0px" y="0px"
	 width="280px" height="58px" viewBox="0 0 280 58" enable-background="new 0 0 280 58" xml:space="preserve">
<g>
	<path fill="#542437" d="M0,57.383V14.127h25.787v5.503H6.071v13.11h19.162v5.564H6.071v13.514H26.43v5.564H0z"/>
	<path fill="#542437" d="M42.313,57.939L28.668,28.813l6.274,0.003l8.745,18.957l8.137-18.971l6.162,0.011L44.948,57.939H42.313z"/>
	<path fill="#542437" d="M85.879,54.353c-1.817,1.177-3.742,2.079-5.775,2.707C78.068,57.687,75.996,58,73.892,58
		c-4.457,0-8.024-1.395-10.7-4.188c-2.679-2.794-4.016-6.52-4.016-11.178c0-4.288,1.281-7.756,3.847-10.403
		c2.566-2.65,5.912-3.975,10.042-3.975c4.068,0,7.303,1.351,9.704,4.051c2.403,2.7,3.603,6.349,3.603,10.946v0.833H65.154
		c0,1.3,0.229,2.479,0.69,3.54c0.459,1.062,1.108,1.996,1.947,2.798c1.615,1.507,3.75,2.259,6.407,2.259
		c1.84,0,3.725-0.335,5.657-1.006c1.935-0.67,3.941-1.683,6.024-3.044V54.353z M65.154,40.037l14.995-0.031
		c-0.185-2.021-0.932-3.67-2.24-4.946c-1.31-1.277-2.944-1.917-4.905-1.917c-2.148,0-3.884,0.577-5.213,1.732
		C66.463,36.029,65.583,37.749,65.154,40.037z"/>
	<path fill="#542437" d="M91.644,57.383V28.813h5.643v3.494c1.43-1.371,2.851-2.362,4.262-2.976c1.41-0.614,2.904-0.92,4.478-0.92
		c3.044,0,5.456,0.895,7.235,2.687c1.78,1.791,2.668,4.252,2.668,7.382v18.902h-5.642V39.936c0-2.286-0.487-3.983-1.457-5.095
		c-0.973-1.111-2.479-1.667-4.523-1.667c-1.431,0-2.687,0.276-3.774,0.833c-1.082,0.556-2.164,1.494-3.247,2.811v20.565H91.644z"/>
	<path fill="#542437" d="M138.617,56.486c-0.797,0.454-1.716,0.81-2.759,1.066c-1.041,0.258-2.157,0.387-3.34,0.387
		c-3.189,0-5.434-0.762-6.733-2.287c-1.298-1.526-1.948-4.308-1.948-8.351V33.761h-4.811v-0.558l9.901-11.038h0.646v6.648h8.86
		v4.947h-8.86v13.111c0,2.349,0.284,3.884,0.857,4.606c0.595,0.679,1.688,1.019,3.282,1.019c0.92,0,1.772-0.113,2.561-0.34
		c0.785-0.226,1.568-0.578,2.344-1.051V56.486z"/>
	<path fill="#FED093" d="M205.313,43.067c0-4.144,1.46-7.657,4.384-10.544c2.926-2.885,6.49-4.328,10.701-4.328
		c1.964,0,3.857,0.383,5.688,1.145c1.831,0.762,3.46,1.865,4.891,3.307c1.428,1.443,2.522,3.057,3.28,4.84
		c0.757,1.782,1.134,3.643,1.134,5.581c0,1.979-0.389,3.887-1.165,5.72c-0.389,0.927-0.85,1.795-1.38,2.599
		c-0.532,0.804-1.164,1.556-1.9,2.255c-1.392,1.403-2.992,2.47-4.815,3.2c-1.816,0.732-3.729,1.099-5.731,1.099
		c-4.211,0-7.775-1.442-10.701-4.328C206.772,50.725,205.313,47.213,205.313,43.067z M211.228,43.067c0,2.638,0.894,4.9,2.686,6.788
		c1.787,1.886,3.929,2.828,6.424,2.828c2.471,0,4.607-0.948,6.406-2.844c1.799-1.898,2.698-4.154,2.698-6.772
		c0-2.576-0.896-4.813-2.682-6.709c-1.79-1.897-3.93-2.844-6.423-2.844c-2.516,0-4.661,0.932-6.439,2.798
		C212.121,38.177,211.228,40.43,211.228,43.067z"/>
	<path fill="#FED093" d="M238.916,55.435v-6.091c1.697,1.112,3.34,1.975,4.922,2.582s3.021,0.911,4.307,0.911
		c1.474,0,2.618-0.271,3.436-0.817c0.815-0.546,1.226-1.295,1.226-2.243c0-1.175-1.544-2.546-4.63-4.111l-2.084-1.082
		c-2.66-1.361-4.473-2.676-5.443-3.942c-0.972-1.269-1.456-2.818-1.456-4.653c0-2.392,0.848-4.288,2.542-5.689
		c1.697-1.4,4.028-2.103,6.992-2.103c1.638,0,3.18,0.19,4.632,0.572c1.449,0.382,2.883,0.973,4.289,1.776v5.565
		c-1.715-0.967-3.31-1.679-4.781-2.132c-0.694-0.227-1.38-0.402-2.054-0.527c-0.677-0.123-1.349-0.185-2.023-0.185
		c-0.654,0-1.187,0.042-1.595,0.125c-0.408,0.081-0.795,0.246-1.166,0.492c-0.632,0.415-0.95,1.013-0.95,1.795
		c0,1.421,1.974,3.124,5.919,5.103l0.522,0.246c3.063,1.545,5.072,2.924,6.022,4.129s1.428,2.704,1.428,4.499
		c0,2.515-0.936,4.524-2.807,6.028c-1.869,1.504-4.349,2.257-7.437,2.257c-1.837,0-3.551-0.205-5.134-0.618
		C242.009,56.91,240.451,56.281,238.916,55.435z"/>
	<path fill="#FED093" d="M279.999,56.486c-0.797,0.454-1.718,0.81-2.759,1.066c-1.042,0.258-2.153,0.387-3.341,0.387
		c-3.188,0-5.434-0.762-6.73-2.287c-1.295-1.526-1.945-4.308-1.945-8.351V33.761h-4.816v-0.558l9.907-11.038h0.641v6.648h8.865
		v4.947h-8.865v13.111c0,2.349,0.285,3.884,0.861,4.606c0.59,0.679,1.684,1.019,3.278,1.019c0.919,0,1.772-0.113,2.56-0.34
		c0.791-0.226,1.569-0.578,2.345-1.051V56.486z"/>
	<g>
		<path fill="#FED093" d="M190.371,4.245c0.033-2.377,1.971-4.278,4.327-4.244c2.356,0.034,4.241,1.987,4.21,4.364
			c-0.035,2.377-1.975,4.278-4.328,4.244C192.221,8.575,190.336,6.622,190.371,4.245z"/>
	</g>
	<g>
		
			<ellipse transform="matrix(-0.9999 -0.0141 0.0141 -0.9999 309.4319 10.7861)" fill="#542437" cx="154.754" cy="4.305" rx="4.269" ry="4.305"/>
	</g>
	<g>
		<path fill="#FED093" d="M173.087,34.098c-0.041-0.089,5.039,1.646,19.546-18.827c2.475-2.997,5.5-1.853,6.048,0.055
			c0,3.966,0,42.278,0,42.278h-5.774V24.598c-3.51,4.432-9.008,9.757-16.369,12.071c-0.55,0.442-1.338,0.805-2.243,0.983
			c-0.438,0.089-0.862,0.125-1.258,0.117c-1.286-0.026-2.39-1.847-2.241-2.117C171.15,35.016,172,34.427,173.087,34.098z"/>
	</g>
	<g>
		<path fill="#542437" d="M176.571,34.098c0,0-5.042,1.646-19.548-18.827c-2.471-2.997-5.496-1.853-6.046,0.055
			c0,3.966,0,42.278,0,42.278h5.775V24.598c3.509,4.432,9.007,9.757,16.368,12.071c0.55,0.442,1.335,0.805,2.242,0.983
			c0.436,0.089,0.743,0.129,1.259,0.117c0.518-0.011,2.41-0.981,2.243-2.117C179.066,34.084,176.571,34.098,176.571,34.098z"/>
	</g>
	<g>
		<path fill="#FED093" d="M174.037,37.463c-0.442,0.568-1.542,0.448-2.458-0.273c-0.917-0.723-1.304-1.771-0.86-2.343
			c0.221-0.283,0.607-0.396,1.052-0.347c0.443,0.05,2.099,1.307,2.273,1.676C174.271,36.657,174.289,37.138,174.037,37.463z"/>
	</g>
</g>
</svg>
