<?xml version="1.0" encoding="utf-8"?>
<!-- Generator: Adobe Illustrator 16.0.0, SVG Export Plug-In . SVG Version: 6.00 Build 0)  -->
<!DOCTYPE svg PUBLIC "-//W3C//DTD SVG 1.1//EN" "http://www.w3.org/Graphics/SVG/1.1/DTD/svg11.dtd">
<svg version="1.1" id="Layer_1" xmlns="http://www.w3.org/2000/svg" xmlns:xlink="http://www.w3.org/1999/xlink" x="0px" y="0px"
	 width="15px" height="21px" viewBox="0 0 15 21" enable-background="new 0 0 15 21" xml:space="preserve">
<g>
	<path fill="#542437" d="M14.295,7.145C14.295,3.199,11.096,0,7.148,0S0,3.199,0,7.145c0,3.327,2.275,6.123,5.354,6.919l1.795,6.512
		l1.795-6.512C12.02,13.268,14.295,10.472,14.295,7.145z"/>
	<defs>
		<filter id="Adobe_OpacityMaskFilter" filterUnits="userSpaceOnUse" x="0.496" y="0.515" width="13.305" height="13.304">
			<feFlood  style="flood-color:white;flood-opacity:1" result="back"/>
			<feBlend  in="SourceGraphic" in2="back" mode="normal"/>
		</filter>
	</defs>
	<mask maskUnits="userSpaceOnUse" x="0.496" y="0.515" width="13.305" height="13.304" id="SVGID_1_">
		<g filter="url(#Adobe_OpacityMaskFilter)">
			<defs>
				<filter id="Adobe_OpacityMaskFilter_1_" filterUnits="userSpaceOnUse" x="0.496" y="0.515" width="13.305" height="13.304">
					<feFlood  style="flood-color:white;flood-opacity:1" result="back"/>
					<feBlend  in="SourceGraphic" in2="back" mode="normal"/>
				</filter>
			</defs>
			<mask maskUnits="userSpaceOnUse" x="0.496" y="0.515" width="13.305" height="13.304" id="SVGID_1_">
				<g filter="url(#Adobe_OpacityMaskFilter_1_)">
				</g>
			</mask>
			<linearGradient id="SVGID_2_" gradientUnits="userSpaceOnUse" x1="7.1479" y1="-0.4888" x2="7.1479" y2="15.4986">
				<stop  offset="0" style="stop-color:#FFFFFF"/>
				<stop  offset="0.0477" style="stop-color:#E4E4E4"/>
				<stop  offset="0.1519" style="stop-color:#AFAFAF"/>
				<stop  offset="0.2602" style="stop-color:#808080"/>
				<stop  offset="0.3707" style="stop-color:#595959"/>
				<stop  offset="0.4836" style="stop-color:#393939"/>
				<stop  offset="0.6" style="stop-color:#202020"/>
				<stop  offset="0.7211" style="stop-color:#0E0E0E"/>
				<stop  offset="0.8499" style="stop-color:#030303"/>
				<stop  offset="1" style="stop-color:#000000"/>
			</linearGradient>
			<path mask="url(#SVGID_1_)" fill="url(#SVGID_2_)" d="M7.148,0.515c-3.674,0-6.652,2.978-6.652,6.652
				c0,3.674,2.979,6.651,6.652,6.651s6.652-2.978,6.652-6.651C13.801,3.493,10.822,0.515,7.148,0.515z M7.148,13.689
				c-3.604,0-6.523-2.919-6.523-6.522c0-3.604,2.92-6.524,6.523-6.524s6.521,2.92,6.521,6.524
				C13.67,10.77,10.752,13.689,7.148,13.689z"/>
		</g>
	</mask>
	<linearGradient id="SVGID_3_" gradientUnits="userSpaceOnUse" x1="7.1479" y1="-0.4888" x2="7.1479" y2="15.4986">
		<stop  offset="0" style="stop-color:#FFFFFF"/>
		<stop  offset="0.0693" style="stop-color:#FFFFFF"/>
		<stop  offset="1" style="stop-color:#FFFFFF"/>
	</linearGradient>
	<path fill="url(#SVGID_3_)" d="M7.148,0.515c-3.674,0-6.652,2.978-6.652,6.652c0,3.674,2.979,6.651,6.652,6.651
		s6.652-2.978,6.652-6.651C13.801,3.493,10.822,0.515,7.148,0.515z M7.148,13.689c-3.604,0-6.523-2.919-6.523-6.522
		c0-3.604,2.92-6.524,6.523-6.524s6.521,2.92,6.521,6.524C13.67,10.77,10.752,13.689,7.148,13.689z"/>
	<circle fill="#F1F2F2" cx="7.139" cy="7.158" r="5.311"/>
</g>
</svg>
