<?xml version="1.0" encoding="utf-8"?>
<!-- Generator: Adobe Illustrator 16.0.0, SVG Export Plug-In . SVG Version: 6.00 Build 0)  -->
<!DOCTYPE svg PUBLIC "-//W3C//DTD SVG 1.1//EN" "http://www.w3.org/Graphics/SVG/1.1/DTD/svg11.dtd">
<svg version="1.1" id="Layer_1" xmlns="http://www.w3.org/2000/svg" xmlns:xlink="http://www.w3.org/1999/xlink" x="0px" y="0px"
	 width="13px" height="13px" viewBox="121.5 79 13 13" enable-background="new 121.5 79 13 13" xml:space="preserve">
<g>
	<path fill="#0492A2" d="M132.426,83.554c0-2.443-1.98-4.424-4.425-4.424c-2.443,0-4.426,1.98-4.426,4.424
		c0,2.06,1.409,3.792,3.314,4.284L128,91.869l1.111-4.031C131.016,87.346,132.426,85.614,132.426,83.554z"/>
	<defs>
		<filter id="Adobe_OpacityMaskFilter" filterUnits="userSpaceOnUse" x="123.882" y="79.45" width="8.237" height="8.236">
			<feFlood  style="flood-color:white;flood-opacity:1" result="back"/>
			<feBlend  in="SourceGraphic" in2="back" mode="normal"/>
		</filter>
	</defs>
	<mask maskUnits="userSpaceOnUse" x="123.882" y="79.45" width="8.237" height="8.236" id="SVGID_1_">
		<g filter="url(#Adobe_OpacityMaskFilter)">
			<defs>
				<filter id="Adobe_OpacityMaskFilter_1_" filterUnits="userSpaceOnUse" x="123.882" y="79.45" width="8.237" height="8.236">
					<feFlood  style="flood-color:white;flood-opacity:1" result="back"/>
					<feBlend  in="SourceGraphic" in2="back" mode="normal"/>
				</filter>
			</defs>
			<mask maskUnits="userSpaceOnUse" x="123.882" y="79.45" width="8.237" height="8.236" id="SVGID_1_">
				<g filter="url(#Adobe_OpacityMaskFilter_1_)">
				</g>
			</mask>
			<linearGradient id="SVGID_2_" gradientUnits="userSpaceOnUse" x1="128.0005" y1="78.8286" x2="128.0005" y2="88.726">
				<stop  offset="0" style="stop-color:#FFFFFF"/>
				<stop  offset="0.0477" style="stop-color:#E4E4E4"/>
				<stop  offset="0.1519" style="stop-color:#AFAFAF"/>
				<stop  offset="0.2602" style="stop-color:#808080"/>
				<stop  offset="0.3707" style="stop-color:#595959"/>
				<stop  offset="0.4836" style="stop-color:#393939"/>
				<stop  offset="0.6" style="stop-color:#202020"/>
				<stop  offset="0.7211" style="stop-color:#0E0E0E"/>
				<stop  offset="0.8499" style="stop-color:#030303"/>
				<stop  offset="1" style="stop-color:#000000"/>
			</linearGradient>
			<path mask="url(#SVGID_1_)" fill="url(#SVGID_2_)" d="M128,79.45c-2.274,0-4.118,1.844-4.118,4.117
				c0,2.275,1.844,4.119,4.118,4.119c2.275,0,4.119-1.843,4.119-4.119C132.119,81.293,130.275,79.45,128,79.45z M128,87.605
				c-2.23,0-4.038-1.807-4.038-4.039c0-2.23,1.808-4.039,4.038-4.039c2.232,0,4.039,1.809,4.039,4.039
				C132.039,85.798,130.232,87.605,128,87.605z"/>
		</g>
	</mask>
	<linearGradient id="SVGID_3_" gradientUnits="userSpaceOnUse" x1="128.0005" y1="78.8286" x2="128.0005" y2="88.726">
		<stop  offset="0" style="stop-color:#FFFFFF"/>
		<stop  offset="0.0693" style="stop-color:#FFFFFF"/>
		<stop  offset="1" style="stop-color:#FFFFFF"/>
	</linearGradient>
	<path fill="url(#SVGID_3_)" d="M128,79.45c-2.274,0-4.118,1.844-4.118,4.117c0,2.275,1.844,4.119,4.118,4.119
		c2.275,0,4.119-1.843,4.119-4.119C132.119,81.293,130.275,79.45,128,79.45z M128,87.605c-2.23,0-4.038-1.807-4.038-4.039
		c0-2.23,1.808-4.039,4.038-4.039c2.232,0,4.039,1.809,4.039,4.039C132.039,85.798,130.232,87.605,128,87.605z"/>
	<circle fill="#3F6C34" cx="127.864" cy="83.448" r="3.289"/>
	<circle fill="#FFFFFF" cx="127.995" cy="83.562" r="3.288"/>
</g>
</svg>
