<?xml version="1.0" encoding="utf-8"?>
<!-- Generator: Adobe Illustrator 16.0.0, SVG Export Plug-In . SVG Version: 6.00 Build 0)  -->
<!DOCTYPE svg PUBLIC "-//W3C//DTD SVG 1.1//EN" "http://www.w3.org/Graphics/SVG/1.1/DTD/svg11.dtd">
<svg version="1.1" id="Layer_1" xmlns="http://www.w3.org/2000/svg" xmlns:xlink="http://www.w3.org/1999/xlink" x="0px" y="0px"
	 width="49px" height="28.833px" viewBox="-2.25 -9.833 49 28.833" enable-background="new -2.25 -9.833 49 28.833"
	 xml:space="preserve">
<g>
	<g>
		<ellipse fill="#F1F2F2" cx="9.148" cy="-0.786" rx="5.113" ry="5.251"/>
		<path fill="#F1F2F2" d="M19.517,15.227c-0.927-3.481-3.012-6.34-5.707-7.891C12.397,6.517,10.817,6.06,9.148,6.06
			c-1.87,0-3.631,0.577-5.172,1.589c-2.515,1.653-4.435,4.475-5.265,7.861c-0.274,1.107-0.433,2.278-0.454,3.49h21.78
			C20.016,17.686,19.833,16.42,19.517,15.227z"/>
	</g>
</g>
<g>
	<path d="M263.725,76.502c0.194-0.156,0.366-0.334,0.524-0.516c-1.831,1.057-4.215,0.672-5.607-1.014
		c-1.386-1.688-1.314-4.098,0.075-5.697c-0.213,0.119-0.42,0.258-0.609,0.418c-1.882,1.553-2.149,4.338-0.6,6.213
		C259.062,77.791,261.843,78.059,263.725,76.502z"/>
	<path d="M275.259,68.645l-43.72-53.541c-4.27,0.94-8.388,2.883-11.99,5.887c-3.607,3.004-6.279,6.717-8.009,10.773l43.718,53.547
		c2.197,2.689,8.455,1.143,13.979-3.461C274.761,77.25,277.455,71.34,275.259,68.645z M263.736,76.396
		c-1.884,1.574-4.667,1.307-6.218-0.594c-1.548-1.895-1.277-4.707,0.606-6.277c1.877-1.566,4.662-1.299,6.214,0.598
		C265.886,72.021,265.615,74.834,263.736,76.396z"/>
	<path d="M223.908,26.756c-2.224,1.834-4.646,3.27-7.18,4.318c-0.157,0.289-0.33,0.564-0.48,0.857
		c0.174,0.211,0.598,0.721,1.223,1.479c2.855-1.072,5.591-2.619,8.075-4.67c2.848-2.346,5.11-5.135,6.787-8.177
		c-0.635-0.772-1.183-1.438-1.638-1.987C229.02,21.621,226.756,24.41,223.908,26.756z"/>
	<path d="M213.986,33.797c0.374-0.736,0.785-1.447,1.219-2.141c-1.077,0.379-2.174,0.682-3.28,0.92l1.638,1.986
		c0.298-0.064,0.594-0.129,0.889-0.203C214.236,34.1,214.077,33.904,213.986,33.797z"/>
	<path d="M231.66,16.669c0.312,0.376,0.869,1.057,1.638,1.985c0.086-0.188,0.166-0.378,0.245-0.567l-1.638-1.985
		C231.825,16.291,231.748,16.48,231.66,16.669z"/>
	<path d="M232.333,20.563c0.345-0.627,0.671-1.261,0.965-1.909c-0.769-0.929-1.326-1.609-1.638-1.985
		c-0.295,0.645-0.618,1.282-0.965,1.907C231.15,19.125,231.698,19.791,232.333,20.563z"/>
	<path d="M216.729,31.074c-0.502,0.211-1.012,0.404-1.523,0.582c-0.434,0.693-0.845,1.404-1.219,2.141
		c0.091,0.107,0.25,0.303,0.465,0.563c1.016-0.258,2.025-0.574,3.02-0.949c-0.625-0.758-1.049-1.268-1.223-1.479
		C216.398,31.639,216.571,31.363,216.729,31.074z"/>
	<g>
		<path d="M190.308,23.861c8.462,10.262,23.64,11.717,33.902,3.256c10.262-8.461,11.72-23.64,3.254-33.902
			c-5.938-7.203-15.18-10.059-23.714-8.198l10.242,12.417c1.868,2.268-0.416,7.238-5.106,11.102
			c-4.685,3.868-10.003,5.168-11.874,2.903l-10.24-12.422C183.325,7.036,184.37,16.656,190.308,23.861z"/>
		<path d="M208.886,8.537c0.215-0.175,0.425-0.359,0.629-0.542c-4.517,3.462-9.438,4.546-11.223,2.388L188.053-2.039
			c-0.255,0.586-1.08,0.451-1.281,1.056l10.24,12.422C198.883,13.705,204.201,12.404,208.886,8.537z"/>
		<path d="M225.292-6.066c8.285,10.043,6.854,24.953-3.193,33.236c-2.675,2.205-5.69,3.713-8.843,4.566
			c3.797-0.713,7.469-2.357,10.652-4.98c10.045-8.286,11.479-23.199,3.196-33.239c-5.481-6.645-14.024-9.705-22.466-8.159
			c0.034,0.039,0.074,0.092,0.128,0.151C212.556-15.271,220.233-12.205,225.292-6.066z"/>
		<path d="M222.068,25.832c0.326-0.268,0.636-0.545,0.938-0.824c-9.21,6.758-22.242,5.219-29.601-3.705
			c-3.577-4.336-5.233-9.744-4.881-15.158c-0.506-0.612-0.994-1.203-1.45-1.754c-1.438,6.465,0.09,13.266,4.41,18.5
			C199.107,32.135,212.825,33.451,222.068,25.832z"/>
		<path d="M208.744,21.363c-1.345-1.628-1.012-4.119,0.736-5.56l6.495-5.358c1.75-1.439,4.258-1.292,5.6,0.338l0,0
			c1.347,1.633,1.02,4.121-0.733,5.564l-6.496,5.355C212.598,23.145,210.093,22.994,208.744,21.363L208.744,21.363z"/>
		<path fill="#FFFFFF" d="M208.744,21.363c-1.328-1.605-0.984-4.087,0.761-5.527l6.496-5.358c1.75-1.441,4.246-1.305,5.574,0.306
			l0,0c1.334,1.611,0.991,4.09-0.755,5.532l-6.502,5.356C212.568,23.117,210.072,22.979,208.744,21.363L208.744,21.363z"/>
	</g>
</g>
<polygon fill-rule="evenodd" clip-rule="evenodd" stroke="#FFFFFF" stroke-miterlimit="10" points="259.899,-25.668 
	259.952,-25.499 259.516,-21.957 232.563,32.077 231.9,33.404 232.311,33.681 232.716,33.98 233.109,34.291 233.507,34.612 
	233.879,34.941 234.25,35.293 234.603,35.648 234.962,36.025 235.355,37.313 235.754,38.613 234.592,41.454 234.1,41.682 
	233.64,41.927 233.187,42.191 232.761,42.475 232.342,42.762 231.943,43.074 231.558,43.396 231.196,43.739 230.84,44.092 
	230.501,44.459 230.175,44.842 229.876,45.246 229.577,45.658 229.313,46.086 229.054,46.532 228.822,46.992 228.584,47.469 
	228.38,47.953 228.181,48.459 228.009,48.984 227.839,49.514 227.694,50.066 227.558,50.635 227.45,51.216 227.341,51.812 
	227.258,52.419 227.185,53.048 227.14,53.691 227.098,54.344 227.081,55.015 227.077,55.701 227.094,56.411 210.945,87.804 
	208.464,88.566 207.747,88.536 207.062,88.494 206.397,88.438 205.766,88.367 205.221,88.285 204.698,88.193 204.193,88.086 
	203.946,88.029 203.716,87.973 203.245,87.844 203.016,87.772 202.802,87.706 202.576,87.632 202.365,87.557 202.152,87.476 
	201.956,87.397 201.553,87.216 201.355,87.123 201.177,87.033 200.985,86.932 200.811,86.832 200.475,86.623 200.301,86.51 
	200.142,86.4 199.841,86.166 199.551,85.913 199.284,85.663 199.146,85.525 199.021,85.391 198.788,85.107 198.565,84.808 
	198.369,84.507 198.18,84.184 198.015,83.853 197.862,83.51 197.74,83.16 197.618,82.787 197.522,82.407 197.438,82.018 
	197.384,81.618 197.34,81.2 197.321,80.776 197.311,80.336 197.324,79.887 212.934,48.208 213.635,47.709 214.085,47.363 
	214.301,47.185 214.525,47.014 214.953,46.66 215.049,46.568 215.153,46.48 215.363,46.305 215.751,45.936 216.131,45.568 
	216.495,45.195 216.666,45.002 216.844,44.816 216.919,44.718 216.999,44.622 217.164,44.434 217.482,44.045 217.782,43.646 
	217.85,43.543 217.924,43.443 218.071,43.246 218.195,43.042 218.328,42.841 218.584,42.43 218.7,42.221 218.817,42.018 
	219.045,41.601 219.088,41.49 219.139,41.385 219.24,41.174 219.426,40.741 219.59,40.303 219.754,39.864 219.817,39.637 
	219.886,39.414 219.949,39.188 219.976,39.075 220.014,38.965 220.033,38.85 220.062,38.735 220.118,38.51 220.218,38.05 
	220.229,37.929 220.249,37.81 220.288,37.576 220.313,37.34 220.347,37.107 220.361,36.866 220.388,36.629 220.427,36.146 
	220.436,35.658 220.428,35.408 220.426,35.286 220.431,35.168 220.419,35.037 220.416,34.914 220.41,34.668 220.398,34.537 
	220.395,34.414 220.382,34.168 221.76,30.922 224.266,30.534 224.997,30.698 228.208,31.621 232.122,23.531 234.088,19.485 
	236.071,15.451 240.04,7.383 244.045,-0.674 244.296,-1.167 244.349,-1.29 244.416,-1.413 244.57,-1.744 244.742,-2.069 
	247.074,-6.753 249.43,-11.431 251.792,-16.111 254.17,-20.782 254.303,-21.073 255.396,-23.892 258.019,-26.41 258.216,-26.603 
	258.379,-26.639 258.541,-26.652 258.692,-26.659 258.844,-26.641 258.981,-26.623 259.11,-26.585 259.229,-26.539 259.348,-26.472 
	259.447,-26.396 259.543,-26.309 259.63,-26.21 259.714,-26.089 259.78,-25.964 259.846,-25.818 "/>
<g>
	<path d="M263.725,76.502c0.194-0.156,0.366-0.334,0.524-0.516c-1.831,1.057-4.215,0.672-5.607-1.014
		c-1.386-1.688-1.314-4.098,0.075-5.697c-0.213,0.119-0.42,0.258-0.609,0.418c-1.882,1.553-2.149,4.338-0.6,6.213
		C259.062,77.791,261.843,78.059,263.725,76.502z"/>
	<path d="M275.259,68.645l-43.72-53.541c-4.27,0.94-8.388,2.883-11.99,5.887c-3.607,3.004-6.279,6.717-8.009,10.773l43.718,53.547
		c2.197,2.689,8.455,1.143,13.979-3.461C274.761,77.25,277.455,71.34,275.259,68.645z M263.736,76.396
		c-1.884,1.574-4.667,1.307-6.218-0.594c-1.548-1.895-1.277-4.707,0.606-6.277c1.877-1.566,4.662-1.299,6.214,0.598
		C265.886,72.021,265.615,74.834,263.736,76.396z"/>
	<path d="M223.908,26.756c-2.224,1.834-4.646,3.27-7.18,4.318c-0.157,0.289-0.33,0.564-0.48,0.857
		c0.174,0.211,0.598,0.721,1.223,1.479c2.855-1.072,5.591-2.619,8.075-4.67c2.848-2.346,5.11-5.135,6.787-8.177
		c-0.635-0.772-1.183-1.438-1.638-1.987C229.02,21.621,226.756,24.41,223.908,26.756z"/>
	<path d="M213.986,33.797c0.374-0.736,0.785-1.447,1.219-2.141c-1.077,0.379-2.174,0.682-3.28,0.92l1.638,1.986
		c0.298-0.064,0.594-0.129,0.889-0.203C214.236,34.1,214.077,33.904,213.986,33.797z"/>
	<path d="M231.66,16.669c0.312,0.376,0.869,1.057,1.638,1.985c0.086-0.188,0.166-0.378,0.245-0.567l-1.638-1.985
		C231.825,16.291,231.748,16.48,231.66,16.669z"/>
	<path d="M232.333,20.563c0.345-0.627,0.671-1.261,0.965-1.909c-0.769-0.929-1.326-1.609-1.638-1.985
		c-0.295,0.645-0.618,1.282-0.965,1.907C231.15,19.125,231.698,19.791,232.333,20.563z"/>
	<path d="M216.729,31.074c-0.502,0.211-1.012,0.404-1.523,0.582c-0.434,0.693-0.845,1.404-1.219,2.141
		c0.091,0.107,0.25,0.303,0.465,0.563c1.016-0.258,2.025-0.574,3.02-0.949c-0.625-0.758-1.049-1.268-1.223-1.479
		C216.398,31.639,216.571,31.363,216.729,31.074z"/>
	<g>
		<path d="M190.308,23.861c8.462,10.262,23.64,11.717,33.902,3.256c10.262-8.461,11.72-23.64,3.254-33.902
			c-5.938-7.203-15.18-10.059-23.714-8.198l10.242,12.417c1.868,2.268-0.416,7.238-5.106,11.102
			c-4.685,3.868-10.003,5.168-11.874,2.903l-10.24-12.422C183.325,7.036,184.37,16.656,190.308,23.861z"/>
		<path d="M208.886,8.537c0.215-0.175,0.425-0.359,0.629-0.542c-4.517,3.462-9.438,4.546-11.223,2.388L188.053-2.039
			c-0.255,0.586-1.08,0.451-1.281,1.056l10.24,12.422C198.883,13.705,204.201,12.404,208.886,8.537z"/>
		<path d="M225.292-6.066c8.285,10.043,6.854,24.953-3.193,33.236c-2.675,2.205-5.69,3.713-8.843,4.566
			c3.797-0.713,7.469-2.357,10.652-4.98c10.045-8.286,11.479-23.199,3.196-33.239c-5.481-6.645-14.024-9.705-22.466-8.159
			c0.034,0.039,0.074,0.092,0.128,0.151C212.556-15.271,220.233-12.205,225.292-6.066z"/>
		<path d="M222.068,25.832c0.326-0.268,0.636-0.545,0.938-0.824c-9.21,6.758-22.242,5.219-29.601-3.705
			c-3.577-4.336-5.233-9.744-4.881-15.158c-0.506-0.612-0.994-1.203-1.45-1.754c-1.438,6.465,0.09,13.266,4.41,18.5
			C199.107,32.135,212.825,33.451,222.068,25.832z"/>
		<path d="M208.744,21.363c-1.345-1.628-1.012-4.119,0.736-5.56l6.495-5.358c1.75-1.439,4.258-1.292,5.6,0.338l0,0
			c1.347,1.633,1.02,4.121-0.733,5.564l-6.496,5.355C212.598,23.145,210.093,22.994,208.744,21.363L208.744,21.363z"/>
		<path fill="#FFFFFF" d="M208.744,21.363c-1.328-1.605-0.984-4.087,0.761-5.527l6.496-5.358c1.75-1.441,4.246-1.305,5.574,0.306
			l0,0c1.334,1.611,0.991,4.09-0.755,5.532l-6.502,5.356C212.568,23.117,210.072,22.979,208.744,21.363L208.744,21.363z"/>
	</g>
</g>
<polygon fill-rule="evenodd" clip-rule="evenodd" stroke="#FFFFFF" stroke-miterlimit="10" points="259.899,-25.668 
	259.952,-25.499 259.516,-21.957 232.563,32.077 231.9,33.404 232.311,33.681 232.716,33.98 233.109,34.291 233.507,34.612 
	233.879,34.941 234.25,35.293 234.603,35.648 234.962,36.025 235.355,37.313 235.754,38.613 234.592,41.454 234.1,41.682 
	233.64,41.927 233.187,42.191 232.761,42.475 232.342,42.762 231.943,43.074 231.558,43.396 231.196,43.739 230.84,44.092 
	230.501,44.459 230.175,44.842 229.876,45.246 229.577,45.658 229.313,46.086 229.054,46.532 228.822,46.992 228.584,47.469 
	228.38,47.953 228.181,48.459 228.009,48.984 227.839,49.514 227.694,50.066 227.558,50.635 227.45,51.216 227.341,51.812 
	227.258,52.419 227.185,53.048 227.14,53.691 227.098,54.344 227.081,55.015 227.077,55.701 227.094,56.411 210.945,87.804 
	208.464,88.566 207.747,88.536 207.062,88.494 206.397,88.438 205.766,88.367 205.221,88.285 204.698,88.193 204.193,88.086 
	203.946,88.029 203.716,87.973 203.245,87.844 203.016,87.772 202.802,87.706 202.576,87.632 202.365,87.557 202.152,87.476 
	201.956,87.397 201.553,87.216 201.355,87.123 201.177,87.033 200.985,86.932 200.811,86.832 200.475,86.623 200.301,86.51 
	200.142,86.4 199.841,86.166 199.551,85.913 199.284,85.663 199.146,85.525 199.021,85.391 198.788,85.107 198.565,84.808 
	198.369,84.507 198.18,84.184 198.015,83.853 197.862,83.51 197.74,83.16 197.618,82.787 197.522,82.407 197.438,82.018 
	197.384,81.618 197.34,81.2 197.321,80.776 197.311,80.336 197.324,79.887 212.934,48.208 213.635,47.709 214.085,47.363 
	214.301,47.185 214.525,47.014 214.953,46.66 215.049,46.568 215.153,46.48 215.363,46.305 215.751,45.936 216.131,45.568 
	216.495,45.195 216.666,45.002 216.844,44.816 216.919,44.718 216.999,44.622 217.164,44.434 217.482,44.045 217.782,43.646 
	217.85,43.543 217.924,43.443 218.071,43.246 218.195,43.042 218.328,42.841 218.584,42.43 218.7,42.221 218.817,42.018 
	219.045,41.601 219.088,41.49 219.139,41.385 219.24,41.174 219.426,40.741 219.59,40.303 219.754,39.864 219.817,39.637 
	219.886,39.414 219.949,39.188 219.976,39.075 220.014,38.965 220.033,38.85 220.062,38.735 220.118,38.51 220.218,38.05 
	220.229,37.929 220.249,37.81 220.288,37.576 220.313,37.34 220.347,37.107 220.361,36.866 220.388,36.629 220.427,36.146 
	220.436,35.658 220.428,35.408 220.426,35.286 220.431,35.168 220.419,35.037 220.416,34.914 220.41,34.668 220.398,34.537 
	220.395,34.414 220.382,34.168 221.76,30.922 224.266,30.534 224.997,30.698 228.208,31.621 232.122,23.531 234.088,19.485 
	236.071,15.451 240.04,7.383 244.045,-0.674 244.296,-1.167 244.349,-1.29 244.416,-1.413 244.57,-1.744 244.742,-2.069 
	247.074,-6.753 249.43,-11.431 251.792,-16.111 254.17,-20.782 254.303,-21.073 255.396,-23.892 258.019,-26.41 258.216,-26.603 
	258.379,-26.639 258.541,-26.652 258.692,-26.659 258.844,-26.641 258.981,-26.623 259.11,-26.585 259.229,-26.539 259.348,-26.472 
	259.447,-26.396 259.543,-26.309 259.63,-26.21 259.714,-26.089 259.78,-25.964 259.846,-25.818 "/>
<path fill="#F1F2F2" d="M40.758,14.633L31.649,3.478c-0.891,0.196-1.749,0.6-2.499,1.226c-0.752,0.627-1.31,1.4-1.669,2.245
	l9.109,11.158c0.457,0.56,1.761,0.236,2.912-0.723C40.654,16.426,41.217,15.194,40.758,14.633z M38.358,16.248
	c-0.394,0.328-0.973,0.273-1.297-0.124c-0.322-0.395-0.266-0.98,0.126-1.308c0.393-0.325,0.973-0.27,1.296,0.125
	C38.806,15.337,38.748,15.924,38.358,16.248z"/>
<g>
	<path fill="#F1F2F2" d="M23.058,5.303c1.763,2.138,4.926,2.44,7.063,0.677c2.138-1.763,2.441-4.926,0.678-7.063
		c-1.236-1.5-3.162-2.097-4.941-1.708l2.136,2.587c0.389,0.472-0.086,1.508-1.063,2.312c-0.979,0.807-2.086,1.078-2.475,0.606
		L22.32,0.125C21.604,1.797,21.82,3.8,23.058,5.303z"/>
	<path fill="#F1F2F2" d="M26.93,2.108c0.043-0.035,0.088-0.074,0.13-0.112c-0.941,0.722-1.966,0.948-2.338,0.498l-2.134-2.588
		c-0.053,0.122-0.224,0.093-0.268,0.219l2.135,2.589C24.844,3.186,25.951,2.915,26.93,2.108z"/>
</g>
<polygon fill-rule="evenodd" clip-rule="evenodd" fill="#F1F2F2" stroke="#17A086" stroke-width="0.25" stroke-miterlimit="10" points="
	37.558,-5.018 37.569,-4.983 37.479,-4.245 31.862,7.014 31.723,7.29 31.81,7.348 31.894,7.41 31.976,7.476 32.058,7.542 
	32.135,7.61 32.213,7.684 32.287,7.758 32.362,7.836 32.445,8.104 32.526,8.375 32.285,8.967 32.182,9.015 32.087,9.066 
	31.993,9.121 31.903,9.181 31.816,9.239 31.732,9.305 31.652,9.373 31.577,9.443 31.504,9.519 31.432,9.594 31.363,9.674 
	31.303,9.757 31.24,9.844 31.186,9.933 31.13,10.025 31.083,10.121 31.033,10.221 30.991,10.322 30.948,10.427 30.912,10.537 
	30.878,10.646 30.848,10.762 30.819,10.881 30.797,11.001 30.774,11.127 30.758,11.254 30.742,11.384 30.733,11.518 30.724,11.652 
	30.721,11.793 30.718,11.936 30.722,12.084 27.357,18.624 26.842,18.784 26.691,18.777 26.548,18.77 26.41,18.758 26.278,18.742 
	26.165,18.727 26.055,18.707 25.95,18.684 25.899,18.671 25.852,18.66 25.753,18.634 25.705,18.619 25.66,18.605 25.613,18.59 
	25.569,18.573 25.526,18.557 25.485,18.54 25.401,18.503 25.359,18.482 25.321,18.464 25.282,18.443 25.247,18.422 25.175,18.379 
	25.141,18.356 25.106,18.332 25.044,18.284 24.984,18.231 24.929,18.179 24.899,18.148 24.873,18.121 24.825,18.063 24.777,18.001 
	24.737,17.938 24.698,17.872 24.663,17.802 24.632,17.729 24.605,17.656 24.581,17.58 24.561,17.502 24.543,17.42 24.532,17.336 
	24.523,17.25 24.521,17.162 24.517,17.069 24.521,16.977 27.772,10.375 27.918,10.271 28.012,10.199 28.058,10.161 28.104,10.126 
	28.192,10.053 28.213,10.033 28.235,10.016 28.278,9.979 28.358,9.901 28.439,9.825 28.514,9.748 28.55,9.707 28.587,9.668 
	28.603,9.647 28.619,9.627 28.653,9.588 28.721,9.507 28.781,9.424 28.797,9.402 28.812,9.382 28.843,9.341 28.868,9.299 
	28.896,9.256 28.949,9.171 28.973,9.127 28.998,9.085 29.046,8.999 29.055,8.975 29.065,8.953 29.086,8.91 29.124,8.818 
	29.158,8.728 29.194,8.636 29.206,8.588 29.221,8.542 29.233,8.495 29.239,8.473 29.247,8.449 29.25,8.425 29.257,8.401 
	29.27,8.354 29.29,8.258 29.293,8.233 29.297,8.208 29.305,8.16 29.31,8.109 29.316,8.063 29.32,8.011 29.325,7.962 29.334,7.861 
	29.335,7.76 29.334,7.707 29.333,7.682 29.334,7.658 29.331,7.631 29.331,7.606 29.33,7.554 29.327,7.526 29.326,7.5 29.324,7.449 
	29.611,6.773 30.134,6.692 30.285,6.727 30.955,6.918 31.77,5.232 32.181,4.391 32.593,3.55 33.42,1.868 34.255,0.19 34.306,0.087 
	34.318,0.062 34.332,0.035 34.363,-0.034 34.4,-0.1 34.885,-1.076 35.376,-2.052 35.868,-3.026 36.364,-3.999 36.392,-4.062 
	36.619,-4.648 37.166,-5.172 37.205,-5.212 37.24,-5.22 37.275,-5.224 37.307,-5.224 37.338,-5.22 37.366,-5.218 37.393,-5.21 
	37.418,-5.199 37.442,-5.186 37.464,-5.17 37.484,-5.151 37.501,-5.131 37.52,-5.106 37.533,-5.08 37.547,-5.049 "/>
</svg>
