<?xml version="1.0" encoding="utf-8"?>
<!-- Generator: Adobe Illustrator 16.0.0, SVG Export Plug-In . SVG Version: 6.00 Build 0)  -->
<!DOCTYPE svg PUBLIC "-//W3C//DTD SVG 1.1//EN" "http://www.w3.org/Graphics/SVG/1.1/DTD/svg11.dtd">
<svg version="1.1" id="Layer_1" xmlns="http://www.w3.org/2000/svg" xmlns:xlink="http://www.w3.org/1999/xlink" x="0px" y="0px"
	 width="28px" height="19px" viewBox="0 0 28 19" enable-background="new 0 0 28 19" xml:space="preserve">
<g>
	<g>
		<path fill="#F1F2F2" d="M6.325,8.702c-1.669,0-3.188,0.784-4.318,2.061C0.773,12.159,0,14.145,0,16.351h2.007h3.85
			c0.634-2.678,2.13-4.917,4.104-6.258C8.932,9.218,7.679,8.702,6.325,8.702z"/>
		<ellipse fill="#F1F2F2" cx="6.325" cy="5.234" rx="2.896" ry="2.974"/>
		<path fill="#F1F2F2" d="M25.85,10.393c-1.113-1.185-2.574-1.905-4.174-1.905c-1.34,0-2.58,0.505-3.604,1.364
			c2.105,1.269,3.729,3.535,4.432,6.285h3.346H28C28,13.848,27.166,11.796,25.85,10.393z"/>
		<ellipse fill="#F1F2F2" cx="14.206" cy="3.985" rx="3.88" ry="3.985"/>
		<path fill="#F1F2F2" d="M22.074,16.137c-0.703-2.643-2.285-4.812-4.33-5.989c-1.072-0.621-2.271-0.968-3.538-0.968
			c-1.419,0-2.756,0.438-3.925,1.206c-1.908,1.255-3.365,3.395-3.995,5.965C6.078,17.192,5.958,18.08,5.942,19h16.528
			C22.453,18.003,22.314,17.042,22.074,16.137z"/>
		<ellipse fill="#F1F2F2" cx="21.676" cy="5.02" rx="2.896" ry="2.974"/>
	</g>
</g>
</svg>
