<?xml version="1.0" encoding="utf-8"?>
<!-- Generator: Adobe Illustrator 16.0.0, SVG Export Plug-In . SVG Version: 6.00 Build 0)  -->
<!DOCTYPE svg PUBLIC "-//W3C//DTD SVG 1.1//EN" "http://www.w3.org/Graphics/SVG/1.1/DTD/svg11.dtd">
<svg version="1.1" id="Layer_1" xmlns="http://www.w3.org/2000/svg" xmlns:xlink="http://www.w3.org/1999/xlink" x="0px" y="0px"
	 width="28px" height="19px" viewBox="0 0 28 19" enable-background="new 0 0 28 19" xml:space="preserve">
<g>
	<defs>
		<rect id="SVGID_1_" x="-27" y="-2.833" width="76.107" height="21.833"/>
	</defs>
	<clipPath id="SVGID_2_">
		<use xlink:href="#SVGID_1_"  overflow="visible"/>
	</clipPath>
	<g clip-path="url(#SVGID_2_)">
		<path fill="#F1F2F2" d="M28.034,31.635V10.848h-0.126h-3.611c-1.682,0-3.26-0.653-4.447-1.842
			c-1.188-1.188-1.844-2.767-1.844-4.447V0.981H5.901c-2.972,0-5.381,2.41-5.381,5.383v25.271c0,2.975,2.409,5.385,5.381,5.385
			h16.749C25.624,37.02,28.034,34.609,28.034,31.635z M5.734,13.651c0-0.584,0.475-1.058,1.058-1.058h14.969
			c0.585,0,1.059,0.474,1.059,1.058c0,0.586-0.474,1.06-1.059,1.06H6.792C6.209,14.711,5.734,14.237,5.734,13.651z M7.285,19
			c0-0.595,0.48-1.078,1.077-1.078h11.829c0.596,0,1.077,0.483,1.077,1.078s-0.481,1.076-1.077,1.076H8.362
			C7.766,20.076,7.285,19.595,7.285,19z M21.761,25.405H6.792c-0.583,0-1.058-0.474-1.058-1.058s0.475-1.058,1.058-1.058h14.969
			c0.585,0,1.059,0.474,1.059,1.058S22.346,25.405,21.761,25.405z"/>
		<polygon fill="#F1F2F2" points="18.913,0.981 18.949,0.981 18.913,0.945 		"/>
		<path fill="#F1F2F2" d="M18.913,4.559c0,1.485,0.603,2.832,1.576,3.806c0.975,0.974,2.322,1.577,3.808,1.577h3.611l-8.959-8.96
			h-0.036V4.559z"/>
	</g>
</g>
</svg>
