<?xml version="1.0" encoding="utf-8"?>
<!-- Generator: Adobe Illustrator 16.0.0, SVG Export Plug-In . SVG Version: 6.00 Build 0)  -->
<!DOCTYPE svg PUBLIC "-//W3C//DTD SVG 1.1//EN" "http://www.w3.org/Graphics/SVG/1.1/DTD/svg11.dtd">
<svg version="1.1" id="Layer_1" xmlns="http://www.w3.org/2000/svg" xmlns:xlink="http://www.w3.org/1999/xlink" x="0px" y="0px"
	 width="28px" height="19px" viewBox="0 0 28 19" enable-background="new 0 0 28 19" xml:space="preserve">
<g>
	<defs>
		<rect id="SVGID_1_" x="-7.5" y="-2.376" width="42.334" height="21.376"/>
	</defs>
	<clipPath id="SVGID_2_">
		<use xlink:href="#SVGID_1_"  overflow="visible"/>
	</clipPath>
	<path clip-path="url(#SVGID_2_)" fill="#F1F2F2" d="M24.502,0.747H6.598c-0.562,0-1.021,0.46-1.021,1.026v2.369H2.731
		C2.27,4.142,1.9,4.515,1.9,4.975c0,0.459,0.37,0.83,0.831,0.83h2.845v2.291H2.731C2.27,8.096,1.9,8.469,1.9,8.929
		c0,0.459,0.37,0.832,0.831,0.832h2.845v2.292H2.731c-0.461,0-0.831,0.372-0.831,0.831c0,0.461,0.37,0.833,0.831,0.833h2.845v2.292
		H2.731c-0.461,0-0.831,0.372-0.831,0.831s0.37,0.831,0.831,0.831h2.845v2.292H2.731c-0.461,0-0.831,0.372-0.831,0.832
		c0,0.461,0.37,0.83,0.831,0.83h2.845v2.293H2.731C2.27,23.918,1.9,24.29,1.9,24.75c0,0.462,0.37,0.832,0.831,0.832h2.845V27.9
		c0,0.565,0.459,1.026,1.021,1.026h17.904c0.569,0,1.026-0.461,1.026-1.026V1.773C25.528,1.207,25.071,0.747,24.502,0.747z
		 M21.188,9.039c0,0.28-0.224,0.502-0.501,0.502H10.484c-0.279,0-0.505-0.223-0.505-0.502V6.177c0-0.278,0.226-0.502,0.505-0.502
		h10.202c0.277,0,0.501,0.224,0.501,0.502V9.039z"/>
</g>
</svg>
