<?xml version="1.0" encoding="utf-8"?>
<!-- Generator: Adobe Illustrator 16.0.0, SVG Export Plug-In . SVG Version: 6.00 Build 0)  -->
<!DOCTYPE svg PUBLIC "-//W3C//DTD SVG 1.1//EN" "http://www.w3.org/Graphics/SVG/1.1/DTD/svg11.dtd">
<svg version="1.1" id="Layer_1" xmlns="http://www.w3.org/2000/svg" xmlns:xlink="http://www.w3.org/1999/xlink" x="0px" y="0px"
	 width="62px" height="66px" viewBox="0 0 62 66" enable-background="new 0 0 62 66" xml:space="preserve">
<g>
	<path fill="#542437" d="M31.775,0.279L60.96,29.695L1.04,29.776L30.392,0.28C30.765-0.093,31.409-0.093,31.775,0.279z"/>
	<g>
		<path fill="#B3B4B5" d="M52.337,56.33V24.174h-0.194h-5.6c-2.605,0-5.054-1.014-6.896-2.851c-1.841-1.839-2.856-4.281-2.856-6.881
			V8.909H18.023c-4.609,0-8.346,3.729-8.346,8.328V56.33c0,4.601,3.737,8.33,8.346,8.33h25.968
			C48.603,64.66,52.337,60.931,52.337,56.33z M17.764,28.509c0-0.902,0.736-1.634,1.643-1.634h23.205
			c0.906,0,1.638,0.731,1.638,1.634c0,0.906-0.731,1.639-1.638,1.639H19.407C18.5,30.147,17.764,29.415,17.764,28.509z
			 M20.17,36.782c0-0.918,0.743-1.665,1.669-1.665h18.34c0.923,0,1.672,0.747,1.672,1.665c-0.002,0.921-0.749,1.667-1.672,1.667
			h-18.34C20.913,38.449,20.17,37.703,20.17,36.782z M42.611,46.693H19.407c-0.907,0-1.643-0.733-1.643-1.637
			s0.736-1.637,1.643-1.637h23.205c0.906,0,1.638,0.733,1.638,1.637S43.518,46.693,42.611,46.693z"/>
		<polygon fill="#B3B4B5" points="38.196,8.909 38.252,8.909 38.196,8.854 		"/>
		<path fill="#B3B4B5" d="M38.196,14.442c0,2.299,0.935,4.382,2.445,5.888c1.509,1.507,3.6,2.44,5.901,2.44h5.6L38.252,8.909h-0.056
			V14.442z"/>
	</g>
	<g>
		<path fill="#542437" d="M41.677,51.648l-9.733,9.812c-0.404,0.406-1.105,0.406-1.51-0.001l-9.633-9.678L1.521,65.817
			C1.743,65.93,1.99,66,2.255,66h57.49c0.272,0,0.524-0.073,0.749-0.188L41.677,51.648z"/>
		<path fill="#542437" d="M61.939,64.619C61.976,64.482,62,64.344,62,64.196V31.617l-18.77,18.92L61.939,64.619z"/>
		<path fill="#542437" d="M19.244,50.837L0,31.5v32.864c0,0.15,0.027,0.294,0.066,0.434L19.244,50.837z"/>
	</g>
</g>
</svg>
