<?xml version="1.0" encoding="utf-8"?>
<!-- Generator: Adobe Illustrator 16.0.0, SVG Export Plug-In . SVG Version: 6.00 Build 0)  -->
<!DOCTYPE svg PUBLIC "-//W3C//DTD SVG 1.1//EN" "http://www.w3.org/Graphics/SVG/1.1/DTD/svg11.dtd">
<svg version="1.1" id="Layer_1" xmlns="http://www.w3.org/2000/svg" xmlns:xlink="http://www.w3.org/1999/xlink" x="0px" y="0px"
	 width="62px" height="66px" viewBox="0 0 62 66" enable-background="new 0 0 62 66" xml:space="preserve">
<g>
	<path fill="#542437" d="M31.576,4.236l24.739,24.935L5.524,29.24l24.88-25.002C30.72,3.921,31.267,3.921,31.576,4.236z"/>
	<g>
		<path fill="#B3B4B5" d="M49.006,51.749V24.491h-0.164h-4.747c-2.209,0-4.282-0.859-5.845-2.416
			c-1.561-1.56-2.421-3.629-2.421-5.833v-4.69H19.92c-3.907,0-7.075,3.161-7.075,7.06v33.138c0,3.9,3.168,7.061,7.075,7.061h22.013
			C45.842,58.81,49.006,55.649,49.006,51.749z M19.701,28.166c0-0.765,0.623-1.385,1.392-1.385h19.67
			c0.769,0,1.389,0.62,1.389,1.385c0,0.768-0.618,1.39-1.389,1.39h-19.67C20.324,29.554,19.701,28.934,19.701,28.166z M21.74,35.179
			c0-0.778,0.629-1.411,1.414-1.411H38.7c0.783,0,1.418,0.633,1.418,1.411c-0.002,0.781-0.635,1.414-1.418,1.414H23.154
			C22.369,36.593,21.74,35.96,21.74,35.179z M40.763,43.58h-19.67c-0.769,0-1.392-0.622-1.392-1.388s0.623-1.388,1.392-1.388h19.67
			c0.769,0,1.389,0.622,1.389,1.388S41.531,43.58,40.763,43.58z"/>
		<polygon fill="#B3B4B5" points="37.02,11.552 37.067,11.552 37.02,11.505 		"/>
		<path fill="#B3B4B5" d="M37.02,16.242c0,1.949,0.792,3.715,2.073,4.992c1.279,1.277,3.052,2.068,5,2.068h4.749l-11.774-11.75
			H37.02V16.242z"/>
	</g>
	<g>
		<path fill="#542437" d="M39.972,47.78l-8.251,8.316c-0.343,0.345-0.938,0.345-1.28,0l-8.166-8.204L5.932,59.79
			c0.188,0.097,0.398,0.155,0.622,0.155h48.733c0.229,0,0.443-0.062,0.634-0.159L39.972,47.78z"/>
		<path fill="#542437" d="M57.146,58.774c0.032-0.116,0.052-0.233,0.052-0.358V30.801l-15.91,16.037L57.146,58.774z"/>
		<path fill="#542437" d="M20.955,47.092L4.643,30.701V58.56c0,0.126,0.022,0.248,0.056,0.367L20.955,47.092z"/>
	</g>
</g>
</svg>
