<?xml version="1.0" encoding="utf-8"?>
<!-- Generator: Adobe Illustrator 16.0.0, SVG Export Plug-In . SVG Version: 6.00 Build 0)  -->
<!DOCTYPE svg PUBLIC "-//W3C//DTD SVG 1.1//EN" "http://www.w3.org/Graphics/SVG/1.1/DTD/svg11.dtd">
<svg version="1.1" id="Layer_1" xmlns="http://www.w3.org/2000/svg" xmlns:xlink="http://www.w3.org/1999/xlink" x="0px" y="0px"
	 width="11px" height="14px" viewBox="0 0 11 14" enable-background="new 0 0 11 14" xml:space="preserve">
<g>
	<path fill="#0992A4" d="M5.034,6.623c0,0.463-0.333,0.838-0.743,0.838H1.678c-0.41,0-0.743-0.375-0.743-0.838V6.518
		c0-0.462,0.333-0.838,0.743-0.838h2.614c0.41,0,0.743,0.375,0.743,0.838V6.623z"/>
	<path fill="#0992A4" d="M4.724,12.855c0,0.463-0.332,0.838-0.742,0.838H1.94c-0.41,0-0.742-0.375-0.742-0.838v-0.121
		c0-0.463,0.333-0.84,0.742-0.84h2.042c0.41,0,0.742,0.377,0.742,0.84V12.855z"/>
	<path fill="#0992A4" d="M5.593,10.781c0,0.463-0.332,0.838-0.743,0.838H1.2c-0.41,0-0.742-0.375-0.742-0.838v-0.123
		c0-0.463,0.332-0.838,0.742-0.838h3.65c0.411,0,0.743,0.375,0.743,0.838V10.781z"/>
	<path fill="#0992A4" d="M5.593,8.697c0,0.465-0.332,0.84-0.743,0.84H0.906c-0.41,0-0.742-0.375-0.742-0.84V8.594
		c0-0.463,0.333-0.838,0.742-0.838H4.85c0.411,0,0.743,0.375,0.743,0.838V8.697z"/>
	<path fill="#0992A4" d="M9.501,5.683c-0.705-0.3-1.241-1.027-1.434-1.648C7.843,3.31,7.654,1.974,7.555,1.229
		c-0.069-0.523-0.698-1.113-1.386-1.1C5.576,0.14,4.936,0.722,4.866,1.316C4.762,2.204,5.151,4.238,5.53,5
		C5.696,5.335,5.006,5.68,5.006,5.68c0.232,0.205,0.38,0.503,0.38,0.838v0.105c0,0.349-0.159,0.658-0.409,0.864
		c0.546,0.073,0.967,0.54,0.967,1.106v0.104l0,0c0,0.424-0.235,0.791-0.582,0.98c0.346,0.191,0.582,0.559,0.582,0.98v0.123
		c0,0.617-0.5,1.117-1.117,1.117H4.66c0.23,0.205,0.377,0.502,0.377,0.836v0.121c0,0.33-0.145,0.627-0.373,0.832h4.685
		c0.639-0.035,1.011-0.383,1.197-1.361c0.243-1.275,0.375-4.221,0.232-5.027C10.639,6.506,10.112,5.942,9.501,5.683z"/>
</g>
</svg>
