<?xml version="1.0" encoding="utf-8"?>
<!-- Generator: Adobe Illustrator 16.0.0, SVG Export Plug-In . SVG Version: 6.00 Build 0)  -->
<!DOCTYPE svg PUBLIC "-//W3C//DTD SVG 1.1//EN" "http://www.w3.org/Graphics/SVG/1.1/DTD/svg11.dtd">
<svg version="1.1" id="Layer_1" xmlns="http://www.w3.org/2000/svg" xmlns:xlink="http://www.w3.org/1999/xlink" x="0px" y="0px"
	 width="41.769px" height="46.911px" viewBox="0 0 41.769 46.911" enable-background="new 0 0 41.769 46.911" xml:space="preserve">
<g>
	<path fill="#542437" d="M10,22.167c0-1.104-0.896-2-2-2H2c-1.104,0-2,0.896-2,2v23c0,1.104,0.896,2,2,2h6c1.104,0,2-0.896,2-2
		V22.167z"/>
</g>
<g>
	<path fill="#542437" d="M21,2.167c0-1.104-0.896-2-2-2h-6c-1.104,0-2,0.896-2,2v43c0,1.104,0.896,2,2,2h6c1.104,0,2-0.896,2-2
		V2.167z"/>
</g>
<g>
	<path fill="#542437" d="M32,8.167c0-1.104-0.896-2-2-2h-6c-1.104,0-2,0.896-2,2v37c0,1.104,0.896,2,2,2h6c1.104,0,2-0.896,2-2
		V8.167z"/>
</g>
<g>
	<path fill="#542437" d="M42,35.167c0-1.104-0.896-2-2-2h-5c-1.104,0-2,0.896-2,2v10c0,1.104,0.896,2,2,2h5c1.104,0,2-0.896,2-2
		V35.167z"/>
</g>
</svg>
