<?xml version="1.0" encoding="utf-8"?>
<!-- Generator: Adobe Illustrator 16.0.0, SVG Export Plug-In . SVG Version: 6.00 Build 0)  -->
<!DOCTYPE svg PUBLIC "-//W3C//DTD SVG 1.1//EN" "http://www.w3.org/Graphics/SVG/1.1/DTD/svg11.dtd">
<svg version="1.1" id="Layer_1" xmlns="http://www.w3.org/2000/svg" xmlns:xlink="http://www.w3.org/1999/xlink" x="0px" y="0px"
	 width="41.769px" height="44.202px" viewBox="0 0 41.769 44.202" enable-background="new 0 0 41.769 44.202" xml:space="preserve">
<g>
	<path fill="#542437" d="M0,2.77v38.723c0,1.382,1.747,2.709,3.125,2.709h4.142V0H3.125C1.747,0,0,1.389,0,2.77z"/>
	<path fill="#542437" d="M38.755,18.165V2.77c0-1.381-0.521-2.77-1.902-2.77H8.479v44.202h28.374c1.381,0,1.902-1.327,1.902-2.709
		v-2.739v-6.057V30.88v-5.448v-1.208V18.165z M23.579,15.239c1.764,0,3.196,1.434,3.196,3.199c0,1.767-1.433,3.198-3.196,3.198
		c-1.767,0-3.201-1.431-3.201-3.198C20.378,16.673,21.813,15.239,23.579,15.239z M16.3,30.975c0-4.754,2.729-8.608,7.483-8.608
		c4.755,0,7.486,3.854,7.486,8.608H16.3z"/>
	<rect x="38.755" y="32.697" fill="#542437" width="3.028" height="6.057"/>
	<rect x="38.755" y="25.432" fill="#542437" width="3.028" height="5.448"/>
	<rect x="38.755" y="18.165" fill="#542437" width="3.028" height="6.058"/>
</g>
</svg>
