<?xml version="1.0" encoding="utf-8"?>
<!-- Generator: Adobe Illustrator 16.0.0, SVG Export Plug-In . SVG Version: 6.00 Build 0)  -->
<!DOCTYPE svg PUBLIC "-//W3C//DTD SVG 1.1//EN" "http://www.w3.org/Graphics/SVG/1.1/DTD/svg11.dtd">
<svg version="1.1" id="Layer_1" xmlns="http://www.w3.org/2000/svg" xmlns:xlink="http://www.w3.org/1999/xlink" x="0px" y="0px"
	 width="41.769px" height="23.892px" viewBox="0 0 41.769 23.892" enable-background="new 0 0 41.769 23.892" xml:space="preserve">
<g>
	<path fill="#542437" d="M0.298,0.034c0,0.196-0.124,0.36-0.298,0.427v0.062c0.174,0.066,0.298,0.232,0.298,0.425
		c0,0.198-0.124,0.363-0.298,0.429v0.062c0.174,0.066,0.298,0.23,0.298,0.427c0,0.197-0.124,0.361-0.298,0.427v0.062
		c0.174,0.064,0.298,0.23,0.298,0.427S0.174,3.142,0,3.208V3.27C0.174,3.336,0.298,3.5,0.298,3.697c0,0.199-0.124,0.361-0.298,0.427
		v0.063c0.174,0.066,0.298,0.23,0.298,0.427C0.298,4.81,0.174,4.974,0,5.038v0.066c0.174,0.064,0.298,0.228,0.298,0.427
		c0,0.196-0.124,0.363-0.298,0.429c0,0.11,0,0.172,0,0.172c1.747,0.239,3.123,2.748,3.123,5.816c0,3.063-1.376,5.571-3.123,5.812
		v0.163c0.174,0.066,0.298,0.233,0.298,0.429c0,0.197-0.124,0.362-0.298,0.427v0.061c0.174,0.068,0.298,0.233,0.298,0.429
		c0,0.197-0.124,0.36-0.298,0.427v0.063c0.174,0.066,0.298,0.229,0.298,0.427c0,0.195-0.124,0.362-0.298,0.427v0.061
		c0.174,0.07,0.298,0.231,0.298,0.431c0,0.193-0.124,0.36-0.298,0.425v0.064c0.174,0.063,0.298,0.226,0.298,0.423
		S0.174,22.378,0,22.44v0.063c0.174,0.066,0.298,0.231,0.298,0.429c0,0.195-0.124,0.36-0.298,0.425v0.064
		c0.174,0.064,0.298,0.229,0.298,0.427c0,0.018-0.003,0.028-0.003,0.044h40.823c0-0.016-0.004-0.026-0.004-0.044
		c0-0.242,0.186-0.438,0.422-0.459l0,0c-0.236-0.019-0.422-0.216-0.422-0.457c0-0.242,0.186-0.438,0.422-0.459v-0.002
		c-0.236-0.017-0.422-0.214-0.422-0.457c0-0.241,0.186-0.437,0.422-0.455v-0.002c-0.236-0.021-0.422-0.215-0.422-0.455
		c0-0.243,0.186-0.44,0.422-0.459l0,0c-0.236-0.023-0.422-0.217-0.422-0.459c0-0.241,0.186-0.435,0.422-0.458l0,0
		c-0.236-0.022-0.422-0.218-0.422-0.459c0-0.242,0.186-0.436,0.422-0.457l0,0c-0.236-0.021-0.422-0.216-0.422-0.459
		c0-0.239,0.186-0.438,0.422-0.457v-0.135c-1.744-0.24-3.121-2.748-3.121-5.812c0-3.068,1.377-5.577,3.121-5.816V5.987
		c-0.236-0.022-0.422-0.216-0.422-0.457c0-0.243,0.186-0.439,0.422-0.459l0,0c-0.236-0.022-0.422-0.216-0.422-0.459
		c0-0.241,0.186-0.437,0.422-0.457l0,0c-0.236-0.021-0.422-0.216-0.422-0.459c0-0.24,0.186-0.435,0.422-0.457V3.238
		c-0.236-0.021-0.422-0.215-0.422-0.457c0-0.241,0.186-0.437,0.422-0.457l0,0c-0.236-0.022-0.422-0.217-0.422-0.459
		c0-0.24,0.186-0.437,0.422-0.457V1.406c-0.236-0.02-0.422-0.216-0.422-0.458c0-0.24,0.186-0.435,0.422-0.455V0.491
		c-0.236-0.02-0.422-0.214-0.422-0.457c0-0.013,0.004-0.022,0.004-0.031c-1.695,0.002-3.395,0.031-5.086,0.002
		c-0.275-0.004-0.541,0.028-0.887,0.028c-0.451,0-0.273,0.327-0.279,0.709L34.74,0.799c0,0,0.168,0.044,0.152,0.126
		c-0.012,0.084-0.039,0.25-0.084,0.264c-0.041,0.016,0,0.098-0.025,0.143c-0.029,0.04,0.014,0.22,0.014,0.22
		s0.096,0.084,0.057,0.198c-0.045,0.111-0.029,0.25,0.039,0.223c0,0,0,0.096-0.096,0.138c-0.098,0.044-0.334,0.098-0.422,0.084
		c0,0-0.068,0.113-0.123,0.084c0,0-0.041,0.084-0.098,0.154c-0.055,0.068-0.127,0.14-0.127,0.196c0,0.054-0.125,0.096-0.166,0.068
		c0,0,0.027,0.112-0.016,0.182c-0.039,0.07-0.32,0.099-0.32,0.099s-0.07,0.222-0.07,0.267c0,0.04-0.07,0.208-0.166,0.236
		c-0.1,0.028-0.268,0.084-0.322,0.152c-0.059,0.072-0.223,0.112-0.264,0.126c-0.045,0.014-0.07,0.112-0.156,0.14
		c-0.02,0.008-0.063,0.016-0.119,0.028L32.34,4.431c0,0,0.172,0.413,0.139,0.726c-0.018,0.186-0.104,0.521-0.104,0.521l-0.174,0.898
		l0.037-0.483c0,0,0.014-0.21,0.029-0.421c0.012-0.132,0.027-0.263,0.039-0.341c0.033-0.208,0.033-0.519-0.105-0.659
		c-0.137-0.139-0.24-0.742-0.24-0.742c-0.057-0.07-0.027-0.46,0.084-0.545c0,0,0.014-0.573,0.182-0.657l0.014-0.152
		c0,0-0.17-0.21-0.154-0.334c0.016-0.128-0.094-0.323-0.152-0.393c-0.057-0.072,0.041-0.139,0.041-0.139s-0.07-0.184-0.055-0.238
		c0.014-0.056-0.125-0.056-0.154-0.138c-0.027-0.086,0.016-0.225-0.043-0.365c-0.057-0.141-0.264-0.21-0.488-0.196
		c-0.008-0.187,0.047-0.415-0.068-0.565c-0.199-0.249-0.908-0.188-1.186-0.19C29.043,0.002,28.105,0,27.168,0
		c-2.537,0.002-5.078,0.002-7.617,0.002c-2.877,0-5.756,0-8.634,0c-2.477,0-4.951,0-7.427,0c-1.066,0-2.13,0-3.195,0
		C0.295,0.012,0.298,0.021,0.298,0.034z"/>
	<g>
		<path fill="#FFFFFF" d="M15.24,18.857h-0.383l-0.194-0.33h-0.739l-0.198,0.33h-0.373l0.831-1.379h0.217L15.24,18.857z
			 M14.5,18.266l-0.208-0.338l-0.208,0.338H14.5z"/>
		<path fill="#FFFFFF" d="M16.941,18.171c0,0.235-0.092,0.411-0.278,0.531c-0.159,0.102-0.362,0.155-0.604,0.155h-0.735v-1.379
			h0.735c0.233,0,0.435,0.053,0.6,0.165C16.848,17.769,16.941,17.945,16.941,18.171z M16.584,18.169
			c0-0.137-0.056-0.241-0.168-0.315c-0.095-0.064-0.213-0.097-0.356-0.097h-0.385v0.821h0.385c0.149,0,0.269-0.032,0.36-0.093
			C16.529,18.413,16.584,18.308,16.584,18.169z"/>
		<path fill="#FFFFFF" d="M18.959,18.857h-0.35v-0.819l-0.52,0.643l-0.535-0.643v0.819h-0.348v-1.379h0.281l0.594,0.719l0.596-0.719
			h0.281V18.857z"/>
		<path fill="#FFFFFF" d="M19.729,18.857h-0.354v-1.383h0.354V18.857z"/>
		<path fill="#FFFFFF" d="M21.5,17.749h-0.643v1.108h-0.354v-1.108h-0.643v-0.271H21.5V17.749z"/>
		<path fill="#FFFFFF" d="M24.203,18.169c0,0.238-0.109,0.425-0.33,0.56c-0.188,0.111-0.406,0.169-0.66,0.169
			c-0.248,0-0.467-0.06-0.654-0.175c-0.223-0.137-0.332-0.32-0.332-0.554s0.109-0.42,0.328-0.552
			c0.189-0.114,0.406-0.169,0.658-0.169c0.258,0,0.479,0.051,0.66,0.161C24.094,17.742,24.203,17.928,24.203,18.169z M23.848,18.169
			c0-0.15-0.072-0.264-0.217-0.348c-0.117-0.064-0.258-0.099-0.418-0.099s-0.299,0.034-0.414,0.099
			c-0.145,0.084-0.213,0.197-0.213,0.348c0,0.147,0.068,0.266,0.213,0.347c0.115,0.066,0.254,0.101,0.414,0.101
			s0.301-0.034,0.418-0.101C23.775,18.435,23.848,18.322,23.848,18.169z"/>
		<path fill="#FFFFFF" d="M25.922,18.857h-0.207l-0.887-0.825v0.825h-0.344v-1.379h0.209l0.883,0.825v-0.825h0.346V18.857z"/>
		<path fill="#FFFFFF" d="M27.939,18.857h-1.607v-1.379h1.543v0.282h-1.193v0.226h0.781v0.279h-0.781v0.313h1.258V18.857z"/>
	</g>
	<g>
		<path fill="#FFFFFF" d="M21.18,15.228l0.307,0.945L21.451,16.2l-0.801-0.591L19.844,16.2l-0.035-0.027l0.305-0.945l-0.801-0.579
			l0.01-0.04h0.996l0.307-0.948h0.045l0.303,0.948h0.988l0.018,0.04L21.18,15.228z M20.625,13.821l-0.273,0.827h-0.875l1.148,0.372
			V13.821z M20.174,15.21L19.9,16.042l0.707-0.977L20.174,15.21z M20.939,14.648l-0.27,0.372l1.146-0.372H20.939z M21.121,15.21
			l-0.438-0.145l0.709,0.977L21.121,15.21z"/>
	</g>
	<path fill="#FFFFFF" d="M6.877,21.864h27.596c0.885,0,1.604-0.72,1.604-1.605V3.978c0-0.886-0.719-1.603-1.604-1.603h-0.277
		c-0.012,0.02-0.025,0.04-0.041,0.06c-0.055,0.068-0.127,0.14-0.127,0.196c0,0.054-0.125,0.096-0.166,0.068
		c0,0,0.002,0.014,0.004,0.032h0.607c0.689,0,1.246,0.559,1.246,1.246v16.281c0,0.688-0.557,1.248-1.246,1.248h-3.186V2.731h0.936
		c0.002-0.002,0.002-0.002,0.004-0.004l0.014-0.152c0,0-0.078-0.1-0.121-0.2H6.877c-0.883,0-1.603,0.717-1.603,1.603v16.281
		C5.274,21.145,5.994,21.864,6.877,21.864z M10.418,2.731h20.516v18.775H10.418V2.731z M5.63,3.978c0-0.687,0.56-1.246,1.247-1.246
		h3.186v18.775H6.877c-0.687,0-1.247-0.56-1.247-1.248V3.978z"/>
	<path fill-rule="evenodd" clip-rule="evenodd" fill="#F4EDD4" d="M30.854,0.327c-0.037,0.052-0.088,0.106-0.068,0.156
		c0.016,0.054,0.102,0.123,0.188,0.141c0.086,0.016,0.193,0.154,0.193,0.154l-0.055,0.138l0.156,0.104l0.07,0.172l-0.4,0.173h0.313
		l0.191-0.016l-0.035,0.138c0,0-0.086,0.07-0.018,0.104c0.07,0.034,0.225,0.123,0.225,0.191c0,0.069,0,0.158,0,0.158
		s-0.018,0.137-0.033,0.207c-0.018,0.068,0.066,0.207,0.066,0.207l0.191,0.138c0,0,0.09,0.086,0.09,0.173c0,0.088,0,0.156,0,0.156
		s-0.021,0,0.016,0.07c0.033,0.07,0.033,0.191,0.033,0.191s0,0.016-0.07,0.122c-0.068,0.102-0.068,0.102-0.068,0.102
		s-0.086,0.121-0.02,0.242c0.072,0.123,0.037,0.347,0.037,0.431c0,0.09-0.121,0.123-0.051,0.21c0.07,0.084,0.191,0.172,0.191,0.172
		s0.135,0.172,0.135,0.26c0,0.084,0.02,0.223,0.02,0.223S32.115,5,32.168,5.036c0.051,0.034,0.07,0.136,0.07,0.192
		c0,0.048,0.049,0.17,0.018,0.275c-0.037,0.104-0.07,0.174-0.055,0.258c0.018,0.088,0.037,0.156,0.037,0.156l-0.02,0.365
		l0.008-0.032l0.012-0.158c0,0,0.014-0.21,0.029-0.421c0.012-0.132,0.027-0.263,0.039-0.341c0.033-0.208,0.033-0.519-0.105-0.659
		c-0.137-0.139-0.24-0.742-0.24-0.742c-0.057-0.07-0.027-0.46,0.084-0.545c0,0,0.014-0.573,0.182-0.657l0.014-0.152
		c0,0-0.17-0.21-0.154-0.334c0.016-0.128-0.094-0.323-0.152-0.393c-0.057-0.072,0.041-0.139,0.041-0.139s-0.07-0.184-0.055-0.238
		c0.014-0.056-0.125-0.056-0.154-0.138c-0.027-0.086,0.016-0.225-0.043-0.365c-0.057-0.141-0.264-0.21-0.488-0.196
		c-0.008-0.187,0.047-0.415-0.068-0.565c-0.104-0.128-0.338-0.172-0.578-0.188l-0.029,0.104l0.123,0.118
		C30.682,0.24,30.887,0.276,30.854,0.327z"/>
	<path fill-rule="evenodd" clip-rule="evenodd" fill="#F4EDD4" d="M33.861,2.699c0,0,0.027,0.112-0.016,0.182
		c-0.039,0.07-0.32,0.099-0.32,0.099s-0.07,0.222-0.07,0.267c0,0.04-0.07,0.208-0.166,0.236c-0.1,0.028-0.268,0.084-0.322,0.152
		c-0.059,0.072-0.223,0.112-0.264,0.126c-0.045,0.014-0.07,0.112-0.156,0.14c-0.02,0.008-0.063,0.016-0.119,0.028L32.34,4.431
		c0,0,0.172,0.413,0.139,0.726c-0.018,0.186-0.104,0.521-0.104,0.521l-0.115,0.6l-0.021,0.178L32.34,6.16l0.053-0.295l0.051-0.154
		c0,0,0.068-0.052,0.086-0.104c0.02-0.052-0.018-0.174-0.018-0.174s0.053-0.188,0.07-0.276C32.6,5.07,32.619,4.897,32.6,4.812
		c-0.018-0.088-0.051-0.157-0.051-0.157l0.086-0.138L32.6,4.342c0,0-0.018-0.136,0-0.224c0.02-0.086,0.193-0.05,0.262-0.07
		c0.066-0.016,0.258-0.137,0.258-0.137s0.086-0.122,0.07-0.208s0.293-0.121,0.346-0.242c0.051-0.121,0.244-0.121,0.328-0.121
		l0.486-0.156l0.084-0.07c0,0,0,0,0.018-0.123c0.018-0.118,0.086-0.032,0.086-0.032s0,0,0.053-0.018s0.107,0.018,0.156,0
		c0.053-0.018,0.086-0.052,0.07-0.104c-0.018-0.052-0.141-0.086-0.156-0.138c-0.018-0.052,0.068-0.123,0.172-0.139
		c0.104-0.018,0.225,0.016,0.346-0.052c0.123-0.07,0.156-0.245,0.141-0.329c-0.018-0.088-0.156-0.295-0.156-0.295
		s-0.105-0.226-0.121-0.294c-0.018-0.07,0-0.104,0.086-0.172c0.086-0.07-0.07-0.277-0.07-0.277s-0.016-0.154-0.053-0.243
		c-0.033-0.086,0.053-0.226,0.105-0.294s0.104-0.123,0.086-0.242c-0.018-0.123-0.086-0.157-0.086-0.157s-0.01-0.074,0.018-0.17
		c-0.426,0.008-0.256,0.33-0.262,0.708L34.74,0.799c0,0,0.168,0.044,0.152,0.126c-0.012,0.084-0.039,0.25-0.084,0.264
		c-0.041,0.016,0,0.098-0.025,0.143c-0.029,0.04,0.014,0.22,0.014,0.22s0.096,0.084,0.057,0.198
		c-0.045,0.111-0.029,0.25,0.039,0.223c0,0,0,0.096-0.096,0.138c-0.098,0.044-0.334,0.098-0.422,0.084c0,0-0.068,0.113-0.123,0.084
		c0,0-0.041,0.084-0.098,0.154c-0.055,0.068-0.127,0.14-0.127,0.196C34.027,2.685,33.902,2.727,33.861,2.699z"/>
	<g>
		<path fill="#FFFFFF" d="M14.607,7.384v5.162h-1.253V7.384h-0.77V6.136h2.791v1.248H14.607z M12.635,6.186v1.11l0.648-0.585h1.375
			l0.629-0.525H12.635z M13.93,6.825L13.406,7.34v5.12l0.524-0.524V6.825z"/>
		<path fill="#FFFFFF" d="M15.587,12.546v-6.41h1.25v6.41H15.587z M15.637,6.178l0.001,6.282l0.524-0.524V6.747l0.606-0.569H15.637z
			"/>
		<path fill="#FFFFFF" d="M19.025,12.298c-0.393-0.167-0.734-0.395-1.029-0.683c-0.293-0.289-0.525-0.628-0.695-1.019
			c-0.168-0.393-0.254-0.808-0.254-1.253c0-0.443,0.086-0.859,0.254-1.25c0.17-0.393,0.402-0.729,0.695-1.018
			c0.295-0.291,0.637-0.517,1.029-0.683c0.391-0.167,0.809-0.25,1.25-0.25v1.252c-0.273,0-0.529,0.05-0.77,0.152
			s-0.449,0.239-0.627,0.415c-0.178,0.177-0.318,0.381-0.422,0.618c-0.105,0.236-0.158,0.493-0.158,0.765
			c0,0.274,0.053,0.53,0.158,0.765c0.104,0.239,0.248,0.446,0.43,0.619c0.18,0.176,0.391,0.313,0.627,0.414
			c0.24,0.104,0.492,0.154,0.762,0.154v1.25C19.834,12.546,19.416,12.462,19.025,12.298z M18.979,6.464
			C18.605,6.633,18.279,6.861,18,7.148c-0.281,0.284-0.5,0.615-0.662,0.992c-0.16,0.377-0.24,0.777-0.24,1.202
			c0,0.116,0.01,0.247,0.027,0.385c0.018,0.141,0.043,0.281,0.08,0.418c0.033,0.143,0.074,0.275,0.125,0.41
			c0.049,0.13,0.109,0.244,0.178,0.336c0.031,0.04,0.061,0.074,0.094,0.104c0.031,0.03,0.074,0.044,0.127,0.044
			c0.08,0,0.146-0.029,0.197-0.086C17.973,10.894,18,10.825,18,10.751c0-0.03-0.006-0.052-0.014-0.07
			c-0.008-0.018-0.02-0.039-0.031-0.062c-0.105-0.209-0.186-0.415-0.246-0.618c-0.057-0.2-0.086-0.421-0.086-0.659
			c0-0.302,0.051-0.593,0.152-0.875c0.102-0.278,0.244-0.533,0.426-0.759c0.18-0.227,0.395-0.421,0.646-0.579
			c0.25-0.157,0.525-0.271,0.822-0.341l0.506-0.595C19.752,6.204,19.352,6.294,18.979,6.464z M19.623,11.245
			c-0.184-0.059-0.354-0.146-0.506-0.258c-0.156-0.11-0.293-0.241-0.418-0.387c-0.123-0.15-0.221-0.313-0.297-0.497
			c-0.018,0.066-0.053,0.122-0.111,0.168c-0.059,0.048-0.125,0.07-0.191,0.07c-0.072,0-0.137-0.022-0.193-0.061
			c0.15,0.378,0.381,0.7,0.689,0.964c0.309,0.268,0.662,0.447,1.059,0.548l0.535-0.447C19.996,11.342,19.809,11.308,19.623,11.245z"
			/>
		<path fill="#FFFFFF" d="M23.117,9.473c-0.082,0.24-0.201,0.484-0.359,0.729c0.1,0.094,0.178,0.22,0.232,0.381
			c0.057,0.159,0.084,0.308,0.084,0.442v1.521h-1.252v-1.514l-0.086,0.043v1.471h-1.25v-6.41h1.25l0.002,3.351
			c0.082-0.128,0.143-0.259,0.186-0.393c0.043-0.136,0.063-0.279,0.063-0.431l0.01-2.527h1.242v2.527
			C23.238,8.961,23.199,9.232,23.117,9.473z M20.529,6.186v6.274l0.525-0.524V6.773l0.594-0.585L20.529,6.186z M22.039,6.186
			l0.008,2.477c0,0.165-0.027,0.323-0.08,0.481c-0.029,0.1-0.063,0.174-0.105,0.229c-0.041,0.05-0.086,0.118-0.131,0.2l-0.545,0.997
			c0.047-0.015,0.105-0.043,0.178-0.083c0.072-0.038,0.15-0.08,0.229-0.131c0.078-0.05,0.152-0.096,0.223-0.145
			c0.068-0.045,0.121-0.087,0.154-0.123c0.188-0.187,0.332-0.403,0.438-0.649c0.105-0.249,0.156-0.507,0.156-0.776V6.781l0.59-0.593
			L22.039,6.186z M22.391,11.192c0-0.083-0.02-0.157-0.057-0.219c-0.039-0.064-0.107-0.099-0.207-0.099
			c-0.092,0-0.16,0.034-0.199,0.099c-0.041,0.062-0.061,0.136-0.061,0.219v1.268l0.523-0.524V11.192z M22.732,10.315
			c-0.105-0.104-0.232-0.155-0.385-0.155c-0.191,0-0.35,0.078-0.473,0.236c0.152,0.012,0.287,0.07,0.404,0.178
			c0.115,0.106,0.184,0.236,0.209,0.389l0.471-0.289C22.914,10.54,22.838,10.42,22.732,10.315z"/>
		<path fill="#FFFFFF" d="M23.451,12.546v-6.41h2.256v1.248h-1.006v2.575h0.721v1.25h-0.721v0.087h1.006v1.25H23.451z M23.502,6.186
			v6.274l0.523-0.524V6.708h1.043l0.523-0.522H23.502z M24.693,10.009l-0.525,0.525h0.666l0.523-0.525H24.693z M24.693,11.346
			l-0.525,0.527h0.945l0.525-0.527H24.693z"/>
		<path fill="#FFFFFF" d="M27.939,7.384v5.162h-1.25V7.384h-0.77V6.136h2.789v1.248H27.939z M25.971,6.186l0.002,1.11l0.645-0.588
			h1.371l0.631-0.522H25.971z M27.264,6.825L26.738,7.34v5.12l0.525-0.524V6.825z"/>
	</g>
	<g>
		<path fill="#FFFFFF" d="M8.553,5.978l-1.43-1.197V4.417l1.183,0.982V4.212h0.247V5.978z"/>
		<path fill="#FFFFFF" d="M7.123,7.781V6.254C7.15,6.258,7.184,6.256,7.228,6.252c0.05-0.004,0.084-0.004,0.105-0.004
			c0.163,0,0.289,0.044,0.376,0.136c0.072,0.072,0.133,0.196,0.184,0.367c0.033,0.12,0.068,0.24,0.101,0.361
			c0.072,0.212,0.129,0.32,0.172,0.32c0.06,0,0.107-0.046,0.139-0.136C8.327,7.23,8.338,7.16,8.338,7.084
			c0-0.175-0.077-0.394-0.226-0.662L8.31,6.248c0.181,0.264,0.271,0.537,0.271,0.818c0,0.164-0.028,0.311-0.086,0.437
			C8.42,7.667,8.309,7.749,8.163,7.749c-0.109,0-0.204-0.08-0.283-0.241C7.84,7.424,7.785,7.262,7.713,7.016
			C7.652,6.811,7.6,6.681,7.555,6.626c-0.04-0.046-0.102-0.068-0.187-0.068v1.222H7.123z"/>
		<path fill="#FFFFFF" d="M7.826,9.887c-0.241,0-0.427-0.104-0.563-0.316c-0.12-0.182-0.177-0.398-0.177-0.653
			c0-0.3,0.091-0.567,0.271-0.799l0.182,0.186C7.401,8.499,7.333,8.699,7.333,8.905c0,0.138,0.021,0.26,0.066,0.367
			C7.452,9.4,7.532,9.486,7.641,9.532C7.558,9.304,7.519,9.085,7.519,8.877c0-0.203,0.038-0.383,0.114-0.543
			C7.73,8.132,7.868,8.031,8.048,8.031c0.184,0,0.325,0.096,0.42,0.287C8.544,8.47,8.582,8.649,8.582,8.851
			c0,0.264-0.059,0.493-0.176,0.687C8.265,9.771,8.073,9.887,7.826,9.887z M7.932,9.548c0.128-0.027,0.23-0.12,0.31-0.276
			c0.064-0.134,0.096-0.276,0.096-0.423c0-0.112-0.02-0.216-0.063-0.313C8.223,8.412,8.146,8.35,8.048,8.35
			c-0.1,0-0.177,0.066-0.227,0.199C7.781,8.647,7.76,8.755,7.76,8.873C7.76,9.095,7.818,9.322,7.932,9.548z"/>
		<path fill="#FFFFFF" d="M7.59,11.895c-0.171,0-0.305-0.104-0.397-0.315c-0.071-0.167-0.107-0.348-0.107-0.549
			c0-0.193,0.027-0.371,0.081-0.526c0.055-0.152,0.145-0.306,0.269-0.454l0.199,0.191c-0.106,0.139-0.183,0.262-0.229,0.36
			c-0.051,0.126-0.077,0.264-0.077,0.422c0,0.111,0.017,0.225,0.051,0.335c0.048,0.15,0.116,0.225,0.204,0.225
			c0.097,0,0.158-0.085,0.185-0.249c0.009-0.063,0.013-0.18,0.013-0.354h0.245c0,0.018,0,0.044,0,0.078
			c-0.002,0.034-0.003,0.061-0.003,0.073c0,0.221,0.048,0.331,0.14,0.331c0.064,0,0.112-0.048,0.143-0.138
			c0.021-0.065,0.032-0.143,0.032-0.226c0-0.214-0.071-0.436-0.214-0.661l0.21-0.18c0.165,0.261,0.248,0.545,0.248,0.852
			c0,0.166-0.028,0.311-0.086,0.431c-0.072,0.154-0.184,0.232-0.332,0.232c-0.04,0-0.083-0.01-0.132-0.032
			c-0.048-0.021-0.083-0.048-0.107-0.078C7.845,11.819,7.732,11.895,7.59,11.895z"/>
		<path fill="#FFFFFF" d="M8.553,13.98l-1.43-1.195V12.42l1.183,0.98v-1.187h0.247V13.98z"/>
		<path fill="#FFFFFF" d="M7.834,15.953c-0.239,0-0.429-0.106-0.564-0.318c-0.123-0.188-0.184-0.403-0.184-0.655
			c0-0.254,0.061-0.47,0.184-0.654c0.136-0.214,0.325-0.322,0.564-0.322c0.24,0,0.428,0.108,0.567,0.322
			c0.121,0.185,0.18,0.4,0.18,0.654s-0.06,0.473-0.18,0.659C8.264,15.847,8.076,15.953,7.834,15.953z M7.834,15.639
			c0.164,0,0.293-0.07,0.387-0.213c0.077-0.124,0.117-0.273,0.117-0.446c0-0.171-0.041-0.319-0.121-0.443
			c-0.093-0.145-0.222-0.216-0.384-0.216s-0.288,0.071-0.384,0.216c-0.08,0.124-0.121,0.275-0.121,0.443
			c0,0.167,0.041,0.315,0.124,0.442C7.548,15.568,7.675,15.639,7.834,15.639z"/>
		<path fill="#FFFFFF" d="M7.625,17.811c-0.177,0-0.315-0.095-0.415-0.281c-0.082-0.151-0.124-0.328-0.124-0.521
			c0-0.302,0.094-0.592,0.284-0.873l0.215,0.154C7.5,16.435,7.439,16.553,7.407,16.64c-0.05,0.123-0.074,0.251-0.074,0.38
			c0,0.113,0.023,0.216,0.071,0.309c0.059,0.116,0.142,0.171,0.243,0.171c0.095,0,0.167-0.063,0.215-0.189
			c0.034-0.093,0.05-0.199,0.05-0.312c0-0.18-0.045-0.36-0.138-0.536V16.27h0.778v1.393L8.306,17.66v-1.087H8.102
			c0.037,0.148,0.054,0.288,0.054,0.425c0,0.203-0.037,0.38-0.113,0.529C7.949,17.716,7.809,17.811,7.625,17.811z"/>
		<path fill="#FFFFFF" d="M7.123,20.407v-0.326l0.278-0.167v-0.632l-0.278-0.167v-0.32l1.178,0.711v0.187L7.123,20.407z
			 M7.627,19.775l0.289-0.179l-0.289-0.178V19.775z"/>
	</g>
	<g>
		<path fill="#FFFFFF" d="M32.758,18.639l1.43,1.197V20.2l-1.184-0.98v1.188h-0.246V18.639z"/>
		<path fill="#FFFFFF" d="M34.188,16.837v1.527c-0.027-0.002-0.064-0.002-0.107,0.002c-0.049,0.006-0.082,0.006-0.105,0.006
			c-0.164,0-0.289-0.048-0.377-0.139c-0.072-0.072-0.131-0.193-0.18-0.366c-0.035-0.121-0.07-0.239-0.104-0.358
			c-0.072-0.215-0.129-0.322-0.174-0.322c-0.059,0-0.107,0.043-0.137,0.136c-0.023,0.064-0.033,0.135-0.033,0.211
			c0,0.173,0.074,0.395,0.227,0.66l-0.201,0.179c-0.18-0.268-0.268-0.537-0.268-0.82c0-0.163,0.029-0.309,0.084-0.434
			c0.076-0.167,0.188-0.249,0.334-0.249c0.109,0,0.203,0.08,0.283,0.241c0.037,0.083,0.092,0.246,0.164,0.489
			c0.064,0.207,0.117,0.338,0.16,0.391c0.041,0.048,0.105,0.07,0.189,0.07v-1.224H34.188z"/>
		<path fill="#FFFFFF" d="M33.482,14.73c0.24,0,0.428,0.106,0.564,0.316c0.117,0.183,0.176,0.4,0.176,0.656
			c0,0.296-0.092,0.564-0.27,0.798l-0.182-0.188c0.135-0.193,0.203-0.395,0.203-0.602c0-0.137-0.02-0.26-0.068-0.364
			c-0.047-0.129-0.127-0.216-0.238-0.261c0.082,0.227,0.123,0.445,0.123,0.653c0,0.203-0.039,0.386-0.117,0.543
			c-0.096,0.203-0.232,0.304-0.414,0.304s-0.322-0.097-0.42-0.287c-0.076-0.153-0.111-0.331-0.111-0.535
			c0-0.261,0.057-0.488,0.176-0.686C33.043,14.85,33.234,14.73,33.482,14.73z M33.377,15.069c-0.129,0.028-0.23,0.122-0.311,0.278
			c-0.063,0.132-0.096,0.274-0.096,0.422c0,0.111,0.018,0.216,0.063,0.314c0.053,0.121,0.129,0.186,0.227,0.186
			c0.102,0,0.178-0.068,0.23-0.2c0.037-0.1,0.059-0.207,0.059-0.325C33.549,15.522,33.49,15.298,33.377,15.069z"/>
		<path fill="#FFFFFF" d="M33.719,12.723c0.172,0,0.305,0.106,0.396,0.318c0.072,0.164,0.107,0.348,0.107,0.545
			c0,0.195-0.027,0.372-0.082,0.525c-0.053,0.156-0.143,0.31-0.27,0.459l-0.197-0.194c0.107-0.139,0.186-0.261,0.229-0.361
			c0.053-0.123,0.076-0.262,0.076-0.42c0-0.113-0.016-0.226-0.049-0.333c-0.049-0.152-0.119-0.226-0.205-0.226
			c-0.096,0-0.158,0.083-0.186,0.25c-0.01,0.06-0.014,0.179-0.014,0.353h-0.244c0-0.019,0-0.044,0-0.078
			c0.002-0.032,0.004-0.059,0.004-0.074c0-0.219-0.047-0.331-0.139-0.331c-0.064,0-0.113,0.047-0.143,0.141
			c-0.023,0.064-0.033,0.14-0.033,0.222c0,0.214,0.07,0.438,0.215,0.664l-0.213,0.178c-0.164-0.26-0.244-0.544-0.244-0.854
			c0-0.165,0.029-0.307,0.084-0.427c0.072-0.156,0.184-0.235,0.334-0.235c0.039,0,0.082,0.014,0.131,0.034
			c0.049,0.021,0.084,0.047,0.105,0.077C33.465,12.801,33.574,12.723,33.719,12.723z"/>
		<path fill="#FFFFFF" d="M32.758,10.636l1.43,1.199v0.362l-1.184-0.979v1.187h-0.246V10.636z"/>
		<path fill="#FFFFFF" d="M33.475,8.665c0.24,0,0.428,0.106,0.566,0.318c0.123,0.187,0.182,0.405,0.182,0.655
			c0,0.252-0.059,0.47-0.182,0.655c-0.139,0.212-0.326,0.32-0.566,0.32s-0.43-0.108-0.57-0.32c-0.117-0.186-0.176-0.403-0.176-0.655
			c0-0.254,0.059-0.473,0.176-0.658C33.043,8.771,33.234,8.665,33.475,8.665z M33.475,8.979c-0.164,0-0.291,0.07-0.387,0.214
			c-0.078,0.123-0.117,0.272-0.117,0.445c0,0.171,0.039,0.318,0.123,0.442c0.092,0.145,0.221,0.218,0.381,0.218
			c0.162,0,0.287-0.073,0.385-0.218c0.08-0.126,0.119-0.271,0.119-0.442c0-0.169-0.039-0.316-0.119-0.443
			C33.76,9.051,33.635,8.979,33.475,8.979z"/>
		<path fill="#FFFFFF" d="M33.682,6.807c0.18,0,0.318,0.094,0.418,0.282c0.082,0.152,0.123,0.327,0.123,0.52
			c0,0.302-0.096,0.593-0.283,0.875l-0.215-0.156c0.084-0.148,0.145-0.263,0.176-0.349c0.051-0.126,0.074-0.252,0.074-0.383
			c0-0.112-0.021-0.214-0.072-0.304c-0.059-0.118-0.135-0.172-0.24-0.172c-0.096,0-0.168,0.063-0.215,0.188
			c-0.033,0.094-0.051,0.198-0.051,0.311c0,0.182,0.045,0.361,0.139,0.537V8.35h-0.777V6.955l0.246,0.002v1.086h0.203
			c-0.037-0.146-0.055-0.289-0.055-0.425c0-0.201,0.039-0.379,0.113-0.527C33.359,6.903,33.5,6.807,33.682,6.807z"/>
		<path fill="#FFFFFF" d="M34.188,4.212v0.327l-0.281,0.167v0.629l0.281,0.168v0.32l-1.18-0.711V4.928L34.188,4.212z M33.68,4.843
			l-0.289,0.178l0.289,0.176V4.843z"/>
	</g>
</g>
</svg>
