<?xml version="1.0" encoding="utf-8"?>
<!-- Generator: Adobe Illustrator 16.0.0, SVG Export Plug-In . SVG Version: 6.00 Build 0)  -->
<!DOCTYPE svg PUBLIC "-//W3C//DTD SVG 1.1//EN" "http://www.w3.org/Graphics/SVG/1.1/DTD/svg11.dtd">
<svg version="1.1" id="Layer_1" xmlns="http://www.w3.org/2000/svg" xmlns:xlink="http://www.w3.org/1999/xlink" x="0px" y="0px"
	 width="41.769px" height="27.411px" viewBox="0 0 41.769 27.411" enable-background="new 0 0 41.769 27.411" xml:space="preserve">
<g>
	<g>
		<path fill="#542437" d="M9.434,12.554c-2.491,0-4.753,1.132-6.44,2.975C1.152,17.542,0,20.408,0,23.586h2.994h5.746
			c0.944-3.859,3.174-7.095,6.118-9.024C13.324,13.298,11.454,12.554,9.434,12.554z"/>
		<ellipse fill="#542437" cx="9.434" cy="7.551" rx="4.322" ry="4.292"/>
		<path fill="#542437" d="M38.563,14.997c-1.661-1.712-3.841-2.75-6.229-2.75c-1.997,0-3.846,0.729-5.371,1.967
			c3.142,1.828,5.561,5.099,6.611,9.068h4.989h3.206C41.769,19.978,40.529,17.016,38.563,14.997z"/>
		<ellipse fill="#542437" cx="21.191" cy="5.75" rx="5.791" ry="5.75"/>
		<path fill="#542437" d="M32.929,23.282c-1.049-3.813-3.408-6.943-6.456-8.643c-1.603-0.894-3.393-1.395-5.281-1.395
			c-2.116,0-4.11,0.631-5.855,1.74c-2.845,1.811-5.018,4.895-5.96,8.602c-0.308,1.218-0.488,2.499-0.512,3.824h24.658
			C33.498,25.97,33.289,24.587,32.929,23.282z"/>
		<ellipse fill="#542437" cx="32.333" cy="7.242" rx="4.323" ry="4.292"/>
	</g>
</g>
</svg>
