<?xml version="1.0" encoding="utf-8"?>
<!-- Generator: Adobe Illustrator 16.0.0, SVG Export Plug-In . SVG Version: 6.00 Build 0)  -->
<!DOCTYPE svg PUBLIC "-//W3C//DTD SVG 1.1//EN" "http://www.w3.org/Graphics/SVG/1.1/DTD/svg11.dtd">
<svg version="1.1" id="Layer_1" xmlns="http://www.w3.org/2000/svg" xmlns:xlink="http://www.w3.org/1999/xlink" x="0px" y="0px"
	 width="62px" height="66px" viewBox="0 0 62 66" enable-background="new 0 0 62 66" xml:space="preserve">
<path fill="#542437" d="M47.216,11H17.09c-0.945,0-1.719,0.773-1.719,1.728v3.986h-4.787c-0.774,0-1.397,0.626-1.397,1.399
	s0.623,1.397,1.397,1.397h4.787v3.854h-4.787c-0.774,0-1.397,0.629-1.397,1.402s0.623,1.399,1.397,1.399h4.787v3.854h-4.787
	c-0.774,0-1.397,0.627-1.397,1.4s0.623,1.402,1.397,1.402h4.787v3.854h-4.787c-0.774,0-1.397,0.626-1.397,1.399
	c0,0.771,0.623,1.397,1.397,1.397h4.787v3.857h-4.787c-0.774,0-1.397,0.626-1.397,1.399c0,0.774,0.623,1.397,1.397,1.397h4.787
	v3.857h-4.787c-0.774,0-1.397,0.626-1.397,1.399c0,0.776,0.623,1.4,1.397,1.4h4.787v3.9c0,0.952,0.773,1.726,1.719,1.726h30.126
	c0.957,0,1.727-0.773,1.727-1.726v-43.96C48.942,11.773,48.173,11,47.216,11z M41.64,24.953c0,0.471-0.377,0.845-0.842,0.845H23.63
	c-0.471,0-0.848-0.374-0.848-0.845v-4.816c0-0.468,0.377-0.845,0.848-0.845h17.168c0.465,0,0.842,0.377,0.842,0.845V24.953z"/>
<text transform="matrix(1 0 0 1 81.9121 65.7168)" fill="#542437" font-family="'MyriadPro-Regular'" font-size="12">Notes</text>
<g>
	<circle fill="#FFD093" cx="114.942" cy="41.677" r="13.557"/>
	<text transform="matrix(1 0 0 1 110.4063 44.959)" fill="#542437" font-family="'Raleway'" font-size="17.4205">3</text>
</g>
</svg>
