<?xml version="1.0" encoding="utf-8"?>
<!-- Generator: Adobe Illustrator 16.0.0, SVG Export Plug-In . SVG Version: 6.00 Build 0)  -->
<!DOCTYPE svg PUBLIC "-//W3C//DTD SVG 1.1//EN" "http://www.w3.org/Graphics/SVG/1.1/DTD/svg11.dtd">
<svg version="1.1" id="Layer_1" xmlns="http://www.w3.org/2000/svg" xmlns:xlink="http://www.w3.org/1999/xlink" x="0px" y="0px"
	 width="75px" height="24px" viewBox="0 0 75 24" enable-background="new 0 0 75 24" xml:space="preserve">
<g>
	<g>
		<path fill="#542437" d="M5.602,14.863c-0.763,0-1.463-0.145-2.099-0.432s-1.185-0.68-1.647-1.176
			c-0.461-0.494-0.82-1.07-1.074-1.726s-0.382-1.346-0.382-2.069c0-0.736,0.131-1.433,0.392-2.089
			C1.053,6.716,1.414,6.14,1.876,5.645s1.011-0.891,1.647-1.185c0.635-0.294,1.328-0.442,2.078-0.442s1.443,0.147,2.079,0.442
			s1.185,0.689,1.647,1.185c0.462,0.496,0.823,1.071,1.084,1.727c0.262,0.656,0.393,1.353,0.393,2.089
			c0,0.723-0.131,1.413-0.393,2.069c-0.261,0.656-0.622,1.232-1.084,1.726c-0.463,0.496-1.012,0.889-1.647,1.176
			S6.352,14.863,5.602,14.863z M1.806,9.481c0,0.589,0.097,1.135,0.291,1.637s0.462,0.944,0.804,1.326
			c0.342,0.381,0.743,0.679,1.205,0.894c0.462,0.213,0.954,0.32,1.477,0.32c0.521,0,1.014-0.109,1.477-0.332
			c0.461-0.221,0.866-0.521,1.215-0.903c0.348-0.382,0.623-0.827,0.824-1.335c0.2-0.509,0.301-1.058,0.301-1.647
			c0-0.575-0.101-1.121-0.301-1.637C8.896,7.288,8.621,6.839,8.273,6.458c-0.349-0.382-0.75-0.683-1.205-0.904
			C6.613,5.333,6.124,5.223,5.602,5.223c-0.521,0-1.014,0.11-1.477,0.332C3.664,5.775,3.262,6.08,2.92,6.468
			C2.579,6.856,2.308,7.309,2.107,7.824C1.906,8.339,1.806,8.892,1.806,9.481z"/>
		<path fill="#542437" d="M18.396,14.863c-0.884,0-1.667-0.225-2.35-0.672c-0.684-0.449-1.232-1.016-1.647-1.698v6.448h-1.366V4.198
			h1.226v2.029c0.429-0.656,0.984-1.188,1.667-1.597c0.684-0.408,1.426-0.612,2.23-0.612c0.723,0,1.389,0.15,1.998,0.452
			s1.135,0.703,1.576,1.205c0.442,0.502,0.787,1.082,1.035,1.738s0.371,1.333,0.371,2.028c0,0.737-0.113,1.433-0.342,2.089
			c-0.227,0.656-0.552,1.232-0.974,1.726c-0.422,0.496-0.924,0.889-1.507,1.176C19.732,14.719,19.093,14.863,18.396,14.863z
			 M18.016,13.658c0.563,0,1.07-0.121,1.525-0.361s0.848-0.558,1.176-0.954s0.579-0.844,0.753-1.346
			c0.174-0.502,0.261-1.021,0.261-1.557c0-0.562-0.1-1.098-0.301-1.606s-0.476-0.958-0.823-1.346
			c-0.349-0.388-0.761-0.696-1.235-0.924c-0.476-0.228-0.988-0.341-1.537-0.341c-0.348,0-0.709,0.07-1.084,0.211
			s-0.73,0.328-1.064,0.563c-0.336,0.234-0.62,0.509-0.854,0.823c-0.234,0.315-0.379,0.646-0.433,0.994v3.214
			c0.161,0.375,0.364,0.723,0.612,1.044s0.529,0.6,0.844,0.834c0.314,0.235,0.656,0.418,1.025,0.551
			C17.248,13.592,17.627,13.658,18.016,13.658z"/>
		<path fill="#542437" d="M30.448,14.16c-0.08,0.041-0.198,0.094-0.351,0.162c-0.154,0.066-0.332,0.133-0.533,0.199
			c-0.201,0.068-0.429,0.129-0.683,0.182c-0.255,0.053-0.522,0.08-0.804,0.08c-0.295,0-0.576-0.039-0.844-0.121
			c-0.268-0.08-0.502-0.203-0.703-0.371s-0.361-0.379-0.482-0.633c-0.119-0.254-0.18-0.549-0.18-0.883V5.283h-1.447V4.198h1.447
			V0.663h1.365v3.535h2.41v1.084h-2.41v7.11c0.027,0.389,0.161,0.673,0.402,0.853c0.24,0.182,0.528,0.271,0.863,0.271
			c0.389,0,0.73-0.063,1.024-0.191c0.294-0.127,0.481-0.217,0.563-0.27L30.448,14.16z"/>
		<path fill="#542437" d="M32.055,2.009V0h1.366v2.009H32.055z M32.055,14.662V4.198h1.366v10.464H32.055z"/>
		<path fill="#542437" d="M40.873,14.863c-0.764,0-1.463-0.145-2.1-0.432c-0.636-0.287-1.185-0.68-1.646-1.176
			c-0.462-0.494-0.82-1.07-1.074-1.726c-0.255-0.656-0.383-1.346-0.383-2.069c0-0.736,0.131-1.433,0.393-2.089
			c0.261-0.656,0.623-1.231,1.084-1.727c0.463-0.496,1.012-0.891,1.647-1.185s1.329-0.442,2.079-0.442s1.443,0.147,2.078,0.442
			c0.637,0.294,1.186,0.689,1.648,1.185c0.461,0.496,0.822,1.071,1.084,1.727c0.262,0.656,0.392,1.353,0.392,2.089
			c0,0.723-0.13,1.413-0.392,2.069s-0.623,1.232-1.084,1.726c-0.463,0.496-1.012,0.889-1.648,1.176
			C42.316,14.719,41.623,14.863,40.873,14.863z M37.076,9.481c0,0.589,0.098,1.135,0.291,1.637c0.195,0.502,0.463,0.944,0.805,1.326
			c0.341,0.381,0.742,0.679,1.205,0.894c0.461,0.213,0.953,0.32,1.477,0.32c0.521,0,1.014-0.109,1.476-0.332
			c0.462-0.221,0.866-0.521,1.216-0.903c0.348-0.382,0.622-0.827,0.823-1.335c0.2-0.509,0.302-1.058,0.302-1.647
			c0-0.575-0.102-1.121-0.302-1.637c-0.201-0.516-0.476-0.964-0.823-1.346c-0.35-0.382-0.75-0.683-1.205-0.904
			c-0.456-0.221-0.945-0.332-1.467-0.332c-0.522,0-1.015,0.11-1.477,0.332c-0.462,0.221-0.863,0.525-1.205,0.914
			c-0.342,0.389-0.613,0.841-0.813,1.356C37.178,8.339,37.076,8.892,37.076,9.481z"/>
		<path fill="#542437" d="M57.103,14.662h-1.366V8.818c0-1.245-0.181-2.149-0.542-2.711c-0.362-0.563-0.924-0.844-1.688-0.844
			c-0.401,0-0.804,0.074-1.205,0.221s-0.776,0.355-1.124,0.623c-0.35,0.268-0.653,0.586-0.914,0.954
			c-0.262,0.368-0.459,0.767-0.594,1.195v6.407h-1.365V4.198h1.245v2.37c0.214-0.375,0.479-0.72,0.794-1.035
			c0.314-0.314,0.666-0.585,1.055-0.813c0.388-0.228,0.799-0.401,1.234-0.522s0.887-0.181,1.356-0.181
			c0.589,0,1.081,0.107,1.476,0.321c0.396,0.214,0.714,0.516,0.955,0.904c0.24,0.389,0.414,0.864,0.521,1.426
			c0.107,0.562,0.161,1.185,0.161,1.868V14.662z"/>
		<path fill="#542437" d="M62.707,14.863c-0.536,0-1.025-0.084-1.467-0.25c-0.441-0.168-0.82-0.398-1.135-0.693
			s-0.56-0.637-0.733-1.025c-0.175-0.388-0.261-0.796-0.261-1.225c0-0.482,0.107-0.921,0.321-1.316
			c0.214-0.395,0.515-0.733,0.903-1.014s0.854-0.499,1.396-0.653c0.542-0.154,1.141-0.231,1.797-0.231
			c0.523,0,1.059,0.047,1.607,0.141s1.037,0.228,1.467,0.401V8.055c0-0.924-0.265-1.657-0.794-2.199
			c-0.528-0.542-1.242-0.813-2.14-0.813c-0.562,0-1.121,0.107-1.677,0.321s-1.122,0.522-1.697,0.924l-0.481-0.904
			c0.683-0.455,1.346-0.796,1.988-1.024c0.643-0.228,1.313-0.341,2.008-0.341c1.272,0,2.283,0.368,3.033,1.104
			c0.75,0.737,1.125,1.754,1.125,3.053v4.72c0,0.375,0.161,0.562,0.482,0.562v1.205c-0.107,0.014-0.208,0.023-0.301,0.031
			c-0.094,0.006-0.175,0.01-0.242,0.01c-0.268,0-0.512-0.08-0.732-0.24c-0.221-0.162-0.346-0.402-0.371-0.725l-0.041-0.823
			c-0.455,0.616-1.055,1.094-1.797,1.436C64.223,14.693,63.47,14.863,62.707,14.863z M63.048,13.818
			c0.603,0,1.202-0.129,1.798-0.391s1.068-0.619,1.416-1.075c0.094-0.12,0.174-0.251,0.241-0.392s0.101-0.271,0.101-0.392V9.862
			c-0.455-0.174-0.932-0.308-1.426-0.401C64.682,9.367,64.199,9.32,63.73,9.32c-0.977,0-1.771,0.198-2.38,0.592
			c-0.609,0.395-0.914,0.941-0.914,1.637c0,0.281,0.054,0.557,0.161,0.824s0.271,0.509,0.492,0.722
			c0.221,0.215,0.492,0.389,0.813,0.523C62.225,13.752,62.605,13.818,63.048,13.818z"/>
		<path fill="#542437" d="M71.002,0h1.365v12.293c0,0.389,0.107,0.692,0.322,0.914c0.213,0.221,0.515,0.33,0.903,0.33
			c0.147,0,0.321-0.02,0.522-0.059c0.201-0.041,0.389-0.094,0.563-0.162l0.24,1.105c-0.254,0.107-0.565,0.193-0.934,0.262
			c-0.368,0.066-0.687,0.1-0.954,0.1c-0.63,0-1.124-0.178-1.486-0.531c-0.361-0.355-0.542-0.855-0.542-1.498V0z"/>
	</g>
</g>
<g>
	<path fill="#542437" d="M20.22,10.055c0,0.264-0.049,0.511-0.145,0.742s-0.227,0.431-0.395,0.6
		c-0.17,0.169-0.367,0.303-0.596,0.401c-0.227,0.099-0.471,0.149-0.736,0.149c-0.256,0-0.5-0.051-0.73-0.149
		s-0.434-0.232-0.605-0.401c-0.172-0.168-0.307-0.369-0.406-0.6s-0.148-0.478-0.148-0.742c0-0.257,0.049-0.499,0.148-0.726
		c0.1-0.227,0.234-0.425,0.406-0.594c0.172-0.169,0.375-0.303,0.605-0.402c0.23-0.099,0.475-0.148,0.73-0.148
		c0.266,0,0.51,0.049,0.736,0.148c0.229,0.099,0.426,0.233,0.596,0.402c0.168,0.168,0.299,0.367,0.395,0.594
		C20.171,9.557,20.22,9.798,20.22,10.055z"/>
</g>
<g>
	<path fill="#542437" d="M7.192,10.055c0,0.264-0.047,0.511-0.143,0.742c-0.094,0.231-0.227,0.431-0.395,0.6
		c-0.17,0.169-0.367,0.303-0.594,0.401c-0.229,0.099-0.475,0.149-0.738,0.149c-0.258,0-0.5-0.051-0.732-0.149
		c-0.23-0.099-0.432-0.232-0.604-0.401c-0.174-0.168-0.309-0.369-0.408-0.6c-0.098-0.231-0.148-0.478-0.148-0.742
		c0-0.257,0.051-0.499,0.148-0.726c0.1-0.227,0.234-0.425,0.408-0.594C4.159,8.566,4.36,8.432,4.591,8.333
		c0.232-0.099,0.475-0.148,0.732-0.148c0.264,0,0.51,0.049,0.738,0.148c0.227,0.099,0.424,0.233,0.594,0.402
		C6.823,8.904,6.956,9.102,7.05,9.329C7.146,9.557,7.192,9.798,7.192,10.055z"/>
</g>
<g>
	<path fill="#542437" d="M11.472,23.939c-4.863,0-9.127-2.244-10.611-5.584l-0.102-0.234h1.309l0.057,0.121
		c1.387,2.873,5.143,4.807,9.348,4.807s7.963-1.934,9.35-4.807l0.055-0.121h0.971h0.34l-0.104,0.234
		C20.599,21.695,16.337,23.939,11.472,23.939z"/>
</g>
</svg>
