<?xml version="1.0" encoding="utf-8"?>
<!-- Generator: Adobe Illustrator 16.0.0, SVG Export Plug-In . SVG Version: 6.00 Build 0)  -->
<!DOCTYPE svg PUBLIC "-//W3C//DTD SVG 1.1//EN" "http://www.w3.org/Graphics/SVG/1.1/DTD/svg11.dtd">
<svg version="1.1" id="Layer_1" xmlns="http://www.w3.org/2000/svg" xmlns:xlink="http://www.w3.org/1999/xlink" x="0px" y="0px"
	 width="106px" height="38px" viewBox="0 0 106 38" enable-background="new 0 0 106 38" xml:space="preserve">
<g>
	<g>
		<g>
			<path fill="#F1F2F2" d="M16.944,38C10.46,38,4.777,35.068,2.8,30.709l-0.135-0.305h1.744l0.075,0.156
				c1.848,3.752,6.855,6.275,12.46,6.275s10.612-2.523,12.462-6.275l0.073-0.156h1.293h0.453l-0.139,0.305
				C29.112,35.068,23.428,38,16.944,38z"/>
		</g>
		<g>
			<g>
				<path fill="#F1F2F2" d="M7.417,21.76c-1.021,0-1.982-0.211-2.883-0.633c-0.9-0.422-1.687-0.988-2.357-1.706
					c-0.671-0.715-1.202-1.553-1.591-2.514C0.195,15.947,0,14.938,0,13.879c0-1.078,0.195-2.092,0.585-3.043
					c0.39-0.951,0.925-1.789,1.606-2.514c0.68-0.725,1.471-1.298,2.372-1.72C5.465,6.18,6.416,5.969,7.417,5.969
					S9.369,6.18,10.27,6.601c0.9,0.422,1.686,0.995,2.357,1.72c0.67,0.726,1.206,1.563,1.606,2.514
					c0.4,0.951,0.601,1.965,0.601,3.043c0,1.059-0.195,2.068-0.585,3.029c-0.39,0.961-0.921,1.799-1.591,2.514
					c-0.671,0.717-1.457,1.284-2.357,1.706C9.398,21.549,8.438,21.76,7.417,21.76z M0.6,13.938c0,0.981,0.18,1.912,0.541,2.794
					s0.845,1.652,1.457,2.308c0.61,0.657,1.326,1.175,2.147,1.558c0.82,0.383,1.701,0.574,2.643,0.574
					c0.92,0,1.796-0.197,2.627-0.59c0.831-0.391,1.562-0.919,2.192-1.586c0.631-0.666,1.126-1.441,1.486-2.323
					c0.361-0.882,0.541-1.823,0.541-2.823c0-0.98-0.18-1.912-0.541-2.793c-0.36-0.882-0.851-1.657-1.471-2.323
					c-0.621-0.666-1.346-1.195-2.177-1.587C9.213,6.753,8.337,6.557,7.417,6.557S5.62,6.753,4.789,7.146
					C3.958,7.538,3.232,8.071,2.612,8.748C1.991,9.424,1.501,10.208,1.141,11.1C0.78,11.993,0.6,12.938,0.6,13.938z"/>
				<path fill="#F1F2F2" d="M25.705,21.76c-0.702,0-1.362-0.104-1.982-0.311c-0.621-0.203-1.202-0.479-1.742-0.822
					c-0.541-0.342-1.031-0.745-1.471-1.206c-0.44-0.46-0.831-0.945-1.171-1.455v9.762h-0.6V6.205h0.6v3.234
					c0.32-0.51,0.711-0.975,1.171-1.396c0.46-0.422,0.956-0.79,1.486-1.103s1.086-0.554,1.667-0.721
					c0.58-0.166,1.171-0.25,1.771-0.25c1.101,0,2.112,0.23,3.033,0.691c0.921,0.461,1.711,1.063,2.373,1.809
					c0.661,0.745,1.176,1.587,1.546,2.528c0.37,0.941,0.556,1.902,0.556,2.882c0,1.04-0.176,2.034-0.526,2.985
					c-0.351,0.951-0.841,1.789-1.471,2.514c-0.63,0.726-1.392,1.304-2.283,1.736C27.771,21.545,26.785,21.76,25.705,21.76z
					 M25.705,21.172c1.021,0,1.936-0.211,2.747-0.633s1.506-0.974,2.087-1.662c0.581-0.686,1.026-1.465,1.337-2.337
					c0.31-0.872,0.465-1.759,0.465-2.661c0-0.96-0.181-1.882-0.541-2.764c-0.36-0.882-0.852-1.661-1.472-2.337
					c-0.621-0.676-1.351-1.215-2.192-1.618c-0.84-0.401-1.741-0.603-2.702-0.603c-0.601,0-1.251,0.128-1.952,0.382
					c-0.701,0.255-1.351,0.599-1.952,1.029C20.93,8.4,20.424,8.9,20.014,9.468c-0.411,0.569-0.636,1.157-0.676,1.764v5.499
					c0.28,0.627,0.641,1.21,1.081,1.75c0.44,0.54,0.936,1.005,1.486,1.396c0.551,0.392,1.146,0.705,1.787,0.941
					S25.003,21.172,25.705,21.172z"/>
				<path fill="#F1F2F2" d="M42.791,20.76c-0.301,0.197-0.576,0.344-0.826,0.441s-0.545,0.191-0.885,0.279
					c-0.341,0.088-0.721,0.133-1.142,0.133c-0.721,0-1.351-0.217-1.892-0.646c-0.541-0.432-0.811-1-0.811-1.707V6.792h-2.252V6.205
					h2.252V0.882h0.601v5.323h3.754v0.587h-3.754V19.26c0,0.568,0.22,1.005,0.661,1.308c0.44,0.305,0.92,0.455,1.441,0.455
					c0.34,0,0.661-0.033,0.961-0.102c0.3-0.068,0.565-0.148,0.796-0.236c0.23-0.088,0.41-0.17,0.541-0.25
					c0.13-0.078,0.205-0.127,0.225-0.146L42.791,20.76z"/>
				<path fill="#F1F2F2" d="M45.493,2.264V0h0.601v2.264H45.493z M45.493,21.465V6.205h0.601v15.26H45.493z"/>
				<path fill="#F1F2F2" d="M57.414,21.76c-1.021,0-1.982-0.211-2.884-0.633c-0.9-0.422-1.686-0.988-2.356-1.706
					c-0.671-0.715-1.201-1.553-1.591-2.514c-0.39-0.96-0.585-1.97-0.585-3.029c0-1.078,0.195-2.092,0.585-3.043
					c0.39-0.951,0.926-1.789,1.606-2.514c0.681-0.725,1.471-1.298,2.374-1.72c0.899-0.421,1.851-0.632,2.852-0.632
					s1.951,0.211,2.853,0.632c0.901,0.422,1.687,0.995,2.357,1.72c0.671,0.726,1.206,1.563,1.606,2.514
					c0.399,0.951,0.602,1.965,0.602,3.043c0,1.059-0.196,2.068-0.587,3.029c-0.39,0.961-0.921,1.799-1.592,2.514
					c-0.67,0.717-1.456,1.284-2.356,1.706C59.396,21.549,58.435,21.76,57.414,21.76z M50.597,13.938
					c0,0.981,0.181,1.912,0.541,2.794c0.361,0.882,0.846,1.652,1.457,2.308c0.61,0.657,1.326,1.175,2.148,1.558
					c0.82,0.383,1.7,0.574,2.642,0.574c0.92,0,1.797-0.197,2.628-0.59c0.83-0.391,1.561-0.919,2.192-1.586
					c0.63-0.666,1.126-1.441,1.485-2.323c0.361-0.882,0.541-1.823,0.541-2.823c0-0.98-0.18-1.912-0.541-2.793
					c-0.359-0.882-0.85-1.657-1.471-2.323c-0.621-0.666-1.346-1.195-2.177-1.587c-0.831-0.392-1.707-0.588-2.628-0.588
					s-1.796,0.196-2.627,0.588c-0.832,0.393-1.558,0.926-2.178,1.602c-0.621,0.676-1.111,1.461-1.472,2.353
					C50.778,11.993,50.597,12.938,50.597,13.938z"/>
				<path fill="#F1F2F2" d="M80.837,21.465h-0.601v-8.497c0-2.235-0.316-3.862-0.945-4.881c-0.632-1.019-1.648-1.529-3.048-1.529
					c-0.763,0-1.508,0.132-2.238,0.397s-1.406,0.632-2.026,1.103c-0.621,0.471-1.162,1.029-1.622,1.676s-0.801,1.343-1.021,2.088
					v9.644h-0.601V6.205h0.601v3.94c0.319-0.608,0.73-1.171,1.23-1.691c0.501-0.52,1.051-0.961,1.652-1.324
					c0.6-0.362,1.24-0.647,1.922-0.853c0.68-0.206,1.371-0.309,2.071-0.309c1.602,0,2.772,0.563,3.514,1.691
					c0.74,1.127,1.111,2.896,1.111,5.308V21.465z"/>
				<path fill="#F1F2F2" d="M89.334,21.76c-0.7,0-1.361-0.123-1.98-0.367c-0.622-0.244-1.158-0.578-1.607-1.002
					c-0.45-0.42-0.807-0.915-1.066-1.483s-0.39-1.177-0.39-1.824c0-0.646,0.154-1.234,0.465-1.764s0.751-0.985,1.321-1.367
					c0.571-0.382,1.252-0.681,2.041-0.897c0.792-0.215,1.657-0.324,2.599-0.324c0.901,0,1.812,0.074,2.733,0.221
					c0.919,0.147,1.751,0.358,2.491,0.632V11.85c0-0.784-0.12-1.504-0.36-2.162c-0.24-0.656-0.585-1.215-1.036-1.676
					c-0.45-0.46-0.99-0.818-1.621-1.073c-0.632-0.254-1.326-0.382-2.087-0.382c-0.762,0-1.572,0.162-2.433,0.485
					c-0.86,0.324-1.731,0.789-2.612,1.396l-0.36-0.47c2.002-1.333,3.803-2,5.405-2c0.86,0,1.646,0.137,2.356,0.412
					c0.711,0.274,1.313,0.667,1.803,1.176c0.489,0.51,0.87,1.127,1.141,1.853s0.405,1.539,0.405,2.44v8.439
					c0,0.393,0.161,0.588,0.48,0.588v0.588c-0.22,0-0.36-0.018-0.42-0.059c-0.201-0.078-0.361-0.221-0.48-0.426
					C96,20.773,95.94,20.545,95.94,20.289v-1.412c-0.721,0.923-1.662,1.632-2.822,2.132C91.957,21.51,90.696,21.76,89.334,21.76z
					 M89.334,21.172c1.341,0,2.568-0.246,3.679-0.736c1.11-0.489,1.938-1.147,2.478-1.97c0.301-0.411,0.45-0.813,0.45-1.205v-3.029
					c-1.603-0.607-3.344-0.912-5.225-0.912c-0.882,0-1.678,0.088-2.388,0.265c-0.711,0.177-1.321,0.432-1.831,0.765
					c-0.511,0.333-0.906,0.73-1.187,1.191c-0.28,0.461-0.421,0.975-0.421,1.543c0,0.569,0.115,1.103,0.346,1.604
					c0.229,0.499,0.546,0.936,0.945,1.309c0.4,0.374,0.871,0.661,1.412,0.868C88.133,21.068,88.714,21.172,89.334,21.172z"/>
				<path fill="#F1F2F2" d="M101.556,0h0.601v19.201c0,0.569,0.18,1.02,0.54,1.354c0.361,0.332,0.841,0.5,1.442,0.5
					c0.219,0,0.484-0.025,0.796-0.074c0.309-0.049,0.594-0.111,0.855-0.191L106,21.26c-0.281,0.098-0.626,0.182-1.036,0.25
					c-0.411,0.068-0.756,0.104-1.036,0.104c-0.701,0-1.271-0.221-1.712-0.662s-0.66-1.025-0.66-1.75V0z"/>
			</g>
			<g>
				<path fill="#F1F2F2" d="M27.326,14.289c0,0.344-0.063,0.667-0.19,0.969c-0.127,0.301-0.303,0.562-0.528,0.782
					c-0.225,0.22-0.488,0.395-0.792,0.524c-0.303,0.129-0.63,0.194-0.982,0.194c-0.342,0-0.667-0.064-0.976-0.194
					c-0.307-0.129-0.577-0.304-0.805-0.524c-0.231-0.22-0.411-0.481-0.544-0.782c-0.131-0.302-0.197-0.625-0.197-0.969
					c0-0.335,0.066-0.651,0.197-0.948c0.133-0.297,0.313-0.555,0.544-0.775c0.229-0.22,0.498-0.395,0.805-0.524
					c0.309-0.129,0.633-0.194,0.976-0.194c0.352,0,0.679,0.064,0.982,0.194s0.567,0.304,0.792,0.524
					c0.225,0.22,0.401,0.479,0.528,0.775C27.263,13.638,27.326,13.954,27.326,14.289z"/>
			</g>
			<g>
				<path fill="#F1F2F2" d="M9.963,14.289c0,0.344-0.063,0.667-0.19,0.969c-0.127,0.301-0.303,0.562-0.528,0.782
					c-0.225,0.22-0.489,0.395-0.792,0.524c-0.303,0.129-0.63,0.194-0.982,0.194c-0.342,0-0.667-0.064-0.976-0.194
					c-0.307-0.129-0.577-0.304-0.805-0.524c-0.231-0.22-0.411-0.481-0.543-0.782c-0.131-0.302-0.198-0.625-0.198-0.969
					c0-0.335,0.066-0.651,0.198-0.948c0.133-0.297,0.313-0.555,0.543-0.775c0.229-0.22,0.499-0.395,0.805-0.524
					c0.309-0.129,0.633-0.194,0.976-0.194c0.352,0,0.679,0.064,0.982,0.194s0.567,0.304,0.792,0.524
					c0.225,0.22,0.4,0.479,0.528,0.775C9.899,13.638,9.963,13.954,9.963,14.289z"/>
			</g>
		</g>
	</g>
</g>
<g>
	<g>
		<path fill="#F1F2F2" d="M15.762-12c-6.298,0-11.818-2.908-13.739-7.232l-0.132-0.304h1.694l0.073,0.157
			c1.795,3.721,6.659,6.224,12.104,6.224c5.445,0,10.31-2.503,12.106-6.224l0.071-0.157h1.256h0.44l-0.135,0.304
			C27.582-14.908,22.061-12,15.762-12z"/>
	</g>
	<g>
		<text transform="matrix(1 0 0 1 -2.0684 -28.4014)" fill="#F1F2F2" font-family="'Raleway-Thin'" font-size="30">optional</text>
		<g>
			<path fill="#F1F2F2" d="M25.848-35.521c0,0.342-0.062,0.661-0.186,0.961c-0.123,0.299-0.294,0.558-0.513,0.776
				s-0.475,0.392-0.77,0.52c-0.294,0.128-0.612,0.192-0.954,0.192c-0.332,0-0.647-0.064-0.947-0.192
				c-0.298-0.128-0.561-0.301-0.782-0.52c-0.225-0.219-0.399-0.478-0.528-0.776c-0.127-0.3-0.191-0.619-0.191-0.961
				c0-0.333,0.064-0.646,0.191-0.94c0.129-0.295,0.304-0.551,0.528-0.77c0.222-0.218,0.484-0.392,0.782-0.52
				c0.3-0.129,0.615-0.192,0.947-0.192c0.342,0,0.66,0.063,0.954,0.192c0.295,0.128,0.551,0.302,0.77,0.52
				c0.219,0.219,0.39,0.475,0.513,0.77C25.786-36.167,25.848-35.854,25.848-35.521z"/>
		</g>
		<g>
			<path fill="#F1F2F2" d="M8.98-35.521c0,0.342-0.062,0.661-0.186,0.961c-0.123,0.299-0.294,0.558-0.513,0.776
				c-0.218,0.219-0.475,0.392-0.769,0.52c-0.295,0.128-0.612,0.192-0.955,0.192c-0.332,0-0.647-0.064-0.947-0.192
				c-0.298-0.128-0.561-0.301-0.782-0.52c-0.225-0.219-0.399-0.478-0.528-0.776c-0.127-0.3-0.191-0.619-0.191-0.961
				c0-0.333,0.064-0.646,0.191-0.94c0.129-0.295,0.304-0.551,0.528-0.77c0.222-0.218,0.484-0.392,0.782-0.52
				c0.3-0.129,0.615-0.192,0.947-0.192c0.343,0,0.66,0.063,0.955,0.192c0.294,0.128,0.551,0.302,0.769,0.52
				c0.219,0.219,0.39,0.475,0.513,0.77C8.919-36.167,8.98-35.854,8.98-35.521z"/>
		</g>
	</g>
</g>
</svg>
