<?xml version="1.0" encoding="utf-8"?>
<!-- Generator: Adobe Illustrator 16.0.0, SVG Export Plug-In . SVG Version: 6.00 Build 0)  -->
<!DOCTYPE svg PUBLIC "-//W3C//DTD SVG 1.1//EN" "http://www.w3.org/Graphics/SVG/1.1/DTD/svg11.dtd">
<svg version="1.1" id="Layer_1" xmlns="http://www.w3.org/2000/svg" xmlns:xlink="http://www.w3.org/1999/xlink" x="0px" y="0px"
	 width="39.627px" height="39.48px" viewBox="0 0 39.627 39.48" enable-background="new 0 0 39.627 39.48" xml:space="preserve">
<g>
	<path fill="#E6E7E8" d="M26.653,14.002c0,0.603-0.214,0.883-0.644,0.883h-0.475c-0.387,0-0.601,0.241-0.601,0.723l-0.085,0.843
		c-0.345,0.16-0.646,0.24-0.861,0.24l-0.816-0.24l0.043-2.368c0-0.602,0.258-0.923,0.773-0.923h0.387
		c0.43,0,0.646-0.241,0.646-0.722c0-0.602-0.302-0.882-0.902-0.882c-0.603-0.042-0.903-0.323-0.903-0.924V7.463
		c0-0.601,0.258-0.923,0.773-0.923h0.387c0.43,0,0.646-0.24,0.646-0.722c0-0.602-0.302-0.882-0.902-0.882
		c-0.603-0.041-0.903-0.321-0.903-0.923V0.281C23.731,0.121,23.988,0,24.118,0c0.128,0,0.387,0.08,0.731,0.281l0.085,2.207
		c0,0.521,0.302,0.763,0.859,0.763c0.561,0,0.859,0.28,0.859,0.801v3.371c0,0.602-0.257,0.882-0.773,0.882h-0.345
		c-0.472,0-0.686,0.242-0.686,0.724c0,0.561,0.299,0.842,0.901,0.883c0.604,0.039,0.902,0.359,0.902,0.962V14.002L26.653,14.002z
		 M19.646,12.678c0,0.522-0.301,0.763-0.902,0.763c-0.56,0-0.859,0.28-0.859,0.802l-0.043,2.208c-0.389,0.2-0.647,0.281-0.732,0.281
		c-0.343-0.121-0.644-0.201-0.945-0.281v-3.731c0-0.602,0.301-0.923,0.904-0.923c0.644,0,0.945-0.281,0.945-0.883
		c0-0.481-0.258-0.722-0.731-0.722h-0.43c-0.472-0.121-0.688-0.241-0.688-0.923V6.099c0-0.603,0.301-0.922,0.904-0.922
		c0.644,0,0.945-0.281,0.945-0.882c0-0.482-0.258-0.723-0.731-0.723h-0.43c-0.472-0.12-0.688-0.24-0.688-0.923l-0.042-2.367
		C16.637,0.08,16.937,0,16.981,0c0.128,0,0.387,0.08,0.86,0.281l0.043,0.843c0,0.482,0.256,0.723,0.73,0.723h0.43
		c0.387,0,0.601,0.281,0.601,0.842v3.17c0,0.601-0.301,0.923-0.902,0.962c-0.603,0.041-0.902,0.321-0.902,0.883
		c0,0.481,0.214,0.722,0.687,0.722h0.429c0.387,0.041,0.688,0.041,0.688,0.883V12.678L19.646,12.678z M39.337,25.638
		c0,2.288-1.075,3.893-3.225,4.855c-1.462,0.682-3.354,1.002-5.632,1.002c-1.377,0-1.806,0-2.365-0.12l1.117-1.966l1.248,0.04
		c1.677,0,3.01-0.199,4.085-0.602c1.676-0.641,2.492-1.686,2.492-3.17c0-1.404-0.387-2.407-1.16-2.929
		c-0.559-0.361-1.376-0.561-2.536-0.561l1.204-2.206c1.332,0,2.321,0.281,3.052,0.842C38.777,21.746,39.337,23.351,39.337,25.638
		L39.337,25.638L39.337,25.638z M12.466,14.002c0,0.603-0.216,0.883-0.645,0.883h-0.472c-0.388,0-0.603,0.241-0.603,0.723
		l-0.085,0.843c-0.345,0.16-0.646,0.24-0.86,0.24l-0.817-0.24l0.043-2.368c0-0.602,0.257-0.923,0.774-0.923h0.387
		c0.43,0,0.644-0.241,0.644-0.722c0-0.602-0.3-0.882-0.902-0.882c-0.601-0.042-0.902-0.323-0.902-0.924V7.463
		c0-0.601,0.257-0.923,0.774-0.923h0.387c0.43,0,0.644-0.24,0.644-0.722c0-0.602-0.3-0.882-0.902-0.882
		C9.329,4.896,9.027,4.615,9.027,4.013V0.281C9.543,0.121,9.801,0,9.93,0c0.129,0,0.387,0.08,0.731,0.281l0.085,2.207
		c0,0.521,0.301,0.763,0.861,0.763s0.859,0.28,0.859,0.801v3.371c0,0.602-0.258,0.882-0.773,0.882h-0.344
		c-0.473,0-0.688,0.242-0.688,0.724c0,0.561,0.3,0.842,0.903,0.883c0.603,0.039,0.902,0.359,0.902,0.962V14.002L12.466,14.002z
		 M33.575,18.255c-2.665,5.498-5.073,9.791-7.221,12.839c-1.505,2.128-2.839,3.652-4.044,4.495
		c-0.558,0.359-1.073,0.682-1.633,1.043h-6.492c-0.644-0.321-1.333-0.642-1.978-1.004c-1.461-0.842-3.009-2.325-4.644-4.453
		C5.288,28.207,2.75,23.913,0,18.255H33.575L33.575,18.255z M36.972,39.48H0.257v-1.365h36.714V39.48L36.972,39.48z M19.344,33.542"
		/>
</g>
</svg>
