<?xml version="1.0" encoding="utf-8"?>
<!-- Generator: Adobe Illustrator 16.0.0, SVG Export Plug-In . SVG Version: 6.00 Build 0)  -->
<!DOCTYPE svg PUBLIC "-//W3C//DTD SVG 1.1//EN" "http://www.w3.org/Graphics/SVG/1.1/DTD/svg11.dtd">
<svg version="1.1" id="Layer_1" xmlns="http://www.w3.org/2000/svg" xmlns:xlink="http://www.w3.org/1999/xlink" x="0px" y="0px"
	 width="266px" height="85px" viewBox="0 0 266 85" enable-background="new 0 0 266 85" xml:space="preserve">
<g>
	<g>
		<path fill="#542437" d="M261.159,38.627c-0.582-0.146-1.188-0.23-1.813-0.23h-0.93v2.742v0.402h-9.283v-0.402v-2.742h-2.742
			h-22.523h-2.742v2.742v0.402h-9.283v-0.402v-2.742h-0.928c-0.629,0-1.234,0.084-1.814,0.23c-3.223,0.811-5.613,3.721-5.613,7.197
			v8.51h6.73c1.025,0,1.857,0.832,1.857,1.855c0,1.027-0.832,1.857-1.857,1.857h-6.73v4.643h6.73c1.025,0,1.857,0.832,1.857,1.855
			c0,1.027-0.832,1.859-1.857,1.859h-6.73v4.641h6.73c1.025,0,1.857,0.832,1.857,1.857s-0.832,1.857-1.857,1.857h-6.73v2.785
			c0,4.102,3.324,7.426,7.428,7.426h48.432c4.102,0,7.428-3.324,7.428-7.426V45.824C266.774,42.348,264.384,39.438,261.159,38.627z
			 M238.101,66.852v7.008h-5.941v-7.008c-2.688-1.152-4.568-3.822-4.568-6.932c0-4.166,3.373-7.539,7.539-7.539
			c4.164,0,7.541,3.373,7.541,7.539C242.671,63.029,240.788,65.699,238.101,66.852z"/>
		<path fill="#542437" d="M221.126,29.336c0.008-3.855,3.127-6.977,6.982-6.982h14.045c3.852,0.006,6.973,3.127,6.98,6.982v9.061
			h9.283v-9.061c-0.002-8.986-7.279-16.264-16.264-16.266h-14.045c-8.986,0.002-16.264,7.279-16.266,16.266v9.061h9.283V29.336z"/>
	</g>
	<g opacity="0.6">
		<path fill="#542437" d="M12.625,25.764c-2.828-2.482-3.119-6.783-0.648-9.617l8.877-10.158l-6.83-5.969L5.146,10.178
			C-0.625,16.787,0.053,26.816,6.66,32.59l6.666,5.824l5.963-6.826L12.625,25.764z"/>
		<path fill="#542437" d="M63.555,39.707c-0.57-0.141-1.162-0.227-1.771-0.227h-0.564h-0.344h-9.066h-2.678h-4.145H27.131h-2.674
			v2.68v0.395h-9.068V42.16v-2.68h-0.906c-0.613,0-1.205,0.086-1.773,0.227C9.563,40.5,7.227,43.34,7.227,46.736v8.313h6.572
			c1.004,0,1.816,0.811,1.816,1.813s-0.813,1.813-1.816,1.813H7.227v4.533h6.572c1.004,0,1.816,0.813,1.816,1.814
			s-0.813,1.813-1.816,1.813H7.227v4.535h6.572c1.004,0,1.816,0.813,1.816,1.813c0,1.002-0.813,1.814-1.816,1.814H7.227v2.721
			c0,4.006,3.248,7.254,7.256,7.254h47.301c4.006,0,7.254-3.248,7.254-7.254v-30.98C69.037,43.34,66.703,40.5,63.555,39.707z
			 M41.131,65.91v7.076h-6V65.91c-2.715-1.166-4.615-3.861-4.615-7.002c0-4.205,3.408-7.615,7.613-7.615
			c4.207,0,7.617,3.41,7.617,7.615C45.746,62.049,43.846,64.744,41.131,65.91z"/>
	</g>
	<g opacity="0.8">
		<path fill="#542437" d="M121.564,28.734c0.01-3.764,3.057-6.813,6.816-6.816h13.492v-9.07h-13.492
			c-8.773,0.002-15.881,7.111-15.881,15.887v8.85h9.064V28.734z"/>
		<path fill="#542437" d="M160.555,39.707c-0.57-0.141-1.162-0.227-1.771-0.227h-0.564h-0.344h-9.066h-2.68h-4.143h-17.857h-2.674
			v2.68v0.395h-9.068V42.16v-2.68h-0.906c-0.613,0-1.205,0.086-1.773,0.227c-3.146,0.793-5.482,3.633-5.482,7.029v8.313h6.572
			c1.004,0,1.816,0.811,1.816,1.813s-0.813,1.813-1.816,1.813h-6.572v4.533h6.572c1.004,0,1.816,0.813,1.816,1.814
			s-0.813,1.813-1.816,1.813h-6.572v4.535h6.572c1.004,0,1.816,0.813,1.816,1.813c0,1.002-0.813,1.814-1.816,1.814h-6.572v2.721
			c0,4.006,3.248,7.254,7.256,7.254h47.303c4.006,0,7.254-3.248,7.254-7.254v-30.98C166.037,43.34,163.703,40.5,160.555,39.707z
			 M138.129,65.91v7.076h-6V65.91c-2.713-1.166-4.615-3.861-4.615-7.002c0-4.205,3.408-7.615,7.615-7.615s7.617,3.41,7.617,7.615
			C142.746,62.049,140.846,64.744,138.129,65.91z"/>
	</g>
</g>
</svg>
