<?xml version="1.0" encoding="utf-8"?>
<!-- Generator: Adobe Illustrator 16.0.0, SVG Export Plug-In . SVG Version: 6.00 Build 0)  -->
<!DOCTYPE svg PUBLIC "-//W3C//DTD SVG 1.1//EN" "http://www.w3.org/Graphics/SVG/1.1/DTD/svg11.dtd">
<svg version="1.1" id="Layer_1" xmlns="http://www.w3.org/2000/svg" xmlns:xlink="http://www.w3.org/1999/xlink" x="0px" y="0px"
	 width="33px" height="28.561px" viewBox="0 0 33 28.561" enable-background="new 0 0 33 28.561" xml:space="preserve">
<g>
	<g>
		<path fill="#542437" d="M11.491,6.291c0.004-1.49,1.211-2.698,2.7-2.699h5.342V0h-5.342c-3.475,0.001-6.289,2.815-6.289,6.291
			v3.505h3.589V6.291z"/>
		<path fill="#542437" d="M26.932,10.636c-0.227-0.056-0.461-0.09-0.701-0.09h-0.225H25.87h-3.59h-1.062h-1.641h-7.07h-1.06v1.062
			v0.156H7.857v-0.156v-1.062H7.498c-0.242,0-0.477,0.034-0.702,0.09C5.55,10.95,4.625,12.075,4.625,13.42v3.292h2.604
			c0.396,0,0.719,0.32,0.719,0.718c0,0.396-0.322,0.718-0.719,0.718H4.625v1.795h2.604c0.396,0,0.719,0.321,0.719,0.719
			c0,0.396-0.322,0.718-0.719,0.718H4.625v1.796h2.604c0.396,0,0.719,0.321,0.719,0.718S7.625,24.61,7.229,24.61H4.625v1.078
			c0,1.586,1.286,2.872,2.873,2.872H26.23c1.586,0,2.872-1.286,2.872-2.872V13.42C29.103,12.075,28.178,10.95,26.932,10.636z
			 M18.051,21.013v2.802h-2.375v-2.802c-1.075-0.462-1.828-1.529-1.828-2.772c0-1.665,1.35-3.016,3.016-3.016
			s3.016,1.351,3.016,3.016C19.879,19.483,19.127,20.551,18.051,21.013z"/>
	</g>
	<path fill="#542437" d="M11.491,6.291c0.004-1.49,1.211-2.698,2.7-2.699h5.342V0h-5.342c-3.475,0.001-6.289,2.815-6.289,6.291
		v3.505h3.589V6.291z M19.578,10.546h-7.07h-1.06v1.062v0.156H7.857v-0.156v-1.062H7.498c-0.242,0-0.477,0.034-0.702,0.09
		c-1.104,0.278-1.951,1.192-2.132,2.332c1.035,0.079,2.014,0.125,2.909,0.125c5.2,0,8.517-1.512,12.225-2.547H19.578z"/>
</g>
</svg>
