<?xml version="1.0" encoding="utf-8"?>
<!-- Generator: Adobe Illustrator 16.0.0, SVG Export Plug-In . SVG Version: 6.00 Build 0)  -->
<!DOCTYPE svg PUBLIC "-//W3C//DTD SVG 1.1//EN" "http://www.w3.org/Graphics/SVG/1.1/DTD/svg11.dtd">
<svg version="1.1" id="Layer_1" xmlns="http://www.w3.org/2000/svg" xmlns:xlink="http://www.w3.org/1999/xlink" x="0px" y="0px"
	 width="24.167px" height="20.915px" viewBox="0 -6.269 24.167 20.915" enable-background="new 0 -6.269 24.167 20.915"
	 xml:space="preserve">
<g>
	<g>
		<path fill="#542437" d="M8.149-1.662c0.003-1.091,0.887-1.976,1.977-1.977h3.912v-2.63h-3.912c-2.545,0-4.606,2.061-4.606,4.607
			v2.567h2.629V-1.662z"/>
		<path fill="#542437" d="M19.457,1.521c-0.166-0.041-0.338-0.066-0.514-0.066h-0.164h-0.1h-2.63h-0.777h-1.202H8.893H8.117v0.777
			v0.114H5.488V2.232V1.455H5.225c-0.177,0-0.35,0.025-0.514,0.066c-0.913,0.23-1.59,1.054-1.59,2.039V5.97h1.907
			c0.29,0,0.527,0.234,0.527,0.525c0,0.291-0.236,0.526-0.527,0.526H3.121v1.314h1.907c0.29,0,0.527,0.235,0.527,0.527
			c0,0.29-0.236,0.526-0.527,0.526H3.121v1.314h1.907c0.29,0,0.527,0.236,0.527,0.526c0,0.291-0.237,0.524-0.527,0.524H3.121v0.789
			c0,1.162,0.942,2.104,2.104,2.104h13.718c1.161,0,2.103-0.941,2.103-2.104V3.559C21.048,2.575,20.369,1.75,19.457,1.521z
			 M12.953,9.12v2.052h-1.739V9.12C10.427,8.781,9.875,8,9.875,7.09c0-1.22,0.989-2.209,2.208-2.209c1.22,0,2.209,0.99,2.209,2.209
			C14.292,7.999,13.741,8.781,12.953,9.12z"/>
	</g>
	<path fill="#542437" d="M8.149-1.662c0.003-1.091,0.887-1.976,1.977-1.977h3.912v-2.63h-3.912c-2.545,0-4.606,2.061-4.606,4.607
		v2.567h2.629V-1.662z M14.072,1.455H8.894H8.118v0.777v0.114h-2.63V2.232V1.455H5.225c-0.177,0-0.35,0.025-0.514,0.066
		C3.902,1.724,3.282,2.394,3.149,3.228C3.908,3.286,4.625,3.32,5.28,3.32c3.808,0,6.237-1.107,8.952-1.865H14.072z"/>
</g>
</svg>
