<?xml version="1.0" encoding="utf-8"?>
<!-- Generator: Adobe Illustrator 16.0.0, SVG Export Plug-In . SVG Version: 6.00 Build 0)  -->
<!DOCTYPE svg PUBLIC "-//W3C//DTD SVG 1.1//EN" "http://www.w3.org/Graphics/SVG/1.1/DTD/svg11.dtd">
<svg version="1.1" id="Layer_1" xmlns="http://www.w3.org/2000/svg" xmlns:xlink="http://www.w3.org/1999/xlink" x="0px" y="0px"
	 width="344px" height="60px" viewBox="0 0 344 60" enable-background="new 0 0 344 60" xml:space="preserve">
<g>
	<path fill="#FFD093" d="M344,54.285c0,3.154-2.646,5.713-5.912,5.713H5.914C2.647,59.998,0,57.439,0,54.285V5.714
		C0,2.558,2.647,0,5.914,0h332.174C341.354,0,344,2.559,344,5.714V54.285z"/>
	<g>
		<g>
			<path fill="#1B3664" d="M29.84,42.166v-12.68h5.562c0.604,0,1.161,0.123,1.672,0.366c0.511,0.244,0.951,0.566,1.321,0.964
				c0.37,0.399,0.659,0.853,0.868,1.357c0.209,0.507,0.314,1.016,0.314,1.527c0,0.535-0.099,1.057-0.296,1.563
				c-0.197,0.506-0.474,0.955-0.831,1.35c-0.358,0.393-0.789,0.707-1.293,0.945c-0.505,0.238-1.06,0.357-1.663,0.357H32.39v4.25
				H29.84z M32.39,35.755h2.956c0.468,0,0.859-0.185,1.173-0.554s0.471-0.869,0.471-1.5c0-0.321-0.049-0.61-0.148-0.866
				c-0.099-0.257-0.228-0.474-0.388-0.651c-0.161-0.179-0.348-0.313-0.563-0.402c-0.216-0.088-0.434-0.133-0.656-0.133H32.39V35.755
				L32.39,35.755z"/>
			<path fill="#1B3664" d="M43.531,42.345c-0.468,0-0.905-0.074-1.313-0.224c-0.406-0.148-0.757-0.356-1.053-0.625
				c-0.295-0.269-0.526-0.58-0.693-0.938c-0.166-0.356-0.25-0.75-0.25-1.179c0-0.44,0.102-0.848,0.305-1.223
				c0.203-0.375,0.486-0.693,0.85-0.957c0.363-0.262,0.797-0.467,1.303-0.615c0.505-0.148,1.059-0.223,1.663-0.223
				c0.432,0,0.853,0.034,1.266,0.105c0.413,0.072,0.779,0.173,1.1,0.304v-0.532c0-0.619-0.182-1.097-0.545-1.43
				c-0.363-0.333-0.903-0.5-1.617-0.5c-0.518,0-1.023,0.09-1.515,0.268c-0.493,0.18-0.998,0.44-1.515,0.787l-0.758-1.52
				c1.244-0.797,2.587-1.195,4.028-1.195c1.392,0,2.473,0.329,3.242,0.99c0.77,0.661,1.155,1.616,1.155,2.866v2.911
				c0,0.25,0.049,0.429,0.148,0.535c0.098,0.106,0.271,0.166,0.518,0.179v2.036c-0.234,0.048-0.453,0.08-0.656,0.099
				c-0.203,0.019-0.379,0.026-0.526,0.026c-0.469-0.012-0.826-0.116-1.072-0.313c-0.247-0.196-0.4-0.461-0.462-0.795l-0.055-0.519
				c-0.431,0.549-0.955,0.965-1.57,1.25C44.892,42.201,44.233,42.345,43.531,42.345z M44.233,40.595
				c0.418,0,0.816-0.071,1.192-0.215c0.375-0.144,0.667-0.333,0.877-0.571c0.271-0.201,0.406-0.429,0.406-0.679v-1.071
				c-0.295-0.107-0.616-0.193-0.96-0.259c-0.345-0.065-0.678-0.099-0.998-0.099c-0.641,0-1.165,0.141-1.571,0.42
				c-0.406,0.279-0.609,0.634-0.609,1.063c0,0.405,0.16,0.741,0.48,1.01C43.371,40.461,43.765,40.595,44.233,40.595z"/>
			<path fill="#1B3664" d="M51.31,43.988c0.222,0.06,0.425,0.102,0.61,0.125s0.345,0.035,0.48,0.035c0.16,0,0.302-0.027,0.425-0.08
				c0.124-0.054,0.243-0.151,0.361-0.295c0.117-0.143,0.233-0.343,0.351-0.599c0.117-0.256,0.243-0.593,0.378-1.009l-3.843-9.357
				h2.55l2.642,7.286l2.328-7.286h2.329l-4.084,11.215c-0.258,0.715-0.671,1.266-1.238,1.651c-0.567,0.387-1.226,0.581-1.977,0.581
				c-0.432,0-0.869-0.064-1.313-0.196L51.31,43.988L51.31,43.988z"/>
			<path fill="#1B3664" d="M74.185,42.166h-2.476v-5.25c0-0.75-0.135-1.299-0.406-1.645c-0.271-0.345-0.646-0.518-1.127-0.518
				c-0.247,0-0.499,0.048-0.758,0.143c-0.258,0.096-0.501,0.229-0.729,0.402s-0.434,0.378-0.619,0.615
				c-0.185,0.238-0.32,0.5-0.406,0.785v5.465h-2.476v-9.356h2.236v1.731c0.357-0.596,0.875-1.06,1.552-1.394
				c0.677-0.333,1.441-0.5,2.291-0.5c0.604,0,1.096,0.107,1.478,0.321c0.382,0.215,0.678,0.494,0.887,0.84s0.354,0.738,0.435,1.18
				c0.081,0.44,0.12,0.887,0.12,1.338v5.842H74.185z"/>
			<path fill="#1B3664" d="M80.799,42.345c-0.788,0-1.497-0.131-2.125-0.394c-0.628-0.262-1.162-0.615-1.598-1.063
				c-0.438-0.445-0.773-0.961-1.007-1.544c-0.234-0.584-0.352-1.196-0.352-1.84c0-0.654,0.117-1.272,0.352-1.856
				c0.233-0.584,0.569-1.099,1.007-1.546c0.437-0.446,0.97-0.8,1.598-1.063c0.628-0.262,1.336-0.393,2.125-0.393
				s1.494,0.131,2.116,0.393c0.622,0.264,1.152,0.617,1.589,1.063c0.437,0.447,0.772,0.962,1.007,1.546
				c0.234,0.584,0.351,1.202,0.351,1.856c0,0.644-0.117,1.256-0.351,1.84c-0.234,0.583-0.567,1.099-0.998,1.544
				c-0.432,0.447-0.961,0.803-1.589,1.063C82.295,42.214,81.587,42.345,80.799,42.345z M78.268,37.505
				c0,0.417,0.065,0.795,0.194,1.134c0.13,0.34,0.308,0.635,0.536,0.885s0.496,0.443,0.804,0.58c0.308,0.137,0.64,0.205,0.998,0.205
				c0.357,0,0.69-0.068,0.998-0.205c0.308-0.137,0.575-0.33,0.804-0.58c0.228-0.25,0.407-0.548,0.536-0.894
				c0.129-0.345,0.194-0.726,0.194-1.144c0-0.403-0.065-0.779-0.194-1.125c-0.129-0.346-0.308-0.644-0.536-0.894
				c-0.229-0.25-0.496-0.442-0.804-0.58c-0.308-0.137-0.641-0.205-0.998-0.205c-0.357,0-0.69,0.071-0.998,0.214
				c-0.308,0.145-0.576,0.34-0.804,0.59s-0.406,0.549-0.536,0.894C78.333,36.726,78.268,37.101,78.268,37.505z"/>
			<path fill="#1B3664" d="M99.184,32.809h2.365l-4.046,9.357H95.47l-1.663-4.107l-1.644,4.107H90.13l-4.046-9.357h2.347
				l2.882,7.107l1.183-3.036l-1.7-4.054h1.996l1.016,2.875l1.035-2.875h1.995l-1.681,4.054l1.164,3.036L99.184,32.809z"/>
			<path fill="#1B3664" d="M118.178,32.809h2.365l-4.046,9.357h-2.033l-1.663-4.107l-1.644,4.107h-2.033l-4.046-9.357h2.347
				l2.882,7.107l1.183-3.036l-1.7-4.054h1.996l1.016,2.875l1.035-2.875h1.996l-1.682,4.054l1.164,3.036L118.178,32.809z"/>
			<path fill="#1B3664" d="M121.726,31.505V29.13h2.476v2.375H121.726z M121.726,42.166v-9.357h2.476v9.357H121.726z"/>
			<path fill="#1B3664" d="M132.22,41.684c-0.333,0.145-0.742,0.286-1.229,0.43c-0.487,0.143-0.995,0.215-1.524,0.215
				c-0.345,0-0.668-0.043-0.97-0.125c-0.302-0.084-0.567-0.219-0.795-0.402s-0.409-0.422-0.545-0.714
				c-0.136-0.292-0.204-0.646-0.204-1.063v-5.375h-1.256v-1.84h1.256v-3.035h2.477v3.035h2.051v1.84h-2.051v4.571
				c0,0.333,0.092,0.567,0.277,0.705c0.185,0.137,0.407,0.205,0.665,0.205c0.259,0,0.511-0.041,0.757-0.125
				c0.247-0.083,0.444-0.154,0.591-0.214L132.22,41.684z"/>
			<path fill="#1B3664" d="M142.457,42.166h-2.476v-5.25c0-0.738-0.142-1.283-0.425-1.635c-0.284-0.352-0.684-0.526-1.201-0.526
				c-0.221,0-0.456,0.048-0.702,0.144c-0.247,0.096-0.48,0.229-0.702,0.401c-0.222,0.173-0.425,0.378-0.61,0.616
				c-0.185,0.238-0.32,0.5-0.407,0.785v5.465h-2.476V29.13h2.476v5.411c0.357-0.606,0.841-1.074,1.451-1.401
				c0.61-0.327,1.284-0.491,2.023-0.491c0.628,0,1.139,0.104,1.534,0.313c0.394,0.209,0.702,0.485,0.924,0.83
				c0.222,0.346,0.375,0.737,0.461,1.179s0.13,0.895,0.13,1.357V42.166z"/>
		</g>
		<g>
			<path fill="#33679A" d="M285.813,21.05c-1.668-0.899-4.277-1.354-7.853-1.354c-1.767,0-3.54,0.137-5.321,0.403
				c-1.309,0.193-1.441,0.226-2.255,0.396c-1.671,0.353-1.929,1.97-1.929,1.97l-0.537,2.133c-0.305,1.364,0.501,1.308,0.857,1.202
				c0.729-0.212,1.125-0.424,2.613-0.75c1.424-0.313,2.926-0.545,4.125-0.536c1.76,0,3.098,0.187,3.987,0.545
				c0.89,0.375,1.329,1.015,1.329,1.927c0.003,0.217,0.009,0.422-0.072,0.602c-0.072,0.167-0.213,0.33-0.634,0.384
				c-2.513,0.144-4.312,0.366-6.483,0.672c-2.141,0.292-4.014,0.791-5.58,1.483c-1.67,0.715-2.918,1.672-3.778,2.886
				c-0.841,1.22-1.261,2.694-1.263,4.437c0,1.645,0.612,2.983,1.795,4.024c1.197,1.026,2.752,1.537,4.635,1.537
				c1.178-0.011,2.1-0.091,2.76-0.251c0.652-0.158,1.364-0.387,2.116-0.7c0.563-0.228,1.169-0.556,1.812-0.969
				c0.641-0.413,1.086-0.707,1.654-1.067l0.021,0.034l-0.16,0.683c-0.002,0.008-0.01,0.012-0.01,0.019l0.004,0.012
				c-0.184,0.825,0.328,1.511,1.174,1.591l0.011,0.014h0.075l0.001,0.006c0.562,0,2.483-0.002,3.384-0.006h0.627
				c0.043,0,0.046-0.012,0.063-0.021c0.861-0.103,1.688-0.78,1.883-1.596l3.21-13.39c0.073-0.315,0.132-0.68,0.165-1.098
				c0.043-0.423,0.091-0.771,0.076-1.021C288.32,23.351,287.477,21.949,285.813,21.05z M278.036,37.005
				c-0.546,0.332-1.121,0.616-1.726,0.858c-0.813,0.316-1.582,0.481-2.293,0.481c-1.093,0-1.933-0.149-2.5-0.469
				c-0.566-0.304-0.865-0.829-0.856-1.583c0-0.869,0.209-1.545,0.639-2.075c0.433-0.509,1.076-0.918,1.875-1.226
				c0.796-0.26,1.771-0.474,2.896-0.627c1.005-0.123,2.984-0.342,3.238-0.345c0.254-0.002,0.422-0.138,0.311,0.517
				c-0.053,0.283-0.623,2.554-0.887,3.584C278.656,36.435,278.23,36.885,278.036,37.005z"/>
			<path fill="#1B3664" d="M230.593,19.99c-0.94,0-2.177,0.737-2.762,1.627c0,0-6.299,10.437-6.916,11.479
				c-0.338,0.563-0.679,0.205-0.735-0.002c-0.045-0.255-1.951-11.408-1.951-11.408c-0.215-0.896-1.184-1.668-2.397-1.665
				l-3.927,0.007c-0.947,0-1.537,0.731-1.328,1.617c0,0,3.003,16.447,3.589,20.315c0.291,2.139-0.031,2.518-0.031,2.518
				l-3.892,6.562c-0.569,0.889-0.258,1.617,0.684,1.617l4.553-0.004c0.94,0,2.19-0.726,2.752-1.615l17.508-28.623
				c0,0,1.676-2.444,0.132-2.424C234.814,20.006,230.593,19.99,230.593,19.99"/>
			<path fill="#1B3664" d="M175.32,25.809c-1.324,0.936-3.162,1.406-5.545,1.406h-1.078c-0.951,0-1.55-0.729-1.341-1.622
				l1.322-5.511c0.203-0.887,1.15-1.625,2.099-1.616l1.439-0.009c1.681,0,2.958,0.279,3.819,0.83
				c0.85,0.539,1.281,1.389,1.266,2.531C177.326,23.537,176.65,24.869,175.32,25.809 M184.811,17.316
				c-0.545-1.031-1.363-1.867-2.41-2.5c-1.084-0.646-2.344-1.092-3.813-1.361c-1.479-0.256-3.208-0.381-5.188-0.397l-9.175,0.006
				c-0.955,0.013-1.888,0.734-2.108,1.62l-6.187,25.994c-0.213,0.891,0.382,1.626,1.333,1.626h4.396c0.95,0,1.892-0.717,2.104-1.626
				l1.517-6.309c0.202-0.883,1.139-1.611,2.094-1.611h1.255c5.375-0.004,9.544-1.068,12.542-3.195
				c2.991-2.123,4.486-4.937,4.48-8.417C185.654,19.615,185.383,18.337,184.811,17.316"/>
			<path fill="#33679A" d="M255.123,25.914c-1.316,0.926-3.166,1.392-5.544,1.392h-1.095c-0.944,0.011-1.557-0.729-1.332-1.614
				l1.318-5.52c0.196-0.874,1.157-1.617,2.09-1.609l1.444-0.007c1.688,0.007,2.947,0.28,3.82,0.823
				c0.854,0.548,1.271,1.398,1.276,2.531C257.107,23.639,256.445,24.968,255.123,25.914 M264.609,17.41
				c-0.549-1.03-1.375-1.858-2.42-2.506c-1.071-0.644-2.348-1.093-3.822-1.354c-1.458-0.248-3.193-0.39-5.169-0.394l-9.195,0.004
				c-0.948,0.017-1.876,0.735-2.094,1.621l-6.183,26.002c-0.229,0.884,0.388,1.619,1.317,1.615l4.412-0.008
				c0.937,0.008,1.89-0.725,2.108-1.607l1.492-6.311c0.209-0.884,1.161-1.625,2.111-1.613h1.253c5.384,0,9.556-1.068,12.545-3.195
				c2.979-2.137,4.481-4.942,4.481-8.43C265.438,19.711,265.171,18.428,264.609,17.41"/>
			<path fill="#1B3664" d="M205.997,21.029c-1.67-0.898-4.279-1.354-7.853-1.354c-1.768,0-3.541,0.136-5.324,0.404
				c-1.309,0.191-1.438,0.225-2.254,0.395c-1.672,0.354-1.928,1.971-1.928,1.971l-0.537,2.133c-0.304,1.365,0.502,1.309,0.857,1.201
				c0.729-0.211,1.125-0.422,2.614-0.75c1.42-0.311,2.926-0.543,4.124-0.535c1.76,0,3.098,0.186,3.984,0.543
				c0.893,0.375,1.33,1.016,1.33,1.929c0.006,0.217,0.01,0.422-0.068,0.601c-0.074,0.168-0.217,0.33-0.639,0.383
				c-2.508,0.147-4.309,0.369-6.48,0.674c-2.143,0.291-4.016,0.791-5.581,1.48c-1.671,0.717-2.917,1.676-3.778,2.889
				c-0.838,1.22-1.26,2.694-1.264,4.436c0,1.645,0.613,2.984,1.795,4.023c1.195,1.028,2.753,1.537,4.637,1.537
				c1.176-0.008,2.098-0.092,2.76-0.25c0.651-0.16,1.364-0.385,2.114-0.701c0.565-0.227,1.169-0.557,1.812-0.969
				c0.641-0.412,1.088-0.705,1.66-1.065l0.017,0.032l-0.161,0.684c-0.001,0.008-0.009,0.012-0.009,0.02l0.006,0.012
				c-0.185,0.824,0.328,1.51,1.171,1.589l0.012,0.017h0.073l0.004,0.006c0.562,0,2.484-0.002,3.382-0.006h0.627
				c0.043,0,0.049-0.015,0.063-0.021c0.865-0.105,1.688-0.783,1.883-1.596l3.212-13.391c0.072-0.314,0.13-0.678,0.163-1.096
				c0.043-0.426,0.09-0.771,0.078-1.022C208.504,23.33,207.659,21.93,205.997,21.029z M198.218,36.984
				c-0.545,0.334-1.118,0.616-1.724,0.858c-0.813,0.315-1.583,0.483-2.295,0.483c-1.09,0-1.932-0.15-2.499-0.469
				c-0.568-0.304-0.866-0.83-0.858-1.584c0-0.869,0.211-1.547,0.643-2.074c0.433-0.511,1.074-0.922,1.871-1.227
				c0.795-0.262,1.775-0.473,2.899-0.627c1.001-0.121,2.983-0.342,3.238-0.346c0.252-0.002,0.421-0.137,0.307,0.517
				c-0.049,0.283-0.62,2.556-0.884,3.586C198.836,36.414,198.41,36.865,198.218,36.984z"/>
			<g>
				<g>
					<path fill="#33679A" d="M300.969,13.369h-3.935c-0.002,0-0.005,0-0.007,0h-0.002c-0.897,0-1.811,0.666-2.065,1.512
						c-0.012,0.036-0.028,0.07-0.038,0.105c0,0-0.1,0.438-0.27,1.186l-5.373,23.541c-0.133,0.572-0.223,0.949-0.25,1.044
						l0.011,0.014c-0.188,0.827,0.328,1.513,1.174,1.589l0.011,0.014h4.082c0.889,0,1.793-0.652,2.062-1.486
						c0.015-0.043,0.034-0.085,0.046-0.129l5.893-25.771l-0.009-0.002C302.496,14.101,301.909,13.369,300.969,13.369z"/>
				</g>
			</g>
			<g>
				<path fill="#33679A" d="M308.413,18.617c-0.134,0.033-0.279,0.062-0.44,0.084c-0.16,0.021-0.304,0.033-0.425,0.033
					c-0.438,0-0.771-0.115-0.997-0.34c-0.229-0.228-0.341-0.592-0.341-1.092v-2.199h-0.487v-0.585h0.487V13.33h0.717v1.188h1.486
					v0.585h-1.486v1.885c0,0.217,0.007,0.387,0.017,0.508c0.012,0.123,0.049,0.236,0.107,0.343c0.057,0.099,0.135,0.171,0.232,0.217
					c0.099,0.045,0.249,0.067,0.449,0.067c0.117,0,0.238-0.016,0.367-0.051c0.129-0.031,0.219-0.061,0.276-0.082h0.036
					L308.413,18.617L308.413,18.617z"/>
				<path fill="#33679A" d="M315.527,18.654h-0.721V16.3c0-0.177-0.008-0.349-0.024-0.515c-0.019-0.166-0.054-0.297-0.104-0.396
					c-0.06-0.104-0.145-0.187-0.254-0.239c-0.109-0.055-0.268-0.082-0.475-0.082c-0.202,0-0.402,0.049-0.604,0.146
					c-0.203,0.097-0.404,0.221-0.605,0.371c0.006,0.058,0.013,0.124,0.02,0.199c0.006,0.074,0.008,0.149,0.008,0.224v2.646h-0.721
					v-2.354c0-0.184-0.009-0.355-0.023-0.521c-0.019-0.164-0.055-0.293-0.105-0.393c-0.061-0.105-0.145-0.186-0.255-0.238
					c-0.108-0.054-0.269-0.08-0.474-0.08c-0.197,0-0.393,0.047-0.592,0.141c-0.199,0.093-0.395,0.213-0.592,0.359v3.086h-0.721
					V14.52h0.721v0.458c0.227-0.18,0.447-0.321,0.672-0.422s0.461-0.151,0.715-0.151c0.289,0,0.539,0.06,0.739,0.178
					c0.204,0.119,0.356,0.283,0.455,0.494c0.291-0.237,0.558-0.408,0.796-0.514c0.24-0.105,0.495-0.158,0.77-0.158
					c0.471,0,0.818,0.139,1.041,0.412c0.225,0.276,0.336,0.66,0.336,1.154v2.684H315.527z"/>
			</g>
		</g>
	</g>
</g>
</svg>
