<?xml version="1.0" encoding="utf-8"?>
<!-- Generator: Adobe Illustrator 16.0.0, SVG Export Plug-In . SVG Version: 6.00 Build 0)  -->
<!DOCTYPE svg PUBLIC "-//W3C//DTD SVG 1.1//EN" "http://www.w3.org/Graphics/SVG/1.1/DTD/svg11.dtd">
<svg version="1.1" id="Layer_1" xmlns="http://www.w3.org/2000/svg" xmlns:xlink="http://www.w3.org/1999/xlink" x="0px" y="0px"
	 width="108px" height="72px" viewBox="-30.582 -13.023 108 72" enable-background="new -30.582 -13.023 108 72"
	 xml:space="preserve">
<g>
	<path fill="#F1F1F2" d="M-6.186,19.953c-6.44,0-12.293,2.97-16.652,7.811c-4.762,5.29-7.744,12.814-7.744,21.171h7.744h14.85
		c2.443-10.143,8.215-18.633,15.826-23.707C3.871,21.908-0.964,19.953-6.186,19.953z"/>
	<ellipse fill="#F1F1F2" cx="-6.186" cy="6.811" rx="11.172" ry="11.271"/>
	<path fill="#F1F1F2" d="M69.125,26.363c-4.295-4.491-9.927-7.221-16.101-7.221c-5.167,0-9.952,1.914-13.896,5.169
		c8.122,4.804,14.376,13.396,17.091,23.814h12.905h8.293C77.418,39.453,74.208,31.675,69.125,26.363z"/>
	<ellipse fill="#F1F1F2" cx="24.213" cy="2.079" rx="14.971" ry="15.102"/>
	<path fill="#F1F1F2" d="M54.56,48.125c-2.713-10.014-8.817-18.229-16.695-22.696c-4.14-2.349-8.77-3.665-13.651-3.665
		c-5.476,0-10.63,1.657-15.138,4.569C1.715,31.088-3.901,39.199-6.336,48.934c-0.801,3.193-1.265,6.56-1.326,10.043H56.09
		C56.024,55.199,55.49,51.557,54.56,48.125z"/>
	<ellipse fill="#F1F1F2" cx="53.025" cy="6" rx="11.175" ry="11.271"/>
</g>
</svg>
