<?xml version="1.0" encoding="utf-8"?>
<!-- Generator: Adobe Illustrator 16.0.0, SVG Export Plug-In . SVG Version: 6.00 Build 0)  -->
<!DOCTYPE svg PUBLIC "-//W3C//DTD SVG 1.1//EN" "http://www.w3.org/Graphics/SVG/1.1/DTD/svg11.dtd">
<svg version="1.1" id="Layer_1" xmlns="http://www.w3.org/2000/svg" xmlns:xlink="http://www.w3.org/1999/xlink" x="0px" y="0px"
	 width="40px" height="28px" viewBox="0 0 40 28" enable-background="new 0 0 40 28" xml:space="preserve">
<g>
	<path fill-rule="evenodd" clip-rule="evenodd" fill="#E6E7E8" d="M6.378,0c2.813,0,5.098,2.282,5.098,5.093
		c0,2.229-1.438,4.124-3.439,4.813v1.919h4.721v3.312H8.037v1.107l4.64,10.52L9.868,28L7.35,22.297H5.599L3.082,28l-2.813-1.236
		l4.454-10.1v-1.527H0v-3.312h4.722V9.906c-2-0.688-3.435-2.583-3.435-4.813C1.288,2.282,3.569,0,6.378,0L6.378,0z"/>
	<path fill-rule="evenodd" clip-rule="evenodd" fill="#E6E7E8" d="M19.999,0c2.814,0,5.098,2.282,5.098,5.093
		c0,2.229-1.438,4.124-3.439,4.813v1.919h4.722v3.312h-4.722v1.107l4.64,10.52L23.489,28l-2.518-5.703h-1.752L16.703,28
		l-2.814-1.236l4.455-10.1v-1.527h-4.722v-3.312h4.722V9.906c-2-0.688-3.435-2.583-3.435-4.813C14.909,2.282,17.19,0,19.999,0
		L19.999,0z"/>
	<path fill-rule="evenodd" clip-rule="evenodd" fill="#E6E7E8" d="M33.62,0c2.813,0,5.098,2.282,5.098,5.093
		c0,2.229-1.438,4.124-3.44,4.813v1.919H40v3.312h-4.723v1.107l4.642,10.52L37.109,28l-2.518-5.703H32.84L30.323,28l-2.813-1.236
		l4.453-10.1v-1.527h-4.72v-3.312h4.72V9.906c-1.998-0.688-3.434-2.583-3.434-4.813C28.529,2.282,30.812,0,33.62,0L33.62,0z"/>
</g>
</svg>
