<?xml version="1.0" encoding="utf-8"?>
<!-- Generator: Adobe Illustrator 16.0.0, SVG Export Plug-In . SVG Version: 6.00 Build 0)  -->
<!DOCTYPE svg PUBLIC "-//W3C//DTD SVG 1.1//EN" "http://www.w3.org/Graphics/SVG/1.1/DTD/svg11.dtd">
<svg version="1.1" id="Layer_1" xmlns="http://www.w3.org/2000/svg" xmlns:xlink="http://www.w3.org/1999/xlink" x="0px" y="0px"
	 width="200px" height="158px" viewBox="3 0 200 158" enable-background="new 3 0 200 158" xml:space="preserve">
<path fill="#FED093" d="M202.74,148c0,5.521-4.547,10-10.152,10H12.893c-5.606,0-10.152-4.479-10.152-10V10
	c0-5.523,4.546-10,10.152-10h179.695c5.605,0,10.152,4.477,10.152,10V148z"/>
<g>
	<path fill="#542437" d="M88.013-91.156c-2.321,0-4.292,1.903-4.292,4.144c0,2.243,1.97,4.145,4.292,4.145s4.291-1.899,4.291-4.145
		C92.303-89.254,90.333-91.156,88.013-91.156L88.013-91.156L88.013-91.156z M70.429-91.156c-2.321,0-4.292,1.903-4.292,4.144
		c0,2.243,1.97,4.145,4.292,4.145c2.462,0,4.29-1.899,4.29-4.145C74.719-89.254,72.747-91.156,70.429-91.156L70.429-91.156
		L70.429-91.156z M57.767-125.398l3.307-0.748l4.853,19.905h28.207l5.484-14.471l0.071,0.07l4.363-11.484l8.088-1.833l0.772,3.191
		l-6.33,1.426l-9.985,26.43h-0.069l-4.082,10.531H65.366v-3.261h24.69l2.814-7.27H63.183L57.767-125.398L57.767-125.398z
		 M66.84-121.118l2.321-2.449l8.792,8.019v-21.673h3.375v21.741l9.147-8.086l2.319,2.449L79.639-109.5L66.84-121.118L66.84-121.118z
		"/>
</g>
<g>
	<path fill="#542437" d="M76.061,110.514c0.894,0,1.637-0.17,2.229-0.51c0.594-0.34,1.067-0.786,1.421-1.34
		c0.353-0.554,0.6-1.184,0.739-1.89c0.141-0.707,0.21-1.42,0.21-2.141v-7.16h1.4v7.16c0,0.96-0.106,1.87-0.32,2.73
		c-0.213,0.859-0.557,1.616-1.029,2.27c-0.474,0.653-1.091,1.174-1.851,1.561s-1.687,0.58-2.78,0.58c-1.133,0-2.079-0.203-2.84-0.61
		c-0.76-0.407-1.373-0.943-1.84-1.61c-0.467-0.666-0.8-1.426-1-2.279s-0.3-1.734-0.3-2.641v-7.16h1.38v7.16
		c0,0.747,0.073,1.474,0.22,2.18c0.146,0.707,0.396,1.334,0.75,1.881s0.823,0.986,1.41,1.319S75.181,110.514,76.061,110.514z"/>
	<path fill="#542437" d="M90.42,111.874c-0.88,0-1.66-0.223-2.34-0.67s-1.227-1.01-1.64-1.69v6.42h-1.36v-14.68h1.22v2.021
		c0.427-0.654,0.98-1.184,1.66-1.591c0.68-0.406,1.42-0.61,2.22-0.61c0.721,0,1.384,0.15,1.99,0.451
		c0.606,0.299,1.13,0.699,1.57,1.199c0.439,0.5,0.783,1.077,1.03,1.73c0.246,0.653,0.369,1.326,0.369,2.02
		c0,0.733-0.113,1.428-0.34,2.08c-0.227,0.653-0.55,1.227-0.97,1.721c-0.42,0.492-0.92,0.883-1.5,1.17
		C91.75,111.73,91.113,111.874,90.42,111.874z M90.04,110.674c0.561,0,1.066-0.12,1.521-0.36c0.453-0.24,0.843-0.557,1.17-0.949
		c0.326-0.394,0.576-0.84,0.75-1.34c0.173-0.5,0.26-1.018,0.26-1.551c0-0.56-0.101-1.093-0.3-1.6c-0.2-0.507-0.474-0.953-0.82-1.34
		s-0.757-0.693-1.23-0.92c-0.473-0.227-0.983-0.34-1.529-0.34c-0.347,0-0.707,0.069-1.08,0.209
		c-0.374,0.141-0.727,0.327-1.061,0.561c-0.333,0.233-0.616,0.507-0.85,0.82c-0.233,0.313-0.377,0.643-0.43,0.99v3.199
		c0.16,0.373,0.363,0.721,0.609,1.04c0.247,0.32,0.527,0.597,0.84,0.83c0.313,0.233,0.653,0.417,1.021,0.55
		C89.276,110.607,89.653,110.674,90.04,110.674z"/>
	<path fill="#542437" d="M97.439,97.073h1.36v12.24c0,0.387,0.106,0.69,0.32,0.91c0.213,0.221,0.513,0.33,0.899,0.33
		c0.146,0,0.32-0.02,0.521-0.061c0.2-0.039,0.387-0.092,0.56-0.159l0.24,1.1c-0.253,0.106-0.563,0.194-0.93,0.261
		c-0.367,0.066-0.684,0.1-0.95,0.1c-0.627,0-1.12-0.177-1.48-0.53c-0.359-0.353-0.54-0.85-0.54-1.489V97.073z"/>
	<path fill="#542437" d="M107.14,111.874c-0.76,0-1.457-0.144-2.09-0.43c-0.634-0.287-1.18-0.678-1.64-1.17
		c-0.461-0.494-0.817-1.067-1.07-1.721c-0.254-0.652-0.38-1.34-0.38-2.061c0-0.732,0.13-1.426,0.39-2.079s0.62-1.227,1.08-1.72
		c0.46-0.494,1.007-0.887,1.64-1.181c0.634-0.293,1.323-0.44,2.07-0.44s1.437,0.147,2.07,0.44c0.633,0.294,1.18,0.687,1.64,1.181
		c0.46,0.493,0.82,1.066,1.08,1.72s0.39,1.347,0.39,2.079c0,0.721-0.13,1.408-0.39,2.061c-0.26,0.653-0.62,1.227-1.08,1.721
		c-0.46,0.492-1.007,0.883-1.64,1.17C108.576,111.73,107.887,111.874,107.14,111.874z M103.359,106.514
		c0,0.587,0.097,1.13,0.29,1.63s0.46,0.94,0.8,1.32c0.341,0.38,0.74,0.677,1.2,0.891c0.46,0.213,0.95,0.319,1.471,0.319
		c0.52,0,1.01-0.11,1.47-0.33s0.863-0.521,1.21-0.899c0.347-0.381,0.62-0.824,0.82-1.33c0.199-0.507,0.3-1.054,0.3-1.641
		c0-0.572-0.101-1.116-0.3-1.63c-0.2-0.513-0.474-0.96-0.82-1.34s-0.747-0.681-1.2-0.899c-0.453-0.221-0.939-0.33-1.46-0.33
		c-0.52,0-1.01,0.109-1.47,0.33c-0.46,0.219-0.86,0.523-1.2,0.909c-0.34,0.388-0.61,0.837-0.81,1.351
		C103.46,105.378,103.359,105.927,103.359,106.514z"/>
	<path fill="#542437" d="M117.3,111.874c-0.533,0-1.02-0.084-1.46-0.25c-0.439-0.167-0.816-0.396-1.13-0.69
		c-0.313-0.293-0.557-0.633-0.729-1.02c-0.174-0.387-0.261-0.794-0.261-1.22c0-0.48,0.106-0.917,0.32-1.311
		c0.213-0.393,0.513-0.73,0.9-1.01c0.386-0.28,0.85-0.496,1.39-0.65c0.54-0.152,1.137-0.23,1.79-0.23c0.52,0,1.053,0.047,1.6,0.141
		s1.033,0.227,1.46,0.4v-0.94c0-0.92-0.263-1.649-0.79-2.19c-0.526-0.539-1.236-0.81-2.13-0.81c-0.56,0-1.116,0.106-1.67,0.32
		c-0.553,0.214-1.116,0.52-1.689,0.92l-0.48-0.9c0.68-0.453,1.34-0.793,1.98-1.02c0.64-0.227,1.307-0.341,2-0.341
		c1.267,0,2.272,0.367,3.02,1.101s1.12,1.747,1.12,3.04v4.7c0,0.373,0.16,0.56,0.48,0.56v1.2c-0.107,0.013-0.207,0.022-0.301,0.03
		c-0.093,0.006-0.173,0.01-0.239,0.01c-0.268,0-0.511-0.08-0.73-0.24s-0.344-0.4-0.37-0.72l-0.04-0.82
		c-0.453,0.614-1.05,1.091-1.79,1.431C118.811,111.704,118.061,111.874,117.3,111.874z M117.64,110.834
		c0.601,0,1.197-0.13,1.79-0.39c0.594-0.261,1.063-0.617,1.41-1.07c0.094-0.12,0.174-0.25,0.24-0.391c0.066-0.14,0.1-0.27,0.1-0.39
		v-1.7c-0.453-0.173-0.927-0.307-1.42-0.4c-0.493-0.092-0.973-0.139-1.439-0.139c-0.974,0-1.764,0.196-2.37,0.59
		c-0.607,0.393-0.91,0.937-0.91,1.629c0,0.281,0.053,0.555,0.16,0.82c0.106,0.268,0.27,0.508,0.49,0.721
		c0.22,0.213,0.489,0.387,0.81,0.52S117.2,110.834,117.64,110.834z"/>
	<path fill="#542437" d="M129.82,111.874c-0.721,0-1.387-0.15-2-0.45s-1.144-0.696-1.59-1.19c-0.447-0.492-0.794-1.063-1.04-1.709
		c-0.247-0.646-0.37-1.324-0.37-2.031c0-0.732,0.12-1.43,0.359-2.09c0.24-0.66,0.57-1.236,0.99-1.729s0.92-0.884,1.5-1.17
		s1.217-0.431,1.91-0.431c0.88,0,1.66,0.23,2.34,0.69s1.22,1.017,1.62,1.67v-6.36h1.36v12.841c0,0.373,0.159,0.56,0.479,0.56v1.2
		c-0.227,0.04-0.406,0.06-0.54,0.06c-0.333,0-0.606-0.096-0.819-0.289c-0.214-0.193-0.32-0.424-0.32-0.69v-1.101
		c-0.427,0.681-0.99,1.221-1.69,1.621C131.31,111.674,130.58,111.874,129.82,111.874z M130.1,110.674c0.347,0,0.71-0.066,1.091-0.2
		c0.38-0.133,0.732-0.316,1.06-0.55c0.326-0.233,0.61-0.507,0.85-0.819c0.24-0.314,0.387-0.65,0.44-1.011v-3.22
		c-0.134-0.36-0.33-0.697-0.59-1.01c-0.26-0.313-0.554-0.59-0.88-0.83c-0.327-0.24-0.674-0.427-1.04-0.561
		c-0.367-0.133-0.73-0.199-1.09-0.199c-0.561,0-1.07,0.119-1.53,0.359s-0.851,0.557-1.17,0.95c-0.32,0.394-0.57,0.843-0.75,1.35
		c-0.181,0.507-0.271,1.027-0.271,1.56c0,0.561,0.101,1.094,0.301,1.601c0.199,0.507,0.473,0.95,0.819,1.33s0.757,0.684,1.23,0.91
		C129.043,110.561,129.553,110.674,130.1,110.674z"/>
</g>
<g>
	<path fill="#542437" d="M127.828,32.179c-4.293-4.29-12.496-5.979-16.789-1.684L76.688,64.844
		c-4.291,4.292-4.291,11.248,0.002,15.539c4.289,4.295,11.246,4.295,15.539,0l7.996-7.994l15.057-15.058
		c4.293-4.29,5.412-10.131,1.121-14.421c-4.293-4.292-10.133-3.175-14.422,1.114L86.92,59.083l1.613,1.612l15.059-15.056
		c3.396-3.396,7.803-4.515,11.195-1.12c3.395,3.397,2.279,7.803-1.117,11.196L98.611,70.773l-7.996,8
		c-3.395,3.391-8.92,3.391-12.313,0c-3.395-3.397-3.395-8.922,0-12.313l34.352-34.354c3.396-3.393,10.166-1.708,13.561,1.687
		c3.393,3.396,5.082,10.167,1.686,13.561L97.91,77.34l1.613,1.613l29.99-29.991C133.805,44.672,132.119,36.469,127.828,32.179z"/>
</g>
</svg>
