<?xml version="1.0" encoding="utf-8"?>
<!-- Generator: Adobe Illustrator 16.0.0, SVG Export Plug-In . SVG Version: 6.00 Build 0)  -->
<!DOCTYPE svg PUBLIC "-//W3C//DTD SVG 1.1//EN" "http://www.w3.org/Graphics/SVG/1.1/DTD/svg11.dtd">
<svg version="1.1" id="Layer_1" xmlns="http://www.w3.org/2000/svg" xmlns:xlink="http://www.w3.org/1999/xlink" x="0px" y="0px"
	 width="58px" height="56px" viewBox="0 0 58 56" enable-background="new 0 0 58 56" xml:space="preserve">
<path fill="#F1F2F2" d="M58,52.204C58,54.301,56.291,56,54.182,56H3.819C1.709,56,0,54.301,0,52.204V3.796C0,1.7,1.709,0,3.819,0
	h50.362C56.291,0,58,1.7,58,3.796V52.204z"/>
<g>
	<path fill="#0992A4" d="M8.386,44.017V31.925h5.037c0.524,0,1.008,0.109,1.448,0.331c0.439,0.222,0.819,0.511,1.139,0.868
		c0.32,0.358,0.568,0.764,0.746,1.219c0.176,0.454,0.265,0.914,0.265,1.38c0,0.499-0.083,0.979-0.248,1.438
		c-0.166,0.46-0.403,0.867-0.71,1.218c-0.309,0.353-0.677,0.636-1.105,0.853c-0.429,0.215-0.905,0.323-1.431,0.323H9.568v4.462
		H8.386z M9.568,38.498h3.889c0.354,0,0.677-0.077,0.968-0.229c0.291-0.153,0.539-0.358,0.745-0.613
		c0.206-0.256,0.366-0.551,0.48-0.886s0.171-0.684,0.171-1.047c0-0.376-0.066-0.729-0.197-1.064
		c-0.132-0.336-0.309-0.628-0.532-0.878c-0.222-0.249-0.485-0.445-0.788-0.588c-0.302-0.142-0.619-0.213-0.951-0.213H9.568V38.498z"
		/>
	<path fill="#0992A4" d="M23.958,44.102c-0.846,0-1.619-0.173-2.322-0.52c-0.702-0.346-1.305-0.806-1.807-1.379
		c-0.503-0.573-0.891-1.229-1.166-1.968c-0.273-0.738-0.411-1.493-0.411-2.266c0-0.805,0.146-1.578,0.437-2.315
		c0.292-0.738,0.694-1.392,1.208-1.959c0.514-0.567,1.119-1.02,1.815-1.354c0.697-0.334,1.45-0.503,2.262-0.503
		c0.844,0,1.619,0.18,2.32,0.537c0.703,0.357,1.302,0.826,1.799,1.405c0.497,0.578,0.883,1.235,1.156,1.968
		c0.274,0.732,0.411,1.479,0.411,2.238c0,0.807-0.146,1.58-0.437,2.317c-0.292,0.737-0.691,1.389-1.199,1.951
		c-0.509,0.562-1.111,1.01-1.808,1.344C25.522,43.935,24.769,44.102,23.958,44.102z M19.453,37.97c0,0.659,0.108,1.293,0.326,1.899
		c0.216,0.607,0.524,1.146,0.925,1.618c0.399,0.472,0.874,0.846,1.422,1.124c0.548,0.279,1.158,0.418,1.833,0.418
		c0.686,0,1.308-0.148,1.868-0.444c0.559-0.294,1.033-0.681,1.422-1.157c0.388-0.477,0.688-1.017,0.899-1.618
		c0.211-0.602,0.318-1.214,0.318-1.84c0-0.658-0.112-1.291-0.335-1.898c-0.222-0.606-0.534-1.145-0.934-1.609
		c-0.4-0.465-0.873-0.837-1.422-1.116c-0.548-0.278-1.153-0.417-1.815-0.417c-0.685,0-1.308,0.145-1.867,0.435
		c-0.56,0.289-1.034,0.673-1.422,1.15c-0.389,0.477-0.688,1.016-0.899,1.617S19.453,37.346,19.453,37.97z"/>
	<path fill="#0992A4" d="M39.102,34.188c-0.342-0.386-0.803-0.697-1.377-0.937c-0.579-0.237-1.227-0.356-1.945-0.356
		c-1.086,0-1.873,0.201-2.365,0.604c-0.49,0.402-0.736,0.951-0.736,1.644c0,0.363,0.064,0.661,0.196,0.895
		c0.132,0.232,0.337,0.434,0.618,0.604c0.28,0.17,0.634,0.316,1.062,0.442c0.429,0.125,0.935,0.25,1.518,0.374
		c0.649,0.137,1.231,0.287,1.745,0.451c0.514,0.165,0.955,0.375,1.321,0.631c0.364,0.256,0.644,0.568,0.838,0.937
		c0.195,0.369,0.292,0.826,0.292,1.371c0,0.557-0.108,1.039-0.325,1.448c-0.219,0.408-0.52,0.748-0.909,1.022
		c-0.388,0.271-0.851,0.474-1.388,0.604c-0.535,0.129-1.118,0.195-1.746,0.195c-1.909,0-3.535-0.585-4.883-1.755l0.582-0.971
		c0.445,0.466,1.046,0.861,1.8,1.184c0.754,0.324,1.592,0.485,2.517,0.485c0.971,0,1.73-0.172,2.279-0.52
		c0.548-0.345,0.823-0.871,0.823-1.575c0-0.374-0.079-0.689-0.232-0.945c-0.153-0.255-0.386-0.476-0.693-0.664
		c-0.309-0.188-0.694-0.35-1.157-0.485c-0.462-0.137-0.995-0.271-1.602-0.409c-0.64-0.146-1.199-0.301-1.679-0.46
		c-0.479-0.158-0.882-0.357-1.207-0.597c-0.326-0.237-0.572-0.524-0.738-0.858c-0.165-0.335-0.248-0.748-0.248-1.235
		c0-0.557,0.106-1.054,0.317-1.491c0.213-0.436,0.508-0.8,0.892-1.09c0.382-0.289,0.838-0.511,1.37-0.663
		c0.531-0.154,1.115-0.231,1.755-0.231c0.8,0,1.518,0.123,2.151,0.366c0.634,0.245,1.207,0.588,1.721,1.031L39.102,34.188z"/>
	<path fill="#0992A4" d="M50.959,32.979h-4.334v11.037h-1.201V32.979H41.09v-1.055h9.869V32.979z"/>
</g>
<path fill="#0992A4" d="M39.254,15.241c0-4.872-4.762-8.822-10.634-8.822c-5.873,0-10.634,3.95-10.634,8.822
	c0,4.875,4.761,8.823,10.634,8.823c3.563,0,6.141-1.619,6.141-1.619l4.162,1.619l-1.993-3.317
	C36.93,20.747,39.254,18.493,39.254,15.241z"/>
</svg>
