<?xml version="1.0" encoding="utf-8"?>
<!-- Generator: Adobe Illustrator 16.0.0, SVG Export Plug-In . SVG Version: 6.00 Build 0)  -->
<!DOCTYPE svg PUBLIC "-//W3C//DTD SVG 1.1//EN" "http://www.w3.org/Graphics/SVG/1.1/DTD/svg11.dtd">
<svg version="1.1" id="Layer_1" xmlns="http://www.w3.org/2000/svg" xmlns:xlink="http://www.w3.org/1999/xlink" x="0px" y="0px"
	 width="75px" height="17px" viewBox="0 0 75 17" enable-background="new 0 0 75 17" xml:space="preserve">
<g>
	<g>
		<path fill="#F2F2F2" d="M33.088,13.678V2.026h4.958c0.516,0,0.993,0.106,1.425,0.32c0.433,0.213,0.806,0.492,1.121,0.837
			c0.315,0.344,0.56,0.735,0.734,1.173c0.173,0.438,0.261,0.88,0.261,1.329c0,0.481-0.082,0.944-0.244,1.387
			c-0.163,0.443-0.396,0.834-0.699,1.173c-0.305,0.339-0.667,0.613-1.088,0.821c-0.424,0.207-0.893,0.312-1.41,0.312h-3.896v4.3
			H33.088z M34.251,8.36h3.828c0.349,0,0.667-0.074,0.954-0.221c0.286-0.148,0.53-0.345,0.732-0.591
			c0.203-0.246,0.361-0.53,0.473-0.853c0.113-0.323,0.17-0.659,0.17-1.009c0-0.361-0.065-0.703-0.194-1.025
			c-0.13-0.323-0.304-0.605-0.523-0.845c-0.219-0.241-0.478-0.43-0.776-0.566c-0.297-0.137-0.609-0.205-0.936-0.205h-3.727V8.36z"/>
		<path fill="#F2F2F2" d="M48.418,13.759c-0.832,0-1.594-0.167-2.285-0.5c-0.691-0.334-1.285-0.776-1.779-1.33
			c-0.495-0.552-0.877-1.184-1.146-1.896c-0.27-0.71-0.405-1.438-0.405-2.182c0-0.776,0.144-1.521,0.43-2.232
			c0.287-0.711,0.684-1.34,1.19-1.887c0.506-0.547,1.102-0.982,1.787-1.305c0.687-0.323,1.428-0.484,2.227-0.484
			c0.831,0,1.594,0.172,2.284,0.517c0.692,0.344,1.282,0.796,1.771,1.354S53.36,5.004,53.63,5.71
			c0.271,0.706,0.405,1.425,0.405,2.157c0,0.777-0.144,1.522-0.431,2.232c-0.287,0.711-0.68,1.337-1.18,1.88
			c-0.501,0.541-1.094,0.973-1.78,1.295C49.959,13.598,49.217,13.759,48.418,13.759z M43.982,7.852c0,0.635,0.106,1.245,0.321,1.829
			c0.213,0.586,0.516,1.105,0.91,1.56c0.394,0.454,0.86,0.814,1.4,1.083c0.539,0.269,1.141,0.403,1.804,0.403
			c0.676,0,1.288-0.144,1.839-0.429c0.551-0.283,1.018-0.655,1.4-1.114c0.382-0.46,0.677-0.98,0.885-1.56
			c0.208-0.581,0.313-1.17,0.313-1.772c0-0.635-0.11-1.244-0.329-1.83c-0.219-0.585-0.526-1.102-0.92-1.551
			c-0.394-0.448-0.859-0.806-1.399-1.074s-1.136-0.402-1.788-0.402c-0.674,0-1.287,0.14-1.838,0.419
			c-0.551,0.278-1.019,0.648-1.399,1.107C44.798,4.98,44.503,5.5,44.295,6.079C44.086,6.66,43.982,7.25,43.982,7.852z"/>
		<path fill="#F2F2F2" d="M63.328,4.208c-0.337-0.372-0.791-0.672-1.357-0.902c-0.568-0.229-1.206-0.345-1.914-0.345
			c-1.069,0-1.845,0.194-2.329,0.583c-0.483,0.388-0.725,0.916-0.725,1.583c0,0.35,0.064,0.638,0.194,0.862
			c0.129,0.224,0.331,0.418,0.607,0.583c0.275,0.164,0.624,0.306,1.045,0.426c0.422,0.121,0.92,0.241,1.493,0.361
			c0.641,0.131,1.214,0.276,1.72,0.435s0.939,0.361,1.3,0.608c0.359,0.246,0.635,0.546,0.826,0.902
			c0.19,0.355,0.287,0.796,0.287,1.321c0,0.536-0.108,1.001-0.321,1.396c-0.214,0.393-0.512,0.721-0.895,0.984
			c-0.381,0.262-0.837,0.456-1.365,0.582c-0.528,0.125-1.102,0.189-1.72,0.189c-1.879,0-3.48-0.563-4.808-1.691l0.573-0.935
			c0.438,0.448,1.029,0.829,1.771,1.14c0.742,0.313,1.568,0.468,2.479,0.468c0.956,0,1.704-0.166,2.243-0.5
			c0.54-0.334,0.811-0.84,0.811-1.519c0-0.36-0.077-0.664-0.229-0.91s-0.379-0.459-0.683-0.64c-0.305-0.181-0.683-0.336-1.139-0.468
			c-0.455-0.131-0.981-0.262-1.577-0.394c-0.63-0.142-1.18-0.29-1.652-0.443c-0.473-0.153-0.868-0.344-1.189-0.574
			c-0.32-0.229-0.563-0.506-0.726-0.829s-0.244-0.719-0.244-1.189c0-0.537,0.104-1.016,0.313-1.436
			c0.208-0.421,0.5-0.772,0.876-1.051c0.377-0.278,0.827-0.492,1.35-0.639c0.522-0.148,1.1-0.222,1.729-0.222
			c0.787,0,1.493,0.118,2.117,0.353c0.624,0.235,1.189,0.566,1.694,0.993L63.328,4.208z"/>
		<path fill="#F2F2F2" d="M75,3.043h-4.267v10.634h-1.182V3.043h-4.267V2.026H75V3.043z"/>
	</g>
	<path fill="#F2F2F2" d="M20.937,8.5c0-4.694-4.687-8.5-10.467-8.5C4.688,0,0,3.805,0,8.5C0,13.195,4.688,17,10.47,17
		c3.507,0,6.045-1.56,6.045-1.56L20.612,17l-1.961-3.196C18.651,13.804,20.937,11.633,20.937,8.5z"/>
</g>
</svg>
