<?xml version="1.0" encoding="utf-8"?>
<!-- Generator: Adobe Illustrator 16.0.0, SVG Export Plug-In . SVG Version: 6.00 Build 0)  -->
<!DOCTYPE svg PUBLIC "-//W3C//DTD SVG 1.1//EN" "http://www.w3.org/Graphics/SVG/1.1/DTD/svg11.dtd">
<svg version="1.1" id="Layer_1" xmlns="http://www.w3.org/2000/svg" xmlns:xlink="http://www.w3.org/1999/xlink" x="0px" y="0px"
	 width="107px" height="103px" viewBox="-33.5 -35.5 107 103" enable-background="new -33.5 -35.5 107 103" xml:space="preserve">
<g>
	<path fill="#F1F1F2" d="M73.5,60.516c0,3.856-3.154,6.984-7.045,6.984h-92.91c-3.891,0-7.045-3.128-7.045-6.984v-89.034
		c0-3.856,3.154-6.982,7.045-6.982h92.91c3.891,0,7.045,3.126,7.045,6.982V60.516z"/>
	<g>
		<path fill="#0591A3" d="M-20.927,45.927v-23.17h9.679c1.009,0,1.937,0.211,2.782,0.637c0.845,0.423,1.575,0.978,2.189,1.663
			c0.614,0.686,1.091,1.465,1.432,2.333c0.339,0.871,0.51,1.752,0.51,2.644c0,0.957-0.159,1.877-0.478,2.757
			c-0.318,0.883-0.773,1.66-1.366,2.334c-0.592,0.675-1.3,1.22-2.123,1.632c-0.824,0.414-1.74,0.621-2.749,0.621h-7.605v8.55
			H-20.927z M-18.656,35.353h7.474c0.68,0,1.301-0.146,1.86-0.439c0.56-0.295,1.037-0.686,1.432-1.176s0.702-1.055,0.922-1.696
			c0.219-0.643,0.329-1.311,0.329-2.008c0-0.718-0.126-1.397-0.378-2.04c-0.253-0.641-0.593-1.201-1.021-1.679
			c-0.428-0.479-0.934-0.855-1.515-1.127c-0.582-0.271-1.191-0.408-1.827-0.408h-7.276V35.353z"/>
		<path fill="#0591A3" d="M8.999,46.089c-1.625,0-3.111-0.33-4.461-0.994c-1.349-0.663-2.507-1.544-3.473-2.644
			c-0.966-1.099-1.713-2.354-2.239-3.77c-0.527-1.414-0.791-2.861-0.791-4.341c0-1.545,0.28-3.022,0.84-4.438
			c0.56-1.413,1.333-2.665,2.32-3.752c0.988-1.088,2.151-1.953,3.491-2.595c1.338-0.641,2.787-0.963,4.345-0.963
			c1.624,0,3.111,0.344,4.461,1.028c1.35,0.686,2.502,1.582,3.457,2.693c0.955,1.108,1.695,2.364,2.222,3.768
			c0.527,1.404,0.79,2.835,0.79,4.292c0,1.544-0.28,3.024-0.839,4.438c-0.56,1.416-1.329,2.66-2.305,3.737
			c-0.977,1.076-2.135,1.938-3.474,2.577C12.006,45.769,10.557,46.089,8.999,46.089z M0.34,34.341c0,1.264,0.209,2.476,0.625,3.64
			c0.417,1.163,1.01,2.196,1.778,3.101c0.768,0.901,1.679,1.62,2.733,2.153c1.054,0.533,2.228,0.799,3.523,0.799
			c1.317,0,2.513-0.281,3.588-0.848c1.075-0.566,1.986-1.307,2.733-2.22c0.746-0.914,1.322-1.947,1.729-3.101
			c0.406-1.152,0.608-2.327,0.608-3.524c0-1.262-0.213-2.474-0.642-3.638c-0.427-1.163-1.026-2.192-1.793-3.085
			c-0.769-0.893-1.679-1.603-2.733-2.138c-1.054-0.531-2.217-0.799-3.49-0.799c-1.316,0-2.513,0.277-3.589,0.832
			c-1.075,0.555-1.986,1.288-2.732,2.202c-0.747,0.914-1.323,1.948-1.729,3.101C0.543,31.971,0.34,33.146,0.34,34.341z"/>
		<path fill="#0591A3" d="M38.104,27.097c-0.658-0.739-1.543-1.337-2.65-1.794c-1.109-0.457-2.354-0.686-3.736-0.686
			c-2.086,0-3.6,0.385-4.543,1.158c-0.945,0.773-1.416,1.821-1.416,3.149c0,0.697,0.125,1.267,0.379,1.712
			c0.252,0.447,0.646,0.832,1.184,1.16c0.539,0.326,1.219,0.609,2.043,0.848c0.822,0.239,1.795,0.478,2.912,0.718
			c1.252,0.262,2.371,0.549,3.359,0.865c0.988,0.314,1.832,0.717,2.535,1.207c0.701,0.489,1.24,1.089,1.613,1.794
			c0.373,0.709,0.559,1.583,0.559,2.628c0,1.066-0.209,1.991-0.625,2.774c-0.418,0.783-0.998,1.436-1.744,1.957
			c-0.748,0.522-1.635,0.909-2.666,1.159c-1.033,0.25-2.152,0.375-3.359,0.375c-3.666,0-6.793-1.121-9.383-3.362l1.119-1.858
			c0.855,0.892,2.008,1.647,3.457,2.267c1.447,0.621,3.061,0.932,4.84,0.932c1.865,0,3.326-0.332,4.379-0.996s1.58-1.669,1.58-3.019
			c0-0.719-0.148-1.322-0.443-1.812c-0.297-0.488-0.742-0.914-1.334-1.273c-0.594-0.357-1.334-0.668-2.223-0.93
			s-1.916-0.521-3.078-0.782c-1.23-0.283-2.305-0.576-3.227-0.881s-1.697-0.686-2.322-1.143s-1.096-1.007-1.414-1.647
			c-0.32-0.643-0.479-1.432-0.479-2.366c0-1.066,0.203-2.018,0.609-2.856c0.406-0.836,0.977-1.533,1.713-2.088
			c0.734-0.555,1.613-0.979,2.633-1.272c1.02-0.295,2.145-0.441,3.375-0.441c1.535,0,2.914,0.234,4.133,0.703
			c1.217,0.466,2.32,1.124,3.307,1.974L38.104,27.097z"/>
		<path fill="#0591A3" d="M60.887,24.779h-8.33v21.147h-2.305V24.779h-8.33v-2.022h18.965V24.779z"/>
	</g>
	<path fill="#0591A3" d="M39.617-6.998c0-8.962-8.783-16.227-19.617-16.227c-10.835,0-19.618,7.265-19.618,16.227
		C0.382,1.966,9.166,9.228,20,9.228c6.576,0,11.33-2.976,11.33-2.976l7.678,2.976l-3.676-6.102
		C35.332,3.126,39.617-1.019,39.617-6.998z"/>
</g>
</svg>
