<?xml version="1.0" encoding="utf-8"?>
<!-- Generator: Adobe Illustrator 16.0.0, SVG Export Plug-In . SVG Version: 6.00 Build 0)  -->
<!DOCTYPE svg PUBLIC "-//W3C//DTD SVG 1.1//EN" "http://www.w3.org/Graphics/SVG/1.1/DTD/svg11.dtd">
<svg version="1.1" id="Layer_1" xmlns="http://www.w3.org/2000/svg" xmlns:xlink="http://www.w3.org/1999/xlink" x="0px" y="0px"
	 width="188px" height="119px" viewBox="0 0 188 119" enable-background="new 0 0 188 119" xml:space="preserve">
<g>
	<path fill="#FED093" d="M18.931,97.736c-0.186-0.188-0.525-0.441-1.016-0.76c-0.492-0.32-1.09-0.633-1.793-0.939
		c-0.705-0.307-1.468-0.566-2.292-0.779s-1.661-0.32-2.511-0.32c-1.514,0-2.644,0.279-3.388,0.84
		c-0.744,0.559-1.116,1.346-1.116,2.357c0,0.588,0.14,1.074,0.419,1.459c0.278,0.387,0.684,0.727,1.215,1.02
		c0.531,0.293,1.202,0.561,2.013,0.799c0.81,0.24,1.747,0.494,2.81,0.76c1.381,0.373,2.636,0.773,3.766,1.199
		c1.129,0.426,2.086,0.959,2.87,1.6c0.783,0.639,1.388,1.404,1.814,2.297c0.424,0.895,0.637,1.994,0.637,3.299
		c0,1.52-0.286,2.818-0.857,3.896c-0.572,1.08-1.335,1.951-2.292,2.619c-0.957,0.664-2.073,1.152-3.348,1.459
		c-1.275,0.305-2.604,0.459-3.986,0.459c-2.126,0-4.225-0.32-6.297-0.959c-2.073-0.641-3.933-1.547-5.58-2.719l2.431-4.756
		c0.239,0.24,0.671,0.553,1.295,0.939c0.624,0.387,1.361,0.773,2.212,1.158c0.85,0.387,1.794,0.713,2.83,0.98
		c1.036,0.266,2.099,0.398,3.188,0.398c3.029,0,4.543-0.973,4.543-2.918c0-0.639-0.173-1.172-0.518-1.598
		c-0.346-0.426-0.837-0.801-1.475-1.119c-0.638-0.32-1.409-0.613-2.312-0.881c-0.904-0.266-1.913-0.545-3.029-0.838
		c-1.355-0.373-2.531-0.781-3.527-1.219c-0.996-0.441-1.827-0.953-2.491-1.539c-0.665-0.588-1.163-1.279-1.495-2.078
		c-0.333-0.801-0.499-1.746-0.499-2.838c0-1.439,0.266-2.719,0.797-3.838c0.531-1.119,1.269-2.053,2.212-2.799
		c0.943-0.746,2.039-1.311,3.288-1.697s2.591-0.58,4.025-0.58c1.993,0,3.826,0.313,5.5,0.939c1.674,0.625,3.135,1.365,4.384,2.217
		L18.931,97.736z"/>
	<path fill="#FED093" d="M38.46,114.004c1.301,0,2.397-0.268,3.289-0.801c0.89-0.531,1.607-1.225,2.152-2.078
		c0.544-0.852,0.93-1.832,1.156-2.938c0.225-1.105,0.339-2.244,0.339-3.418V90.301h5.46v14.469c0,1.947-0.232,3.771-0.697,5.477
		s-1.196,3.197-2.192,4.477c-0.997,1.279-2.279,2.293-3.846,3.037c-1.568,0.748-3.441,1.119-5.62,1.119
		c-2.259,0-4.179-0.393-5.759-1.18c-1.581-0.785-2.864-1.824-3.846-3.115c-0.983-1.293-1.694-2.793-2.132-4.498
		c-0.438-1.705-0.658-3.477-0.658-5.316V90.301h5.5v14.469c0,1.199,0.113,2.354,0.339,3.459s0.611,2.084,1.156,2.938
		c0.544,0.854,1.255,1.537,2.133,2.059C36.109,113.742,37.185,114.004,38.46,114.004z"/>
	<path fill="#FED093" d="M54.681,104.291c0-1.732,0.306-3.445,0.917-5.137c0.611-1.691,1.495-3.203,2.65-4.537
		c1.156-1.332,2.571-2.41,4.245-3.236s3.587-1.238,5.739-1.238c2.524,0,4.709,0.572,6.556,1.717
		c1.847,1.146,3.209,2.639,4.085,4.477l-4.225,2.918c-0.318-0.799-0.73-1.471-1.235-2.018c-0.505-0.547-1.057-0.98-1.654-1.299
		c-0.598-0.32-1.215-0.555-1.853-0.699c-0.638-0.146-1.25-0.221-1.833-0.221c-1.302,0-2.445,0.279-3.428,0.84
		c-0.983,0.559-1.8,1.285-2.451,2.178s-1.142,1.906-1.475,3.037c-0.332,1.133-0.498,2.258-0.498,3.379
		c0,1.252,0.193,2.457,0.578,3.617c0.385,1.158,0.93,2.178,1.634,3.057c0.704,0.881,1.547,1.586,2.531,2.119
		c0.983,0.533,2.059,0.799,3.228,0.799c0.611,0,1.236-0.08,1.874-0.24c0.638-0.158,1.255-0.412,1.854-0.758
		c0.598-0.348,1.148-0.793,1.654-1.34c0.504-0.547,0.917-1.205,1.235-1.979l4.504,2.598c-0.425,1.066-1.043,2.006-1.853,2.818
		c-0.811,0.813-1.734,1.498-2.771,2.059c-1.036,0.559-2.126,0.986-3.268,1.279c-1.143,0.293-2.272,0.439-3.388,0.439
		c-1.967,0-3.767-0.426-5.401-1.279c-1.634-0.854-3.042-1.965-4.225-3.338c-1.183-1.371-2.099-2.932-2.75-4.676
		C55.007,107.881,54.681,106.104,54.681,104.291z"/>
	<path fill="#FED093" d="M81.385,104.291c0-1.732,0.305-3.445,0.917-5.137c0.61-1.691,1.495-3.203,2.65-4.537
		c1.156-1.332,2.571-2.41,4.245-3.236c1.674-0.826,3.587-1.238,5.739-1.238c2.524,0,4.709,0.572,6.556,1.717
		c1.847,1.146,3.209,2.639,4.085,4.477l-4.225,2.918c-0.318-0.799-0.73-1.471-1.235-2.018s-1.056-0.98-1.653-1.299
		c-0.599-0.32-1.216-0.555-1.854-0.699c-0.638-0.146-1.25-0.221-1.833-0.221c-1.303,0-2.445,0.279-3.428,0.84
		c-0.983,0.559-1.8,1.285-2.451,2.178c-0.651,0.893-1.142,1.906-1.475,3.037c-0.332,1.133-0.498,2.258-0.498,3.379
		c0,1.252,0.192,2.457,0.578,3.617c0.385,1.158,0.93,2.178,1.634,3.057c0.704,0.881,1.548,1.586,2.531,2.119
		c0.982,0.533,2.059,0.799,3.228,0.799c0.611,0,1.236-0.08,1.874-0.24c0.638-0.158,1.255-0.412,1.853-0.758
		c0.599-0.348,1.149-0.793,1.654-1.34s0.917-1.205,1.235-1.979l4.504,2.598c-0.425,1.066-1.043,2.006-1.854,2.818
		s-1.733,1.498-2.77,2.059c-1.037,0.559-2.126,0.986-3.269,1.279s-2.271,0.439-3.387,0.439c-1.967,0-3.767-0.426-5.401-1.279
		c-1.634-0.854-3.043-1.965-4.225-3.338c-1.183-1.371-2.099-2.932-2.75-4.676C81.71,107.881,81.385,106.104,81.385,104.291z"/>
	<path fill="#FED093" d="M129.412,113.844v4.836h-19.648V90.301h19.289v4.838h-13.79v6.834h11.917v4.477h-11.917v7.395H129.412z"/>
	<path fill="#FED093" d="M150.376,97.736c-0.187-0.188-0.525-0.441-1.017-0.76c-0.491-0.32-1.09-0.633-1.793-0.939
		c-0.705-0.307-1.469-0.566-2.293-0.779c-0.823-0.213-1.66-0.32-2.51-0.32c-1.515,0-2.645,0.279-3.389,0.84
		c-0.743,0.559-1.115,1.346-1.115,2.357c0,0.588,0.14,1.074,0.419,1.459c0.278,0.387,0.683,0.727,1.215,1.02
		c0.531,0.293,1.202,0.561,2.014,0.799c0.81,0.24,1.746,0.494,2.81,0.76c1.381,0.373,2.637,0.773,3.766,1.199s2.087,0.959,2.87,1.6
		c0.783,0.639,1.389,1.404,1.813,2.297c0.426,0.895,0.638,1.994,0.638,3.299c0,1.52-0.286,2.818-0.856,3.896
		c-0.572,1.08-1.335,1.951-2.293,2.619c-0.955,0.664-2.072,1.152-3.347,1.459c-1.275,0.305-2.605,0.459-3.985,0.459
		c-2.128,0-4.226-0.32-6.298-0.959c-2.073-0.641-3.934-1.547-5.58-2.719l2.431-4.756c0.24,0.24,0.672,0.553,1.297,0.939
		c0.622,0.387,1.36,0.773,2.21,1.158c0.851,0.387,1.795,0.713,2.831,0.98c1.036,0.266,2.099,0.398,3.188,0.398
		c3.028,0,4.543-0.973,4.543-2.918c0-0.639-0.173-1.172-0.519-1.598c-0.344-0.426-0.837-0.801-1.474-1.119
		c-0.638-0.32-1.408-0.613-2.312-0.881c-0.904-0.266-1.913-0.545-3.029-0.838c-1.354-0.373-2.53-0.781-3.526-1.219
		c-0.997-0.441-1.828-0.953-2.491-1.539c-0.666-0.588-1.164-1.279-1.495-2.078c-0.332-0.801-0.498-1.746-0.498-2.838
		c0-1.439,0.265-2.719,0.796-3.838s1.27-2.053,2.213-2.799s2.04-1.311,3.288-1.697s2.591-0.58,4.025-0.58
		c1.993,0,3.826,0.313,5.5,0.939c1.675,0.625,3.135,1.365,4.385,2.217L150.376,97.736z"/>
	<path fill="#FED093" d="M174.888,97.736c-0.187-0.188-0.525-0.441-1.017-0.76c-0.491-0.32-1.09-0.633-1.794-0.939
		s-1.468-0.566-2.292-0.779c-0.823-0.213-1.66-0.32-2.511-0.32c-1.514,0-2.644,0.279-3.388,0.84
		c-0.744,0.559-1.115,1.346-1.115,2.357c0,0.588,0.139,1.074,0.418,1.459c0.278,0.387,0.684,0.727,1.216,1.02
		c0.531,0.293,1.201,0.561,2.013,0.799c0.81,0.24,1.747,0.494,2.811,0.76c1.381,0.373,2.636,0.773,3.766,1.199
		c1.129,0.426,2.086,0.959,2.869,1.6c0.783,0.639,1.389,1.404,1.814,2.297c0.425,0.895,0.637,1.994,0.637,3.299
		c0,1.52-0.286,2.818-0.856,3.896c-0.571,1.08-1.335,1.951-2.292,2.619c-0.956,0.664-2.072,1.152-3.348,1.459
		c-1.275,0.305-2.604,0.459-3.985,0.459c-2.127,0-4.225-0.32-6.298-0.959c-2.072-0.641-3.933-1.547-5.579-2.719l2.431-4.756
		c0.239,0.24,0.671,0.553,1.296,0.939c0.623,0.387,1.36,0.773,2.211,1.158c0.851,0.387,1.794,0.713,2.83,0.98
		c1.037,0.266,2.1,0.398,3.189,0.398c3.028,0,4.543-0.973,4.543-2.918c0-0.639-0.173-1.172-0.519-1.598
		c-0.345-0.426-0.837-0.801-1.475-1.119c-0.637-0.32-1.408-0.613-2.311-0.881c-0.905-0.266-1.913-0.545-3.03-0.838
		c-1.354-0.373-2.53-0.781-3.526-1.219c-0.996-0.441-1.827-0.953-2.491-1.539c-0.665-0.588-1.163-1.279-1.494-2.078
		c-0.333-0.801-0.498-1.746-0.498-2.838c0-1.439,0.265-2.719,0.796-3.838s1.269-2.053,2.212-2.799s2.04-1.311,3.288-1.697
		c1.249-0.387,2.592-0.58,4.025-0.58c1.993,0,3.826,0.313,5.5,0.939c1.675,0.625,3.136,1.365,4.385,2.217L174.888,97.736z"/>
	<path fill="#FED093" d="M182.658,108.008V90.021H188v17.986H182.658z M182.658,118.68v-6.035H188v6.035H182.658z"/>
</g>
<g>
	<path fill="#FED093" d="M92.407,36.162c0,2.576-1.845,4.665-4.122,4.665H73.77c-2.276,0-4.122-2.088-4.122-4.665v-0.583
		c0-2.576,1.846-4.667,4.122-4.667h14.515c2.277,0,4.122,2.09,4.122,4.667V36.162z"/>
	<path fill="#FED093" d="M90.687,70.861c0,2.576-1.843,4.668-4.12,4.668H75.229c-2.275,0-4.122-2.092-4.122-4.668v-0.678
		c0-2.576,1.847-4.668,4.122-4.668h11.337c2.277,0,4.12,2.092,4.12,4.668V70.861z"/>
	<path fill="#FED093" d="M95.511,59.312c0,2.577-1.847,4.665-4.125,4.665H71.121c-2.279,0-4.122-2.088-4.122-4.665v-0.681
		c0-2.576,1.843-4.665,4.122-4.665h20.265c2.279,0,4.125,2.088,4.125,4.665V59.312z"/>
	<path fill="#FED093" d="M95.511,47.711c0,2.58-1.847,4.668-4.125,4.668H69.489c-2.275,0-4.122-2.088-4.122-4.668V47.13
		c0-2.576,1.847-4.665,4.122-4.665h21.896c2.279,0,4.125,2.088,4.125,4.665V47.711z"/>
	<path fill="#FED093" d="M117.209,30.927c-3.919-1.669-6.894-5.718-7.962-9.177c-1.249-4.036-2.294-11.476-2.847-15.625
		c-0.388-2.916-3.875-6.197-7.688-6.125c-3.294,0.064-6.85,3.304-7.237,6.612c-0.578,4.939,1.582,16.269,3.684,20.508
		c0.926,1.872-2.909,3.79-2.909,3.79c1.291,1.14,2.11,2.805,2.11,4.667v0.583c0,1.94-0.884,3.667-2.269,4.811
		c3.031,0.408,5.37,3.004,5.372,6.158v0.582l0,0c0,2.357-1.308,4.405-3.229,5.461c1.922,1.058,3.229,3.105,3.229,5.458v0.681
		c-0.002,3.436-2.778,6.219-6.205,6.219h-0.928c1.278,1.141,2.092,2.799,2.092,4.652v0.678c0,1.844-0.802,3.49-2.069,4.631h26.007
		c3.548-0.189,5.616-2.135,6.65-7.576c1.351-7.104,2.08-23.507,1.292-27.996C123.524,35.512,120.601,32.372,117.209,30.927z"/>
</g>
</svg>
