<?xml version="1.0" encoding="utf-8"?>
<!-- Generator: Adobe Illustrator 16.0.0, SVG Export Plug-In . SVG Version: 6.00 Build 0)  -->
<!DOCTYPE svg PUBLIC "-//W3C//DTD SVG 1.1//EN" "http://www.w3.org/Graphics/SVG/1.1/DTD/svg11.dtd">
<svg version="1.1" id="Layer_1" xmlns="http://www.w3.org/2000/svg" xmlns:xlink="http://www.w3.org/1999/xlink" x="0px" y="0px"
	 width="28px" height="28px" viewBox="0 0 28 28" enable-background="new 0 0 28 28" xml:space="preserve">
<g>
	<circle fill="#542437" cx="14" cy="14" r="14"/>
	<g>
		<g>
			<path fill="#F1F2F2" d="M20.818,12.164l-6.5,6.499c-0.083,0.084-0.208,0.141-0.32,0.141s-0.237-0.057-0.321-0.141l-6.499-6.499
				c-0.083-0.083-0.14-0.209-0.14-0.321s0.056-0.237,0.14-0.321l0.697-0.697c0.083-0.083,0.195-0.14,0.321-0.14
				c0.112,0,0.237,0.056,0.321,0.14l5.481,5.481l5.48-5.481c0.084-0.083,0.209-0.14,0.322-0.14c0.111,0,0.236,0.056,0.32,0.14
				l0.697,0.697c0.084,0.083,0.139,0.209,0.139,0.321S20.902,12.08,20.818,12.164z"/>
		</g>
	</g>
</g>
</svg>
