<?xml version="1.0" encoding="utf-8"?>
<!-- Generator: Adobe Illustrator 16.0.0, SVG Export Plug-In . SVG Version: 6.00 Build 0)  -->
<!DOCTYPE svg PUBLIC "-//W3C//DTD SVG 1.1//EN" "http://www.w3.org/Graphics/SVG/1.1/DTD/svg11.dtd">
<svg version="1.1" id="Layer_1" xmlns="http://www.w3.org/2000/svg" xmlns:xlink="http://www.w3.org/1999/xlink" x="0px" y="0px"
	 width="120px" height="121px" viewBox="0 0 120 121" enable-background="new 0 0 120 121" xml:space="preserve">
<g>
	<path fill="#0992A4" d="M120,115.41c0,3.089-2.152,5.59-4.804,5.59H4.804C2.152,121,0,118.499,0,115.41V5.591
		C0,2.504,2.152,0,4.804,0h110.393C117.848,0,120,2.504,120,5.591V115.41z"/>
	<g>
		<path fill="#F1F2F2" d="M50.046,75.066c-0.32-0.361-0.75-0.653-1.288-0.877c-0.539-0.223-1.145-0.335-1.816-0.335
			c-1.015,0-1.75,0.189-2.209,0.566c-0.459,0.378-0.688,0.891-0.688,1.539c0,0.341,0.061,0.619,0.184,0.837s0.314,0.406,0.576,0.566
			c0.261,0.159,0.592,0.298,0.992,0.414c0.399,0.117,0.873,0.234,1.417,0.351c0.607,0.128,1.151,0.269,1.632,0.423
			c0.479,0.154,0.891,0.352,1.231,0.591c0.342,0.238,0.603,0.531,0.784,0.877c0.182,0.345,0.272,0.772,0.272,1.283
			c0,0.521-0.102,0.973-0.304,1.354c-0.203,0.383-0.486,0.702-0.849,0.957s-0.795,0.443-1.296,0.566
			c-0.501,0.122-1.046,0.183-1.632,0.183c-1.782,0-3.303-0.547-4.562-1.642l0.544-0.909c0.416,0.437,0.977,0.806,1.681,1.108
			s1.488,0.454,2.353,0.454c0.907,0,1.616-0.162,2.128-0.485c0.513-0.324,0.769-0.816,0.769-1.476c0-0.351-0.072-0.646-0.216-0.885
			c-0.145-0.239-0.36-0.447-0.648-0.622s-0.648-0.327-1.08-0.454c-0.432-0.128-0.931-0.256-1.496-0.383
			c-0.599-0.139-1.121-0.281-1.568-0.432c-0.448-0.147-0.824-0.334-1.128-0.558c-0.305-0.223-0.534-0.491-0.688-0.805
			s-0.232-0.698-0.232-1.156c0-0.521,0.099-0.985,0.297-1.396c0.197-0.408,0.474-0.749,0.831-1.02
			c0.357-0.271,0.784-0.479,1.28-0.622c0.496-0.145,1.044-0.216,1.642-0.216c0.746,0,1.416,0.114,2.008,0.343
			c0.592,0.229,1.128,0.551,1.607,0.965L50.046,75.066z"/>
		<path fill="#F1F2F2" d="M55.087,84.427c-0.427,0-0.816-0.067-1.168-0.199c-0.352-0.133-0.653-0.316-0.904-0.55
			c-0.25-0.233-0.445-0.505-0.584-0.813c-0.139-0.308-0.208-0.633-0.208-0.973c0-0.383,0.086-0.73,0.256-1.044
			c0.171-0.313,0.411-0.582,0.721-0.806c0.309-0.224,0.68-0.396,1.111-0.519c0.433-0.122,0.909-0.184,1.433-0.184
			c0.416,0,0.842,0.038,1.279,0.112c0.438,0.074,0.828,0.181,1.17,0.318v-0.749c0-0.733-0.211-1.315-0.633-1.746
			s-0.99-0.646-1.705-0.646c-0.447,0-0.893,0.086-1.336,0.256c-0.442,0.17-0.894,0.414-1.352,0.733l-0.384-0.717
			c0.544-0.362,1.071-0.633,1.584-0.814c0.512-0.181,1.045-0.271,1.6-0.271c1.014,0,1.819,0.293,2.417,0.878
			c0.598,0.584,0.896,1.393,0.896,2.424v3.747c0,0.298,0.128,0.446,0.384,0.446v0.957c-0.086,0.011-0.166,0.019-0.24,0.024
			c-0.074,0.005-0.139,0.008-0.192,0.008c-0.213,0-0.407-0.064-0.584-0.192c-0.176-0.127-0.274-0.319-0.296-0.574l-0.031-0.652
			c-0.363,0.488-0.841,0.869-1.434,1.14C56.295,84.292,55.695,84.427,55.087,84.427z M55.359,83.598
			c0.479,0,0.957-0.104,1.432-0.312s0.852-0.491,1.129-0.853c0.074-0.096,0.139-0.199,0.192-0.312c0.053-0.11,0.08-0.215,0.08-0.311
			v-1.355c-0.363-0.138-0.742-0.244-1.138-0.318c-0.395-0.075-0.778-0.111-1.151-0.111c-0.779,0-1.411,0.156-1.896,0.47
			s-0.728,0.747-0.728,1.299c0,0.225,0.042,0.442,0.128,0.654c0.085,0.213,0.216,0.404,0.392,0.574s0.393,0.309,0.648,0.415
			C54.703,83.544,55.007,83.598,55.359,83.598z"/>
		<path fill="#F1F2F2" d="M63.856,84.268l-3.393-8.308H61.6l2.865,7.303l2.88-7.303h1.057l-3.393,8.308H63.856z"/>
		<path fill="#F1F2F2" d="M73.49,84.427c-0.608,0-1.168-0.114-1.681-0.343c-0.512-0.229-0.954-0.542-1.328-0.94
			c-0.373-0.399-0.664-0.858-0.872-1.38c-0.208-0.521-0.312-1.079-0.312-1.675c0-0.584,0.104-1.134,0.312-1.649
			s0.499-0.967,0.872-1.355c0.374-0.389,0.813-0.696,1.32-0.925s1.064-0.344,1.672-0.344c0.609,0,1.166,0.115,1.673,0.344
			s0.941,0.539,1.305,0.933c0.362,0.393,0.645,0.846,0.848,1.355c0.202,0.51,0.304,1.052,0.304,1.626
			c0,0.086-0.003,0.171-0.008,0.256c-0.006,0.085-0.014,0.144-0.023,0.175H70.45c0.031,0.446,0.136,0.859,0.312,1.236
			s0.4,0.704,0.672,0.98c0.272,0.276,0.587,0.491,0.944,0.646s0.738,0.231,1.144,0.231c0.278,0,0.551-0.037,0.817-0.112
			c0.267-0.073,0.512-0.175,0.736-0.302c0.224-0.128,0.424-0.284,0.6-0.471c0.176-0.186,0.312-0.391,0.408-0.614l0.943,0.255
			c-0.128,0.309-0.309,0.588-0.544,0.837c-0.234,0.251-0.507,0.469-0.815,0.654c-0.31,0.187-0.651,0.33-1.024,0.431
			S73.886,84.427,73.49,84.427z M76.563,79.675c-0.031-0.446-0.136-0.853-0.312-1.22s-0.4-0.684-0.672-0.949
			c-0.272-0.266-0.59-0.473-0.952-0.621c-0.363-0.149-0.747-0.224-1.153-0.224c-0.405,0-0.789,0.074-1.151,0.224
			c-0.363,0.148-0.681,0.355-0.952,0.621c-0.272,0.266-0.491,0.585-0.656,0.957c-0.166,0.373-0.264,0.776-0.296,1.212H76.563z"/>
		<path fill="#F1F2F2" d="M42.309,103.562c-0.704,0-1.329-0.178-1.873-0.534s-0.981-0.805-1.313-1.347v5.118h-1.088V95.095h0.976
			v1.61c0.342-0.521,0.784-0.943,1.328-1.268s1.138-0.487,1.777-0.487c0.576,0,1.106,0.12,1.592,0.359s0.904,0.559,1.256,0.957
			c0.353,0.398,0.627,0.858,0.824,1.379c0.197,0.521,0.296,1.058,0.296,1.61c0,0.585-0.091,1.138-0.271,1.658
			c-0.182,0.521-0.44,0.979-0.776,1.372c-0.336,0.393-0.736,0.704-1.2,0.933S42.862,103.562,42.309,103.562z M42.004,102.604
			c0.448,0,0.854-0.096,1.216-0.287c0.363-0.191,0.675-0.443,0.937-0.757c0.261-0.313,0.461-0.67,0.6-1.068
			c0.139-0.399,0.208-0.811,0.208-1.236c0-0.446-0.08-0.871-0.239-1.275c-0.16-0.404-0.379-0.76-0.656-1.068
			s-0.605-0.553-0.984-0.733s-0.786-0.271-1.224-0.271c-0.277,0-0.565,0.056-0.864,0.167c-0.3,0.111-0.582,0.26-0.849,0.446
			s-0.494,0.404-0.681,0.653c-0.187,0.251-0.301,0.514-0.344,0.79v2.551c0.128,0.298,0.291,0.574,0.488,0.829
			c0.197,0.256,0.421,0.476,0.672,0.662c0.25,0.187,0.522,0.332,0.817,0.438C41.394,102.552,41.694,102.604,42.004,102.604z"/>
		<path fill="#F1F2F2" d="M52.038,96.051c-0.737,0.021-1.377,0.224-1.921,0.606s-0.928,0.908-1.152,1.579v5.166h-1.088v-8.308h1.024
			v1.993c0.288-0.585,0.666-1.07,1.136-1.459c0.469-0.389,0.976-0.582,1.52-0.582c0.097,0,0.187,0,0.272,0s0.155,0.005,0.209,0.016
			V96.051z"/>
		<path fill="#F1F2F2" d="M56.71,103.562c-0.607,0-1.165-0.114-1.672-0.343s-0.943-0.54-1.312-0.933
			c-0.368-0.394-0.653-0.851-0.856-1.372c-0.202-0.521-0.304-1.068-0.304-1.642c0-0.585,0.104-1.138,0.312-1.658
			s0.496-0.979,0.864-1.371c0.368-0.394,0.806-0.708,1.313-0.941c0.506-0.233,1.059-0.352,1.655-0.352
			c0.598,0,1.15,0.118,1.657,0.352s0.944,0.548,1.313,0.941c0.367,0.393,0.655,0.851,0.863,1.371s0.313,1.073,0.313,1.658
			c0,0.573-0.104,1.121-0.313,1.642c-0.208,0.521-0.496,0.979-0.863,1.372c-0.368,0.393-0.806,0.704-1.313,0.933
			S57.308,103.562,56.71,103.562z M53.687,99.288c0,0.468,0.077,0.901,0.231,1.3c0.155,0.398,0.368,0.749,0.641,1.053
			c0.271,0.303,0.592,0.539,0.96,0.709c0.368,0.171,0.76,0.255,1.176,0.255s0.809-0.087,1.177-0.264
			c0.368-0.175,0.69-0.414,0.969-0.717c0.276-0.303,0.495-0.656,0.655-1.06c0.16-0.404,0.24-0.84,0.24-1.309
			c0-0.456-0.08-0.891-0.24-1.299c-0.16-0.409-0.379-0.767-0.655-1.069c-0.278-0.302-0.598-0.542-0.961-0.717
			c-0.362-0.175-0.753-0.263-1.169-0.263s-0.808,0.088-1.176,0.263s-0.688,0.418-0.96,0.725c-0.271,0.309-0.488,0.668-0.647,1.077
			C53.767,98.382,53.687,98.82,53.687,99.288z"/>
		<path fill="#F1F2F2" d="M63.08,96.928h-1.153v-0.861h1.153v-1.194c0-0.384,0.056-0.771,0.168-1.164
			c0.112-0.394,0.288-0.745,0.527-1.054c0.24-0.308,0.547-0.561,0.921-0.757c0.373-0.196,0.815-0.295,1.327-0.295
			c0.598,0,1.104,0.091,1.521,0.271c0.416,0.181,0.715,0.341,0.896,0.479l-0.496,0.782c-0.182-0.16-0.438-0.295-0.769-0.407
			s-0.693-0.167-1.088-0.167c-0.342,0-0.632,0.068-0.872,0.207c-0.24,0.138-0.438,0.313-0.592,0.526
			c-0.155,0.212-0.27,0.456-0.344,0.733c-0.075,0.276-0.112,0.548-0.112,0.813v1.227h4.177v7.336h-1.089v-6.475h-3.088v6.475H63.08
			V96.928z"/>
		<path fill="#F1F2F2" d="M70.729,91.762h1.088v9.759c0,0.309,0.086,0.55,0.256,0.726c0.171,0.175,0.411,0.263,0.721,0.263
			c0.117,0,0.256-0.016,0.416-0.048c0.16-0.031,0.309-0.074,0.448-0.128l0.192,0.877c-0.204,0.086-0.452,0.155-0.745,0.208
			s-0.547,0.079-0.76,0.079c-0.502,0-0.896-0.14-1.184-0.422c-0.288-0.281-0.433-0.678-0.433-1.188V91.762z"/>
		<path fill="#F1F2F2" d="M78.554,103.562c-0.608,0-1.168-0.114-1.681-0.343c-0.512-0.229-0.954-0.542-1.328-0.94
			c-0.373-0.399-0.664-0.858-0.872-1.38c-0.208-0.521-0.312-1.079-0.312-1.675c0-0.584,0.104-1.134,0.312-1.649
			s0.499-0.968,0.872-1.355c0.374-0.389,0.813-0.696,1.32-0.925s1.064-0.344,1.672-0.344c0.608,0,1.166,0.115,1.673,0.344
			s0.941,0.539,1.305,0.933c0.362,0.393,0.645,0.846,0.848,1.355c0.202,0.51,0.304,1.052,0.304,1.626
			c0,0.086-0.003,0.171-0.008,0.255c-0.006,0.086-0.014,0.145-0.023,0.176h-7.121c0.031,0.446,0.136,0.859,0.312,1.236
			s0.4,0.704,0.672,0.98c0.272,0.276,0.587,0.491,0.944,0.646s0.738,0.231,1.144,0.231c0.277,0,0.551-0.037,0.817-0.112
			c0.267-0.073,0.512-0.175,0.736-0.303c0.224-0.127,0.424-0.284,0.6-0.47s0.312-0.392,0.408-0.614l0.943,0.255
			c-0.128,0.309-0.309,0.588-0.544,0.837c-0.234,0.251-0.507,0.469-0.815,0.654c-0.31,0.187-0.651,0.33-1.024,0.431
			S78.948,103.562,78.554,103.562z M81.626,98.81c-0.031-0.446-0.136-0.853-0.312-1.22s-0.4-0.684-0.672-0.949
			c-0.272-0.266-0.59-0.473-0.952-0.621c-0.363-0.149-0.748-0.224-1.153-0.224s-0.789,0.074-1.151,0.224
			c-0.363,0.148-0.681,0.355-0.952,0.621c-0.272,0.266-0.491,0.585-0.656,0.957c-0.166,0.373-0.264,0.776-0.296,1.212H81.626z"/>
	</g>
	<g>
		<path fill="#F1F2F2" d="M40.017,38.461c-4.348,0-8.296,1.98-11.24,5.209c-3.213,3.527-5.226,8.543-5.226,14.115h5.226H38.8
			c1.65-6.763,5.548-12.424,10.684-15.807C46.806,39.766,43.541,38.461,40.017,38.461z"/>
		<ellipse fill="#F1F2F2" cx="40.017" cy="29.698" rx="7.541" ry="7.514"/>
		<path fill="#F1F2F2" d="M90.853,42.734c-2.899-2.993-6.703-4.813-10.867-4.813c-3.489,0-6.719,1.276-9.379,3.446
			c5.481,3.203,9.703,8.932,11.535,15.877h8.711h5.599C96.451,51.464,94.282,46.277,90.853,42.734z"/>
		<ellipse fill="#F1F2F2" cx="60.538" cy="26.543" rx="10.104" ry="10.069"/>
		<path fill="#F1F2F2" d="M81.021,57.244c-1.83-6.675-5.952-12.152-11.268-15.132c-2.796-1.566-5.919-2.443-9.215-2.443
			c-3.698,0-7.177,1.105-10.219,3.047c-4.97,3.17-8.759,8.578-10.404,15.069c-0.539,2.13-0.854,4.373-0.895,6.696h43.033
			C82.009,61.962,81.647,59.534,81.021,57.244z"/>
		<ellipse fill="#F1F2F2" cx="79.985" cy="29.158" rx="7.54" ry="7.515"/>
	</g>
</g>
</svg>
