<?xml version="1.0" encoding="utf-8"?>
<!-- Generator: Adobe Illustrator 16.0.0, SVG Export Plug-In . SVG Version: 6.00 Build 0)  -->
<!DOCTYPE svg PUBLIC "-//W3C//DTD SVG 1.1//EN" "http://www.w3.org/Graphics/SVG/1.1/DTD/svg11.dtd">
<svg version="1.1" id="Layer_1" xmlns="http://www.w3.org/2000/svg" xmlns:xlink="http://www.w3.org/1999/xlink" x="0px" y="0px"
	 width="120px" height="121px" viewBox="0 0 120 121" enable-background="new 0 0 120 121" xml:space="preserve">
<g>
	<path fill="#0992A4" d="M120,115.408c0,3.088-2.152,5.592-4.806,5.592H4.804C2.152,121,0,118.496,0,115.408V5.591
		C0,2.504,2.152,0,4.804,0h110.391C117.848,0,120,2.504,120,5.591V115.408z"/>
	<g>
		<path fill="#F1F2F2" d="M48.899,75.066c-0.32-0.361-0.75-0.652-1.288-0.877c-0.539-0.223-1.145-0.334-1.817-0.334
			c-1.014,0-1.749,0.188-2.208,0.566c-0.459,0.377-0.688,0.889-0.688,1.537c0,0.342,0.061,0.619,0.184,0.838
			c0.123,0.217,0.314,0.406,0.576,0.566c0.261,0.158,0.592,0.297,0.992,0.414c0.399,0.117,0.872,0.232,1.416,0.35
			c0.608,0.129,1.152,0.27,1.633,0.424c0.479,0.154,0.891,0.352,1.231,0.592c0.342,0.236,0.603,0.531,0.784,0.875
			c0.182,0.346,0.272,0.773,0.272,1.285c0,0.52-0.102,0.971-0.304,1.354c-0.203,0.383-0.486,0.701-0.849,0.957
			c-0.362,0.254-0.795,0.443-1.296,0.566c-0.501,0.121-1.046,0.182-1.633,0.182c-1.781,0-3.302-0.547-4.561-1.641l0.544-0.908
			c0.416,0.436,0.977,0.803,1.681,1.107c0.704,0.303,1.488,0.453,2.352,0.453c0.908,0,1.617-0.162,2.129-0.484
			c0.513-0.324,0.769-0.816,0.769-1.475c0-0.352-0.072-0.646-0.216-0.887c-0.145-0.24-0.36-0.445-0.648-0.621
			s-0.648-0.326-1.08-0.455c-0.433-0.127-0.932-0.256-1.497-0.381c-0.598-0.139-1.12-0.283-1.567-0.434
			c-0.448-0.146-0.824-0.334-1.128-0.557c-0.305-0.223-0.534-0.492-0.688-0.805c-0.154-0.314-0.232-0.699-0.232-1.156
			c0-0.52,0.099-0.984,0.297-1.396c0.197-0.408,0.474-0.748,0.831-1.02c0.357-0.27,0.784-0.479,1.28-0.621
			c0.496-0.145,1.043-0.215,1.641-0.215c0.747,0,1.417,0.113,2.009,0.342c0.592,0.23,1.128,0.551,1.607,0.965L48.899,75.066z"/>
		<path fill="#F1F2F2" d="M55.396,84.426c-0.608,0-1.168-0.115-1.681-0.342c-0.512-0.229-0.954-0.541-1.328-0.941
			c-0.373-0.398-0.665-0.857-0.873-1.379c-0.208-0.52-0.312-1.078-0.312-1.674c0-0.584,0.104-1.135,0.312-1.65
			s0.5-0.969,0.873-1.355c0.374-0.389,0.813-0.697,1.32-0.924c0.507-0.23,1.064-0.346,1.672-0.346c0.608,0,1.165,0.115,1.672,0.346
			c0.508,0.227,0.942,0.539,1.306,0.932c0.362,0.393,0.645,0.846,0.848,1.355c0.202,0.51,0.304,1.053,0.304,1.627
			c0,0.086-0.003,0.17-0.008,0.254c-0.006,0.086-0.014,0.145-0.023,0.176h-7.121c0.031,0.445,0.136,0.859,0.312,1.236
			s0.4,0.705,0.672,0.98c0.272,0.277,0.587,0.49,0.944,0.645c0.357,0.156,0.738,0.232,1.144,0.232c0.277,0,0.55-0.037,0.816-0.111
			s0.512-0.176,0.736-0.305c0.224-0.125,0.425-0.283,0.601-0.469s0.312-0.391,0.408-0.615l0.943,0.256
			c-0.128,0.309-0.309,0.588-0.544,0.836c-0.234,0.252-0.507,0.471-0.815,0.654c-0.311,0.188-0.652,0.332-1.025,0.43
			C56.175,84.375,55.791,84.426,55.396,84.426z M58.469,79.676c-0.031-0.447-0.136-0.854-0.312-1.221s-0.4-0.684-0.672-0.949
			c-0.273-0.266-0.591-0.473-0.953-0.623c-0.363-0.146-0.747-0.221-1.152-0.221s-0.789,0.074-1.151,0.221
			c-0.363,0.15-0.681,0.357-0.952,0.623c-0.272,0.266-0.491,0.584-0.656,0.957c-0.166,0.373-0.264,0.775-0.296,1.213H58.469z"/>
		<path fill="#F1F2F2" d="M68.149,84.268h-1.088v-4.641c0-0.99-0.144-1.705-0.432-2.154c-0.288-0.445-0.736-0.668-1.345-0.668
			c-0.319,0-0.64,0.059-0.96,0.176c-0.319,0.117-0.618,0.281-0.896,0.492c-0.277,0.215-0.521,0.467-0.729,0.76
			c-0.208,0.293-0.365,0.607-0.472,0.947v5.088h-1.088v-8.309h0.992v1.883c0.17-0.299,0.381-0.572,0.632-0.822
			c0.252-0.248,0.531-0.465,0.841-0.646c0.31-0.18,0.638-0.318,0.984-0.414s0.706-0.145,1.08-0.145c0.469,0,0.861,0.086,1.176,0.258
			c0.314,0.17,0.568,0.408,0.76,0.717c0.192,0.309,0.331,0.684,0.416,1.133c0.085,0.445,0.128,0.939,0.128,1.482V84.268z"/>
		<path fill="#F1F2F2" d="M73.863,84.426c-0.577,0-1.11-0.119-1.601-0.357c-0.491-0.24-0.915-0.555-1.272-0.949
			s-0.635-0.848-0.832-1.363s-0.296-1.055-0.296-1.617c0-0.586,0.096-1.141,0.288-1.668c0.191-0.525,0.456-0.986,0.792-1.379
			s0.736-0.705,1.2-0.932c0.464-0.23,0.973-0.346,1.528-0.346c0.704,0,1.328,0.186,1.872,0.551c0.544,0.369,0.977,0.813,1.296,1.332
			v-5.07h1.089v10.236c0,0.297,0.128,0.447,0.384,0.447v0.957c-0.182,0.031-0.326,0.047-0.433,0.047
			c-0.267,0-0.485-0.076-0.655-0.23c-0.171-0.154-0.257-0.338-0.257-0.551v-0.877c-0.341,0.541-0.792,0.975-1.352,1.291
			C75.056,84.268,74.472,84.426,73.863,84.426z M74.087,83.471c0.277,0,0.568-0.055,0.872-0.16c0.305-0.107,0.587-0.252,0.849-0.439
			c0.261-0.186,0.487-0.402,0.68-0.652s0.31-0.52,0.352-0.805v-2.568c-0.106-0.285-0.264-0.555-0.472-0.807
			c-0.208-0.248-0.442-0.469-0.704-0.66s-0.539-0.34-0.832-0.447c-0.293-0.105-0.584-0.158-0.872-0.158
			c-0.448,0-0.856,0.096-1.225,0.285c-0.368,0.193-0.68,0.445-0.937,0.76c-0.256,0.313-0.456,0.672-0.6,1.076
			c-0.144,0.402-0.216,0.818-0.216,1.244c0,0.445,0.08,0.869,0.24,1.275c0.159,0.402,0.378,0.756,0.655,1.061
			c0.277,0.301,0.605,0.545,0.984,0.723C73.241,83.379,73.649,83.471,74.087,83.471z"/>
		<path fill="#F1F2F2" d="M14.39,103.563c-0.65,0-1.255-0.166-1.809-0.496c-0.556-0.328-0.987-0.754-1.297-1.275v1.611h-0.976
			V91.762h1.088v5.07c0.373-0.564,0.821-1.018,1.344-1.363s1.138-0.518,1.842-0.518c0.575,0,1.098,0.123,1.567,0.365
			c0.47,0.246,0.866,0.572,1.192,0.98c0.325,0.412,0.576,0.873,0.752,1.389s0.264,1.043,0.264,1.586
			c0,0.584-0.102,1.137-0.304,1.658c-0.203,0.521-0.482,0.977-0.84,1.363c-0.357,0.389-0.779,0.697-1.265,0.926
			S14.944,103.563,14.39,103.563z M14.134,102.604c0.458,0,0.877-0.094,1.256-0.277c0.379-0.188,0.704-0.436,0.976-0.75
			c0.272-0.313,0.485-0.67,0.641-1.068c0.154-0.398,0.231-0.811,0.231-1.236c0-0.436-0.071-0.855-0.216-1.26
			c-0.144-0.404-0.347-0.762-0.607-1.076c-0.262-0.313-0.574-0.564-0.937-0.748c-0.362-0.188-0.763-0.279-1.2-0.279
			c-0.33,0-0.64,0.055-0.929,0.168c-0.288,0.111-0.555,0.262-0.8,0.453c-0.246,0.191-0.467,0.412-0.664,0.662
			c-0.197,0.248-0.36,0.514-0.488,0.787v2.586c0.043,0.285,0.157,0.555,0.344,0.803c0.187,0.252,0.414,0.467,0.681,0.646
			c0.267,0.182,0.549,0.326,0.848,0.432S13.856,102.604,14.134,102.604z"/>
		<path fill="#F1F2F2" d="M22.742,103.563c-0.875,0-1.536-0.303-1.984-0.902c-0.448-0.602-0.672-1.496-0.672-2.688v-4.879h1.088
			v4.688c0,1.883,0.646,2.822,1.937,2.822c0.319,0,0.634-0.053,0.943-0.158s0.596-0.262,0.857-0.463
			c0.261-0.201,0.496-0.441,0.704-0.717c0.208-0.277,0.376-0.59,0.504-0.941v-5.23h1.088v6.904c0,0.299,0.133,0.447,0.4,0.447v0.957
			c-0.214,0.031-0.363,0.047-0.448,0.047c-0.246,0-0.456-0.074-0.632-0.223c-0.177-0.15-0.265-0.334-0.265-0.559v-1.148
			c-0.373,0.648-0.869,1.15-1.487,1.508C24.155,103.383,23.479,103.563,22.742,103.563z"/>
		<path fill="#F1F2F2" d="M32.472,103.563c-0.65,0-1.285-0.107-1.903-0.32c-0.62-0.211-1.153-0.521-1.602-0.924l0.496-0.734
			c0.47,0.381,0.947,0.67,1.433,0.861s1.006,0.287,1.561,0.287c0.672,0,1.208-0.137,1.607-0.406c0.4-0.271,0.601-0.656,0.601-1.156
			c0-0.234-0.054-0.428-0.16-0.582s-0.264-0.291-0.472-0.406c-0.208-0.117-0.47-0.221-0.784-0.313
			c-0.314-0.09-0.68-0.184-1.096-0.277c-0.48-0.117-0.896-0.234-1.248-0.352c-0.353-0.117-0.644-0.25-0.872-0.398
			c-0.23-0.15-0.401-0.334-0.514-0.551c-0.111-0.219-0.168-0.49-0.168-0.822c0-0.414,0.083-0.779,0.248-1.1
			c0.166-0.318,0.39-0.582,0.673-0.787c0.283-0.209,0.613-0.365,0.992-0.473c0.379-0.105,0.781-0.158,1.208-0.158
			c0.641,0,1.222,0.104,1.744,0.311s0.944,0.48,1.264,0.822l-0.527,0.637c-0.31-0.32-0.686-0.557-1.128-0.717
			c-0.443-0.16-0.904-0.24-1.385-0.24c-0.287,0-0.555,0.029-0.8,0.088s-0.461,0.152-0.647,0.279
			c-0.188,0.127-0.334,0.289-0.44,0.486c-0.106,0.195-0.16,0.428-0.16,0.693c0,0.223,0.037,0.404,0.112,0.543
			c0.074,0.137,0.197,0.256,0.368,0.357c0.17,0.102,0.387,0.193,0.647,0.273c0.262,0.076,0.579,0.16,0.952,0.244
			c0.533,0.129,1.003,0.258,1.408,0.383c0.405,0.129,0.744,0.277,1.016,0.447c0.272,0.17,0.478,0.377,0.617,0.623
			c0.139,0.244,0.208,0.541,0.208,0.893c0,0.766-0.294,1.371-0.881,1.818C34.253,103.338,33.464,103.563,32.472,103.563z"/>
		<path fill="#F1F2F2" d="M37.465,93.357v-1.596h1.088v1.596H37.465z M37.465,103.402v-8.309h1.088v8.309H37.465z"/>
		<path fill="#F1F2F2" d="M47.898,103.402h-1.088v-4.641c0-0.988-0.144-1.707-0.433-2.152c-0.288-0.445-0.736-0.67-1.345-0.67
			c-0.319,0-0.64,0.059-0.96,0.176c-0.319,0.115-0.618,0.281-0.896,0.494c-0.277,0.211-0.521,0.465-0.729,0.758
			c-0.208,0.291-0.365,0.607-0.472,0.949v5.086h-1.089v-8.309h0.993v1.881c0.17-0.295,0.381-0.57,0.632-0.82s0.53-0.465,0.84-0.645
			c0.31-0.182,0.638-0.32,0.984-0.416c0.347-0.094,0.706-0.143,1.08-0.143c0.469,0,0.861,0.086,1.177,0.254
			c0.314,0.17,0.568,0.41,0.76,0.719c0.192,0.307,0.331,0.686,0.416,1.131c0.085,0.447,0.128,0.941,0.128,1.482V103.402z"/>
		<path fill="#F1F2F2" d="M53.804,103.563c-0.608,0-1.168-0.115-1.681-0.344s-0.955-0.543-1.329-0.941
			c-0.373-0.398-0.664-0.859-0.872-1.379c-0.208-0.521-0.312-1.08-0.312-1.676c0-0.584,0.104-1.133,0.312-1.648
			s0.499-0.967,0.872-1.355c0.374-0.389,0.813-0.695,1.321-0.926c0.507-0.227,1.064-0.342,1.672-0.342
			c0.608,0,1.165,0.115,1.672,0.342c0.507,0.23,0.941,0.539,1.305,0.934c0.362,0.393,0.646,0.846,0.849,1.355
			c0.202,0.51,0.304,1.051,0.304,1.625c0,0.086-0.003,0.172-0.008,0.256c-0.006,0.086-0.014,0.145-0.023,0.176h-7.122
			c0.031,0.447,0.136,0.859,0.312,1.234c0.176,0.379,0.4,0.705,0.672,0.982c0.273,0.275,0.588,0.492,0.945,0.645
			c0.357,0.154,0.738,0.232,1.144,0.232c0.277,0,0.55-0.037,0.816-0.113c0.267-0.074,0.512-0.174,0.736-0.301
			c0.224-0.129,0.424-0.285,0.6-0.471s0.312-0.393,0.408-0.613l0.943,0.254c-0.128,0.309-0.309,0.588-0.544,0.838
			c-0.234,0.248-0.507,0.467-0.815,0.654c-0.31,0.184-0.651,0.328-1.024,0.43S54.198,103.563,53.804,103.563z M56.875,98.809
			c-0.031-0.445-0.136-0.854-0.312-1.219c-0.176-0.367-0.4-0.684-0.672-0.949c-0.272-0.266-0.59-0.473-0.952-0.621
			c-0.363-0.15-0.747-0.225-1.152-0.225s-0.789,0.074-1.151,0.225c-0.363,0.148-0.681,0.355-0.953,0.621s-0.491,0.586-0.656,0.957
			c-0.166,0.371-0.264,0.777-0.296,1.211H56.875z"/>
		<path fill="#F1F2F2" d="M62.348,103.563c-0.65,0-1.285-0.107-1.903-0.32c-0.619-0.211-1.152-0.521-1.601-0.924l0.496-0.734
			c0.47,0.381,0.946,0.67,1.432,0.861s1.006,0.287,1.561,0.287c0.673,0,1.209-0.137,1.608-0.406c0.4-0.271,0.601-0.656,0.601-1.156
			c0-0.234-0.054-0.428-0.16-0.582s-0.264-0.291-0.472-0.406c-0.208-0.117-0.47-0.221-0.784-0.313
			c-0.314-0.09-0.681-0.184-1.097-0.277c-0.48-0.117-0.896-0.234-1.248-0.352c-0.353-0.117-0.644-0.25-0.872-0.398
			c-0.229-0.15-0.4-0.334-0.513-0.551c-0.111-0.219-0.168-0.49-0.168-0.822c0-0.414,0.083-0.779,0.248-1.1
			c0.166-0.318,0.39-0.582,0.672-0.787c0.283-0.209,0.613-0.365,0.992-0.473c0.379-0.105,0.781-0.158,1.208-0.158
			c0.642,0,1.223,0.104,1.745,0.311s0.944,0.48,1.264,0.822l-0.527,0.637c-0.31-0.32-0.686-0.557-1.128-0.717
			c-0.443-0.16-0.905-0.24-1.386-0.24c-0.287,0-0.555,0.029-0.8,0.088s-0.461,0.152-0.647,0.279
			c-0.188,0.127-0.334,0.289-0.44,0.486c-0.106,0.195-0.16,0.428-0.16,0.693c0,0.223,0.037,0.404,0.112,0.543
			c0.074,0.137,0.197,0.256,0.368,0.357c0.17,0.102,0.387,0.193,0.647,0.273c0.262,0.076,0.579,0.16,0.952,0.244
			c0.534,0.129,1.004,0.258,1.409,0.383c0.405,0.129,0.744,0.277,1.016,0.447c0.272,0.17,0.478,0.377,0.616,0.623
			c0.139,0.244,0.208,0.541,0.208,0.893c0,0.766-0.293,1.371-0.88,1.818C64.13,103.338,63.341,103.563,62.348,103.563z"/>
		<path fill="#F1F2F2" d="M70.142,103.563c-0.65,0-1.285-0.107-1.904-0.32c-0.619-0.211-1.152-0.521-1.601-0.924l0.496-0.734
			c0.47,0.381,0.946,0.67,1.433,0.861c0.485,0.191,1.006,0.287,1.561,0.287c0.672,0,1.208-0.137,1.607-0.406
			c0.4-0.271,0.601-0.656,0.601-1.156c0-0.234-0.054-0.428-0.16-0.582s-0.264-0.291-0.472-0.406
			c-0.208-0.117-0.47-0.221-0.784-0.313c-0.314-0.09-0.68-0.184-1.096-0.277c-0.48-0.117-0.896-0.234-1.248-0.352
			c-0.353-0.117-0.645-0.25-0.873-0.398c-0.229-0.15-0.4-0.334-0.513-0.551c-0.111-0.219-0.168-0.49-0.168-0.822
			c0-0.414,0.083-0.779,0.248-1.1c0.166-0.318,0.39-0.582,0.672-0.787c0.283-0.209,0.614-0.365,0.993-0.473
			c0.379-0.105,0.781-0.158,1.208-0.158c0.641,0,1.222,0.104,1.744,0.311s0.944,0.48,1.264,0.822l-0.527,0.637
			c-0.31-0.32-0.686-0.557-1.128-0.717c-0.443-0.16-0.904-0.24-1.385-0.24c-0.287,0-0.555,0.029-0.8,0.088s-0.461,0.152-0.647,0.279
			c-0.188,0.127-0.334,0.289-0.44,0.486c-0.107,0.195-0.161,0.428-0.161,0.693c0,0.223,0.037,0.404,0.112,0.543
			c0.074,0.137,0.198,0.256,0.369,0.357c0.17,0.102,0.387,0.193,0.647,0.273c0.262,0.076,0.579,0.16,0.952,0.244
			c0.533,0.129,1.003,0.258,1.408,0.383c0.405,0.129,0.744,0.277,1.016,0.447c0.272,0.17,0.478,0.377,0.616,0.623
			c0.139,0.244,0.208,0.541,0.208,0.893c0,0.766-0.293,1.371-0.88,1.818C71.923,103.338,71.134,103.563,70.142,103.563z"/>
		<path fill="#F1F2F2" d="M78.687,99.223c0-0.584,0.102-1.137,0.304-1.658c0.204-0.52,0.489-0.975,0.857-1.361
			c0.368-0.389,0.808-0.693,1.319-0.918c0.513-0.223,1.078-0.334,1.696-0.334c0.789,0,1.478,0.178,2.065,0.533
			c0.586,0.355,1.029,0.838,1.328,1.443L85.2,97.264c-0.234-0.428-0.56-0.758-0.977-0.998c-0.416-0.238-0.88-0.357-1.393-0.357
			c-0.427,0-0.823,0.084-1.191,0.256c-0.368,0.168-0.688,0.4-0.96,0.691c-0.272,0.293-0.485,0.641-0.641,1.047
			c-0.154,0.402-0.231,0.844-0.231,1.32c0,0.469,0.08,0.91,0.24,1.324c0.159,0.414,0.378,0.775,0.655,1.076
			c0.277,0.303,0.601,0.543,0.969,0.719c0.367,0.174,0.76,0.262,1.176,0.262c0.267,0,0.53-0.037,0.792-0.109
			c0.261-0.074,0.504-0.18,0.728-0.313c0.226-0.133,0.417-0.283,0.577-0.453c0.16-0.172,0.272-0.354,0.336-0.543l1.057,0.318
			c-0.118,0.299-0.288,0.572-0.513,0.822c-0.224,0.248-0.487,0.467-0.792,0.654c-0.304,0.184-0.641,0.328-1.009,0.43
			s-0.749,0.152-1.144,0.152c-0.608,0-1.168-0.115-1.681-0.344c-0.512-0.229-0.954-0.543-1.328-0.941
			c-0.373-0.398-0.664-0.859-0.873-1.379C78.79,100.377,78.687,99.818,78.687,99.223z"/>
		<path fill="#F1F2F2" d="M90.241,103.563c-0.428,0-0.817-0.068-1.169-0.201s-0.653-0.314-0.904-0.549
			c-0.25-0.234-0.445-0.506-0.584-0.814c-0.139-0.307-0.208-0.633-0.208-0.973c0-0.381,0.086-0.73,0.256-1.043
			c0.171-0.314,0.411-0.582,0.721-0.807c0.309-0.223,0.68-0.396,1.111-0.518c0.433-0.123,0.91-0.184,1.434-0.184
			c0.416,0,0.842,0.037,1.279,0.111s0.827,0.182,1.169,0.32v-0.75c0-0.734-0.211-1.316-0.633-1.746
			c-0.421-0.432-0.989-0.646-1.704-0.646c-0.447,0-0.893,0.086-1.337,0.256c-0.442,0.17-0.894,0.414-1.352,0.734l-0.384-0.719
			c0.544-0.363,1.071-0.633,1.584-0.814c0.512-0.18,1.046-0.27,1.601-0.27c1.014,0,1.818,0.291,2.416,0.877
			c0.598,0.584,0.896,1.393,0.896,2.424v3.746c0,0.299,0.128,0.447,0.384,0.447v0.957c-0.086,0.01-0.166,0.018-0.24,0.023
			s-0.139,0.008-0.192,0.008c-0.213,0-0.407-0.064-0.584-0.191c-0.176-0.129-0.274-0.318-0.296-0.574l-0.031-0.654
			c-0.363,0.488-0.841,0.871-1.433,1.141C91.449,103.426,90.85,103.563,90.241,103.563z M90.514,102.732
			c0.479,0,0.957-0.105,1.432-0.311c0.475-0.209,0.851-0.494,1.128-0.854c0.074-0.096,0.139-0.201,0.192-0.311
			c0.053-0.111,0.08-0.217,0.08-0.313v-1.354c-0.363-0.139-0.742-0.246-1.137-0.32s-0.778-0.111-1.151-0.111
			c-0.779,0-1.412,0.156-1.897,0.471c-0.485,0.313-0.728,0.746-0.728,1.299c0,0.225,0.042,0.441,0.128,0.654
			c0.085,0.213,0.216,0.402,0.392,0.574c0.176,0.17,0.393,0.309,0.648,0.414S90.161,102.732,90.514,102.732z"/>
		<path fill="#F1F2F2" d="M100.962,96.051c-0.736,0.021-1.376,0.223-1.92,0.607c-0.544,0.381-0.928,0.906-1.152,1.578v5.166h-1.088
			v-8.309h1.024v1.994c0.288-0.586,0.666-1.07,1.136-1.459c0.469-0.389,0.976-0.582,1.52-0.582c0.097,0,0.187,0,0.272,0
			c0.085,0,0.155,0.006,0.208,0.016V96.051z"/>
		<path fill="#F1F2F2" d="M105.507,103.563c-0.576,0-1.109-0.121-1.6-0.361c-0.491-0.238-0.915-0.555-1.272-0.947
			s-0.635-0.85-0.832-1.363c-0.197-0.516-0.296-1.055-0.296-1.619c0-0.584,0.096-1.141,0.288-1.666
			c0.191-0.525,0.456-0.986,0.792-1.379c0.336-0.395,0.736-0.703,1.2-0.934c0.464-0.227,0.973-0.342,1.527-0.342
			c0.704,0,1.329,0.182,1.873,0.551c0.544,0.365,0.977,0.809,1.296,1.33v-5.07h1.089v10.236c0,0.299,0.128,0.447,0.384,0.447v0.957
			c-0.182,0.031-0.326,0.047-0.433,0.047c-0.267,0-0.485-0.076-0.655-0.23c-0.171-0.156-0.257-0.338-0.257-0.551v-0.877
			c-0.341,0.543-0.792,0.973-1.352,1.291C106.7,103.402,106.115,103.563,105.507,103.563z M105.73,102.604
			c0.277,0,0.568-0.053,0.873-0.158s0.587-0.252,0.849-0.439c0.261-0.186,0.487-0.404,0.68-0.652c0.192-0.25,0.31-0.52,0.352-0.807
			v-2.568c-0.106-0.285-0.264-0.555-0.472-0.803c-0.208-0.25-0.442-0.471-0.704-0.662s-0.539-0.34-0.832-0.447
			c-0.294-0.105-0.585-0.158-0.873-0.158c-0.447,0-0.855,0.096-1.224,0.287c-0.368,0.189-0.68,0.443-0.937,0.756
			c-0.256,0.314-0.456,0.674-0.6,1.076c-0.144,0.406-0.216,0.82-0.216,1.244c0,0.445,0.08,0.873,0.24,1.275
			c0.159,0.404,0.378,0.76,0.655,1.061c0.277,0.305,0.605,0.545,0.984,0.727C104.886,102.514,105.293,102.604,105.73,102.604z"/>
	</g>
	<g>
		<path fill="#F1F2F2" d="M100.498,59.628c0,2.073-1.395,3.754-3.113,3.754h-74.77c-1.721,0-3.115-1.682-3.115-3.754V20.199
			c0-2.073,1.395-3.755,3.115-3.755h74.77c1.719,0,3.113,1.682,3.113,3.755V59.628z"/>
		<g>
			<rect x="56.859" y="19.73" fill="#0992A4" width="40.111" height="4.382"/>
			<rect x="56.859" y="26.928" fill="#0992A4" width="40.111" height="4.38"/>
			<rect x="56.859" y="34.125" fill="#0992A4" width="40.111" height="4.381"/>
			<rect x="56.859" y="41.322" fill="#0992A4" width="40.111" height="4.38"/>
			<rect x="22.979" y="48.519" fill="#0992A4" width="73.992" height="4.38"/>
			<rect x="22.979" y="55.716" fill="#0992A4" width="73.992" height="4.381"/>
			<g>
				<ellipse fill="#0992A4" cx="26.732" cy="24.406" rx="3.136" ry="3.781"/>
				<path fill="#0992A4" d="M54.133,45.703v-9.486c-1.863-1.486-4.302-2.389-6.968-2.389c-5.315,0-9.715,3.569-10.492,8.228
					c-1.351-1.57-3.421-2.575-5.745-2.575c-3.831,0-6.98,2.73-7.332,6.222H54.133z"/>
			</g>
		</g>
	</g>
</g>
</svg>
