<?xml version="1.0" encoding="utf-8"?>
<!-- Generator: Adobe Illustrator 16.0.0, SVG Export Plug-In . SVG Version: 6.00 Build 0)  -->
<!DOCTYPE svg PUBLIC "-//W3C//DTD SVG 1.1//EN" "http://www.w3.org/Graphics/SVG/1.1/DTD/svg11.dtd">
<svg version="1.1" id="Layer_1" xmlns="http://www.w3.org/2000/svg" xmlns:xlink="http://www.w3.org/1999/xlink" x="0px" y="0px"
	 width="120px" height="121px" viewBox="0 0 120 121" enable-background="new 0 0 120 121" xml:space="preserve">
<g>
	<path fill="#0992A4" d="M120,115.408c0,3.088-2.15,5.592-4.806,5.592H4.806C2.153,121,0,118.496,0,115.408V5.591
		C0,2.504,2.153,0,4.806,0h110.389C117.85,0,120,2.504,120,5.591V115.408z"/>
	<g>
		<path fill="#F1F2F2" d="M21.593,75.066c-0.32-0.361-0.75-0.652-1.289-0.877c-0.539-0.223-1.145-0.334-1.816-0.334
			c-1.014,0-1.75,0.188-2.208,0.566c-0.459,0.377-0.688,0.891-0.688,1.539c0,0.34,0.061,0.617,0.184,0.836s0.314,0.406,0.576,0.566
			c0.261,0.16,0.592,0.299,0.992,0.414c0.4,0.117,0.873,0.234,1.417,0.352c0.607,0.127,1.151,0.268,1.632,0.422
			c0.48,0.154,0.891,0.352,1.232,0.59c0.342,0.24,0.603,0.531,0.784,0.877s0.272,0.773,0.272,1.285c0,0.52-0.102,0.971-0.304,1.354
			c-0.203,0.383-0.486,0.703-0.849,0.957c-0.362,0.256-0.795,0.443-1.296,0.566c-0.501,0.121-1.046,0.184-1.632,0.184
			c-1.782,0-3.302-0.547-4.562-1.643l0.544-0.908c0.417,0.436,0.977,0.805,1.681,1.107s1.489,0.455,2.352,0.455
			c0.907,0,1.616-0.162,2.128-0.486c0.513-0.324,0.769-0.816,0.769-1.477c0-0.35-0.072-0.645-0.216-0.885
			c-0.145-0.238-0.36-0.445-0.648-0.621C20.36,79.73,20,79.58,19.568,79.451c-0.432-0.127-0.931-0.254-1.496-0.381
			c-0.598-0.139-1.121-0.281-1.568-0.432c-0.448-0.148-0.824-0.336-1.128-0.559c-0.305-0.223-0.535-0.49-0.689-0.805
			c-0.154-0.313-0.232-0.699-0.232-1.156c0-0.52,0.099-0.986,0.297-1.395c0.197-0.41,0.474-0.75,0.832-1.021s0.784-0.479,1.28-0.621
			c0.496-0.145,1.043-0.217,1.641-0.217c0.746,0,1.416,0.115,2.008,0.344c0.592,0.229,1.128,0.551,1.607,0.965L21.593,75.066z"/>
		<path fill="#F1F2F2" d="M28.09,84.428c-0.608,0-1.168-0.115-1.681-0.344c-0.512-0.229-0.955-0.541-1.329-0.941
			c-0.373-0.398-0.664-0.857-0.872-1.379c-0.208-0.52-0.312-1.078-0.312-1.674c0-0.584,0.104-1.135,0.312-1.65
			s0.499-0.967,0.872-1.355c0.374-0.389,0.813-0.695,1.321-0.924c0.507-0.229,1.064-0.344,1.672-0.344
			c0.609,0,1.166,0.115,1.672,0.344s0.941,0.539,1.305,0.932c0.363,0.393,0.645,0.846,0.848,1.355
			c0.202,0.51,0.304,1.053,0.304,1.627c0,0.086-0.003,0.17-0.008,0.254c-0.006,0.086-0.014,0.145-0.023,0.176h-7.122
			c0.031,0.447,0.136,0.859,0.312,1.236s0.4,0.705,0.672,0.98c0.272,0.277,0.587,0.492,0.944,0.646s0.738,0.23,1.144,0.23
			c0.277,0,0.55-0.037,0.817-0.111s0.512-0.176,0.736-0.303c0.224-0.127,0.424-0.285,0.6-0.471s0.312-0.391,0.408-0.613l0.944,0.254
			c-0.128,0.309-0.309,0.588-0.544,0.838c-0.234,0.25-0.507,0.469-0.815,0.654c-0.31,0.186-0.651,0.33-1.024,0.43
			C28.869,84.377,28.484,84.428,28.09,84.428z M31.162,79.674c-0.031-0.445-0.136-0.852-0.312-1.219s-0.4-0.684-0.672-0.949
			c-0.272-0.266-0.59-0.473-0.952-0.621c-0.363-0.148-0.748-0.223-1.153-0.223s-0.789,0.074-1.151,0.223
			c-0.363,0.148-0.681,0.355-0.952,0.621c-0.273,0.266-0.492,0.586-0.657,0.957c-0.166,0.373-0.264,0.777-0.296,1.211H31.162z"/>
		<path fill="#F1F2F2" d="M40.843,84.268h-1.088v-4.641c0-0.988-0.144-1.705-0.432-2.152c-0.288-0.445-0.736-0.67-1.345-0.67
			c-0.319,0-0.64,0.059-0.96,0.176c-0.32,0.117-0.619,0.281-0.896,0.494s-0.521,0.465-0.729,0.758s-0.365,0.607-0.472,0.949v5.086
			h-1.088v-8.307h0.993v1.881c0.17-0.297,0.381-0.572,0.632-0.822c0.251-0.248,0.53-0.465,0.84-0.645
			c0.31-0.182,0.638-0.32,0.985-0.414c0.347-0.096,0.706-0.145,1.08-0.145c0.469,0,0.861,0.086,1.176,0.256
			c0.315,0.17,0.569,0.408,0.76,0.717c0.192,0.309,0.331,0.686,0.416,1.133c0.085,0.445,0.128,0.939,0.128,1.482V84.268z"/>
		<path fill="#F1F2F2" d="M46.556,84.428c-0.576,0-1.109-0.121-1.6-0.359c-0.491-0.24-0.915-0.555-1.272-0.949
			c-0.357-0.393-0.635-0.848-0.832-1.363s-0.296-1.055-0.296-1.617c0-0.586,0.096-1.141,0.288-1.668
			c0.191-0.525,0.456-0.986,0.792-1.379s0.736-0.703,1.2-0.932c0.464-0.229,0.973-0.344,1.528-0.344
			c0.704,0,1.328,0.184,1.873,0.551c0.544,0.367,0.977,0.811,1.296,1.33v-5.07h1.089v10.236c0,0.299,0.128,0.447,0.384,0.447v0.957
			c-0.182,0.031-0.326,0.047-0.433,0.047c-0.267,0-0.486-0.076-0.656-0.23c-0.171-0.154-0.257-0.338-0.257-0.551v-0.877
			c-0.341,0.543-0.792,0.975-1.352,1.291C47.749,84.268,47.165,84.428,46.556,84.428z M46.78,83.471c0.277,0,0.568-0.055,0.872-0.16
			c0.305-0.105,0.587-0.252,0.849-0.439c0.261-0.186,0.487-0.402,0.68-0.652s0.31-0.52,0.352-0.807v-2.566
			c-0.106-0.287-0.264-0.555-0.472-0.805s-0.442-0.471-0.704-0.662s-0.539-0.34-0.833-0.447c-0.293-0.105-0.584-0.158-0.872-0.158
			c-0.447,0-0.855,0.096-1.224,0.287s-0.68,0.443-0.937,0.758c-0.256,0.313-0.456,0.672-0.6,1.076s-0.216,0.818-0.216,1.244
			c0,0.445,0.08,0.871,0.24,1.273c0.159,0.404,0.378,0.76,0.655,1.063s0.606,0.545,0.985,0.725S46.342,83.471,46.78,83.471z"/>
		<path fill="#F1F2F2" d="M61.438,84.428c-0.704,0-1.328-0.18-1.872-0.535s-0.982-0.805-1.313-1.348v5.119h-1.088V75.961h0.976
			v1.609c0.342-0.52,0.785-0.943,1.329-1.268s1.137-0.486,1.776-0.486c0.576,0,1.106,0.119,1.593,0.359
			c0.485,0.238,0.904,0.559,1.256,0.955c0.353,0.4,0.627,0.859,0.824,1.381s0.296,1.057,0.296,1.609
			c0,0.586-0.091,1.139-0.271,1.658c-0.182,0.521-0.44,0.979-0.776,1.371c-0.336,0.395-0.736,0.705-1.2,0.934
			C62.502,84.313,61.992,84.428,61.438,84.428z M61.134,83.471c0.448,0,0.854-0.096,1.216-0.287
			c0.363-0.191,0.676-0.443,0.938-0.758c0.261-0.313,0.461-0.67,0.6-1.068s0.208-0.811,0.208-1.236c0-0.447-0.08-0.871-0.239-1.275
			c-0.16-0.404-0.379-0.76-0.656-1.068s-0.606-0.553-0.985-0.732c-0.379-0.182-0.786-0.271-1.224-0.271
			c-0.277,0-0.565,0.055-0.864,0.168c-0.299,0.111-0.581,0.26-0.848,0.445c-0.267,0.188-0.494,0.404-0.681,0.654
			c-0.187,0.25-0.301,0.512-0.344,0.789v2.551c0.128,0.297,0.291,0.574,0.489,0.83c0.197,0.256,0.421,0.475,0.672,0.66
			c0.25,0.188,0.522,0.334,0.816,0.439C60.523,83.416,60.824,83.471,61.134,83.471z"/>
		<path fill="#F1F2F2" d="M71.168,76.916c-0.736,0.021-1.376,0.223-1.92,0.607c-0.544,0.383-0.928,0.908-1.153,1.578v5.166h-1.088
			v-8.307h1.024v1.992c0.289-0.584,0.667-1.07,1.137-1.459c0.469-0.389,0.976-0.582,1.52-0.582c0.097,0,0.187,0,0.272,0
			c0.085,0,0.154,0.006,0.208,0.016V76.916z"/>
		<path fill="#F1F2F2" d="M72.624,74.223v-1.596h1.089v1.596H72.624z M72.624,84.268v-8.307h1.089v8.307H72.624z"/>
		<path fill="#F1F2F2" d="M78.545,84.268l-3.392-8.307h1.136l2.865,7.303l2.88-7.303h1.056l-3.392,8.307H78.545z"/>
		<path fill="#F1F2F2" d="M86.531,84.428c-0.427,0-0.816-0.068-1.168-0.199c-0.352-0.133-0.653-0.316-0.905-0.551
			c-0.25-0.234-0.445-0.506-0.584-0.814c-0.139-0.307-0.208-0.631-0.208-0.971c0-0.383,0.086-0.732,0.256-1.045
			c0.171-0.314,0.411-0.582,0.722-0.807c0.309-0.223,0.68-0.395,1.111-0.518c0.433-0.123,0.909-0.184,1.433-0.184
			c0.416,0,0.842,0.039,1.279,0.111c0.438,0.076,0.827,0.182,1.169,0.32v-0.75c0-0.734-0.211-1.316-0.633-1.746
			c-0.421-0.432-0.989-0.646-1.704-0.646c-0.447,0-0.893,0.086-1.336,0.256c-0.442,0.17-0.894,0.414-1.352,0.734L84.227,76.9
			c0.545-0.361,1.072-0.633,1.585-0.813c0.512-0.182,1.045-0.271,1.6-0.271c1.014,0,1.818,0.293,2.416,0.877
			c0.599,0.584,0.897,1.393,0.897,2.424v3.746c0,0.299,0.128,0.447,0.384,0.447v0.957c-0.086,0.01-0.166,0.018-0.24,0.023
			s-0.139,0.008-0.192,0.008c-0.213,0-0.407-0.064-0.584-0.191s-0.275-0.318-0.297-0.574l-0.031-0.652
			c-0.363,0.488-0.841,0.869-1.433,1.139C87.739,84.291,87.14,84.428,86.531,84.428z M86.804,83.598
			c0.479,0,0.957-0.104,1.432-0.311s0.851-0.492,1.128-0.854c0.074-0.096,0.139-0.199,0.192-0.311
			c0.053-0.111,0.08-0.215,0.08-0.311v-1.355c-0.363-0.139-0.742-0.244-1.137-0.318c-0.395-0.076-0.778-0.113-1.151-0.113
			c-0.779,0-1.411,0.158-1.896,0.471s-0.728,0.748-0.728,1.299c0,0.225,0.042,0.441,0.128,0.654
			c0.085,0.213,0.216,0.404,0.392,0.574s0.393,0.309,0.648,0.414C86.147,83.545,86.451,83.598,86.804,83.598z"/>
		<path fill="#F1F2F2" d="M97.014,83.869c-0.064,0.031-0.157,0.074-0.28,0.127s-0.264,0.107-0.424,0.16s-0.342,0.1-0.544,0.143
			c-0.203,0.043-0.417,0.064-0.642,0.064c-0.234,0-0.458-0.031-0.672-0.096c-0.213-0.064-0.399-0.162-0.56-0.295
			s-0.288-0.301-0.384-0.502c-0.097-0.203-0.145-0.436-0.145-0.701V76.82h-1.151v-0.859h1.151v-2.809h1.088v2.809h1.921v0.859
			h-1.921v5.646c0.021,0.309,0.128,0.533,0.32,0.676c0.192,0.145,0.421,0.217,0.688,0.217c0.31,0,0.582-0.051,0.816-0.152
			s0.384-0.172,0.448-0.215L97.014,83.869z"/>
		<path fill="#F1F2F2" d="M101.942,84.428c-0.608,0-1.169-0.115-1.682-0.344c-0.512-0.229-0.954-0.541-1.328-0.941
			c-0.373-0.398-0.664-0.857-0.872-1.379c-0.208-0.52-0.312-1.078-0.312-1.674c0-0.584,0.104-1.135,0.312-1.65
			s0.499-0.967,0.872-1.355c0.374-0.389,0.813-0.695,1.32-0.924s1.065-0.344,1.673-0.344c0.608,0,1.165,0.115,1.672,0.344
			s0.941,0.539,1.305,0.932c0.362,0.393,0.645,0.846,0.848,1.355c0.202,0.51,0.304,1.053,0.304,1.627
			c0,0.086-0.003,0.17-0.008,0.254c-0.006,0.086-0.014,0.145-0.023,0.176h-7.121c0.031,0.447,0.136,0.859,0.312,1.236
			s0.4,0.705,0.672,0.98c0.272,0.277,0.587,0.492,0.944,0.646c0.358,0.154,0.739,0.23,1.145,0.23c0.277,0,0.55-0.037,0.816-0.111
			s0.512-0.176,0.736-0.303c0.224-0.127,0.424-0.285,0.6-0.471s0.312-0.391,0.408-0.613l0.943,0.254
			c-0.128,0.309-0.309,0.588-0.544,0.838c-0.234,0.25-0.507,0.469-0.815,0.654c-0.31,0.186-0.651,0.33-1.024,0.43
			C102.721,84.377,102.337,84.428,101.942,84.428z M105.014,79.674c-0.031-0.445-0.136-0.852-0.312-1.219s-0.4-0.684-0.672-0.949
			c-0.272-0.266-0.59-0.473-0.952-0.621c-0.363-0.148-0.747-0.223-1.152-0.223s-0.789,0.074-1.152,0.223s-0.681,0.355-0.952,0.621
			c-0.272,0.266-0.491,0.586-0.656,0.957c-0.166,0.373-0.264,0.777-0.296,1.211H105.014z"/>
		<path fill="#F1F2F2" d="M39.741,103.402h-1.088v-4.641c0-0.967-0.152-1.68-0.456-2.137c-0.305-0.457-0.766-0.686-1.385-0.686
			c-0.319,0-0.621,0.059-0.903,0.176c-0.283,0.117-0.544,0.281-0.784,0.494s-0.451,0.465-0.632,0.758
			c-0.182,0.291-0.32,0.613-0.417,0.965v5.07h-1.088v-4.641c0-0.988-0.15-1.705-0.448-2.152c-0.299-0.445-0.758-0.67-1.376-0.67
			c-0.63,0-1.189,0.219-1.681,0.654c-0.49,0.436-0.842,1.01-1.056,1.723v5.086h-1.088v-8.309h0.992v1.883
			c0.341-0.639,0.79-1.135,1.344-1.492c0.555-0.355,1.168-0.533,1.84-0.533c0.704,0,1.27,0.197,1.696,0.59s0.683,0.91,0.768,1.547
			c0.78-1.426,1.857-2.137,3.233-2.137c0.458,0,0.851,0.086,1.176,0.256c0.325,0.168,0.587,0.412,0.784,0.725
			s0.341,0.691,0.432,1.131c0.091,0.443,0.137,0.934,0.137,1.477V103.402z"/>
		<path fill="#F1F2F2" d="M45.645,103.563c-0.608,0-1.168-0.115-1.681-0.344c-0.512-0.229-0.954-0.541-1.328-0.941
			c-0.374-0.398-0.665-0.857-0.873-1.379c-0.208-0.52-0.312-1.078-0.312-1.674c0-0.584,0.104-1.135,0.312-1.65
			s0.499-0.967,0.873-1.355c0.374-0.389,0.813-0.695,1.32-0.924c0.507-0.23,1.065-0.344,1.672-0.344
			c0.608,0,1.165,0.113,1.672,0.344c0.507,0.229,0.942,0.539,1.305,0.932c0.362,0.393,0.645,0.846,0.848,1.355
			c0.202,0.51,0.304,1.053,0.304,1.627c0,0.086-0.003,0.17-0.008,0.254c-0.006,0.086-0.014,0.145-0.023,0.176h-7.121
			c0.031,0.447,0.136,0.859,0.312,1.236s0.4,0.705,0.672,0.98c0.272,0.277,0.587,0.492,0.944,0.645
			c0.357,0.156,0.739,0.232,1.144,0.232c0.277,0,0.55-0.037,0.816-0.111s0.512-0.176,0.736-0.303c0.224-0.129,0.424-0.285,0.6-0.471
			c0.176-0.186,0.312-0.391,0.408-0.613l0.943,0.254c-0.128,0.309-0.309,0.588-0.544,0.838c-0.234,0.25-0.507,0.467-0.815,0.654
			c-0.31,0.186-0.652,0.33-1.025,0.43C46.423,103.512,46.04,103.563,45.645,103.563z M48.717,98.809
			c-0.031-0.445-0.136-0.852-0.312-1.219s-0.4-0.684-0.672-0.949c-0.273-0.266-0.59-0.473-0.953-0.621
			c-0.363-0.148-0.747-0.223-1.152-0.223s-0.79,0.074-1.152,0.223c-0.363,0.148-0.681,0.355-0.952,0.621
			c-0.272,0.266-0.491,0.586-0.656,0.957c-0.166,0.373-0.264,0.777-0.296,1.211H48.717z"/>
		<path fill="#F1F2F2" d="M54.189,103.563c-0.65,0-1.286-0.107-1.904-0.32c-0.619-0.211-1.152-0.52-1.601-0.924l0.496-0.734
			c0.47,0.383,0.946,0.67,1.432,0.861s1.006,0.287,1.561,0.287c0.672,0,1.208-0.135,1.607-0.406
			c0.401-0.271,0.601-0.656,0.601-1.156c0-0.234-0.054-0.428-0.16-0.582s-0.264-0.289-0.472-0.406
			c-0.208-0.117-0.47-0.221-0.784-0.311c-0.314-0.092-0.68-0.184-1.096-0.279c-0.48-0.117-0.897-0.234-1.249-0.352
			c-0.353-0.117-0.644-0.25-0.872-0.398c-0.229-0.148-0.4-0.332-0.513-0.551c-0.111-0.217-0.168-0.49-0.168-0.82
			c0-0.414,0.083-0.781,0.248-1.1c0.166-0.32,0.39-0.582,0.672-0.789c0.283-0.209,0.613-0.365,0.992-0.473
			c0.379-0.105,0.782-0.158,1.208-0.158c0.641,0,1.222,0.104,1.745,0.311c0.522,0.207,0.944,0.48,1.264,0.822l-0.527,0.637
			c-0.31-0.318-0.686-0.557-1.128-0.717c-0.443-0.16-0.904-0.24-1.385-0.24c-0.287,0-0.555,0.029-0.8,0.088
			c-0.246,0.059-0.461,0.152-0.648,0.279c-0.188,0.127-0.334,0.291-0.44,0.486c-0.106,0.197-0.16,0.428-0.16,0.693
			c0,0.225,0.037,0.404,0.112,0.543c0.074,0.137,0.197,0.258,0.368,0.357c0.17,0.102,0.387,0.193,0.648,0.271
			c0.262,0.08,0.579,0.162,0.952,0.248c0.533,0.127,1.003,0.256,1.408,0.383c0.406,0.127,0.745,0.275,1.016,0.445
			c0.272,0.17,0.478,0.377,0.616,0.623c0.139,0.244,0.208,0.541,0.208,0.893c0,0.766-0.293,1.371-0.88,1.818
			C55.971,103.338,55.182,103.563,54.189,103.563z"/>
		<path fill="#F1F2F2" d="M61.982,103.563c-0.65,0-1.285-0.107-1.903-0.32c-0.619-0.211-1.152-0.52-1.601-0.924l0.497-0.734
			c0.47,0.383,0.946,0.67,1.432,0.861s1.006,0.287,1.561,0.287c0.672,0,1.209-0.135,1.608-0.406c0.4-0.271,0.601-0.656,0.601-1.156
			c0-0.234-0.054-0.428-0.16-0.582s-0.264-0.289-0.472-0.406s-0.47-0.221-0.784-0.311c-0.315-0.092-0.681-0.184-1.097-0.279
			c-0.48-0.117-0.896-0.234-1.248-0.352c-0.353-0.117-0.644-0.25-0.872-0.398c-0.229-0.148-0.4-0.332-0.513-0.551
			c-0.111-0.217-0.168-0.49-0.168-0.82c0-0.414,0.083-0.781,0.248-1.1c0.166-0.32,0.39-0.582,0.672-0.789
			c0.283-0.209,0.613-0.365,0.992-0.473c0.379-0.105,0.781-0.158,1.208-0.158c0.641,0,1.223,0.104,1.745,0.311
			s0.944,0.48,1.264,0.822l-0.527,0.637c-0.31-0.318-0.686-0.557-1.128-0.717c-0.443-0.16-0.905-0.24-1.386-0.24
			c-0.287,0-0.555,0.029-0.8,0.088s-0.461,0.152-0.647,0.279c-0.188,0.127-0.334,0.291-0.44,0.486
			c-0.106,0.197-0.16,0.428-0.16,0.693c0,0.225,0.037,0.404,0.112,0.543c0.074,0.137,0.197,0.258,0.368,0.357
			c0.17,0.102,0.387,0.193,0.647,0.271c0.262,0.08,0.579,0.162,0.952,0.248c0.533,0.127,1.004,0.256,1.409,0.383
			s0.744,0.275,1.016,0.445c0.272,0.17,0.478,0.377,0.616,0.623c0.139,0.244,0.208,0.541,0.208,0.893
			c0,0.766-0.293,1.371-0.88,1.818C63.765,103.338,62.976,103.563,61.982,103.563z"/>
		<path fill="#F1F2F2" d="M69.185,103.563c-0.427,0-0.816-0.068-1.169-0.201c-0.352-0.131-0.653-0.316-0.904-0.549
			c-0.25-0.234-0.445-0.506-0.584-0.814c-0.139-0.307-0.208-0.633-0.208-0.971c0-0.383,0.086-0.732,0.256-1.045
			c0.171-0.314,0.411-0.582,0.721-0.807c0.309-0.223,0.68-0.396,1.112-0.518c0.433-0.123,0.909-0.184,1.433-0.184
			c0.416,0,0.842,0.037,1.279,0.111c0.438,0.076,0.827,0.182,1.169,0.32v-0.75c0-0.734-0.211-1.316-0.633-1.746
			c-0.421-0.432-0.989-0.646-1.704-0.646c-0.447,0-0.893,0.086-1.336,0.256c-0.442,0.17-0.895,0.414-1.353,0.734l-0.384-0.719
			c0.544-0.361,1.071-0.633,1.585-0.813c0.512-0.182,1.045-0.271,1.6-0.271c1.014,0,1.818,0.293,2.416,0.877
			s0.896,1.393,0.896,2.424v3.746c0,0.299,0.128,0.447,0.385,0.447v0.957c-0.086,0.01-0.167,0.018-0.241,0.023
			s-0.139,0.008-0.192,0.008c-0.213,0-0.407-0.064-0.584-0.191c-0.176-0.127-0.274-0.318-0.296-0.574l-0.031-0.652
			c-0.363,0.488-0.841,0.869-1.433,1.139C70.393,103.426,69.793,103.563,69.185,103.563z M69.457,102.732
			c0.479,0,0.957-0.104,1.432-0.311c0.475-0.209,0.851-0.492,1.128-0.854c0.074-0.096,0.139-0.199,0.192-0.311
			c0.053-0.111,0.08-0.215,0.08-0.311v-1.355c-0.363-0.139-0.742-0.246-1.137-0.318c-0.395-0.076-0.778-0.113-1.151-0.113
			c-0.779,0-1.411,0.158-1.897,0.471c-0.485,0.313-0.728,0.748-0.728,1.299c0,0.225,0.042,0.441,0.128,0.654
			c0.085,0.213,0.216,0.404,0.392,0.574s0.394,0.309,0.649,0.414C68.801,102.68,69.104,102.732,69.457,102.732z"/>
		<path fill="#F1F2F2" d="M79.122,103.514c-0.577,0-1.103-0.119-1.577-0.359c-0.475-0.238-0.886-0.555-1.231-0.949
			c-0.347-0.393-0.616-0.844-0.809-1.354c-0.191-0.512-0.288-1.037-0.288-1.578c0-0.574,0.094-1.125,0.28-1.65
			c0.187-0.527,0.45-0.986,0.792-1.381c0.342-0.393,0.749-0.707,1.224-0.939c0.475-0.234,1-0.352,1.577-0.352
			c0.715,0,1.334,0.178,1.856,0.533c0.522,0.357,0.971,0.807,1.344,1.348v-1.738h0.977v8.34c0,0.574-0.11,1.082-0.328,1.523
			c-0.219,0.441-0.513,0.811-0.88,1.107c-0.368,0.299-0.803,0.521-1.305,0.67c-0.501,0.148-1.029,0.225-1.584,0.225
			c-0.95,0-1.719-0.172-2.305-0.512c-0.587-0.34-1.062-0.797-1.424-1.371l0.672-0.525c0.33,0.531,0.768,0.922,1.312,1.172
			c0.544,0.248,1.126,0.375,1.745,0.375c0.405,0,0.792-0.057,1.16-0.168s0.688-0.277,0.96-0.494c0.272-0.219,0.488-0.494,0.648-0.83
			c0.159-0.334,0.239-0.725,0.239-1.172v-1.643c-0.33,0.533-0.771,0.953-1.319,1.26C80.309,103.359,79.73,103.514,79.122,103.514z
			 M79.426,102.605c0.32,0,0.635-0.059,0.944-0.176s0.589-0.273,0.84-0.471s0.461-0.416,0.632-0.662
			c0.171-0.244,0.283-0.494,0.336-0.75V97.98c-0.117-0.297-0.279-0.574-0.487-0.83c-0.208-0.254-0.44-0.471-0.696-0.652
			s-0.531-0.324-0.824-0.432c-0.293-0.105-0.589-0.158-0.888-0.158c-0.471,0-0.887,0.098-1.249,0.295
			c-0.363,0.197-0.672,0.455-0.928,0.773s-0.451,0.68-0.584,1.084c-0.134,0.404-0.2,0.813-0.2,1.229c0,0.445,0.08,0.871,0.24,1.275
			c0.159,0.404,0.378,0.758,0.655,1.059c0.277,0.303,0.605,0.543,0.984,0.719S78.987,102.605,79.426,102.605z"/>
		<path fill="#F1F2F2" d="M89.252,103.563c-0.608,0-1.168-0.115-1.681-0.344c-0.512-0.229-0.954-0.541-1.328-0.941
			c-0.373-0.398-0.664-0.857-0.872-1.379c-0.208-0.52-0.312-1.078-0.312-1.674c0-0.584,0.104-1.135,0.312-1.65
			s0.499-0.967,0.872-1.355c0.374-0.389,0.813-0.695,1.32-0.924c0.507-0.23,1.064-0.344,1.672-0.344
			c0.608,0,1.166,0.113,1.673,0.344c0.507,0.229,0.941,0.539,1.305,0.932c0.362,0.393,0.645,0.846,0.848,1.355
			c0.202,0.51,0.304,1.053,0.304,1.627c0,0.086-0.003,0.17-0.008,0.254c-0.006,0.086-0.014,0.145-0.023,0.176h-7.121
			c0.031,0.447,0.136,0.859,0.312,1.236s0.4,0.705,0.672,0.98c0.272,0.277,0.587,0.492,0.944,0.645
			c0.357,0.156,0.738,0.232,1.144,0.232c0.277,0,0.55-0.037,0.817-0.111c0.267-0.074,0.512-0.176,0.736-0.303
			c0.224-0.129,0.424-0.285,0.6-0.471s0.312-0.391,0.408-0.613l0.943,0.254c-0.128,0.309-0.309,0.588-0.544,0.838
			c-0.234,0.25-0.507,0.467-0.815,0.654c-0.31,0.186-0.651,0.33-1.024,0.43C90.031,103.512,89.646,103.563,89.252,103.563z
			 M92.324,98.809c-0.031-0.445-0.136-0.852-0.312-1.219s-0.4-0.684-0.672-0.949c-0.272-0.266-0.59-0.473-0.952-0.621
			c-0.363-0.148-0.748-0.223-1.153-0.223s-0.789,0.074-1.151,0.223c-0.363,0.148-0.681,0.355-0.952,0.621
			c-0.272,0.266-0.491,0.586-0.656,0.957c-0.166,0.373-0.264,0.777-0.296,1.211H92.324z"/>
	</g>
	<g>
		<g>
			<path fill="#F1F2F2" d="M73.466,43.972L62.101,55.412c-0.473,0.475-1.293,0.476-1.764-0.001L49.091,44.127l-22.51,16.366
				c0.258,0.13,0.545,0.212,0.857,0.212h67.123c0.316,0,0.609-0.084,0.874-0.22L73.466,43.972z"/>
			<path fill="#F1F2F2" d="M97.123,59.094c0.043-0.157,0.072-0.32,0.072-0.491V20.618l-21.916,22.06L97.123,59.094z"/>
			<path fill="#F1F2F2" d="M47.272,43.026L24.805,20.481v38.316c0,0.177,0.031,0.345,0.076,0.507L47.272,43.026z"/>
		</g>
		<path fill="#F1F2F2" d="M61.905,52.649L95.98,18.35l-69.962-0.091l34.271,34.39C60.724,53.084,61.474,53.083,61.905,52.649z"/>
	</g>
</g>
</svg>
