<?xml version="1.0" encoding="utf-8"?>
<!-- Generator: Adobe Illustrator 16.0.0, SVG Export Plug-In . SVG Version: 6.00 Build 0)  -->
<!DOCTYPE svg PUBLIC "-//W3C//DTD SVG 1.1//EN" "http://www.w3.org/Graphics/SVG/1.1/DTD/svg11.dtd">
<svg version="1.1" id="Layer_1" xmlns="http://www.w3.org/2000/svg" xmlns:xlink="http://www.w3.org/1999/xlink" x="0px" y="0px"
	 width="155px" height="97px" viewBox="0 0 155 97" enable-background="new 0 0 155 97" xml:space="preserve">
<g>
	<path fill="#FED093" d="M155,89.004c0,4.416-3.584,7.996-8.003,7.996H8.003C3.583,97,0,93.42,0,89.004V7.996
		C0,3.58,3.583,0,8.003,0h138.994C151.416,0,155,3.58,155,7.996V89.004z"/>
	<g>
		<path fill="#542437" d="M41.25,63.813c-0.501-0.566-1.172-1.024-2.014-1.375c-0.842-0.35-1.788-0.524-2.839-0.524
			c-1.584,0-2.734,0.296-3.451,0.887c-0.717,0.592-1.075,1.396-1.075,2.412c0,0.533,0.096,0.971,0.287,1.312
			c0.191,0.342,0.492,0.637,0.9,0.887s0.926,0.467,1.551,0.65s1.363,0.366,2.214,0.55c0.95,0.199,1.801,0.421,2.551,0.662
			s1.392,0.55,1.926,0.924c0.533,0.375,0.941,0.834,1.226,1.375c0.283,0.541,0.425,1.212,0.425,2.012
			c0,0.816-0.158,1.523-0.475,2.124c-0.317,0.6-0.76,1.099-1.326,1.499c-0.566,0.399-1.242,0.695-2.025,0.887
			c-0.784,0.191-1.635,0.288-2.552,0.288c-2.784,0-5.16-0.858-7.127-2.574l0.85-1.425c0.65,0.684,1.525,1.263,2.626,1.737
			s2.326,0.712,3.677,0.712c1.417,0,2.526-0.254,3.326-0.762c0.801-0.509,1.201-1.278,1.201-2.312c0-0.55-0.113-1.013-0.338-1.387
			c-0.226-0.375-0.563-0.7-1.013-0.975c-0.45-0.275-1.014-0.513-1.688-0.713c-0.676-0.199-1.455-0.399-2.339-0.6
			c-0.934-0.216-1.75-0.441-2.451-0.675c-0.7-0.232-1.288-0.524-1.763-0.874c-0.476-0.35-0.834-0.771-1.075-1.262
			c-0.242-0.491-0.363-1.096-0.363-1.813c0-0.815,0.154-1.545,0.462-2.187c0.309-0.641,0.742-1.174,1.301-1.599
			s1.226-0.75,2.001-0.975s1.629-0.338,2.563-0.338c1.167,0,2.213,0.18,3.139,0.538s1.764,0.861,2.514,1.512L41.25,63.813z"/>
		<path fill="#542437" d="M51.404,78.481c-0.95,0-1.826-0.18-2.626-0.537c-0.801-0.358-1.493-0.85-2.076-1.475
			c-0.584-0.625-1.038-1.345-1.363-2.161s-0.487-1.691-0.487-2.624c0-0.916,0.162-1.778,0.487-2.586
			c0.325-0.809,0.779-1.517,1.363-2.124c0.583-0.608,1.271-1.092,2.063-1.45c0.792-0.357,1.663-0.537,2.613-0.537
			s1.821,0.18,2.614,0.537c0.791,0.358,1.471,0.846,2.038,1.462c0.566,0.617,1.009,1.325,1.325,2.124
			c0.316,0.8,0.476,1.649,0.476,2.549c0,0.134-0.005,0.267-0.013,0.4c-0.009,0.133-0.021,0.225-0.037,0.274h-11.13
			c0.05,0.7,0.212,1.346,0.487,1.937c0.275,0.592,0.625,1.104,1.051,1.537c0.425,0.434,0.917,0.771,1.476,1.012
			c0.559,0.242,1.154,0.362,1.788,0.362c0.434,0,0.858-0.058,1.275-0.175c0.417-0.116,0.801-0.274,1.15-0.475
			c0.351-0.2,0.663-0.445,0.938-0.737c0.274-0.291,0.487-0.612,0.638-0.962l1.476,0.399c-0.2,0.483-0.484,0.921-0.851,1.313
			c-0.367,0.392-0.792,0.733-1.275,1.024c-0.483,0.292-1.018,0.517-1.601,0.675C52.621,78.402,52.021,78.481,51.404,78.481z
			 M56.206,71.035c-0.05-0.7-0.213-1.337-0.487-1.912c-0.275-0.574-0.626-1.07-1.051-1.486c-0.425-0.417-0.922-0.741-1.488-0.975
			s-1.167-0.351-1.801-0.351s-1.233,0.117-1.801,0.351c-0.566,0.233-1.063,0.558-1.488,0.975c-0.425,0.416-0.767,0.916-1.025,1.499
			s-0.412,1.216-0.462,1.899H56.206z"/>
		<path fill="#542437" d="M66.561,77.606c-0.101,0.05-0.247,0.117-0.438,0.2c-0.191,0.084-0.412,0.167-0.662,0.25
			s-0.534,0.158-0.851,0.225c-0.317,0.066-0.65,0.101-1.001,0.101c-0.366,0-0.717-0.051-1.05-0.15
			c-0.334-0.1-0.625-0.254-0.876-0.462c-0.25-0.208-0.45-0.471-0.6-0.787c-0.15-0.316-0.226-0.684-0.226-1.1v-9.321h-1.801v-1.349
			h1.801v-4.398h1.701v4.398h3.001v1.349h-3.001v8.847c0.033,0.483,0.2,0.837,0.5,1.062s0.658,0.337,1.075,0.337
			c0.483,0,0.909-0.078,1.275-0.237c0.367-0.158,0.601-0.271,0.701-0.337L66.561,77.606z"/>
		<path fill="#542437" d="M74.839,77.606c-0.101,0.05-0.247,0.117-0.438,0.2c-0.191,0.084-0.412,0.167-0.662,0.25
			s-0.534,0.158-0.851,0.225c-0.317,0.066-0.65,0.101-1.001,0.101c-0.366,0-0.717-0.051-1.05-0.15
			c-0.334-0.1-0.625-0.254-0.876-0.462c-0.25-0.208-0.45-0.471-0.6-0.787c-0.15-0.316-0.226-0.684-0.226-1.1v-9.321h-1.801v-1.349
			h1.801v-4.398h1.701v4.398h3.001v1.349h-3.001v8.847c0.033,0.483,0.2,0.837,0.5,1.062s0.658,0.337,1.075,0.337
			c0.483,0,0.909-0.078,1.275-0.237c0.367-0.158,0.601-0.271,0.701-0.337L74.839,77.606z"/>
		<path fill="#542437" d="M76.84,62.488V59.99h1.7v2.498H76.84z M76.84,78.231V65.213h1.7v13.019H76.84z"/>
		<path fill="#542437" d="M93.146,78.231h-1.7V70.96c0-1.55-0.226-2.674-0.676-3.374c-0.45-0.699-1.15-1.049-2.101-1.049
			c-0.5,0-1.001,0.092-1.501,0.274c-0.5,0.184-0.967,0.441-1.4,0.774c-0.434,0.334-0.813,0.729-1.138,1.188
			s-0.571,0.954-0.738,1.486v7.972h-1.7V65.213h1.55v2.948c0.267-0.466,0.597-0.896,0.988-1.287
			c0.392-0.391,0.829-0.729,1.313-1.012c0.483-0.283,0.996-0.5,1.538-0.649c0.541-0.15,1.104-0.226,1.688-0.226
			c0.734,0,1.347,0.134,1.839,0.4c0.491,0.267,0.888,0.642,1.188,1.124c0.301,0.483,0.517,1.074,0.65,1.774
			c0.134,0.699,0.2,1.475,0.2,2.324V78.231z"/>
		<path fill="#542437" d="M101.949,78.406c-0.9,0-1.722-0.188-2.463-0.563c-0.742-0.374-1.385-0.87-1.926-1.486
			c-0.542-0.616-0.963-1.324-1.264-2.124c-0.3-0.8-0.45-1.624-0.45-2.474c0-0.9,0.146-1.762,0.438-2.587
			c0.291-0.824,0.704-1.545,1.237-2.161c0.534-0.616,1.172-1.107,1.914-1.475c0.741-0.366,1.563-0.55,2.463-0.55
			c1.117,0,2.084,0.279,2.901,0.837c0.816,0.559,1.518,1.263,2.101,2.112v-2.724h1.526v13.068c0,0.899-0.172,1.695-0.513,2.387
			c-0.342,0.691-0.801,1.27-1.376,1.736s-1.255,0.816-2.038,1.05c-0.784,0.233-1.609,0.35-2.477,0.35
			c-1.484,0-2.685-0.267-3.602-0.8s-1.659-1.249-2.226-2.148l1.051-0.825c0.517,0.833,1.2,1.445,2.051,1.837
			c0.85,0.392,1.759,0.587,2.726,0.587c0.634,0,1.238-0.087,1.813-0.262s1.075-0.434,1.501-0.775
			c0.425-0.341,0.763-0.774,1.013-1.299s0.375-1.137,0.375-1.837v-2.573c-0.517,0.833-1.205,1.49-2.063,1.974
			S102.9,78.406,101.949,78.406z M102.425,76.982c0.5,0,0.992-0.092,1.476-0.275c0.483-0.183,0.921-0.429,1.313-0.737
			c0.392-0.308,0.721-0.653,0.987-1.037c0.267-0.383,0.442-0.774,0.525-1.174v-4.023c-0.184-0.466-0.438-0.899-0.763-1.3
			c-0.325-0.399-0.688-0.74-1.088-1.024c-0.4-0.283-0.83-0.508-1.288-0.675c-0.459-0.166-0.922-0.249-1.388-0.249
			c-0.734,0-1.385,0.153-1.951,0.462c-0.567,0.309-1.051,0.712-1.45,1.212c-0.4,0.5-0.705,1.066-0.913,1.699
			c-0.209,0.633-0.313,1.274-0.313,1.924c0,0.7,0.125,1.366,0.375,1.999c0.25,0.634,0.592,1.188,1.025,1.662s0.946,0.85,1.538,1.124
			C101.104,76.845,101.741,76.982,102.425,76.982z"/>
		<path fill="#542437" d="M116.455,78.481c-1.017,0-2.009-0.167-2.976-0.5c-0.968-0.333-1.801-0.815-2.501-1.449l0.775-1.149
			c0.733,0.6,1.479,1.05,2.238,1.35s1.571,0.449,2.438,0.449c1.051,0,1.888-0.212,2.514-0.637c0.625-0.425,0.938-1.028,0.938-1.812
			c0-0.366-0.083-0.671-0.25-0.912s-0.413-0.454-0.737-0.638c-0.325-0.183-0.734-0.346-1.226-0.487
			c-0.492-0.142-1.063-0.287-1.714-0.438c-0.75-0.183-1.4-0.366-1.95-0.55c-0.551-0.183-1.005-0.391-1.363-0.624
			c-0.359-0.233-0.625-0.521-0.801-0.862c-0.175-0.341-0.263-0.771-0.263-1.287c0-0.649,0.129-1.225,0.388-1.724
			c0.259-0.5,0.608-0.912,1.051-1.237c0.441-0.325,0.959-0.57,1.551-0.737c0.592-0.166,1.221-0.25,1.888-0.25
			c1.001,0,1.909,0.163,2.727,0.487c0.816,0.325,1.476,0.754,1.976,1.287l-0.825,1c-0.483-0.5-1.071-0.875-1.763-1.125
			c-0.692-0.25-1.413-0.375-2.164-0.375c-0.45,0-0.867,0.046-1.25,0.138c-0.384,0.092-0.722,0.237-1.014,0.438
			c-0.291,0.2-0.521,0.454-0.688,0.762c-0.167,0.309-0.25,0.671-0.25,1.087c0,0.351,0.059,0.634,0.175,0.85
			c0.117,0.217,0.309,0.404,0.575,0.563s0.604,0.3,1.014,0.425c0.408,0.125,0.904,0.254,1.487,0.388
			c0.834,0.199,1.567,0.399,2.201,0.6c0.634,0.199,1.163,0.434,1.589,0.699c0.425,0.267,0.745,0.592,0.963,0.975
			c0.216,0.384,0.324,0.85,0.324,1.399c0,1.199-0.458,2.149-1.375,2.849C119.24,78.132,118.006,78.481,116.455,78.481z"/>
	</g>
	<path fill="#542437" d="M94.657,40.835L82.441,28.627c1.326-4.815,0.003-10.304-3.916-14.221
		c-4.058-4.053-9.797-5.309-14.735-3.745l9.269,9.263c0.491,0.492,0.491,1.291,0,1.783l-7.416,7.408
		c-0.493,0.492-1.291,0.492-1.783,0l-9.01-9c-1.219,4.758,0.115,10.13,3.969,13.98c3.945,3.941,9.485,5.251,14.328,3.883
		l12.186,12.176c2.573,2.569,6.75,2.569,9.325-0.004S97.232,43.407,94.657,40.835z M90.166,48.894c-1.685,0-3.05-1.367-3.05-3.05
		s1.365-3.047,3.05-3.047s3.051,1.364,3.051,3.047S91.851,48.894,90.166,48.894z"/>
</g>
</svg>
