<?xml version="1.0" encoding="utf-8"?>
<!-- Generator: Adobe Illustrator 16.0.0, SVG Export Plug-In . SVG Version: 6.00 Build 0)  -->
<!DOCTYPE svg PUBLIC "-//W3C//DTD SVG 1.1//EN" "http://www.w3.org/Graphics/SVG/1.1/DTD/svg11.dtd">
<svg version="1.1" id="Layer_1" xmlns="http://www.w3.org/2000/svg" xmlns:xlink="http://www.w3.org/1999/xlink" x="0px" y="0px"
	 width="72px" height="139.5px" viewBox="0 0 72 139.5" enable-background="new 0 0 72 139.5" xml:space="preserve">
<g>
	<path fill="#EBCF77" d="M48.43,103.404l-20.208,12.117v-1.066l18.804-11.486L28.221,91.531v-1.066l20.208,12.067V103.404z"/>
</g>
<g>
	<path fill="#EBCF77" d="M25.517,33.105l20.209-12.116v1.066L26.922,33.541l18.804,11.438v1.066L25.517,33.978V33.105z"/>
</g>
<g>
	<circle fill="#542437" cx="36.973" cy="34.008" r="29.144"/>
</g>
<polygon fill="#F1F1F2" points="26.913,34.008 34.875,29.41 42.837,24.815 42.837,34.008 42.837,43.198 34.875,38.604 "/>
<g>
	<circle fill="#542437" cx="36.973" cy="102.5" r="29.144"/>
</g>
<polygon fill="#F1F1F2" points="46.838,102.499 38.876,107.097 30.914,111.691 30.914,102.499 30.914,93.309 38.876,97.903 "/>
</svg>
