<?xml version="1.0" encoding="utf-8"?>
<!-- Generator: Adobe Illustrator 16.0.0, SVG Export Plug-In . SVG Version: 6.00 Build 0)  -->
<!DOCTYPE svg PUBLIC "-//W3C//DTD SVG 1.1//EN" "http://www.w3.org/Graphics/SVG/1.1/DTD/svg11.dtd">
<svg version="1.1" id="Layer_1" xmlns="http://www.w3.org/2000/svg" xmlns:xlink="http://www.w3.org/1999/xlink" x="0px" y="0px"
	 width="13px" height="13px" viewBox="121.5 79 13 13" enable-background="new 121.5 79 13 13" xml:space="preserve">
<g>
	<g>
		<path fill="#0492A2" d="M132.574,89.57c0.965-1.082,1.549-2.508,1.549-4.069c0-1.563-0.584-2.989-1.549-4.07v1.326
			c0.482,0.802,0.76,1.741,0.76,2.744s-0.277,1.94-0.76,2.741V89.57L132.574,89.57z M132.574,85.636V85.38h0.475l0,0
			c0.07,0,0.127,0.058,0.127,0.129c0,0.07-0.057,0.127-0.127,0.127H132.574z M128.001,91.623c1.817,0,3.452-0.793,4.573-2.053
			v-1.328c-0.932,1.553-2.633,2.59-4.573,2.59V91.623L128.001,91.623z M132.574,81.431c-1.121-1.26-2.756-2.054-4.573-2.054v0.789
			c1.94,0,3.642,1.04,4.573,2.591V81.431L132.574,81.431z M132.574,85.38v0.256H132.1c-0.07,0-0.127-0.057-0.127-0.127
			c0-0.071,0.057-0.129,0.127-0.129H132.574L132.574,85.38z M128.001,90.68v-1.201c0.005-0.002,0.009-0.002,0.014-0.002l0,0
			c0.07,0.002,0.128,0.059,0.128,0.129v0.949c0,0.07-0.058,0.127-0.128,0.127C128.01,90.682,128.006,90.682,128.001,90.68
			L128.001,90.68z M128.001,85.816v-2.771c0.005,0,0.011-0.001,0.018-0.001c0.102,0,0.182,0.057,0.182,0.126v2.079
			c0.044,0.025,0.08,0.064,0.106,0.107h2.861l0,0c0.092,0,0.164,0.077,0.164,0.172c0,0.097-0.072,0.173-0.164,0.173h-2.889
			c-0.056,0.071-0.143,0.118-0.239,0.118C128.026,85.819,128.013,85.817,128.001,85.816L128.001,85.816z M128.001,81.536v-1.203
			c0.005,0,0.009,0,0.014,0c0.07,0,0.128,0.059,0.128,0.129v0.948c0,0.069-0.058,0.128-0.128,0.128l0,0
			C128.01,81.538,128.006,81.538,128.001,81.536z M128,79.377c-1.817,0-3.449,0.792-4.57,2.05v1.324
			c0.934-1.548,2.631-2.585,4.57-2.585h0.001L128,79.377L128,79.377L128,79.377z M123.43,89.574c1.121,1.256,2.753,2.049,4.57,2.049
			h0.001v-0.791H128l0,0c-1.939,0-3.637-1.035-4.57-2.582V89.574L123.43,89.574z M128.001,80.333v1.203
			c-0.065-0.006-0.114-0.061-0.114-0.126v-0.948C127.887,80.396,127.936,80.341,128.001,80.333L128.001,80.333z M128.001,83.045
			v2.771c-0.008-0.001-0.015-0.001-0.022-0.003l-1.28,3.13c-0.038,0.094-0.091,0.16-0.119,0.148c-0.027-0.012-0.02-0.096,0.02-0.191
			l1.28-3.128c-0.088-0.054-0.147-0.151-0.147-0.262c0-0.092,0.039-0.174,0.104-0.23v-2.11
			C127.835,83.104,127.907,83.05,128.001,83.045L128.001,83.045z M128.001,89.479v1.201c-0.065-0.006-0.114-0.059-0.114-0.125
			v-0.949C127.887,89.539,127.936,89.484,128.001,89.479L128.001,89.479z M123.43,85.636v-0.255h0.474l0,0
			c0.07-0.001,0.128,0.057,0.128,0.128c0,0.07-0.058,0.127-0.128,0.127H123.43z M123.43,81.427c-0.966,1.082-1.553,2.51-1.553,4.074
			c0,1.563,0.587,2.991,1.553,4.073V88.25c-0.484-0.805-0.763-1.743-0.763-2.749s0.278-1.947,0.763-2.75V81.427L123.43,81.427z
			 M123.43,85.381v0.255h-0.475c-0.07,0-0.127-0.057-0.127-0.127c0-0.071,0.057-0.129,0.127-0.128H123.43z"/>
	</g>
</g>
</svg>
