<?xml version="1.0" encoding="utf-8"?>
<!-- Generator: Adobe Illustrator 16.0.0, SVG Export Plug-In . SVG Version: 6.00 Build 0)  -->
<!DOCTYPE svg PUBLIC "-//W3C//DTD SVG 1.1//EN" "http://www.w3.org/Graphics/SVG/1.1/DTD/svg11.dtd">
<svg version="1.1" id="Layer_1" xmlns="http://www.w3.org/2000/svg" xmlns:xlink="http://www.w3.org/1999/xlink" x="0px" y="0px"
	 width="11px" height="11px" viewBox="0 0 11 11" enable-background="new 0 0 11 11" xml:space="preserve">
<g>
	<circle fill="#542437" cx="5.5" cy="5.5" r="5.317"/>
	<g>
		<g>
			<path fill="#F1F2F2" d="M8.087,4.804L5.62,7.271C5.587,7.305,5.54,7.324,5.498,7.324s-0.09-0.02-0.122-0.053L2.909,4.804
				C2.876,4.772,2.855,4.725,2.855,4.683s0.021-0.09,0.054-0.122l0.265-0.265c0.031-0.032,0.074-0.053,0.121-0.053
				c0.043,0,0.091,0.021,0.122,0.053l2.081,2.081l2.082-2.081C7.61,4.264,7.657,4.243,7.7,4.243s0.09,0.021,0.121,0.053l0.266,0.265
				C8.118,4.593,8.14,4.64,8.14,4.683S8.118,4.772,8.087,4.804z"/>
		</g>
	</g>
</g>
</svg>
