<?xml version="1.0" encoding="utf-8"?>
<!-- Generator: Adobe Illustrator 16.0.0, SVG Export Plug-In . SVG Version: 6.00 Build 0)  -->
<!DOCTYPE svg PUBLIC "-//W3C//DTD SVG 1.1//EN" "http://www.w3.org/Graphics/SVG/1.1/DTD/svg11.dtd">
<svg version="1.1" id="Layer_1" xmlns="http://www.w3.org/2000/svg" xmlns:xlink="http://www.w3.org/1999/xlink" x="0px" y="0px"
	 width="63px" height="36px" viewBox="0 0 63 36" enable-background="new 0 0 63 36" xml:space="preserve">
<g>
	<path fill="#542437" d="M0.45,0.053c0,0.296-0.188,0.542-0.45,0.642v0.095C0.262,0.888,0.45,1.14,0.45,1.43
		c0,0.298-0.188,0.545-0.45,0.646v0.093c0.262,0.1,0.45,0.348,0.45,0.642c0,0.298-0.188,0.544-0.45,0.644v0.094
		c0.262,0.097,0.45,0.348,0.45,0.645c0,0.294-0.188,0.543-0.45,0.642v0.095c0.262,0.099,0.45,0.347,0.45,0.642
		c0,0.3-0.188,0.543-0.45,0.643v0.095c0.262,0.099,0.45,0.346,0.45,0.644C0.45,7.248,0.262,7.494,0,7.59v0.102
		c0.262,0.095,0.45,0.345,0.45,0.642c0,0.297-0.188,0.548-0.45,0.646c0,0.167,0,0.261,0,0.261c2.647,0.358,4.735,4.139,4.735,8.761
		c0,4.617-2.088,8.395-4.735,8.756v0.248c0.262,0.101,0.45,0.35,0.45,0.646c0,0.298-0.188,0.543-0.45,0.643v0.091
		c0.262,0.103,0.45,0.351,0.45,0.646S0.262,29.574,0,29.676v0.093c0.262,0.101,0.45,0.347,0.45,0.642
		c0,0.298-0.188,0.547-0.45,0.645v0.09c0.262,0.105,0.45,0.352,0.45,0.649c0,0.293-0.188,0.545-0.45,0.641v0.096
		c0.262,0.098,0.45,0.343,0.45,0.64S0.262,33.717,0,33.814v0.093c0.262,0.101,0.45,0.348,0.45,0.647c0,0.292-0.188,0.542-0.45,0.639
		v0.097c0.262,0.098,0.45,0.345,0.45,0.643c0,0.025-0.006,0.044-0.006,0.067h61.922c0-0.023-0.007-0.042-0.007-0.067
		c0-0.364,0.283-0.66,0.642-0.69l0,0c-0.358-0.029-0.642-0.327-0.642-0.688c0-0.367,0.283-0.662,0.642-0.693v-0.002
		c-0.358-0.027-0.642-0.323-0.642-0.689c0-0.363,0.283-0.657,0.642-0.687v-0.004c-0.358-0.03-0.642-0.323-0.642-0.686
		c0-0.364,0.283-0.662,0.642-0.69l0,0c-0.358-0.033-0.642-0.327-0.642-0.693c0-0.361,0.283-0.654,0.642-0.688l0,0
		c-0.358-0.032-0.642-0.329-0.642-0.691c0-0.365,0.283-0.659,0.642-0.689l0,0c-0.358-0.032-0.642-0.325-0.642-0.69
		c0-0.362,0.283-0.66,0.642-0.688v-0.206c-2.648-0.361-4.735-4.139-4.735-8.756c0-4.622,2.087-8.403,4.735-8.761V9.022
		c-0.358-0.033-0.642-0.325-0.642-0.689c0-0.363,0.283-0.661,0.642-0.69l0,0c-0.358-0.033-0.642-0.327-0.642-0.691
		c0-0.364,0.283-0.659,0.642-0.689l0,0c-0.358-0.033-0.642-0.325-0.642-0.691c0-0.362,0.283-0.654,0.642-0.688V4.88
		c-0.358-0.031-0.642-0.323-0.642-0.688c0-0.365,0.283-0.659,0.642-0.69l0,0c-0.358-0.033-0.642-0.325-0.642-0.692
		c0-0.361,0.283-0.658,0.642-0.686V2.12c-0.358-0.028-0.642-0.325-0.642-0.689S62.642,0.773,63,0.743V0.74
		c-0.358-0.03-0.642-0.323-0.642-0.688c0-0.02,0.007-0.033,0.007-0.045C59.794,0.01,57.216,0.053,54.65,0.01
		c-0.416-0.006-0.819,0.043-1.343,0.043c-0.688,0-0.417,0.492-0.427,1.069l-0.188,0.084c0,0,0.257,0.066,0.23,0.191
		c-0.018,0.125-0.061,0.376-0.127,0.397c-0.061,0.025,0,0.148-0.039,0.213c-0.043,0.06,0.02,0.332,0.02,0.332
		s0.146,0.127,0.086,0.301c-0.066,0.166-0.043,0.375,0.061,0.334c0,0,0,0.145-0.146,0.207c-0.149,0.068-0.506,0.15-0.638,0.127
		c0,0-0.104,0.17-0.188,0.127c0,0-0.061,0.127-0.145,0.233c-0.087,0.104-0.195,0.21-0.195,0.296c0,0.081-0.188,0.145-0.252,0.102
		c0,0,0.042,0.168-0.021,0.275C51.277,4.45,50.852,4.49,50.852,4.49s-0.107,0.336-0.107,0.402c0,0.061-0.106,0.313-0.252,0.355
		c-0.15,0.043-0.407,0.127-0.489,0.23c-0.088,0.109-0.336,0.169-0.401,0.19c-0.066,0.021-0.105,0.17-0.237,0.211
		c-0.029,0.013-0.094,0.025-0.18,0.043l-0.134,0.755c0,0,0.263,0.622,0.211,1.092c-0.028,0.284-0.155,0.786-0.155,0.786
		l-0.265,1.353l0.055-0.727c0,0,0.022-0.319,0.047-0.635c0.018-0.201,0.039-0.396,0.061-0.513c0.047-0.314,0.047-0.783-0.162-0.994
		c-0.21-0.209-0.365-1.117-0.365-1.117c-0.085-0.105-0.042-0.694,0.128-0.821c0,0,0.021-0.864,0.274-0.99l0.021-0.231
		c0,0-0.255-0.316-0.233-0.504c0.024-0.194-0.143-0.485-0.231-0.59c-0.084-0.109,0.064-0.208,0.064-0.208s-0.107-0.278-0.086-0.359
		c0.021-0.085-0.188-0.085-0.233-0.209c-0.039-0.129,0.023-0.336-0.064-0.548c-0.085-0.21-0.4-0.318-0.741-0.296
		c-0.012-0.281,0.073-0.625-0.104-0.852c-0.301-0.376-1.376-0.284-1.796-0.286C44.052,0.004,42.63,0,41.207,0
		c-3.848,0.004-7.699,0.004-11.553,0.004c-4.365,0-8.729,0-13.094,0c-3.757,0-7.515,0-11.268,0c-1.617,0-3.231,0-4.849,0
		C0.447,0.02,0.45,0.033,0.45,0.053z"/>
	<g>
		<path fill="#FFFFFF" d="M23.112,28.412h-0.577l-0.298-0.494h-1.118l-0.301,0.494h-0.566l1.261-2.077h0.329L23.112,28.412z
			 M21.991,27.522l-0.314-0.508l-0.315,0.508H21.991z"/>
		<path fill="#FFFFFF" d="M25.696,27.381c0,0.352-0.14,0.618-0.426,0.799c-0.239,0.154-0.547,0.232-0.914,0.232H23.24v-2.077h1.116
			c0.356,0,0.659,0.081,0.912,0.251C25.553,26.773,25.696,27.038,25.696,27.381z M25.155,27.377c0-0.204-0.084-0.362-0.254-0.475
			c-0.146-0.098-0.326-0.146-0.542-0.146h-0.584v1.236h0.584c0.225,0,0.407-0.047,0.548-0.138
			C25.07,27.744,25.155,27.586,25.155,27.377z"/>
		<path fill="#FFFFFF" d="M28.757,28.412h-0.532v-1.233l-0.79,0.968l-0.809-0.968v1.233h-0.529v-2.077h0.429l0.9,1.084l0.903-1.084
			h0.428V28.412z"/>
		<path fill="#FFFFFF" d="M29.921,28.412h-0.535v-2.083h0.535V28.412z"/>
		<path fill="#FFFFFF" d="M32.607,26.746h-0.972v1.666h-0.535v-1.666h-0.976v-0.411h2.482V26.746z"/>
		<path fill="#FFFFFF" d="M36.712,27.377c0,0.359-0.168,0.64-0.502,0.844c-0.286,0.167-0.617,0.251-1,0.251
			c-0.377,0-0.708-0.087-0.994-0.262c-0.336-0.207-0.503-0.483-0.503-0.833c0-0.353,0.167-0.631,0.497-0.833
			c0.285-0.169,0.616-0.254,1-0.254c0.389,0,0.723,0.078,1,0.244C36.544,26.734,36.712,27.015,36.712,27.377z M36.17,27.377
			c0-0.226-0.108-0.398-0.327-0.522c-0.178-0.099-0.39-0.149-0.633-0.149s-0.457,0.051-0.629,0.149
			c-0.22,0.124-0.325,0.297-0.325,0.522c0,0.223,0.105,0.398,0.325,0.523c0.172,0.099,0.386,0.149,0.629,0.149
			s0.455-0.051,0.633-0.149C36.062,27.775,36.17,27.606,36.17,27.377z"/>
		<path fill="#FFFFFF" d="M39.315,28.412h-0.313l-1.343-1.239v1.239h-0.524v-2.077h0.316l1.341,1.244v-1.244h0.522V28.412z"/>
		<path fill="#FFFFFF" d="M42.377,28.412h-2.438v-2.077h2.341v0.425h-1.812v0.343h1.186v0.42h-1.186v0.47h1.909V28.412z"/>
	</g>
	<g>
		<path fill="#FFFFFF" d="M32.121,22.944l0.469,1.425l-0.055,0.04l-1.213-0.887l-1.225,0.887l-0.054-0.04l0.465-1.425l-1.217-0.872
			l0.016-0.062h1.51l0.465-1.428h0.067l0.462,1.428h1.5l0.026,0.062L32.121,22.944z M31.282,20.826l-0.413,1.246h-1.331l1.744,0.562
			V20.826z M30.596,22.916l-0.414,1.257l1.076-1.474L30.596,22.916z M31.762,22.072l-0.413,0.562l1.739-0.562H31.762z
			 M32.033,22.916l-0.66-0.217l1.07,1.474L32.033,22.916z"/>
	</g>
	<path fill="#FFFFFF" d="M10.432,32.944h41.857c1.34,0,2.428-1.084,2.428-2.418V5.994c0-1.333-1.088-2.415-2.428-2.415h-0.423
		c-0.019,0.03-0.038,0.06-0.06,0.09c-0.087,0.104-0.195,0.21-0.195,0.296c0,0.081-0.188,0.145-0.252,0.102
		c0,0,0.002,0.021,0.006,0.048h0.924c1.043,0,1.887,0.843,1.887,1.878v24.533c0,1.038-0.844,1.881-1.887,1.881h-4.833V4.116h1.416
		c0.003-0.003,0.003-0.003,0.007-0.005l0.021-0.231c0,0-0.117-0.151-0.182-0.301H10.432C9.088,3.579,8,4.66,8,5.994v24.533
		C8,31.86,9.088,32.944,10.432,32.944z M15.799,4.116h31.12v28.292h-31.12V4.116z M8.538,5.994c0-1.035,0.847-1.878,1.894-1.878
		h4.83v28.292h-4.83c-1.046,0-1.894-0.843-1.894-1.881V5.994z"/>
	<path fill-rule="evenodd" clip-rule="evenodd" fill="#F4EDD4" d="M46.797,0.493c-0.055,0.08-0.135,0.161-0.104,0.235
		c0.023,0.083,0.155,0.186,0.285,0.212c0.131,0.024,0.292,0.233,0.292,0.233l-0.082,0.208l0.236,0.157l0.107,0.259l-0.608,0.259
		h0.476l0.291-0.023l-0.055,0.208c0,0-0.131,0.105-0.028,0.158c0.107,0.05,0.345,0.183,0.345,0.285c0,0.106,0,0.238,0,0.238
		s-0.029,0.207-0.053,0.312c-0.027,0.104,0.102,0.312,0.102,0.312l0.291,0.208c0,0,0.133,0.13,0.133,0.259c0,0.133,0,0.235,0,0.235
		s-0.03,0,0.025,0.106c0.052,0.106,0.052,0.288,0.052,0.288s0,0.022-0.107,0.183C48.292,4.98,48.292,4.98,48.292,4.98
		s-0.132,0.181-0.029,0.365c0.107,0.183,0.055,0.522,0.055,0.648c0,0.137-0.184,0.184-0.076,0.318
		c0.105,0.126,0.288,0.258,0.288,0.258s0.206,0.26,0.206,0.394c0,0.127,0.028,0.335,0.028,0.335s-0.052,0.235,0.026,0.29
		c0.08,0.051,0.106,0.206,0.106,0.291c0,0.072,0.076,0.256,0.027,0.414c-0.054,0.156-0.106,0.262-0.082,0.39
		c0.028,0.132,0.055,0.234,0.055,0.234l-0.026,0.55l0.009-0.049l0.018-0.237c0,0,0.022-0.319,0.047-0.635
		c0.018-0.201,0.039-0.396,0.061-0.513c0.047-0.314,0.047-0.783-0.162-0.994c-0.21-0.209-0.365-1.117-0.365-1.117
		c-0.085-0.105-0.042-0.694,0.128-0.821c0,0,0.021-0.864,0.274-0.99l0.021-0.231c0,0-0.255-0.316-0.233-0.504
		c0.024-0.194-0.143-0.485-0.231-0.59c-0.084-0.109,0.064-0.208,0.064-0.208s-0.107-0.278-0.086-0.359
		c0.021-0.085-0.188-0.085-0.233-0.209c-0.039-0.129,0.023-0.336-0.064-0.548c-0.085-0.21-0.4-0.318-0.741-0.296
		c-0.012-0.281,0.073-0.625-0.104-0.852c-0.154-0.193-0.511-0.259-0.875-0.284l-0.045,0.159l0.184,0.178
		C46.534,0.364,46.849,0.417,46.797,0.493z"/>
	<path fill-rule="evenodd" clip-rule="evenodd" fill="#F4EDD4" d="M51.359,4.068c0,0,0.042,0.168-0.021,0.275
		C51.277,4.45,50.852,4.49,50.852,4.49s-0.107,0.336-0.107,0.402c0,0.061-0.106,0.313-0.252,0.355
		c-0.15,0.043-0.407,0.127-0.489,0.23c-0.088,0.109-0.336,0.169-0.401,0.19c-0.066,0.021-0.105,0.17-0.237,0.211
		c-0.029,0.013-0.094,0.025-0.18,0.043l-0.134,0.755c0,0,0.263,0.622,0.211,1.092c-0.028,0.284-0.155,0.786-0.155,0.786
		l-0.176,0.903l-0.034,0.268l0.154-0.444l0.08-0.443l0.08-0.233c0,0,0.103-0.079,0.13-0.157c0.027-0.079-0.027-0.263-0.027-0.263
		s0.079-0.283,0.106-0.417c0.027-0.129,0.055-0.389,0.027-0.519c-0.027-0.132-0.079-0.235-0.079-0.235l0.13-0.208l-0.051-0.263
		c0,0-0.027-0.206,0-0.339c0.027-0.129,0.292-0.075,0.394-0.105c0.104-0.024,0.394-0.207,0.394-0.207s0.131-0.182,0.107-0.313
		c-0.025-0.129,0.442-0.181,0.521-0.366c0.08-0.18,0.371-0.18,0.498-0.18l0.739-0.236l0.128-0.105c0,0,0,0,0.027-0.184
		c0.023-0.178,0.129-0.049,0.129-0.049s0,0,0.081-0.026c0.078-0.029,0.16,0.026,0.237,0c0.078-0.029,0.129-0.08,0.105-0.158
		c-0.027-0.079-0.214-0.13-0.237-0.208c-0.027-0.08,0.104-0.183,0.261-0.208c0.159-0.027,0.342,0.025,0.523-0.079
		c0.188-0.105,0.238-0.368,0.213-0.494c-0.024-0.134-0.236-0.445-0.236-0.445S53.174,2.5,53.149,2.399
		c-0.027-0.107,0-0.158,0.13-0.26c0.132-0.106-0.105-0.417-0.105-0.417s-0.024-0.233-0.081-0.366
		c-0.051-0.129,0.081-0.341,0.159-0.442c0.08-0.103,0.159-0.186,0.132-0.367c-0.028-0.182-0.132-0.235-0.132-0.235
		s-0.015-0.111,0.027-0.256c-0.647,0.012-0.389,0.498-0.398,1.066l-0.188,0.084c0,0,0.257,0.066,0.23,0.191
		c-0.018,0.125-0.061,0.376-0.127,0.397c-0.061,0.025,0,0.148-0.039,0.213c-0.043,0.06,0.02,0.332,0.02,0.332
		s0.146,0.127,0.086,0.301c-0.066,0.166-0.043,0.375,0.061,0.334c0,0,0,0.145-0.146,0.207c-0.149,0.068-0.506,0.15-0.638,0.127
		c0,0-0.104,0.17-0.188,0.127c0,0-0.061,0.127-0.145,0.233c-0.087,0.104-0.195,0.21-0.195,0.296
		C51.611,4.046,51.423,4.111,51.359,4.068z"/>
	<g>
		<path fill="#FFFFFF" d="M22.155,11.126v7.778h-1.898v-7.778h-1.168V9.248h4.23v1.879H22.155z M19.161,9.321v1.673l0.985-0.882
			h2.085l0.954-0.791H19.161z M21.128,10.284l-0.794,0.776v7.715l0.794-0.792V10.284z"/>
		<path fill="#FFFFFF" d="M23.641,18.905V9.248h1.896v9.657H23.641z M23.714,9.31l0.006,9.466l0.792-0.792v-7.815l0.918-0.858
			H23.714z"/>
		<path fill="#FFFFFF" d="M28.857,18.531c-0.597-0.251-1.112-0.594-1.562-1.029c-0.444-0.435-0.796-0.946-1.055-1.535
			c-0.256-0.592-0.383-1.217-0.383-1.887c0-0.667,0.126-1.295,0.383-1.884c0.258-0.591,0.61-1.099,1.055-1.534
			c0.45-0.438,0.965-0.78,1.562-1.029c0.589-0.252,1.224-0.379,1.896-0.379v1.887c-0.416,0-0.806,0.077-1.167,0.231
			c-0.365,0.153-0.681,0.359-0.953,0.625c-0.271,0.266-0.483,0.574-0.641,0.931c-0.161,0.355-0.237,0.743-0.237,1.152
			c0,0.415,0.077,0.797,0.237,1.152c0.158,0.36,0.377,0.671,0.651,0.93c0.272,0.266,0.592,0.475,0.954,0.625
			c0.362,0.157,0.745,0.232,1.155,0.232v1.885C30.082,18.905,29.446,18.777,28.857,18.531z M28.785,9.741
			c-0.566,0.253-1.058,0.598-1.484,1.029c-0.425,0.431-0.759,0.927-1.003,1.496c-0.244,0.567-0.365,1.17-0.365,1.811
			c0,0.175,0.013,0.371,0.04,0.58c0.026,0.211,0.066,0.423,0.122,0.63c0.051,0.214,0.113,0.414,0.19,0.617
			c0.073,0.195,0.166,0.368,0.271,0.506c0.045,0.061,0.088,0.111,0.14,0.158c0.048,0.045,0.113,0.066,0.192,0.066
			c0.124,0,0.223-0.046,0.296-0.13c0.076-0.09,0.116-0.193,0.116-0.306c0-0.044-0.009-0.077-0.018-0.103
			c-0.015-0.029-0.033-0.059-0.048-0.095c-0.162-0.314-0.286-0.625-0.375-0.929c-0.088-0.302-0.13-0.635-0.13-0.994
			c0-0.455,0.08-0.894,0.23-1.32c0.156-0.42,0.372-0.803,0.646-1.145c0.272-0.341,0.602-0.633,0.98-0.873
			c0.38-0.234,0.8-0.407,1.248-0.513l0.768-0.896C29.957,9.348,29.349,9.484,28.785,9.741z M29.763,16.945
			c-0.279-0.09-0.535-0.22-0.766-0.39c-0.237-0.166-0.447-0.361-0.636-0.583c-0.185-0.226-0.334-0.47-0.449-0.747
			c-0.028,0.1-0.083,0.183-0.171,0.253c-0.087,0.072-0.185,0.105-0.289,0.105c-0.108,0-0.206-0.033-0.294-0.09
			c0.229,0.569,0.578,1.055,1.049,1.452c0.467,0.402,1.002,0.673,1.604,0.825l0.809-0.674C30.329,17.09,30.043,17.039,29.763,16.945
			z"/>
		<path fill="#FFFFFF" d="M35.063,14.273c-0.123,0.362-0.306,0.729-0.545,1.099c0.151,0.143,0.267,0.333,0.351,0.575
			c0.087,0.241,0.128,0.464,0.128,0.667v2.292h-1.896v-2.278l-0.131,0.063v2.216h-1.9V9.248h1.9l0.003,5.046
			c0.121-0.192,0.213-0.389,0.279-0.59c0.067-0.206,0.097-0.42,0.097-0.65l0.014-3.806h1.885v3.806
			C35.247,13.503,35.186,13.912,35.063,14.273z M31.137,9.321v9.454l0.796-0.792v-7.778l0.9-0.88L31.137,9.321z M33.429,9.321
			l0.012,3.732c0,0.248-0.043,0.487-0.121,0.725c-0.045,0.152-0.097,0.263-0.161,0.345c-0.064,0.075-0.13,0.178-0.198,0.301
			l-0.826,1.503c0.07-0.023,0.158-0.066,0.268-0.126c0.113-0.058,0.229-0.122,0.347-0.197c0.121-0.075,0.231-0.145,0.34-0.218
			c0.104-0.068,0.183-0.131,0.234-0.186c0.283-0.281,0.502-0.607,0.66-0.978c0.16-0.374,0.24-0.765,0.24-1.169v-2.834l0.893-0.894
			L33.429,9.321z M33.961,16.864c0-0.124-0.028-0.236-0.089-0.33c-0.057-0.097-0.159-0.148-0.31-0.148
			c-0.141,0-0.243,0.051-0.304,0.148c-0.062,0.094-0.092,0.206-0.092,0.33v1.911l0.794-0.792V16.864z M34.481,15.545
			c-0.162-0.159-0.354-0.237-0.584-0.237c-0.292,0-0.533,0.118-0.718,0.355c0.231,0.018,0.435,0.107,0.611,0.27
			c0.176,0.161,0.281,0.355,0.318,0.585l0.714-0.436C34.753,15.883,34.639,15.701,34.481,15.545z"/>
		<path fill="#FFFFFF" d="M35.567,18.905V9.248h3.423v1.879h-1.524v3.88h1.094v1.884h-1.094v0.129h1.524v1.885H35.567z
			 M35.647,9.321v9.454l0.794-0.792v-7.875h1.579l0.797-0.787H35.647z M37.452,15.082l-0.796,0.791h1.009l0.797-0.791H37.452z
			 M37.452,17.096l-0.796,0.794h1.435l0.798-0.794H37.452z"/>
		<path fill="#FFFFFF" d="M42.377,11.126v7.778H40.48v-7.778h-1.168V9.248h4.231v1.879H42.377z M39.39,9.321l0.003,1.673
			l0.978-0.886h2.083l0.955-0.787H39.39z M41.353,10.284l-0.796,0.776v7.715l0.796-0.792V10.284z"/>
	</g>
	<g>
		<path fill="#FFFFFF" d="M12.973,9.008l-2.17-1.802V6.654l1.792,1.48V6.347h0.377V9.008z"/>
		<path fill="#FFFFFF" d="M10.803,11.725v-2.3c0.042,0.005,0.091,0.002,0.157-0.005c0.08-0.006,0.128-0.006,0.162-0.006
			c0.246,0,0.44,0.066,0.571,0.207c0.109,0.109,0.204,0.295,0.276,0.551c0.052,0.183,0.104,0.363,0.155,0.544
			c0.11,0.321,0.199,0.484,0.262,0.484c0.091,0,0.161-0.07,0.209-0.207c0.034-0.099,0.049-0.206,0.049-0.321
			c0-0.262-0.115-0.591-0.341-0.995l0.298-0.264c0.277,0.399,0.414,0.81,0.414,1.233c0,0.248-0.043,0.467-0.131,0.657
			c-0.112,0.248-0.283,0.371-0.504,0.371c-0.168,0-0.31-0.12-0.429-0.361c-0.062-0.126-0.146-0.371-0.255-0.743
			c-0.092-0.307-0.17-0.502-0.238-0.586c-0.061-0.069-0.158-0.103-0.286-0.103v1.842H10.803z"/>
		<path fill="#FFFFFF" d="M11.87,14.898c-0.365,0-0.648-0.157-0.854-0.478c-0.184-0.274-0.268-0.601-0.268-0.985
			c0-0.453,0.137-0.854,0.41-1.203l0.276,0.28c-0.208,0.292-0.313,0.595-0.313,0.906c0,0.208,0.033,0.393,0.1,0.553
			c0.079,0.193,0.201,0.322,0.365,0.394c-0.124-0.347-0.182-0.674-0.182-0.988c0-0.304,0.054-0.577,0.171-0.818
			c0.147-0.305,0.358-0.455,0.631-0.455c0.28,0,0.492,0.143,0.639,0.43c0.115,0.23,0.17,0.499,0.17,0.804
			c0,0.399-0.091,0.743-0.268,1.036C12.535,14.723,12.243,14.898,11.87,14.898z M12.03,14.388c0.195-0.042,0.35-0.181,0.468-0.417
			c0.097-0.202,0.146-0.417,0.146-0.637c0-0.168-0.029-0.325-0.091-0.471c-0.082-0.188-0.201-0.281-0.347-0.281
			c-0.151,0-0.268,0.1-0.346,0.299c-0.062,0.148-0.091,0.311-0.091,0.489C11.769,13.706,11.856,14.047,12.03,14.388z"/>
		<path fill="#FFFFFF" d="M11.511,17.923c-0.258,0-0.462-0.156-0.602-0.476c-0.106-0.251-0.162-0.523-0.162-0.824
			c0-0.293,0.04-0.561,0.122-0.796c0.084-0.229,0.219-0.46,0.407-0.684l0.304,0.29c-0.165,0.208-0.28,0.392-0.346,0.542
			c-0.08,0.187-0.119,0.396-0.119,0.635c0,0.167,0.026,0.338,0.075,0.503c0.075,0.227,0.177,0.339,0.312,0.339
			c0.146,0,0.24-0.127,0.279-0.374c0.016-0.094,0.021-0.272,0.021-0.534h0.371c0,0.025,0,0.066,0,0.117
			c-0.003,0.051-0.003,0.09-0.003,0.112c0,0.333,0.073,0.499,0.212,0.499c0.098,0,0.168-0.074,0.213-0.209
			c0.034-0.099,0.049-0.214,0.049-0.338c0-0.323-0.106-0.66-0.321-0.998l0.315-0.272c0.25,0.395,0.378,0.822,0.378,1.285
			c0,0.25-0.043,0.469-0.131,0.649c-0.11,0.233-0.277,0.351-0.502,0.351c-0.06,0-0.128-0.015-0.2-0.047
			c-0.073-0.033-0.127-0.074-0.164-0.119C11.896,17.808,11.726,17.923,11.511,17.923z"/>
		<path fill="#FFFFFF" d="M12.973,21.067l-2.17-1.804v-0.55l1.792,1.477v-1.786h0.377V21.067z"/>
		<path fill="#FFFFFF" d="M11.881,24.039c-0.361,0-0.65-0.161-0.856-0.48c-0.186-0.281-0.277-0.608-0.277-0.988
			c0-0.382,0.091-0.707,0.277-0.984c0.207-0.322,0.496-0.485,0.856-0.485c0.362,0,0.648,0.163,0.861,0.485
			c0.183,0.277,0.274,0.603,0.274,0.984s-0.091,0.713-0.274,0.992C12.535,23.878,12.25,24.039,11.881,24.039z M11.881,23.563
			c0.247,0,0.447-0.104,0.587-0.318c0.115-0.188,0.176-0.411,0.176-0.674c0-0.257-0.061-0.48-0.182-0.667
			c-0.139-0.218-0.334-0.327-0.581-0.327c-0.246,0-0.437,0.109-0.583,0.327c-0.122,0.187-0.183,0.412-0.183,0.667
			c0,0.254,0.061,0.476,0.188,0.667C11.447,23.458,11.642,23.563,11.881,23.563z"/>
		<path fill="#FFFFFF" d="M11.562,26.836c-0.267,0-0.474-0.143-0.625-0.422c-0.128-0.229-0.188-0.496-0.188-0.788
			c0-0.453,0.14-0.891,0.429-1.313l0.325,0.23c-0.128,0.222-0.219,0.396-0.268,0.529c-0.077,0.184-0.113,0.377-0.113,0.569
			c0,0.174,0.036,0.327,0.106,0.466c0.09,0.176,0.216,0.26,0.371,0.26c0.143,0,0.252-0.097,0.326-0.287
			C11.976,25.943,12,25.783,12,25.613c0-0.271-0.066-0.542-0.207-0.809v-0.291h1.18v2.1l-0.377-0.004v-1.636h-0.31
			c0.058,0.224,0.085,0.434,0.085,0.64c0,0.305-0.058,0.571-0.173,0.799C12.055,26.693,11.841,26.836,11.562,26.836z"/>
		<path fill="#FFFFFF" d="M10.803,30.748v-0.489l0.423-0.253v-0.954l-0.423-0.249v-0.483l1.786,1.07v0.281L10.803,30.748z
			 M11.568,29.799l0.438-0.269l-0.438-0.27V29.799z"/>
	</g>
	<g>
		<path fill="#FFFFFF" d="M49.685,28.087l2.17,1.802v0.55l-1.797-1.479v1.789h-0.373V28.087z"/>
		<path fill="#FFFFFF" d="M51.854,25.368v2.301c-0.042-0.002-0.097-0.002-0.162,0.004c-0.074,0.008-0.127,0.008-0.16,0.008
			c-0.249,0-0.438-0.071-0.571-0.207c-0.109-0.108-0.202-0.293-0.274-0.554c-0.055-0.18-0.105-0.358-0.157-0.538
			c-0.11-0.324-0.194-0.486-0.262-0.486c-0.092,0-0.163,0.066-0.21,0.207c-0.033,0.097-0.048,0.202-0.048,0.316
			c0,0.261,0.112,0.596,0.344,0.995l-0.305,0.267c-0.274-0.4-0.406-0.809-0.406-1.233c0-0.245,0.042-0.465,0.126-0.656
			c0.116-0.249,0.286-0.374,0.504-0.374c0.169,0,0.311,0.121,0.434,0.366c0.053,0.124,0.14,0.372,0.248,0.736
			c0.098,0.312,0.177,0.508,0.244,0.59c0.062,0.069,0.158,0.104,0.284,0.104v-1.846H51.854z"/>
		<path fill="#FFFFFF" d="M50.784,22.196c0.365,0,0.65,0.159,0.857,0.476c0.176,0.274,0.268,0.605,0.268,0.988
			c0,0.447-0.14,0.851-0.41,1.204l-0.277-0.284c0.206-0.292,0.311-0.594,0.311-0.905c0-0.204-0.029-0.392-0.104-0.549
			c-0.071-0.194-0.193-0.326-0.36-0.393c0.123,0.341,0.186,0.671,0.186,0.984c0,0.306-0.059,0.58-0.176,0.817
			c-0.147,0.307-0.354,0.458-0.63,0.458s-0.489-0.146-0.636-0.434c-0.115-0.229-0.169-0.497-0.169-0.807
			c0-0.392,0.084-0.736,0.268-1.032C50.118,22.375,50.408,22.196,50.784,22.196z M50.622,22.705
			c-0.192,0.043-0.35,0.187-0.467,0.421c-0.098,0.198-0.146,0.414-0.146,0.634c0,0.17,0.026,0.326,0.095,0.475
			c0.078,0.184,0.193,0.279,0.343,0.279c0.155,0,0.271-0.101,0.35-0.302c0.059-0.146,0.088-0.311,0.088-0.489
			C50.885,23.389,50.797,23.05,50.622,22.705z"/>
		<path fill="#FFFFFF" d="M51.143,19.169c0.262,0,0.462,0.161,0.602,0.481c0.11,0.247,0.165,0.522,0.165,0.822
			c0,0.292-0.043,0.558-0.125,0.791c-0.082,0.234-0.219,0.465-0.409,0.691l-0.298-0.293c0.162-0.209,0.279-0.394,0.346-0.544
			c0.08-0.188,0.115-0.396,0.115-0.633c0-0.171-0.023-0.338-0.075-0.503c-0.073-0.229-0.18-0.341-0.312-0.341
			c-0.146,0-0.239,0.125-0.281,0.378c-0.013,0.09-0.019,0.269-0.019,0.53H50.48c0-0.026,0-0.064,0-0.117
			c0.002-0.048,0.006-0.088,0.006-0.112c0-0.329-0.072-0.497-0.214-0.497c-0.097,0-0.168,0.068-0.215,0.212
			c-0.033,0.097-0.048,0.21-0.048,0.334c0,0.323,0.106,0.657,0.325,0.999l-0.323,0.27c-0.249-0.393-0.369-0.822-0.369-1.286
			c0-0.248,0.042-0.462,0.126-0.644c0.11-0.236,0.28-0.353,0.504-0.353c0.063,0,0.129,0.018,0.202,0.05
			c0.072,0.031,0.128,0.069,0.161,0.115C50.757,19.287,50.924,19.169,51.143,19.169z"/>
		<path fill="#FFFFFF" d="M49.685,16.028l2.17,1.804v0.546l-1.797-1.476v1.787h-0.373V16.028z"/>
		<path fill="#FFFFFF" d="M50.772,13.057c0.365,0,0.65,0.16,0.86,0.479c0.185,0.28,0.276,0.61,0.276,0.987
			c0,0.38-0.092,0.709-0.276,0.989c-0.21,0.319-0.495,0.483-0.86,0.483c-0.364,0-0.65-0.164-0.862-0.483
			c-0.18-0.28-0.268-0.609-0.268-0.989c0-0.383,0.088-0.712,0.268-0.991C50.118,13.217,50.408,13.057,50.772,13.057z M50.772,13.531
			c-0.25,0-0.44,0.105-0.584,0.322c-0.122,0.185-0.179,0.411-0.179,0.67c0,0.257,0.057,0.479,0.186,0.668
			c0.14,0.216,0.334,0.326,0.577,0.326c0.245,0,0.438-0.109,0.584-0.326c0.12-0.191,0.182-0.411,0.182-0.668
			c0-0.252-0.062-0.477-0.182-0.667C51.206,13.64,51.016,13.531,50.772,13.531z"/>
		<path fill="#FFFFFF" d="M51.089,10.258c0.271,0,0.48,0.141,0.631,0.425c0.126,0.23,0.189,0.492,0.189,0.781
			c0,0.457-0.146,0.895-0.433,1.32l-0.325-0.236c0.128-0.223,0.22-0.395,0.268-0.525c0.078-0.191,0.113-0.381,0.113-0.577
			c0-0.168-0.033-0.323-0.109-0.458c-0.088-0.178-0.207-0.259-0.365-0.259c-0.146,0-0.255,0.093-0.328,0.283
			c-0.049,0.142-0.076,0.301-0.076,0.468c0,0.275,0.07,0.544,0.21,0.809v0.293h-1.179v-2.103l0.373,0.004v1.638h0.311
			c-0.059-0.222-0.082-0.436-0.082-0.641c0-0.301,0.058-0.57,0.17-0.794C50.599,10.403,50.813,10.258,51.089,10.258z"/>
		<path fill="#FFFFFF" d="M51.854,6.347V6.84l-0.427,0.25v0.949l0.427,0.254v0.482l-1.79-1.072V7.426L51.854,6.347z M51.085,7.298
			l-0.438,0.269l0.438,0.265V7.298z"/>
	</g>
</g>
</svg>
