<?xml version="1.0" encoding="utf-8"?>
<!-- Generator: Adobe Illustrator 16.0.0, SVG Export Plug-In . SVG Version: 6.00 Build 0)  -->
<!DOCTYPE svg PUBLIC "-//W3C//DTD SVG 1.1//EN" "http://www.w3.org/Graphics/SVG/1.1/DTD/svg11.dtd">
<svg version="1.1" id="Layer_1" xmlns="http://www.w3.org/2000/svg" xmlns:xlink="http://www.w3.org/1999/xlink" x="0px" y="0px"
	 width="176px" height="44px" viewBox="0 0 176 44" enable-background="new 0 0 176 44" xml:space="preserve">
<path fill="#F1F1F2" d="M176.822,36.495c0,4.483-3.569,8.12-7.975,8.12H8.796c-4.405,0-7.974-3.637-7.974-8.12V8.735
	c0-4.484,3.569-8.12,7.974-8.12h160.052c4.404,0,7.975,3.636,7.975,8.12V36.495z"/>
<g>
	<path fill="#54777A" d="M155.368,28.882l-7.476-12.697h0.657l7.087,11.814l7.059-11.814h0.656l-7.444,12.697H155.368z"/>
</g>
<g>
	<path fill="#F1F1F2" d="M189.036,93.17c0,3.88-3.145,7.025-7.025,7.025H41.019c-3.88,0-7.024-3.146-7.024-7.025V69.153
		c0-3.88,3.145-7.025,7.024-7.025h140.992c3.881,0,7.025,3.146,7.025,7.025V93.17z"/>
	<text transform="matrix(1 0 0 1 43.0059 89.1914)" fill="#54777B" font-family="'Raleway-Thin'" font-size="26.3428">Font size</text>
	<text transform="matrix(0 1 -1 0 163.5537 74.2295)" fill="#54777B" font-family="'Raleway-Thin'" font-size="26.3428">&gt;</text>
</g>
</svg>
