<?xml version="1.0" encoding="utf-8"?>
<!-- Generator: Adobe Illustrator 16.0.0, SVG Export Plug-In . SVG Version: 6.00 Build 0)  -->
<!DOCTYPE svg PUBLIC "-//W3C//DTD SVG 1.1//EN" "http://www.w3.org/Graphics/SVG/1.1/DTD/svg11.dtd">
<svg version="1.1" id="Layer_1" xmlns="http://www.w3.org/2000/svg" xmlns:xlink="http://www.w3.org/1999/xlink" x="0px" y="0px"
	 width="32px" height="32px" viewBox="0 0 32 32" enable-background="new 0 0 32 32" xml:space="preserve">
<path fill="#542437" d="M16,0C7.163,0,0,7.165,0,16c0,8.839,7.163,16,16,16c8.836,0,16-7.16,16-16C32,7.165,24.836,0,16,0z
	 M22.361,12.739c0.008,0.141,0.01,0.281,0.01,0.424c0,4.338-3.301,9.34-9.339,9.34c-1.854,0-3.579-0.545-5.032-1.475
	c0.257,0.029,0.519,0.046,0.784,0.046c1.539,0,2.952-0.524,4.075-1.406c-1.436-0.027-2.647-0.977-3.064-2.278
	c0.2,0.036,0.405,0.058,0.616,0.058c0.301,0,0.59-0.04,0.865-0.113c-1.501-0.303-2.633-1.631-2.633-3.22c0-0.013,0-0.027,0-0.041
	c0.442,0.247,0.949,0.392,1.487,0.411C9.248,13.895,8.67,12.889,8.67,11.75c0-0.602,0.161-1.166,0.444-1.651
	c1.617,1.986,4.037,3.293,6.764,3.43c-0.056-0.24-0.084-0.49-0.084-0.748c0-1.812,1.469-3.281,3.284-3.281
	c0.943,0,1.796,0.398,2.395,1.036c0.747-0.147,1.451-0.42,2.085-0.797c-0.245,0.768-0.766,1.41-1.443,1.816
	c0.663-0.078,1.298-0.256,1.886-0.516C23.56,11.697,23.004,12.275,22.361,12.739z"/>
</svg>
