<?xml version="1.0" encoding="utf-8"?>
<!-- Generator: Adobe Illustrator 16.0.0, SVG Export Plug-In . SVG Version: 6.00 Build 0)  -->
<!DOCTYPE svg PUBLIC "-//W3C//DTD SVG 1.1//EN" "http://www.w3.org/Graphics/SVG/1.1/DTD/svg11.dtd">
<svg version="1.1" id="Layer_1" xmlns="http://www.w3.org/2000/svg" xmlns:xlink="http://www.w3.org/1999/xlink" x="0px" y="0px"
	 width="58px" height="55px" viewBox="0 0 58 55" enable-background="new 0 0 58 55" xml:space="preserve">
<g>
	<path fill="#542437" d="M53.856,4.137c-4.254-4.243-12.381-5.914-16.635-1.666L3.188,36.445C-1.063,40.69-1.063,47.57,3.19,51.814
		c4.25,4.248,11.142,4.248,15.396,0l7.922-7.907l14.917-14.893c4.254-4.244,5.362-10.021,1.111-14.264
		c-4.254-4.246-10.039-3.141-14.289,1.102L13.326,30.748l1.599,1.594l14.919-14.891c3.365-3.358,7.73-4.465,11.092-1.107
		c3.363,3.36,2.258,7.717-1.106,11.074L24.909,42.31l-7.922,7.913c-3.363,3.354-8.837,3.354-12.199,0
		c-3.363-3.36-3.363-8.825,0-12.18L38.822,4.063c3.365-3.356,10.072-1.689,13.436,1.668c3.361,3.359,5.035,10.056,1.67,13.413
		l-29.713,29.66l1.599,1.596l29.713-29.664C59.777,16.493,58.107,8.38,53.856,4.137z"/>
</g>
</svg>
