<?xml version="1.0" encoding="utf-8"?>
<!-- Generator: Adobe Illustrator 16.0.0, SVG Export Plug-In . SVG Version: 6.00 Build 0)  -->
<!DOCTYPE svg PUBLIC "-//W3C//DTD SVG 1.1//EN" "http://www.w3.org/Graphics/SVG/1.1/DTD/svg11.dtd">
<svg version="1.1" id="Layer_1" xmlns="http://www.w3.org/2000/svg" xmlns:xlink="http://www.w3.org/1999/xlink" x="0px" y="0px"
	 width="155px" height="97px" viewBox="0 0 155 97" enable-background="new 0 0 155 97" xml:space="preserve">
<path fill="#FED093" d="M155,89.004c0,4.416-3.584,7.996-8.004,7.996H8.003C3.583,97,0,93.42,0,89.004V7.997C0,3.58,3.583,0,8.003,0
	h138.993C151.416,0,155,3.58,155,7.997V89.004z"/>
<g>
	<path fill="#542437" d="M42.458,76.996c1.116,0,2.046-0.213,2.788-0.637c0.741-0.426,1.333-0.984,1.774-1.676
		s0.75-1.479,0.925-2.362c0.176-0.884,0.263-1.774,0.263-2.675v-8.95h1.75v8.95c0,1.199-0.134,2.338-0.399,3.412
		c-0.268,1.075-0.696,2.021-1.288,2.838s-1.362,1.467-2.313,1.949c-0.95,0.484-2.108,0.726-3.475,0.726
		c-1.417,0-2.601-0.254-3.55-0.763c-0.95-0.508-1.717-1.179-2.301-2.012c-0.583-0.834-1-1.783-1.25-2.851
		c-0.25-1.066-0.375-2.167-0.375-3.3v-8.95h1.726v8.95c0,0.934,0.091,1.842,0.274,2.725c0.184,0.884,0.496,1.667,0.938,2.35
		c0.441,0.684,1.029,1.234,1.763,1.65C40.441,76.788,41.358,76.996,42.458,76.996z"/>
	<path fill="#542437" d="M60.408,78.696c-1.1,0-2.075-0.278-2.925-0.837c-0.851-0.559-1.534-1.264-2.05-2.113v8.025h-1.7v-18.35
		h1.524v2.524c0.533-0.816,1.226-1.479,2.075-1.987c0.851-0.508,1.775-0.763,2.775-0.763c0.899,0,1.729,0.188,2.487,0.563
		c0.758,0.375,1.412,0.875,1.963,1.5c0.55,0.625,0.979,1.347,1.287,2.163s0.463,1.658,0.463,2.524c0,0.917-0.143,1.784-0.426,2.601
		s-0.688,1.533-1.212,2.149c-0.525,0.616-1.15,1.104-1.875,1.462C62.07,78.518,61.274,78.696,60.408,78.696z M59.934,77.196
		c0.699,0,1.333-0.149,1.899-0.45c0.566-0.3,1.054-0.695,1.463-1.188c0.408-0.491,0.721-1.05,0.938-1.675
		c0.216-0.625,0.325-1.271,0.325-1.938c0-0.7-0.125-1.366-0.375-2s-0.592-1.191-1.025-1.675s-0.946-0.867-1.537-1.15
		c-0.592-0.283-1.229-0.425-1.913-0.425c-0.434,0-0.884,0.087-1.35,0.263c-0.467,0.175-0.909,0.408-1.325,0.699
		c-0.417,0.293-0.771,0.635-1.063,1.025c-0.292,0.393-0.471,0.805-0.537,1.238v4c0.199,0.467,0.453,0.899,0.762,1.299
		c0.309,0.4,0.658,0.746,1.051,1.038c0.391,0.292,0.816,0.521,1.274,0.688S59.449,77.196,59.934,77.196z"/>
	<path fill="#542437" d="M69.183,60.196h1.699v15.3c0,0.484,0.134,0.863,0.4,1.138s0.642,0.413,1.125,0.413
		c0.184,0,0.4-0.025,0.65-0.076c0.25-0.049,0.482-0.115,0.699-0.199l0.301,1.375c-0.317,0.133-0.705,0.242-1.163,0.324
		c-0.458,0.084-0.854,0.125-1.188,0.125c-0.783,0-1.399-0.221-1.85-0.662s-0.675-1.063-0.675-1.862V60.196z"/>
	<path fill="#542437" d="M81.308,78.696c-0.95,0-1.821-0.179-2.612-0.538c-0.792-0.357-1.476-0.846-2.051-1.462
		c-0.574-0.616-1.021-1.333-1.337-2.149c-0.317-0.816-0.476-1.676-0.476-2.576c0-0.916,0.163-1.783,0.488-2.6
		c0.324-0.816,0.774-1.533,1.35-2.15c0.575-0.615,1.258-1.107,2.05-1.475c0.792-0.366,1.654-0.55,2.588-0.55
		c0.933,0,1.796,0.184,2.587,0.55c0.792,0.367,1.476,0.859,2.051,1.475c0.574,0.617,1.024,1.334,1.35,2.15s0.487,1.684,0.487,2.6
		c0,0.9-0.162,1.76-0.487,2.576s-0.775,1.533-1.35,2.149c-0.575,0.616-1.259,1.104-2.051,1.462
		C83.104,78.518,82.24,78.696,81.308,78.696z M76.582,71.996c0,0.734,0.121,1.412,0.363,2.037c0.241,0.625,0.574,1.176,1,1.65
		c0.425,0.475,0.925,0.846,1.5,1.113c0.574,0.266,1.188,0.399,1.837,0.399c0.65,0,1.263-0.138,1.838-0.413
		c0.575-0.274,1.079-0.649,1.513-1.125c0.433-0.475,0.774-1.028,1.024-1.662c0.25-0.633,0.375-1.316,0.375-2.05
		c0-0.716-0.125-1.396-0.375-2.038c-0.25-0.641-0.592-1.199-1.024-1.674c-0.434-0.476-0.934-0.851-1.5-1.125
		c-0.567-0.275-1.176-0.413-1.825-0.413c-0.65,0-1.263,0.138-1.838,0.413c-0.575,0.274-1.075,0.654-1.5,1.137
		c-0.425,0.484-0.763,1.047-1.013,1.688C76.707,70.576,76.582,71.264,76.582,71.996z"/>
	<path fill="#542437" d="M94.008,78.696c-0.667,0-1.275-0.104-1.825-0.313s-1.021-0.495-1.413-0.862s-0.695-0.791-0.912-1.275
		c-0.217-0.482-0.325-0.991-0.325-1.525c0-0.6,0.134-1.145,0.4-1.637s0.642-0.912,1.125-1.263s1.063-0.62,1.737-0.813
		c0.675-0.191,1.421-0.288,2.237-0.288c0.65,0,1.316,0.059,2,0.176s1.292,0.283,1.825,0.5v-1.176c0-1.149-0.329-2.063-0.987-2.736
		c-0.659-0.676-1.546-1.014-2.663-1.014c-0.699,0-1.396,0.135-2.087,0.4c-0.692,0.268-1.396,0.65-2.112,1.15l-0.601-1.125
		c0.851-0.566,1.675-0.992,2.476-1.275c0.8-0.283,1.633-0.425,2.5-0.425c1.583,0,2.841,0.458,3.774,1.375s1.4,2.184,1.4,3.8v5.875
		c0,0.467,0.2,0.7,0.6,0.7v1.5c-0.134,0.017-0.259,0.028-0.375,0.038c-0.116,0.008-0.217,0.012-0.3,0.012
		c-0.334,0-0.638-0.1-0.912-0.3c-0.275-0.2-0.43-0.5-0.463-0.899l-0.05-1.025c-0.567,0.767-1.313,1.362-2.237,1.787
		C95.895,78.484,94.957,78.696,94.008,78.696z M94.433,77.396c0.75,0,1.495-0.162,2.237-0.488c0.741-0.324,1.329-0.77,1.763-1.337
		c0.116-0.149,0.216-0.313,0.3-0.487c0.083-0.176,0.125-0.338,0.125-0.488v-2.125c-0.566-0.216-1.158-0.383-1.775-0.5
		c-0.616-0.115-1.217-0.174-1.8-0.174c-1.217,0-2.204,0.246-2.962,0.736c-0.759,0.492-1.138,1.172-1.138,2.038
		c0,0.351,0.066,0.692,0.2,1.024c0.133,0.334,0.337,0.635,0.612,0.9c0.274,0.268,0.612,0.484,1.013,0.65
		C93.407,77.313,93.883,77.396,94.433,77.396z"/>
	<path fill="#542437" d="M109.656,78.696c-0.899,0-1.733-0.188-2.5-0.563s-1.429-0.87-1.987-1.487s-0.991-1.329-1.3-2.138
		c-0.309-0.808-0.463-1.653-0.463-2.538c0-0.916,0.15-1.787,0.45-2.611c0.3-0.826,0.713-1.547,1.237-2.163
		c0.525-0.616,1.15-1.104,1.875-1.462c0.726-0.359,1.521-0.538,2.388-0.538c1.101,0,2.075,0.288,2.925,0.862
		c0.851,0.575,1.525,1.271,2.025,2.088v-7.95h1.7v16.05c0,0.467,0.2,0.7,0.6,0.7v1.5c-0.283,0.05-0.509,0.075-0.675,0.075
		c-0.417,0-0.759-0.121-1.025-0.363c-0.267-0.24-0.399-0.528-0.399-0.861v-1.375c-0.534,0.85-1.237,1.524-2.112,2.024
		S110.606,78.696,109.656,78.696z M110.007,77.196c0.433,0,0.888-0.083,1.362-0.25s0.916-0.396,1.325-0.688
		c0.408-0.292,0.763-0.634,1.063-1.024c0.3-0.393,0.483-0.813,0.55-1.264v-4.024c-0.167-0.45-0.412-0.87-0.737-1.263
		c-0.325-0.391-0.692-0.737-1.101-1.037c-0.408-0.301-0.842-0.533-1.3-0.7s-0.912-0.25-1.362-0.25c-0.7,0-1.338,0.149-1.912,0.45
		c-0.575,0.3-1.063,0.695-1.463,1.188s-0.713,1.055-0.938,1.688s-0.338,1.283-0.338,1.949c0,0.701,0.125,1.367,0.375,2
		c0.25,0.635,0.592,1.188,1.025,1.663s0.945,0.854,1.537,1.138S109.323,77.196,110.007,77.196z"/>
</g>
<g>
	<path fill="#542437" d="M99.397,14.1c-3.36-3.357-9.781-4.68-13.141-1.319L59.368,39.667c-3.359,3.36-3.359,8.804,0.001,12.164
		c3.357,3.36,8.803,3.36,12.163,0l6.258-6.258l11.787-11.785c3.359-3.358,4.234-7.93,0.877-11.288
		c-3.36-3.36-7.932-2.485-11.288,0.872l-11.79,11.787l1.264,1.262l11.786-11.784c2.659-2.658,6.109-3.534,8.763-0.876
		c2.658,2.659,1.785,6.107-0.874,8.763L76.528,44.308l-6.258,6.261c-2.657,2.656-6.982,2.656-9.638,0
		c-2.657-2.658-2.657-6.982,0-9.637l26.887-26.89c2.658-2.656,7.959-1.337,10.614,1.321c2.655,2.657,3.978,7.957,1.319,10.613
		L75.979,49.447l1.264,1.263l23.475-23.475C104.074,23.878,102.755,17.458,99.397,14.1z"/>
</g>
</svg>
