<?xml version="1.0" encoding="utf-8"?>
<!-- Generator: Adobe Illustrator 16.0.0, SVG Export Plug-In . SVG Version: 6.00 Build 0)  -->
<!DOCTYPE svg PUBLIC "-//W3C//DTD SVG 1.1//EN" "http://www.w3.org/Graphics/SVG/1.1/DTD/svg11.dtd">
<svg version="1.1" id="Layer_1" xmlns="http://www.w3.org/2000/svg" xmlns:xlink="http://www.w3.org/1999/xlink" x="0px" y="0px"
	 width="486px" height="245px" viewBox="0 0 486 245" enable-background="new 0 0 486 245" xml:space="preserve">
<g>
	<g>
		<rect fill="#0492A2" width="486" height="245"/>
		<rect x="5.498" y="4.125" fill="#F1F2F2" width="474.449" height="235.279"/>
	</g>
	<g>
		<polygon fill="#0492A2" points="311.066,205.146 168.278,188.971 187.841,17.396 330.632,33.572 		"/>
		<polygon fill="#F1F2F2" points="309.777,157.602 180.238,142.927 193.817,23.833 323.357,38.506 		"/>
	</g>
	<g>
		<polygon fill="#0492A2" points="302.294,189.367 159.424,204.843 140.708,33.175 283.574,17.7 		"/>
		<polygon fill="#F1F2F2" points="290.559,143.266 160.947,157.305 147.959,38.146 277.564,24.107 		"/>
	</g>
	<g>
		<g>
			<path fill="#542437" d="M162.039,100.325l6.643,10.855l6.671-10.855h2.167l-7.868,12.673v7.502h-1.967v-7.559l-7.812-12.617
				H162.039z"/>
			<path fill="#542437" d="M187.326,120.642c-1.406,0-2.694-0.288-3.863-0.866c-1.168-0.577-2.171-1.345-3.007-2.302
				c-0.837-0.956-1.482-2.051-1.938-3.282c-0.457-1.23-0.685-2.49-0.685-3.779c0-1.345,0.243-2.633,0.727-3.864
				c0.485-1.231,1.155-2.32,2.01-3.268c0.855-0.947,1.862-1.7,3.022-2.259c1.159-0.559,2.414-0.838,3.763-0.838
				c1.406,0,2.694,0.298,3.863,0.895s2.167,1.378,2.993,2.344c0.827,0.966,1.468,2.061,1.924,3.282
				c0.457,1.222,0.685,2.468,0.685,3.736c0,1.346-0.243,2.634-0.727,3.865c-0.485,1.231-1.15,2.315-1.996,3.253
				c-0.846,0.938-1.849,1.687-3.008,2.245C189.93,120.363,188.675,120.642,187.326,120.642z M179.828,110.412
				c0,1.1,0.181,2.155,0.542,3.169c0.361,1.014,0.874,1.913,1.539,2.699c0.665,0.786,1.454,1.411,2.366,1.875
				c0.913,0.465,1.929,0.696,3.05,0.696c1.141,0,2.176-0.246,3.107-0.738s1.72-1.137,2.366-1.933s1.145-1.695,1.497-2.699
				c0.351-1.004,0.527-2.027,0.527-3.069c0-1.099-0.186-2.154-0.556-3.168s-0.889-1.908-1.554-2.686
				c-0.666-0.776-1.454-1.396-2.366-1.861c-0.912-0.464-1.92-0.696-3.022-0.696c-1.14,0-2.176,0.241-3.107,0.725
				c-0.932,0.483-1.721,1.122-2.366,1.917c-0.646,0.796-1.146,1.696-1.497,2.7S179.828,109.371,179.828,110.412z"/>
			<path fill="#542437" d="M208.85,118.852c1.273,0,2.333-0.241,3.179-0.725c0.845-0.482,1.521-1.117,2.024-1.903
				s0.855-1.682,1.055-2.686c0.199-1.004,0.299-2.018,0.299-3.04v-10.173h1.996v10.173c0,1.363-0.152,2.656-0.457,3.878
				c-0.304,1.223-0.793,2.298-1.468,3.226c-0.675,0.929-1.554,1.667-2.637,2.217s-2.404,0.823-3.963,0.823
				c-1.615,0-2.965-0.288-4.048-0.866c-1.083-0.577-1.958-1.34-2.623-2.287s-1.14-2.027-1.425-3.24
				c-0.285-1.212-0.428-2.462-0.428-3.75v-10.173h1.967v10.173c0,1.061,0.104,2.093,0.313,3.097
				c0.209,1.005,0.565,1.895,1.069,2.671c0.503,0.777,1.173,1.402,2.01,1.876C206.55,118.615,207.595,118.852,208.85,118.852z"/>
			<path fill="#542437" d="M222.191,120.5v-20.175h8.524c0.874,0,1.682,0.185,2.423,0.554c0.741,0.369,1.378,0.853,1.91,1.449
				c0.532,0.597,0.945,1.274,1.24,2.032c0.294,0.758,0.442,1.525,0.442,2.301c0,0.739-0.109,1.445-0.328,2.117
				c-0.219,0.673-0.528,1.279-0.927,1.818c-0.399,0.54-0.875,0.995-1.425,1.364c-0.552,0.369-1.169,0.621-1.853,0.753l4.989,7.786
				h-2.252l-4.79-7.445h-5.987v7.445H222.191z M224.158,111.293h6.643c0.589,0,1.126-0.128,1.611-0.384
				c0.484-0.255,0.898-0.601,1.24-1.037c0.342-0.436,0.608-0.928,0.798-1.478c0.19-0.549,0.285-1.127,0.285-1.733
				c0-0.605-0.109-1.188-0.328-1.747c-0.219-0.559-0.513-1.047-0.884-1.463s-0.808-0.749-1.312-0.995
				c-0.504-0.246-1.031-0.37-1.582-0.37h-6.472V111.293z"/>
			<path fill="#542437" d="M248.305,120.5v-20.175h1.967v18.414h11.717v1.762H248.305z"/>
			<path fill="#542437" d="M272.052,120.642c-1.407,0-2.694-0.288-3.863-0.866c-1.169-0.577-2.171-1.345-3.008-2.302
				c-0.836-0.956-1.482-2.051-1.938-3.282c-0.456-1.23-0.684-2.49-0.684-3.779c0-1.345,0.242-2.633,0.727-3.864
				s1.154-2.32,2.01-3.268c0.855-0.947,1.862-1.7,3.022-2.259c1.158-0.559,2.413-0.838,3.763-0.838c1.406,0,2.694,0.298,3.863,0.895
				c1.168,0.597,2.166,1.378,2.993,2.344c0.826,0.966,1.468,2.061,1.924,3.282s0.685,2.468,0.685,3.736
				c0,1.346-0.242,2.634-0.728,3.865c-0.484,1.231-1.149,2.315-1.995,3.253c-0.846,0.938-1.849,1.687-3.008,2.245
				C274.655,120.363,273.4,120.642,272.052,120.642z M264.554,110.412c0,1.1,0.181,2.155,0.542,3.169
				c0.36,1.014,0.874,1.913,1.539,2.699s1.454,1.411,2.366,1.875c0.912,0.465,1.929,0.696,3.051,0.696
				c1.14,0,2.176-0.246,3.107-0.738c0.931-0.492,1.72-1.137,2.366-1.933c0.646-0.796,1.145-1.695,1.496-2.699
				s0.527-2.027,0.527-3.069c0-1.099-0.185-2.154-0.556-3.168c-0.37-1.014-0.889-1.908-1.554-2.686
				c-0.665-0.776-1.454-1.396-2.366-1.861c-0.912-0.464-1.92-0.696-3.021-0.696c-1.141,0-2.177,0.241-3.107,0.725
				c-0.932,0.483-1.721,1.122-2.366,1.917c-0.646,0.796-1.146,1.696-1.497,2.7S264.554,109.371,264.554,110.412z"/>
			<path fill="#542437" d="M300.047,117.573c-1.881,2.046-4.039,3.068-6.471,3.068c-1.369,0-2.628-0.293-3.777-0.881
				c-1.15-0.587-2.148-1.363-2.994-2.33c-0.846-0.966-1.506-2.06-1.981-3.281c-0.475-1.223-0.712-2.477-0.712-3.766
				c0-1.345,0.232-2.633,0.698-3.864s1.111-2.316,1.938-3.254c0.827-0.938,1.814-1.686,2.965-2.245
				c1.149-0.559,2.399-0.838,3.749-0.838c0.987,0,1.886,0.109,2.693,0.327c0.808,0.218,1.53,0.521,2.167,0.91
				s1.192,0.853,1.668,1.392c0.475,0.54,0.874,1.132,1.197,1.776l-1.539,1.023c-0.666-1.25-1.53-2.169-2.595-2.756
				s-2.271-0.881-3.62-0.881c-1.122,0-2.134,0.237-3.036,0.71c-0.903,0.474-1.673,1.104-2.31,1.89s-1.126,1.686-1.468,2.699
				c-0.343,1.014-0.514,2.061-0.514,3.14c0,1.137,0.194,2.217,0.585,3.239c0.389,1.023,0.926,1.919,1.61,2.686
				c0.685,0.768,1.487,1.378,2.409,1.833c0.921,0.455,1.924,0.682,3.008,0.682c1.158,0,2.261-0.27,3.307-0.81
				c1.045-0.54,2.053-1.388,3.021-2.543v-3.382h-4.476v-1.534h6.187v9.917h-1.711V117.573z"/>
			<path fill="#542437" d="M314.187,120.642c-1.407,0-2.694-0.288-3.863-0.866c-1.169-0.577-2.171-1.345-3.008-2.302
				c-0.836-0.956-1.482-2.051-1.938-3.282c-0.456-1.23-0.684-2.49-0.684-3.779c0-1.345,0.242-2.633,0.727-3.864
				s1.154-2.32,2.01-3.268c0.855-0.947,1.862-1.7,3.022-2.259c1.158-0.559,2.413-0.838,3.763-0.838c1.406,0,2.694,0.298,3.863,0.895
				c1.168,0.597,2.166,1.378,2.993,2.344c0.826,0.966,1.468,2.061,1.924,3.282s0.685,2.468,0.685,3.736
				c0,1.346-0.242,2.634-0.728,3.865c-0.484,1.231-1.149,2.315-1.995,3.253c-0.846,0.938-1.849,1.687-3.008,2.245
				C316.79,120.363,315.535,120.642,314.187,120.642z M306.688,110.412c0,1.1,0.181,2.155,0.542,3.169
				c0.36,1.014,0.874,1.913,1.539,2.699s1.454,1.411,2.366,1.875c0.912,0.465,1.929,0.696,3.051,0.696
				c1.14,0,2.176-0.246,3.107-0.738c0.931-0.492,1.72-1.137,2.366-1.933c0.646-0.796,1.145-1.695,1.496-2.699
				s0.527-2.027,0.527-3.069c0-1.099-0.185-2.154-0.556-3.168c-0.37-1.014-0.889-1.908-1.554-2.686
				c-0.665-0.776-1.454-1.396-2.366-1.861c-0.912-0.464-1.92-0.696-3.021-0.696c-1.141,0-2.177,0.241-3.107,0.725
				c-0.932,0.483-1.721,1.122-2.366,1.917c-0.646,0.796-1.146,1.696-1.497,2.7S306.688,109.371,306.688,110.412z"/>
		</g>
	</g>
</g>
<g>
	<g>
		<g>
			<g>
				<rect x="234.806" y="392.798" fill="#0492A2" width="486" height="245"/>
				<rect x="240.304" y="396.924" fill="#F1F1F2" width="474.45" height="235.278"/>
			</g>
		</g>
		<g>
			<g>
				<g>
					<polygon fill="#0492A2" points="545.872,597.944 403.085,581.769 422.647,410.194 565.437,426.369 					"/>
					<polygon fill="#F1F1F2" points="544.584,550.4 415.044,535.727 428.621,416.631 558.164,431.306 					"/>
				</g>
				<g>
					<polygon fill="#0492A2" points="537.1,582.165 394.229,597.642 375.515,425.974 518.38,410.499 					"/>
					<polygon fill="#F1F1F2" points="525.363,536.064 395.753,550.104 382.762,430.944 512.371,416.905 					"/>
				</g>
			</g>
		</g>
	</g>
</g>
</svg>
