<?xml version="1.0" encoding="utf-8"?>
<!-- Generator: Adobe Illustrator 16.0.0, SVG Export Plug-In . SVG Version: 6.00 Build 0)  -->
<!DOCTYPE svg PUBLIC "-//W3C//DTD SVG 1.1//EN" "http://www.w3.org/Graphics/SVG/1.1/DTD/svg11.dtd">
<svg version="1.1" id="Layer_1" xmlns="http://www.w3.org/2000/svg" xmlns:xlink="http://www.w3.org/1999/xlink" x="0px" y="0px"
	 width="226px" height="109px" viewBox="0 0 226 109" enable-background="new 0 0 226 109" xml:space="preserve">
<path fill="#623C30" d="M101.984,99.098c0-10.539,32.612-19.082,72.839-19.082c19.938,0,38,2.101,51.152,5.501V8.875
	c0-4.8-3.891-8.69-8.689-8.69H8.715c-4.799,0-8.69,3.891-8.69,8.69v91.25c0,4.8,3.891,8.69,8.69,8.69H112.14
	C105.695,105.969,101.984,102.646,101.984,99.098z"/>
<path fill="#B07265" d="M225.976,100.125V85.517c-13.152-3.4-31.215-5.501-51.152-5.501c-40.227,0-72.839,8.543-72.839,19.082
	c0,3.549,3.711,6.871,10.155,9.718h105.146C222.085,108.815,225.976,104.925,225.976,100.125z"/>
<g>
	<circle fill="#B07265" cx="189.585" cy="26.712" r="4.65"/>
	<circle fill="#B07265" cx="206.421" cy="26.906" r="3.523"/>
	<path fill="#B07265" d="M208.821,14.661c-3.891,0.002-7.293,2.049-9.219,5.117c-1.895-4.982-6.699-8.53-12.346-8.532
		c-7.301,0.003-13.221,5.92-13.221,13.221s5.92,13.218,13.221,13.218c2.848,0,5.477-0.909,7.637-2.441l3.463,5.477
		c0.219,0.349,0.6,0.558,1.008,0.558c0.016,0,0.031-0.001,0.049-0.001c0.428-0.015,0.813-0.255,1.012-0.634l3.008-5.652
		c1.59,0.909,3.424,1.437,5.389,1.438c6.012-0.003,10.883-4.873,10.885-10.882C219.704,19.533,214.833,14.663,208.821,14.661z
		 M176.753,24.467c0.012-5.801,4.703-10.492,10.504-10.502c5.801,0.01,10.49,4.701,10.5,10.502
		c-0.01,5.799-4.699,10.491-10.5,10.502C181.456,34.958,176.765,30.266,176.753,24.467z M199.278,37.697l-2.545-4.025
		c0.941-0.971,1.73-2.087,2.342-3.309c0.6,1.211,1.418,2.292,2.404,3.197L199.278,37.697z M208.821,33.71
		c-4.51-0.009-8.156-3.654-8.164-8.164c0.008-4.512,3.654-8.159,8.164-8.167c4.51,0.008,8.156,3.655,8.164,8.167
		C216.978,30.056,213.331,33.701,208.821,33.71z"/>
	<path fill="none" stroke="#FCB316" stroke-width="3" stroke-linecap="round" stroke-linejoin="round" d="M185.946,4.146"/>
	<g>
		<path fill="#B07265" d="M199.427,13.395c-3.48-4.139-8.857-5.6-11.307-6.023l0,0c-0.813-0.145-1.254-0.176-1.256-0.176l0,0h0.002
			c-0.75-0.059-1.311-0.709-1.254-1.459l0,0c0.059-0.747,0.711-1.309,1.459-1.252l0,0c0.127,0.035,7.996,0.554,13.594,6.243l0,0
			c1.627-1.051,5.018-2.913,9.066-3.175l0,0c0.748-0.045,1.391,0.526,1.436,1.274l0,0c0.047,0.749-0.527,1.392-1.275,1.438l0,0
			c-3.424,0.19-6.615,1.982-7.938,2.864l0,0c-0.441,0.292-0.654,0.457-0.658,0.457l0,0c-0.246,0.194-0.541,0.288-0.834,0.288l0,0
			C200.077,13.874,199.694,13.711,199.427,13.395L199.427,13.395z"/>
	</g>
</g>
</svg>
