<?xml version="1.0" encoding="utf-8"?>
<!-- Generator: Adobe Illustrator 17.0.0, SVG Export Plug-In . SVG Version: 6.00 Build 0)  -->
<!DOCTYPE svg PUBLIC "-//W3C//DTD SVG 1.0//EN" "http://www.w3.org/TR/2001/REC-SVG-20010904/DTD/svg10.dtd">
<svg version="1.0" id="Layer_1" xmlns="http://www.w3.org/2000/svg" xmlns:xlink="http://www.w3.org/1999/xlink" xmlns:sodipodi="http://sodipodi.sourceforge.net/DTD/sodipodi-0.dtd" x="0px" y="0px"
	 width="226px" height="109px" viewBox="0 0 226 109" enable-background="new 0 0 226 109" xml:space="preserve">
<g>
	<path fill="#458993" d="M217.284,0.185H8.714c-4.799,0-8.689,3.891-8.689,8.69v67.177c2.258-0.67,4.646-1.035,7.121-1.035
		c13.793,0,24.973,11.18,24.973,24.971c0,3.109-0.572,6.082-1.611,8.828h81.633h105.145c4.801,0,8.691-3.891,8.691-8.691V85.517
		V8.875C225.976,4.075,222.085,0.185,217.284,0.185z"/>
	
		<path id="path4389_4_" sodipodi:ry="22.988461" sodipodi:type="arc" sodipodi:cy="849.84454" sodipodi:cx="71.931633" sodipodi:rx="22.988461" fill="#D87250" d="
		M159.823,62.511c0,13.791-11.18,24.973-24.973,24.973c-13.791,0-24.973-11.182-24.973-24.973c0-13.792,11.182-24.972,24.973-24.972
		C148.644,37.539,159.823,48.719,159.823,62.511z"/>
	
		<path id="path4391_2_" sodipodi:ry="34.853474" sodipodi:type="arc" sodipodi:cy="852.81079" sodipodi:cx="109.0098" sodipodi:rx="34.853474" fill="#D87250" d="
		M215.163,65.731c0,20.91-16.951,37.861-37.861,37.861c-20.91,0-37.861-16.951-37.861-37.861c0-20.909,16.951-37.86,37.861-37.86
		C198.212,27.871,215.163,44.822,215.163,65.731z"/>
	<path fill="#D87250" d="M7.145,75.017c-2.475,0-4.863,0.365-7.121,1.035v24.072c0,4.801,3.891,8.691,8.689,8.691h21.793
		c1.039-2.746,1.611-5.719,1.611-8.828C32.118,86.196,20.938,75.017,7.145,75.017z"/>
	
		<path id="path4389_1_" sodipodi:ry="22.988461" sodipodi:type="arc" sodipodi:cy="849.84454" sodipodi:cx="71.931633" sodipodi:rx="22.988461" fill="#D87250" d="
		M159.823,62.511c0,13.791-11.18,24.973-24.973,24.973c-13.791,0-24.973-11.182-24.973-24.973c0-13.792,11.182-24.972,24.973-24.972
		C148.644,37.539,159.823,48.719,159.823,62.511z"/>
</g>
</svg>
