<?xml version="1.0" encoding="utf-8"?>
<!-- Generator: Adobe Illustrator 16.0.0, SVG Export Plug-In . SVG Version: 6.00 Build 0)  -->
<!DOCTYPE svg PUBLIC "-//W3C//DTD SVG 1.1//EN" "http://www.w3.org/Graphics/SVG/1.1/DTD/svg11.dtd">
<svg version="1.1" id="Layer_1" xmlns="http://www.w3.org/2000/svg" xmlns:xlink="http://www.w3.org/1999/xlink" xmlns:sodipodi="http://sodipodi.sourceforge.net/DTD/sodipodi-0.dtd" x="0px" y="0px"
	 width="226px" height="109px" viewBox="0 0 226 109" enable-background="new 0 0 226 109" xml:space="preserve">
<g>
	<path fill="#3D5024" d="M8.716,0.185c-4.799,0-8.691,3.891-8.691,8.691v67.177v24.072c0,4.8,3.893,8.69,8.691,8.69h21.793h81.631
		h54.874V0.185H8.716z"/>
	<path fill="#E78724" d="M217.287,0.185h-50.273v108.631h50.273c4.799,0,8.689-3.891,8.689-8.69V85.517V8.876
		C225.977,4.075,222.086,0.185,217.287,0.185z"/>
	<path id="path2989_2_" sodipodi:nodetypes="csscsssc" fill="#E78724" d="M42.035,61.449c0,2.388-0.484,4.662-1.359,6.73
		s-2.141,3.933-3.707,5.498c-1.564,1.563-10.473,12.758-12.541,13.631c1.455-5.209,2.703-8.566,0.314-8.566
		c-9.551,0-17.293-7.742-17.293-17.293c0-9.55,7.742-17.292,17.293-17.292S42.035,51.899,42.035,61.449z"/>
</g>
</svg>
