<?xml version="1.0" encoding="utf-8"?>
<!-- Generator: Adobe Illustrator 16.0.0, SVG Export Plug-In . SVG Version: 6.00 Build 0)  -->
<!DOCTYPE svg PUBLIC "-//W3C//DTD SVG 1.1//EN" "http://www.w3.org/Graphics/SVG/1.1/DTD/svg11.dtd">
<svg version="1.1" id="Layer_1" xmlns="http://www.w3.org/2000/svg" xmlns:xlink="http://www.w3.org/1999/xlink" x="0px" y="0px"
	 width="226px" height="109px" viewBox="0 0 226 109" enable-background="new 0 0 226 109" xml:space="preserve">
<g>
	<path fill="#CCA36E" d="M225.976,21.786V8.875c0-4.8-3.893-8.69-8.691-8.69h-50.273H8.715c-4.799,0-8.69,3.891-8.69,8.69v9.233
		C71.968,3.399,214.741,55.623,225.976,21.786z"/>
	<path fill="#CCA36E" d="M0.024,83.461v16.662c0,4.801,3.891,8.691,8.69,8.691h21.793h81.632h54.871h50.273
		c4.799,0,8.691-3.891,8.691-8.691V85.516v-0.146C201.669,113.855,13.614,56.871,0.024,83.461z"/>
	<path fill="#458A94" d="M0.024,18.108v57.942v7.41c13.589-26.59,201.645,30.395,225.951,1.908V21.786
		C214.741,55.623,71.968,3.399,0.024,18.108z"/>
</g>
</svg>
