<?xml version="1.0" encoding="utf-8"?>
<!-- Generator: Adobe Illustrator 16.0.0, SVG Export Plug-In . SVG Version: 6.00 Build 0)  -->
<!DOCTYPE svg PUBLIC "-//W3C//DTD SVG 1.1//EN" "http://www.w3.org/Graphics/SVG/1.1/DTD/svg11.dtd">
<svg version="1.1" id="Layer_1" xmlns="http://www.w3.org/2000/svg" xmlns:xlink="http://www.w3.org/1999/xlink" x="0px" y="0px"
	 width="226px" height="109px" viewBox="0 0 226 109" enable-background="new 0 0 226 109" xml:space="preserve">
<g>
	<path fill="#50172F" d="M217.285,0.185H8.715c-4.799,0-8.689,3.891-8.689,8.69v67.178v24.072c0,4.801,3.891,8.691,8.689,8.691
		h21.793h81.633h105.145c4.801,0,8.691-3.891,8.691-8.691V85.518V8.875C225.977,4.075,222.086,0.185,217.285,0.185z"/>
	<g>
		<path fill="#C48D81" d="M219.086,57.584c-0.018,8.301-6.734,15.014-15.035,15.031v-0.004c-8.293-0.014-15.014-6.727-15.029-15.027
			c0.016-8.297,6.736-15.014,15.029-15.028h15.035V57.584z"/>
		<path fill="#BE274A" d="M219.086,87.646c-0.018-8.299-6.734-15.014-15.035-15.031v0.004c-8.293,0.014-15.014,6.729-15.029,15.027
			c0.016,8.299,6.736,15.014,15.029,15.027h15.035V87.646z"/>
		<path fill="#932C3B" d="M173.99,72.615c-8.297,0.018-15.014,6.732-15.031,15.031v15.031l15.031-0.004
			c8.305-0.014,15.018-6.729,15.031-15.027c-0.014-8.299-6.727-15.014-15.031-15.027V72.615z"/>
	</g>
	<line fill="#C48D81" stroke="#C48D81" stroke-miterlimit="10" x1="-0.479" y1="38.158" x2="226.479" y2="38.158"/>
</g>
</svg>
