<?xml version="1.0" encoding="utf-8"?>
<!-- Generator: Adobe Illustrator 16.0.0, SVG Export Plug-In . SVG Version: 6.00 Build 0)  -->
<!DOCTYPE svg PUBLIC "-//W3C//DTD SVG 1.1//EN" "http://www.w3.org/Graphics/SVG/1.1/DTD/svg11.dtd">
<svg version="1.1" id="Layer_1" xmlns="http://www.w3.org/2000/svg" xmlns:xlink="http://www.w3.org/1999/xlink" x="0px" y="0px"
	 width="226px" height="109px" viewBox="0 0 226 109" enable-background="new 0 0 226 109" xml:space="preserve">
<g>
	<path fill="#80371B" d="M217.286,0.185H8.716c-4.799,0-8.691,3.891-8.691,8.69v67.177v24.072c0,4.801,3.893,8.691,8.691,8.691
		h21.793h81.631h105.146c4.799,0,8.689-3.891,8.689-8.691V85.517V8.875C225.976,4.075,222.085,0.185,217.286,0.185z"/>
	<g>
		<polyline opacity="0.85" fill="none" stroke="#EFE4AE" stroke-miterlimit="10" points="59.675,87.008 65.962,101.648 
			69.298,101.648 		"/>
		<polyline opacity="0.85" fill="none" stroke="#EFE4AE" stroke-miterlimit="10" points="65.962,106.451 65.962,101.648 
			70.466,106.451 		"/>
		<path fill="#EFE4AE" stroke="#EFE4AE" stroke-miterlimit="10" d="M25.169,62.577c0,0,2.063,10.288,9.193,15.063
			c6.521,4.371,12.033,4.882,17.637,0.617c7.201-5.482,1.549-18.916-9.193-15.061C33.271,66.612,25.169,62.577,25.169,62.577z"/>
		<path fill="#B66528" d="M15.497,75.896c0,0,15.764,17.727,35.131,18.916c17.713,1.086,29.059-4.204,35.131-18.916
			c7.805-18.916-18.553-38.699-35.131-18.916C35.913,74.532,15.497,75.896,15.497,75.896z"/>
		<path fill="#EFE4AE" d="M67.185,57.256c0,1.817,1.467,3.282,3.281,3.282s3.281-1.465,3.281-3.282c0-1.812-1.467-3.278-3.281-3.278
			S67.185,55.444,67.185,57.256z"/>
		<polygon opacity="0.85" fill="#EFE4AE" points="80.087,53.978 88.761,48.762 83.138,57.256 		"/>
		<polygon opacity="0.85" fill="#EFE4AE" points="83.138,57.256 85.169,60.538 90.263,50.974 		"/>
		<polyline opacity="0.85" fill="none" stroke="#EFE4AE" stroke-miterlimit="10" points="70.466,88.276 76.751,102.919 
			80.087,102.919 		"/>
		<polyline opacity="0.85" fill="none" stroke="#EFE4AE" stroke-miterlimit="10" points="76.751,107.726 76.751,102.919 
			81.255,107.726 		"/>
		<g>
			<path fill="#EFE4AE" stroke="#EFE4AE" stroke-miterlimit="10" d="M35.483,73.643c0,0,6.973,7.84,15.539,8.364
				c7.832,0.482,12.852-1.857,15.535-8.364c3.453-8.367-8.203-17.118-15.535-8.367C44.513,73.038,35.483,73.643,35.483,73.643z"/>
		</g>
	</g>
</g>
</svg>
