<?xml version="1.0" encoding="utf-8"?>
<!-- Generator: Adobe Illustrator 16.0.0, SVG Export Plug-In . SVG Version: 6.00 Build 0)  -->
<!DOCTYPE svg PUBLIC "-//W3C//DTD SVG 1.1//EN" "http://www.w3.org/Graphics/SVG/1.1/DTD/svg11.dtd">
<svg version="1.1" id="Layer_1" xmlns="http://www.w3.org/2000/svg" xmlns:xlink="http://www.w3.org/1999/xlink" x="0px" y="0px"
	 width="226px" height="109px" viewBox="0 0 226 109" enable-background="new 0 0 226 109" xml:space="preserve">
<g>
	<path fill="#191419" d="M217.284,0.185H66.78H32.562H8.714c-4.799,0-8.689,3.891-8.689,8.69v67.176v24.074
		c0,4.799,3.891,8.689,8.689,8.689h21.793h2.055H66.78h45.359h105.145c4.801,0,8.691-3.891,8.691-8.689V85.516V8.875
		C225.976,4.075,222.085,0.185,217.284,0.185z"/>
	<g>
		<g>
			<path fill-rule="evenodd" clip-rule="evenodd" fill="#312827" d="M57.319,6.657c24.301,1.29,43.777,20.768,45.068,45.07H89.519
				c-1.254-17.205-14.996-30.952-32.199-32.207V6.657L57.319,6.657z"/>
			<path fill-rule="evenodd" clip-rule="evenodd" fill="#312827" d="M52.177,101.936c-24.301-1.291-43.779-20.77-45.072-45.072
				h12.867c1.26,17.205,15.002,30.953,32.205,32.205V101.936L52.177,101.936z"/>
			<path fill-rule="evenodd" clip-rule="evenodd" fill="#312827" d="M7.108,51.727C8.399,27.425,27.876,7.946,52.177,6.655
				l0.002,12.869c-17.205,1.254-30.951,14.998-32.207,32.203H7.108L7.108,51.727z"/>
			<path fill-rule="evenodd" clip-rule="evenodd" fill="#312827" d="M102.388,56.863c-1.291,24.303-20.768,43.781-45.068,45.074
				V89.068c17.203-1.254,30.947-15,32.201-32.205H102.388L102.388,56.863z"/>
			<path fill-rule="evenodd" clip-rule="evenodd" fill="#312827" d="M56.034,30.478C68.183,31.122,77.925,40.86,78.567,53.01h-6.434
				c-0.627-8.6-7.502-15.475-16.1-16.102V30.478L56.034,30.478z"/>
			<path fill-rule="evenodd" clip-rule="evenodd" fill="#312827" d="M53.464,78.115C41.312,77.471,31.573,67.73,30.927,55.578h6.434
				c0.629,8.604,7.5,15.479,16.104,16.104V78.115L53.464,78.115z"/>
			<path fill-rule="evenodd" clip-rule="evenodd" fill="#312827" d="M30.929,53.01c0.645-12.15,10.383-21.89,22.535-22.535v6.435
				c-8.604,0.627-15.477,7.5-16.104,16.1H30.929L30.929,53.01z"/>
			<path fill-rule="evenodd" clip-rule="evenodd" fill="#312827" d="M78.567,55.578C77.925,67.73,68.183,77.471,56.034,78.117
				v-6.436c8.604-0.627,15.473-7.5,16.102-16.104H78.567L78.567,55.578z"/>
		</g>
	</g>
</g>
</svg>
