<?xml version="1.0" encoding="utf-8"?>
<!-- Generator: Adobe Illustrator 16.0.0, SVG Export Plug-In . SVG Version: 6.00 Build 0)  -->
<!DOCTYPE svg PUBLIC "-//W3C//DTD SVG 1.1//EN" "http://www.w3.org/Graphics/SVG/1.1/DTD/svg11.dtd">
<svg version="1.1" id="Layer_1" xmlns="http://www.w3.org/2000/svg" xmlns:xlink="http://www.w3.org/1999/xlink" x="0px" y="0px"
	 width="226px" height="109px" viewBox="0 0 226 109" enable-background="new 0 0 226 109" xml:space="preserve">
<g>
	<path fill="#40838F" d="M200.624,35.653c0-14.004,11.35-25.355,25.352-25.356V8.875c0-4.8-3.891-8.69-8.689-8.69H66.78H32.562
		H8.716c-4.799,0-8.691,3.891-8.691,8.69v67.176v24.074c0,4.799,3.893,8.689,8.691,8.689h21.793h2.053H66.78h45.359h93.066
		c0.24-1.609,0.371-3.258,0.373-4.936c-0.033-18.439-14.947-33.359-33.389-33.385c-4.98,0-9.016-4.043-9.016-9.02
		c0-4.98,4.035-9.017,9.016-9.017c28.398,0.012,51.416,23.017,51.418,51.421c0,0.758-0.025,1.51-0.057,2.258
		c1.498-1.561,2.424-3.678,2.424-6.012V85.516V61.004C211.974,61.004,200.624,49.651,200.624,35.653z"/>
	<path fill="#3A1F22" d="M200.624,35.653c0,13.998,11.35,25.351,25.352,25.351V10.297C211.974,10.298,200.624,21.649,200.624,35.653
		z"/>
	<path fill="#3A1F22" d="M172.19,52.458c-4.98,0-9.016,4.037-9.016,9.017c0,4.977,4.035,9.02,9.016,9.02
		c18.441,0.025,33.355,14.945,33.389,33.385c-0.002,1.678-0.133,3.326-0.373,4.936h12.08c2.465,0,4.684-1.031,6.266-2.678
		c0.031-0.748,0.057-1.5,0.057-2.258C223.606,75.475,200.589,52.469,172.19,52.458z"/>
</g>
</svg>
