<?xml version="1.0" encoding="iso-8859-1"?>
<!-- Generator: Adobe Illustrator 16.0.0, SVG Export Plug-In . SVG Version: 6.00 Build 0)  -->
<!DOCTYPE svg PUBLIC "-//W3C//DTD SVG 1.1//EN" "http://www.w3.org/Graphics/SVG/1.1/DTD/svg11.dtd">
<svg version="1.1" id="Layer_1" xmlns="http://www.w3.org/2000/svg" xmlns:xlink="http://www.w3.org/1999/xlink" x="0px" y="0px"
	 width="48px" height="48px" viewBox="0 0 48 48" style="enable-background:new 0 0 48 48;" xml:space="preserve">
<g>
	<defs>
		<rect id="SVGID_1_" width="48" height="48"/>
	</defs>
	<clipPath id="SVGID_2_">
		<use xlink:href="#SVGID_1_"  style="overflow:visible;"/>
	</clipPath>
	<g style="clip-path:url(#SVGID_2_);">
		<defs>
			<path id="SVGID_3_" d="M9,0C6.8,0,5,1.8,5,4v40c0,2.2,1.8,4,4,4h30c2.2,0,4-1.8,4-4V11c-2.922-2-8.687-7.938-10.889-11H9z"/>
		</defs>
		<clipPath id="SVGID_4_">
			<use xlink:href="#SVGID_3_"  style="overflow:visible;"/>
		</clipPath>
		
			<linearGradient id="SVGID_5_" gradientUnits="userSpaceOnUse" x1="0" y1="48" x2="1" y2="48" gradientTransform="matrix(0 46.759 46.759 0 -2220.4314 0.5)">
			<stop  offset="0" style="stop-color:#C0322E"/>
			<stop  offset="7.196800e-013" style="stop-color:#C0322E"/>
			<stop  offset="1" style="stop-color:#EB7B32"/>
		</linearGradient>
		<rect x="5" style="clip-path:url(#SVGID_4_);fill:url(#SVGID_5_);" width="38" height="48"/>
	</g>
	<g style="clip-path:url(#SVGID_2_);">
		<defs>
			<rect id="SVGID_6_" width="48" height="48"/>
		</defs>
		<clipPath id="SVGID_7_">
			<use xlink:href="#SVGID_6_"  style="overflow:visible;"/>
		</clipPath>
		<g style="opacity:0.7;clip-path:url(#SVGID_7_);">
			<g>
				<defs>
					<rect id="SVGID_8_" x="33.281" y="2.39" width="9.719" height="17.25"/>
				</defs>
				<clipPath id="SVGID_9_">
					<use xlink:href="#SVGID_8_"  style="overflow:visible;"/>
				</clipPath>
				<g style="clip-path:url(#SVGID_9_);">
					<defs>
						<path id="SVGID_10_" d="M43,11c-2.274-1.557-6.265-5.495-8.963-8.61l-0.756,7.532L43,19.641V11z"/>
					</defs>
					<clipPath id="SVGID_11_">
						<use xlink:href="#SVGID_10_"  style="overflow:visible;"/>
					</clipPath>
					<defs>
						<filter id="Adobe_OpacityMaskFilter" filterUnits="userSpaceOnUse" x="33.281" y="2.39" width="9.719" height="17.251">
							<feColorMatrix  type="matrix" values="1 0 0 0 0  0 1 0 0 0  0 0 1 0 0  0 0 0 1 0"/>
						</filter>
					</defs>
					<mask maskUnits="userSpaceOnUse" x="33.281" y="2.39" width="9.719" height="17.251" id="SVGID_12_">
						<g style="filter:url(#Adobe_OpacityMaskFilter);">
							
								<linearGradient id="SVGID_13_" gradientUnits="userSpaceOnUse" x1="0" y1="48" x2="1" y2="48" gradientTransform="matrix(0 16.8048 16.8048 0 -768.489 2.5625)">
								<stop  offset="0" style="stop-color:#FFFFFF"/>
								<stop  offset="7.196800e-013" style="stop-color:#FFFFFF"/>
								<stop  offset="1" style="stop-color:#000000"/>
							</linearGradient>
							<rect x="33.281" y="2.39" style="clip-path:url(#SVGID_11_);fill:url(#SVGID_13_);" width="9.719" height="17.251"/>
						</g>
					</mask>
					
						<linearGradient id="SVGID_14_" gradientUnits="userSpaceOnUse" x1="0" y1="48" x2="1" y2="48" gradientTransform="matrix(0 16.8048 16.8048 0 -768.489 2.5625)">
						<stop  offset="0" style="stop-color:#C0322E"/>
						<stop  offset="7.196800e-013" style="stop-color:#C0322E"/>
						<stop  offset="1" style="stop-color:#EB7B32"/>
					</linearGradient>
					
						<rect x="33.281" y="2.39" style="clip-path:url(#SVGID_11_);mask:url(#SVGID_12_);fill:url(#SVGID_14_);" width="9.719" height="17.251"/>
				</g>
			</g>
		</g>
	</g>
	<g style="clip-path:url(#SVGID_2_);">
		<defs>
			<path id="SVGID_15_" d="M32.111,0L32,7c0,2.2,1.8,4,4,4h7L32.111,0z"/>
		</defs>
		<clipPath id="SVGID_16_">
			<use xlink:href="#SVGID_15_"  style="overflow:visible;"/>
		</clipPath>
		
			<linearGradient id="SVGID_17_" gradientUnits="userSpaceOnUse" x1="0" y1="48" x2="1" y2="48" gradientTransform="matrix(0 9.8365 9.8365 0 -434.6525 0.6641)">
			<stop  offset="0" style="stop-color:#C0322E"/>
			<stop  offset="7.196800e-013" style="stop-color:#C0322E"/>
			<stop  offset="1" style="stop-color:#EB7B32"/>
		</linearGradient>
		<rect x="32" style="clip-path:url(#SVGID_16_);fill:url(#SVGID_17_);" width="11" height="11"/>
	</g>
	<g style="clip-path:url(#SVGID_2_);">
		<defs>
			<rect id="SVGID_18_" width="48" height="48"/>
		</defs>
		<clipPath id="SVGID_19_">
			<use xlink:href="#SVGID_18_"  style="overflow:visible;"/>
		</clipPath>
		<g style="opacity:0.7;clip-path:url(#SVGID_19_);">
			<g>
				<defs>
					<rect id="SVGID_20_" x="9.025" y="19" width="33.975" height="29"/>
				</defs>
				<clipPath id="SVGID_21_">
					<use xlink:href="#SVGID_20_"  style="overflow:visible;"/>
				</clipPath>
				<g style="clip-path:url(#SVGID_21_);">
					<defs>
						<path id="SVGID_22_" d="M43,44V25.229l-5.595-5.505L31.447,21v0.473L29,19.026l-2.417,3.266l-0.81,1.357L21.124,19
							l-1.922,4.494l-3.358-3.359l-1.969-0.369l-0.333-0.349l-0.332,0.297l-0.93-0.073l-1.78,0.651L10.659,22l-1.634,7.984
							L27.042,48H39C41.2,48,43,46.2,43,44"/>
					</defs>
					<clipPath id="SVGID_23_">
						<use xlink:href="#SVGID_22_"  style="overflow:visible;"/>
					</clipPath>
					<defs>
						<filter id="Adobe_OpacityMaskFilter_1_" filterUnits="userSpaceOnUse" x="9.025" y="19" width="33.975" height="29">
							<feColorMatrix  type="matrix" values="1 0 0 0 0  0 1 0 0 0  0 0 1 0 0  0 0 0 1 0"/>
						</filter>
					</defs>
					<mask maskUnits="userSpaceOnUse" x="9.025" y="19" width="33.975" height="29" id="SVGID_24_">
						<g style="filter:url(#Adobe_OpacityMaskFilter_1_);">
							
								<linearGradient id="SVGID_25_" gradientUnits="userSpaceOnUse" x1="0" y1="48" x2="1" y2="48" gradientTransform="matrix(0 28.2502 28.2502 0 -1329.9949 19.2969)">
								<stop  offset="0" style="stop-color:#FFFFFF"/>
								<stop  offset="7.196800e-013" style="stop-color:#FFFFFF"/>
								<stop  offset="1" style="stop-color:#000000"/>
							</linearGradient>
							<rect x="9.025" y="19" style="clip-path:url(#SVGID_23_);fill:url(#SVGID_25_);" width="33.975" height="29"/>
						</g>
					</mask>
					
						<linearGradient id="SVGID_26_" gradientUnits="userSpaceOnUse" x1="0" y1="47.999" x2="1" y2="47.999" gradientTransform="matrix(0 28.2502 28.2502 0 -1329.995 19.2969)">
						<stop  offset="0" style="stop-color:#C0322E"/>
						<stop  offset="7.196800e-013" style="stop-color:#C0322E"/>
						<stop  offset="1" style="stop-color:#EB7B32"/>
					</linearGradient>
					
						<rect x="9.025" y="19" style="clip-path:url(#SVGID_23_);mask:url(#SVGID_24_);fill:url(#SVGID_26_);" width="33.975" height="29"/>
				</g>
			</g>
		</g>
	</g>
	<g style="clip-path:url(#SVGID_2_);">
		<defs>
			<path id="SVGID_27_" d="M11.118,20.915h1.6c0.732,0,1.219,0.233,1.585,0.681c0.396,0.494,0.457,1.189,0.457,2.857
				c0,1.669-0.061,2.457-0.457,2.951c-0.366,0.448-0.853,0.68-1.585,0.68h-1.6V20.915z M9,19v11h3.916
				c1.128,0,2.149-0.324,2.865-1.05c1.219-1.237,1.097-2.843,1.097-4.497c0-1.652,0.122-3.167-1.097-4.402
				C15.065,19.324,14.044,19,12.916,19H9z M26.876,19l-2.868,5.948L21.124,19H19v11h2.155v-6.412l2.124,4.172h1.458l2.108-4.172V30
				H29V19H26.876z M32.054,20.186c-0.467,0.47-0.753,1.002-0.874,1.625C31.06,22.418,31,23.315,31,24.5
				c0,1.185,0.06,2.082,0.18,2.689c0.121,0.607,0.407,1.154,0.874,1.626C32.838,29.605,33.802,30,34.947,30
				c1.205,0,2.2-0.38,3.027-1.23C38.714,27.979,39,27.053,39,25.472v-1.579h-4.053v1.762h1.974v0.41
				c0,0.592-0.166,1.077-0.481,1.442c-0.378,0.41-0.874,0.608-1.492,0.608c-0.572,0-1.024-0.183-1.341-0.563
				c-0.422-0.501-0.513-0.927-0.513-3.054c0-2.142,0.121-2.537,0.513-3.038c0.332-0.38,0.783-0.578,1.341-0.578
				c1.039,0,1.672,0.532,1.929,1.58h2.109C38.699,20.58,37.388,19,34.947,19C33.802,19,32.838,19.395,32.054,20.186"/>
		</defs>
		<clipPath id="SVGID_28_">
			<use xlink:href="#SVGID_27_"  style="overflow:visible;"/>
		</clipPath>
		
			<linearGradient id="SVGID_29_" gradientUnits="userSpaceOnUse" x1="0" y1="48" x2="1" y2="48" gradientTransform="matrix(0 12.127 12.127 0 -558.0947 19.2813)">
			<stop  offset="0" style="stop-color:#FFFFFF"/>
			<stop  offset="0.0049" style="stop-color:#FFFFFF"/>
			<stop  offset="1" style="stop-color:#F9AC83"/>
		</linearGradient>
		<rect x="9" y="19" style="clip-path:url(#SVGID_28_);fill:url(#SVGID_29_);" width="30" height="11"/>
	</g>
</g>
</svg>
