<?xml version="1.0" encoding="iso-8859-1"?>
<!-- Generator: Adobe Illustrator 16.0.0, SVG Export Plug-In . SVG Version: 6.00 Build 0)  -->
<!DOCTYPE svg PUBLIC "-//W3C//DTD SVG 1.1//EN" "http://www.w3.org/Graphics/SVG/1.1/DTD/svg11.dtd">
<svg version="1.1" id="Layer_1" xmlns="http://www.w3.org/2000/svg" xmlns:xlink="http://www.w3.org/1999/xlink" x="0px" y="0px"
	 width="48px" height="48px" viewBox="0 0 48 48" style="enable-background:new 0 0 48 48;" xml:space="preserve">
<g>
	<defs>
		<rect id="SVGID_1_" width="48" height="48"/>
	</defs>
	<clipPath id="SVGID_2_">
		<use xlink:href="#SVGID_1_"  style="overflow:visible;"/>
	</clipPath>
	<g style="clip-path:url(#SVGID_2_);">
		<defs>
			<path id="SVGID_3_" d="M9,0C6.8,0,5,1.8,5,4v40c0,2.2,1.8,4,4,4h30c2.2,0,4-1.8,4-4V11c-2.922-2-8.687-7.938-10.889-11H9z"/>
		</defs>
		<clipPath id="SVGID_4_">
			<use xlink:href="#SVGID_3_"  style="overflow:visible;"/>
		</clipPath>
		
			<linearGradient id="SVGID_5_" gradientUnits="userSpaceOnUse" x1="0" y1="48" x2="1" y2="48" gradientTransform="matrix(0 46.759 46.759 0 -2220.4314 0.5)">
			<stop  offset="0" style="stop-color:#1F4169"/>
			<stop  offset="0.0147" style="stop-color:#1F4169"/>
			<stop  offset="0.7223" style="stop-color:#397B9C"/>
			<stop  offset="0.9934" style="stop-color:#4396B6"/>
			<stop  offset="1" style="stop-color:#4396B6"/>
		</linearGradient>
		<rect x="5" style="clip-path:url(#SVGID_4_);fill:url(#SVGID_5_);" width="38" height="48"/>
	</g>
	<g style="clip-path:url(#SVGID_2_);">
		<defs>
			<rect id="SVGID_6_" width="48" height="48"/>
		</defs>
		<clipPath id="SVGID_7_">
			<use xlink:href="#SVGID_6_"  style="overflow:visible;"/>
		</clipPath>
		<g style="opacity:0.4;clip-path:url(#SVGID_7_);">
			<g>
				<defs>
					<rect id="SVGID_8_" x="33.281" y="2.39" width="9.719" height="17.25"/>
				</defs>
				<clipPath id="SVGID_9_">
					<use xlink:href="#SVGID_8_"  style="overflow:visible;"/>
				</clipPath>
				<g style="clip-path:url(#SVGID_9_);">
					<defs>
						<path id="SVGID_10_" d="M43,11c-2.274-1.557-6.265-5.495-8.963-8.61l-0.756,7.532L43,19.641V11z"/>
					</defs>
					<clipPath id="SVGID_11_">
						<use xlink:href="#SVGID_10_"  style="overflow:visible;"/>
					</clipPath>
					<defs>
						<filter id="Adobe_OpacityMaskFilter" filterUnits="userSpaceOnUse" x="33.281" y="2.39" width="9.719" height="17.251">
							<feColorMatrix  type="matrix" values="1 0 0 0 0  0 1 0 0 0  0 0 1 0 0  0 0 0 1 0"/>
						</filter>
					</defs>
					<mask maskUnits="userSpaceOnUse" x="33.281" y="2.39" width="9.719" height="17.251" id="SVGID_12_">
						<g style="filter:url(#Adobe_OpacityMaskFilter);">
							
								<linearGradient id="SVGID_13_" gradientUnits="userSpaceOnUse" x1="0" y1="48" x2="1" y2="48" gradientTransform="matrix(0 12.5056 12.5056 0 -562.1293 5.125)">
								<stop  offset="0" style="stop-color:#FFFFFF"/>
								<stop  offset="0.0125" style="stop-color:#FFFFFF"/>
								<stop  offset="1" style="stop-color:#000000"/>
							</linearGradient>
							<rect x="33.281" y="2.39" style="clip-path:url(#SVGID_11_);fill:url(#SVGID_13_);" width="9.719" height="17.251"/>
						</g>
					</mask>
					
						<linearGradient id="SVGID_14_" gradientUnits="userSpaceOnUse" x1="0" y1="48" x2="1" y2="48" gradientTransform="matrix(0 12.5056 12.5056 0 -562.1293 5.125)">
						<stop  offset="0" style="stop-color:#5A183B"/>
						<stop  offset="0.0125" style="stop-color:#5A183B"/>
						<stop  offset="1" style="stop-color:#A96284"/>
					</linearGradient>
					
						<rect x="33.281" y="2.39" style="clip-path:url(#SVGID_11_);mask:url(#SVGID_12_);fill:url(#SVGID_14_);" width="9.719" height="17.251"/>
				</g>
			</g>
		</g>
	</g>
	<g style="clip-path:url(#SVGID_2_);">
		<defs>
			<path id="SVGID_15_" d="M32.111,0L32,7c0,2.2,1.8,4,4,4h7L32.111,0z"/>
		</defs>
		<clipPath id="SVGID_16_">
			<use xlink:href="#SVGID_15_"  style="overflow:visible;"/>
		</clipPath>
		
			<linearGradient id="SVGID_17_" gradientUnits="userSpaceOnUse" x1="0" y1="48" x2="1" y2="48" gradientTransform="matrix(0 10.7156 10.7156 0 -476.8489 0.1172)">
			<stop  offset="0" style="stop-color:#1F4169"/>
			<stop  offset="0.0147" style="stop-color:#1F4169"/>
			<stop  offset="0.7223" style="stop-color:#397B9C"/>
			<stop  offset="0.9934" style="stop-color:#4396B6"/>
			<stop  offset="1" style="stop-color:#4396B6"/>
		</linearGradient>
		<rect x="32" style="clip-path:url(#SVGID_16_);fill:url(#SVGID_17_);" width="11" height="11"/>
	</g>
	<g style="clip-path:url(#SVGID_2_);">
		<defs>
			<rect id="SVGID_18_" width="48" height="48"/>
		</defs>
		<clipPath id="SVGID_19_">
			<use xlink:href="#SVGID_18_"  style="overflow:visible;"/>
		</clipPath>
		<g style="opacity:0.4;clip-path:url(#SVGID_19_);">
			<g>
				<defs>
					<rect id="SVGID_20_" x="10" y="19" width="33" height="29"/>
				</defs>
				<clipPath id="SVGID_21_">
					<use xlink:href="#SVGID_20_"  style="overflow:visible;"/>
				</clipPath>
				<g style="clip-path:url(#SVGID_21_);">
					<defs>
						<path id="SVGID_22_" d="M37.845,19l-2.221,2.612L33.012,19l1.601,4.385l-0.714,1.286l-4.971-4.969l-3.511,0.84l-0.521,2.17
							l-3.009-3.01l-3.512,0.84l-0.512,2.136l-2.643-2.643l-4.387-0.344L10,28l20,20h9c2.2,0,4-1.8,4-4V24.155L37.845,19z"/>
					</defs>
					<clipPath id="SVGID_23_">
						<use xlink:href="#SVGID_22_"  style="overflow:visible;"/>
					</clipPath>
					<defs>
						<filter id="Adobe_OpacityMaskFilter_1_" filterUnits="userSpaceOnUse" x="10" y="19" width="33" height="29">
							<feColorMatrix  type="matrix" values="1 0 0 0 0  0 1 0 0 0  0 0 1 0 0  0 0 0 1 0"/>
						</filter>
					</defs>
					<mask maskUnits="userSpaceOnUse" x="10" y="19" width="33" height="29" id="SVGID_24_">
						<g style="filter:url(#Adobe_OpacityMaskFilter_1_);">
							
								<linearGradient id="SVGID_25_" gradientUnits="userSpaceOnUse" x1="0" y1="48" x2="1" y2="48" gradientTransform="matrix(0 28.2502 28.2502 0 -1329.5105 19.2969)">
								<stop  offset="0" style="stop-color:#FFFFFF"/>
								<stop  offset="0.0125" style="stop-color:#FFFFFF"/>
								<stop  offset="1" style="stop-color:#000000"/>
							</linearGradient>
							<rect x="10" y="19" style="clip-path:url(#SVGID_23_);fill:url(#SVGID_25_);" width="33" height="29"/>
						</g>
					</mask>
					
						<linearGradient id="SVGID_26_" gradientUnits="userSpaceOnUse" x1="0" y1="47.999" x2="1" y2="47.999" gradientTransform="matrix(0 28.2502 28.2502 0 -1329.5106 19.2969)">
						<stop  offset="0" style="stop-color:#5A183B"/>
						<stop  offset="0.0125" style="stop-color:#5A183B"/>
						<stop  offset="1" style="stop-color:#A96284"/>
					</linearGradient>
					<rect x="10" y="19" style="clip-path:url(#SVGID_23_);mask:url(#SVGID_24_);fill:url(#SVGID_26_);" width="33" height="29"/>
				</g>
			</g>
		</g>
	</g>
	<g style="clip-path:url(#SVGID_2_);">
		<defs>
			<path id="SVGID_27_" d="M11.588,20.567h1.201c0.548,0,0.913,0.19,1.188,0.556c0.297,0.405,0.343,0.974,0.343,2.339
				c0,1.365-0.046,2.01-0.343,2.414c-0.275,0.367-0.64,0.556-1.188,0.556h-1.201V20.567z M10,19v9h2.938
				c0.845,0,1.611-0.265,2.148-0.859c0.914-1.012,0.822-2.326,0.822-3.679c0-1.352,0.092-2.592-0.822-3.602
				C14.549,19.266,13.783,19,12.938,19H10z M18.985,25.986c-0.306-0.373-0.386-0.783-0.386-2.486s0.08-2.113,0.386-2.486
				c0.226-0.286,0.59-0.473,1.021-0.473c0.43,0,0.782,0.187,1.009,0.473c0.306,0.373,0.397,0.783,0.397,2.486
				s-0.091,2.113-0.397,2.486c-0.227,0.286-0.579,0.472-1.009,0.472C19.575,26.458,19.211,26.272,18.985,25.986 M17.816,19.969
				C17,20.865,17.023,21.971,17.023,23.5c0,1.529-0.023,2.635,0.793,3.53c0.567,0.622,1.271,0.97,2.19,0.97
				c0.918,0,1.61-0.348,2.177-0.97c0.817-0.896,0.806-2.001,0.806-3.53c0-1.529,0.011-2.635-0.806-3.531
				C21.616,19.348,20.924,19,20.006,19C19.087,19,18.383,19.348,17.816,19.969 M24.801,19.969c-0.354,0.386-0.572,0.821-0.664,1.331
				C24.046,21.797,24,22.53,24,23.5c0,0.969,0.046,1.703,0.137,2.201c0.092,0.496,0.311,0.943,0.664,1.329
				C25.397,27.677,26.13,28,27,28c1.557,0,2.725-0.994,3-2.797h-1.615c-0.171,0.759-0.605,1.255-1.373,1.255
				c-0.436,0-0.778-0.149-1.02-0.459c-0.332-0.386-0.4-0.783-0.4-2.499c0-1.715,0.068-2.113,0.4-2.498
				c0.241-0.312,0.584-0.461,1.02-0.461c0.768,0,1.202,0.498,1.373,1.256H30C29.725,19.995,28.569,19,27,19
				C26.13,19,25.397,19.323,24.801,19.969 M35.969,19l-1.475,2.907L33.03,19h-1.865l2.444,4.386L31,28h1.877l1.617-3.135L36.123,28
				H38l-2.621-4.614L37.822,19H35.969z"/>
		</defs>
		<clipPath id="SVGID_28_">
			<use xlink:href="#SVGID_27_"  style="overflow:visible;"/>
		</clipPath>
		
			<linearGradient id="SVGID_29_" gradientUnits="userSpaceOnUse" x1="0" y1="48" x2="1" y2="48" gradientTransform="matrix(0 11.586 11.586 0 -532.1295 17.5)">
			<stop  offset="0" style="stop-color:#FFFFFF"/>
			<stop  offset="0.0049" style="stop-color:#FFFFFF"/>
			<stop  offset="1" style="stop-color:#99D9E5"/>
		</linearGradient>
		<rect x="10" y="19" style="clip-path:url(#SVGID_28_);fill:url(#SVGID_29_);" width="28" height="9"/>
	</g>
</g>
</svg>
