<?xml version="1.0" encoding="iso-8859-1"?>
<!-- Generator: Adobe Illustrator 16.0.0, SVG Export Plug-In . SVG Version: 6.00 Build 0)  -->
<!DOCTYPE svg PUBLIC "-//W3C//DTD SVG 1.1//EN" "http://www.w3.org/Graphics/SVG/1.1/DTD/svg11.dtd">
<svg version="1.1" id="Layer_1" xmlns="http://www.w3.org/2000/svg" xmlns:xlink="http://www.w3.org/1999/xlink" x="0px" y="0px"
	 width="48px" height="48px" viewBox="0 0 48 48" style="enable-background:new 0 0 48 48;" xml:space="preserve">
<g>
	<defs>
		<rect id="SVGID_1_" width="48" height="48"/>
	</defs>
	<clipPath id="SVGID_2_">
		<use xlink:href="#SVGID_1_"  style="overflow:visible;"/>
	</clipPath>
	<g style="clip-path:url(#SVGID_2_);">
		<defs>
			<path id="SVGID_3_" d="M9,0C6.8,0,5,1.8,5,4v40c0,2.2,1.8,4,4,4h30c2.2,0,4-1.8,4-4V11c-2.922-2-8.687-7.938-10.889-11H9z"/>
		</defs>
		<clipPath id="SVGID_4_">
			<use xlink:href="#SVGID_3_"  style="overflow:visible;"/>
		</clipPath>
		
			<linearGradient id="SVGID_5_" gradientUnits="userSpaceOnUse" x1="0" y1="48" x2="1" y2="48" gradientTransform="matrix(0 46.759 46.759 0 -2220.4314 0.5)">
			<stop  offset="0" style="stop-color:#00241F"/>
			<stop  offset="0.0147" style="stop-color:#00241F"/>
			<stop  offset="0.9934" style="stop-color:#376B56"/>
			<stop  offset="1" style="stop-color:#376B56"/>
		</linearGradient>
		<rect x="5" style="clip-path:url(#SVGID_4_);fill:url(#SVGID_5_);" width="38" height="48"/>
	</g>
	<g style="clip-path:url(#SVGID_2_);">
		<defs>
			<rect id="SVGID_6_" width="48" height="48"/>
		</defs>
		<clipPath id="SVGID_7_">
			<use xlink:href="#SVGID_6_"  style="overflow:visible;"/>
		</clipPath>
		<g style="opacity:0.4;clip-path:url(#SVGID_7_);">
			<g>
				<defs>
					<rect id="SVGID_8_" x="33.281" y="2.39" width="9.719" height="17.25"/>
				</defs>
				<clipPath id="SVGID_9_">
					<use xlink:href="#SVGID_8_"  style="overflow:visible;"/>
				</clipPath>
				<g style="clip-path:url(#SVGID_9_);">
					<defs>
						<path id="SVGID_10_" d="M43,11c-2.274-1.557-6.265-5.495-8.963-8.61l-0.756,7.532L43,19.641V11z"/>
					</defs>
					<clipPath id="SVGID_11_">
						<use xlink:href="#SVGID_10_"  style="overflow:visible;"/>
					</clipPath>
					<defs>
						<filter id="Adobe_OpacityMaskFilter" filterUnits="userSpaceOnUse" x="33.281" y="2.39" width="9.719" height="17.251">
							<feColorMatrix  type="matrix" values="1 0 0 0 0  0 1 0 0 0  0 0 1 0 0  0 0 0 1 0"/>
						</filter>
					</defs>
					<mask maskUnits="userSpaceOnUse" x="33.281" y="2.39" width="9.719" height="17.251" id="SVGID_12_">
						<g style="filter:url(#Adobe_OpacityMaskFilter);">
							
								<linearGradient id="SVGID_13_" gradientUnits="userSpaceOnUse" x1="0" y1="48" x2="1" y2="48" gradientTransform="matrix(0 12.5056 12.5056 0 -562.1293 5.125)">
								<stop  offset="0" style="stop-color:#FFFFFF"/>
								<stop  offset="0.0125" style="stop-color:#FFFFFF"/>
								<stop  offset="1" style="stop-color:#000000"/>
							</linearGradient>
							<rect x="33.281" y="2.39" style="clip-path:url(#SVGID_11_);fill:url(#SVGID_13_);" width="9.719" height="17.251"/>
						</g>
					</mask>
					
						<linearGradient id="SVGID_14_" gradientUnits="userSpaceOnUse" x1="0" y1="48" x2="1" y2="48" gradientTransform="matrix(0 12.5056 12.5056 0 -562.1293 5.125)">
						<stop  offset="0" style="stop-color:#5A183B"/>
						<stop  offset="0.0125" style="stop-color:#5A183B"/>
						<stop  offset="1" style="stop-color:#A96284"/>
					</linearGradient>
					
						<rect x="33.281" y="2.39" style="clip-path:url(#SVGID_11_);mask:url(#SVGID_12_);fill:url(#SVGID_14_);" width="9.719" height="17.251"/>
				</g>
			</g>
		</g>
	</g>
	<g style="clip-path:url(#SVGID_2_);">
		<defs>
			<path id="SVGID_15_" d="M32.111,0L32,7c0,2.2,1.8,4,4,4h7L32.111,0z"/>
		</defs>
		<clipPath id="SVGID_16_">
			<use xlink:href="#SVGID_15_"  style="overflow:visible;"/>
		</clipPath>
		
			<linearGradient id="SVGID_17_" gradientUnits="userSpaceOnUse" x1="0" y1="48" x2="1" y2="48" gradientTransform="matrix(0 10.7156 10.7156 0 -476.8489 0.1172)">
			<stop  offset="0" style="stop-color:#00241F"/>
			<stop  offset="0.0147" style="stop-color:#00241F"/>
			<stop  offset="0.9934" style="stop-color:#376B56"/>
			<stop  offset="1" style="stop-color:#376B56"/>
		</linearGradient>
		<rect x="32" style="clip-path:url(#SVGID_16_);fill:url(#SVGID_17_);" width="11" height="11"/>
	</g>
	<g style="clip-path:url(#SVGID_2_);">
		<defs>
			<rect id="SVGID_18_" width="48" height="48"/>
		</defs>
		<clipPath id="SVGID_19_">
			<use xlink:href="#SVGID_18_"  style="overflow:visible;"/>
		</clipPath>
		<g style="opacity:0.4;clip-path:url(#SVGID_19_);">
			<g>
				<defs>
					<rect id="SVGID_20_" x="10" y="20" width="33" height="28"/>
				</defs>
				<clipPath id="SVGID_21_">
					<use xlink:href="#SVGID_20_"  style="overflow:visible;"/>
				</clipPath>
				<g style="clip-path:url(#SVGID_21_);">
					<defs>
						<path id="SVGID_22_" d="M37.862,20l-2.356,2.457L33.049,20l0.444,3.474L30.018,20l-3.137,1.943l-1.582-1.581L24,21.594
							l3.681,3.681l-0.595,0.563l-5.054-5.054l-4.126,0.465l-0.314,2.157l-2.372-2.372l-4.387-0.344L10,29l19,19h10c2.2,0,4-1.8,4-4
							V25.138L37.862,20z"/>
					</defs>
					<clipPath id="SVGID_23_">
						<use xlink:href="#SVGID_22_"  style="overflow:visible;"/>
					</clipPath>
					<defs>
						<filter id="Adobe_OpacityMaskFilter_1_" filterUnits="userSpaceOnUse" x="10" y="20" width="33" height="28">
							<feColorMatrix  type="matrix" values="1 0 0 0 0  0 1 0 0 0  0 0 1 0 0  0 0 0 1 0"/>
						</filter>
					</defs>
					<mask maskUnits="userSpaceOnUse" x="10" y="20" width="33" height="28" id="SVGID_24_">
						<g style="filter:url(#Adobe_OpacityMaskFilter_1_);">
							
								<linearGradient id="SVGID_25_" gradientUnits="userSpaceOnUse" x1="0" y1="48" x2="1" y2="48" gradientTransform="matrix(0 27.2761 27.2761 0 -1282.7515 20.2969)">
								<stop  offset="0" style="stop-color:#FFFFFF"/>
								<stop  offset="0.0125" style="stop-color:#FFFFFF"/>
								<stop  offset="1" style="stop-color:#000000"/>
							</linearGradient>
							<rect x="10" y="20" style="clip-path:url(#SVGID_23_);fill:url(#SVGID_25_);" width="33" height="28"/>
						</g>
					</mask>
					
						<linearGradient id="SVGID_26_" gradientUnits="userSpaceOnUse" x1="0" y1="48" x2="1" y2="48" gradientTransform="matrix(0 27.2761 27.2761 0 -1282.7516 20.2969)">
						<stop  offset="0" style="stop-color:#5A183B"/>
						<stop  offset="0.0125" style="stop-color:#5A183B"/>
						<stop  offset="1" style="stop-color:#A96284"/>
					</linearGradient>
					<rect x="10" y="20" style="clip-path:url(#SVGID_23_);mask:url(#SVGID_24_);fill:url(#SVGID_26_);" width="33" height="28"/>
				</g>
			</g>
		</g>
	</g>
	<g style="clip-path:url(#SVGID_2_);">
		<defs>
			<path id="SVGID_27_" d="M11.588,21.567h1.201c0.548,0,0.913,0.19,1.188,0.556c0.297,0.405,0.343,0.974,0.343,2.339
				c0,1.366-0.046,2.01-0.343,2.414c-0.275,0.367-0.64,0.556-1.188,0.556h-1.201V21.567z M10,20v9h2.937
				c0.846,0,1.612-0.265,2.149-0.859c0.914-1.012,0.822-2.325,0.822-3.679c0-1.352,0.092-2.591-0.822-3.602
				C14.549,20.266,13.783,20,12.937,20H10z M18.985,26.986c-0.306-0.373-0.386-0.783-0.386-2.486s0.08-2.113,0.386-2.487
				c0.226-0.285,0.59-0.471,1.02-0.471c0.432,0,0.783,0.186,1.01,0.471c0.306,0.374,0.397,0.784,0.397,2.487
				s-0.091,2.113-0.397,2.486c-0.227,0.286-0.578,0.472-1.01,0.472C19.575,27.458,19.211,27.272,18.985,26.986 M17.816,20.969
				C17,21.865,17.023,22.971,17.023,24.5c0,1.529-0.023,2.635,0.793,3.531C18.383,28.652,19.087,29,20.005,29
				c0.919,0,1.611-0.348,2.178-0.969c0.817-0.896,0.806-2.002,0.806-3.531c0-1.529,0.011-2.635-0.806-3.531
				C21.616,20.348,20.924,20,20.005,20C19.087,20,18.383,20.348,17.816,20.969 M24,20v1.567h2.184V29h1.633v-7.433H30V20H24z
				 M35.969,20l-1.475,2.907L33.03,20h-1.865l2.444,4.386L31,29h1.877l1.617-3.135L36.123,29H38l-2.621-4.614L37.822,20H35.969z"/>
		</defs>
		<clipPath id="SVGID_28_">
			<use xlink:href="#SVGID_27_"  style="overflow:visible;"/>
		</clipPath>
		
			<linearGradient id="SVGID_29_" gradientUnits="userSpaceOnUse" x1="0" y1="48" x2="1" y2="48" gradientTransform="matrix(0 13.5098 13.5098 0 -624.469 18.5)">
			<stop  offset="0" style="stop-color:#FFFFFF"/>
			<stop  offset="0.0049" style="stop-color:#FFFFFF"/>
			<stop  offset="1" style="stop-color:#A0D5B7"/>
		</linearGradient>
		<rect x="10" y="20" style="clip-path:url(#SVGID_28_);fill:url(#SVGID_29_);" width="28" height="9"/>
	</g>
</g>
</svg>
