<?xml version="1.0" encoding="iso-8859-1"?>
<!-- Generator: Adobe Illustrator 16.0.0, SVG Export Plug-In . SVG Version: 6.00 Build 0)  -->
<!DOCTYPE svg PUBLIC "-//W3C//DTD SVG 1.1//EN" "http://www.w3.org/Graphics/SVG/1.1/DTD/svg11.dtd">
<svg version="1.1" id="Layer_1" xmlns="http://www.w3.org/2000/svg" xmlns:xlink="http://www.w3.org/1999/xlink" x="0px" y="0px"
	 width="48px" height="48px" viewBox="0 0 48 48" style="enable-background:new 0 0 48 48;" xml:space="preserve">
<g>
	<defs>
		<rect id="SVGID_1_" width="48" height="48"/>
	</defs>
	<clipPath id="SVGID_2_">
		<use xlink:href="#SVGID_1_"  style="overflow:visible;"/>
	</clipPath>
	<g style="clip-path:url(#SVGID_2_);">
		<defs>
			<path id="SVGID_3_" d="M9,0C6.8,0,5,1.8,5,4v40c0,2.2,1.8,4,4,4h30c2.2,0,4-1.8,4-4V11c-2.922-2-8.687-7.938-10.889-11H9z"/>
		</defs>
		<clipPath id="SVGID_4_">
			<use xlink:href="#SVGID_3_"  style="overflow:visible;"/>
		</clipPath>
		
			<linearGradient id="SVGID_5_" gradientUnits="userSpaceOnUse" x1="0" y1="48" x2="1" y2="48" gradientTransform="matrix(0 46.759 46.759 0 -2220.4314 0.5)">
			<stop  offset="0" style="stop-color:#162D37"/>
			<stop  offset="0.02" style="stop-color:#162D37"/>
			<stop  offset="0.9934" style="stop-color:#5D7D99"/>
			<stop  offset="1" style="stop-color:#5D7D99"/>
		</linearGradient>
		<rect x="5" style="clip-path:url(#SVGID_4_);fill:url(#SVGID_5_);" width="38" height="48"/>
	</g>
	<g style="clip-path:url(#SVGID_2_);">
		<defs>
			<rect id="SVGID_6_" width="48" height="48"/>
		</defs>
		<clipPath id="SVGID_7_">
			<use xlink:href="#SVGID_6_"  style="overflow:visible;"/>
		</clipPath>
		<g style="opacity:0.4;clip-path:url(#SVGID_7_);">
			<g>
				<defs>
					<rect id="SVGID_8_" x="33.281" y="2.39" width="9.719" height="17.25"/>
				</defs>
				<clipPath id="SVGID_9_">
					<use xlink:href="#SVGID_8_"  style="overflow:visible;"/>
				</clipPath>
				<g style="clip-path:url(#SVGID_9_);">
					<defs>
						<path id="SVGID_10_" d="M43,11c-2.274-1.557-6.265-5.495-8.963-8.61l-0.756,7.532L43,19.641V11z"/>
					</defs>
					<clipPath id="SVGID_11_">
						<use xlink:href="#SVGID_10_"  style="overflow:visible;"/>
					</clipPath>
					<defs>
						<filter id="Adobe_OpacityMaskFilter" filterUnits="userSpaceOnUse" x="33.281" y="2.39" width="9.719" height="17.251">
							<feColorMatrix  type="matrix" values="1 0 0 0 0  0 1 0 0 0  0 0 1 0 0  0 0 0 1 0"/>
						</filter>
					</defs>
					<mask maskUnits="userSpaceOnUse" x="33.281" y="2.39" width="9.719" height="17.251" id="SVGID_12_">
						<g style="filter:url(#Adobe_OpacityMaskFilter);">
							
								<linearGradient id="SVGID_13_" gradientUnits="userSpaceOnUse" x1="0" y1="48" x2="1" y2="48" gradientTransform="matrix(0 12.5056 12.5056 0 -562.1293 5.125)">
								<stop  offset="0" style="stop-color:#FFFFFF"/>
								<stop  offset="0.0125" style="stop-color:#FFFFFF"/>
								<stop  offset="1" style="stop-color:#000000"/>
							</linearGradient>
							<rect x="33.281" y="2.39" style="clip-path:url(#SVGID_11_);fill:url(#SVGID_13_);" width="9.719" height="17.251"/>
						</g>
					</mask>
					
						<linearGradient id="SVGID_14_" gradientUnits="userSpaceOnUse" x1="0" y1="48" x2="1" y2="48" gradientTransform="matrix(0 12.5056 12.5056 0 -562.1293 5.125)">
						<stop  offset="0" style="stop-color:#5A183B"/>
						<stop  offset="0.0125" style="stop-color:#5A183B"/>
						<stop  offset="1" style="stop-color:#A96284"/>
					</linearGradient>
					
						<rect x="33.281" y="2.39" style="clip-path:url(#SVGID_11_);mask:url(#SVGID_12_);fill:url(#SVGID_14_);" width="9.719" height="17.251"/>
				</g>
			</g>
		</g>
	</g>
	<g style="clip-path:url(#SVGID_2_);">
		<defs>
			<path id="SVGID_15_" d="M32.111,0L32,7c0,2.2,1.8,4,4,4h7L32.111,0z"/>
		</defs>
		<clipPath id="SVGID_16_">
			<use xlink:href="#SVGID_15_"  style="overflow:visible;"/>
		</clipPath>
		
			<linearGradient id="SVGID_17_" gradientUnits="userSpaceOnUse" x1="0" y1="48" x2="1" y2="48" gradientTransform="matrix(0 10.7156 10.7156 0 -476.8489 0.1172)">
			<stop  offset="0" style="stop-color:#162D37"/>
			<stop  offset="0.02" style="stop-color:#162D37"/>
			<stop  offset="0.9934" style="stop-color:#5D7D99"/>
			<stop  offset="1" style="stop-color:#5D7D99"/>
		</linearGradient>
		<rect x="32" style="clip-path:url(#SVGID_16_);fill:url(#SVGID_17_);" width="11" height="11"/>
	</g>
	<g style="clip-path:url(#SVGID_2_);">
		<defs>
			<rect id="SVGID_18_" width="48" height="48"/>
		</defs>
		<clipPath id="SVGID_19_">
			<use xlink:href="#SVGID_18_"  style="overflow:visible;"/>
		</clipPath>
		<g style="opacity:0.4;clip-path:url(#SVGID_19_);">
			<g>
				<defs>
					<rect id="SVGID_20_" x="9" y="18" width="34" height="30"/>
				</defs>
				<clipPath id="SVGID_21_">
					<use xlink:href="#SVGID_20_"  style="overflow:visible;"/>
				</clipPath>
				<g style="clip-path:url(#SVGID_21_);">
					<defs>
						<path id="SVGID_22_" d="M43,44V23.348l-4.668-4.64l-4.896,1.714L31,18l-2.219,3.494L25.265,18l-1.998,3.147L20.101,18
							l0.734,6.387L15.5,19.052l-4.387-0.344l-0.207,2.067l-1.073-0.084L9,29l19,19h11C41.2,48,43,46.2,43,44"/>
					</defs>
					<clipPath id="SVGID_23_">
						<use xlink:href="#SVGID_22_"  style="overflow:visible;"/>
					</clipPath>
					<defs>
						<filter id="Adobe_OpacityMaskFilter_1_" filterUnits="userSpaceOnUse" x="9" y="18" width="34" height="30">
							<feColorMatrix  type="matrix" values="1 0 0 0 0  0 1 0 0 0  0 0 1 0 0  0 0 0 1 0"/>
						</filter>
					</defs>
					<mask maskUnits="userSpaceOnUse" x="9" y="18" width="34" height="30" id="SVGID_24_">
						<g style="filter:url(#Adobe_OpacityMaskFilter_1_);">
							
								<linearGradient id="SVGID_25_" gradientUnits="userSpaceOnUse" x1="0" y1="48" x2="1" y2="48" gradientTransform="matrix(0 29.2244 29.2244 0 -1376.7697 18.3125)">
								<stop  offset="0" style="stop-color:#FFFFFF"/>
								<stop  offset="0.0125" style="stop-color:#FFFFFF"/>
								<stop  offset="1" style="stop-color:#000000"/>
							</linearGradient>
							<rect x="9" y="18" style="clip-path:url(#SVGID_23_);fill:url(#SVGID_25_);" width="34" height="30"/>
						</g>
					</mask>
					
						<linearGradient id="SVGID_26_" gradientUnits="userSpaceOnUse" x1="0" y1="48" x2="1" y2="48" gradientTransform="matrix(0 29.2244 29.2244 0 -1376.7697 18.3125)">
						<stop  offset="0" style="stop-color:#5A183B"/>
						<stop  offset="0.0125" style="stop-color:#5A183B"/>
						<stop  offset="1" style="stop-color:#A96284"/>
					</linearGradient>
					<rect x="9" y="18" style="clip-path:url(#SVGID_23_);mask:url(#SVGID_24_);fill:url(#SVGID_26_);" width="34" height="30"/>
				</g>
			</g>
		</g>
	</g>
	<g style="clip-path:url(#SVGID_2_);">
		<defs>
			<path id="SVGID_27_" d="M11.118,19.915h1.6c0.732,0,1.219,0.233,1.585,0.681c0.396,0.494,0.457,1.189,0.457,2.857
				c0,1.669-0.061,2.457-0.457,2.951c-0.366,0.448-0.853,0.68-1.585,0.68h-1.6V19.915z M9,18v11h3.916
				c1.128,0,2.149-0.325,2.865-1.05c1.219-1.237,1.097-2.843,1.097-4.497c0-1.652,0.122-3.167-1.097-4.402
				C15.065,18.324,14.044,18,12.916,18H9z M28.846,18l-1.649,6.937L25.265,18H23.72l-1.931,6.937L20.155,18H18l2.823,11h1.723
				l1.947-6.674L26.439,29h1.723L31,18H28.846z M33.054,19.185c-0.467,0.471-0.753,1.003-0.874,1.626
				C32.061,21.419,32,22.315,32,23.5c0,1.186,0.061,2.082,0.18,2.689c0.121,0.607,0.407,1.154,0.874,1.626
				C33.838,28.605,34.802,29,35.947,29c1.206,0,2.199-0.38,3.027-1.231C39.713,26.98,40,26.053,40,24.472v-1.579h-4.053v1.762h1.974
				v0.41c0,0.593-0.166,1.077-0.481,1.442c-0.378,0.41-0.874,0.608-1.492,0.608c-0.573,0-1.024-0.183-1.34-0.563
				c-0.423-0.501-0.514-0.927-0.514-3.054c0-2.143,0.12-2.537,0.514-3.039c0.331-0.38,0.782-0.577,1.34-0.577
				c1.039,0,1.673,0.532,1.929,1.58h2.109C39.699,19.58,38.388,18,35.947,18C34.802,18,33.838,18.395,33.054,19.185"/>
		</defs>
		<clipPath id="SVGID_28_">
			<use xlink:href="#SVGID_27_"  style="overflow:visible;"/>
		</clipPath>
		
			<linearGradient id="SVGID_29_" gradientUnits="userSpaceOnUse" x1="0" y1="48" x2="1" y2="48" gradientTransform="matrix(0 12.818 12.818 0 -590.7634 19.1875)">
			<stop  offset="0" style="stop-color:#FFFFFF"/>
			<stop  offset="0.0049" style="stop-color:#FFFFFF"/>
			<stop  offset="1" style="stop-color:#B4DDE5"/>
		</linearGradient>
		<rect x="9" y="18" style="clip-path:url(#SVGID_28_);fill:url(#SVGID_29_);" width="31" height="11"/>
	</g>
</g>
</svg>
