<?xml version="1.0" encoding="iso-8859-1"?>
<!-- Generator: Adobe Illustrator 16.0.0, SVG Export Plug-In . SVG Version: 6.00 Build 0)  -->
<!DOCTYPE svg PUBLIC "-//W3C//DTD SVG 1.1//EN" "http://www.w3.org/Graphics/SVG/1.1/DTD/svg11.dtd">
<svg version="1.1" id="Layer_1" xmlns="http://www.w3.org/2000/svg" xmlns:xlink="http://www.w3.org/1999/xlink" x="0px" y="0px"
	 width="48px" height="48px" viewBox="0 0 48 48" style="enable-background:new 0 0 48 48;" xml:space="preserve">
<g>
	<defs>
		<rect id="SVGID_1_" width="48" height="48"/>
	</defs>
	<clipPath id="SVGID_2_">
		<use xlink:href="#SVGID_1_"  style="overflow:visible;"/>
	</clipPath>
	<g style="clip-path:url(#SVGID_2_);">
		<defs>
			<path id="SVGID_3_" d="M9,0C6.8,0,5,1.8,5,4v40c0,2.2,1.8,4,4,4h30c2.2,0,4-1.8,4-4V11c-2.922-2-8.687-7.938-10.889-11H9z"/>
		</defs>
		<clipPath id="SVGID_4_">
			<use xlink:href="#SVGID_3_"  style="overflow:visible;"/>
		</clipPath>
		
			<linearGradient id="SVGID_5_" gradientUnits="userSpaceOnUse" x1="0" y1="48" x2="1" y2="48" gradientTransform="matrix(0 46.759 46.759 0 -2220.4314 0.5)">
			<stop  offset="0" style="stop-color:#03597C"/>
			<stop  offset="7.196800e-013" style="stop-color:#03597C"/>
			<stop  offset="1" style="stop-color:#7FA1B2"/>
		</linearGradient>
		<rect x="5" style="clip-path:url(#SVGID_4_);fill:url(#SVGID_5_);" width="38" height="48"/>
	</g>
	<g style="clip-path:url(#SVGID_2_);">
		<defs>
			<rect id="SVGID_6_" width="48" height="48"/>
		</defs>
		<clipPath id="SVGID_7_">
			<use xlink:href="#SVGID_6_"  style="overflow:visible;"/>
		</clipPath>
		<g style="opacity:0.6;clip-path:url(#SVGID_7_);">
			<g>
				<defs>
					<rect id="SVGID_8_" x="33.281" y="2.39" width="9.719" height="17.25"/>
				</defs>
				<clipPath id="SVGID_9_">
					<use xlink:href="#SVGID_8_"  style="overflow:visible;"/>
				</clipPath>
				<g style="clip-path:url(#SVGID_9_);">
					<defs>
						<path id="SVGID_10_" d="M43,11c-2.274-1.557-6.265-5.495-8.963-8.61l-0.756,7.532L43,19.641V11z"/>
					</defs>
					<clipPath id="SVGID_11_">
						<use xlink:href="#SVGID_10_"  style="overflow:visible;"/>
					</clipPath>
					<defs>
						<filter id="Adobe_OpacityMaskFilter" filterUnits="userSpaceOnUse" x="33.281" y="2.39" width="9.719" height="17.251">
							<feColorMatrix  type="matrix" values="1 0 0 0 0  0 1 0 0 0  0 0 1 0 0  0 0 0 1 0"/>
						</filter>
					</defs>
					<mask maskUnits="userSpaceOnUse" x="33.281" y="2.39" width="9.719" height="17.251" id="SVGID_12_">
						<g style="filter:url(#Adobe_OpacityMaskFilter);">
							
								<linearGradient id="SVGID_13_" gradientUnits="userSpaceOnUse" x1="0" y1="48" x2="1" y2="48" gradientTransform="matrix(0 12.5056 12.5056 0 -562.1293 5.125)">
								<stop  offset="0" style="stop-color:#FFFFFF"/>
								<stop  offset="1" style="stop-color:#000000"/>
							</linearGradient>
							<rect x="33.281" y="2.39" style="clip-path:url(#SVGID_11_);fill:url(#SVGID_13_);" width="9.719" height="17.251"/>
						</g>
					</mask>
					
						<linearGradient id="SVGID_14_" gradientUnits="userSpaceOnUse" x1="0" y1="48" x2="1" y2="48" gradientTransform="matrix(0 12.5056 12.5056 0 -562.1293 5.125)">
						<stop  offset="0" style="stop-color:#004546"/>
						<stop  offset="1" style="stop-color:#005F70"/>
					</linearGradient>
					
						<rect x="33.281" y="2.39" style="clip-path:url(#SVGID_11_);mask:url(#SVGID_12_);fill:url(#SVGID_14_);" width="9.719" height="17.251"/>
				</g>
			</g>
		</g>
	</g>
	<g style="clip-path:url(#SVGID_2_);">
		<defs>
			<path id="SVGID_15_" d="M32.111,0L32,7c0,2.2,1.8,4,4,4h7L32.111,0z"/>
		</defs>
		<clipPath id="SVGID_16_">
			<use xlink:href="#SVGID_15_"  style="overflow:visible;"/>
		</clipPath>
		
			<linearGradient id="SVGID_17_" gradientUnits="userSpaceOnUse" x1="0" y1="48" x2="1" y2="48" gradientTransform="matrix(0 10.7156 10.7156 0 -476.8489 0.1172)">
			<stop  offset="0" style="stop-color:#03597C"/>
			<stop  offset="7.196800e-013" style="stop-color:#03597C"/>
			<stop  offset="1" style="stop-color:#7FA1B2"/>
		</linearGradient>
		<rect x="32" style="clip-path:url(#SVGID_16_);fill:url(#SVGID_17_);" width="11" height="11"/>
	</g>
	<g style="clip-path:url(#SVGID_2_);">
		<defs>
			<rect id="SVGID_18_" width="48" height="48"/>
		</defs>
		<clipPath id="SVGID_19_">
			<use xlink:href="#SVGID_18_"  style="overflow:visible;"/>
		</clipPath>
		<g style="opacity:0.6;clip-path:url(#SVGID_19_);">
			<g>
				<defs>
					<rect id="SVGID_20_" x="9" y="18" width="34" height="30"/>
				</defs>
				<clipPath id="SVGID_21_">
					<use xlink:href="#SVGID_20_"  style="overflow:visible;"/>
				</clipPath>
				<g style="clip-path:url(#SVGID_21_);">
					<defs>
						<path id="SVGID_22_" d="M39.02,18.032l-2.395,3.593l-0.309,0.478l-4.071-4.071l1.043,6.642l-6.019-6.017l-5.22,0.984v1.566
							l-3.175-3.175l-2.813,4.343l-0.2,0.302l-1.642-1.642l-0.066-0.005L11.124,18l-0.521,2.752l-0.77-0.061L9,29l19,19h11
							c2.2,0,4-1.8,4-4V22.011L39.02,18.032z"/>
					</defs>
					<clipPath id="SVGID_23_">
						<use xlink:href="#SVGID_22_"  style="overflow:visible;"/>
					</clipPath>
					<defs>
						<filter id="Adobe_OpacityMaskFilter_1_" filterUnits="userSpaceOnUse" x="9" y="18" width="34" height="30">
							<feColorMatrix  type="matrix" values="1 0 0 0 0  0 1 0 0 0  0 0 1 0 0  0 0 0 1 0"/>
						</filter>
					</defs>
					<mask maskUnits="userSpaceOnUse" x="9" y="18" width="34" height="30" id="SVGID_24_">
						<g style="filter:url(#Adobe_OpacityMaskFilter_1_);">
							
								<linearGradient id="SVGID_25_" gradientUnits="userSpaceOnUse" x1="0" y1="48" x2="1" y2="48" gradientTransform="matrix(0 29.2244 29.2244 0 -1376.7697 18.3125)">
								<stop  offset="0" style="stop-color:#FFFFFF"/>
								<stop  offset="1" style="stop-color:#000000"/>
							</linearGradient>
							<rect x="9" y="18" style="clip-path:url(#SVGID_23_);fill:url(#SVGID_25_);" width="34" height="30"/>
						</g>
					</mask>
					
						<linearGradient id="SVGID_26_" gradientUnits="userSpaceOnUse" x1="0" y1="48" x2="1" y2="48" gradientTransform="matrix(0 29.2244 29.2244 0 -1376.7697 18.3125)">
						<stop  offset="0" style="stop-color:#004546"/>
						<stop  offset="1" style="stop-color:#005F70"/>
					</linearGradient>
					<rect x="9" y="18" style="clip-path:url(#SVGID_23_);mask:url(#SVGID_24_);fill:url(#SVGID_26_);" width="34" height="30"/>
				</g>
			</g>
		</g>
	</g>
	<g style="clip-path:url(#SVGID_2_);">
		<defs>
			<path id="SVGID_27_" d="M16.876,18l-2.868,5.948L11.124,18H9v11h2.155v-6.411l2.124,4.171h1.458l2.108-4.171V29H19V18H16.876z
				 M23.647,26.539c-0.409-0.456-0.514-0.957-0.514-3.039c0-2.081,0.105-2.583,0.514-3.039c0.302-0.349,0.786-0.577,1.36-0.577
				c0.576,0,1.044,0.228,1.347,0.577c0.408,0.456,0.529,0.958,0.529,3.039c0,2.082-0.121,2.583-0.529,3.039
				c-0.303,0.349-0.771,0.577-1.347,0.577C24.433,27.116,23.949,26.888,23.647,26.539 M22.089,19.185
				C21,20.279,21.03,21.631,21.03,23.5s-0.03,3.221,1.059,4.315C22.845,28.574,23.783,29,25.007,29c1.226,0,2.148-0.426,2.904-1.185
				c1.089-1.095,1.073-2.446,1.073-4.315s0.016-3.221-1.073-4.315C27.155,18.425,26.232,18,25.007,18
				C23.783,18,22.845,18.425,22.089,19.185 M36.731,18l-2.238,7.169L32.254,18H30l3.678,11h1.628L39,18H36.731z"/>
		</defs>
		<clipPath id="SVGID_28_">
			<use xlink:href="#SVGID_27_"  style="overflow:visible;"/>
		</clipPath>
		
			<linearGradient id="SVGID_29_" gradientUnits="userSpaceOnUse" x1="0" y1="48" x2="1" y2="48" gradientTransform="matrix(0 12.0934 12.0934 0 -556.4825 19.8359)">
			<stop  offset="0" style="stop-color:#FFFFFF"/>
			<stop  offset="0.0049" style="stop-color:#FFFFFF"/>
			<stop  offset="1" style="stop-color:#A7DEF3"/>
		</linearGradient>
		<rect x="9" y="18" style="clip-path:url(#SVGID_28_);fill:url(#SVGID_29_);" width="30" height="11"/>
	</g>
</g>
</svg>
