<?xml version="1.0" encoding="iso-8859-1"?>
<!-- Generator: Adobe Illustrator 16.0.0, SVG Export Plug-In . SVG Version: 6.00 Build 0)  -->
<!DOCTYPE svg PUBLIC "-//W3C//DTD SVG 1.1//EN" "http://www.w3.org/Graphics/SVG/1.1/DTD/svg11.dtd">
<svg version="1.1" id="Layer_1" xmlns="http://www.w3.org/2000/svg" xmlns:xlink="http://www.w3.org/1999/xlink" x="0px" y="0px"
	 width="48px" height="48px" viewBox="0 0 48 48" style="enable-background:new 0 0 48 48;" xml:space="preserve">
<g>
	<defs>
		<rect id="SVGID_1_" width="48" height="48"/>
	</defs>
	<clipPath id="SVGID_2_">
		<use xlink:href="#SVGID_1_"  style="overflow:visible;"/>
	</clipPath>
	<g style="clip-path:url(#SVGID_2_);">
		<defs>
			<path id="SVGID_3_" d="M9,0C6.8,0,5,1.8,5,4v40c0,2.2,1.8,4,4,4h30c2.2,0,4-1.8,4-4V11c-2.922-2-8.687-7.938-10.889-11H9z"/>
		</defs>
		<clipPath id="SVGID_4_">
			<use xlink:href="#SVGID_3_"  style="overflow:visible;"/>
		</clipPath>
		
			<linearGradient id="SVGID_5_" gradientUnits="userSpaceOnUse" x1="0" y1="48" x2="1" y2="48" gradientTransform="matrix(0 46.759 46.759 0 -2220.4314 0.5)">
			<stop  offset="0" style="stop-color:#7A5432"/>
			<stop  offset="0.0174" style="stop-color:#7A5432"/>
			<stop  offset="0.9934" style="stop-color:#CEA584"/>
			<stop  offset="1" style="stop-color:#CEA584"/>
		</linearGradient>
		<rect x="5" style="clip-path:url(#SVGID_4_);fill:url(#SVGID_5_);" width="38" height="48"/>
	</g>
	<g style="clip-path:url(#SVGID_2_);">
		<defs>
			<rect id="SVGID_6_" width="48" height="48"/>
		</defs>
		<clipPath id="SVGID_7_">
			<use xlink:href="#SVGID_6_"  style="overflow:visible;"/>
		</clipPath>
		<g style="opacity:0.4;clip-path:url(#SVGID_7_);">
			<g>
				<defs>
					<rect id="SVGID_8_" x="33.281" y="2.39" width="9.719" height="17.25"/>
				</defs>
				<clipPath id="SVGID_9_">
					<use xlink:href="#SVGID_8_"  style="overflow:visible;"/>
				</clipPath>
				<g style="clip-path:url(#SVGID_9_);">
					<defs>
						<path id="SVGID_10_" d="M43,11c-2.274-1.557-6.265-5.495-8.963-8.61l-0.756,7.532L43,19.641V11z"/>
					</defs>
					<clipPath id="SVGID_11_">
						<use xlink:href="#SVGID_10_"  style="overflow:visible;"/>
					</clipPath>
					<defs>
						<filter id="Adobe_OpacityMaskFilter" filterUnits="userSpaceOnUse" x="33.281" y="2.39" width="9.719" height="17.251">
							<feColorMatrix  type="matrix" values="1 0 0 0 0  0 1 0 0 0  0 0 1 0 0  0 0 0 1 0"/>
						</filter>
					</defs>
					<mask maskUnits="userSpaceOnUse" x="33.281" y="2.39" width="9.719" height="17.251" id="SVGID_12_">
						<g style="filter:url(#Adobe_OpacityMaskFilter);">
							
								<linearGradient id="SVGID_13_" gradientUnits="userSpaceOnUse" x1="0" y1="48" x2="1" y2="48" gradientTransform="matrix(0 12.5056 12.5056 0 -562.1293 5.125)">
								<stop  offset="0" style="stop-color:#FFFFFF"/>
								<stop  offset="0.0125" style="stop-color:#FFFFFF"/>
								<stop  offset="1" style="stop-color:#000000"/>
							</linearGradient>
							<rect x="33.281" y="2.39" style="clip-path:url(#SVGID_11_);fill:url(#SVGID_13_);" width="9.719" height="17.251"/>
						</g>
					</mask>
					
						<linearGradient id="SVGID_14_" gradientUnits="userSpaceOnUse" x1="0" y1="48" x2="1" y2="48" gradientTransform="matrix(0 12.5056 12.5056 0 -562.1293 5.125)">
						<stop  offset="0" style="stop-color:#5A183B"/>
						<stop  offset="0.0125" style="stop-color:#5A183B"/>
						<stop  offset="1" style="stop-color:#A96284"/>
					</linearGradient>
					
						<rect x="33.281" y="2.39" style="clip-path:url(#SVGID_11_);mask:url(#SVGID_12_);fill:url(#SVGID_14_);" width="9.719" height="17.251"/>
				</g>
			</g>
		</g>
	</g>
	<g style="clip-path:url(#SVGID_2_);">
		<defs>
			<path id="SVGID_15_" d="M32.111,0L32,7c0,2.2,1.8,4,4,4h7L32.111,0z"/>
		</defs>
		<clipPath id="SVGID_16_">
			<use xlink:href="#SVGID_15_"  style="overflow:visible;"/>
		</clipPath>
		
			<linearGradient id="SVGID_17_" gradientUnits="userSpaceOnUse" x1="0" y1="48" x2="1" y2="48" gradientTransform="matrix(0 10.7156 10.7156 0 -476.8489 0.1172)">
			<stop  offset="0" style="stop-color:#7A5432"/>
			<stop  offset="0.0174" style="stop-color:#7A5432"/>
			<stop  offset="0.9934" style="stop-color:#CEA584"/>
			<stop  offset="1" style="stop-color:#CEA584"/>
		</linearGradient>
		<rect x="32" style="clip-path:url(#SVGID_16_);fill:url(#SVGID_17_);" width="11" height="11"/>
	</g>
	<g style="clip-path:url(#SVGID_2_);">
		<defs>
			<rect id="SVGID_18_" width="48" height="48"/>
		</defs>
		<clipPath id="SVGID_19_">
			<use xlink:href="#SVGID_18_"  style="overflow:visible;"/>
		</clipPath>
		<g style="opacity:0.4;clip-path:url(#SVGID_19_);">
			<g>
				<defs>
					<rect id="SVGID_20_" x="12.488" y="18.643" width="30.512" height="29.357"/>
				</defs>
				<clipPath id="SVGID_21_">
					<use xlink:href="#SVGID_20_"  style="overflow:visible;"/>
				</clipPath>
				<g style="clip-path:url(#SVGID_21_);">
					<defs>
						<path id="SVGID_22_" d="M36.588,19.157l-5.432,0.218l0.405,4.125l-5.275-4.857l-4.652,0.435l-0.346,3.442l-3.314-3.314
							l-4.653,0.435l-0.833,8.308L32.539,48H39c2.2,0,4-1.8,4-4V25.569L36.588,19.157z"/>
					</defs>
					<clipPath id="SVGID_23_">
						<use xlink:href="#SVGID_22_"  style="overflow:visible;"/>
					</clipPath>
					<defs>
						<filter id="Adobe_OpacityMaskFilter_1_" filterUnits="userSpaceOnUse" x="12.488" y="18.643" width="30.512" height="29.357">
							<feColorMatrix  type="matrix" values="1 0 0 0 0  0 1 0 0 0  0 0 1 0 0  0 0 0 1 0"/>
						</filter>
					</defs>
					<mask maskUnits="userSpaceOnUse" x="12.488" y="18.643" width="30.512" height="29.357" id="SVGID_24_">
						<g style="filter:url(#Adobe_OpacityMaskFilter_1_);">
							
								<linearGradient id="SVGID_25_" gradientUnits="userSpaceOnUse" x1="0" y1="48" x2="1" y2="48" gradientTransform="matrix(0 28.598 28.598 0 -1344.9534 18.9531)">
								<stop  offset="0" style="stop-color:#FFFFFF"/>
								<stop  offset="0.0125" style="stop-color:#FFFFFF"/>
								<stop  offset="1" style="stop-color:#000000"/>
							</linearGradient>
							<rect x="12.488" y="18.643" style="clip-path:url(#SVGID_23_);fill:url(#SVGID_25_);" width="30.512" height="29.357"/>
						</g>
					</mask>
					
						<linearGradient id="SVGID_26_" gradientUnits="userSpaceOnUse" x1="0" y1="48" x2="1" y2="48" gradientTransform="matrix(0 28.598 28.598 0 -1344.9534 18.9531)">
						<stop  offset="0" style="stop-color:#5A183B"/>
						<stop  offset="0.0125" style="stop-color:#5A183B"/>
						<stop  offset="1" style="stop-color:#A96284"/>
					</linearGradient>
					
						<rect x="12.488" y="18.643" style="clip-path:url(#SVGID_23_);mask:url(#SVGID_24_);fill:url(#SVGID_26_);" width="30.512" height="29.357"/>
				</g>
			</g>
		</g>
	</g>
	<g style="clip-path:url(#SVGID_2_);">
		<defs>
			<path id="SVGID_27_" d="M13.662,26.539c-0.409-0.456-0.515-0.957-0.515-3.039c0-2.081,0.106-2.583,0.515-3.039
				c0.302-0.349,0.786-0.577,1.361-0.577c0.574,0,1.043,0.228,1.345,0.577c0.409,0.456,0.53,0.958,0.53,3.039
				c0,2.082-0.121,2.583-0.53,3.039c-0.302,0.349-0.771,0.577-1.345,0.577C14.448,27.116,13.964,26.888,13.662,26.539
				 M12.104,19.185c-1.089,1.094-1.058,2.446-1.058,4.315s-0.031,3.221,1.058,4.315C12.86,28.574,13.798,29,15.023,29
				s2.147-0.426,2.903-1.185C19.015,26.721,19,25.369,19,23.5s0.015-3.221-1.074-4.315C17.17,18.425,16.248,18,15.023,18
				S12.86,18.425,12.104,19.185 M22.118,19.915h1.6c0.731,0,1.219,0.233,1.585,0.681c0.396,0.494,0.457,1.189,0.457,2.857
				c0,1.669-0.061,2.457-0.457,2.951c-0.366,0.448-0.854,0.68-1.585,0.68h-1.6V19.915z M20,18v11h3.917
				c1.126,0,2.148-0.325,2.864-1.05c1.219-1.237,1.097-2.843,1.097-4.497c0-1.652,0.122-3.167-1.097-4.402
				C26.065,18.324,25.043,18,23.917,18H20z M29.427,21.282c0,0.911,0.26,1.611,0.779,2.126c0.489,0.472,1.176,0.761,2.107,0.896
				l1.313,0.184c0.504,0.075,0.748,0.182,0.962,0.379c0.229,0.213,0.336,0.532,0.336,0.912c0,0.865-0.672,1.337-1.924,1.337
				c-1.008,0-1.939-0.229-2.626-0.911L29,27.572C30.069,28.651,31.321,29,32.97,29c2.274,0,4.03-1.185,4.03-3.282
				c0-0.957-0.259-1.747-0.84-2.294c-0.458-0.425-1.083-0.699-2.076-0.835l-1.283-0.183c-0.441-0.06-0.793-0.228-1.007-0.425
				c-0.229-0.213-0.321-0.501-0.321-0.775c0-0.745,0.551-1.368,1.68-1.368c0.719,0,1.543,0.092,2.229,0.745l1.343-1.322
				C35.794,18.365,34.71,18,33.214,18C30.863,18,29.427,19.352,29.427,21.282"/>
		</defs>
		<clipPath id="SVGID_28_">
			<use xlink:href="#SVGID_27_"  style="overflow:visible;"/>
		</clipPath>
		
			<linearGradient id="SVGID_29_" gradientUnits="userSpaceOnUse" x1="0" y1="47.999" x2="1" y2="47.999" gradientTransform="matrix(0 15.438 15.438 0 -717.0009 17)">
			<stop  offset="0" style="stop-color:#FFFFFF"/>
			<stop  offset="0.0049" style="stop-color:#FFFFFF"/>
			<stop  offset="1" style="stop-color:#FFECB7"/>
		</linearGradient>
		<rect x="11.015" y="18" style="clip-path:url(#SVGID_28_);fill:url(#SVGID_29_);" width="25.985" height="11"/>
	</g>
</g>
</svg>
