<?xml version="1.0" encoding="iso-8859-1"?>
<!-- Generator: Adobe Illustrator 16.0.0, SVG Export Plug-In . SVG Version: 6.00 Build 0)  -->
<!DOCTYPE svg PUBLIC "-//W3C//DTD SVG 1.1//EN" "http://www.w3.org/Graphics/SVG/1.1/DTD/svg11.dtd">
<svg version="1.1" id="Layer_1" xmlns="http://www.w3.org/2000/svg" xmlns:xlink="http://www.w3.org/1999/xlink" x="0px" y="0px"
	 width="48px" height="48px" viewBox="0 0 48 48" style="enable-background:new 0 0 48 48;" xml:space="preserve">
<g>
	<defs>
		<rect id="SVGID_1_" width="48" height="48"/>
	</defs>
	<clipPath id="SVGID_2_">
		<use xlink:href="#SVGID_1_"  style="overflow:visible;"/>
	</clipPath>
	<g style="clip-path:url(#SVGID_2_);">
		<defs>
			<path id="SVGID_3_" d="M9,0C6.8,0,5,1.8,5,4v40c0,2.2,1.8,4,4,4h30c2.2,0,4-1.8,4-4V11c-2.922-2-8.687-7.938-10.889-11H9z"/>
		</defs>
		<clipPath id="SVGID_4_">
			<use xlink:href="#SVGID_3_"  style="overflow:visible;"/>
		</clipPath>
		
			<linearGradient id="SVGID_5_" gradientUnits="userSpaceOnUse" x1="0" y1="48" x2="1" y2="48" gradientTransform="matrix(0 46.759 46.759 0 -2220.4314 0.5)">
			<stop  offset="0" style="stop-color:#08506A"/>
			<stop  offset="0.016" style="stop-color:#08506A"/>
			<stop  offset="0.9934" style="stop-color:#5495D0"/>
			<stop  offset="1" style="stop-color:#5495D0"/>
		</linearGradient>
		<rect x="5" style="clip-path:url(#SVGID_4_);fill:url(#SVGID_5_);" width="38" height="48"/>
	</g>
	<g style="clip-path:url(#SVGID_2_);">
		<defs>
			<rect id="SVGID_6_" width="48" height="48"/>
		</defs>
		<clipPath id="SVGID_7_">
			<use xlink:href="#SVGID_6_"  style="overflow:visible;"/>
		</clipPath>
		<g style="opacity:0.4;clip-path:url(#SVGID_7_);">
			<g>
				<defs>
					<rect id="SVGID_8_" x="33.281" y="2.39" width="9.719" height="17.25"/>
				</defs>
				<clipPath id="SVGID_9_">
					<use xlink:href="#SVGID_8_"  style="overflow:visible;"/>
				</clipPath>
				<g style="clip-path:url(#SVGID_9_);">
					<defs>
						<path id="SVGID_10_" d="M43,11c-2.274-1.557-6.265-5.495-8.963-8.61l-0.756,7.532L43,19.641V11z"/>
					</defs>
					<clipPath id="SVGID_11_">
						<use xlink:href="#SVGID_10_"  style="overflow:visible;"/>
					</clipPath>
					<defs>
						<filter id="Adobe_OpacityMaskFilter" filterUnits="userSpaceOnUse" x="33.281" y="2.39" width="9.719" height="17.251">
							<feColorMatrix  type="matrix" values="1 0 0 0 0  0 1 0 0 0  0 0 1 0 0  0 0 0 1 0"/>
						</filter>
					</defs>
					<mask maskUnits="userSpaceOnUse" x="33.281" y="2.39" width="9.719" height="17.251" id="SVGID_12_">
						<g style="filter:url(#Adobe_OpacityMaskFilter);">
							
								<linearGradient id="SVGID_13_" gradientUnits="userSpaceOnUse" x1="0" y1="48" x2="1" y2="48" gradientTransform="matrix(0 12.5056 12.5056 0 -562.1293 5.125)">
								<stop  offset="0" style="stop-color:#FFFFFF"/>
								<stop  offset="0.0125" style="stop-color:#FFFFFF"/>
								<stop  offset="1" style="stop-color:#000000"/>
							</linearGradient>
							<rect x="33.281" y="2.39" style="clip-path:url(#SVGID_11_);fill:url(#SVGID_13_);" width="9.719" height="17.251"/>
						</g>
					</mask>
					
						<linearGradient id="SVGID_14_" gradientUnits="userSpaceOnUse" x1="0" y1="48" x2="1" y2="48" gradientTransform="matrix(0 12.5056 12.5056 0 -562.1293 5.125)">
						<stop  offset="0" style="stop-color:#5A183B"/>
						<stop  offset="0.0125" style="stop-color:#5A183B"/>
						<stop  offset="1" style="stop-color:#A96284"/>
					</linearGradient>
					
						<rect x="33.281" y="2.39" style="clip-path:url(#SVGID_11_);mask:url(#SVGID_12_);fill:url(#SVGID_14_);" width="9.719" height="17.251"/>
				</g>
			</g>
		</g>
	</g>
	<g style="clip-path:url(#SVGID_2_);">
		<defs>
			<path id="SVGID_15_" d="M32.111,0L32,7c0,2.2,1.8,4,4,4h7L32.111,0z"/>
		</defs>
		<clipPath id="SVGID_16_">
			<use xlink:href="#SVGID_15_"  style="overflow:visible;"/>
		</clipPath>
		
			<linearGradient id="SVGID_17_" gradientUnits="userSpaceOnUse" x1="0" y1="48" x2="1" y2="48" gradientTransform="matrix(0 10.7156 10.7156 0 -476.8489 0.1172)">
			<stop  offset="0" style="stop-color:#08506A"/>
			<stop  offset="0.016" style="stop-color:#08506A"/>
			<stop  offset="0.9934" style="stop-color:#5495D0"/>
			<stop  offset="1" style="stop-color:#5495D0"/>
		</linearGradient>
		<rect x="32" style="clip-path:url(#SVGID_16_);fill:url(#SVGID_17_);" width="11" height="11"/>
	</g>
	<g style="clip-path:url(#SVGID_2_);">
		<defs>
			<rect id="SVGID_18_" width="48" height="48"/>
		</defs>
		<clipPath id="SVGID_19_">
			<use xlink:href="#SVGID_18_"  style="overflow:visible;"/>
		</clipPath>
		<g style="opacity:0.4;clip-path:url(#SVGID_19_);">
			<g>
				<defs>
					<rect id="SVGID_20_" x="11" y="18.708" width="32" height="29.292"/>
				</defs>
				<clipPath id="SVGID_21_">
					<use xlink:href="#SVGID_20_"  style="overflow:visible;"/>
				</clipPath>
				<g style="clip-path:url(#SVGID_21_);">
					<defs>
						<path id="SVGID_22_" d="M30.942,19.208l0.337,3.463l-3.421-3.421l-6-0.042l0.385,3.952l-4.41-4.41l-6-0.042l0.195,1.999
							l-0.195-0.016L11,29l19,19h9c2.2,0,4-1.8,4-4V25.308l-6.058-6.058L30.942,19.208z"/>
					</defs>
					<clipPath id="SVGID_23_">
						<use xlink:href="#SVGID_22_"  style="overflow:visible;"/>
					</clipPath>
					<defs>
						<filter id="Adobe_OpacityMaskFilter_1_" filterUnits="userSpaceOnUse" x="11" y="18.708" width="32" height="29.292">
							<feColorMatrix  type="matrix" values="1 0 0 0 0  0 1 0 0 0  0 0 1 0 0  0 0 0 1 0"/>
						</filter>
					</defs>
					<mask maskUnits="userSpaceOnUse" x="11" y="18.708" width="32" height="29.292" id="SVGID_24_">
						<g style="filter:url(#Adobe_OpacityMaskFilter_1_);">
							
								<linearGradient id="SVGID_25_" gradientUnits="userSpaceOnUse" x1="0" y1="48" x2="1" y2="48" gradientTransform="matrix(0 28.5344 28.5344 0 -1342.6497 19.0156)">
								<stop  offset="0" style="stop-color:#FFFFFF"/>
								<stop  offset="0.0125" style="stop-color:#FFFFFF"/>
								<stop  offset="1" style="stop-color:#000000"/>
							</linearGradient>
							<rect x="11" y="18.708" style="clip-path:url(#SVGID_23_);fill:url(#SVGID_25_);" width="32" height="29.292"/>
						</g>
					</mask>
					
						<linearGradient id="SVGID_26_" gradientUnits="userSpaceOnUse" x1="0" y1="48" x2="1" y2="48" gradientTransform="matrix(0 28.5344 28.5344 0 -1342.6497 19.0156)">
						<stop  offset="0" style="stop-color:#5A183B"/>
						<stop  offset="0.0125" style="stop-color:#5A183B"/>
						<stop  offset="1" style="stop-color:#A96284"/>
					</linearGradient>
					
						<rect x="11" y="18.708" style="clip-path:url(#SVGID_23_);mask:url(#SVGID_24_);fill:url(#SVGID_26_);" width="32" height="29.292"/>
				</g>
			</g>
		</g>
	</g>
	<g style="clip-path:url(#SVGID_2_);">
		<defs>
			<path id="SVGID_27_" d="M13.176,19.915h2.036c0.985,0,1.612,0.619,1.612,1.515s-0.627,1.499-1.612,1.499h-2.036V19.915z M11,18
				v11h2.176v-4.141h2.145c2.301,0,3.679-1.561,3.679-3.429c0-1.87-1.378-3.43-3.679-3.43H11z M20.546,21.282
				c0,0.911,0.259,1.611,0.779,2.126c0.488,0.472,1.175,0.761,2.107,0.896l1.313,0.184c0.504,0.075,0.748,0.182,0.962,0.379
				c0.228,0.213,0.335,0.532,0.335,0.912c0,0.865-0.672,1.337-1.924,1.337c-1.007,0-1.938-0.229-2.625-0.911l-1.374,1.367
				C21.187,28.651,22.439,29,24.088,29c2.275,0,4.031-1.185,4.031-3.282c0-0.957-0.26-1.747-0.84-2.294
				c-0.458-0.425-1.084-0.699-2.076-0.835l-1.283-0.183c-0.443-0.06-0.794-0.228-1.008-0.425c-0.228-0.213-0.32-0.501-0.32-0.775
				c0-0.745,0.55-1.368,1.68-1.368c0.717,0,1.542,0.092,2.229,0.745l1.342-1.322C26.913,18.365,25.828,18,24.332,18
				C21.981,18,20.546,19.352,20.546,21.282 M32.118,19.915h1.601c0.73,0,1.218,0.233,1.584,0.681
				c0.396,0.494,0.457,1.189,0.457,2.857c0,1.669-0.061,2.457-0.457,2.951c-0.366,0.448-0.854,0.68-1.584,0.68h-1.601V19.915z
				 M30,18v11h3.917c1.127,0,2.148-0.325,2.864-1.05c1.219-1.237,1.097-2.843,1.097-4.497c0-1.652,0.122-3.167-1.097-4.402
				C36.065,18.324,35.044,18,33.917,18H30z"/>
		</defs>
		<clipPath id="SVGID_28_">
			<use xlink:href="#SVGID_27_"  style="overflow:visible;"/>
		</clipPath>
		
			<linearGradient id="SVGID_29_" gradientUnits="userSpaceOnUse" x1="0" y1="48.0039" x2="1" y2="48.0039" gradientTransform="matrix(0 16.9333 16.9333 0 -788.3602 16.9063)">
			<stop  offset="0" style="stop-color:#FFFFFF"/>
			<stop  offset="0.0049" style="stop-color:#FFFFFF"/>
			<stop  offset="1" style="stop-color:#99D9E5"/>
		</linearGradient>
		<rect x="11" y="18" style="clip-path:url(#SVGID_28_);fill:url(#SVGID_29_);" width="27" height="11"/>
	</g>
</g>
</svg>
