<?xml version="1.0" encoding="iso-8859-1"?>
<!-- Generator: Adobe Illustrator 16.0.0, SVG Export Plug-In . SVG Version: 6.00 Build 0)  -->
<!DOCTYPE svg PUBLIC "-//W3C//DTD SVG 1.1//EN" "http://www.w3.org/Graphics/SVG/1.1/DTD/svg11.dtd">
<svg version="1.1" id="Layer_1" xmlns="http://www.w3.org/2000/svg" xmlns:xlink="http://www.w3.org/1999/xlink" x="0px" y="0px"
	 width="48px" height="48px" viewBox="0 0 48 48" style="enable-background:new 0 0 48 48;" xml:space="preserve">
<g>
	<defs>
		<rect id="SVGID_1_" width="48" height="48"/>
	</defs>
	<clipPath id="SVGID_2_">
		<use xlink:href="#SVGID_1_"  style="overflow:visible;"/>
	</clipPath>
	<g style="clip-path:url(#SVGID_2_);">
		<defs>
			<path id="SVGID_3_" d="M9,0C6.8,0,5,1.8,5,4v40c0,2.2,1.8,4,4,4h30c2.2,0,4-1.8,4-4V11c-2.922-2-8.687-7.938-10.889-11H9z"/>
		</defs>
		<clipPath id="SVGID_4_">
			<use xlink:href="#SVGID_3_"  style="overflow:visible;"/>
		</clipPath>
		
			<linearGradient id="SVGID_5_" gradientUnits="userSpaceOnUse" x1="0" y1="48" x2="1" y2="48" gradientTransform="matrix(0 46.759 46.759 0 -2220.4314 0.5)">
			<stop  offset="0" style="stop-color:#2F344A"/>
			<stop  offset="0.0147" style="stop-color:#2F344A"/>
			<stop  offset="0.9958" style="stop-color:#7F9375"/>
			<stop  offset="1" style="stop-color:#7F9375"/>
		</linearGradient>
		<rect x="5" style="clip-path:url(#SVGID_4_);fill:url(#SVGID_5_);" width="38" height="48"/>
	</g>
	<g style="clip-path:url(#SVGID_2_);">
		<defs>
			<rect id="SVGID_6_" width="48" height="48"/>
		</defs>
		<clipPath id="SVGID_7_">
			<use xlink:href="#SVGID_6_"  style="overflow:visible;"/>
		</clipPath>
		<g style="opacity:0.4;clip-path:url(#SVGID_7_);">
			<g>
				<defs>
					<rect id="SVGID_8_" x="33.281" y="2.39" width="9.719" height="17.25"/>
				</defs>
				<clipPath id="SVGID_9_">
					<use xlink:href="#SVGID_8_"  style="overflow:visible;"/>
				</clipPath>
				<g style="clip-path:url(#SVGID_9_);">
					<defs>
						<path id="SVGID_10_" d="M43,11c-2.274-1.557-6.265-5.495-8.963-8.61l-0.756,7.532L43,19.641V11z"/>
					</defs>
					<clipPath id="SVGID_11_">
						<use xlink:href="#SVGID_10_"  style="overflow:visible;"/>
					</clipPath>
					<defs>
						<filter id="Adobe_OpacityMaskFilter" filterUnits="userSpaceOnUse" x="33.281" y="2.39" width="9.719" height="17.251">
							<feColorMatrix  type="matrix" values="1 0 0 0 0  0 1 0 0 0  0 0 1 0 0  0 0 0 1 0"/>
						</filter>
					</defs>
					<mask maskUnits="userSpaceOnUse" x="33.281" y="2.39" width="9.719" height="17.251" id="SVGID_12_">
						<g style="filter:url(#Adobe_OpacityMaskFilter);">
							
								<linearGradient id="SVGID_13_" gradientUnits="userSpaceOnUse" x1="0" y1="48" x2="1" y2="48" gradientTransform="matrix(0 12.5056 12.5056 0 -562.1293 5.125)">
								<stop  offset="0" style="stop-color:#FFFFFF"/>
								<stop  offset="0.0125" style="stop-color:#FFFFFF"/>
								<stop  offset="1" style="stop-color:#000000"/>
							</linearGradient>
							<rect x="33.281" y="2.39" style="clip-path:url(#SVGID_11_);fill:url(#SVGID_13_);" width="9.719" height="17.251"/>
						</g>
					</mask>
					
						<linearGradient id="SVGID_14_" gradientUnits="userSpaceOnUse" x1="0" y1="48" x2="1" y2="48" gradientTransform="matrix(0 12.5056 12.5056 0 -562.1293 5.125)">
						<stop  offset="0" style="stop-color:#5A183B"/>
						<stop  offset="0.0125" style="stop-color:#5A183B"/>
						<stop  offset="1" style="stop-color:#A96284"/>
					</linearGradient>
					
						<rect x="33.281" y="2.39" style="clip-path:url(#SVGID_11_);mask:url(#SVGID_12_);fill:url(#SVGID_14_);" width="9.719" height="17.251"/>
				</g>
			</g>
		</g>
	</g>
	<g style="clip-path:url(#SVGID_2_);">
		<defs>
			<path id="SVGID_15_" d="M32.111,0L32,7c0,2.2,1.8,4,4,4h7L32.111,0z"/>
		</defs>
		<clipPath id="SVGID_16_">
			<use xlink:href="#SVGID_15_"  style="overflow:visible;"/>
		</clipPath>
		
			<linearGradient id="SVGID_17_" gradientUnits="userSpaceOnUse" x1="0" y1="48" x2="1" y2="48" gradientTransform="matrix(0 10.7156 10.7156 0 -476.8489 0.1172)">
			<stop  offset="0" style="stop-color:#2F344A"/>
			<stop  offset="0.0147" style="stop-color:#2F344A"/>
			<stop  offset="0.9958" style="stop-color:#7F9375"/>
			<stop  offset="1" style="stop-color:#7F9375"/>
		</linearGradient>
		<rect x="32" style="clip-path:url(#SVGID_16_);fill:url(#SVGID_17_);" width="11" height="11"/>
	</g>
	<g style="clip-path:url(#SVGID_2_);">
		<defs>
			<rect id="SVGID_18_" width="48" height="48"/>
		</defs>
		<clipPath id="SVGID_19_">
			<use xlink:href="#SVGID_18_"  style="overflow:visible;"/>
		</clipPath>
		<g style="opacity:0.4;clip-path:url(#SVGID_19_);">
			<g>
				<defs>
					<rect id="SVGID_20_" x="11.05" y="18" width="31.95" height="30"/>
				</defs>
				<clipPath id="SVGID_21_">
					<use xlink:href="#SVGID_20_"  style="overflow:visible;"/>
				</clipPath>
				<g style="clip-path:url(#SVGID_21_);">
					<defs>
						<path id="SVGID_22_" d="M29.888,19.961l-1.909-1.909l-4.729,0.823l-0.058,0.849l-1.11-1.109L20,19.892l2.975,2.975
							l-0.092,1.34l-5.446-5.447l-4.387-0.343l-0.241,2.406l-0.925-0.073l-0.834,8.309L29.992,48H39c2.2,0,4-1.8,4-4V25.043
							L35.957,18L29.888,19.961z"/>
					</defs>
					<clipPath id="SVGID_23_">
						<use xlink:href="#SVGID_22_"  style="overflow:visible;"/>
					</clipPath>
					<defs>
						<filter id="Adobe_OpacityMaskFilter_1_" filterUnits="userSpaceOnUse" x="11.05" y="18" width="31.95" height="30">
							<feColorMatrix  type="matrix" values="1 0 0 0 0  0 1 0 0 0  0 0 1 0 0  0 0 0 1 0"/>
						</filter>
					</defs>
					<mask maskUnits="userSpaceOnUse" x="11.05" y="18" width="31.95" height="30" id="SVGID_24_">
						<g style="filter:url(#Adobe_OpacityMaskFilter_1_);">
							
								<linearGradient id="SVGID_25_" gradientUnits="userSpaceOnUse" x1="0" y1="48" x2="1" y2="48" gradientTransform="matrix(0 29.2244 29.2244 0 -1375.7384 18.3125)">
								<stop  offset="0" style="stop-color:#FFFFFF"/>
								<stop  offset="0.0125" style="stop-color:#FFFFFF"/>
								<stop  offset="1" style="stop-color:#000000"/>
							</linearGradient>
							<rect x="11.05" y="18" style="clip-path:url(#SVGID_23_);fill:url(#SVGID_25_);" width="31.95" height="30"/>
						</g>
					</mask>
					
						<linearGradient id="SVGID_26_" gradientUnits="userSpaceOnUse" x1="0" y1="48" x2="1" y2="48" gradientTransform="matrix(0 29.2244 29.2244 0 -1375.7384 18.3125)">
						<stop  offset="0" style="stop-color:#5A183B"/>
						<stop  offset="0.0125" style="stop-color:#5A183B"/>
						<stop  offset="1" style="stop-color:#A96284"/>
					</linearGradient>
					
						<rect x="11.05" y="18" style="clip-path:url(#SVGID_23_);mask:url(#SVGID_24_);fill:url(#SVGID_26_);" width="31.95" height="30"/>
				</g>
			</g>
		</g>
	</g>
	<g style="clip-path:url(#SVGID_2_);">
		<defs>
			<path id="SVGID_27_" d="M13.064,19.915h1.944c0.905,0,1.499,0.603,1.499,1.453c0,0.85-0.594,1.452-1.499,1.452h-1.944V19.915z
				 M11,18v11h2.064v-4.387h1.484L16.61,29H19l-2.36-4.743c1.024-0.386,1.93-1.344,1.93-2.889c0-1.839-1.276-3.368-3.429-3.368H11z
				 M20,18v2h3v9h2v-9h3v-2H20z M29,18v11h2.074v-4.084h4.193V23h-4.193v-3.085H36V18H29z"/>
		</defs>
		<clipPath id="SVGID_28_">
			<use xlink:href="#SVGID_27_"  style="overflow:visible;"/>
		</clipPath>
		
			<linearGradient id="SVGID_29_" gradientUnits="userSpaceOnUse" x1="0" y1="48" x2="1" y2="48" gradientTransform="matrix(0 14.4522 14.4522 0 -670.2038 16.7031)">
			<stop  offset="0" style="stop-color:#FFFFFF"/>
			<stop  offset="0.0049" style="stop-color:#FFFFFF"/>
			<stop  offset="1" style="stop-color:#B8DFCA"/>
		</linearGradient>
		<rect x="11" y="18" style="clip-path:url(#SVGID_28_);fill:url(#SVGID_29_);" width="25" height="11"/>
	</g>
</g>
</svg>
