<?xml version="1.0" encoding="iso-8859-1"?>
<!-- Generator: Adobe Illustrator 16.0.0, SVG Export Plug-In . SVG Version: 6.00 Build 0)  -->
<!DOCTYPE svg PUBLIC "-//W3C//DTD SVG 1.1//EN" "http://www.w3.org/Graphics/SVG/1.1/DTD/svg11.dtd">
<svg version="1.1" id="Layer_1" xmlns="http://www.w3.org/2000/svg" xmlns:xlink="http://www.w3.org/1999/xlink" x="0px" y="0px"
	 width="48px" height="48px" viewBox="0 0 48 48" style="enable-background:new 0 0 48 48;" xml:space="preserve">
<g>
	<defs>
		<rect id="SVGID_1_" width="48" height="48"/>
	</defs>
	<clipPath id="SVGID_2_">
		<use xlink:href="#SVGID_1_"  style="overflow:visible;"/>
	</clipPath>
	<g style="clip-path:url(#SVGID_2_);">
		<defs>
			<path id="SVGID_3_" d="M9,0C6.8,0,5,1.8,5,4v40c0,2.2,1.8,4,4,4h30c2.2,0,4-1.8,4-4V11c-2.922-2-8.687-7.938-10.889-11H9z"/>
		</defs>
		<clipPath id="SVGID_4_">
			<use xlink:href="#SVGID_3_"  style="overflow:visible;"/>
		</clipPath>
		
			<linearGradient id="SVGID_5_" gradientUnits="userSpaceOnUse" x1="0" y1="48" x2="1" y2="48" gradientTransform="matrix(0 46.759 46.759 0 -2220.4314 0.5)">
			<stop  offset="0" style="stop-color:#356E2E"/>
			<stop  offset="0.0241" style="stop-color:#356E2E"/>
			<stop  offset="0.8723" style="stop-color:#779B31"/>
			<stop  offset="0.9905" style="stop-color:#81A231"/>
			<stop  offset="1" style="stop-color:#81A231"/>
		</linearGradient>
		<rect x="5" style="clip-path:url(#SVGID_4_);fill:url(#SVGID_5_);" width="38" height="48"/>
	</g>
	<g style="clip-path:url(#SVGID_2_);">
		<defs>
			<rect id="SVGID_6_" width="48" height="48"/>
		</defs>
		<clipPath id="SVGID_7_">
			<use xlink:href="#SVGID_6_"  style="overflow:visible;"/>
		</clipPath>
		<g style="opacity:0.8;clip-path:url(#SVGID_7_);">
			<g>
				<defs>
					<rect id="SVGID_8_" x="33.281" y="2.39" width="9.719" height="17.25"/>
				</defs>
				<clipPath id="SVGID_9_">
					<use xlink:href="#SVGID_8_"  style="overflow:visible;"/>
				</clipPath>
				<g style="clip-path:url(#SVGID_9_);">
					<defs>
						<path id="SVGID_10_" d="M43,11c-2.274-1.557-6.265-5.495-8.963-8.61l-0.756,7.532L43,19.641V11z"/>
					</defs>
					<clipPath id="SVGID_11_">
						<use xlink:href="#SVGID_10_"  style="overflow:visible;"/>
					</clipPath>
					<defs>
						<filter id="Adobe_OpacityMaskFilter" filterUnits="userSpaceOnUse" x="33.281" y="2.39" width="9.719" height="17.251">
							<feColorMatrix  type="matrix" values="1 0 0 0 0  0 1 0 0 0  0 0 1 0 0  0 0 0 1 0"/>
						</filter>
					</defs>
					<mask maskUnits="userSpaceOnUse" x="33.281" y="2.39" width="9.719" height="17.251" id="SVGID_12_">
						<g style="filter:url(#Adobe_OpacityMaskFilter);">
							
								<linearGradient id="SVGID_13_" gradientUnits="userSpaceOnUse" x1="0" y1="48" x2="1" y2="48" gradientTransform="matrix(0 12.5056 12.5056 0 -562.1293 5.125)">
								<stop  offset="0" style="stop-color:#FFFFFF"/>
								<stop  offset="0.9962" style="stop-color:#000000"/>
								<stop  offset="1" style="stop-color:#000000"/>
							</linearGradient>
							<rect x="33.281" y="2.39" style="clip-path:url(#SVGID_11_);fill:url(#SVGID_13_);" width="9.719" height="17.251"/>
						</g>
					</mask>
					
						<linearGradient id="SVGID_14_" gradientUnits="userSpaceOnUse" x1="0" y1="48" x2="1" y2="48" gradientTransform="matrix(0 12.5056 12.5056 0 -562.1293 5.125)">
						<stop  offset="0" style="stop-color:#919938"/>
						<stop  offset="0.9962" style="stop-color:#D6D21C"/>
						<stop  offset="1" style="stop-color:#D6D21C"/>
					</linearGradient>
					
						<rect x="33.281" y="2.39" style="clip-path:url(#SVGID_11_);mask:url(#SVGID_12_);fill:url(#SVGID_14_);" width="9.719" height="17.251"/>
				</g>
			</g>
		</g>
	</g>
	<g style="clip-path:url(#SVGID_2_);">
		<defs>
			<path id="SVGID_15_" d="M32.111,0L32,7c0,2.2,1.8,4,4,4h7L32.111,0z"/>
		</defs>
		<clipPath id="SVGID_16_">
			<use xlink:href="#SVGID_15_"  style="overflow:visible;"/>
		</clipPath>
		
			<linearGradient id="SVGID_17_" gradientUnits="userSpaceOnUse" x1="0" y1="48" x2="1" y2="48" gradientTransform="matrix(0 10.7156 10.7156 0 -476.8489 0.1172)">
			<stop  offset="0" style="stop-color:#356E2E"/>
			<stop  offset="0.0241" style="stop-color:#356E2E"/>
			<stop  offset="0.8723" style="stop-color:#779B31"/>
			<stop  offset="0.9905" style="stop-color:#81A231"/>
			<stop  offset="1" style="stop-color:#81A231"/>
		</linearGradient>
		<rect x="32" style="clip-path:url(#SVGID_16_);fill:url(#SVGID_17_);" width="11" height="11"/>
	</g>
	<g style="clip-path:url(#SVGID_2_);">
		<defs>
			<rect id="SVGID_18_" width="48" height="48"/>
		</defs>
		<clipPath id="SVGID_19_">
			<use xlink:href="#SVGID_18_"  style="overflow:visible;"/>
		</clipPath>
		<g style="opacity:0.8;clip-path:url(#SVGID_19_);">
			<g>
				<defs>
					<rect id="SVGID_20_" x="9" y="20" width="34" height="28"/>
				</defs>
				<clipPath id="SVGID_21_">
					<use xlink:href="#SVGID_20_"  style="overflow:visible;"/>
				</clipPath>
				<g style="clip-path:url(#SVGID_21_);">
					<defs>
						<path id="SVGID_22_" d="M37.828,20l-1.88,2.869L33.078,20l1.422,4.719l0.119,0.178l-0.345,0.526l-4.514-4.513l-3.463,0.347
							l-0.126-0.126l-0.06,0.144l-0.162,0.017l0.09,0.155l-1.207,2.893l3.275,3.275l-1.249,0.44L18.803,20l-1.332,1.668L15.803,20
							l-1.107,1.386L14.22,20.91l-0.641,1.657L11.011,20l1.034,4.531l0.289,0.289l-0.511,0.919L9,28.875L28.125,48H39
							c2.2,0,4-1.8,4-4V25.172L37.828,20z"/>
					</defs>
					<clipPath id="SVGID_23_">
						<use xlink:href="#SVGID_22_"  style="overflow:visible;"/>
					</clipPath>
					<defs>
						<filter id="Adobe_OpacityMaskFilter_1_" filterUnits="userSpaceOnUse" x="9" y="20" width="34" height="28">
							<feColorMatrix  type="matrix" values="1 0 0 0 0  0 1 0 0 0  0 0 1 0 0  0 0 0 1 0"/>
						</filter>
					</defs>
					<mask maskUnits="userSpaceOnUse" x="9" y="20" width="34" height="28" id="SVGID_24_">
						<g style="filter:url(#Adobe_OpacityMaskFilter_1_);">
							
								<linearGradient id="SVGID_25_" gradientUnits="userSpaceOnUse" x1="0" y1="48" x2="1" y2="48" gradientTransform="matrix(0 27.2761 27.2761 0 -1283.2515 20.2969)">
								<stop  offset="0" style="stop-color:#FFFFFF"/>
								<stop  offset="0.9962" style="stop-color:#000000"/>
								<stop  offset="1" style="stop-color:#000000"/>
							</linearGradient>
							<rect x="9" y="20" style="clip-path:url(#SVGID_23_);fill:url(#SVGID_25_);" width="34" height="28"/>
						</g>
					</mask>
					
						<linearGradient id="SVGID_26_" gradientUnits="userSpaceOnUse" x1="0" y1="48" x2="1" y2="48" gradientTransform="matrix(0 27.2761 27.2761 0 -1283.2516 20.2969)">
						<stop  offset="0" style="stop-color:#919938"/>
						<stop  offset="0.9962" style="stop-color:#D6D21C"/>
						<stop  offset="1" style="stop-color:#D6D21C"/>
					</linearGradient>
					<rect x="9" y="20" style="clip-path:url(#SVGID_23_);mask:url(#SVGID_24_);fill:url(#SVGID_26_);" width="34" height="28"/>
				</g>
			</g>
		</g>
	</g>
	<g style="clip-path:url(#SVGID_2_);">
		<defs>
			<path id="SVGID_27_" d="M13.97,20l-1.476,2.907L11.03,20H9.166l2.443,4.386L9,29h1.877l1.617-3.135L14.123,29H16l-2.621-4.614
				L15.823,20H13.97z M17,20v9h6v-1.568h-4.195V20H17z M24.321,22.685c0,0.746,0.193,1.317,0.584,1.74
				c0.366,0.386,0.882,0.622,1.579,0.734l0.985,0.148c0.377,0.063,0.562,0.149,0.722,0.312c0.172,0.173,0.252,0.434,0.252,0.746
				c0,0.708-0.504,1.093-1.443,1.093c-0.756,0-1.454-0.186-1.969-0.746L24,27.832C24.801,28.714,25.741,29,26.977,29
				C28.683,29,30,28.031,30,26.314c0-0.783-0.195-1.43-0.63-1.876c-0.343-0.349-0.813-0.572-1.557-0.685l-0.962-0.149
				c-0.333-0.05-0.596-0.187-0.756-0.348c-0.172-0.174-0.24-0.41-0.24-0.634c0-0.61,0.411-1.119,1.259-1.119
				c0.538,0,1.157,0.075,1.672,0.609l1.008-1.082C29.095,20.298,28.283,20,27.16,20C25.397,20,24.321,21.106,24.321,22.685
				 M35.969,20l-1.475,2.907L33.03,20h-1.865l2.444,4.386L31,29h1.877l1.617-3.135L36.123,29H38l-2.621-4.614L37.822,20H35.969z"/>
		</defs>
		<clipPath id="SVGID_28_">
			<use xlink:href="#SVGID_27_"  style="overflow:visible;"/>
		</clipPath>
		
			<linearGradient id="SVGID_29_" gradientUnits="userSpaceOnUse" x1="0" y1="48" x2="1" y2="48" gradientTransform="matrix(29 0 0 -29 9 1416.5)">
			<stop  offset="0" style="stop-color:#FFFFFF"/>
			<stop  offset="0.0049" style="stop-color:#FFFFFF"/>
			<stop  offset="1" style="stop-color:#E4EDB5"/>
		</linearGradient>
		<rect x="9" y="20" style="clip-path:url(#SVGID_28_);fill:url(#SVGID_29_);" width="29" height="9"/>
	</g>
</g>
</svg>
