<?xml version="1.0" encoding="iso-8859-1"?>
<!-- Generator: Adobe Illustrator 16.0.0, SVG Export Plug-In . SVG Version: 6.00 Build 0)  -->
<!DOCTYPE svg PUBLIC "-//W3C//DTD SVG 1.1//EN" "http://www.w3.org/Graphics/SVG/1.1/DTD/svg11.dtd">
<svg version="1.1" id="Layer_1" xmlns="http://www.w3.org/2000/svg" xmlns:xlink="http://www.w3.org/1999/xlink" x="0px" y="0px"
	 width="48px" height="48px" viewBox="0 0 48 48" style="enable-background:new 0 0 48 48;" xml:space="preserve">
<g>
	<defs>
		<rect id="SVGID_1_" width="48" height="48"/>
	</defs>
	<clipPath id="SVGID_2_">
		<use xlink:href="#SVGID_1_"  style="overflow:visible;"/>
	</clipPath>
	<g style="clip-path:url(#SVGID_2_);">
		<defs>
			<path id="SVGID_3_" d="M9,0C6.8,0,5,1.8,5,4v40c0,2.2,1.8,4,4,4h30c2.2,0,4-1.8,4-4V11c-2.922-2-8.687-7.938-10.889-11H9z"/>
		</defs>
		<clipPath id="SVGID_4_">
			<use xlink:href="#SVGID_3_"  style="overflow:visible;"/>
		</clipPath>
		
			<linearGradient id="SVGID_5_" gradientUnits="userSpaceOnUse" x1="0" y1="48" x2="1" y2="48" gradientTransform="matrix(0 46.759 46.759 0 -2220.4314 0.5)">
			<stop  offset="0" style="stop-color:#8E4F26"/>
			<stop  offset="0.0013" style="stop-color:#8E4F26"/>
			<stop  offset="1" style="stop-color:#CE8833"/>
		</linearGradient>
		<rect x="5" style="clip-path:url(#SVGID_4_);fill:url(#SVGID_5_);" width="38" height="48"/>
	</g>
	<g style="clip-path:url(#SVGID_2_);">
		<defs>
			<rect id="SVGID_6_" width="48" height="48"/>
		</defs>
		<clipPath id="SVGID_7_">
			<use xlink:href="#SVGID_6_"  style="overflow:visible;"/>
		</clipPath>
		<g style="opacity:0.4;clip-path:url(#SVGID_7_);">
			<g>
				<defs>
					<rect id="SVGID_8_" x="33.281" y="2.375" width="9.719" height="17.251"/>
				</defs>
				<clipPath id="SVGID_9_">
					<use xlink:href="#SVGID_8_"  style="overflow:visible;"/>
				</clipPath>
				<g style="clip-path:url(#SVGID_9_);">
					<defs>
						<path id="SVGID_10_" d="M43,10.985c-2.274-1.557-6.265-5.495-8.963-8.61l-0.756,7.532L43,19.625V10.985z"/>
					</defs>
					<clipPath id="SVGID_11_">
						<use xlink:href="#SVGID_10_"  style="overflow:visible;"/>
					</clipPath>
					
						<linearGradient id="SVGID_12_" gradientUnits="userSpaceOnUse" x1="0" y1="48" x2="1" y2="48" gradientTransform="matrix(0 16.8048 16.8048 0 -768.489 2.5625)">
						<stop  offset="0" style="stop-color:#8E4F26"/>
						<stop  offset="0.0013" style="stop-color:#8E4F26"/>
						<stop  offset="1" style="stop-color:#CE8833"/>
					</linearGradient>
					<rect x="33.281" y="2.375" style="clip-path:url(#SVGID_11_);fill:url(#SVGID_12_);" width="9.719" height="17.25"/>
				</g>
			</g>
		</g>
	</g>
	<g style="clip-path:url(#SVGID_2_);">
		<defs>
			<path id="SVGID_13_" d="M32,0v7c0,2.2,1.8,4,4,4h7L32,0z"/>
		</defs>
		<clipPath id="SVGID_14_">
			<use xlink:href="#SVGID_13_"  style="overflow:visible;"/>
		</clipPath>
		
			<linearGradient id="SVGID_15_" gradientUnits="userSpaceOnUse" x1="0" y1="48" x2="1" y2="48" gradientTransform="matrix(0 10.7156 10.7156 0 -476.8489 0.1172)">
			<stop  offset="0" style="stop-color:#8E4F26"/>
			<stop  offset="0.0013" style="stop-color:#8E4F26"/>
			<stop  offset="1" style="stop-color:#CE8833"/>
		</linearGradient>
		<rect x="32" style="clip-path:url(#SVGID_14_);fill:url(#SVGID_15_);" width="11" height="11"/>
	</g>
	<g style="clip-path:url(#SVGID_2_);">
		<defs>
			<rect id="SVGID_16_" width="48" height="48"/>
		</defs>
		<clipPath id="SVGID_17_">
			<use xlink:href="#SVGID_16_"  style="overflow:visible;"/>
		</clipPath>
		<g style="opacity:0.5;clip-path:url(#SVGID_17_);">
			<g>
				<defs>
					<rect id="SVGID_18_" x="12.068" y="19" width="30.932" height="29"/>
				</defs>
				<clipPath id="SVGID_19_">
					<use xlink:href="#SVGID_18_"  style="overflow:visible;"/>
				</clipPath>
				<g style="clip-path:url(#SVGID_19_);">
					<defs>
						<path id="SVGID_20_" d="M31.289,21.269L29.02,19l-2.436,3.231l-0.795,1.434L21.124,19l-1.343,1.781L18,19l-2.436,3.231
							l-0.071,0.128L12.134,19l-0.066,3.529l2.143,2.144l-0.941,1.699l0.775,0.776L13.025,30l18,18H39c2.2,0,4-1.8,4-4V29L33,19
							L31.289,21.269z"/>
					</defs>
					<clipPath id="SVGID_21_">
						<use xlink:href="#SVGID_20_"  style="overflow:visible;"/>
					</clipPath>
					
						<linearGradient id="SVGID_22_" gradientUnits="userSpaceOnUse" x1="0" y1="48" x2="1" y2="48" gradientTransform="matrix(0 28.2502 28.2502 0 -1328.4794 19.2969)">
						<stop  offset="0" style="stop-color:#8E4F26"/>
						<stop  offset="0.0013" style="stop-color:#8E4F26"/>
						<stop  offset="1" style="stop-color:#CE8833"/>
					</linearGradient>
					<rect x="12.068" y="19" style="clip-path:url(#SVGID_21_);fill:url(#SVGID_22_);" width="30.932" height="29"/>
				</g>
			</g>
		</g>
	</g>
	<g style="clip-path:url(#SVGID_2_);">
		<defs>
			<path id="SVGID_23_" d="M15.866,19l-1.852,4.434L12.135,19H10l3.025,6.489V30h1.95v-4.511L18,19H15.866z M26.876,19l-2.868,5.948
				L21.124,19H19v11h2.155v-6.412l2.124,4.172h1.458l2.108-4.172V30H29V19H26.876z M31,19v11h7v-2h-5v-9H31z"/>
		</defs>
		<clipPath id="SVGID_24_">
			<use xlink:href="#SVGID_23_"  style="overflow:visible;"/>
		</clipPath>
		
			<linearGradient id="SVGID_25_" gradientUnits="userSpaceOnUse" x1="0" y1="48" x2="1" y2="48" gradientTransform="matrix(0 12.3182 12.3182 0 -567.274 19.5)">
			<stop  offset="0" style="stop-color:#FFFFFF"/>
			<stop  offset="0.0049" style="stop-color:#FFFFFF"/>
			<stop  offset="1" style="stop-color:#F0D8A8"/>
		</linearGradient>
		<rect x="10" y="19" style="clip-path:url(#SVGID_24_);fill:url(#SVGID_25_);" width="28" height="11"/>
	</g>
</g>
</svg>
