<?xml version="1.0" encoding="utf-8"?>
<!-- Generator: Adobe Illustrator 16.0.0, SVG Export Plug-In . SVG Version: 6.00 Build 0)  -->
<!DOCTYPE svg PUBLIC "-//W3C//DTD SVG 1.1//EN" "http://www.w3.org/Graphics/SVG/1.1/DTD/svg11.dtd">
<svg version="1.1" id="Layer_1" xmlns="http://www.w3.org/2000/svg" xmlns:xlink="http://www.w3.org/1999/xlink" x="0px" y="0px"
	 width="223px" height="97px" viewBox="0 0 223 97" enable-background="new 0 0 223 97" xml:space="preserve">
<g>
	<rect y="26" fill="#ECD078" width="116" height="71"/>
	<g>
		<path fill="#542437" d="M9.944,83.801c0-12.942,7.436-23.437,20.375-23.437c12.942,0,20.378,10.495,20.378,23.437"/>
		<path fill="#542437" d="M38.465,49.667c0,4.809-3.896,8.708-8.704,8.708c-4.806,0-8.705-3.899-8.705-8.708
			c0-4.806,3.899-8.705,8.705-8.705C34.57,40.962,38.465,44.861,38.465,49.667z"/>
	</g>
	<rect x="58" y="43" fill="#542437" width="47" height="3"/>
	<rect x="58" y="49" fill="#542437" width="47" height="4"/>
	<rect x="58" y="56" fill="#542437" width="47" height="4"/>
	<rect x="58" y="63" fill="#542437" width="47" height="3"/>
	<rect x="58" y="70" fill="#542437" width="17" height="3"/>
</g>
</svg>
