<?xml version="1.0" encoding="utf-8"?>
<!-- Generator: Adobe Illustrator 16.0.0, SVG Export Plug-In . SVG Version: 6.00 Build 0)  -->
<!DOCTYPE svg PUBLIC "-//W3C//DTD SVG 1.1//EN" "http://www.w3.org/Graphics/SVG/1.1/DTD/svg11.dtd">
<svg version="1.1" id="Layer_1" xmlns="http://www.w3.org/2000/svg" xmlns:xlink="http://www.w3.org/1999/xlink" x="0px" y="0px"
	 width="223px" height="97px" viewBox="0 0 223 97" enable-background="new 0 0 223 97" xml:space="preserve">
<g>
	<path fill="#ECD078" d="M58.893,21.531v6.7c0,2.111,1.71,3.819,3.819,3.819h6.707L58.893,21.531z"/>
	<path fill="#ECD078" d="M69.392,56.272V34.704h-9.549c-2.11,0-3.817-1.71-3.817-3.821v-9.352H29.35
		c-2.108,0-3.817,1.708-3.817,3.814v30.927H69.392z M37.358,39.16H56.66c0.879,0,1.59,0.711,1.59,1.587
		c0,0.879-0.711,1.592-1.59,1.592H37.358c-0.879,0-1.593-0.713-1.593-1.592C35.766,39.871,36.479,39.16,37.358,39.16z
		 M37.358,46.156H56.66c0.879,0,1.59,0.71,1.59,1.592c0,0.879-0.711,1.59-1.59,1.59H37.358c-0.879,0-1.593-0.711-1.593-1.59
		C35.766,46.867,36.479,46.156,37.358,46.156z"/>
	<path fill="#ECD078" d="M85.268,59.232H69.392v-0.264H25.532v0.264H10.66C4.772,59.232,0,64.004,0,69.895V86.34
		C0,92.229,4.772,97,10.66,97h74.607c5.89,0,10.661-4.771,10.661-10.66V69.895C95.929,64.004,91.157,59.232,85.268,59.232z
		 M69.907,81.707c0,2.365-3.477,4.287-7.747,4.287H33.764c-4.265,0-7.741-1.922-7.741-4.287v-3.143c0-0.477,0.693-0.859,1.547-0.859
		h6.118c0.856,0,1.55,0.383,1.55,0.859v0.785c0,0.85,1.252,1.543,2.79,1.543h19.872c1.541,0,2.79-0.693,2.79-1.543v-0.785
		c0-0.477,0.696-0.859,1.549-0.859h6.119c0.856,0,1.55,0.383,1.55,0.859V81.707z M86.467,92.389c-1.967,0-3.558-1.595-3.558-3.558
		c0-1.679,1.165-3.089,2.729-3.458v1.551c0,0.458,0.373,0.826,0.829,0.826c0.452,0,0.819-0.368,0.819-0.826v-1.551
		c1.568,0.369,2.733,1.779,2.733,3.458C90.02,90.794,88.427,92.389,86.467,92.389z"/>
</g>
</svg>
