<?xml version="1.0" encoding="utf-8"?>
<!-- Generator: Adobe Illustrator 16.0.0, SVG Export Plug-In . SVG Version: 6.00 Build 0)  -->
<!DOCTYPE svg PUBLIC "-//W3C//DTD SVG 1.1//EN" "http://www.w3.org/Graphics/SVG/1.1/DTD/svg11.dtd">
<svg version="1.1" id="Layer_1" xmlns="http://www.w3.org/2000/svg" xmlns:xlink="http://www.w3.org/1999/xlink" x="0px" y="0px"
	 width="223px" height="97px" viewBox="0 0 223 97" enable-background="new 0 0 223 97" xml:space="preserve">
<g>
	<g>
		<path fill="#ECD078" d="M17,51c0-1.104-0.896-2-2-2H2c-1.104,0-2,0.896-2,2v44c0,1.104,0.896,2,2,2h13c1.104,0,2-0.896,2-2V51z"/>
	</g>
	<g>
		<path fill="#ECD078" d="M36,17c0-1.104-0.896-2-2-2H21c-1.104,0-2,0.896-2,2v78c0,1.104,0.896,2,2,2h13c1.104,0,2-0.896,2-2V17z"
			/>
	</g>
	<g>
		<path fill="#ECD078" d="M55,27c0-1.104-0.896-2-2-2H40c-1.104,0-2,0.896-2,2v68c0,1.104,0.896,2,2,2h13c1.104,0,2-0.896,2-2V27z"
			/>
	</g>
	<g>
		<path fill="#ECD078" d="M74,75c0-1.104-0.896-2-2-2H59c-1.104,0-2,0.896-2,2v20c0,1.104,0.896,2,2,2h13c1.104,0,2-0.896,2-2V75z"
			/>
	</g>
</g>
</svg>
