<?xml version="1.0" encoding="utf-8"?>
<!-- Generator: Adobe Illustrator 16.0.0, SVG Export Plug-In . SVG Version: 6.00 Build 0)  -->
<!DOCTYPE svg PUBLIC "-//W3C//DTD SVG 1.1//EN" "http://www.w3.org/Graphics/SVG/1.1/DTD/svg11.dtd">
<svg version="1.1" id="Layer_1" xmlns="http://www.w3.org/2000/svg" xmlns:xlink="http://www.w3.org/1999/xlink" x="0px" y="0px"
	 width="223px" height="97px" viewBox="0 0 223 97" enable-background="new 0 0 223 97" xml:space="preserve">
<g>
	<path fill="#ECD078" d="M0.937,21.658c0,0.622-0.39,1.141-0.937,1.351v0.195c0.547,0.208,0.937,0.729,0.937,1.348
		c0,0.621-0.39,1.14-0.937,1.35v0.195c0.547,0.208,0.937,0.728,0.937,1.348c0,0.621-0.39,1.14-0.937,1.348v0.195
		c0.547,0.209,0.937,0.728,0.937,1.349S0.547,31.476,0,31.684v0.196c0.547,0.208,0.937,0.728,0.937,1.348
		c0,0.62-0.39,1.14-0.937,1.348v0.196c0.547,0.209,0.937,0.728,0.937,1.349c0,0.619-0.39,1.139-0.937,1.347v0.196
		c0.547,0.209,0.937,0.727,0.937,1.349c0,0.62-0.389,1.147-0.937,1.357c0,0.351,0,0.548,0,0.548
		c5.515,0.752,9.859,8.676,9.859,18.358S5.515,76.879,0,77.635v0.515c0.548,0.21,0.937,0.736,0.937,1.358
		c0,0.619-0.39,1.141-0.937,1.348v0.193c0.547,0.211,0.937,0.729,0.937,1.352c0,0.619-0.39,1.141-0.937,1.348v0.193
		c0.547,0.211,0.937,0.729,0.937,1.352c0,0.619-0.39,1.141-0.937,1.348v0.193c0.547,0.211,0.937,0.729,0.937,1.352
		c0,0.619-0.39,1.141-0.937,1.347v0.194c0.547,0.211,0.937,0.729,0.937,1.352c0,0.618-0.39,1.141-0.937,1.347v0.194
		c0.547,0.21,0.937,0.729,0.937,1.351c0,0.619-0.39,1.141-0.937,1.347v0.195c0.547,0.21,0.937,0.728,0.937,1.351
		c0,0.048-0.008,0.089-0.011,0.138h128.919c-0.004-0.049-0.012-0.09-0.012-0.138c0-0.765,0.587-1.379,1.335-1.444v-0.004
		c-0.748-0.061-1.335-0.68-1.335-1.444s0.587-1.38,1.335-1.444v-0.004c-0.748-0.064-1.335-0.68-1.335-1.443
		c0-0.765,0.587-1.385,1.335-1.444v-0.005c-0.748-0.064-1.335-0.68-1.335-1.443c0-0.765,0.587-1.385,1.335-1.444v-0.005
		c-0.748-0.063-1.335-0.684-1.335-1.443c0-0.765,0.587-1.38,1.335-1.443v-0.005c-0.748-0.064-1.335-0.685-1.335-1.444
		c0-0.769,0.587-1.379,1.335-1.443v-0.005c-0.748-0.064-1.335-0.684-1.335-1.444c0-0.764,0.587-1.383,1.335-1.447v-0.426
		c-5.516-0.756-9.859-8.676-9.859-18.357s4.344-17.605,9.859-18.358v-0.46c-0.748-0.064-1.335-0.683-1.335-1.445
		c0-0.764,0.587-1.381,1.335-1.444v-0.004c-0.748-0.064-1.335-0.682-1.335-1.444c0-0.764,0.587-1.381,1.335-1.445v-0.004
		c-0.748-0.063-1.335-0.681-1.335-1.444s0.587-1.38,1.335-1.444V31.78c-0.748-0.063-1.335-0.68-1.335-1.444
		c0-0.763,0.587-1.38,1.335-1.444v-0.002c-0.748-0.064-1.335-0.682-1.335-1.445s0.587-1.382,1.335-1.444v-0.004
		c-0.748-0.063-1.335-0.68-1.335-1.444c0-0.763,0.587-1.381,1.335-1.445v-0.004c-0.748-0.061-1.335-0.68-1.335-1.444
		c0-0.032,0.008-0.063,0.008-0.097c-5.351,0.013-10.712,0.096-16.062,0.009c-0.861-0.013-1.702,0.088-2.795,0.088
		c-1.424,0-0.862,1.028-0.881,2.245l-0.396,0.177c0,0,0.527,0.132,0.485,0.397c-0.043,0.264-0.134,0.794-0.266,0.838
		c-0.129,0.043,0,0.308-0.086,0.44c-0.092,0.132,0.042,0.707,0.042,0.707s0.31,0.265,0.176,0.618
		c-0.132,0.352-0.084,0.793,0.134,0.706c0,0,0,0.309-0.31,0.44c-0.31,0.132-1.057,0.31-1.323,0.265c0,0-0.218,0.354-0.394,0.266
		c0,0-0.134,0.264-0.31,0.485c-0.176,0.22-0.398,0.442-0.398,0.618c0,0.177-0.396,0.308-0.53,0.22c0,0,0.091,0.354-0.042,0.574
		c-0.134,0.22-1.014,0.308-1.014,0.308s-0.223,0.707-0.223,0.838c0,0.133-0.221,0.662-0.529,0.75s-0.838,0.265-1.014,0.484
		c-0.177,0.221-0.704,0.354-0.837,0.397c-0.139,0.045-0.223,0.352-0.49,0.442c-0.063,0.022-0.198,0.051-0.372,0.081l-0.277,1.587
		c0,0,0.544,1.311,0.435,2.295c-0.063,0.585-0.325,1.64-0.325,1.64l-0.548,2.841l0.11-1.53c0,0,0.043-0.667,0.098-1.332
		c0.038-0.411,0.079-0.822,0.122-1.072c0.108-0.656,0.108-1.641-0.33-2.078c-0.437-0.438-0.763-2.345-0.763-2.345
		c-0.176-0.22-0.089-1.456,0.268-1.719c0,0,0.042-1.808,0.569-2.074l0.047-0.484c0,0-0.532-0.662-0.49-1.06
		c0.05-0.397-0.302-1.014-0.482-1.235c-0.177-0.222,0.131-0.44,0.131-0.44s-0.218-0.575-0.176-0.75
		c0.045-0.177-0.394-0.177-0.485-0.442c-0.085-0.266,0.048-0.707-0.131-1.147s-0.836-0.661-1.544-0.618
		c-0.022-0.587,0.153-1.311-0.222-1.785c-0.623-0.786-2.862-0.595-3.734-0.605c-2.963-0.043-5.922-0.047-8.884-0.046
		c-8.016,0.002-16.035,0.005-24.054,0.003c-9.089-0.001-18.18-0.001-27.268-0.001c-7.82,0.001-15.638,0.001-23.459,0
		c-3.362,0-6.726,0-10.087,0C0.931,21.591,0.937,21.625,0.937,21.658z"/>
	<g>
		<path fill="#542437" d="M48.125,81.098h-1.21l-0.614-1.031h-2.332l-0.623,1.031h-1.181l2.625-4.352h0.686L48.125,81.098z
			 M45.785,79.236l-0.654-1.071l-0.654,1.071H45.785z"/>
		<path fill="#542437" d="M53.499,78.938c0,0.736-0.294,1.295-0.884,1.676c-0.502,0.323-1.14,0.484-1.91,0.484H48.39v-4.352h2.315
			c0.742,0,1.378,0.173,1.902,0.525C53.201,77.668,53.499,78.226,53.499,78.938z M52.369,78.93c0-0.434-0.177-0.765-0.529-0.995
			c-0.301-0.206-0.677-0.308-1.126-0.308h-1.216v2.589h1.216c0.469,0,0.848-0.093,1.14-0.282
			C52.196,79.702,52.369,79.371,52.369,78.93z"/>
		<path fill="#542437" d="M59.874,81.098h-1.106v-2.584l-1.644,2.029l-1.688-2.029v2.584h-1.101v-4.352h0.893l1.871,2.272
			l1.883-2.272h0.892V81.098z"/>
		<path fill="#542437" d="M62.301,81.098h-1.117v-4.36h1.117V81.098z"/>
		<path fill="#542437" d="M67.895,77.611H65.86v3.486h-1.109v-3.486h-2.03v-0.865h5.174V77.611z"/>
		<path fill="#542437" d="M76.434,78.93c0,0.757-0.348,1.343-1.041,1.768c-0.595,0.355-1.291,0.534-2.09,0.534
			c-0.779,0-1.467-0.187-2.063-0.554c-0.7-0.434-1.048-1.012-1.048-1.748c0-0.74,0.345-1.322,1.037-1.744
			c0.592-0.355,1.279-0.533,2.074-0.533c0.812,0,1.506,0.17,2.09,0.514C76.086,77.582,76.434,78.169,76.434,78.93z M75.312,78.93
			c0-0.469-0.225-0.833-0.682-1.092c-0.377-0.211-0.817-0.316-1.327-0.316c-0.502,0-0.939,0.105-1.307,0.316
			c-0.451,0.259-0.674,0.623-0.674,1.092c0,0.47,0.223,0.833,0.674,1.092c0.367,0.211,0.805,0.316,1.307,0.316
			c0.51,0,0.95-0.105,1.327-0.316C75.087,79.768,75.312,79.407,75.312,78.93z"/>
		<path fill="#542437" d="M81.858,81.098h-0.653L78.41,78.5v2.598h-1.088v-4.352h0.652l2.795,2.608v-2.608h1.089V81.098z"/>
		<path fill="#542437" d="M88.23,81.098h-5.074v-4.352h4.867v0.893h-3.767v0.717h2.466v0.881h-2.466v0.979h3.974V81.098z"/>
	</g>
	<g>
		<path fill="#542437" d="M66.881,69.642l0.967,2.985l-0.105,0.081l-2.527-1.856l-2.553,1.856l-0.109-0.081l0.967-2.985
			l-2.529-1.829l0.026-0.131h3.147l0.968-2.984h0.137l0.967,2.984h3.115l0.054,0.131L66.881,69.642z M65.132,65.2l-0.862,2.608
			h-2.768l3.63,1.182V65.2z M63.707,69.584l-0.861,2.635l2.235-3.093L63.707,69.584z M66.128,67.809l-0.859,1.182l3.627-1.182
			H66.128z M66.693,69.584l-1.374-0.458l2.234,3.093L66.693,69.584z"/>
	</g>
	<path fill="#542437" d="M21.716,90.6h87.15c2.791,0,5.062-2.273,5.062-5.064V34.111c0-2.79-2.271-5.06-5.062-5.06h-0.875
		c-0.041,0.063-0.088,0.127-0.134,0.189c-0.176,0.22-0.398,0.442-0.398,0.618c0,0.177-0.396,0.308-0.53,0.22
		c0,0,0.009,0.039,0.017,0.096h1.921c2.168,0,3.935,1.767,3.935,3.936v51.424c0,2.173-1.767,3.937-3.935,3.937H98.805V30.175h2.95
		c0.004-0.002,0.009-0.005,0.012-0.008l0.047-0.484c0,0-0.247-0.309-0.386-0.631H21.716c-2.792,0-5.061,2.27-5.061,5.06v51.424
		C16.655,88.326,18.924,90.6,21.716,90.6z M32.899,30.175h64.782v59.296H32.899V30.175z M17.778,34.111
		c0-2.169,1.766-3.936,3.938-3.936h10.058v59.296H21.716c-2.172,0-3.938-1.764-3.938-3.937V34.111z"/>
	<path fill-rule="evenodd" clip-rule="evenodd" fill="#F3ECD3" d="M97.431,22.588c-0.109,0.163-0.273,0.328-0.218,0.491
		c0.054,0.165,0.326,0.384,0.602,0.438c0.27,0.054,0.6,0.49,0.6,0.49l-0.165,0.439l0.492,0.327l0.221,0.547l-1.261,0.546h0.985
		l0.603-0.054L99.18,26.25c0,0-0.273,0.219-0.059,0.329c0.223,0.109,0.713,0.381,0.713,0.601c0,0.22,0,0.494,0,0.494
		s-0.055,0.436-0.105,0.654c-0.059,0.219,0.214,0.655,0.214,0.655l0.601,0.438c0,0,0.277,0.273,0.277,0.546c0,0.274,0,0.492,0,0.492
		s-0.055,0,0.051,0.219c0.108,0.219,0.108,0.602,0.108,0.602s0,0.055-0.214,0.381c-0.223,0.328-0.223,0.328-0.223,0.328
		s-0.271,0.384-0.057,0.767c0.225,0.383,0.115,1.092,0.115,1.366c0,0.274-0.384,0.383-0.165,0.656
		c0.221,0.273,0.599,0.546,0.599,0.546s0.438,0.546,0.438,0.82c0,0.273,0.056,0.71,0.056,0.71s-0.108,0.492,0.055,0.602
		c0.164,0.11,0.22,0.437,0.22,0.602c0,0.163,0.16,0.546,0.056,0.874c-0.111,0.329-0.221,0.547-0.166,0.82s0.11,0.491,0.11,0.491
		l-0.056,1.148l0.02-0.099l0.036-0.501c0,0,0.043-0.667,0.098-1.332c0.038-0.411,0.079-0.822,0.122-1.072
		c0.108-0.656,0.108-1.641-0.33-2.078c-0.437-0.438-0.763-2.345-0.763-2.345c-0.176-0.22-0.089-1.456,0.268-1.719
		c0,0,0.042-1.808,0.569-2.074l0.047-0.484c0,0-0.532-0.662-0.49-1.06c0.05-0.397-0.302-1.014-0.482-1.235
		c-0.177-0.222,0.131-0.44,0.131-0.44s-0.218-0.575-0.176-0.75c0.045-0.177-0.394-0.177-0.485-0.442
		c-0.085-0.266,0.048-0.707-0.131-1.147s-0.836-0.661-1.544-0.618c-0.022-0.587,0.153-1.311-0.222-1.785
		c-0.317-0.401-1.054-0.547-1.817-0.596L96.5,21.933l0.383,0.383C96.883,22.315,97.539,22.424,97.431,22.588z"/>
	<path fill-rule="evenodd" clip-rule="evenodd" fill="#F3ECD3" d="M106.929,30.079c0,0,0.091,0.354-0.042,0.574
		c-0.134,0.22-1.014,0.308-1.014,0.308s-0.223,0.707-0.223,0.838c0,0.133-0.221,0.662-0.529,0.75s-0.838,0.265-1.014,0.484
		c-0.177,0.221-0.704,0.354-0.837,0.397c-0.139,0.045-0.223,0.352-0.49,0.442c-0.063,0.022-0.198,0.051-0.372,0.081l-0.277,1.587
		c0,0,0.544,1.311,0.435,2.295c-0.063,0.585-0.325,1.64-0.325,1.64l-0.367,1.898l-0.07,0.561l0.328-0.929l0.164-0.93l0.162-0.489
		c0,0,0.218-0.167,0.272-0.329c0.056-0.165-0.055-0.547-0.055-0.547s0.164-0.601,0.219-0.874c0.058-0.273,0.111-0.82,0.058-1.094
		c-0.058-0.272-0.166-0.491-0.166-0.491l0.273-0.437l-0.107-0.547c0,0-0.058-0.437,0-0.71c0.054-0.273,0.602-0.164,0.82-0.219
		c0.215-0.054,0.817-0.436,0.817-0.436s0.275-0.382,0.22-0.657c-0.055-0.272,0.927-0.381,1.091-0.765
		c0.166-0.383,0.769-0.383,1.038-0.383l1.535-0.491l0.268-0.22c0,0,0,0,0.056-0.383c0.055-0.382,0.274-0.108,0.274-0.108
		s0,0,0.164-0.055c0.164-0.054,0.329,0.055,0.494,0c0.163-0.054,0.272-0.164,0.219-0.327c-0.056-0.164-0.439-0.273-0.494-0.438
		c-0.055-0.164,0.221-0.382,0.548-0.437c0.33-0.055,0.71,0.054,1.093-0.164c0.384-0.219,0.489-0.766,0.434-1.039
		c-0.05-0.272-0.488-0.929-0.488-0.929s-0.328-0.71-0.385-0.928c-0.055-0.22,0-0.329,0.275-0.548
		c0.272-0.217-0.219-0.874-0.219-0.874s-0.057-0.491-0.166-0.765c-0.108-0.273,0.166-0.711,0.33-0.928
		c0.164-0.219,0.327-0.384,0.269-0.765c-0.05-0.383-0.269-0.493-0.269-0.493s-0.032-0.237,0.055-0.54
		c-1.343,0.029-0.808,1.04-0.826,2.237l-0.396,0.177c0,0,0.527,0.132,0.485,0.397c-0.043,0.264-0.134,0.794-0.266,0.838
		c-0.129,0.043,0,0.308-0.086,0.44c-0.092,0.132,0.042,0.707,0.042,0.707s0.31,0.265,0.176,0.618
		c-0.132,0.352-0.084,0.793,0.134,0.706c0,0,0,0.309-0.31,0.44c-0.31,0.132-1.057,0.31-1.323,0.265c0,0-0.218,0.354-0.394,0.266
		c0,0-0.134,0.264-0.31,0.485c-0.176,0.22-0.398,0.442-0.398,0.618C107.459,30.036,107.063,30.167,106.929,30.079z"/>
	<g>
		<path fill="#542437" d="M46.125,44.877v16.299h-3.953V44.877h-2.431v-3.951h8.814v3.951H46.125z M39.898,41.085v3.508l2.046-1.85
			h4.338l1.991-1.659H39.898z M43.988,43.106l-1.655,1.63V60.9l1.655-1.659V43.106z"/>
		<path fill="#542437" d="M49.222,61.176v-20.25h3.949v20.25H49.222z M49.377,41.063L49.385,60.9l1.653-1.659V42.86l1.913-1.795
			L49.377,41.063z"/>
		<path fill="#542437" d="M60.079,60.389c-1.238-0.523-2.318-1.244-3.249-2.156c-0.928-0.911-1.661-1.983-2.196-3.219
			c-0.532-1.233-0.797-2.55-0.797-3.951c0-1.398,0.265-2.716,0.797-3.951c0.535-1.235,1.269-2.309,2.196-3.219
			c0.931-0.912,2.011-1.631,3.249-2.157c1.231-0.524,2.552-0.788,3.948-0.788V44.9c-0.864,0-1.675,0.162-2.43,0.483
			c-0.757,0.322-1.414,0.76-1.976,1.312c-0.565,0.553-1.009,1.203-1.34,1.949c-0.333,0.747-0.497,1.552-0.497,2.418
			s0.164,1.672,0.497,2.418c0.331,0.747,0.783,1.397,1.354,1.948c0.572,0.553,1.234,0.991,1.988,1.313
			c0.756,0.322,1.553,0.483,2.403,0.483v3.95C62.631,61.176,61.311,60.912,60.079,60.389z M59.934,41.965
			c-1.182,0.535-2.212,1.253-3.095,2.155c-0.887,0.902-1.578,1.947-2.088,3.136c-0.504,1.186-0.759,2.453-0.759,3.798
			c0,0.367,0.028,0.773,0.083,1.215c0.056,0.441,0.14,0.885,0.251,1.326c0.109,0.442,0.243,0.869,0.398,1.284
			c0.156,0.415,0.345,0.77,0.566,1.063c0.091,0.13,0.188,0.24,0.292,0.333c0.1,0.091,0.233,0.137,0.401,0.137
			c0.256,0,0.462-0.091,0.619-0.275c0.156-0.185,0.235-0.396,0.235-0.635c0-0.093-0.017-0.166-0.04-0.223
			c-0.027-0.055-0.063-0.118-0.098-0.192c-0.332-0.664-0.591-1.313-0.775-1.947c-0.184-0.637-0.274-1.332-0.274-2.086
			c0-0.959,0.162-1.879,0.481-2.764c0.321-0.883,0.769-1.685,1.343-2.404c0.568-0.717,1.247-1.326,2.042-1.823
			c0.791-0.497,1.661-0.857,2.596-1.078l1.604-1.879C62.372,41.145,61.112,41.431,59.934,41.965z M61.968,57.066
			c-0.579-0.193-1.114-0.463-1.6-0.813c-0.489-0.35-0.927-0.76-1.315-1.228c-0.388-0.47-0.699-0.989-0.938-1.561
			c-0.057,0.204-0.173,0.38-0.357,0.526c-0.182,0.146-0.387,0.221-0.604,0.221c-0.226,0-0.427-0.064-0.611-0.193
			c0.481,1.193,1.205,2.211,2.182,3.049c0.976,0.837,2.092,1.414,3.345,1.726l1.686-1.409
			C63.143,57.367,62.553,57.261,61.968,57.066z"/>
		<path fill="#542437" d="M73,51.465c-0.258,0.766-0.632,1.535-1.129,2.308c0.313,0.294,0.556,0.694,0.731,1.201
			c0.177,0.507,0.261,0.972,0.261,1.395v4.808h-3.947v-4.779l-0.273,0.139v4.641h-3.951v-20.25h3.951l0.008,10.582
			c0.253-0.405,0.445-0.82,0.583-1.244c0.137-0.422,0.201-0.875,0.201-1.353l0.024-7.985h3.927v7.985
			C73.386,49.851,73.26,50.701,73,51.465z M64.83,41.085V60.9l1.654-1.659V42.942l1.879-1.85L64.83,41.085z M69.598,41.085
			l0.021,7.823c0,0.517-0.084,1.023-0.249,1.52c-0.095,0.313-0.204,0.553-0.333,0.719c-0.13,0.166-0.27,0.379-0.415,0.636
			l-1.721,3.151c0.147-0.056,0.335-0.143,0.562-0.264c0.231-0.119,0.47-0.257,0.721-0.413c0.246-0.158,0.481-0.31,0.701-0.456
			c0.219-0.148,0.387-0.277,0.496-0.389c0.589-0.589,1.046-1.273,1.373-2.056c0.334-0.783,0.498-1.599,0.498-2.445v-5.94
			l1.858-1.878L69.598,41.085z M70.707,56.893c0-0.256-0.059-0.486-0.18-0.689s-0.336-0.305-0.649-0.305
			c-0.293,0-0.506,0.102-0.633,0.305c-0.13,0.203-0.192,0.434-0.192,0.689V60.9l1.654-1.659V56.893z M71.787,54.131
			c-0.331-0.33-0.734-0.497-1.215-0.497c-0.607,0-1.104,0.249-1.493,0.746c0.482,0.038,0.904,0.227,1.272,0.566
			c0.368,0.341,0.586,0.751,0.661,1.229l1.491-0.911C72.36,54.842,72.121,54.463,71.787,54.131z"/>
		<path fill="#542437" d="M74.059,61.176v-20.25h7.126v3.951h-3.178v8.127h2.274v3.949h-2.274v0.272h3.178v3.95H74.059z
			 M74.219,41.085L74.223,60.9l1.65-1.659v-16.5h3.289l1.658-1.657H74.219z M77.979,53.162l-1.656,1.657h2.099l1.66-1.657H77.979z
			 M77.979,57.385l-1.656,1.658h2.982l1.66-1.658H77.979z"/>
		<path fill="#542437" d="M88.23,44.877v16.299h-3.949V44.877h-2.431v-3.951h8.806v3.951H88.23z M82.01,41.085l0.004,3.508
			l2.042-1.851h4.333l1.989-1.657H82.01z M86.098,43.106l-1.66,1.63V60.9l1.66-1.659V43.106z"/>
	</g>
	<g>
		<path fill="#542437" d="M27.006,40.431l-4.515-3.777V35.5l3.737,3.101l-0.001-3.753h0.778V40.431z"/>
		<path fill="#542437" d="M22.491,46.124v-4.819c0.085,0.005,0.195,0.003,0.331-0.008c0.158-0.013,0.268-0.019,0.33-0.019
			c0.52,0,0.918,0.147,1.194,0.434c0.227,0.23,0.419,0.617,0.577,1.16c0.107,0.378,0.214,0.756,0.321,1.136
			c0.227,0.676,0.407,1.015,0.544,1.015c0.189,0,0.337-0.143,0.439-0.433c0.067-0.203,0.101-0.425,0.101-0.667
			c0-0.548-0.237-1.243-0.712-2.085l0.627-0.56c0.568,0.838,0.854,1.698,0.854,2.584c0,0.521-0.091,0.98-0.273,1.382
			c-0.236,0.519-0.587,0.779-1.052,0.779c-0.345,0-0.642-0.255-0.891-0.762c-0.125-0.261-0.3-0.777-0.526-1.55
			c-0.194-0.65-0.36-1.058-0.501-1.229c-0.125-0.147-0.323-0.22-0.595-0.22v3.862H22.491z"/>
		<path fill="#542437" d="M24.711,52.777c-0.757,0-1.35-0.333-1.778-1c-0.37-0.576-0.559-1.265-0.559-2.067
			c0-0.943,0.285-1.784,0.855-2.523l0.574,0.594c-0.433,0.61-0.65,1.242-0.65,1.897c0,0.434,0.07,0.818,0.211,1.15
			c0.164,0.406,0.417,0.681,0.763,0.823c-0.261-0.717-0.388-1.407-0.388-2.067c0-0.638,0.122-1.208,0.362-1.713
			c0.307-0.637,0.742-0.955,1.313-0.955c0.581,0,1.023,0.301,1.327,0.906c0.238,0.479,0.356,1.041,0.356,1.686
			c0,0.829-0.188,1.552-0.559,2.168C26.099,52.41,25.49,52.777,24.711,52.777z M25.05,51.711c0.401-0.092,0.726-0.385,0.976-0.883
			c0.203-0.422,0.304-0.865,0.304-1.328c0-0.357-0.063-0.687-0.194-0.991c-0.169-0.391-0.409-0.585-0.72-0.585
			c-0.317,0-0.559,0.208-0.721,0.627c-0.125,0.31-0.187,0.651-0.187,1.025C24.508,50.275,24.688,50.986,25.05,51.711z"/>
		<path fill="#542437" d="M23.966,59.12c-0.54,0-0.959-0.335-1.252-1.007c-0.227-0.52-0.34-1.092-0.34-1.72
			c0-0.62,0.086-1.177,0.259-1.666c0.172-0.485,0.456-0.968,0.852-1.442l0.625,0.61c-0.339,0.44-0.579,0.821-0.722,1.142
			c-0.162,0.391-0.245,0.832-0.245,1.322c0,0.361,0.055,0.715,0.161,1.059c0.153,0.475,0.368,0.712,0.646,0.712
			c0.304,0,0.498-0.263,0.584-0.786c0.027-0.193,0.042-0.566,0.042-1.119h0.771c0,0.057,0,0.138,0,0.247
			c-0.006,0.106-0.007,0.185-0.007,0.235c0,0.696,0.146,1.043,0.44,1.043c0.203,0,0.353-0.147,0.449-0.439
			c0.067-0.21,0.101-0.445,0.101-0.705c0-0.682-0.227-1.38-0.678-2.092l0.667-0.568c0.521,0.825,0.78,1.722,0.78,2.693
			c0,0.525-0.091,0.978-0.271,1.355c-0.229,0.492-0.581,0.738-1.049,0.738c-0.125,0-0.264-0.035-0.415-0.104
			c-0.153-0.067-0.266-0.148-0.341-0.245C24.771,58.877,24.417,59.12,23.966,59.12z"/>
		<path fill="#542437" d="M27.006,65.705l-4.515-3.777v-1.153l3.737,3.099l-0.001-3.75h0.778V65.705z"/>
		<path fill="#542437" d="M24.736,71.934c-0.756,0-1.353-0.336-1.785-1.01c-0.384-0.586-0.577-1.273-0.577-2.066
			c0-0.797,0.193-1.484,0.577-2.067c0.433-0.675,1.029-1.016,1.785-1.016c0.757,0,1.354,0.341,1.795,1.016
			c0.377,0.583,0.567,1.271,0.567,2.067c0,0.805-0.19,1.494-0.567,2.078C26.097,71.6,25.499,71.934,24.736,71.934z M24.736,70.939
			c0.52,0,0.927-0.226,1.221-0.677c0.249-0.388,0.372-0.86,0.372-1.405c0-0.543-0.125-1.01-0.381-1.4
			c-0.293-0.457-0.697-0.684-1.212-0.684c-0.508,0-0.912,0.227-1.211,0.684c-0.255,0.396-0.383,0.864-0.383,1.4
			c0,0.529,0.131,0.999,0.391,1.396C23.833,70.714,24.234,70.939,24.736,70.939z"/>
		<path fill="#542437" d="M24.077,77.797c-0.56,0-0.996-0.295-1.312-0.886c-0.26-0.485-0.392-1.036-0.392-1.646
			c0-0.952,0.3-1.873,0.897-2.759l0.678,0.489c-0.27,0.466-0.457,0.831-0.559,1.104c-0.159,0.393-0.237,0.793-0.237,1.201
			c0,0.355,0.076,0.68,0.228,0.976c0.188,0.359,0.443,0.542,0.766,0.542c0.299,0,0.526-0.203,0.679-0.604
			c0.107-0.295,0.16-0.623,0.16-0.982c0-0.57-0.145-1.135-0.435-1.695v-0.608h2.455v4.403l-0.777-0.008v-3.431h-0.646
			c0.114,0.466,0.172,0.91,0.172,1.339c0,0.639-0.119,1.193-0.357,1.67C25.1,77.502,24.658,77.797,24.077,77.797z"/>
		<path fill="#542437" d="M22.491,86v-1.035l0.881-0.525v-1.99l-0.881-0.533v-1.008l3.72,2.244v0.588L22.491,86z M24.083,84.002
			l0.916-0.558l-0.916-0.563V84.002z"/>
	</g>
	<g>
		<path fill="#542437" d="M103.441,80.418l4.518,3.778v1.149l-3.739-3.099V86h-0.778V80.418z"/>
		<path fill="#542437" d="M107.959,74.723v4.822c-0.086-0.008-0.195-0.004-0.332,0.008c-0.162,0.012-0.268,0.016-0.331,0.016
			c-0.519,0-0.917-0.146-1.192-0.432c-0.227-0.231-0.419-0.619-0.574-1.162c-0.112-0.375-0.221-0.756-0.326-1.133
			c-0.227-0.68-0.407-1.019-0.544-1.019c-0.188,0-0.336,0.146-0.439,0.433c-0.068,0.207-0.101,0.429-0.101,0.672
			c0,0.545,0.239,1.241,0.712,2.083l-0.625,0.558c-0.571-0.837-0.854-1.694-0.854-2.584c0-0.518,0.089-0.979,0.27-1.38
			c0.238-0.518,0.589-0.776,1.054-0.776c0.344,0,0.642,0.25,0.891,0.76c0.122,0.26,0.299,0.777,0.524,1.55
			c0.197,0.647,0.36,1.06,0.503,1.229c0.125,0.146,0.325,0.219,0.594,0.219v-3.863H107.959z"/>
		<path fill="#542437" d="M105.735,68.072c0.761,0,1.352,0.332,1.782,0.999c0.37,0.575,0.558,1.267,0.558,2.067
			c0,0.942-0.285,1.784-0.855,2.524l-0.576-0.595c0.436-0.611,0.652-1.242,0.652-1.897c0-0.435-0.073-0.817-0.214-1.151
			c-0.159-0.406-0.414-0.682-0.76-0.822c0.259,0.72,0.388,1.407,0.388,2.066c0,0.64-0.121,1.209-0.364,1.711
			c-0.305,0.641-0.74,0.959-1.311,0.959c-0.58,0-1.025-0.303-1.326-0.908c-0.239-0.479-0.356-1.041-0.356-1.685
			c0-0.829,0.185-1.554,0.557-2.169C104.351,68.438,104.956,68.072,105.735,68.072z M105.399,69.141
			c-0.402,0.089-0.728,0.382-0.975,0.879c-0.205,0.424-0.306,0.866-0.306,1.33c0,0.355,0.063,0.688,0.197,0.99
			c0.167,0.389,0.409,0.586,0.719,0.586c0.318,0,0.557-0.21,0.721-0.627c0.126-0.311,0.188-0.652,0.188-1.024
			C105.944,70.572,105.761,69.859,105.399,69.141z"/>
		<path fill="#542437" d="M106.483,61.729c0.544,0,0.959,0.335,1.253,1.007c0.226,0.518,0.339,1.092,0.339,1.719
			c0,0.62-0.084,1.176-0.26,1.664c-0.17,0.488-0.456,0.971-0.851,1.443l-0.622-0.611c0.338-0.437,0.576-0.818,0.72-1.141
			c0.16-0.391,0.242-0.829,0.242-1.322c0-0.36-0.055-0.712-0.16-1.058c-0.152-0.476-0.367-0.71-0.645-0.71
			c-0.302,0-0.502,0.263-0.585,0.786c-0.026,0.192-0.042,0.564-0.042,1.118h-0.771c0-0.059,0-0.139,0-0.246
			c0.008-0.107,0.013-0.186,0.013-0.236c0-0.693-0.15-1.043-0.443-1.043c-0.205,0-0.353,0.146-0.452,0.442
			c-0.066,0.206-0.101,0.44-0.101,0.701c0,0.682,0.227,1.382,0.677,2.094l-0.665,0.566c-0.52-0.825-0.778-1.724-0.778-2.694
			c0-0.525,0.089-0.975,0.27-1.355c0.229-0.489,0.579-0.736,1.05-0.736c0.124,0,0.263,0.035,0.415,0.102
			c0.151,0.068,0.267,0.149,0.339,0.247C105.677,61.977,106.028,61.729,106.483,61.729z"/>
		<path fill="#542437" d="M103.441,55.145l4.518,3.777v1.152l-3.739-3.1v3.752h-0.778V55.145z"/>
		<path fill="#542437" d="M105.713,48.916c0.755,0,1.354,0.334,1.784,1.008c0.385,0.587,0.578,1.275,0.578,2.066
			c0,0.797-0.193,1.486-0.578,2.067c-0.431,0.677-1.029,1.017-1.784,1.017c-0.757,0-1.354-0.34-1.798-1.017
			c-0.374-0.581-0.563-1.271-0.563-2.067c0-0.802,0.188-1.494,0.563-2.076C104.351,49.248,104.948,48.916,105.713,48.916z
			 M105.713,49.907c-0.521,0-0.924,0.226-1.221,0.679c-0.247,0.391-0.373,0.858-0.373,1.405c0,0.544,0.126,1.009,0.385,1.397
			c0.292,0.461,0.695,0.688,1.209,0.688c0.508,0,0.91-0.227,1.212-0.688c0.251-0.395,0.38-0.859,0.38-1.397
			c0-0.53-0.129-0.997-0.386-1.396C106.617,50.137,106.217,49.907,105.713,49.907z"/>
		<path fill="#542437" d="M106.371,43.05c0.558,0,0.997,0.296,1.313,0.889c0.26,0.486,0.391,1.034,0.391,1.644
			c0,0.954-0.301,1.874-0.899,2.762l-0.676-0.493c0.269-0.464,0.457-0.829,0.559-1.1c0.157-0.396,0.237-0.798,0.237-1.204
			c0-0.355-0.076-0.68-0.229-0.974c-0.188-0.363-0.438-0.542-0.763-0.542c-0.301,0-0.528,0.2-0.682,0.601
			c-0.104,0.294-0.16,0.622-0.16,0.983c0,0.57,0.144,1.136,0.438,1.695v0.609h-2.458v-4.405l0.778,0.008v3.429h0.647
			c-0.116-0.462-0.173-0.908-0.173-1.337c0-0.639,0.121-1.194,0.357-1.669C105.35,43.35,105.79,43.05,106.371,43.05z"/>
		<path fill="#542437" d="M107.959,34.849v1.035l-0.885,0.524v1.99l0.885,0.532v1.009l-3.723-2.244v-0.585L107.959,34.849z
			 M106.362,36.849l-0.911,0.558l0.911,0.56V36.849z"/>
	</g>
</g>
</svg>
