<?xml version="1.0" encoding="utf-8"?>
<!-- Generator: Adobe Illustrator 16.0.0, SVG Export Plug-In . SVG Version: 6.00 Build 0)  -->
<!DOCTYPE svg PUBLIC "-//W3C//DTD SVG 1.1//EN" "http://www.w3.org/Graphics/SVG/1.1/DTD/svg11.dtd">
<svg version="1.1" id="Layer_1" xmlns="http://www.w3.org/2000/svg" xmlns:xlink="http://www.w3.org/1999/xlink" x="0px" y="0px"
	 width="176px" height="58px" viewBox="0 0 176 58" enable-background="new 0 0 176 58" xml:space="preserve">
<path fill="#54777A" d="M176,49.943c0,4.449-3.59,8.057-8.018,8.057H8.019C3.59,58,0,54.393,0,49.943V8.058C0,3.607,3.59,0,8.019,0
	h159.964C172.41,0,176,3.607,176,8.058V49.943z"/>
<g>
	<path fill="#542437" d="M36.561,36.64l4.521-11.464h1.809l4.504,11.464h-2.357l-1.05-2.857h-4.021l-1.049,2.857H36.561z
		 M41.986,27.582l-1.647,4.634h3.245L41.986,27.582z"/>
	<path fill="#542437" d="M47.879,32.409c0-0.592,0.102-1.151,0.307-1.679s0.5-0.99,0.888-1.389c0.387-0.398,0.855-0.716,1.405-0.953
		c0.549-0.236,1.167-0.354,1.857-0.354c0.925,0,1.714,0.199,2.365,0.597c0.651,0.398,1.138,0.921,1.461,1.566l-2.115,0.646
		c-0.183-0.312-0.425-0.551-0.727-0.718c-0.302-0.167-0.635-0.251-1.001-0.251c-0.312,0-0.603,0.063-0.872,0.187
		c-0.27,0.123-0.503,0.296-0.703,0.517s-0.355,0.486-0.468,0.799c-0.113,0.313-0.169,0.656-0.169,1.033s0.059,0.722,0.178,1.033
		c0.118,0.313,0.277,0.582,0.476,0.808s0.434,0.401,0.703,0.524c0.269,0.124,0.554,0.186,0.855,0.186
		c0.388,0,0.746-0.097,1.074-0.29c0.329-0.194,0.557-0.431,0.687-0.711l2.115,0.646c-0.291,0.646-0.77,1.173-1.437,1.582
		c-0.668,0.409-1.47,0.613-2.406,0.613c-0.689,0-1.308-0.118-1.857-0.354c-0.549-0.237-1.017-0.558-1.405-0.961
		c-0.388-0.404-0.686-0.872-0.896-1.405C47.984,33.548,47.879,32.99,47.879,32.409z"/>
	<path fill="#542437" d="M56.986,32.409c0-0.592,0.102-1.151,0.307-1.679s0.5-0.99,0.888-1.389c0.387-0.398,0.855-0.716,1.405-0.953
		c0.549-0.236,1.167-0.354,1.857-0.354c0.925,0,1.714,0.199,2.365,0.597c0.651,0.398,1.138,0.921,1.461,1.566l-2.115,0.646
		c-0.183-0.312-0.425-0.551-0.727-0.718c-0.302-0.167-0.635-0.251-1.001-0.251c-0.312,0-0.603,0.063-0.872,0.187
		c-0.27,0.123-0.503,0.296-0.703,0.517s-0.355,0.486-0.468,0.799c-0.113,0.313-0.169,0.656-0.169,1.033s0.059,0.722,0.178,1.033
		c0.118,0.313,0.277,0.582,0.476,0.808s0.434,0.401,0.703,0.524c0.269,0.124,0.554,0.186,0.855,0.186
		c0.388,0,0.746-0.097,1.074-0.29c0.329-0.194,0.557-0.431,0.687-0.711l2.115,0.646c-0.291,0.646-0.77,1.173-1.437,1.582
		c-0.668,0.409-1.47,0.613-2.406,0.613c-0.689,0-1.308-0.118-1.857-0.354c-0.549-0.237-1.017-0.558-1.405-0.961
		c-0.388-0.404-0.686-0.872-0.896-1.405C57.091,33.548,56.986,32.99,56.986,32.409z"/>
	<path fill="#542437" d="M70.549,36.801c-0.678,0-1.292-0.115-1.841-0.347s-1.017-0.546-1.405-0.944s-0.686-0.861-0.896-1.389
		s-0.315-1.082-0.315-1.663c0-0.603,0.102-1.171,0.307-1.704c0.205-0.532,0.5-1.001,0.888-1.404
		c0.387-0.403,0.858-0.724,1.413-0.961c0.554-0.236,1.176-0.354,1.865-0.354c0.688,0,1.305,0.118,1.849,0.354
		c0.543,0.237,1.006,0.555,1.389,0.953c0.382,0.398,0.672,0.861,0.872,1.389s0.299,1.076,0.299,1.646
		c0,0.14-0.003,0.274-0.008,0.403c-0.005,0.13-0.019,0.237-0.04,0.323h-6.54c0.033,0.334,0.113,0.63,0.242,0.888
		c0.129,0.259,0.296,0.479,0.501,0.662c0.204,0.184,0.436,0.323,0.694,0.42c0.259,0.097,0.527,0.146,0.808,0.146
		c0.43,0,0.837-0.104,1.219-0.314c0.382-0.21,0.643-0.487,0.783-0.832l1.857,0.517c-0.313,0.646-0.81,1.177-1.494,1.591
		S71.496,36.801,70.549,36.801z M72.745,31.699c-0.054-0.636-0.288-1.144-0.703-1.526c-0.415-0.382-0.917-0.573-1.51-0.573
		c-0.291,0-0.563,0.052-0.815,0.153c-0.253,0.103-0.477,0.245-0.67,0.429c-0.194,0.183-0.353,0.403-0.476,0.661
		c-0.124,0.259-0.197,0.544-0.218,0.856H72.745z"/>
	<path fill="#542437" d="M79.639,36.801c-0.345,0-0.702-0.026-1.074-0.08c-0.372-0.055-0.735-0.13-1.09-0.227
		c-0.355-0.097-0.694-0.215-1.017-0.355c-0.323-0.14-0.608-0.296-0.856-0.468l0.872-1.47c1.076,0.7,2.115,1.05,3.116,1.05
		c0.452,0,0.807-0.081,1.065-0.242s0.388-0.393,0.388-0.694c0-0.301-0.153-0.524-0.46-0.67c-0.307-0.146-0.821-0.304-1.542-0.477
		c-0.549-0.129-1.018-0.264-1.405-0.403c-0.388-0.14-0.7-0.302-0.937-0.484c-0.237-0.183-0.409-0.393-0.517-0.63
		c-0.108-0.236-0.162-0.517-0.162-0.84c0-0.43,0.086-0.817,0.258-1.162c0.172-0.345,0.412-0.638,0.718-0.88
		c0.307-0.242,0.667-0.428,1.082-0.558c0.414-0.129,0.864-0.193,1.348-0.193c0.603,0,1.203,0.095,1.8,0.282
		c0.598,0.188,1.154,0.444,1.671,0.768l-0.888,1.34c-0.474-0.301-0.92-0.52-1.34-0.654c-0.419-0.134-0.839-0.201-1.259-0.201
		c-0.388,0-0.713,0.075-0.977,0.226c-0.264,0.151-0.396,0.394-0.396,0.727c0,0.291,0.126,0.501,0.379,0.63s0.703,0.274,1.349,0.436
		c0.603,0.151,1.116,0.302,1.542,0.452c0.425,0.151,0.775,0.323,1.05,0.517c0.274,0.194,0.474,0.418,0.597,0.671
		c0.124,0.253,0.186,0.557,0.186,0.912c0,0.409-0.083,0.78-0.25,1.114c-0.167,0.333-0.401,0.616-0.702,0.848
		c-0.302,0.231-0.67,0.409-1.106,0.532C80.648,36.739,80.166,36.801,79.639,36.801z"/>
	<path fill="#542437" d="M87.841,36.801c-0.345,0-0.702-0.026-1.074-0.08c-0.372-0.055-0.735-0.13-1.09-0.227
		c-0.355-0.097-0.694-0.215-1.017-0.355c-0.323-0.14-0.608-0.296-0.856-0.468l0.872-1.47c1.076,0.7,2.115,1.05,3.116,1.05
		c0.452,0,0.807-0.081,1.065-0.242c0.259-0.161,0.389-0.393,0.389-0.694c0-0.301-0.154-0.524-0.461-0.67s-0.821-0.304-1.542-0.477
		c-0.549-0.129-1.018-0.264-1.405-0.403c-0.388-0.14-0.7-0.302-0.937-0.484c-0.237-0.183-0.409-0.393-0.517-0.63
		c-0.108-0.236-0.162-0.517-0.162-0.84c0-0.43,0.086-0.817,0.258-1.162c0.172-0.345,0.412-0.638,0.718-0.88
		c0.307-0.242,0.667-0.428,1.082-0.558c0.414-0.129,0.864-0.193,1.348-0.193c0.603,0,1.203,0.095,1.801,0.282
		c0.598,0.188,1.154,0.444,1.671,0.768l-0.888,1.34c-0.475-0.301-0.921-0.52-1.341-0.654c-0.419-0.134-0.839-0.201-1.259-0.201
		c-0.388,0-0.713,0.075-0.977,0.226c-0.264,0.151-0.396,0.394-0.396,0.727c0,0.291,0.126,0.501,0.379,0.63s0.703,0.274,1.349,0.436
		c0.602,0.151,1.116,0.302,1.542,0.452c0.426,0.151,0.775,0.323,1.05,0.517c0.274,0.194,0.474,0.418,0.597,0.671
		c0.125,0.253,0.187,0.557,0.187,0.912c0,0.409-0.083,0.78-0.251,1.114c-0.166,0.333-0.4,0.616-0.701,0.848
		c-0.303,0.231-0.671,0.409-1.106,0.532C88.85,36.739,88.368,36.801,87.841,36.801z"/>
	<path fill="#542437" d="M100.5,36.801c-0.679,0-1.293-0.115-1.842-0.347s-1.017-0.546-1.404-0.944s-0.686-0.861-0.896-1.389
		c-0.209-0.527-0.314-1.082-0.314-1.663c0-0.603,0.102-1.171,0.307-1.704c0.205-0.532,0.5-1.001,0.889-1.404
		c0.387-0.403,0.857-0.724,1.412-0.961c0.555-0.236,1.176-0.354,1.865-0.354c0.688,0,1.305,0.118,1.849,0.354
		c0.544,0.237,1.007,0.555,1.389,0.953s0.673,0.861,0.872,1.389s0.299,1.076,0.299,1.646c0,0.14-0.004,0.274-0.009,0.403
		c-0.005,0.13-0.019,0.237-0.04,0.323h-6.539c0.032,0.334,0.113,0.63,0.242,0.888c0.129,0.259,0.296,0.479,0.5,0.662
		c0.205,0.184,0.436,0.323,0.694,0.42s0.527,0.146,0.808,0.146c0.43,0,0.837-0.104,1.219-0.314c0.383-0.21,0.643-0.487,0.783-0.832
		l1.857,0.517c-0.313,0.646-0.811,1.177-1.494,1.591S101.446,36.801,100.5,36.801z M102.695,31.699
		c-0.055-0.636-0.288-1.144-0.703-1.526c-0.414-0.382-0.917-0.573-1.51-0.573c-0.29,0-0.563,0.052-0.814,0.153
		c-0.254,0.103-0.477,0.245-0.67,0.429c-0.194,0.183-0.354,0.403-0.477,0.661c-0.124,0.259-0.197,0.544-0.219,0.856H102.695z"/>
	<path fill="#542437" d="M108.266,36.64l-3.116-8.461h2.229l2.147,6.701l2.164-6.701h2.033l-3.115,8.461H108.266z"/>
	<path fill="#542437" d="M118.729,36.801c-0.678,0-1.292-0.115-1.841-0.347s-1.017-0.546-1.405-0.944
		c-0.387-0.398-0.686-0.861-0.896-1.389s-0.315-1.082-0.315-1.663c0-0.603,0.103-1.171,0.307-1.704
		c0.205-0.532,0.501-1.001,0.889-1.404c0.387-0.403,0.858-0.724,1.412-0.961c0.555-0.236,1.177-0.354,1.865-0.354
		c0.689,0,1.305,0.118,1.85,0.354c0.543,0.237,1.006,0.555,1.389,0.953c0.381,0.398,0.672,0.861,0.871,1.389
		s0.299,1.076,0.299,1.646c0,0.14-0.003,0.274-0.008,0.403c-0.006,0.13-0.02,0.237-0.041,0.323h-6.539
		c0.033,0.334,0.113,0.63,0.242,0.888c0.129,0.259,0.297,0.479,0.501,0.662c0.204,0.184,0.436,0.323,0.694,0.42
		c0.258,0.097,0.527,0.146,0.807,0.146c0.431,0,0.838-0.104,1.219-0.314c0.383-0.21,0.644-0.487,0.783-0.832l1.857,0.517
		c-0.313,0.646-0.811,1.177-1.494,1.591S119.676,36.801,118.729,36.801z M120.924,31.699c-0.054-0.636-0.287-1.144-0.702-1.526
		c-0.415-0.382-0.917-0.573-1.51-0.573c-0.29,0-0.563,0.052-0.815,0.153c-0.253,0.103-0.477,0.245-0.67,0.429
		c-0.193,0.183-0.353,0.403-0.477,0.661c-0.123,0.259-0.196,0.544-0.218,0.856H120.924z"/>
	<path fill="#542437" d="M132.34,36.64h-2.164v-4.747c0-0.678-0.118-1.173-0.355-1.485c-0.236-0.313-0.564-0.468-0.984-0.468
		c-0.215,0-0.436,0.043-0.662,0.129c-0.226,0.086-0.438,0.207-0.638,0.363s-0.38,0.342-0.54,0.557
		c-0.162,0.216-0.281,0.452-0.355,0.711v4.94h-2.164v-8.461h1.953v1.566c0.313-0.538,0.765-0.958,1.357-1.26
		c0.592-0.301,1.259-0.451,2.002-0.451c0.527,0,0.957,0.097,1.291,0.29c0.334,0.194,0.592,0.447,0.775,0.759
		c0.183,0.313,0.309,0.668,0.379,1.065c0.07,0.398,0.105,0.803,0.105,1.211V36.64z"/>
	<path fill="#542437" d="M139.25,36.204c-0.291,0.129-0.648,0.258-1.074,0.387c-0.425,0.13-0.869,0.194-1.332,0.194
		c-0.301,0-0.584-0.038-0.848-0.113s-0.494-0.196-0.693-0.363s-0.358-0.382-0.477-0.646c-0.119-0.264-0.178-0.584-0.178-0.961v-4.86
		h-1.098v-1.663h1.098v-2.744h2.164v2.744h1.792v1.663h-1.792v4.134c0,0.302,0.08,0.514,0.242,0.638
		c0.161,0.124,0.355,0.186,0.581,0.186s0.446-0.037,0.661-0.113c0.216-0.075,0.389-0.14,0.518-0.193L139.25,36.204z"/>
</g>
</svg>
