<?xml version="1.0" encoding="utf-8"?>
<!-- Generator: Adobe Illustrator 16.0.0, SVG Export Plug-In . SVG Version: 6.00 Build 0)  -->
<!DOCTYPE svg PUBLIC "-//W3C//DTD SVG 1.1//EN" "http://www.w3.org/Graphics/SVG/1.1/DTD/svg11.dtd">
<svg version="1.1" id="Layer_1" xmlns="http://www.w3.org/2000/svg" xmlns:xlink="http://www.w3.org/1999/xlink" x="0px" y="0px"
	 width="394.623px" height="122.973px" viewBox="0 0 394.623 122.973" enable-background="new 0 0 394.623 122.973"
	 xml:space="preserve">
<g>
	<path fill="#ECD078" d="M383.847,0H10.774C4.822,0,0,4.823,0,10.774v101.424c0,5.95,4.822,10.774,10.774,10.774h27.97
		c-0.413-0.872-0.665-1.834-0.665-2.865V57.77h76.5v62.338c0,1.03-0.248,1.993-0.663,2.865h269.93
		c5.951,0,10.775-4.824,10.775-10.774V10.774C394.622,4.823,389.798,0,383.847,0z"/>
	<path fill="#542437" d="M94.467,25.466l7.058-10.26c0.421-0.603,0.316-1.406-0.232-1.787c-0.547-0.372-1.334-0.186-1.748,0.422
		L92.2,24.495c-4.836-1.903-10.206-2.969-15.87-2.969c-5.664,0-11.033,1.065-15.872,2.969l-7.337-10.653
		c-0.424-0.607-1.208-0.794-1.754-0.422c-0.547,0.38-0.65,1.178-0.236,1.787l7.067,10.26c-11.233,5.225-19.111,15.154-20.119,26.751
		h76.498C113.575,40.621,105.697,30.691,94.467,25.466z M60.354,41.634c-2.339,0-4.237-1.896-4.237-4.235
		c0-2.336,1.895-4.23,4.237-4.23c2.333,0,4.225,1.895,4.225,4.23C64.583,39.738,62.686,41.634,60.354,41.634z M92.303,41.634
		c-2.331,0-4.228-1.896-4.228-4.235c0-2.336,1.896-4.23,4.228-4.23c2.343,0,4.237,1.895,4.237,4.23
		C96.541,39.738,94.646,41.634,92.303,41.634z"/>
	<path fill="#542437" d="M24.636,57.505c-4.711,0-8.535,3.821-8.535,8.535v34.517c0,4.71,3.825,8.531,8.535,8.531
		c4.714,0,8.531-3.822,8.531-8.531V66.04C33.168,61.326,29.351,57.505,24.636,57.505z"/>
	<path fill="#542437" d="M114.58,57.771h-76.5v62.338c0,1.03,0.252,1.993,0.665,2.864h75.172c0.415-0.871,0.663-1.833,0.663-2.864
		V57.771z"/>
	<path fill="#542437" d="M128.022,57.505c-4.714,0-8.534,3.821-8.534,8.535v34.517c0,4.71,3.82,8.531,8.534,8.531
		c4.712,0,8.534-3.822,8.534-8.531V66.04C136.556,61.326,132.734,57.505,128.022,57.505z"/>
	<g>
		<path fill="#542437" d="M165.001,55.613l10.979-26.249h2.107l10.98,26.249h-2.773l-3.4-8.207h-11.793l-3.364,8.207H165.001z
			 M177.053,32.396l-5.397,12.977h10.648L177.053,32.396z"/>
		<path fill="#542437" d="M196.831,55.613l-7.837-19.262h2.624l6.618,16.932l6.654-16.932h2.439l-7.838,19.262H196.831z"/>
		<path fill="#542437" d="M215.281,55.982c-0.986,0-1.887-0.154-2.699-0.462c-0.813-0.308-1.511-0.732-2.089-1.275
			c-0.579-0.541-1.029-1.17-1.35-1.886c-0.32-0.715-0.481-1.466-0.481-2.255c0-0.888,0.197-1.694,0.592-2.422
			s0.949-1.35,1.664-1.867c0.714-0.518,1.57-0.917,2.568-1.2c0.999-0.284,2.102-0.426,3.31-0.426c0.961,0,1.946,0.087,2.958,0.259
			c1.01,0.173,1.909,0.42,2.698,0.74v-1.739c0-1.699-0.487-3.049-1.46-4.048c-0.975-0.997-2.287-1.497-3.938-1.497
			c-1.035,0-2.064,0.198-3.087,0.592c-1.022,0.395-2.064,0.962-3.124,1.7l-0.887-1.663c1.257-0.837,2.477-1.466,3.66-1.886
			c1.184-0.419,2.415-0.628,3.696-0.628c2.341,0,4.202,0.678,5.583,2.033c1.379,1.355,2.07,3.229,2.07,5.619v8.688
			c0,0.691,0.295,1.035,0.887,1.035v2.22c-0.197,0.022-0.382,0.042-0.554,0.054c-0.173,0.014-0.321,0.02-0.444,0.02
			c-0.494,0-0.943-0.148-1.35-0.445c-0.406-0.296-0.635-0.738-0.684-1.331l-0.074-1.516c-0.838,1.134-1.94,2.016-3.309,2.645
			C218.071,55.668,216.685,55.982,215.281,55.982z M215.908,54.061c1.109,0,2.213-0.241,3.309-0.722
			c1.097-0.481,1.967-1.139,2.607-1.978c0.172-0.222,0.32-0.462,0.443-0.721c0.124-0.259,0.186-0.499,0.186-0.721v-3.144
			c-0.838-0.319-1.713-0.565-2.625-0.738c-0.912-0.172-1.799-0.26-2.662-0.26c-1.799,0-3.259,0.365-4.381,1.091
			c-1.121,0.727-1.682,1.731-1.682,3.013c0,0.517,0.098,1.022,0.296,1.515c0.196,0.494,0.499,0.938,0.906,1.332
			c0.407,0.395,0.906,0.715,1.497,0.961C214.392,53.938,215.095,54.061,215.908,54.061z"/>
		<path fill="#542437" d="M230.436,32.322v-3.696h2.514v3.696H230.436z M230.436,55.613V36.352h2.514v19.262H230.436z"/>
		<path fill="#542437" d="M238.458,28.626h2.514V51.25c0,0.715,0.196,1.275,0.591,1.683s0.947,0.611,1.663,0.611
			c0.272,0,0.593-0.038,0.961-0.112c0.37-0.074,0.716-0.171,1.036-0.296l0.443,2.033c-0.469,0.198-1.041,0.358-1.719,0.481
			c-0.678,0.124-1.264,0.186-1.756,0.186c-1.158,0-2.07-0.326-2.736-0.98c-0.665-0.652-0.998-1.57-0.998-2.753L238.458,28.626
			L238.458,28.626z"/>
		<path fill="#542437" d="M253.208,55.982c-0.984,0-1.886-0.154-2.698-0.462c-0.813-0.308-1.511-0.732-2.088-1.275
			c-0.579-0.541-1.029-1.17-1.35-1.886c-0.32-0.715-0.48-1.466-0.48-2.255c0-0.888,0.195-1.694,0.59-2.422s0.949-1.35,1.663-1.867
			c0.715-0.518,1.572-0.917,2.57-1.2c0.998-0.284,2.102-0.426,3.309-0.426c0.961,0,1.947,0.087,2.958,0.259
			c1.011,0.173,1.909,0.42,2.698,0.74v-1.739c0-1.699-0.486-3.049-1.46-4.048c-0.975-0.997-2.287-1.497-3.938-1.497
			c-1.035,0-2.064,0.198-3.086,0.592c-1.022,0.395-2.065,0.962-3.125,1.7l-0.886-1.663c1.257-0.837,2.476-1.466,3.658-1.886
			c1.185-0.419,2.416-0.628,3.697-0.628c2.342,0,4.202,0.678,5.583,2.033c1.379,1.355,2.071,3.229,2.071,5.619v8.688
			c0,0.691,0.295,1.035,0.887,1.035v2.22c-0.197,0.022-0.383,0.042-0.555,0.054c-0.172,0.014-0.32,0.02-0.443,0.02
			c-0.494,0-0.943-0.148-1.35-0.445c-0.406-0.296-0.634-0.738-0.684-1.331l-0.073-1.516c-0.838,1.134-1.94,2.016-3.31,2.645
			C256,55.668,254.613,55.982,253.208,55.982z M253.837,54.061c1.109,0,2.212-0.241,3.309-0.722
			c1.096-0.481,1.965-1.139,2.606-1.978c0.172-0.222,0.319-0.462,0.444-0.721c0.123-0.259,0.185-0.499,0.185-0.721v-3.144
			c-0.838-0.319-1.713-0.565-2.625-0.738c-0.911-0.172-1.799-0.26-2.661-0.26c-1.799,0-3.26,0.365-4.381,1.091
			c-1.121,0.727-1.683,1.731-1.683,3.013c0,0.517,0.098,1.022,0.296,1.515c0.197,0.494,0.499,0.938,0.906,1.332
			c0.407,0.395,0.906,0.715,1.498,0.961C252.323,53.938,253.024,54.061,253.837,54.061z"/>
		<path fill="#542437" d="M277.792,55.982c-1.504,0-2.896-0.382-4.178-1.146c-1.281-0.764-2.279-1.749-2.994-2.956v3.733h-2.256
			V28.625h2.514v11.757c0.863-1.307,1.898-2.36,3.105-3.161s2.625-1.201,4.252-1.201c1.332,0,2.539,0.283,3.623,0.85
			c1.084,0.567,2.002,1.325,2.754,2.274s1.332,2.021,1.738,3.216s0.609,2.422,0.609,3.68c0,1.355-0.234,2.638-0.701,3.845
			c-0.471,1.207-1.115,2.26-1.941,3.16c-0.824,0.9-1.799,1.615-2.92,2.145C280.274,55.717,279.073,55.982,277.792,55.982z
			 M277.2,53.765c1.061,0,2.027-0.215,2.902-0.647c0.875-0.432,1.625-1.011,2.256-1.737c0.627-0.728,1.121-1.553,1.479-2.477
			s0.535-1.879,0.535-2.864c0-1.011-0.166-1.983-0.498-2.921c-0.334-0.938-0.801-1.768-1.404-2.496
			c-0.605-0.727-1.326-1.306-2.164-1.736c-0.838-0.432-1.762-0.647-2.773-0.647c-0.764,0-1.477,0.128-2.143,0.388
			s-1.281,0.61-1.85,1.054c-0.566,0.442-1.078,0.955-1.533,1.534c-0.457,0.579-0.832,1.189-1.129,1.83v5.989
			c0.1,0.666,0.365,1.288,0.797,1.867c0.43,0.58,0.955,1.079,1.57,1.497c0.615,0.42,1.27,0.753,1.959,0.998
			C275.896,53.641,276.56,53.765,277.2,53.765z"/>
		<path fill="#542437" d="M291.249,28.626h2.512V51.25c0,0.715,0.197,1.275,0.594,1.683c0.393,0.407,0.947,0.611,1.662,0.611
			c0.271,0,0.592-0.038,0.961-0.112c0.371-0.074,0.715-0.171,1.035-0.296l0.445,2.033c-0.469,0.198-1.043,0.358-1.721,0.481
			c-0.678,0.124-1.262,0.186-1.756,0.186c-1.158,0-2.07-0.326-2.736-0.98c-0.664-0.652-0.998-1.57-0.998-2.753V28.626H291.249z"/>
		<path fill="#542437" d="M309.327,55.982c-1.406,0-2.699-0.266-3.883-0.795s-2.205-1.258-3.068-2.182
			c-0.861-0.925-1.535-1.989-2.014-3.196c-0.48-1.208-0.721-2.503-0.721-3.883c0-1.356,0.238-2.631,0.721-3.826
			c0.48-1.195,1.152-2.242,2.014-3.143c0.863-0.9,1.879-1.614,3.051-2.145c1.17-0.529,2.459-0.795,3.861-0.795
			c1.404,0,2.691,0.266,3.863,0.795c1.172,0.53,2.176,1.252,3.014,2.163c0.836,0.911,1.49,1.959,1.959,3.143
			c0.467,1.183,0.701,2.439,0.701,3.771c0,0.195-0.006,0.395-0.018,0.59c-0.012,0.198-0.031,0.333-0.055,0.407h-16.451
			c0.072,1.035,0.313,1.99,0.721,2.864c0.406,0.875,0.924,1.634,1.553,2.274c0.629,0.642,1.354,1.14,2.182,1.497
			c0.826,0.357,1.705,0.536,2.643,0.536c0.641,0,1.27-0.087,1.887-0.259c0.615-0.172,1.184-0.407,1.699-0.703
			c0.518-0.295,0.98-0.658,1.387-1.09s0.721-0.906,0.941-1.424l2.182,0.592c-0.295,0.715-0.715,1.361-1.256,1.94
			c-0.543,0.58-1.172,1.085-1.887,1.515c-0.715,0.433-1.504,0.766-2.365,0.999C311.124,55.865,310.237,55.982,309.327,55.982z
			 M316.425,44.966c-0.074-1.036-0.314-1.979-0.721-2.829c-0.408-0.85-0.924-1.583-1.553-2.199
			c-0.627-0.616-1.361-1.097-2.199-1.441s-1.725-0.518-2.662-0.518c-0.936,0-1.824,0.173-2.662,0.518
			c-0.836,0.345-1.57,0.826-2.197,1.441c-0.629,0.617-1.135,1.355-1.516,2.219c-0.383,0.863-0.611,1.798-0.686,2.81H316.425
			L316.425,44.966z"/>
		<path fill="#542437" d="M340.38,55.982c-1.406,0-2.693-0.266-3.863-0.795s-2.182-1.25-3.031-2.162
			c-0.85-0.911-1.51-1.972-1.977-3.18c-0.469-1.207-0.703-2.478-0.703-3.808c0-1.355,0.24-2.637,0.721-3.845
			s1.146-2.268,1.996-3.181c0.852-0.911,1.861-1.639,3.031-2.181c1.172-0.543,2.447-0.813,3.826-0.813
			c1.381,0,2.656,0.271,3.826,0.813c1.172,0.542,2.182,1.27,3.033,2.181c0.85,0.912,1.514,1.973,1.994,3.181
			c0.482,1.208,0.723,2.489,0.723,3.845c0,1.33-0.24,2.601-0.723,3.808c-0.48,1.208-1.145,2.268-1.994,3.18
			c-0.852,0.912-1.861,1.633-3.033,2.162C343.036,55.717,341.761,55.982,340.38,55.982z M333.394,46.074
			c0,1.086,0.18,2.088,0.535,3.013c0.357,0.924,0.852,1.737,1.479,2.44c0.629,0.702,1.369,1.251,2.219,1.645
			c0.85,0.395,1.758,0.592,2.719,0.592s1.867-0.203,2.717-0.609c0.85-0.408,1.596-0.962,2.236-1.664
			c0.641-0.703,1.146-1.521,1.516-2.459c0.371-0.938,0.555-1.946,0.555-3.031c0-1.06-0.186-2.064-0.555-3.014
			c-0.371-0.948-0.875-1.773-1.516-2.477c-0.641-0.701-1.381-1.257-2.219-1.663c-0.838-0.407-1.738-0.61-2.699-0.61
			s-1.867,0.203-2.717,0.61s-1.59,0.968-2.219,1.683c-0.627,0.715-1.127,1.548-1.496,2.496
			C333.579,43.975,333.394,44.99,333.394,46.074z"/>
		<path fill="#542437" d="M370.251,55.613h-2.514V44.855c0-2.292-0.334-3.956-0.998-4.991c-0.666-1.035-1.701-1.552-3.105-1.552
			c-0.74,0-1.479,0.135-2.221,0.406c-0.738,0.271-1.43,0.653-2.07,1.146c-0.641,0.494-1.201,1.08-1.682,1.758
			c-0.48,0.679-0.844,1.41-1.09,2.199v11.793h-2.514V36.354h2.293v4.362c0.395-0.69,0.881-1.325,1.459-1.904
			c0.58-0.579,1.229-1.078,1.941-1.497c0.715-0.419,1.473-0.738,2.273-0.961s1.633-0.333,2.496-0.333
			c1.084,0,1.99,0.197,2.717,0.591c0.729,0.395,1.313,0.949,1.758,1.663c0.443,0.716,0.764,1.59,0.961,2.625
			c0.195,1.035,0.295,2.182,0.295,3.438V55.613L370.251,55.613z"/>
	</g>
	<g>
		<path fill="#542437" d="M158.146,106.729l17.471-41.765h3.354l17.471,41.765h-4.413l-5.412-13.059h-18.763l-5.354,13.059H158.146z
			 M177.323,69.788l-8.589,20.646h16.941L177.323,69.788z"/>
		<path fill="#542437" d="M227.263,106.729h-4.002V89.611c0-3.647-0.527-6.295-1.587-7.941c-1.06-1.647-2.706-2.471-4.94-2.471
			c-1.178,0-2.354,0.216-3.531,0.647c-1.176,0.432-2.273,1.04-3.293,1.823c-1.02,0.785-1.911,1.716-2.676,2.794
			c-0.766,1.08-1.344,2.245-1.736,3.501v18.765h-3.999V76.082h3.647v6.942c0.627-1.098,1.401-2.108,2.324-3.03
			c0.92-0.921,1.949-1.715,3.088-2.382c1.135-0.667,2.342-1.177,3.616-1.53c1.274-0.353,2.597-0.528,3.97-0.528
			c1.726,0,3.166,0.313,4.324,0.94c1.156,0.629,2.088,1.511,2.795,2.647c0.705,1.139,1.214,2.53,1.527,4.177
			c0.313,1.647,0.473,3.471,0.473,5.472V106.729L227.263,106.729z"/>
		<path fill="#542437" d="M248.261,107.317c-2.118,0-4.078-0.442-5.883-1.324s-3.363-2.048-4.677-3.5
			c-1.314-1.45-2.333-3.127-3.06-5.029c-0.726-1.903-1.087-3.893-1.087-5.971c0-2.156,0.353-4.206,1.059-6.146
			s1.676-3.637,2.911-5.089c1.234-1.45,2.706-2.598,4.411-3.439c1.706-0.844,3.578-1.265,5.618-1.265
			c2.588,0,4.882,0.677,6.882,2.029c2.001,1.353,3.588,2.99,4.765,4.911V63.789h4.001v37.765c0,1.098,0.471,1.647,1.41,1.647v3.529
			c-0.666,0.117-1.195,0.177-1.588,0.177c-0.98,0-1.785-0.285-2.412-0.854s-0.941-1.245-0.941-2.029v-3.235
			c-1.255,2-2.911,3.588-4.97,4.765C252.644,106.729,250.497,107.317,248.261,107.317z M249.084,103.787
			c1.019,0,2.088-0.195,3.206-0.587c1.118-0.393,2.156-0.931,3.117-1.618c0.961-0.686,1.794-1.491,2.499-2.412
			c0.707-0.921,1.138-1.911,1.296-2.971v-9.471c-0.393-1.059-0.972-2.049-1.735-2.971c-0.765-0.921-1.628-1.734-2.588-2.44
			c-0.962-0.706-1.981-1.255-3.06-1.647c-1.079-0.391-2.146-0.588-3.206-0.588c-1.646,0-3.146,0.353-4.499,1.059
			c-1.354,0.705-2.501,1.638-3.441,2.793c-0.941,1.157-1.677,2.481-2.206,3.971c-0.528,1.491-0.794,3.021-0.794,4.588
			c0,1.647,0.294,3.217,0.883,4.706c0.588,1.49,1.391,2.794,2.411,3.912c1.02,1.117,2.225,2.011,3.617,2.676
			C245.975,103.454,247.475,103.787,249.084,103.787z"/>
		<path fill="#542437" d="M287.493,79.611c-2.705,0.079-5.059,0.823-7.059,2.235c-2,1.411-3.41,3.353-4.234,5.822v19.06h-4V76.082
			h3.764v7.352c1.061-2.155,2.451-3.95,4.176-5.382s3.59-2.146,5.59-2.146c0.354,0,0.686,0,0.998,0c0.314,0,0.57,0.019,0.766,0.057
			V79.611L287.493,79.611z"/>
		<path fill="#542437" d="M304.671,107.317c-2.234,0-4.283-0.422-6.145-1.265c-1.865-0.843-3.473-1.99-4.824-3.44
			c-1.354-1.45-2.402-3.138-3.146-5.06c-0.746-1.921-1.119-3.941-1.119-6.059c0-2.156,0.383-4.196,1.146-6.118
			c0.766-1.921,1.826-3.606,3.178-5.058s2.961-2.607,4.822-3.471c1.863-0.862,3.893-1.294,6.088-1.294s4.227,0.432,6.09,1.294
			c1.861,0.864,3.471,2.02,4.822,3.471c1.354,1.451,2.412,3.137,3.176,5.058c0.766,1.922,1.146,3.962,1.146,6.118
			c0,2.117-0.381,4.138-1.146,6.059c-0.764,1.922-1.822,3.609-3.176,5.06s-2.963,2.598-4.822,3.44
			C308.897,106.895,306.866,107.317,304.671,107.317z M293.554,91.552c0,1.727,0.283,3.323,0.854,4.793
			c0.566,1.471,1.352,2.766,2.354,3.883c0.998,1.118,2.174,1.99,3.527,2.618c1.354,0.626,2.793,0.94,4.326,0.94
			c1.529,0,2.971-0.323,4.324-0.971c1.35-0.646,2.537-1.529,3.557-2.646c1.02-1.119,1.824-2.421,2.412-3.911
			c0.588-1.491,0.881-3.099,0.881-4.824c0-1.686-0.293-3.284-0.881-4.793c-0.588-1.511-1.393-2.824-2.412-3.941
			c-1.02-1.118-2.197-2-3.529-2.648c-1.332-0.646-2.764-0.97-4.295-0.97c-1.529,0-2.969,0.324-4.322,0.97
			c-1.352,0.648-2.529,1.541-3.529,2.678c-1,1.138-1.795,2.462-2.383,3.97C293.847,88.209,293.554,89.827,293.554,91.552z"/>
		<path fill="#542437" d="M326.435,69.671v-5.884h4v5.884H326.435z M326.435,106.729V76.082h4v30.646H326.435z"/>
		<path fill="#542437" d="M351.728,107.317c-2.119,0-4.078-0.442-5.883-1.324s-3.363-2.048-4.676-3.5
			c-1.314-1.45-2.334-3.127-3.061-5.029c-0.727-1.903-1.086-3.893-1.086-5.971c0-2.156,0.352-4.206,1.059-6.146
			c0.705-1.94,1.674-3.637,2.91-5.089c1.234-1.45,2.707-2.598,4.41-3.439c1.707-0.844,3.578-1.265,5.619-1.265
			c2.588,0,4.881,0.677,6.883,2.029c2,1.353,3.588,2.99,4.764,4.911V63.789h4v37.765c0,1.098,0.473,1.647,1.412,1.647v3.529
			c-0.668,0.117-1.195,0.177-1.588,0.177c-0.98,0-1.785-0.285-2.412-0.854s-0.941-1.245-0.941-2.029v-3.235
			c-1.254,2-2.91,3.588-4.969,4.765C356.108,106.729,353.962,107.317,351.728,107.317z M352.548,103.787
			c1.02,0,2.09-0.195,3.207-0.587c1.119-0.393,2.158-0.931,3.119-1.618c0.961-0.686,1.793-1.491,2.498-2.412
			c0.707-0.921,1.139-1.911,1.295-2.971v-9.471c-0.391-1.059-0.971-2.049-1.734-2.971c-0.766-0.921-1.627-1.734-2.586-2.44
			c-0.963-0.706-1.982-1.255-3.061-1.647c-1.08-0.391-2.148-0.588-3.207-0.588c-1.646,0-3.146,0.353-4.5,1.059
			c-1.352,0.705-2.5,1.638-3.441,2.793c-0.941,1.157-1.676,2.481-2.205,3.971c-0.527,1.491-0.793,3.021-0.793,4.588
			c0,1.647,0.293,3.217,0.881,4.706c0.588,1.49,1.393,2.794,2.412,3.912c1.02,1.117,2.225,2.011,3.617,2.676
			C349.442,103.454,350.942,103.787,352.548,103.787z"/>
	</g>
</g>
</svg>
