<?xml version="1.0" encoding="utf-8"?>
<!-- Generator: Adobe Illustrator 16.0.0, SVG Export Plug-In . SVG Version: 6.00 Build 0)  -->
<!DOCTYPE svg PUBLIC "-//W3C//DTD SVG 1.1//EN" "http://www.w3.org/Graphics/SVG/1.1/DTD/svg11.dtd">
<svg version="1.1" id="Layer_1" xmlns="http://www.w3.org/2000/svg" xmlns:xlink="http://www.w3.org/1999/xlink" x="0px" y="0px"
	 width="523.334px" height="163.082px" viewBox="0 0 523.334 163.082" enable-background="new 0 0 523.334 163.082"
	 xml:space="preserve">
<g>
	<path fill="#ECD078" d="M509.044,0H14.289C6.396,0,0,6.396,0,14.289v134.504c0,7.891,6.396,14.289,14.289,14.289h37.094
		c-0.549-1.156-0.883-2.433-0.883-3.799v-82.67h101.453v82.67c0,1.366-0.331,2.643-0.88,3.799h357.972
		c7.892,0,14.29-6.398,14.29-14.289V14.289C523.334,6.396,516.936,0,509.044,0z"/>
	<path fill="#542437" d="M125.279,33.771l9.359-13.604c0.559-0.8,0.419-1.866-0.306-2.371c-0.726-0.493-1.769-0.245-2.32,0.561
		l-9.739,14.129c-6.414-2.524-13.537-3.937-21.047-3.937c-7.51,0-14.631,1.412-21.048,3.937l-9.731-14.129
		c-0.562-0.806-1.602-1.054-2.327-0.561c-0.726,0.505-0.861,1.563-0.313,2.371l9.373,13.604C62.282,40.702,51.835,53.87,50.5,69.25
		h101.447C150.62,53.87,140.172,40.702,125.279,33.771z M80.039,55.213c-3.102,0-5.618-2.513-5.618-5.617
		c0-3.097,2.512-5.609,5.618-5.609c3.094,0,5.604,2.513,5.604,5.609C85.648,52.7,83.133,55.213,80.039,55.213z M122.41,55.213
		c-3.092,0-5.607-2.513-5.607-5.617c0-3.097,2.516-5.609,5.607-5.609c3.107,0,5.618,2.513,5.618,5.609
		C128.028,52.7,125.517,55.213,122.41,55.213z"/>
	<path fill="#542437" d="M32.673,76.261c-6.248,0-11.32,5.067-11.32,11.318v45.775c0,6.246,5.072,11.315,11.32,11.315
		c6.251,0,11.313-5.069,11.313-11.315V87.579C43.986,81.328,38.924,76.261,32.673,76.261z"/>
	<path fill="#542437" d="M151.953,76.613H50.5v82.67c0,1.366,0.334,2.643,0.883,3.799h99.69c0.55-1.156,0.88-2.433,0.88-3.799
		V76.613z"/>
	<path fill="#542437" d="M169.779,76.261c-6.251,0-11.318,5.067-11.318,11.318v45.775c0,6.246,5.067,11.315,11.318,11.315
		c6.249,0,11.317-5.069,11.317-11.315V87.579C181.096,81.328,176.028,76.261,169.779,76.261z"/>
	<g>
		<path fill="#542437" d="M218.819,73.752l14.561-34.81h2.794l14.563,34.81h-3.678l-4.511-10.884h-15.639l-4.461,10.884H218.819z
			 M234.801,42.962l-7.157,17.209h14.12L234.801,42.962z"/>
		<path fill="#542437" d="M261.029,73.752l-10.393-25.543h3.48l8.776,22.454l8.824-22.454h3.237l-10.395,25.543H261.029z"/>
		<path fill="#542437" d="M285.496,74.242c-1.308,0-2.501-0.205-3.579-0.613c-1.079-0.408-2.002-0.973-2.771-1.691
			c-0.768-0.718-1.365-1.552-1.789-2.5c-0.426-0.948-0.638-1.944-0.638-2.991c0-1.177,0.261-2.246,0.784-3.211
			c0.523-0.964,1.26-1.79,2.207-2.476c0.947-0.688,2.083-1.217,3.407-1.593s2.786-0.564,4.388-0.564
			c1.274,0,2.582,0.115,3.923,0.343c1.34,0.229,2.532,0.557,3.578,0.981v-2.306c0-2.254-0.646-4.044-1.937-5.368
			c-1.291-1.323-3.032-1.985-5.221-1.985c-1.373,0-2.738,0.262-4.095,0.784c-1.355,0.523-2.737,1.275-4.143,2.256l-1.176-2.206
			c1.666-1.11,3.284-1.944,4.853-2.501c1.57-0.556,3.204-0.833,4.903-0.833c3.104,0,5.572,0.899,7.403,2.696
			c1.83,1.798,2.745,4.282,2.745,7.452v11.521c0,0.915,0.392,1.373,1.177,1.373v2.941c-0.262,0.032-0.507,0.057-0.735,0.073
			s-0.426,0.025-0.588,0.025c-0.655,0-1.25-0.197-1.79-0.589c-0.539-0.393-0.842-0.981-0.907-1.766l-0.097-2.01
			c-1.112,1.503-2.574,2.673-4.389,3.506S287.359,74.242,285.496,74.242z M286.329,71.693c1.472,0,2.934-0.32,4.389-0.957
			c1.453-0.637,2.605-1.511,3.457-2.623c0.228-0.294,0.423-0.612,0.587-0.955c0.164-0.344,0.245-0.662,0.245-0.956v-4.168
			c-1.111-0.424-2.271-0.751-3.48-0.98c-1.209-0.228-2.387-0.343-3.53-0.343c-2.386,0-4.323,0.482-5.81,1.445
			c-1.487,0.965-2.231,2.297-2.231,3.996c0,0.687,0.131,1.357,0.394,2.01c0.261,0.655,0.661,1.243,1.201,1.766
			c0.538,0.523,1.201,0.948,1.985,1.274C284.319,71.529,285.251,71.693,286.329,71.693z"/>
		<path fill="#542437" d="M305.596,42.865v-4.903h3.334v4.903H305.596z M305.596,73.752V48.209h3.334v25.543H305.596z"/>
		<path fill="#542437" d="M316.233,37.962h3.334v30.005c0,0.947,0.262,1.691,0.785,2.23c0.522,0.539,1.257,0.809,2.206,0.809
			c0.359,0,0.784-0.048,1.274-0.146s0.948-0.229,1.373-0.393l0.589,2.696c-0.622,0.263-1.382,0.475-2.28,0.638
			c-0.899,0.163-1.675,0.245-2.328,0.245c-1.537,0-2.746-0.433-3.629-1.3c-0.883-0.865-1.324-2.083-1.324-3.651V37.962z"/>
		<path fill="#542437" d="M335.797,74.242c-1.308,0-2.501-0.205-3.58-0.613c-1.078-0.408-2.002-0.973-2.77-1.691
			c-0.768-0.718-1.365-1.552-1.79-2.5s-0.637-1.944-0.637-2.991c0-1.177,0.261-2.246,0.784-3.211
			c0.522-0.964,1.259-1.79,2.207-2.476c0.946-0.688,2.082-1.217,3.406-1.593s2.787-0.564,4.389-0.564
			c1.274,0,2.582,0.115,3.923,0.343c1.339,0.229,2.531,0.557,3.578,0.981v-2.306c0-2.254-0.646-4.044-1.938-5.368
			c-1.29-1.323-3.031-1.985-5.221-1.985c-1.373,0-2.738,0.262-4.094,0.784c-1.356,0.523-2.738,1.275-4.143,2.256l-1.176-2.206
			c1.666-1.11,3.284-1.944,4.853-2.501c1.569-0.556,3.203-0.833,4.902-0.833c3.105,0,5.573,0.899,7.403,2.696
			c1.83,1.798,2.746,4.282,2.746,7.452v11.521c0,0.915,0.392,1.373,1.176,1.373v2.941c-0.261,0.032-0.507,0.057-0.734,0.073
			c-0.229,0.017-0.426,0.025-0.589,0.025c-0.654,0-1.25-0.197-1.789-0.589c-0.539-0.393-0.842-0.981-0.907-1.766l-0.098-2.01
			c-1.111,1.503-2.574,2.673-4.389,3.506C339.498,73.825,337.659,74.242,335.797,74.242z M336.63,71.693
			c1.471,0,2.934-0.32,4.388-0.957s2.606-1.511,3.457-2.623c0.228-0.294,0.424-0.612,0.587-0.955
			c0.164-0.344,0.246-0.662,0.246-0.956v-4.168c-1.111-0.424-2.272-0.751-3.481-0.98c-1.209-0.228-2.386-0.343-3.529-0.343
			c-2.387,0-4.323,0.482-5.81,1.445c-1.488,0.965-2.231,2.297-2.231,3.996c0,0.687,0.13,1.357,0.393,2.01
			c0.261,0.655,0.661,1.243,1.201,1.766c0.539,0.523,1.201,0.948,1.985,1.274C334.619,71.529,335.551,71.693,336.63,71.693z"/>
		<path fill="#542437" d="M368.397,74.242c-1.993,0-3.84-0.507-5.539-1.521c-1.7-1.012-3.023-2.319-3.972-3.921v4.951h-2.991v-35.79
			h3.334v15.591c1.145-1.732,2.517-3.129,4.119-4.192c1.602-1.061,3.48-1.593,5.638-1.593c1.766,0,3.366,0.376,4.806,1.127
			c1.437,0.752,2.654,1.758,3.651,3.016c0.996,1.259,1.766,2.681,2.305,4.266s0.809,3.211,0.809,4.878
			c0,1.798-0.311,3.498-0.931,5.099c-0.622,1.602-1.479,2.999-2.574,4.192c-1.096,1.193-2.387,2.141-3.873,2.843
			C371.691,73.89,370.097,74.242,368.397,74.242z M367.613,71.301c1.405,0,2.688-0.286,3.849-0.858
			c1.16-0.571,2.157-1.34,2.991-2.305c0.833-0.963,1.486-2.059,1.961-3.284c0.474-1.226,0.711-2.492,0.711-3.8
			c0-1.34-0.221-2.631-0.662-3.873s-1.062-2.345-1.862-3.31c-0.803-0.963-1.758-1.732-2.868-2.304
			c-1.112-0.572-2.338-0.858-3.678-0.858c-1.013,0-1.961,0.171-2.844,0.516c-0.882,0.343-1.699,0.809-2.451,1.396
			c-0.752,0.589-1.431,1.267-2.034,2.034c-0.605,0.77-1.103,1.578-1.496,2.428v7.942c0.131,0.883,0.482,1.708,1.055,2.476
			c0.572,0.769,1.267,1.43,2.084,1.985c0.816,0.557,1.683,0.998,2.599,1.324C365.882,71.137,366.763,71.301,367.613,71.301z"/>
		<path fill="#542437" d="M386.243,37.962h3.334v30.005c0,0.947,0.261,1.691,0.784,2.23s1.258,0.809,2.207,0.809
			c0.359,0,0.784-0.048,1.274-0.146c0.489-0.099,0.947-0.229,1.372-0.393l0.589,2.696c-0.622,0.263-1.382,0.475-2.28,0.638
			c-0.899,0.163-1.675,0.245-2.328,0.245c-1.536,0-2.746-0.433-3.628-1.3c-0.883-0.865-1.324-2.083-1.324-3.651V37.962z"/>
		<path fill="#542437" d="M410.218,74.242c-1.863,0-3.579-0.353-5.147-1.055c-1.569-0.702-2.926-1.667-4.07-2.893
			c-1.144-1.226-2.034-2.639-2.671-4.24c-0.638-1.602-0.956-3.317-0.956-5.148c0-1.797,0.318-3.488,0.956-5.073
			c0.637-1.586,1.527-2.975,2.671-4.169c1.145-1.192,2.492-2.139,4.046-2.843c1.552-0.702,3.26-1.054,5.122-1.054
			c1.863,0,3.571,0.352,5.124,1.054c1.552,0.704,2.884,1.659,3.996,2.868c1.11,1.21,1.977,2.599,2.598,4.168
			c0.621,1.568,0.932,3.235,0.932,5.001c0,0.261-0.009,0.522-0.024,0.784c-0.017,0.262-0.041,0.441-0.074,0.538h-21.815
			c0.097,1.373,0.416,2.641,0.955,3.8c0.539,1.161,1.226,2.166,2.059,3.016c0.834,0.851,1.798,1.513,2.893,1.985
			c1.096,0.475,2.264,0.712,3.506,0.712c0.85,0,1.684-0.115,2.501-0.344c0.816-0.229,1.568-0.539,2.255-0.932
			c0.687-0.392,1.3-0.874,1.838-1.446c0.54-0.571,0.957-1.201,1.251-1.888l2.894,0.784c-0.394,0.949-0.949,1.807-1.668,2.574
			c-0.72,0.769-1.553,1.438-2.501,2.01c-0.947,0.573-1.993,1.015-3.137,1.324C412.604,74.087,411.426,74.242,410.218,74.242z
			 M419.631,59.633c-0.098-1.373-0.417-2.624-0.956-3.752c-0.54-1.127-1.226-2.1-2.06-2.917c-0.833-0.816-1.806-1.453-2.917-1.912
			c-1.11-0.457-2.287-0.686-3.53-0.686c-1.242,0-2.419,0.229-3.529,0.686c-1.111,0.459-2.083,1.096-2.917,1.912
			c-0.833,0.817-1.503,1.798-2.01,2.941c-0.508,1.146-0.809,2.387-0.907,3.728H419.631z"/>
		<path fill="#542437" d="M451.4,74.242c-1.864,0-3.572-0.353-5.124-1.055c-1.553-0.702-2.893-1.658-4.02-2.867
			c-1.129-1.209-2.003-2.615-2.623-4.217c-0.622-1.601-0.932-3.285-0.932-5.05c0-1.798,0.318-3.496,0.956-5.099
			c0.637-1.602,1.52-3.008,2.646-4.217c1.128-1.209,2.469-2.173,4.021-2.893c1.552-0.719,3.244-1.078,5.075-1.078
			c1.829,0,3.521,0.359,5.074,1.078c1.552,0.72,2.893,1.684,4.02,2.893c1.128,1.209,2.01,2.615,2.647,4.217
			c0.638,1.603,0.956,3.301,0.956,5.099c0,1.765-0.318,3.449-0.956,5.05c-0.638,1.602-1.52,3.008-2.647,4.217
			c-1.127,1.209-2.468,2.165-4.02,2.867C454.921,73.89,453.229,74.242,451.4,74.242z M442.134,61.103
			c0,1.439,0.236,2.77,0.711,3.995c0.474,1.226,1.127,2.305,1.96,3.237c0.835,0.932,1.814,1.659,2.942,2.182
			s2.329,0.784,3.604,0.784c1.275,0,2.477-0.271,3.604-0.809c1.127-0.54,2.116-1.275,2.966-2.207s1.52-2.018,2.01-3.26
			c0.491-1.242,0.736-2.582,0.736-4.021c0-1.405-0.245-2.737-0.736-3.996c-0.49-1.258-1.16-2.354-2.01-3.284
			c-0.85-0.932-1.831-1.667-2.941-2.207c-1.111-0.539-2.304-0.809-3.578-0.809c-1.275,0-2.477,0.27-3.604,0.809
			c-1.127,0.54-2.108,1.283-2.941,2.231c-0.834,0.947-1.495,2.052-1.985,3.31C442.379,58.317,442.134,59.664,442.134,61.103z"/>
		<path fill="#542437" d="M491.013,73.752h-3.334V59.485c0-3.04-0.441-5.247-1.323-6.619c-0.883-1.373-2.256-2.059-4.118-2.059
			c-0.981,0-1.961,0.18-2.942,0.538c-0.98,0.361-1.896,0.867-2.746,1.521c-0.85,0.654-1.593,1.43-2.229,2.329
			c-0.638,0.899-1.121,1.871-1.447,2.917v15.64h-3.334V48.209h3.04v5.785c0.523-0.915,1.168-1.757,1.937-2.525
			c0.768-0.768,1.626-1.43,2.574-1.985c0.947-0.556,1.952-0.98,3.016-1.274c1.061-0.295,2.165-0.441,3.309-0.441
			c1.438,0,2.64,0.262,3.604,0.784c0.964,0.523,1.74,1.259,2.329,2.206c0.588,0.949,1.013,2.108,1.274,3.48
			c0.262,1.373,0.393,2.893,0.393,4.56V73.752z"/>
	</g>
	<g>
		<path fill="#542437" d="M209.729,141.539l23.168-55.386h4.447l23.168,55.386h-5.852l-7.177-17.317h-24.883l-7.1,17.317H209.729z
			 M235.159,92.551l-11.389,27.38h22.466L235.159,92.551z"/>
		<path fill="#542437" d="M301.388,141.539h-5.306v-22.7c0-4.836-0.701-8.348-2.105-10.531c-1.405-2.185-3.589-3.276-6.554-3.276
			c-1.56,0-3.119,0.287-4.681,0.858c-1.56,0.572-3.016,1.379-4.367,2.418c-1.354,1.041-2.535,2.275-3.549,3.705
			c-1.016,1.432-1.783,2.978-2.303,4.642v24.885h-5.303v-40.643h4.836v9.206c0.832-1.456,1.857-2.796,3.082-4.018
			c1.221-1.222,2.586-2.274,4.095-3.16c1.506-0.884,3.105-1.561,4.796-2.028s3.445-0.701,5.266-0.701
			c2.288,0,4.199,0.416,5.734,1.248c1.533,0.833,2.77,2.002,3.706,3.51c0.936,1.509,1.61,3.354,2.026,5.538
			c0.416,2.186,0.626,4.604,0.626,7.256V141.539z"/>
		<path fill="#542437" d="M329.234,142.318c-2.81,0-5.409-0.585-7.801-1.754c-2.394-1.17-4.46-2.718-6.201-4.642
			c-1.743-1.924-3.095-4.147-4.058-6.67c-0.962-2.522-1.442-5.161-1.442-7.919c0-2.859,0.467-5.577,1.405-8.151
			c0.936-2.574,2.221-4.822,3.86-6.747c1.638-1.924,3.589-3.445,5.85-4.563c2.264-1.118,4.745-1.677,7.451-1.677
			c3.432,0,6.474,0.897,9.126,2.691c2.652,1.793,4.759,3.966,6.318,6.513V84.594h5.306v50.08c0,1.457,0.624,2.185,1.871,2.185v4.681
			c-0.885,0.156-1.586,0.234-2.105,0.234c-1.301,0-2.367-0.377-3.199-1.132c-0.832-0.753-1.248-1.65-1.248-2.691v-4.289
			c-1.664,2.651-3.86,4.757-6.591,6.318C335.047,141.539,332.199,142.318,329.234,142.318z M330.325,137.639
			c1.352,0,2.771-0.26,4.252-0.78c1.482-0.52,2.861-1.234,4.136-2.145c1.273-0.909,2.378-1.977,3.313-3.199
			c0.938-1.222,1.509-2.535,1.717-3.939v-12.56c-0.52-1.403-1.287-2.717-2.301-3.938c-1.013-1.222-2.159-2.301-3.432-3.237
			c-1.276-0.937-2.628-1.665-4.057-2.185c-1.432-0.519-2.848-0.78-4.253-0.78c-2.184,0-4.172,0.469-5.967,1.404
			c-1.794,0.936-3.315,2.173-4.563,3.706c-1.248,1.534-2.224,3.289-2.925,5.265c-0.701,1.978-1.054,4.006-1.054,6.084
			c0,2.186,0.39,4.266,1.171,6.241c0.781,1.978,1.845,3.706,3.199,5.188c1.352,1.481,2.949,2.665,4.796,3.549
			C326.204,137.197,328.192,137.639,330.325,137.639z"/>
		<path fill="#542437" d="M381.265,105.577c-3.588,0.104-6.71,1.093-9.36,2.964c-2.652,1.873-4.524,4.447-5.617,7.724v25.274h-5.305
			v-40.643h4.993v9.751c1.404-2.859,3.25-5.239,5.537-7.137c2.288-1.898,4.759-2.848,7.412-2.848c0.469,0,0.909,0,1.325,0
			c0.415,0,0.754,0.026,1.015,0.077V105.577z"/>
		<path fill="#542437" d="M404.044,142.318c-2.965,0-5.682-0.56-8.15-1.677c-2.472-1.117-4.604-2.639-6.398-4.563
			s-3.186-4.161-4.173-6.709c-0.988-2.548-1.482-5.228-1.482-8.036c0-2.859,0.507-5.563,1.521-8.112
			c1.016-2.548,2.42-4.783,4.212-6.708c1.794-1.924,3.927-3.458,6.398-4.603c2.469-1.144,5.159-1.716,8.073-1.716
			c2.911,0,5.604,0.572,8.074,1.716c2.47,1.145,4.603,2.679,6.396,4.603c1.794,1.925,3.199,4.16,4.212,6.708
			c1.014,2.549,1.521,5.253,1.521,8.112c0,2.809-0.507,5.488-1.521,8.036c-1.013,2.548-2.418,4.785-4.212,6.709
			s-3.927,3.445-6.396,4.563C409.647,141.759,406.955,142.318,404.044,142.318z M389.301,121.413c0,2.289,0.376,4.407,1.13,6.357
			c0.755,1.95,1.794,3.667,3.122,5.149c1.325,1.48,2.885,2.639,4.679,3.471s3.706,1.248,5.734,1.248c2.029,0,3.94-0.43,5.734-1.288
			c1.792-0.856,3.365-2.027,4.72-3.51c1.352-1.482,2.418-3.21,3.196-5.187c0.781-1.977,1.171-4.108,1.171-6.397
			c0-2.235-0.39-4.354-1.171-6.357c-0.778-2.002-1.845-3.744-3.196-5.227c-1.354-1.482-2.914-2.652-4.682-3.511
			c-1.768-0.857-3.666-1.287-5.694-1.287c-2.029,0-3.938,0.43-5.732,1.287c-1.795,0.858-3.356,2.042-4.682,3.55
			c-1.325,1.509-2.378,3.265-3.159,5.266C389.689,116.979,389.301,119.125,389.301,121.413z"/>
		<path fill="#542437" d="M432.906,92.395v-7.801h5.303v7.801H432.906z M432.906,141.539v-40.643h5.303v40.643H432.906z"/>
		<path fill="#542437" d="M466.447,142.318c-2.81,0-5.409-0.585-7.801-1.754c-2.394-1.17-4.46-2.718-6.201-4.642
			c-1.743-1.924-3.095-4.147-4.058-6.67c-0.962-2.522-1.442-5.161-1.442-7.919c0-2.859,0.467-5.577,1.405-8.151
			c0.936-2.574,2.221-4.822,3.86-6.747c1.638-1.924,3.589-3.445,5.85-4.563c2.263-1.118,4.745-1.677,7.451-1.677
			c3.432,0,6.474,0.897,9.126,2.691c2.652,1.793,4.759,3.966,6.318,6.513V84.594h5.306v50.08c0,1.457,0.624,2.185,1.871,2.185v4.681
			c-0.885,0.156-1.586,0.234-2.105,0.234c-1.302,0-2.367-0.377-3.199-1.132c-0.832-0.753-1.248-1.65-1.248-2.691v-4.289
			c-1.664,2.651-3.86,4.757-6.591,6.318C472.26,141.539,469.412,142.318,466.447,142.318z M467.538,137.639
			c1.352,0,2.77-0.26,4.252-0.78c1.482-0.52,2.861-1.234,4.135-2.145c1.274-0.909,2.379-1.977,3.314-3.199
			c0.938-1.222,1.509-2.535,1.717-3.939v-12.56c-0.52-1.403-1.287-2.717-2.301-3.938s-2.159-2.301-3.432-3.237
			c-1.276-0.937-2.628-1.665-4.057-2.185c-1.432-0.519-2.848-0.78-4.253-0.78c-2.184,0-4.172,0.469-5.967,1.404
			c-1.794,0.936-3.316,2.173-4.563,3.706c-1.248,1.534-2.224,3.289-2.925,5.265c-0.701,1.978-1.054,4.006-1.054,6.084
			c0,2.186,0.39,4.266,1.171,6.241c0.781,1.978,1.845,3.706,3.199,5.188c1.352,1.481,2.949,2.665,4.796,3.549
			C463.417,137.197,465.405,137.639,467.538,137.639z"/>
	</g>
</g>
</svg>
