<?xml version="1.0" encoding="utf-8"?>
<!-- Generator: Adobe Illustrator 16.0.0, SVG Export Plug-In . SVG Version: 6.00 Build 0)  -->
<!DOCTYPE svg PUBLIC "-//W3C//DTD SVG 1.1//EN" "http://www.w3.org/Graphics/SVG/1.1/DTD/svg11.dtd">
<svg version="1.1" id="Layer_1" xmlns="http://www.w3.org/2000/svg" xmlns:xlink="http://www.w3.org/1999/xlink" x="0px" y="0px"
	 width="523.334px" height="163.082px" viewBox="0 0 523.334 163.082" enable-background="new 0 0 523.334 163.082"
	 xml:space="preserve">
<g>
	<path fill="#ECD078" d="M523.334,148.792c0,7.892-6.398,14.29-14.29,14.29H14.289C6.396,163.082,0,156.684,0,148.792V14.29
		C0,6.396,6.396,0,14.289,0h494.755c7.892,0,14.29,6.396,14.29,14.29V148.792z"/>
	<path fill-rule="evenodd" clip-rule="evenodd" fill="#542437" d="M138.554,57.215c-5.386-6.682-12.625-13.364-23.764-13.364
		c-7.796,0-14.296,7.61-25.065,7.61c-8.54,0-12.066-7.24-21.35-7.24c-19.307,0-38.43,17.265-38.43,39.729
		c0,11.882,3.898,30.261,12.625,46.227c6.311,11.695,14.109,19.308,22.836,19.308c6.311,0,13.738-5.757,22.648-5.757
		c7.796,0,15.039,5.2,22.093,5.2c16.895,0,32.492-21.907,32.492-36.575c0-0.741-0.185-1.299-0.185-1.855v-0.928
		c-10.955-5.942-16.899-14.666-16.899-27.289c0-10.21,4.459-19.124,12.625-24.878L138.554,57.215L138.554,57.215z"/>
	<path fill-rule="evenodd" clip-rule="evenodd" fill="#542437" d="M89.341,49.056c12.625-3.9,24.323-13.368,24.323-29.89
		c0-1.301-0.186-2.972-0.374-4.828l-0.185-0.744c-12.81,3.529-24.318,13.553-24.318,29.333c0,1.486,0.185,3.342,0.554,5.385V49.056
		L89.341,49.056z"/>
	<g>
		<path fill="#542437" d="M164.532,129.33l21.789-52.088h4.182l21.789,52.088h-5.502l-6.749-16.286h-23.403l-6.676,16.286H164.532z
			 M188.449,83.258l-10.711,25.752h21.128L188.449,83.258z"/>
		<path fill="#542437" d="M238.188,130.064c-3.228,0-6.088-0.818-8.583-2.458c-2.495-1.638-4.501-3.705-6.017-6.198v23.549H218.6
			V91.108h4.476v7.41c1.565-2.396,3.595-4.341,6.089-5.834c2.495-1.491,5.209-2.236,8.144-2.236c2.64,0,5.073,0.551,7.299,1.65
			c2.225,1.101,4.146,2.568,5.759,4.402c1.614,1.834,2.873,3.949,3.777,6.345c0.905,2.397,1.357,4.867,1.357,7.41
			c0,2.69-0.416,5.233-1.246,7.63c-0.832,2.397-2.018,4.5-3.559,6.31c-1.54,1.81-3.374,3.241-5.502,4.292
			S240.731,130.064,238.188,130.064z M236.794,125.662c2.054,0,3.913-0.44,5.577-1.32c1.661-0.881,3.093-2.041,4.292-3.485
			c1.197-1.442,2.114-3.08,2.751-4.914c0.635-1.835,0.953-3.729,0.953-5.687c0-2.054-0.367-4.01-1.101-5.869
			c-0.733-1.858-1.736-3.496-3.008-4.914c-1.271-1.419-2.776-2.544-4.512-3.377c-1.737-0.829-3.607-1.246-5.613-1.246
			c-1.272,0-2.593,0.258-3.961,0.771c-1.369,0.514-2.666,1.199-3.888,2.054c-1.224,0.855-2.263,1.86-3.118,3.009
			c-0.856,1.149-1.382,2.36-1.578,3.63v11.739c0.587,1.369,1.333,2.642,2.238,3.815c0.905,1.173,1.932,2.188,3.082,3.045
			c1.148,0.856,2.396,1.528,3.741,2.017C233.995,125.419,235.375,125.662,236.794,125.662z"/>
		<path fill="#542437" d="M283.306,130.064c-3.228,0-6.088-0.818-8.582-2.458c-2.495-1.638-4.501-3.705-6.017-6.198v23.549h-4.989
			V91.108h4.476v7.41c1.565-2.396,3.595-4.341,6.09-5.834c2.494-1.491,5.209-2.236,8.144-2.236c2.641,0,5.073,0.551,7.3,1.65
			c2.225,1.101,4.145,2.568,5.759,4.402c1.613,1.834,2.872,3.949,3.777,6.345c0.905,2.397,1.357,4.867,1.357,7.41
			c0,2.69-0.416,5.233-1.247,7.63c-0.832,2.397-2.018,4.5-3.559,6.31c-1.539,1.81-3.373,3.241-5.502,4.292
			C288.186,129.538,285.85,130.064,283.306,130.064z M281.912,125.662c2.055,0,3.913-0.44,5.576-1.32
			c1.662-0.881,3.093-2.041,4.292-3.485c1.198-1.442,2.115-3.08,2.751-4.914c0.636-1.835,0.954-3.729,0.954-5.687
			c0-2.054-0.367-4.01-1.101-5.869c-0.733-1.858-1.737-3.496-3.008-4.914c-1.272-1.419-2.776-2.544-4.513-3.377
			c-1.736-0.829-3.606-1.246-5.612-1.246c-1.272,0-2.593,0.258-3.961,0.771c-1.37,0.514-2.666,1.199-3.889,2.054
			c-1.224,0.855-2.263,1.86-3.118,3.009c-0.856,1.149-1.382,2.36-1.577,3.63v11.739c0.587,1.369,1.333,2.642,2.237,3.815
			c0.905,1.173,1.932,2.188,3.082,3.045c1.148,0.856,2.396,1.528,3.741,2.017C279.112,125.419,280.493,125.662,281.912,125.662z"/>
		<path fill="#542437" d="M359.457,87c-1.467-1.662-3.438-3.008-5.906-4.035c-2.47-1.027-5.245-1.541-8.326-1.541
			c-4.647,0-8.022,0.869-10.125,2.604c-2.103,1.737-3.154,4.098-3.154,7.081c0,1.565,0.28,2.85,0.844,3.851
			c0.562,1.004,1.442,1.872,2.642,2.605c1.198,0.733,2.714,1.37,4.549,1.908c1.834,0.537,3.997,1.075,6.491,1.612
			c2.788,0.587,5.282,1.236,7.483,1.944c2.202,0.711,4.083,1.614,5.649,2.715c1.564,1.101,2.763,2.447,3.596,4.035
			c0.83,1.59,1.246,3.558,1.246,5.905c0,2.398-0.466,4.476-1.394,6.236c-0.929,1.761-2.226,3.228-3.889,4.402
			c-1.663,1.173-3.644,2.042-5.942,2.604c-2.299,0.562-4.794,0.843-7.482,0.843c-8.17,0-15.139-2.518-20.909-7.556l2.494-4.182
			c1.908,2.005,4.476,3.704,7.703,5.098c3.229,1.395,6.823,2.091,10.784,2.091c4.157,0,7.41-0.744,9.758-2.236
			c2.348-1.491,3.522-3.754,3.522-6.786c0-1.614-0.331-2.972-0.991-4.072s-1.65-2.055-2.972-2.86
			c-1.32-0.808-2.971-1.505-4.952-2.091c-1.98-0.589-4.268-1.175-6.859-1.761c-2.739-0.636-5.135-1.297-7.189-1.981
			c-2.054-0.685-3.778-1.541-5.172-2.567c-1.395-1.028-2.446-2.263-3.155-3.706c-0.709-1.442-1.063-3.215-1.063-5.318
			c0-2.396,0.451-4.535,1.356-6.419c0.904-1.882,2.175-3.449,3.814-4.696c1.639-1.246,3.596-2.2,5.869-2.861
			c2.274-0.659,4.78-0.989,7.521-0.989c3.422,0,6.493,0.525,9.206,1.577c2.715,1.052,5.173,2.531,7.374,4.438L359.457,87z"/>
		<path fill="#542437" d="M390.198,127.496c-0.294,0.147-0.722,0.343-1.284,0.588s-1.21,0.489-1.944,0.733
			c-0.733,0.245-1.565,0.465-2.493,0.66c-0.931,0.195-1.908,0.293-2.935,0.293c-1.077,0-2.104-0.146-3.082-0.44
			c-0.979-0.293-1.834-0.744-2.567-1.356c-0.733-0.611-1.321-1.381-1.762-2.312c-0.439-0.928-0.66-2.004-0.66-3.228V95.069h-5.282
			v-3.961h5.282V78.196h4.989v12.912h8.804v3.961h-8.804v25.971c0.097,1.42,0.587,2.458,1.468,3.119
			c0.879,0.66,1.932,0.989,3.153,0.989c1.419,0,2.666-0.23,3.742-0.696c1.075-0.465,1.762-0.794,2.055-0.991L390.198,127.496z"/>
		<path fill="#542437" d="M411.767,130.064c-2.787,0-5.344-0.526-7.667-1.577c-2.322-1.051-4.328-2.482-6.016-4.292
			s-2.996-3.912-3.924-6.31c-0.931-2.396-1.395-4.916-1.395-7.557c0-2.688,0.478-5.233,1.431-7.629
			c0.953-2.396,2.274-4.5,3.961-6.31c1.688-1.81,3.692-3.252,6.017-4.329c2.322-1.075,4.853-1.613,7.593-1.613
			c2.739,0,5.271,0.538,7.593,1.613c2.323,1.077,4.329,2.52,6.017,4.329s3.008,3.913,3.962,6.31c0.953,2.396,1.43,4.94,1.43,7.629
			c0,2.641-0.477,5.16-1.43,7.557c-0.954,2.397-2.274,4.5-3.962,6.31s-3.693,3.241-6.017,4.292
			C417.037,129.538,414.506,130.064,411.767,130.064z M397.9,110.403c0,2.152,0.354,4.144,1.064,5.978
			c0.708,1.834,1.688,3.449,2.935,4.844c1.247,1.394,2.715,2.481,4.401,3.265c1.688,0.782,3.484,1.173,5.393,1.173
			c1.907,0,3.705-0.402,5.392-1.21c1.688-0.808,3.166-1.907,4.439-3.301c1.271-1.394,2.274-3.021,3.008-4.88
			c0.733-1.857,1.101-3.862,1.101-6.016c0-2.103-0.367-4.096-1.101-5.979s-1.736-3.522-3.008-4.916
			c-1.273-1.394-2.74-2.494-4.402-3.301c-1.663-0.808-3.448-1.211-5.355-1.211s-3.704,0.403-5.393,1.211
			c-1.687,0.807-3.154,1.921-4.401,3.338c-1.248,1.419-2.237,3.069-2.971,4.952S397.9,108.251,397.9,110.403z"/>
		<path fill="#542437" d="M457.985,95.51c-3.375,0.099-6.309,1.026-8.803,2.788c-2.495,1.761-4.256,4.181-5.283,7.263v23.77h-4.989
			V91.108h4.696v9.17c1.32-2.688,3.056-4.927,5.209-6.713c2.151-1.784,4.476-2.677,6.97-2.677c0.439,0,0.855,0,1.246,0
			s0.708,0.023,0.954,0.072V95.51z"/>
		<path fill="#542437" d="M481.389,130.064c-2.787,0-5.356-0.526-7.703-1.577c-2.348-1.051-4.377-2.494-6.09-4.328
			c-1.712-1.834-3.044-3.949-3.998-6.347c-0.953-2.396-1.43-4.963-1.43-7.703c0-2.689,0.477-5.221,1.43-7.593
			c0.954-2.372,2.286-4.45,3.998-6.237c1.713-1.784,3.729-3.202,6.053-4.254c2.322-1.051,4.879-1.577,7.667-1.577
			s5.343,0.526,7.666,1.577c2.323,1.052,4.316,2.482,5.979,4.292c1.662,1.81,2.959,3.887,3.889,6.235
			c0.928,2.349,1.394,4.842,1.394,7.483c0,0.392-0.013,0.783-0.037,1.174c-0.024,0.393-0.061,0.66-0.109,0.807h-32.647
			c0.146,2.055,0.623,3.951,1.431,5.686c0.808,1.736,1.834,3.241,3.082,4.513c1.247,1.272,2.689,2.263,4.328,2.972
			c1.638,0.709,3.387,1.063,5.246,1.063c1.271,0,2.518-0.172,3.741-0.515c1.222-0.341,2.347-0.807,3.375-1.394
			c1.026-0.587,1.943-1.308,2.751-2.164c0.806-0.855,1.43-1.798,1.87-2.825l4.328,1.175c-0.587,1.419-1.419,2.703-2.494,3.852
			c-1.076,1.149-2.323,2.152-3.741,3.008c-1.419,0.856-2.984,1.517-4.695,1.981C484.958,129.832,483.197,130.064,481.389,130.064z
			 M495.475,108.202c-0.146-2.054-0.624-3.925-1.432-5.612c-0.806-1.688-1.834-3.142-3.08-4.365
			c-1.248-1.222-2.704-2.176-4.365-2.86c-1.664-0.686-3.425-1.028-5.282-1.028c-1.859,0-3.62,0.343-5.283,1.028
			c-1.662,0.685-3.117,1.639-4.364,2.86c-1.247,1.224-2.25,2.69-3.008,4.402c-0.759,1.713-1.211,3.57-1.357,5.575H495.475z"/>
	</g>
	<g>
		<path fill="#542437" d="M174.604,60.727l9.016-21.554h1.731l9.015,21.554h-2.276l-2.793-6.739h-9.684l-2.763,6.739H174.604z
			 M184.5,41.663l-4.433,10.655h8.743L184.5,41.663z"/>
		<path fill="#542437" d="M200.742,60.727l-6.436-15.816h2.155l5.434,13.903l5.464-13.903h2.005l-6.436,15.816H200.742z"/>
		<path fill="#542437" d="M215.891,61.031c-0.81,0-1.549-0.126-2.217-0.379c-0.668-0.253-1.24-0.603-1.715-1.048
			c-0.476-0.444-0.845-0.96-1.108-1.548c-0.263-0.587-0.395-1.204-0.395-1.852c0-0.729,0.161-1.392,0.485-1.988
			c0.324-0.597,0.779-1.108,1.366-1.533c0.587-0.426,1.291-0.754,2.11-0.987c0.82-0.232,1.725-0.349,2.717-0.349
			c0.789,0,1.599,0.071,2.428,0.212c0.83,0.142,1.568,0.345,2.217,0.607v-1.427c0-1.396-0.4-2.504-1.199-3.324
			c-0.8-0.82-1.878-1.23-3.233-1.23c-0.851,0-1.696,0.162-2.535,0.486c-0.84,0.324-1.695,0.789-2.565,1.396l-0.728-1.366
			c1.032-0.688,2.033-1.203,3.005-1.548c0.971-0.344,1.982-0.516,3.035-0.516c1.923,0,3.45,0.557,4.584,1.67
			c1.133,1.113,1.7,2.651,1.7,4.614v7.134c0,0.567,0.242,0.85,0.728,0.85v1.821c-0.162,0.02-0.313,0.035-0.455,0.045
			c-0.142,0.01-0.263,0.016-0.365,0.016c-0.405,0-0.773-0.122-1.107-0.365c-0.334-0.243-0.521-0.607-0.562-1.093l-0.061-1.245
			c-0.688,0.931-1.594,1.654-2.717,2.17C218.183,60.772,217.043,61.031,215.891,61.031z M216.406,59.452
			c0.911,0,1.816-0.197,2.717-0.592c0.901-0.395,1.614-0.936,2.141-1.624c0.142-0.182,0.263-0.379,0.364-0.592
			c0.102-0.213,0.153-0.41,0.153-0.592v-2.58c-0.689-0.263-1.407-0.465-2.156-0.607c-0.749-0.141-1.478-0.212-2.186-0.212
			c-1.478,0-2.677,0.299-3.597,0.896c-0.921,0.597-1.382,1.422-1.382,2.474c0,0.425,0.081,0.84,0.244,1.245
			c0.161,0.405,0.41,0.769,0.743,1.093c0.334,0.324,0.745,0.587,1.23,0.789C215.162,59.351,215.738,59.452,216.406,59.452z"/>
		<path fill="#542437" d="M228.336,41.602v-3.036h2.065v3.036H228.336z M228.336,60.727V44.911h2.065v15.816H228.336z"/>
		<path fill="#542437" d="M234.924,38.566h2.064v18.579c0,0.587,0.162,1.048,0.486,1.382c0.322,0.333,0.778,0.5,1.366,0.5
			c0.222,0,0.485-0.03,0.788-0.091c0.305-0.061,0.588-0.142,0.851-0.243l0.364,1.669c-0.385,0.163-0.855,0.293-1.411,0.395
			c-0.557,0.102-1.038,0.152-1.441,0.152c-0.953,0-1.701-0.268-2.247-0.804c-0.546-0.536-0.82-1.291-0.82-2.262V38.566z"/>
		<path fill="#542437" d="M247.037,61.031c-0.81,0-1.549-0.126-2.217-0.379s-1.24-0.603-1.715-1.048
			c-0.476-0.444-0.845-0.96-1.108-1.548c-0.263-0.587-0.395-1.204-0.395-1.852c0-0.729,0.161-1.392,0.485-1.988
			c0.324-0.597,0.779-1.108,1.366-1.533c0.588-0.426,1.291-0.754,2.11-0.987c0.82-0.232,1.725-0.349,2.717-0.349
			c0.789,0,1.599,0.071,2.429,0.212c0.829,0.142,1.568,0.345,2.217,0.607v-1.427c0-1.396-0.4-2.504-1.199-3.324
			c-0.8-0.82-1.878-1.23-3.233-1.23c-0.851,0-1.696,0.162-2.535,0.486c-0.84,0.324-1.695,0.789-2.565,1.396l-0.728-1.366
			c1.031-0.688,2.033-1.203,3.005-1.548c0.972-0.344,1.982-0.516,3.035-0.516c1.923,0,3.45,0.557,4.584,1.67
			c1.133,1.113,1.7,2.651,1.7,4.614v7.134c0,0.567,0.242,0.85,0.729,0.85v1.821c-0.162,0.02-0.313,0.035-0.455,0.045
			c-0.142,0.01-0.263,0.016-0.365,0.016c-0.404,0-0.772-0.122-1.106-0.365c-0.335-0.243-0.521-0.607-0.563-1.093l-0.061-1.245
			c-0.688,0.931-1.594,1.654-2.717,2.17S248.189,61.031,247.037,61.031z M247.553,59.452c0.91,0,1.816-0.197,2.717-0.592
			c0.9-0.395,1.614-0.936,2.141-1.624c0.142-0.182,0.263-0.379,0.363-0.592c0.103-0.213,0.153-0.41,0.153-0.592v-2.58
			c-0.689-0.263-1.407-0.465-2.156-0.607c-0.749-0.141-1.478-0.212-2.186-0.212c-1.479,0-2.677,0.299-3.598,0.896
			c-0.921,0.597-1.382,1.422-1.382,2.474c0,0.425,0.081,0.84,0.244,1.245c0.161,0.405,0.41,0.769,0.743,1.093
			c0.334,0.324,0.744,0.587,1.229,0.789C246.309,59.351,246.885,59.452,247.553,59.452z"/>
		<path fill="#542437" d="M267.223,61.031c-1.234,0-2.378-0.313-3.43-0.941c-1.053-0.626-1.872-1.437-2.459-2.429v3.066h-1.853
			V38.566h2.065v9.654c0.708-1.073,1.558-1.938,2.55-2.596c0.991-0.658,2.155-0.987,3.491-0.987c1.093,0,2.083,0.233,2.975,0.698
			c0.89,0.465,1.645,1.088,2.262,1.867c0.617,0.779,1.093,1.66,1.427,2.641c0.334,0.982,0.5,1.989,0.5,3.021
			c0,1.113-0.192,2.166-0.575,3.157c-0.385,0.992-0.916,1.857-1.596,2.596c-0.677,0.739-1.476,1.326-2.397,1.761
			C269.262,60.813,268.275,61.031,267.223,61.031z M266.737,59.209c0.87,0,1.665-0.177,2.383-0.532
			c0.72-0.354,1.337-0.83,1.853-1.427c0.515-0.596,0.92-1.275,1.214-2.034c0.295-0.759,0.44-1.543,0.44-2.353
			c0-0.83-0.137-1.629-0.409-2.398c-0.274-0.769-0.659-1.452-1.155-2.049c-0.495-0.597-1.088-1.072-1.773-1.426
			c-0.69-0.354-1.449-0.532-2.278-0.532c-0.628,0-1.214,0.106-1.761,0.319c-0.546,0.213-1.053,0.501-1.519,0.865
			s-0.885,0.785-1.259,1.259c-0.375,0.477-0.684,0.977-0.926,1.503v4.918c0.08,0.547,0.298,1.058,0.652,1.533
			c0.354,0.476,0.783,0.886,1.29,1.229c0.506,0.344,1.042,0.617,1.608,0.82S266.211,59.209,266.737,59.209z"/>
		<path fill="#542437" d="M278.273,38.566h2.063v18.579c0,0.587,0.162,1.048,0.487,1.382c0.322,0.333,0.778,0.5,1.364,0.5
			c0.224,0,0.487-0.03,0.79-0.091s0.586-0.142,0.85-0.243l0.365,1.669c-0.385,0.163-0.856,0.293-1.412,0.395
			c-0.557,0.102-1.037,0.152-1.442,0.152c-0.951,0-1.698-0.268-2.245-0.804c-0.547-0.536-0.82-1.291-0.82-2.262V38.566z"/>
		<path fill="#542437" d="M293.118,61.031c-1.153,0-2.217-0.218-3.188-0.653c-0.971-0.435-1.812-1.032-2.52-1.792
			c-0.708-0.759-1.259-1.634-1.655-2.625c-0.394-0.992-0.591-2.054-0.591-3.188c0-1.113,0.197-2.16,0.591-3.142
			c0.396-0.981,0.947-1.841,1.655-2.581c0.708-0.738,1.544-1.325,2.504-1.76c0.963-0.436,2.021-0.653,3.173-0.653
			c1.155,0,2.212,0.217,3.173,0.653c0.962,0.435,1.785,1.027,2.476,1.776c0.686,0.749,1.224,1.609,1.608,2.58
			c0.383,0.972,0.577,2.004,0.577,3.097c0,0.162-0.007,0.324-0.016,0.486c-0.011,0.162-0.026,0.273-0.046,0.334h-13.509
			c0.06,0.85,0.259,1.634,0.591,2.352c0.334,0.719,0.759,1.341,1.276,1.867c0.516,0.527,1.112,0.937,1.79,1.229
			c0.679,0.294,1.402,0.44,2.17,0.44c0.526,0,1.042-0.071,1.549-0.212c0.506-0.142,0.971-0.334,1.396-0.577
			c0.427-0.243,0.806-0.542,1.14-0.896s0.593-0.744,0.774-1.169l1.792,0.486c-0.243,0.587-0.589,1.118-1.033,1.593
			c-0.444,0.476-0.963,0.891-1.549,1.245c-0.586,0.354-1.234,0.628-1.942,0.82C294.596,60.935,293.865,61.031,293.118,61.031z
			 M298.947,51.984c-0.062-0.85-0.259-1.625-0.593-2.322c-0.334-0.699-0.759-1.3-1.274-1.807c-0.518-0.505-1.119-0.9-1.808-1.184
			c-0.688-0.283-1.416-0.425-2.186-0.425c-0.768,0-1.498,0.142-2.186,0.425c-0.688,0.284-1.29,0.679-1.806,1.184
			c-0.516,0.506-0.932,1.113-1.245,1.821c-0.314,0.708-0.5,1.478-0.563,2.308H298.947z"/>
		<path fill="#542437" d="M318.617,61.031c-1.152,0-2.21-0.218-3.172-0.653c-0.96-0.435-1.79-1.027-2.489-1.776
			c-0.696-0.748-1.239-1.619-1.624-2.61s-0.577-2.035-0.577-3.127c0-1.113,0.199-2.165,0.593-3.157
			c0.394-0.991,0.94-1.862,1.64-2.611s1.528-1.346,2.488-1.792c0.963-0.445,2.009-0.667,3.142-0.667
			c1.136,0,2.182,0.223,3.145,0.667c0.96,0.446,1.789,1.042,2.488,1.792c0.697,0.749,1.243,1.62,1.64,2.611
			c0.394,0.992,0.591,2.044,0.591,3.157c0,1.093-0.197,2.136-0.591,3.127c-0.396,0.992-0.942,1.862-1.64,2.61
			c-0.699,0.749-1.528,1.341-2.488,1.776C320.799,60.813,319.753,61.031,318.617,61.031z M312.881,52.895
			c0,0.891,0.146,1.715,0.44,2.474c0.292,0.759,0.696,1.427,1.215,2.004c0.515,0.577,1.121,1.028,1.82,1.351
			c0.699,0.324,1.442,0.486,2.232,0.486c0.787,0,1.533-0.167,2.23-0.501c0.698-0.334,1.31-0.79,1.836-1.366
			c0.526-0.577,0.942-1.25,1.245-2.019c0.304-0.769,0.456-1.598,0.456-2.489c0-0.87-0.152-1.695-0.456-2.474
			c-0.303-0.779-0.719-1.458-1.245-2.034c-0.526-0.577-1.133-1.033-1.821-1.366c-0.688-0.334-1.427-0.501-2.217-0.501
			c-0.787,0-1.533,0.167-2.229,0.501c-0.699,0.333-1.306,0.794-1.823,1.381c-0.516,0.587-0.925,1.271-1.228,2.049
			C313.033,51.17,312.881,52.004,312.881,52.895z"/>
		<path fill="#542437" d="M343.146,60.727h-2.064v-8.834c0-1.882-0.274-3.248-0.818-4.098c-0.547-0.85-1.398-1.275-2.551-1.275
			c-0.608,0-1.215,0.111-1.821,0.334c-0.608,0.223-1.175,0.537-1.701,0.941c-0.526,0.405-0.986,0.885-1.381,1.442
			c-0.396,0.557-0.694,1.159-0.896,1.806v9.684h-2.064V44.911h1.883v3.582c0.323-0.566,0.724-1.087,1.199-1.563
			s1.007-0.885,1.593-1.229c0.586-0.344,1.21-0.607,1.867-0.789c0.657-0.183,1.341-0.273,2.049-0.273
			c0.892,0,1.635,0.162,2.232,0.486c0.595,0.324,1.077,0.779,1.442,1.366c0.362,0.587,0.626,1.306,0.787,2.156
			c0.162,0.85,0.244,1.791,0.244,2.823V60.727z"/>
		<path fill="#542437" d="M362.847,59.968c-0.121,0.061-0.298,0.142-0.53,0.243c-0.232,0.102-0.5,0.203-0.804,0.304
			c-0.305,0.101-0.647,0.192-1.033,0.273c-0.385,0.081-0.789,0.121-1.214,0.121c-0.445,0-0.87-0.061-1.274-0.182
			c-0.405-0.122-0.759-0.308-1.063-0.562c-0.305-0.253-0.546-0.572-0.729-0.956c-0.182-0.384-0.272-0.83-0.272-1.336V46.55h-2.186
			v-1.639h2.186v-5.343h2.064v5.343h3.642v1.639h-3.642v10.747c0.04,0.587,0.243,1.017,0.606,1.29
			c0.364,0.273,0.801,0.41,1.305,0.41c0.589,0,1.104-0.096,1.549-0.288c0.444-0.192,0.728-0.329,0.85-0.41L362.847,59.968z"/>
		<path fill="#542437" d="M378.572,60.727h-2.063v-8.834c0-1.801-0.31-3.147-0.928-4.038c-0.617-0.89-1.521-1.335-2.717-1.335
			c-0.586,0-1.168,0.117-1.745,0.349c-0.575,0.233-1.117,0.552-1.624,0.957s-0.944,0.88-1.32,1.427
			c-0.374,0.547-0.653,1.144-0.834,1.791v9.684h-2.064V38.566h2.064v9.927c0.647-1.193,1.528-2.135,2.642-2.823
			c1.112-0.688,2.307-1.032,3.581-1.032c0.912,0,1.687,0.167,2.323,0.5c0.637,0.334,1.152,0.8,1.549,1.396
			c0.394,0.598,0.682,1.316,0.865,2.156c0.181,0.84,0.271,1.766,0.271,2.777V60.727z"/>
		<path fill="#542437" d="M389.776,61.031c-1.155,0-2.217-0.218-3.188-0.653c-0.971-0.435-1.812-1.032-2.52-1.792
			c-0.711-0.759-1.262-1.634-1.655-2.625s-0.593-2.054-0.593-3.188c0-1.113,0.199-2.16,0.593-3.142
			c0.394-0.981,0.944-1.841,1.655-2.581c0.708-0.738,1.542-1.325,2.504-1.76c0.96-0.436,2.018-0.653,3.173-0.653
			c1.152,0,2.21,0.217,3.173,0.653c0.96,0.435,1.785,1.027,2.473,1.776c0.688,0.749,1.224,1.609,1.608,2.58
			c0.386,0.972,0.578,2.004,0.578,3.097c0,0.162-0.005,0.324-0.016,0.486c-0.012,0.162-0.024,0.273-0.045,0.334h-13.511
			c0.063,0.85,0.259,1.634,0.593,2.352c0.335,0.719,0.759,1.341,1.274,1.867c0.518,0.527,1.113,0.937,1.792,1.229
			c0.678,0.294,1.4,0.44,2.171,0.44c0.526,0,1.042-0.071,1.549-0.212c0.504-0.142,0.971-0.334,1.396-0.577
			c0.425-0.243,0.806-0.542,1.14-0.896c0.332-0.354,0.591-0.744,0.771-1.169l1.792,0.486c-0.243,0.587-0.586,1.118-1.032,1.593
			c-0.445,0.476-0.961,0.891-1.547,1.245c-0.589,0.354-1.234,0.628-1.944,0.82C391.252,60.935,390.523,61.031,389.776,61.031z
			 M395.604,51.984c-0.06-0.85-0.259-1.625-0.591-2.322c-0.334-0.699-0.761-1.3-1.276-1.807c-0.516-0.505-1.117-0.9-1.806-1.184
			c-0.688-0.283-1.418-0.425-2.186-0.425c-0.771,0-1.498,0.142-2.186,0.425c-0.688,0.284-1.29,0.679-1.808,1.184
			c-0.516,0.506-0.932,1.113-1.243,1.821c-0.314,0.708-0.503,1.478-0.563,2.308H395.604z"/>
		<path fill="#542437" d="M408.443,41.602v-3.036h2.066v3.036H408.443z M408.443,60.727V44.911h2.066v15.816H408.443z"/>
		<path fill="#542437" d="M415.457,60.727V39.173h8.925c0.932,0,1.785,0.197,2.564,0.592c0.778,0.395,1.453,0.911,2.02,1.548
			c0.566,0.637,1.007,1.361,1.32,2.17c0.314,0.81,0.47,1.629,0.47,2.459c0,0.891-0.146,1.746-0.438,2.565
			c-0.294,0.82-0.715,1.543-1.261,2.17c-0.547,0.627-1.199,1.134-1.958,1.518s-1.604,0.577-2.535,0.577h-7.012v7.954H415.457z
			 M417.552,50.892h6.89c0.628,0,1.199-0.137,1.717-0.41c0.516-0.273,0.956-0.638,1.32-1.093c0.363-0.456,0.646-0.981,0.85-1.579
			c0.202-0.597,0.304-1.219,0.304-1.867c0-0.668-0.117-1.3-0.35-1.897s-0.547-1.118-0.94-1.563c-0.396-0.445-0.86-0.794-1.396-1.048
			c-0.538-0.252-1.1-0.379-1.687-0.379h-6.708V50.892z"/>
		<path fill="#542437" d="M447.09,60.727h-2.066v-8.834c0-1.801-0.308-3.147-0.925-4.038c-0.617-0.89-1.522-1.335-2.717-1.335
			c-0.589,0-1.169,0.117-1.746,0.349c-0.577,0.233-1.119,0.552-1.624,0.957c-0.506,0.405-0.946,0.88-1.32,1.427
			c-0.376,0.547-0.652,1.144-0.834,1.791v9.684h-2.066V38.566h2.066v9.927c0.646-1.193,1.526-2.135,2.639-2.823
			c1.113-0.688,2.308-1.032,3.582-1.032c0.912,0,1.687,0.167,2.323,0.5c0.637,0.334,1.155,0.8,1.549,1.396
			c0.394,0.598,0.684,1.316,0.865,2.156c0.181,0.84,0.274,1.766,0.274,2.777V60.727z"/>
		<path fill="#542437" d="M458.2,61.031c-1.155,0-2.213-0.218-3.173-0.653c-0.963-0.435-1.792-1.027-2.489-1.776
			c-0.699-0.748-1.241-1.619-1.624-2.61c-0.385-0.992-0.577-2.035-0.577-3.127c0-1.113,0.197-2.165,0.591-3.157
			c0.396-0.991,0.942-1.862,1.64-2.611c0.699-0.749,1.528-1.346,2.491-1.792c0.96-0.445,2.006-0.667,3.142-0.667
			c1.133,0,2.179,0.223,3.142,0.667c0.96,0.446,1.792,1.042,2.488,1.792c0.699,0.749,1.246,1.62,1.64,2.611
			c0.396,0.992,0.593,2.044,0.593,3.157c0,1.093-0.197,2.136-0.593,3.127c-0.394,0.992-0.94,1.862-1.64,2.61
			c-0.696,0.749-1.528,1.341-2.488,1.776C460.379,60.813,459.333,61.031,458.2,61.031z M452.461,52.895
			c0,0.891,0.148,1.715,0.44,2.474c0.294,0.759,0.699,1.427,1.215,2.004c0.518,0.577,1.123,1.028,1.822,1.351
			c0.697,0.324,1.44,0.486,2.23,0.486s1.533-0.167,2.232-0.501c0.696-0.334,1.31-0.79,1.836-1.366
			c0.526-0.577,0.94-1.25,1.243-2.019c0.306-0.769,0.456-1.598,0.456-2.489c0-0.87-0.15-1.695-0.456-2.474
			c-0.303-0.779-0.717-1.458-1.243-2.034c-0.526-0.577-1.135-1.033-1.82-1.366c-0.69-0.334-1.428-0.501-2.217-0.501
			c-0.79,0-1.533,0.167-2.232,0.501c-0.697,0.333-1.306,0.794-1.821,1.381c-0.516,0.587-0.927,1.271-1.229,2.049
			C452.613,51.17,452.461,52.004,452.461,52.895z"/>
		<path fill="#542437" d="M482.729,60.727h-2.066v-8.834c0-1.882-0.272-3.248-0.818-4.098c-0.547-0.85-1.396-1.275-2.551-1.275
			c-0.606,0-1.213,0.111-1.821,0.334c-0.606,0.223-1.175,0.537-1.699,0.941c-0.526,0.405-0.986,0.885-1.383,1.442
			c-0.394,0.557-0.692,1.159-0.894,1.806v9.684h-2.066V44.911h1.883v3.582c0.323-0.566,0.724-1.087,1.199-1.563
			s1.007-0.885,1.595-1.229c0.587-0.344,1.208-0.607,1.865-0.789c0.659-0.183,1.341-0.273,2.051-0.273
			c0.89,0,1.633,0.162,2.23,0.486c0.597,0.324,1.077,0.779,1.442,1.366c0.365,0.587,0.626,1.306,0.79,2.156
			c0.161,0.85,0.243,1.791,0.243,2.823V60.727z"/>
		<path fill="#542437" d="M493.93,61.031c-1.152,0-2.217-0.218-3.188-0.653c-0.971-0.435-1.812-1.032-2.52-1.792
			c-0.708-0.759-1.259-1.634-1.655-2.625c-0.394-0.992-0.591-2.054-0.591-3.188c0-1.113,0.197-2.16,0.591-3.142
			c0.396-0.981,0.947-1.841,1.655-2.581c0.708-0.738,1.544-1.325,2.504-1.76c0.963-0.436,2.021-0.653,3.173-0.653
			c1.155,0,2.213,0.217,3.173,0.653c0.962,0.435,1.785,1.027,2.476,1.776c0.686,0.749,1.224,1.609,1.608,2.58
			c0.383,0.972,0.577,2.004,0.577,3.097c0,0.162-0.007,0.324-0.016,0.486c-0.011,0.162-0.026,0.273-0.046,0.334h-13.509
			c0.06,0.85,0.259,1.634,0.591,2.352c0.334,0.719,0.759,1.341,1.276,1.867c0.516,0.527,1.112,0.937,1.79,1.229
			c0.679,0.294,1.402,0.44,2.17,0.44c0.526,0,1.042-0.071,1.549-0.212s0.971-0.334,1.396-0.577c0.428-0.243,0.806-0.542,1.14-0.896
			s0.593-0.744,0.774-1.169l1.792,0.486c-0.243,0.587-0.589,1.118-1.033,1.593c-0.444,0.476-0.962,0.891-1.549,1.245
			c-0.586,0.354-1.234,0.628-1.942,0.82C495.407,60.935,494.678,61.031,493.93,61.031z M499.759,51.984
			c-0.062-0.85-0.259-1.625-0.593-2.322c-0.334-0.699-0.759-1.3-1.274-1.807c-0.518-0.505-1.119-0.9-1.808-1.184
			c-0.688-0.283-1.416-0.425-2.186-0.425c-0.768,0-1.498,0.142-2.186,0.425c-0.688,0.284-1.29,0.679-1.806,1.184
			c-0.516,0.506-0.932,1.113-1.245,1.821c-0.314,0.708-0.5,1.478-0.563,2.308H499.759z"/>
	</g>
</g>
<g>
	<path fill="#ECD078" d="M437.914,338.045H1.132c-6.968,0-12.614,5.646-12.614,12.614v118.743c0,6.966,5.646,12.614,12.614,12.614
		h32.747c-0.484-1.021-0.779-2.147-0.779-3.354v-72.982h89.565v72.982c0,1.206-0.292,2.333-0.777,3.354h316.026
		c6.967,0,12.615-5.648,12.615-12.614V350.659C450.529,343.691,444.881,338.045,437.914,338.045z"/>
	<path fill="#542437" d="M99.117,367.859l8.263-12.011c0.493-0.706,0.37-1.647-0.271-2.093c-0.641-0.436-1.562-0.217-2.048,0.494
		l-8.598,12.474c-5.662-2.229-11.95-3.476-18.581-3.476c-6.63,0-12.917,1.247-18.582,3.476L50.71,354.25
		c-0.496-0.711-1.414-0.93-2.054-0.494c-0.641,0.445-0.761,1.38-0.276,2.093l8.274,12.011c-13.152,6.118-22.375,17.743-23.555,31.32
		h89.56C121.488,385.603,112.265,373.978,99.117,367.859z M59.178,386.788c-2.738,0-4.96-2.219-4.96-4.959
		c0-2.734,2.218-4.952,4.96-4.952c2.731,0,4.947,2.218,4.947,4.952C64.13,384.569,61.909,386.788,59.178,386.788z M96.584,386.788
		c-2.729,0-4.95-2.219-4.95-4.959c0-2.734,2.221-4.952,4.95-4.952c2.743,0,4.96,2.218,4.96,4.952
		C101.544,384.569,99.327,386.788,96.584,386.788z"/>
	<path fill="#542437" d="M17.362,405.369c-5.516,0-9.993,4.474-9.993,9.992v40.411c0,5.515,4.478,9.989,9.993,9.989
		c5.519,0,9.987-4.475,9.987-9.989v-40.411C27.35,409.843,22.881,405.369,17.362,405.369z"/>
	<path fill="#542437" d="M122.665,405.681H33.1v72.982c0,1.206,0.295,2.333,0.779,3.354h88.009c0.485-1.021,0.777-2.147,0.777-3.354
		V405.681z"/>
	<path fill="#542437" d="M138.402,405.369c-5.519,0-9.992,4.474-9.992,9.992v40.411c0,5.515,4.474,9.989,9.992,9.989
		c5.517,0,9.991-4.475,9.991-9.989v-40.411C148.394,409.843,143.919,405.369,138.402,405.369z"/>
	<g>
		<path fill="#542437" d="M181.696,403.154l12.854-30.73h2.467l12.855,30.73h-3.246l-3.982-9.608h-13.807l-3.938,9.608H181.696z
			 M195.806,375.973l-6.318,15.192h12.465L195.806,375.973z"/>
		<path fill="#542437" d="M218.961,403.154l-9.176-22.55h3.073l7.748,19.823l7.79-19.823h2.857l-9.176,22.55H218.961z"/>
		<path fill="#542437" d="M240.561,403.587c-1.154,0-2.208-0.181-3.16-0.541s-1.768-0.858-2.445-1.493
			c-0.678-0.634-1.205-1.37-1.58-2.207s-0.563-1.717-0.563-2.641c0-1.039,0.23-1.983,0.692-2.835
			c0.462-0.851,1.111-1.58,1.948-2.186c0.836-0.606,1.839-1.074,3.008-1.406s2.46-0.498,3.874-0.498
			c1.125,0,2.279,0.102,3.463,0.303c1.183,0.202,2.235,0.491,3.159,0.866v-2.035c0-1.99-0.57-3.57-1.71-4.739
			c-1.14-1.168-2.677-1.753-4.609-1.753c-1.212,0-2.417,0.231-3.614,0.692c-1.197,0.462-2.417,1.126-3.657,1.991l-1.038-1.947
			c1.471-0.98,2.899-1.717,4.284-2.208c1.386-0.49,2.828-0.735,4.328-0.735c2.741,0,4.92,0.794,6.536,2.381
			c1.615,1.587,2.424,3.78,2.424,6.578v10.172c0,0.808,0.346,1.212,1.038,1.212v2.597c-0.23,0.028-0.447,0.05-0.648,0.064
			c-0.202,0.015-0.376,0.022-0.52,0.022c-0.578,0-1.104-0.174-1.58-0.52c-0.476-0.347-0.743-0.866-0.801-1.559l-0.086-1.774
			c-0.981,1.327-2.272,2.359-3.874,3.095S242.205,403.587,240.561,403.587z M241.296,401.337c1.299,0,2.59-0.282,3.874-0.845
			c1.283-0.563,2.301-1.334,3.052-2.315c0.201-0.26,0.374-0.541,0.519-0.844s0.217-0.584,0.217-0.844v-3.68
			c-0.981-0.374-2.006-0.663-3.073-0.865c-1.067-0.201-2.106-0.303-3.116-0.303c-2.106,0-3.816,0.426-5.129,1.276
			c-1.313,0.852-1.97,2.027-1.97,3.527c0,0.606,0.115,1.198,0.347,1.774c0.23,0.578,0.584,1.098,1.061,1.559
			c0.476,0.462,1.061,0.837,1.753,1.125C239.521,401.192,240.344,401.337,241.296,401.337z"/>
		<path fill="#542437" d="M258.305,375.887v-4.328h2.943v4.328H258.305z M258.305,403.154v-22.55h2.943v22.55H258.305z"/>
		<path fill="#542437" d="M267.696,371.559h2.943v26.488c0,0.837,0.23,1.493,0.692,1.97c0.462,0.476,1.11,0.714,1.948,0.714
			c0.317,0,0.692-0.043,1.125-0.13s0.837-0.201,1.212-0.347l0.52,2.381c-0.549,0.231-1.22,0.419-2.013,0.563
			c-0.794,0.145-1.479,0.217-2.056,0.217c-1.356,0-2.424-0.382-3.203-1.147c-0.779-0.764-1.169-1.839-1.169-3.224V371.559z"/>
		<path fill="#542437" d="M284.967,403.587c-1.154,0-2.208-0.181-3.16-0.541s-1.768-0.858-2.445-1.493
			c-0.678-0.634-1.205-1.37-1.58-2.207s-0.563-1.717-0.563-2.641c0-1.039,0.23-1.983,0.692-2.835
			c0.462-0.851,1.111-1.58,1.948-2.186c0.836-0.606,1.839-1.074,3.008-1.406s2.46-0.498,3.874-0.498
			c1.125,0,2.279,0.102,3.463,0.303c1.183,0.202,2.235,0.491,3.159,0.866v-2.035c0-1.99-0.57-3.57-1.71-4.739
			c-1.14-1.168-2.677-1.753-4.609-1.753c-1.212,0-2.417,0.231-3.614,0.692c-1.197,0.462-2.417,1.126-3.657,1.991l-1.038-1.947
			c1.471-0.98,2.899-1.717,4.284-2.208c1.386-0.49,2.828-0.735,4.328-0.735c2.741,0,4.92,0.794,6.536,2.381
			c1.615,1.587,2.424,3.78,2.424,6.578v10.172c0,0.808,0.346,1.212,1.038,1.212v2.597c-0.23,0.028-0.447,0.05-0.648,0.064
			c-0.202,0.015-0.376,0.022-0.52,0.022c-0.578,0-1.104-0.174-1.58-0.52c-0.476-0.347-0.743-0.866-0.801-1.559l-0.086-1.774
			c-0.981,1.327-2.272,2.359-3.874,3.095S286.611,403.587,284.967,403.587z M285.702,401.337c1.299,0,2.59-0.282,3.874-0.845
			c1.283-0.563,2.301-1.334,3.052-2.315c0.201-0.26,0.374-0.541,0.519-0.844s0.217-0.584,0.217-0.844v-3.68
			c-0.981-0.374-2.006-0.663-3.073-0.865c-1.067-0.201-2.106-0.303-3.116-0.303c-2.106,0-3.816,0.426-5.129,1.276
			c-1.313,0.852-1.97,2.027-1.97,3.527c0,0.606,0.115,1.198,0.347,1.774c0.23,0.578,0.584,1.098,1.061,1.559
			c0.476,0.462,1.061,0.837,1.753,1.125C283.928,401.192,284.75,401.337,285.702,401.337z"/>
		<path fill="#542437" d="M313.748,403.587c-1.76,0-3.391-0.447-4.891-1.342c-1.501-0.894-2.669-2.048-3.506-3.462v4.371h-2.641
			v-31.596h2.943v13.764c1.01-1.529,2.222-2.763,3.636-3.701c1.414-0.937,3.073-1.406,4.978-1.406c1.559,0,2.972,0.332,4.242,0.995
			c1.269,0.664,2.344,1.552,3.224,2.662c0.88,1.111,1.559,2.366,2.035,3.766c0.476,1.399,0.714,2.835,0.714,4.307
			c0,1.587-0.274,3.088-0.822,4.501c-0.549,1.414-1.306,2.647-2.272,3.701s-2.106,1.89-3.419,2.51
			C316.655,403.276,315.248,403.587,313.748,403.587z M313.056,400.99c1.24,0,2.373-0.252,3.397-0.758
			c1.024-0.504,1.904-1.183,2.641-2.034c0.735-0.851,1.313-1.817,1.731-2.899c0.418-1.082,0.627-2.2,0.627-3.354
			c0-1.183-0.194-2.322-0.584-3.419s-0.938-2.07-1.645-2.922c-0.708-0.851-1.552-1.529-2.532-2.034
			c-0.981-0.505-2.063-0.758-3.246-0.758c-0.895,0-1.731,0.151-2.511,0.455c-0.778,0.303-1.5,0.714-2.164,1.233
			s-1.263,1.118-1.796,1.796c-0.534,0.679-0.974,1.393-1.32,2.143v7.012c0.115,0.779,0.426,1.508,0.931,2.186
			c0.505,0.679,1.118,1.263,1.84,1.753c0.721,0.491,1.485,0.881,2.294,1.169C311.526,400.846,312.305,400.99,313.056,400.99z"/>
		<path fill="#542437" d="M329.502,371.559h2.943v26.488c0,0.837,0.23,1.493,0.692,1.97c0.462,0.476,1.11,0.714,1.948,0.714
			c0.317,0,0.692-0.043,1.125-0.13s0.837-0.201,1.212-0.347l0.52,2.381c-0.549,0.231-1.22,0.419-2.013,0.563
			c-0.794,0.145-1.479,0.217-2.056,0.217c-1.356,0-2.424-0.382-3.203-1.147c-0.779-0.764-1.169-1.839-1.169-3.224V371.559z"/>
		<path fill="#542437" d="M350.668,403.587c-1.646,0-3.16-0.311-4.545-0.931s-2.583-1.472-3.593-2.554s-1.796-2.329-2.358-3.743
			s-0.844-2.929-0.844-4.545c0-1.587,0.281-3.08,0.844-4.479s1.349-2.626,2.358-3.68c1.01-1.053,2.2-1.889,3.571-2.51
			c1.37-0.62,2.878-0.931,4.522-0.931s3.152,0.311,4.523,0.931c1.37,0.621,2.546,1.465,3.527,2.532
			c0.98,1.067,1.745,2.294,2.294,3.679c0.548,1.385,0.822,2.856,0.822,4.415c0,0.23-0.008,0.462-0.021,0.692
			c-0.015,0.231-0.036,0.39-0.065,0.476h-19.26c0.086,1.212,0.367,2.331,0.844,3.354c0.476,1.024,1.082,1.912,1.817,2.662
			c0.736,0.751,1.587,1.335,2.554,1.753c0.967,0.419,1.998,0.628,3.095,0.628c0.75,0,1.486-0.102,2.208-0.304
			c0.721-0.201,1.385-0.476,1.99-0.822c0.606-0.346,1.147-0.771,1.623-1.276c0.477-0.505,0.845-1.061,1.104-1.667l2.554,0.692
			c-0.347,0.838-0.838,1.595-1.472,2.272c-0.636,0.679-1.371,1.271-2.208,1.774c-0.837,0.506-1.76,0.896-2.77,1.169
			C352.773,403.45,351.734,403.587,350.668,403.587z M358.978,390.689c-0.086-1.212-0.368-2.316-0.844-3.312
			c-0.477-0.995-1.082-1.854-1.818-2.575c-0.735-0.721-1.594-1.283-2.575-1.688c-0.98-0.403-2.02-0.605-3.116-0.605
			s-2.136,0.202-3.116,0.605c-0.981,0.405-1.839,0.968-2.575,1.688c-0.735,0.722-1.327,1.587-1.774,2.597
			c-0.448,1.011-0.714,2.106-0.801,3.29H358.978z"/>
		<path fill="#542437" d="M387.024,403.587c-1.646,0-3.153-0.311-4.523-0.931c-1.371-0.62-2.554-1.464-3.549-2.531
			c-0.996-1.067-1.768-2.309-2.315-3.723c-0.549-1.413-0.822-2.9-0.822-4.458c0-1.587,0.281-3.087,0.844-4.501
			s1.342-2.655,2.337-3.723s2.179-1.919,3.549-2.554s2.864-0.952,4.48-0.952c1.615,0,3.108,0.317,4.479,0.952
			c1.37,0.635,2.554,1.486,3.549,2.554c0.996,1.067,1.774,2.309,2.337,3.723c0.563,1.414,0.845,2.914,0.845,4.501
			c0,1.558-0.281,3.045-0.845,4.458c-0.563,1.414-1.341,2.655-2.337,3.723c-0.995,1.067-2.179,1.911-3.549,2.531
			C390.133,403.276,388.64,403.587,387.024,403.587z M378.844,391.987c0,1.271,0.209,2.445,0.628,3.527
			c0.418,1.082,0.995,2.034,1.73,2.857c0.736,0.822,1.602,1.465,2.598,1.926c0.995,0.462,2.056,0.692,3.181,0.692
			c1.126,0,2.187-0.238,3.182-0.714c0.995-0.477,1.868-1.126,2.618-1.948s1.342-1.781,1.774-2.878
			c0.434-1.097,0.649-2.279,0.649-3.549c0-1.241-0.216-2.417-0.649-3.528c-0.433-1.11-1.024-2.077-1.774-2.899
			s-1.616-1.472-2.597-1.948c-0.981-0.476-2.034-0.714-3.159-0.714c-1.126,0-2.187,0.238-3.182,0.714
			c-0.995,0.477-1.861,1.133-2.597,1.97c-0.736,0.837-1.32,1.812-1.753,2.922C379.061,389.528,378.844,390.718,378.844,391.987z"/>
		<path fill="#542437" d="M421.995,403.154h-2.943V390.56c0-2.684-0.39-4.632-1.168-5.844c-0.779-1.212-1.991-1.817-3.636-1.817
			c-0.866,0-1.731,0.159-2.598,0.476c-0.865,0.318-1.674,0.766-2.424,1.342c-0.75,0.578-1.406,1.263-1.969,2.057
			s-0.989,1.651-1.277,2.575v13.807h-2.943v-22.55h2.684v5.107c0.462-0.808,1.031-1.551,1.71-2.229
			c0.678-0.678,1.436-1.262,2.272-1.753c0.836-0.49,1.724-0.865,2.662-1.125c0.937-0.26,1.911-0.39,2.921-0.39
			c1.27,0,2.33,0.231,3.182,0.692c0.851,0.462,1.536,1.111,2.056,1.947c0.52,0.838,0.895,1.861,1.125,3.073
			c0.231,1.212,0.347,2.554,0.347,4.025V403.154z"/>
	</g>
	<g>
		<path fill="#542437" d="M173.671,462.998l20.453-48.896h3.926l20.454,48.896h-5.166l-6.336-15.288h-21.967l-6.268,15.288H173.671z
			 M196.122,419.75l-10.055,24.172H205.9L196.122,419.75z"/>
		<path fill="#542437" d="M254.59,462.998h-4.684v-20.04c0-4.27-0.619-7.369-1.859-9.297c-1.24-1.929-3.168-2.893-5.785-2.893
			c-1.377,0-2.754,0.253-4.133,0.758c-1.377,0.505-2.662,1.217-3.855,2.135c-1.195,0.919-2.238,2.009-3.133,3.271
			c-0.896,1.264-1.574,2.629-2.033,4.098v21.969h-4.682v-35.88h4.27v8.127c0.734-1.285,1.641-2.468,2.721-3.547
			c1.078-1.078,2.283-2.008,3.615-2.789c1.33-0.78,2.742-1.378,4.234-1.791s3.041-0.619,4.648-0.619c2.02,0,3.707,0.367,5.063,1.102
			c1.354,0.735,2.445,1.768,3.271,3.099c0.826,1.332,1.422,2.962,1.789,4.89c0.367,1.929,0.553,4.063,0.553,6.405V462.998z"/>
		<path fill="#542437" d="M279.174,463.687c-2.48,0-4.775-0.517-6.887-1.549c-2.113-1.033-3.938-2.399-5.475-4.098
			c-1.539-1.698-2.732-3.661-3.582-5.889c-0.85-2.227-1.273-4.556-1.273-6.99c0-2.524,0.412-4.924,1.24-7.196
			c0.826-2.272,1.961-4.258,3.408-5.957c1.445-1.698,3.168-3.041,5.164-4.028c1.998-0.987,4.189-1.48,6.578-1.48
			c3.029,0,5.715,0.792,8.057,2.376c2.342,1.583,4.201,3.501,5.578,5.75v-21.899h4.684v44.212c0,1.286,0.551,1.929,1.652,1.929
			v4.132c-0.781,0.138-1.4,0.207-1.859,0.207c-1.148,0-2.09-0.333-2.824-0.999c-0.734-0.665-1.102-1.457-1.102-2.376v-3.787
			c-1.469,2.341-3.408,4.2-5.818,5.578C284.305,462.998,281.791,463.687,279.174,463.687z M280.137,459.555
			c1.193,0,2.445-0.229,3.754-0.688s2.525-1.09,3.65-1.894c1.125-0.803,2.1-1.745,2.926-2.824c0.828-1.078,1.332-2.238,1.516-3.478
			v-11.088c-0.459-1.239-1.137-2.398-2.031-3.478c-0.895-1.078-1.906-2.031-3.029-2.857c-1.127-0.827-2.32-1.47-3.582-1.929
			c-1.264-0.458-2.514-0.688-3.754-0.688c-1.928,0-3.684,0.413-5.268,1.239s-2.928,1.918-4.029,3.271
			c-1.102,1.354-1.963,2.904-2.582,4.648c-0.619,1.745-0.93,3.536-0.93,5.371c0,1.929,0.344,3.766,1.033,5.51
			c0.689,1.745,1.629,3.271,2.824,4.58c1.193,1.308,2.604,2.353,4.234,3.133C276.498,459.165,278.254,459.555,280.137,459.555z"/>
		<path fill="#542437" d="M325.107,431.25c-3.168,0.093-5.924,0.965-8.264,2.617c-2.342,1.653-3.994,3.926-4.959,6.818v22.313
			h-4.684v-35.88h4.408v8.608c1.24-2.524,2.869-4.625,4.889-6.301s4.201-2.514,6.543-2.514c0.414,0,0.803,0,1.17,0
			s0.666,0.023,0.896,0.068V431.25z"/>
		<path fill="#542437" d="M345.217,463.687c-2.617,0-5.016-0.494-7.195-1.48c-2.182-0.986-4.064-2.33-5.648-4.028
			s-2.813-3.673-3.684-5.923c-0.873-2.249-1.309-4.614-1.309-7.094c0-2.524,0.447-4.912,1.342-7.162
			c0.896-2.249,2.137-4.223,3.719-5.922c1.584-1.698,3.467-3.053,5.648-4.063c2.18-1.01,4.555-1.515,7.127-1.515
			c2.57,0,4.947,0.505,7.129,1.515c2.18,1.011,4.063,2.365,5.646,4.063c1.584,1.699,2.824,3.673,3.719,5.922
			c0.895,2.25,1.342,4.638,1.342,7.162c0,2.479-0.447,4.845-1.342,7.094c-0.895,2.25-2.135,4.225-3.719,5.923
			s-3.467,3.042-5.646,4.028C350.164,463.192,347.787,463.687,345.217,463.687z M332.201,445.23c0,2.021,0.332,3.891,0.998,5.612
			s1.584,3.237,2.756,4.546c1.17,1.308,2.547,2.33,4.131,3.064s3.271,1.102,5.063,1.102s3.479-0.379,5.063-1.137
			c1.582-0.757,2.971-1.79,4.166-3.099c1.193-1.309,2.135-2.834,2.822-4.579c0.689-1.745,1.033-3.627,1.033-5.647
			c0-1.974-0.344-3.845-1.033-5.612c-0.688-1.768-1.629-3.306-2.822-4.614c-1.195-1.309-2.572-2.342-4.133-3.1
			c-1.561-0.757-3.236-1.136-5.027-1.136s-3.477,0.379-5.061,1.136c-1.584,0.758-2.963,1.803-4.133,3.134
			c-1.17,1.332-2.1,2.882-2.789,4.648C332.545,441.316,332.201,443.211,332.201,445.23z"/>
		<path fill="#542437" d="M370.697,419.612v-6.887h4.682v6.887H370.697z M370.697,462.998v-35.88h4.682v35.88H370.697z"/>
		<path fill="#542437" d="M400.309,463.687c-2.48,0-4.775-0.517-6.887-1.549c-2.113-1.033-3.938-2.399-5.475-4.098
			c-1.539-1.698-2.732-3.661-3.582-5.889c-0.85-2.227-1.273-4.556-1.273-6.99c0-2.524,0.412-4.924,1.24-7.196
			c0.826-2.272,1.961-4.258,3.408-5.957c1.445-1.698,3.168-3.041,5.164-4.028c1.998-0.987,4.189-1.48,6.578-1.48
			c3.029,0,5.715,0.792,8.057,2.376c2.342,1.583,4.201,3.501,5.578,5.75v-21.899h4.684v44.212c0,1.286,0.551,1.929,1.652,1.929
			v4.132c-0.781,0.138-1.4,0.207-1.859,0.207c-1.148,0-2.09-0.333-2.824-0.999c-0.734-0.665-1.102-1.457-1.102-2.376v-3.787
			c-1.469,2.341-3.408,4.2-5.818,5.578C405.439,462.998,402.926,463.687,400.309,463.687z M401.271,459.555
			c1.193,0,2.445-0.229,3.754-0.688s2.525-1.09,3.65-1.894c1.125-0.803,2.1-1.745,2.926-2.824c0.828-1.078,1.332-2.238,1.516-3.478
			v-11.088c-0.459-1.239-1.137-2.398-2.031-3.478c-0.895-1.078-1.906-2.031-3.029-2.857c-1.127-0.827-2.32-1.47-3.582-1.929
			c-1.264-0.458-2.514-0.688-3.754-0.688c-1.928,0-3.684,0.413-5.268,1.239s-2.928,1.918-4.029,3.271
			c-1.102,1.354-1.963,2.904-2.582,4.648c-0.619,1.745-0.93,3.536-0.93,5.371c0,1.929,0.344,3.766,1.033,5.51
			c0.689,1.745,1.629,3.271,2.824,4.58c1.193,1.308,2.604,2.353,4.234,3.133C397.633,459.165,399.389,459.555,401.271,459.555z"/>
	</g>
</g>
</svg>
