<?xml version="1.0" encoding="utf-8"?>
<!-- Generator: Adobe Illustrator 16.0.0, SVG Export Plug-In . SVG Version: 6.00 Build 0)  -->
<!DOCTYPE svg PUBLIC "-//W3C//DTD SVG 1.1//EN" "http://www.w3.org/Graphics/SVG/1.1/DTD/svg11.dtd">
<svg version="1.1" id="Layer_1" xmlns="http://www.w3.org/2000/svg" xmlns:xlink="http://www.w3.org/1999/xlink" x="0px" y="0px"
	 width="394.623px" height="122.973px" viewBox="0 0 394.623 122.973" enable-background="new 0 0 394.623 122.973"
	 xml:space="preserve">
<g>
	<path fill="#ECD078" d="M394.623,112.197c0,5.951-4.825,10.775-10.775,10.775H10.775C4.823,122.973,0,118.148,0,112.197V10.776
		C0,4.823,4.823,0,10.775,0h373.073c5.951,0,10.775,4.823,10.775,10.776V112.197z"/>
	<path fill="#542437" d="M104.478,43.143c-4.062-5.038-9.52-10.077-17.919-10.077c-5.878,0-10.78,5.739-18.9,5.739
		c-6.439,0-9.099-5.459-16.099-5.459C37,33.345,22.58,46.364,22.58,63.303c0,8.959,2.939,22.819,9.52,34.857
		c4.759,8.819,10.639,14.56,17.22,14.56c4.759,0,10.359-4.341,17.078-4.341c5.878,0,11.34,3.921,16.659,3.921
		c12.74,0,24.501-16.519,24.501-27.579c0-0.56-0.14-0.979-0.14-1.399v-0.699c-8.261-4.48-12.743-11.059-12.743-20.577
		c0-7.699,3.362-14.421,9.52-18.76L104.478,43.143L104.478,43.143z"/>
	<path fill="#542437" d="M67.368,36.991c9.52-2.941,18.341-10.08,18.341-22.539c0-0.98-0.14-2.241-0.282-3.641l-0.14-0.561
		c-9.66,2.661-18.337,10.22-18.337,22.119c0,1.121,0.14,2.521,0.418,4.061V36.991L67.368,36.991z"/>
	<g>
		<path fill="#542437" d="M124.066,97.522l16.43-39.277h3.154l16.43,39.277h-4.149l-5.089-12.281h-17.647l-5.034,12.281H124.066z
			 M142.101,62.781l-8.077,19.418h15.932L142.101,62.781z"/>
		<path fill="#542437" d="M179.607,98.076c-2.434,0-4.59-0.618-6.472-1.854c-1.882-1.234-3.395-2.794-4.538-4.673v17.757h-3.761
			V68.7h3.375v5.587c1.18-1.806,2.71-3.273,4.591-4.399c1.881-1.124,3.928-1.686,6.141-1.686c1.991,0,3.825,0.415,5.504,1.244
			c1.678,0.831,3.126,1.937,4.343,3.319c1.217,1.383,2.167,2.979,2.848,4.786c0.682,1.807,1.023,3.669,1.023,5.587
			c0,2.028-0.314,3.946-0.94,5.753c-0.627,1.808-1.521,3.394-2.684,4.759c-1.161,1.364-2.544,2.443-4.149,3.235
			C183.285,97.679,181.524,98.076,179.607,98.076z M178.556,94.756c1.549,0,2.951-0.331,4.205-0.995
			c1.252-0.664,2.333-1.539,3.237-2.628c0.902-1.087,1.594-2.322,2.074-3.705c0.479-1.384,0.719-2.812,0.719-4.288
			c0-1.549-0.277-3.024-0.831-4.426c-0.553-1.401-1.309-2.637-2.268-3.705c-0.958-1.069-2.094-1.918-3.402-2.547
			c-1.31-0.625-2.72-0.939-4.233-0.939c-0.959,0-1.955,0.194-2.987,0.582s-2.01,0.904-2.931,1.549
			c-0.923,0.644-1.707,1.403-2.352,2.269c-0.646,0.866-1.042,1.779-1.19,2.738v8.852c0.443,1.032,1.005,1.992,1.688,2.876
			c0.682,0.885,1.457,1.65,2.324,2.297c0.866,0.646,1.807,1.152,2.821,1.521C176.446,94.573,177.486,94.756,178.556,94.756z"/>
		<path fill="#542437" d="M213.628,98.076c-2.434,0-4.591-0.618-6.471-1.854c-1.881-1.234-3.394-2.794-4.537-4.673v17.757h-3.762
			V68.7h3.375v5.587c1.18-1.806,2.71-3.273,4.592-4.399c1.881-1.124,3.928-1.686,6.142-1.686c1.991,0,3.824,0.415,5.503,1.244
			c1.678,0.831,3.126,1.937,4.343,3.319c1.217,1.383,2.165,2.979,2.848,4.786c0.682,1.807,1.023,3.669,1.023,5.587
			c0,2.028-0.313,3.946-0.94,5.753c-0.627,1.808-1.521,3.394-2.683,4.759c-1.161,1.364-2.543,2.443-4.149,3.235
			C217.309,97.679,215.547,98.076,213.628,98.076z M212.578,94.756c1.549,0,2.951-0.331,4.204-0.995
			c1.253-0.664,2.333-1.539,3.237-2.628c0.903-1.087,1.595-2.322,2.074-3.705c0.48-1.384,0.72-2.812,0.72-4.288
			c0-1.549-0.277-3.024-0.831-4.426c-0.553-1.401-1.31-2.637-2.268-3.705c-0.959-1.069-2.093-1.918-3.404-2.547
			c-1.309-0.625-2.718-0.939-4.231-0.939c-0.959,0-1.955,0.194-2.987,0.582c-1.033,0.387-2.01,0.904-2.933,1.549
			c-0.923,0.644-1.707,1.403-2.351,2.269c-0.646,0.866-1.042,1.779-1.189,2.738v8.852c0.443,1.032,1.005,1.992,1.687,2.876
			c0.683,0.885,1.458,1.65,2.324,2.297c0.866,0.646,1.807,1.152,2.822,1.521C210.466,94.573,211.507,94.756,212.578,94.756z"/>
		<path fill="#542437" d="M271.051,65.603c-1.106-1.253-2.593-2.268-4.454-3.042s-3.955-1.162-6.277-1.162
			c-3.505,0-6.05,0.656-7.635,1.963c-1.587,1.311-2.379,3.091-2.379,5.34c0,1.18,0.211,2.149,0.636,2.903
			c0.425,0.757,1.087,1.412,1.993,1.964c0.903,0.553,2.046,1.034,3.43,1.439c1.383,0.405,3.013,0.81,4.894,1.215
			c2.103,0.443,3.983,0.932,5.643,1.466c1.661,0.536,3.079,1.216,4.26,2.047c1.18,0.831,2.084,1.845,2.712,3.042
			c0.626,1.199,0.939,2.684,0.939,4.453c0,1.808-0.352,3.375-1.052,4.702c-0.7,1.328-1.678,2.434-2.932,3.319
			c-1.254,0.885-2.748,1.539-4.479,1.963c-1.734,0.425-3.616,0.637-5.643,0.637c-6.161,0-11.416-1.899-15.767-5.698l1.881-3.153
			c1.438,1.512,3.375,2.792,5.808,3.844c2.435,1.052,5.146,1.578,8.132,1.578c3.134,0,5.588-0.562,7.358-1.688
			c1.771-1.123,2.655-2.83,2.655-5.117c0-1.217-0.25-2.24-0.746-3.069c-0.499-0.83-1.245-1.551-2.242-2.157
			c-0.995-0.609-2.24-1.134-3.734-1.577c-1.492-0.443-3.218-0.886-5.171-1.327c-2.065-0.48-3.872-0.978-5.421-1.494
			c-1.549-0.517-2.849-1.162-3.9-1.936c-1.052-0.775-1.845-1.707-2.38-2.795c-0.534-1.088-0.8-2.424-0.8-4.01
			c0-1.807,0.339-3.42,1.022-4.84c0.681-1.419,1.639-2.601,2.875-3.541c1.236-0.939,2.711-1.659,4.425-2.157
			c1.714-0.497,3.605-0.746,5.671-0.746c2.58,0,4.896,0.396,6.941,1.189c2.047,0.793,3.901,1.908,5.561,3.347L271.051,65.603z"/>
		<path fill="#542437" d="M294.231,96.14c-0.223,0.109-0.545,0.258-0.969,0.442c-0.424,0.186-0.912,0.369-1.466,0.553
			c-0.553,0.186-1.18,0.352-1.88,0.498c-0.701,0.147-1.438,0.221-2.213,0.221c-0.813,0-1.587-0.11-2.324-0.331
			c-0.738-0.222-1.383-0.562-1.936-1.022s-0.997-1.042-1.329-1.744c-0.33-0.699-0.496-1.511-0.496-2.434V71.687h-3.984V68.7h3.984
			v-9.736h3.761V68.7h6.64v2.987h-6.64v19.583c0.074,1.071,0.442,1.854,1.107,2.353c0.662,0.497,1.457,0.745,2.377,0.745
			c1.069,0,2.011-0.173,2.821-0.524c0.811-0.351,1.329-0.599,1.55-0.747L294.231,96.14z"/>
		<path fill="#542437" d="M310.495,98.076c-2.102,0-4.03-0.397-5.781-1.19c-1.751-0.792-3.263-1.871-4.537-3.235
			c-1.272-1.365-2.259-2.95-2.958-4.759c-0.702-1.807-1.053-3.707-1.053-5.698c0-2.026,0.361-3.945,1.08-5.752
			c0.719-1.808,1.714-3.394,2.987-4.759c1.271-1.364,2.783-2.452,4.537-3.263c1.751-0.812,3.658-1.217,5.725-1.217
			c2.065,0,3.976,0.405,5.727,1.217s3.264,1.9,4.537,3.263c1.272,1.365,2.268,2.951,2.986,4.759
			c0.719,1.807,1.078,3.724,1.078,5.752c0,1.991-0.359,3.892-1.078,5.698c-0.719,1.808-1.714,3.394-2.986,4.759
			c-1.274,1.364-2.785,2.443-4.537,3.235C314.47,97.679,312.561,98.076,310.495,98.076z M300.038,83.25
			c0,1.623,0.268,3.125,0.803,4.507c0.534,1.384,1.273,2.602,2.214,3.653c0.939,1.051,2.047,1.871,3.318,2.463
			c1.271,0.589,2.628,0.884,4.065,0.884c1.439,0,2.794-0.303,4.066-0.912c1.273-0.609,2.388-1.438,3.349-2.489
			c0.957-1.051,1.714-2.278,2.268-3.68c0.552-1.4,0.83-2.912,0.83-4.536c0-1.587-0.277-3.089-0.83-4.509
			c-0.554-1.419-1.31-2.656-2.268-3.707c-0.961-1.052-2.066-1.88-3.32-2.489c-1.254-0.61-2.601-0.913-4.038-0.913
			s-2.793,0.303-4.066,0.913c-1.272,0.608-2.378,1.448-3.318,2.517c-0.94,1.069-1.688,2.313-2.24,3.733
			C300.316,80.105,300.038,81.627,300.038,83.25z"/>
		<path fill="#542437" d="M345.346,72.02c-2.544,0.075-4.757,0.774-6.638,2.103c-1.882,1.328-3.209,3.152-3.983,5.476v17.924h-3.762
			V68.7h3.541v6.915c0.995-2.027,2.304-3.714,3.928-5.062c1.621-1.344,3.375-2.018,5.256-2.018c0.33,0,0.645,0,0.939,0
			s0.534,0.017,0.719,0.054V72.02L345.346,72.02z"/>
		<path fill="#542437" d="M362.994,98.076c-2.103,0-4.039-0.397-5.809-1.19c-1.771-0.792-3.3-1.88-4.592-3.263
			c-1.291-1.383-2.296-2.978-3.016-4.785c-0.718-1.809-1.077-3.743-1.077-5.81c0-2.028,0.359-3.937,1.077-5.726
			c0.72-1.788,1.725-3.355,3.016-4.703c1.292-1.345,2.812-2.415,4.564-3.208c1.75-0.792,3.679-1.189,5.781-1.189
			s4.029,0.397,5.781,1.189c1.751,0.793,3.254,1.872,4.508,3.236c1.253,1.365,2.231,2.932,2.933,4.702
			c0.699,1.771,1.052,3.652,1.052,5.643c0,0.296-0.01,0.591-0.029,0.886c-0.019,0.296-0.045,0.497-0.082,0.607h-24.617
			c0.109,1.55,0.47,2.979,1.078,4.288c0.61,1.309,1.384,2.444,2.324,3.402c0.94,0.96,2.028,1.708,3.264,2.242
			s2.555,0.801,3.956,0.801c0.958,0,1.898-0.13,2.821-0.388c0.921-0.257,1.77-0.609,2.545-1.052
			c0.772-0.442,1.465-0.985,2.074-1.632c0.607-0.644,1.078-1.355,1.41-2.13l3.263,0.887c-0.442,1.069-1.069,2.037-1.88,2.903
			s-1.752,1.623-2.82,2.269c-1.07,0.646-2.251,1.145-3.541,1.494C365.686,97.9,364.357,98.076,362.994,98.076z M373.615,81.59
			c-0.109-1.549-0.471-2.959-1.079-4.231c-0.607-1.273-1.384-2.37-2.322-3.292c-0.941-0.921-2.04-1.641-3.292-2.156
			c-1.255-0.517-2.583-0.775-3.982-0.775c-1.401,0-2.729,0.258-3.984,0.775c-1.252,0.516-2.35,1.236-3.29,2.156
			c-0.941,0.923-1.697,2.029-2.269,3.319c-0.572,1.292-0.913,2.693-1.023,4.204H373.615z"/>
	</g>
	<g>
		<path fill="#542437" d="M131.661,45.792l6.798-16.253h1.306l6.798,16.253h-1.716l-2.106-5.082h-7.302l-2.083,5.082H131.661z
			 M139.123,31.417l-3.342,8.034h6.593L139.123,31.417z"/>
		<path fill="#542437" d="M151.371,45.792l-4.854-11.926h1.625l4.098,10.483l4.12-10.483h1.512l-4.853,11.926H151.371z"/>
		<path fill="#542437" d="M162.794,46.021c-0.611,0-1.168-0.096-1.672-0.286c-0.504-0.19-0.935-0.455-1.293-0.79
			c-0.359-0.334-0.637-0.724-0.835-1.167c-0.198-0.443-0.297-0.908-0.297-1.396c0-0.549,0.121-1.05,0.365-1.499
			c0.245-0.45,0.588-0.835,1.03-1.156c0.443-0.321,0.974-0.569,1.591-0.745c0.618-0.175,1.3-0.263,2.048-0.263
			c0.595,0,1.206,0.054,1.831,0.16c0.626,0.107,1.183,0.26,1.671,0.458V38.26c0-1.053-0.302-1.889-0.904-2.507
			c-0.603-0.618-1.416-0.927-2.438-0.927c-0.642,0-1.279,0.122-1.912,0.366s-1.278,0.595-1.934,1.053l-0.549-1.03
			c0.778-0.519,1.533-0.907,2.266-1.167c0.732-0.259,1.495-0.389,2.289-0.389c1.45,0,2.601,0.42,3.457,1.259
			c0.854,0.839,1.282,2,1.282,3.479v5.379c0,0.427,0.183,0.641,0.549,0.641v1.374c-0.122,0.015-0.236,0.026-0.343,0.034
			c-0.107,0.007-0.199,0.012-0.275,0.012c-0.305,0-0.583-0.092-0.834-0.275c-0.252-0.183-0.393-0.458-0.424-0.824l-0.046-0.938
			c-0.519,0.702-1.202,1.247-2.048,1.636C164.522,45.826,163.663,46.021,162.794,46.021z M163.183,44.83
			c0.687,0,1.369-0.149,2.048-0.446c0.679-0.298,1.217-0.706,1.615-1.225c0.107-0.137,0.198-0.286,0.274-0.447
			c0.077-0.16,0.116-0.309,0.116-0.446v-1.945c-0.52-0.199-1.061-0.351-1.626-0.458c-0.565-0.106-1.114-0.16-1.648-0.16
			c-1.114,0-2.018,0.226-2.712,0.676s-1.042,1.072-1.042,1.866c0,0.32,0.061,0.633,0.184,0.939c0.122,0.305,0.309,0.58,0.56,0.824
			c0.252,0.245,0.562,0.443,0.928,0.595S162.678,44.83,163.183,44.83z"/>
		<path fill="#542437" d="M172.178,31.37v-2.289h1.557v2.289H172.178z M172.178,45.792V33.866h1.557v11.926H172.178z"/>
		<path fill="#542437" d="M177.146,29.081h1.557v14.01c0,0.442,0.122,0.79,0.366,1.042c0.243,0.251,0.587,0.376,1.03,0.376
			c0.167,0,0.366-0.022,0.594-0.068c0.23-0.046,0.443-0.107,0.642-0.184l0.274,1.259c-0.29,0.123-0.645,0.221-1.064,0.297
			s-0.783,0.115-1.086,0.115c-0.719,0-1.283-0.202-1.694-0.606c-0.412-0.405-0.619-0.974-0.619-1.706V29.081L177.146,29.081z"/>
		<path fill="#542437" d="M186.28,46.021c-0.611,0-1.168-0.096-1.672-0.286c-0.503-0.19-0.935-0.455-1.293-0.79
			c-0.359-0.334-0.637-0.724-0.835-1.167c-0.199-0.443-0.298-0.908-0.298-1.396c0-0.549,0.122-1.05,0.365-1.499
			c0.245-0.45,0.588-0.835,1.03-1.156c0.443-0.321,0.974-0.569,1.591-0.745c0.619-0.175,1.301-0.263,2.049-0.263
			c0.595,0,1.206,0.054,1.832,0.16c0.625,0.107,1.182,0.26,1.671,0.458V38.26c0-1.053-0.302-1.889-0.904-2.507
			c-0.604-0.618-1.417-0.927-2.438-0.927c-0.642,0-1.279,0.122-1.912,0.366c-0.633,0.244-1.278,0.595-1.934,1.053l-0.549-1.03
			c0.777-0.519,1.533-0.907,2.266-1.167c0.733-0.259,1.495-0.389,2.289-0.389c1.45,0,2.601,0.42,3.456,1.259
			c0.854,0.839,1.282,2,1.282,3.479v5.379c0,0.427,0.182,0.641,0.549,0.641v1.374c-0.122,0.015-0.236,0.026-0.343,0.034
			c-0.107,0.007-0.198,0.012-0.275,0.012c-0.305,0-0.582-0.092-0.834-0.275c-0.252-0.183-0.393-0.458-0.425-0.824l-0.045-0.938
			c-0.519,0.702-1.202,1.247-2.049,1.636C188.008,45.824,187.148,46.021,186.28,46.021z M186.669,44.83
			c0.686,0,1.369-0.149,2.049-0.446c0.678-0.298,1.217-0.706,1.614-1.225c0.107-0.137,0.198-0.286,0.273-0.447
			c0.078-0.16,0.116-0.309,0.116-0.446v-1.945c-0.52-0.199-1.061-0.351-1.626-0.458c-0.564-0.106-1.114-0.16-1.648-0.16
			c-1.115,0-2.018,0.226-2.713,0.676c-0.694,0.45-1.042,1.072-1.042,1.866c0,0.32,0.061,0.633,0.184,0.939
			c0.121,0.305,0.309,0.58,0.56,0.824c0.252,0.245,0.562,0.443,0.927,0.595C185.731,44.754,186.165,44.83,186.669,44.83z"/>
		<path fill="#542437" d="M201.501,46.021c-0.931,0-1.794-0.236-2.587-0.71c-0.794-0.472-1.412-1.083-1.854-1.831v2.312h-1.397
			V29.081h1.557v7.28c0.534-0.81,1.175-1.461,1.924-1.958c0.747-0.497,1.624-0.744,2.632-0.744c0.824,0,1.57,0.175,2.243,0.526
			c0.671,0.351,1.241,0.82,1.706,1.408c0.464,0.587,0.824,1.251,1.076,1.991s0.377,1.5,0.377,2.278c0,0.839-0.144,1.633-0.433,2.38
			c-0.29,0.748-0.691,1.4-1.204,1.958c-0.51,0.557-1.113,1-1.808,1.328C203.039,45.856,202.294,46.021,201.501,46.021z
			 M201.135,44.647c0.656,0,1.255-0.134,1.797-0.401c0.542-0.267,1.008-0.625,1.397-1.076c0.388-0.45,0.694-0.961,0.915-1.534
			c0.222-0.572,0.332-1.164,0.332-1.774c0-0.625-0.104-1.228-0.309-1.808c-0.206-0.58-0.496-1.095-0.871-1.545
			c-0.374-0.45-0.82-0.809-1.337-1.075c-0.52-0.267-1.092-0.401-1.718-0.401c-0.474,0-0.915,0.08-1.328,0.24
			c-0.412,0.161-0.794,0.377-1.146,0.652c-0.351,0.274-0.667,0.592-0.949,0.949c-0.283,0.359-0.516,0.737-0.699,1.133v3.708
			c0.061,0.413,0.225,0.798,0.492,1.156c0.267,0.359,0.59,0.668,0.973,0.927c0.381,0.259,0.785,0.465,1.212,0.618
			C200.325,44.57,200.738,44.647,201.135,44.647z"/>
		<path fill="#542437" d="M209.833,29.081h1.556v14.01c0,0.442,0.123,0.79,0.368,1.042c0.243,0.251,0.586,0.376,1.028,0.376
			c0.169,0,0.367-0.022,0.596-0.068c0.228-0.046,0.442-0.107,0.641-0.184l0.275,1.259c-0.29,0.123-0.646,0.221-1.064,0.297
			c-0.42,0.077-0.782,0.115-1.088,0.115c-0.717,0-1.281-0.202-1.693-0.606c-0.413-0.405-0.619-0.974-0.619-1.706V29.081
			L209.833,29.081z"/>
		<path fill="#542437" d="M221.027,46.021c-0.87,0-1.671-0.165-2.403-0.493c-0.732-0.328-1.367-0.778-1.901-1.351
			c-0.534-0.572-0.949-1.232-1.248-1.979c-0.297-0.749-0.446-1.549-0.446-2.404c0-0.839,0.148-1.629,0.446-2.37
			c0.299-0.739,0.714-1.388,1.248-1.946c0.534-0.556,1.164-0.999,1.888-1.327c0.727-0.329,1.523-0.492,2.393-0.492
			c0.871,0,1.668,0.164,2.393,0.492c0.725,0.328,1.346,0.774,1.866,1.339c0.518,0.564,0.923,1.213,1.213,1.945
			c0.289,0.733,0.435,1.511,0.435,2.335c0,0.123-0.005,0.245-0.012,0.367c-0.008,0.122-0.02,0.206-0.035,0.252h-10.186
			c0.045,0.641,0.195,1.231,0.445,1.773c0.252,0.542,0.573,1.011,0.963,1.408c0.389,0.397,0.838,0.706,1.349,0.927
			c0.513,0.222,1.058,0.332,1.636,0.332c0.396,0,0.786-0.054,1.168-0.16c0.381-0.107,0.732-0.252,1.053-0.436
			c0.322-0.184,0.608-0.409,0.86-0.676c0.252-0.267,0.446-0.561,0.583-0.881l1.352,0.366c-0.184,0.443-0.444,0.844-0.779,1.201
			c-0.335,0.359-0.726,0.672-1.168,0.939s-0.93,0.474-1.465,0.619C222.142,45.949,221.591,46.021,221.027,46.021z M225.422,39.199
			c-0.046-0.641-0.195-1.225-0.447-1.75c-0.251-0.527-0.572-0.981-0.96-1.363c-0.391-0.381-0.844-0.679-1.363-0.893
			c-0.519-0.213-1.068-0.32-1.649-0.32c-0.579,0-1.129,0.107-1.648,0.32c-0.518,0.214-0.972,0.512-1.362,0.893
			c-0.389,0.381-0.702,0.839-0.938,1.373c-0.236,0.534-0.377,1.114-0.424,1.74H225.422z"/>
		<path fill="#542437" d="M240.255,46.021c-0.87,0-1.667-0.165-2.393-0.493c-0.723-0.328-1.349-0.774-1.876-1.339
			c-0.525-0.564-0.935-1.221-1.225-1.968c-0.29-0.748-0.435-1.535-0.435-2.358c0-0.839,0.15-1.632,0.448-2.38
			c0.296-0.748,0.708-1.404,1.235-1.969c0.529-0.565,1.153-1.016,1.876-1.352c0.726-0.335,1.516-0.503,2.369-0.503
			c0.856,0,1.646,0.168,2.371,0.503c0.725,0.336,1.35,0.786,1.876,1.352c0.526,0.564,0.938,1.221,1.237,1.969
			c0.297,0.748,0.445,1.541,0.445,2.38c0,0.824-0.148,1.61-0.445,2.358c-0.299,0.748-0.71,1.404-1.237,1.968
			c-0.527,0.565-1.151,1.011-1.876,1.339C241.9,45.856,241.112,46.021,240.255,46.021z M235.93,39.886
			c0,0.672,0.109,1.293,0.332,1.866c0.22,0.572,0.524,1.076,0.916,1.511c0.388,0.435,0.845,0.775,1.373,1.019
			c0.527,0.244,1.086,0.366,1.683,0.366c0.593,0,1.156-0.125,1.681-0.377c0.528-0.252,0.988-0.596,1.384-1.031
			c0.398-0.434,0.711-0.942,0.94-1.521c0.229-0.58,0.343-1.205,0.343-1.877c0-0.656-0.114-1.278-0.343-1.865
			c-0.229-0.587-0.542-1.1-0.94-1.534c-0.396-0.435-0.854-0.779-1.373-1.03c-0.518-0.252-1.076-0.378-1.671-0.378
			c-0.594,0-1.157,0.126-1.681,0.378c-0.527,0.251-0.985,0.599-1.375,1.042c-0.389,0.443-0.697,0.958-0.926,1.545
			C236.044,38.585,235.93,39.214,235.93,39.886z"/>
		<path fill="#542437" d="M258.751,45.792h-1.556V39.13c0-1.419-0.207-2.449-0.617-3.09c-0.413-0.641-1.054-0.961-1.924-0.961
			c-0.459,0-0.916,0.083-1.373,0.252c-0.458,0.168-0.886,0.405-1.283,0.709c-0.396,0.306-0.743,0.667-1.041,1.087
			s-0.523,0.874-0.675,1.362v7.303h-1.556V33.866h1.419v2.701c0.244-0.427,0.546-0.82,0.904-1.179s0.759-0.667,1.2-0.926
			c0.442-0.26,0.914-0.458,1.408-0.595c0.496-0.138,1.012-0.206,1.545-0.206c0.673,0,1.234,0.122,1.684,0.366
			c0.449,0.244,0.813,0.587,1.088,1.03c0.272,0.442,0.472,0.984,0.592,1.625c0.122,0.641,0.184,1.351,0.184,2.129V45.792
			L258.751,45.792z"/>
		<path fill="#542437" d="M273.606,45.219c-0.092,0.046-0.225,0.107-0.398,0.183c-0.176,0.077-0.377,0.153-0.607,0.229
			c-0.229,0.076-0.487,0.145-0.779,0.206c-0.29,0.062-0.595,0.092-0.914,0.092c-0.336,0-0.657-0.046-0.961-0.137
			c-0.306-0.093-0.572-0.232-0.802-0.424c-0.229-0.191-0.412-0.432-0.55-0.721c-0.137-0.29-0.205-0.626-0.205-1.007v-8.539h-1.648
			v-1.235h1.648v-4.029h1.557v4.029h2.746v1.235h-2.746v8.104c0.03,0.442,0.183,0.767,0.457,0.973s0.604,0.31,0.984,0.31
			c0.443,0,0.832-0.073,1.168-0.217c0.334-0.145,0.549-0.249,0.641-0.31L273.606,45.219z"/>
		<path fill="#542437" d="M285.464,45.792h-1.555V39.13c0-1.358-0.233-2.373-0.7-3.045c-0.466-0.671-1.146-1.007-2.049-1.007
			c-0.441,0-0.88,0.088-1.315,0.264c-0.434,0.175-0.842,0.416-1.226,0.721c-0.383,0.305-0.711,0.664-0.994,1.076
			c-0.283,0.413-0.492,0.863-0.63,1.351v7.302h-1.556V29.081h1.556v7.485c0.488-0.899,1.152-1.61,1.993-2.128
			c0.838-0.519,1.739-0.778,2.7-0.778c0.688,0,1.271,0.126,1.752,0.377c0.48,0.252,0.868,0.603,1.168,1.053
			c0.297,0.451,0.514,0.992,0.652,1.626c0.136,0.633,0.203,1.332,0.203,2.093V45.792L285.464,45.792z"/>
		<path fill="#542437" d="M293.913,46.021c-0.871,0-1.672-0.165-2.404-0.493c-0.731-0.328-1.366-0.778-1.9-1.351
			c-0.536-0.572-0.952-1.232-1.248-1.979s-0.447-1.549-0.447-2.404c0-0.839,0.15-1.629,0.447-2.37
			c0.298-0.739,0.712-1.388,1.248-1.946c0.534-0.556,1.163-0.999,1.889-1.327c0.724-0.329,1.521-0.492,2.393-0.492
			c0.869,0,1.666,0.164,2.393,0.492c0.724,0.328,1.346,0.774,1.865,1.339c0.519,0.564,0.923,1.213,1.212,1.945
			c0.291,0.733,0.436,1.511,0.436,2.335c0,0.123-0.003,0.245-0.012,0.367c-0.01,0.122-0.019,0.206-0.033,0.252h-10.189
			c0.048,0.641,0.196,1.231,0.448,1.773s0.571,1.011,0.96,1.408c0.391,0.397,0.84,0.706,1.352,0.927
			c0.511,0.222,1.056,0.332,1.638,0.332c0.396,0,0.785-0.054,1.167-0.16c0.38-0.107,0.731-0.252,1.054-0.436
			c0.319-0.184,0.607-0.409,0.858-0.676c0.251-0.267,0.446-0.561,0.581-0.881l1.353,0.366c-0.183,0.443-0.441,0.844-0.778,1.201
			c-0.336,0.359-0.725,0.672-1.167,0.939c-0.443,0.267-0.931,0.474-1.466,0.619C295.026,45.949,294.476,46.021,293.913,46.021z
			 M298.308,39.199c-0.045-0.641-0.196-1.225-0.445-1.75c-0.253-0.527-0.574-0.981-0.963-1.363
			c-0.389-0.381-0.842-0.679-1.361-0.893c-0.519-0.213-1.069-0.32-1.648-0.32c-0.581,0-1.13,0.107-1.648,0.32
			c-0.519,0.214-0.973,0.512-1.363,0.893c-0.389,0.381-0.702,0.839-0.938,1.373c-0.236,0.534-0.38,1.114-0.425,1.74H298.308z"/>
		<path fill="#542437" d="M307.988,31.37v-2.289h1.559v2.289H307.988z M307.988,45.792V33.866h1.559v11.926H307.988z"/>
		<path fill="#542437" d="M313.278,45.792V29.539h6.729c0.703,0,1.346,0.148,1.934,0.447c0.586,0.297,1.096,0.687,1.522,1.167
			c0.428,0.481,0.759,1.027,0.996,1.637c0.236,0.611,0.354,1.228,0.354,1.854c0,0.672-0.109,1.317-0.329,1.935
			c-0.223,0.618-0.54,1.163-0.951,1.636c-0.413,0.473-0.904,0.855-1.477,1.145c-0.572,0.291-1.21,0.436-1.911,0.436h-5.288v5.998
			L313.278,45.792L313.278,45.792z M314.857,38.375h5.195c0.474,0,0.903-0.104,1.296-0.309c0.388-0.206,0.72-0.481,0.994-0.824
			c0.274-0.344,0.487-0.74,0.641-1.19s0.229-0.92,0.229-1.408c0-0.504-0.088-0.98-0.264-1.43s-0.412-0.843-0.709-1.179
			c-0.299-0.336-0.647-0.599-1.052-0.79c-0.406-0.19-0.83-0.286-1.273-0.286h-5.058V38.375z"/>
		<path fill="#542437" d="M337.13,45.792h-1.557V39.13c0-1.358-0.233-2.373-0.698-3.045c-0.465-0.671-1.147-1.007-2.049-1.007
			c-0.443,0-0.881,0.088-1.316,0.264c-0.435,0.175-0.844,0.416-1.225,0.721c-0.381,0.305-0.712,0.664-0.995,1.076
			c-0.283,0.413-0.492,0.863-0.629,1.351v7.302h-1.558V29.081h1.558v7.485c0.487-0.899,1.15-1.61,1.99-2.128
			c0.84-0.519,1.74-0.778,2.701-0.778c0.688,0,1.271,0.126,1.751,0.377c0.481,0.252,0.871,0.603,1.169,1.053
			c0.297,0.451,0.515,0.992,0.651,1.626c0.138,0.633,0.206,1.332,0.206,2.093V45.792L337.13,45.792z"/>
		<path fill="#542437" d="M345.509,46.021c-0.871,0-1.669-0.165-2.393-0.493c-0.727-0.328-1.352-0.774-1.877-1.339
			c-0.527-0.564-0.937-1.221-1.226-1.968c-0.289-0.749-0.435-1.535-0.435-2.358c0-0.839,0.148-1.632,0.445-2.38
			c0.3-0.748,0.711-1.404,1.238-1.969c0.525-0.565,1.15-1.016,1.877-1.352c0.724-0.335,1.514-0.503,2.37-0.503
			c0.854,0,1.643,0.168,2.368,0.503c0.725,0.336,1.352,0.786,1.876,1.352c0.528,0.564,0.94,1.221,1.237,1.969
			c0.299,0.748,0.447,1.541,0.447,2.38c0,0.824-0.148,1.61-0.447,2.358c-0.297,0.748-0.708,1.404-1.237,1.968
			c-0.524,0.565-1.151,1.011-1.876,1.339C347.151,45.856,346.362,46.021,345.509,46.021z M341.181,39.886
			c0,0.672,0.111,1.293,0.332,1.866c0.222,0.572,0.527,1.076,0.916,1.511c0.391,0.435,0.848,0.775,1.374,1.019
			c0.525,0.244,1.086,0.366,1.681,0.366c0.597,0,1.157-0.125,1.684-0.377c0.524-0.252,0.988-0.596,1.386-1.031
			c0.396-0.434,0.708-0.942,0.937-1.521c0.23-0.58,0.343-1.205,0.343-1.877c0-0.656-0.112-1.278-0.343-1.865
			c-0.229-0.587-0.541-1.1-0.937-1.534c-0.397-0.435-0.856-0.779-1.373-1.03c-0.521-0.252-1.076-0.378-1.672-0.378
			s-1.156,0.126-1.684,0.378c-0.525,0.251-0.984,0.599-1.373,1.042s-0.698,0.958-0.927,1.545
			C341.296,38.585,341.181,39.214,341.181,39.886z"/>
		<path fill="#542437" d="M364.005,45.792h-1.559V39.13c0-1.419-0.205-2.449-0.616-3.09c-0.413-0.641-1.053-0.961-1.923-0.961
			c-0.457,0-0.915,0.083-1.374,0.252c-0.456,0.168-0.887,0.405-1.281,0.709c-0.396,0.306-0.743,0.667-1.043,1.087
			c-0.297,0.42-0.521,0.874-0.674,1.362v7.303h-1.559V33.866h1.42v2.701c0.244-0.427,0.546-0.82,0.904-1.179
			c0.359-0.359,0.76-0.667,1.204-0.926c0.442-0.26,0.91-0.458,1.405-0.595c0.497-0.138,1.011-0.206,1.548-0.206
			c0.67,0,1.229,0.122,1.681,0.366c0.449,0.244,0.812,0.587,1.087,1.03c0.274,0.442,0.473,0.984,0.597,1.625
			c0.121,0.641,0.182,1.351,0.182,2.129L364.005,45.792L364.005,45.792z"/>
		<path fill="#542437" d="M372.451,46.021c-0.869,0-1.673-0.165-2.404-0.493c-0.732-0.328-1.366-0.778-1.9-1.351
			c-0.534-0.572-0.949-1.232-1.247-1.979c-0.298-0.749-0.447-1.549-0.447-2.404c0-0.839,0.149-1.629,0.447-2.37
			c0.298-0.739,0.713-1.388,1.247-1.946c0.534-0.556,1.164-0.999,1.888-1.327c0.727-0.329,1.524-0.492,2.394-0.492
			c0.87,0,1.668,0.164,2.393,0.492c0.726,0.328,1.346,0.774,1.866,1.339c0.518,0.564,0.924,1.213,1.214,1.945
			c0.288,0.733,0.435,1.511,0.435,2.335c0,0.123-0.006,0.245-0.013,0.367c-0.008,0.122-0.019,0.206-0.035,0.252h-10.186
			c0.045,0.641,0.195,1.231,0.445,1.773c0.252,0.542,0.572,1.011,0.963,1.408c0.389,0.397,0.837,0.706,1.35,0.927
			c0.512,0.222,1.057,0.332,1.636,0.332c0.396,0,0.786-0.054,1.168-0.16c0.382-0.107,0.732-0.252,1.053-0.436
			c0.323-0.184,0.608-0.409,0.86-0.676c0.251-0.267,0.446-0.561,0.583-0.881l1.351,0.366c-0.182,0.443-0.444,0.844-0.778,1.201
			c-0.335,0.359-0.725,0.672-1.168,0.939c-0.442,0.267-0.93,0.474-1.464,0.619C373.564,45.949,373.015,46.021,372.451,46.021z
			 M376.847,39.199c-0.047-0.641-0.195-1.225-0.448-1.75c-0.251-0.527-0.572-0.981-0.96-1.363c-0.391-0.381-0.843-0.679-1.363-0.893
			c-0.519-0.213-1.068-0.32-1.648-0.32c-0.579,0-1.129,0.107-1.648,0.32c-0.519,0.214-0.974,0.512-1.361,0.893
			c-0.39,0.381-0.704,0.839-0.939,1.373c-0.237,0.534-0.376,1.114-0.424,1.74H376.847z"/>
	</g>
</g>
<g>
	<path fill="#ECD078" d="M437.914,338.045H1.132c-6.968,0-12.614,5.646-12.614,12.614v118.743c0,6.966,5.646,12.613,12.614,12.613
		h32.747c-0.484-1.021-0.779-2.146-0.779-3.354V405.68h89.565v72.982c0,1.206-0.292,2.333-0.777,3.354h316.026
		c6.967,0,12.615-5.647,12.615-12.613V350.659C450.529,343.691,444.881,338.045,437.914,338.045z"/>
	<path fill="#542437" d="M99.117,367.859l8.263-12.012c0.493-0.706,0.37-1.646-0.271-2.093c-0.641-0.436-1.562-0.217-2.048,0.494
		l-8.598,12.474c-5.662-2.229-11.95-3.476-18.581-3.476c-6.63,0-12.917,1.247-18.582,3.476l-8.59-12.473
		c-0.496-0.711-1.414-0.93-2.054-0.494c-0.641,0.445-0.761,1.38-0.276,2.093l8.274,12.012
		c-13.152,6.117-22.375,17.742-23.555,31.319h89.56C121.488,385.603,112.265,373.978,99.117,367.859z M59.178,386.788
		c-2.738,0-4.96-2.219-4.96-4.959c0-2.734,2.218-4.952,4.96-4.952c2.731,0,4.947,2.218,4.947,4.952
		C64.13,384.569,61.909,386.788,59.178,386.788z M96.584,386.788c-2.729,0-4.95-2.219-4.95-4.959c0-2.734,2.221-4.952,4.95-4.952
		c2.743,0,4.96,2.218,4.96,4.952C101.544,384.569,99.327,386.788,96.584,386.788z"/>
	<path fill="#542437" d="M17.362,405.369c-5.516,0-9.993,4.474-9.993,9.992v40.411c0,5.515,4.478,9.988,9.993,9.988
		c5.519,0,9.987-4.475,9.987-9.988v-40.411C27.35,409.843,22.881,405.369,17.362,405.369z"/>
	<path fill="#542437" d="M122.665,405.681H33.1v72.982c0,1.206,0.295,2.333,0.779,3.354h88.009c0.485-1.021,0.777-2.146,0.777-3.354
		V405.681z"/>
	<path fill="#542437" d="M138.402,405.369c-5.519,0-9.992,4.474-9.992,9.992v40.411c0,5.515,4.474,9.988,9.992,9.988
		c5.517,0,9.991-4.475,9.991-9.988v-40.411C148.394,409.843,143.919,405.369,138.402,405.369z"/>
	<g>
		<path fill="#542437" d="M181.696,403.154l12.854-30.73h2.467l12.855,30.73h-3.246l-3.982-9.608h-13.807l-3.938,9.608H181.696z
			 M195.806,375.973l-6.318,15.192h12.465L195.806,375.973z"/>
		<path fill="#542437" d="M218.961,403.154l-9.176-22.551h3.073l7.748,19.823l7.79-19.823h2.857l-9.176,22.551H218.961z"/>
		<path fill="#542437" d="M240.561,403.587c-1.154,0-2.208-0.181-3.16-0.541c-0.952-0.36-1.768-0.857-2.445-1.493
			c-0.678-0.634-1.205-1.37-1.58-2.207s-0.563-1.717-0.563-2.641c0-1.039,0.23-1.983,0.692-2.835s1.111-1.58,1.948-2.187
			c0.836-0.605,1.839-1.073,3.008-1.405s2.46-0.498,3.874-0.498c1.125,0,2.279,0.102,3.463,0.303
			c1.183,0.202,2.235,0.491,3.159,0.866v-2.035c0-1.99-0.57-3.57-1.71-4.739c-1.14-1.168-2.677-1.753-4.609-1.753
			c-1.212,0-2.417,0.231-3.614,0.692c-1.197,0.462-2.417,1.126-3.657,1.991l-1.038-1.947c1.471-0.98,2.899-1.717,4.284-2.208
			c1.386-0.49,2.828-0.735,4.328-0.735c2.741,0,4.92,0.794,6.536,2.381c1.615,1.587,2.424,3.78,2.424,6.578v10.172
			c0,0.809,0.346,1.212,1.038,1.212v2.598c-0.23,0.027-0.447,0.05-0.648,0.063c-0.202,0.016-0.376,0.022-0.52,0.022
			c-0.578,0-1.104-0.174-1.58-0.521s-0.743-0.865-0.801-1.559l-0.086-1.774c-0.981,1.327-2.272,2.359-3.874,3.096
			C243.828,403.219,242.205,403.587,240.561,403.587z M241.296,401.337c1.299,0,2.59-0.282,3.874-0.845
			c1.283-0.563,2.301-1.334,3.052-2.315c0.201-0.26,0.374-0.541,0.519-0.844s0.217-0.584,0.217-0.844v-3.681
			c-0.981-0.374-2.006-0.662-3.073-0.864c-1.067-0.201-2.106-0.304-3.116-0.304c-2.106,0-3.816,0.427-5.129,1.276
			c-1.313,0.852-1.97,2.027-1.97,3.527c0,0.605,0.115,1.197,0.347,1.773c0.23,0.578,0.584,1.099,1.061,1.56
			c0.476,0.462,1.061,0.837,1.753,1.125C239.521,401.192,240.344,401.337,241.296,401.337z"/>
		<path fill="#542437" d="M258.305,375.887v-4.328h2.943v4.328H258.305z M258.305,403.154v-22.551h2.943v22.551H258.305z"/>
		<path fill="#542437" d="M267.696,371.559h2.943v26.488c0,0.837,0.229,1.493,0.691,1.97s1.109,0.715,1.947,0.715
			c0.318,0,0.693-0.044,1.125-0.131c0.434-0.087,0.838-0.2,1.213-0.347l0.52,2.381c-0.549,0.231-1.22,0.419-2.013,0.563
			c-0.794,0.145-1.479,0.217-2.056,0.217c-1.356,0-2.424-0.382-3.203-1.147c-0.779-0.764-1.17-1.839-1.17-3.224v-27.485H267.696z"/>
		<path fill="#542437" d="M284.967,403.587c-1.153,0-2.208-0.181-3.159-0.541c-0.953-0.36-1.769-0.857-2.445-1.493
			c-0.678-0.634-1.205-1.37-1.58-2.207s-0.563-1.717-0.563-2.641c0-1.039,0.229-1.983,0.691-2.835s1.111-1.58,1.947-2.187
			c0.836-0.605,1.84-1.073,3.009-1.405s2.46-0.498,3.874-0.498c1.125,0,2.279,0.102,3.463,0.303
			c1.184,0.202,2.234,0.491,3.158,0.866v-2.035c0-1.99-0.569-3.57-1.709-4.739c-1.141-1.168-2.678-1.753-4.609-1.753
			c-1.212,0-2.417,0.231-3.613,0.692c-1.197,0.462-2.418,1.126-3.658,1.991l-1.037-1.947c1.471-0.98,2.898-1.717,4.283-2.208
			c1.387-0.49,2.828-0.735,4.328-0.735c2.741,0,4.92,0.794,6.536,2.381c1.615,1.587,2.425,3.78,2.425,6.578v10.172
			c0,0.809,0.346,1.212,1.037,1.212v2.598c-0.229,0.027-0.447,0.05-0.648,0.063c-0.201,0.016-0.375,0.022-0.52,0.022
			c-0.578,0-1.104-0.174-1.58-0.521c-0.476-0.347-0.742-0.865-0.801-1.559l-0.086-1.774c-0.98,1.327-2.271,2.359-3.874,3.096
			C288.233,403.219,286.61,403.587,284.967,403.587z M285.702,401.337c1.299,0,2.59-0.282,3.874-0.845
			c1.282-0.563,2.301-1.334,3.052-2.315c0.201-0.26,0.374-0.541,0.52-0.844c0.145-0.303,0.217-0.584,0.217-0.844v-3.681
			c-0.981-0.374-2.006-0.662-3.073-0.864c-1.067-0.201-2.106-0.304-3.116-0.304c-2.105,0-3.816,0.427-5.129,1.276
			c-1.313,0.852-1.97,2.027-1.97,3.527c0,0.605,0.114,1.197,0.347,1.773c0.23,0.578,0.584,1.099,1.061,1.56
			c0.477,0.462,1.062,0.837,1.754,1.125C283.929,401.192,284.75,401.337,285.702,401.337z"/>
		<path fill="#542437" d="M313.748,403.587c-1.761,0-3.392-0.447-4.892-1.342s-2.668-2.048-3.506-3.462v4.371h-2.641v-31.597h2.943
			v13.765c1.01-1.529,2.222-2.764,3.636-3.701s3.073-1.406,4.978-1.406c1.56,0,2.973,0.332,4.242,0.995
			c1.27,0.664,2.344,1.552,3.225,2.662c0.879,1.111,1.559,2.366,2.035,3.766c0.476,1.399,0.713,2.835,0.713,4.308
			c0,1.587-0.273,3.088-0.821,4.501c-0.55,1.414-1.306,2.646-2.272,3.7c-0.966,1.055-2.105,1.891-3.419,2.511
			C316.655,403.276,315.248,403.587,313.748,403.587z M313.056,400.99c1.24,0,2.373-0.252,3.397-0.758
			c1.024-0.505,1.903-1.184,2.641-2.034c0.735-0.852,1.313-1.817,1.731-2.899s0.627-2.2,0.627-3.354
			c0-1.184-0.194-2.322-0.584-3.419c-0.391-1.098-0.938-2.07-1.645-2.923c-0.709-0.851-1.553-1.528-2.533-2.033
			s-2.063-0.758-3.246-0.758c-0.895,0-1.73,0.15-2.51,0.454s-1.5,0.715-2.164,1.233s-1.264,1.118-1.797,1.796
			c-0.533,0.679-0.974,1.394-1.32,2.144v7.012c0.115,0.779,0.427,1.508,0.932,2.186c0.505,0.68,1.118,1.264,1.84,1.753
			c0.721,0.491,1.485,0.882,2.294,1.169C311.526,400.846,312.306,400.99,313.056,400.99z"/>
		<path fill="#542437" d="M329.502,371.559h2.942v26.488c0,0.837,0.23,1.493,0.693,1.97c0.461,0.477,1.109,0.715,1.947,0.715
			c0.316,0,0.691-0.044,1.125-0.131s0.837-0.2,1.212-0.347l0.521,2.381c-0.549,0.231-1.221,0.419-2.014,0.563
			c-0.794,0.145-1.479,0.217-2.056,0.217c-1.356,0-2.424-0.382-3.203-1.147c-0.778-0.764-1.169-1.839-1.169-3.224L329.502,371.559
			L329.502,371.559z"/>
		<path fill="#542437" d="M350.668,403.587c-1.646,0-3.16-0.311-4.545-0.931c-1.386-0.62-2.583-1.473-3.593-2.555
			s-1.797-2.328-2.358-3.742s-0.844-2.93-0.844-4.545c0-1.588,0.28-3.08,0.844-4.479s1.349-2.626,2.358-3.68s2.199-1.89,3.57-2.511
			c1.371-0.619,2.879-0.931,4.522-0.931s3.151,0.312,4.522,0.931c1.371,0.621,2.547,1.466,3.527,2.532
			c0.98,1.067,1.745,2.294,2.294,3.68c0.548,1.385,0.822,2.855,0.822,4.415c0,0.229-0.008,0.462-0.021,0.691
			c-0.016,0.231-0.037,0.39-0.065,0.477h-19.261c0.086,1.212,0.367,2.33,0.845,3.354c0.476,1.024,1.082,1.912,1.817,2.662
			c0.735,0.751,1.586,1.335,2.554,1.753c0.967,0.419,1.997,0.628,3.095,0.628c0.75,0,1.486-0.102,2.208-0.304
			c0.722-0.201,1.386-0.477,1.99-0.822c0.606-0.346,1.147-0.771,1.623-1.276c0.477-0.505,0.845-1.061,1.104-1.667l2.554,0.692
			c-0.347,0.838-0.838,1.595-1.472,2.272c-0.636,0.679-1.37,1.271-2.208,1.773c-0.837,0.506-1.76,0.896-2.77,1.169
			C352.772,403.45,351.733,403.587,350.668,403.587z M358.978,390.689c-0.086-1.213-0.367-2.316-0.844-3.313
			c-0.477-0.995-1.082-1.854-1.818-2.575c-0.734-0.721-1.594-1.283-2.574-1.688c-0.98-0.403-2.02-0.605-3.116-0.605
			s-2.136,0.202-3.116,0.605c-0.98,0.404-1.839,0.968-2.574,1.688c-0.735,0.723-1.328,1.587-1.774,2.598
			c-0.448,1.011-0.714,2.105-0.802,3.29H358.978L358.978,390.689z"/>
		<path fill="#542437" d="M387.024,403.587c-1.646,0-3.153-0.311-4.523-0.931c-1.371-0.62-2.555-1.464-3.549-2.531
			c-0.996-1.067-1.768-2.309-2.315-3.723c-0.549-1.413-0.821-2.9-0.821-4.458c0-1.587,0.281-3.087,0.844-4.501
			s1.342-2.655,2.337-3.724c0.995-1.067,2.179-1.919,3.549-2.554s2.864-0.952,4.479-0.952s3.108,0.317,4.479,0.952
			c1.37,0.635,2.554,1.486,3.55,2.554c0.995,1.067,1.773,2.31,2.336,3.724c0.563,1.414,0.846,2.914,0.846,4.501
			c0,1.558-0.281,3.045-0.846,4.458c-0.563,1.414-1.341,2.654-2.336,3.723c-0.996,1.067-2.18,1.911-3.55,2.531
			C390.133,403.276,388.64,403.587,387.024,403.587z M378.844,391.987c0,1.271,0.21,2.444,0.628,3.526s0.995,2.034,1.73,2.857
			c0.736,0.822,1.602,1.465,2.598,1.926c0.995,0.462,2.057,0.692,3.182,0.692s2.187-0.238,3.182-0.714
			c0.995-0.478,1.868-1.126,2.618-1.948s1.342-1.781,1.774-2.878c0.434-1.098,0.648-2.279,0.648-3.549
			c0-1.241-0.217-2.417-0.648-3.528c-0.434-1.11-1.024-2.077-1.774-2.899c-0.75-0.821-1.616-1.472-2.597-1.947
			c-0.981-0.477-2.035-0.715-3.16-0.715s-2.187,0.238-3.182,0.715c-0.994,0.477-1.861,1.133-2.597,1.97s-1.32,1.812-1.753,2.922
			C379.062,389.528,378.844,390.718,378.844,391.987z"/>
		<path fill="#542437" d="M421.995,403.154h-2.943V390.56c0-2.684-0.39-4.632-1.168-5.844c-0.779-1.212-1.99-1.816-3.636-1.816
			c-0.866,0-1.731,0.158-2.599,0.476c-0.864,0.318-1.674,0.766-2.424,1.342c-0.75,0.578-1.406,1.264-1.969,2.058
			s-0.988,1.65-1.277,2.574v13.808h-2.942v-22.55h2.685v5.106c0.461-0.808,1.03-1.551,1.709-2.229
			c0.678-0.679,1.437-1.263,2.272-1.753s1.724-0.865,2.662-1.125c0.937-0.261,1.911-0.391,2.921-0.391
			c1.27,0,2.33,0.231,3.182,0.692c0.852,0.462,1.536,1.111,2.057,1.947c0.52,0.838,0.895,1.86,1.125,3.072s0.347,2.555,0.347,4.025
			L421.995,403.154L421.995,403.154z"/>
	</g>
	<g>
		<path fill="#542437" d="M173.671,462.998l20.453-48.896h3.926l20.454,48.896h-5.166l-6.336-15.288h-21.967l-6.268,15.288H173.671z
			 M196.122,419.75l-10.055,24.172H205.9L196.122,419.75z"/>
		<path fill="#542437" d="M254.59,462.998h-4.684v-20.04c0-4.271-0.619-7.369-1.859-9.297c-1.24-1.929-3.168-2.894-5.785-2.894
			c-1.377,0-2.754,0.253-4.133,0.759c-1.377,0.505-2.662,1.217-3.855,2.135c-1.195,0.919-2.238,2.009-3.133,3.271
			c-0.896,1.265-1.574,2.629-2.033,4.099v21.969h-4.682v-35.88h4.27v8.127c0.734-1.285,1.641-2.468,2.721-3.547
			c1.078-1.078,2.283-2.008,3.615-2.789c1.33-0.78,2.742-1.378,4.234-1.791c1.492-0.413,3.041-0.619,4.648-0.619
			c2.02,0,3.707,0.367,5.063,1.102c1.354,0.735,2.445,1.769,3.271,3.1c0.826,1.332,1.422,2.962,1.789,4.89
			c0.367,1.929,0.553,4.063,0.553,6.405V462.998L254.59,462.998z"/>
		<path fill="#542437" d="M279.174,463.688c-2.479,0-4.774-0.518-6.887-1.55c-2.113-1.032-3.938-2.398-5.476-4.098
			c-1.539-1.698-2.731-3.661-3.582-5.889c-0.85-2.228-1.272-4.557-1.272-6.99c0-2.524,0.412-4.924,1.239-7.196
			c0.826-2.271,1.962-4.258,3.408-5.957c1.445-1.698,3.168-3.041,5.164-4.027c1.998-0.987,4.189-1.48,6.578-1.48
			c3.029,0,5.715,0.792,8.057,2.376c2.343,1.583,4.201,3.501,5.578,5.75v-21.899h4.685v44.213c0,1.285,0.551,1.929,1.651,1.929V463
			c-0.78,0.138-1.399,0.207-1.858,0.207c-1.147,0-2.09-0.333-2.824-0.999c-0.733-0.665-1.102-1.457-1.102-2.376v-3.787
			c-1.47,2.341-3.408,4.2-5.818,5.578C284.306,462.998,281.791,463.688,279.174,463.688z M280.138,459.555
			c1.192,0,2.444-0.229,3.754-0.688c1.309-0.459,2.524-1.09,3.649-1.895c1.125-0.803,2.101-1.745,2.926-2.823
			c0.828-1.078,1.332-2.238,1.517-3.479v-11.088c-0.459-1.239-1.137-2.398-2.031-3.478c-0.895-1.078-1.906-2.031-3.029-2.857
			c-1.127-0.827-2.32-1.47-3.582-1.929c-1.264-0.458-2.514-0.688-3.754-0.688c-1.928,0-3.684,0.413-5.268,1.239
			s-2.928,1.918-4.029,3.271c-1.102,1.354-1.963,2.904-2.582,4.648c-0.619,1.745-0.93,3.536-0.93,5.371
			c0,1.929,0.344,3.766,1.033,5.51c0.688,1.745,1.629,3.271,2.823,4.58c1.193,1.308,2.604,2.354,4.234,3.133
			C276.498,459.165,278.254,459.555,280.138,459.555z"/>
		<path fill="#542437" d="M325.106,431.25c-3.168,0.093-5.924,0.965-8.264,2.617c-2.342,1.652-3.994,3.926-4.959,6.817v22.313H307.2
			v-35.88h4.408v8.607c1.24-2.523,2.869-4.625,4.889-6.301s4.201-2.514,6.543-2.514c0.414,0,0.803,0,1.17,0s0.666,0.022,0.896,0.067
			V431.25L325.106,431.25z"/>
		<path fill="#542437" d="M345.217,463.688c-2.616,0-5.016-0.494-7.194-1.48c-2.183-0.986-4.064-2.33-5.648-4.028
			c-1.584-1.697-2.813-3.673-3.684-5.923c-0.873-2.249-1.31-4.614-1.31-7.094c0-2.524,0.447-4.912,1.343-7.162
			c0.896-2.249,2.137-4.223,3.719-5.922c1.584-1.698,3.467-3.053,5.647-4.063c2.181-1.01,4.556-1.515,7.127-1.515
			c2.57,0,4.947,0.505,7.13,1.515c2.18,1.012,4.063,2.365,5.646,4.063c1.584,1.699,2.823,3.673,3.719,5.922
			c0.896,2.25,1.343,4.638,1.343,7.162c0,2.479-0.447,4.845-1.343,7.094c-0.896,2.25-2.135,4.226-3.719,5.923
			c-1.584,1.698-3.468,3.042-5.646,4.028C350.164,463.192,347.787,463.688,345.217,463.688z M332.201,445.23
			c0,2.021,0.332,3.891,0.998,5.611c0.665,1.722,1.584,3.237,2.756,4.546c1.17,1.309,2.547,2.33,4.131,3.064
			c1.584,0.733,3.271,1.102,5.063,1.102c1.791,0,3.479-0.379,5.063-1.137c1.582-0.757,2.971-1.79,4.166-3.099
			c1.193-1.31,2.135-2.834,2.822-4.579c0.689-1.745,1.033-3.627,1.033-5.647c0-1.974-0.344-3.845-1.033-5.611
			c-0.688-1.769-1.629-3.307-2.822-4.614c-1.195-1.31-2.572-2.342-4.133-3.101c-1.561-0.757-3.236-1.136-5.027-1.136
			s-3.477,0.379-5.061,1.136c-1.584,0.759-2.963,1.804-4.133,3.135c-1.17,1.332-2.101,2.882-2.789,4.647
			C332.545,441.316,332.201,443.211,332.201,445.23z"/>
		<path fill="#542437" d="M370.696,419.612v-6.888h4.683v6.888H370.696z M370.696,462.998v-35.88h4.683v35.88H370.696z"/>
		<path fill="#542437" d="M400.31,463.688c-2.48,0-4.775-0.518-6.888-1.55s-3.938-2.398-5.476-4.098
			c-1.538-1.698-2.731-3.661-3.581-5.889c-0.851-2.228-1.273-4.557-1.273-6.99c0-2.524,0.412-4.924,1.24-7.196
			c0.826-2.271,1.961-4.258,3.407-5.957c1.445-1.698,3.169-3.041,5.164-4.027c1.998-0.987,4.189-1.48,6.578-1.48
			c3.029,0,5.715,0.792,8.058,2.376c2.342,1.583,4.2,3.501,5.578,5.75v-21.899h4.684v44.213c0,1.285,0.552,1.929,1.652,1.929V463
			c-0.781,0.138-1.4,0.207-1.859,0.207c-1.147,0-2.09-0.333-2.823-0.999c-0.734-0.665-1.103-1.457-1.103-2.376v-3.787
			c-1.469,2.341-3.408,4.2-5.817,5.578C405.438,462.998,402.926,463.688,400.31,463.688z M401.271,459.555
			c1.193,0,2.445-0.229,3.754-0.688c1.31-0.459,2.525-1.09,3.65-1.895c1.125-0.803,2.1-1.745,2.926-2.823
			c0.828-1.078,1.332-2.238,1.517-3.479v-11.088c-0.459-1.239-1.138-2.398-2.031-3.478c-0.896-1.078-1.905-2.031-3.028-2.857
			c-1.127-0.827-2.32-1.47-3.582-1.929c-1.265-0.458-2.515-0.688-3.754-0.688c-1.929,0-3.685,0.413-5.269,1.239
			s-2.929,1.918-4.029,3.271c-1.103,1.354-1.963,2.904-2.582,4.648c-0.618,1.745-0.93,3.536-0.93,5.371
			c0,1.929,0.344,3.766,1.032,5.51c0.689,1.745,1.63,3.271,2.824,4.58c1.193,1.308,2.604,2.354,4.234,3.133
			C397.633,459.165,399.39,459.555,401.271,459.555z"/>
	</g>
</g>
</svg>
