<?xml version="1.0" encoding="utf-8"?>
<!-- Generator: Adobe Illustrator 16.0.0, SVG Export Plug-In . SVG Version: 6.00 Build 0)  -->
<!DOCTYPE svg PUBLIC "-//W3C//DTD SVG 1.1//EN" "http://www.w3.org/Graphics/SVG/1.1/DTD/svg11.dtd">
<svg version="1.1" id="Layer_1" xmlns="http://www.w3.org/2000/svg" xmlns:xlink="http://www.w3.org/1999/xlink" x="0px" y="0px"
	 width="217px" height="218px" viewBox="0 0 217 218" enable-background="new 0 0 217 218" xml:space="preserve">
<rect y="-0.242" fill="#D95B43" width="260.53" height="224"/>
<rect x="7.106" y="8.896" fill="#542437" width="246.316" height="205.723"/>
<rect x="209.895" y="-3.004" fill="#D95B43" width="7.105" height="241.949"/>
<rect x="76.469" y="51.541" transform="matrix(0.9936 0.1129 -0.1129 0.9936 12.9054 -13.1751)" fill="#D95B43" width="92.541" height="111.557"/>
<rect x="82.272" y="55.323" transform="matrix(0.9936 0.1129 -0.1129 0.9936 11.413 -13.4279)" fill="#542437" width="83.954" height="77.436"/>
<rect x="58.468" y="51.541" transform="matrix(0.9941 -0.108 0.108 0.9941 -10.9815 11.944)" fill="#D95B43" width="92.542" height="111.558"/>
<rect x="61.319" y="55.317" transform="matrix(0.9941 -0.108 0.108 0.9941 -9.5538 11.709)" fill="#542437" width="83.954" height="77.435"/>
<g>
	<path fill="none" stroke="#D95A41" stroke-miterlimit="10" d="M-216.289,94.036c0-48.884,39.623-88.502,88.5-88.502
		c48.875,0,88.5,39.618,88.5,88.502c0,48.873-39.625,88.498-88.5,88.498C-176.666,182.534-216.289,142.909-216.289,94.036z"/>
	<g>
		<path fill="#D95B43" d="M-93.96,96.707l-59.671,35.776v-3.148l55.522-33.916l-55.522-33.772v-3.148l59.671,35.632V96.707z"/>
	</g>
</g>
<rect x="-9.562" y="211.067" fill="#D95B43" width="241.949" height="7.105"/>
</svg>
