<?xml version="1.0" encoding="utf-8"?>
<!-- Generator: Adobe Illustrator 16.0.0, SVG Export Plug-In . SVG Version: 6.00 Build 0)  -->
<!DOCTYPE svg PUBLIC "-//W3C//DTD SVG 1.1//EN" "http://www.w3.org/Graphics/SVG/1.1/DTD/svg11.dtd">
<svg version="1.1" id="Layer_1" xmlns="http://www.w3.org/2000/svg" xmlns:xlink="http://www.w3.org/1999/xlink" x="0px" y="0px"
	 width="196px" height="173px" viewBox="0 0 196 173" enable-background="new 0 0 196 173" xml:space="preserve">
<path fill="#ECD078" d="M196,165.115c0,4.419-3.515,8-7.849,8H7.849c-4.334,0-7.849-3.581-7.849-8V8c0-4.418,3.514-8,7.849-8
	h180.303C192.485,0,196,3.582,196,8V165.115z"/>
<g>
	<path fill="#542437" d="M54.038,92.299c0,1.067-0.213,2.047-0.64,2.94c-0.427,0.894-1,1.667-1.719,2.32s-1.56,1.159-2.519,1.52
		s-1.986,0.54-3.079,0.54H32.726v-28.4h13.635c0.986,0,1.879,0.214,2.679,0.64c0.8,0.427,1.479,0.98,2.039,1.66
		c0.56,0.68,0.993,1.454,1.3,2.32c0.306,0.867,0.46,1.74,0.46,2.62c0,1.44-0.36,2.754-1.08,3.94c-0.72,1.187-1.72,2.074-2.999,2.66
		c1.625,0.48,2.912,1.375,3.858,2.68C53.564,89.046,54.038,90.566,54.038,92.299z M35.485,73.659v10.48h9.756
		c0.693,0,1.339-0.146,1.939-0.44c0.6-0.293,1.12-0.68,1.56-1.16s0.78-1.033,1.02-1.66c0.24-0.626,0.36-1.286,0.36-1.98
		c0-0.72-0.114-1.4-0.34-2.04c-0.227-0.64-0.546-1.193-0.959-1.66c-0.414-0.466-0.907-0.84-1.479-1.12
		c-0.574-0.28-1.193-0.42-1.859-0.42H35.485z M51.239,91.819c0-0.693-0.12-1.366-0.36-2.021c-0.24-0.652-0.58-1.226-1.02-1.72
		c-0.44-0.493-0.959-0.894-1.56-1.2c-0.6-0.307-1.246-0.46-1.939-0.46H35.485v10.76h10.596c0.72,0,1.4-0.146,2.04-0.439
		c0.64-0.293,1.186-0.687,1.639-1.18c0.453-0.493,0.813-1.066,1.08-1.721C51.105,93.186,51.239,92.513,51.239,91.819z"/>
	<path fill="#542437" d="M69.152,81.179c-1.839,0.054-3.439,0.56-4.798,1.52s-2.319,2.28-2.879,3.96v12.96h-2.719v-20.84h2.559v5
		c0.72-1.466,1.666-2.687,2.839-3.66c1.172-0.973,2.439-1.46,3.798-1.46c0.24,0,0.466,0,0.68,0c0.213,0,0.386,0.014,0.52,0.04
		V81.179z"/>
	<path fill="#542437" d="M80.828,100.02c-1.52,0-2.913-0.287-4.179-0.86s-2.359-1.354-3.278-2.34
		c-0.92-0.986-1.633-2.134-2.139-3.44c-0.507-1.306-0.76-2.68-0.76-4.12c0-1.466,0.26-2.853,0.779-4.16
		c0.52-1.306,1.24-2.453,2.159-3.44c0.92-0.986,2.013-1.773,3.279-2.36c1.266-0.586,2.646-0.88,4.139-0.88
		c1.492,0,2.872,0.294,4.138,0.88c1.266,0.587,2.359,1.374,3.279,2.36c0.919,0.987,1.639,2.134,2.159,3.44
		c0.52,1.307,0.78,2.694,0.78,4.16c0,1.44-0.26,2.814-0.78,4.12c-0.52,1.307-1.24,2.454-2.159,3.44
		c-0.92,0.986-2.013,1.767-3.279,2.34C83.699,99.732,82.32,100.02,80.828,100.02z M73.271,89.299c0,1.174,0.193,2.261,0.58,3.261
		c0.386,1,0.92,1.88,1.6,2.64s1.479,1.354,2.399,1.78s1.899,0.64,2.939,0.64s2.019-0.22,2.938-0.66c0.92-0.439,1.726-1.04,2.419-1.8
		c0.693-0.76,1.239-1.646,1.639-2.66c0.4-1.013,0.6-2.106,0.6-3.28c0-1.146-0.2-2.232-0.6-3.26c-0.4-1.026-0.946-1.92-1.639-2.68
		c-0.694-0.76-1.493-1.36-2.399-1.8s-1.879-0.66-2.918-0.66s-2.02,0.22-2.939,0.66c-0.92,0.44-1.719,1.047-2.399,1.82
		c-0.68,0.773-1.22,1.673-1.62,2.7C73.47,87.026,73.271,88.126,73.271,89.299z"/>
	<path fill="#542437" d="M121.211,78.779h2.639l-8.916,20.84h-2.279l-4.438-10.64l-4.439,10.64H101.5l-8.917-20.84h2.599
		l7.597,18.04l3.957-9.521l-3.559-8.479h2.32l2.719,6.8l2.678-6.8h2.32l-3.52,8.479l3.959,9.521L121.211,78.779z"/>
	<path fill="#542437" d="M133.846,100.02c-1.625,0-3.211-0.268-4.758-0.801s-2.879-1.306-3.998-2.319l1.24-1.84
		c1.172,0.96,2.365,1.68,3.578,2.159c1.213,0.48,2.512,0.721,3.898,0.721c1.68,0,3.018-0.34,4.018-1.021c1-0.68,1.5-1.646,1.5-2.899
		c0-0.587-0.133-1.073-0.4-1.46c-0.266-0.387-0.66-0.727-1.18-1.021c-0.52-0.293-1.172-0.553-1.959-0.78
		c-0.787-0.226-1.699-0.46-2.738-0.699c-1.199-0.294-2.24-0.587-3.119-0.881c-0.879-0.293-1.605-0.626-2.18-1
		c-0.572-0.373-0.998-0.833-1.279-1.38c-0.279-0.546-0.42-1.233-0.42-2.06c0-1.04,0.207-1.96,0.621-2.76
		c0.412-0.8,0.973-1.46,1.678-1.98c0.707-0.52,1.533-0.913,2.48-1.18c0.945-0.267,1.951-0.4,3.018-0.4c1.6,0,3.053,0.26,4.359,0.78
		c1.305,0.52,2.359,1.207,3.158,2.06l-1.32,1.6c-0.773-0.8-1.713-1.4-2.818-1.8s-2.258-0.6-3.459-0.6
		c-0.719,0-1.385,0.074-1.998,0.22c-0.613,0.147-1.154,0.38-1.619,0.7c-0.467,0.32-0.834,0.727-1.1,1.22
		c-0.268,0.494-0.4,1.074-0.4,1.74c0,0.56,0.094,1.014,0.279,1.36c0.188,0.347,0.494,0.646,0.92,0.9
		c0.426,0.253,0.967,0.479,1.619,0.68s1.445,0.406,2.379,0.62c1.334,0.319,2.506,0.64,3.52,0.96c1.012,0.319,1.859,0.693,2.539,1.12
		s1.191,0.946,1.539,1.56c0.346,0.614,0.52,1.36,0.52,2.24c0,1.92-0.732,3.439-2.199,4.56S136.326,100.02,133.846,100.02z"/>
	<path fill="#542437" d="M155.438,100.02c-1.52,0-2.918-0.287-4.197-0.86s-2.387-1.36-3.318-2.36c-0.934-1-1.66-2.152-2.18-3.46
		c-0.52-1.306-0.779-2.706-0.779-4.2c0-1.466,0.26-2.846,0.779-4.14c0.52-1.293,1.246-2.426,2.18-3.4
		c0.932-0.973,2.031-1.746,3.299-2.32c1.266-0.573,2.658-0.86,4.178-0.86s2.912,0.287,4.178,0.86c1.266,0.574,2.352,1.354,3.26,2.34
		c0.904,0.987,1.611,2.12,2.119,3.4c0.506,1.28,0.76,2.64,0.76,4.081c0,0.213-0.008,0.427-0.021,0.64
		c-0.014,0.214-0.033,0.36-0.059,0.439h-17.793c0.08,1.12,0.34,2.154,0.779,3.101s1,1.767,1.68,2.46s1.465,1.233,2.359,1.62
		c0.893,0.387,1.844,0.58,2.857,0.58c0.693,0,1.373-0.094,2.039-0.28s1.279-0.44,1.84-0.76c0.561-0.32,1.061-0.714,1.5-1.181
		c0.439-0.466,0.779-0.979,1.02-1.54l2.359,0.641c-0.32,0.773-0.773,1.474-1.359,2.1c-0.588,0.627-1.268,1.174-2.039,1.641
		c-0.773,0.467-1.627,0.826-2.561,1.079C157.383,99.893,156.424,100.02,155.438,100.02z M163.115,88.1
		c-0.08-1.12-0.34-2.141-0.779-3.061s-1-1.713-1.68-2.38c-0.68-0.667-1.473-1.187-2.379-1.56c-0.906-0.373-1.867-0.56-2.879-0.56
		c-1.014,0-1.973,0.187-2.879,0.56c-0.906,0.374-1.699,0.894-2.379,1.56c-0.68,0.667-1.227,1.467-1.641,2.4
		c-0.412,0.934-0.658,1.947-0.738,3.041H163.115z"/>
</g>
</svg>
