<?xml version="1.0" encoding="utf-8"?>
<!-- Generator: Adobe Illustrator 16.0.0, SVG Export Plug-In . SVG Version: 6.00 Build 0)  -->
<!DOCTYPE svg PUBLIC "-//W3C//DTD SVG 1.1//EN" "http://www.w3.org/Graphics/SVG/1.1/DTD/svg11.dtd">
<svg version="1.1" id="Layer_1" xmlns="http://www.w3.org/2000/svg" xmlns:xlink="http://www.w3.org/1999/xlink" x="0px" y="0px"
	 width="130px" height="130px" viewBox="0 0 130 130" enable-background="new 0 0 130 130" xml:space="preserve">
<g>
	<path fill="#ECD078" d="M261.301,319.947c0,3.318-2.332,6.008-5.205,6.008H136.505c-2.873,0-5.204-2.689-5.204-6.008V201.963
		c0-3.318,2.331-6.008,5.204-6.008h119.591c2.873,0,5.205,2.689,5.205,6.008V319.947z"/>
	<text transform="matrix(1.012 0 0 1 146.3906 298.127)" fill="#542437" font-family="'Raleway'" font-size="30.0377">Submit</text>
	<g>
		<polygon fill="#542437" points="220.297,271.036 174.855,265.934 181.082,211.803 226.521,216.905 		"/>
		<polygon fill="#ECD078" points="219.888,256.037 178.661,251.408 182.983,213.834 224.207,218.465 		"/>
	</g>
	<g>
		<polygon fill="#542437" points="217.502,266.06 172.037,270.942 166.081,216.781 211.547,211.897 		"/>
		<polygon fill="#ECD078" points="213.771,251.515 172.522,255.943 168.387,218.348 209.636,213.921 		"/>
	</g>
</g>
<g>
	<path fill="#ECD078" d="M126.617,320.68c0,3.338-2.315,6.043-5.173,6.043H2.571c-2.858,0-5.174-2.705-5.174-6.043V201.998
		c0-3.338,2.315-6.043,5.174-6.043h118.873c2.857,0,5.173,2.705,5.173,6.043V320.68z"/>
	<text transform="matrix(1 0 0 1 10.6426 298.7285)" fill="#542437" font-family="'Raleway'" font-size="30.2153">Upload</text>
	<g>
		<path fill="#542437" d="M88.06,221.986c-3.58-3.578-10.421-4.986-14.002-1.404L45.406,249.23
			c-3.578,3.58-3.578,9.381,0.003,12.959c3.577,3.582,9.379,3.582,12.96,0l6.669-6.666l12.558-12.559
			c3.58-3.578,4.513-8.451,0.936-12.027c-3.581-3.582-8.451-2.65-12.029,0.928l-12.561,12.561l1.345,1.344l12.56-12.557
			c2.833-2.832,6.509-3.766,9.338-0.934c2.831,2.834,1.9,6.508-0.931,9.338l-12.561,12.559l-6.669,6.672
			c-2.831,2.828-7.44,2.828-10.269,0c-2.832-2.834-2.832-7.441,0-10.271l28.65-28.65c2.832-2.832,8.479-1.426,11.31,1.406
			c2.829,2.832,4.238,8.479,1.405,11.311l-25.013,25.01l1.346,1.346l25.014-25.014C93.045,232.406,91.64,225.564,88.06,221.986z"/>
	</g>
</g>
<g>
	<path fill="#ECD078" d="M129.221,124.725c0,3.338-2.318,6.043-5.174,6.043H5.174c-2.857,0-5.174-2.705-5.174-6.043V6.043
		C0,2.706,2.316,0,5.174,0h118.873c2.855,0,5.174,2.705,5.174,6.043V124.725z"/>
	<g>
		<path fill="#542437" d="M31.39,97.244c0,0.807-0.161,1.547-0.483,2.221c-0.322,0.676-0.756,1.26-1.3,1.753
			s-1.178,0.876-1.903,1.148c-0.725,0.272-1.501,0.407-2.326,0.407H15.285V81.321h10.303c0.745,0,1.421,0.161,2.024,0.483
			c0.604,0.322,1.118,0.74,1.541,1.254s0.751,1.098,0.982,1.752c0.231,0.655,0.348,1.314,0.348,1.979
			c0,1.088-0.272,2.08-0.816,2.976c-0.544,0.896-1.299,1.566-2.266,2.01c1.229,0.363,2.2,1.038,2.916,2.024
			C31.031,94.787,31.39,95.936,31.39,97.244z M17.37,83.164v7.916h7.372c0.523,0,1.013-0.109,1.466-0.332
			c0.453-0.221,0.846-0.514,1.178-0.876c0.333-0.362,0.59-0.78,0.771-1.254c0.182-0.474,0.272-0.972,0.272-1.495
			c0-0.545-0.086-1.059-0.257-1.541c-0.172-0.484-0.413-0.902-0.726-1.254c-0.313-0.354-0.685-0.635-1.118-0.847
			c-0.433-0.212-0.901-0.317-1.404-0.317H17.37z M29.274,96.882c0-0.523-0.091-1.032-0.271-1.526
			c-0.182-0.492-0.438-0.926-0.771-1.299c-0.333-0.373-0.726-0.674-1.179-0.906c-0.453-0.231-0.942-0.348-1.466-0.348H17.37v8.128
			h8.007c0.544,0,1.058-0.11,1.541-0.332s0.896-0.519,1.238-0.892s0.614-0.805,0.816-1.299
			C29.174,97.914,29.274,97.406,29.274,96.882z"/>
		<path fill="#542437" d="M42.811,88.845c-1.39,0.04-2.599,0.423-3.626,1.147c-1.027,0.727-1.752,1.723-2.175,2.992v9.789h-2.055
			V87.031h1.934v3.777c0.544-1.107,1.259-2.029,2.146-2.765c0.886-0.735,1.843-1.103,2.87-1.103c0.182,0,0.353,0,0.514,0
			s0.292,0.01,0.393,0.029V88.845z"/>
		<path fill="#542437" d="M51.634,103.076c-1.147,0-2.201-0.217-3.157-0.65c-0.957-0.432-1.783-1.021-2.478-1.768
			c-0.695-0.744-1.234-1.611-1.616-2.598c-0.384-0.986-0.574-2.024-0.574-3.112c0-1.107,0.196-2.155,0.589-3.143
			s0.937-1.853,1.632-2.599c0.694-0.744,1.521-1.34,2.478-1.783c0.956-0.441,1.999-0.664,3.127-0.664s2.171,0.223,3.128,0.664
			c0.956,0.443,1.782,1.039,2.478,1.783c0.694,0.746,1.238,1.611,1.631,2.599c0.394,0.987,0.59,2.035,0.59,3.143
			c0,1.088-0.196,2.126-0.59,3.112c-0.393,0.986-0.937,1.854-1.631,2.598c-0.695,0.746-1.521,1.336-2.478,1.768
			C53.805,102.859,52.762,103.076,51.634,103.076z M45.924,94.979c0,0.887,0.146,1.707,0.438,2.463
			c0.292,0.755,0.695,1.42,1.209,1.994s1.118,1.021,1.813,1.344c0.695,0.322,1.436,0.484,2.221,0.484
			c0.786,0,1.526-0.166,2.221-0.499c0.695-0.333,1.305-0.786,1.828-1.36c0.523-0.573,0.937-1.243,1.239-2.009
			c0.302-0.765,0.453-1.591,0.453-2.478c0-0.865-0.151-1.688-0.453-2.463c-0.303-0.775-0.716-1.45-1.239-2.023
			c-0.523-0.574-1.128-1.027-1.813-1.36c-0.686-0.333-1.42-0.499-2.206-0.499c-0.785,0-1.525,0.166-2.221,0.499
			c-0.694,0.333-1.299,0.791-1.813,1.375c-0.514,0.585-0.922,1.265-1.224,2.04C46.074,93.262,45.924,94.092,45.924,94.979z"/>
		<path fill="#542437" d="M82.151,87.031h1.994l-6.737,15.742h-1.723l-3.354-8.037l-3.354,8.037h-1.722l-6.738-15.742h1.964
			l5.741,13.627l2.991-7.19l-2.689-6.405h1.753l2.055,5.137l2.024-5.137h1.752l-2.658,6.405l2.991,7.19L82.151,87.031z"/>
		<path fill="#542437" d="M91.699,103.076c-1.229,0-2.428-0.201-3.596-0.604s-2.175-0.987-3.021-1.753l0.937-1.389
			c0.887,0.725,1.788,1.269,2.705,1.631c0.916,0.363,1.898,0.544,2.945,0.544c1.27,0,2.281-0.257,3.037-0.771
			c0.755-0.514,1.133-1.244,1.133-2.19c0-0.442-0.101-0.811-0.302-1.103c-0.202-0.293-0.499-0.549-0.892-0.771
			c-0.393-0.221-0.887-0.418-1.48-0.589c-0.595-0.171-1.284-0.347-2.07-0.528c-0.906-0.222-1.691-0.443-2.356-0.665
			s-1.214-0.474-1.646-0.755c-0.434-0.282-0.756-0.63-0.967-1.043c-0.212-0.412-0.317-0.932-0.317-1.557
			c0-0.785,0.155-1.48,0.468-2.084c0.313-0.604,0.735-1.104,1.27-1.496c0.533-0.393,1.158-0.689,1.873-0.891
			s1.476-0.303,2.281-0.303c1.209,0,2.307,0.196,3.294,0.59c0.986,0.393,1.782,0.911,2.387,1.556l-0.997,1.208
			c-0.584-0.604-1.295-1.057-2.13-1.359c-0.836-0.303-1.707-0.453-2.614-0.453c-0.544,0-1.047,0.056-1.511,0.166
			c-0.463,0.111-0.871,0.287-1.224,0.529c-0.353,0.241-0.63,0.549-0.831,0.922s-0.302,0.811-0.302,1.313
			c0,0.423,0.07,0.767,0.212,1.027c0.141,0.263,0.372,0.489,0.694,0.681s0.73,0.361,1.224,0.514c0.493,0.15,1.093,0.307,1.798,0.468
			c1.007,0.241,1.894,0.483,2.659,0.726c0.766,0.241,1.405,0.523,1.919,0.846s0.901,0.715,1.163,1.178
			c0.262,0.465,0.393,1.027,0.393,1.692c0,1.45-0.554,2.599-1.662,3.444C95.063,102.652,93.573,103.076,91.699,103.076z"/>
		<path fill="#542437" d="M108.016,103.076c-1.148,0-2.206-0.217-3.173-0.65c-0.967-0.432-1.803-1.027-2.508-1.782
			s-1.254-1.626-1.646-2.613s-0.589-2.044-0.589-3.173c0-1.107,0.196-2.15,0.589-3.127s0.941-1.833,1.646-2.568
			s1.536-1.319,2.493-1.752c0.956-0.434,2.009-0.65,3.157-0.65s2.2,0.217,3.157,0.65c0.957,0.433,1.778,1.021,2.463,1.768
			c0.685,0.744,1.219,1.601,1.602,2.567c0.383,0.968,0.574,1.995,0.574,3.082c0,0.161-0.006,0.323-0.016,0.483
			c-0.01,0.162-0.025,0.271-0.045,0.332h-13.446c0.061,0.847,0.257,1.627,0.59,2.342c0.332,0.716,0.755,1.335,1.269,1.859
			c0.514,0.523,1.107,0.932,1.783,1.223c0.675,0.293,1.395,0.438,2.16,0.438c0.523,0,1.037-0.07,1.541-0.212
			c0.503-0.141,0.967-0.332,1.39-0.574c0.423-0.241,0.801-0.538,1.133-0.891c0.333-0.353,0.59-0.74,0.771-1.164l1.783,0.484
			c-0.242,0.584-0.585,1.113-1.027,1.586c-0.443,0.474-0.957,0.887-1.541,1.238c-0.585,0.354-1.229,0.625-1.934,0.816
			S108.761,103.076,108.016,103.076z M113.817,94.072c-0.061-0.846-0.257-1.617-0.59-2.313c-0.332-0.694-0.755-1.293-1.269-1.797
			s-1.113-0.896-1.798-1.179c-0.686-0.282-1.41-0.423-2.176-0.423s-1.491,0.141-2.176,0.423s-1.284,0.675-1.798,1.179
			s-0.927,1.107-1.238,1.813c-0.313,0.705-0.499,1.471-0.559,2.297H113.817z"/>
	</g>
	<g>
		<path fill="#542437" d="M66.768,61.514c-1.874,0-3.464,1.59-3.464,3.463c0,1.873,1.59,3.462,3.464,3.462
			c1.873,0,3.463-1.59,3.463-3.462C70.23,63.104,68.641,61.514,66.768,61.514L66.768,61.514L66.768,61.514z M52.577,61.514
			c-1.873,0-3.463,1.59-3.463,3.463c0,1.873,1.59,3.462,3.463,3.462c1.987,0,3.461-1.59,3.461-3.462
			C56.038,63.104,54.448,61.514,52.577,61.514L52.577,61.514L52.577,61.514z M42.358,32.905l2.668-0.625l3.917,16.631h22.763
			l4.428-12.09l0.057,0.059l3.521-9.596l6.527-1.531l0.624,2.666l-5.108,1.193l-8.061,22.082h-0.057l-3.294,8.799H48.488v-2.725
			h19.926l2.271-6.074H46.729L42.358,32.905L42.358,32.905z M49.681,36.481l1.873-2.045l7.097,6.699V23.026h2.724v18.166l7.38-6.756
			l1.874,2.045l-10.617,9.707L49.681,36.481L49.681,36.481z"/>
	</g>
</g>
</svg>
