<?xml version="1.0" encoding="utf-8"?>
<!-- Generator: Adobe Illustrator 16.0.0, SVG Export Plug-In . SVG Version: 6.00 Build 0)  -->
<!DOCTYPE svg PUBLIC "-//W3C//DTD SVG 1.1//EN" "http://www.w3.org/Graphics/SVG/1.1/DTD/svg11.dtd">
<svg version="1.1" id="Layer_1" xmlns="http://www.w3.org/2000/svg" xmlns:xlink="http://www.w3.org/1999/xlink" x="0px" y="0px"
	 width="210px" height="133px" viewBox="-7 20 210 133" enable-background="new -7 20 210 133" xml:space="preserve">
<path fill="#ECD078" d="M203,146.854c0,3.396-3.767,6.146-8.41,6.146H1.41c-4.644,0-8.41-2.751-8.41-6.146V26.146
	C-7,22.752-3.235,20,1.41,20h193.182c4.642,0,8.408,2.752,8.408,6.146V146.854z"/>
<g>
	<path fill="#542437" d="M54.038,119.299c0,1.067-0.213,2.047-0.64,2.94c-0.427,0.894-1,1.667-1.719,2.319
		c-0.719,0.653-1.56,1.159-2.519,1.521c-0.959,0.36-1.986,0.54-3.079,0.54H32.726v-28.4h13.635c0.986,0,1.879,0.215,2.679,0.641
		c0.8,0.427,1.479,0.979,2.039,1.66c0.56,0.68,0.993,1.453,1.3,2.319c0.306,0.867,0.46,1.74,0.46,2.62
		c0,1.439-0.36,2.754-1.08,3.939c-0.72,1.188-1.72,2.074-2.999,2.66c1.625,0.48,2.912,1.375,3.858,2.681
		C53.564,116.046,54.038,117.566,54.038,119.299z M35.485,100.659v10.479h9.756c0.693,0,1.339-0.146,1.939-0.439
		c0.6-0.293,1.12-0.68,1.56-1.16c0.44-0.48,0.78-1.033,1.02-1.66c0.24-0.626,0.36-1.286,0.36-1.98c0-0.719-0.114-1.399-0.34-2.039
		c-0.227-0.641-0.546-1.193-0.959-1.66c-0.414-0.467-0.907-0.84-1.479-1.12c-0.574-0.28-1.193-0.42-1.859-0.42H35.485
		L35.485,100.659z M51.239,118.818c0-0.692-0.12-1.365-0.36-2.021c-0.24-0.651-0.58-1.226-1.02-1.72
		c-0.44-0.493-0.959-0.895-1.56-1.2c-0.6-0.308-1.246-0.46-1.939-0.46H35.485v10.76h10.596c0.72,0,1.4-0.146,2.04-0.438
		c0.64-0.294,1.186-0.688,1.639-1.181c0.453-0.492,0.813-1.065,1.08-1.721C51.105,120.186,51.239,119.514,51.239,118.818z"/>
	<path fill="#542437" d="M69.152,108.18c-1.839,0.053-3.439,0.56-4.798,1.52s-2.319,2.279-2.879,3.96v12.96h-2.719v-20.84h2.559v5
		c0.72-1.467,1.666-2.688,2.839-3.66c1.172-0.973,2.439-1.46,3.798-1.46c0.24,0,0.466,0,0.68,0c0.213,0,0.386,0.014,0.52,0.04
		V108.18L69.152,108.18z"/>
	<path fill="#542437" d="M80.828,127.02c-1.52,0-2.913-0.287-4.179-0.859c-1.266-0.573-2.359-1.354-3.278-2.34
		c-0.92-0.986-1.633-2.135-2.139-3.44c-0.507-1.306-0.76-2.68-0.76-4.12c0-1.466,0.26-2.853,0.779-4.16
		c0.52-1.306,1.24-2.453,2.159-3.439c0.92-0.986,2.013-1.773,3.279-2.36c1.266-0.586,2.646-0.88,4.139-0.88
		c1.492,0,2.872,0.294,4.138,0.88c1.266,0.587,2.359,1.374,3.279,2.36c0.919,0.986,1.639,2.134,2.159,3.439
		c0.52,1.308,0.78,2.694,0.78,4.16c0,1.44-0.26,2.814-0.78,4.12c-0.52,1.308-1.24,2.454-2.159,3.44
		c-0.92,0.986-2.013,1.767-3.279,2.34C83.699,126.732,82.32,127.02,80.828,127.02z M73.271,116.299c0,1.174,0.193,2.262,0.58,3.262
		c0.386,1,0.92,1.879,1.6,2.64c0.68,0.76,1.479,1.354,2.399,1.78s1.899,0.64,2.939,0.64s2.019-0.22,2.938-0.66
		c0.92-0.438,1.726-1.04,2.419-1.8s1.239-1.646,1.639-2.66c0.4-1.014,0.6-2.105,0.6-3.279c0-1.146-0.2-2.232-0.6-3.261
		c-0.4-1.026-0.946-1.92-1.639-2.681c-0.694-0.76-1.493-1.359-2.399-1.799c-0.906-0.44-1.879-0.66-2.918-0.66s-2.02,0.22-2.939,0.66
		c-0.92,0.439-1.719,1.047-2.399,1.819c-0.68,0.773-1.22,1.673-1.62,2.7C73.47,114.025,73.271,115.126,73.271,116.299z"/>
	<path fill="#542437" d="M121.211,105.779h2.639l-8.916,20.84h-2.279l-4.438-10.641l-4.439,10.641H101.5l-8.917-20.84h2.599
		l7.597,18.039l3.957-9.521l-3.56-8.479h2.32l2.719,6.801l2.679-6.801h2.319l-3.521,8.479l3.959,9.521L121.211,105.779z"/>
	<path fill="#542437" d="M133.846,127.02c-1.625,0-3.211-0.268-4.758-0.801s-2.879-1.306-3.998-2.318l1.24-1.84
		c1.172,0.959,2.365,1.68,3.578,2.158c1.213,0.48,2.512,0.721,3.898,0.721c1.68,0,3.018-0.34,4.018-1.021s1.5-1.646,1.5-2.899
		c0-0.586-0.133-1.072-0.4-1.459c-0.266-0.388-0.66-0.728-1.18-1.021c-0.52-0.293-1.172-0.553-1.959-0.78
		c-0.787-0.226-1.699-0.46-2.738-0.698c-1.199-0.295-2.24-0.588-3.119-0.881c-0.879-0.294-1.604-0.627-2.18-1
		c-0.572-0.373-0.998-0.834-1.279-1.381c-0.279-0.546-0.42-1.232-0.42-2.06c0-1.04,0.207-1.96,0.621-2.761
		c0.412-0.799,0.973-1.459,1.678-1.979c0.707-0.521,1.533-0.913,2.48-1.181c0.945-0.267,1.951-0.399,3.018-0.399
		c1.6,0,3.053,0.261,4.359,0.78c1.305,0.52,2.359,1.207,3.158,2.06l-1.32,1.601c-0.773-0.801-1.713-1.4-2.818-1.801
		c-1.104-0.399-2.258-0.6-3.459-0.6c-0.719,0-1.385,0.074-1.998,0.221s-1.154,0.379-1.619,0.699c-0.467,0.32-0.834,0.727-1.1,1.221
		c-0.268,0.493-0.4,1.073-0.4,1.739c0,0.56,0.095,1.015,0.279,1.36c0.188,0.347,0.494,0.646,0.92,0.9
		c0.426,0.252,0.967,0.479,1.619,0.68s1.445,0.406,2.379,0.619c1.334,0.319,2.506,0.641,3.521,0.961
		c1.012,0.318,1.858,0.692,2.538,1.119c0.681,0.428,1.191,0.946,1.539,1.561c0.347,0.613,0.521,1.359,0.521,2.24
		c0,1.92-0.731,3.438-2.198,4.56C138.298,126.46,136.326,127.02,133.846,127.02z"/>
	<path fill="#542437" d="M155.438,127.02c-1.52,0-2.918-0.287-4.196-0.859c-1.279-0.573-2.388-1.36-3.318-2.36
		c-0.935-1-1.659-2.151-2.18-3.46c-0.521-1.306-0.779-2.706-0.779-4.199c0-1.467,0.261-2.847,0.779-4.141
		c0.521-1.293,1.246-2.426,2.18-3.4c0.933-0.973,2.031-1.746,3.3-2.32c1.266-0.572,2.657-0.859,4.178-0.859
		c1.52,0,2.912,0.287,4.178,0.859c1.266,0.574,2.352,1.354,3.26,2.341c0.904,0.987,1.611,2.12,2.119,3.399
		c0.506,1.28,0.76,2.641,0.76,4.082c0,0.213-0.008,0.426-0.021,0.64s-0.032,0.36-0.059,0.438h-17.793
		c0.08,1.12,0.34,2.154,0.779,3.102s1,1.767,1.68,2.46c0.68,0.692,1.465,1.233,2.359,1.62c0.893,0.387,1.844,0.58,2.857,0.58
		c0.692,0,1.373-0.094,2.039-0.28s1.278-0.44,1.84-0.761c0.561-0.319,1.061-0.713,1.5-1.18c0.438-0.467,0.778-0.979,1.02-1.541
		l2.359,0.641c-0.32,0.773-0.773,1.475-1.359,2.101c-0.588,0.627-1.268,1.175-2.039,1.642c-0.773,0.467-1.627,0.826-2.561,1.078
		C157.383,126.893,156.424,127.02,155.438,127.02z M163.115,115.1c-0.08-1.119-0.34-2.141-0.779-3.061s-1-1.713-1.68-2.38
		s-1.473-1.187-2.379-1.56s-1.867-0.561-2.879-0.561c-1.015,0-1.974,0.188-2.879,0.561c-0.906,0.373-1.699,0.894-2.379,1.56
		c-0.681,0.667-1.228,1.467-1.642,2.399c-0.412,0.935-0.658,1.947-0.737,3.041H163.115z"/>
</g>
<g>
	<path fill="#542437" d="M99.768,79.514c-1.874,0-3.463,1.59-3.463,3.463s1.59,3.463,3.463,3.463c1.873,0,3.463-1.59,3.463-3.463
		S101.641,79.514,99.768,79.514L99.768,79.514L99.768,79.514z M85.577,79.514c-1.873,0-3.463,1.59-3.463,3.463
		s1.59,3.463,3.463,3.463c1.987,0,3.461-1.59,3.461-3.463S87.448,79.514,85.577,79.514L85.577,79.514L85.577,79.514z M75.358,50.905
		l2.668-0.625l3.917,16.631h22.763l4.428-12.09l0.058,0.059l3.521-9.596l6.527-1.531l0.624,2.666l-5.108,1.193l-8.062,22.082h-0.057
		l-3.294,8.8H81.488v-2.726h19.926l2.271-6.074H79.729L75.358,50.905L75.358,50.905z M82.681,54.481l1.873-2.045l7.097,6.699V41.026
		h2.724v18.166l7.38-6.756l1.874,2.045l-10.617,9.707L82.681,54.481L82.681,54.481z"/>
</g>
</svg>
