<?xml version="1.0" encoding="utf-8"?>
<!-- Generator: Adobe Illustrator 16.0.0, SVG Export Plug-In . SVG Version: 6.00 Build 0)  -->
<!DOCTYPE svg PUBLIC "-//W3C//DTD SVG 1.1//EN" "http://www.w3.org/Graphics/SVG/1.1/DTD/svg11.dtd">
<svg version="1.1" id="Layer_1" xmlns="http://www.w3.org/2000/svg" xmlns:xlink="http://www.w3.org/1999/xlink" x="0px" y="0px"
	 width="53.668px" height="50px" viewBox="-10.209 -9.125 53.668 50" enable-background="new -10.209 -9.125 53.668 50"
	 xml:space="preserve">
<g>
	<path fill="#ECD078" d="M16.625,1.188c0.879,0,1.59-1.183,1.59-2.643V-6.39c0-1.462-0.711-2.645-1.59-2.645
		c-0.877,0-1.588,1.183-1.588,2.645v4.936C15.037,0.006,15.748,1.188,16.625,1.188z"/>
	<path fill="#ECD078" d="M27.477,1.188c0.877,0,1.588-1.183,1.588-2.643V-6.39c0-1.462-0.711-2.645-1.588-2.645
		c-0.879,0-1.59,1.183-1.59,2.645v4.936C25.887,0.006,26.598,1.188,27.477,1.188z"/>
	<path fill="#ECD078" d="M5.775,1.188c0.879,0,1.59-1.183,1.59-2.643V-6.39c0-1.462-0.711-2.645-1.59-2.645
		c-0.877,0-1.59,1.183-1.59,2.645v4.936C4.186,0.006,4.898,1.188,5.775,1.188z"/>
	<path fill="#ECD078" d="M37.496-4.405h-7.537v2.223c0,0.202-0.018,0.398-0.057,0.586c0.797,0.748,1.301,1.866,1.301,3.119
		c0,2.25-1.631,4.072-3.643,4.072c-2.014,0-3.645-1.822-3.645-4.072c0-1.182,0.451-2.24,1.17-2.986
		c-0.057-0.229-0.094-0.467-0.094-0.719v-2.223h-5.881v2.223c0,0.226-0.033,0.441-0.076,0.651c0.756,0.747,1.236,1.835,1.236,3.054
		c0,2.25-1.633,4.072-3.646,4.072c-2.012,0-3.643-1.822-3.643-4.072c0-1.217,0.479-2.306,1.234-3.054
		c-0.045-0.21-0.076-0.426-0.076-0.651v-2.223H8.26v2.223c0,0.25-0.039,0.49-0.096,0.719c0.721,0.743,1.172,1.805,1.172,2.986
		c0,2.25-1.631,4.072-3.645,4.072c-2.012,0-3.645-1.822-3.645-4.072c0-1.252,0.508-2.371,1.303-3.119
		C3.313-1.784,3.291-1.98,3.291-2.183v-2.223h-7.537c-3.293,0-5.963,2.986-5.963,6.667v5.72v26.135c0,3.683,2.67,6.668,5.963,6.668
		h41.742c3.295,0,5.963-2.985,5.963-6.668V7.981v-5.72C43.459-1.419,40.791-4.405,37.496-4.405z"/>
</g>
</svg>
