<?xml version="1.0" encoding="utf-8"?>
<!-- Generator: Adobe Illustrator 16.0.0, SVG Export Plug-In . SVG Version: 6.00 Build 0)  -->
<!DOCTYPE svg PUBLIC "-//W3C//DTD SVG 1.1//EN" "http://www.w3.org/Graphics/SVG/1.1/DTD/svg11.dtd">
<svg version="1.1" id="Layer_1" xmlns="http://www.w3.org/2000/svg" xmlns:xlink="http://www.w3.org/1999/xlink" x="0px" y="0px"
	 width="51.082px" height="48.039px" viewBox="0 0 51.082 48.039" enable-background="new 0 0 51.082 48.039" xml:space="preserve">
<g>
	<path fill="#542437" d="M25.542,10.353c0.834,0,1.513-1.126,1.513-2.516V3.14c0-1.392-0.679-2.517-1.513-2.517
		c-0.836,0-1.513,1.125-1.513,2.517v4.697C24.028,9.227,24.705,10.353,25.542,10.353z"/>
	<path fill="#542437" d="M35.868,10.353c0.836,0,1.514-1.126,1.514-2.516V3.14c0-1.392-0.678-2.517-1.514-2.517
		s-1.512,1.125-1.512,2.517v4.697C34.356,9.227,35.032,10.353,35.868,10.353z"/>
	<path fill="#542437" d="M15.214,10.353c0.836,0,1.513-1.126,1.513-2.516V3.14c0-1.392-0.677-2.517-1.513-2.517
		c-0.835,0-1.513,1.125-1.513,2.517v4.697C13.701,9.227,14.378,10.353,15.214,10.353z"/>
	<path fill="#542437" d="M45.407,5.028h-7.174v2.115c0,0.192-0.02,0.38-0.055,0.559c0.756,0.711,1.237,1.775,1.237,2.969
		c0,2.141-1.553,3.876-3.467,3.876c-1.917,0-3.47-1.735-3.47-3.876c0-1.125,0.432-2.133,1.113-2.843
		c-0.053-0.218-0.089-0.444-0.089-0.685V5.028h-5.598v2.115c0,0.215-0.03,0.421-0.071,0.62c0.719,0.711,1.176,1.747,1.176,2.907
		c0,2.141-1.553,3.876-3.469,3.876s-3.468-1.735-3.468-3.876c0-1.159,0.455-2.195,1.174-2.907c-0.042-0.199-0.071-0.405-0.071-0.62
		V5.028h-5.597v2.115c0,0.238-0.037,0.467-0.09,0.685c0.685,0.707,1.115,1.718,1.115,2.843c0,2.141-1.554,3.876-3.469,3.876
		c-1.917,0-3.469-1.735-3.469-3.876c0-1.192,0.482-2.257,1.238-2.969C12.87,7.523,12.85,7.336,12.85,7.144V5.028H5.676
		C2.541,5.028,0,7.87,0,11.374v30.319c0,3.504,2.541,6.346,5.676,6.346h39.731c3.135,0,5.675-2.842,5.675-6.346V11.374
		C51.082,7.87,48.542,5.028,45.407,5.028z"/>
</g>
</svg>
