<?xml version="1.0" encoding="utf-8"?>
<!-- Generator: Adobe Illustrator 16.0.0, SVG Export Plug-In . SVG Version: 6.00 Build 0)  -->
<!DOCTYPE svg PUBLIC "-//W3C//DTD SVG 1.1//EN" "http://www.w3.org/Graphics/SVG/1.1/DTD/svg11.dtd">
<svg version="1.1" id="Layer_1" xmlns="http://www.w3.org/2000/svg" xmlns:xlink="http://www.w3.org/1999/xlink" x="0px" y="0px"
	 width="255px" height="123px" viewBox="0 0 255 123" enable-background="new 0 0 255 123" xml:space="preserve">
<g>
	<path fill="#623C30" d="M115.068,111.996c0-11.934,36.804-21.606,82.203-21.606c22.501,0,42.883,2.379,57.729,6.23V9.839
		C255,4.405,250.608,0,245.191,0H9.808C4.392,0,0,4.405,0,9.839v103.32C0,118.594,4.392,123,9.808,123h116.721
		C119.257,119.775,115.068,116.016,115.068,111.996z"/>
	<path fill="#B07265" d="M255,113.159V96.62c-14.846-3.852-35.228-6.23-57.729-6.23c-45.399,0-82.203,9.673-82.203,21.606
		c0,4.02,4.188,7.779,11.461,11.004h118.662C250.608,123,255,118.594,255,113.159z"/>
	<g>
		<path fill="#B07265" d="M9.003,24.95c0.373,0.256,0.852,0.478,1.438,0.665c0.585,0.188,1.243,0.281,1.972,0.281
			c0.916,0,1.65-0.166,2.202-0.498c0.552-0.332,0.972-0.821,1.26-1.469c0.288-0.646,0.475-1.442,0.56-2.388
			c0.084-0.944,0.127-2.021,0.127-3.229V9.119h1.782v9.193c0,1.379-0.064,2.635-0.191,3.766c-0.127,1.133-0.394,2.099-0.802,2.898
			c-0.407,0.8-1.001,1.421-1.781,1.864c-0.78,0.442-1.833,0.664-3.156,0.664c-1.527,0-2.833-0.374-3.919-1.124L9.003,24.95z"/>
		<path fill="#B07265" d="M27.761,27.479c-0.967,0-1.855-0.183-2.66-0.549c-0.806-0.366-1.502-0.864-2.087-1.494
			c-0.585-0.63-1.04-1.361-1.362-2.196c-0.322-0.834-0.484-1.711-0.484-2.63c0-0.936,0.166-1.822,0.497-2.656
			c0.331-0.833,0.79-1.565,1.375-2.196c0.585-0.629,1.282-1.131,2.087-1.506c0.805-0.375,1.684-0.563,2.635-0.563
			c0.949,0,1.828,0.188,2.633,0.563c0.806,0.375,1.502,0.876,2.087,1.506c0.585,0.631,1.043,1.363,1.374,2.196
			c0.331,0.834,0.497,1.72,0.497,2.656c0,0.918-0.166,1.796-0.497,2.63c-0.331,0.834-0.789,1.566-1.374,2.196
			c-0.585,0.63-1.282,1.128-2.087,1.494C29.589,27.296,28.71,27.479,27.761,27.479z M22.95,20.635c0,0.749,0.123,1.442,0.369,2.081
			s0.585,1.2,1.019,1.685c0.433,0.485,0.941,0.864,1.527,1.137c0.585,0.273,1.209,0.408,1.871,0.408c0.661,0,1.285-0.14,1.871-0.421
			c0.585-0.281,1.098-0.664,1.54-1.149c0.441-0.485,0.789-1.051,1.043-1.698c0.254-0.647,0.381-1.345,0.381-2.094
			c0-0.732-0.127-1.425-0.381-2.081c-0.255-0.655-0.603-1.226-1.043-1.711c-0.442-0.485-0.951-0.869-1.528-1.149
			s-1.196-0.421-1.857-0.421c-0.662,0-1.286,0.14-1.871,0.421c-0.585,0.281-1.094,0.668-1.527,1.162
			c-0.434,0.494-0.777,1.068-1.032,1.723C23.077,19.184,22.95,19.886,22.95,20.635z"/>
		<path fill="#B07265" d="M48.325,27.223h-1.73v-7.43c0-1.516-0.259-2.647-0.776-3.396c-0.518-0.75-1.277-1.124-2.278-1.124
			c-0.492,0-0.979,0.098-1.463,0.294c-0.484,0.195-0.938,0.464-1.361,0.804s-0.793,0.74-1.107,1.2
			c-0.314,0.459-0.547,0.961-0.7,1.506v8.146h-1.73V8.583h1.73v8.35c0.542-1.005,1.282-1.796,2.215-2.375
			c0.932-0.578,1.934-0.868,3.003-0.868c0.763,0,1.413,0.141,1.947,0.422c0.535,0.28,0.967,0.673,1.298,1.175
			c0.331,0.502,0.573,1.107,0.725,1.813c0.153,0.706,0.229,1.485,0.229,2.336V27.223z"/>
		<path fill="#B07265" d="M63.062,27.223h-1.73v-7.43c0-1.583-0.229-2.732-0.688-3.448c-0.458-0.715-1.171-1.072-2.138-1.072
			c-0.508,0-1.017,0.093-1.527,0.281c-0.509,0.187-0.984,0.45-1.425,0.791c-0.442,0.341-0.828,0.746-1.159,1.213
			c-0.331,0.468-0.581,0.974-0.75,1.519v8.146h-1.731V13.919h1.578v3.013c0.271-0.477,0.606-0.915,1.005-1.315
			c0.399-0.399,0.844-0.745,1.336-1.034c0.491-0.289,1.013-0.511,1.565-0.664c0.551-0.153,1.124-0.23,1.718-0.23
			c0.746,0,1.37,0.137,1.871,0.409c0.5,0.272,0.903,0.656,1.208,1.149c0.306,0.494,0.526,1.098,0.662,1.813
			c0.136,0.714,0.204,1.506,0.204,2.374V27.223z"/>
		<path fill="#B07265" d="M73.598,27.223V9.093h6.108c1.442,0,2.706,0.238,3.793,0.715c1.085,0.477,1.989,1.124,2.71,1.941
			c0.721,0.817,1.26,1.774,1.616,2.873c0.357,1.098,0.535,2.269,0.535,3.511c0,1.379-0.204,2.627-0.611,3.741
			c-0.408,1.116-0.984,2.068-1.73,2.861c-0.747,0.792-1.654,1.404-2.723,1.838c-1.069,0.434-2.266,0.651-3.589,0.651H73.598z
			 M86.578,18.132c0-1.089-0.153-2.089-0.458-3s-0.751-1.698-1.336-2.362c-0.585-0.665-1.303-1.179-2.151-1.544
			c-0.848-0.366-1.824-0.549-2.927-0.549h-4.352V25.64h4.352c1.12,0,2.108-0.191,2.965-0.574c0.857-0.383,1.574-0.911,2.151-1.583
			c0.577-0.672,1.014-1.464,1.311-2.375C86.429,20.197,86.578,19.205,86.578,18.132z"/>
		<path fill="#B07265" d="M97.166,27.479c-0.967,0-1.854-0.183-2.66-0.549c-0.806-0.366-1.502-0.864-2.087-1.494
			s-1.04-1.361-1.361-2.196c-0.322-0.834-0.484-1.711-0.484-2.63c0-0.936,0.166-1.822,0.497-2.656
			c0.331-0.833,0.789-1.565,1.374-2.196c0.585-0.629,1.282-1.131,2.087-1.506c0.805-0.375,1.684-0.563,2.634-0.563
			c0.95,0,1.828,0.188,2.634,0.563c0.806,0.375,1.502,0.876,2.087,1.506c0.585,0.631,1.043,1.363,1.374,2.196
			c0.332,0.834,0.497,1.72,0.497,2.656c0,0.918-0.166,1.796-0.497,2.63c-0.331,0.834-0.789,1.566-1.374,2.196
			c-0.585,0.63-1.282,1.128-2.087,1.494C98.994,27.296,98.116,27.479,97.166,27.479z M92.355,20.635
			c0,0.749,0.123,1.442,0.369,2.081s0.586,1.2,1.019,1.685c0.433,0.485,0.941,0.864,1.527,1.137
			c0.585,0.273,1.209,0.408,1.871,0.408c0.661,0,1.285-0.14,1.87-0.421c0.586-0.281,1.098-0.664,1.54-1.149
			c0.442-0.485,0.789-1.051,1.044-1.698c0.254-0.647,0.381-1.345,0.381-2.094c0-0.732-0.127-1.425-0.381-2.081
			c-0.255-0.655-0.602-1.226-1.044-1.711c-0.442-0.485-0.95-0.869-1.527-1.149c-0.577-0.281-1.196-0.421-1.857-0.421
			s-1.285,0.14-1.871,0.421s-1.094,0.668-1.527,1.162c-0.433,0.494-0.777,1.068-1.032,1.723
			C92.482,19.184,92.355,19.886,92.355,20.635z"/>
		<path fill="#B07265" d="M112.385,27.479c-0.966,0-1.857-0.183-2.671-0.549c-0.814-0.366-1.519-0.868-2.113-1.506
			c-0.594-0.639-1.056-1.374-1.386-2.208c-0.331-0.835-0.497-1.729-0.497-2.682c0-0.937,0.167-1.816,0.497-2.643
			c0.33-0.825,0.792-1.549,1.386-2.17c0.594-0.622,1.294-1.115,2.101-1.481c0.805-0.367,1.692-0.55,2.659-0.55
			c0.967,0,1.855,0.183,2.661,0.55c0.806,0.366,1.497,0.864,2.074,1.494c0.576,0.63,1.025,1.354,1.348,2.17
			c0.323,0.817,0.484,1.685,0.484,2.604c0,0.137-0.005,0.273-0.013,0.409c-0.009,0.136-0.021,0.229-0.038,0.28H107.55
			c0.05,0.715,0.215,1.375,0.496,1.979c0.28,0.605,0.637,1.128,1.069,1.571c0.433,0.442,0.933,0.787,1.501,1.034
			c0.569,0.247,1.175,0.371,1.82,0.371c0.44,0,0.873-0.06,1.298-0.179c0.423-0.119,0.814-0.281,1.17-0.486
			c0.356-0.204,0.675-0.455,0.955-0.752c0.279-0.299,0.496-0.626,0.649-0.983l1.501,0.408c-0.204,0.494-0.492,0.941-0.865,1.341
			c-0.374,0.4-0.807,0.749-1.298,1.047c-0.493,0.298-1.035,0.528-1.629,0.689C113.625,27.397,113.013,27.479,112.385,27.479z
			 M117.272,19.869c-0.051-0.715-0.216-1.366-0.497-1.954c-0.279-0.586-0.636-1.094-1.068-1.519
			c-0.433-0.426-0.938-0.758-1.514-0.997c-0.578-0.238-1.188-0.357-1.833-0.357c-0.644,0-1.255,0.119-1.832,0.357
			c-0.577,0.239-1.082,0.57-1.515,0.997c-0.433,0.425-0.781,0.937-1.043,1.532c-0.263,0.596-0.419,1.243-0.471,1.941H117.272z"/>
	</g>
	<g>
		<ellipse fill="#B07265" cx="213.93" cy="30.036" rx="5.249" ry="5.267"/>
		<ellipse fill="#B07265" cx="232.93" cy="30.255" rx="3.976" ry="3.989"/>
		<path fill="#B07265" d="M235.64,16.391c-4.39,0.002-8.23,2.319-10.402,5.794c-2.138-5.641-7.561-9.658-13.937-9.661
			c-8.236,0.003-14.916,6.703-14.916,14.969c0,8.267,6.68,14.967,14.916,14.967c3.217,0,6.184-1.029,8.62-2.765l3.907,6.201
			c0.249,0.395,0.677,0.632,1.14,0.632c0.018,0,0.035-0.001,0.053-0.001c0.484-0.017,0.917-0.29,1.144-0.717l3.395-6.4
			c1.794,1.03,3.865,1.625,6.081,1.626c6.785-0.002,12.281-5.517,12.285-12.321C247.921,21.908,242.425,16.394,235.64,16.391z
			 M199.449,27.494c0.014-6.568,5.308-11.88,11.852-11.891c6.548,0.011,11.842,5.323,11.852,11.891
			c-0.01,6.566-5.304,11.879-11.852,11.891C204.757,39.373,199.463,34.06,199.449,27.494z M224.868,42.475l-2.871-4.559
			c1.064-1.099,1.954-2.362,2.643-3.746c0.679,1.372,1.6,2.596,2.715,3.62L224.868,42.475z M235.64,37.959
			c-5.09-0.01-9.206-4.137-9.213-9.244c0.007-5.108,4.123-9.238,9.213-9.247c5.089,0.009,9.206,4.139,9.215,9.247
			C244.846,33.822,240.729,37.949,235.64,37.959z"/>
		<path fill="none" stroke="#FCB316" stroke-width="3" stroke-linecap="round" stroke-linejoin="round" d="M209.823,4.485"/>
		<g>
			<path fill="#B07265" d="M225.038,14.957c-3.931-4.686-9.997-6.339-12.76-6.819l0,0c-0.918-0.164-1.416-0.199-1.418-0.199l0,0
				h0.002c-0.846-0.066-1.479-0.803-1.414-1.652l0,0c0.066-0.847,0.802-1.481,1.646-1.417l0,0c0.142,0.04,9.023,0.626,15.341,7.069
				l0,0c1.834-1.19,5.661-3.298,10.231-3.595l0,0c0.846-0.051,1.569,0.595,1.622,1.443l0,0c0.05,0.848-0.597,1.576-1.442,1.627l0,0
				c-3.864,0.215-7.465,2.245-8.956,3.244l0,0c-0.499,0.331-0.739,0.517-0.742,0.517l0,0c-0.28,0.221-0.611,0.327-0.942,0.327l0,0
				C225.771,15.5,225.34,15.315,225.038,14.957L225.038,14.957z"/>
		</g>
	</g>
	<g>
		<path fill="#623C30" d="M157.751,114.719c-0.515,0-0.989-0.098-1.422-0.293c-0.435-0.194-0.811-0.463-1.125-0.803
			c-0.316-0.338-0.563-0.729-0.738-1.174c-0.177-0.444-0.265-0.92-0.265-1.427c0-0.498,0.088-0.968,0.265-1.406
			c0.176-0.439,0.422-0.825,0.738-1.154c0.314-0.332,0.688-0.595,1.118-0.79c0.429-0.194,0.9-0.291,1.415-0.291
			s0.985,0.097,1.414,0.291c0.429,0.195,0.798,0.46,1.104,0.797c0.307,0.333,0.546,0.719,0.717,1.154
			c0.173,0.435,0.259,0.897,0.259,1.387c0,0.071-0.003,0.144-0.007,0.217c-0.005,0.072-0.011,0.121-0.02,0.148h-6.027
			c0.026,0.38,0.114,0.73,0.263,1.055c0.15,0.319,0.34,0.599,0.569,0.834c0.231,0.235,0.497,0.419,0.8,0.55
			c0.301,0.132,0.625,0.197,0.969,0.197c0.234,0,0.463-0.032,0.69-0.095c0.225-0.063,0.432-0.148,0.621-0.258
			c0.189-0.108,0.359-0.242,0.51-0.401c0.146-0.157,0.263-0.333,0.345-0.523l0.8,0.217c-0.109,0.265-0.263,0.502-0.462,0.715
			c-0.198,0.213-0.429,0.399-0.689,0.558c-0.263,0.157-0.551,0.28-0.868,0.366C158.409,114.675,158.084,114.719,157.751,114.719z
			 M160.351,110.669c-0.027-0.381-0.116-0.728-0.265-1.039c-0.149-0.313-0.34-0.582-0.568-0.81c-0.23-0.226-0.499-0.402-0.807-0.529
			c-0.306-0.127-0.632-0.189-0.974-0.189c-0.344,0-0.668,0.063-0.976,0.189s-0.575,0.304-0.806,0.529
			c-0.229,0.228-0.416,0.499-0.557,0.815c-0.14,0.318-0.222,0.661-0.249,1.033H160.351z"/>
		<path fill="#623C30" d="M173.107,114.582h-0.921v-3.954c0-0.824-0.128-1.431-0.386-1.822c-0.256-0.388-0.647-0.582-1.172-0.582
			c-0.271,0-0.527,0.05-0.765,0.149c-0.24,0.1-0.461,0.239-0.663,0.42c-0.203,0.183-0.382,0.397-0.535,0.646
			c-0.154,0.25-0.271,0.523-0.353,0.822v4.32h-0.921v-3.954c0-0.842-0.127-1.453-0.379-1.835c-0.253-0.38-0.641-0.569-1.165-0.569
			c-0.533,0-1.007,0.186-1.422,0.556c-0.416,0.372-0.713,0.861-0.895,1.469v4.334h-0.919v-7.079h0.839v1.604
			c0.289-0.542,0.668-0.968,1.138-1.271c0.469-0.303,0.987-0.454,1.557-0.454c0.597,0,1.075,0.167,1.437,0.504
			c0.36,0.334,0.578,0.773,0.649,1.317c0.659-1.213,1.57-1.821,2.736-1.821c0.389,0,0.719,0.072,0.995,0.218
			c0.274,0.144,0.497,0.351,0.663,0.618c0.167,0.267,0.288,0.587,0.366,0.964c0.076,0.376,0.114,0.796,0.114,1.256V114.582z"/>
		<path fill="#623C30" d="M176.887,114.719c-0.361,0-0.691-0.059-0.989-0.171c-0.299-0.113-0.554-0.271-0.765-0.468
			c-0.214-0.2-0.377-0.431-0.495-0.694c-0.118-0.262-0.177-0.539-0.177-0.828c0-0.326,0.071-0.623,0.218-0.891
			c0.144-0.267,0.347-0.496,0.609-0.686c0.261-0.191,0.575-0.337,0.942-0.44c0.363-0.106,0.769-0.158,1.21-0.158
			c0.353,0,0.714,0.032,1.085,0.097c0.369,0.063,0.698,0.154,0.987,0.271v-0.639c0-0.625-0.178-1.121-0.533-1.488
			c-0.357-0.366-0.838-0.55-1.444-0.55c-0.379,0-0.755,0.072-1.13,0.218s-0.758,0.354-1.145,0.626l-0.325-0.612
			c0.46-0.307,0.906-0.54,1.342-0.691c0.433-0.155,0.883-0.232,1.353-0.232c0.859,0,1.54,0.25,2.046,0.747
			c0.506,0.499,0.757,1.188,0.757,2.065v3.192c0,0.254,0.108,0.382,0.326,0.382v0.814c-0.071,0.009-0.14,0.016-0.204,0.021
			c-0.063,0.004-0.117,0.006-0.161,0.006c-0.181,0-0.346-0.055-0.495-0.163c-0.148-0.109-0.231-0.271-0.249-0.489l-0.028-0.558
			c-0.308,0.418-0.711,0.742-1.212,0.971C177.908,114.604,177.401,114.719,176.887,114.719z M177.116,114.011
			c0.406,0,0.811-0.088,1.212-0.263c0.401-0.178,0.72-0.422,0.955-0.729c0.063-0.082,0.116-0.17,0.161-0.266
			c0.046-0.095,0.068-0.183,0.068-0.266v-1.154c-0.307-0.116-0.628-0.207-0.961-0.271c-0.335-0.063-0.659-0.095-0.975-0.095
			c-0.658,0-1.194,0.134-1.604,0.4c-0.413,0.268-0.618,0.637-0.618,1.107c0,0.19,0.037,0.376,0.108,0.558
			c0.072,0.182,0.183,0.344,0.333,0.489c0.148,0.145,0.331,0.263,0.549,0.353C176.562,113.966,176.819,114.011,177.116,114.011z"/>
		<path fill="#623C30" d="M182.438,106.022v-1.358h0.922v1.358H182.438z M182.438,114.582v-7.079h0.922v7.079H182.438z"/>
		<path fill="#623C30" d="M185.377,104.664h0.922v8.314c0,0.263,0.071,0.469,0.217,0.618c0.144,0.151,0.347,0.225,0.608,0.225
			c0.1,0,0.217-0.015,0.353-0.041c0.135-0.026,0.263-0.063,0.379-0.108l0.163,0.748c-0.172,0.071-0.382,0.131-0.63,0.177
			c-0.249,0.044-0.463,0.065-0.644,0.065c-0.424,0-0.76-0.119-1.003-0.359c-0.243-0.238-0.365-0.577-0.365-1.012V104.664z"/>
		<path fill="#623C30" d="M193.868,114.719c-0.361,0-0.69-0.059-0.989-0.171c-0.297-0.113-0.552-0.271-0.765-0.468
			c-0.212-0.2-0.377-0.431-0.493-0.694c-0.117-0.262-0.176-0.539-0.176-0.828c0-0.326,0.072-0.623,0.216-0.891
			c0.145-0.267,0.348-0.496,0.609-0.686c0.262-0.191,0.575-0.337,0.941-0.44c0.365-0.106,0.769-0.158,1.212-0.158
			c0.352,0,0.712,0.032,1.082,0.097c0.37,0.063,0.7,0.154,0.991,0.271v-0.639c0-0.625-0.181-1.121-0.537-1.488
			c-0.357-0.366-0.838-0.55-1.441-0.55c-0.38,0-0.756,0.072-1.131,0.218s-0.755,0.354-1.145,0.626l-0.325-0.612
			c0.461-0.307,0.908-0.54,1.341-0.691c0.434-0.155,0.885-0.232,1.354-0.232c0.857,0,1.538,0.25,2.045,0.747
			c0.506,0.499,0.758,1.188,0.758,2.065v3.192c0,0.254,0.11,0.382,0.325,0.382v0.814c-0.072,0.009-0.14,0.016-0.202,0.021
			c-0.063,0.004-0.117,0.006-0.164,0.006c-0.18,0-0.344-0.055-0.493-0.163c-0.149-0.109-0.232-0.271-0.251-0.489l-0.026-0.558
			c-0.308,0.418-0.712,0.742-1.213,0.971C194.892,114.604,194.382,114.719,193.868,114.719z M194.098,114.011
			c0.407,0,0.812-0.088,1.213-0.263c0.401-0.178,0.72-0.422,0.953-0.729c0.064-0.082,0.12-0.17,0.165-0.266
			c0.045-0.095,0.068-0.183,0.068-0.266v-1.154c-0.31-0.116-0.63-0.207-0.964-0.271c-0.334-0.063-0.658-0.095-0.976-0.095
			c-0.658,0-1.192,0.134-1.604,0.4c-0.409,0.268-0.616,0.637-0.616,1.107c0,0.19,0.036,0.376,0.108,0.558s0.184,0.344,0.331,0.489
			c0.149,0.145,0.333,0.263,0.549,0.353C193.543,113.966,193.801,114.011,194.098,114.011z"/>
		<path fill="#623C30" d="M202.346,114.719c-0.486,0-0.939-0.103-1.354-0.306c-0.416-0.205-0.774-0.474-1.077-0.81
			c-0.301-0.334-0.537-0.723-0.703-1.161c-0.167-0.439-0.251-0.899-0.251-1.38c0-0.497,0.081-0.971,0.244-1.42
			c0.161-0.447,0.385-0.841,0.67-1.174c0.284-0.337,0.622-0.602,1.016-0.797c0.393-0.194,0.824-0.291,1.293-0.291
			c0.597,0,1.124,0.156,1.585,0.468c0.461,0.313,0.827,0.692,1.098,1.136v-4.32h0.92v8.722c0,0.254,0.108,0.382,0.324,0.382v0.814
			c-0.153,0.027-0.274,0.041-0.364,0.041c-0.227,0-0.412-0.066-0.556-0.197c-0.146-0.132-0.217-0.287-0.217-0.469v-0.747
			c-0.288,0.462-0.67,0.829-1.144,1.1C203.354,114.582,202.859,114.719,202.346,114.719z M202.536,113.901
			c0.233,0,0.48-0.044,0.737-0.134c0.258-0.092,0.496-0.216,0.717-0.375c0.223-0.158,0.414-0.345,0.577-0.557
			c0.161-0.212,0.26-0.443,0.298-0.685v-2.188c-0.091-0.245-0.225-0.474-0.4-0.688c-0.176-0.212-0.374-0.4-0.596-0.564
			c-0.221-0.161-0.457-0.289-0.704-0.38c-0.248-0.09-0.495-0.136-0.737-0.136c-0.379,0-0.726,0.083-1.036,0.245
			c-0.313,0.163-0.577,0.378-0.794,0.645c-0.216,0.268-0.386,0.573-0.507,0.919c-0.123,0.344-0.183,0.696-0.183,1.059
			c0,0.379,0.067,0.743,0.202,1.089c0.136,0.343,0.321,0.645,0.555,0.901c0.235,0.259,0.513,0.464,0.835,0.619
			C201.82,113.826,202.165,113.901,202.536,113.901z"/>
		<path fill="#623C30" d="M210.781,114.719c-0.487,0-0.939-0.103-1.353-0.306c-0.416-0.205-0.774-0.474-1.077-0.81
			c-0.303-0.334-0.536-0.723-0.704-1.161c-0.168-0.439-0.251-0.899-0.251-1.38c0-0.497,0.081-0.971,0.244-1.42
			c0.164-0.447,0.386-0.841,0.67-1.174c0.284-0.337,0.624-0.602,1.016-0.797c0.393-0.194,0.823-0.291,1.294-0.291
			c0.596,0,1.124,0.156,1.585,0.468c0.46,0.313,0.825,0.692,1.097,1.136v-4.32h0.92v8.722c0,0.254,0.109,0.382,0.325,0.382v0.814
			c-0.152,0.027-0.275,0.041-0.365,0.041c-0.226,0-0.412-0.066-0.556-0.197c-0.145-0.132-0.217-0.287-0.217-0.469v-0.747
			c-0.289,0.462-0.67,0.829-1.144,1.1C211.792,114.582,211.297,114.719,210.781,114.719z M210.972,113.901
			c0.235,0,0.48-0.044,0.738-0.134c0.258-0.092,0.497-0.216,0.719-0.375c0.22-0.158,0.412-0.345,0.575-0.557
			c0.162-0.212,0.263-0.443,0.298-0.685v-2.188c-0.092-0.245-0.224-0.474-0.399-0.688c-0.176-0.212-0.375-0.4-0.596-0.564
			c-0.223-0.161-0.456-0.289-0.705-0.38c-0.25-0.09-0.494-0.136-0.739-0.136c-0.379,0-0.724,0.083-1.036,0.245
			c-0.31,0.163-0.574,0.378-0.79,0.645c-0.218,0.268-0.386,0.573-0.508,0.919c-0.122,0.344-0.183,0.696-0.183,1.059
			c0,0.379,0.066,0.743,0.202,1.089c0.135,0.343,0.321,0.645,0.555,0.901c0.234,0.259,0.513,0.464,0.832,0.619
			C210.257,113.826,210.602,113.901,210.972,113.901z"/>
		<path fill="#623C30" d="M219.815,108.317c-0.623,0.018-1.165,0.19-1.625,0.517c-0.461,0.326-0.785,0.775-0.975,1.347v4.401h-0.922
			v-7.079h0.867v1.699c0.244-0.5,0.564-0.913,0.962-1.244c0.397-0.33,0.825-0.496,1.286-0.496c0.081,0,0.158,0,0.229,0
			s0.132,0.005,0.177,0.014V108.317z"/>
		<path fill="#623C30" d="M224.135,114.719c-0.514,0-0.987-0.098-1.422-0.293c-0.433-0.194-0.808-0.463-1.125-0.803
			c-0.315-0.338-0.562-0.729-0.736-1.174c-0.177-0.444-0.265-0.92-0.265-1.427c0-0.498,0.088-0.968,0.265-1.406
			c0.175-0.439,0.421-0.825,0.736-1.154c0.317-0.332,0.69-0.595,1.119-0.79c0.43-0.194,0.901-0.291,1.415-0.291
			c0.515,0,0.986,0.097,1.414,0.291c0.43,0.195,0.798,0.46,1.104,0.797c0.308,0.333,0.547,0.719,0.718,1.154
			c0.173,0.435,0.257,0.897,0.257,1.387c0,0.071-0.002,0.144-0.006,0.217c-0.005,0.072-0.012,0.121-0.021,0.148h-6.027
			c0.026,0.38,0.115,0.73,0.265,1.055c0.15,0.319,0.34,0.599,0.569,0.834s0.496,0.419,0.798,0.55
			c0.303,0.132,0.626,0.197,0.971,0.197c0.232,0,0.463-0.032,0.689-0.095c0.224-0.063,0.433-0.148,0.622-0.258
			c0.189-0.108,0.359-0.242,0.508-0.401c0.148-0.157,0.265-0.333,0.347-0.523l0.798,0.217c-0.107,0.265-0.263,0.502-0.461,0.715
			s-0.428,0.399-0.69,0.558c-0.263,0.157-0.551,0.28-0.866,0.366C224.794,114.675,224.47,114.719,224.135,114.719z M226.734,110.669
			c-0.026-0.381-0.114-0.728-0.264-1.039c-0.148-0.313-0.339-0.582-0.568-0.81c-0.229-0.226-0.498-0.402-0.806-0.529
			s-0.632-0.189-0.975-0.189s-0.669,0.063-0.975,0.189c-0.308,0.127-0.575,0.304-0.807,0.529c-0.229,0.228-0.415,0.499-0.557,0.815
			c-0.139,0.318-0.223,0.661-0.249,1.033H226.734z"/>
		<path fill="#623C30" d="M231.366,114.719c-0.551,0-1.087-0.092-1.61-0.272c-0.523-0.182-0.975-0.444-1.354-0.788l0.419-0.625
			c0.397,0.325,0.802,0.57,1.212,0.734c0.41,0.161,0.852,0.243,1.321,0.243c0.568,0,1.023-0.115,1.361-0.346
			c0.339-0.231,0.508-0.559,0.508-0.986c0-0.199-0.045-0.364-0.136-0.495c-0.09-0.131-0.223-0.247-0.399-0.346
			c-0.175-0.101-0.396-0.188-0.665-0.266c-0.266-0.075-0.574-0.157-0.928-0.238c-0.404-0.099-0.758-0.198-1.056-0.298
			c-0.297-0.101-0.544-0.212-0.737-0.341c-0.194-0.126-0.338-0.284-0.433-0.469s-0.143-0.419-0.143-0.698
			c0-0.354,0.07-0.666,0.209-0.938c0.142-0.273,0.33-0.496,0.569-0.672c0.239-0.179,0.519-0.312,0.839-0.403
			c0.322-0.089,0.661-0.135,1.022-0.135c0.542,0,1.035,0.088,1.479,0.265c0.44,0.177,0.798,0.409,1.067,0.7l-0.445,0.543
			c-0.262-0.271-0.581-0.476-0.954-0.61c-0.377-0.138-0.767-0.205-1.173-0.205c-0.245,0-0.47,0.025-0.676,0.074
			c-0.209,0.051-0.392,0.131-0.549,0.238c-0.159,0.109-0.283,0.248-0.373,0.414c-0.09,0.169-0.136,0.364-0.136,0.591
			c0,0.191,0.032,0.345,0.095,0.463c0.063,0.119,0.166,0.221,0.312,0.308c0.145,0.084,0.326,0.16,0.549,0.229
			c0.221,0.069,0.489,0.14,0.805,0.211c0.452,0.108,0.85,0.218,1.193,0.326c0.343,0.109,0.629,0.235,0.859,0.381
			c0.23,0.143,0.403,0.321,0.521,0.53s0.176,0.461,0.176,0.761c0,0.652-0.248,1.169-0.744,1.549
			C232.875,114.527,232.207,114.719,231.366,114.719z"/>
		<path fill="#623C30" d="M237.963,114.719c-0.551,0-1.089-0.092-1.613-0.272c-0.521-0.182-0.974-0.444-1.354-0.788l0.42-0.625
			c0.397,0.325,0.802,0.57,1.211,0.734c0.411,0.161,0.853,0.243,1.322,0.243c0.568,0,1.022-0.115,1.361-0.346
			c0.338-0.231,0.507-0.559,0.507-0.986c0-0.199-0.044-0.364-0.135-0.495c-0.09-0.131-0.224-0.247-0.399-0.346
			c-0.175-0.101-0.397-0.188-0.663-0.266c-0.267-0.075-0.576-0.157-0.929-0.238c-0.405-0.099-0.759-0.198-1.057-0.298
			c-0.298-0.101-0.543-0.212-0.738-0.341c-0.194-0.126-0.337-0.284-0.433-0.469c-0.095-0.185-0.142-0.419-0.142-0.698
			c0-0.354,0.069-0.666,0.209-0.938c0.141-0.273,0.329-0.496,0.57-0.672c0.237-0.179,0.517-0.312,0.838-0.403
			c0.322-0.089,0.662-0.135,1.023-0.135c0.541,0,1.034,0.088,1.476,0.265c0.442,0.177,0.8,0.409,1.07,0.7l-0.446,0.543
			c-0.263-0.271-0.581-0.476-0.954-0.61c-0.377-0.138-0.766-0.205-1.173-0.205c-0.244,0-0.47,0.025-0.676,0.074
			c-0.209,0.051-0.392,0.131-0.55,0.238c-0.159,0.109-0.283,0.248-0.373,0.414c-0.09,0.169-0.135,0.364-0.135,0.591
			c0,0.191,0.031,0.345,0.095,0.463c0.062,0.119,0.166,0.221,0.311,0.308c0.145,0.084,0.327,0.16,0.55,0.229
			c0.221,0.069,0.489,0.14,0.806,0.211c0.451,0.108,0.85,0.218,1.191,0.326c0.344,0.109,0.63,0.235,0.859,0.381
			c0.231,0.143,0.404,0.321,0.522,0.53c0.117,0.209,0.176,0.461,0.176,0.761c0,0.652-0.248,1.169-0.744,1.549
			C239.471,114.527,238.803,114.719,237.963,114.719z"/>
	</g>
	<g>
		<g>
			<g>
				<path fill="#B07265" d="M12.311,48.789c0-0.58,0.102-1.157,0.305-1.732c0.203-0.575,0.499-1.089,0.887-1.542
					c0.388-0.453,0.867-0.822,1.436-1.108c0.568-0.285,1.214-0.428,1.937-0.428c0.858,0,1.588,0.195,2.194,0.584
					c0.605,0.389,1.056,0.896,1.354,1.521l-0.758,0.462c-0.154-0.318-0.338-0.585-0.556-0.802c-0.216-0.218-0.451-0.394-0.704-0.531
					c-0.253-0.136-0.515-0.232-0.786-0.292c-0.271-0.059-0.537-0.088-0.799-0.088c-0.579,0-1.088,0.117-1.53,0.353
					c-0.443,0.235-0.815,0.543-1.117,0.924c-0.304,0.38-0.531,0.808-0.685,1.284c-0.153,0.476-0.23,0.958-0.23,1.447
					c0,0.534,0.092,1.046,0.277,1.536s0.438,0.921,0.759,1.297c0.32,0.375,0.699,0.675,1.137,0.896
					c0.438,0.222,0.915,0.333,1.429,0.333c0.271,0,0.548-0.034,0.833-0.101c0.284-0.068,0.56-0.178,0.826-0.326
					c0.267-0.149,0.512-0.336,0.739-0.558c0.225-0.222,0.415-0.491,0.568-0.809l0.785,0.408c-0.153,0.363-0.37,0.682-0.649,0.958
					c-0.28,0.276-0.591,0.51-0.935,0.7c-0.343,0.19-0.706,0.335-1.09,0.435s-0.761,0.149-1.13,0.149
					c-0.66,0-1.264-0.144-1.815-0.434s-1.025-0.667-1.422-1.134c-0.397-0.467-0.706-0.997-0.928-1.59
					C12.421,50.01,12.311,49.406,12.311,48.789z"/>
				<path fill="#B07265" d="M25.055,53.817c-0.515,0-0.987-0.098-1.416-0.292s-0.799-0.46-1.11-0.794
					c-0.311-0.335-0.553-0.725-0.724-1.169c-0.172-0.444-0.258-0.91-0.258-1.399c0-0.498,0.088-0.969,0.265-1.413
					c0.175-0.444,0.419-0.833,0.73-1.169c0.312-0.335,0.682-0.602,1.11-0.801c0.429-0.2,0.896-0.299,1.402-0.299
					c0.505,0,0.972,0.1,1.401,0.299c0.429,0.199,0.8,0.465,1.111,0.801c0.312,0.336,0.555,0.725,0.731,1.169
					c0.176,0.444,0.264,0.915,0.264,1.413c0,0.489-0.088,0.956-0.264,1.399c-0.176,0.444-0.42,0.833-0.731,1.169
					c-0.311,0.334-0.682,0.6-1.111,0.794C26.027,53.719,25.56,53.817,25.055,53.817z M22.495,50.175
					c0,0.399,0.065,0.768,0.196,1.107c0.13,0.34,0.312,0.639,0.542,0.897c0.23,0.258,0.5,0.459,0.813,0.604
					c0.312,0.145,0.643,0.218,0.996,0.218c0.352,0,0.684-0.075,0.995-0.225c0.312-0.15,0.584-0.353,0.82-0.611
					c0.235-0.258,0.42-0.56,0.555-0.904c0.136-0.344,0.204-0.715,0.204-1.114c0-0.389-0.068-0.758-0.204-1.108
					c-0.135-0.348-0.32-0.651-0.555-0.91c-0.235-0.258-0.506-0.462-0.813-0.612c-0.307-0.149-0.636-0.224-0.988-0.224
					s-0.684,0.074-0.996,0.224c-0.311,0.149-0.582,0.356-0.812,0.619c-0.23,0.262-0.414,0.568-0.549,0.917
					C22.563,49.403,22.495,49.777,22.495,50.175z"/>
				<path fill="#B07265" d="M40.561,53.681H39.64v-3.954c0-0.823-0.129-1.431-0.386-1.821c-0.257-0.389-0.648-0.584-1.171-0.584
					c-0.271,0-0.526,0.05-0.765,0.149c-0.239,0.1-0.46,0.24-0.664,0.421c-0.203,0.181-0.381,0.396-0.535,0.645
					c-0.153,0.25-0.271,0.523-0.352,0.822v4.321h-0.921v-3.954c0-0.842-0.126-1.454-0.379-1.834
					c-0.253-0.381-0.641-0.571-1.165-0.571c-0.533,0-1.007,0.186-1.422,0.557c-0.416,0.372-0.713,0.861-0.894,1.467v4.334h-0.92
					v-7.079h0.839v1.604c0.289-0.543,0.668-0.967,1.138-1.271c0.47-0.303,0.989-0.455,1.557-0.455c0.596,0,1.075,0.168,1.436,0.502
					c0.362,0.335,0.578,0.775,0.65,1.318c0.659-1.213,1.571-1.82,2.735-1.82c0.388,0,0.72,0.073,0.995,0.217
					c0.275,0.145,0.497,0.351,0.664,0.619c0.167,0.267,0.289,0.588,0.366,0.964c0.077,0.376,0.115,0.795,0.115,1.256V53.681z"/>
				<path fill="#B07265" d="M46.085,53.817c-0.596,0-1.124-0.152-1.585-0.456c-0.46-0.303-0.83-0.686-1.11-1.147v4.362h-0.92v-9.974
					h0.826v1.373c0.289-0.444,0.663-0.804,1.124-1.081c0.461-0.276,0.962-0.414,1.503-0.414c0.488,0,0.937,0.102,1.348,0.306
					c0.411,0.203,0.765,0.475,1.063,0.815c0.298,0.34,0.531,0.732,0.698,1.175c0.167,0.444,0.251,0.902,0.251,1.373
					c0,0.498-0.078,0.969-0.23,1.413c-0.154,0.444-0.373,0.833-0.657,1.169c-0.284,0.334-0.622,0.6-1.015,0.794
					C46.986,53.719,46.555,53.817,46.085,53.817z M45.828,53.001c0.379,0,0.722-0.082,1.029-0.245
					c0.306-0.164,0.571-0.378,0.792-0.646c0.221-0.267,0.39-0.57,0.507-0.91c0.118-0.34,0.176-0.691,0.176-1.053
					c0-0.38-0.067-0.742-0.203-1.087c-0.135-0.344-0.321-0.647-0.555-0.91c-0.235-0.263-0.513-0.471-0.833-0.625
					c-0.321-0.153-0.666-0.23-1.036-0.23c-0.235,0-0.478,0.047-0.73,0.143c-0.253,0.094-0.493,0.222-0.719,0.38
					c-0.226,0.158-0.417,0.344-0.575,0.557c-0.158,0.213-0.255,0.438-0.292,0.673v2.174c0.108,0.253,0.246,0.489,0.413,0.707
					c0.167,0.217,0.357,0.405,0.569,0.564c0.212,0.158,0.443,0.283,0.691,0.373C45.312,52.957,45.566,53.001,45.828,53.001z"/>
				<path fill="#B07265" d="M52.667,53.817c-0.361,0-0.692-0.057-0.99-0.17c-0.297-0.113-0.552-0.27-0.764-0.469
					c-0.212-0.199-0.377-0.43-0.494-0.693c-0.118-0.263-0.177-0.539-0.177-0.83c0-0.326,0.072-0.622,0.217-0.89
					c0.144-0.268,0.347-0.496,0.609-0.687c0.262-0.189,0.575-0.337,0.941-0.441c0.366-0.105,0.77-0.157,1.212-0.157
					c0.352,0,0.713,0.032,1.083,0.095c0.37,0.064,0.701,0.154,0.989,0.272V49.21c0-0.624-0.178-1.12-0.535-1.488
					c-0.357-0.366-0.837-0.55-1.443-0.55c-0.379,0-0.755,0.072-1.131,0.217c-0.375,0.146-0.756,0.353-1.145,0.625l-0.324-0.611
					c0.46-0.308,0.907-0.539,1.34-0.693s0.885-0.231,1.354-0.231c0.857,0,1.539,0.249,2.044,0.747
					c0.506,0.499,0.758,1.188,0.758,2.066v3.193c0,0.253,0.108,0.38,0.325,0.38v0.815c-0.072,0.009-0.14,0.016-0.203,0.021
					c-0.063,0.004-0.118,0.007-0.163,0.007c-0.181,0-0.345-0.055-0.494-0.164c-0.149-0.108-0.233-0.271-0.251-0.489l-0.027-0.557
					c-0.307,0.416-0.711,0.74-1.212,0.971C53.689,53.701,53.182,53.817,52.667,53.817z M52.897,53.11
					c0.406,0,0.81-0.088,1.211-0.265c0.402-0.176,0.72-0.419,0.955-0.728c0.063-0.081,0.117-0.169,0.163-0.264
					c0.045-0.096,0.068-0.183,0.068-0.266v-1.155c-0.307-0.118-0.628-0.208-0.962-0.271c-0.334-0.064-0.659-0.095-0.975-0.095
					c-0.659,0-1.195,0.134-1.605,0.401c-0.411,0.267-0.617,0.636-0.617,1.107c0,0.19,0.037,0.376,0.109,0.556
					c0.072,0.182,0.183,0.345,0.332,0.49c0.149,0.145,0.332,0.263,0.548,0.354C52.342,53.064,52.6,53.11,52.897,53.11z"/>
				<path fill="#B07265" d="M64.151,53.681h-0.92v-3.954c0-0.842-0.122-1.454-0.365-1.834c-0.244-0.381-0.624-0.571-1.138-0.571
					c-0.271,0-0.542,0.05-0.812,0.149c-0.271,0.1-0.524,0.24-0.758,0.421c-0.235,0.181-0.44,0.396-0.617,0.645
					c-0.175,0.25-0.309,0.519-0.399,0.809v4.334H58.22v-7.079h0.84v1.604c0.144-0.254,0.322-0.487,0.535-0.7
					c0.211-0.212,0.449-0.396,0.711-0.55c0.262-0.154,0.54-0.272,0.833-0.354s0.598-0.122,0.914-0.122
					c0.397,0,0.729,0.073,0.995,0.217c0.266,0.145,0.481,0.349,0.644,0.612c0.162,0.262,0.279,0.584,0.352,0.964
					c0.072,0.38,0.107,0.802,0.107,1.263V53.681z"/>
				<path fill="#B07265" d="M66.331,55.868c0.045,0.009,0.091,0.016,0.136,0.021c0.045,0.004,0.09,0.007,0.135,0.007
					c0.09,0,0.188-0.009,0.291-0.027c0.104-0.018,0.179-0.036,0.224-0.055c0.045-0.018,0.092-0.056,0.143-0.115
					c0.049-0.059,0.112-0.163,0.189-0.313c0.077-0.149,0.174-0.357,0.292-0.624c0.118-0.268,0.266-0.628,0.447-1.081l-3.074-7.079
					h0.961l2.614,6.223l2.411-6.223h0.88l-3.67,9.131c-0.135,0.335-0.318,0.584-0.548,0.747c-0.23,0.164-0.554,0.245-0.968,0.245
					c-0.172,0-0.325-0.014-0.461-0.041V55.868z"/>
			</g>
		</g>
		<g>
			<g>
				<path fill="#B07265" d="M12.934,68.773v-9.646h3.981c0.416,0,0.797,0.088,1.145,0.265c0.347,0.176,0.647,0.408,0.9,0.693
					c0.253,0.286,0.45,0.609,0.589,0.971c0.14,0.362,0.21,0.73,0.21,1.101c0,0.398-0.065,0.781-0.196,1.148
					c-0.131,0.366-0.318,0.691-0.563,0.972c-0.243,0.28-0.535,0.507-0.873,0.68c-0.338,0.172-0.716,0.257-1.13,0.257h-3.129v3.559
					H12.934z M13.868,64.373h3.075c0.28,0,0.535-0.061,0.765-0.184c0.23-0.123,0.426-0.285,0.589-0.488
					c0.162-0.205,0.289-0.44,0.379-0.707c0.09-0.268,0.136-0.546,0.136-0.836c0-0.299-0.053-0.583-0.156-0.85
					c-0.103-0.267-0.244-0.5-0.419-0.699c-0.176-0.2-0.384-0.356-0.623-0.469c-0.239-0.114-0.49-0.17-0.751-0.17h-2.993V64.373z"/>
				<path fill="#B07265" d="M23.984,68.912c-0.515,0-0.987-0.098-1.416-0.293c-0.428-0.195-0.799-0.46-1.11-0.796
					c-0.312-0.334-0.553-0.724-0.724-1.167c-0.172-0.445-0.257-0.911-0.257-1.399c0-0.498,0.088-0.969,0.264-1.414
					c0.176-0.444,0.42-0.833,0.731-1.169c0.312-0.335,0.682-0.602,1.111-0.802c0.429-0.198,0.896-0.298,1.402-0.298
					c0.505,0,0.973,0.1,1.401,0.298c0.428,0.2,0.799,0.467,1.11,0.802c0.312,0.336,0.556,0.725,0.732,1.169
					c0.176,0.445,0.264,0.916,0.264,1.414c0,0.488-0.088,0.954-0.264,1.399c-0.176,0.443-0.42,0.833-0.732,1.167
					c-0.312,0.336-0.682,0.601-1.11,0.796C24.957,68.814,24.49,68.912,23.984,68.912z M21.424,65.27
					c0,0.398,0.065,0.768,0.196,1.107c0.131,0.34,0.312,0.639,0.542,0.896c0.23,0.259,0.501,0.459,0.813,0.605
					c0.311,0.144,0.643,0.217,0.995,0.217s0.684-0.076,0.995-0.223c0.312-0.151,0.584-0.354,0.819-0.613
					c0.235-0.258,0.42-0.56,0.555-0.903c0.136-0.344,0.204-0.716,0.204-1.114c0-0.389-0.068-0.758-0.204-1.107
					c-0.135-0.348-0.32-0.652-0.555-0.91s-0.506-0.462-0.812-0.611c-0.307-0.149-0.636-0.225-0.989-0.225s-0.684,0.075-0.996,0.225
					s-0.582,0.355-0.813,0.618c-0.23,0.263-0.413,0.568-0.549,0.917C21.492,64.498,21.424,64.871,21.424,65.27z"/>
				<path fill="#B07265" d="M31.352,68.912c-0.551,0-1.088-0.09-1.612-0.272c-0.524-0.182-0.975-0.444-1.354-0.788l0.419-0.625
					c0.397,0.326,0.801,0.57,1.212,0.732c0.41,0.163,0.851,0.246,1.32,0.246c0.569,0,1.023-0.116,1.362-0.347
					c0.338-0.231,0.508-0.559,0.508-0.985c0-0.199-0.045-0.365-0.136-0.496s-0.224-0.248-0.399-0.347
					c-0.176-0.1-0.397-0.188-0.664-0.266c-0.267-0.076-0.576-0.154-0.928-0.237c-0.406-0.1-0.758-0.197-1.056-0.298
					c-0.297-0.1-0.543-0.213-0.738-0.341c-0.194-0.125-0.338-0.282-0.433-0.469c-0.095-0.186-0.143-0.418-0.143-0.698
					c0-0.354,0.069-0.667,0.209-0.938c0.14-0.271,0.33-0.496,0.57-0.673c0.239-0.176,0.519-0.31,0.839-0.401
					c0.321-0.09,0.661-0.136,1.023-0.136c0.542,0,1.034,0.088,1.476,0.265c0.442,0.177,0.799,0.41,1.069,0.701l-0.447,0.543
					c-0.262-0.271-0.58-0.477-0.954-0.611c-0.375-0.136-0.766-0.204-1.172-0.204c-0.244,0-0.469,0.024-0.677,0.074
					c-0.208,0.05-0.39,0.129-0.548,0.238c-0.158,0.108-0.283,0.247-0.373,0.415c-0.091,0.168-0.136,0.365-0.136,0.59
					c0,0.19,0.031,0.344,0.095,0.463c0.063,0.117,0.167,0.219,0.311,0.307c0.144,0.084,0.327,0.162,0.549,0.23
					c0.221,0.067,0.489,0.137,0.806,0.21c0.451,0.108,0.849,0.218,1.192,0.326c0.342,0.109,0.629,0.235,0.859,0.38
					c0.23,0.146,0.404,0.322,0.521,0.53c0.118,0.209,0.177,0.462,0.177,0.761c0,0.652-0.249,1.168-0.745,1.551
					C32.859,68.721,32.191,68.912,31.352,68.912z"/>
				<path fill="#B07265" d="M35.577,60.215v-1.358h0.921v1.358H35.577z M35.577,68.773v-7.077h0.921v7.077H35.577z"/>
				<path fill="#B07265" d="M41.887,68.436c-0.054,0.027-0.133,0.063-0.236,0.109c-0.104,0.045-0.224,0.09-0.359,0.135
					c-0.135,0.046-0.289,0.086-0.46,0.122c-0.172,0.038-0.353,0.056-0.542,0.056c-0.199,0-0.388-0.027-0.569-0.084
					c-0.18-0.053-0.338-0.136-0.474-0.25c-0.136-0.113-0.244-0.256-0.325-0.428S38.8,67.724,38.8,67.498V62.43h-0.975v-0.734H38.8
					v-2.392h0.921v2.392h1.625v0.734h-1.625v4.81c0.019,0.262,0.109,0.455,0.271,0.576C40.154,67.939,40.349,68,40.574,68
					c0.262,0,0.492-0.041,0.69-0.127c0.199-0.087,0.325-0.149,0.379-0.185L41.887,68.436z"/>
				<path fill="#B07265" d="M42.971,60.215v-1.358h0.921v1.358H42.971z M42.971,68.773v-7.077h0.921v7.077H42.971z"/>
				<path fill="#B07265" d="M48.916,68.912c-0.515,0-0.986-0.098-1.415-0.293c-0.43-0.195-0.8-0.46-1.111-0.796
					c-0.311-0.334-0.553-0.724-0.725-1.167c-0.171-0.445-0.257-0.911-0.257-1.399c0-0.498,0.088-0.969,0.265-1.414
					c0.176-0.444,0.42-0.833,0.731-1.169c0.312-0.335,0.682-0.602,1.111-0.802c0.429-0.198,0.896-0.298,1.401-0.298
					c0.505,0,0.973,0.1,1.401,0.298c0.429,0.2,0.799,0.467,1.11,0.802c0.312,0.336,0.556,0.725,0.732,1.169
					c0.176,0.445,0.264,0.916,0.264,1.414c0,0.488-0.088,0.954-0.264,1.399c-0.176,0.443-0.42,0.833-0.732,1.167
					c-0.312,0.336-0.681,0.601-1.11,0.796C49.889,68.814,49.421,68.912,48.916,68.912z M46.356,65.27
					c0,0.398,0.065,0.768,0.196,1.107c0.13,0.34,0.312,0.639,0.542,0.896c0.23,0.259,0.501,0.459,0.813,0.605
					c0.311,0.144,0.643,0.217,0.995,0.217s0.684-0.076,0.996-0.223c0.312-0.151,0.584-0.354,0.819-0.613
					c0.235-0.258,0.419-0.56,0.555-0.903c0.135-0.344,0.204-0.716,0.204-1.114c0-0.389-0.068-0.758-0.204-1.107
					c-0.136-0.348-0.32-0.652-0.555-0.91s-0.506-0.462-0.812-0.611c-0.308-0.149-0.637-0.225-0.989-0.225
					c-0.352,0-0.684,0.075-0.995,0.225s-0.583,0.355-0.813,0.618c-0.23,0.263-0.414,0.568-0.549,0.917
					C46.424,64.498,46.356,64.871,46.356,65.27z"/>
				<path fill="#B07265" d="M59.857,68.773h-0.92V64.82c0-0.841-0.122-1.453-0.365-1.832c-0.244-0.383-0.623-0.572-1.137-0.572
					c-0.271,0-0.542,0.05-0.813,0.15c-0.271,0.1-0.524,0.239-0.759,0.422c-0.234,0.18-0.439,0.395-0.616,0.645
					c-0.176,0.248-0.31,0.518-0.399,0.807v4.334h-0.921v-7.077h0.839v1.603c0.145-0.253,0.323-0.486,0.536-0.699
					c0.211-0.213,0.448-0.396,0.71-0.55c0.262-0.154,0.539-0.272,0.833-0.353c0.293-0.082,0.599-0.123,0.915-0.123
					c0.397,0,0.729,0.073,0.995,0.218s0.481,0.349,0.644,0.612c0.162,0.263,0.279,0.585,0.352,0.964
					c0.072,0.381,0.108,0.802,0.108,1.264V68.773z"/>
			</g>
		</g>
		<g>
			<g>
				<path fill="#B07265" d="M11.918,83.871l4.022-9.648h0.772l4.022,9.648h-1.016l-1.247-3.018h-4.319l-1.233,3.018H11.918z
					 M16.333,75.337l-1.977,4.769h3.9L16.333,75.337z"/>
				<path fill="#B07265" d="M24.594,84.005c-0.488,0-0.94-0.102-1.354-0.306c-0.416-0.202-0.774-0.473-1.077-0.808
					c-0.302-0.335-0.538-0.723-0.705-1.163c-0.167-0.438-0.251-0.898-0.251-1.378c0-0.499,0.082-0.972,0.244-1.419
					c0.163-0.449,0.387-0.842,0.671-1.176c0.284-0.336,0.623-0.6,1.016-0.795c0.392-0.195,0.823-0.292,1.293-0.292
					c0.596,0,1.124,0.155,1.584,0.469c0.461,0.313,0.827,0.69,1.098,1.135v-4.321h0.921v8.722c0,0.256,0.108,0.381,0.325,0.381
					v0.817c-0.154,0.026-0.276,0.039-0.366,0.039c-0.226,0-0.411-0.064-0.556-0.197c-0.144-0.13-0.216-0.287-0.216-0.469v-0.747
					c-0.289,0.462-0.671,0.829-1.145,1.101C25.603,83.871,25.108,84.005,24.594,84.005z M24.784,83.19
					c0.234,0,0.48-0.045,0.737-0.137c0.257-0.09,0.497-0.213,0.718-0.374c0.221-0.157,0.413-0.343,0.576-0.558
					c0.163-0.211,0.262-0.44,0.298-0.685v-2.187c-0.09-0.246-0.224-0.474-0.4-0.688c-0.176-0.212-0.375-0.4-0.596-0.563
					c-0.221-0.163-0.456-0.289-0.704-0.381c-0.249-0.091-0.494-0.136-0.738-0.136c-0.379,0-0.725,0.081-1.036,0.246
					c-0.312,0.161-0.576,0.377-0.792,0.645c-0.216,0.266-0.385,0.572-0.507,0.917c-0.123,0.344-0.183,0.698-0.183,1.06
					c0,0.381,0.067,0.741,0.203,1.087c0.135,0.345,0.321,0.646,0.556,0.903c0.234,0.258,0.512,0.464,0.832,0.618
					C24.067,83.113,24.413,83.19,24.784,83.19z"/>
				<path fill="#B07265" d="M33.031,84.005c-0.487,0-0.939-0.102-1.354-0.306c-0.416-0.202-0.774-0.473-1.077-0.808
					c-0.302-0.335-0.537-0.723-0.704-1.163c-0.167-0.438-0.251-0.898-0.251-1.378c0-0.499,0.082-0.972,0.244-1.419
					c0.163-0.449,0.386-0.842,0.67-1.176c0.284-0.336,0.623-0.6,1.016-0.795c0.393-0.195,0.824-0.292,1.293-0.292
					c0.596,0,1.124,0.155,1.585,0.469c0.46,0.313,0.826,0.69,1.097,1.135v-4.321h0.921v8.722c0,0.256,0.108,0.381,0.325,0.381v0.817
					c-0.154,0.026-0.275,0.039-0.366,0.039c-0.226,0-0.411-0.064-0.556-0.197c-0.144-0.13-0.216-0.287-0.216-0.469v-0.747
					c-0.289,0.462-0.67,0.829-1.144,1.101C34.04,83.871,33.545,84.005,33.031,84.005z M33.221,83.19c0.234,0,0.48-0.045,0.737-0.137
					c0.257-0.09,0.497-0.213,0.718-0.374c0.222-0.157,0.413-0.343,0.576-0.558c0.163-0.211,0.262-0.44,0.298-0.685v-2.187
					c-0.09-0.246-0.224-0.474-0.399-0.688c-0.177-0.212-0.375-0.4-0.597-0.563c-0.221-0.163-0.456-0.289-0.705-0.381
					c-0.249-0.091-0.494-0.136-0.738-0.136c-0.379,0-0.724,0.081-1.036,0.246c-0.312,0.161-0.576,0.377-0.793,0.645
					c-0.216,0.266-0.385,0.572-0.507,0.917c-0.123,0.344-0.183,0.698-0.183,1.06c0,0.381,0.067,0.741,0.203,1.087
					c0.135,0.345,0.321,0.646,0.556,0.903c0.234,0.258,0.512,0.464,0.833,0.618C32.505,83.113,32.85,83.19,33.221,83.19z"/>
				<path fill="#B07265" d="M42.063,77.604c-0.623,0.02-1.165,0.192-1.625,0.518c-0.461,0.325-0.786,0.774-0.976,1.345v4.404h-0.921
					v-7.08h0.867v1.698c0.244-0.498,0.564-0.914,0.962-1.244c0.397-0.331,0.826-0.495,1.287-0.495c0.081,0,0.157,0,0.229,0
					s0.131,0.005,0.176,0.014V77.604z"/>
				<path fill="#B07265" d="M46.383,84.005c-0.515,0-0.988-0.097-1.421-0.292c-0.435-0.194-0.809-0.462-1.125-0.801
					c-0.317-0.34-0.562-0.731-0.738-1.177c-0.177-0.442-0.265-0.918-0.265-1.425c0-0.498,0.088-0.967,0.265-1.408
					c0.176-0.438,0.421-0.823,0.738-1.153c0.315-0.331,0.688-0.593,1.118-0.788c0.428-0.195,0.9-0.292,1.415-0.292
					s0.987,0.097,1.416,0.292c0.429,0.195,0.796,0.459,1.104,0.795c0.307,0.334,0.546,0.719,0.717,1.153
					c0.172,0.437,0.258,0.898,0.258,1.388c0,0.072-0.002,0.145-0.006,0.216c-0.004,0.073-0.012,0.123-0.021,0.15H43.81
					c0.027,0.381,0.115,0.731,0.264,1.053c0.149,0.32,0.339,0.6,0.57,0.837c0.229,0.233,0.496,0.417,0.798,0.548
					c0.303,0.133,0.625,0.199,0.969,0.199c0.234,0,0.464-0.032,0.69-0.096c0.226-0.063,0.433-0.15,0.623-0.258
					c0.189-0.108,0.359-0.243,0.508-0.4c0.148-0.159,0.264-0.334,0.345-0.524l0.799,0.218c-0.108,0.263-0.263,0.5-0.461,0.713
					s-0.428,0.398-0.69,0.558c-0.262,0.159-0.551,0.281-0.867,0.367C47.042,83.963,46.717,84.005,46.383,84.005z M48.983,79.956
					c-0.027-0.381-0.115-0.727-0.263-1.039c-0.149-0.313-0.339-0.582-0.569-0.809c-0.23-0.228-0.499-0.402-0.806-0.531
					c-0.308-0.125-0.632-0.188-0.975-0.188s-0.668,0.063-0.975,0.188c-0.307,0.129-0.575,0.304-0.806,0.531
					c-0.23,0.227-0.415,0.498-0.555,0.815c-0.14,0.318-0.223,0.66-0.25,1.032H48.983z"/>
				<path fill="#B07265" d="M53.615,84.005c-0.551,0-1.088-0.09-1.612-0.272c-0.523-0.18-0.975-0.441-1.354-0.786l0.42-0.626
					c0.397,0.326,0.8,0.571,1.212,0.733c0.411,0.164,0.851,0.246,1.32,0.246c0.569,0,1.022-0.116,1.361-0.348
					c0.339-0.231,0.508-0.56,0.508-0.984c0-0.199-0.045-0.364-0.136-0.497c-0.09-0.13-0.224-0.245-0.399-0.346
					c-0.176-0.099-0.397-0.187-0.664-0.265c-0.267-0.077-0.576-0.157-0.928-0.239c-0.406-0.1-0.758-0.199-1.056-0.298
					s-0.544-0.213-0.738-0.34c-0.195-0.127-0.338-0.282-0.434-0.47c-0.094-0.184-0.142-0.419-0.142-0.699
					c0-0.353,0.069-0.666,0.209-0.938c0.14-0.272,0.329-0.495,0.569-0.672c0.239-0.178,0.519-0.311,0.84-0.4
					c0.32-0.091,0.661-0.136,1.022-0.136c0.541,0,1.033,0.087,1.477,0.263c0.442,0.178,0.799,0.412,1.069,0.702l-0.447,0.543
					c-0.262-0.272-0.58-0.476-0.954-0.612c-0.375-0.136-0.766-0.202-1.172-0.202c-0.244,0-0.469,0.024-0.677,0.073
					c-0.208,0.05-0.391,0.129-0.548,0.238c-0.159,0.108-0.283,0.247-0.373,0.414c-0.091,0.167-0.136,0.365-0.136,0.593
					c0,0.189,0.031,0.343,0.094,0.461c0.063,0.118,0.167,0.22,0.312,0.306s0.328,0.162,0.549,0.229
					c0.22,0.069,0.489,0.14,0.805,0.211c0.451,0.11,0.849,0.218,1.191,0.327c0.343,0.108,0.63,0.235,0.86,0.38
					c0.23,0.146,0.404,0.322,0.521,0.53c0.117,0.209,0.176,0.462,0.176,0.762c0,0.652-0.249,1.167-0.745,1.548
					C55.123,83.815,54.455,84.005,53.615,84.005z"/>
				<path fill="#B07265" d="M60.21,84.005c-0.551,0-1.089-0.09-1.612-0.272c-0.523-0.18-0.975-0.441-1.354-0.786l0.42-0.626
					c0.397,0.326,0.801,0.571,1.212,0.733c0.41,0.164,0.851,0.246,1.321,0.246c0.568,0,1.022-0.116,1.361-0.348
					c0.338-0.231,0.508-0.56,0.508-0.984c0-0.199-0.045-0.364-0.136-0.497c-0.09-0.13-0.224-0.245-0.399-0.346
					c-0.176-0.099-0.397-0.187-0.664-0.265c-0.267-0.077-0.576-0.157-0.928-0.239c-0.407-0.1-0.759-0.199-1.057-0.298
					s-0.544-0.213-0.738-0.34c-0.195-0.127-0.338-0.282-0.433-0.47c-0.095-0.184-0.142-0.419-0.142-0.699
					c0-0.353,0.069-0.666,0.209-0.938c0.14-0.272,0.329-0.495,0.569-0.672c0.239-0.178,0.519-0.311,0.839-0.4
					c0.32-0.091,0.661-0.136,1.023-0.136c0.542,0,1.034,0.087,1.476,0.263c0.442,0.178,0.8,0.412,1.07,0.702l-0.448,0.543
					c-0.262-0.272-0.58-0.476-0.954-0.612c-0.375-0.136-0.765-0.202-1.171-0.202c-0.244,0-0.47,0.024-0.678,0.073
					c-0.208,0.05-0.391,0.129-0.548,0.238c-0.158,0.108-0.283,0.247-0.373,0.414c-0.09,0.167-0.136,0.365-0.136,0.593
					c0,0.189,0.032,0.343,0.095,0.461c0.063,0.118,0.167,0.22,0.311,0.306s0.328,0.162,0.549,0.229
					c0.221,0.069,0.489,0.14,0.806,0.211c0.451,0.11,0.849,0.218,1.191,0.327c0.343,0.108,0.629,0.235,0.859,0.38
					c0.231,0.146,0.405,0.322,0.522,0.53c0.118,0.209,0.176,0.462,0.176,0.762c0,0.652-0.249,1.167-0.746,1.548
					C61.718,83.815,61.05,84.005,60.21,84.005z"/>
			</g>
		</g>
		<g>
			<g>
				<path fill="#B07265" d="M11.918,99.036l4.022-9.646h0.772l4.022,9.646h-1.016l-1.247-3.017h-4.319l-1.233,3.017H11.918z
					 M16.333,90.504l-1.977,4.769h3.9L16.333,90.504z"/>
				<path fill="#B07265" d="M24.594,99.173c-0.488,0-0.94-0.104-1.354-0.307c-0.416-0.203-0.774-0.474-1.077-0.808
					c-0.302-0.336-0.538-0.723-0.705-1.163c-0.167-0.438-0.251-0.898-0.251-1.377c0-0.5,0.082-0.973,0.244-1.42
					c0.163-0.449,0.387-0.841,0.671-1.177c0.284-0.333,0.623-0.6,1.016-0.794c0.392-0.194,0.823-0.293,1.293-0.293
					c0.596,0,1.124,0.155,1.584,0.47c0.461,0.313,0.827,0.689,1.098,1.134v-4.32h0.921v8.723c0,0.253,0.108,0.38,0.325,0.38v0.815
					c-0.154,0.026-0.276,0.04-0.366,0.04c-0.226,0-0.411-0.064-0.556-0.196c-0.144-0.131-0.216-0.288-0.216-0.469v-0.747
					c-0.289,0.461-0.671,0.828-1.145,1.102C25.603,99.036,25.108,99.173,24.594,99.173z M24.784,98.357
					c0.234,0,0.48-0.046,0.737-0.137c0.257-0.09,0.497-0.215,0.718-0.372c0.221-0.159,0.413-0.345,0.576-0.558
					c0.163-0.215,0.262-0.441,0.298-0.688v-2.188c-0.09-0.244-0.224-0.473-0.4-0.685c-0.176-0.215-0.375-0.401-0.596-0.564
					c-0.221-0.164-0.456-0.29-0.704-0.381c-0.249-0.09-0.494-0.136-0.738-0.136c-0.379,0-0.725,0.081-1.036,0.244
					c-0.312,0.165-0.576,0.379-0.792,0.646c-0.216,0.266-0.385,0.573-0.507,0.916c-0.123,0.344-0.183,0.698-0.183,1.062
					c0,0.38,0.067,0.742,0.203,1.085c0.135,0.345,0.321,0.646,0.556,0.905c0.234,0.257,0.512,0.464,0.832,0.616
					C24.067,98.28,24.413,98.357,24.784,98.357z"/>
				<path fill="#B07265" d="M33.031,99.173c-0.487,0-0.939-0.104-1.354-0.307c-0.416-0.203-0.774-0.474-1.077-0.808
					c-0.302-0.336-0.537-0.723-0.704-1.163c-0.167-0.438-0.251-0.898-0.251-1.377c0-0.5,0.082-0.973,0.244-1.42
					c0.163-0.449,0.386-0.841,0.67-1.177c0.284-0.333,0.623-0.6,1.016-0.794c0.393-0.194,0.824-0.293,1.293-0.293
					c0.596,0,1.124,0.155,1.585,0.47c0.46,0.313,0.826,0.689,1.097,1.134v-4.32h0.921v8.723c0,0.253,0.108,0.38,0.325,0.38v0.815
					c-0.154,0.026-0.275,0.04-0.366,0.04c-0.226,0-0.411-0.064-0.556-0.196c-0.144-0.131-0.216-0.288-0.216-0.469v-0.747
					c-0.289,0.461-0.67,0.828-1.144,1.102C34.04,99.036,33.545,99.173,33.031,99.173z M33.221,98.357
					c0.234,0,0.48-0.046,0.737-0.137c0.257-0.09,0.497-0.215,0.718-0.372c0.222-0.159,0.413-0.345,0.576-0.558
					c0.163-0.215,0.262-0.441,0.298-0.688v-2.188c-0.09-0.244-0.224-0.473-0.399-0.685c-0.177-0.215-0.375-0.401-0.597-0.564
					c-0.221-0.164-0.456-0.29-0.705-0.381c-0.249-0.09-0.494-0.136-0.738-0.136c-0.379,0-0.724,0.081-1.036,0.244
					c-0.312,0.165-0.576,0.379-0.793,0.646c-0.216,0.266-0.385,0.573-0.507,0.916c-0.123,0.344-0.183,0.698-0.183,1.062
					c0,0.38,0.067,0.742,0.203,1.085c0.135,0.345,0.321,0.646,0.556,0.905c0.234,0.257,0.512,0.464,0.833,0.616
					C32.505,98.28,32.85,98.357,33.221,98.357z"/>
				<path fill="#B07265" d="M42.063,92.772c-0.623,0.019-1.165,0.191-1.625,0.517c-0.461,0.326-0.786,0.774-0.976,1.345v4.402
					h-0.921v-7.079h0.867v1.699c0.244-0.498,0.564-0.914,0.962-1.243c0.397-0.331,0.826-0.497,1.287-0.497c0.081,0,0.157,0,0.229,0
					s0.131,0.005,0.176,0.014V92.772z"/>
				<path fill="#B07265" d="M46.383,99.173c-0.515,0-0.988-0.099-1.421-0.293c-0.435-0.195-0.809-0.462-1.125-0.802
					c-0.317-0.34-0.562-0.731-0.738-1.175c-0.177-0.444-0.265-0.919-0.265-1.428c0-0.497,0.088-0.967,0.265-1.406
					c0.176-0.438,0.421-0.822,0.738-1.154c0.315-0.329,0.688-0.593,1.118-0.787c0.428-0.194,0.9-0.293,1.415-0.293
					s0.987,0.099,1.416,0.293c0.429,0.194,0.796,0.461,1.104,0.794c0.307,0.336,0.546,0.722,0.717,1.155
					c0.172,0.434,0.258,0.896,0.258,1.385c0,0.074-0.002,0.147-0.006,0.219s-0.012,0.122-0.021,0.148H43.81
					c0.027,0.382,0.115,0.732,0.264,1.054c0.149,0.322,0.339,0.601,0.57,0.836c0.229,0.235,0.496,0.419,0.798,0.551
					c0.303,0.13,0.625,0.196,0.969,0.196c0.234,0,0.464-0.031,0.69-0.096c0.226-0.063,0.433-0.149,0.623-0.258
					c0.189-0.109,0.359-0.241,0.508-0.4c0.148-0.159,0.264-0.333,0.345-0.522l0.799,0.217c-0.108,0.263-0.263,0.5-0.461,0.713
					s-0.428,0.398-0.69,0.557c-0.262,0.16-0.551,0.281-0.867,0.366C47.042,99.129,46.717,99.173,46.383,99.173z M48.983,95.123
					c-0.027-0.38-0.115-0.727-0.263-1.039c-0.149-0.313-0.339-0.583-0.569-0.808c-0.23-0.227-0.499-0.404-0.806-0.531
					c-0.308-0.126-0.632-0.19-0.975-0.19s-0.668,0.064-0.975,0.19c-0.307,0.127-0.575,0.305-0.806,0.531
					c-0.23,0.225-0.415,0.496-0.555,0.814c-0.14,0.316-0.223,0.661-0.25,1.032H48.983z"/>
				<path fill="#B07265" d="M53.615,99.173c-0.551,0-1.088-0.091-1.612-0.272c-0.523-0.181-0.975-0.443-1.354-0.788l0.42-0.625
					c0.397,0.327,0.8,0.571,1.212,0.733c0.411,0.163,0.851,0.245,1.32,0.245c0.569,0,1.022-0.115,1.361-0.347
					c0.339-0.23,0.508-0.559,0.508-0.984c0-0.199-0.045-0.365-0.136-0.496c-0.09-0.132-0.224-0.247-0.399-0.347
					c-0.176-0.099-0.397-0.188-0.664-0.266c-0.267-0.077-0.576-0.155-0.928-0.238c-0.406-0.099-0.758-0.197-1.056-0.299
					c-0.298-0.099-0.544-0.212-0.738-0.339c-0.195-0.127-0.338-0.282-0.434-0.468c-0.094-0.188-0.142-0.419-0.142-0.701
					c0-0.352,0.069-0.665,0.209-0.937c0.14-0.272,0.329-0.497,0.569-0.674c0.239-0.176,0.519-0.31,0.84-0.4
					c0.32-0.091,0.661-0.136,1.022-0.136c0.541,0,1.033,0.089,1.477,0.266c0.442,0.176,0.799,0.41,1.069,0.699l-0.447,0.544
					c-0.262-0.271-0.58-0.477-0.954-0.612c-0.375-0.134-0.766-0.203-1.172-0.203c-0.244,0-0.469,0.024-0.677,0.075
					c-0.208,0.05-0.391,0.128-0.548,0.236c-0.159,0.109-0.283,0.248-0.373,0.416c-0.091,0.166-0.136,0.365-0.136,0.59
					c0,0.19,0.031,0.345,0.094,0.463c0.063,0.116,0.167,0.218,0.312,0.306c0.145,0.086,0.328,0.163,0.549,0.229
					c0.22,0.068,0.489,0.139,0.805,0.211c0.451,0.109,0.849,0.218,1.191,0.326c0.343,0.108,0.63,0.237,0.86,0.38
					c0.23,0.146,0.404,0.322,0.521,0.531c0.117,0.208,0.176,0.462,0.176,0.76c0,0.653-0.249,1.169-0.745,1.55
					C55.123,98.981,54.455,99.173,53.615,99.173z"/>
				<path fill="#B07265" d="M60.21,99.173c-0.551,0-1.089-0.091-1.612-0.272c-0.523-0.181-0.975-0.443-1.354-0.788l0.42-0.625
					c0.397,0.327,0.801,0.571,1.212,0.733c0.41,0.163,0.851,0.245,1.321,0.245c0.568,0,1.022-0.115,1.361-0.347
					c0.338-0.23,0.508-0.559,0.508-0.984c0-0.199-0.045-0.365-0.136-0.496c-0.09-0.132-0.224-0.247-0.399-0.347
					c-0.176-0.099-0.397-0.188-0.664-0.266c-0.267-0.077-0.576-0.155-0.928-0.238c-0.407-0.099-0.759-0.197-1.057-0.299
					c-0.298-0.099-0.544-0.212-0.738-0.339c-0.195-0.127-0.338-0.282-0.433-0.468c-0.095-0.188-0.142-0.419-0.142-0.701
					c0-0.352,0.069-0.665,0.209-0.937c0.14-0.272,0.329-0.497,0.569-0.674c0.239-0.176,0.519-0.31,0.839-0.4
					s0.661-0.136,1.023-0.136c0.542,0,1.034,0.089,1.476,0.266c0.442,0.176,0.8,0.41,1.07,0.699l-0.448,0.544
					c-0.262-0.271-0.58-0.477-0.954-0.612c-0.375-0.134-0.765-0.203-1.171-0.203c-0.244,0-0.47,0.024-0.678,0.075
					c-0.208,0.05-0.391,0.128-0.548,0.236c-0.158,0.109-0.283,0.248-0.373,0.416c-0.09,0.166-0.136,0.365-0.136,0.59
					c0,0.19,0.032,0.345,0.095,0.463c0.063,0.116,0.167,0.218,0.311,0.306c0.145,0.086,0.328,0.163,0.549,0.229
					c0.221,0.068,0.489,0.139,0.806,0.211c0.451,0.109,0.849,0.218,1.191,0.326s0.629,0.237,0.859,0.38
					c0.231,0.146,0.405,0.322,0.522,0.531c0.118,0.208,0.176,0.462,0.176,0.76c0,0.653-0.249,1.169-0.746,1.55
					C61.718,98.981,61.05,99.173,60.21,99.173z"/>
			</g>
		</g>
		<g>
			<g>
				<path fill="#B07265" d="M12.934,114.342v-9.646h3.981c0.416,0,0.797,0.088,1.145,0.266c0.347,0.176,0.647,0.407,0.9,0.692
					c0.253,0.286,0.45,0.609,0.589,0.971c0.14,0.363,0.21,0.729,0.21,1.101c0,0.398-0.065,0.781-0.196,1.148
					s-0.318,0.691-0.563,0.971c-0.243,0.28-0.535,0.509-0.873,0.681s-0.716,0.257-1.13,0.257h-3.129v3.561H12.934z M13.868,109.939
					h3.075c0.28,0,0.535-0.061,0.765-0.184c0.23-0.122,0.426-0.284,0.589-0.489c0.162-0.203,0.289-0.439,0.379-0.705
					c0.09-0.268,0.136-0.546,0.136-0.837c0-0.298-0.053-0.581-0.156-0.849c-0.103-0.267-0.244-0.5-0.419-0.7
					c-0.176-0.198-0.384-0.355-0.623-0.469c-0.239-0.114-0.49-0.169-0.751-0.169h-2.993V109.939z"/>
				<path fill="#B07265" d="M27.044,114.342h-0.921v-3.954c0-0.806-0.137-1.408-0.412-1.806c-0.275-0.399-0.68-0.599-1.212-0.599
					c-0.262,0-0.522,0.052-0.779,0.155c-0.257,0.105-0.499,0.247-0.725,0.43c-0.226,0.181-0.422,0.394-0.589,0.638
					c-0.167,0.244-0.291,0.512-0.373,0.802v4.334h-0.921v-9.918h0.921v4.442c0.289-0.535,0.682-0.954,1.178-1.264
					c0.497-0.308,1.029-0.461,1.598-0.461c0.406,0,0.751,0.073,1.036,0.223c0.285,0.15,0.515,0.358,0.691,0.627
					c0.176,0.266,0.305,0.588,0.386,0.964c0.082,0.375,0.122,0.789,0.122,1.243V114.342z"/>
				<path fill="#B07265" d="M32.002,114.478c-0.515,0-0.988-0.098-1.416-0.292c-0.429-0.196-0.799-0.46-1.11-0.795
					c-0.312-0.335-0.554-0.725-0.725-1.168s-0.257-0.91-0.257-1.398c0-0.5,0.088-0.971,0.264-1.414s0.42-0.833,0.732-1.169
					c0.311-0.334,0.681-0.602,1.11-0.801c0.429-0.199,0.896-0.299,1.402-0.299c0.505,0,0.973,0.1,1.401,0.299
					c0.429,0.199,0.799,0.467,1.111,0.801c0.312,0.336,0.555,0.726,0.731,1.169s0.264,0.914,0.264,1.414
					c0,0.488-0.088,0.955-0.264,1.398s-0.42,0.833-0.731,1.168c-0.312,0.335-0.682,0.599-1.111,0.795
					C32.975,114.38,32.507,114.478,32.002,114.478z M29.442,110.837c0,0.398,0.065,0.768,0.196,1.106
					c0.131,0.34,0.312,0.639,0.542,0.897c0.23,0.259,0.501,0.459,0.813,0.604c0.312,0.146,0.644,0.218,0.996,0.218
					c0.352,0,0.684-0.075,0.995-0.225s0.584-0.352,0.819-0.611c0.234-0.258,0.419-0.56,0.555-0.904
					c0.136-0.343,0.204-0.714,0.204-1.113c0-0.391-0.068-0.759-0.204-1.107c-0.136-0.35-0.321-0.652-0.555-0.911
					c-0.235-0.257-0.506-0.462-0.813-0.61c-0.307-0.15-0.637-0.225-0.988-0.225c-0.353,0-0.684,0.074-0.997,0.225
					c-0.311,0.148-0.582,0.355-0.812,0.616c-0.229,0.265-0.413,0.569-0.549,0.919C29.51,110.065,29.442,110.438,29.442,110.837z"/>
				<path fill="#B07265" d="M42.943,114.342h-0.921v-3.954c0-0.842-0.122-1.452-0.365-1.832c-0.244-0.383-0.624-0.572-1.138-0.572
					c-0.271,0-0.542,0.05-0.812,0.148c-0.271,0.101-0.524,0.241-0.759,0.424c-0.235,0.18-0.44,0.396-0.616,0.644
					c-0.175,0.249-0.309,0.519-0.399,0.809v4.334h-0.921v-7.078h0.84v1.603c0.144-0.254,0.322-0.487,0.535-0.7
					c0.211-0.212,0.448-0.396,0.71-0.549c0.262-0.155,0.54-0.272,0.833-0.354c0.293-0.083,0.598-0.122,0.915-0.122
					c0.397,0,0.729,0.071,0.995,0.216c0.266,0.146,0.481,0.35,0.644,0.612s0.28,0.586,0.352,0.966s0.108,0.8,0.108,1.263V114.342z"
					/>
				<path fill="#B07265" d="M47.94,114.478c-0.515,0-0.989-0.098-1.422-0.292c-0.433-0.196-0.808-0.462-1.124-0.802
					c-0.316-0.34-0.562-0.731-0.738-1.175c-0.177-0.444-0.265-0.919-0.265-1.428c0-0.497,0.088-0.967,0.265-1.406
					c0.176-0.438,0.421-0.822,0.738-1.154c0.315-0.328,0.688-0.593,1.117-0.787s0.901-0.292,1.416-0.292
					c0.514,0,0.986,0.098,1.415,0.292c0.429,0.194,0.797,0.461,1.104,0.794c0.307,0.337,0.546,0.722,0.717,1.154
					c0.172,0.435,0.257,0.897,0.257,1.386c0,0.074-0.002,0.146-0.006,0.219c-0.004,0.071-0.012,0.122-0.021,0.149h-6.026
					c0.027,0.381,0.115,0.731,0.264,1.053c0.149,0.322,0.339,0.601,0.568,0.836c0.23,0.235,0.497,0.419,0.799,0.551
					c0.303,0.13,0.626,0.196,0.969,0.196c0.234,0,0.464-0.03,0.69-0.096c0.226-0.063,0.433-0.149,0.623-0.258
					c0.189-0.109,0.359-0.241,0.508-0.4s0.264-0.333,0.346-0.523l0.799,0.218c-0.109,0.262-0.263,0.5-0.461,0.713
					c-0.199,0.213-0.429,0.398-0.69,0.556c-0.263,0.161-0.552,0.282-0.867,0.367C48.599,114.435,48.274,114.478,47.94,114.478z
					 M50.541,110.428c-0.027-0.379-0.115-0.726-0.264-1.039c-0.149-0.313-0.339-0.582-0.569-0.807
					c-0.23-0.228-0.5-0.404-0.806-0.531c-0.307-0.126-0.632-0.191-0.975-0.191c-0.343,0-0.668,0.065-0.976,0.191
					c-0.307,0.127-0.575,0.304-0.806,0.531c-0.23,0.225-0.415,0.497-0.555,0.813c-0.14,0.317-0.223,0.662-0.25,1.032H50.541z"/>
				<path fill="#B07265" d="M62.201,114.342h-0.92v-3.954c0-0.842-0.122-1.452-0.365-1.832c-0.244-0.383-0.623-0.572-1.138-0.572
					c-0.271,0-0.542,0.05-0.812,0.148c-0.271,0.101-0.524,0.241-0.759,0.424c-0.234,0.18-0.439,0.396-0.616,0.644
					c-0.176,0.249-0.31,0.519-0.399,0.809v4.334H56.27v-7.078h0.839v1.603c0.145-0.254,0.323-0.487,0.536-0.7
					c0.211-0.212,0.449-0.396,0.711-0.549c0.262-0.155,0.539-0.272,0.833-0.354c0.293-0.083,0.598-0.122,0.914-0.122
					c0.397,0,0.729,0.071,0.995,0.216c0.266,0.146,0.481,0.35,0.644,0.612c0.163,0.263,0.279,0.586,0.353,0.966
					c0.072,0.38,0.107,0.8,0.107,1.263V114.342z"/>
				<path fill="#B07265" d="M66.291,114.478c-0.741,0-1.301-0.255-1.68-0.769c-0.379-0.51-0.568-1.273-0.568-2.289v-4.156h0.92
					v3.993c0,1.604,0.546,2.406,1.639,2.406c0.271,0,0.537-0.046,0.799-0.137c0.263-0.09,0.504-0.222,0.726-0.394
					c0.221-0.173,0.419-0.377,0.595-0.61c0.177-0.237,0.318-0.504,0.427-0.804v-4.455h0.92v5.883c0,0.253,0.113,0.38,0.339,0.38
					v0.815c-0.181,0.026-0.308,0.04-0.379,0.04c-0.208,0-0.387-0.063-0.535-0.188c-0.149-0.127-0.223-0.286-0.223-0.477v-0.979
					c-0.316,0.553-0.736,0.98-1.26,1.283C67.487,114.326,66.914,114.478,66.291,114.478z"/>
				<path fill="#B07265" d="M82.65,114.342h-0.92v-3.954c0-0.823-0.129-1.43-0.386-1.819c-0.257-0.391-0.647-0.585-1.171-0.585
					c-0.271,0-0.526,0.05-0.766,0.148c-0.239,0.101-0.459,0.241-0.663,0.424c-0.203,0.18-0.381,0.396-0.534,0.644
					c-0.154,0.249-0.271,0.522-0.352,0.822v4.32h-0.922v-3.954c0-0.842-0.126-1.452-0.379-1.832
					c-0.253-0.383-0.641-0.572-1.164-0.572c-0.533,0-1.007,0.185-1.423,0.558c-0.415,0.371-0.712,0.86-0.894,1.467v4.334h-0.921
					v-7.078h0.84v1.603c0.289-0.544,0.667-0.965,1.137-1.27c0.47-0.305,0.989-0.455,1.558-0.455c0.596,0,1.075,0.167,1.435,0.502
					c0.361,0.336,0.578,0.774,0.65,1.318c0.66-1.215,1.571-1.82,2.736-1.82c0.389,0,0.72,0.071,0.996,0.216
					c0.275,0.146,0.497,0.353,0.663,0.619c0.167,0.268,0.289,0.59,0.366,0.966c0.076,0.375,0.114,0.793,0.114,1.256V114.342z"/>
				<path fill="#B07265" d="M88.013,114.478c-0.551,0-1.061-0.141-1.53-0.421s-0.835-0.644-1.098-1.088v1.373H84.56v-9.918h0.921
					v4.32c0.316-0.48,0.695-0.868,1.138-1.162c0.441-0.295,0.96-0.44,1.557-0.44c0.487,0,0.93,0.104,1.327,0.312
					c0.397,0.208,0.733,0.487,1.009,0.836c0.276,0.349,0.488,0.743,0.637,1.183c0.149,0.438,0.224,0.89,0.224,1.353
					c0,0.497-0.085,0.969-0.257,1.413c-0.171,0.442-0.408,0.83-0.711,1.159c-0.303,0.331-0.66,0.593-1.07,0.789
					C88.922,114.38,88.483,114.478,88.013,114.478z M87.796,113.663c0.389,0,0.743-0.079,1.063-0.238
					c0.32-0.157,0.596-0.371,0.826-0.638c0.23-0.267,0.411-0.571,0.542-0.911s0.196-0.69,0.196-1.052
					c0-0.372-0.061-0.73-0.183-1.076c-0.122-0.343-0.293-0.648-0.515-0.917c-0.222-0.265-0.485-0.479-0.792-0.638
					c-0.307-0.158-0.645-0.237-1.015-0.237c-0.28,0-0.542,0.048-0.786,0.143c-0.243,0.095-0.469,0.224-0.677,0.388
					c-0.208,0.163-0.395,0.351-0.562,0.563c-0.167,0.213-0.305,0.437-0.413,0.672v2.201c0.036,0.246,0.133,0.474,0.292,0.688
					c0.157,0.213,0.349,0.396,0.575,0.55c0.226,0.153,0.465,0.276,0.718,0.366C87.317,113.617,87.561,113.663,87.796,113.663z"/>
				<path fill="#B07265" d="M95.99,114.478c-0.515,0-0.989-0.098-1.422-0.292c-0.434-0.196-0.808-0.462-1.124-0.802
					s-0.563-0.731-0.738-1.175c-0.176-0.444-0.265-0.919-0.265-1.428c0-0.497,0.088-0.967,0.265-1.406
					c0.176-0.438,0.422-0.822,0.738-1.154c0.316-0.328,0.688-0.593,1.117-0.787s0.9-0.292,1.416-0.292
					c0.515,0,0.986,0.098,1.415,0.292c0.429,0.194,0.797,0.461,1.104,0.794c0.308,0.337,0.546,0.722,0.718,1.154
					c0.172,0.435,0.257,0.897,0.257,1.386c0,0.074-0.002,0.146-0.007,0.219c-0.004,0.071-0.012,0.122-0.021,0.149h-6.026
					c0.027,0.381,0.115,0.731,0.264,1.053c0.149,0.322,0.338,0.601,0.568,0.836c0.23,0.235,0.497,0.419,0.799,0.551
					c0.302,0.13,0.625,0.196,0.969,0.196c0.234,0,0.465-0.03,0.69-0.096c0.226-0.063,0.433-0.149,0.623-0.258
					c0.19-0.109,0.359-0.241,0.508-0.4c0.149-0.159,0.264-0.333,0.346-0.523l0.799,0.218c-0.108,0.262-0.262,0.5-0.46,0.713
					s-0.429,0.398-0.691,0.556c-0.262,0.161-0.551,0.282-0.867,0.367C96.649,114.435,96.323,114.478,95.99,114.478z M98.59,110.428
					c-0.027-0.379-0.115-0.726-0.264-1.039c-0.15-0.313-0.339-0.582-0.569-0.807c-0.23-0.228-0.499-0.404-0.806-0.531
					c-0.307-0.126-0.632-0.191-0.975-0.191c-0.343,0-0.669,0.065-0.976,0.191c-0.307,0.127-0.576,0.304-0.806,0.531
					c-0.23,0.225-0.416,0.497-0.555,0.813c-0.14,0.317-0.223,0.662-0.25,1.032H98.59z"/>
				<path fill="#B07265" d="M104.373,108.078c-0.623,0.019-1.165,0.191-1.625,0.517c-0.461,0.326-0.786,0.773-0.976,1.345v4.402
					h-0.92v-7.078h0.867v1.698c0.244-0.498,0.564-0.914,0.961-1.243c0.397-0.331,0.827-0.497,1.287-0.497c0.081,0,0.158,0,0.229,0
					c0.073,0,0.131,0.006,0.176,0.016V108.078z"/>
			</g>
		</g>
	</g>
	<g>
		<path fill="#B07265" d="M203.565,77.652h0.892l-3.02,7.077h-0.772l-1.502-3.614l-1.503,3.614h-0.771l-3.021-7.077h0.88
			l2.573,6.126l1.342-3.232l-1.205-2.881h0.784l0.921,2.309l0.907-2.309h0.785l-1.191,2.881l1.34,3.232L203.565,77.652z"/>
		<path fill="#B07265" d="M208.751,84.866c-0.516,0-0.989-0.1-1.421-0.293c-0.435-0.194-0.811-0.463-1.125-0.803
			c-0.317-0.339-0.562-0.729-0.738-1.174s-0.265-0.92-0.265-1.428c0-0.497,0.088-0.967,0.265-1.405s0.421-0.823,0.738-1.154
			c0.314-0.33,0.688-0.593,1.118-0.789c0.427-0.194,0.899-0.292,1.415-0.292c0.514,0,0.985,0.098,1.415,0.292
			c0.428,0.196,0.795,0.461,1.103,0.795c0.307,0.336,0.547,0.721,0.719,1.155s0.258,0.897,0.258,1.386
			c0,0.074-0.002,0.146-0.007,0.217c-0.004,0.073-0.012,0.122-0.021,0.151h-6.027c0.027,0.38,0.115,0.729,0.263,1.052
			c0.151,0.321,0.341,0.6,0.57,0.836c0.231,0.234,0.497,0.419,0.8,0.55c0.302,0.131,0.625,0.198,0.967,0.198
			c0.235,0,0.465-0.032,0.691-0.096c0.226-0.063,0.433-0.149,0.623-0.258c0.188-0.109,0.358-0.242,0.508-0.401
			c0.148-0.159,0.263-0.334,0.344-0.523l0.802,0.217c-0.108,0.263-0.264,0.502-0.462,0.715c-0.197,0.211-0.43,0.397-0.69,0.557
			c-0.263,0.159-0.551,0.28-0.867,0.366C209.41,84.824,209.084,84.866,208.751,84.866z M211.351,80.816
			c-0.027-0.381-0.115-0.728-0.263-1.04c-0.15-0.312-0.34-0.581-0.568-0.807c-0.232-0.228-0.501-0.404-0.808-0.531
			c-0.307-0.125-0.632-0.19-0.974-0.19c-0.344,0-0.669,0.065-0.977,0.19c-0.306,0.127-0.575,0.304-0.804,0.531
			c-0.231,0.226-0.417,0.497-0.557,0.813c-0.141,0.318-0.224,0.661-0.251,1.033H211.351z"/>
		<path fill="#B07265" d="M217.066,84.866c-0.552,0-1.061-0.141-1.53-0.42c-0.47-0.282-0.836-0.644-1.098-1.089v1.372h-0.826v-9.917
			h0.921v4.319c0.316-0.48,0.696-0.868,1.138-1.162c0.442-0.293,0.961-0.441,1.559-0.441c0.487,0,0.93,0.104,1.326,0.313
			c0.396,0.208,0.734,0.487,1.01,0.835s0.486,0.743,0.635,1.182c0.15,0.44,0.225,0.891,0.225,1.353c0,0.498-0.086,0.97-0.258,1.413
			s-0.407,0.83-0.71,1.161c-0.305,0.33-0.659,0.594-1.071,0.788C217.976,84.767,217.535,84.866,217.066,84.866z M216.85,84.05
			c0.389,0,0.744-0.078,1.063-0.236c0.321-0.159,0.596-0.373,0.827-0.64c0.229-0.267,0.409-0.571,0.542-0.909
			c0.13-0.34,0.195-0.692,0.195-1.054c0-0.372-0.062-0.729-0.182-1.074c-0.123-0.344-0.294-0.65-0.515-0.917
			c-0.223-0.267-0.486-0.479-0.793-0.64c-0.306-0.157-0.646-0.236-1.017-0.236c-0.28,0-0.542,0.048-0.785,0.143
			c-0.244,0.094-0.47,0.225-0.676,0.388c-0.209,0.163-0.396,0.351-0.563,0.564c-0.168,0.212-0.306,0.436-0.414,0.672v2.201
			c0.036,0.245,0.134,0.473,0.291,0.687c0.158,0.213,0.35,0.396,0.576,0.55c0.226,0.153,0.465,0.276,0.717,0.367
			C216.37,84.005,216.613,84.05,216.85,84.05z"/>
		<path fill="#B07265" d="M224.312,84.866c-0.552,0-1.088-0.092-1.611-0.273c-0.523-0.18-0.976-0.441-1.354-0.786l0.419-0.626
			c0.397,0.327,0.803,0.57,1.213,0.734c0.41,0.162,0.851,0.245,1.32,0.245c0.568,0,1.022-0.117,1.36-0.347
			c0.339-0.231,0.508-0.561,0.508-0.985c0-0.2-0.045-0.365-0.135-0.497c-0.091-0.131-0.224-0.246-0.4-0.345
			c-0.175-0.1-0.396-0.188-0.663-0.267c-0.267-0.077-0.575-0.156-0.929-0.238c-0.404-0.1-0.757-0.198-1.056-0.299
			c-0.297-0.1-0.544-0.212-0.737-0.339c-0.193-0.128-0.338-0.283-0.434-0.469c-0.095-0.186-0.143-0.419-0.143-0.7
			c0-0.353,0.07-0.665,0.21-0.938c0.142-0.272,0.331-0.495,0.569-0.673c0.24-0.177,0.52-0.309,0.839-0.399
			c0.322-0.092,0.661-0.137,1.023-0.137c0.542,0,1.033,0.088,1.477,0.265c0.44,0.177,0.798,0.41,1.068,0.7l-0.446,0.544
			c-0.262-0.271-0.58-0.478-0.954-0.611c-0.376-0.136-0.766-0.204-1.172-0.204c-0.245,0-0.469,0.024-0.676,0.075
			c-0.209,0.05-0.392,0.129-0.549,0.236c-0.159,0.108-0.282,0.248-0.373,0.416c-0.09,0.166-0.135,0.364-0.135,0.59
			c0,0.191,0.031,0.345,0.095,0.463c0.063,0.117,0.166,0.22,0.311,0.306s0.327,0.162,0.549,0.23s0.489,0.139,0.806,0.211
			c0.451,0.108,0.848,0.218,1.191,0.325c0.343,0.108,0.629,0.236,0.86,0.381c0.229,0.145,0.402,0.322,0.521,0.531
			c0.119,0.208,0.178,0.46,0.178,0.76c0,0.653-0.25,1.169-0.746,1.548C225.818,84.675,225.15,84.866,224.312,84.866z"/>
		<path fill="#B07265" d="M228.537,76.17v-1.357h0.92v1.357H228.537z M228.537,84.729v-7.077h0.92v7.077H228.537z"/>
		<path fill="#B07265" d="M234.847,84.39c-0.053,0.027-0.132,0.065-0.235,0.109c-0.104,0.046-0.225,0.09-0.359,0.136
			c-0.136,0.044-0.288,0.086-0.461,0.121c-0.172,0.036-0.352,0.055-0.542,0.055c-0.198,0-0.387-0.027-0.568-0.081
			c-0.181-0.055-0.337-0.139-0.474-0.251c-0.135-0.113-0.243-0.256-0.325-0.429c-0.081-0.17-0.122-0.37-0.122-0.598v-5.067h-0.976
			v-0.732h0.976V75.26h0.921v2.393h1.625v0.732h-1.625v4.81c0.019,0.262,0.108,0.454,0.271,0.576
			c0.163,0.124,0.356,0.185,0.582,0.185c0.262,0,0.492-0.043,0.691-0.128c0.198-0.088,0.324-0.147,0.379-0.186L234.847,84.39z"/>
		<path fill="#B07265" d="M239.019,84.866c-0.515,0-0.988-0.1-1.422-0.293c-0.433-0.194-0.808-0.463-1.125-0.803
			c-0.315-0.339-0.562-0.729-0.736-1.174c-0.176-0.444-0.265-0.92-0.265-1.428c0-0.497,0.089-0.967,0.265-1.405
			c0.175-0.438,0.421-0.823,0.736-1.154c0.317-0.33,0.689-0.593,1.119-0.789c0.429-0.194,0.9-0.292,1.415-0.292
			s0.986,0.098,1.414,0.292c0.429,0.196,0.797,0.461,1.104,0.795c0.308,0.336,0.547,0.721,0.719,1.155
			c0.173,0.435,0.257,0.897,0.257,1.386c0,0.074-0.002,0.146-0.007,0.217c-0.004,0.073-0.012,0.122-0.021,0.151h-6.027
			c0.027,0.38,0.116,0.729,0.266,1.052c0.149,0.321,0.338,0.6,0.569,0.836c0.229,0.234,0.496,0.419,0.798,0.55
			c0.304,0.131,0.625,0.198,0.969,0.198c0.233,0,0.466-0.032,0.689-0.096c0.227-0.063,0.435-0.149,0.624-0.258
			c0.19-0.109,0.359-0.242,0.507-0.401c0.15-0.159,0.265-0.334,0.347-0.523l0.798,0.217c-0.108,0.263-0.262,0.502-0.46,0.715
			c-0.198,0.211-0.429,0.397-0.691,0.557c-0.262,0.159-0.551,0.28-0.865,0.366C239.678,84.824,239.354,84.866,239.019,84.866z
			 M241.618,80.816c-0.026-0.381-0.115-0.728-0.264-1.04c-0.148-0.312-0.338-0.581-0.568-0.807c-0.23-0.228-0.499-0.404-0.805-0.531
			c-0.309-0.125-0.634-0.19-0.976-0.19c-0.344,0-0.669,0.065-0.976,0.19c-0.306,0.127-0.575,0.304-0.805,0.531
			c-0.232,0.226-0.417,0.497-0.557,0.813c-0.141,0.318-0.225,0.661-0.251,1.033H241.618z"/>
	</g>
</g>
</svg>
