<?xml version="1.0" encoding="utf-8"?>
<!-- Generator: Adobe Illustrator 15.0.2, SVG Export Plug-In . SVG Version: 6.00 Build 0)  -->
<!DOCTYPE svg PUBLIC "-//W3C//DTD SVG 1.1//EN" "http://www.w3.org/Graphics/SVG/1.1/DTD/svg11.dtd">
<svg version="1.1" id="Layer_1" xmlns="http://www.w3.org/2000/svg" xmlns:xlink="http://www.w3.org/1999/xlink" x="0px" y="0px"
	 width="255px" height="123px" viewBox="0 0 255 123" enable-background="new 0 0 255 123" xml:space="preserve">
<g>
	<defs>
		<rect id="SVGID_1_" width="255" height="123"/>
	</defs>
	<clipPath id="SVGID_2_">
		<use xlink:href="#SVGID_1_"  overflow="visible"/>
	</clipPath>
	<path clip-path="url(#SVGID_2_)" fill="#3F838F" d="M226.39,40.16c0-15.856,12.809-28.708,28.61-28.71V9.84
		c0-5.435-4.391-9.84-9.807-9.84H75.337H36.721H9.809C4.393,0,0,4.405,0,9.84v76.063v27.258c0,5.434,4.394,9.84,9.809,9.84h24.595
		h2.317h38.617h51.192h105.031c0.271-1.823,0.419-3.688,0.421-5.587c-0.038-20.88-16.869-37.773-37.682-37.801
		c-5.62,0-10.175-4.579-10.175-10.215c0-5.64,4.555-10.21,10.175-10.21c32.05,0.014,58.026,26.062,58.028,58.226
		c0,0.856-0.028,1.707-0.063,2.555c1.69-1.768,2.735-4.164,2.735-6.808V96.618V68.866C239.198,68.864,226.39,56.009,226.39,40.16"/>
	<path clip-path="url(#SVGID_2_)" fill="#3A1F22" d="M226.39,40.16c0,15.849,12.809,28.704,28.61,28.706V11.45
		C239.198,11.452,226.39,24.304,226.39,40.16"/>
	<path clip-path="url(#SVGID_2_)" fill="#3A1F22" d="M194.3,59.188c-5.62,0-10.175,4.57-10.175,10.21
		c0,5.636,4.555,10.215,10.175,10.215c20.813,0.028,37.644,16.922,37.682,37.799c-0.002,1.9-0.15,3.766-0.421,5.589h13.633
		c2.782,0,5.286-1.168,7.071-3.032c0.035-0.848,0.063-1.698,0.063-2.557C252.326,85.249,226.35,59.201,194.3,59.188"/>
	<path clip-path="url(#SVGID_2_)" fill="#3A1F22" d="M10.3,37.85c0.597,0.409,1.367,0.764,2.303,1.063
		c0.939,0.301,1.991,0.45,3.162,0.45c1.468,0,2.643-0.267,3.527-0.799c0.883-0.53,1.556-1.314,2.019-2.352
		c0.46-1.037,0.761-2.311,0.897-3.826c0.134-1.514,0.202-3.237,0.202-5.175V12.483h2.855v14.729c0,2.21-0.102,4.221-0.305,6.035
		c-0.204,1.813-0.632,3.361-1.284,4.644c-0.654,1.281-1.605,2.277-2.855,2.986c-1.252,0.709-2.936,1.063-5.056,1.063
		c-2.447,0-4.542-0.601-6.281-1.8L10.3,37.85z"/>
	<path clip-path="url(#SVGID_2_)" fill="#3A1F22" d="M40.353,41.9c-1.549,0-2.969-0.295-4.261-0.88
		c-1.292-0.586-2.405-1.384-3.344-2.394c-0.937-1.01-1.667-2.182-2.183-3.518c-0.516-1.338-0.772-2.742-0.772-4.215
		c0-1.5,0.264-2.919,0.795-4.255c0.53-1.336,1.263-2.511,2.202-3.519c0.937-1.009,2.052-1.813,3.344-2.415
		c1.289-0.6,2.697-0.9,4.219-0.9c1.523,0,2.93,0.301,4.221,0.9c1.292,0.602,2.408,1.406,3.344,2.415
		c0.939,1.008,1.674,2.183,2.202,3.519c0.532,1.336,0.796,2.755,0.796,4.255c0,1.473-0.264,2.877-0.796,4.215
		c-0.528,1.336-1.263,2.508-2.202,3.518c-0.936,1.01-2.051,1.808-3.344,2.394C43.282,41.605,41.876,41.9,40.353,41.9 M32.647,30.936
		c0,1.199,0.196,2.312,0.59,3.333c0.395,1.024,0.939,1.925,1.632,2.702c0.694,0.777,1.51,1.383,2.447,1.818
		c0.939,0.438,1.938,0.657,2.998,0.657s2.059-0.226,2.997-0.677c0.937-0.449,1.76-1.063,2.467-1.841s1.263-1.685,1.67-2.72
		c0.409-1.037,0.613-2.156,0.613-3.355c0-1.173-0.205-2.284-0.613-3.336c-0.407-1.049-0.963-1.963-1.67-2.74
		s-1.523-1.391-2.447-1.84c-0.926-0.451-1.917-0.677-2.978-0.677c-1.06,0-2.059,0.226-2.995,0.677
		c-0.939,0.449-1.755,1.069-2.447,1.861c-0.694,0.79-1.246,1.711-1.653,2.761S32.647,29.735,32.647,30.936"/>
	<path clip-path="url(#SVGID_2_)" fill="#3A1F22" d="M73.301,41.49h-2.773V29.585c0-2.428-0.414-4.24-1.244-5.442
		c-0.828-1.198-2.045-1.8-3.649-1.8c-0.787,0-1.57,0.159-2.343,0.471c-0.776,0.314-1.503,0.744-2.182,1.289
		c-0.681,0.546-1.272,1.186-1.774,1.922c-0.502,0.737-0.876,1.543-1.122,2.415V41.49H55.44V11.625h2.773v13.378
		c0.87-1.61,2.052-2.877,3.548-3.805c1.496-0.928,3.099-1.393,4.813-1.393c1.223,0,2.264,0.226,3.12,0.675
		c0.856,0.451,1.549,1.079,2.08,1.882c0.529,0.805,0.917,1.774,1.162,2.906c0.245,1.132,0.366,2.379,0.366,3.744V41.49z"/>
	<path clip-path="url(#SVGID_2_)" fill="#3A1F22" d="M96.913,41.49H94.14V29.585c0-2.536-0.368-4.378-1.103-5.524
		c-0.733-1.146-1.876-1.718-3.425-1.718c-0.814,0-1.631,0.15-2.447,0.451c-0.814,0.3-1.576,0.722-2.283,1.267
		c-0.708,0.547-1.325,1.194-1.854,1.944c-0.53,0.75-0.932,1.563-1.203,2.435V41.49h-2.773V20.174h2.528v4.829
		c0.434-0.763,0.972-1.466,1.611-2.107c0.636-0.64,1.351-1.192,2.14-1.656c0.788-0.464,1.625-0.818,2.509-1.065
		c0.882-0.244,1.802-0.368,2.75-0.368c1.197,0,2.196,0.219,2.999,0.655c0.802,0.438,1.447,1.05,1.936,1.842
		c0.49,0.791,0.843,1.758,1.061,2.904c0.218,1.145,0.326,2.413,0.326,3.806V41.49z"/>
	<path clip-path="url(#SVGID_2_)" fill="#3A1F22" d="M113.795,41.49V12.441h9.787c2.31,0,4.336,0.383,6.075,1.147
		c1.741,0.764,3.187,1.8,4.344,3.107c1.155,1.31,2.02,2.845,2.591,4.604c0.57,1.759,0.854,3.635,0.854,5.625
		c0,2.209-0.326,4.208-0.979,5.995s-1.576,3.314-2.772,4.582c-1.197,1.268-2.652,2.249-4.364,2.944
		c-1.714,0.697-3.629,1.044-5.749,1.044H113.795z M134.592,26.925c0-1.745-0.244-3.349-0.733-4.808
		c-0.489-1.458-1.204-2.72-2.141-3.784c-0.939-1.063-2.087-1.889-3.448-2.475c-1.357-0.586-2.922-0.88-4.688-0.88h-6.975v23.977
		h6.975c1.794,0,3.376-0.308,4.75-0.921c1.373-0.614,2.521-1.46,3.445-2.538c0.926-1.077,1.624-2.344,2.101-3.804
		C134.354,30.233,134.592,28.645,134.592,26.925"/>
	<path clip-path="url(#SVGID_2_)" fill="#3A1F22" d="M151.556,41.9c-1.55,0-2.971-0.295-4.261-0.88
		c-1.292-0.586-2.407-1.384-3.344-2.394c-0.938-1.01-1.666-2.182-2.182-3.518c-0.519-1.338-0.776-2.742-0.776-4.215
		c0-1.5,0.267-2.919,0.796-4.255c0.531-1.336,1.265-2.511,2.202-3.519c0.938-1.009,2.052-1.813,3.344-2.415
		c1.291-0.6,2.696-0.9,4.221-0.9c1.521,0,2.93,0.301,4.222,0.9c1.289,0.602,2.404,1.406,3.344,2.415
		c0.937,1.008,1.67,2.183,2.201,3.519c0.529,1.336,0.793,2.755,0.793,4.255c0,1.473-0.264,2.877-0.793,4.215
		c-0.531,1.336-1.265,2.508-2.201,3.518c-0.939,1.01-2.055,1.808-3.344,2.394C154.485,41.605,153.077,41.9,151.556,41.9
		 M143.848,30.936c0,1.199,0.198,2.312,0.593,3.333c0.393,1.024,0.936,1.925,1.631,2.702c0.692,0.777,1.508,1.383,2.447,1.818
		c0.937,0.438,1.936,0.657,2.995,0.657c1.061,0,2.062-0.226,2.998-0.677c0.938-0.449,1.761-1.063,2.467-1.841
		c0.707-0.777,1.265-1.685,1.673-2.72c0.407-1.037,0.61-2.156,0.61-3.355c0-1.173-0.203-2.284-0.61-3.336
		c-0.408-1.049-0.966-1.963-1.673-2.74c-0.706-0.777-1.521-1.391-2.447-1.84c-0.923-0.451-1.915-0.677-2.976-0.677
		s-2.059,0.226-2.998,0.677c-0.937,0.449-1.752,1.069-2.446,1.861c-0.692,0.79-1.243,1.711-1.651,2.761
		C144.053,28.609,143.848,29.735,143.848,30.936"/>
	<path clip-path="url(#SVGID_2_)" fill="#3A1F22" d="M175.941,41.899c-1.55,0-2.979-0.293-4.283-0.879s-2.434-1.391-3.384-2.415
		c-0.952-1.021-1.692-2.2-2.222-3.538c-0.531-1.336-0.796-2.769-0.796-4.296c0-1.5,0.265-2.911,0.796-4.233
		c0.529-1.323,1.27-2.484,2.222-3.479c0.95-0.995,2.071-1.785,3.364-2.372c1.291-0.587,2.711-0.881,4.261-0.881
		s2.971,0.294,4.263,0.881c1.29,0.587,2.398,1.384,3.322,2.393c0.926,1.011,1.646,2.169,2.162,3.479s0.773,2.7,0.773,4.173
		c0,0.219-0.007,0.436-0.02,0.654c-0.014,0.22-0.033,0.369-0.062,0.449h-18.146c0.081,1.146,0.346,2.205,0.796,3.173
		c0.447,0.967,1.019,1.807,1.713,2.516c0.691,0.708,1.494,1.262,2.404,1.656c0.91,0.396,1.883,0.594,2.916,0.594
		c0.706,0,1.399-0.096,2.079-0.286c0.681-0.19,1.305-0.449,1.875-0.776c0.571-0.327,1.083-0.73,1.53-1.208
		c0.449-0.478,0.796-1.002,1.04-1.574l2.405,0.654c-0.326,0.791-0.787,1.506-1.387,2.147c-0.598,0.642-1.289,1.2-2.078,1.677
		c-0.789,0.478-1.66,0.847-2.61,1.105C177.925,41.77,176.946,41.899,175.941,41.899 M183.771,29.707
		c-0.081-1.146-0.346-2.188-0.796-3.13c-0.447-0.939-1.019-1.752-1.713-2.435c-0.691-0.681-1.501-1.212-2.427-1.595
		c-0.923-0.382-1.902-0.572-2.936-0.572c-1.032,0-2.011,0.19-2.937,0.572c-0.925,0.383-1.732,0.914-2.424,1.595
		c-0.695,0.683-1.253,1.502-1.674,2.455c-0.421,0.956-0.672,1.992-0.754,3.109H183.771z"/>
	<path clip-path="url(#SVGID_2_)" fill="#3A1F22" d="M13.886,50.275c0-0.58,0.102-1.157,0.306-1.732
		c0.202-0.576,0.498-1.089,0.886-1.543c0.387-0.453,0.867-0.822,1.436-1.107c0.568-0.285,1.212-0.427,1.936-0.427
		c0.858,0,1.589,0.194,2.194,0.584c0.605,0.389,1.058,0.896,1.354,1.521l-0.757,0.462c-0.155-0.316-0.34-0.584-0.556-0.802
		c-0.217-0.218-0.452-0.395-0.705-0.529c-0.251-0.137-0.515-0.233-0.785-0.292c-0.271-0.06-0.537-0.089-0.799-0.089
		c-0.579,0-1.088,0.117-1.53,0.353c-0.443,0.236-0.815,0.543-1.118,0.925c-0.303,0.381-0.529,0.809-0.684,1.284
		c-0.153,0.475-0.229,0.957-0.229,1.446c0,0.535,0.091,1.047,0.276,1.535c0.186,0.49,0.438,0.922,0.76,1.298
		c0.319,0.375,0.699,0.675,1.138,0.897c0.437,0.221,0.913,0.333,1.428,0.333c0.271,0,0.549-0.034,0.834-0.102
		c0.283-0.069,0.56-0.178,0.825-0.326c0.266-0.15,0.513-0.337,0.738-0.558c0.226-0.223,0.416-0.491,0.569-0.809l0.785,0.408
		c-0.153,0.361-0.37,0.681-0.65,0.958c-0.28,0.276-0.59,0.508-0.934,0.699c-0.345,0.19-0.707,0.335-1.091,0.435
		c-0.383,0.1-0.76,0.149-1.131,0.149c-0.66,0-1.264-0.145-1.814-0.435c-0.55-0.29-1.025-0.668-1.422-1.135
		c-0.396-0.466-0.707-0.997-0.928-1.59C13.998,51.496,13.886,50.891,13.886,50.275"/>
	<path clip-path="url(#SVGID_2_)" fill="#3A1F22" d="M26.63,55.303c-0.515,0-0.986-0.098-1.415-0.293
		c-0.43-0.195-0.799-0.459-1.112-0.794c-0.31-0.336-0.553-0.725-0.723-1.169c-0.172-0.442-0.258-0.911-0.258-1.4
		c0-0.497,0.088-0.969,0.265-1.413c0.175-0.443,0.419-0.833,0.73-1.167c0.311-0.337,0.682-0.604,1.109-0.803
		c0.43-0.199,0.897-0.299,1.403-0.299c0.505,0,0.973,0.1,1.401,0.299c0.429,0.198,0.799,0.466,1.111,0.803
		c0.312,0.334,0.555,0.724,0.732,1.167c0.175,0.444,0.263,0.916,0.263,1.413c0,0.489-0.088,0.958-0.263,1.4
		c-0.178,0.444-0.421,0.833-0.732,1.169c-0.312,0.335-0.682,0.599-1.111,0.794C27.603,55.205,27.135,55.303,26.63,55.303
		 M24.07,51.66c0,0.4,0.065,0.768,0.196,1.107s0.311,0.64,0.542,0.897c0.229,0.258,0.501,0.46,0.813,0.604
		c0.312,0.145,0.642,0.217,0.996,0.217c0.352,0,0.683-0.074,0.996-0.224c0.312-0.15,0.584-0.354,0.818-0.612
		c0.236-0.258,0.421-0.559,0.555-0.902c0.138-0.345,0.205-0.717,0.205-1.114c0-0.39-0.067-0.759-0.205-1.108
		c-0.134-0.349-0.319-0.652-0.555-0.91c-0.234-0.258-0.504-0.461-0.81-0.611c-0.308-0.149-0.638-0.224-0.99-0.224
		s-0.684,0.074-0.996,0.224c-0.312,0.15-0.582,0.356-0.812,0.619s-0.413,0.568-0.548,0.916C24.139,50.889,24.07,51.262,24.07,51.66"
		/>
	<path clip-path="url(#SVGID_2_)" fill="#3A1F22" d="M42.136,55.166h-0.92v-3.954c0-0.823-0.129-1.431-0.387-1.821
		c-0.258-0.389-0.647-0.583-1.171-0.583c-0.271,0-0.526,0.051-0.767,0.15c-0.238,0.1-0.459,0.238-0.663,0.42
		s-0.382,0.396-0.534,0.646c-0.154,0.25-0.271,0.523-0.352,0.823v4.319h-0.921v-3.954c0-0.841-0.126-1.454-0.379-1.834
		c-0.254-0.381-0.643-0.57-1.165-0.57c-0.532,0-1.007,0.186-1.422,0.557c-0.417,0.372-0.713,0.86-0.894,1.468v4.334h-0.923v-7.079
		h0.84v1.604c0.289-0.543,0.668-0.967,1.138-1.271c0.469-0.303,0.99-0.455,1.558-0.455c0.595,0,1.074,0.168,1.436,0.503
		c0.361,0.335,0.577,0.775,0.65,1.318c0.659-1.215,1.57-1.821,2.735-1.821c0.387,0,0.72,0.073,0.995,0.218
		c0.274,0.145,0.497,0.351,0.664,0.618c0.167,0.268,0.29,0.588,0.366,0.964c0.076,0.376,0.115,0.796,0.115,1.258V55.166z"/>
	<path clip-path="url(#SVGID_2_)" fill="#3A1F22" d="M47.661,55.303c-0.597,0-1.125-0.152-1.586-0.456
		c-0.459-0.303-0.829-0.686-1.109-1.147v4.36h-0.922v-9.973h0.827v1.373c0.289-0.445,0.663-0.805,1.124-1.081
		c0.46-0.276,0.961-0.414,1.503-0.414c0.487,0,0.937,0.102,1.346,0.305c0.412,0.205,0.765,0.477,1.063,0.816s0.53,0.732,0.699,1.176
		c0.166,0.443,0.25,0.9,0.25,1.372c0,0.497-0.078,0.969-0.231,1.413s-0.373,0.833-0.657,1.169c-0.284,0.335-0.622,0.599-1.016,0.795
		C48.561,55.205,48.131,55.303,47.661,55.303 M47.404,54.486c0.379,0,0.722-0.081,1.03-0.244c0.307-0.163,0.571-0.377,0.791-0.645
		c0.223-0.268,0.391-0.571,0.508-0.911c0.118-0.34,0.176-0.69,0.176-1.053c0-0.381-0.066-0.743-0.203-1.087
		c-0.134-0.344-0.319-0.648-0.555-0.91c-0.234-0.264-0.512-0.472-0.832-0.626c-0.322-0.153-0.667-0.23-1.036-0.23
		c-0.235,0-0.48,0.047-0.731,0.142c-0.253,0.096-0.493,0.223-0.719,0.381c-0.226,0.159-0.418,0.345-0.574,0.558
		c-0.159,0.213-0.256,0.438-0.292,0.672v2.175c0.108,0.253,0.245,0.489,0.412,0.707c0.168,0.217,0.356,0.404,0.569,0.563
		c0.212,0.158,0.443,0.283,0.69,0.374C46.886,54.442,47.142,54.486,47.404,54.486"/>
	<path clip-path="url(#SVGID_2_)" fill="#3A1F22" d="M54.243,55.303c-0.361,0-0.69-0.057-0.989-0.171
		c-0.297-0.112-0.553-0.269-0.765-0.469c-0.212-0.199-0.377-0.43-0.494-0.692c-0.119-0.263-0.178-0.539-0.178-0.829
		c0-0.325,0.072-0.622,0.218-0.889c0.145-0.268,0.347-0.497,0.609-0.687c0.261-0.191,0.576-0.338,0.941-0.441
		c0.365-0.105,0.77-0.157,1.211-0.157c0.354,0,0.714,0.032,1.084,0.095c0.371,0.064,0.699,0.155,0.988,0.272v-0.639
		c0-0.625-0.178-1.122-0.534-1.487c-0.356-0.367-0.837-0.551-1.443-0.551c-0.379,0-0.756,0.071-1.13,0.218
		c-0.375,0.145-0.756,0.353-1.145,0.625l-0.324-0.612c0.46-0.307,0.906-0.539,1.341-0.691c0.434-0.155,0.884-0.232,1.353-0.232
		c0.859,0,1.54,0.25,2.046,0.747c0.505,0.499,0.757,1.188,0.757,2.065v3.193c0,0.254,0.109,0.381,0.327,0.381v0.814
		c-0.072,0.009-0.14,0.016-0.204,0.021c-0.063,0.004-0.119,0.007-0.163,0.007c-0.18,0-0.345-0.055-0.494-0.164
		c-0.149-0.108-0.232-0.271-0.25-0.488l-0.027-0.558c-0.308,0.417-0.711,0.741-1.212,0.972
		C55.264,55.188,54.757,55.303,54.243,55.303 M54.473,54.596c0.405,0,0.811-0.089,1.212-0.266c0.401-0.176,0.718-0.419,0.954-0.727
		c0.063-0.081,0.116-0.17,0.162-0.265c0.046-0.096,0.068-0.184,0.068-0.266v-1.154c-0.306-0.117-0.628-0.208-0.962-0.272
		c-0.333-0.063-0.659-0.095-0.974-0.095c-0.659,0-1.194,0.135-1.605,0.401c-0.412,0.267-0.617,0.636-0.617,1.106
		c0,0.19,0.037,0.376,0.108,0.558c0.073,0.182,0.183,0.345,0.333,0.49c0.148,0.145,0.331,0.262,0.547,0.353
		C53.917,54.551,54.175,54.596,54.473,54.596"/>
	<path clip-path="url(#SVGID_2_)" fill="#3A1F22" d="M65.726,55.166h-0.92v-3.954c0-0.841-0.123-1.454-0.366-1.834
		c-0.244-0.381-0.623-0.57-1.137-0.57c-0.271,0-0.542,0.051-0.813,0.15c-0.271,0.1-0.524,0.238-0.758,0.42
		c-0.236,0.182-0.441,0.396-0.617,0.646c-0.175,0.25-0.308,0.519-0.398,0.809v4.334h-0.922v-7.079h0.839v1.604
		c0.146-0.253,0.323-0.487,0.536-0.699c0.211-0.213,0.448-0.396,0.711-0.551c0.261-0.154,0.538-0.272,0.832-0.354
		c0.293-0.081,0.598-0.122,0.915-0.122c0.396,0,0.729,0.073,0.994,0.218c0.266,0.145,0.482,0.349,0.645,0.611
		c0.161,0.264,0.279,0.584,0.351,0.964c0.074,0.381,0.108,0.803,0.108,1.265V55.166z"/>
	<path clip-path="url(#SVGID_2_)" fill="#3A1F22" d="M67.905,57.354c0.046,0.01,0.091,0.017,0.137,0.021
		c0.044,0.005,0.09,0.007,0.134,0.007c0.09,0,0.187-0.009,0.292-0.027c0.104-0.018,0.178-0.035,0.224-0.055
		c0.044-0.018,0.093-0.056,0.141-0.114c0.051-0.059,0.113-0.164,0.189-0.313c0.078-0.149,0.175-0.356,0.292-0.624
		c0.119-0.268,0.266-0.627,0.448-1.081l-3.076-7.079h0.961l2.615,6.224l2.411-6.224h0.88l-3.671,9.132
		c-0.135,0.335-0.317,0.584-0.547,0.746c-0.231,0.164-0.554,0.245-0.969,0.245c-0.172,0-0.324-0.014-0.461-0.04V57.354z"/>
	<path clip-path="url(#SVGID_2_)" fill="#3A1F22" d="M14.508,70.261v-9.647h3.982c0.415,0,0.797,0.088,1.145,0.266
		c0.346,0.177,0.647,0.407,0.9,0.693c0.252,0.285,0.449,0.608,0.589,0.971c0.14,0.362,0.211,0.729,0.211,1.101
		c0,0.398-0.067,0.781-0.197,1.148c-0.132,0.367-0.319,0.69-0.562,0.971c-0.245,0.281-0.536,0.508-0.875,0.68
		c-0.337,0.173-0.714,0.258-1.13,0.258h-3.128v3.561H14.508z M15.443,65.858h3.075c0.28,0,0.534-0.062,0.764-0.184
		s0.426-0.285,0.589-0.489c0.163-0.203,0.289-0.439,0.379-0.707c0.091-0.267,0.137-0.545,0.137-0.835
		c0-0.299-0.053-0.582-0.156-0.849c-0.104-0.268-0.244-0.501-0.42-0.7c-0.175-0.199-0.384-0.355-0.624-0.469
		c-0.239-0.114-0.489-0.17-0.751-0.17h-2.993V65.858z"/>
	<path clip-path="url(#SVGID_2_)" fill="#3A1F22" d="M25.561,70.396c-0.516,0-0.987-0.097-1.416-0.292
		c-0.429-0.195-0.799-0.46-1.111-0.795c-0.312-0.335-0.553-0.726-0.724-1.169c-0.173-0.441-0.258-0.909-0.258-1.399
		c0-0.498,0.087-0.969,0.265-1.413c0.176-0.443,0.421-0.833,0.731-1.168c0.31-0.336,0.682-0.603,1.11-0.802
		c0.428-0.2,0.895-0.299,1.403-0.299c0.504,0,0.972,0.099,1.401,0.299c0.429,0.199,0.798,0.466,1.109,0.802
		c0.313,0.335,0.555,0.725,0.732,1.168c0.176,0.444,0.264,0.915,0.264,1.413c0,0.49-0.088,0.958-0.264,1.399
		c-0.178,0.443-0.419,0.834-0.732,1.169c-0.311,0.335-0.681,0.6-1.109,0.795C26.532,70.3,26.065,70.396,25.561,70.396 M23,66.756
		c0,0.398,0.065,0.767,0.196,1.106s0.312,0.64,0.541,0.896c0.231,0.258,0.502,0.46,0.814,0.605c0.31,0.145,0.643,0.217,0.995,0.217
		c0.351,0,0.684-0.074,0.996-0.224c0.312-0.149,0.583-0.354,0.819-0.611c0.233-0.259,0.418-0.56,0.555-0.903
		c0.135-0.346,0.203-0.717,0.203-1.115c0-0.389-0.068-0.758-0.203-1.107c-0.137-0.349-0.322-0.651-0.555-0.91
		c-0.236-0.258-0.507-0.462-0.813-0.611c-0.307-0.149-0.637-0.225-0.988-0.225c-0.353,0-0.685,0.075-0.996,0.225
		c-0.312,0.149-0.583,0.355-0.813,0.618c-0.23,0.263-0.413,0.568-0.548,0.918C23.068,65.982,23,66.356,23,66.756"/>
	<path clip-path="url(#SVGID_2_)" fill="#3A1F22" d="M32.927,70.396c-0.551,0-1.089-0.091-1.612-0.271
		c-0.525-0.182-0.975-0.443-1.354-0.787l0.42-0.626c0.397,0.326,0.8,0.57,1.212,0.734c0.411,0.162,0.851,0.244,1.32,0.244
		c0.569,0,1.024-0.115,1.36-0.347c0.34-0.23,0.51-0.56,0.51-0.985c0-0.198-0.046-0.364-0.138-0.496
		c-0.09-0.131-0.222-0.246-0.398-0.346c-0.176-0.1-0.397-0.188-0.664-0.266c-0.266-0.076-0.576-0.156-0.927-0.237
		c-0.407-0.1-0.759-0.199-1.057-0.299c-0.297-0.1-0.544-0.214-0.738-0.34c-0.194-0.127-0.338-0.283-0.433-0.469
		s-0.142-0.419-0.142-0.7c0-0.353,0.07-0.665,0.21-0.938c0.14-0.271,0.33-0.495,0.568-0.672c0.241-0.177,0.521-0.311,0.84-0.401
		c0.32-0.091,0.662-0.136,1.022-0.136c0.542,0,1.034,0.088,1.478,0.265c0.44,0.177,0.798,0.41,1.068,0.7l-0.448,0.543
		c-0.261-0.271-0.579-0.476-0.953-0.611c-0.375-0.135-0.766-0.204-1.17-0.204c-0.245,0-0.47,0.025-0.678,0.075
		c-0.209,0.05-0.392,0.129-0.547,0.238c-0.159,0.108-0.283,0.246-0.373,0.414c-0.091,0.167-0.138,0.364-0.138,0.591
		c0,0.19,0.032,0.344,0.095,0.462c0.064,0.117,0.168,0.221,0.313,0.306c0.145,0.086,0.327,0.163,0.549,0.231
		c0.221,0.068,0.49,0.138,0.806,0.211c0.451,0.108,0.849,0.217,1.193,0.326c0.341,0.108,0.627,0.235,0.859,0.38
		c0.229,0.146,0.404,0.322,0.52,0.53c0.119,0.208,0.177,0.462,0.177,0.761c0,0.652-0.249,1.169-0.746,1.549
		C34.435,70.207,33.767,70.396,32.927,70.396"/>
	<path clip-path="url(#SVGID_2_)" fill="#3A1F22" d="M37.152,60.343h0.919v1.358h-0.919V60.343z M37.152,63.182h0.919v7.079h-0.919
		V63.182z"/>
	<path clip-path="url(#SVGID_2_)" fill="#3A1F22" d="M43.463,69.921c-0.054,0.028-0.133,0.063-0.237,0.108
		c-0.104,0.046-0.224,0.091-0.358,0.137c-0.137,0.045-0.29,0.086-0.461,0.122s-0.353,0.055-0.542,0.055
		c-0.198,0-0.388-0.028-0.569-0.082s-0.339-0.139-0.474-0.251c-0.136-0.113-0.244-0.257-0.325-0.428
		c-0.081-0.173-0.122-0.372-0.122-0.599v-5.067H39.4v-0.734h0.976V60.79h0.92v2.392h1.625v0.734h-1.625v4.81
		c0.019,0.263,0.108,0.455,0.271,0.577c0.163,0.123,0.358,0.184,0.582,0.184c0.262,0,0.491-0.043,0.691-0.129
		c0.199-0.086,0.325-0.147,0.379-0.184L43.463,69.921z"/>
	<path clip-path="url(#SVGID_2_)" fill="#3A1F22" d="M44.546,60.343h0.92v1.358h-0.92V60.343z M44.546,63.182h0.92v7.079h-0.92
		V63.182z"/>
	<path clip-path="url(#SVGID_2_)" fill="#3A1F22" d="M50.493,70.396c-0.516,0-0.987-0.097-1.416-0.292
		c-0.43-0.195-0.799-0.46-1.111-0.795c-0.311-0.335-0.552-0.726-0.724-1.169c-0.173-0.441-0.259-0.909-0.259-1.399
		c0-0.498,0.088-0.969,0.265-1.413c0.176-0.443,0.421-0.833,0.731-1.168c0.31-0.336,0.682-0.603,1.11-0.802
		c0.427-0.2,0.895-0.299,1.403-0.299c0.504,0,0.972,0.099,1.401,0.299c0.429,0.199,0.798,0.466,1.109,0.802
		c0.313,0.335,0.555,0.725,0.732,1.168c0.176,0.444,0.264,0.915,0.264,1.413c0,0.49-0.088,0.958-0.264,1.399
		c-0.178,0.443-0.419,0.834-0.732,1.169c-0.311,0.335-0.681,0.6-1.109,0.795C51.464,70.3,50.997,70.396,50.493,70.396
		 M47.932,66.756c0,0.398,0.065,0.767,0.196,1.106c0.131,0.34,0.312,0.64,0.541,0.896c0.231,0.258,0.502,0.46,0.813,0.605
		c0.311,0.145,0.643,0.217,0.996,0.217c0.351,0,0.684-0.074,0.996-0.224c0.312-0.149,0.583-0.354,0.819-0.611
		c0.233-0.259,0.418-0.56,0.555-0.903c0.135-0.346,0.203-0.717,0.203-1.115c0-0.389-0.068-0.758-0.203-1.107
		c-0.137-0.349-0.322-0.651-0.555-0.91c-0.236-0.258-0.507-0.462-0.813-0.611c-0.307-0.149-0.636-0.225-0.987-0.225
		c-0.353,0-0.685,0.075-0.996,0.225c-0.312,0.149-0.583,0.355-0.813,0.618s-0.413,0.568-0.548,0.918
		C48,65.982,47.932,66.356,47.932,66.756"/>
	<path clip-path="url(#SVGID_2_)" fill="#3A1F22" d="M61.434,70.261h-0.921v-3.954c0-0.843-0.122-1.454-0.367-1.834
		c-0.242-0.381-0.622-0.571-1.136-0.571c-0.272,0-0.543,0.05-0.813,0.149c-0.271,0.101-0.523,0.241-0.759,0.422
		c-0.233,0.181-0.439,0.396-0.615,0.646c-0.176,0.249-0.309,0.519-0.399,0.808v4.335h-0.921v-7.079h0.839v1.604
		c0.143-0.253,0.322-0.486,0.535-0.7c0.211-0.212,0.448-0.396,0.711-0.551c0.262-0.153,0.54-0.271,0.833-0.353
		c0.293-0.082,0.597-0.122,0.914-0.122c0.397,0,0.728,0.072,0.994,0.218c0.267,0.145,0.48,0.348,0.644,0.611
		c0.163,0.263,0.28,0.584,0.352,0.964c0.072,0.381,0.109,0.802,0.109,1.264V70.261z"/>
	<path clip-path="url(#SVGID_2_)" fill="#3A1F22" d="M13.493,85.355l4.021-9.647h0.773l4.021,9.647h-1.016l-1.246-3.017h-4.32
		l-1.231,3.017H13.493z M17.907,76.822l-1.978,4.769h3.902L17.907,76.822z"/>
	<path clip-path="url(#SVGID_2_)" fill="#3A1F22" d="M26.168,85.491c-0.488,0-0.939-0.102-1.354-0.307
		c-0.416-0.203-0.775-0.473-1.077-0.808s-0.537-0.723-0.703-1.161c-0.168-0.44-0.252-0.9-0.252-1.38c0-0.498,0.081-0.971,0.245-1.42
		c0.162-0.448,0.386-0.841,0.671-1.176c0.284-0.335,0.622-0.599,1.016-0.795c0.393-0.194,0.821-0.292,1.292-0.292
		c0.597,0,1.125,0.157,1.584,0.469c0.46,0.313,0.827,0.691,1.097,1.135v-4.32h0.922v8.724c0,0.253,0.108,0.38,0.324,0.38v0.815
		c-0.153,0.026-0.276,0.041-0.366,0.041c-0.225,0-0.411-0.066-0.555-0.197c-0.144-0.132-0.217-0.288-0.217-0.469v-0.747
		c-0.289,0.462-0.67,0.828-1.145,1.1C27.179,85.355,26.683,85.491,26.168,85.491 M26.358,84.675c0.235,0,0.481-0.044,0.738-0.135
		c0.258-0.091,0.497-0.216,0.718-0.373c0.221-0.16,0.413-0.346,0.577-0.558c0.161-0.214,0.26-0.441,0.296-0.687v-2.188
		c-0.09-0.244-0.223-0.474-0.398-0.687c-0.176-0.212-0.375-0.4-0.597-0.564c-0.222-0.162-0.457-0.289-0.703-0.38
		c-0.25-0.091-0.496-0.135-0.74-0.135c-0.379,0-0.724,0.08-1.036,0.244c-0.31,0.162-0.574,0.378-0.792,0.645
		c-0.217,0.268-0.386,0.574-0.508,0.918c-0.121,0.344-0.183,0.697-0.183,1.06c0,0.38,0.068,0.743,0.204,1.087
		c0.137,0.345,0.322,0.646,0.555,0.903c0.236,0.259,0.513,0.464,0.833,0.619C25.643,84.599,25.988,84.675,26.358,84.675"/>
	<path clip-path="url(#SVGID_2_)" fill="#3A1F22" d="M34.606,85.491c-0.488,0-0.939-0.102-1.354-0.307
		c-0.415-0.203-0.775-0.473-1.077-0.808c-0.302-0.335-0.538-0.723-0.704-1.161c-0.167-0.44-0.25-0.9-0.25-1.38
		c0-0.498,0.081-0.971,0.244-1.42c0.161-0.448,0.386-0.841,0.67-1.176s0.622-0.599,1.016-0.795c0.393-0.194,0.823-0.292,1.293-0.292
		c0.596,0,1.124,0.157,1.584,0.469c0.461,0.313,0.826,0.691,1.097,1.135v-4.32h0.921v8.724c0,0.253,0.109,0.38,0.325,0.38v0.815
		c-0.155,0.026-0.275,0.041-0.366,0.041c-0.226,0-0.412-0.066-0.555-0.197c-0.144-0.132-0.216-0.288-0.216-0.469v-0.747
		c-0.29,0.462-0.671,0.828-1.145,1.1C35.615,85.355,35.12,85.491,34.606,85.491 M34.796,84.675c0.233,0,0.48-0.044,0.738-0.135
		s0.497-0.216,0.717-0.373c0.222-0.16,0.414-0.346,0.577-0.558c0.161-0.214,0.261-0.441,0.298-0.687v-2.188
		c-0.09-0.244-0.225-0.474-0.399-0.687c-0.176-0.212-0.375-0.4-0.596-0.564c-0.221-0.162-0.458-0.289-0.704-0.38
		c-0.249-0.091-0.496-0.135-0.738-0.135c-0.379,0-0.724,0.08-1.036,0.244c-0.312,0.162-0.575,0.378-0.793,0.645
		c-0.216,0.268-0.386,0.574-0.507,0.918c-0.122,0.344-0.183,0.697-0.183,1.06c0,0.38,0.068,0.743,0.203,1.087
		c0.136,0.345,0.32,0.646,0.555,0.903c0.235,0.259,0.512,0.464,0.833,0.619C34.079,84.599,34.426,84.675,34.796,84.675"/>
	<path clip-path="url(#SVGID_2_)" fill="#3A1F22" d="M43.639,79.091c-0.624,0.018-1.166,0.19-1.625,0.517
		c-0.462,0.326-0.787,0.774-0.977,1.345v4.403h-0.921v-7.079h0.867v1.698c0.243-0.499,0.564-0.913,0.962-1.244
		c0.397-0.33,0.825-0.495,1.287-0.495h0.23c0.071,0,0.129,0.006,0.176,0.014V79.091z"/>
	<path clip-path="url(#SVGID_2_)" fill="#3A1F22" d="M47.958,85.491c-0.515,0-0.989-0.098-1.421-0.292
		c-0.434-0.194-0.808-0.462-1.125-0.802c-0.316-0.341-0.562-0.731-0.737-1.175c-0.176-0.445-0.265-0.921-0.265-1.427
		c0-0.499,0.088-0.968,0.265-1.406c0.175-0.44,0.421-0.825,0.737-1.156c0.317-0.33,0.689-0.592,1.119-0.787
		c0.429-0.195,0.9-0.293,1.415-0.293s0.986,0.098,1.414,0.293c0.429,0.195,0.798,0.459,1.104,0.794
		c0.307,0.335,0.546,0.721,0.719,1.155c0.172,0.435,0.256,0.897,0.256,1.386c0,0.073-0.002,0.146-0.007,0.218
		c-0.003,0.072-0.011,0.122-0.021,0.149h-6.026c0.027,0.381,0.117,0.732,0.264,1.053c0.15,0.322,0.34,0.601,0.569,0.836
		c0.23,0.235,0.496,0.419,0.799,0.551c0.304,0.13,0.625,0.196,0.97,0.196c0.233,0,0.465-0.031,0.689-0.095
		c0.226-0.063,0.434-0.149,0.624-0.259c0.189-0.108,0.359-0.242,0.507-0.4c0.15-0.158,0.264-0.333,0.347-0.522l0.799,0.217
		c-0.109,0.263-0.263,0.501-0.461,0.714c-0.197,0.212-0.428,0.398-0.691,0.557c-0.262,0.159-0.551,0.28-0.866,0.366
		C48.617,85.448,48.292,85.491,47.958,85.491 M50.558,81.442c-0.026-0.381-0.115-0.727-0.263-1.04
		c-0.149-0.313-0.339-0.581-0.569-0.808c-0.23-0.228-0.5-0.404-0.806-0.53c-0.308-0.127-0.633-0.19-0.975-0.19
		c-0.343,0-0.669,0.063-0.977,0.19c-0.306,0.126-0.574,0.303-0.806,0.53c-0.23,0.227-0.416,0.497-0.556,0.814
		c-0.14,0.317-0.223,0.661-0.249,1.033H50.558z"/>
	<path clip-path="url(#SVGID_2_)" fill="#3A1F22" d="M55.19,85.491c-0.55,0-1.088-0.091-1.613-0.272
		c-0.522-0.181-0.974-0.443-1.353-0.788l0.42-0.625c0.397,0.326,0.801,0.571,1.211,0.734c0.412,0.163,0.851,0.244,1.32,0.244
		c0.569,0,1.023-0.114,1.362-0.346c0.339-0.231,0.508-0.56,0.508-0.985c0-0.199-0.045-0.364-0.136-0.496s-0.224-0.247-0.399-0.347
		c-0.175-0.1-0.398-0.188-0.664-0.265c-0.266-0.076-0.577-0.156-0.928-0.238c-0.407-0.1-0.758-0.199-1.058-0.299
		c-0.296-0.099-0.543-0.213-0.737-0.339c-0.195-0.127-0.338-0.283-0.433-0.469s-0.142-0.419-0.142-0.7
		c0-0.354,0.07-0.666,0.21-0.938c0.14-0.272,0.33-0.495,0.57-0.673c0.238-0.177,0.518-0.311,0.838-0.401
		c0.321-0.09,0.662-0.136,1.023-0.136c0.541,0,1.034,0.089,1.476,0.266c0.443,0.177,0.8,0.41,1.07,0.7l-0.447,0.543
		c-0.262-0.271-0.58-0.476-0.954-0.612c-0.375-0.135-0.767-0.203-1.172-0.203c-0.244,0-0.47,0.025-0.677,0.075
		c-0.208,0.05-0.391,0.128-0.548,0.238c-0.158,0.108-0.282,0.246-0.373,0.414c-0.091,0.167-0.136,0.364-0.136,0.591
		c0,0.19,0.032,0.344,0.095,0.462c0.063,0.117,0.167,0.22,0.312,0.306s0.327,0.163,0.549,0.23c0.22,0.068,0.49,0.139,0.806,0.211
		c0.45,0.108,0.849,0.217,1.192,0.327c0.343,0.107,0.629,0.235,0.858,0.38c0.231,0.145,0.405,0.32,0.522,0.529
		c0.118,0.208,0.178,0.463,0.178,0.761c0,0.652-0.25,1.169-0.746,1.55C56.698,85.301,56.03,85.491,55.19,85.491"/>
	<path clip-path="url(#SVGID_2_)" fill="#3A1F22" d="M61.786,85.491c-0.551,0-1.088-0.091-1.613-0.272
		c-0.522-0.181-0.974-0.443-1.353-0.788l0.42-0.625c0.397,0.326,0.801,0.571,1.21,0.734c0.412,0.163,0.851,0.244,1.32,0.244
		c0.569,0,1.024-0.114,1.362-0.346c0.339-0.231,0.508-0.56,0.508-0.985c0-0.199-0.045-0.364-0.136-0.496s-0.224-0.247-0.399-0.347
		c-0.175-0.1-0.398-0.188-0.664-0.265c-0.266-0.076-0.577-0.156-0.927-0.238c-0.408-0.1-0.759-0.199-1.058-0.299
		c-0.297-0.099-0.543-0.213-0.737-0.339c-0.195-0.127-0.338-0.283-0.433-0.469s-0.142-0.419-0.142-0.7
		c0-0.354,0.07-0.666,0.21-0.938c0.14-0.272,0.329-0.495,0.57-0.673c0.238-0.177,0.518-0.311,0.838-0.401
		c0.32-0.09,0.661-0.136,1.022-0.136c0.541,0,1.034,0.089,1.476,0.266s0.8,0.41,1.07,0.7l-0.447,0.543
		c-0.262-0.271-0.58-0.476-0.953-0.612c-0.376-0.135-0.767-0.203-1.173-0.203c-0.243,0-0.469,0.025-0.677,0.075
		c-0.208,0.05-0.39,0.128-0.548,0.238c-0.158,0.108-0.282,0.246-0.372,0.414c-0.092,0.167-0.136,0.364-0.136,0.591
		c0,0.19,0.032,0.344,0.095,0.462c0.063,0.117,0.167,0.22,0.312,0.306s0.327,0.163,0.549,0.23c0.22,0.068,0.49,0.139,0.806,0.211
		c0.45,0.108,0.849,0.217,1.192,0.327c0.343,0.107,0.63,0.235,0.858,0.38c0.231,0.145,0.406,0.32,0.523,0.529
		c0.117,0.208,0.177,0.463,0.177,0.761c0,0.652-0.25,1.169-0.746,1.55C63.293,85.301,62.625,85.491,61.786,85.491"/>
	<path clip-path="url(#SVGID_2_)" fill="#3A1F22" d="M13.493,100.521l4.021-9.646h0.773l4.021,9.646h-1.016l-1.246-3.017h-4.32
		l-1.231,3.017H13.493z M17.907,91.988l-1.978,4.771h3.902L17.907,91.988z"/>
	<path clip-path="url(#SVGID_2_)" fill="#3A1F22" d="M26.168,100.657c-0.488,0-0.939-0.102-1.354-0.305
		c-0.416-0.204-0.775-0.474-1.077-0.809s-0.537-0.723-0.703-1.162c-0.168-0.438-0.252-0.899-0.252-1.379
		c0-0.499,0.081-0.972,0.245-1.42c0.162-0.448,0.386-0.84,0.671-1.175c0.284-0.335,0.622-0.601,1.016-0.795
		c0.393-0.195,0.821-0.292,1.292-0.292c0.597,0,1.125,0.155,1.584,0.469c0.46,0.312,0.827,0.689,1.097,1.134v-4.321h0.922v8.724
		c0,0.253,0.108,0.38,0.324,0.38v0.815c-0.153,0.027-0.276,0.041-0.366,0.041c-0.225,0-0.411-0.065-0.555-0.197
		c-0.144-0.131-0.217-0.287-0.217-0.469v-0.747c-0.289,0.462-0.67,0.829-1.145,1.102C27.179,100.521,26.683,100.657,26.168,100.657
		 M26.358,99.843c0.235,0,0.481-0.046,0.738-0.137c0.258-0.09,0.497-0.214,0.718-0.373c0.221-0.158,0.413-0.344,0.577-0.558
		c0.161-0.212,0.26-0.441,0.296-0.686v-2.188c-0.09-0.245-0.223-0.474-0.398-0.687c-0.176-0.213-0.375-0.401-0.597-0.563
		c-0.222-0.163-0.457-0.29-0.703-0.381c-0.25-0.09-0.496-0.136-0.74-0.136c-0.379,0-0.724,0.082-1.036,0.244
		c-0.31,0.164-0.574,0.379-0.792,0.646s-0.386,0.572-0.508,0.916c-0.121,0.346-0.183,0.698-0.183,1.061
		c0,0.381,0.068,0.743,0.204,1.087c0.137,0.344,0.322,0.646,0.555,0.903c0.236,0.259,0.513,0.465,0.833,0.618
		C25.643,99.765,25.988,99.843,26.358,99.843"/>
	<path clip-path="url(#SVGID_2_)" fill="#3A1F22" d="M34.606,100.657c-0.488,0-0.939-0.102-1.354-0.305
		c-0.415-0.204-0.775-0.474-1.077-0.809c-0.302-0.335-0.538-0.723-0.704-1.162c-0.167-0.438-0.25-0.899-0.25-1.379
		c0-0.499,0.081-0.972,0.244-1.42c0.161-0.448,0.386-0.84,0.67-1.175s0.622-0.601,1.016-0.795c0.393-0.195,0.823-0.292,1.293-0.292
		c0.596,0,1.124,0.155,1.584,0.469c0.461,0.312,0.826,0.689,1.097,1.134v-4.321h0.921v8.724c0,0.253,0.109,0.38,0.325,0.38v0.815
		c-0.155,0.027-0.275,0.041-0.366,0.041c-0.226,0-0.412-0.065-0.555-0.197c-0.144-0.131-0.216-0.287-0.216-0.469v-0.747
		c-0.29,0.462-0.671,0.829-1.145,1.102C35.615,100.521,35.12,100.657,34.606,100.657 M34.796,99.843c0.233,0,0.48-0.046,0.738-0.137
		c0.257-0.09,0.497-0.214,0.717-0.373c0.222-0.158,0.414-0.344,0.577-0.558c0.161-0.212,0.261-0.441,0.298-0.686v-2.188
		c-0.09-0.245-0.225-0.474-0.399-0.687c-0.176-0.213-0.375-0.401-0.596-0.563c-0.221-0.163-0.458-0.29-0.704-0.381
		c-0.249-0.09-0.496-0.136-0.738-0.136c-0.379,0-0.724,0.082-1.036,0.244c-0.312,0.164-0.575,0.379-0.793,0.646
		c-0.216,0.268-0.386,0.572-0.507,0.916c-0.122,0.346-0.183,0.698-0.183,1.061c0,0.381,0.068,0.743,0.203,1.087
		c0.136,0.344,0.32,0.646,0.555,0.903c0.235,0.259,0.512,0.465,0.833,0.618C34.079,99.765,34.426,99.843,34.796,99.843"/>
	<path clip-path="url(#SVGID_2_)" fill="#3A1F22" d="M43.639,94.258c-0.624,0.019-1.166,0.191-1.625,0.516
		c-0.462,0.326-0.787,0.775-0.977,1.346v4.402h-0.921v-7.079h0.867v1.698c0.243-0.497,0.564-0.912,0.962-1.242
		c0.397-0.331,0.825-0.497,1.287-0.497h0.23c0.071,0,0.129,0.006,0.176,0.015V94.258z"/>
	<path clip-path="url(#SVGID_2_)" fill="#3A1F22" d="M47.958,100.657c-0.515,0-0.989-0.097-1.421-0.292
		c-0.434-0.194-0.808-0.462-1.125-0.802c-0.316-0.339-0.562-0.73-0.737-1.175c-0.176-0.443-0.265-0.919-0.265-1.427
		c0-0.498,0.088-0.968,0.265-1.406c0.175-0.439,0.421-0.824,0.737-1.154c0.317-0.331,0.689-0.594,1.119-0.788
		c0.429-0.195,0.9-0.292,1.415-0.292s0.986,0.097,1.414,0.292c0.429,0.194,0.798,0.46,1.104,0.795
		c0.307,0.335,0.546,0.72,0.719,1.154c0.172,0.436,0.256,0.896,0.256,1.387c0,0.071-0.002,0.145-0.007,0.217
		c-0.003,0.072-0.011,0.122-0.021,0.148h-6.026c0.027,0.382,0.117,0.732,0.264,1.054c0.15,0.322,0.34,0.601,0.569,0.836
		c0.23,0.236,0.496,0.418,0.799,0.55c0.304,0.132,0.625,0.197,0.97,0.197c0.233,0,0.465-0.031,0.689-0.096
		c0.226-0.063,0.434-0.149,0.624-0.257c0.189-0.108,0.359-0.242,0.507-0.401c0.15-0.158,0.264-0.333,0.347-0.523l0.799,0.218
		c-0.109,0.262-0.263,0.5-0.461,0.713c-0.197,0.214-0.428,0.398-0.691,0.558c-0.262,0.158-0.551,0.281-0.866,0.367
		C48.617,100.614,48.292,100.657,47.958,100.657 M50.558,96.609c-0.026-0.382-0.115-0.728-0.263-1.04
		c-0.149-0.313-0.339-0.582-0.569-0.809c-0.23-0.226-0.5-0.402-0.806-0.53c-0.308-0.127-0.633-0.189-0.975-0.189
		c-0.343,0-0.669,0.063-0.977,0.189c-0.306,0.128-0.574,0.305-0.806,0.53c-0.23,0.227-0.416,0.498-0.556,0.815
		c-0.14,0.316-0.223,0.662-0.249,1.033H50.558z"/>
	<path clip-path="url(#SVGID_2_)" fill="#3A1F22" d="M55.19,100.658c-0.55,0-1.088-0.09-1.613-0.271
		c-0.522-0.182-0.974-0.444-1.353-0.788l0.42-0.625c0.397,0.326,0.801,0.57,1.211,0.732c0.412,0.164,0.851,0.246,1.32,0.246
		c0.569,0,1.023-0.116,1.362-0.348c0.339-0.23,0.508-0.56,0.508-0.985c0-0.198-0.045-0.363-0.136-0.495s-0.224-0.246-0.399-0.347
		c-0.175-0.1-0.398-0.188-0.664-0.265c-0.266-0.077-0.577-0.156-0.928-0.237c-0.407-0.1-0.758-0.199-1.058-0.3
		c-0.296-0.1-0.543-0.213-0.737-0.34c-0.195-0.126-0.338-0.283-0.433-0.469s-0.142-0.419-0.142-0.699c0-0.354,0.07-0.666,0.21-0.938
		s0.33-0.496,0.57-0.673c0.238-0.176,0.518-0.31,0.838-0.4c0.321-0.091,0.662-0.136,1.023-0.136c0.541,0,1.034,0.088,1.476,0.265
		c0.443,0.176,0.8,0.409,1.07,0.699l-0.447,0.544c-0.262-0.272-0.58-0.476-0.954-0.611c-0.375-0.136-0.767-0.203-1.172-0.203
		c-0.244,0-0.47,0.023-0.677,0.073c-0.208,0.05-0.391,0.13-0.548,0.238c-0.158,0.109-0.282,0.247-0.373,0.414
		c-0.091,0.169-0.136,0.365-0.136,0.592c0,0.19,0.032,0.344,0.095,0.461c0.063,0.119,0.167,0.221,0.312,0.307
		s0.327,0.162,0.549,0.231c0.22,0.067,0.49,0.138,0.806,0.21c0.45,0.109,0.849,0.218,1.192,0.326
		c0.343,0.108,0.629,0.235,0.858,0.38c0.231,0.146,0.405,0.322,0.522,0.53c0.118,0.209,0.178,0.462,0.178,0.762
		c0,0.651-0.25,1.167-0.746,1.548C56.698,100.469,56.03,100.658,55.19,100.658"/>
	<path clip-path="url(#SVGID_2_)" fill="#3A1F22" d="M61.786,100.658c-0.551,0-1.088-0.09-1.613-0.271
		c-0.522-0.182-0.974-0.444-1.353-0.788l0.42-0.625c0.397,0.326,0.801,0.57,1.21,0.732c0.412,0.164,0.851,0.246,1.32,0.246
		c0.569,0,1.024-0.116,1.362-0.348c0.339-0.23,0.508-0.56,0.508-0.985c0-0.198-0.045-0.363-0.136-0.495s-0.224-0.246-0.399-0.347
		c-0.175-0.1-0.398-0.188-0.664-0.265c-0.266-0.077-0.577-0.156-0.927-0.237c-0.408-0.1-0.759-0.199-1.058-0.3
		c-0.297-0.1-0.543-0.213-0.737-0.34c-0.195-0.126-0.338-0.283-0.433-0.469s-0.142-0.419-0.142-0.699c0-0.354,0.07-0.666,0.21-0.938
		c0.14-0.271,0.329-0.496,0.57-0.673c0.238-0.176,0.518-0.31,0.838-0.4c0.32-0.091,0.661-0.136,1.022-0.136
		c0.541,0,1.034,0.088,1.476,0.265c0.442,0.176,0.8,0.409,1.07,0.699l-0.447,0.544c-0.262-0.272-0.58-0.476-0.953-0.611
		c-0.376-0.136-0.767-0.203-1.173-0.203c-0.243,0-0.469,0.023-0.677,0.073c-0.208,0.05-0.39,0.13-0.548,0.238
		c-0.158,0.109-0.282,0.247-0.372,0.414c-0.092,0.169-0.136,0.365-0.136,0.592c0,0.19,0.032,0.344,0.095,0.461
		c0.063,0.119,0.167,0.221,0.312,0.307s0.327,0.162,0.549,0.231c0.22,0.067,0.49,0.138,0.806,0.21
		c0.45,0.109,0.849,0.218,1.192,0.326c0.343,0.108,0.63,0.235,0.858,0.38c0.231,0.146,0.406,0.322,0.523,0.53
		c0.117,0.209,0.177,0.462,0.177,0.762c0,0.651-0.25,1.167-0.746,1.548C63.293,100.469,62.625,100.658,61.786,100.658"/>
	<path clip-path="url(#SVGID_2_)" fill="#3A1F22" d="M14.508,115.827v-9.646h3.982c0.415,0,0.797,0.089,1.145,0.265
		c0.346,0.177,0.647,0.407,0.9,0.693c0.252,0.285,0.449,0.608,0.589,0.972c0.14,0.361,0.211,0.729,0.211,1.1
		c0,0.398-0.067,0.782-0.197,1.148c-0.132,0.367-0.319,0.69-0.562,0.972c-0.245,0.281-0.536,0.508-0.875,0.679
		c-0.337,0.173-0.714,0.259-1.13,0.259h-3.128v3.56H14.508z M15.443,111.425h3.075c0.28,0,0.534-0.061,0.764-0.184
		c0.23-0.122,0.426-0.285,0.589-0.488c0.163-0.205,0.289-0.44,0.379-0.707c0.091-0.268,0.137-0.546,0.137-0.836
		c0-0.298-0.053-0.581-0.156-0.849c-0.104-0.268-0.244-0.501-0.42-0.7c-0.175-0.199-0.384-0.354-0.624-0.469
		c-0.239-0.113-0.489-0.169-0.751-0.169h-2.993V111.425z"/>
	<path clip-path="url(#SVGID_2_)" fill="#3A1F22" d="M28.62,115.827h-0.921v-3.953c0-0.806-0.137-1.408-0.413-1.808
		c-0.275-0.398-0.678-0.598-1.212-0.598c-0.262,0-0.521,0.053-0.777,0.156c-0.259,0.104-0.501,0.247-0.726,0.428
		c-0.226,0.182-0.422,0.394-0.588,0.64c-0.168,0.244-0.292,0.511-0.373,0.802v4.333h-0.922v-9.919h0.922v4.443
		c0.288-0.534,0.681-0.955,1.177-1.263c0.497-0.309,1.029-0.462,1.598-0.462c0.407,0,0.751,0.073,1.036,0.224
		c0.283,0.149,0.516,0.357,0.692,0.625c0.175,0.267,0.304,0.589,0.386,0.964c0.081,0.376,0.121,0.791,0.121,1.244V115.827z"/>
	<path clip-path="url(#SVGID_2_)" fill="#3A1F22" d="M33.578,115.963c-0.516,0-0.988-0.097-1.417-0.292
		c-0.429-0.194-0.799-0.46-1.111-0.795c-0.312-0.335-0.553-0.724-0.724-1.169c-0.173-0.442-0.258-0.909-0.258-1.398
		c0-0.499,0.087-0.97,0.265-1.413c0.176-0.444,0.421-0.834,0.731-1.169c0.311-0.335,0.682-0.603,1.11-0.802
		c0.428-0.199,0.895-0.298,1.403-0.298c0.504,0,0.971,0.099,1.4,0.298c0.43,0.199,0.799,0.467,1.11,0.802
		c0.313,0.335,0.555,0.725,0.732,1.169c0.176,0.443,0.264,0.914,0.264,1.413c0,0.489-0.088,0.956-0.264,1.398
		c-0.177,0.445-0.419,0.834-0.732,1.169c-0.311,0.335-0.68,0.601-1.11,0.795C34.549,115.866,34.082,115.963,33.578,115.963
		 M31.017,112.322c0,0.398,0.066,0.767,0.196,1.106c0.131,0.341,0.312,0.639,0.541,0.896c0.231,0.259,0.502,0.46,0.814,0.605
		c0.31,0.145,0.643,0.218,0.995,0.218c0.351,0,0.684-0.075,0.996-0.225c0.311-0.149,0.583-0.353,0.819-0.611
		c0.233-0.258,0.418-0.56,0.555-0.903c0.136-0.344,0.204-0.716,0.204-1.115c0-0.389-0.068-0.758-0.204-1.106
		c-0.137-0.349-0.322-0.652-0.555-0.91c-0.236-0.259-0.507-0.462-0.813-0.611c-0.307-0.15-0.636-0.225-0.987-0.225
		c-0.354,0-0.685,0.074-0.997,0.225c-0.312,0.149-0.583,0.354-0.813,0.618c-0.23,0.262-0.414,0.568-0.548,0.916
		C31.084,111.55,31.017,111.924,31.017,112.322"/>
	<path clip-path="url(#SVGID_2_)" fill="#3A1F22" d="M44.519,115.827h-0.921v-3.953c0-0.843-0.122-1.454-0.367-1.834
		c-0.243-0.381-0.622-0.571-1.136-0.571c-0.272,0-0.543,0.05-0.813,0.149c-0.271,0.1-0.523,0.24-0.759,0.422
		c-0.234,0.181-0.439,0.396-0.615,0.645c-0.176,0.25-0.309,0.519-0.399,0.81v4.333h-0.921v-7.079h0.839v1.604
		c0.144-0.253,0.322-0.486,0.535-0.699c0.211-0.213,0.448-0.396,0.711-0.551c0.262-0.153,0.54-0.271,0.833-0.354
		c0.293-0.081,0.597-0.121,0.915-0.121c0.397,0,0.728,0.071,0.994,0.216c0.267,0.146,0.481,0.35,0.644,0.612
		c0.163,0.263,0.28,0.585,0.352,0.965c0.073,0.381,0.108,0.802,0.108,1.264V115.827z"/>
	<path clip-path="url(#SVGID_2_)" fill="#3A1F22" d="M49.515,115.963c-0.516,0-0.99-0.097-1.42-0.292
		c-0.435-0.194-0.809-0.462-1.125-0.802c-0.317-0.339-0.562-0.73-0.738-1.175c-0.176-0.443-0.265-0.919-0.265-1.427
		c0-0.499,0.088-0.966,0.265-1.406c0.176-0.439,0.421-0.824,0.738-1.154c0.316-0.331,0.688-0.594,1.119-0.789
		c0.428-0.194,0.899-0.291,1.415-0.291c0.514,0,0.985,0.097,1.414,0.291c0.428,0.195,0.797,0.46,1.104,0.796
		c0.307,0.335,0.545,0.72,0.717,1.154c0.172,0.436,0.257,0.896,0.257,1.387c0,0.071-0.002,0.145-0.007,0.216
		c-0.003,0.073-0.011,0.123-0.02,0.15h-6.026c0.027,0.381,0.116,0.731,0.263,1.053c0.15,0.322,0.34,0.601,0.569,0.836
		c0.231,0.236,0.498,0.418,0.8,0.55c0.303,0.132,0.625,0.197,0.969,0.197c0.235,0,0.465-0.031,0.691-0.096
		c0.226-0.063,0.433-0.149,0.623-0.258c0.189-0.107,0.359-0.241,0.508-0.401c0.149-0.157,0.263-0.332,0.346-0.522l0.8,0.218
		c-0.11,0.262-0.263,0.501-0.462,0.713c-0.197,0.214-0.429,0.398-0.69,0.558c-0.262,0.158-0.551,0.281-0.867,0.367
		C50.174,115.92,49.849,115.963,49.515,115.963 M52.116,111.915c-0.027-0.382-0.116-0.728-0.263-1.041
		c-0.15-0.312-0.34-0.581-0.568-0.808c-0.231-0.226-0.501-0.402-0.808-0.53c-0.307-0.127-0.633-0.189-0.974-0.189
		c-0.344,0-0.669,0.063-0.978,0.189c-0.306,0.128-0.574,0.305-0.805,0.53c-0.231,0.227-0.417,0.498-0.555,0.815
		c-0.141,0.316-0.223,0.662-0.25,1.033H52.116z"/>
	<path clip-path="url(#SVGID_2_)" fill="#3A1F22" d="M63.775,115.827h-0.92v-3.953c0-0.843-0.123-1.454-0.366-1.834
		c-0.244-0.381-0.623-0.571-1.138-0.571c-0.271,0-0.542,0.05-0.813,0.149c-0.271,0.1-0.525,0.24-0.758,0.422
		c-0.236,0.181-0.441,0.396-0.617,0.645c-0.175,0.25-0.308,0.519-0.398,0.81v4.333h-0.922v-7.079h0.839v1.604
		c0.146-0.253,0.323-0.486,0.536-0.699c0.211-0.213,0.448-0.396,0.711-0.551c0.261-0.153,0.538-0.271,0.832-0.354
		c0.293-0.081,0.598-0.121,0.915-0.121c0.396,0,0.729,0.071,0.994,0.216c0.266,0.146,0.482,0.35,0.645,0.612
		c0.161,0.263,0.278,0.585,0.35,0.965c0.074,0.381,0.109,0.802,0.109,1.264V115.827z"/>
	<path clip-path="url(#SVGID_2_)" fill="#3A1F22" d="M67.866,115.963c-0.74,0-1.3-0.255-1.679-0.768
		c-0.379-0.512-0.569-1.274-0.569-2.288v-4.158h0.92v3.994c0,1.604,0.546,2.405,1.639,2.405c0.272,0,0.538-0.046,0.799-0.137
		c0.262-0.09,0.505-0.221,0.725-0.394c0.221-0.172,0.421-0.376,0.596-0.611c0.177-0.235,0.32-0.503,0.427-0.802v-4.456h0.922v5.883
		c0,0.254,0.112,0.38,0.337,0.38v0.816c-0.181,0.026-0.307,0.04-0.378,0.04c-0.208,0-0.387-0.063-0.535-0.19
		c-0.15-0.126-0.223-0.285-0.223-0.476v-0.978c-0.317,0.552-0.737,0.979-1.261,1.284C69.062,115.812,68.488,115.963,67.866,115.963"
		/>
	<path clip-path="url(#SVGID_2_)" fill="#3A1F22" d="M84.225,115.827h-0.92v-3.953c0-0.825-0.13-1.432-0.386-1.821
		c-0.258-0.389-0.647-0.584-1.172-0.584c-0.271,0-0.526,0.05-0.766,0.149s-0.46,0.24-0.664,0.422
		c-0.203,0.181-0.381,0.396-0.535,0.645c-0.152,0.25-0.271,0.523-0.351,0.822v4.32h-0.921v-3.953c0-0.843-0.127-1.454-0.379-1.834
		c-0.254-0.381-0.642-0.571-1.166-0.571c-0.531,0-1.005,0.187-1.421,0.557c-0.416,0.371-0.712,0.861-0.893,1.469v4.333h-0.922
		v-7.079h0.839v1.604c0.289-0.543,0.668-0.967,1.138-1.271c0.47-0.303,0.989-0.454,1.558-0.454c0.596,0,1.074,0.167,1.436,0.502
		c0.362,0.336,0.578,0.774,0.651,1.317c0.659-1.213,1.569-1.819,2.734-1.819c0.388,0,0.72,0.071,0.995,0.216
		c0.274,0.146,0.498,0.353,0.664,0.62c0.167,0.266,0.289,0.588,0.365,0.964s0.115,0.795,0.115,1.257V115.827z"/>
	<path clip-path="url(#SVGID_2_)" fill="#3A1F22" d="M89.587,115.963c-0.551,0-1.061-0.141-1.53-0.421
		c-0.47-0.281-0.835-0.643-1.097-1.087v1.372h-0.826v-9.919h0.92v4.321c0.317-0.479,0.695-0.867,1.139-1.162
		c0.441-0.294,0.961-0.44,1.556-0.44c0.489,0,0.93,0.104,1.327,0.312c0.397,0.209,0.734,0.487,1.009,0.836
		c0.275,0.349,0.487,0.743,0.638,1.182c0.148,0.439,0.222,0.891,0.222,1.353c0,0.498-0.086,0.969-0.257,1.413
		c-0.171,0.443-0.408,0.83-0.709,1.161c-0.304,0.331-0.659,0.594-1.071,0.788C90.497,115.866,90.056,115.963,89.587,115.963
		 M89.37,115.148c0.389,0,0.743-0.08,1.063-0.238c0.322-0.158,0.598-0.371,0.826-0.639c0.231-0.267,0.411-0.57,0.542-0.91
		c0.131-0.34,0.197-0.691,0.197-1.053c0-0.371-0.061-0.729-0.183-1.073c-0.121-0.345-0.293-0.65-0.514-0.917
		c-0.222-0.268-0.486-0.481-0.793-0.64c-0.307-0.157-0.645-0.237-1.016-0.237c-0.28,0-0.541,0.048-0.786,0.143
		c-0.243,0.095-0.469,0.225-0.676,0.387c-0.208,0.164-0.395,0.352-0.563,0.564c-0.167,0.213-0.303,0.437-0.413,0.672v2.202
		c0.036,0.244,0.133,0.473,0.292,0.687c0.157,0.212,0.349,0.396,0.575,0.55c0.225,0.154,0.465,0.276,0.718,0.366
		C88.892,115.103,89.135,115.148,89.37,115.148"/>
	<path clip-path="url(#SVGID_2_)" fill="#3A1F22" d="M97.563,115.963c-0.513,0-0.988-0.097-1.421-0.292
		c-0.434-0.194-0.808-0.462-1.125-0.802c-0.315-0.339-0.562-0.73-0.737-1.175c-0.176-0.443-0.265-0.919-0.265-1.427
		c0-0.499,0.088-0.966,0.265-1.406c0.175-0.439,0.422-0.824,0.737-1.154c0.317-0.331,0.689-0.594,1.119-0.789
		c0.43-0.194,0.901-0.291,1.415-0.291c0.516,0,0.987,0.097,1.415,0.291c0.429,0.195,0.798,0.46,1.104,0.796
		c0.306,0.335,0.546,0.72,0.718,1.154c0.172,0.436,0.256,0.896,0.256,1.387c0,0.071-0.002,0.145-0.007,0.216
		c-0.003,0.073-0.01,0.123-0.019,0.15h-6.026c0.026,0.381,0.115,0.731,0.264,1.053c0.149,0.322,0.339,0.601,0.569,0.836
		c0.229,0.236,0.497,0.418,0.798,0.55c0.304,0.132,0.626,0.197,0.971,0.197c0.233,0,0.463-0.031,0.689-0.096
		c0.225-0.063,0.433-0.149,0.623-0.258c0.189-0.107,0.359-0.241,0.508-0.401c0.149-0.157,0.264-0.332,0.347-0.522l0.798,0.218
		c-0.108,0.262-0.263,0.501-0.462,0.713c-0.197,0.214-0.426,0.398-0.689,0.558c-0.262,0.158-0.551,0.281-0.866,0.367
		C98.222,115.92,97.898,115.963,97.563,115.963 M100.165,111.915c-0.026-0.382-0.115-0.728-0.264-1.041
		c-0.149-0.312-0.339-0.581-0.569-0.808c-0.229-0.226-0.499-0.402-0.806-0.53c-0.308-0.127-0.632-0.189-0.975-0.189
		c-0.343,0-0.668,0.063-0.976,0.189c-0.307,0.128-0.574,0.305-0.807,0.53c-0.229,0.227-0.415,0.498-0.556,0.815
		c-0.138,0.316-0.222,0.662-0.248,1.033H100.165z"/>
	<path clip-path="url(#SVGID_2_)" fill="#3A1F22" d="M105.947,109.563c-0.624,0.019-1.165,0.19-1.625,0.516
		c-0.462,0.326-0.786,0.775-0.976,1.346v4.402h-0.921v-7.079h0.866v1.698c0.245-0.497,0.564-0.912,0.963-1.242
		c0.398-0.331,0.825-0.497,1.287-0.497h0.23c0.071,0,0.131,0.006,0.176,0.015V109.563z"/>
	<polygon clip-path="url(#SVGID_2_)" fill="#3A1F22" points="183.054,91.768 183.949,91.768 180.93,98.848 180.156,98.848 
		178.653,95.232 177.15,98.848 176.378,98.848 173.357,91.768 174.238,91.768 176.812,97.896 178.152,94.662 176.946,91.781 
		177.733,91.781 178.653,94.092 179.561,91.781 180.347,91.781 179.155,94.662 180.495,97.896 	"/>
	<path clip-path="url(#SVGID_2_)" fill="#3A1F22" d="M188.24,98.982c-0.513,0-0.987-0.098-1.421-0.292s-0.809-0.462-1.125-0.802
		c-0.314-0.34-0.562-0.73-0.737-1.176c-0.176-0.443-0.264-0.919-0.264-1.426c0-0.499,0.088-0.968,0.264-1.406
		c0.176-0.439,0.423-0.824,0.737-1.155c0.316-0.33,0.689-0.594,1.118-0.788c0.43-0.194,0.902-0.292,1.415-0.292
		c0.516,0,0.987,0.098,1.416,0.292s0.797,0.46,1.104,0.795s0.547,0.72,0.718,1.154c0.172,0.436,0.256,0.897,0.256,1.387
		c0,0.072-0.002,0.146-0.006,0.217c-0.005,0.073-0.012,0.123-0.021,0.149h-6.026c0.026,0.382,0.115,0.732,0.265,1.054
		c0.149,0.322,0.339,0.601,0.569,0.836c0.229,0.234,0.495,0.418,0.798,0.55s0.626,0.196,0.97,0.196c0.233,0,0.464-0.03,0.689-0.095
		c0.226-0.063,0.434-0.149,0.623-0.258s0.359-0.242,0.508-0.401c0.149-0.158,0.265-0.333,0.347-0.522l0.798,0.218
		c-0.108,0.262-0.263,0.499-0.461,0.713c-0.198,0.213-0.428,0.398-0.69,0.558c-0.262,0.158-0.551,0.28-0.866,0.367
		C188.899,98.939,188.576,98.982,188.24,98.982 M190.842,94.933c-0.026-0.38-0.115-0.726-0.265-1.039
		c-0.148-0.312-0.338-0.581-0.568-0.809c-0.229-0.226-0.498-0.402-0.806-0.529s-0.632-0.19-0.976-0.19
		c-0.343,0-0.668,0.063-0.975,0.19c-0.308,0.127-0.575,0.304-0.807,0.529c-0.229,0.228-0.414,0.499-0.556,0.816
		c-0.139,0.316-0.223,0.661-0.249,1.031H190.842z"/>
	<path clip-path="url(#SVGID_2_)" fill="#3A1F22" d="M196.558,98.982c-0.552,0-1.062-0.141-1.531-0.422
		c-0.47-0.28-0.835-0.642-1.097-1.087v1.373h-0.826v-9.919h0.921v4.321c0.315-0.479,0.693-0.868,1.138-1.162
		c0.441-0.294,0.961-0.441,1.557-0.441c0.488,0,0.93,0.104,1.327,0.313c0.398,0.209,0.733,0.487,1.009,0.836
		s0.488,0.742,0.637,1.182c0.15,0.44,0.224,0.89,0.224,1.353c0,0.497-0.086,0.969-0.257,1.413c-0.172,0.443-0.409,0.83-0.712,1.161
		c-0.302,0.33-0.659,0.594-1.068,0.788C197.466,98.885,197.026,98.982,196.558,98.982 M196.34,98.167
		c0.389,0,0.742-0.079,1.063-0.237c0.32-0.158,0.596-0.372,0.826-0.64c0.229-0.266,0.411-0.57,0.541-0.909
		c0.131-0.34,0.196-0.69,0.196-1.053c0-0.372-0.06-0.73-0.183-1.074c-0.122-0.344-0.294-0.65-0.515-0.916
		c-0.221-0.268-0.484-0.481-0.792-0.64s-0.645-0.237-1.015-0.237c-0.28,0-0.543,0.047-0.787,0.143
		c-0.243,0.095-0.47,0.225-0.677,0.387c-0.207,0.164-0.395,0.352-0.563,0.564c-0.166,0.213-0.303,0.438-0.411,0.673v2.2
		c0.034,0.245,0.133,0.474,0.291,0.687c0.157,0.213,0.35,0.396,0.575,0.55c0.225,0.155,0.465,0.276,0.719,0.367
		C195.86,98.122,196.105,98.167,196.34,98.167"/>
	<path clip-path="url(#SVGID_2_)" fill="#3A1F22" d="M203.803,98.983c-0.552,0-1.089-0.091-1.611-0.272
		c-0.524-0.181-0.976-0.444-1.354-0.788l0.42-0.625c0.396,0.326,0.8,0.571,1.212,0.733c0.41,0.164,0.851,0.245,1.32,0.245
		c0.569,0,1.023-0.115,1.36-0.347c0.339-0.231,0.509-0.56,0.509-0.985c0-0.199-0.046-0.363-0.137-0.495
		c-0.09-0.132-0.223-0.247-0.398-0.348c-0.177-0.1-0.396-0.188-0.664-0.264c-0.267-0.078-0.575-0.156-0.928-0.238
		c-0.405-0.1-0.758-0.199-1.056-0.3c-0.298-0.1-0.545-0.212-0.738-0.339c-0.194-0.126-0.339-0.283-0.434-0.469
		c-0.095-0.187-0.142-0.419-0.142-0.699c0-0.354,0.069-0.667,0.209-0.938c0.14-0.272,0.33-0.496,0.568-0.674
		c0.241-0.176,0.521-0.31,0.84-0.4c0.321-0.09,0.662-0.136,1.023-0.136c0.541,0,1.033,0.089,1.477,0.266
		c0.44,0.176,0.798,0.409,1.069,0.699l-0.447,0.544c-0.262-0.272-0.58-0.476-0.955-0.612c-0.374-0.136-0.765-0.203-1.17-0.203
		c-0.245,0-0.47,0.024-0.678,0.074c-0.209,0.05-0.392,0.129-0.548,0.237c-0.159,0.11-0.283,0.248-0.373,0.415
		c-0.091,0.168-0.137,0.365-0.137,0.592c0,0.19,0.032,0.344,0.095,0.461c0.064,0.118,0.168,0.22,0.313,0.307
		c0.145,0.086,0.327,0.162,0.549,0.23c0.222,0.067,0.489,0.139,0.806,0.21c0.451,0.109,0.849,0.218,1.192,0.326
		c0.342,0.108,0.628,0.236,0.859,0.381c0.229,0.145,0.403,0.321,0.521,0.529c0.118,0.209,0.176,0.463,0.176,0.762
		c0,0.651-0.248,1.168-0.744,1.549C205.311,98.792,204.643,98.983,203.803,98.983"/>
	<path clip-path="url(#SVGID_2_)" fill="#3A1F22" d="M208.028,88.929h0.919v1.359h-0.919V88.929z M208.028,91.769h0.919v7.079
		h-0.919V91.769z"/>
	<path clip-path="url(#SVGID_2_)" fill="#3A1F22" d="M214.339,98.508c-0.056,0.026-0.135,0.063-0.238,0.108
		s-0.223,0.091-0.358,0.136c-0.136,0.046-0.29,0.087-0.46,0.122c-0.171,0.035-0.352,0.054-0.542,0.054
		c-0.198,0-0.388-0.026-0.568-0.08c-0.181-0.055-0.34-0.139-0.474-0.252c-0.137-0.113-0.245-0.256-0.326-0.429
		c-0.081-0.171-0.121-0.371-0.121-0.597v-5.068h-0.976v-0.733h0.976v-2.392h0.921v2.392h1.625v0.733h-1.625v4.81
		c0.018,0.263,0.108,0.455,0.271,0.577c0.16,0.123,0.355,0.184,0.582,0.184c0.261,0,0.491-0.043,0.689-0.128
		c0.198-0.087,0.326-0.148,0.379-0.184L214.339,98.508z"/>
	<path clip-path="url(#SVGID_2_)" fill="#3A1F22" d="M218.509,98.982c-0.515,0-0.988-0.098-1.422-0.292s-0.809-0.462-1.124-0.802
		c-0.316-0.34-0.562-0.73-0.738-1.176c-0.176-0.443-0.265-0.919-0.265-1.426c0-0.499,0.089-0.968,0.265-1.406
		c0.177-0.439,0.422-0.824,0.738-1.155c0.315-0.33,0.688-0.594,1.118-0.788c0.429-0.194,0.901-0.292,1.415-0.292
		c0.515,0,0.986,0.098,1.416,0.292c0.428,0.194,0.796,0.46,1.104,0.795c0.306,0.335,0.545,0.72,0.716,1.154
		c0.172,0.436,0.258,0.897,0.258,1.387c0,0.072-0.002,0.146-0.006,0.217c-0.005,0.073-0.012,0.123-0.021,0.149h-6.026
		c0.026,0.382,0.115,0.732,0.264,1.054c0.148,0.322,0.338,0.601,0.568,0.836c0.23,0.234,0.497,0.418,0.8,0.55
		c0.302,0.132,0.626,0.196,0.969,0.196c0.234,0,0.464-0.03,0.69-0.095c0.225-0.063,0.433-0.149,0.622-0.258s0.359-0.242,0.509-0.401
		c0.147-0.158,0.264-0.333,0.345-0.522l0.799,0.218c-0.107,0.262-0.262,0.499-0.46,0.713c-0.198,0.213-0.429,0.398-0.69,0.558
		c-0.262,0.158-0.551,0.28-0.867,0.367C219.168,98.939,218.843,98.982,218.509,98.982 M221.11,94.933
		c-0.028-0.38-0.116-0.726-0.265-1.039c-0.15-0.312-0.34-0.581-0.568-0.809c-0.23-0.226-0.5-0.402-0.808-0.529
		c-0.306-0.127-0.631-0.19-0.974-0.19c-0.344,0-0.668,0.063-0.976,0.19s-0.575,0.304-0.806,0.529
		c-0.23,0.228-0.415,0.499-0.556,0.816c-0.14,0.316-0.223,0.661-0.25,1.031H221.11z"/>
	<path clip-path="url(#SVGID_2_)" fill="#3A1F22" d="M138.934,115.963c-0.515,0-0.989-0.097-1.421-0.292
		c-0.435-0.194-0.809-0.462-1.126-0.802c-0.315-0.339-0.563-0.73-0.736-1.175c-0.177-0.443-0.265-0.919-0.265-1.427
		c0-0.499,0.088-0.966,0.265-1.406c0.174-0.439,0.421-0.824,0.736-1.154c0.317-0.331,0.689-0.594,1.119-0.789
		c0.428-0.194,0.899-0.291,1.415-0.291c0.514,0,0.985,0.097,1.413,0.291c0.43,0.195,0.798,0.46,1.104,0.796
		c0.307,0.335,0.547,0.72,0.719,1.154c0.172,0.436,0.257,0.896,0.257,1.387c0,0.071-0.004,0.145-0.008,0.216
		c-0.002,0.073-0.011,0.123-0.02,0.15h-6.026c0.026,0.381,0.116,0.731,0.264,1.053c0.15,0.322,0.34,0.601,0.569,0.836
		c0.229,0.236,0.496,0.418,0.798,0.55c0.304,0.132,0.626,0.197,0.97,0.197c0.233,0,0.465-0.031,0.689-0.096
		c0.227-0.063,0.435-0.149,0.624-0.258c0.189-0.107,0.359-0.241,0.507-0.401c0.15-0.157,0.265-0.332,0.347-0.522l0.8,0.218
		c-0.11,0.262-0.264,0.501-0.463,0.713c-0.196,0.214-0.428,0.398-0.689,0.558c-0.263,0.158-0.552,0.281-0.867,0.367
		C139.593,115.92,139.268,115.963,138.934,115.963 M141.533,111.915c-0.026-0.382-0.114-0.728-0.263-1.041
		c-0.149-0.312-0.339-0.581-0.568-0.808c-0.231-0.226-0.5-0.402-0.807-0.53c-0.309-0.127-0.633-0.189-0.975-0.189
		c-0.344,0-0.67,0.063-0.977,0.189c-0.306,0.128-0.575,0.305-0.807,0.53c-0.229,0.227-0.414,0.498-0.554,0.815
		c-0.141,0.316-0.224,0.662-0.251,1.033H141.533z"/>
	<path clip-path="url(#SVGID_2_)" fill="#3A1F22" d="M154.291,115.827h-0.921v-3.953c0-0.825-0.128-1.432-0.386-1.821
		c-0.258-0.389-0.648-0.584-1.172-0.584c-0.271,0-0.525,0.05-0.766,0.149c-0.238,0.1-0.46,0.24-0.664,0.422
		c-0.202,0.181-0.381,0.396-0.534,0.645c-0.153,0.25-0.271,0.523-0.352,0.822v4.32h-0.921v-3.953c0-0.843-0.126-1.454-0.38-1.834
		c-0.253-0.381-0.642-0.571-1.163-0.571c-0.534,0-1.008,0.187-1.423,0.557c-0.417,0.371-0.714,0.861-0.895,1.469v4.333h-0.921
		v-7.079h0.84v1.604c0.288-0.543,0.668-0.967,1.137-1.271c0.47-0.303,0.99-0.454,1.559-0.454c0.596,0,1.073,0.167,1.436,0.502
		c0.361,0.336,0.577,0.774,0.649,1.317c0.659-1.213,1.572-1.819,2.736-1.819c0.388,0,0.721,0.071,0.996,0.216
		c0.273,0.146,0.496,0.353,0.663,0.62c0.167,0.266,0.289,0.588,0.366,0.964c0.076,0.376,0.114,0.795,0.114,1.257V115.827z"/>
	<path clip-path="url(#SVGID_2_)" fill="#3A1F22" d="M158.069,115.963c-0.361,0-0.691-0.057-0.99-0.169
		c-0.297-0.114-0.552-0.27-0.765-0.469c-0.211-0.199-0.377-0.431-0.493-0.693c-0.117-0.262-0.177-0.538-0.177-0.828
		c0-0.326,0.073-0.624,0.217-0.891c0.145-0.268,0.348-0.496,0.61-0.687c0.262-0.19,0.575-0.337,0.94-0.441
		c0.366-0.104,0.769-0.155,1.213-0.155c0.352,0,0.712,0.031,1.082,0.095s0.701,0.154,0.989,0.271v-0.639
		c0-0.624-0.178-1.121-0.535-1.488c-0.357-0.366-0.838-0.55-1.441-0.55c-0.379,0-0.756,0.072-1.131,0.217
		c-0.375,0.146-0.756,0.354-1.146,0.625l-0.324-0.61c0.461-0.309,0.908-0.539,1.342-0.693c0.433-0.153,0.885-0.23,1.354-0.23
		c0.857,0,1.538,0.248,2.044,0.747c0.506,0.498,0.759,1.187,0.759,2.065v3.192c0,0.254,0.109,0.38,0.325,0.38v0.816
		c-0.073,0.009-0.142,0.016-0.203,0.02c-0.063,0.005-0.117,0.007-0.163,0.007c-0.181,0-0.345-0.054-0.494-0.162
		c-0.149-0.109-0.232-0.272-0.251-0.49l-0.026-0.556c-0.307,0.415-0.711,0.739-1.214,0.971
		C159.092,115.848,158.583,115.963,158.069,115.963 M158.299,115.257c0.407,0,0.811-0.088,1.212-0.265
		c0.402-0.177,0.721-0.419,0.954-0.728c0.064-0.081,0.118-0.169,0.163-0.265c0.045-0.095,0.068-0.184,0.068-0.265v-1.154
		c-0.307-0.119-0.628-0.209-0.963-0.272c-0.333-0.063-0.659-0.095-0.975-0.095c-0.658,0-1.193,0.134-1.604,0.4
		c-0.41,0.268-0.616,0.637-0.616,1.107c0,0.19,0.037,0.376,0.109,0.558c0.071,0.181,0.183,0.344,0.331,0.488
		c0.149,0.146,0.332,0.264,0.549,0.354C157.744,115.212,158.001,115.257,158.299,115.257"/>
	<path clip-path="url(#SVGID_2_)" fill="#3A1F22" d="M163.622,105.91h0.919v1.358h-0.919V105.91z M163.622,108.749h0.919v7.079
		h-0.919V108.749z"/>
	<path clip-path="url(#SVGID_2_)" fill="#3A1F22" d="M166.56,105.91h0.922v8.314c0,0.263,0.071,0.469,0.216,0.618
		s0.349,0.225,0.609,0.225c0.1,0,0.217-0.015,0.352-0.041c0.136-0.027,0.263-0.064,0.379-0.109l0.163,0.747
		c-0.172,0.073-0.381,0.132-0.63,0.178c-0.248,0.045-0.462,0.068-0.643,0.068c-0.425,0-0.759-0.121-1.002-0.36
		c-0.244-0.24-0.366-0.577-0.366-1.013V105.91z"/>
	<path clip-path="url(#SVGID_2_)" fill="#3A1F22" d="M175.051,115.963c-0.361,0-0.69-0.057-0.988-0.169
		c-0.298-0.114-0.553-0.27-0.766-0.469s-0.377-0.431-0.494-0.693c-0.117-0.262-0.177-0.538-0.177-0.828
		c0-0.326,0.072-0.624,0.218-0.891c0.144-0.268,0.347-0.496,0.608-0.687c0.263-0.19,0.576-0.337,0.941-0.441
		c0.366-0.104,0.771-0.155,1.213-0.155c0.353,0,0.713,0.031,1.083,0.095s0.7,0.154,0.988,0.271v-0.639
		c0-0.624-0.178-1.121-0.534-1.488c-0.357-0.366-0.838-0.55-1.442-0.55c-0.38,0-0.757,0.072-1.131,0.217
		c-0.375,0.146-0.756,0.354-1.145,0.625l-0.325-0.61c0.46-0.309,0.907-0.539,1.342-0.693c0.432-0.153,0.884-0.23,1.354-0.23
		c0.857,0,1.538,0.248,2.045,0.747c0.505,0.498,0.759,1.187,0.759,2.065v3.192c0,0.254,0.107,0.38,0.324,0.38v0.816
		c-0.072,0.009-0.14,0.016-0.203,0.02c-0.063,0.005-0.117,0.007-0.162,0.007c-0.181,0-0.345-0.054-0.495-0.162
		c-0.148-0.109-0.231-0.272-0.25-0.49l-0.027-0.556c-0.307,0.415-0.71,0.739-1.211,0.971
		C176.073,115.848,175.565,115.963,175.051,115.963 M175.281,115.257c0.406,0,0.81-0.088,1.212-0.265s0.72-0.419,0.954-0.728
		c0.063-0.081,0.118-0.169,0.162-0.265c0.047-0.095,0.068-0.184,0.068-0.265v-1.154c-0.306-0.119-0.628-0.209-0.961-0.272
		c-0.335-0.063-0.659-0.095-0.976-0.095c-0.658,0-1.193,0.134-1.604,0.4c-0.411,0.268-0.616,0.637-0.616,1.107
		c0,0.19,0.036,0.376,0.108,0.558c0.072,0.181,0.183,0.344,0.332,0.488c0.148,0.146,0.331,0.264,0.548,0.354
		C174.727,115.212,174.983,115.257,175.281,115.257"/>
	<path clip-path="url(#SVGID_2_)" fill="#3A1F22" d="M183.528,115.963c-0.487,0-0.939-0.102-1.354-0.305
		c-0.417-0.205-0.775-0.474-1.078-0.809c-0.302-0.335-0.536-0.724-0.703-1.162c-0.167-0.439-0.251-0.899-0.251-1.379
		c0-0.499,0.081-0.972,0.244-1.42c0.162-0.449,0.386-0.84,0.67-1.175c0.285-0.336,0.623-0.601,1.017-0.796
		c0.393-0.194,0.822-0.291,1.293-0.291c0.596,0,1.123,0.155,1.584,0.469c0.46,0.312,0.826,0.689,1.098,1.134v-4.321h0.921v8.724
		c0,0.253,0.108,0.38,0.324,0.38v0.815c-0.153,0.027-0.275,0.041-0.366,0.041c-0.225,0-0.41-0.065-0.556-0.197
		c-0.143-0.131-0.216-0.287-0.216-0.469v-0.747c-0.288,0.462-0.67,0.829-1.144,1.102
		C184.537,115.827,184.043,115.963,183.528,115.963 M183.718,115.148c0.234,0,0.48-0.046,0.738-0.137
		c0.258-0.09,0.496-0.214,0.718-0.373c0.222-0.158,0.413-0.344,0.576-0.558c0.162-0.212,0.261-0.441,0.298-0.686v-2.188
		c-0.091-0.244-0.224-0.473-0.399-0.686s-0.375-0.401-0.598-0.563c-0.22-0.164-0.455-0.29-0.703-0.381
		c-0.249-0.091-0.494-0.136-0.738-0.136c-0.379,0-0.725,0.082-1.036,0.244c-0.311,0.164-0.575,0.379-0.792,0.646
		s-0.386,0.572-0.508,0.916c-0.121,0.345-0.184,0.698-0.184,1.061c0,0.381,0.068,0.743,0.203,1.087
		c0.137,0.344,0.322,0.645,0.556,0.903c0.235,0.258,0.514,0.465,0.833,0.618C183.002,115.07,183.348,115.148,183.718,115.148"/>
	<path clip-path="url(#SVGID_2_)" fill="#3A1F22" d="M191.966,115.963c-0.487,0-0.939-0.102-1.354-0.305
		c-0.415-0.205-0.774-0.474-1.077-0.809c-0.302-0.335-0.537-0.724-0.704-1.162c-0.166-0.439-0.25-0.899-0.25-1.379
		c0-0.499,0.082-0.972,0.243-1.42c0.162-0.449,0.386-0.84,0.671-1.175c0.284-0.336,0.622-0.601,1.016-0.796
		c0.393-0.194,0.822-0.291,1.293-0.291c0.597,0,1.124,0.155,1.585,0.469c0.461,0.312,0.826,0.689,1.098,1.134v-4.321h0.92v8.724
		c0,0.253,0.108,0.38,0.325,0.38v0.815c-0.154,0.027-0.275,0.041-0.365,0.041c-0.227,0-0.413-0.065-0.556-0.197
		c-0.145-0.131-0.216-0.287-0.216-0.469v-0.747c-0.289,0.462-0.671,0.829-1.146,1.102
		C192.975,115.827,192.479,115.963,191.966,115.963 M192.155,115.148c0.233,0,0.48-0.046,0.738-0.137
		c0.257-0.09,0.496-0.214,0.717-0.373c0.223-0.158,0.414-0.344,0.576-0.558c0.162-0.212,0.262-0.441,0.299-0.686v-2.188
		c-0.091-0.244-0.225-0.473-0.4-0.686s-0.374-0.401-0.596-0.563c-0.221-0.164-0.457-0.29-0.704-0.381
		c-0.248-0.091-0.495-0.136-0.737-0.136c-0.38,0-0.726,0.082-1.036,0.244c-0.313,0.164-0.577,0.379-0.794,0.646
		c-0.216,0.268-0.386,0.572-0.507,0.916c-0.122,0.345-0.183,0.698-0.183,1.061c0,0.381,0.068,0.743,0.202,1.087
		c0.136,0.344,0.321,0.645,0.556,0.903c0.234,0.258,0.513,0.465,0.833,0.618S191.785,115.148,192.155,115.148"/>
	<path clip-path="url(#SVGID_2_)" fill="#3A1F22" d="M200.999,109.563c-0.624,0.019-1.166,0.19-1.626,0.516
		c-0.461,0.326-0.786,0.775-0.976,1.346v4.402h-0.921v-7.079h0.867v1.698c0.243-0.497,0.564-0.912,0.962-1.242
		c0.397-0.331,0.826-0.497,1.286-0.497h0.23c0.071,0,0.13,0.006,0.177,0.015V109.563z"/>
	<path clip-path="url(#SVGID_2_)" fill="#3A1F22" d="M205.318,115.963c-0.516,0-0.989-0.097-1.422-0.292
		c-0.434-0.194-0.809-0.462-1.124-0.802c-0.316-0.339-0.563-0.73-0.737-1.175c-0.177-0.443-0.265-0.919-0.265-1.427
		c0-0.499,0.088-0.966,0.265-1.406c0.175-0.439,0.421-0.824,0.737-1.154c0.315-0.331,0.688-0.594,1.117-0.789
		c0.429-0.194,0.9-0.291,1.415-0.291s0.986,0.097,1.414,0.291c0.43,0.195,0.798,0.46,1.104,0.796
		c0.306,0.335,0.547,0.72,0.719,1.154c0.172,0.436,0.257,0.896,0.257,1.387c0,0.071-0.003,0.145-0.007,0.216
		c-0.005,0.073-0.013,0.123-0.021,0.15h-6.026c0.028,0.381,0.116,0.731,0.265,1.053c0.15,0.322,0.34,0.601,0.569,0.836
		c0.229,0.236,0.495,0.418,0.799,0.55c0.303,0.132,0.625,0.197,0.969,0.197c0.233,0,0.465-0.031,0.689-0.096
		c0.227-0.063,0.435-0.149,0.624-0.258c0.189-0.107,0.359-0.241,0.507-0.401c0.15-0.157,0.265-0.332,0.347-0.522l0.799,0.218
		c-0.109,0.262-0.263,0.501-0.461,0.713c-0.198,0.214-0.429,0.398-0.691,0.558c-0.262,0.158-0.551,0.281-0.866,0.367
		C205.977,115.92,205.652,115.963,205.318,115.963 M207.918,111.915c-0.026-0.382-0.115-0.728-0.264-1.041
		c-0.148-0.312-0.338-0.581-0.568-0.808c-0.23-0.226-0.499-0.402-0.806-0.53c-0.308-0.127-0.633-0.189-0.976-0.189
		s-0.669,0.063-0.976,0.189c-0.307,0.128-0.575,0.305-0.806,0.53c-0.23,0.227-0.415,0.498-0.556,0.815
		c-0.14,0.316-0.224,0.662-0.25,1.033H207.918z"/>
	<path clip-path="url(#SVGID_2_)" fill="#3A1F22" d="M212.55,115.963c-0.551,0-1.088-0.09-1.612-0.271
		c-0.522-0.182-0.975-0.444-1.354-0.789l0.42-0.624c0.396,0.326,0.802,0.57,1.211,0.732c0.411,0.164,0.852,0.245,1.32,0.245
		c0.569,0,1.023-0.115,1.362-0.347c0.339-0.23,0.508-0.56,0.508-0.985c0-0.198-0.046-0.363-0.135-0.495
		c-0.091-0.132-0.225-0.246-0.4-0.347c-0.175-0.1-0.397-0.188-0.663-0.265c-0.267-0.077-0.576-0.157-0.928-0.237
		c-0.407-0.1-0.759-0.199-1.058-0.3c-0.297-0.1-0.543-0.213-0.737-0.34c-0.195-0.126-0.338-0.283-0.433-0.469
		s-0.143-0.419-0.143-0.7c0-0.353,0.069-0.665,0.21-0.937c0.14-0.271,0.329-0.496,0.569-0.673c0.238-0.176,0.518-0.31,0.839-0.4
		c0.32-0.091,0.661-0.136,1.022-0.136c0.54,0,1.034,0.088,1.476,0.265c0.443,0.176,0.801,0.409,1.07,0.699l-0.446,0.544
		c-0.263-0.272-0.581-0.476-0.954-0.611c-0.376-0.136-0.767-0.204-1.173-0.204c-0.243,0-0.47,0.024-0.677,0.074
		s-0.391,0.13-0.549,0.238c-0.157,0.109-0.282,0.246-0.372,0.414c-0.092,0.168-0.135,0.365-0.135,0.592
		c0,0.19,0.03,0.344,0.095,0.461c0.062,0.118,0.166,0.221,0.311,0.307s0.327,0.162,0.549,0.231c0.221,0.067,0.489,0.138,0.806,0.21
		c0.451,0.108,0.849,0.218,1.191,0.326c0.344,0.108,0.631,0.235,0.859,0.38c0.231,0.146,0.405,0.322,0.522,0.53
		c0.117,0.209,0.177,0.462,0.177,0.762c0,0.651-0.249,1.167-0.745,1.548C214.058,115.772,213.39,115.963,212.55,115.963"/>
	<path clip-path="url(#SVGID_2_)" fill="#3A1F22" d="M219.145,115.963c-0.551,0-1.087-0.09-1.612-0.271
		c-0.522-0.182-0.974-0.444-1.353-0.789l0.42-0.624c0.396,0.326,0.801,0.57,1.211,0.732c0.411,0.164,0.851,0.245,1.32,0.245
		c0.568,0,1.022-0.115,1.362-0.347c0.338-0.23,0.507-0.56,0.507-0.985c0-0.198-0.044-0.363-0.135-0.495
		c-0.09-0.132-0.225-0.246-0.4-0.347c-0.175-0.1-0.397-0.188-0.663-0.265c-0.267-0.077-0.576-0.157-0.928-0.237
		c-0.407-0.1-0.759-0.199-1.057-0.3c-0.298-0.1-0.544-0.213-0.737-0.34c-0.195-0.126-0.339-0.283-0.434-0.469
		s-0.143-0.419-0.143-0.7c0-0.353,0.07-0.665,0.21-0.937s0.329-0.496,0.569-0.673c0.239-0.176,0.519-0.31,0.839-0.4
		c0.321-0.091,0.661-0.136,1.022-0.136c0.542,0,1.034,0.088,1.477,0.265c0.442,0.176,0.8,0.409,1.069,0.699l-0.446,0.544
		c-0.262-0.272-0.58-0.476-0.954-0.611c-0.376-0.136-0.766-0.204-1.173-0.204c-0.243,0-0.469,0.024-0.677,0.074
		c-0.207,0.05-0.39,0.13-0.549,0.238c-0.157,0.109-0.282,0.246-0.372,0.414c-0.091,0.168-0.135,0.365-0.135,0.592
		c0,0.19,0.031,0.344,0.095,0.461c0.062,0.118,0.167,0.221,0.311,0.307c0.145,0.086,0.328,0.162,0.55,0.231
		c0.22,0.067,0.489,0.138,0.805,0.21c0.451,0.108,0.849,0.218,1.191,0.326c0.345,0.108,0.631,0.235,0.86,0.38
		c0.231,0.146,0.404,0.322,0.522,0.53c0.116,0.209,0.177,0.462,0.177,0.762c0,0.651-0.25,1.167-0.746,1.548
		C220.652,115.772,219.984,115.963,219.145,115.963"/>
</g>
</svg>
