<?xml version="1.0" encoding="utf-8"?>
<!-- Generator: Adobe Illustrator 15.0.2, SVG Export Plug-In . SVG Version: 6.00 Build 0)  -->
<!DOCTYPE svg PUBLIC "-//W3C//DTD SVG 1.1//EN" "http://www.w3.org/Graphics/SVG/1.1/DTD/svg11.dtd">
<svg version="1.1" id="Layer_1" xmlns="http://www.w3.org/2000/svg" xmlns:xlink="http://www.w3.org/1999/xlink" x="0px" y="0px"
	 width="255px" height="123px" viewBox="0 0 255 123" enable-background="new 0 0 255 123" xml:space="preserve">
<path fill="#458A94" d="M245.19,0H9.807C4.391,0,0,4.405,0,9.84v76.063c2.547-0.759,5.243-1.172,8.036-1.172
	c15.567,0,28.183,12.658,28.183,28.274c0,3.52-0.646,6.886-1.819,9.995h92.129H245.19c5.419,0,9.81-4.405,9.81-9.841v-16.54V9.84
	C255,4.405,250.609,0,245.19,0"/>
<path fill="#D87250" d="M8.036,84.73c-2.793,0-5.489,0.413-8.036,1.172v27.257c0,5.436,4.39,9.842,9.807,9.842H34.4
	c1.173-3.11,1.819-6.477,1.819-9.996C36.219,97.389,23.602,84.73,8.036,84.73"/>
<path fill="#D87250" d="M180.341,70.57c0,15.616-12.616,28.276-28.182,28.276c-15.563,0-28.183-12.66-28.183-28.276
	s12.62-28.275,28.183-28.275C167.725,42.295,180.341,54.954,180.341,70.57"/>
<path fill="#D87250" d="M242.797,74.218c0,23.677-19.132,42.87-42.729,42.87c-23.599,0-42.728-19.193-42.728-42.87
	c0-23.676,19.129-42.869,42.728-42.869C223.665,31.349,242.797,50.542,242.797,74.218"/>
<path fill="#391E22" d="M9.002,24.951c0.373,0.255,0.853,0.477,1.438,0.664c0.585,0.188,1.243,0.28,1.972,0.28
	c0.917,0,1.651-0.166,2.202-0.498c0.551-0.332,0.971-0.82,1.26-1.467c0.288-0.647,0.475-1.443,0.56-2.388
	c0.085-0.945,0.127-2.022,0.127-3.231V9.119h1.782v9.192c0,1.379-0.064,2.635-0.191,3.767c-0.128,1.133-0.395,2.099-0.802,2.898
	c-0.407,0.801-1.001,1.422-1.782,1.865c-0.78,0.442-1.832,0.664-3.156,0.664c-1.527,0-2.833-0.375-3.919-1.124L9.002,24.951z"/>
<path fill="#391E22" d="M27.76,27.479c-0.967,0-1.854-0.183-2.66-0.549c-0.806-0.365-1.501-0.863-2.087-1.493
	c-0.585-0.63-1.039-1.363-1.361-2.197c-0.323-0.833-0.484-1.71-0.484-2.629c0-0.937,0.166-1.822,0.496-2.657
	c0.331-0.834,0.789-1.565,1.375-2.196c0.585-0.629,1.281-1.132,2.087-1.506c0.805-0.374,1.684-0.562,2.634-0.562
	c0.95,0,1.828,0.188,2.634,0.562c0.806,0.374,1.502,0.877,2.087,1.506c0.586,0.631,1.044,1.362,1.375,2.196
	c0.331,0.835,0.496,1.72,0.496,2.657c0,0.919-0.165,1.796-0.496,2.629c-0.331,0.834-0.789,1.567-1.375,2.197
	c-0.585,0.63-1.281,1.128-2.087,1.493C29.588,27.296,28.709,27.479,27.76,27.479 M22.95,20.636c0,0.749,0.123,1.442,0.369,2.081
	c0.246,0.639,0.585,1.2,1.018,1.686c0.433,0.484,0.942,0.864,1.527,1.135c0.586,0.273,1.209,0.41,1.871,0.41
	c0.661,0,1.285-0.141,1.87-0.422c0.586-0.281,1.099-0.664,1.54-1.15c0.441-0.484,0.789-1.051,1.044-1.697
	c0.254-0.647,0.382-1.345,0.382-2.095c0-0.731-0.128-1.425-0.382-2.081c-0.255-0.654-0.603-1.225-1.044-1.711
	c-0.441-0.484-0.95-0.868-1.527-1.148c-0.577-0.281-1.196-0.422-1.858-0.422s-1.285,0.141-1.871,0.422
	c-0.585,0.28-1.094,0.668-1.526,1.162c-0.434,0.493-0.777,1.068-1.032,1.724C23.077,19.185,22.95,19.887,22.95,20.636"/>
<path fill="#391E22" d="M48.324,27.224h-1.731v-7.431c0-1.514-0.259-2.647-0.776-3.396c-0.518-0.749-1.277-1.123-2.278-1.123
	c-0.492,0-0.98,0.097-1.464,0.293c-0.483,0.196-0.937,0.465-1.361,0.804c-0.425,0.341-0.793,0.741-1.107,1.201
	c-0.314,0.46-0.548,0.962-0.7,1.506v8.146h-1.731V8.583h1.731v8.35c0.542-1.004,1.281-1.796,2.214-2.374
	c0.933-0.579,1.934-0.869,3.003-0.869c0.764,0,1.413,0.14,1.948,0.422c0.534,0.281,0.966,0.673,1.297,1.174
	c0.331,0.502,0.573,1.107,0.726,1.813c0.152,0.707,0.229,1.485,0.229,2.337V27.224z"/>
<path fill="#391E22" d="M63.061,27.224H61.33v-7.431c0-1.583-0.229-2.732-0.687-3.447c-0.458-0.715-1.171-1.072-2.138-1.072
	c-0.509,0-1.018,0.094-1.527,0.28c-0.509,0.188-0.984,0.451-1.425,0.792c-0.442,0.341-0.827,0.745-1.159,1.213
	c-0.33,0.469-0.581,0.975-0.75,1.519v8.146h-1.731V13.919h1.578v3.013c0.271-0.477,0.607-0.915,1.006-1.314
	c0.398-0.401,0.843-0.746,1.335-1.035c0.493-0.29,1.014-0.51,1.566-0.664c0.551-0.153,1.124-0.23,1.718-0.23
	c0.746,0,1.37,0.137,1.871,0.409c0.5,0.272,0.903,0.655,1.209,1.149c0.305,0.494,0.525,1.098,0.661,1.813
	c0.136,0.715,0.204,1.507,0.204,2.375V27.224z"/>
<path fill="#391E22" d="M73.598,27.224V9.094h6.108c1.442,0,2.706,0.238,3.792,0.715c1.086,0.476,1.99,1.123,2.711,1.94
	c0.721,0.818,1.26,1.776,1.616,2.873c0.357,1.098,0.535,2.269,0.535,3.511c0,1.379-0.204,2.626-0.611,3.741
	c-0.407,1.115-0.984,2.069-1.731,2.861c-0.747,0.791-1.654,1.404-2.723,1.837c-1.069,0.435-2.265,0.652-3.589,0.652H73.598z
	 M86.578,18.133c0-1.089-0.153-2.089-0.458-3c-0.306-0.91-0.751-1.698-1.336-2.362c-0.586-0.664-1.303-1.179-2.151-1.545
	c-0.849-0.365-1.824-0.549-2.927-0.549h-4.352v14.964h4.352c1.12,0,2.108-0.192,2.965-0.575c0.857-0.383,1.574-0.911,2.151-1.583
	c0.576-0.672,1.013-1.464,1.311-2.374C86.429,20.197,86.578,19.205,86.578,18.133"/>
<path fill="#391E22" d="M97.165,27.479c-0.967,0-1.854-0.183-2.66-0.549c-0.806-0.365-1.501-0.863-2.087-1.493
	c-0.585-0.63-1.039-1.363-1.361-2.197c-0.323-0.833-0.484-1.71-0.484-2.629c0-0.937,0.166-1.822,0.496-2.657
	c0.331-0.834,0.789-1.565,1.375-2.196c0.585-0.629,1.281-1.132,2.087-1.506c0.805-0.374,1.684-0.562,2.634-0.562
	s1.828,0.188,2.634,0.562c0.806,0.374,1.502,0.877,2.087,1.506c0.586,0.631,1.044,1.362,1.375,2.196
	c0.331,0.835,0.496,1.72,0.496,2.657c0,0.919-0.165,1.796-0.496,2.629c-0.331,0.834-0.789,1.567-1.375,2.197
	c-0.585,0.63-1.281,1.128-2.087,1.493C98.993,27.296,98.115,27.479,97.165,27.479 M92.355,20.636c0,0.749,0.123,1.442,0.369,2.081
	c0.246,0.639,0.585,1.2,1.018,1.686c0.433,0.484,0.942,0.864,1.527,1.135c0.586,0.273,1.209,0.41,1.871,0.41
	c0.661,0,1.285-0.141,1.87-0.422c0.586-0.281,1.099-0.664,1.54-1.15c0.441-0.484,0.789-1.051,1.044-1.697
	c0.254-0.647,0.382-1.345,0.382-2.095c0-0.731-0.128-1.425-0.382-2.081c-0.255-0.654-0.603-1.225-1.044-1.711
	c-0.441-0.484-0.95-0.868-1.527-1.148c-0.577-0.281-1.196-0.422-1.858-0.422s-1.285,0.141-1.871,0.422
	c-0.585,0.28-1.094,0.668-1.526,1.162c-0.434,0.493-0.777,1.068-1.032,1.724C92.482,19.185,92.355,19.887,92.355,20.636"/>
<path fill="#391E22" d="M112.384,27.478c-0.967,0-1.858-0.182-2.673-0.548c-0.814-0.366-1.518-0.869-2.112-1.506
	c-0.594-0.639-1.056-1.375-1.387-2.209c-0.331-0.834-0.496-1.728-0.496-2.682c0-0.935,0.165-1.816,0.496-2.643
	c0.331-0.825,0.793-1.548,1.387-2.17c0.594-0.622,1.294-1.115,2.1-1.481c0.805-0.366,1.693-0.55,2.659-0.55
	c0.968,0,1.854,0.184,2.66,0.55c0.806,0.366,1.498,0.864,2.075,1.493c0.576,0.63,1.026,1.354,1.348,2.171
	c0.323,0.818,0.484,1.686,0.484,2.605c0,0.136-0.004,0.272-0.012,0.408c-0.009,0.137-0.022,0.23-0.039,0.281h-11.326
	c0.051,0.715,0.217,1.375,0.496,1.98c0.281,0.603,0.637,1.128,1.07,1.57c0.432,0.442,0.932,0.787,1.501,1.034
	c0.569,0.247,1.175,0.37,1.82,0.37c0.441,0,0.874-0.059,1.298-0.178c0.424-0.12,0.814-0.282,1.171-0.486
	c0.356-0.204,0.674-0.455,0.954-0.753c0.28-0.298,0.496-0.626,0.649-0.983l1.502,0.408c-0.204,0.494-0.492,0.941-0.865,1.341
	c-0.374,0.4-0.807,0.749-1.298,1.047c-0.493,0.298-1.035,0.528-1.629,0.689C113.624,27.398,113.013,27.478,112.384,27.478
	 M117.271,19.869c-0.051-0.715-0.217-1.366-0.497-1.953c-0.279-0.587-0.636-1.094-1.068-1.52c-0.433-0.424-0.938-0.756-1.515-0.996
	c-0.577-0.237-1.188-0.357-1.833-0.357s-1.255,0.12-1.832,0.357c-0.577,0.24-1.082,0.572-1.514,0.996
	c-0.433,0.426-0.781,0.937-1.044,1.533c-0.263,0.595-0.42,1.243-0.47,1.94H117.271z"/>
<path fill="#CDA36E" d="M9.968,48.932c0-0.579,0.102-1.157,0.305-1.732c0.203-0.576,0.499-1.089,0.887-1.542
	c0.388-0.454,0.867-0.823,1.435-1.108c0.569-0.285,1.215-0.428,1.937-0.428c0.858,0,1.589,0.195,2.194,0.584
	c0.605,0.39,1.056,0.897,1.354,1.522l-0.758,0.462c-0.154-0.317-0.339-0.584-0.555-0.801c-0.217-0.218-0.452-0.395-0.705-0.53
	c-0.253-0.136-0.514-0.234-0.785-0.292c-0.271-0.059-0.538-0.089-0.799-0.089c-0.578,0-1.088,0.118-1.531,0.353
	c-0.442,0.236-0.814,0.544-1.117,0.924c-0.302,0.381-0.53,0.809-0.684,1.284c-0.153,0.476-0.23,0.958-0.23,1.448
	c0,0.534,0.093,1.046,0.278,1.535c0.185,0.489,0.438,0.922,0.758,1.298c0.321,0.376,0.7,0.675,1.138,0.896
	c0.438,0.222,0.914,0.333,1.429,0.333c0.27,0,0.548-0.034,0.832-0.101c0.285-0.069,0.56-0.177,0.826-0.327
	c0.267-0.149,0.513-0.335,0.739-0.557c0.225-0.222,0.415-0.491,0.569-0.809l0.785,0.408c-0.154,0.363-0.37,0.682-0.65,0.958
	c-0.28,0.277-0.591,0.509-0.935,0.7c-0.343,0.19-0.706,0.335-1.09,0.434c-0.384,0.1-0.76,0.15-1.13,0.15
	c-0.66,0-1.265-0.145-1.815-0.435c-0.551-0.289-1.025-0.668-1.422-1.135c-0.398-0.465-0.707-0.996-0.928-1.589
	S9.968,49.548,9.968,48.932"/>
<path fill="#CDA36E" d="M22.712,53.959c-0.515,0-0.987-0.098-1.415-0.292c-0.43-0.195-0.8-0.46-1.111-0.795
	s-0.553-0.725-0.724-1.168c-0.172-0.445-0.258-0.911-0.258-1.401c0-0.498,0.088-0.968,0.264-1.413
	c0.176-0.443,0.42-0.833,0.731-1.168c0.312-0.335,0.682-0.602,1.111-0.801c0.429-0.2,0.896-0.299,1.402-0.299
	c0.505,0,0.972,0.099,1.401,0.299c0.429,0.199,0.799,0.466,1.111,0.801c0.311,0.335,0.555,0.725,0.731,1.168
	c0.176,0.445,0.264,0.915,0.264,1.413c0,0.49-0.088,0.956-0.264,1.401c-0.176,0.443-0.42,0.833-0.731,1.168
	c-0.312,0.335-0.682,0.6-1.111,0.795C23.684,53.861,23.217,53.959,22.712,53.959 M20.152,50.317c0,0.399,0.065,0.768,0.196,1.107
	c0.131,0.34,0.312,0.639,0.542,0.898c0.23,0.258,0.501,0.459,0.813,0.604c0.311,0.145,0.643,0.217,0.995,0.217
	s0.684-0.074,0.996-0.223c0.311-0.15,0.584-0.354,0.819-0.612c0.235-0.259,0.42-0.559,0.555-0.904
	c0.136-0.344,0.203-0.715,0.203-1.113c0-0.39-0.067-0.759-0.203-1.108c-0.135-0.348-0.32-0.652-0.555-0.911
	c-0.235-0.258-0.506-0.462-0.813-0.611c-0.307-0.15-0.636-0.224-0.988-0.224s-0.684,0.074-0.996,0.224
	c-0.311,0.149-0.582,0.355-0.813,0.618c-0.23,0.263-0.412,0.569-0.548,0.917C20.22,49.546,20.152,49.919,20.152,50.317"/>
<path fill="#CDA36E" d="M38.218,53.823h-0.921v-3.954c0-0.824-0.129-1.431-0.386-1.82c-0.257-0.39-0.648-0.584-1.172-0.584
	c-0.271,0-0.525,0.049-0.765,0.149c-0.239,0.1-0.46,0.239-0.663,0.421c-0.203,0.182-0.382,0.396-0.535,0.645
	c-0.154,0.249-0.271,0.523-0.352,0.823v4.32h-0.921v-3.954c0-0.842-0.127-1.454-0.379-1.834c-0.253-0.381-0.641-0.57-1.165-0.57
	c-0.533,0-1.007,0.185-1.422,0.556c-0.415,0.371-0.714,0.861-0.894,1.468v4.334h-0.921v-7.079h0.84v1.603
	c0.289-0.544,0.668-0.966,1.137-1.27c0.47-0.304,0.989-0.455,1.558-0.455c0.596,0,1.074,0.168,1.436,0.503
	c0.36,0.335,0.577,0.774,0.65,1.317c0.658-1.214,1.57-1.82,2.735-1.82c0.388,0,0.72,0.072,0.995,0.218
	c0.276,0.144,0.497,0.35,0.664,0.618c0.167,0.266,0.289,0.589,0.366,0.964c0.076,0.376,0.115,0.795,0.115,1.256V53.823z"/>
<path fill="#CDA36E" d="M43.743,53.958c-0.595,0-1.124-0.151-1.584-0.455c-0.461-0.303-0.831-0.686-1.111-1.148v4.362h-0.92v-9.973
	h0.826v1.372c0.288-0.444,0.663-0.804,1.124-1.08c0.46-0.277,0.961-0.414,1.503-0.414c0.488,0,0.936,0.101,1.347,0.305
	s0.766,0.476,1.063,0.816c0.298,0.339,0.531,0.731,0.698,1.174c0.167,0.445,0.251,0.902,0.251,1.373
	c0,0.499-0.078,0.969-0.231,1.414c-0.153,0.443-0.372,0.833-0.657,1.168c-0.284,0.334-0.623,0.6-1.015,0.794
	C44.644,53.862,44.213,53.958,43.743,53.958 M43.486,53.144c0.379,0,0.722-0.081,1.029-0.244c0.307-0.163,0.571-0.378,0.793-0.646
	c0.22-0.266,0.39-0.57,0.508-0.91c0.117-0.34,0.175-0.69,0.175-1.053c0-0.38-0.067-0.743-0.203-1.087
	c-0.135-0.344-0.32-0.648-0.555-0.911c-0.235-0.262-0.513-0.47-0.833-0.625c-0.32-0.153-0.666-0.23-1.036-0.23
	c-0.235,0-0.479,0.047-0.731,0.143c-0.253,0.094-0.492,0.221-0.718,0.379c-0.226,0.16-0.418,0.345-0.575,0.558
	c-0.159,0.213-0.256,0.437-0.292,0.673v2.174c0.109,0.253,0.246,0.489,0.414,0.706c0.167,0.218,0.356,0.405,0.568,0.564
	c0.212,0.158,0.442,0.283,0.691,0.373C42.969,53.099,43.224,53.144,43.486,53.144"/>
<path fill="#CDA36E" d="M50.325,53.959c-0.362,0-0.691-0.057-0.989-0.17c-0.298-0.113-0.553-0.269-0.765-0.469
	c-0.212-0.199-0.377-0.429-0.495-0.692c-0.117-0.263-0.175-0.539-0.175-0.829c0-0.326,0.071-0.623,0.216-0.89
	c0.145-0.267,0.348-0.496,0.609-0.686c0.262-0.191,0.576-0.337,0.942-0.442c0.366-0.104,0.769-0.156,1.212-0.156
	c0.352,0,0.713,0.031,1.083,0.095c0.37,0.063,0.7,0.154,0.989,0.271v-0.638c0-0.625-0.178-1.121-0.535-1.488
	c-0.357-0.367-0.838-0.55-1.442-0.55c-0.379,0-0.756,0.073-1.131,0.217c-0.375,0.146-0.756,0.354-1.144,0.625l-0.326-0.611
	c0.461-0.308,0.908-0.539,1.341-0.693c0.434-0.154,0.885-0.231,1.355-0.231c0.857,0,1.539,0.249,2.045,0.747
	c0.505,0.498,0.758,1.187,0.758,2.066v3.193c0,0.253,0.108,0.38,0.325,0.38v0.815c-0.073,0.009-0.14,0.016-0.203,0.021
	c-0.064,0.004-0.118,0.007-0.163,0.007c-0.18,0-0.345-0.055-0.494-0.163c-0.149-0.109-0.233-0.272-0.251-0.49l-0.027-0.556
	c-0.307,0.416-0.711,0.74-1.212,0.97C51.347,53.844,50.839,53.959,50.325,53.959 M50.555,53.253c0.406,0,0.81-0.089,1.212-0.266
	c0.402-0.176,0.72-0.419,0.955-0.726c0.063-0.082,0.117-0.17,0.162-0.265c0.046-0.096,0.068-0.183,0.068-0.265v-1.155
	c-0.307-0.118-0.627-0.209-0.961-0.272c-0.335-0.063-0.66-0.095-0.976-0.095c-0.659,0-1.194,0.134-1.605,0.4
	c-0.411,0.268-0.616,0.637-0.616,1.108c0,0.19,0.036,0.376,0.109,0.557c0.072,0.182,0.182,0.344,0.331,0.49
	c0.15,0.144,0.332,0.262,0.549,0.353C50,53.207,50.257,53.253,50.555,53.253"/>
<path fill="#CDA36E" d="M61.809,53.823h-0.921v-3.954c0-0.842-0.122-1.454-0.366-1.834c-0.243-0.381-0.623-0.57-1.137-0.57
	c-0.271,0-0.542,0.049-0.813,0.149s-0.524,0.239-0.758,0.421c-0.235,0.182-0.441,0.396-0.616,0.645
	c-0.177,0.249-0.31,0.519-0.4,0.809v4.334h-0.921v-7.079h0.84v1.603c0.144-0.253,0.322-0.487,0.535-0.7
	c0.212-0.212,0.449-0.395,0.711-0.55c0.262-0.154,0.539-0.271,0.833-0.353c0.293-0.081,0.597-0.122,0.914-0.122
	c0.397,0,0.729,0.072,0.995,0.218c0.267,0.144,0.481,0.348,0.644,0.611c0.162,0.263,0.279,0.584,0.352,0.964
	c0.072,0.381,0.108,0.802,0.108,1.263V53.823z"/>
<path fill="#CDA36E" d="M63.989,56.011c0.045,0.009,0.09,0.016,0.135,0.021c0.045,0.003,0.091,0.006,0.136,0.006
	c0.09,0,0.187-0.008,0.291-0.027s0.178-0.036,0.223-0.055c0.046-0.017,0.093-0.056,0.143-0.115c0.049-0.059,0.113-0.163,0.189-0.312
	c0.077-0.15,0.174-0.358,0.291-0.625c0.117-0.268,0.266-0.627,0.447-1.081l-3.074-7.079h0.962l2.613,6.223l2.411-6.223h0.88
	l-3.67,9.131c-0.135,0.335-0.318,0.584-0.548,0.747c-0.231,0.163-0.554,0.245-0.969,0.245c-0.171,0-0.325-0.013-0.46-0.041V56.011z"
	/>
<path fill="#CDA36E" d="M10.59,68.916v-9.647h3.982c0.415,0,0.797,0.089,1.144,0.266c0.348,0.176,0.648,0.407,0.901,0.692
	c0.253,0.286,0.449,0.609,0.589,0.972c0.14,0.362,0.21,0.729,0.21,1.1c0,0.398-0.065,0.781-0.196,1.148
	c-0.132,0.367-0.319,0.69-0.562,0.972c-0.244,0.28-0.535,0.507-0.874,0.679c-0.339,0.173-0.716,0.259-1.131,0.259h-3.128v3.56H10.59
	z M11.525,64.514H14.6c0.28,0,0.535-0.062,0.765-0.184s0.427-0.285,0.589-0.489c0.163-0.203,0.289-0.438,0.38-0.706
	c0.09-0.267,0.135-0.546,0.135-0.836c0-0.299-0.052-0.582-0.156-0.848c-0.103-0.268-0.244-0.501-0.419-0.701
	c-0.177-0.199-0.384-0.355-0.623-0.468c-0.24-0.114-0.49-0.17-0.752-0.17h-2.993V64.514z"/>
<path fill="#CDA36E" d="M21.642,69.052c-0.515,0-0.987-0.098-1.415-0.292c-0.43-0.194-0.8-0.46-1.111-0.795
	c-0.311-0.335-0.553-0.725-0.724-1.168c-0.172-0.444-0.258-0.911-0.258-1.4c0-0.498,0.088-0.969,0.264-1.413
	c0.176-0.443,0.42-0.833,0.731-1.168c0.312-0.335,0.682-0.603,1.111-0.801c0.429-0.201,0.896-0.299,1.402-0.299
	c0.505,0,0.972,0.099,1.401,0.299c0.429,0.198,0.799,0.466,1.111,0.801c0.311,0.335,0.555,0.725,0.731,1.168
	c0.176,0.444,0.264,0.915,0.264,1.413c0,0.489-0.088,0.956-0.264,1.4c-0.176,0.443-0.42,0.833-0.731,1.168
	c-0.312,0.335-0.682,0.601-1.111,0.795S22.147,69.052,21.642,69.052 M19.082,65.41c0,0.399,0.065,0.768,0.196,1.107
	c0.131,0.34,0.312,0.639,0.542,0.897c0.23,0.258,0.501,0.459,0.813,0.604c0.311,0.145,0.643,0.217,0.995,0.217
	s0.684-0.074,0.996-0.223c0.311-0.15,0.584-0.354,0.819-0.612c0.235-0.259,0.42-0.56,0.555-0.904
	c0.136-0.344,0.203-0.715,0.203-1.113c0-0.39-0.067-0.759-0.203-1.107c-0.135-0.349-0.32-0.652-0.555-0.911
	c-0.235-0.258-0.506-0.462-0.813-0.611c-0.307-0.149-0.636-0.224-0.988-0.224s-0.684,0.074-0.996,0.224
	c-0.311,0.149-0.582,0.355-0.813,0.618c-0.23,0.263-0.412,0.569-0.548,0.917C19.15,64.64,19.082,65.012,19.082,65.41"/>
<path fill="#CDA36E" d="M29.009,69.052c-0.551,0-1.088-0.091-1.611-0.271c-0.524-0.183-0.975-0.444-1.355-0.789l0.42-0.625
	c0.398,0.326,0.801,0.57,1.212,0.733s0.851,0.245,1.321,0.245c0.569,0,1.022-0.116,1.361-0.347c0.338-0.231,0.507-0.56,0.507-0.985
	c0-0.199-0.045-0.364-0.135-0.496c-0.09-0.131-0.223-0.246-0.399-0.347c-0.176-0.098-0.398-0.188-0.664-0.265
	c-0.266-0.077-0.575-0.156-0.928-0.237c-0.406-0.1-0.758-0.199-1.056-0.299c-0.298-0.1-0.544-0.213-0.738-0.339
	c-0.194-0.128-0.339-0.284-0.434-0.47c-0.094-0.186-0.142-0.419-0.142-0.7c0-0.354,0.07-0.666,0.21-0.938
	c0.14-0.271,0.33-0.496,0.569-0.673c0.239-0.176,0.519-0.309,0.84-0.4c0.32-0.091,0.661-0.136,1.022-0.136
	c0.542,0,1.034,0.088,1.477,0.265c0.441,0.176,0.798,0.41,1.069,0.7l-0.447,0.543c-0.262-0.271-0.58-0.476-0.954-0.611
	c-0.375-0.136-0.766-0.204-1.172-0.204c-0.244,0-0.47,0.025-0.677,0.075c-0.208,0.05-0.391,0.129-0.548,0.237
	c-0.159,0.109-0.283,0.247-0.373,0.415s-0.135,0.364-0.135,0.591c0,0.19,0.031,0.345,0.094,0.462
	c0.063,0.118,0.167,0.22,0.312,0.306c0.144,0.086,0.327,0.163,0.548,0.231c0.222,0.067,0.49,0.139,0.806,0.21
	c0.452,0.109,0.849,0.218,1.192,0.326c0.343,0.109,0.63,0.236,0.86,0.381c0.23,0.145,0.404,0.321,0.521,0.529
	c0.117,0.209,0.177,0.463,0.177,0.762c0,0.651-0.249,1.168-0.746,1.549C30.517,68.861,29.849,69.052,29.009,69.052"/>
<path fill="#CDA36E" d="M33.234,58.997h0.921v1.359h-0.921V58.997z M33.234,61.837h0.921v7.079h-0.921V61.837z"/>
<path fill="#CDA36E" d="M39.545,68.576c-0.054,0.027-0.133,0.063-0.237,0.108c-0.104,0.046-0.223,0.091-0.359,0.137
	c-0.135,0.045-0.289,0.086-0.46,0.122c-0.172,0.036-0.352,0.054-0.542,0.054c-0.199,0-0.388-0.025-0.569-0.081
	c-0.181-0.055-0.338-0.138-0.474-0.251c-0.135-0.113-0.244-0.256-0.325-0.429c-0.081-0.172-0.122-0.371-0.122-0.597V62.57h-0.975
	v-0.733h0.975v-2.392h0.921v2.392h1.625v0.733h-1.625v4.811c0.018,0.263,0.108,0.455,0.271,0.577s0.356,0.184,0.583,0.184
	c0.261,0,0.491-0.043,0.69-0.128c0.199-0.087,0.325-0.148,0.379-0.185L39.545,68.576z"/>
<path fill="#CDA36E" d="M40.628,58.997h0.921v1.359h-0.921V58.997z M40.628,61.837h0.921v7.079h-0.921V61.837z"/>
<path fill="#CDA36E" d="M46.574,69.052c-0.515,0-0.987-0.098-1.415-0.292c-0.43-0.194-0.8-0.46-1.111-0.795
	s-0.553-0.725-0.724-1.168c-0.172-0.444-0.258-0.911-0.258-1.4c0-0.498,0.088-0.969,0.264-1.413c0.176-0.443,0.42-0.833,0.731-1.168
	c0.312-0.335,0.682-0.603,1.111-0.801c0.429-0.201,0.896-0.299,1.402-0.299c0.505,0,0.972,0.099,1.401,0.299
	c0.429,0.198,0.799,0.466,1.111,0.801c0.311,0.335,0.555,0.725,0.731,1.168c0.176,0.444,0.264,0.915,0.264,1.413
	c0,0.489-0.088,0.956-0.264,1.4c-0.176,0.443-0.42,0.833-0.731,1.168c-0.312,0.335-0.682,0.601-1.111,0.795
	C47.546,68.954,47.079,69.052,46.574,69.052 M44.014,65.41c0,0.399,0.065,0.768,0.196,1.107c0.131,0.34,0.312,0.639,0.542,0.897
	c0.23,0.258,0.501,0.459,0.813,0.604c0.311,0.145,0.643,0.217,0.995,0.217s0.684-0.074,0.996-0.223
	c0.311-0.15,0.584-0.354,0.819-0.612c0.235-0.259,0.42-0.56,0.555-0.904c0.136-0.344,0.203-0.715,0.203-1.113
	c0-0.39-0.067-0.759-0.203-1.107c-0.135-0.349-0.32-0.652-0.555-0.911c-0.235-0.258-0.506-0.462-0.813-0.611
	c-0.307-0.149-0.636-0.224-0.988-0.224s-0.684,0.074-0.996,0.224c-0.311,0.149-0.582,0.355-0.813,0.618
	c-0.23,0.263-0.412,0.569-0.548,0.917C44.082,64.64,44.014,65.012,44.014,65.41"/>
<path fill="#CDA36E" d="M57.516,68.916h-0.921v-3.954c0-0.842-0.122-1.454-0.366-1.834c-0.243-0.381-0.623-0.57-1.137-0.57
	c-0.271,0-0.542,0.05-0.813,0.149s-0.524,0.239-0.758,0.421c-0.235,0.182-0.441,0.396-0.616,0.646
	c-0.177,0.249-0.31,0.519-0.4,0.809v4.334h-0.921v-7.079h0.84v1.604c0.144-0.254,0.322-0.487,0.535-0.7
	c0.212-0.212,0.449-0.396,0.711-0.55c0.262-0.154,0.539-0.271,0.833-0.354c0.293-0.081,0.597-0.122,0.914-0.122
	c0.397,0,0.729,0.072,0.995,0.218c0.267,0.144,0.481,0.348,0.644,0.611c0.162,0.263,0.279,0.584,0.352,0.964
	c0.072,0.381,0.108,0.802,0.108,1.264V68.916z"/>
<path fill="#CDA36E" d="M9.575,84.012l4.022-9.647h0.772l4.022,9.647h-1.015l-1.246-3.017h-4.321l-1.232,3.017H9.575z M13.99,75.479
	l-1.978,4.77h3.901L13.99,75.479z"/>
<path fill="#CDA36E" d="M22.252,84.147c-0.488,0-0.94-0.102-1.355-0.306s-0.774-0.473-1.077-0.809
	c-0.302-0.335-0.537-0.723-0.704-1.161c-0.167-0.439-0.25-0.899-0.25-1.38c0-0.498,0.081-0.971,0.243-1.42
	c0.163-0.448,0.386-0.84,0.671-1.175c0.284-0.336,0.623-0.6,1.015-0.795c0.393-0.194,0.824-0.292,1.294-0.292
	c0.596,0,1.124,0.156,1.584,0.469c0.461,0.313,0.827,0.69,1.097,1.135v-4.321h0.921v8.724c0,0.253,0.108,0.38,0.325,0.38v0.815
	c-0.154,0.027-0.275,0.041-0.366,0.041c-0.225,0-0.41-0.065-0.555-0.197c-0.144-0.131-0.216-0.287-0.216-0.469V82.64
	c-0.29,0.462-0.671,0.828-1.145,1.101C23.26,84.012,22.766,84.147,22.252,84.147 M22.441,83.332c0.234,0,0.48-0.045,0.738-0.136
	c0.257-0.09,0.496-0.215,0.718-0.373c0.221-0.159,0.413-0.346,0.575-0.558c0.163-0.213,0.262-0.441,0.298-0.686v-2.188
	c-0.09-0.244-0.223-0.473-0.399-0.686c-0.176-0.213-0.375-0.401-0.596-0.564c-0.221-0.164-0.456-0.289-0.704-0.38
	c-0.249-0.091-0.495-0.136-0.738-0.136c-0.38,0-0.725,0.081-1.037,0.244c-0.311,0.163-0.575,0.379-0.792,0.646
	c-0.216,0.268-0.386,0.573-0.507,0.917c-0.122,0.345-0.183,0.698-0.183,1.06c0,0.381,0.067,0.743,0.203,1.088
	c0.135,0.344,0.32,0.645,0.555,0.903c0.235,0.258,0.513,0.464,0.833,0.618C21.725,83.256,22.07,83.332,22.441,83.332"/>
<path fill="#CDA36E" d="M30.688,84.147c-0.488,0-0.94-0.102-1.355-0.306s-0.774-0.473-1.077-0.809
	c-0.302-0.335-0.537-0.723-0.704-1.161c-0.167-0.439-0.25-0.899-0.25-1.38c0-0.498,0.081-0.971,0.243-1.42
	c0.163-0.448,0.386-0.84,0.671-1.175c0.284-0.336,0.623-0.6,1.015-0.795c0.393-0.194,0.824-0.292,1.294-0.292
	c0.596,0,1.124,0.156,1.584,0.469c0.461,0.313,0.827,0.69,1.097,1.135v-4.321h0.921v8.724c0,0.253,0.108,0.38,0.325,0.38v0.815
	c-0.154,0.027-0.275,0.041-0.366,0.041c-0.225,0-0.41-0.065-0.555-0.197c-0.144-0.131-0.216-0.287-0.216-0.469V82.64
	c-0.29,0.462-0.671,0.828-1.145,1.101C31.696,84.012,31.203,84.147,30.688,84.147 M30.877,83.332c0.234,0,0.48-0.045,0.738-0.136
	c0.257-0.09,0.496-0.215,0.718-0.373c0.221-0.159,0.413-0.346,0.575-0.558c0.163-0.213,0.262-0.441,0.298-0.686v-2.188
	c-0.09-0.244-0.223-0.473-0.399-0.686c-0.176-0.213-0.375-0.401-0.596-0.564c-0.221-0.164-0.456-0.289-0.704-0.38
	c-0.249-0.091-0.495-0.136-0.738-0.136c-0.38,0-0.725,0.081-1.037,0.244c-0.311,0.163-0.575,0.379-0.792,0.646
	c-0.216,0.268-0.386,0.573-0.507,0.917c-0.122,0.345-0.183,0.698-0.183,1.06c0,0.381,0.067,0.743,0.203,1.088
	c0.135,0.344,0.32,0.645,0.555,0.903c0.235,0.258,0.513,0.464,0.833,0.618C30.162,83.256,30.506,83.332,30.877,83.332"/>
<path fill="#CDA36E" d="M39.721,77.748c-0.623,0.019-1.165,0.19-1.625,0.517s-0.786,0.774-0.975,1.345v4.402H36.2v-7.079h0.867
	v1.698c0.243-0.498,0.564-0.912,0.961-1.243c0.397-0.33,0.826-0.496,1.287-0.496h0.23c0.072,0,0.131,0.005,0.176,0.014V77.748z"/>
<path fill="#CDA36E" d="M44.04,84.147c-0.514,0-0.988-0.098-1.421-0.292c-0.434-0.194-0.809-0.462-1.124-0.802
	c-0.316-0.34-0.562-0.731-0.738-1.175c-0.177-0.444-0.264-0.92-0.264-1.427c0-0.499,0.087-0.967,0.264-1.406
	c0.176-0.439,0.422-0.824,0.738-1.155c0.315-0.33,0.688-0.593,1.117-0.788c0.428-0.194,0.901-0.292,1.415-0.292
	c0.515,0,0.987,0.098,1.415,0.292c0.429,0.195,0.797,0.46,1.104,0.795c0.307,0.335,0.546,0.72,0.718,1.155
	c0.171,0.435,0.257,0.896,0.257,1.386c0,0.072-0.002,0.145-0.006,0.217c-0.005,0.073-0.012,0.123-0.021,0.149h-6.026
	c0.027,0.381,0.114,0.731,0.263,1.054c0.15,0.321,0.339,0.6,0.569,0.835c0.231,0.236,0.497,0.42,0.799,0.551
	c0.303,0.131,0.625,0.197,0.969,0.197c0.234,0,0.465-0.032,0.69-0.096c0.226-0.063,0.434-0.149,0.623-0.258
	c0.19-0.108,0.359-0.242,0.508-0.401c0.149-0.158,0.264-0.332,0.346-0.522l0.799,0.217c-0.109,0.264-0.263,0.501-0.461,0.714
	c-0.199,0.213-0.429,0.398-0.691,0.557c-0.262,0.159-0.551,0.281-0.866,0.367C44.7,84.104,44.374,84.147,44.04,84.147
	 M46.641,80.099c-0.027-0.381-0.115-0.727-0.264-1.039s-0.339-0.582-0.569-0.809s-0.499-0.403-0.806-0.53
	c-0.307-0.127-0.632-0.19-0.975-0.19c-0.343,0-0.668,0.063-0.975,0.19c-0.307,0.127-0.576,0.304-0.806,0.53
	s-0.415,0.498-0.555,0.815c-0.14,0.316-0.223,0.661-0.251,1.032H46.641z"/>
<path fill="#CDA36E" d="M51.272,84.147c-0.551,0-1.088-0.091-1.611-0.271c-0.524-0.183-0.975-0.444-1.355-0.789l0.42-0.625
	c0.398,0.326,0.801,0.57,1.212,0.733s0.851,0.245,1.321,0.245c0.569,0,1.022-0.116,1.361-0.347c0.338-0.231,0.507-0.56,0.507-0.985
	c0-0.199-0.045-0.364-0.135-0.496c-0.09-0.131-0.223-0.246-0.399-0.347c-0.176-0.098-0.398-0.188-0.664-0.265
	c-0.266-0.077-0.575-0.156-0.928-0.237c-0.406-0.1-0.758-0.199-1.056-0.299c-0.298-0.1-0.544-0.213-0.738-0.339
	c-0.194-0.128-0.339-0.284-0.434-0.47c-0.094-0.186-0.142-0.419-0.142-0.7c0-0.354,0.07-0.666,0.21-0.938
	c0.14-0.271,0.33-0.496,0.569-0.673c0.239-0.176,0.519-0.31,0.84-0.4c0.32-0.091,0.661-0.136,1.022-0.136
	c0.542,0,1.034,0.088,1.477,0.265c0.441,0.177,0.798,0.41,1.069,0.7l-0.447,0.543c-0.262-0.271-0.58-0.476-0.954-0.611
	c-0.375-0.136-0.766-0.204-1.172-0.204c-0.244,0-0.47,0.025-0.677,0.075c-0.208,0.05-0.391,0.129-0.548,0.237
	c-0.159,0.109-0.283,0.247-0.373,0.415s-0.135,0.364-0.135,0.591c0,0.19,0.031,0.345,0.094,0.462
	c0.063,0.118,0.167,0.22,0.312,0.306c0.144,0.086,0.327,0.163,0.548,0.231c0.222,0.067,0.49,0.139,0.806,0.21
	c0.452,0.109,0.849,0.218,1.192,0.326c0.343,0.109,0.63,0.236,0.86,0.381s0.404,0.321,0.521,0.529
	c0.117,0.209,0.177,0.463,0.177,0.762c0,0.651-0.249,1.168-0.746,1.549C52.78,83.957,52.112,84.147,51.272,84.147"/>
<path fill="#CDA36E" d="M57.868,84.147c-0.551,0-1.088-0.091-1.611-0.271c-0.524-0.183-0.975-0.444-1.355-0.789l0.42-0.625
	c0.398,0.326,0.801,0.57,1.212,0.733s0.851,0.245,1.321,0.245c0.569,0,1.022-0.116,1.361-0.347c0.338-0.231,0.507-0.56,0.507-0.985
	c0-0.199-0.045-0.364-0.135-0.496c-0.09-0.131-0.223-0.246-0.399-0.347c-0.176-0.098-0.398-0.188-0.664-0.265
	c-0.266-0.077-0.575-0.156-0.928-0.237c-0.406-0.1-0.758-0.199-1.056-0.299c-0.298-0.1-0.544-0.213-0.738-0.339
	c-0.194-0.128-0.339-0.284-0.434-0.47c-0.094-0.186-0.142-0.419-0.142-0.7c0-0.354,0.07-0.666,0.21-0.938
	c0.14-0.271,0.33-0.496,0.569-0.673c0.239-0.176,0.519-0.31,0.84-0.4c0.32-0.091,0.661-0.136,1.022-0.136
	c0.542,0,1.034,0.088,1.477,0.265c0.441,0.177,0.798,0.41,1.069,0.7l-0.447,0.543c-0.262-0.271-0.58-0.476-0.954-0.611
	c-0.375-0.136-0.766-0.204-1.172-0.204c-0.244,0-0.47,0.025-0.677,0.075c-0.208,0.05-0.391,0.129-0.548,0.237
	c-0.159,0.109-0.283,0.247-0.373,0.415s-0.135,0.364-0.135,0.591c0,0.19,0.031,0.345,0.094,0.462
	c0.063,0.118,0.167,0.22,0.312,0.306c0.144,0.086,0.327,0.163,0.548,0.231c0.222,0.067,0.49,0.139,0.806,0.21
	c0.452,0.109,0.849,0.218,1.192,0.326c0.343,0.109,0.63,0.236,0.86,0.381c0.23,0.145,0.404,0.321,0.521,0.529
	c0.117,0.209,0.177,0.463,0.177,0.762c0,0.651-0.249,1.168-0.746,1.549C59.375,83.957,58.708,84.147,57.868,84.147"/>
<path fill="#CDA36E" d="M9.575,99.178l4.022-9.647h0.772l4.022,9.647h-1.015l-1.246-3.017h-4.321l-1.232,3.017H9.575z M13.99,90.645
	l-1.978,4.77h3.901L13.99,90.645z"/>
<path fill="#CDA36E" d="M22.252,99.313c-0.488,0-0.94-0.102-1.355-0.306s-0.774-0.473-1.077-0.809
	c-0.302-0.335-0.537-0.723-0.704-1.161c-0.167-0.439-0.25-0.899-0.25-1.38c0-0.498,0.081-0.972,0.243-1.42
	c0.163-0.448,0.386-0.84,0.671-1.175c0.284-0.336,0.623-0.6,1.015-0.795c0.393-0.194,0.824-0.292,1.294-0.292
	c0.596,0,1.124,0.156,1.584,0.469c0.461,0.313,0.827,0.69,1.097,1.135v-4.321h0.921v8.724c0,0.253,0.108,0.38,0.325,0.38v0.815
	c-0.154,0.027-0.275,0.041-0.366,0.041c-0.225,0-0.41-0.065-0.555-0.197c-0.144-0.131-0.216-0.287-0.216-0.469v-0.747
	c-0.29,0.462-0.671,0.828-1.145,1.101C23.26,99.178,22.766,99.313,22.252,99.313 M22.441,98.498c0.234,0,0.48-0.045,0.738-0.136
	c0.257-0.09,0.496-0.215,0.718-0.373c0.221-0.159,0.413-0.346,0.575-0.558c0.163-0.213,0.262-0.441,0.298-0.686v-2.188
	c-0.09-0.244-0.223-0.473-0.399-0.686c-0.176-0.213-0.375-0.401-0.596-0.564c-0.221-0.164-0.456-0.289-0.704-0.38
	c-0.249-0.091-0.495-0.136-0.738-0.136c-0.38,0-0.725,0.081-1.037,0.244c-0.311,0.163-0.575,0.379-0.792,0.646
	c-0.216,0.268-0.386,0.573-0.507,0.917c-0.122,0.345-0.183,0.698-0.183,1.06c0,0.381,0.067,0.743,0.203,1.088
	c0.135,0.344,0.32,0.645,0.555,0.903c0.235,0.258,0.513,0.464,0.833,0.618C21.725,98.422,22.07,98.498,22.441,98.498"/>
<path fill="#CDA36E" d="M30.688,99.313c-0.488,0-0.94-0.102-1.355-0.306s-0.774-0.473-1.077-0.809
	c-0.302-0.335-0.537-0.723-0.704-1.161c-0.167-0.439-0.25-0.899-0.25-1.38c0-0.498,0.081-0.972,0.243-1.42
	c0.163-0.448,0.386-0.84,0.671-1.175c0.284-0.336,0.623-0.6,1.015-0.795c0.393-0.194,0.824-0.292,1.294-0.292
	c0.596,0,1.124,0.156,1.584,0.469c0.461,0.313,0.827,0.69,1.097,1.135v-4.321h0.921v8.724c0,0.253,0.108,0.38,0.325,0.38v0.815
	c-0.154,0.027-0.275,0.041-0.366,0.041c-0.225,0-0.41-0.065-0.555-0.197c-0.144-0.131-0.216-0.287-0.216-0.469v-0.747
	c-0.29,0.462-0.671,0.828-1.145,1.101C31.696,99.178,31.203,99.313,30.688,99.313 M30.877,98.498c0.234,0,0.48-0.045,0.738-0.136
	c0.257-0.09,0.496-0.215,0.718-0.373c0.221-0.159,0.413-0.346,0.575-0.558c0.163-0.213,0.262-0.441,0.298-0.686v-2.188
	c-0.09-0.244-0.223-0.473-0.399-0.686c-0.176-0.213-0.375-0.401-0.596-0.564c-0.221-0.164-0.456-0.289-0.704-0.38
	c-0.249-0.091-0.495-0.136-0.738-0.136c-0.38,0-0.725,0.081-1.037,0.244c-0.311,0.163-0.575,0.379-0.792,0.646
	c-0.216,0.268-0.386,0.573-0.507,0.917c-0.122,0.345-0.183,0.698-0.183,1.06c0,0.381,0.067,0.743,0.203,1.088
	c0.135,0.344,0.32,0.645,0.555,0.903c0.235,0.258,0.513,0.464,0.833,0.618C30.162,98.422,30.506,98.498,30.877,98.498"/>
<path fill="#CDA36E" d="M39.721,92.914c-0.623,0.019-1.165,0.19-1.625,0.517s-0.786,0.774-0.975,1.345v4.402H36.2v-7.079h0.867
	v1.698c0.243-0.498,0.564-0.912,0.961-1.243c0.397-0.33,0.826-0.496,1.287-0.496h0.23c0.072,0,0.131,0.005,0.176,0.014V92.914z"/>
<path fill="#CDA36E" d="M44.04,99.313c-0.514,0-0.988-0.098-1.421-0.292c-0.434-0.194-0.809-0.462-1.124-0.802
	c-0.316-0.34-0.562-0.731-0.738-1.175c-0.177-0.444-0.264-0.92-0.264-1.427c0-0.499,0.087-0.967,0.264-1.406
	c0.176-0.439,0.422-0.824,0.738-1.155c0.315-0.33,0.688-0.593,1.117-0.788c0.428-0.194,0.901-0.292,1.415-0.292
	c0.515,0,0.987,0.098,1.415,0.292c0.429,0.195,0.797,0.46,1.104,0.795c0.307,0.335,0.546,0.72,0.718,1.155
	c0.171,0.435,0.257,0.896,0.257,1.386c0,0.072-0.002,0.145-0.006,0.217c-0.005,0.073-0.012,0.123-0.021,0.149h-6.026
	c0.027,0.381,0.114,0.731,0.263,1.054c0.15,0.321,0.339,0.6,0.569,0.835c0.231,0.236,0.497,0.42,0.799,0.551
	c0.303,0.131,0.625,0.197,0.969,0.197c0.234,0,0.465-0.032,0.69-0.096c0.226-0.063,0.434-0.149,0.623-0.258
	c0.19-0.108,0.359-0.242,0.508-0.401c0.149-0.158,0.264-0.332,0.346-0.522l0.799,0.217c-0.109,0.264-0.263,0.501-0.461,0.714
	c-0.199,0.213-0.429,0.398-0.691,0.557c-0.262,0.159-0.551,0.281-0.866,0.367C44.7,99.271,44.374,99.313,44.04,99.313
	 M46.641,95.265c-0.027-0.381-0.115-0.727-0.264-1.039s-0.339-0.582-0.569-0.809s-0.499-0.403-0.806-0.53
	c-0.307-0.127-0.632-0.19-0.975-0.19c-0.343,0-0.668,0.063-0.975,0.19c-0.307,0.127-0.576,0.304-0.806,0.53
	s-0.415,0.498-0.555,0.815c-0.14,0.316-0.223,0.661-0.251,1.032H46.641z"/>
<path fill="#CDA36E" d="M51.272,99.313c-0.551,0-1.088-0.091-1.611-0.271c-0.524-0.183-0.975-0.444-1.355-0.789l0.42-0.625
	c0.398,0.326,0.801,0.57,1.212,0.733s0.851,0.245,1.321,0.245c0.569,0,1.022-0.116,1.361-0.347c0.338-0.231,0.507-0.56,0.507-0.985
	c0-0.199-0.045-0.364-0.135-0.496c-0.09-0.131-0.223-0.246-0.399-0.347c-0.176-0.098-0.398-0.188-0.664-0.265
	c-0.266-0.077-0.575-0.156-0.928-0.237c-0.406-0.1-0.758-0.199-1.056-0.299c-0.298-0.1-0.544-0.213-0.738-0.339
	c-0.194-0.128-0.339-0.284-0.434-0.47c-0.094-0.186-0.142-0.419-0.142-0.7c0-0.354,0.07-0.666,0.21-0.938
	c0.14-0.271,0.33-0.496,0.569-0.673c0.239-0.176,0.519-0.31,0.84-0.4c0.32-0.091,0.661-0.136,1.022-0.136
	c0.542,0,1.034,0.088,1.477,0.265c0.441,0.177,0.798,0.41,1.069,0.7l-0.447,0.543c-0.262-0.271-0.58-0.476-0.954-0.611
	c-0.375-0.136-0.766-0.204-1.172-0.204c-0.244,0-0.47,0.025-0.677,0.075c-0.208,0.05-0.391,0.129-0.548,0.237
	c-0.159,0.109-0.283,0.247-0.373,0.415s-0.135,0.364-0.135,0.591c0,0.19,0.031,0.345,0.094,0.462
	c0.063,0.118,0.167,0.22,0.312,0.306c0.144,0.086,0.327,0.163,0.548,0.231c0.222,0.067,0.49,0.138,0.806,0.21
	c0.452,0.109,0.849,0.218,1.192,0.326c0.343,0.109,0.63,0.236,0.86,0.381s0.404,0.321,0.521,0.529
	c0.117,0.209,0.177,0.463,0.177,0.762c0,0.651-0.249,1.168-0.746,1.549C52.78,99.123,52.112,99.313,51.272,99.313"/>
<path fill="#CDA36E" d="M57.868,99.313c-0.551,0-1.088-0.091-1.611-0.271c-0.524-0.183-0.975-0.444-1.355-0.789l0.42-0.625
	c0.398,0.326,0.801,0.57,1.212,0.733s0.851,0.245,1.321,0.245c0.569,0,1.022-0.116,1.361-0.347c0.338-0.231,0.507-0.56,0.507-0.985
	c0-0.199-0.045-0.364-0.135-0.496c-0.09-0.131-0.223-0.246-0.399-0.347c-0.176-0.098-0.398-0.188-0.664-0.265
	c-0.266-0.077-0.575-0.156-0.928-0.237c-0.406-0.1-0.758-0.199-1.056-0.299c-0.298-0.1-0.544-0.213-0.738-0.339
	c-0.194-0.128-0.339-0.284-0.434-0.47c-0.094-0.186-0.142-0.419-0.142-0.7c0-0.354,0.07-0.666,0.21-0.938
	c0.14-0.271,0.33-0.496,0.569-0.673c0.239-0.176,0.519-0.31,0.84-0.4c0.32-0.091,0.661-0.136,1.022-0.136
	c0.542,0,1.034,0.088,1.477,0.265c0.441,0.177,0.798,0.41,1.069,0.7l-0.447,0.543c-0.262-0.271-0.58-0.476-0.954-0.611
	c-0.375-0.136-0.766-0.204-1.172-0.204c-0.244,0-0.47,0.025-0.677,0.075c-0.208,0.05-0.391,0.129-0.548,0.237
	c-0.159,0.109-0.283,0.247-0.373,0.415s-0.135,0.364-0.135,0.591c0,0.19,0.031,0.345,0.094,0.462
	c0.063,0.118,0.167,0.22,0.312,0.306c0.144,0.086,0.327,0.163,0.548,0.231c0.222,0.067,0.49,0.138,0.806,0.21
	c0.452,0.109,0.849,0.218,1.192,0.326c0.343,0.109,0.63,0.236,0.86,0.381c0.23,0.145,0.404,0.321,0.521,0.529
	c0.117,0.209,0.177,0.463,0.177,0.762c0,0.651-0.249,1.168-0.746,1.549C59.375,99.123,58.708,99.313,57.868,99.313"/>
<path fill="#CDA36E" d="M10.59,114.483v-9.647h3.982c0.415,0,0.797,0.089,1.144,0.267c0.348,0.176,0.648,0.406,0.901,0.691
	c0.253,0.286,0.449,0.609,0.589,0.972c0.14,0.362,0.21,0.729,0.21,1.101c0,0.398-0.065,0.781-0.196,1.148
	c-0.132,0.367-0.319,0.69-0.562,0.972c-0.244,0.281-0.535,0.507-0.874,0.679c-0.339,0.173-0.716,0.259-1.131,0.259h-3.128v3.56
	H10.59z M11.525,110.081H14.6c0.28,0,0.535-0.062,0.765-0.184s0.427-0.285,0.589-0.489c0.163-0.203,0.289-0.438,0.38-0.706
	c0.09-0.267,0.135-0.546,0.135-0.836c0-0.299-0.052-0.582-0.156-0.848c-0.103-0.269-0.244-0.501-0.419-0.701
	c-0.177-0.199-0.384-0.355-0.623-0.469c-0.24-0.113-0.49-0.17-0.752-0.17h-2.993V110.081z"/>
<path fill="#CDA36E" d="M24.702,114.483h-0.921v-3.954c0-0.806-0.138-1.408-0.413-1.807s-0.68-0.598-1.212-0.598
	c-0.262,0-0.521,0.052-0.779,0.156c-0.257,0.104-0.499,0.246-0.724,0.428c-0.226,0.181-0.423,0.394-0.59,0.639
	c-0.167,0.244-0.291,0.512-0.372,0.802v4.334H18.77v-9.919h0.921v4.443c0.289-0.534,0.682-0.956,1.178-1.264
	c0.497-0.308,1.03-0.462,1.598-0.462c0.407,0,0.752,0.074,1.036,0.224c0.285,0.15,0.515,0.358,0.691,0.625
	c0.176,0.268,0.305,0.59,0.386,0.965c0.081,0.376,0.122,0.791,0.122,1.243V114.483z"/>
<path fill="#CDA36E" d="M29.659,114.619c-0.515,0-0.987-0.098-1.415-0.292c-0.43-0.194-0.8-0.46-1.111-0.795
	s-0.553-0.725-0.724-1.168c-0.172-0.444-0.258-0.911-0.258-1.4c0-0.498,0.088-0.969,0.264-1.413c0.176-0.443,0.42-0.833,0.731-1.168
	c0.312-0.335,0.682-0.603,1.111-0.802c0.429-0.199,0.896-0.299,1.402-0.299c0.505,0,0.972,0.1,1.401,0.299s0.799,0.467,1.111,0.802
	c0.311,0.335,0.555,0.725,0.731,1.168c0.176,0.444,0.264,0.915,0.264,1.413c0,0.489-0.088,0.956-0.264,1.4
	c-0.176,0.443-0.42,0.833-0.731,1.168c-0.312,0.335-0.682,0.601-1.111,0.795S30.164,114.619,29.659,114.619 M27.099,110.978
	c0,0.399,0.065,0.768,0.196,1.107c0.131,0.34,0.312,0.639,0.542,0.897c0.23,0.258,0.501,0.459,0.813,0.604
	c0.311,0.145,0.643,0.217,0.995,0.217s0.684-0.074,0.996-0.224c0.311-0.149,0.584-0.354,0.819-0.611
	c0.235-0.259,0.42-0.56,0.555-0.904c0.136-0.344,0.203-0.715,0.203-1.113c0-0.39-0.067-0.759-0.203-1.107
	c-0.135-0.349-0.32-0.652-0.555-0.911c-0.235-0.258-0.506-0.462-0.813-0.611c-0.307-0.149-0.636-0.224-0.988-0.224
	s-0.684,0.074-0.996,0.224c-0.311,0.149-0.582,0.355-0.813,0.618c-0.23,0.263-0.412,0.569-0.548,0.917
	C27.167,110.206,27.099,110.579,27.099,110.978"/>
<path fill="#CDA36E" d="M40.601,114.483H39.68v-3.954c0-0.842-0.122-1.454-0.366-1.834c-0.243-0.381-0.623-0.57-1.137-0.57
	c-0.271,0-0.542,0.05-0.813,0.149s-0.524,0.239-0.758,0.421c-0.235,0.182-0.441,0.396-0.616,0.646
	c-0.177,0.249-0.31,0.519-0.4,0.809v4.334h-0.921v-7.079h0.84v1.604c0.144-0.253,0.322-0.487,0.535-0.7
	c0.212-0.212,0.449-0.396,0.711-0.55c0.262-0.154,0.539-0.271,0.833-0.354c0.293-0.081,0.597-0.122,0.914-0.122
	c0.397,0,0.729,0.072,0.995,0.218c0.267,0.145,0.481,0.349,0.644,0.611c0.162,0.263,0.279,0.584,0.352,0.964
	c0.072,0.381,0.108,0.802,0.108,1.264V114.483z"/>
<path fill="#CDA36E" d="M45.598,114.619c-0.514,0-0.988-0.098-1.421-0.292c-0.434-0.194-0.809-0.462-1.124-0.802
	c-0.316-0.34-0.562-0.731-0.738-1.175c-0.177-0.444-0.264-0.92-0.264-1.427c0-0.498,0.087-0.967,0.264-1.406
	c0.176-0.439,0.422-0.824,0.738-1.155c0.315-0.33,0.688-0.593,1.117-0.788c0.428-0.194,0.901-0.292,1.415-0.292
	c0.515,0,0.987,0.098,1.415,0.292c0.429,0.195,0.797,0.46,1.104,0.795c0.307,0.335,0.546,0.72,0.718,1.155
	c0.171,0.435,0.257,0.896,0.257,1.386c0,0.072-0.002,0.145-0.006,0.217c-0.005,0.073-0.012,0.123-0.021,0.149h-6.026
	c0.027,0.381,0.114,0.731,0.263,1.054c0.15,0.321,0.339,0.6,0.569,0.835c0.231,0.236,0.497,0.42,0.799,0.551
	c0.303,0.131,0.625,0.197,0.969,0.197c0.234,0,0.465-0.032,0.69-0.096c0.226-0.063,0.434-0.149,0.623-0.258
	c0.19-0.108,0.359-0.242,0.508-0.401c0.149-0.158,0.264-0.332,0.346-0.522l0.799,0.217c-0.109,0.264-0.263,0.501-0.461,0.714
	c-0.199,0.213-0.429,0.398-0.691,0.557c-0.262,0.159-0.551,0.281-0.866,0.367C46.258,114.576,45.932,114.619,45.598,114.619
	 M48.199,110.57c-0.027-0.381-0.115-0.727-0.264-1.039s-0.339-0.582-0.569-0.809s-0.499-0.403-0.806-0.53
	c-0.307-0.127-0.632-0.19-0.975-0.19c-0.343,0-0.668,0.063-0.975,0.19c-0.307,0.127-0.576,0.304-0.806,0.53
	s-0.415,0.498-0.555,0.815c-0.14,0.316-0.223,0.661-0.251,1.032H48.199z"/>
<path fill="#CDA36E" d="M59.859,114.483h-0.921v-3.954c0-0.842-0.122-1.454-0.366-1.834c-0.243-0.381-0.623-0.57-1.137-0.57
	c-0.271,0-0.542,0.05-0.813,0.149s-0.524,0.239-0.758,0.421c-0.235,0.182-0.441,0.396-0.616,0.646
	c-0.177,0.249-0.31,0.519-0.4,0.809v4.334h-0.921v-7.079h0.84v1.604c0.144-0.253,0.322-0.487,0.535-0.7
	c0.212-0.212,0.449-0.396,0.711-0.55c0.262-0.154,0.539-0.271,0.833-0.354c0.293-0.081,0.597-0.122,0.914-0.122
	c0.397,0,0.729,0.072,0.995,0.218c0.267,0.145,0.481,0.349,0.644,0.611c0.162,0.263,0.279,0.584,0.352,0.964
	c0.072,0.381,0.108,0.802,0.108,1.264V114.483z"/>
<path fill="#CDA36E" d="M63.948,114.619c-0.74,0-1.3-0.256-1.679-0.768c-0.38-0.512-0.569-1.274-0.569-2.289v-4.158h0.921v3.995
	c0,1.603,0.546,2.404,1.639,2.404c0.271,0,0.537-0.045,0.798-0.136c0.263-0.09,0.504-0.222,0.725-0.394s0.42-0.376,0.596-0.611
	c0.176-0.235,0.318-0.503,0.426-0.802v-4.457h0.921v5.884c0,0.253,0.113,0.38,0.339,0.38v0.815c-0.18,0.027-0.307,0.041-0.379,0.041
	c-0.208,0-0.386-0.063-0.535-0.19c-0.149-0.127-0.224-0.285-0.224-0.476v-0.979c-0.316,0.552-0.735,0.98-1.259,1.284
	C65.144,114.468,64.571,114.619,63.948,114.619"/>
<path fill="#CDA36E" d="M80.308,114.483h-0.921v-3.954c0-0.824-0.129-1.431-0.386-1.82c-0.257-0.39-0.648-0.584-1.172-0.584
	c-0.271,0-0.525,0.05-0.765,0.149c-0.239,0.1-0.46,0.239-0.663,0.421c-0.203,0.182-0.382,0.396-0.535,0.646
	c-0.154,0.249-0.271,0.522-0.352,0.822v4.32h-0.921v-3.954c0-0.842-0.127-1.454-0.379-1.834c-0.253-0.381-0.641-0.57-1.165-0.57
	c-0.533,0-1.007,0.186-1.422,0.557s-0.714,0.86-0.894,1.468v4.334h-0.921v-7.079h0.84v1.604c0.289-0.544,0.668-0.967,1.137-1.271
	c0.47-0.304,0.989-0.455,1.558-0.455c0.596,0,1.074,0.168,1.436,0.503c0.36,0.335,0.577,0.774,0.65,1.317
	c0.658-1.214,1.57-1.82,2.735-1.82c0.388,0,0.72,0.072,0.995,0.218c0.276,0.145,0.497,0.351,0.664,0.618
	c0.167,0.267,0.289,0.589,0.366,0.964c0.076,0.376,0.115,0.795,0.115,1.257V114.483z"/>
<path fill="#CDA36E" d="M85.671,114.619c-0.551,0-1.061-0.141-1.53-0.421c-0.47-0.281-0.835-0.644-1.097-1.087v1.372h-0.826v-9.919
	h0.921v4.321c0.315-0.48,0.694-0.867,1.137-1.162c0.442-0.294,0.962-0.441,1.557-0.441c0.488,0,0.93,0.104,1.328,0.313
	c0.397,0.208,0.733,0.487,1.008,0.836c0.276,0.349,0.488,0.742,0.637,1.182s0.224,0.89,0.224,1.352c0,0.499-0.086,0.97-0.258,1.413
	c-0.172,0.444-0.408,0.832-0.711,1.162c-0.302,0.331-0.659,0.594-1.07,0.788S86.14,114.619,85.671,114.619 M85.454,113.804
	c0.388,0,0.743-0.079,1.063-0.237c0.321-0.159,0.596-0.371,0.827-0.639c0.23-0.268,0.41-0.57,0.541-0.91
	c0.131-0.34,0.196-0.69,0.196-1.054c0-0.371-0.061-0.729-0.182-1.073c-0.122-0.344-0.294-0.648-0.515-0.917
	c-0.221-0.267-0.485-0.479-0.792-0.639c-0.307-0.158-0.646-0.237-1.016-0.237c-0.28,0-0.541,0.047-0.786,0.143
	c-0.243,0.095-0.469,0.224-0.676,0.387c-0.208,0.163-0.395,0.352-0.562,0.564c-0.168,0.213-0.305,0.437-0.413,0.672v2.201
	c0.035,0.245,0.132,0.474,0.291,0.687c0.157,0.213,0.349,0.396,0.575,0.551c0.226,0.153,0.465,0.276,0.718,0.366
	C84.975,113.759,85.219,113.804,85.454,113.804"/>
<path fill="#CDA36E" d="M93.647,114.619c-0.514,0-0.988-0.098-1.421-0.292c-0.434-0.194-0.809-0.462-1.124-0.802
	c-0.316-0.34-0.562-0.731-0.738-1.175c-0.177-0.444-0.264-0.92-0.264-1.427c0-0.498,0.087-0.967,0.264-1.406
	c0.176-0.439,0.422-0.824,0.738-1.155c0.315-0.33,0.688-0.593,1.117-0.788c0.428-0.194,0.901-0.292,1.415-0.292
	c0.515,0,0.987,0.098,1.415,0.292c0.429,0.195,0.797,0.46,1.104,0.795c0.307,0.335,0.546,0.72,0.718,1.155
	c0.171,0.435,0.257,0.896,0.257,1.386c0,0.072-0.002,0.145-0.006,0.217c-0.005,0.073-0.012,0.123-0.021,0.149h-6.026
	c0.027,0.381,0.114,0.731,0.263,1.054c0.15,0.321,0.339,0.6,0.569,0.835c0.231,0.236,0.497,0.42,0.799,0.551
	c0.303,0.131,0.625,0.197,0.969,0.197c0.234,0,0.465-0.032,0.69-0.096c0.226-0.063,0.434-0.149,0.623-0.258
	c0.19-0.108,0.359-0.242,0.508-0.401c0.149-0.158,0.264-0.332,0.346-0.522l0.799,0.217c-0.109,0.264-0.263,0.501-0.461,0.714
	c-0.199,0.213-0.429,0.398-0.691,0.557c-0.262,0.159-0.551,0.281-0.866,0.367C94.307,114.576,93.981,114.619,93.647,114.619
	 M96.248,110.57c-0.027-0.381-0.115-0.727-0.264-1.039s-0.339-0.582-0.569-0.809s-0.499-0.403-0.806-0.53s-0.632-0.19-0.975-0.19
	c-0.343,0-0.668,0.063-0.975,0.19c-0.307,0.127-0.576,0.304-0.806,0.53s-0.415,0.498-0.555,0.815
	c-0.14,0.316-0.223,0.661-0.251,1.032H96.248z"/>
<path fill="#CDA36E" d="M102.03,108.22c-0.623,0.019-1.165,0.19-1.625,0.517s-0.786,0.774-0.975,1.345v4.402h-0.921v-7.079h0.867
	v1.698c0.243-0.498,0.564-0.912,0.961-1.243c0.397-0.33,0.826-0.496,1.287-0.496h0.23c0.072,0,0.131,0.005,0.176,0.014V108.22z"/>
<polygon fill="#391E22" points="206.864,87.125 207.76,87.125 204.739,94.204 203.967,94.204 202.465,90.59 200.961,94.204 
	200.188,94.204 197.17,87.125 198.049,87.125 200.623,93.253 201.963,90.02 200.758,87.139 201.543,87.139 202.465,89.448 
	203.371,87.139 204.157,87.139 202.965,90.02 204.306,93.253 "/>
<path fill="#391E22" d="M212.052,94.34c-0.515,0-0.988-0.098-1.421-0.292c-0.434-0.194-0.809-0.462-1.125-0.802
	c-0.317-0.34-0.561-0.731-0.739-1.175c-0.176-0.444-0.263-0.92-0.263-1.427c0-0.498,0.087-0.967,0.263-1.406
	c0.179-0.439,0.422-0.824,0.739-1.155c0.316-0.33,0.689-0.593,1.117-0.788c0.429-0.194,0.899-0.292,1.416-0.292
	c0.513,0,0.985,0.098,1.416,0.292c0.427,0.195,0.795,0.46,1.103,0.795s0.545,0.72,0.717,1.155c0.173,0.435,0.259,0.896,0.259,1.386
	c0,0.072-0.002,0.145-0.009,0.217c-0.004,0.073-0.01,0.123-0.019,0.149h-6.028c0.028,0.381,0.115,0.731,0.267,1.054
	c0.147,0.321,0.338,0.6,0.567,0.835c0.231,0.236,0.496,0.42,0.8,0.551c0.303,0.131,0.625,0.197,0.969,0.197
	c0.233,0,0.465-0.032,0.688-0.096c0.228-0.063,0.435-0.149,0.623-0.258c0.19-0.108,0.36-0.242,0.508-0.401
	c0.15-0.158,0.267-0.332,0.347-0.522l0.799,0.217c-0.108,0.264-0.262,0.501-0.461,0.714c-0.198,0.213-0.428,0.398-0.69,0.557
	c-0.262,0.159-0.551,0.281-0.866,0.367C212.711,94.297,212.386,94.34,212.052,94.34 M214.652,90.291
	c-0.027-0.381-0.115-0.727-0.265-1.039c-0.147-0.313-0.338-0.582-0.567-0.809c-0.23-0.227-0.5-0.403-0.808-0.53
	c-0.306-0.127-0.631-0.19-0.974-0.19c-0.344,0-0.668,0.063-0.976,0.19s-0.575,0.304-0.807,0.53
	c-0.229,0.227-0.416,0.498-0.554,0.815c-0.142,0.316-0.226,0.661-0.25,1.032H214.652z"/>
<path fill="#391E22" d="M220.367,94.34c-0.552,0-1.062-0.141-1.529-0.421c-0.471-0.281-0.836-0.644-1.098-1.087v1.372h-0.826v-9.919
	h0.92v4.321c0.316-0.48,0.695-0.867,1.138-1.162c0.442-0.294,0.961-0.441,1.558-0.441c0.487,0,0.93,0.104,1.327,0.313
	s0.732,0.487,1.009,0.836c0.274,0.349,0.487,0.742,0.637,1.182c0.15,0.439,0.224,0.89,0.224,1.352c0,0.499-0.086,0.97-0.258,1.413
	c-0.172,0.444-0.408,0.832-0.711,1.162c-0.302,0.331-0.66,0.594-1.07,0.788C221.277,94.242,220.836,94.34,220.367,94.34
	 M220.15,93.524c0.389,0,0.741-0.079,1.062-0.237c0.321-0.159,0.598-0.371,0.827-0.639s0.412-0.57,0.543-0.91
	s0.195-0.69,0.195-1.054c0-0.371-0.062-0.729-0.183-1.073c-0.123-0.344-0.295-0.648-0.515-0.917
	c-0.221-0.267-0.485-0.479-0.791-0.639c-0.31-0.158-0.647-0.237-1.017-0.237c-0.28,0-0.543,0.047-0.786,0.143
	c-0.242,0.095-0.47,0.224-0.677,0.387c-0.209,0.163-0.396,0.352-0.562,0.564c-0.168,0.213-0.305,0.437-0.414,0.672v2.201
	c0.037,0.245,0.134,0.474,0.293,0.687c0.156,0.213,0.349,0.396,0.574,0.551c0.226,0.153,0.465,0.276,0.719,0.366
	C219.671,93.479,219.916,93.524,220.15,93.524"/>
<path fill="#391E22" d="M227.613,94.34c-0.552,0-1.089-0.091-1.611-0.271c-0.524-0.182-0.978-0.443-1.356-0.788l0.42-0.625
	c0.399,0.326,0.802,0.57,1.213,0.733c0.41,0.163,0.853,0.245,1.32,0.245c0.569,0,1.022-0.116,1.362-0.347
	c0.338-0.231,0.507-0.56,0.507-0.985c0-0.199-0.044-0.364-0.136-0.496c-0.09-0.131-0.224-0.246-0.399-0.347
	c-0.175-0.099-0.397-0.188-0.664-0.266c-0.265-0.076-0.576-0.155-0.927-0.236c-0.407-0.1-0.758-0.199-1.057-0.299
	c-0.297-0.1-0.543-0.214-0.738-0.34c-0.194-0.127-0.338-0.283-0.432-0.469c-0.097-0.186-0.144-0.419-0.144-0.7
	c0-0.354,0.069-0.666,0.209-0.938c0.142-0.271,0.33-0.496,0.569-0.673c0.24-0.176,0.519-0.31,0.84-0.4
	c0.32-0.091,0.662-0.136,1.023-0.136c0.54,0,1.032,0.088,1.477,0.265c0.441,0.176,0.798,0.41,1.068,0.7l-0.445,0.543
	c-0.264-0.271-0.58-0.476-0.955-0.611s-0.766-0.205-1.172-0.205c-0.244,0-0.469,0.026-0.678,0.076
	c-0.207,0.049-0.392,0.129-0.55,0.237c-0.155,0.109-0.28,0.247-0.37,0.415c-0.091,0.168-0.138,0.364-0.138,0.591
	c0,0.19,0.033,0.345,0.097,0.462c0.062,0.118,0.166,0.219,0.311,0.306c0.144,0.086,0.328,0.162,0.548,0.231
	c0.223,0.067,0.491,0.138,0.808,0.21c0.45,0.109,0.848,0.218,1.19,0.326c0.344,0.109,0.629,0.236,0.86,0.381
	c0.229,0.145,0.403,0.321,0.521,0.529c0.117,0.209,0.176,0.463,0.176,0.762c0,0.651-0.247,1.168-0.743,1.549
	C229.121,94.149,228.453,94.34,227.613,94.34"/>
<path fill="#391E22" d="M231.837,84.285h0.922v1.358h-0.922V84.285z M231.837,87.125h0.922v7.079h-0.922V87.125z"/>
<path fill="#391E22" d="M238.147,93.864c-0.053,0.027-0.133,0.063-0.235,0.108c-0.104,0.046-0.224,0.091-0.36,0.137
	c-0.134,0.045-0.289,0.086-0.461,0.122c-0.17,0.036-0.351,0.054-0.541,0.054c-0.199,0-0.388-0.025-0.568-0.081
	c-0.182-0.055-0.34-0.138-0.475-0.251c-0.134-0.113-0.244-0.256-0.324-0.429c-0.082-0.172-0.123-0.371-0.123-0.597v-5.069h-0.974
	v-0.733h0.974v-2.392h0.922v2.392h1.625v0.733h-1.625v4.811c0.019,0.263,0.107,0.455,0.271,0.577
	c0.163,0.122,0.356,0.184,0.583,0.184c0.261,0,0.492-0.043,0.689-0.128c0.198-0.087,0.325-0.148,0.379-0.185L238.147,93.864z"/>
<path fill="#391E22" d="M242.319,94.34c-0.515,0-0.988-0.098-1.421-0.292c-0.434-0.194-0.809-0.462-1.125-0.802
	c-0.317-0.34-0.561-0.731-0.739-1.175c-0.176-0.444-0.263-0.92-0.263-1.427c0-0.498,0.087-0.967,0.263-1.406
	c0.179-0.439,0.422-0.824,0.739-1.155c0.316-0.33,0.689-0.593,1.117-0.788c0.429-0.194,0.899-0.292,1.416-0.292
	c0.513,0,0.985,0.098,1.416,0.292c0.427,0.195,0.795,0.46,1.103,0.795s0.545,0.72,0.717,1.155c0.173,0.435,0.259,0.896,0.259,1.386
	c0,0.072-0.002,0.145-0.009,0.217c-0.004,0.073-0.01,0.123-0.019,0.149h-6.028c0.028,0.381,0.115,0.731,0.267,1.054
	c0.147,0.321,0.338,0.6,0.567,0.835c0.231,0.236,0.496,0.42,0.799,0.551c0.304,0.131,0.625,0.197,0.97,0.197
	c0.233,0,0.465-0.032,0.688-0.096c0.228-0.063,0.435-0.149,0.623-0.258c0.19-0.108,0.36-0.242,0.508-0.401
	c0.15-0.158,0.267-0.332,0.347-0.522l0.799,0.217c-0.108,0.264-0.262,0.501-0.461,0.714c-0.198,0.213-0.428,0.398-0.69,0.557
	c-0.262,0.159-0.551,0.281-0.867,0.367C242.979,94.297,242.653,94.34,242.319,94.34 M244.919,90.291
	c-0.026-0.381-0.114-0.727-0.264-1.039c-0.147-0.313-0.338-0.582-0.567-0.809c-0.23-0.227-0.5-0.403-0.808-0.53
	c-0.306-0.127-0.631-0.19-0.974-0.19c-0.344,0-0.668,0.063-0.976,0.19s-0.575,0.304-0.807,0.53c-0.23,0.227-0.416,0.498-0.554,0.815
	c-0.142,0.316-0.226,0.661-0.25,1.032H244.919z"/>
<path fill="#391E22" d="M162.743,111.321c-0.513,0-0.988-0.098-1.421-0.292c-0.434-0.193-0.807-0.462-1.123-0.802
	c-0.317-0.34-0.563-0.731-0.739-1.175c-0.176-0.444-0.263-0.92-0.263-1.426c0-0.499,0.087-0.968,0.263-1.407
	s0.422-0.824,0.739-1.155c0.316-0.33,0.687-0.593,1.117-0.788c0.427-0.194,0.899-0.292,1.414-0.292s0.985,0.098,1.416,0.292
	c0.429,0.195,0.797,0.46,1.103,0.795c0.308,0.335,0.547,0.72,0.719,1.155c0.171,0.435,0.257,0.896,0.257,1.386
	c0,0.072-0.002,0.145-0.007,0.217c-0.004,0.073-0.012,0.123-0.021,0.149h-6.026c0.028,0.381,0.115,0.732,0.265,1.054
	c0.147,0.321,0.338,0.6,0.567,0.835c0.231,0.236,0.498,0.42,0.799,0.552c0.304,0.13,0.625,0.196,0.97,0.196
	c0.233,0,0.465-0.031,0.69-0.096c0.226-0.063,0.435-0.149,0.623-0.258c0.19-0.108,0.36-0.242,0.508-0.401
	c0.148-0.158,0.265-0.332,0.347-0.522l0.799,0.217c-0.11,0.264-0.262,0.501-0.461,0.714c-0.2,0.213-0.43,0.399-0.692,0.557
	c-0.261,0.159-0.551,0.281-0.865,0.367C163.404,111.278,163.077,111.321,162.743,111.321 M165.345,107.272
	c-0.026-0.381-0.114-0.727-0.266-1.039c-0.147-0.313-0.338-0.582-0.568-0.809c-0.229-0.227-0.497-0.403-0.805-0.53
	s-0.632-0.19-0.976-0.19c-0.342,0-0.668,0.063-0.976,0.19c-0.306,0.127-0.575,0.304-0.805,0.53c-0.23,0.227-0.416,0.498-0.556,0.815
	c-0.14,0.316-0.224,0.661-0.25,1.032H165.345z"/>
<path fill="#391E22" d="M178.102,111.186h-0.921v-3.954c0-0.824-0.129-1.431-0.387-1.82c-0.257-0.39-0.647-0.584-1.172-0.584
	c-0.269,0-0.525,0.05-0.763,0.149c-0.24,0.1-0.461,0.239-0.664,0.421s-0.383,0.396-0.535,0.646
	c-0.155,0.248-0.272,0.522-0.353,0.822v4.32h-0.922v-3.954c0-0.842-0.127-1.454-0.379-1.834c-0.254-0.381-0.64-0.57-1.164-0.57
	c-0.532,0-1.008,0.186-1.422,0.557c-0.416,0.371-0.715,0.86-0.894,1.468v4.334h-0.922v-7.079h0.84v1.604
	c0.289-0.545,0.668-0.967,1.138-1.271c0.469-0.304,0.989-0.455,1.557-0.455c0.597,0,1.074,0.168,1.437,0.503
	c0.361,0.335,0.578,0.774,0.65,1.317c0.657-1.214,1.569-1.82,2.735-1.82c0.387,0,0.719,0.072,0.994,0.218
	c0.276,0.145,0.497,0.351,0.665,0.618c0.168,0.267,0.289,0.589,0.365,0.964c0.076,0.376,0.115,0.795,0.115,1.256V111.186z"/>
<path fill="#391E22" d="M181.881,111.321c-0.362,0-0.692-0.057-0.989-0.17c-0.299-0.113-0.554-0.27-0.765-0.469
	c-0.213-0.199-0.377-0.43-0.495-0.692c-0.117-0.263-0.175-0.539-0.175-0.829c0-0.326,0.071-0.623,0.216-0.89
	c0.143-0.268,0.346-0.496,0.61-0.687c0.262-0.19,0.573-0.337,0.94-0.441c0.366-0.104,0.771-0.156,1.211-0.156
	c0.353,0,0.713,0.031,1.084,0.095c0.369,0.063,0.699,0.154,0.988,0.271v-0.639c0-0.625-0.177-1.121-0.535-1.487
	c-0.356-0.367-0.838-0.551-1.44-0.551c-0.382,0-0.759,0.073-1.132,0.218c-0.375,0.146-0.758,0.354-1.144,0.625l-0.327-0.611
	c0.461-0.308,0.909-0.539,1.342-0.693c0.435-0.153,0.886-0.23,1.354-0.23c0.856,0,1.539,0.249,2.045,0.747
	c0.505,0.498,0.757,1.187,0.757,2.065v3.193c0,0.253,0.11,0.38,0.327,0.38v0.815c-0.073,0.009-0.141,0.016-0.204,0.021
	c-0.064,0.004-0.117,0.007-0.162,0.007c-0.181,0-0.345-0.055-0.494-0.163s-0.231-0.271-0.252-0.489l-0.026-0.557
	c-0.308,0.416-0.712,0.74-1.212,0.971C182.901,111.206,182.394,111.321,181.881,111.321 M182.11,110.615
	c0.406,0,0.812-0.089,1.212-0.266c0.401-0.177,0.721-0.419,0.954-0.727c0.063-0.082,0.117-0.17,0.162-0.265
	c0.045-0.097,0.068-0.184,0.068-0.266v-1.154c-0.306-0.118-0.626-0.209-0.96-0.272c-0.334-0.063-0.661-0.095-0.978-0.095
	c-0.657,0-1.192,0.134-1.604,0.4c-0.412,0.268-0.617,0.637-0.617,1.107c0,0.19,0.037,0.376,0.11,0.557
	c0.072,0.183,0.181,0.345,0.332,0.49c0.147,0.145,0.332,0.263,0.547,0.354C181.554,110.569,181.812,110.615,182.11,110.615"/>
<path fill="#391E22" d="M187.431,101.267h0.922v1.359h-0.922V101.267z M187.431,104.106h0.922v7.078h-0.922V104.106z"/>
<path fill="#391E22" d="M190.371,101.267h0.922v8.315c0,0.263,0.071,0.469,0.217,0.618c0.144,0.149,0.347,0.225,0.608,0.225
	c0.101,0,0.218-0.014,0.353-0.041c0.134-0.027,0.261-0.063,0.379-0.108l0.162,0.747c-0.172,0.072-0.381,0.132-0.629,0.177
	s-0.463,0.067-0.644,0.067c-0.426,0-0.76-0.119-1.004-0.359c-0.242-0.24-0.364-0.577-0.364-1.013V101.267z"/>
<path fill="#391E22" d="M198.863,111.321c-0.362,0-0.692-0.057-0.989-0.17c-0.299-0.113-0.554-0.27-0.765-0.469
	c-0.213-0.199-0.377-0.43-0.495-0.692c-0.117-0.263-0.175-0.539-0.175-0.829c0-0.326,0.072-0.623,0.216-0.89
	c0.143-0.268,0.346-0.496,0.61-0.687c0.262-0.19,0.573-0.337,0.94-0.441c0.366-0.104,0.771-0.156,1.211-0.156
	c0.353,0,0.713,0.031,1.084,0.095c0.369,0.063,0.699,0.154,0.988,0.271v-0.639c0-0.625-0.177-1.121-0.535-1.487
	c-0.356-0.367-0.838-0.551-1.44-0.551c-0.382,0-0.759,0.073-1.132,0.218c-0.375,0.146-0.758,0.354-1.144,0.625l-0.327-0.611
	c0.461-0.308,0.909-0.539,1.342-0.693c0.435-0.153,0.886-0.23,1.354-0.23c0.856,0,1.539,0.249,2.045,0.747
	c0.505,0.498,0.757,1.187,0.757,2.065v3.193c0,0.253,0.11,0.38,0.327,0.38v0.815c-0.073,0.009-0.141,0.016-0.204,0.021
	c-0.063,0.004-0.117,0.007-0.162,0.007c-0.181,0-0.345-0.055-0.494-0.163s-0.231-0.271-0.252-0.489l-0.026-0.557
	c-0.308,0.416-0.711,0.74-1.211,0.971C199.885,111.206,199.376,111.321,198.863,111.321 M199.094,110.615
	c0.405,0,0.811-0.089,1.211-0.266c0.401-0.177,0.721-0.419,0.955-0.727c0.063-0.082,0.116-0.17,0.161-0.265
	c0.045-0.097,0.068-0.184,0.068-0.266v-1.154c-0.306-0.118-0.626-0.209-0.96-0.272c-0.334-0.063-0.661-0.095-0.977-0.095
	c-0.658,0-1.193,0.134-1.604,0.4c-0.412,0.268-0.617,0.637-0.617,1.107c0,0.19,0.037,0.376,0.11,0.557
	c0.072,0.183,0.181,0.345,0.332,0.49c0.147,0.145,0.332,0.263,0.547,0.354C198.536,110.569,198.794,110.615,199.094,110.615"/>
<path fill="#391E22" d="M207.34,111.321c-0.487,0-0.94-0.102-1.354-0.306c-0.416-0.204-0.774-0.473-1.075-0.809
	c-0.304-0.335-0.539-0.722-0.705-1.161c-0.168-0.439-0.25-0.899-0.25-1.38c0-0.498,0.08-0.971,0.242-1.42
	c0.163-0.448,0.387-0.84,0.672-1.175c0.282-0.335,0.623-0.6,1.015-0.794c0.393-0.195,0.825-0.292,1.293-0.292
	c0.596,0,1.123,0.155,1.584,0.468s0.827,0.69,1.098,1.135v-4.321h0.92v8.724c0,0.253,0.109,0.38,0.326,0.38v0.815
	c-0.153,0.027-0.274,0.041-0.364,0.041c-0.228,0-0.412-0.065-0.558-0.197c-0.144-0.131-0.216-0.287-0.216-0.469v-0.747
	c-0.29,0.463-0.67,0.828-1.145,1.101C208.349,111.186,207.854,111.321,207.34,111.321 M207.528,110.506
	c0.234,0,0.48-0.045,0.738-0.136c0.258-0.09,0.496-0.215,0.719-0.373c0.222-0.159,0.412-0.345,0.574-0.558
	c0.164-0.213,0.263-0.441,0.299-0.686v-2.188c-0.09-0.244-0.225-0.473-0.399-0.686c-0.176-0.213-0.375-0.401-0.596-0.564
	c-0.222-0.163-0.455-0.288-0.703-0.38c-0.25-0.091-0.494-0.136-0.738-0.136c-0.379,0-0.725,0.081-1.038,0.244
	c-0.31,0.163-0.574,0.379-0.791,0.646c-0.216,0.268-0.386,0.573-0.507,0.917c-0.123,0.345-0.185,0.698-0.185,1.06
	c0,0.381,0.068,0.743,0.203,1.088c0.136,0.344,0.32,0.645,0.556,0.903c0.233,0.258,0.514,0.464,0.834,0.619
	C206.813,110.43,207.16,110.506,207.528,110.506"/>
<path fill="#391E22" d="M215.777,111.321c-0.489,0-0.94-0.102-1.356-0.306c-0.414-0.204-0.772-0.473-1.075-0.809
	c-0.304-0.335-0.537-0.722-0.705-1.161c-0.166-0.439-0.25-0.899-0.25-1.38c0-0.498,0.082-0.971,0.244-1.42
	c0.161-0.448,0.387-0.84,0.67-1.175c0.284-0.335,0.623-0.6,1.016-0.794c0.392-0.195,0.824-0.292,1.292-0.292
	c0.598,0,1.125,0.155,1.586,0.468c0.459,0.313,0.827,0.69,1.096,1.135v-4.321h0.922v8.724c0,0.253,0.107,0.38,0.324,0.38v0.815
	c-0.151,0.027-0.274,0.041-0.364,0.041c-0.228,0-0.41-0.065-0.556-0.197c-0.144-0.131-0.216-0.287-0.216-0.469v-0.747
	c-0.29,0.463-0.67,0.828-1.145,1.101C216.784,111.186,216.29,111.321,215.777,111.321 M215.966,110.506
	c0.234,0,0.48-0.045,0.738-0.136c0.256-0.09,0.496-0.215,0.717-0.373c0.222-0.159,0.414-0.345,0.576-0.558s0.263-0.441,0.297-0.686
	v-2.188c-0.09-0.244-0.223-0.473-0.397-0.686c-0.176-0.213-0.375-0.401-0.596-0.564c-0.224-0.163-0.457-0.288-0.705-0.38
	c-0.248-0.091-0.494-0.136-0.738-0.136c-0.379,0-0.726,0.081-1.036,0.244c-0.312,0.163-0.576,0.379-0.792,0.646
	c-0.217,0.268-0.385,0.573-0.508,0.917c-0.121,0.345-0.183,0.698-0.183,1.06c0,0.381,0.066,0.743,0.203,1.088
	c0.136,0.344,0.32,0.645,0.556,0.903c0.233,0.258,0.512,0.464,0.832,0.619C215.249,110.43,215.596,110.506,215.966,110.506"/>
<path fill="#391E22" d="M224.811,104.922c-0.623,0.019-1.166,0.19-1.625,0.517c-0.462,0.326-0.785,0.774-0.978,1.345v4.402h-0.919
	v-7.079h0.867v1.698c0.244-0.498,0.563-0.912,0.961-1.243c0.396-0.33,0.826-0.496,1.287-0.496h0.229
	c0.072,0,0.131,0.005,0.177,0.014V104.922z"/>
<path fill="#391E22" d="M229.128,111.321c-0.513,0-0.988-0.098-1.421-0.292c-0.434-0.193-0.807-0.462-1.123-0.802
	c-0.317-0.34-0.563-0.731-0.739-1.175c-0.176-0.444-0.263-0.92-0.263-1.426c0-0.499,0.087-0.968,0.263-1.407
	s0.422-0.824,0.739-1.155c0.316-0.33,0.687-0.593,1.117-0.788c0.427-0.194,0.899-0.292,1.414-0.292s0.985,0.098,1.416,0.292
	c0.429,0.195,0.797,0.46,1.103,0.795c0.308,0.335,0.547,0.72,0.719,1.155c0.171,0.435,0.257,0.896,0.257,1.386
	c0,0.072-0.002,0.145-0.007,0.217c-0.004,0.073-0.012,0.123-0.021,0.149h-6.026c0.028,0.381,0.115,0.732,0.265,1.054
	c0.147,0.321,0.338,0.6,0.567,0.835c0.231,0.236,0.498,0.42,0.799,0.552c0.304,0.13,0.625,0.196,0.97,0.196
	c0.233,0,0.465-0.031,0.69-0.096c0.226-0.063,0.435-0.149,0.623-0.258c0.19-0.108,0.36-0.242,0.508-0.401
	c0.148-0.158,0.265-0.332,0.347-0.522l0.799,0.217c-0.11,0.264-0.262,0.501-0.461,0.714c-0.2,0.213-0.43,0.399-0.692,0.557
	c-0.261,0.159-0.551,0.281-0.864,0.367C229.789,111.278,229.462,111.321,229.128,111.321 M231.73,107.272
	c-0.027-0.381-0.115-0.727-0.267-1.039c-0.147-0.313-0.338-0.582-0.568-0.809c-0.229-0.227-0.497-0.403-0.805-0.53
	s-0.632-0.19-0.976-0.19c-0.342,0-0.668,0.063-0.976,0.19c-0.306,0.127-0.575,0.304-0.805,0.53s-0.416,0.498-0.556,0.815
	c-0.14,0.316-0.224,0.661-0.25,1.032H231.73z"/>
<path fill="#391E22" d="M236.36,111.321c-0.551,0-1.088-0.091-1.61-0.271c-0.524-0.183-0.976-0.444-1.354-0.789l0.42-0.625
	c0.397,0.326,0.802,0.57,1.211,0.733c0.412,0.163,0.853,0.245,1.32,0.245c0.571,0,1.024-0.116,1.362-0.347
	c0.339-0.231,0.507-0.56,0.507-0.985c0-0.199-0.044-0.364-0.134-0.496c-0.09-0.131-0.224-0.246-0.401-0.347
	c-0.175-0.098-0.396-0.188-0.662-0.265s-0.576-0.156-0.928-0.237c-0.406-0.1-0.759-0.199-1.056-0.299
	c-0.3-0.1-0.545-0.213-0.738-0.339c-0.196-0.128-0.338-0.284-0.434-0.47c-0.095-0.186-0.144-0.419-0.144-0.7
	c0-0.354,0.071-0.666,0.211-0.938c0.139-0.271,0.328-0.496,0.569-0.673c0.238-0.176,0.519-0.31,0.84-0.4
	c0.32-0.091,0.66-0.136,1.021-0.136c0.543,0,1.035,0.088,1.478,0.265c0.443,0.177,0.798,0.41,1.07,0.7l-0.447,0.543
	c-0.262-0.271-0.58-0.476-0.955-0.611s-0.764-0.204-1.172-0.204c-0.243,0-0.469,0.025-0.676,0.075
	c-0.209,0.05-0.392,0.129-0.55,0.237c-0.157,0.109-0.282,0.247-0.373,0.415c-0.09,0.168-0.135,0.364-0.135,0.591
	c0,0.19,0.031,0.345,0.094,0.462c0.064,0.118,0.169,0.22,0.313,0.306c0.145,0.086,0.327,0.163,0.549,0.231
	c0.221,0.067,0.489,0.138,0.805,0.21c0.451,0.109,0.851,0.218,1.193,0.326c0.342,0.109,0.629,0.236,0.86,0.381
	c0.229,0.145,0.403,0.321,0.521,0.529c0.117,0.209,0.176,0.463,0.176,0.762c0,0.651-0.247,1.168-0.743,1.549
	C237.869,111.131,237.201,111.321,236.36,111.321"/>
<path fill="#391E22" d="M242.956,111.321c-0.551,0-1.088-0.091-1.61-0.271c-0.524-0.183-0.978-0.444-1.356-0.789l0.42-0.625
	c0.399,0.326,0.802,0.57,1.213,0.733c0.41,0.163,0.853,0.245,1.32,0.245c0.569,0,1.022-0.116,1.362-0.347
	c0.338-0.231,0.507-0.56,0.507-0.985c0-0.199-0.044-0.364-0.136-0.496c-0.09-0.131-0.224-0.246-0.399-0.347
	c-0.175-0.098-0.397-0.188-0.664-0.265c-0.265-0.077-0.576-0.156-0.927-0.237c-0.407-0.1-0.758-0.199-1.057-0.299
	c-0.298-0.1-0.543-0.213-0.738-0.339c-0.194-0.128-0.338-0.284-0.432-0.47c-0.097-0.186-0.144-0.419-0.144-0.7
	c0-0.354,0.069-0.666,0.209-0.938c0.141-0.271,0.33-0.496,0.569-0.673c0.24-0.176,0.519-0.31,0.84-0.4
	c0.32-0.091,0.662-0.136,1.022-0.136c0.541,0,1.033,0.088,1.478,0.265c0.44,0.177,0.798,0.41,1.068,0.7l-0.445,0.543
	c-0.264-0.271-0.58-0.476-0.955-0.611s-0.766-0.204-1.172-0.204c-0.244,0-0.469,0.025-0.678,0.075
	c-0.207,0.05-0.392,0.129-0.55,0.237c-0.155,0.109-0.28,0.247-0.371,0.415c-0.09,0.168-0.137,0.364-0.137,0.591
	c0,0.19,0.033,0.345,0.096,0.462c0.063,0.118,0.166,0.22,0.312,0.306c0.144,0.086,0.328,0.163,0.548,0.231
	c0.223,0.067,0.491,0.138,0.807,0.21c0.451,0.109,0.849,0.218,1.191,0.326c0.344,0.109,0.629,0.236,0.86,0.381
	c0.229,0.145,0.403,0.321,0.521,0.529c0.117,0.209,0.176,0.463,0.176,0.762c0,0.651-0.248,1.168-0.743,1.549
	C244.465,111.131,243.797,111.321,242.956,111.321"/>
<rect fill="none" width="255" height="123"/>
</svg>
