<?xml version="1.0" encoding="utf-8"?>
<!-- Generator: Adobe Illustrator 15.0.2, SVG Export Plug-In . SVG Version: 6.00 Build 0)  -->
<!DOCTYPE svg PUBLIC "-//W3C//DTD SVG 1.1//EN" "http://www.w3.org/Graphics/SVG/1.1/DTD/svg11.dtd">
<svg version="1.1" id="Layer_1" xmlns="http://www.w3.org/2000/svg" xmlns:xlink="http://www.w3.org/1999/xlink" x="0px" y="0px"
	 width="255px" height="123px" viewBox="0 0 255 123" enable-background="new 0 0 255 123" xml:space="preserve">
<g>
	<defs>
		<rect id="SVGID_1_" width="255" height="123"/>
	</defs>
	<clipPath id="SVGID_2_">
		<use xlink:href="#SVGID_1_"  overflow="visible"/>
	</clipPath>
	<path clip-path="url(#SVGID_2_)" fill="#CDA36E" d="M255,24.459V9.839c0-5.434-4.391-9.84-9.808-9.84h-56.736H9.808
		C4.392-0.001,0,4.406,0,9.839v10.455C81.194,3.639,242.321,62.771,255,24.459"/>
	<path clip-path="url(#SVGID_2_)" fill="#CDA36E" d="M0,94.293v18.867c0,5.434,4.392,9.842,9.807,9.842h24.595h92.127h61.927h56.736
		c5.416,0,9.808-4.408,9.808-9.842V96.619v-0.166C227.568,128.707,15.336,64.186,0,94.293"/>
	<path clip-path="url(#SVGID_2_)" fill="#458A94" d="M0,20.294v65.608v8.391c15.336-30.107,227.568,34.416,255,2.16V24.459
		C242.321,62.771,81.193,3.639,0,20.294"/>
	<path clip-path="url(#SVGID_2_)" fill="#3A1F22" d="M51.397,68.793c0.501,0.342,1.145,0.641,1.93,0.891
		c0.786,0.252,1.668,0.377,2.647,0.377c1.23,0,2.214-0.223,2.954-0.668c0.74-0.445,1.304-1.102,1.691-1.969
		c0.387-0.869,0.636-1.938,0.751-3.205c0.114-1.27,0.17-2.712,0.17-4.334V47.548h2.39v12.336c0,1.85-0.084,3.536-0.256,5.053
		c-0.17,1.52-0.529,2.816-1.076,3.891s-1.344,1.906-2.39,2.5c-1.049,0.594-2.459,0.891-4.235,0.891
		c-2.049,0-3.802-0.502-5.259-1.506L51.397,68.793z"/>
	<path clip-path="url(#SVGID_2_)" fill="#3A1F22" d="M76.569,72.186c-1.298,0-2.488-0.246-3.569-0.738
		c-1.081-0.49-2.016-1.158-2.8-2.004c-0.787-0.844-1.396-1.826-1.827-2.947c-0.434-1.117-0.65-2.295-0.65-3.527
		c0-1.257,0.223-2.446,0.667-3.565c0.444-1.119,1.059-2.102,1.843-2.946c0.787-0.845,1.72-1.52,2.801-2.022
		c1.081-0.501,2.259-0.752,3.535-0.752c1.275,0,2.453,0.251,3.535,0.752c1.082,0.503,2.015,1.178,2.8,2.022s1.401,1.827,1.844,2.946
		c0.445,1.119,0.667,2.308,0.667,3.565c0,1.232-0.223,2.41-0.667,3.527c-0.443,1.121-1.059,2.104-1.844,2.947
		c-0.785,0.846-1.719,1.514-2.8,2.004C79.022,71.939,77.844,72.186,76.569,72.186 M70.114,63.002c0,1.006,0.165,1.936,0.494,2.793
		c0.331,0.855,0.787,1.609,1.367,2.26c0.582,0.652,1.264,1.162,2.049,1.525c0.786,0.365,1.622,0.549,2.51,0.549
		c0.888,0,1.724-0.188,2.511-0.564c0.784-0.377,1.473-0.893,2.065-1.543c0.593-0.65,1.06-1.41,1.4-2.277
		c0.342-0.869,0.513-1.805,0.513-2.811c0-0.982-0.17-1.913-0.513-2.793c-0.34-0.878-0.808-1.644-1.4-2.295
		c-0.592-0.65-1.275-1.165-2.048-1.543c-0.774-0.377-1.606-0.564-2.494-0.564c-0.887,0-1.725,0.188-2.51,0.564
		c-0.786,0.378-1.469,0.896-2.049,1.56c-0.58,0.663-1.042,1.434-1.383,2.313C70.284,61.055,70.114,61.997,70.114,63.002"/>
	<path clip-path="url(#SVGID_2_)" fill="#3A1F22" d="M104.165,71.842h-2.323v-9.971c0-2.032-0.348-3.552-1.042-4.558
		c-0.695-1.004-1.714-1.507-3.056-1.507c-0.661,0-1.315,0.133-1.965,0.394c-0.648,0.263-1.257,0.623-1.827,1.079
		c-0.569,0.458-1.064,0.994-1.485,1.611c-0.422,0.615-0.735,1.291-0.939,2.021v10.93h-2.322V46.829h2.322v11.204
		c0.728-1.347,1.719-2.409,2.972-3.186c1.251-0.777,2.594-1.165,4.029-1.165c1.026,0,1.896,0.188,2.614,0.564
		c0.717,0.377,1.298,0.902,1.741,1.576c0.443,0.676,0.769,1.486,0.974,2.434c0.205,0.947,0.307,1.992,0.307,3.135V71.842z"/>
	<path clip-path="url(#SVGID_2_)" fill="#3A1F22" d="M123.939,71.842h-2.323v-9.971c0-2.124-0.308-3.665-0.922-4.625
		c-0.615-0.96-1.571-1.439-2.869-1.439c-0.683,0-1.366,0.126-2.049,0.377s-1.32,0.605-1.914,1.063c-0.592,0.457-1.109,1-1.554,1.627
		c-0.444,0.629-0.78,1.309-1.007,2.039v10.93h-2.322V53.991h2.117v4.042c0.363-0.638,0.813-1.228,1.349-1.764
		c0.535-0.537,1.133-0.999,1.793-1.389c0.66-0.388,1.359-0.685,2.102-0.89c0.738-0.206,1.508-0.309,2.305-0.309
		c1.001,0,1.838,0.184,2.51,0.548c0.671,0.365,1.213,0.879,1.623,1.542c0.409,0.662,0.705,1.474,0.888,2.434
		c0.182,0.959,0.273,2.021,0.273,3.186V71.842z"/>
	<path clip-path="url(#SVGID_2_)" fill="#3A1F22" d="M138.078,71.842V47.514h8.196c1.936,0,3.633,0.319,5.09,0.958
		c1.457,0.641,2.668,1.509,3.637,2.605c0.968,1.097,1.69,2.382,2.169,3.854c0.478,1.473,0.717,3.044,0.717,4.712
		c0,1.85-0.273,3.524-0.819,5.02c-0.547,1.496-1.32,2.775-2.322,3.838c-1.003,1.063-2.221,1.885-3.654,2.467
		c-1.435,0.582-3.041,0.873-4.816,0.873H138.078z M155.496,59.644c0-1.462-0.205-2.805-0.615-4.026
		c-0.409-1.222-1.006-2.277-1.793-3.169c-0.785-0.891-1.747-1.582-2.886-2.074c-1.139-0.491-2.447-0.736-3.928-0.736h-5.84v20.081
		h5.84c1.503,0,2.829-0.258,3.979-0.771c1.149-0.516,2.113-1.223,2.887-2.125s1.36-1.963,1.759-3.188
		C155.296,62.414,155.496,61.083,155.496,59.644"/>
	<path clip-path="url(#SVGID_2_)" fill="#3A1F22" d="M169.703,72.186c-1.298,0-2.487-0.246-3.568-0.738
		c-1.081-0.49-2.016-1.158-2.801-2.004c-0.786-0.844-1.396-1.826-1.826-2.947c-0.435-1.117-0.65-2.295-0.65-3.527
		c0-1.257,0.222-2.446,0.667-3.565c0.443-1.119,1.058-2.102,1.843-2.946c0.787-0.845,1.721-1.52,2.802-2.022
		c1.081-0.501,2.259-0.752,3.534-0.752s2.453,0.251,3.535,0.752c1.082,0.503,2.015,1.178,2.801,2.022
		c0.785,0.845,1.399,1.827,1.844,2.946s0.667,2.308,0.667,3.565c0,1.232-0.223,2.41-0.667,3.527
		c-0.444,1.121-1.059,2.104-1.844,2.947c-0.786,0.846-1.719,1.514-2.801,2.004C172.156,71.939,170.979,72.186,169.703,72.186
		 M163.249,63.002c0,1.006,0.164,1.936,0.494,2.793c0.33,0.855,0.787,1.609,1.366,2.26c0.581,0.652,1.265,1.162,2.05,1.525
		c0.785,0.365,1.621,0.549,2.51,0.549s1.725-0.188,2.511-0.564c0.784-0.377,1.474-0.893,2.065-1.543
		c0.593-0.65,1.061-1.41,1.4-2.277c0.342-0.869,0.513-1.805,0.513-2.811c0-0.982-0.171-1.913-0.513-2.793
		c-0.34-0.878-0.808-1.644-1.4-2.295c-0.592-0.65-1.275-1.165-2.048-1.543c-0.774-0.377-1.605-0.564-2.494-0.564
		c-0.887,0-1.725,0.188-2.511,0.564c-0.784,0.378-1.468,0.896-2.049,1.56s-1.041,1.434-1.383,2.313
		C163.419,61.055,163.249,61.997,163.249,63.002"/>
	<path clip-path="url(#SVGID_2_)" fill="#3A1F22" d="M190.126,72.186c-1.297,0-2.493-0.246-3.586-0.736
		c-1.093-0.492-2.038-1.166-2.835-2.021c-0.797-0.857-1.417-1.846-1.861-2.965c-0.442-1.119-0.665-2.318-0.665-3.598
		c0-1.256,0.223-2.438,0.665-3.546c0.444-1.107,1.064-2.079,1.861-2.912c0.797-0.835,1.737-1.497,2.818-1.988
		c1.081-0.49,2.271-0.736,3.568-0.736s2.488,0.246,3.57,0.736c1.081,0.491,2.008,1.16,2.782,2.005s1.378,1.816,1.811,2.912
		s0.648,2.262,0.648,3.495c0,0.184-0.005,0.367-0.017,0.549c-0.012,0.184-0.029,0.309-0.051,0.377h-15.197
		c0.066,0.959,0.289,1.846,0.665,2.656s0.854,1.514,1.435,2.107s1.252,1.057,2.015,1.387c0.762,0.332,1.576,0.498,2.441,0.498
		c0.592,0,1.173-0.08,1.742-0.24c0.568-0.16,1.093-0.377,1.571-0.65c0.479-0.275,0.904-0.611,1.28-1.012
		c0.376-0.398,0.667-0.84,0.871-1.32l2.015,0.549c-0.272,0.664-0.66,1.262-1.161,1.799c-0.5,0.537-1.082,1.006-1.742,1.406
		c-0.66,0.398-1.389,0.709-2.185,0.924C191.788,72.076,190.969,72.186,190.126,72.186 M196.684,61.974
		c-0.068-0.959-0.289-1.834-0.665-2.622c-0.376-0.787-0.854-1.468-1.436-2.039c-0.579-0.57-1.257-1.015-2.032-1.336
		c-0.773-0.319-1.594-0.479-2.459-0.479c-0.864,0-1.685,0.159-2.459,0.479c-0.774,0.321-1.451,0.766-2.031,1.336
		c-0.58,0.571-1.049,1.258-1.4,2.057c-0.354,0.801-0.563,1.668-0.633,2.604H196.684z"/>
	<path clip-path="url(#SVGID_2_)" fill="#3A1F22" d="M11.743,9.791c0-0.581,0.101-1.158,0.305-1.733
		c0.203-0.574,0.499-1.089,0.887-1.541c0.388-0.453,0.867-0.822,1.436-1.107c0.568-0.286,1.214-0.429,1.936-0.429
		c0.858,0,1.589,0.195,2.194,0.585c0.605,0.39,1.057,0.896,1.354,1.521l-0.758,0.463c-0.154-0.317-0.339-0.585-0.555-0.803
		c-0.217-0.217-0.452-0.395-0.705-0.529c-0.253-0.137-0.515-0.234-0.785-0.293c-0.271-0.059-0.537-0.088-0.799-0.088
		c-0.578,0-1.088,0.118-1.53,0.353c-0.443,0.236-0.815,0.544-1.118,0.924c-0.303,0.381-0.53,0.81-0.684,1.285
		c-0.153,0.476-0.23,0.958-0.23,1.446c0,0.535,0.092,1.046,0.277,1.535c0.186,0.489,0.438,0.922,0.758,1.298
		c0.321,0.376,0.7,0.675,1.138,0.896c0.438,0.223,0.914,0.333,1.429,0.333c0.271,0,0.548-0.033,0.833-0.102
		c0.285-0.068,0.56-0.177,0.826-0.326s0.513-0.335,0.738-0.556c0.226-0.224,0.415-0.492,0.569-0.81l0.785,0.407
		c-0.153,0.362-0.37,0.683-0.65,0.958c-0.28,0.276-0.591,0.51-0.934,0.7c-0.343,0.19-0.707,0.335-1.091,0.435
		c-0.383,0.101-0.76,0.149-1.131,0.149c-0.659,0-1.263-0.145-1.814-0.435c-0.55-0.29-1.025-0.668-1.422-1.135
		c-0.397-0.466-0.706-0.996-0.928-1.589C11.853,11.011,11.743,10.406,11.743,9.791"/>
	<path clip-path="url(#SVGID_2_)" fill="#3A1F22" d="M24.487,14.817c-0.515,0-0.986-0.098-1.415-0.292
		c-0.429-0.194-0.799-0.46-1.111-0.795c-0.311-0.335-0.552-0.725-0.724-1.168c-0.172-0.443-0.257-0.911-0.257-1.399
		c0-0.499,0.087-0.97,0.264-1.413c0.176-0.444,0.42-0.834,0.731-1.169c0.311-0.335,0.682-0.603,1.11-0.802s0.896-0.299,1.402-0.299
		c0.505,0,0.973,0.1,1.401,0.299c0.429,0.199,0.799,0.467,1.111,0.802c0.312,0.335,0.555,0.725,0.731,1.169
		c0.176,0.443,0.264,0.914,0.264,1.413c0,0.488-0.088,0.956-0.264,1.399c-0.177,0.443-0.42,0.833-0.731,1.168
		c-0.312,0.335-0.682,0.601-1.111,0.795C25.459,14.719,24.992,14.817,24.487,14.817 M21.927,11.176c0,0.399,0.065,0.767,0.196,1.107
		c0.131,0.339,0.312,0.638,0.542,0.896c0.23,0.259,0.501,0.46,0.813,0.606c0.312,0.144,0.643,0.217,0.996,0.217
		c0.352,0,0.684-0.075,0.996-0.225c0.312-0.149,0.584-0.353,0.819-0.611s0.42-0.56,0.556-0.903c0.135-0.345,0.203-0.716,0.203-1.114
		c0-0.39-0.068-0.758-0.203-1.107c-0.136-0.35-0.321-0.652-0.556-0.911c-0.235-0.258-0.505-0.461-0.813-0.61
		c-0.307-0.15-0.636-0.225-0.988-0.225S23.803,8.37,23.492,8.52c-0.312,0.149-0.583,0.354-0.813,0.618
		c-0.23,0.262-0.413,0.568-0.548,0.916C21.995,10.404,21.927,10.778,21.927,11.176"/>
	<path clip-path="url(#SVGID_2_)" fill="#3A1F22" d="M39.992,14.681h-0.921v-3.954c0-0.824-0.129-1.431-0.386-1.82
		s-0.647-0.584-1.171-0.584c-0.271,0-0.526,0.05-0.765,0.149c-0.239,0.1-0.461,0.24-0.664,0.421
		C35.882,9.075,35.704,9.29,35.55,9.54c-0.154,0.248-0.271,0.521-0.352,0.821v4.32h-0.921v-3.954c0-0.842-0.126-1.453-0.379-1.834
		c-0.253-0.38-0.642-0.57-1.165-0.57c-0.532,0-1.007,0.186-1.422,0.558c-0.416,0.371-0.713,0.86-0.894,1.466v4.335h-0.921V7.602
		h0.839v1.604c0.29-0.543,0.668-0.967,1.138-1.27c0.47-0.304,0.989-0.456,1.557-0.456c0.596,0,1.075,0.169,1.436,0.502
		c0.361,0.337,0.578,0.775,0.65,1.318c0.659-1.214,1.57-1.82,2.735-1.82c0.388,0,0.72,0.073,0.995,0.217
		c0.276,0.146,0.497,0.352,0.664,0.619c0.167,0.267,0.289,0.589,0.365,0.965c0.077,0.376,0.115,0.795,0.115,1.256V14.681z"/>
	<path clip-path="url(#SVGID_2_)" fill="#3A1F22" d="M45.518,14.817c-0.596,0-1.124-0.151-1.584-0.454
		c-0.461-0.305-0.831-0.687-1.111-1.148v4.361h-0.921V7.602h0.826v1.373c0.29-0.444,0.664-0.805,1.125-1.081
		s0.961-0.414,1.503-0.414c0.488,0,0.937,0.103,1.348,0.306c0.411,0.203,0.765,0.476,1.063,0.816c0.297,0.338,0.53,0.73,0.697,1.174
		c0.167,0.444,0.25,0.902,0.25,1.373c0,0.498-0.077,0.969-0.23,1.413c-0.153,0.443-0.373,0.833-0.657,1.168
		c-0.284,0.336-0.623,0.601-1.016,0.795S45.987,14.817,45.518,14.817 M45.26,14.002c0.379,0,0.723-0.082,1.03-0.245
		c0.307-0.162,0.571-0.378,0.792-0.646c0.222-0.267,0.391-0.57,0.508-0.91c0.117-0.34,0.176-0.69,0.176-1.053
		c0-0.38-0.068-0.743-0.204-1.088c-0.135-0.344-0.32-0.647-0.555-0.91c-0.235-0.262-0.512-0.471-0.833-0.624
		c-0.321-0.155-0.666-0.231-1.036-0.231c-0.235,0-0.479,0.048-0.731,0.143c-0.253,0.095-0.492,0.221-0.718,0.38
		c-0.226,0.16-0.418,0.346-0.575,0.558c-0.158,0.213-0.255,0.437-0.292,0.673v2.174c0.108,0.254,0.246,0.488,0.413,0.706
		s0.356,0.406,0.569,0.564c0.212,0.158,0.442,0.283,0.69,0.373C44.744,13.957,44.999,14.002,45.26,14.002"/>
	<path clip-path="url(#SVGID_2_)" fill="#3A1F22" d="M52.099,14.818c-0.361,0-0.69-0.058-0.989-0.17
		c-0.297-0.113-0.553-0.27-0.765-0.469c-0.212-0.199-0.377-0.431-0.495-0.693c-0.117-0.263-0.176-0.539-0.176-0.828
		c0-0.326,0.072-0.624,0.217-0.891c0.145-0.268,0.348-0.496,0.609-0.687s0.576-0.337,0.941-0.441s0.77-0.155,1.212-0.155
		c0.353,0,0.713,0.03,1.083,0.095c0.371,0.063,0.7,0.153,0.989,0.272v-0.64c0-0.626-0.179-1.121-0.535-1.488
		s-0.837-0.551-1.442-0.551c-0.379,0-0.756,0.073-1.131,0.218c-0.375,0.146-0.756,0.353-1.145,0.625l-0.325-0.61
		c0.46-0.309,0.908-0.54,1.341-0.693c0.434-0.153,0.885-0.231,1.354-0.231c0.857,0,1.539,0.249,2.045,0.748
		c0.505,0.497,0.758,1.187,0.758,2.065v3.192c0,0.253,0.108,0.381,0.325,0.381v0.814c-0.072,0.01-0.14,0.017-0.203,0.021
		c-0.063,0.005-0.117,0.007-0.163,0.007c-0.18,0-0.345-0.054-0.494-0.162c-0.149-0.108-0.232-0.272-0.25-0.489L54.835,13.5
		c-0.307,0.415-0.711,0.739-1.212,0.971C53.122,14.702,52.614,14.818,52.099,14.818 M52.33,14.111c0.406,0,0.811-0.089,1.212-0.265
		c0.402-0.177,0.72-0.419,0.955-0.727c0.063-0.082,0.117-0.17,0.163-0.266c0.045-0.095,0.068-0.184,0.068-0.265v-1.155
		c-0.307-0.118-0.628-0.207-0.962-0.271c-0.333-0.064-0.659-0.095-0.975-0.095c-0.659,0-1.194,0.134-1.605,0.399
		c-0.411,0.268-0.616,0.638-0.616,1.108c0,0.19,0.036,0.376,0.108,0.558c0.072,0.181,0.183,0.344,0.332,0.488
		c0.148,0.145,0.332,0.264,0.548,0.354C51.774,14.066,52.031,14.111,52.33,14.111"/>
	<path clip-path="url(#SVGID_2_)" fill="#3A1F22" d="M63.583,14.681h-0.921v-3.954c0-0.842-0.122-1.453-0.366-1.834
		c-0.244-0.38-0.623-0.57-1.137-0.57c-0.271,0-0.542,0.05-0.813,0.149c-0.271,0.1-0.523,0.24-0.758,0.421
		c-0.235,0.182-0.44,0.396-0.616,0.646c-0.176,0.248-0.309,0.518-0.399,0.807v4.335h-0.921V7.602h0.839v1.604
		c0.145-0.254,0.323-0.486,0.535-0.699c0.212-0.213,0.449-0.396,0.711-0.551s0.54-0.271,0.833-0.354
		c0.293-0.082,0.598-0.122,0.914-0.122c0.397,0,0.729,0.073,0.996,0.217c0.266,0.146,0.48,0.35,0.643,0.613
		c0.163,0.262,0.28,0.583,0.352,0.964c0.072,0.38,0.108,0.802,0.108,1.263V14.681z"/>
	<path clip-path="url(#SVGID_2_)" fill="#3A1F22" d="M65.763,16.87c0.045,0.009,0.09,0.017,0.135,0.021
		c0.045,0.005,0.09,0.007,0.136,0.007c0.09,0,0.188-0.009,0.291-0.027c0.104-0.02,0.178-0.037,0.223-0.055s0.092-0.058,0.142-0.115
		c0.05-0.06,0.113-0.163,0.19-0.313c0.077-0.149,0.174-0.358,0.291-0.625c0.118-0.268,0.266-0.628,0.447-1.081l-3.075-7.079h0.962
		l2.613,6.223l2.411-6.223h0.88l-3.67,9.131c-0.136,0.337-0.318,0.584-0.548,0.748c-0.23,0.163-0.553,0.244-0.968,0.244
		c-0.172,0-0.325-0.014-0.46-0.041V16.87z"/>
	<path clip-path="url(#SVGID_2_)" fill="#3A1F22" d="M12.366,29.777v-9.647h3.982c0.415,0,0.797,0.087,1.144,0.264
		c0.347,0.177,0.648,0.408,0.901,0.693c0.252,0.285,0.449,0.609,0.589,0.972c0.14,0.363,0.21,0.729,0.21,1.101
		c0,0.399-0.065,0.782-0.196,1.149c-0.131,0.365-0.318,0.689-0.563,0.971c-0.243,0.28-0.534,0.506-0.873,0.679
		c-0.338,0.173-0.715,0.259-1.131,0.259H13.3v3.561H12.366z M13.3,25.374h3.074c0.28,0,0.535-0.062,0.765-0.184
		c0.23-0.121,0.427-0.285,0.589-0.488c0.163-0.204,0.29-0.44,0.38-0.707c0.09-0.268,0.135-0.546,0.135-0.836
		c0-0.3-0.053-0.583-0.155-0.85c-0.104-0.266-0.244-0.5-0.42-0.699c-0.176-0.199-0.384-0.356-0.623-0.469
		c-0.239-0.113-0.49-0.171-0.752-0.171H13.3V25.374z"/>
	<path clip-path="url(#SVGID_2_)" fill="#3A1F22" d="M23.417,29.912c-0.515,0-0.986-0.098-1.415-0.292s-0.799-0.46-1.11-0.795
		c-0.312-0.335-0.553-0.725-0.725-1.169c-0.172-0.442-0.257-0.91-0.257-1.399c0-0.498,0.088-0.969,0.264-1.412
		s0.42-0.834,0.731-1.169s0.682-0.603,1.11-0.802c0.429-0.199,0.896-0.3,1.402-0.3c0.505,0,0.973,0.101,1.402,0.3
		c0.429,0.199,0.799,0.467,1.11,0.802c0.312,0.335,0.555,0.726,0.731,1.169c0.176,0.443,0.264,0.914,0.264,1.412
		c0,0.489-0.088,0.957-0.264,1.399c-0.176,0.444-0.42,0.834-0.731,1.169c-0.311,0.335-0.682,0.601-1.11,0.795
		C24.389,29.814,23.922,29.912,23.417,29.912 M20.857,26.27c0,0.399,0.065,0.769,0.196,1.107c0.131,0.34,0.312,0.639,0.542,0.897
		c0.23,0.258,0.501,0.459,0.813,0.604c0.311,0.146,0.643,0.218,0.995,0.218s0.684-0.073,0.996-0.224
		c0.312-0.149,0.585-0.354,0.819-0.612c0.235-0.257,0.419-0.558,0.555-0.903c0.135-0.344,0.203-0.715,0.203-1.114
		c0-0.39-0.068-0.759-0.203-1.106c-0.136-0.349-0.32-0.652-0.555-0.91c-0.234-0.259-0.506-0.463-0.813-0.613
		c-0.307-0.147-0.637-0.223-0.989-0.223s-0.684,0.075-0.995,0.223c-0.312,0.15-0.583,0.356-0.813,0.62
		c-0.23,0.263-0.413,0.568-0.548,0.916C20.925,25.498,20.857,25.872,20.857,26.27"/>
	<path clip-path="url(#SVGID_2_)" fill="#3A1F22" d="M30.784,29.912c-0.551,0-1.088-0.091-1.611-0.272
		c-0.524-0.18-0.976-0.442-1.354-0.787l0.42-0.625c0.397,0.326,0.801,0.571,1.212,0.733c0.411,0.164,0.851,0.246,1.321,0.246
		c0.568,0,1.022-0.116,1.36-0.348c0.339-0.23,0.508-0.56,0.508-0.984c0-0.2-0.045-0.364-0.136-0.496s-0.223-0.247-0.399-0.347
		c-0.176-0.099-0.397-0.188-0.664-0.265c-0.266-0.078-0.575-0.157-0.927-0.238c-0.407-0.101-0.759-0.2-1.057-0.3
		c-0.298-0.099-0.544-0.212-0.738-0.338c-0.194-0.128-0.338-0.283-0.433-0.469s-0.142-0.42-0.142-0.701
		c0-0.353,0.07-0.666,0.21-0.938c0.14-0.271,0.33-0.495,0.568-0.673c0.239-0.177,0.52-0.31,0.84-0.399
		c0.32-0.091,0.662-0.137,1.022-0.137c0.542,0,1.034,0.089,1.476,0.265c0.443,0.177,0.799,0.411,1.07,0.701l-0.447,0.543
		c-0.262-0.272-0.58-0.476-0.955-0.611c-0.375-0.137-0.766-0.204-1.171-0.204c-0.244,0-0.47,0.024-0.677,0.075
		c-0.208,0.049-0.39,0.129-0.548,0.236c-0.158,0.108-0.282,0.248-0.373,0.415s-0.136,0.365-0.136,0.592
		c0,0.19,0.032,0.344,0.095,0.462c0.063,0.117,0.167,0.219,0.312,0.306c0.145,0.086,0.327,0.163,0.549,0.23
		c0.221,0.067,0.49,0.139,0.806,0.21c0.451,0.11,0.849,0.218,1.192,0.326c0.343,0.108,0.63,0.236,0.86,0.381
		c0.23,0.146,0.404,0.321,0.521,0.53c0.118,0.208,0.176,0.462,0.176,0.761c0,0.653-0.249,1.168-0.745,1.549
		C32.292,29.721,31.624,29.912,30.784,29.912"/>
	<path clip-path="url(#SVGID_2_)" fill="#3A1F22" d="M35.009,19.858h0.921v1.358h-0.921V19.858z M35.009,22.698h0.921v7.079h-0.921
		V22.698z"/>
	<path clip-path="url(#SVGID_2_)" fill="#3A1F22" d="M41.32,29.436c-0.054,0.027-0.133,0.064-0.237,0.109
		c-0.104,0.046-0.224,0.091-0.359,0.136c-0.136,0.045-0.289,0.087-0.46,0.122s-0.353,0.056-0.542,0.056
		c-0.198,0-0.388-0.028-0.569-0.082c-0.181-0.056-0.339-0.139-0.474-0.252c-0.136-0.113-0.244-0.256-0.325-0.427
		c-0.082-0.173-0.122-0.372-0.122-0.6v-5.067h-0.976v-0.733h0.976v-2.392h0.92v2.392h1.625v0.733h-1.625v4.81
		c0.019,0.264,0.108,0.456,0.271,0.578s0.357,0.184,0.583,0.184c0.262,0,0.492-0.044,0.691-0.13
		c0.198-0.086,0.324-0.146,0.379-0.184L41.32,29.436z"/>
	<path clip-path="url(#SVGID_2_)" fill="#3A1F22" d="M42.402,19.858h0.921v1.358h-0.921V19.858z M42.402,22.698h0.921v7.079h-0.921
		V22.698z"/>
	<path clip-path="url(#SVGID_2_)" fill="#3A1F22" d="M48.349,29.912c-0.515,0-0.986-0.098-1.415-0.292s-0.799-0.46-1.11-0.795
		c-0.312-0.335-0.553-0.725-0.725-1.169c-0.172-0.442-0.257-0.91-0.257-1.399c0-0.498,0.088-0.969,0.264-1.412
		s0.42-0.834,0.731-1.169c0.311-0.335,0.682-0.603,1.11-0.802c0.429-0.199,0.896-0.3,1.402-0.3c0.505,0,0.973,0.101,1.402,0.3
		c0.429,0.199,0.799,0.467,1.11,0.802s0.555,0.726,0.731,1.169c0.176,0.443,0.264,0.914,0.264,1.412
		c0,0.489-0.088,0.957-0.264,1.399c-0.177,0.444-0.42,0.834-0.731,1.169s-0.682,0.601-1.11,0.795
		C49.321,29.814,48.854,29.912,48.349,29.912 M45.789,26.27c0,0.399,0.065,0.769,0.196,1.107c0.131,0.34,0.312,0.639,0.542,0.897
		c0.23,0.258,0.501,0.459,0.813,0.604c0.312,0.146,0.643,0.218,0.996,0.218c0.352,0,0.684-0.073,0.996-0.224
		c0.312-0.149,0.584-0.354,0.819-0.612c0.235-0.257,0.419-0.558,0.555-0.903c0.135-0.344,0.203-0.715,0.203-1.114
		c0-0.39-0.068-0.759-0.203-1.106c-0.136-0.349-0.32-0.652-0.555-0.91c-0.235-0.259-0.506-0.463-0.813-0.613
		c-0.307-0.147-0.636-0.223-0.988-0.223s-0.684,0.075-0.995,0.223c-0.312,0.15-0.583,0.356-0.813,0.62
		c-0.23,0.263-0.413,0.568-0.548,0.916C45.856,25.498,45.789,25.872,45.789,26.27"/>
	<path clip-path="url(#SVGID_2_)" fill="#3A1F22" d="M59.291,29.777H58.37v-3.954c0-0.843-0.122-1.454-0.366-1.835
		c-0.243-0.38-0.623-0.571-1.137-0.571c-0.271,0-0.542,0.051-0.813,0.15c-0.271,0.1-0.523,0.24-0.758,0.421
		c-0.234,0.181-0.44,0.396-0.616,0.645c-0.176,0.25-0.309,0.521-0.399,0.81v4.335h-0.921v-7.079h0.839v1.604
		c0.144-0.255,0.323-0.488,0.535-0.701c0.212-0.213,0.449-0.396,0.711-0.55s0.54-0.271,0.833-0.353
		c0.293-0.082,0.598-0.123,0.914-0.123c0.397,0,0.729,0.072,0.995,0.218c0.266,0.144,0.48,0.349,0.643,0.61
		c0.163,0.264,0.28,0.585,0.352,0.966c0.072,0.38,0.109,0.802,0.109,1.264V29.777z"/>
	<path clip-path="url(#SVGID_2_)" fill="#3A1F22" d="M190.227,14.646l4.022-9.648h0.771l4.023,9.648h-1.017l-1.246-3.017h-4.319
		l-1.233,3.017H190.227z M194.642,6.112l-1.977,4.77h3.899L194.642,6.112z"/>
	<path clip-path="url(#SVGID_2_)" fill="#3A1F22" d="M202.903,14.781c-0.487,0-0.939-0.102-1.354-0.306
		c-0.416-0.203-0.773-0.473-1.077-0.81c-0.302-0.334-0.536-0.721-0.704-1.16c-0.166-0.44-0.25-0.899-0.25-1.379
		c0-0.499,0.081-0.973,0.243-1.421c0.163-0.448,0.386-0.84,0.671-1.175c0.284-0.336,0.623-0.601,1.016-0.795
		s0.822-0.292,1.293-0.292c0.596,0,1.124,0.156,1.585,0.468c0.46,0.314,0.826,0.692,1.098,1.136V4.726h0.92v8.723
		c0,0.255,0.108,0.381,0.325,0.381v0.816c-0.153,0.026-0.275,0.039-0.366,0.039c-0.226,0-0.412-0.064-0.555-0.196
		c-0.145-0.131-0.217-0.288-0.217-0.469v-0.748c-0.288,0.463-0.67,0.83-1.145,1.102C203.912,14.646,203.418,14.781,202.903,14.781
		 M203.093,13.965c0.234,0,0.48-0.045,0.738-0.136c0.257-0.091,0.496-0.215,0.718-0.374c0.222-0.158,0.413-0.344,0.575-0.557
		c0.163-0.213,0.263-0.441,0.299-0.686v-2.188c-0.091-0.245-0.224-0.474-0.4-0.687c-0.176-0.214-0.375-0.401-0.596-0.564
		c-0.221-0.162-0.456-0.289-0.705-0.38s-0.493-0.136-0.737-0.136c-0.379,0-0.725,0.081-1.035,0.244
		c-0.313,0.162-0.577,0.378-0.793,0.646c-0.217,0.267-0.386,0.573-0.508,0.917c-0.122,0.345-0.184,0.697-0.184,1.061
		c0,0.38,0.068,0.741,0.203,1.087c0.136,0.344,0.321,0.646,0.556,0.903c0.234,0.257,0.513,0.464,0.833,0.618
		C202.378,13.889,202.723,13.965,203.093,13.965"/>
	<path clip-path="url(#SVGID_2_)" fill="#3A1F22" d="M211.34,14.781c-0.487,0-0.938-0.102-1.354-0.306
		c-0.415-0.203-0.774-0.473-1.076-0.81c-0.304-0.334-0.538-0.721-0.705-1.16c-0.167-0.44-0.251-0.899-0.251-1.379
		c0-0.499,0.082-0.973,0.245-1.421c0.162-0.448,0.386-0.84,0.67-1.175c0.284-0.336,0.622-0.601,1.015-0.795
		c0.394-0.194,0.823-0.292,1.294-0.292c0.597,0,1.124,0.156,1.585,0.468c0.461,0.314,0.825,0.692,1.097,1.136V4.726h0.921v8.723
		c0,0.255,0.108,0.381,0.325,0.381v0.816c-0.154,0.026-0.275,0.039-0.365,0.039c-0.227,0-0.412-0.064-0.556-0.196
		c-0.145-0.131-0.218-0.288-0.218-0.469v-0.748c-0.288,0.463-0.67,0.83-1.144,1.102C212.35,14.646,211.854,14.781,211.34,14.781
		 M211.53,13.965c0.233,0,0.48-0.045,0.737-0.136c0.258-0.091,0.497-0.215,0.718-0.374c0.222-0.158,0.413-0.344,0.576-0.557
		c0.162-0.213,0.262-0.441,0.298-0.686v-2.188c-0.091-0.245-0.224-0.474-0.399-0.687c-0.176-0.214-0.374-0.401-0.596-0.564
		c-0.222-0.162-0.456-0.289-0.704-0.38c-0.249-0.091-0.495-0.136-0.738-0.136c-0.38,0-0.725,0.081-1.036,0.244
		c-0.312,0.162-0.575,0.378-0.793,0.646c-0.216,0.267-0.386,0.573-0.507,0.917c-0.122,0.345-0.183,0.697-0.183,1.061
		c0,0.38,0.067,0.741,0.202,1.087c0.136,0.344,0.321,0.646,0.556,0.903c0.235,0.257,0.513,0.464,0.832,0.618
		C210.814,13.889,211.16,13.965,211.53,13.965"/>
	<path clip-path="url(#SVGID_2_)" fill="#3A1F22" d="M220.373,8.38c-0.623,0.019-1.165,0.19-1.626,0.518
		c-0.46,0.325-0.784,0.774-0.975,1.345v4.403h-0.921V7.567h0.867v1.698c0.244-0.5,0.564-0.913,0.961-1.244
		c0.397-0.33,0.827-0.496,1.286-0.496h0.23c0.073,0,0.131,0.006,0.177,0.013V8.38z"/>
	<path clip-path="url(#SVGID_2_)" fill="#3A1F22" d="M224.693,14.781c-0.515,0-0.989-0.098-1.423-0.292s-0.809-0.462-1.123-0.802
		c-0.316-0.34-0.563-0.731-0.738-1.176c-0.177-0.443-0.265-0.92-0.265-1.426c0-0.498,0.088-0.967,0.265-1.407
		c0.176-0.438,0.422-0.824,0.738-1.154c0.314-0.331,0.688-0.594,1.116-0.788s0.9-0.292,1.415-0.292s0.986,0.098,1.416,0.292
		c0.429,0.194,0.796,0.459,1.104,0.795c0.308,0.335,0.547,0.72,0.718,1.154c0.172,0.436,0.258,0.898,0.258,1.387
		c0,0.072-0.003,0.144-0.007,0.217c-0.006,0.073-0.013,0.123-0.021,0.15h-6.026c0.028,0.38,0.115,0.73,0.265,1.053
		c0.149,0.32,0.339,0.6,0.569,0.836c0.23,0.234,0.496,0.418,0.799,0.55c0.302,0.131,0.625,0.197,0.968,0.197
		c0.234,0,0.465-0.033,0.69-0.095c0.227-0.064,0.434-0.15,0.623-0.259s0.359-0.243,0.508-0.4c0.149-0.159,0.265-0.334,0.346-0.524
		l0.799,0.218c-0.108,0.263-0.262,0.501-0.46,0.714c-0.199,0.212-0.43,0.397-0.69,0.557c-0.263,0.158-0.552,0.281-0.868,0.367
		C225.353,14.739,225.027,14.781,224.693,14.781 M227.293,10.731c-0.027-0.38-0.114-0.727-0.265-1.039
		c-0.148-0.312-0.338-0.582-0.568-0.808c-0.23-0.228-0.498-0.404-0.806-0.53c-0.307-0.126-0.632-0.19-0.976-0.19
		c-0.343,0-0.668,0.064-0.975,0.19c-0.308,0.126-0.576,0.303-0.806,0.53c-0.23,0.226-0.415,0.498-0.555,0.814
		c-0.141,0.318-0.225,0.661-0.252,1.032H227.293z"/>
	<path clip-path="url(#SVGID_2_)" fill="#3A1F22" d="M231.924,14.781c-0.55,0-1.088-0.091-1.611-0.272
		c-0.523-0.18-0.976-0.442-1.354-0.787l0.42-0.625c0.398,0.326,0.802,0.571,1.213,0.733c0.411,0.164,0.851,0.245,1.32,0.245
		c0.568,0,1.022-0.116,1.36-0.347c0.339-0.23,0.509-0.56,0.509-0.984c0-0.2-0.046-0.365-0.136-0.496
		c-0.091-0.132-0.224-0.247-0.399-0.347s-0.397-0.188-0.664-0.265c-0.266-0.078-0.575-0.157-0.927-0.238
		c-0.407-0.101-0.759-0.2-1.058-0.3c-0.297-0.1-0.543-0.212-0.737-0.339c-0.194-0.128-0.339-0.283-0.434-0.468
		c-0.095-0.187-0.143-0.421-0.143-0.701c0-0.353,0.07-0.666,0.211-0.938c0.14-0.271,0.329-0.496,0.568-0.673s0.52-0.31,0.84-0.4
		s0.661-0.136,1.021-0.136c0.542,0,1.034,0.089,1.477,0.265c0.442,0.177,0.8,0.411,1.07,0.701l-0.447,0.542
		c-0.261-0.271-0.58-0.475-0.954-0.611c-0.375-0.136-0.765-0.203-1.172-0.203c-0.243,0-0.47,0.024-0.677,0.074
		c-0.208,0.05-0.391,0.129-0.549,0.237s-0.282,0.248-0.372,0.415c-0.091,0.167-0.136,0.365-0.136,0.592
		c0,0.189,0.032,0.344,0.095,0.462c0.063,0.117,0.167,0.219,0.312,0.305c0.145,0.087,0.327,0.164,0.548,0.231
		c0.222,0.067,0.49,0.139,0.806,0.21c0.452,0.109,0.85,0.218,1.192,0.326s0.63,0.235,0.86,0.381c0.229,0.146,0.404,0.321,0.521,0.53
		c0.118,0.208,0.177,0.461,0.177,0.761c0,0.652-0.248,1.168-0.745,1.548C233.433,14.59,232.764,14.781,231.924,14.781"/>
	<path clip-path="url(#SVGID_2_)" fill="#3A1F22" d="M238.519,14.781c-0.55,0-1.087-0.091-1.61-0.272
		c-0.524-0.18-0.976-0.442-1.354-0.787l0.419-0.625c0.398,0.326,0.802,0.571,1.213,0.733c0.411,0.164,0.851,0.245,1.32,0.245
		c0.568,0,1.022-0.116,1.361-0.347c0.338-0.23,0.508-0.56,0.508-0.984c0-0.2-0.045-0.365-0.136-0.496
		c-0.09-0.132-0.224-0.247-0.398-0.347c-0.177-0.1-0.398-0.188-0.665-0.265c-0.266-0.078-0.575-0.157-0.927-0.238
		c-0.406-0.101-0.758-0.2-1.057-0.3c-0.298-0.1-0.544-0.212-0.737-0.339c-0.195-0.128-0.34-0.283-0.435-0.468
		c-0.095-0.187-0.143-0.421-0.143-0.701c0-0.353,0.071-0.666,0.211-0.938s0.329-0.496,0.568-0.673s0.52-0.31,0.84-0.4
		c0.321-0.091,0.661-0.136,1.021-0.136c0.543,0,1.034,0.089,1.478,0.265c0.441,0.177,0.799,0.411,1.07,0.701l-0.448,0.542
		c-0.261-0.271-0.579-0.475-0.954-0.611c-0.375-0.136-0.765-0.203-1.172-0.203c-0.243,0-0.469,0.024-0.678,0.074
		c-0.207,0.05-0.39,0.129-0.548,0.237s-0.281,0.248-0.372,0.415s-0.136,0.365-0.136,0.592c0,0.189,0.032,0.344,0.095,0.462
		c0.063,0.117,0.168,0.219,0.313,0.305c0.144,0.087,0.327,0.164,0.547,0.231c0.222,0.067,0.491,0.139,0.806,0.21
		c0.452,0.109,0.849,0.218,1.193,0.326c0.343,0.108,0.629,0.235,0.859,0.381s0.404,0.321,0.521,0.53
		c0.117,0.208,0.176,0.461,0.176,0.761c0,0.652-0.248,1.168-0.745,1.548C240.027,14.59,239.358,14.781,238.519,14.781"/>
	<path clip-path="url(#SVGID_2_)" fill="#3A1F22" d="M190.227,29.812l4.022-9.646h0.771l4.023,9.646h-1.017l-1.246-3.017h-4.319
		l-1.233,3.017H190.227z M194.642,21.279l-1.977,4.77h3.899L194.642,21.279z"/>
	<path clip-path="url(#SVGID_2_)" fill="#3A1F22" d="M202.903,29.948c-0.487,0-0.939-0.103-1.354-0.306
		c-0.416-0.204-0.773-0.474-1.077-0.809c-0.302-0.335-0.536-0.722-0.704-1.162c-0.166-0.439-0.25-0.897-0.25-1.378
		c0-0.5,0.081-0.973,0.243-1.421c0.163-0.447,0.386-0.839,0.671-1.176c0.284-0.335,0.623-0.599,1.016-0.793
		c0.393-0.195,0.822-0.294,1.293-0.294c0.596,0,1.124,0.156,1.585,0.47c0.46,0.313,0.826,0.69,1.098,1.134v-4.32h0.92v8.723
		c0,0.254,0.108,0.38,0.325,0.38v0.816c-0.153,0.026-0.275,0.04-0.366,0.04c-0.226,0-0.412-0.064-0.555-0.197
		c-0.145-0.13-0.217-0.287-0.217-0.469V28.44c-0.288,0.461-0.67,0.828-1.145,1.1C203.912,29.812,203.418,29.948,202.903,29.948
		 M203.093,29.133c0.234,0,0.48-0.047,0.738-0.138c0.257-0.09,0.496-0.214,0.718-0.373c0.222-0.157,0.413-0.343,0.575-0.557
		c0.163-0.213,0.263-0.441,0.299-0.687v-2.188c-0.091-0.244-0.224-0.473-0.4-0.686c-0.176-0.213-0.375-0.401-0.596-0.563
		c-0.221-0.164-0.456-0.29-0.705-0.381c-0.249-0.09-0.493-0.137-0.737-0.137c-0.379,0-0.725,0.082-1.035,0.245
		c-0.313,0.163-0.577,0.379-0.793,0.646c-0.217,0.266-0.386,0.572-0.508,0.916s-0.184,0.698-0.184,1.061
		c0,0.381,0.068,0.742,0.203,1.086c0.136,0.345,0.321,0.646,0.556,0.904c0.234,0.258,0.513,0.465,0.833,0.617
		C202.378,29.056,202.723,29.133,203.093,29.133"/>
	<path clip-path="url(#SVGID_2_)" fill="#3A1F22" d="M211.34,29.948c-0.487,0-0.938-0.103-1.354-0.306
		c-0.415-0.204-0.774-0.474-1.076-0.809c-0.304-0.335-0.538-0.722-0.705-1.162c-0.167-0.439-0.251-0.897-0.251-1.378
		c0-0.5,0.082-0.973,0.245-1.421c0.162-0.447,0.386-0.839,0.67-1.176c0.284-0.335,0.622-0.599,1.015-0.793
		c0.394-0.195,0.823-0.294,1.294-0.294c0.597,0,1.124,0.156,1.585,0.47c0.461,0.313,0.825,0.69,1.097,1.134v-4.32h0.921v8.723
		c0,0.254,0.108,0.38,0.325,0.38v0.816c-0.154,0.026-0.275,0.04-0.365,0.04c-0.227,0-0.412-0.064-0.556-0.197
		c-0.145-0.13-0.218-0.287-0.218-0.469V28.44c-0.288,0.461-0.67,0.828-1.144,1.1C212.35,29.812,211.854,29.948,211.34,29.948
		 M211.53,29.133c0.233,0,0.48-0.047,0.737-0.138c0.258-0.09,0.497-0.214,0.718-0.373c0.222-0.157,0.413-0.343,0.576-0.557
		c0.162-0.213,0.262-0.441,0.298-0.687v-2.188c-0.091-0.244-0.224-0.473-0.399-0.686s-0.374-0.401-0.596-0.563
		c-0.222-0.164-0.456-0.29-0.704-0.381c-0.249-0.09-0.495-0.137-0.738-0.137c-0.38,0-0.725,0.082-1.036,0.245
		s-0.575,0.379-0.793,0.646c-0.216,0.266-0.386,0.572-0.507,0.916c-0.122,0.344-0.183,0.698-0.183,1.061
		c0,0.381,0.067,0.742,0.202,1.086c0.136,0.345,0.321,0.646,0.556,0.904c0.235,0.258,0.513,0.465,0.832,0.617
		C210.814,29.056,211.16,29.133,211.53,29.133"/>
	<path clip-path="url(#SVGID_2_)" fill="#3A1F22" d="M220.373,23.548c-0.623,0.019-1.165,0.189-1.626,0.516
		c-0.46,0.326-0.784,0.774-0.975,1.345v4.403h-0.921v-7.079h0.867v1.698c0.244-0.498,0.564-0.913,0.961-1.242
		c0.397-0.332,0.827-0.497,1.286-0.497h0.23c0.073,0,0.131,0.006,0.177,0.014V23.548z"/>
	<path clip-path="url(#SVGID_2_)" fill="#3A1F22" d="M224.693,29.948c-0.515,0-0.989-0.097-1.423-0.293
		c-0.434-0.194-0.809-0.461-1.123-0.801c-0.316-0.34-0.563-0.731-0.738-1.175c-0.177-0.443-0.265-0.919-0.265-1.428
		c0-0.497,0.088-0.967,0.265-1.406c0.176-0.438,0.422-0.824,0.738-1.154c0.314-0.331,0.688-0.593,1.116-0.787
		c0.429-0.195,0.9-0.292,1.415-0.292s0.986,0.097,1.416,0.292c0.429,0.194,0.796,0.46,1.104,0.793
		c0.308,0.337,0.547,0.722,0.718,1.156c0.172,0.435,0.258,0.896,0.258,1.385c0,0.073-0.003,0.146-0.007,0.219
		c-0.006,0.071-0.013,0.122-0.021,0.148h-6.026c0.028,0.381,0.115,0.732,0.265,1.053c0.149,0.322,0.339,0.601,0.569,0.836
		c0.23,0.236,0.496,0.419,0.799,0.551c0.302,0.131,0.625,0.197,0.968,0.197c0.234,0,0.465-0.032,0.69-0.096
		c0.227-0.063,0.434-0.15,0.623-0.259s0.359-0.24,0.508-0.399c0.149-0.159,0.265-0.333,0.346-0.523l0.799,0.218
		c-0.108,0.262-0.262,0.5-0.46,0.712c-0.199,0.214-0.43,0.399-0.69,0.558c-0.263,0.159-0.552,0.281-0.868,0.367
		C225.353,29.905,225.027,29.948,224.693,29.948 M227.293,25.899c-0.027-0.381-0.114-0.727-0.265-1.039
		c-0.148-0.313-0.338-0.583-0.568-0.809c-0.23-0.227-0.498-0.402-0.806-0.531c-0.307-0.126-0.632-0.189-0.976-0.189
		c-0.343,0-0.668,0.063-0.975,0.189c-0.308,0.129-0.576,0.305-0.806,0.531c-0.23,0.226-0.415,0.497-0.555,0.814
		c-0.141,0.317-0.225,0.661-0.252,1.033H227.293z"/>
	<path clip-path="url(#SVGID_2_)" fill="#3A1F22" d="M231.924,29.948c-0.55,0-1.088-0.091-1.611-0.271s-0.976-0.443-1.354-0.789
		l0.42-0.624c0.398,0.326,0.802,0.571,1.213,0.734c0.411,0.162,0.851,0.244,1.32,0.244c0.568,0,1.022-0.115,1.36-0.348
		c0.339-0.229,0.509-0.559,0.509-0.983c0-0.199-0.046-0.365-0.136-0.497c-0.091-0.132-0.224-0.246-0.399-0.346
		s-0.397-0.188-0.664-0.266c-0.266-0.077-0.575-0.156-0.927-0.237c-0.407-0.1-0.759-0.199-1.058-0.299
		c-0.297-0.1-0.543-0.214-0.737-0.34c-0.194-0.127-0.339-0.283-0.434-0.469s-0.143-0.419-0.143-0.7c0-0.353,0.07-0.665,0.211-0.938
		c0.14-0.271,0.329-0.496,0.568-0.672c0.239-0.177,0.52-0.311,0.84-0.401s0.661-0.135,1.021-0.135c0.542,0,1.034,0.088,1.477,0.264
		c0.442,0.177,0.8,0.41,1.07,0.7l-0.447,0.544c-0.261-0.272-0.58-0.476-0.954-0.612c-0.375-0.135-0.765-0.204-1.172-0.204
		c-0.243,0-0.47,0.024-0.677,0.075c-0.208,0.05-0.391,0.129-0.549,0.238c-0.158,0.108-0.282,0.246-0.372,0.414
		c-0.091,0.167-0.136,0.365-0.136,0.591c0,0.19,0.032,0.345,0.095,0.462s0.167,0.22,0.312,0.306s0.327,0.163,0.548,0.231
		c0.222,0.067,0.49,0.138,0.806,0.211c0.452,0.108,0.85,0.217,1.192,0.325c0.343,0.109,0.63,0.236,0.86,0.38
		c0.229,0.146,0.404,0.323,0.521,0.531c0.118,0.208,0.177,0.462,0.177,0.761c0,0.652-0.248,1.169-0.745,1.549
		C233.433,29.758,232.764,29.948,231.924,29.948"/>
	<path clip-path="url(#SVGID_2_)" fill="#3A1F22" d="M238.519,29.948c-0.55,0-1.087-0.091-1.61-0.271
		c-0.524-0.181-0.976-0.443-1.354-0.789l0.419-0.624c0.398,0.326,0.802,0.571,1.213,0.734c0.411,0.162,0.851,0.244,1.32,0.244
		c0.568,0,1.022-0.115,1.361-0.348c0.338-0.229,0.508-0.559,0.508-0.983c0-0.199-0.045-0.365-0.136-0.497
		c-0.09-0.132-0.224-0.246-0.398-0.346c-0.177-0.1-0.398-0.188-0.665-0.266c-0.266-0.077-0.575-0.156-0.927-0.237
		c-0.406-0.1-0.758-0.199-1.057-0.299c-0.298-0.1-0.544-0.214-0.737-0.34c-0.195-0.127-0.34-0.283-0.435-0.469
		s-0.143-0.419-0.143-0.7c0-0.353,0.071-0.665,0.211-0.938c0.14-0.271,0.329-0.496,0.568-0.672c0.239-0.177,0.52-0.311,0.84-0.401
		c0.321-0.091,0.661-0.135,1.021-0.135c0.543,0,1.034,0.088,1.478,0.264c0.441,0.177,0.799,0.41,1.07,0.7l-0.448,0.544
		c-0.261-0.272-0.579-0.476-0.954-0.612c-0.375-0.135-0.765-0.204-1.172-0.204c-0.243,0-0.469,0.024-0.678,0.075
		c-0.207,0.05-0.39,0.129-0.548,0.238c-0.158,0.108-0.281,0.246-0.372,0.414c-0.091,0.167-0.136,0.365-0.136,0.591
		c0,0.19,0.032,0.345,0.095,0.462c0.063,0.117,0.168,0.22,0.313,0.306c0.144,0.086,0.327,0.163,0.547,0.231
		c0.222,0.067,0.491,0.138,0.806,0.211c0.452,0.108,0.849,0.217,1.193,0.325c0.343,0.109,0.629,0.236,0.859,0.38
		c0.23,0.146,0.404,0.323,0.521,0.531s0.176,0.462,0.176,0.761c0,0.652-0.248,1.169-0.745,1.549
		C240.027,29.758,239.358,29.948,238.519,29.948"/>
	<path clip-path="url(#SVGID_2_)" fill="#3A1F22" d="M12.366,116.047v-9.648h3.982c0.415,0,0.797,0.088,1.144,0.266
		c0.347,0.176,0.648,0.408,0.901,0.693c0.252,0.285,0.449,0.609,0.589,0.971c0.14,0.363,0.21,0.73,0.21,1.102
		c0,0.398-0.065,0.779-0.196,1.146s-0.318,0.691-0.563,0.971c-0.243,0.281-0.534,0.508-0.873,0.682
		c-0.338,0.172-0.715,0.258-1.131,0.258H13.3v3.561H12.366z M13.3,111.643h3.074c0.28,0,0.535-0.061,0.765-0.182
		c0.23-0.123,0.427-0.285,0.589-0.49c0.163-0.203,0.29-0.439,0.38-0.707c0.09-0.266,0.135-0.545,0.135-0.834
		c0-0.301-0.053-0.584-0.155-0.85c-0.104-0.268-0.244-0.502-0.42-0.699c-0.176-0.201-0.384-0.357-0.623-0.469
		c-0.239-0.115-0.49-0.172-0.752-0.172H13.3V111.643z"/>
	<path clip-path="url(#SVGID_2_)" fill="#3A1F22" d="M26.477,116.047h-0.921v-3.955c0-0.807-0.138-1.408-0.413-1.807
		s-0.68-0.598-1.212-0.598c-0.262,0-0.522,0.051-0.779,0.156c-0.257,0.104-0.499,0.246-0.724,0.428
		c-0.226,0.18-0.422,0.395-0.589,0.639s-0.292,0.512-0.373,0.801v4.336h-0.921v-9.92h0.921v4.443
		c0.289-0.533,0.682-0.955,1.178-1.264s1.029-0.463,1.598-0.463c0.406,0,0.751,0.076,1.036,0.225
		c0.285,0.15,0.515,0.359,0.691,0.625c0.176,0.268,0.305,0.59,0.386,0.965c0.081,0.377,0.122,0.791,0.122,1.244V116.047z"/>
	<path clip-path="url(#SVGID_2_)" fill="#3A1F22" d="M31.433,116.182c-0.515,0-0.986-0.098-1.415-0.293
		c-0.429-0.195-0.799-0.459-1.111-0.793c-0.312-0.336-0.553-0.727-0.724-1.17c-0.172-0.443-0.257-0.91-0.257-1.4
		c0-0.496,0.088-0.967,0.264-1.412c0.176-0.443,0.42-0.832,0.731-1.168c0.312-0.336,0.682-0.602,1.11-0.803
		c0.43-0.199,0.896-0.299,1.402-0.299c0.505,0,0.973,0.1,1.402,0.299c0.429,0.201,0.799,0.467,1.11,0.803
		c0.311,0.336,0.555,0.725,0.731,1.168c0.176,0.445,0.264,0.916,0.264,1.412c0,0.49-0.088,0.957-0.264,1.4
		c-0.176,0.443-0.42,0.834-0.731,1.17c-0.312,0.334-0.682,0.598-1.11,0.793C32.406,116.084,31.938,116.182,31.433,116.182
		 M28.874,112.539c0,0.4,0.066,0.77,0.196,1.109c0.131,0.338,0.312,0.639,0.542,0.896c0.23,0.258,0.501,0.459,0.813,0.604
		c0.312,0.146,0.643,0.217,0.995,0.217s0.684-0.074,0.996-0.223c0.311-0.15,0.584-0.354,0.819-0.611
		c0.235-0.26,0.419-0.561,0.555-0.904c0.136-0.344,0.204-0.715,0.204-1.113c0-0.391-0.068-0.76-0.204-1.109
		c-0.135-0.348-0.32-0.65-0.555-0.91c-0.235-0.256-0.506-0.461-0.813-0.611c-0.307-0.148-0.636-0.225-0.989-0.225
		c-0.352,0-0.684,0.076-0.995,0.225c-0.312,0.15-0.583,0.357-0.813,0.619c-0.23,0.264-0.414,0.568-0.548,0.918
		C28.941,111.768,28.874,112.141,28.874,112.539"/>
	<path clip-path="url(#SVGID_2_)" fill="#3A1F22" d="M42.375,116.047h-0.921v-3.955c0-0.842-0.122-1.453-0.366-1.834
		c-0.244-0.381-0.623-0.57-1.137-0.57c-0.271,0-0.542,0.049-0.813,0.148c-0.271,0.1-0.523,0.24-0.758,0.422s-0.44,0.396-0.616,0.645
		c-0.176,0.25-0.309,0.52-0.399,0.809v4.336h-0.921v-7.08h0.84v1.604c0.145-0.254,0.322-0.486,0.535-0.699
		c0.212-0.213,0.449-0.396,0.711-0.551c0.262-0.154,0.539-0.271,0.833-0.354s0.598-0.123,0.915-0.123
		c0.397,0,0.729,0.074,0.995,0.219s0.481,0.348,0.644,0.611c0.162,0.262,0.279,0.584,0.352,0.965
		c0.073,0.379,0.108,0.801,0.108,1.264V116.047z"/>
	<path clip-path="url(#SVGID_2_)" fill="#3A1F22" d="M47.372,116.182c-0.514,0-0.989-0.098-1.422-0.291
		c-0.433-0.197-0.808-0.463-1.124-0.803c-0.316-0.34-0.562-0.732-0.738-1.176c-0.176-0.443-0.264-0.92-0.264-1.426
		c0-0.498,0.088-0.967,0.264-1.406c0.176-0.439,0.422-0.824,0.738-1.156c0.316-0.33,0.688-0.592,1.118-0.787
		c0.429-0.195,0.9-0.293,1.415-0.293s0.986,0.098,1.415,0.293s0.797,0.459,1.104,0.795c0.307,0.334,0.546,0.721,0.718,1.154
		c0.171,0.436,0.257,0.898,0.257,1.387c0,0.072-0.002,0.145-0.007,0.217s-0.011,0.123-0.02,0.15h-6.026
		c0.027,0.379,0.115,0.73,0.264,1.053c0.149,0.32,0.339,0.6,0.569,0.836c0.23,0.234,0.497,0.418,0.799,0.551
		c0.303,0.129,0.625,0.195,0.969,0.195c0.235,0,0.465-0.031,0.691-0.094c0.226-0.064,0.433-0.15,0.623-0.26
		c0.19-0.107,0.359-0.242,0.508-0.4c0.149-0.158,0.264-0.332,0.346-0.523l0.799,0.217c-0.108,0.264-0.262,0.502-0.46,0.715
		c-0.198,0.213-0.429,0.398-0.69,0.557s-0.551,0.281-0.867,0.367C48.031,116.139,47.707,116.182,47.372,116.182 M49.973,112.133
		c-0.027-0.381-0.115-0.727-0.264-1.039c-0.149-0.313-0.339-0.582-0.569-0.809s-0.499-0.404-0.806-0.529
		c-0.307-0.127-0.632-0.191-0.975-0.191c-0.343,0-0.668,0.064-0.976,0.191c-0.307,0.125-0.575,0.303-0.806,0.529
		c-0.23,0.227-0.416,0.498-0.555,0.814c-0.14,0.318-0.223,0.662-0.25,1.033H49.973z"/>
	<path clip-path="url(#SVGID_2_)" fill="#3A1F22" d="M61.632,116.047h-0.921v-3.955c0-0.842-0.122-1.453-0.366-1.834
		c-0.244-0.381-0.623-0.57-1.138-0.57c-0.271,0-0.542,0.049-0.813,0.148c-0.271,0.1-0.523,0.24-0.758,0.422s-0.44,0.396-0.616,0.645
		c-0.176,0.25-0.309,0.52-0.399,0.809v4.336h-0.921v-7.08h0.839v1.604c0.145-0.254,0.323-0.486,0.535-0.699
		c0.212-0.213,0.449-0.396,0.711-0.551s0.539-0.271,0.833-0.354c0.293-0.082,0.598-0.123,0.914-0.123
		c0.397,0,0.729,0.074,0.995,0.219c0.267,0.145,0.481,0.348,0.643,0.611c0.163,0.262,0.28,0.584,0.353,0.965
		c0.072,0.379,0.108,0.801,0.108,1.264V116.047z"/>
	<path clip-path="url(#SVGID_2_)" fill="#3A1F22" d="M65.722,116.182c-0.74,0-1.3-0.256-1.679-0.768
		c-0.379-0.512-0.569-1.275-0.569-2.289v-4.158h0.921v3.996c0,1.602,0.546,2.404,1.638,2.404c0.271,0,0.537-0.045,0.799-0.137
		c0.262-0.09,0.504-0.223,0.725-0.395c0.222-0.172,0.42-0.375,0.596-0.609c0.176-0.236,0.319-0.504,0.427-0.803v-4.457h0.921v5.885
		c0,0.252,0.113,0.379,0.338,0.379v0.816c-0.18,0.027-0.307,0.039-0.379,0.039c-0.208,0-0.386-0.063-0.535-0.189
		c-0.148-0.127-0.223-0.285-0.223-0.475v-0.979c-0.316,0.553-0.735,0.98-1.26,1.283C66.918,116.031,66.346,116.182,65.722,116.182"
		/>
	<path clip-path="url(#SVGID_2_)" fill="#3A1F22" d="M82.082,116.047h-0.921v-3.955c0-0.824-0.129-1.432-0.386-1.82
		c-0.257-0.391-0.648-0.584-1.171-0.584c-0.271,0-0.526,0.049-0.766,0.148s-0.46,0.24-0.664,0.422
		c-0.203,0.182-0.381,0.396-0.535,0.645c-0.153,0.25-0.271,0.523-0.352,0.822v4.322h-0.921v-3.955c0-0.842-0.126-1.453-0.379-1.834
		s-0.641-0.57-1.165-0.57c-0.532,0-1.006,0.186-1.421,0.557c-0.416,0.371-0.713,0.859-0.894,1.467v4.336h-0.921v-7.08h0.839v1.604
		c0.289-0.545,0.668-0.967,1.138-1.271c0.47-0.303,0.989-0.455,1.558-0.455c0.596,0,1.074,0.168,1.436,0.504
		c0.361,0.334,0.578,0.773,0.65,1.318c0.659-1.215,1.571-1.822,2.736-1.822c0.388,0,0.72,0.074,0.995,0.219
		c0.275,0.145,0.497,0.35,0.664,0.617s0.289,0.59,0.365,0.965s0.115,0.795,0.115,1.258V116.047z"/>
	<path clip-path="url(#SVGID_2_)" fill="#3A1F22" d="M87.444,116.182c-0.551,0-1.061-0.141-1.53-0.422
		c-0.47-0.279-0.835-0.643-1.097-1.086v1.373h-0.826v-9.92h0.921v4.32c0.316-0.48,0.695-0.867,1.138-1.16
		c0.442-0.295,0.961-0.443,1.557-0.443c0.488,0,0.93,0.104,1.328,0.313c0.396,0.209,0.733,0.488,1.008,0.836
		c0.275,0.35,0.488,0.742,0.637,1.184c0.149,0.438,0.224,0.889,0.224,1.35c0,0.5-0.086,0.971-0.258,1.414
		c-0.171,0.445-0.408,0.832-0.71,1.162c-0.303,0.33-0.659,0.592-1.07,0.789C88.354,116.084,87.914,116.182,87.444,116.182
		 M87.228,115.365c0.388,0,0.743-0.078,1.063-0.236c0.321-0.158,0.597-0.371,0.826-0.639c0.23-0.268,0.411-0.57,0.542-0.91
		c0.131-0.34,0.197-0.691,0.197-1.055c0-0.371-0.061-0.729-0.183-1.072c-0.122-0.344-0.294-0.65-0.515-0.918
		c-0.221-0.268-0.486-0.479-0.792-0.637c-0.307-0.16-0.646-0.238-1.016-0.238c-0.28,0-0.542,0.047-0.785,0.143
		c-0.244,0.096-0.47,0.223-0.677,0.387c-0.208,0.162-0.396,0.352-0.563,0.564c-0.167,0.213-0.305,0.438-0.413,0.672v2.201
		c0.035,0.244,0.133,0.475,0.292,0.686c0.158,0.215,0.35,0.398,0.575,0.551c0.226,0.154,0.465,0.277,0.718,0.367
		C86.75,115.322,86.993,115.365,87.228,115.365"/>
	<path clip-path="url(#SVGID_2_)" fill="#3A1F22" d="M95.421,116.182c-0.514,0-0.989-0.098-1.422-0.291
		c-0.433-0.197-0.808-0.463-1.124-0.803c-0.316-0.34-0.562-0.732-0.738-1.176c-0.176-0.443-0.264-0.92-0.264-1.426
		c0-0.498,0.088-0.967,0.264-1.406c0.176-0.439,0.422-0.824,0.738-1.156c0.316-0.33,0.688-0.592,1.118-0.787
		c0.429-0.195,0.9-0.293,1.415-0.293s0.986,0.098,1.415,0.293s0.797,0.459,1.104,0.795c0.307,0.334,0.546,0.721,0.718,1.154
		c0.171,0.436,0.257,0.898,0.257,1.387c0,0.072-0.002,0.145-0.007,0.217s-0.011,0.123-0.02,0.15h-6.026
		c0.027,0.379,0.115,0.73,0.264,1.053c0.149,0.32,0.339,0.6,0.569,0.836c0.23,0.234,0.497,0.418,0.799,0.551
		c0.303,0.129,0.625,0.195,0.969,0.195c0.235,0,0.465-0.031,0.69-0.094c0.226-0.064,0.433-0.15,0.623-0.26
		c0.19-0.107,0.359-0.242,0.508-0.4s0.264-0.332,0.346-0.523l0.799,0.217c-0.108,0.264-0.262,0.502-0.46,0.715
		s-0.429,0.398-0.69,0.557s-0.551,0.281-0.867,0.367S95.755,116.182,95.421,116.182 M98.021,112.133
		c-0.027-0.381-0.115-0.727-0.264-1.039c-0.149-0.313-0.339-0.582-0.569-0.809s-0.499-0.404-0.806-0.529
		c-0.307-0.127-0.632-0.191-0.975-0.191c-0.343,0-0.668,0.064-0.976,0.191c-0.307,0.125-0.575,0.303-0.806,0.529
		c-0.23,0.227-0.416,0.498-0.555,0.814c-0.14,0.318-0.224,0.662-0.251,1.033H98.021z"/>
	<path clip-path="url(#SVGID_2_)" fill="#3A1F22" d="M103.804,109.781c-0.624,0.018-1.165,0.191-1.625,0.518
		c-0.461,0.326-0.786,0.773-0.976,1.344v4.404h-0.921v-7.08h0.867v1.699c0.244-0.5,0.564-0.914,0.962-1.244
		c0.397-0.332,0.826-0.496,1.287-0.496h0.23c0.073,0,0.131,0.006,0.176,0.014V109.781z"/>
	<polygon clip-path="url(#SVGID_2_)" fill="#3A1F22" points="205.743,90.174 206.637,90.174 203.616,97.252 202.845,97.252 
		201.342,93.639 199.838,97.252 199.066,97.252 196.046,90.174 196.927,90.174 199.5,96.301 200.84,93.068 199.636,90.188 
		200.42,90.188 201.342,92.496 202.248,90.188 203.034,90.188 201.843,93.068 203.184,96.301 	"/>
	<path clip-path="url(#SVGID_2_)" fill="#3A1F22" d="M210.93,97.389c-0.515,0-0.988-0.098-1.423-0.291
		c-0.433-0.195-0.808-0.463-1.123-0.803c-0.316-0.34-0.562-0.732-0.738-1.176s-0.265-0.92-0.265-1.426
		c0-0.498,0.088-0.967,0.265-1.406c0.177-0.441,0.422-0.826,0.738-1.156c0.315-0.33,0.688-0.592,1.116-0.787s0.9-0.293,1.416-0.293
		c0.515,0,0.986,0.098,1.416,0.293c0.429,0.195,0.796,0.459,1.103,0.795c0.308,0.334,0.547,0.721,0.718,1.154
		c0.172,0.436,0.258,0.896,0.258,1.387c0,0.072-0.002,0.145-0.007,0.217s-0.012,0.121-0.021,0.15h-6.026
		c0.027,0.379,0.114,0.73,0.265,1.053c0.148,0.32,0.338,0.6,0.568,0.836c0.23,0.234,0.496,0.418,0.799,0.549
		s0.625,0.197,0.968,0.197c0.235,0,0.466-0.031,0.691-0.094c0.226-0.064,0.433-0.15,0.623-0.26c0.189-0.107,0.358-0.242,0.508-0.4
		c0.148-0.158,0.265-0.332,0.345-0.523l0.799,0.217c-0.107,0.264-0.261,0.502-0.459,0.715c-0.2,0.213-0.431,0.398-0.691,0.557
		c-0.263,0.158-0.551,0.281-0.867,0.367C211.589,97.346,211.264,97.389,210.93,97.389 M213.529,93.34
		c-0.027-0.381-0.114-0.727-0.264-1.039c-0.149-0.314-0.339-0.582-0.569-0.809s-0.498-0.404-0.806-0.529
		c-0.306-0.129-0.631-0.191-0.975-0.191c-0.343,0-0.668,0.063-0.975,0.191c-0.308,0.125-0.576,0.303-0.806,0.529
		c-0.23,0.227-0.416,0.498-0.556,0.814s-0.224,0.662-0.251,1.033H213.529z"/>
	<path clip-path="url(#SVGID_2_)" fill="#3A1F22" d="M219.245,97.389c-0.551,0-1.062-0.141-1.53-0.422
		c-0.47-0.281-0.836-0.643-1.097-1.086v1.371h-0.827v-9.918h0.922v4.32c0.315-0.48,0.694-0.867,1.137-1.16
		c0.442-0.297,0.962-0.443,1.558-0.443c0.487,0,0.931,0.104,1.327,0.313c0.397,0.209,0.734,0.486,1.01,0.836
		s0.486,0.742,0.636,1.184c0.148,0.438,0.224,0.889,0.224,1.35c0,0.5-0.086,0.971-0.257,1.414c-0.172,0.443-0.409,0.832-0.712,1.162
		c-0.302,0.33-0.659,0.592-1.069,0.789C220.154,97.291,219.715,97.389,219.245,97.389 M219.028,96.572
		c0.388,0,0.743-0.078,1.063-0.238c0.319-0.156,0.595-0.369,0.825-0.637s0.411-0.57,0.542-0.91c0.131-0.342,0.196-0.691,0.196-1.055
		c0-0.371-0.061-0.729-0.183-1.072s-0.293-0.65-0.515-0.918s-0.485-0.479-0.792-0.637c-0.307-0.16-0.646-0.24-1.016-0.24
		c-0.28,0-0.542,0.049-0.786,0.145c-0.243,0.096-0.469,0.223-0.678,0.387c-0.207,0.162-0.395,0.352-0.562,0.564
		s-0.305,0.436-0.412,0.672v2.201c0.034,0.244,0.133,0.475,0.291,0.686c0.157,0.213,0.349,0.396,0.575,0.551
		c0.226,0.154,0.465,0.277,0.718,0.367S218.793,96.572,219.028,96.572"/>
	<path clip-path="url(#SVGID_2_)" fill="#3A1F22" d="M226.49,97.389c-0.551,0-1.088-0.09-1.611-0.271s-0.975-0.443-1.354-0.787
		l0.42-0.627c0.397,0.326,0.802,0.57,1.213,0.734c0.41,0.162,0.851,0.244,1.32,0.244c0.568,0,1.022-0.115,1.361-0.346
		c0.338-0.23,0.508-0.559,0.508-0.984c0-0.199-0.045-0.365-0.136-0.498c-0.09-0.129-0.224-0.246-0.4-0.346
		c-0.176-0.1-0.396-0.188-0.663-0.266c-0.267-0.076-0.575-0.156-0.928-0.236c-0.406-0.1-0.759-0.199-1.056-0.299
		c-0.299-0.1-0.545-0.215-0.739-0.34c-0.193-0.127-0.338-0.283-0.433-0.469s-0.143-0.42-0.143-0.699c0-0.354,0.069-0.666,0.21-0.939
		c0.14-0.271,0.329-0.494,0.568-0.672c0.24-0.176,0.52-0.311,0.84-0.4c0.32-0.092,0.661-0.135,1.022-0.135
		c0.543,0,1.034,0.086,1.477,0.264s0.799,0.41,1.069,0.699l-0.446,0.543c-0.262-0.27-0.58-0.475-0.955-0.609
		c-0.375-0.137-0.765-0.205-1.172-0.205c-0.243,0-0.47,0.025-0.677,0.076c-0.207,0.049-0.39,0.129-0.549,0.236
		c-0.157,0.109-0.282,0.248-0.372,0.416c-0.09,0.166-0.135,0.363-0.135,0.59c0,0.189,0.031,0.344,0.095,0.463
		c0.063,0.117,0.167,0.219,0.311,0.305c0.145,0.086,0.328,0.164,0.549,0.23c0.222,0.068,0.489,0.139,0.806,0.211
		c0.452,0.109,0.849,0.217,1.191,0.326c0.344,0.109,0.631,0.236,0.861,0.381s0.403,0.322,0.521,0.529
		c0.116,0.209,0.175,0.463,0.175,0.762c0,0.652-0.248,1.168-0.744,1.549C227.998,97.199,227.33,97.389,226.49,97.389"/>
	<path clip-path="url(#SVGID_2_)" fill="#3A1F22" d="M230.715,87.334h0.922v1.359h-0.922V87.334z M230.715,90.174h0.922v7.078
		h-0.922V90.174z"/>
	<path clip-path="url(#SVGID_2_)" fill="#3A1F22" d="M237.026,96.914c-0.055,0.027-0.133,0.063-0.237,0.107
		c-0.104,0.045-0.223,0.09-0.358,0.137c-0.136,0.045-0.289,0.086-0.461,0.123c-0.172,0.033-0.352,0.053-0.541,0.053
		c-0.199,0-0.389-0.027-0.569-0.082c-0.18-0.053-0.339-0.137-0.475-0.25s-0.243-0.256-0.325-0.428
		c-0.08-0.174-0.121-0.371-0.121-0.6v-5.066h-0.976v-0.734h0.976v-2.393h0.921v2.393h1.625v0.734h-1.625v4.811
		c0.019,0.262,0.108,0.453,0.271,0.576c0.163,0.121,0.357,0.184,0.583,0.184c0.262,0,0.492-0.043,0.69-0.129
		s0.325-0.146,0.379-0.184L237.026,96.914z"/>
	<path clip-path="url(#SVGID_2_)" fill="#3A1F22" d="M241.197,97.389c-0.515,0-0.988-0.098-1.422-0.291
		c-0.433-0.195-0.808-0.463-1.124-0.803s-0.563-0.732-0.738-1.176s-0.264-0.92-0.264-1.426c0-0.498,0.088-0.967,0.264-1.406
		c0.176-0.441,0.422-0.826,0.738-1.156s0.688-0.592,1.117-0.787s0.9-0.293,1.415-0.293s0.986,0.098,1.415,0.293
		s0.797,0.459,1.104,0.795c0.308,0.334,0.547,0.721,0.719,1.154c0.171,0.436,0.257,0.896,0.257,1.387
		c0,0.072-0.002,0.145-0.007,0.217c-0.004,0.072-0.011,0.121-0.02,0.15h-6.027c0.027,0.379,0.115,0.73,0.265,1.053
		c0.148,0.32,0.338,0.6,0.568,0.836c0.23,0.234,0.497,0.418,0.799,0.549c0.303,0.131,0.625,0.197,0.969,0.197
		c0.234,0,0.465-0.031,0.69-0.094c0.226-0.064,0.434-0.15,0.623-0.26c0.189-0.107,0.358-0.242,0.509-0.4
		c0.148-0.158,0.263-0.332,0.345-0.523l0.799,0.217c-0.108,0.264-0.263,0.502-0.461,0.715s-0.429,0.398-0.69,0.557
		s-0.55,0.281-0.866,0.367S241.531,97.389,241.197,97.389 M243.798,93.34c-0.027-0.381-0.115-0.727-0.265-1.039
		c-0.148-0.314-0.338-0.582-0.568-0.809s-0.499-0.404-0.806-0.529c-0.308-0.129-0.633-0.191-0.976-0.191s-0.668,0.063-0.975,0.191
		c-0.307,0.125-0.576,0.303-0.806,0.529c-0.23,0.227-0.416,0.498-0.556,0.814c-0.141,0.316-0.224,0.662-0.25,1.033H243.798z"/>
	<path clip-path="url(#SVGID_2_)" fill="#3A1F22" d="M161.621,114.369c-0.515,0-0.988-0.098-1.422-0.291
		c-0.433-0.195-0.808-0.463-1.124-0.803s-0.562-0.73-0.738-1.174c-0.175-0.445-0.264-0.922-0.264-1.428
		c0-0.498,0.089-0.967,0.264-1.406c0.177-0.439,0.422-0.824,0.738-1.156c0.316-0.33,0.689-0.592,1.118-0.787s0.9-0.293,1.415-0.293
		s0.986,0.098,1.415,0.293s0.797,0.459,1.104,0.795c0.306,0.334,0.545,0.721,0.717,1.154c0.171,0.436,0.257,0.898,0.257,1.387
		c0,0.072-0.002,0.145-0.006,0.217c-0.005,0.072-0.012,0.123-0.021,0.15h-6.026c0.026,0.381,0.115,0.732,0.264,1.053
		c0.148,0.322,0.338,0.6,0.568,0.836c0.23,0.234,0.497,0.418,0.799,0.551c0.304,0.131,0.627,0.195,0.97,0.195
		c0.234,0,0.465-0.031,0.689-0.094c0.226-0.063,0.435-0.15,0.624-0.26c0.189-0.107,0.358-0.242,0.508-0.4
		c0.148-0.158,0.264-0.332,0.345-0.521l0.799,0.217c-0.107,0.262-0.262,0.5-0.46,0.713s-0.429,0.398-0.691,0.557
		c-0.261,0.16-0.55,0.281-0.866,0.367S161.955,114.369,161.621,114.369 M164.223,110.32c-0.028-0.381-0.116-0.727-0.265-1.039
		c-0.149-0.313-0.339-0.582-0.568-0.809c-0.23-0.227-0.5-0.404-0.806-0.529c-0.308-0.127-0.633-0.191-0.976-0.191
		s-0.668,0.064-0.976,0.191c-0.307,0.125-0.575,0.303-0.806,0.529s-0.415,0.498-0.556,0.814c-0.14,0.318-0.223,0.662-0.25,1.033
		H164.223z"/>
	<path clip-path="url(#SVGID_2_)" fill="#3A1F22" d="M176.979,114.234h-0.922v-3.955c0-0.824-0.129-1.43-0.386-1.82
		c-0.258-0.391-0.647-0.584-1.171-0.584c-0.271,0-0.526,0.049-0.766,0.148c-0.24,0.1-0.46,0.24-0.664,0.422
		c-0.203,0.182-0.382,0.396-0.534,0.645c-0.153,0.25-0.271,0.523-0.352,0.822v4.322h-0.922v-3.955c0-0.842-0.127-1.453-0.379-1.834
		c-0.253-0.381-0.642-0.57-1.165-0.57c-0.532,0-1.006,0.186-1.422,0.557c-0.415,0.371-0.713,0.861-0.894,1.467v4.336h-0.922v-7.08
		h0.84v1.604c0.289-0.543,0.668-0.967,1.138-1.27c0.47-0.305,0.988-0.457,1.558-0.457c0.596,0,1.074,0.168,1.436,0.504
		c0.361,0.334,0.578,0.773,0.65,1.318c0.659-1.215,1.57-1.822,2.735-1.822c0.388,0,0.72,0.074,0.995,0.219s0.497,0.35,0.664,0.617
		s0.288,0.59,0.365,0.967c0.077,0.373,0.116,0.793,0.116,1.256V114.234z"/>
	<path clip-path="url(#SVGID_2_)" fill="#3A1F22" d="M180.758,114.369c-0.362,0-0.691-0.057-0.989-0.17
		c-0.299-0.113-0.553-0.27-0.766-0.469c-0.212-0.199-0.377-0.43-0.494-0.691c-0.118-0.264-0.176-0.541-0.176-0.83
		c0-0.326,0.072-0.623,0.217-0.891c0.145-0.266,0.348-0.494,0.609-0.686c0.262-0.189,0.575-0.336,0.941-0.441
		c0.364-0.104,0.77-0.156,1.211-0.156c0.353,0,0.714,0.031,1.084,0.096c0.37,0.063,0.699,0.152,0.988,0.271v-0.639
		c0-0.625-0.178-1.121-0.534-1.488c-0.357-0.367-0.838-0.551-1.443-0.551c-0.379,0-0.756,0.074-1.131,0.219
		c-0.374,0.145-0.756,0.352-1.144,0.625l-0.325-0.611c0.461-0.309,0.907-0.539,1.341-0.693s0.885-0.232,1.354-0.232
		c0.858,0,1.54,0.25,2.046,0.748s0.758,1.188,0.758,2.066v3.193c0,0.252,0.108,0.379,0.325,0.379v0.816
		c-0.072,0.008-0.14,0.016-0.202,0.02c-0.064,0.006-0.118,0.008-0.163,0.008c-0.181,0-0.346-0.055-0.494-0.164
		c-0.149-0.109-0.232-0.271-0.251-0.488l-0.026-0.559c-0.308,0.418-0.711,0.742-1.213,0.973
		C181.779,114.254,181.272,114.369,180.758,114.369 M180.986,113.662c0.407,0,0.812-0.088,1.213-0.264
		c0.402-0.176,0.721-0.42,0.955-0.727c0.063-0.082,0.117-0.172,0.162-0.266c0.045-0.096,0.067-0.184,0.067-0.266v-1.154
		c-0.307-0.117-0.627-0.209-0.961-0.271c-0.334-0.064-0.659-0.096-0.976-0.096c-0.659,0-1.193,0.133-1.604,0.4
		s-0.616,0.637-0.616,1.107c0,0.189,0.036,0.377,0.108,0.557c0.072,0.182,0.183,0.346,0.331,0.49
		c0.15,0.145,0.332,0.262,0.549,0.354C180.433,113.617,180.689,113.662,180.986,113.662"/>
	<path clip-path="url(#SVGID_2_)" fill="#3A1F22" d="M186.309,104.314h0.922v1.359h-0.922V104.314z M186.309,107.154h0.922v7.08
		h-0.922V107.154z"/>
	<path clip-path="url(#SVGID_2_)" fill="#3A1F22" d="M189.248,104.314h0.921v8.316c0,0.262,0.072,0.469,0.217,0.617
		c0.144,0.15,0.348,0.225,0.609,0.225c0.099,0,0.217-0.014,0.353-0.041c0.136-0.025,0.261-0.063,0.379-0.107l0.162,0.746
		c-0.171,0.072-0.381,0.133-0.629,0.176c-0.248,0.047-0.463,0.07-0.644,0.07c-0.425,0-0.759-0.121-1.002-0.361
		c-0.244-0.24-0.366-0.578-0.366-1.012V104.314z"/>
	<path clip-path="url(#SVGID_2_)" fill="#3A1F22" d="M197.738,114.369c-0.361,0-0.69-0.057-0.988-0.17s-0.553-0.27-0.765-0.469
		c-0.213-0.199-0.377-0.43-0.495-0.691c-0.116-0.264-0.175-0.541-0.175-0.83c0-0.326,0.071-0.623,0.216-0.891
		c0.145-0.266,0.349-0.494,0.609-0.686c0.263-0.189,0.575-0.336,0.941-0.441c0.365-0.104,0.771-0.156,1.212-0.156
		c0.352,0,0.713,0.031,1.084,0.096c0.37,0.063,0.699,0.152,0.988,0.271v-0.639c0-0.625-0.179-1.121-0.534-1.488
		c-0.357-0.367-0.838-0.551-1.443-0.551c-0.379,0-0.756,0.074-1.131,0.219c-0.374,0.145-0.756,0.352-1.144,0.625l-0.325-0.611
		c0.46-0.309,0.907-0.539,1.34-0.693c0.434-0.154,0.886-0.232,1.354-0.232c0.857,0,1.54,0.25,2.045,0.748
		c0.506,0.498,0.759,1.188,0.759,2.066v3.193c0,0.252,0.108,0.379,0.324,0.379v0.816c-0.071,0.008-0.139,0.016-0.202,0.02
		c-0.063,0.006-0.117,0.008-0.162,0.008c-0.181,0-0.347-0.055-0.495-0.164s-0.232-0.271-0.25-0.488l-0.027-0.559
		c-0.307,0.418-0.711,0.742-1.212,0.973S198.253,114.369,197.738,114.369 M197.969,113.662c0.407,0,0.811-0.088,1.213-0.264
		c0.4-0.176,0.72-0.42,0.954-0.727c0.063-0.082,0.118-0.172,0.163-0.266c0.045-0.096,0.067-0.184,0.067-0.266v-1.154
		c-0.308-0.117-0.627-0.209-0.961-0.271c-0.335-0.064-0.659-0.096-0.976-0.096c-0.659,0-1.194,0.133-1.604,0.4
		c-0.411,0.268-0.616,0.637-0.616,1.107c0,0.189,0.035,0.377,0.108,0.557c0.071,0.182,0.183,0.346,0.331,0.49
		c0.149,0.145,0.332,0.262,0.549,0.354C197.413,113.617,197.672,113.662,197.969,113.662"/>
	<path clip-path="url(#SVGID_2_)" fill="#3A1F22" d="M206.216,114.369c-0.487,0-0.938-0.102-1.354-0.307
		c-0.415-0.203-0.774-0.473-1.076-0.807c-0.304-0.336-0.538-0.723-0.704-1.162c-0.168-0.439-0.252-0.9-0.252-1.379
		c0-0.498,0.082-0.971,0.245-1.42c0.162-0.449,0.386-0.842,0.67-1.176c0.284-0.336,0.623-0.6,1.017-0.795
		c0.392-0.195,0.822-0.293,1.292-0.293c0.597,0,1.125,0.158,1.585,0.469c0.461,0.314,0.826,0.691,1.097,1.135v-4.32h0.922v8.725
		c0,0.252,0.107,0.379,0.325,0.379v0.816c-0.154,0.025-0.276,0.041-0.366,0.041c-0.226,0-0.412-0.066-0.556-0.197
		c-0.145-0.133-0.217-0.289-0.217-0.469v-0.748c-0.289,0.463-0.67,0.828-1.145,1.1C207.226,114.234,206.73,114.369,206.216,114.369
		 M206.407,113.553c0.234,0,0.48-0.043,0.737-0.135c0.258-0.09,0.497-0.215,0.717-0.373c0.222-0.16,0.413-0.346,0.576-0.557
		c0.162-0.215,0.262-0.441,0.298-0.688v-2.188c-0.09-0.244-0.224-0.473-0.398-0.686c-0.177-0.213-0.375-0.4-0.597-0.564
		c-0.222-0.162-0.456-0.289-0.704-0.381c-0.249-0.09-0.495-0.135-0.738-0.135c-0.379,0-0.725,0.08-1.036,0.244
		c-0.311,0.162-0.575,0.379-0.792,0.645c-0.217,0.268-0.386,0.574-0.508,0.918s-0.183,0.697-0.183,1.061
		c0,0.379,0.067,0.742,0.203,1.086c0.136,0.346,0.32,0.646,0.556,0.904c0.234,0.258,0.512,0.463,0.832,0.619
		C205.69,113.477,206.036,113.553,206.407,113.553"/>
	<path clip-path="url(#SVGID_2_)" fill="#3A1F22" d="M214.654,114.369c-0.487,0-0.939-0.102-1.354-0.307
		c-0.416-0.203-0.774-0.473-1.077-0.807c-0.302-0.336-0.537-0.723-0.704-1.162s-0.25-0.9-0.25-1.379c0-0.498,0.081-0.971,0.243-1.42
		c0.163-0.449,0.386-0.842,0.67-1.176c0.284-0.336,0.624-0.6,1.017-0.795s0.822-0.293,1.293-0.293c0.596,0,1.124,0.158,1.584,0.469
		c0.461,0.314,0.827,0.691,1.097,1.135v-4.32h0.922v8.725c0,0.252,0.107,0.379,0.325,0.379v0.816
		c-0.153,0.025-0.275,0.041-0.366,0.041c-0.226,0-0.412-0.066-0.556-0.197c-0.145-0.133-0.216-0.289-0.216-0.469v-0.748
		c-0.289,0.463-0.67,0.828-1.145,1.1C215.662,114.234,215.169,114.369,214.654,114.369 M214.844,113.553
		c0.234,0,0.48-0.043,0.738-0.135c0.257-0.09,0.496-0.215,0.718-0.373c0.221-0.16,0.413-0.346,0.575-0.557
		c0.163-0.215,0.262-0.441,0.297-0.688v-2.188c-0.089-0.244-0.223-0.473-0.398-0.686c-0.177-0.213-0.375-0.4-0.597-0.564
		c-0.22-0.162-0.455-0.289-0.704-0.381c-0.249-0.09-0.493-0.135-0.737-0.135c-0.379,0-0.725,0.08-1.036,0.244
		c-0.312,0.162-0.576,0.379-0.792,0.645c-0.218,0.268-0.386,0.574-0.508,0.918c-0.123,0.344-0.184,0.697-0.184,1.061
		c0,0.379,0.068,0.742,0.203,1.086c0.136,0.346,0.32,0.646,0.556,0.904c0.234,0.258,0.512,0.463,0.833,0.619
		C214.128,113.477,214.474,113.553,214.844,113.553"/>
	<path clip-path="url(#SVGID_2_)" fill="#3A1F22" d="M223.687,107.969c-0.623,0.018-1.165,0.191-1.625,0.518
		c-0.461,0.326-0.786,0.773-0.976,1.344v4.404h-0.92v-7.08h0.866v1.699c0.243-0.5,0.563-0.914,0.962-1.244
		c0.396-0.33,0.825-0.496,1.286-0.496h0.23c0.071,0,0.131,0.006,0.176,0.014V107.969z"/>
	<path clip-path="url(#SVGID_2_)" fill="#3A1F22" d="M228.006,114.369c-0.515,0-0.988-0.098-1.422-0.291
		c-0.433-0.195-0.808-0.463-1.124-0.803s-0.562-0.73-0.738-1.174c-0.175-0.445-0.264-0.922-0.264-1.428
		c0-0.498,0.089-0.967,0.264-1.406c0.177-0.439,0.422-0.824,0.738-1.156c0.316-0.33,0.688-0.592,1.118-0.787
		c0.429-0.195,0.9-0.293,1.415-0.293s0.986,0.098,1.415,0.293s0.797,0.459,1.103,0.795c0.308,0.334,0.547,0.721,0.719,1.154
		c0.171,0.436,0.257,0.898,0.257,1.387c0,0.072-0.002,0.145-0.007,0.217c-0.004,0.072-0.011,0.123-0.02,0.15h-6.027
		c0.027,0.381,0.115,0.732,0.265,1.053c0.148,0.322,0.338,0.6,0.568,0.836c0.23,0.234,0.497,0.418,0.799,0.551
		c0.304,0.131,0.625,0.195,0.969,0.195c0.235,0,0.466-0.031,0.69-0.094c0.226-0.063,0.434-0.15,0.624-0.26
		c0.189-0.107,0.357-0.242,0.507-0.4s0.265-0.332,0.346-0.521l0.799,0.217c-0.107,0.262-0.262,0.5-0.46,0.713
		c-0.199,0.213-0.429,0.398-0.691,0.557c-0.262,0.16-0.55,0.281-0.866,0.367S228.34,114.369,228.006,114.369 M230.605,110.32
		c-0.026-0.381-0.114-0.727-0.263-1.039c-0.149-0.313-0.339-0.582-0.569-0.809s-0.499-0.404-0.806-0.529
		c-0.308-0.127-0.632-0.191-0.975-0.191s-0.668,0.064-0.976,0.191c-0.307,0.125-0.575,0.303-0.806,0.529s-0.416,0.498-0.556,0.814
		c-0.14,0.318-0.224,0.662-0.25,1.033H230.605z"/>
	<path clip-path="url(#SVGID_2_)" fill="#3A1F22" d="M235.238,114.369c-0.552,0-1.088-0.09-1.611-0.271s-0.976-0.443-1.354-0.787
		l0.42-0.627c0.396,0.326,0.801,0.572,1.212,0.734c0.41,0.164,0.851,0.244,1.32,0.244c0.569,0,1.021-0.113,1.361-0.346
		c0.338-0.23,0.507-0.559,0.507-0.984c0-0.199-0.045-0.365-0.135-0.496c-0.09-0.133-0.224-0.248-0.399-0.348
		c-0.177-0.1-0.397-0.188-0.664-0.264s-0.575-0.156-0.928-0.238c-0.405-0.1-0.758-0.199-1.056-0.299
		c-0.299-0.1-0.545-0.213-0.738-0.34c-0.194-0.127-0.339-0.283-0.434-0.469s-0.142-0.418-0.142-0.699
		c0-0.354,0.069-0.666,0.209-0.938c0.14-0.273,0.33-0.496,0.568-0.674c0.239-0.176,0.52-0.311,0.84-0.4
		c0.321-0.09,0.662-0.137,1.023-0.137c0.541,0,1.033,0.09,1.476,0.266c0.443,0.178,0.799,0.41,1.07,0.701l-0.446,0.543
		c-0.263-0.271-0.581-0.477-0.956-0.613c-0.375-0.135-0.765-0.203-1.171-0.203c-0.244,0-0.47,0.025-0.677,0.076
		c-0.208,0.049-0.391,0.127-0.549,0.238c-0.158,0.107-0.282,0.246-0.373,0.414c-0.09,0.166-0.135,0.363-0.135,0.59
		c0,0.191,0.031,0.344,0.095,0.463c0.063,0.117,0.167,0.219,0.312,0.305s0.327,0.164,0.549,0.23
		c0.222,0.068,0.489,0.139,0.806,0.213c0.451,0.107,0.849,0.215,1.191,0.326c0.344,0.107,0.63,0.234,0.86,0.379
		c0.229,0.145,0.403,0.32,0.521,0.529c0.117,0.209,0.175,0.463,0.175,0.762c0,0.652-0.248,1.168-0.743,1.549
		C236.746,114.18,236.078,114.369,235.238,114.369"/>
	<path clip-path="url(#SVGID_2_)" fill="#3A1F22" d="M241.833,114.369c-0.551,0-1.088-0.09-1.611-0.271s-0.976-0.443-1.354-0.787
		l0.42-0.627c0.396,0.326,0.802,0.572,1.213,0.734c0.409,0.164,0.851,0.244,1.32,0.244c0.568,0,1.021-0.113,1.36-0.346
		c0.339-0.23,0.507-0.559,0.507-0.984c0-0.199-0.044-0.365-0.134-0.496c-0.091-0.133-0.224-0.248-0.4-0.348
		c-0.176-0.1-0.396-0.188-0.663-0.264s-0.575-0.156-0.929-0.238c-0.405-0.1-0.758-0.199-1.056-0.299
		c-0.299-0.1-0.544-0.213-0.738-0.34c-0.193-0.127-0.338-0.283-0.433-0.469s-0.143-0.418-0.143-0.699
		c0-0.354,0.069-0.666,0.209-0.938c0.141-0.273,0.33-0.496,0.569-0.674c0.239-0.176,0.519-0.311,0.84-0.4
		c0.32-0.09,0.661-0.137,1.022-0.137c0.542,0,1.034,0.09,1.476,0.266c0.443,0.178,0.799,0.41,1.07,0.701l-0.446,0.543
		c-0.263-0.271-0.581-0.477-0.955-0.613c-0.375-0.135-0.766-0.203-1.172-0.203c-0.244,0-0.47,0.025-0.677,0.076
		c-0.207,0.049-0.391,0.127-0.549,0.238c-0.157,0.107-0.282,0.246-0.373,0.414c-0.089,0.166-0.134,0.363-0.134,0.59
		c0,0.191,0.03,0.344,0.095,0.463c0.063,0.117,0.166,0.219,0.311,0.305s0.327,0.164,0.549,0.23c0.222,0.068,0.489,0.139,0.806,0.213
		c0.452,0.107,0.849,0.215,1.191,0.326c0.344,0.107,0.631,0.234,0.86,0.379c0.23,0.145,0.404,0.32,0.521,0.529
		s0.176,0.463,0.176,0.762c0,0.652-0.248,1.168-0.744,1.549C243.341,114.18,242.673,114.369,241.833,114.369"/>
</g>
</svg>
