<?xml version="1.0" encoding="utf-8"?>
<!-- Generator: Adobe Illustrator 15.0.2, SVG Export Plug-In . SVG Version: 6.00 Build 0)  -->
<!DOCTYPE svg PUBLIC "-//W3C//DTD SVG 1.1//EN" "http://www.w3.org/Graphics/SVG/1.1/DTD/svg11.dtd">
<svg version="1.1" id="Layer_1" xmlns="http://www.w3.org/2000/svg" xmlns:xlink="http://www.w3.org/1999/xlink" x="0px" y="0px"
	 width="255px" height="123px" viewBox="0 0 255 123" enable-background="new 0 0 255 123" xml:space="preserve">
<g>
	<defs>
		<rect id="SVGID_1_" y="0.185" width="255" height="123"/>
	</defs>
	<clipPath id="SVGID_2_">
		<use xlink:href="#SVGID_1_"  overflow="visible"/>
	</clipPath>
	<path clip-path="url(#SVGID_2_)" fill="#3D5024" d="M9.809,0.185C4.393,0.185,0,4.59,0,10.024v76.063v27.258
		c0,5.435,4.393,9.841,9.808,9.841h24.595h92.126h61.928V0.185H9.809z"/>
	<path clip-path="url(#SVGID_2_)" fill="#E88824" d="M245.193,0.185h-56.736v123.001h56.736c5.416,0,9.807-4.406,9.807-9.841V96.804
		v-86.78C255,4.59,250.609,0.185,245.193,0.185"/>
</g>
<g>
	<path fill="#E88824" d="M128.467,31.286c0.373,0.255,0.853,0.477,1.438,0.664c0.585,0.188,1.242,0.281,1.973,0.281
		c0.916,0,1.649-0.166,2.201-0.498s0.972-0.821,1.26-1.468s0.475-1.443,0.561-2.388c0.084-0.945,0.127-2.021,0.127-3.23v-9.192
		h1.781v9.192c0,1.379-0.063,2.635-0.19,3.767c-0.128,1.132-0.395,2.099-0.802,2.898c-0.407,0.8-1.002,1.421-1.782,1.864
		c-0.78,0.442-1.832,0.664-3.155,0.664c-1.527,0-2.834-0.374-3.92-1.124L128.467,31.286z"/>
	<path fill="#E88824" d="M147.251,33.814c-0.968,0-1.854-0.183-2.66-0.549c-0.806-0.366-1.502-0.864-2.087-1.494
		c-0.585-0.629-1.04-1.362-1.361-2.196c-0.323-0.834-0.484-1.711-0.484-2.63c0-0.936,0.166-1.821,0.497-2.656
		c0.33-0.834,0.789-1.566,1.374-2.196s1.281-1.132,2.087-1.507c0.806-0.374,1.684-0.562,2.635-0.562
		c0.949,0,1.828,0.188,2.634,0.562c0.806,0.375,1.502,0.877,2.087,1.507c0.586,0.63,1.044,1.362,1.375,2.196
		c0.33,0.834,0.496,1.72,0.496,2.656c0,0.919-0.166,1.796-0.496,2.63c-0.331,0.834-0.789,1.566-1.375,2.196
		c-0.585,0.63-1.281,1.128-2.087,1.494C149.079,33.631,148.2,33.814,147.251,33.814z M142.44,26.97c0,0.75,0.123,1.443,0.369,2.082
		c0.245,0.638,0.585,1.2,1.018,1.685c0.433,0.485,0.942,0.864,1.527,1.136c0.585,0.273,1.209,0.409,1.871,0.409
		c0.661,0,1.285-0.14,1.87-0.421c0.586-0.281,1.099-0.664,1.54-1.149s0.789-1.051,1.043-1.698c0.255-0.646,0.382-1.345,0.382-2.094
		c0-0.732-0.127-1.426-0.382-2.081c-0.254-0.655-0.602-1.226-1.043-1.711c-0.441-0.485-0.95-0.868-1.527-1.149
		c-0.577-0.281-1.196-0.421-1.857-0.421c-0.662,0-1.286,0.14-1.871,0.421c-0.585,0.281-1.095,0.668-1.527,1.162
		c-0.433,0.494-0.776,1.068-1.03,1.724C142.567,25.52,142.44,26.222,142.44,26.97z"/>
	<path fill="#E88824" d="M167.814,33.559h-1.73v-7.431c0-1.515-0.259-2.647-0.776-3.396c-0.518-0.749-1.277-1.124-2.278-1.124
		c-0.492,0-0.979,0.098-1.463,0.294c-0.484,0.196-0.938,0.464-1.362,0.804c-0.424,0.341-0.793,0.74-1.106,1.2
		c-0.314,0.459-0.548,0.962-0.7,1.506v8.146h-1.73V14.917h1.73v8.35c0.543-1.004,1.28-1.796,2.214-2.375s1.935-0.868,3.004-0.868
		c0.763,0,1.412,0.14,1.946,0.421c0.535,0.281,0.968,0.672,1.299,1.174c0.33,0.502,0.572,1.107,0.725,1.813
		c0.153,0.707,0.229,1.486,0.229,2.336V33.559z"/>
	<path fill="#E88824" d="M182.551,33.559h-1.73v-7.431c0-1.583-0.229-2.732-0.688-3.447c-0.458-0.715-1.171-1.073-2.138-1.073
		c-0.51,0-1.019,0.094-1.527,0.281c-0.509,0.188-0.984,0.452-1.426,0.792s-0.827,0.745-1.157,1.213
		c-0.331,0.468-0.582,0.975-0.751,1.519v8.146h-1.73V20.254h1.577v3.013c0.271-0.476,0.606-0.915,1.006-1.315
		c0.398-0.4,0.844-0.745,1.336-1.034c0.492-0.289,1.014-0.511,1.565-0.664c0.551-0.153,1.124-0.229,1.718-0.229
		c0.747,0,1.37,0.136,1.871,0.408c0.5,0.273,0.903,0.656,1.209,1.149s0.525,1.098,0.661,1.813s0.204,1.506,0.204,2.375V33.559z"/>
</g>
<g>
	<path fill="#3D5024" d="M193.063,33.559v-18.13h6.108c1.441,0,2.706,0.239,3.792,0.715s1.989,1.124,2.711,1.94
		c0.721,0.817,1.26,1.775,1.616,2.873c0.355,1.098,0.534,2.269,0.534,3.511c0,1.379-0.204,2.626-0.611,3.741
		c-0.407,1.115-0.984,2.068-1.73,2.86c-0.747,0.792-1.654,1.404-2.724,1.838c-1.068,0.434-2.265,0.651-3.588,0.651H193.063z
		 M206.043,24.468c0-1.089-0.152-2.089-0.458-3c-0.305-0.91-0.751-1.698-1.336-2.362s-1.303-1.179-2.15-1.545
		c-0.849-0.366-1.824-0.549-2.927-0.549h-4.353v14.964h4.353c1.119,0,2.107-0.192,2.965-0.575c0.856-0.383,1.573-0.911,2.15-1.583
		s1.014-1.464,1.311-2.375S206.043,25.541,206.043,24.468z"/>
	<path fill="#3D5024" d="M216.631,33.814c-0.968,0-1.854-0.183-2.66-0.549c-0.806-0.366-1.502-0.864-2.087-1.494
		c-0.585-0.629-1.04-1.362-1.361-2.196c-0.323-0.834-0.484-1.711-0.484-2.63c0-0.936,0.166-1.821,0.497-2.656
		c0.33-0.834,0.789-1.566,1.374-2.196s1.281-1.132,2.087-1.507c0.806-0.374,1.684-0.562,2.635-0.562
		c0.949,0,1.828,0.188,2.634,0.562c0.806,0.375,1.502,0.877,2.087,1.507c0.586,0.63,1.044,1.362,1.375,2.196
		c0.33,0.834,0.496,1.72,0.496,2.656c0,0.919-0.166,1.796-0.496,2.63c-0.331,0.834-0.789,1.566-1.375,2.196
		c-0.585,0.63-1.281,1.128-2.087,1.494C218.459,33.631,217.58,33.814,216.631,33.814z M211.82,26.97c0,0.75,0.123,1.443,0.369,2.082
		c0.245,0.638,0.585,1.2,1.018,1.685c0.433,0.485,0.942,0.864,1.527,1.136c0.585,0.273,1.209,0.409,1.871,0.409
		c0.661,0,1.285-0.14,1.87-0.421c0.586-0.281,1.099-0.664,1.54-1.149s0.789-1.051,1.043-1.698c0.255-0.646,0.382-1.345,0.382-2.094
		c0-0.732-0.127-1.426-0.382-2.081c-0.254-0.655-0.602-1.226-1.043-1.711c-0.441-0.485-0.95-0.868-1.527-1.149
		c-0.577-0.281-1.196-0.421-1.857-0.421c-0.662,0-1.286,0.14-1.871,0.421c-0.585,0.281-1.095,0.668-1.527,1.162
		c-0.433,0.494-0.776,1.068-1.03,1.724C211.947,25.52,211.82,26.222,211.82,26.97z"/>
	<path fill="#3D5024" d="M231.851,33.814c-0.968,0-1.858-0.183-2.673-0.549c-0.814-0.366-1.519-0.869-2.112-1.507
		s-1.057-1.375-1.387-2.209c-0.331-0.833-0.497-1.728-0.497-2.681c0-0.936,0.166-1.817,0.497-2.643
		c0.33-0.826,0.793-1.549,1.387-2.171c0.594-0.621,1.294-1.115,2.1-1.481c0.806-0.366,1.692-0.549,2.66-0.549
		c0.967,0,1.854,0.183,2.659,0.549c0.806,0.366,1.497,0.864,2.074,1.494c0.577,0.63,1.026,1.354,1.35,2.171
		c0.321,0.817,0.483,1.685,0.483,2.604c0,0.136-0.005,0.272-0.013,0.409c-0.009,0.136-0.021,0.229-0.038,0.281h-11.326
		c0.051,0.715,0.216,1.375,0.496,1.979c0.28,0.604,0.637,1.128,1.069,1.57c0.433,0.443,0.933,0.788,1.501,1.034
		c0.568,0.247,1.175,0.371,1.82,0.371c0.441,0,0.874-0.06,1.298-0.179c0.424-0.119,0.814-0.281,1.171-0.485
		c0.356-0.205,0.675-0.456,0.954-0.753c0.28-0.298,0.497-0.625,0.649-0.983l1.502,0.408c-0.204,0.494-0.493,0.941-0.866,1.341
		c-0.373,0.4-0.806,0.75-1.298,1.047c-0.492,0.298-1.035,0.528-1.629,0.689S232.478,33.814,231.851,33.814z M236.737,26.205
		c-0.051-0.715-0.217-1.366-0.496-1.954c-0.28-0.587-0.637-1.094-1.069-1.52c-0.433-0.425-0.938-0.757-1.515-0.996
		s-1.188-0.358-1.832-0.358c-0.646,0-1.256,0.12-1.833,0.358s-1.081,0.57-1.514,0.996c-0.434,0.426-0.781,0.937-1.044,1.532
		c-0.264,0.596-0.42,1.243-0.471,1.941H236.737z"/>
</g>
<g>
	<defs>
		<rect id="SVGID_3_" y="0.185" width="255" height="123"/>
	</defs>
	<clipPath id="SVGID_4_">
		<use xlink:href="#SVGID_3_"  overflow="visible"/>
	</clipPath>
	<path clip-path="url(#SVGID_4_)" fill="#E88824" d="M47.411,69.552c0,2.705-0.546,5.28-1.534,7.622
		c-0.987,2.343-2.417,4.453-4.184,6.226C39.927,85.17,29.874,97.844,27.54,98.833c1.642-5.897,3.051-9.699,0.354-9.699
		c-10.779,0-19.516-8.767-19.516-19.582c0-10.813,8.737-19.579,19.516-19.579S47.411,58.739,47.411,69.552"/>
</g>
<g>
	<path fill="#E88824" d="M122.021,49.693c0-0.58,0.102-1.157,0.305-1.732c0.203-0.575,0.499-1.089,0.888-1.542
		c0.388-0.453,0.866-0.822,1.436-1.107c0.568-0.285,1.214-0.428,1.937-0.428c0.857,0,1.589,0.195,2.193,0.584
		c0.604,0.39,1.057,0.897,1.354,1.522l-0.759,0.462c-0.153-0.317-0.338-0.584-0.555-0.802s-0.452-0.394-0.704-0.53
		c-0.253-0.136-0.515-0.233-0.786-0.292c-0.271-0.059-0.537-0.088-0.799-0.088c-0.578,0-1.088,0.118-1.53,0.353
		c-0.442,0.236-0.814,0.543-1.117,0.924s-0.53,0.809-0.684,1.284c-0.154,0.476-0.23,0.958-0.23,1.447
		c0,0.534,0.093,1.046,0.277,1.535c0.186,0.489,0.438,0.922,0.759,1.298s0.699,0.675,1.138,0.896
		c0.438,0.222,0.914,0.333,1.429,0.333c0.271,0,0.548-0.034,0.833-0.102c0.284-0.068,0.56-0.177,0.826-0.326
		c0.266-0.149,0.512-0.335,0.737-0.557c0.226-0.222,0.415-0.491,0.569-0.808l0.785,0.408c-0.153,0.362-0.37,0.682-0.65,0.958
		c-0.279,0.276-0.591,0.51-0.934,0.7c-0.344,0.19-0.707,0.335-1.091,0.435s-0.761,0.149-1.131,0.149
		c-0.659,0-1.264-0.145-1.814-0.435c-0.551-0.29-1.024-0.667-1.422-1.134c-0.397-0.466-0.707-0.997-0.928-1.59
		C122.131,50.914,122.021,50.31,122.021,49.693z"/>
	<path fill="#E88824" d="M134.765,54.721c-0.515,0-0.987-0.097-1.416-0.292s-0.799-0.459-1.11-0.795
		c-0.312-0.335-0.553-0.725-0.725-1.168c-0.171-0.444-0.257-0.91-0.257-1.399c0-0.498,0.088-0.969,0.264-1.413
		c0.177-0.444,0.42-0.833,0.731-1.168s0.682-0.603,1.11-0.802s0.896-0.299,1.402-0.299c0.505,0,0.973,0.1,1.401,0.299
		s0.799,0.467,1.11,0.802s0.556,0.725,0.731,1.168s0.264,0.915,0.264,1.413c0,0.489-0.088,0.956-0.264,1.399
		s-0.42,0.833-0.731,1.168c-0.312,0.335-0.682,0.6-1.11,0.795S135.27,54.721,134.765,54.721z M132.205,51.08
		c0,0.398,0.065,0.768,0.196,1.107c0.131,0.339,0.312,0.638,0.541,0.896c0.23,0.258,0.501,0.46,0.813,0.604
		c0.312,0.145,0.644,0.218,0.996,0.218c0.352,0,0.684-0.075,0.995-0.224c0.312-0.15,0.584-0.354,0.819-0.612
		c0.234-0.258,0.42-0.559,0.556-0.903c0.135-0.344,0.203-0.715,0.203-1.114c0-0.389-0.068-0.759-0.203-1.107
		c-0.136-0.349-0.321-0.652-0.556-0.91c-0.235-0.258-0.506-0.462-0.813-0.612c-0.307-0.149-0.637-0.224-0.988-0.224
		c-0.353,0-0.685,0.075-0.996,0.224c-0.312,0.15-0.582,0.356-0.813,0.619s-0.413,0.568-0.548,0.917
		C132.272,50.307,132.205,50.681,132.205,51.08z"/>
	<path fill="#E88824" d="M150.271,54.585h-0.921v-3.954c0-0.824-0.129-1.431-0.386-1.82c-0.258-0.39-0.648-0.584-1.172-0.584
		c-0.271,0-0.526,0.05-0.765,0.149c-0.24,0.1-0.461,0.24-0.664,0.421s-0.382,0.396-0.535,0.645c-0.153,0.25-0.271,0.523-0.352,0.822
		v4.321h-0.921v-3.954c0-0.842-0.127-1.454-0.38-1.834s-0.641-0.571-1.164-0.571c-0.533,0-1.007,0.186-1.422,0.557
		c-0.416,0.372-0.714,0.861-0.895,1.467v4.334h-0.921v-7.079h0.84v1.604c0.289-0.543,0.668-0.967,1.138-1.271
		c0.47-0.303,0.988-0.455,1.558-0.455c0.596,0,1.074,0.167,1.436,0.502c0.36,0.335,0.577,0.774,0.649,1.318
		c0.659-1.213,1.571-1.82,2.736-1.82c0.388,0,0.72,0.072,0.995,0.217s0.496,0.351,0.664,0.618c0.167,0.267,0.288,0.589,0.365,0.965
		c0.076,0.376,0.115,0.795,0.115,1.257V54.585z"/>
	<path fill="#E88824" d="M155.796,54.721c-0.596,0-1.124-0.151-1.584-0.455c-0.461-0.303-0.831-0.686-1.111-1.148v4.361h-0.921
		v-9.973h0.826v1.373c0.289-0.444,0.664-0.804,1.124-1.081c0.461-0.276,0.962-0.414,1.504-0.414c0.487,0,0.937,0.102,1.347,0.306
		c0.411,0.204,0.766,0.476,1.063,0.815c0.298,0.34,0.53,0.732,0.697,1.175c0.167,0.444,0.251,0.902,0.251,1.373
		c0,0.498-0.077,0.969-0.23,1.413s-0.372,0.833-0.657,1.168c-0.284,0.335-0.622,0.6-1.016,0.795
		C156.696,54.624,156.266,54.721,155.796,54.721z M155.539,53.906c0.379,0,0.722-0.082,1.029-0.245
		c0.307-0.163,0.57-0.378,0.792-0.646c0.221-0.267,0.391-0.571,0.508-0.91c0.117-0.34,0.176-0.691,0.176-1.053
		c0-0.38-0.067-0.743-0.203-1.087s-0.32-0.647-0.556-0.911c-0.234-0.262-0.512-0.471-0.832-0.625
		c-0.321-0.154-0.666-0.231-1.036-0.231c-0.235,0-0.479,0.048-0.731,0.143c-0.253,0.095-0.492,0.222-0.718,0.381
		c-0.226,0.158-0.418,0.344-0.575,0.557c-0.158,0.213-0.256,0.437-0.292,0.672v2.174c0.108,0.254,0.246,0.489,0.413,0.707
		c0.167,0.218,0.356,0.406,0.569,0.564c0.212,0.159,0.442,0.283,0.69,0.374C155.021,53.86,155.276,53.906,155.539,53.906z"/>
	<path fill="#E88824" d="M162.377,54.721c-0.361,0-0.69-0.057-0.988-0.17c-0.298-0.113-0.554-0.269-0.766-0.469
		c-0.212-0.199-0.377-0.43-0.494-0.693s-0.176-0.539-0.176-0.829c0-0.326,0.072-0.623,0.217-0.89
		c0.144-0.267,0.347-0.496,0.609-0.686c0.262-0.19,0.575-0.337,0.941-0.442c0.365-0.104,0.77-0.156,1.212-0.156
		c0.352,0,0.713,0.032,1.083,0.095c0.37,0.063,0.699,0.154,0.988,0.272v-0.639c0-0.625-0.178-1.121-0.534-1.488
		c-0.357-0.367-0.838-0.55-1.442-0.55c-0.38,0-0.757,0.073-1.131,0.217c-0.375,0.145-0.757,0.354-1.145,0.625l-0.325-0.611
		c0.461-0.308,0.907-0.539,1.341-0.693s0.885-0.231,1.354-0.231c0.857,0,1.539,0.249,2.045,0.747
		c0.506,0.499,0.758,1.187,0.758,2.065v3.193c0,0.254,0.108,0.38,0.325,0.38v0.815c-0.072,0.009-0.14,0.016-0.203,0.021
		c-0.063,0.004-0.117,0.007-0.162,0.007c-0.181,0-0.346-0.055-0.494-0.163c-0.149-0.109-0.232-0.272-0.251-0.489l-0.027-0.557
		c-0.307,0.417-0.711,0.741-1.212,0.972S162.892,54.721,162.377,54.721z M162.607,54.014c0.406,0,0.811-0.088,1.212-0.265
		c0.401-0.177,0.72-0.419,0.955-0.727c0.063-0.082,0.117-0.17,0.162-0.265s0.067-0.183,0.067-0.265v-1.155
		c-0.307-0.118-0.627-0.208-0.961-0.271s-0.659-0.095-0.976-0.095c-0.659,0-1.193,0.134-1.604,0.401s-0.616,0.636-0.616,1.107
		c0,0.19,0.036,0.376,0.108,0.557s0.183,0.344,0.332,0.489c0.148,0.145,0.332,0.263,0.548,0.354
		C162.052,53.969,162.31,54.014,162.607,54.014z"/>
	<path fill="#E88824" d="M173.861,54.585h-0.921v-3.954c0-0.842-0.121-1.454-0.365-1.834s-0.623-0.571-1.138-0.571
		c-0.271,0-0.542,0.05-0.813,0.149s-0.523,0.24-0.759,0.421c-0.234,0.181-0.439,0.396-0.616,0.645
		c-0.176,0.25-0.309,0.519-0.399,0.809v4.334h-0.921v-7.079h0.84v1.604c0.145-0.253,0.323-0.487,0.535-0.7s0.449-0.396,0.711-0.55
		c0.262-0.154,0.539-0.272,0.833-0.354c0.293-0.082,0.598-0.122,0.914-0.122c0.397,0,0.729,0.072,0.995,0.217
		s0.481,0.349,0.644,0.611s0.279,0.584,0.352,0.965s0.108,0.802,0.108,1.264V54.585z"/>
	<path fill="#E88824" d="M176.041,56.772c0.046,0.009,0.091,0.016,0.136,0.021c0.045,0.004,0.09,0.007,0.136,0.007
		c0.09,0,0.188-0.009,0.291-0.027s0.178-0.036,0.224-0.054c0.045-0.019,0.092-0.057,0.142-0.116s0.113-0.163,0.189-0.313
		c0.077-0.149,0.174-0.358,0.292-0.625c0.117-0.267,0.266-0.627,0.446-1.08l-3.074-7.079h0.962l2.613,6.223l2.411-6.223h0.88
		l-3.67,9.131c-0.136,0.335-0.318,0.584-0.549,0.747c-0.229,0.163-0.553,0.245-0.968,0.245c-0.172,0-0.325-0.014-0.461-0.041V56.772
		z"/>
</g>
<g>
	<path fill="#E88824" d="M133.776,69.681v-9.647h3.981c0.415,0,0.797,0.088,1.145,0.265c0.348,0.177,0.647,0.408,0.9,0.693
		c0.253,0.285,0.449,0.609,0.59,0.971c0.14,0.362,0.209,0.729,0.209,1.101c0,0.398-0.065,0.781-0.196,1.148
		c-0.131,0.366-0.318,0.69-0.562,0.972c-0.244,0.28-0.535,0.507-0.874,0.679c-0.338,0.173-0.715,0.259-1.131,0.259h-3.128v3.56
		H133.776z M134.711,65.278h3.074c0.279,0,0.535-0.062,0.765-0.184c0.23-0.122,0.427-0.285,0.59-0.489
		c0.162-0.203,0.289-0.438,0.379-0.706s0.136-0.546,0.136-0.836c0-0.299-0.053-0.582-0.156-0.849c-0.104-0.268-0.243-0.501-0.42-0.7
		c-0.176-0.199-0.384-0.355-0.623-0.469s-0.489-0.17-0.751-0.17h-2.993V65.278z"/>
	<path fill="#E88824" d="M144.841,69.816c-0.515,0-0.987-0.098-1.416-0.292s-0.799-0.46-1.11-0.795s-0.553-0.725-0.725-1.169
		c-0.171-0.443-0.257-0.91-0.257-1.399c0-0.498,0.088-0.969,0.264-1.413c0.177-0.443,0.42-0.833,0.731-1.168s0.682-0.603,1.11-0.802
		s0.896-0.299,1.402-0.299c0.505,0,0.973,0.1,1.401,0.299s0.799,0.467,1.11,0.802s0.556,0.725,0.731,1.168
		c0.176,0.444,0.264,0.915,0.264,1.413c0,0.489-0.088,0.956-0.264,1.399c-0.176,0.444-0.42,0.834-0.731,1.169
		s-0.682,0.601-1.11,0.795S145.346,69.816,144.841,69.816z M142.281,66.175c0,0.399,0.065,0.768,0.196,1.107
		s0.312,0.639,0.541,0.897c0.23,0.258,0.501,0.459,0.813,0.604c0.312,0.145,0.644,0.217,0.996,0.217
		c0.352,0,0.684-0.074,0.995-0.224s0.584-0.354,0.819-0.611c0.234-0.259,0.42-0.56,0.556-0.904c0.135-0.344,0.203-0.715,0.203-1.114
		c0-0.389-0.068-0.758-0.203-1.106c-0.136-0.349-0.321-0.652-0.556-0.911c-0.235-0.258-0.506-0.462-0.813-0.611
		s-0.637-0.224-0.988-0.224c-0.353,0-0.685,0.074-0.996,0.224s-0.582,0.355-0.813,0.618s-0.413,0.568-0.548,0.917
		C142.349,65.403,142.281,65.776,142.281,66.175z"/>
	<path fill="#E88824" d="M152.221,69.816c-0.551,0-1.088-0.091-1.611-0.271c-0.523-0.182-0.976-0.443-1.354-0.788l0.42-0.625
		c0.397,0.326,0.801,0.57,1.212,0.733s0.852,0.245,1.32,0.245c0.569,0,1.022-0.116,1.361-0.347c0.339-0.231,0.508-0.56,0.508-0.985
		c0-0.199-0.045-0.364-0.136-0.496c-0.09-0.131-0.223-0.246-0.399-0.347c-0.176-0.099-0.397-0.188-0.663-0.265
		c-0.267-0.077-0.576-0.156-0.928-0.237c-0.406-0.1-0.759-0.199-1.057-0.299s-0.544-0.213-0.738-0.34s-0.338-0.283-0.433-0.469
		s-0.143-0.419-0.143-0.7c0-0.354,0.069-0.666,0.21-0.938c0.14-0.271,0.329-0.496,0.568-0.673c0.239-0.176,0.52-0.31,0.84-0.4
		s0.661-0.136,1.022-0.136c0.542,0,1.034,0.088,1.477,0.265s0.799,0.41,1.069,0.7l-0.446,0.543c-0.263-0.271-0.58-0.476-0.955-0.611
		s-0.765-0.204-1.172-0.204c-0.243,0-0.469,0.025-0.677,0.075s-0.391,0.129-0.549,0.237c-0.157,0.109-0.282,0.247-0.372,0.415
		s-0.136,0.364-0.136,0.591c0,0.19,0.032,0.345,0.095,0.462c0.063,0.118,0.167,0.22,0.312,0.306s0.327,0.163,0.549,0.231
		c0.222,0.067,0.489,0.138,0.806,0.21c0.451,0.109,0.849,0.218,1.192,0.326c0.343,0.109,0.629,0.236,0.859,0.381
		s0.404,0.321,0.521,0.529c0.117,0.209,0.176,0.463,0.176,0.762c0,0.651-0.248,1.168-0.744,1.549
		C153.729,69.626,153.061,69.816,152.221,69.816z"/>
	<path fill="#E88824" d="M156.446,61.121v-1.359h0.921v1.359H156.446z M156.446,69.681v-7.079h0.921v7.079H156.446z"/>
	<path fill="#E88824" d="M162.758,69.341c-0.054,0.027-0.133,0.063-0.237,0.108c-0.104,0.046-0.223,0.091-0.358,0.137
		c-0.136,0.045-0.289,0.086-0.461,0.122c-0.171,0.036-0.352,0.054-0.541,0.054c-0.199,0-0.389-0.026-0.569-0.081
		s-0.339-0.138-0.474-0.251c-0.136-0.113-0.244-0.256-0.325-0.429c-0.081-0.172-0.122-0.371-0.122-0.598v-5.068h-0.975v-0.733h0.975
		V60.21h0.921v2.391h1.625v0.733h-1.625v4.811c0.019,0.263,0.108,0.455,0.271,0.577c0.162,0.122,0.356,0.184,0.582,0.184
		c0.262,0,0.492-0.043,0.69-0.129s0.325-0.147,0.379-0.184L162.758,69.341z"/>
	<path fill="#E88824" d="M163.84,61.121v-1.359h0.921v1.359H163.84z M163.84,69.681v-7.079h0.921v7.079H163.84z"/>
	<path fill="#E88824" d="M169.786,69.816c-0.515,0-0.987-0.098-1.416-0.292s-0.799-0.46-1.11-0.795s-0.553-0.725-0.725-1.169
		c-0.171-0.443-0.257-0.91-0.257-1.399c0-0.498,0.088-0.969,0.264-1.413c0.177-0.443,0.42-0.833,0.731-1.168s0.682-0.603,1.11-0.802
		s0.896-0.299,1.402-0.299c0.505,0,0.973,0.1,1.401,0.299s0.799,0.467,1.11,0.802s0.556,0.725,0.731,1.168
		c0.176,0.444,0.264,0.915,0.264,1.413c0,0.489-0.088,0.956-0.264,1.399c-0.176,0.444-0.42,0.834-0.731,1.169
		s-0.682,0.601-1.11,0.795S170.291,69.816,169.786,69.816z M167.227,66.175c0,0.399,0.065,0.768,0.196,1.107
		s0.312,0.639,0.541,0.897c0.23,0.258,0.501,0.459,0.813,0.604c0.312,0.145,0.644,0.217,0.996,0.217
		c0.352,0,0.684-0.074,0.995-0.224s0.584-0.354,0.819-0.611c0.234-0.259,0.42-0.56,0.556-0.904c0.135-0.344,0.203-0.715,0.203-1.114
		c0-0.389-0.068-0.758-0.203-1.106c-0.136-0.349-0.321-0.652-0.556-0.911c-0.235-0.258-0.506-0.462-0.813-0.611
		s-0.637-0.224-0.988-0.224c-0.353,0-0.685,0.074-0.996,0.224s-0.582,0.355-0.813,0.618s-0.413,0.568-0.548,0.917
		C167.294,65.403,167.227,65.776,167.227,66.175z"/>
	<path fill="#E88824" d="M180.728,69.681h-0.921v-3.954c0-0.842-0.121-1.454-0.365-1.834c-0.244-0.381-0.623-0.571-1.138-0.571
		c-0.271,0-0.542,0.051-0.813,0.15s-0.523,0.239-0.759,0.421c-0.234,0.181-0.439,0.396-0.616,0.646
		c-0.176,0.249-0.309,0.519-0.399,0.809v4.334h-0.921v-7.079h0.84v1.604c0.145-0.254,0.323-0.487,0.535-0.7s0.449-0.396,0.711-0.55
		s0.539-0.271,0.833-0.354c0.293-0.081,0.598-0.122,0.914-0.122c0.397,0,0.729,0.072,0.995,0.217
		c0.267,0.146,0.481,0.35,0.644,0.612s0.279,0.584,0.352,0.964c0.072,0.381,0.108,0.802,0.108,1.264V69.681z"/>
</g>
<g>
	<path fill="#E88824" d="M130.093,84.776l4.022-9.647h0.771l4.022,9.647h-1.016l-1.246-3.017h-4.32l-1.232,3.017H130.093z
		 M134.508,76.243l-1.978,4.77h3.9L134.508,76.243z"/>
	<path fill="#E88824" d="M142.782,84.912c-0.487,0-0.939-0.102-1.354-0.306s-0.774-0.474-1.076-0.809
		c-0.303-0.335-0.538-0.722-0.705-1.161s-0.25-0.899-0.25-1.38c0-0.498,0.081-0.971,0.243-1.42c0.163-0.448,0.387-0.84,0.671-1.175
		s0.623-0.6,1.016-0.795c0.393-0.194,0.824-0.292,1.293-0.292c0.597,0,1.124,0.156,1.585,0.469c0.46,0.313,0.826,0.69,1.097,1.135
		v-4.321h0.921v8.724c0,0.253,0.108,0.38,0.325,0.38v0.815c-0.153,0.027-0.275,0.041-0.365,0.041c-0.227,0-0.411-0.065-0.556-0.197
		c-0.145-0.131-0.217-0.287-0.217-0.469v-0.747c-0.289,0.462-0.67,0.828-1.145,1.101C143.791,84.776,143.297,84.912,142.782,84.912z
		 M142.972,84.097c0.234,0,0.48-0.045,0.738-0.136c0.257-0.09,0.496-0.215,0.718-0.373c0.221-0.159,0.413-0.345,0.575-0.558
		c0.163-0.213,0.262-0.441,0.298-0.687v-2.188c-0.09-0.244-0.224-0.473-0.399-0.686s-0.375-0.401-0.596-0.564
		c-0.222-0.163-0.456-0.289-0.704-0.38c-0.249-0.091-0.494-0.136-0.738-0.136c-0.379,0-0.725,0.081-1.036,0.244
		s-0.575,0.378-0.792,0.646s-0.386,0.573-0.508,0.917c-0.122,0.345-0.183,0.698-0.183,1.06c0,0.381,0.067,0.743,0.203,1.087
		c0.135,0.345,0.32,0.646,0.555,0.904c0.234,0.258,0.513,0.464,0.833,0.618S142.602,84.097,142.972,84.097z"/>
	<path fill="#E88824" d="M151.22,84.912c-0.487,0-0.939-0.102-1.354-0.306s-0.774-0.474-1.076-0.809
		c-0.303-0.335-0.538-0.722-0.705-1.161s-0.25-0.899-0.25-1.38c0-0.498,0.081-0.971,0.243-1.42c0.163-0.448,0.387-0.84,0.671-1.175
		s0.623-0.6,1.016-0.795c0.393-0.194,0.824-0.292,1.293-0.292c0.597,0,1.124,0.156,1.585,0.469c0.46,0.313,0.826,0.69,1.097,1.135
		v-4.321h0.921v8.724c0,0.253,0.108,0.38,0.325,0.38v0.815c-0.153,0.027-0.275,0.041-0.365,0.041c-0.227,0-0.411-0.065-0.556-0.197
		c-0.145-0.131-0.217-0.287-0.217-0.469v-0.747c-0.289,0.462-0.67,0.828-1.145,1.101C152.229,84.776,151.734,84.912,151.22,84.912z
		 M151.409,84.097c0.234,0,0.48-0.045,0.738-0.136c0.257-0.09,0.496-0.215,0.718-0.373c0.221-0.159,0.413-0.345,0.575-0.558
		c0.163-0.213,0.262-0.441,0.298-0.687v-2.188c-0.09-0.244-0.224-0.473-0.399-0.686s-0.375-0.401-0.596-0.564
		c-0.222-0.163-0.456-0.289-0.704-0.38c-0.249-0.091-0.494-0.136-0.738-0.136c-0.379,0-0.725,0.081-1.036,0.244
		s-0.575,0.378-0.792,0.646s-0.386,0.573-0.508,0.917c-0.122,0.345-0.183,0.698-0.183,1.06c0,0.381,0.067,0.743,0.203,1.087
		c0.135,0.345,0.32,0.646,0.555,0.904c0.234,0.258,0.513,0.464,0.833,0.618S151.039,84.097,151.409,84.097z"/>
	<path fill="#E88824" d="M160.252,78.513c-0.623,0.019-1.165,0.19-1.625,0.517c-0.461,0.326-0.785,0.774-0.976,1.345v4.402h-0.921
		v-7.079h0.867v1.698c0.244-0.498,0.564-0.912,0.961-1.243c0.397-0.33,0.826-0.496,1.287-0.496c0.081,0,0.158,0,0.23,0
		s0.131,0.005,0.176,0.014V78.513z"/>
	<path fill="#E88824" d="M164.572,84.912c-0.515,0-0.988-0.098-1.422-0.292s-0.808-0.462-1.124-0.802s-0.562-0.731-0.738-1.175
		c-0.176-0.444-0.264-0.92-0.264-1.427c0-0.498,0.088-0.967,0.264-1.406c0.177-0.439,0.422-0.824,0.738-1.155
		s0.688-0.593,1.117-0.788c0.429-0.194,0.9-0.292,1.415-0.292s0.986,0.098,1.416,0.292c0.429,0.195,0.796,0.46,1.104,0.795
		c0.307,0.335,0.546,0.72,0.718,1.155c0.171,0.435,0.257,0.896,0.257,1.386c0,0.072-0.002,0.145-0.007,0.217
		c-0.004,0.073-0.011,0.123-0.021,0.149h-6.026c0.027,0.381,0.115,0.732,0.265,1.054c0.148,0.321,0.338,0.6,0.568,0.835
		c0.23,0.236,0.497,0.42,0.799,0.551c0.303,0.131,0.625,0.197,0.969,0.197c0.234,0,0.465-0.032,0.69-0.096s0.434-0.149,0.623-0.258
		s0.359-0.242,0.508-0.401c0.149-0.158,0.265-0.332,0.346-0.522l0.799,0.217c-0.108,0.264-0.262,0.501-0.461,0.714
		c-0.198,0.213-0.429,0.398-0.69,0.557c-0.262,0.159-0.551,0.281-0.866,0.367C165.231,84.869,164.906,84.912,164.572,84.912z
		 M167.173,80.863c-0.027-0.381-0.115-0.727-0.265-1.039c-0.148-0.313-0.338-0.582-0.568-0.809s-0.499-0.403-0.806-0.53
		c-0.308-0.127-0.632-0.19-0.976-0.19c-0.343,0-0.668,0.063-0.975,0.19c-0.308,0.127-0.576,0.304-0.806,0.53
		c-0.23,0.227-0.416,0.498-0.556,0.814c-0.14,0.317-0.224,0.662-0.25,1.033H167.173z"/>
	<path fill="#E88824" d="M171.804,84.912c-0.551,0-1.088-0.091-1.611-0.271c-0.523-0.182-0.976-0.443-1.354-0.788l0.42-0.625
		c0.397,0.326,0.801,0.57,1.212,0.733s0.852,0.245,1.32,0.245c0.569,0,1.022-0.116,1.361-0.347c0.339-0.231,0.508-0.56,0.508-0.985
		c0-0.199-0.045-0.364-0.136-0.496c-0.09-0.131-0.223-0.246-0.399-0.347c-0.176-0.099-0.397-0.188-0.663-0.265
		c-0.267-0.077-0.576-0.156-0.928-0.237c-0.406-0.1-0.759-0.199-1.057-0.299s-0.544-0.213-0.738-0.34s-0.338-0.283-0.433-0.469
		s-0.143-0.419-0.143-0.7c0-0.354,0.069-0.666,0.21-0.938c0.14-0.271,0.329-0.496,0.568-0.673c0.239-0.176,0.52-0.31,0.84-0.4
		s0.661-0.136,1.022-0.136c0.542,0,1.034,0.088,1.477,0.265s0.799,0.41,1.069,0.7l-0.446,0.543c-0.263-0.271-0.58-0.476-0.955-0.611
		s-0.765-0.204-1.172-0.204c-0.243,0-0.469,0.025-0.677,0.075s-0.391,0.129-0.549,0.237c-0.157,0.109-0.282,0.247-0.372,0.415
		s-0.136,0.364-0.136,0.591c0,0.19,0.032,0.345,0.095,0.462c0.063,0.118,0.167,0.22,0.312,0.306s0.327,0.163,0.549,0.231
		c0.222,0.067,0.489,0.138,0.806,0.21c0.451,0.109,0.849,0.218,1.192,0.326c0.343,0.109,0.629,0.236,0.859,0.381
		s0.404,0.321,0.521,0.529c0.117,0.209,0.176,0.463,0.176,0.762c0,0.651-0.248,1.168-0.744,1.549
		C173.312,84.722,172.644,84.912,171.804,84.912z"/>
	<path fill="#E88824" d="M178.398,84.912c-0.551,0-1.088-0.091-1.611-0.271c-0.523-0.182-0.976-0.443-1.354-0.788l0.42-0.625
		c0.397,0.326,0.801,0.57,1.212,0.733s0.852,0.245,1.32,0.245c0.569,0,1.022-0.116,1.361-0.347c0.339-0.231,0.508-0.56,0.508-0.985
		c0-0.199-0.045-0.364-0.136-0.496c-0.09-0.131-0.223-0.246-0.399-0.347c-0.176-0.099-0.397-0.188-0.663-0.265
		c-0.267-0.077-0.576-0.156-0.928-0.237c-0.406-0.1-0.759-0.199-1.057-0.299s-0.544-0.213-0.738-0.34s-0.338-0.283-0.433-0.469
		s-0.143-0.419-0.143-0.7c0-0.354,0.069-0.666,0.21-0.938c0.14-0.271,0.329-0.496,0.568-0.673c0.239-0.176,0.52-0.31,0.84-0.4
		s0.661-0.136,1.022-0.136c0.542,0,1.034,0.088,1.477,0.265s0.799,0.41,1.069,0.7l-0.446,0.543c-0.263-0.271-0.58-0.476-0.955-0.611
		s-0.765-0.204-1.172-0.204c-0.243,0-0.469,0.025-0.677,0.075s-0.391,0.129-0.549,0.237c-0.157,0.109-0.282,0.247-0.372,0.415
		s-0.136,0.364-0.136,0.591c0,0.19,0.032,0.345,0.095,0.462c0.063,0.118,0.167,0.22,0.312,0.306s0.327,0.163,0.549,0.231
		c0.222,0.067,0.489,0.138,0.806,0.21c0.451,0.109,0.849,0.218,1.192,0.326c0.343,0.109,0.629,0.236,0.859,0.381
		s0.404,0.321,0.521,0.529c0.117,0.209,0.176,0.463,0.176,0.762c0,0.651-0.248,1.168-0.744,1.549
		C179.906,84.722,179.238,84.912,178.398,84.912z"/>
</g>
<g>
	<path fill="#E88824" d="M130.093,99.939l4.022-9.647h0.771l4.022,9.647h-1.016l-1.246-3.017h-4.32l-1.232,3.017H130.093z
		 M134.508,91.406l-1.978,4.77h3.9L134.508,91.406z"/>
	<path fill="#E88824" d="M142.782,100.075c-0.487,0-0.939-0.102-1.354-0.306s-0.774-0.474-1.076-0.809
		c-0.303-0.335-0.538-0.722-0.705-1.161s-0.25-0.899-0.25-1.38c0-0.498,0.081-0.971,0.243-1.42c0.163-0.448,0.387-0.84,0.671-1.175
		s0.623-0.6,1.016-0.795c0.393-0.194,0.824-0.292,1.293-0.292c0.597,0,1.124,0.156,1.585,0.469c0.46,0.313,0.826,0.69,1.097,1.135
		v-4.321h0.921v8.724c0,0.253,0.108,0.38,0.325,0.38v0.815c-0.153,0.027-0.275,0.041-0.365,0.041c-0.227,0-0.411-0.065-0.556-0.197
		c-0.145-0.131-0.217-0.287-0.217-0.469v-0.747c-0.289,0.462-0.67,0.828-1.145,1.101
		C143.791,99.939,143.297,100.075,142.782,100.075z M142.972,99.26c0.234,0,0.48-0.045,0.738-0.136
		c0.257-0.09,0.496-0.215,0.718-0.373c0.221-0.159,0.413-0.345,0.575-0.558c0.163-0.213,0.262-0.441,0.298-0.687v-2.188
		c-0.09-0.244-0.224-0.473-0.399-0.686s-0.375-0.401-0.596-0.564c-0.222-0.163-0.456-0.289-0.704-0.38
		c-0.249-0.091-0.494-0.136-0.738-0.136c-0.379,0-0.725,0.081-1.036,0.244s-0.575,0.378-0.792,0.646s-0.386,0.573-0.508,0.917
		c-0.122,0.345-0.183,0.698-0.183,1.06c0,0.381,0.067,0.743,0.203,1.087c0.135,0.345,0.32,0.646,0.555,0.904
		c0.234,0.258,0.513,0.464,0.833,0.618S142.602,99.26,142.972,99.26z"/>
	<path fill="#E88824" d="M151.22,100.075c-0.487,0-0.939-0.102-1.354-0.306s-0.774-0.474-1.076-0.809
		c-0.303-0.335-0.538-0.722-0.705-1.161s-0.25-0.899-0.25-1.38c0-0.498,0.081-0.971,0.243-1.42c0.163-0.448,0.387-0.84,0.671-1.175
		s0.623-0.6,1.016-0.795c0.393-0.194,0.824-0.292,1.293-0.292c0.597,0,1.124,0.156,1.585,0.469c0.46,0.313,0.826,0.69,1.097,1.135
		v-4.321h0.921v8.724c0,0.253,0.108,0.38,0.325,0.38v0.815c-0.153,0.027-0.275,0.041-0.365,0.041c-0.227,0-0.411-0.065-0.556-0.197
		c-0.145-0.131-0.217-0.287-0.217-0.469v-0.747c-0.289,0.462-0.67,0.828-1.145,1.101C152.229,99.939,151.734,100.075,151.22,100.075
		z M151.409,99.26c0.234,0,0.48-0.045,0.738-0.136c0.257-0.09,0.496-0.215,0.718-0.373c0.221-0.159,0.413-0.345,0.575-0.558
		c0.163-0.213,0.262-0.441,0.298-0.687v-2.188c-0.09-0.244-0.224-0.473-0.399-0.686s-0.375-0.401-0.596-0.564
		c-0.222-0.163-0.456-0.289-0.704-0.38c-0.249-0.091-0.494-0.136-0.738-0.136c-0.379,0-0.725,0.081-1.036,0.244
		s-0.575,0.378-0.792,0.646s-0.386,0.573-0.508,0.917c-0.122,0.345-0.183,0.698-0.183,1.06c0,0.381,0.067,0.743,0.203,1.087
		c0.135,0.345,0.32,0.646,0.555,0.904c0.234,0.258,0.513,0.464,0.833,0.618S151.039,99.26,151.409,99.26z"/>
	<path fill="#E88824" d="M160.252,93.676c-0.623,0.019-1.165,0.19-1.625,0.517c-0.461,0.326-0.785,0.774-0.976,1.345v4.402h-0.921
		V92.86h0.867v1.698c0.244-0.498,0.564-0.912,0.961-1.243c0.397-0.33,0.826-0.496,1.287-0.496c0.081,0,0.158,0,0.23,0
		s0.131,0.005,0.176,0.014V93.676z"/>
	<path fill="#E88824" d="M164.572,100.075c-0.515,0-0.988-0.098-1.422-0.292s-0.808-0.462-1.124-0.802s-0.562-0.731-0.738-1.175
		c-0.176-0.444-0.264-0.92-0.264-1.427c0-0.498,0.088-0.967,0.264-1.406c0.177-0.439,0.422-0.824,0.738-1.155
		s0.688-0.593,1.117-0.788c0.429-0.194,0.9-0.292,1.415-0.292s0.986,0.098,1.416,0.292c0.429,0.195,0.796,0.46,1.104,0.795
		c0.307,0.335,0.546,0.72,0.718,1.155c0.171,0.435,0.257,0.896,0.257,1.386c0,0.072-0.002,0.145-0.007,0.217
		c-0.004,0.073-0.011,0.123-0.021,0.149h-6.026c0.027,0.381,0.115,0.732,0.265,1.054c0.148,0.321,0.338,0.6,0.568,0.835
		c0.23,0.236,0.497,0.42,0.799,0.551c0.303,0.131,0.625,0.197,0.969,0.197c0.234,0,0.465-0.032,0.69-0.096s0.434-0.149,0.623-0.258
		s0.359-0.242,0.508-0.401c0.149-0.158,0.265-0.332,0.346-0.522l0.799,0.217c-0.108,0.264-0.262,0.501-0.461,0.714
		c-0.198,0.213-0.429,0.398-0.69,0.557c-0.262,0.159-0.551,0.281-0.866,0.367C165.231,100.032,164.906,100.075,164.572,100.075z
		 M167.173,96.026c-0.027-0.381-0.115-0.727-0.265-1.039c-0.148-0.313-0.338-0.582-0.568-0.809s-0.499-0.403-0.806-0.53
		c-0.308-0.127-0.632-0.19-0.976-0.19c-0.343,0-0.668,0.063-0.975,0.19c-0.308,0.127-0.576,0.304-0.806,0.53
		c-0.23,0.227-0.416,0.498-0.556,0.814c-0.14,0.317-0.224,0.662-0.25,1.033H167.173z"/>
	<path fill="#E88824" d="M171.804,100.075c-0.551,0-1.088-0.091-1.611-0.271c-0.523-0.182-0.976-0.443-1.354-0.788l0.42-0.625
		c0.397,0.326,0.801,0.57,1.212,0.733s0.852,0.245,1.32,0.245c0.569,0,1.022-0.116,1.361-0.347c0.339-0.231,0.508-0.56,0.508-0.985
		c0-0.199-0.045-0.364-0.136-0.496c-0.09-0.131-0.223-0.246-0.399-0.347c-0.176-0.099-0.397-0.188-0.663-0.265
		c-0.267-0.077-0.576-0.156-0.928-0.237c-0.406-0.1-0.759-0.199-1.057-0.299s-0.544-0.213-0.738-0.34s-0.338-0.283-0.433-0.469
		s-0.143-0.419-0.143-0.7c0-0.354,0.069-0.666,0.21-0.938c0.14-0.271,0.329-0.496,0.568-0.673c0.239-0.176,0.52-0.31,0.84-0.4
		s0.661-0.136,1.022-0.136c0.542,0,1.034,0.088,1.477,0.265s0.799,0.41,1.069,0.7l-0.446,0.543c-0.263-0.271-0.58-0.476-0.955-0.611
		s-0.765-0.204-1.172-0.204c-0.243,0-0.469,0.025-0.677,0.075s-0.391,0.129-0.549,0.237c-0.157,0.109-0.282,0.247-0.372,0.415
		s-0.136,0.364-0.136,0.591c0,0.19,0.032,0.345,0.095,0.462c0.063,0.118,0.167,0.22,0.312,0.306s0.327,0.163,0.549,0.231
		c0.222,0.067,0.489,0.138,0.806,0.21c0.451,0.109,0.849,0.218,1.192,0.326c0.343,0.109,0.629,0.236,0.859,0.381
		s0.404,0.321,0.521,0.529c0.117,0.209,0.176,0.463,0.176,0.762c0,0.651-0.248,1.168-0.744,1.549
		C173.312,99.885,172.644,100.075,171.804,100.075z"/>
	<path fill="#E88824" d="M178.398,100.075c-0.551,0-1.088-0.091-1.611-0.271c-0.523-0.182-0.976-0.443-1.354-0.788l0.42-0.625
		c0.397,0.326,0.801,0.57,1.212,0.733s0.852,0.245,1.32,0.245c0.569,0,1.022-0.116,1.361-0.347c0.339-0.231,0.508-0.56,0.508-0.985
		c0-0.199-0.045-0.364-0.136-0.496c-0.09-0.131-0.223-0.246-0.399-0.347c-0.176-0.099-0.397-0.188-0.663-0.265
		c-0.267-0.077-0.576-0.156-0.928-0.237c-0.406-0.1-0.759-0.199-1.057-0.299s-0.544-0.213-0.738-0.34s-0.338-0.283-0.433-0.469
		s-0.143-0.419-0.143-0.7c0-0.354,0.069-0.666,0.21-0.938c0.14-0.271,0.329-0.496,0.568-0.673c0.239-0.176,0.52-0.31,0.84-0.4
		s0.661-0.136,1.022-0.136c0.542,0,1.034,0.088,1.477,0.265s0.799,0.41,1.069,0.7l-0.446,0.543c-0.263-0.271-0.58-0.476-0.955-0.611
		s-0.765-0.204-1.172-0.204c-0.243,0-0.469,0.025-0.677,0.075s-0.391,0.129-0.549,0.237c-0.157,0.109-0.282,0.247-0.372,0.415
		s-0.136,0.364-0.136,0.591c0,0.19,0.032,0.345,0.095,0.462c0.063,0.118,0.167,0.22,0.312,0.306s0.327,0.163,0.549,0.231
		c0.222,0.067,0.489,0.138,0.806,0.21c0.451,0.109,0.849,0.218,1.192,0.326c0.343,0.109,0.629,0.236,0.859,0.381
		s0.404,0.321,0.521,0.529c0.117,0.209,0.176,0.463,0.176,0.762c0,0.651-0.248,1.168-0.744,1.549
		C179.906,99.885,179.238,100.075,178.398,100.075z"/>
</g>
<g>
	<path fill="#E88824" d="M90.236,115.239v-9.647h3.981c0.416,0,0.797,0.089,1.145,0.266s0.648,0.407,0.901,0.692
		c0.252,0.285,0.449,0.609,0.589,0.972c0.14,0.362,0.21,0.729,0.21,1.101c0,0.398-0.065,0.781-0.196,1.148
		c-0.131,0.366-0.318,0.69-0.562,0.972c-0.244,0.28-0.535,0.507-0.874,0.679c-0.339,0.173-0.716,0.259-1.131,0.259h-3.128v3.56
		H90.236z M91.171,110.837h3.074c0.28,0,0.535-0.062,0.765-0.184c0.23-0.122,0.427-0.285,0.589-0.489
		c0.163-0.203,0.289-0.438,0.379-0.706s0.135-0.546,0.135-0.836c0-0.299-0.052-0.582-0.156-0.849
		c-0.104-0.268-0.244-0.501-0.419-0.7c-0.176-0.199-0.384-0.355-0.623-0.469s-0.49-0.17-0.751-0.17h-2.993V110.837z"/>
	<path fill="#E88824" d="M104.348,115.239h-0.921v-3.954c0-0.806-0.138-1.408-0.413-1.807s-0.68-0.599-1.212-0.599
		c-0.262,0-0.521,0.053-0.779,0.156c-0.257,0.104-0.499,0.247-0.725,0.429c-0.226,0.181-0.422,0.394-0.589,0.639
		c-0.167,0.244-0.291,0.512-0.372,0.802v4.334h-0.921v-9.919h0.921v4.443c0.289-0.534,0.682-0.956,1.178-1.264
		c0.496-0.308,1.029-0.462,1.598-0.462c0.406,0,0.751,0.074,1.036,0.224c0.285,0.149,0.515,0.358,0.691,0.625
		c0.176,0.268,0.305,0.589,0.386,0.965c0.082,0.376,0.122,0.791,0.122,1.243V115.239z"/>
	<path fill="#E88824" d="M109.304,115.375c-0.515,0-0.986-0.098-1.415-0.292c-0.429-0.194-0.799-0.46-1.11-0.795
		c-0.312-0.335-0.553-0.725-0.725-1.169c-0.172-0.443-0.257-0.91-0.257-1.399c0-0.498,0.088-0.969,0.264-1.413
		c0.176-0.443,0.419-0.833,0.731-1.168s0.682-0.603,1.111-0.802c0.429-0.199,0.896-0.299,1.401-0.299s0.973,0.1,1.402,0.299
		c0.429,0.199,0.799,0.467,1.11,0.802s0.555,0.725,0.731,1.168c0.176,0.444,0.264,0.915,0.264,1.413
		c0,0.489-0.088,0.956-0.264,1.399c-0.176,0.444-0.42,0.834-0.731,1.169s-0.682,0.601-1.11,0.795
		C110.277,115.277,109.81,115.375,109.304,115.375z M106.745,111.733c0,0.399,0.065,0.768,0.196,1.107s0.312,0.639,0.542,0.897
		c0.23,0.258,0.501,0.459,0.813,0.604c0.312,0.145,0.643,0.217,0.995,0.217c0.353,0,0.684-0.074,0.996-0.224
		s0.584-0.354,0.819-0.611c0.235-0.259,0.42-0.56,0.555-0.904c0.136-0.344,0.203-0.715,0.203-1.114c0-0.389-0.067-0.758-0.203-1.106
		c-0.135-0.349-0.32-0.652-0.555-0.911c-0.235-0.258-0.506-0.462-0.813-0.611c-0.307-0.149-0.637-0.224-0.989-0.224
		s-0.684,0.074-0.995,0.224s-0.583,0.355-0.813,0.618c-0.23,0.263-0.413,0.568-0.548,0.917
		C106.813,110.962,106.745,111.335,106.745,111.733z"/>
	<path fill="#E88824" d="M120.246,115.239h-0.921v-3.954c0-0.842-0.121-1.454-0.365-1.834c-0.244-0.381-0.623-0.571-1.138-0.571
		c-0.271,0-0.542,0.051-0.813,0.15s-0.523,0.239-0.759,0.421c-0.234,0.181-0.439,0.396-0.616,0.646
		c-0.176,0.249-0.309,0.519-0.399,0.809v4.334h-0.921v-7.079h0.84v1.604c0.145-0.254,0.323-0.487,0.535-0.7s0.449-0.396,0.711-0.55
		s0.539-0.271,0.833-0.354c0.293-0.081,0.598-0.122,0.914-0.122c0.397,0,0.729,0.072,0.995,0.217
		c0.267,0.146,0.481,0.35,0.644,0.612s0.279,0.584,0.352,0.964c0.072,0.381,0.108,0.802,0.108,1.264V115.239z"/>
	<path fill="#E88824" d="M125.244,115.375c-0.515,0-0.988-0.098-1.422-0.292s-0.808-0.462-1.124-0.802s-0.562-0.731-0.738-1.175
		c-0.176-0.444-0.264-0.92-0.264-1.427c0-0.498,0.088-0.967,0.264-1.406c0.177-0.439,0.422-0.824,0.738-1.155
		s0.688-0.593,1.117-0.788c0.429-0.194,0.9-0.292,1.415-0.292s0.986,0.098,1.416,0.292c0.429,0.195,0.796,0.46,1.104,0.795
		c0.307,0.335,0.546,0.72,0.718,1.155c0.171,0.435,0.257,0.896,0.257,1.386c0,0.072-0.002,0.145-0.007,0.217
		c-0.004,0.073-0.011,0.123-0.021,0.149h-6.026c0.027,0.381,0.115,0.732,0.265,1.054c0.148,0.321,0.338,0.6,0.568,0.835
		c0.23,0.236,0.497,0.42,0.799,0.551c0.303,0.131,0.625,0.197,0.969,0.197c0.234,0,0.465-0.032,0.69-0.096s0.434-0.149,0.623-0.258
		s0.359-0.242,0.508-0.401c0.149-0.158,0.265-0.332,0.346-0.522l0.799,0.217c-0.108,0.264-0.262,0.501-0.461,0.714
		c-0.198,0.213-0.429,0.398-0.69,0.557c-0.262,0.159-0.551,0.281-0.866,0.367C125.903,115.332,125.578,115.375,125.244,115.375z
		 M127.845,111.326c-0.027-0.381-0.115-0.727-0.265-1.039c-0.148-0.313-0.338-0.582-0.568-0.809s-0.499-0.403-0.806-0.53
		c-0.308-0.127-0.632-0.19-0.976-0.19c-0.343,0-0.668,0.063-0.975,0.19c-0.308,0.127-0.576,0.304-0.806,0.53
		c-0.23,0.227-0.416,0.498-0.556,0.814c-0.14,0.317-0.224,0.662-0.25,1.033H127.845z"/>
	<path fill="#E88824" d="M139.504,115.239h-0.921v-3.954c0-0.842-0.121-1.454-0.365-1.834c-0.244-0.381-0.623-0.571-1.138-0.571
		c-0.271,0-0.542,0.051-0.813,0.15s-0.523,0.239-0.759,0.421c-0.234,0.181-0.439,0.396-0.616,0.646
		c-0.176,0.249-0.309,0.519-0.399,0.809v4.334h-0.921v-7.079h0.84v1.604c0.145-0.254,0.323-0.487,0.535-0.7s0.449-0.396,0.711-0.55
		s0.539-0.271,0.833-0.354c0.293-0.081,0.598-0.122,0.914-0.122c0.397,0,0.729,0.072,0.995,0.217
		c0.267,0.146,0.481,0.35,0.644,0.612s0.279,0.584,0.352,0.964c0.072,0.381,0.108,0.802,0.108,1.264V115.239z"/>
	<path fill="#E88824" d="M143.594,115.375c-0.74,0-1.3-0.256-1.68-0.768c-0.379-0.512-0.568-1.274-0.568-2.289v-4.158h0.921v3.995
		c0,1.603,0.546,2.404,1.639,2.404c0.271,0,0.537-0.045,0.799-0.136c0.262-0.09,0.503-0.222,0.725-0.394s0.42-0.376,0.596-0.611
		c0.177-0.236,0.318-0.503,0.427-0.802v-4.457h0.921v5.884c0,0.253,0.113,0.38,0.339,0.38v0.815
		c-0.181,0.027-0.308,0.041-0.379,0.041c-0.208,0-0.387-0.063-0.535-0.19c-0.149-0.127-0.224-0.285-0.224-0.476v-0.979
		c-0.316,0.553-0.736,0.98-1.26,1.284S144.217,115.375,143.594,115.375z"/>
	<path fill="#E88824" d="M159.954,115.239h-0.921v-3.954c0-0.824-0.129-1.431-0.386-1.82c-0.258-0.39-0.648-0.585-1.172-0.585
		c-0.271,0-0.526,0.051-0.765,0.15c-0.24,0.1-0.461,0.239-0.664,0.421c-0.203,0.181-0.382,0.396-0.535,0.646
		s-0.271,0.522-0.352,0.822v4.32h-0.921v-3.954c0-0.842-0.127-1.454-0.38-1.834c-0.253-0.381-0.641-0.571-1.164-0.571
		c-0.533,0-1.007,0.187-1.422,0.558c-0.416,0.371-0.714,0.86-0.895,1.468v4.334h-0.921v-7.079h0.84v1.604
		c0.289-0.544,0.668-0.967,1.138-1.271s0.988-0.455,1.558-0.455c0.596,0,1.074,0.168,1.436,0.503
		c0.36,0.335,0.577,0.774,0.649,1.317c0.659-1.214,1.571-1.82,2.736-1.82c0.388,0,0.72,0.072,0.995,0.217
		c0.275,0.146,0.496,0.352,0.664,0.619c0.167,0.267,0.288,0.589,0.365,0.964c0.076,0.376,0.115,0.795,0.115,1.257V115.239z"/>
	<path fill="#E88824" d="M165.316,115.375c-0.551,0-1.062-0.141-1.53-0.421c-0.47-0.281-0.836-0.644-1.098-1.087v1.372h-0.826
		v-9.919h0.921v4.321c0.316-0.48,0.695-0.867,1.138-1.162c0.442-0.294,0.962-0.441,1.558-0.441c0.487,0,0.93,0.104,1.327,0.313
		s0.733,0.487,1.009,0.836s0.487,0.742,0.637,1.182s0.224,0.89,0.224,1.352c0,0.499-0.086,0.97-0.258,1.413
		c-0.171,0.444-0.408,0.832-0.711,1.162c-0.303,0.331-0.659,0.594-1.069,0.788C166.226,115.277,165.785,115.375,165.316,115.375z
		 M165.1,114.56c0.388,0,0.742-0.079,1.063-0.237s0.597-0.371,0.826-0.639c0.23-0.268,0.411-0.57,0.542-0.91
		s0.196-0.691,0.196-1.054c0-0.371-0.061-0.729-0.183-1.073c-0.122-0.344-0.294-0.649-0.515-0.917
		c-0.222-0.267-0.485-0.479-0.792-0.639c-0.308-0.158-0.646-0.237-1.016-0.237c-0.28,0-0.542,0.047-0.786,0.143
		c-0.243,0.095-0.47,0.224-0.677,0.387c-0.208,0.163-0.396,0.352-0.563,0.564s-0.305,0.437-0.413,0.672v2.201
		c0.036,0.245,0.134,0.474,0.292,0.687c0.157,0.213,0.35,0.396,0.575,0.551c0.226,0.153,0.465,0.276,0.718,0.366
		C164.621,114.515,164.864,114.56,165.1,114.56z"/>
	<path fill="#E88824" d="M173.293,115.375c-0.515,0-0.988-0.098-1.422-0.292s-0.808-0.462-1.124-0.802s-0.562-0.731-0.738-1.175
		c-0.176-0.444-0.264-0.92-0.264-1.427c0-0.498,0.088-0.967,0.264-1.406c0.177-0.439,0.422-0.824,0.738-1.155
		s0.688-0.593,1.117-0.788c0.429-0.194,0.9-0.292,1.415-0.292s0.986,0.098,1.416,0.292c0.429,0.195,0.796,0.46,1.104,0.795
		c0.307,0.335,0.546,0.72,0.718,1.155c0.171,0.435,0.257,0.896,0.257,1.386c0,0.072-0.002,0.145-0.007,0.217
		c-0.004,0.073-0.011,0.123-0.021,0.149h-6.026c0.027,0.381,0.115,0.732,0.265,1.054c0.148,0.321,0.338,0.6,0.568,0.835
		c0.23,0.236,0.497,0.42,0.799,0.551c0.303,0.131,0.625,0.197,0.969,0.197c0.234,0,0.465-0.032,0.69-0.096s0.434-0.149,0.623-0.258
		s0.359-0.242,0.508-0.401c0.149-0.158,0.265-0.332,0.346-0.522l0.799,0.217c-0.108,0.264-0.262,0.501-0.461,0.714
		c-0.198,0.213-0.429,0.398-0.69,0.557c-0.262,0.159-0.551,0.281-0.866,0.367C173.952,115.332,173.627,115.375,173.293,115.375z
		 M175.894,111.326c-0.027-0.381-0.115-0.727-0.265-1.039c-0.148-0.313-0.338-0.582-0.568-0.809s-0.499-0.403-0.806-0.53
		c-0.308-0.127-0.632-0.19-0.976-0.19c-0.343,0-0.668,0.063-0.975,0.19c-0.308,0.127-0.576,0.304-0.806,0.53
		c-0.23,0.227-0.416,0.498-0.556,0.814c-0.14,0.317-0.224,0.662-0.25,1.033H175.894z"/>
	<path fill="#E88824" d="M181.676,108.976c-0.623,0.019-1.165,0.19-1.625,0.517c-0.461,0.326-0.785,0.774-0.976,1.345v4.402h-0.921
		v-7.079h0.867v1.698c0.244-0.498,0.564-0.912,0.961-1.243c0.397-0.33,0.826-0.496,1.287-0.496c0.081,0,0.158,0,0.23,0
		s0.131,0.005,0.176,0.014V108.976z"/>
</g>
<g>
	<path fill="#E88824" d="M18.311,9.38h0.894l-3.02,7.079h-0.772l-1.503-3.614l-1.503,3.614h-0.771L8.614,9.38h0.88l2.573,6.128
		l1.341-3.234l-1.206-2.88h0.786l0.921,2.31l0.907-2.31h0.786l-1.192,2.88l1.341,3.234L18.311,9.38z"/>
	<path fill="#E88824" d="M23.497,16.595c-0.515,0-0.988-0.097-1.422-0.292c-0.433-0.195-0.808-0.462-1.124-0.802
		c-0.316-0.339-0.562-0.731-0.738-1.175c-0.176-0.444-0.264-0.919-0.264-1.427c0-0.498,0.088-0.967,0.264-1.406
		c0.176-0.439,0.422-0.824,0.738-1.155s0.688-0.593,1.117-0.788s0.901-0.292,1.416-0.292s0.986,0.097,1.415,0.292
		s0.797,0.46,1.104,0.795c0.307,0.335,0.546,0.72,0.718,1.155c0.171,0.435,0.257,0.897,0.257,1.386c0,0.073-0.002,0.145-0.006,0.218
		c-0.005,0.072-0.012,0.122-0.021,0.149h-6.026c0.027,0.38,0.115,0.731,0.264,1.053c0.149,0.322,0.339,0.601,0.569,0.836
		c0.23,0.235,0.497,0.419,0.799,0.55c0.302,0.131,0.625,0.197,0.968,0.197c0.234,0,0.465-0.032,0.69-0.095
		c0.226-0.063,0.434-0.149,0.623-0.258c0.19-0.109,0.359-0.242,0.508-0.401c0.149-0.158,0.264-0.333,0.346-0.523l0.799,0.217
		c-0.108,0.263-0.262,0.5-0.46,0.713c-0.199,0.213-0.429,0.398-0.691,0.557c-0.262,0.158-0.551,0.281-0.867,0.367
		S23.831,16.595,23.497,16.595z M26.098,12.546c-0.027-0.38-0.115-0.727-0.264-1.04s-0.339-0.582-0.569-0.809
		c-0.23-0.226-0.499-0.403-0.806-0.53c-0.307-0.126-0.632-0.19-0.975-0.19c-0.343,0-0.668,0.063-0.975,0.19
		c-0.307,0.127-0.576,0.304-0.806,0.53c-0.23,0.227-0.415,0.499-0.555,0.815c-0.14,0.317-0.223,0.661-0.25,1.033H26.098z"/>
	<path fill="#E88824" d="M31.813,16.595c-0.551,0-1.061-0.14-1.53-0.421c-0.47-0.281-0.835-0.643-1.097-1.087v1.373h-0.826V6.54
		h0.921v4.321c0.316-0.48,0.695-0.867,1.137-1.162s0.962-0.441,1.558-0.441c0.488,0,0.93,0.104,1.327,0.313s0.733,0.487,1.009,0.835
		s0.488,0.743,0.637,1.182s0.224,0.89,0.224,1.352c0,0.498-0.086,0.969-0.257,1.413c-0.172,0.444-0.409,0.831-0.711,1.162
		c-0.303,0.331-0.659,0.593-1.07,0.788C32.722,16.498,32.282,16.595,31.813,16.595z M31.596,15.78c0.388,0,0.743-0.08,1.063-0.238
		c0.32-0.159,0.596-0.372,0.826-0.639c0.23-0.267,0.411-0.571,0.542-0.911c0.131-0.339,0.196-0.69,0.196-1.053
		c0-0.372-0.061-0.729-0.183-1.074c-0.122-0.344-0.293-0.649-0.515-0.917c-0.221-0.267-0.485-0.48-0.792-0.639
		c-0.307-0.158-0.646-0.238-1.016-0.238c-0.28,0-0.542,0.048-0.786,0.143c-0.244,0.095-0.469,0.225-0.677,0.388
		c-0.208,0.163-0.395,0.351-0.562,0.563c-0.167,0.213-0.305,0.438-0.413,0.673v2.201c0.036,0.245,0.133,0.473,0.291,0.686
		c0.158,0.213,0.35,0.396,0.576,0.55c0.226,0.154,0.465,0.276,0.718,0.367C31.117,15.734,31.361,15.78,31.596,15.78z"/>
	<path fill="#E88824" d="M39.071,16.595c-0.551,0-1.088-0.09-1.611-0.271c-0.524-0.181-0.975-0.444-1.354-0.788l0.42-0.625
		c0.397,0.326,0.801,0.57,1.212,0.733c0.411,0.163,0.851,0.245,1.321,0.245c0.569,0,1.022-0.115,1.361-0.346s0.508-0.56,0.508-0.985
		c0-0.199-0.045-0.364-0.135-0.496c-0.09-0.131-0.224-0.247-0.399-0.347c-0.176-0.1-0.397-0.188-0.664-0.265
		c-0.267-0.077-0.576-0.156-0.928-0.238c-0.406-0.1-0.758-0.199-1.057-0.299c-0.298-0.1-0.544-0.213-0.738-0.34
		c-0.194-0.126-0.339-0.283-0.434-0.469c-0.095-0.186-0.142-0.418-0.142-0.7c0-0.353,0.07-0.666,0.21-0.938
		c0.14-0.271,0.33-0.496,0.569-0.672c0.239-0.177,0.519-0.31,0.839-0.401c0.321-0.09,0.662-0.136,1.022-0.136
		c0.542,0,1.034,0.088,1.477,0.265c0.442,0.177,0.799,0.41,1.07,0.7l-0.447,0.543c-0.262-0.271-0.58-0.475-0.955-0.611
		c-0.375-0.136-0.765-0.204-1.171-0.204c-0.244,0-0.47,0.025-0.677,0.075s-0.391,0.129-0.548,0.238
		c-0.158,0.108-0.282,0.247-0.373,0.415s-0.135,0.365-0.135,0.591c0,0.19,0.031,0.344,0.095,0.462
		c0.063,0.118,0.167,0.22,0.312,0.306c0.144,0.086,0.327,0.163,0.548,0.231s0.49,0.138,0.806,0.211
		c0.452,0.108,0.849,0.217,1.192,0.326c0.343,0.108,0.63,0.235,0.86,0.38c0.23,0.145,0.404,0.321,0.521,0.53
		s0.176,0.462,0.176,0.761c0,0.652-0.249,1.168-0.745,1.549C40.579,16.405,39.911,16.595,39.071,16.595z"/>
	<path fill="#E88824" d="M43.297,7.899V6.54h0.921v1.359H43.297z M43.297,16.459V9.38h0.921v7.079H43.297z"/>
	<path fill="#E88824" d="M49.607,16.119c-0.054,0.027-0.133,0.063-0.237,0.109c-0.104,0.045-0.224,0.091-0.359,0.136
		c-0.136,0.045-0.289,0.086-0.46,0.123c-0.172,0.036-0.352,0.054-0.542,0.054c-0.199,0-0.388-0.027-0.569-0.082
		s-0.338-0.138-0.474-0.251c-0.136-0.113-0.244-0.256-0.325-0.428c-0.081-0.172-0.122-0.372-0.122-0.598v-5.068h-0.975V9.38h0.975
		V6.989h0.921V9.38h1.625v0.734H47.44v4.81c0.018,0.263,0.108,0.455,0.271,0.577c0.163,0.123,0.356,0.184,0.583,0.184
		c0.262,0,0.492-0.043,0.69-0.129c0.199-0.086,0.325-0.147,0.379-0.184L49.607,16.119z"/>
	<path fill="#E88824" d="M53.778,16.595c-0.515,0-0.988-0.097-1.422-0.292c-0.433-0.195-0.808-0.462-1.124-0.802
		c-0.316-0.339-0.562-0.731-0.738-1.175c-0.176-0.444-0.264-0.919-0.264-1.427c0-0.498,0.088-0.967,0.264-1.406
		c0.176-0.439,0.422-0.824,0.738-1.155s0.688-0.593,1.117-0.788s0.901-0.292,1.416-0.292s0.986,0.097,1.415,0.292
		s0.797,0.46,1.104,0.795c0.307,0.335,0.546,0.72,0.718,1.155c0.171,0.435,0.257,0.897,0.257,1.386c0,0.073-0.002,0.145-0.006,0.218
		c-0.005,0.072-0.012,0.122-0.021,0.149h-6.026c0.027,0.38,0.115,0.731,0.264,1.053c0.149,0.322,0.339,0.601,0.569,0.836
		c0.23,0.235,0.497,0.419,0.799,0.55c0.302,0.131,0.625,0.197,0.968,0.197c0.234,0,0.465-0.032,0.69-0.095
		c0.226-0.063,0.434-0.149,0.623-0.258c0.19-0.109,0.359-0.242,0.508-0.401c0.149-0.158,0.264-0.333,0.346-0.523l0.799,0.217
		c-0.108,0.263-0.262,0.5-0.46,0.713c-0.199,0.213-0.429,0.398-0.691,0.557c-0.262,0.158-0.551,0.281-0.867,0.367
		S54.112,16.595,53.778,16.595z M56.379,12.546c-0.027-0.38-0.115-0.727-0.264-1.04s-0.339-0.582-0.569-0.809
		c-0.23-0.226-0.499-0.403-0.806-0.53c-0.307-0.126-0.632-0.19-0.975-0.19c-0.343,0-0.668,0.063-0.975,0.19
		c-0.307,0.127-0.576,0.304-0.806,0.53c-0.23,0.227-0.415,0.499-0.555,0.815c-0.14,0.317-0.223,0.661-0.25,1.033H56.379z"/>
</g>
<g>
	<path fill="#E88824" d="M12.46,33.579c-0.515,0-0.988-0.097-1.422-0.292c-0.433-0.195-0.808-0.462-1.124-0.802
		c-0.316-0.339-0.562-0.731-0.738-1.175C9,30.866,8.912,30.391,8.912,29.883c0-0.498,0.088-0.967,0.264-1.406
		c0.176-0.439,0.422-0.824,0.738-1.155s0.688-0.593,1.117-0.788s0.901-0.292,1.416-0.292s0.986,0.097,1.415,0.292
		s0.797,0.46,1.104,0.795c0.307,0.335,0.546,0.72,0.718,1.155c0.171,0.435,0.257,0.897,0.257,1.386c0,0.073-0.002,0.145-0.006,0.218
		c-0.005,0.072-0.012,0.122-0.021,0.149H9.887c0.027,0.38,0.115,0.731,0.264,1.053c0.149,0.322,0.339,0.601,0.569,0.836
		c0.23,0.235,0.497,0.419,0.799,0.55c0.302,0.131,0.625,0.197,0.968,0.197c0.234,0,0.465-0.032,0.69-0.095
		c0.226-0.063,0.434-0.149,0.623-0.258c0.19-0.109,0.359-0.242,0.508-0.401c0.149-0.158,0.264-0.333,0.346-0.523l0.799,0.217
		c-0.108,0.263-0.262,0.5-0.46,0.713c-0.199,0.213-0.429,0.398-0.691,0.557c-0.262,0.158-0.551,0.281-0.867,0.367
		S12.794,33.579,12.46,33.579z M15.061,29.53c-0.027-0.38-0.115-0.727-0.264-1.04s-0.339-0.582-0.569-0.809
		c-0.23-0.226-0.499-0.403-0.806-0.53c-0.307-0.126-0.632-0.19-0.975-0.19c-0.343,0-0.668,0.063-0.975,0.19
		c-0.307,0.127-0.576,0.304-0.806,0.53c-0.23,0.227-0.415,0.499-0.555,0.815c-0.14,0.317-0.223,0.661-0.25,1.033H15.061z"/>
	<path fill="#E88824" d="M27.817,33.443h-0.921v-3.954c0-0.824-0.129-1.431-0.386-1.82c-0.257-0.39-0.648-0.584-1.171-0.584
		c-0.271,0-0.526,0.05-0.765,0.149s-0.46,0.24-0.664,0.421s-0.381,0.396-0.535,0.645c-0.153,0.25-0.271,0.523-0.352,0.822v4.321
		h-0.921v-3.954c0-0.842-0.126-1.454-0.379-1.834c-0.253-0.38-0.641-0.571-1.165-0.571c-0.533,0-1.006,0.186-1.422,0.557
		c-0.415,0.372-0.713,0.861-0.894,1.467v4.334h-0.921v-7.079h0.839v1.604c0.289-0.543,0.668-0.967,1.138-1.271
		c0.469-0.303,0.989-0.455,1.558-0.455c0.596,0,1.074,0.167,1.436,0.502c0.361,0.335,0.578,0.774,0.65,1.318
		c0.659-1.213,1.571-1.82,2.736-1.82c0.388,0,0.72,0.072,0.995,0.217s0.497,0.351,0.664,0.618s0.289,0.589,0.366,0.965
		s0.115,0.795,0.115,1.257V33.443z"/>
	<path fill="#E88824" d="M31.596,33.579c-0.361,0-0.69-0.057-0.988-0.17c-0.298-0.113-0.553-0.269-0.766-0.469
		c-0.212-0.199-0.377-0.43-0.494-0.693s-0.176-0.539-0.176-0.829c0-0.326,0.072-0.623,0.216-0.89
		c0.145-0.267,0.348-0.496,0.609-0.686c0.262-0.19,0.576-0.337,0.941-0.442c0.366-0.104,0.77-0.156,1.212-0.156
		c0.352,0,0.713,0.032,1.083,0.095c0.37,0.063,0.7,0.154,0.989,0.272v-0.639c0-0.625-0.178-1.121-0.535-1.488
		c-0.356-0.367-0.837-0.55-1.442-0.55c-0.379,0-0.756,0.073-1.131,0.217c-0.375,0.145-0.756,0.354-1.145,0.625l-0.325-0.611
		c0.46-0.308,0.908-0.539,1.341-0.693c0.434-0.154,0.885-0.231,1.354-0.231c0.857,0,1.539,0.249,2.045,0.747
		c0.505,0.499,0.758,1.187,0.758,2.065v3.193c0,0.254,0.108,0.38,0.325,0.38v0.815c-0.073,0.009-0.14,0.016-0.203,0.021
		c-0.063,0.004-0.118,0.007-0.163,0.007c-0.181,0-0.346-0.055-0.495-0.163c-0.149-0.109-0.232-0.272-0.25-0.489l-0.027-0.557
		c-0.307,0.417-0.711,0.741-1.212,0.972C32.618,33.464,32.11,33.579,31.596,33.579z M31.826,32.873c0.406,0,0.81-0.088,1.212-0.265
		c0.402-0.177,0.72-0.419,0.955-0.727c0.063-0.082,0.117-0.17,0.163-0.265s0.068-0.183,0.068-0.265v-1.155
		c-0.307-0.118-0.627-0.208-0.961-0.271c-0.334-0.063-0.659-0.095-0.975-0.095c-0.659,0-1.194,0.134-1.605,0.401
		c-0.411,0.267-0.616,0.636-0.616,1.107c0,0.19,0.036,0.376,0.108,0.557s0.183,0.344,0.332,0.489
		c0.149,0.145,0.332,0.263,0.549,0.354C31.271,32.828,31.528,32.873,31.826,32.873z"/>
	<path fill="#E88824" d="M37.148,24.883v-1.359h0.921v1.359H37.148z M37.148,33.443v-7.079h0.921v7.079H37.148z"/>
	<path fill="#E88824" d="M40.087,23.524h0.921v8.315c0,0.263,0.072,0.469,0.217,0.619c0.144,0.149,0.347,0.224,0.609,0.224
		c0.099,0,0.217-0.014,0.352-0.041c0.135-0.027,0.262-0.063,0.379-0.108l0.162,0.747c-0.171,0.073-0.381,0.131-0.629,0.177
		c-0.249,0.045-0.463,0.068-0.644,0.068c-0.424,0-0.758-0.12-1.002-0.36c-0.244-0.24-0.366-0.578-0.366-1.013V23.524z"/>
	<path fill="#E88824" d="M48.578,33.579c-0.361,0-0.69-0.057-0.988-0.17c-0.298-0.113-0.553-0.269-0.766-0.469
		c-0.212-0.199-0.377-0.43-0.494-0.693s-0.176-0.539-0.176-0.829c0-0.326,0.072-0.623,0.216-0.89
		c0.145-0.267,0.348-0.496,0.609-0.686c0.262-0.19,0.576-0.337,0.941-0.442c0.366-0.104,0.77-0.156,1.212-0.156
		c0.352,0,0.713,0.032,1.083,0.095c0.37,0.063,0.7,0.154,0.989,0.272v-0.639c0-0.625-0.178-1.121-0.535-1.488
		c-0.356-0.367-0.837-0.55-1.442-0.55c-0.379,0-0.756,0.073-1.131,0.217c-0.375,0.145-0.756,0.354-1.145,0.625l-0.325-0.611
		c0.46-0.308,0.908-0.539,1.341-0.693c0.434-0.154,0.885-0.231,1.354-0.231c0.857,0,1.539,0.249,2.045,0.747
		c0.505,0.499,0.758,1.187,0.758,2.065v3.193c0,0.254,0.108,0.38,0.325,0.38v0.815c-0.073,0.009-0.14,0.016-0.203,0.021
		c-0.063,0.004-0.118,0.007-0.163,0.007c-0.181,0-0.346-0.055-0.495-0.163c-0.149-0.109-0.232-0.272-0.25-0.489l-0.027-0.557
		c-0.307,0.417-0.711,0.741-1.212,0.972C49.6,33.464,49.092,33.579,48.578,33.579z M48.808,32.873c0.406,0,0.81-0.088,1.212-0.265
		c0.402-0.177,0.72-0.419,0.955-0.727c0.063-0.082,0.117-0.17,0.163-0.265s0.068-0.183,0.068-0.265v-1.155
		c-0.307-0.118-0.627-0.208-0.961-0.271c-0.334-0.063-0.659-0.095-0.975-0.095c-0.659,0-1.194,0.134-1.605,0.401
		c-0.411,0.267-0.616,0.636-0.616,1.107c0,0.19,0.036,0.376,0.108,0.557s0.183,0.344,0.332,0.489
		c0.149,0.145,0.332,0.263,0.549,0.354C48.253,32.828,48.51,32.873,48.808,32.873z"/>
	<path fill="#E88824" d="M57.056,33.579c-0.488,0-0.939-0.102-1.354-0.306c-0.416-0.204-0.774-0.473-1.077-0.809
		c-0.303-0.335-0.537-0.722-0.704-1.162c-0.167-0.439-0.25-0.899-0.25-1.379c0-0.498,0.081-0.972,0.244-1.42s0.386-0.84,0.67-1.175
		c0.284-0.335,0.623-0.6,1.016-0.795s0.824-0.292,1.293-0.292c0.596,0,1.124,0.156,1.584,0.469s0.826,0.691,1.097,1.134v-4.321
		h0.921v8.723c0,0.254,0.108,0.38,0.325,0.38v0.815c-0.154,0.027-0.275,0.041-0.366,0.041c-0.226,0-0.411-0.065-0.555-0.197
		S59.683,33,59.683,32.818v-0.748c-0.289,0.462-0.67,0.829-1.144,1.101C58.064,33.443,57.57,33.579,57.056,33.579z M57.245,32.764
		c0.234,0,0.48-0.045,0.738-0.136c0.257-0.09,0.497-0.215,0.718-0.374c0.221-0.158,0.413-0.344,0.576-0.557
		c0.163-0.212,0.262-0.441,0.298-0.686v-2.188c-0.09-0.245-0.223-0.473-0.399-0.686c-0.176-0.213-0.375-0.401-0.596-0.564
		s-0.456-0.29-0.704-0.38c-0.249-0.091-0.495-0.136-0.738-0.136c-0.379,0-0.725,0.082-1.036,0.245s-0.576,0.378-0.792,0.646
		c-0.217,0.267-0.386,0.573-0.508,0.917c-0.122,0.345-0.183,0.698-0.183,1.06c0,0.38,0.068,0.743,0.203,1.087
		c0.136,0.344,0.32,0.646,0.555,0.903c0.235,0.258,0.513,0.464,0.833,0.619C56.529,32.687,56.875,32.764,57.245,32.764z"/>
	<path fill="#E88824" d="M65.493,33.579c-0.488,0-0.939-0.102-1.354-0.306c-0.416-0.204-0.774-0.473-1.077-0.809
		c-0.303-0.335-0.537-0.722-0.704-1.162c-0.167-0.439-0.25-0.899-0.25-1.379c0-0.498,0.081-0.972,0.244-1.42s0.386-0.84,0.67-1.175
		c0.284-0.335,0.623-0.6,1.016-0.795s0.824-0.292,1.293-0.292c0.596,0,1.124,0.156,1.584,0.469s0.826,0.691,1.097,1.134v-4.321
		h0.921v8.723c0,0.254,0.108,0.38,0.325,0.38v0.815c-0.154,0.027-0.275,0.041-0.366,0.041c-0.226,0-0.411-0.065-0.555-0.197
		S68.12,33,68.12,32.818v-0.748c-0.289,0.462-0.67,0.829-1.144,1.101C66.501,33.443,66.007,33.579,65.493,33.579z M65.682,32.764
		c0.234,0,0.48-0.045,0.738-0.136c0.257-0.09,0.497-0.215,0.718-0.374c0.221-0.158,0.413-0.344,0.576-0.557
		c0.163-0.212,0.262-0.441,0.298-0.686v-2.188c-0.09-0.245-0.223-0.473-0.399-0.686c-0.176-0.213-0.375-0.401-0.596-0.564
		s-0.456-0.29-0.704-0.38c-0.249-0.091-0.495-0.136-0.738-0.136c-0.379,0-0.725,0.082-1.036,0.245s-0.576,0.378-0.792,0.646
		c-0.217,0.267-0.386,0.573-0.508,0.917c-0.122,0.345-0.183,0.698-0.183,1.06c0,0.38,0.068,0.743,0.203,1.087
		c0.136,0.344,0.32,0.646,0.555,0.903c0.235,0.258,0.513,0.464,0.833,0.619C64.966,32.687,65.312,32.764,65.682,32.764z"/>
	<path fill="#E88824" d="M74.525,27.18c-0.623,0.018-1.165,0.19-1.625,0.516s-0.786,0.774-0.975,1.345v4.402h-0.921v-7.079h0.867
		v1.698c0.244-0.498,0.564-0.912,0.961-1.243c0.397-0.331,0.826-0.496,1.287-0.496c0.081,0,0.158,0,0.23,0s0.131,0.004,0.176,0.013
		V27.18z"/>
	<path fill="#E88824" d="M78.845,33.579c-0.515,0-0.988-0.097-1.422-0.292c-0.433-0.195-0.808-0.462-1.124-0.802
		c-0.316-0.339-0.562-0.731-0.738-1.175c-0.176-0.444-0.264-0.919-0.264-1.427c0-0.498,0.088-0.967,0.264-1.406
		c0.176-0.439,0.422-0.824,0.738-1.155s0.688-0.593,1.117-0.788s0.901-0.292,1.416-0.292s0.986,0.097,1.415,0.292
		s0.797,0.46,1.104,0.795c0.307,0.335,0.546,0.72,0.718,1.155c0.171,0.435,0.257,0.897,0.257,1.386c0,0.073-0.002,0.145-0.006,0.218
		c-0.005,0.072-0.012,0.122-0.021,0.149h-6.026c0.027,0.38,0.115,0.731,0.264,1.053c0.149,0.322,0.339,0.601,0.569,0.836
		c0.23,0.235,0.497,0.419,0.799,0.55c0.302,0.131,0.625,0.197,0.968,0.197c0.234,0,0.465-0.032,0.69-0.095
		c0.226-0.063,0.434-0.149,0.623-0.258c0.19-0.109,0.359-0.242,0.508-0.401c0.149-0.158,0.264-0.333,0.346-0.523l0.799,0.217
		c-0.108,0.263-0.262,0.5-0.46,0.713c-0.199,0.213-0.429,0.398-0.691,0.557c-0.262,0.158-0.551,0.281-0.867,0.367
		S79.179,33.579,78.845,33.579z M81.446,29.53c-0.027-0.38-0.115-0.727-0.264-1.04s-0.339-0.582-0.569-0.809
		c-0.23-0.226-0.499-0.403-0.806-0.53c-0.307-0.126-0.632-0.19-0.975-0.19c-0.343,0-0.668,0.063-0.975,0.19
		c-0.307,0.127-0.576,0.304-0.806,0.53c-0.23,0.227-0.415,0.499-0.555,0.815c-0.14,0.317-0.223,0.661-0.25,1.033H81.446z"/>
	<path fill="#E88824" d="M86.077,33.579c-0.551,0-1.088-0.09-1.611-0.271c-0.524-0.181-0.975-0.444-1.354-0.788l0.42-0.625
		c0.397,0.326,0.801,0.57,1.212,0.733c0.411,0.163,0.851,0.245,1.321,0.245c0.569,0,1.022-0.115,1.361-0.346s0.508-0.56,0.508-0.985
		c0-0.199-0.045-0.364-0.135-0.496c-0.09-0.131-0.224-0.247-0.399-0.347c-0.176-0.1-0.397-0.188-0.664-0.265
		c-0.267-0.077-0.576-0.156-0.928-0.238c-0.406-0.1-0.758-0.199-1.057-0.299c-0.298-0.1-0.544-0.213-0.738-0.34
		c-0.194-0.126-0.339-0.283-0.434-0.469c-0.095-0.186-0.142-0.418-0.142-0.7c0-0.353,0.07-0.666,0.21-0.938
		c0.14-0.271,0.33-0.496,0.569-0.672c0.239-0.177,0.519-0.31,0.839-0.401c0.321-0.09,0.662-0.136,1.022-0.136
		c0.542,0,1.034,0.088,1.477,0.265c0.442,0.177,0.799,0.41,1.07,0.7l-0.447,0.543c-0.262-0.271-0.58-0.475-0.955-0.611
		c-0.375-0.136-0.765-0.204-1.171-0.204c-0.244,0-0.47,0.025-0.677,0.075s-0.391,0.129-0.548,0.238
		c-0.158,0.108-0.282,0.247-0.373,0.415s-0.135,0.365-0.135,0.591c0,0.19,0.031,0.344,0.095,0.462
		c0.063,0.118,0.167,0.22,0.312,0.306c0.144,0.086,0.327,0.163,0.548,0.231s0.49,0.138,0.806,0.211
		c0.452,0.108,0.849,0.217,1.192,0.326c0.343,0.108,0.63,0.235,0.86,0.38c0.23,0.145,0.404,0.321,0.521,0.53
		s0.176,0.462,0.176,0.761c0,0.652-0.249,1.168-0.745,1.549C87.584,33.389,86.917,33.579,86.077,33.579z"/>
	<path fill="#E88824" d="M92.672,33.579c-0.551,0-1.088-0.09-1.611-0.271c-0.524-0.181-0.975-0.444-1.354-0.788l0.42-0.625
		c0.397,0.326,0.801,0.57,1.212,0.733c0.411,0.163,0.851,0.245,1.321,0.245c0.569,0,1.022-0.115,1.361-0.346s0.508-0.56,0.508-0.985
		c0-0.199-0.045-0.364-0.135-0.496c-0.09-0.131-0.224-0.247-0.399-0.347c-0.176-0.1-0.397-0.188-0.664-0.265
		c-0.267-0.077-0.576-0.156-0.928-0.238c-0.406-0.1-0.758-0.199-1.057-0.299c-0.298-0.1-0.544-0.213-0.738-0.34
		c-0.194-0.126-0.339-0.283-0.434-0.469c-0.095-0.186-0.142-0.418-0.142-0.7c0-0.353,0.07-0.666,0.21-0.938
		c0.14-0.271,0.33-0.496,0.569-0.672c0.239-0.177,0.519-0.31,0.839-0.401c0.321-0.09,0.662-0.136,1.022-0.136
		c0.542,0,1.034,0.088,1.477,0.265c0.442,0.177,0.799,0.41,1.07,0.7l-0.447,0.543c-0.262-0.271-0.58-0.475-0.955-0.611
		c-0.375-0.136-0.765-0.204-1.171-0.204c-0.244,0-0.47,0.025-0.677,0.075s-0.391,0.129-0.548,0.238
		c-0.158,0.108-0.282,0.247-0.373,0.415s-0.135,0.365-0.135,0.591c0,0.19,0.031,0.344,0.095,0.462
		c0.063,0.118,0.167,0.22,0.312,0.306c0.144,0.086,0.327,0.163,0.548,0.231s0.49,0.138,0.806,0.211
		c0.452,0.108,0.849,0.217,1.192,0.326c0.343,0.108,0.63,0.235,0.86,0.38c0.23,0.145,0.404,0.321,0.521,0.53
		s0.176,0.462,0.176,0.761c0,0.652-0.249,1.168-0.745,1.549C94.18,33.389,93.512,33.579,92.672,33.579z"/>
</g>
</svg>
