<?xml version="1.0" encoding="utf-8"?>
<!-- Generator: Adobe Illustrator 15.0.2, SVG Export Plug-In . SVG Version: 6.00 Build 0)  -->
<!DOCTYPE svg PUBLIC "-//W3C//DTD SVG 1.1//EN" "http://www.w3.org/Graphics/SVG/1.1/DTD/svg11.dtd">
<svg version="1.1" id="Layer_1" xmlns="http://www.w3.org/2000/svg" xmlns:xlink="http://www.w3.org/1999/xlink" x="0px" y="0px"
	 width="255px" height="123px" viewBox="0 0 255 123" enable-background="new 0 0 255 123" xml:space="preserve">
<g>
	<defs>
		<rect id="SVGID_1_" width="255" height="123"/>
	</defs>
	<clipPath id="SVGID_2_">
		<use xlink:href="#SVGID_1_"  overflow="visible"/>
	</clipPath>
	<path clip-path="url(#SVGID_2_)" fill="#80371B" d="M245.193-0.001H9.81C4.393-0.001,0,4.405,0,9.839v76.063v27.258
		c0,5.435,4.394,9.84,9.81,9.84h24.595h92.125h118.664c5.416,0,9.807-4.405,9.807-9.84V96.619V9.839
		C255,4.405,250.609-0.001,245.193-0.001"/>
	<g opacity="0.85" clip-path="url(#SVGID_2_)">
		<g>
			<defs>
				<rect id="SVGID_3_" x="66.801" y="98.084" width="11.378" height="17.368"/>
			</defs>
			<clipPath id="SVGID_4_">
				<use xlink:href="#SVGID_3_"  overflow="visible"/>
			</clipPath>
			<polyline clip-path="url(#SVGID_4_)" fill="none" stroke="#EFE4AE" stroke-miterlimit="10" points="67.319,98.309 
				74.415,114.886 78.179,114.886 			"/>
		</g>
	</g>
	<g opacity="0.85" clip-path="url(#SVGID_2_)">
		<g>
			<defs>
				<rect id="SVGID_5_" x="73.85" y="113.454" width="6.059" height="7.257"/>
			</defs>
			<clipPath id="SVGID_6_">
				<use xlink:href="#SVGID_5_"  overflow="visible"/>
			</clipPath>
			<polyline clip-path="url(#SVGID_6_)" fill="none" stroke="#EFE4AE" stroke-miterlimit="10" points="74.415,120.323 
				74.415,114.885 79.498,120.323 			"/>
		</g>
	</g>
	<path clip-path="url(#SVGID_2_)" fill="#EFE4AE" d="M28.377,70.646c0,0,2.329,11.648,10.375,17.056
		c7.36,4.949,13.581,5.526,19.905,0.698c8.126-6.207,1.748-21.419-10.375-17.054C37.521,75.215,28.377,70.646,28.377,70.646"/>
	<path clip-path="url(#SVGID_2_)" fill="none" stroke="#EFE4AE" stroke-miterlimit="10" d="M28.377,70.646
		c0,0,2.329,11.648,10.375,17.056c7.36,4.949,13.581,5.526,19.905,0.698c8.126-6.207,1.748-21.419-10.375-17.054
		C37.521,75.215,28.377,70.646,28.377,70.646z"/>
	<path clip-path="url(#SVGID_2_)" fill="#B66528" d="M17.462,85.726c0,0,17.791,20.072,39.647,21.419
		c19.991,1.229,32.794-4.761,39.648-21.419c8.807-21.419-20.938-43.816-39.648-21.419C40.502,84.183,17.462,85.726,17.462,85.726"/>
	<path clip-path="url(#SVGID_2_)" fill="#EFE4AE" d="M75.794,64.62c0,2.058,1.655,3.718,3.703,3.718c2.048,0,3.703-1.66,3.703-3.718
		c0-2.052-1.654-3.712-3.703-3.712C77.45,60.908,75.794,62.568,75.794,64.62"/>
	<g opacity="0.85" clip-path="url(#SVGID_2_)">
		<g>
			<defs>
				<rect id="SVGID_7_" x="90.355" y="55.003" width="9.789" height="9.617"/>
			</defs>
			<clipPath id="SVGID_8_">
				<use xlink:href="#SVGID_7_"  overflow="visible"/>
			</clipPath>
			<polygon clip-path="url(#SVGID_8_)" fill="#EFE4AE" points="90.355,60.908 100.145,55.003 93.798,64.621 			"/>
		</g>
	</g>
	<g opacity="0.85" clip-path="url(#SVGID_2_)">
		<g>
			<defs>
				<rect id="SVGID_9_" x="93.798" y="57.507" width="8.041" height="10.831"/>
			</defs>
			<clipPath id="SVGID_10_">
				<use xlink:href="#SVGID_9_"  overflow="visible"/>
			</clipPath>
			<polygon clip-path="url(#SVGID_10_)" fill="#EFE4AE" points="93.798,64.62 96.091,68.338 101.839,57.507 			"/>
		</g>
	</g>
	<g opacity="0.85" clip-path="url(#SVGID_2_)">
		<g>
			<defs>
				<rect id="SVGID_11_" x="78.979" y="99.521" width="11.376" height="17.368"/>
			</defs>
			<clipPath id="SVGID_12_">
				<use xlink:href="#SVGID_11_"  overflow="visible"/>
			</clipPath>
			<polyline clip-path="url(#SVGID_12_)" fill="none" stroke="#EFE4AE" stroke-miterlimit="10" points="79.498,99.745 
				86.591,116.323 90.355,116.323 			"/>
		</g>
	</g>
	<g opacity="0.85" clip-path="url(#SVGID_2_)">
		<g>
			<defs>
				<rect id="SVGID_13_" x="86.026" y="114.893" width="6.06" height="7.261"/>
			</defs>
			<clipPath id="SVGID_14_">
				<use xlink:href="#SVGID_13_"  overflow="visible"/>
			</clipPath>
			<polyline clip-path="url(#SVGID_14_)" fill="none" stroke="#EFE4AE" stroke-miterlimit="10" points="86.591,121.766 
				86.591,116.324 91.674,121.766 			"/>
		</g>
	</g>
	<path clip-path="url(#SVGID_2_)" fill="#EFE4AE" d="M40.018,83.174c0,0,7.87,8.879,17.537,9.472
		c8.839,0.547,14.504-2.103,17.532-9.472c3.896-9.473-9.258-19.382-17.532-9.473C50.207,82.49,40.018,83.174,40.018,83.174"/>
	<path clip-path="url(#SVGID_2_)" fill="none" stroke="#EFE4AE" stroke-miterlimit="10" d="M40.018,83.174
		c0,0,7.87,8.879,17.537,9.472c8.839,0.547,14.504-2.103,17.532-9.472c3.896-9.473-9.258-19.382-17.532-9.473
		C50.207,82.49,40.018,83.174,40.018,83.174z"/>
	<path clip-path="url(#SVGID_2_)" fill="#B66528" d="M107.141,34.506c0.451,0.309,1.033,0.577,1.741,0.804
		c0.709,0.227,1.504,0.34,2.387,0.34c1.11,0,1.998-0.2,2.666-0.603c0.666-0.401,1.176-0.993,1.525-1.777
		c0.349-0.782,0.574-1.746,0.678-2.889c0.103-1.144,0.152-2.448,0.152-3.912V15.342h2.158v11.127c0,1.669-0.078,3.189-0.231,4.56
		c-0.154,1.371-0.477,2.54-0.97,3.508c-0.492,0.97-1.212,1.722-2.157,2.258c-0.945,0.535-2.218,0.803-3.821,0.803
		c-1.847,0-3.429-0.452-4.744-1.36L107.141,34.506z"/>
	<path clip-path="url(#SVGID_2_)" fill="#B66528" d="M129.846,37.565c-1.17,0-2.243-0.221-3.218-0.663
		c-0.976-0.443-1.818-1.046-2.527-1.81c-0.708-0.762-1.258-1.648-1.649-2.658c-0.389-1.008-0.584-2.069-0.584-3.182
		c0-1.135,0.201-2.207,0.601-3.216c0.402-1.01,0.956-1.896,1.665-2.658c0.709-0.763,1.551-1.37,2.526-1.824
		c0.975-0.454,2.037-0.68,3.188-0.68c1.151,0,2.214,0.226,3.188,0.68c0.977,0.454,1.821,1.062,2.529,1.824
		c0.709,0.762,1.263,1.648,1.662,2.658c0.4,1.009,0.602,2.081,0.602,3.216c0,1.112-0.201,2.174-0.602,3.182
		c-0.399,1.01-0.953,1.896-1.662,2.658c-0.708,0.764-1.553,1.366-2.529,1.81C132.06,37.345,130.997,37.565,129.846,37.565
		 M124.024,29.282c0,0.907,0.149,1.746,0.447,2.521c0.297,0.771,0.708,1.451,1.231,2.039c0.525,0.587,1.141,1.046,1.85,1.375
		c0.708,0.331,1.462,0.494,2.264,0.494s1.556-0.169,2.267-0.51c0.707-0.34,1.326-0.803,1.861-1.391
		c0.534-0.588,0.957-1.272,1.264-2.055c0.309-0.784,0.461-1.628,0.461-2.536c0-0.885-0.152-1.726-0.461-2.517
		c-0.307-0.794-0.729-1.485-1.264-2.072c-0.535-0.588-1.15-1.052-1.849-1.392c-0.698-0.341-1.447-0.51-2.249-0.51
		c-0.801,0-1.555,0.169-2.264,0.51c-0.708,0.34-1.325,0.809-1.848,1.407c-0.524,0.597-0.939,1.292-1.248,2.086
		C124.179,27.525,124.024,28.375,124.024,29.282"/>
	<path clip-path="url(#SVGID_2_)" fill="#B66528" d="M154.738,37.257h-2.095v-8.995c0-1.833-0.313-3.202-0.939-4.111
		c-0.627-0.905-1.546-1.359-2.757-1.359c-0.597,0-1.187,0.119-1.771,0.355c-0.585,0.238-1.135,0.562-1.648,0.974
		c-0.514,0.413-0.96,0.897-1.34,1.452c-0.382,0.557-0.664,1.165-0.849,1.825v9.859h-2.094V14.692h2.094v10.108
		c0.658-1.216,1.552-2.174,2.681-2.875c1.13-0.701,2.343-1.051,3.636-1.051c0.925,0,1.71,0.171,2.356,0.509
		c0.647,0.342,1.172,0.815,1.572,1.422c0.399,0.608,0.693,1.341,0.878,2.195c0.185,0.856,0.276,1.799,0.276,2.828V37.257z"/>
	<path clip-path="url(#SVGID_2_)" fill="#B66528" d="M172.576,37.257h-2.095v-8.995c0-1.915-0.276-3.308-0.831-4.172
		c-0.555-0.866-1.417-1.299-2.588-1.299c-0.616,0-1.233,0.114-1.85,0.34c-0.616,0.229-1.191,0.547-1.725,0.959
		c-0.534,0.412-1.002,0.901-1.401,1.467c-0.4,0.567-0.703,1.181-0.91,1.841v9.859h-2.094V21.152h1.91v3.648
		c0.328-0.577,0.734-1.108,1.217-1.592s1.021-0.901,1.617-1.252c0.596-0.35,1.228-0.619,1.896-0.805
		c0.666-0.184,1.359-0.277,2.079-0.277c0.903,0,1.658,0.166,2.264,0.495c0.607,0.329,1.094,0.792,1.464,1.39
		c0.369,0.6,0.636,1.33,0.802,2.194c0.164,0.866,0.245,1.825,0.245,2.875V37.257z"/>
	<path clip-path="url(#SVGID_2_)" fill="#B66528" d="M185.331,37.257V15.312h7.395c1.744,0,3.275,0.287,4.59,0.865
		c1.313,0.576,2.408,1.36,3.28,2.349c0.874,0.99,1.526,2.148,1.957,3.478s0.646,2.747,0.646,4.251c0,1.668-0.246,3.179-0.739,4.526
		c-0.492,1.351-1.191,2.504-2.095,3.464c-0.904,0.957-2.003,1.699-3.297,2.225s-2.742,0.788-4.343,0.788H185.331z M201.043,26.254
		c0-1.32-0.186-2.53-0.555-3.634c-0.369-1.102-0.909-2.055-1.618-2.858c-0.707-0.803-1.575-1.428-2.603-1.869
		c-1.027-0.442-2.208-0.665-3.542-0.665h-5.269v18.113h5.269c1.355,0,2.551-0.232,3.588-0.694c1.037-0.465,1.905-1.104,2.604-1.917
		c0.698-0.814,1.228-1.773,1.586-2.875C200.863,28.753,201.043,27.551,201.043,26.254"/>
	<path clip-path="url(#SVGID_2_)" fill="#B66528" d="M213.858,37.565c-1.171,0-2.244-0.221-3.22-0.663
		c-0.976-0.443-1.817-1.046-2.525-1.81c-0.709-0.762-1.259-1.648-1.649-2.658c-0.39-1.008-0.585-2.069-0.585-3.182
		c0-1.135,0.2-2.207,0.601-3.216c0.401-1.01,0.955-1.896,1.664-2.658c0.709-0.763,1.551-1.37,2.526-1.824s2.038-0.68,3.188-0.68
		s2.213,0.226,3.188,0.68c0.975,0.454,1.818,1.062,2.526,1.824c0.709,0.762,1.264,1.648,1.664,2.658
		c0.399,1.009,0.599,2.081,0.599,3.216c0,1.112-0.199,2.174-0.599,3.182c-0.4,1.01-0.955,1.896-1.664,2.658
		c-0.708,0.764-1.552,1.366-2.526,1.81C216.071,37.345,215.009,37.565,213.858,37.565 M208.036,29.282
		c0,0.907,0.148,1.746,0.446,2.521c0.297,0.771,0.708,1.451,1.231,2.039c0.525,0.587,1.141,1.046,1.85,1.375
		c0.709,0.331,1.463,0.494,2.264,0.494c0.802,0,1.557-0.169,2.265-0.51c0.709-0.34,1.329-0.803,1.864-1.391
		c0.533-0.588,0.955-1.272,1.263-2.055c0.309-0.784,0.462-1.628,0.462-2.536c0-0.885-0.153-1.726-0.462-2.517
		c-0.308-0.794-0.729-1.485-1.263-2.072c-0.535-0.588-1.15-1.052-1.849-1.392c-0.698-0.341-1.448-0.51-2.249-0.51
		c-0.802,0-1.556,0.169-2.264,0.51c-0.709,0.34-1.326,0.809-1.85,1.407c-0.523,0.597-0.939,1.292-1.248,2.086
		C208.19,27.525,208.036,28.375,208.036,29.282"/>
	<path clip-path="url(#SVGID_2_)" fill="#B66528" d="M232.281,37.565c-1.171,0-2.25-0.221-3.235-0.663
		c-0.986-0.442-1.838-1.051-2.557-1.824c-0.72-0.772-1.278-1.663-1.68-2.674c-0.399-1.009-0.601-2.092-0.601-3.247
		c0-1.132,0.201-2.198,0.601-3.197c0.401-1,0.96-1.875,1.68-2.628c0.719-0.752,1.566-1.349,2.542-1.793
		c0.975-0.442,2.049-0.664,3.219-0.664c1.171,0,2.244,0.222,3.22,0.664c0.976,0.444,1.813,1.046,2.511,1.809
		c0.698,0.764,1.243,1.638,1.633,2.628c0.391,0.988,0.585,2.041,0.585,3.152c0,0.164-0.005,0.33-0.015,0.494
		c-0.011,0.166-0.025,0.278-0.047,0.341h-13.709c0.062,0.865,0.261,1.664,0.6,2.395c0.34,0.732,0.771,1.367,1.295,1.902
		s1.13,0.953,1.817,1.25c0.688,0.3,1.423,0.448,2.202,0.448c0.534,0,1.059-0.071,1.572-0.216c0.513-0.144,0.985-0.34,1.417-0.587
		c0.432-0.248,0.816-0.551,1.155-0.911s0.601-0.759,0.786-1.191l1.817,0.494c-0.247,0.599-0.596,1.14-1.048,1.624
		s-0.976,0.906-1.57,1.267c-0.597,0.36-1.254,0.64-1.972,0.834C233.78,37.469,233.04,37.565,232.281,37.565 M238.196,28.354
		c-0.062-0.865-0.262-1.651-0.601-2.364c-0.339-0.71-0.771-1.324-1.294-1.84c-0.523-0.513-1.136-0.915-1.833-1.204
		c-0.698-0.288-1.438-0.435-2.219-0.435s-1.52,0.146-2.219,0.435c-0.698,0.289-1.31,0.691-1.832,1.204
		c-0.523,0.516-0.945,1.135-1.265,1.855c-0.317,0.723-0.507,1.504-0.568,2.349H238.196z"/>
	<path clip-path="url(#SVGID_2_)" fill="#B66528" d="M181.095,50.688c0-0.579,0.102-1.156,0.304-1.731
		c0.203-0.576,0.498-1.09,0.888-1.544c0.388-0.452,0.867-0.821,1.436-1.106c0.569-0.285,1.214-0.428,1.936-0.428
		c0.858,0,1.59,0.194,2.195,0.584c0.604,0.389,1.056,0.897,1.353,1.521l-0.757,0.462c-0.154-0.316-0.339-0.584-0.556-0.801
		c-0.216-0.218-0.452-0.395-0.703-0.53c-0.254-0.136-0.516-0.232-0.787-0.292c-0.27-0.059-0.537-0.089-0.798-0.089
		c-0.579,0-1.089,0.117-1.531,0.354c-0.441,0.234-0.814,0.543-1.116,0.924c-0.304,0.381-0.531,0.809-0.686,1.283
		c-0.152,0.476-0.229,0.959-0.229,1.448c0,0.533,0.093,1.047,0.278,1.535c0.185,0.489,0.438,0.921,0.758,1.298
		c0.32,0.375,0.699,0.674,1.138,0.896c0.438,0.222,0.915,0.333,1.429,0.333c0.27,0,0.549-0.033,0.833-0.103
		c0.283-0.067,0.56-0.177,0.826-0.326c0.267-0.148,0.512-0.335,0.738-0.557c0.224-0.222,0.415-0.491,0.569-0.809l0.783,0.408
		c-0.152,0.362-0.369,0.681-0.649,0.957c-0.279,0.276-0.591,0.51-0.935,0.7s-0.705,0.335-1.089,0.435
		c-0.385,0.1-0.762,0.149-1.131,0.149c-0.66,0-1.265-0.145-1.815-0.435s-1.024-0.668-1.422-1.135s-0.706-0.996-0.929-1.59
		C181.205,51.909,181.095,51.305,181.095,50.688"/>
	<path clip-path="url(#SVGID_2_)" fill="#B66528" d="M193.838,55.715c-0.515,0-0.986-0.097-1.416-0.291
		c-0.428-0.195-0.798-0.461-1.109-0.796c-0.313-0.335-0.554-0.724-0.725-1.168c-0.172-0.442-0.258-0.91-0.258-1.399
		c0-0.498,0.089-0.97,0.265-1.413c0.177-0.443,0.42-0.834,0.731-1.169s0.682-0.602,1.11-0.802c0.429-0.198,0.896-0.299,1.401-0.299
		s0.974,0.101,1.401,0.299c0.43,0.2,0.8,0.467,1.11,0.802c0.313,0.335,0.556,0.726,0.732,1.169c0.176,0.443,0.265,0.915,0.265,1.413
		c0,0.489-0.089,0.957-0.265,1.399c-0.177,0.444-0.419,0.833-0.732,1.168c-0.311,0.335-0.681,0.601-1.11,0.796
		C194.812,55.618,194.344,55.715,193.838,55.715 M191.278,52.074c0,0.399,0.066,0.769,0.196,1.106
		c0.131,0.341,0.312,0.64,0.542,0.898c0.23,0.257,0.5,0.459,0.813,0.604c0.311,0.145,0.643,0.218,0.994,0.218
		c0.353,0,0.685-0.075,0.996-0.225c0.311-0.149,0.584-0.353,0.819-0.611c0.234-0.258,0.419-0.559,0.555-0.903
		c0.136-0.344,0.204-0.716,0.204-1.114c0-0.39-0.068-0.759-0.204-1.107s-0.32-0.652-0.555-0.91
		c-0.235-0.259-0.506-0.462-0.813-0.611s-0.638-0.225-0.989-0.225s-0.684,0.075-0.995,0.225s-0.582,0.355-0.813,0.618
		c-0.229,0.264-0.412,0.568-0.549,0.918C191.347,51.301,191.278,51.675,191.278,52.074"/>
	<path clip-path="url(#SVGID_2_)" fill="#B66528" d="M209.344,55.579h-0.921v-3.953c0-0.824-0.128-1.431-0.386-1.821
		c-0.257-0.389-0.648-0.585-1.171-0.585c-0.271,0-0.526,0.052-0.766,0.15c-0.239,0.1-0.46,0.24-0.664,0.422
		c-0.202,0.18-0.381,0.396-0.534,0.645c-0.154,0.25-0.271,0.524-0.353,0.822v4.32h-0.922v-3.953c0-0.843-0.125-1.454-0.379-1.834
		c-0.252-0.382-0.64-0.572-1.164-0.572c-0.533,0-1.007,0.187-1.421,0.558c-0.417,0.372-0.715,0.86-0.896,1.469v4.333h-0.92v-7.078
		h0.84v1.604c0.289-0.544,0.668-0.968,1.138-1.271c0.469-0.303,0.988-0.454,1.557-0.454c0.597,0,1.075,0.167,1.436,0.503
		c0.361,0.334,0.578,0.774,0.649,1.318c0.659-1.215,1.572-1.821,2.736-1.821c0.389,0,0.721,0.071,0.996,0.218
		c0.275,0.144,0.496,0.351,0.663,0.617c0.168,0.268,0.289,0.589,0.366,0.965s0.114,0.795,0.114,1.257V55.579z"/>
	<path clip-path="url(#SVGID_2_)" fill="#B66528" d="M214.871,55.715c-0.599,0-1.125-0.151-1.586-0.454
		c-0.461-0.304-0.831-0.687-1.111-1.148v4.362h-0.921v-9.974h0.826v1.371c0.289-0.443,0.664-0.803,1.124-1.079
		c0.461-0.276,0.963-0.415,1.504-0.415c0.487,0,0.937,0.103,1.347,0.306c0.412,0.205,0.766,0.477,1.063,0.815
		c0.299,0.341,0.53,0.731,0.697,1.177c0.168,0.443,0.252,0.899,0.252,1.371c0,0.498-0.077,0.97-0.231,1.413
		c-0.153,0.444-0.373,0.833-0.657,1.168s-0.622,0.601-1.015,0.796C215.77,55.618,215.34,55.715,214.871,55.715 M214.612,54.9
		c0.379,0,0.722-0.082,1.029-0.244c0.307-0.164,0.57-0.379,0.791-0.646c0.223-0.268,0.392-0.57,0.509-0.909
		c0.117-0.34,0.176-0.691,0.176-1.054c0-0.381-0.067-0.743-0.203-1.086c-0.136-0.346-0.32-0.648-0.556-0.911
		c-0.234-0.264-0.512-0.472-0.832-0.625c-0.321-0.153-0.666-0.231-1.035-0.231c-0.236,0-0.479,0.048-0.732,0.143
		c-0.253,0.096-0.492,0.223-0.719,0.381c-0.225,0.158-0.416,0.344-0.575,0.557c-0.157,0.214-0.256,0.438-0.291,0.673v2.174
		c0.108,0.253,0.246,0.49,0.414,0.707c0.167,0.218,0.355,0.405,0.568,0.563c0.213,0.159,0.441,0.283,0.69,0.374
		C214.095,54.855,214.35,54.9,214.612,54.9"/>
	<path clip-path="url(#SVGID_2_)" fill="#B66528" d="M221.452,55.715c-0.362,0-0.692-0.056-0.99-0.169s-0.553-0.27-0.765-0.469
		s-0.377-0.43-0.494-0.693c-0.117-0.262-0.176-0.538-0.176-0.829c0-0.325,0.071-0.621,0.216-0.889
		c0.146-0.268,0.349-0.496,0.61-0.688c0.262-0.189,0.575-0.337,0.941-0.44c0.364-0.104,0.769-0.157,1.211-0.157
		c0.352,0,0.713,0.032,1.084,0.095c0.37,0.064,0.699,0.155,0.988,0.272v-0.639c0-0.624-0.178-1.121-0.534-1.486
		c-0.357-0.367-0.838-0.551-1.443-0.551c-0.379,0-0.756,0.071-1.131,0.217c-0.374,0.146-0.756,0.354-1.146,0.625l-0.323-0.612
		c0.461-0.308,0.907-0.538,1.34-0.692c0.435-0.154,0.886-0.23,1.354-0.23c0.858,0,1.54,0.248,2.045,0.747
		c0.507,0.499,0.758,1.187,0.758,2.064v3.193c0,0.255,0.109,0.381,0.326,0.381v0.815c-0.072,0.009-0.141,0.016-0.202,0.021
		c-0.064,0.004-0.118,0.007-0.163,0.007c-0.181,0-0.347-0.055-0.494-0.163c-0.149-0.109-0.233-0.272-0.251-0.49l-0.026-0.556
		c-0.308,0.416-0.712,0.739-1.214,0.971C222.474,55.601,221.965,55.715,221.452,55.715 M221.681,55.009
		c0.407,0,0.812-0.088,1.213-0.265s0.72-0.419,0.954-0.728c0.064-0.08,0.117-0.169,0.163-0.264c0.044-0.096,0.067-0.184,0.067-0.266
		v-1.155c-0.308-0.117-0.627-0.208-0.963-0.271c-0.332-0.063-0.659-0.095-0.974-0.095c-0.659,0-1.194,0.134-1.604,0.401
		c-0.411,0.267-0.617,0.636-0.617,1.106c0,0.19,0.037,0.376,0.109,0.558c0.071,0.182,0.183,0.344,0.331,0.488
		c0.15,0.146,0.332,0.264,0.549,0.354S221.384,55.009,221.681,55.009"/>
	<path clip-path="url(#SVGID_2_)" fill="#B66528" d="M232.935,55.579h-0.92v-3.953c0-0.843-0.123-1.454-0.366-1.834
		c-0.245-0.382-0.624-0.572-1.138-0.572c-0.271,0-0.542,0.052-0.813,0.15c-0.271,0.1-0.523,0.24-0.758,0.422
		c-0.234,0.18-0.439,0.396-0.616,0.645c-0.175,0.25-0.31,0.52-0.4,0.81v4.333h-0.92v-7.078h0.84v1.604
		c0.145-0.254,0.323-0.487,0.534-0.701c0.212-0.212,0.45-0.396,0.712-0.549c0.262-0.154,0.539-0.272,0.833-0.354
		c0.293-0.081,0.598-0.122,0.913-0.122c0.398,0,0.729,0.071,0.996,0.218c0.266,0.144,0.48,0.348,0.644,0.61
		c0.162,0.263,0.279,0.585,0.352,0.965c0.072,0.381,0.108,0.802,0.108,1.264V55.579z"/>
	<path clip-path="url(#SVGID_2_)" fill="#B66528" d="M235.114,57.768c0.046,0.009,0.091,0.016,0.136,0.02
		c0.045,0.006,0.091,0.008,0.136,0.008c0.089,0,0.188-0.01,0.291-0.027s0.179-0.036,0.224-0.055s0.093-0.056,0.143-0.115
		c0.049-0.059,0.112-0.163,0.189-0.313c0.076-0.149,0.173-0.358,0.291-0.624c0.119-0.268,0.266-0.629,0.446-1.081l-3.074-7.079
		h0.962l2.614,6.224l2.409-6.224h0.882l-3.671,9.131c-0.136,0.335-0.318,0.585-0.548,0.747c-0.23,0.163-0.553,0.244-0.969,0.244
		c-0.172,0-0.325-0.013-0.461-0.041V57.768z"/>
	<path clip-path="url(#SVGID_2_)" fill="#B66528" d="M192.85,70.674v-9.646h3.98c0.417,0,0.799,0.089,1.146,0.265
		c0.348,0.177,0.647,0.407,0.9,0.692c0.254,0.286,0.45,0.609,0.589,0.973c0.141,0.361,0.21,0.729,0.21,1.1
		c0,0.398-0.064,0.782-0.196,1.148c-0.131,0.367-0.318,0.69-0.562,0.972c-0.244,0.281-0.535,0.508-0.874,0.679
		c-0.339,0.173-0.716,0.259-1.131,0.259h-3.128v3.56H192.85z M193.784,66.271h3.074c0.279,0,0.534-0.061,0.766-0.184
		c0.229-0.121,0.426-0.285,0.589-0.488c0.163-0.205,0.288-0.44,0.379-0.707c0.09-0.268,0.136-0.546,0.136-0.836
		c0-0.298-0.052-0.581-0.155-0.849s-0.245-0.501-0.421-0.7s-0.384-0.354-0.622-0.469c-0.24-0.113-0.49-0.169-0.752-0.169h-2.993
		V66.271z"/>
	<path clip-path="url(#SVGID_2_)" fill="#B66528" d="M203.9,70.81c-0.516,0-0.986-0.097-1.416-0.292
		c-0.428-0.194-0.798-0.46-1.109-0.795c-0.313-0.335-0.554-0.724-0.725-1.169c-0.172-0.442-0.258-0.909-0.258-1.398
		c0-0.499,0.088-0.97,0.265-1.413c0.176-0.444,0.42-0.834,0.731-1.169c0.311-0.335,0.682-0.603,1.11-0.802s0.896-0.298,1.401-0.298
		s0.974,0.099,1.401,0.298c0.43,0.199,0.8,0.467,1.11,0.802c0.313,0.335,0.556,0.725,0.732,1.169
		c0.176,0.443,0.264,0.914,0.264,1.413c0,0.489-0.088,0.956-0.264,1.398c-0.177,0.445-0.419,0.834-0.732,1.169
		c-0.311,0.335-0.681,0.601-1.11,0.795C204.874,70.713,204.406,70.81,203.9,70.81 M201.341,67.169c0,0.398,0.065,0.767,0.195,1.106
		c0.132,0.341,0.313,0.64,0.543,0.896c0.23,0.259,0.5,0.46,0.813,0.605c0.311,0.145,0.643,0.218,0.994,0.218
		c0.353,0,0.684-0.075,0.996-0.225c0.311-0.149,0.584-0.353,0.818-0.611c0.235-0.258,0.42-0.56,0.556-0.903s0.204-0.716,0.204-1.115
		c0-0.389-0.068-0.758-0.204-1.106s-0.32-0.652-0.556-0.91c-0.234-0.259-0.506-0.462-0.812-0.611
		c-0.307-0.149-0.638-0.225-0.989-0.225s-0.685,0.075-0.995,0.225c-0.312,0.149-0.582,0.354-0.813,0.618
		c-0.229,0.262-0.412,0.568-0.549,0.917C201.409,66.396,201.341,66.771,201.341,67.169"/>
	<path clip-path="url(#SVGID_2_)" fill="#B66528" d="M211.268,70.81c-0.552,0-1.088-0.089-1.613-0.271
		c-0.522-0.182-0.974-0.444-1.353-0.788l0.42-0.625c0.396,0.326,0.801,0.57,1.211,0.733c0.411,0.163,0.851,0.245,1.32,0.245
		c0.568,0,1.022-0.116,1.362-0.348c0.338-0.23,0.507-0.56,0.507-0.985c0-0.198-0.045-0.363-0.135-0.495s-0.225-0.246-0.399-0.347
		c-0.176-0.1-0.398-0.188-0.664-0.265c-0.267-0.077-0.576-0.156-0.928-0.237c-0.407-0.1-0.759-0.199-1.057-0.3
		c-0.298-0.1-0.544-0.213-0.737-0.34c-0.195-0.126-0.339-0.283-0.434-0.469s-0.143-0.419-0.143-0.7c0-0.353,0.07-0.665,0.21-0.937
		s0.329-0.496,0.569-0.673c0.238-0.176,0.519-0.31,0.839-0.4c0.321-0.091,0.661-0.136,1.023-0.136c0.54,0,1.033,0.088,1.476,0.265
		c0.442,0.176,0.8,0.409,1.07,0.699l-0.447,0.544c-0.262-0.272-0.58-0.476-0.954-0.611c-0.376-0.136-0.766-0.204-1.173-0.204
		c-0.243,0-0.469,0.024-0.677,0.074c-0.207,0.05-0.39,0.13-0.549,0.238c-0.157,0.109-0.282,0.247-0.372,0.414
		c-0.092,0.169-0.135,0.365-0.135,0.592c0,0.19,0.031,0.344,0.095,0.461c0.062,0.119,0.167,0.221,0.312,0.307
		c0.144,0.086,0.327,0.162,0.549,0.231c0.22,0.067,0.489,0.138,0.806,0.21c0.45,0.109,0.849,0.218,1.19,0.326
		c0.345,0.108,0.631,0.235,0.86,0.38c0.231,0.146,0.404,0.322,0.522,0.53c0.116,0.209,0.176,0.462,0.176,0.762
		c0,0.651-0.249,1.168-0.745,1.548C212.774,70.62,212.106,70.81,211.268,70.81"/>
	<path clip-path="url(#SVGID_2_)" fill="#B66528" d="M215.491,60.757h0.921v1.357h-0.921V60.757z M215.491,63.596h0.921v7.079
		h-0.921V63.596z"/>
	<path clip-path="url(#SVGID_2_)" fill="#B66528" d="M221.804,70.336c-0.055,0.026-0.134,0.063-0.237,0.107
		c-0.104,0.046-0.223,0.091-0.359,0.137c-0.135,0.045-0.289,0.086-0.462,0.121c-0.17,0.036-0.351,0.055-0.54,0.055
		c-0.198,0-0.388-0.026-0.568-0.081c-0.181-0.054-0.339-0.138-0.474-0.252c-0.136-0.112-0.244-0.256-0.325-0.428
		c-0.082-0.172-0.122-0.372-0.122-0.598v-5.068h-0.976v-0.733h0.976v-2.392h0.921v2.392h1.625v0.733h-1.625v4.81
		c0.019,0.264,0.109,0.456,0.271,0.577c0.162,0.123,0.356,0.184,0.582,0.184c0.262,0,0.492-0.043,0.691-0.128
		c0.198-0.086,0.325-0.148,0.379-0.184L221.804,70.336z"/>
	<path clip-path="url(#SVGID_2_)" fill="#B66528" d="M222.887,60.757h0.919v1.357h-0.919V60.757z M222.887,63.596h0.919v7.079
		h-0.919V63.596z"/>
	<path clip-path="url(#SVGID_2_)" fill="#B66528" d="M228.831,70.81c-0.515,0-0.986-0.097-1.415-0.292
		c-0.429-0.194-0.799-0.46-1.11-0.795c-0.311-0.335-0.554-0.724-0.725-1.169c-0.171-0.442-0.257-0.909-0.257-1.398
		c0-0.499,0.089-0.97,0.265-1.413c0.176-0.444,0.419-0.834,0.73-1.169c0.313-0.335,0.683-0.603,1.11-0.802
		c0.43-0.199,0.897-0.298,1.401-0.298c0.506,0,0.974,0.099,1.402,0.298s0.799,0.467,1.111,0.802
		c0.311,0.335,0.555,0.725,0.731,1.169c0.175,0.443,0.264,0.914,0.264,1.413c0,0.489-0.089,0.956-0.264,1.398
		c-0.177,0.445-0.421,0.834-0.731,1.169c-0.313,0.335-0.683,0.601-1.111,0.795C229.805,70.713,229.337,70.81,228.831,70.81
		 M226.272,67.169c0,0.398,0.064,0.767,0.196,1.106c0.13,0.341,0.311,0.64,0.542,0.896c0.229,0.259,0.5,0.46,0.813,0.605
		c0.312,0.145,0.643,0.218,0.995,0.218s0.684-0.075,0.995-0.225s0.585-0.353,0.818-0.611c0.236-0.258,0.422-0.56,0.556-0.903
		c0.137-0.344,0.204-0.716,0.204-1.115c0-0.389-0.067-0.758-0.204-1.106c-0.134-0.349-0.319-0.652-0.556-0.91
		c-0.233-0.259-0.504-0.462-0.811-0.611c-0.308-0.149-0.637-0.225-0.99-0.225c-0.352,0-0.683,0.075-0.995,0.225
		c-0.312,0.149-0.582,0.354-0.812,0.618c-0.23,0.262-0.414,0.568-0.549,0.917S226.272,66.771,226.272,67.169"/>
	<path clip-path="url(#SVGID_2_)" fill="#B66528" d="M239.773,70.675h-0.921v-3.954c0-0.843-0.122-1.454-0.364-1.834
		c-0.245-0.381-0.624-0.571-1.139-0.571c-0.27,0-0.541,0.05-0.813,0.149c-0.271,0.1-0.524,0.24-0.758,0.422
		c-0.236,0.181-0.441,0.396-0.617,0.645c-0.176,0.25-0.309,0.519-0.399,0.81v4.334h-0.921v-7.08h0.84v1.604
		c0.146-0.253,0.323-0.486,0.535-0.699s0.449-0.396,0.711-0.551c0.262-0.153,0.539-0.271,0.832-0.354
		c0.294-0.081,0.599-0.121,0.915-0.121c0.396,0,0.729,0.071,0.995,0.216c0.266,0.146,0.481,0.35,0.644,0.612
		s0.279,0.585,0.352,0.965c0.073,0.381,0.108,0.802,0.108,1.264V70.675z"/>
	<path clip-path="url(#SVGID_2_)" fill="#B66528" d="M189.166,85.769l4.022-9.646h0.772l4.021,9.646h-1.017l-1.246-3.017H191.4
		l-1.233,3.017H189.166z M193.58,77.235l-1.977,4.771h3.9L193.58,77.235z"/>
	<path clip-path="url(#SVGID_2_)" fill="#B66528" d="M201.841,85.904c-0.487,0-0.939-0.102-1.354-0.305
		c-0.415-0.204-0.773-0.474-1.077-0.809c-0.303-0.335-0.536-0.724-0.704-1.162c-0.167-0.439-0.251-0.899-0.251-1.379
		c0-0.499,0.081-0.972,0.245-1.42c0.163-0.449,0.386-0.84,0.67-1.176c0.284-0.335,0.623-0.6,1.016-0.795
		c0.393-0.194,0.822-0.292,1.294-0.292c0.596,0,1.123,0.156,1.584,0.469s0.825,0.69,1.097,1.135V75.85h0.921v8.724
		c0,0.253,0.108,0.38,0.325,0.38v0.815c-0.153,0.027-0.275,0.041-0.365,0.041c-0.227,0-0.413-0.065-0.556-0.197
		c-0.145-0.132-0.218-0.287-0.218-0.469v-0.747c-0.288,0.462-0.67,0.829-1.144,1.101S202.356,85.904,201.841,85.904 M202.031,85.09
		c0.235,0,0.48-0.046,0.737-0.137c0.258-0.09,0.497-0.214,0.719-0.373c0.221-0.158,0.412-0.344,0.575-0.558
		c0.163-0.212,0.263-0.441,0.298-0.686v-2.188c-0.091-0.245-0.223-0.474-0.399-0.687c-0.176-0.213-0.374-0.401-0.596-0.563
		c-0.222-0.163-0.455-0.29-0.704-0.381s-0.494-0.136-0.739-0.136c-0.379,0-0.724,0.082-1.035,0.244
		c-0.312,0.164-0.576,0.378-0.792,0.646c-0.217,0.268-0.386,0.573-0.508,0.917c-0.122,0.345-0.183,0.697-0.183,1.061
		c0,0.38,0.067,0.743,0.202,1.087c0.136,0.344,0.321,0.646,0.556,0.903c0.235,0.259,0.513,0.465,0.832,0.618
		C201.316,85.012,201.661,85.09,202.031,85.09"/>
	<path clip-path="url(#SVGID_2_)" fill="#B66528" d="M210.278,85.904c-0.487,0-0.938-0.102-1.354-0.305
		c-0.415-0.204-0.774-0.474-1.076-0.809c-0.303-0.335-0.538-0.724-0.705-1.162c-0.166-0.439-0.25-0.899-0.25-1.379
		c0-0.499,0.082-0.972,0.244-1.42c0.162-0.449,0.386-0.84,0.67-1.176c0.284-0.335,0.622-0.6,1.016-0.795
		c0.393-0.194,0.823-0.292,1.294-0.292c0.596,0,1.123,0.156,1.584,0.469s0.826,0.69,1.098,1.135V75.85h0.92v8.724
		c0,0.253,0.108,0.38,0.325,0.38v0.815c-0.154,0.027-0.275,0.041-0.365,0.041c-0.227,0-0.412-0.065-0.556-0.197
		c-0.145-0.132-0.216-0.287-0.216-0.469v-0.747c-0.289,0.462-0.67,0.829-1.145,1.101S210.792,85.904,210.278,85.904 M210.468,85.09
		c0.234,0,0.48-0.046,0.738-0.137c0.257-0.09,0.496-0.214,0.717-0.373c0.223-0.158,0.414-0.344,0.576-0.558
		c0.162-0.212,0.262-0.441,0.299-0.686v-2.188c-0.09-0.245-0.225-0.474-0.4-0.687s-0.374-0.401-0.596-0.563
		c-0.221-0.163-0.456-0.29-0.704-0.381s-0.495-0.136-0.737-0.136c-0.38,0-0.726,0.082-1.036,0.244
		c-0.313,0.164-0.576,0.378-0.794,0.646c-0.216,0.268-0.386,0.573-0.507,0.917c-0.122,0.345-0.183,0.697-0.183,1.061
		c0,0.38,0.068,0.743,0.202,1.087c0.136,0.344,0.321,0.646,0.556,0.903c0.235,0.259,0.513,0.465,0.833,0.618
		S210.098,85.09,210.468,85.09"/>
	<path clip-path="url(#SVGID_2_)" fill="#B66528" d="M219.312,79.504c-0.624,0.02-1.166,0.191-1.626,0.517
		c-0.46,0.326-0.785,0.775-0.976,1.346v4.402h-0.921v-7.079h0.866v1.698c0.245-0.497,0.564-0.912,0.963-1.243
		c0.397-0.33,0.825-0.496,1.286-0.496h0.23c0.072,0,0.13,0.006,0.177,0.015V79.504z"/>
	<path clip-path="url(#SVGID_2_)" fill="#B66528" d="M223.631,85.904c-0.515,0-0.989-0.098-1.421-0.292
		c-0.435-0.194-0.809-0.462-1.125-0.802c-0.316-0.339-0.563-0.73-0.737-1.175c-0.177-0.443-0.265-0.919-0.265-1.427
		c0-0.499,0.088-0.968,0.265-1.406c0.175-0.439,0.421-0.824,0.737-1.154c0.316-0.331,0.688-0.594,1.117-0.789
		c0.429-0.194,0.9-0.292,1.415-0.292s0.986,0.098,1.415,0.292c0.429,0.195,0.797,0.46,1.104,0.795
		c0.308,0.336,0.547,0.721,0.719,1.155c0.172,0.436,0.257,0.896,0.257,1.386c0,0.072-0.003,0.146-0.007,0.217
		c-0.003,0.073-0.012,0.123-0.021,0.149h-6.026c0.027,0.382,0.115,0.732,0.264,1.054c0.15,0.322,0.34,0.601,0.569,0.836
		c0.23,0.235,0.496,0.418,0.799,0.55s0.625,0.197,0.969,0.197c0.233,0,0.465-0.031,0.689-0.096c0.227-0.063,0.435-0.149,0.624-0.258
		s0.359-0.242,0.507-0.401c0.15-0.158,0.265-0.332,0.347-0.522l0.799,0.218c-0.109,0.262-0.263,0.5-0.461,0.713
		c-0.198,0.214-0.429,0.398-0.69,0.558c-0.263,0.158-0.552,0.28-0.866,0.367C224.29,85.861,223.965,85.904,223.631,85.904
		 M226.23,81.856c-0.026-0.382-0.114-0.728-0.264-1.041c-0.148-0.312-0.338-0.581-0.568-0.808c-0.23-0.226-0.499-0.403-0.806-0.53
		c-0.308-0.127-0.633-0.19-0.976-0.19s-0.669,0.063-0.976,0.19c-0.306,0.127-0.575,0.305-0.806,0.53
		c-0.229,0.227-0.415,0.498-0.555,0.815c-0.141,0.316-0.224,0.661-0.251,1.033H226.23z"/>
	<path clip-path="url(#SVGID_2_)" fill="#B66528" d="M230.862,85.905c-0.551,0-1.088-0.091-1.612-0.271
		c-0.522-0.182-0.974-0.444-1.354-0.789l0.42-0.624c0.397,0.326,0.802,0.57,1.212,0.732c0.411,0.164,0.851,0.246,1.32,0.246
		c0.568,0,1.022-0.116,1.362-0.348c0.338-0.23,0.507-0.56,0.507-0.985c0-0.198-0.044-0.363-0.135-0.495
		c-0.09-0.132-0.225-0.246-0.4-0.348c-0.175-0.099-0.397-0.188-0.663-0.264c-0.267-0.077-0.576-0.156-0.928-0.238
		c-0.407-0.099-0.759-0.198-1.058-0.299c-0.297-0.1-0.543-0.213-0.737-0.34c-0.194-0.126-0.338-0.283-0.433-0.469
		s-0.143-0.419-0.143-0.699c0-0.354,0.069-0.666,0.21-0.938c0.14-0.271,0.329-0.496,0.569-0.673c0.239-0.176,0.519-0.31,0.839-0.4
		s0.661-0.137,1.022-0.137c0.541,0,1.034,0.089,1.477,0.266c0.442,0.176,0.8,0.409,1.069,0.699l-0.446,0.544
		c-0.262-0.272-0.58-0.476-0.954-0.611c-0.376-0.137-0.766-0.204-1.173-0.204c-0.243,0-0.47,0.024-0.677,0.074
		s-0.39,0.13-0.549,0.238c-0.157,0.109-0.282,0.247-0.372,0.414c-0.091,0.168-0.135,0.365-0.135,0.592
		c0,0.19,0.031,0.344,0.095,0.461c0.062,0.118,0.167,0.22,0.311,0.307c0.145,0.086,0.328,0.162,0.549,0.23s0.489,0.139,0.806,0.211
		c0.451,0.109,0.849,0.218,1.191,0.326c0.344,0.108,0.631,0.235,0.86,0.38c0.231,0.145,0.404,0.322,0.522,0.529
		c0.116,0.209,0.177,0.463,0.177,0.763c0,0.651-0.25,1.167-0.746,1.548C232.37,85.714,231.702,85.905,230.862,85.905"/>
	<path clip-path="url(#SVGID_2_)" fill="#B66528" d="M237.458,85.905c-0.552,0-1.088-0.091-1.612-0.271
		c-0.522-0.182-0.975-0.444-1.354-0.789l0.42-0.624c0.396,0.326,0.801,0.57,1.211,0.732c0.411,0.164,0.851,0.246,1.32,0.246
		c0.568,0,1.022-0.116,1.362-0.348c0.338-0.23,0.507-0.56,0.507-0.985c0-0.198-0.045-0.363-0.135-0.495s-0.225-0.246-0.399-0.348
		c-0.176-0.099-0.398-0.188-0.664-0.264c-0.267-0.077-0.576-0.156-0.928-0.238c-0.406-0.099-0.758-0.198-1.057-0.299
		c-0.298-0.1-0.544-0.213-0.737-0.34c-0.195-0.126-0.339-0.283-0.434-0.469s-0.142-0.419-0.142-0.699
		c0-0.354,0.069-0.666,0.209-0.938s0.33-0.496,0.57-0.673c0.237-0.176,0.518-0.31,0.838-0.4c0.321-0.091,0.662-0.137,1.023-0.137
		c0.54,0,1.033,0.089,1.476,0.266c0.442,0.176,0.8,0.409,1.07,0.699l-0.446,0.544c-0.263-0.272-0.581-0.476-0.955-0.611
		c-0.376-0.137-0.766-0.204-1.173-0.204c-0.243,0-0.469,0.024-0.676,0.074c-0.208,0.05-0.391,0.13-0.55,0.238
		c-0.157,0.109-0.281,0.247-0.372,0.414c-0.092,0.168-0.135,0.365-0.135,0.592c0,0.19,0.031,0.344,0.095,0.461
		c0.063,0.118,0.167,0.22,0.312,0.307c0.145,0.086,0.327,0.162,0.549,0.23c0.22,0.068,0.489,0.139,0.806,0.211
		c0.45,0.109,0.849,0.218,1.191,0.326c0.344,0.108,0.63,0.235,0.859,0.38c0.23,0.145,0.404,0.322,0.522,0.529
		c0.116,0.209,0.176,0.463,0.176,0.763c0,0.651-0.249,1.167-0.744,1.548C238.966,85.714,238.298,85.905,237.458,85.905"/>
	<path clip-path="url(#SVGID_2_)" fill="#B66528" d="M189.166,100.936l4.022-9.647h0.772l4.021,9.647h-1.017l-1.246-3.016H191.4
		l-1.233,3.016H189.166z M193.58,92.403l-1.977,4.769h3.9L193.58,92.403z"/>
	<path clip-path="url(#SVGID_2_)" fill="#B66528" d="M201.841,101.072c-0.487,0-0.939-0.102-1.354-0.307
		c-0.415-0.203-0.773-0.474-1.077-0.809c-0.303-0.335-0.536-0.722-0.704-1.161c-0.167-0.439-0.251-0.898-0.251-1.38
		c0-0.497,0.081-0.971,0.245-1.42c0.163-0.447,0.386-0.84,0.67-1.175s0.623-0.6,1.016-0.795s0.822-0.292,1.294-0.292
		c0.596,0,1.123,0.157,1.584,0.469c0.461,0.313,0.825,0.691,1.097,1.135v-4.32h0.921v8.723c0,0.254,0.108,0.381,0.325,0.381v0.814
		c-0.153,0.028-0.275,0.041-0.365,0.041c-0.227,0-0.413-0.066-0.556-0.196c-0.145-0.132-0.218-0.288-0.218-0.469v-0.748
		c-0.288,0.463-0.67,0.828-1.144,1.101C202.851,100.936,202.356,101.072,201.841,101.072 M202.031,100.257
		c0.235,0,0.48-0.045,0.737-0.136c0.258-0.091,0.497-0.216,0.719-0.374c0.221-0.159,0.412-0.345,0.575-0.558s0.263-0.44,0.298-0.687
		v-2.187c-0.091-0.245-0.223-0.474-0.399-0.687c-0.176-0.213-0.374-0.4-0.596-0.563s-0.455-0.291-0.704-0.381
		s-0.494-0.136-0.739-0.136c-0.379,0-0.724,0.081-1.035,0.245c-0.312,0.162-0.576,0.378-0.792,0.645
		c-0.217,0.268-0.386,0.573-0.508,0.918c-0.122,0.344-0.183,0.697-0.183,1.059c0,0.381,0.067,0.743,0.202,1.087
		c0.136,0.346,0.321,0.646,0.556,0.905c0.235,0.257,0.513,0.463,0.832,0.618C201.316,100.18,201.661,100.257,202.031,100.257"/>
	<path clip-path="url(#SVGID_2_)" fill="#B66528" d="M210.278,101.072c-0.487,0-0.938-0.102-1.354-0.307
		c-0.415-0.203-0.774-0.474-1.076-0.809c-0.303-0.335-0.538-0.722-0.705-1.161c-0.166-0.439-0.25-0.898-0.25-1.38
		c0-0.497,0.082-0.971,0.244-1.42c0.162-0.447,0.386-0.84,0.67-1.175s0.622-0.6,1.016-0.795c0.393-0.195,0.823-0.292,1.294-0.292
		c0.596,0,1.123,0.157,1.584,0.469c0.461,0.313,0.826,0.691,1.098,1.135v-4.32h0.92v8.723c0,0.254,0.108,0.381,0.325,0.381v0.814
		c-0.154,0.028-0.275,0.041-0.365,0.041c-0.227,0-0.412-0.066-0.556-0.196c-0.145-0.132-0.216-0.288-0.216-0.469v-0.748
		c-0.289,0.463-0.67,0.828-1.145,1.101C211.287,100.936,210.792,101.072,210.278,101.072 M210.468,100.257
		c0.234,0,0.48-0.045,0.738-0.136c0.257-0.091,0.496-0.216,0.717-0.374c0.223-0.159,0.414-0.345,0.576-0.558s0.262-0.44,0.299-0.687
		v-2.187c-0.09-0.245-0.225-0.474-0.4-0.687s-0.374-0.4-0.596-0.563c-0.221-0.163-0.456-0.291-0.704-0.381s-0.495-0.136-0.737-0.136
		c-0.38,0-0.726,0.081-1.036,0.245c-0.313,0.162-0.576,0.378-0.794,0.645c-0.216,0.268-0.386,0.573-0.507,0.918
		c-0.122,0.344-0.183,0.697-0.183,1.059c0,0.381,0.068,0.743,0.202,1.087c0.136,0.346,0.321,0.646,0.556,0.905
		c0.235,0.257,0.513,0.463,0.833,0.618C209.752,100.18,210.098,100.257,210.468,100.257"/>
	<path clip-path="url(#SVGID_2_)" fill="#B66528" d="M219.312,94.672c-0.624,0.018-1.166,0.19-1.626,0.517s-0.785,0.773-0.976,1.345
		v4.402h-0.921v-7.078h0.866v1.698c0.245-0.499,0.564-0.914,0.963-1.244c0.397-0.331,0.825-0.495,1.286-0.495h0.23
		c0.072,0,0.13,0.005,0.177,0.013V94.672z"/>
	<path clip-path="url(#SVGID_2_)" fill="#B66528" d="M223.631,101.072c-0.515,0-0.989-0.098-1.421-0.292
		c-0.435-0.196-0.809-0.463-1.125-0.802c-0.316-0.341-0.563-0.732-0.737-1.176c-0.177-0.444-0.265-0.92-0.265-1.428
		c0-0.497,0.088-0.966,0.265-1.405c0.175-0.439,0.421-0.824,0.737-1.155c0.316-0.33,0.688-0.593,1.117-0.788s0.9-0.292,1.415-0.292
		s0.986,0.097,1.415,0.292s0.797,0.46,1.104,0.795c0.308,0.335,0.547,0.721,0.719,1.155s0.257,0.896,0.257,1.386
		c0,0.073-0.003,0.145-0.007,0.218c-0.003,0.072-0.012,0.121-0.021,0.149h-6.026c0.027,0.38,0.115,0.73,0.264,1.053
		c0.15,0.321,0.34,0.601,0.569,0.836c0.23,0.235,0.496,0.419,0.799,0.551c0.303,0.13,0.625,0.196,0.969,0.196
		c0.233,0,0.465-0.032,0.689-0.095c0.227-0.064,0.435-0.149,0.624-0.259c0.189-0.108,0.359-0.242,0.507-0.4
		c0.15-0.159,0.265-0.333,0.347-0.523l0.799,0.217c-0.109,0.264-0.263,0.501-0.461,0.714s-0.429,0.398-0.69,0.557
		c-0.263,0.159-0.552,0.281-0.866,0.367C224.29,101.029,223.965,101.072,223.631,101.072 M226.23,97.022
		c-0.026-0.38-0.114-0.727-0.264-1.039c-0.148-0.313-0.338-0.582-0.568-0.809s-0.499-0.403-0.806-0.529
		c-0.308-0.127-0.633-0.19-0.976-0.19s-0.669,0.063-0.976,0.19c-0.306,0.126-0.575,0.303-0.806,0.529
		c-0.229,0.227-0.415,0.498-0.555,0.815c-0.141,0.317-0.224,0.661-0.251,1.032H226.23z"/>
	<path clip-path="url(#SVGID_2_)" fill="#B66528" d="M230.862,101.072c-0.551,0-1.088-0.091-1.612-0.272
		c-0.522-0.182-0.974-0.443-1.354-0.787l0.42-0.626c0.397,0.326,0.802,0.57,1.212,0.734c0.411,0.162,0.851,0.244,1.32,0.244
		c0.568,0,1.022-0.115,1.362-0.346c0.338-0.231,0.507-0.56,0.507-0.985c0-0.199-0.044-0.365-0.135-0.497
		c-0.09-0.13-0.225-0.246-0.4-0.346c-0.175-0.1-0.397-0.188-0.663-0.266c-0.267-0.076-0.576-0.155-0.928-0.237
		c-0.407-0.1-0.759-0.199-1.058-0.299c-0.297-0.1-0.543-0.213-0.737-0.339c-0.194-0.128-0.338-0.283-0.433-0.47
		c-0.095-0.186-0.143-0.419-0.143-0.699c0-0.353,0.069-0.666,0.21-0.938c0.14-0.272,0.329-0.496,0.569-0.673
		c0.239-0.177,0.519-0.311,0.839-0.401s0.661-0.136,1.022-0.136c0.541,0,1.034,0.088,1.477,0.266c0.442,0.177,0.8,0.41,1.069,0.699
		l-0.446,0.543c-0.262-0.271-0.58-0.476-0.954-0.611c-0.376-0.135-0.766-0.203-1.173-0.203c-0.243,0-0.47,0.025-0.677,0.075
		s-0.39,0.128-0.549,0.237c-0.157,0.108-0.282,0.247-0.372,0.415c-0.091,0.167-0.135,0.363-0.135,0.59
		c0,0.19,0.031,0.345,0.095,0.463c0.062,0.117,0.167,0.22,0.311,0.305c0.145,0.087,0.328,0.164,0.549,0.231
		c0.221,0.068,0.489,0.138,0.806,0.211c0.451,0.108,0.849,0.217,1.191,0.326c0.344,0.108,0.631,0.235,0.86,0.381
		c0.231,0.145,0.404,0.321,0.522,0.529c0.116,0.208,0.177,0.462,0.177,0.761c0,0.652-0.25,1.169-0.746,1.549
		C232.37,100.882,231.702,101.072,230.862,101.072"/>
	<path clip-path="url(#SVGID_2_)" fill="#B66528" d="M237.458,101.072c-0.552,0-1.088-0.091-1.612-0.272
		c-0.522-0.182-0.975-0.443-1.354-0.787l0.42-0.626c0.396,0.326,0.801,0.57,1.211,0.734c0.411,0.162,0.851,0.244,1.32,0.244
		c0.568,0,1.022-0.115,1.362-0.346c0.338-0.231,0.507-0.56,0.507-0.985c0-0.199-0.045-0.365-0.135-0.497
		c-0.09-0.13-0.225-0.246-0.399-0.346c-0.176-0.1-0.398-0.188-0.664-0.266c-0.267-0.076-0.576-0.155-0.928-0.237
		c-0.406-0.1-0.758-0.199-1.057-0.299c-0.298-0.1-0.544-0.213-0.737-0.339c-0.195-0.128-0.339-0.283-0.434-0.47
		c-0.095-0.186-0.142-0.419-0.142-0.699c0-0.353,0.069-0.666,0.209-0.938c0.14-0.272,0.33-0.496,0.57-0.673
		c0.237-0.177,0.518-0.311,0.838-0.401c0.321-0.091,0.662-0.136,1.023-0.136c0.54,0,1.033,0.088,1.476,0.266
		c0.442,0.177,0.8,0.41,1.07,0.699l-0.446,0.543c-0.263-0.271-0.581-0.476-0.955-0.611c-0.376-0.135-0.766-0.203-1.173-0.203
		c-0.243,0-0.469,0.025-0.676,0.075c-0.208,0.05-0.391,0.128-0.55,0.237c-0.157,0.108-0.281,0.247-0.372,0.415
		c-0.092,0.167-0.135,0.363-0.135,0.59c0,0.19,0.031,0.345,0.095,0.463c0.063,0.117,0.167,0.22,0.312,0.305
		c0.145,0.087,0.327,0.164,0.549,0.231c0.22,0.068,0.489,0.138,0.806,0.211c0.45,0.108,0.849,0.217,1.191,0.326
		c0.344,0.108,0.63,0.235,0.859,0.381c0.23,0.145,0.404,0.321,0.522,0.529c0.116,0.208,0.176,0.462,0.176,0.761
		c0,0.652-0.249,1.169-0.744,1.549C238.966,100.882,238.298,101.072,237.458,101.072"/>
	<path clip-path="url(#SVGID_2_)" fill="#B66528" d="M149.31,116.241v-9.647h3.98c0.417,0,0.799,0.089,1.146,0.266
		c0.348,0.177,0.647,0.408,0.9,0.693c0.254,0.285,0.45,0.609,0.589,0.971c0.141,0.363,0.21,0.729,0.21,1.102
		c0,0.398-0.064,0.78-0.196,1.147c-0.131,0.367-0.318,0.691-0.562,0.972c-0.244,0.28-0.534,0.507-0.874,0.68
		c-0.339,0.172-0.716,0.258-1.131,0.258h-3.128v3.56H149.31z M150.244,111.84h3.074c0.279,0,0.534-0.063,0.766-0.184
		c0.229-0.123,0.426-0.285,0.589-0.49c0.163-0.203,0.288-0.438,0.379-0.706c0.09-0.267,0.136-0.545,0.136-0.835
		c0-0.3-0.052-0.583-0.155-0.85c-0.104-0.268-0.245-0.501-0.421-0.699c-0.176-0.199-0.384-0.356-0.622-0.47
		c-0.24-0.113-0.49-0.17-0.752-0.17h-2.993V111.84z"/>
	<path clip-path="url(#SVGID_2_)" fill="#B66528" d="M163.421,116.241H162.5v-3.954c0-0.806-0.137-1.408-0.412-1.807
		s-0.681-0.598-1.213-0.598c-0.262,0-0.522,0.052-0.779,0.156s-0.499,0.247-0.724,0.429c-0.228,0.18-0.423,0.394-0.59,0.638
		c-0.166,0.244-0.291,0.512-0.372,0.802v4.334h-0.921v-9.918h0.921v4.442c0.288-0.533,0.682-0.955,1.178-1.264
		c0.496-0.308,1.029-0.462,1.599-0.462c0.406,0,0.751,0.075,1.036,0.225c0.284,0.149,0.514,0.358,0.69,0.624
		c0.175,0.269,0.306,0.59,0.386,0.966c0.081,0.376,0.122,0.791,0.122,1.243V116.241z"/>
	<path clip-path="url(#SVGID_2_)" fill="#B66528" d="M168.377,116.378c-0.516,0-0.986-0.098-1.416-0.292
		c-0.428-0.196-0.798-0.46-1.109-0.795c-0.313-0.335-0.554-0.726-0.725-1.169c-0.172-0.442-0.258-0.91-0.258-1.4
		c0-0.497,0.088-0.968,0.265-1.413c0.177-0.443,0.42-0.832,0.731-1.167c0.312-0.337,0.681-0.603,1.11-0.802
		c0.429-0.2,0.896-0.3,1.401-0.3s0.974,0.1,1.401,0.3c0.43,0.199,0.8,0.465,1.11,0.802c0.313,0.335,0.556,0.724,0.732,1.167
		c0.176,0.445,0.265,0.916,0.265,1.413c0,0.49-0.089,0.958-0.265,1.4c-0.177,0.443-0.42,0.834-0.732,1.169
		c-0.311,0.335-0.681,0.599-1.11,0.795C169.351,116.28,168.883,116.378,168.377,116.378 M165.817,112.736
		c0,0.399,0.065,0.768,0.196,1.107c0.131,0.339,0.312,0.639,0.542,0.896s0.5,0.46,0.813,0.604c0.311,0.146,0.643,0.217,0.994,0.217
		c0.353,0,0.685-0.074,0.996-0.224c0.311-0.148,0.584-0.354,0.818-0.611c0.235-0.259,0.42-0.56,0.555-0.903
		c0.137-0.345,0.205-0.717,0.205-1.114c0-0.39-0.068-0.759-0.205-1.108c-0.135-0.348-0.319-0.651-0.555-0.91
		c-0.234-0.257-0.506-0.462-0.812-0.611c-0.307-0.149-0.638-0.225-0.989-0.225s-0.684,0.075-0.995,0.225s-0.582,0.356-0.813,0.618
		c-0.229,0.264-0.412,0.568-0.549,0.918C165.886,111.964,165.817,112.337,165.817,112.736"/>
	<path clip-path="url(#SVGID_2_)" fill="#B66528" d="M179.319,116.241h-0.921v-3.954c0-0.842-0.122-1.454-0.365-1.834
		c-0.245-0.381-0.624-0.57-1.138-0.57c-0.271,0-0.542,0.05-0.813,0.149c-0.271,0.101-0.523,0.24-0.758,0.421
		c-0.235,0.182-0.44,0.396-0.616,0.646s-0.31,0.519-0.4,0.809v4.334h-0.92v-7.078h0.84v1.603c0.145-0.253,0.322-0.486,0.534-0.699
		s0.45-0.396,0.712-0.551s0.539-0.271,0.832-0.353c0.293-0.082,0.599-0.123,0.914-0.123c0.397,0,0.729,0.073,0.996,0.218
		c0.266,0.145,0.48,0.349,0.644,0.611c0.162,0.264,0.279,0.584,0.352,0.964c0.072,0.381,0.108,0.802,0.108,1.265V116.241z"/>
	<path clip-path="url(#SVGID_2_)" fill="#B66528" d="M184.316,116.378c-0.515,0-0.989-0.098-1.422-0.292
		c-0.434-0.194-0.808-0.462-1.125-0.802c-0.315-0.341-0.562-0.732-0.736-1.176c-0.177-0.444-0.265-0.92-0.265-1.427
		c0-0.498,0.088-0.967,0.265-1.406c0.175-0.439,0.421-0.824,0.736-1.155c0.317-0.33,0.689-0.593,1.118-0.787
		c0.429-0.195,0.9-0.293,1.415-0.293s0.986,0.098,1.414,0.293c0.43,0.194,0.798,0.459,1.104,0.794s0.547,0.721,0.719,1.155
		s0.257,0.896,0.257,1.386c0,0.073-0.003,0.145-0.007,0.218c-0.005,0.072-0.013,0.122-0.021,0.149h-6.026
		c0.027,0.38,0.116,0.73,0.265,1.053c0.15,0.321,0.34,0.601,0.569,0.836c0.23,0.235,0.495,0.419,0.799,0.551
		c0.303,0.13,0.625,0.196,0.969,0.196c0.233,0,0.465-0.032,0.689-0.095c0.227-0.064,0.435-0.149,0.624-0.259
		c0.189-0.108,0.359-0.242,0.507-0.4c0.15-0.158,0.265-0.333,0.347-0.523l0.799,0.217c-0.109,0.264-0.263,0.501-0.462,0.715
		c-0.197,0.212-0.428,0.397-0.69,0.556c-0.262,0.159-0.551,0.281-0.866,0.367C184.976,116.335,184.65,116.378,184.316,116.378
		 M186.916,112.328c-0.026-0.38-0.114-0.727-0.264-1.039c-0.148-0.313-0.338-0.582-0.568-0.809s-0.499-0.403-0.806-0.529
		c-0.308-0.127-0.633-0.19-0.976-0.19s-0.669,0.063-0.976,0.19c-0.306,0.126-0.575,0.303-0.807,0.529
		c-0.229,0.227-0.414,0.498-0.554,0.815c-0.141,0.317-0.225,0.661-0.251,1.032H186.916z"/>
	<path clip-path="url(#SVGID_2_)" fill="#B66528" d="M198.576,116.241h-0.921v-3.954c0-0.842-0.121-1.454-0.365-1.834
		c-0.243-0.381-0.623-0.57-1.139-0.57c-0.27,0-0.541,0.05-0.811,0.149c-0.271,0.101-0.525,0.24-0.76,0.421
		c-0.234,0.182-0.439,0.396-0.616,0.646c-0.176,0.249-0.309,0.519-0.398,0.809v4.334h-0.922v-7.078h0.84v1.603
		c0.145-0.253,0.322-0.486,0.536-0.699c0.211-0.213,0.447-0.396,0.709-0.551c0.263-0.154,0.54-0.271,0.834-0.353
		c0.293-0.082,0.597-0.123,0.914-0.123c0.397,0,0.729,0.073,0.994,0.218c0.267,0.145,0.481,0.349,0.644,0.611
		c0.163,0.264,0.28,0.584,0.354,0.964c0.072,0.381,0.107,0.802,0.107,1.265V116.241z"/>
	<path clip-path="url(#SVGID_2_)" fill="#B66528" d="M202.666,116.378c-0.74,0-1.3-0.256-1.68-0.768
		c-0.379-0.512-0.568-1.275-0.568-2.29v-4.157h0.92v3.995c0,1.603,0.547,2.404,1.641,2.404c0.271,0,0.536-0.045,0.798-0.136
		s0.503-0.223,0.725-0.394c0.221-0.173,0.42-0.376,0.596-0.611s0.319-0.503,0.428-0.802v-4.457h0.92v5.883
		c0,0.254,0.113,0.381,0.338,0.381v0.814c-0.181,0.028-0.306,0.041-0.379,0.041c-0.207,0-0.386-0.063-0.534-0.189
		c-0.149-0.128-0.224-0.286-0.224-0.476v-0.979c-0.315,0.553-0.736,0.98-1.259,1.283
		C203.862,116.227,203.289,116.378,202.666,116.378"/>
	<path clip-path="url(#SVGID_2_)" fill="#B66528" d="M219.024,116.241h-0.92v-3.954c0-0.823-0.129-1.431-0.386-1.819
		c-0.257-0.391-0.647-0.585-1.172-0.585c-0.271,0-0.526,0.05-0.765,0.149c-0.24,0.101-0.461,0.24-0.663,0.421
		c-0.203,0.182-0.382,0.396-0.536,0.646c-0.152,0.249-0.271,0.523-0.352,0.821v4.321h-0.921v-3.954c0-0.842-0.127-1.454-0.379-1.834
		c-0.253-0.381-0.641-0.57-1.165-0.57c-0.532,0-1.007,0.186-1.422,0.557c-0.416,0.372-0.713,0.86-0.894,1.468v4.334h-0.921v-7.078
		h0.84v1.603c0.289-0.544,0.668-0.967,1.138-1.271c0.47-0.303,0.987-0.455,1.556-0.455c0.598,0,1.076,0.168,1.436,0.503
		c0.362,0.335,0.579,0.774,0.651,1.318c0.659-1.214,1.57-1.821,2.734-1.821c0.39,0,0.721,0.073,0.996,0.218s0.497,0.351,0.663,0.618
		c0.168,0.268,0.289,0.589,0.366,0.965s0.114,0.794,0.114,1.257V116.241z"/>
	<path clip-path="url(#SVGID_2_)" fill="#B66528" d="M224.388,116.378c-0.551,0-1.061-0.141-1.529-0.422
		c-0.47-0.28-0.836-0.644-1.098-1.087v1.372h-0.826v-9.918h0.921v4.32c0.318-0.48,0.696-0.867,1.138-1.161
		c0.442-0.295,0.962-0.442,1.558-0.442c0.487,0,0.931,0.104,1.327,0.313s0.734,0.487,1.01,0.836s0.486,0.742,0.636,1.183
		c0.148,0.438,0.224,0.89,0.224,1.351c0,0.499-0.086,0.97-0.258,1.413c-0.172,0.445-0.408,0.832-0.71,1.162
		c-0.304,0.331-0.66,0.595-1.071,0.789C225.298,116.28,224.857,116.378,224.388,116.378 M224.172,115.563
		c0.388,0,0.743-0.079,1.063-0.237c0.32-0.159,0.596-0.372,0.826-0.64s0.41-0.57,0.542-0.91c0.131-0.34,0.196-0.69,0.196-1.054
		c0-0.371-0.062-0.729-0.183-1.072c-0.122-0.345-0.293-0.65-0.515-0.918c-0.222-0.267-0.486-0.479-0.792-0.638
		c-0.307-0.159-0.646-0.237-1.017-0.237c-0.28,0-0.541,0.047-0.785,0.143c-0.244,0.095-0.469,0.223-0.675,0.387
		c-0.21,0.162-0.397,0.351-0.563,0.563c-0.168,0.213-0.306,0.438-0.414,0.673v2.201c0.036,0.244,0.134,0.474,0.292,0.686
		c0.157,0.214,0.349,0.397,0.575,0.551c0.226,0.153,0.465,0.276,0.717,0.367C223.693,115.518,223.936,115.563,224.172,115.563"/>
	<path clip-path="url(#SVGID_2_)" fill="#B66528" d="M232.365,116.378c-0.515,0-0.989-0.098-1.422-0.292
		c-0.435-0.194-0.81-0.462-1.124-0.802c-0.316-0.341-0.563-0.732-0.739-1.176c-0.176-0.444-0.264-0.92-0.264-1.427
		c0-0.498,0.088-0.967,0.264-1.406c0.177-0.439,0.423-0.824,0.739-1.155c0.314-0.33,0.688-0.593,1.117-0.787
		c0.429-0.195,0.9-0.293,1.415-0.293s0.986,0.098,1.415,0.293c0.429,0.194,0.797,0.459,1.104,0.794
		c0.306,0.335,0.546,0.721,0.716,1.155c0.173,0.435,0.259,0.896,0.259,1.386c0,0.073-0.003,0.145-0.007,0.218
		c-0.005,0.072-0.011,0.122-0.02,0.149h-6.026c0.026,0.38,0.114,0.73,0.263,1.053c0.149,0.321,0.339,0.601,0.569,0.836
		c0.229,0.235,0.497,0.419,0.799,0.551c0.302,0.13,0.626,0.196,0.969,0.196c0.234,0,0.464-0.032,0.69-0.095
		c0.226-0.064,0.433-0.149,0.622-0.259c0.189-0.108,0.359-0.242,0.509-0.4c0.148-0.158,0.264-0.333,0.346-0.523l0.799,0.217
		c-0.108,0.264-0.263,0.501-0.461,0.715c-0.198,0.212-0.429,0.397-0.689,0.556c-0.263,0.159-0.552,0.281-0.868,0.367
		C233.023,116.335,232.699,116.378,232.365,116.378 M234.966,112.328c-0.027-0.38-0.117-0.727-0.265-1.039
		c-0.149-0.313-0.339-0.582-0.568-0.809c-0.23-0.227-0.499-0.403-0.807-0.529c-0.307-0.127-0.632-0.19-0.975-0.19
		c-0.344,0-0.668,0.063-0.976,0.19c-0.308,0.126-0.575,0.303-0.806,0.529s-0.415,0.498-0.556,0.815
		c-0.14,0.317-0.222,0.661-0.25,1.032H234.966z"/>
	<path clip-path="url(#SVGID_2_)" fill="#B66528" d="M240.747,109.978c-0.622,0.018-1.163,0.19-1.624,0.517
		s-0.786,0.773-0.976,1.345v4.402h-0.92v-7.078h0.866v1.698c0.243-0.499,0.564-0.914,0.961-1.244
		c0.399-0.331,0.826-0.495,1.287-0.495h0.229c0.072,0,0.132,0.005,0.176,0.013V109.978z"/>
	<polygon clip-path="url(#SVGID_2_)" fill="#B66528" points="18.679,30.178 19.571,30.178 16.551,37.257 15.781,37.257 
		14.277,33.643 12.774,37.257 12.002,37.257 8.982,30.178 9.862,30.178 12.436,36.306 13.776,33.072 12.571,30.192 13.355,30.192 
		14.277,32.501 15.185,30.192 15.97,30.192 14.777,33.072 16.118,36.306 	"/>
	<path clip-path="url(#SVGID_2_)" fill="#B66528" d="M23.865,37.393c-0.516,0-0.99-0.097-1.421-0.291
		c-0.434-0.195-0.809-0.463-1.125-0.803c-0.317-0.339-0.562-0.731-0.738-1.175c-0.177-0.444-0.264-0.92-0.264-1.427
		c0-0.498,0.087-0.967,0.264-1.406c0.176-0.44,0.421-0.825,0.738-1.155c0.316-0.331,0.688-0.594,1.119-0.788
		c0.427-0.195,0.899-0.292,1.415-0.292c0.514,0,0.985,0.097,1.414,0.292c0.427,0.194,0.797,0.46,1.104,0.796
		c0.307,0.334,0.545,0.719,0.718,1.154c0.172,0.435,0.257,0.896,0.257,1.386c0,0.072-0.002,0.145-0.007,0.218
		c-0.003,0.072-0.011,0.121-0.021,0.149h-6.026c0.027,0.38,0.117,0.73,0.263,1.054c0.15,0.32,0.34,0.599,0.568,0.835
		c0.231,0.235,0.499,0.419,0.8,0.549c0.303,0.133,0.625,0.198,0.969,0.198c0.235,0,0.464-0.032,0.69-0.095
		c0.226-0.063,0.433-0.149,0.623-0.258c0.19-0.109,0.359-0.243,0.508-0.401s0.263-0.333,0.346-0.523l0.8,0.217
		c-0.109,0.264-0.263,0.501-0.461,0.715c-0.198,0.212-0.429,0.397-0.691,0.557c-0.262,0.157-0.551,0.281-0.867,0.366
		C24.523,37.35,24.198,37.393,23.865,37.393 M26.465,33.344c-0.027-0.38-0.116-0.728-0.263-1.039
		c-0.15-0.313-0.34-0.582-0.569-0.809c-0.231-0.227-0.501-0.403-0.807-0.529c-0.307-0.128-0.633-0.19-0.974-0.19
		c-0.345,0-0.669,0.063-0.978,0.19c-0.306,0.126-0.574,0.303-0.805,0.529c-0.231,0.227-0.417,0.499-0.556,0.814
		c-0.141,0.317-0.223,0.662-0.25,1.033H26.465z"/>
	<path clip-path="url(#SVGID_2_)" fill="#B66528" d="M32.179,37.393c-0.55,0-1.06-0.14-1.529-0.421
		c-0.47-0.28-0.835-0.644-1.099-1.087v1.372h-0.825v-9.919h0.92v4.32c0.318-0.479,0.696-0.866,1.138-1.16
		c0.442-0.295,0.962-0.442,1.558-0.442c0.487,0,0.93,0.104,1.327,0.313c0.396,0.209,0.733,0.486,1.009,0.835
		c0.275,0.35,0.487,0.743,0.636,1.184c0.149,0.438,0.223,0.889,0.223,1.351c0,0.499-0.086,0.97-0.258,1.413
		c-0.171,0.444-0.407,0.832-0.708,1.162c-0.305,0.331-0.66,0.594-1.073,0.789C33.09,37.296,32.648,37.393,32.179,37.393
		 M31.963,36.577c0.389,0,0.743-0.079,1.062-0.236c0.322-0.159,0.597-0.372,0.827-0.64c0.23-0.268,0.41-0.57,0.542-0.911
		c0.131-0.338,0.197-0.689,0.197-1.053c0-0.371-0.062-0.729-0.183-1.072c-0.122-0.345-0.293-0.65-0.515-0.918
		c-0.221-0.268-0.486-0.479-0.792-0.639c-0.307-0.158-0.645-0.237-1.017-0.237c-0.28,0-0.541,0.047-0.784,0.142
		c-0.245,0.096-0.469,0.226-0.676,0.389c-0.209,0.162-0.396,0.351-0.563,0.563c-0.167,0.214-0.305,0.438-0.414,0.674v2.201
		c0.036,0.244,0.134,0.474,0.292,0.686s0.35,0.396,0.575,0.551c0.226,0.153,0.465,0.276,0.718,0.367S31.728,36.577,31.963,36.577"/>
	<path clip-path="url(#SVGID_2_)" fill="#B66528" d="M39.426,37.393c-0.55,0-1.088-0.09-1.613-0.271
		c-0.522-0.182-0.974-0.443-1.353-0.787l0.42-0.626c0.397,0.326,0.801,0.57,1.211,0.734c0.412,0.163,0.851,0.244,1.32,0.244
		c0.569,0,1.024-0.116,1.362-0.346c0.339-0.231,0.508-0.56,0.508-0.985c0-0.2-0.045-0.365-0.136-0.497
		c-0.09-0.13-0.224-0.246-0.399-0.346c-0.175-0.1-0.398-0.188-0.664-0.265c-0.266-0.077-0.577-0.156-0.927-0.238
		c-0.408-0.1-0.759-0.199-1.058-0.299c-0.297-0.1-0.543-0.212-0.737-0.341c-0.195-0.126-0.338-0.283-0.433-0.468
		c-0.095-0.186-0.142-0.419-0.142-0.699c0-0.354,0.07-0.666,0.21-0.938c0.14-0.271,0.33-0.495,0.57-0.672
		c0.238-0.177,0.518-0.311,0.839-0.4c0.32-0.091,0.661-0.137,1.022-0.137c0.541,0,1.034,0.088,1.477,0.265
		c0.442,0.178,0.8,0.41,1.069,0.7l-0.447,0.543c-0.262-0.271-0.58-0.476-0.954-0.61c-0.375-0.137-0.766-0.204-1.172-0.204
		c-0.244,0-0.47,0.025-0.677,0.073c-0.208,0.052-0.39,0.131-0.548,0.239s-0.282,0.247-0.373,0.413
		c-0.091,0.169-0.136,0.365-0.136,0.592c0,0.19,0.032,0.344,0.095,0.463c0.063,0.118,0.167,0.22,0.312,0.306
		c0.145,0.085,0.327,0.163,0.549,0.23c0.22,0.068,0.49,0.138,0.806,0.21c0.45,0.109,0.849,0.219,1.192,0.327
		c0.343,0.108,0.63,0.234,0.859,0.381c0.231,0.145,0.405,0.32,0.523,0.529c0.117,0.209,0.177,0.461,0.177,0.761
		c0,0.652-0.25,1.169-0.746,1.549C40.934,37.203,40.266,37.393,39.426,37.393"/>
	<path clip-path="url(#SVGID_2_)" fill="#B66528" d="M43.651,27.34h0.921v1.357h-0.921V27.34z M43.651,30.177h0.921v7.079h-0.921
		V30.177z"/>
	<path clip-path="url(#SVGID_2_)" fill="#B66528" d="M49.961,36.918c-0.053,0.026-0.132,0.063-0.236,0.108
		c-0.104,0.046-0.224,0.09-0.359,0.136c-0.135,0.045-0.289,0.086-0.461,0.123c-0.171,0.035-0.353,0.054-0.542,0.054
		c-0.198,0-0.388-0.027-0.569-0.082c-0.181-0.054-0.337-0.138-0.474-0.251c-0.134-0.112-0.243-0.256-0.324-0.428
		c-0.082-0.173-0.122-0.371-0.122-0.599v-5.068h-0.977v-0.733h0.977v-2.392h0.919v2.392h1.626v0.733h-1.626v4.81
		c0.02,0.264,0.109,0.456,0.271,0.579c0.164,0.122,0.358,0.184,0.582,0.184c0.262,0,0.492-0.044,0.692-0.13
		c0.199-0.086,0.324-0.146,0.379-0.184L49.961,36.918z"/>
	<path clip-path="url(#SVGID_2_)" fill="#B66528" d="M54.132,37.393c-0.515,0-0.989-0.097-1.42-0.291
		c-0.434-0.195-0.808-0.463-1.125-0.803c-0.316-0.339-0.562-0.731-0.737-1.175c-0.176-0.444-0.264-0.92-0.264-1.427
		c0-0.498,0.088-0.967,0.264-1.406c0.175-0.44,0.421-0.825,0.737-1.155c0.317-0.331,0.689-0.594,1.119-0.788
		c0.429-0.195,0.9-0.292,1.415-0.292s0.986,0.097,1.414,0.292c0.429,0.194,0.798,0.46,1.104,0.796
		c0.307,0.334,0.546,0.719,0.718,1.154c0.172,0.435,0.256,0.896,0.256,1.386c0,0.072-0.002,0.145-0.006,0.218
		c-0.003,0.072-0.011,0.121-0.021,0.149h-6.026c0.027,0.38,0.116,0.73,0.264,1.054c0.15,0.32,0.34,0.599,0.569,0.835
		c0.23,0.235,0.497,0.419,0.799,0.549c0.304,0.133,0.625,0.198,0.97,0.198c0.233,0,0.464-0.032,0.689-0.095
		c0.225-0.063,0.434-0.149,0.624-0.258c0.189-0.109,0.359-0.243,0.507-0.401c0.15-0.158,0.264-0.333,0.347-0.523l0.799,0.217
		c-0.11,0.264-0.263,0.501-0.462,0.715c-0.197,0.212-0.428,0.397-0.69,0.557c-0.262,0.157-0.551,0.281-0.866,0.366
		C54.791,37.35,54.466,37.393,54.132,37.393 M56.732,33.344c-0.026-0.38-0.115-0.728-0.263-1.039
		c-0.149-0.313-0.339-0.582-0.568-0.809c-0.23-0.227-0.5-0.403-0.806-0.529c-0.308-0.128-0.633-0.19-0.975-0.19
		c-0.343,0-0.669,0.063-0.977,0.19c-0.306,0.126-0.574,0.303-0.806,0.529c-0.23,0.227-0.415,0.499-0.555,0.814
		c-0.14,0.317-0.223,0.662-0.249,1.033H56.732z"/>
	<path clip-path="url(#SVGID_2_)" fill="#B66528" d="M12.453,22.607c-0.515,0-0.988-0.098-1.42-0.292
		c-0.435-0.195-0.81-0.463-1.125-0.803c-0.315-0.339-0.562-0.731-0.738-1.175c-0.176-0.444-0.264-0.92-0.264-1.427
		c0-0.498,0.088-0.967,0.264-1.406c0.176-0.439,0.422-0.824,0.738-1.155c0.316-0.331,0.688-0.594,1.119-0.788
		c0.429-0.195,0.9-0.292,1.416-0.292c0.515,0,0.986,0.097,1.415,0.292c0.427,0.194,0.797,0.46,1.104,0.796
		c0.306,0.334,0.545,0.719,0.716,1.154c0.172,0.435,0.257,0.896,0.257,1.386c0,0.073-0.002,0.145-0.006,0.218
		c-0.003,0.073-0.01,0.121-0.02,0.149H9.881c0.026,0.38,0.115,0.73,0.263,1.054c0.148,0.32,0.338,0.599,0.568,0.835
		c0.23,0.235,0.498,0.419,0.799,0.549c0.302,0.133,0.626,0.198,0.969,0.198c0.235,0,0.464-0.032,0.691-0.095
		c0.224-0.063,0.432-0.149,0.622-0.258c0.189-0.109,0.359-0.243,0.509-0.401c0.147-0.158,0.263-0.333,0.346-0.523l0.799,0.217
		c-0.108,0.264-0.263,0.501-0.462,0.715c-0.197,0.212-0.428,0.397-0.689,0.557c-0.262,0.157-0.551,0.281-0.867,0.366
		C13.112,22.563,12.787,22.607,12.453,22.607 M15.055,18.558c-0.027-0.38-0.116-0.728-0.264-1.039
		c-0.15-0.312-0.34-0.582-0.569-0.809c-0.23-0.227-0.5-0.403-0.807-0.529c-0.307-0.127-0.632-0.19-0.974-0.19
		c-0.345,0-0.668,0.063-0.977,0.19c-0.307,0.126-0.574,0.303-0.806,0.529c-0.23,0.227-0.416,0.499-0.556,0.815
		c-0.14,0.317-0.222,0.661-0.249,1.032H15.055z"/>
	<path clip-path="url(#SVGID_2_)" fill="#B66528" d="M27.811,22.471h-0.919v-3.954c0-0.823-0.13-1.431-0.386-1.821
		c-0.257-0.389-0.648-0.583-1.172-0.583c-0.272,0-0.527,0.05-0.765,0.15c-0.24,0.099-0.46,0.238-0.664,0.42
		c-0.203,0.181-0.381,0.396-0.536,0.646c-0.152,0.249-0.271,0.523-0.351,0.822v4.32h-0.921v-3.954c0-0.841-0.127-1.454-0.379-1.834
		c-0.253-0.381-0.641-0.57-1.166-0.57c-0.531,0-1.005,0.186-1.421,0.557c-0.417,0.372-0.713,0.86-0.894,1.468v4.334h-0.921v-7.079
		h0.839v1.604c0.289-0.543,0.668-0.968,1.138-1.271c0.47-0.303,0.988-0.455,1.556-0.455c0.597,0,1.076,0.168,1.436,0.503
		c0.362,0.335,0.579,0.775,0.651,1.318c0.659-1.215,1.569-1.821,2.734-1.821c0.39,0,0.72,0.072,0.995,0.218
		c0.276,0.145,0.498,0.351,0.664,0.618c0.168,0.268,0.289,0.588,0.365,0.964c0.078,0.376,0.115,0.796,0.115,1.257V22.471z"/>
	<path clip-path="url(#SVGID_2_)" fill="#B66528" d="M31.59,22.607c-0.361,0-0.69-0.057-0.989-0.171
		c-0.298-0.112-0.553-0.27-0.765-0.469c-0.212-0.199-0.377-0.429-0.494-0.692c-0.119-0.263-0.178-0.539-0.178-0.829
		c0-0.325,0.072-0.622,0.218-0.889c0.145-0.268,0.347-0.497,0.609-0.687c0.261-0.191,0.576-0.338,0.941-0.441
		c0.365-0.105,0.77-0.157,1.211-0.157c0.354,0,0.714,0.032,1.084,0.095c0.371,0.064,0.699,0.155,0.988,0.272V18
		c0-0.624-0.178-1.121-0.534-1.486c-0.356-0.367-0.837-0.551-1.443-0.551c-0.379,0-0.756,0.071-1.13,0.218
		c-0.375,0.145-0.756,0.353-1.145,0.624l-0.324-0.611c0.46-0.307,0.906-0.539,1.341-0.691c0.434-0.155,0.884-0.232,1.354-0.232
		c0.858,0,1.539,0.25,2.046,0.747c0.505,0.499,0.757,1.188,0.757,2.065v3.193c0,0.254,0.108,0.381,0.326,0.381v0.814
		c-0.072,0.01-0.14,0.017-0.204,0.021c-0.063,0.004-0.118,0.007-0.163,0.007c-0.18,0-0.345-0.056-0.494-0.164
		c-0.149-0.108-0.232-0.272-0.25-0.488l-0.027-0.558c-0.309,0.417-0.711,0.741-1.212,0.971
		C32.611,22.492,32.104,22.607,31.59,22.607 M31.82,21.9c0.405,0,0.81-0.089,1.212-0.265c0.401-0.177,0.718-0.42,0.954-0.728
		c0.063-0.081,0.116-0.17,0.162-0.265c0.046-0.096,0.068-0.184,0.068-0.266v-1.154c-0.306-0.117-0.628-0.208-0.962-0.272
		c-0.333-0.063-0.659-0.095-0.974-0.095c-0.659,0-1.194,0.135-1.605,0.401c-0.412,0.267-0.617,0.636-0.617,1.106
		c0,0.19,0.037,0.376,0.108,0.558c0.073,0.182,0.183,0.345,0.333,0.488c0.148,0.146,0.331,0.264,0.547,0.354
		C31.265,21.855,31.522,21.9,31.82,21.9"/>
	<path clip-path="url(#SVGID_2_)" fill="#B66528" d="M37.141,12.553h0.921v1.358h-0.921V12.553z M37.141,15.392h0.921v7.079h-0.921
		V15.392z"/>
	<path clip-path="url(#SVGID_2_)" fill="#B66528" d="M40.081,12.553H41v8.316c0,0.262,0.074,0.468,0.218,0.616
		c0.145,0.15,0.347,0.225,0.609,0.225c0.1,0,0.216-0.013,0.353-0.041c0.134-0.026,0.262-0.063,0.379-0.108l0.163,0.748
		c-0.171,0.073-0.381,0.13-0.63,0.177c-0.248,0.044-0.462,0.067-0.643,0.067c-0.424,0-0.758-0.12-1.003-0.359
		c-0.243-0.241-0.364-0.578-0.364-1.013V12.553z"/>
	<path clip-path="url(#SVGID_2_)" fill="#B66528" d="M48.572,22.607c-0.361,0-0.691-0.057-0.99-0.171
		c-0.297-0.112-0.553-0.27-0.765-0.469c-0.211-0.199-0.377-0.429-0.493-0.692c-0.119-0.263-0.178-0.539-0.178-0.829
		c0-0.325,0.072-0.622,0.217-0.889c0.146-0.268,0.348-0.497,0.61-0.687c0.261-0.191,0.576-0.338,0.941-0.441
		c0.365-0.105,0.769-0.157,1.211-0.157c0.352,0,0.713,0.032,1.083,0.095c0.37,0.064,0.7,0.155,0.989,0.272V18
		c0-0.624-0.178-1.121-0.535-1.486c-0.356-0.367-0.837-0.551-1.442-0.551c-0.379,0-0.756,0.071-1.13,0.218
		c-0.375,0.145-0.756,0.353-1.146,0.624l-0.324-0.611c0.462-0.307,0.908-0.539,1.341-0.691c0.435-0.155,0.885-0.232,1.354-0.232
		c0.858,0,1.539,0.25,2.045,0.747c0.506,0.499,0.757,1.188,0.757,2.065v3.193c0,0.254,0.11,0.381,0.328,0.381v0.814
		c-0.073,0.01-0.141,0.017-0.204,0.021c-0.064,0.004-0.118,0.007-0.164,0.007c-0.18,0-0.345-0.056-0.493-0.164
		c-0.15-0.108-0.234-0.272-0.251-0.488l-0.026-0.558C51,21.706,50.596,22.03,50.095,22.26
		C49.594,22.492,49.086,22.607,48.572,22.607 M48.801,21.9c0.406,0,0.812-0.089,1.212-0.265c0.402-0.177,0.72-0.42,0.955-0.728
		c0.064-0.081,0.116-0.17,0.163-0.265c0.045-0.096,0.068-0.184,0.068-0.266v-1.154c-0.307-0.117-0.628-0.208-0.963-0.272
		c-0.332-0.063-0.659-0.095-0.974-0.095c-0.659,0-1.194,0.135-1.605,0.401c-0.41,0.267-0.617,0.636-0.617,1.106
		c0,0.19,0.039,0.376,0.11,0.558c0.072,0.182,0.183,0.345,0.332,0.488c0.15,0.146,0.332,0.264,0.548,0.354
		C48.246,21.855,48.503,21.9,48.801,21.9"/>
	<path clip-path="url(#SVGID_2_)" fill="#B66528" d="M57.049,22.607c-0.488,0-0.939-0.103-1.354-0.306
		c-0.414-0.204-0.774-0.475-1.075-0.81c-0.304-0.335-0.539-0.722-0.706-1.161s-0.25-0.899-0.25-1.38c0-0.497,0.081-0.971,0.243-1.42
		c0.163-0.448,0.387-0.84,0.671-1.174c0.284-0.336,0.623-0.602,1.016-0.796c0.393-0.195,0.824-0.292,1.294-0.292
		c0.595,0,1.124,0.157,1.585,0.469c0.46,0.313,0.825,0.691,1.095,1.135v-4.321h0.921v8.724c0,0.254,0.108,0.381,0.326,0.381v0.814
		c-0.154,0.028-0.275,0.041-0.365,0.041c-0.227,0-0.412-0.066-0.556-0.196c-0.146-0.132-0.217-0.288-0.217-0.469v-0.748
		c-0.29,0.462-0.671,0.829-1.144,1.101C58.058,22.471,57.563,22.607,57.049,22.607 M57.239,21.791c0.234,0,0.481-0.044,0.737-0.135
		c0.257-0.091,0.498-0.216,0.718-0.374c0.221-0.159,0.414-0.345,0.576-0.558c0.163-0.212,0.262-0.441,0.298-0.686v-2.188
		c-0.09-0.245-0.223-0.474-0.399-0.688c-0.176-0.212-0.375-0.399-0.595-0.563c-0.223-0.162-0.457-0.29-0.705-0.38
		c-0.249-0.091-0.495-0.136-0.739-0.136c-0.379,0-0.723,0.081-1.036,0.243c-0.312,0.164-0.575,0.379-0.792,0.646
		c-0.215,0.268-0.386,0.572-0.507,0.918c-0.123,0.344-0.183,0.696-0.183,1.059c0,0.381,0.067,0.743,0.203,1.088
		c0.135,0.343,0.32,0.646,0.556,0.902c0.234,0.259,0.511,0.465,0.832,0.619S56.869,21.791,57.239,21.791"/>
	<path clip-path="url(#SVGID_2_)" fill="#B66528" d="M65.485,22.607c-0.488,0-0.939-0.103-1.354-0.306
		c-0.415-0.204-0.774-0.475-1.077-0.81c-0.303-0.335-0.537-0.722-0.704-1.161c-0.169-0.439-0.252-0.899-0.252-1.38
		c0-0.497,0.081-0.971,0.245-1.42c0.163-0.448,0.386-0.84,0.67-1.174c0.285-0.336,0.623-0.602,1.016-0.796
		c0.393-0.195,0.823-0.292,1.293-0.292c0.596,0,1.124,0.157,1.584,0.469c0.46,0.313,0.825,0.691,1.096,1.135v-4.321h0.922v8.724
		c0,0.254,0.108,0.381,0.325,0.381v0.814c-0.153,0.028-0.275,0.041-0.366,0.041c-0.226,0-0.412-0.066-0.555-0.196
		c-0.145-0.132-0.218-0.288-0.218-0.469v-0.748c-0.29,0.462-0.671,0.829-1.144,1.101C66.495,22.471,66.001,22.607,65.485,22.607
		 M65.676,21.791c0.235,0,0.48-0.044,0.737-0.135c0.259-0.091,0.498-0.216,0.719-0.374c0.22-0.159,0.412-0.345,0.575-0.558
		c0.163-0.212,0.262-0.441,0.297-0.686v-2.188c-0.09-0.245-0.222-0.474-0.398-0.688c-0.176-0.212-0.375-0.399-0.596-0.563
		c-0.223-0.162-0.457-0.29-0.705-0.38c-0.25-0.091-0.494-0.136-0.739-0.136c-0.379,0-0.724,0.081-1.036,0.243
		c-0.31,0.164-0.574,0.379-0.791,0.646c-0.217,0.268-0.387,0.572-0.508,0.918c-0.122,0.344-0.183,0.696-0.183,1.059
		c0,0.381,0.067,0.743,0.204,1.088c0.135,0.343,0.32,0.646,0.555,0.902c0.235,0.259,0.513,0.465,0.832,0.619
		C64.96,21.715,65.306,21.791,65.676,21.791"/>
	<path clip-path="url(#SVGID_2_)" fill="#B66528" d="M74.518,16.207c-0.623,0.018-1.164,0.19-1.624,0.517
		c-0.461,0.326-0.787,0.774-0.976,1.346v4.401h-0.92v-7.08h0.866v1.698c0.244-0.497,0.564-0.911,0.961-1.242
		c0.398-0.33,0.826-0.495,1.288-0.495h0.229c0.073,0,0.132,0.005,0.176,0.013V16.207z"/>
	<path clip-path="url(#SVGID_2_)" fill="#B66528" d="M78.838,22.607c-0.515,0-0.989-0.098-1.42-0.292
		c-0.435-0.195-0.81-0.463-1.125-0.803c-0.316-0.339-0.562-0.731-0.738-1.175c-0.176-0.444-0.265-0.92-0.265-1.427
		c0-0.498,0.088-0.967,0.265-1.406c0.176-0.439,0.422-0.824,0.738-1.155s0.688-0.594,1.119-0.788c0.429-0.195,0.9-0.292,1.415-0.292
		s0.986,0.097,1.415,0.292c0.428,0.194,0.797,0.46,1.104,0.796c0.306,0.334,0.545,0.719,0.716,1.154
		c0.172,0.435,0.257,0.896,0.257,1.386c0,0.073-0.002,0.145-0.007,0.218c-0.003,0.073-0.01,0.121-0.019,0.149h-6.026
		c0.026,0.38,0.115,0.73,0.263,1.054c0.149,0.32,0.339,0.599,0.569,0.835c0.23,0.235,0.498,0.419,0.799,0.549
		c0.303,0.133,0.627,0.198,0.97,0.198c0.234,0,0.463-0.032,0.69-0.095c0.224-0.063,0.432-0.149,0.622-0.258
		c0.189-0.109,0.359-0.243,0.509-0.401c0.147-0.158,0.263-0.333,0.345-0.523l0.799,0.217c-0.109,0.264-0.263,0.501-0.462,0.715
		c-0.197,0.212-0.428,0.397-0.689,0.557c-0.262,0.157-0.551,0.281-0.867,0.366C79.497,22.563,79.172,22.607,78.838,22.607
		 M81.439,18.558c-0.027-0.38-0.116-0.728-0.264-1.039c-0.15-0.312-0.34-0.582-0.568-0.809c-0.23-0.227-0.5-0.403-0.808-0.529
		c-0.307-0.127-0.632-0.19-0.974-0.19c-0.344,0-0.668,0.063-0.977,0.19c-0.307,0.126-0.574,0.303-0.806,0.529
		c-0.23,0.227-0.416,0.499-0.555,0.815c-0.14,0.317-0.222,0.661-0.249,1.032H81.439z"/>
	<path clip-path="url(#SVGID_2_)" fill="#B66528" d="M86.07,22.607c-0.55,0-1.089-0.091-1.612-0.272
		c-0.524-0.182-0.975-0.443-1.354-0.787l0.42-0.626c0.397,0.326,0.8,0.57,1.212,0.734c0.411,0.163,0.851,0.244,1.32,0.244
		c0.569,0,1.024-0.116,1.36-0.346c0.34-0.231,0.51-0.56,0.51-0.985c0-0.2-0.046-0.365-0.138-0.497
		c-0.09-0.13-0.222-0.246-0.398-0.346c-0.176-0.1-0.397-0.188-0.663-0.265s-0.576-0.156-0.928-0.238
		c-0.406-0.1-0.758-0.199-1.056-0.299c-0.297-0.1-0.544-0.212-0.738-0.341c-0.194-0.126-0.338-0.283-0.433-0.468
		c-0.095-0.186-0.143-0.419-0.143-0.699c0-0.354,0.07-0.666,0.21-0.938c0.14-0.271,0.33-0.495,0.569-0.672
		c0.24-0.177,0.52-0.311,0.839-0.4c0.321-0.091,0.662-0.137,1.022-0.137c0.542,0,1.034,0.088,1.478,0.265
		c0.44,0.178,0.798,0.411,1.068,0.7l-0.448,0.543c-0.261-0.271-0.579-0.476-0.954-0.61c-0.375-0.137-0.765-0.204-1.17-0.204
		c-0.245,0-0.469,0.025-0.678,0.074c-0.209,0.051-0.392,0.13-0.547,0.238c-0.159,0.108-0.283,0.247-0.372,0.414
		c-0.092,0.168-0.138,0.364-0.138,0.591c0,0.19,0.033,0.345,0.095,0.463c0.064,0.118,0.168,0.22,0.312,0.306
		c0.145,0.086,0.328,0.163,0.549,0.23c0.221,0.068,0.49,0.138,0.806,0.21c0.452,0.109,0.849,0.219,1.193,0.327
		c0.34,0.108,0.627,0.234,0.858,0.381c0.229,0.145,0.404,0.32,0.52,0.529c0.119,0.209,0.178,0.461,0.178,0.761
		c0,0.652-0.249,1.169-0.746,1.549C87.578,22.417,86.91,22.607,86.07,22.607"/>
	<path clip-path="url(#SVGID_2_)" fill="#B66528" d="M92.666,22.607c-0.55,0-1.089-0.091-1.611-0.272
		c-0.525-0.182-0.975-0.443-1.354-0.787l0.42-0.626c0.397,0.326,0.8,0.57,1.212,0.734c0.411,0.163,0.851,0.244,1.32,0.244
		c0.569,0,1.024-0.116,1.36-0.346c0.34-0.231,0.51-0.56,0.51-0.985c0-0.2-0.046-0.365-0.138-0.497
		c-0.09-0.13-0.222-0.246-0.398-0.346c-0.176-0.1-0.397-0.188-0.664-0.265s-0.575-0.156-0.927-0.238
		c-0.407-0.1-0.759-0.199-1.057-0.299c-0.297-0.1-0.544-0.212-0.738-0.341c-0.194-0.126-0.338-0.283-0.433-0.468
		c-0.095-0.186-0.142-0.419-0.142-0.699c0-0.354,0.07-0.666,0.21-0.938c0.14-0.271,0.33-0.495,0.569-0.672
		c0.24-0.177,0.52-0.311,0.84-0.4c0.32-0.091,0.661-0.137,1.022-0.137c0.542,0,1.034,0.088,1.478,0.265
		c0.44,0.178,0.798,0.411,1.068,0.7l-0.448,0.543c-0.261-0.271-0.579-0.476-0.954-0.61c-0.375-0.137-0.765-0.204-1.17-0.204
		c-0.245,0-0.47,0.025-0.678,0.074c-0.209,0.051-0.392,0.13-0.547,0.238c-0.159,0.108-0.283,0.247-0.373,0.414
		c-0.091,0.168-0.138,0.364-0.138,0.591c0,0.19,0.033,0.345,0.095,0.463c0.064,0.118,0.168,0.22,0.313,0.306
		c0.145,0.086,0.327,0.163,0.549,0.23c0.221,0.068,0.49,0.138,0.806,0.21c0.451,0.109,0.849,0.219,1.193,0.327
		c0.341,0.108,0.627,0.234,0.859,0.381c0.229,0.145,0.404,0.32,0.52,0.529c0.119,0.209,0.177,0.461,0.177,0.761
		c0,0.652-0.249,1.169-0.746,1.549C94.173,22.417,93.505,22.607,92.666,22.607"/>
</g>
<rect fill="none" width="255" height="123"/>
</svg>
