<?xml version="1.0" encoding="utf-8"?>
<!-- Generator: Adobe Illustrator 15.0.2, SVG Export Plug-In . SVG Version: 6.00 Build 0)  -->
<!DOCTYPE svg PUBLIC "-//W3C//DTD SVG 1.1//EN" "http://www.w3.org/Graphics/SVG/1.1/DTD/svg11.dtd">
<svg version="1.1" id="Layer_1" xmlns="http://www.w3.org/2000/svg" xmlns:xlink="http://www.w3.org/1999/xlink" x="0px" y="0px"
	 width="255px" height="123px" viewBox="0 0 255 123" enable-background="new 0 0 255 123" xml:space="preserve">
<g>
	<defs>
		<rect id="SVGID_1_" x="-0.021" width="255" height="123"/>
	</defs>
	<clipPath id="SVGID_2_">
		<use xlink:href="#SVGID_1_"  overflow="visible"/>
	</clipPath>
	<path clip-path="url(#SVGID_2_)" fill="#50172F" d="M244.649-0.001H10.309c-5.393,0-9.764,4.406-9.764,9.84v76.063v27.258
		c0,5.435,4.371,9.84,9.764,9.84h24.485h91.718h118.137c5.394,0,9.765-4.405,9.765-9.84V96.619V9.839
		C254.414,4.405,250.043-0.001,244.649-0.001"/>
</g>
<g>
	<path fill="#C48D81" d="M8.92,30.85c0.499,0.343,1.139,0.64,1.921,0.891c0.782,0.252,1.66,0.377,2.635,0.377
		c1.224,0,2.205-0.223,2.941-0.668c0.736-0.445,1.297-1.102,1.683-1.97c0.385-0.868,0.634-1.937,0.748-3.204
		c0.113-1.268,0.17-2.713,0.17-4.335V9.604h2.38V21.94c0,1.851-0.085,3.535-0.255,5.055s-0.527,2.815-1.071,3.889
		c-0.544,1.074-1.338,1.908-2.38,2.502c-1.043,0.594-2.448,0.891-4.216,0.891c-2.04,0-3.786-0.502-5.236-1.508L8.92,30.85z"/>
	<path fill="#C48D81" d="M34.013,34.242c-1.292,0-2.477-0.246-3.553-0.737c-1.077-0.49-2.006-1.158-2.788-2.004
		c-0.782-0.845-1.389-1.827-1.819-2.947c-0.431-1.119-0.646-2.296-0.646-3.529c0-1.256,0.221-2.444,0.663-3.563
		c0.442-1.119,1.054-2.102,1.836-2.947c0.782-0.845,1.711-1.519,2.788-2.021c1.077-0.502,2.25-0.754,3.519-0.754
		s2.442,0.252,3.52,0.754c1.076,0.503,2.006,1.177,2.788,2.021c0.782,0.846,1.394,1.828,1.836,2.947s0.663,2.308,0.663,3.563
		c0,1.233-0.221,2.41-0.663,3.529c-0.442,1.12-1.054,2.103-1.836,2.947c-0.782,0.846-1.712,1.514-2.788,2.004
		C36.456,33.996,35.283,34.242,34.013,34.242z M27.587,25.059c0,1.006,0.164,1.937,0.493,2.793c0.328,0.856,0.782,1.61,1.36,2.262
		c0.578,0.65,1.258,1.159,2.041,1.524c0.782,0.366,1.615,0.549,2.499,0.549c0.884,0,1.717-0.188,2.499-0.565
		s1.467-0.892,2.057-1.542c0.589-0.651,1.054-1.41,1.394-2.279c0.34-0.867,0.51-1.804,0.51-2.81c0-0.981-0.17-1.913-0.51-2.793
		c-0.34-0.879-0.805-1.645-1.394-2.296c-0.59-0.65-1.27-1.165-2.04-1.541c-0.771-0.377-1.598-0.565-2.482-0.565
		c-0.884,0-1.717,0.188-2.499,0.565c-0.782,0.376-1.462,0.896-2.04,1.559c-0.578,0.663-1.037,1.434-1.377,2.313
		C27.757,23.111,27.587,24.054,27.587,25.059z"/>
	<path fill="#C48D81" d="M61.486,33.899h-2.312v-9.972c0-2.032-0.346-3.552-1.037-4.557c-0.692-1.005-1.706-1.508-3.043-1.508
		c-0.658,0-1.309,0.132-1.955,0.394c-0.646,0.263-1.252,0.623-1.819,1.08c-0.567,0.457-1.06,0.993-1.479,1.61
		c-0.42,0.616-0.731,1.291-0.935,2.021v10.931h-2.313V8.886h2.313V20.09c0.725-1.347,1.711-2.409,2.958-3.187
		c1.246-0.776,2.584-1.165,4.012-1.165c1.02,0,1.887,0.188,2.601,0.565s1.292,0.903,1.734,1.576
		c0.442,0.675,0.765,1.485,0.969,2.434s0.306,1.993,0.306,3.135V33.899z"/>
	<path fill="#C48D81" d="M81.173,33.899h-2.312v-9.972c0-2.124-0.306-3.666-0.918-4.626c-0.612-0.959-1.564-1.438-2.856-1.438
		c-0.68,0-1.36,0.126-2.04,0.377s-1.315,0.605-1.904,1.062c-0.589,0.458-1.105,1-1.547,1.628c-0.442,0.629-0.777,1.309-1.003,2.039
		v10.931H66.28V16.047h2.108v4.043c0.362-0.639,0.81-1.228,1.343-1.765c0.533-0.536,1.127-0.999,1.785-1.388
		c0.657-0.388,1.354-0.685,2.091-0.891c0.736-0.205,1.501-0.309,2.295-0.309c0.998,0,1.831,0.184,2.499,0.549
		s1.208,0.879,1.615,1.542c0.408,0.662,0.703,1.473,0.884,2.433c0.181,0.959,0.272,2.021,0.272,3.187V33.899z"/>
</g>
<g>
	<path fill="#C48D81" d="M95.216,33.899V9.57h8.161c1.926,0,3.615,0.32,5.066,0.96s2.658,1.508,3.622,2.604
		c0.963,1.096,1.683,2.381,2.159,3.854c0.476,1.474,0.714,3.044,0.714,4.712c0,1.85-0.272,3.523-0.816,5.02
		c-0.544,1.496-1.315,2.775-2.313,3.838s-2.21,1.885-3.638,2.467c-1.428,0.583-3.026,0.874-4.794,0.874H95.216z M112.557,21.701
		c0-1.462-0.204-2.805-0.612-4.026s-1.003-2.279-1.785-3.17s-1.74-1.581-2.873-2.073c-1.134-0.49-2.437-0.736-3.91-0.736h-5.814
		v20.08h5.814c1.496,0,2.816-0.258,3.961-0.771s2.103-1.222,2.874-2.124c0.77-0.902,1.354-1.965,1.751-3.188
		C112.358,24.471,112.557,23.14,112.557,21.701z"/>
	<path fill="#C48D81" d="M126.701,34.242c-1.292,0-2.477-0.246-3.553-0.737c-1.077-0.49-2.006-1.158-2.788-2.004
		c-0.782-0.845-1.389-1.827-1.819-2.947c-0.431-1.119-0.646-2.296-0.646-3.529c0-1.256,0.221-2.444,0.663-3.563
		c0.442-1.119,1.054-2.102,1.836-2.947c0.782-0.845,1.711-1.519,2.788-2.021c1.077-0.502,2.25-0.754,3.519-0.754
		s2.443,0.252,3.519,0.754c1.077,0.503,2.007,1.177,2.788,2.021c0.782,0.846,1.395,1.828,1.837,2.947
		c0.441,1.119,0.663,2.308,0.663,3.563c0,1.233-0.222,2.41-0.663,3.529c-0.442,1.12-1.055,2.103-1.837,2.947
		c-0.781,0.846-1.711,1.514-2.788,2.004C129.144,33.996,127.97,34.242,126.701,34.242z M120.274,25.059
		c0,1.006,0.164,1.937,0.493,2.793c0.328,0.856,0.782,1.61,1.36,2.262c0.578,0.65,1.258,1.159,2.041,1.524
		c0.782,0.366,1.615,0.549,2.499,0.549c0.884,0,1.717-0.188,2.499-0.565s1.468-0.892,2.057-1.542c0.59-0.651,1.055-1.41,1.395-2.279
		c0.34-0.867,0.51-1.804,0.51-2.81c0-0.981-0.17-1.913-0.51-2.793c-0.34-0.879-0.805-1.645-1.395-2.296
		c-0.589-0.65-1.27-1.165-2.04-1.541c-0.771-0.377-1.598-0.565-2.482-0.565c-0.884,0-1.717,0.188-2.499,0.565
		c-0.782,0.376-1.462,0.896-2.04,1.559c-0.578,0.663-1.037,1.434-1.377,2.313C120.444,23.111,120.274,24.054,120.274,25.059z"/>
	<path fill="#C48D81" d="M147.033,34.242c-1.292,0-2.482-0.246-3.57-0.737c-1.088-0.49-2.028-1.165-2.822-2.021
		c-0.793-0.856-1.411-1.844-1.853-2.964c-0.442-1.119-0.663-2.318-0.663-3.598c0-1.256,0.221-2.438,0.663-3.547
		c0.441-1.107,1.06-2.078,1.853-2.912c0.794-0.834,1.729-1.496,2.806-1.987c1.076-0.491,2.261-0.737,3.553-0.737
		s2.477,0.246,3.554,0.737c1.076,0.491,2,1.159,2.771,2.004c0.771,0.846,1.372,1.816,1.803,2.913
		c0.43,1.097,0.646,2.262,0.646,3.495c0,0.183-0.006,0.365-0.017,0.548c-0.012,0.184-0.028,0.309-0.051,0.377h-15.131
		c0.067,0.96,0.289,1.845,0.663,2.656c0.374,0.811,0.85,1.513,1.428,2.106c0.578,0.595,1.246,1.058,2.006,1.389
		s1.569,0.496,2.432,0.496c0.589,0,1.167-0.079,1.733-0.239s1.089-0.377,1.564-0.651c0.477-0.274,0.901-0.611,1.275-1.011
		s0.663-0.84,0.867-1.319l2.006,0.548c-0.272,0.663-0.658,1.263-1.156,1.8c-0.499,0.536-1.077,1.005-1.734,1.404
		c-0.657,0.4-1.383,0.709-2.176,0.926C148.688,34.134,147.872,34.242,147.033,34.242z M153.562,24.031
		c-0.067-0.96-0.289-1.834-0.663-2.622s-0.85-1.467-1.428-2.038s-1.253-1.017-2.023-1.337c-0.771-0.319-1.587-0.479-2.448-0.479
		s-1.678,0.16-2.448,0.479c-0.771,0.32-1.444,0.766-2.022,1.337s-1.043,1.256-1.395,2.056s-0.561,1.668-0.629,2.604H153.562z"/>
</g>
<g>
	<defs>
		<rect id="SVGID_3_" x="-0.021" width="255" height="123"/>
	</defs>
	<clipPath id="SVGID_4_">
		<use xlink:href="#SVGID_3_"  overflow="visible"/>
	</clipPath>
	<path clip-path="url(#SVGID_4_)" fill="#C48D81" d="M246.673,64.991c-0.021,9.397-7.566,17-16.894,17.02v-0.004
		c-9.317-0.016-16.868-7.618-16.886-17.016c0.018-9.396,7.568-17,16.886-17.015h16.894V64.991z"/>
	<path clip-path="url(#SVGID_4_)" fill="#BE274A" d="M246.673,99.03c-0.021-9.397-7.566-16.999-16.894-17.02v0.005
		c-9.317,0.016-16.868,7.617-16.886,17.015c0.018,9.396,7.568,17,16.886,17.016h16.894V99.03z"/>
	<path clip-path="url(#SVGID_4_)" fill="#932C3B" d="M196.005,82.011c-9.322,0.021-16.869,7.622-16.889,17.021v17.02l16.889-0.006
		c9.331-0.017,16.873-7.62,16.889-17.014c-0.016-9.399-7.558-17.001-16.889-17.017V82.011z"/>
	<line clip-path="url(#SVGID_4_)" fill="#C48D81" x1="-0.021" y1="42.996" x2="254.979" y2="42.996"/>
	
		<line clip-path="url(#SVGID_4_)" fill="none" stroke="#C48D81" stroke-miterlimit="10" x1="-0.021" y1="42.996" x2="254.979" y2="42.996"/>
</g>
<g>
	<path fill="#C48D81" d="M13.278,50.831c0-0.579,0.101-1.157,0.303-1.732s0.497-1.089,0.883-1.542
		c0.386-0.453,0.863-0.822,1.429-1.107s1.208-0.428,1.928-0.428c0.854,0,1.582,0.194,2.185,0.584
		c0.602,0.39,1.051,0.896,1.348,1.521L20.6,48.589c-0.153-0.316-0.337-0.584-0.553-0.801c-0.215-0.218-0.449-0.395-0.701-0.53
		c-0.252-0.136-0.513-0.233-0.782-0.292s-0.535-0.089-0.795-0.089c-0.575,0-1.083,0.118-1.523,0.354
		c-0.44,0.235-0.812,0.544-1.112,0.924c-0.301,0.381-0.528,0.809-0.681,1.284s-0.229,0.958-0.229,1.447
		c0,0.534,0.092,1.046,0.276,1.535c0.184,0.489,0.436,0.922,0.755,1.298s0.697,0.675,1.133,0.896
		c0.436,0.222,0.91,0.333,1.422,0.333c0.27,0,0.546-0.034,0.829-0.102c0.283-0.068,0.557-0.177,0.822-0.326s0.51-0.335,0.735-0.558
		c0.225-0.222,0.414-0.491,0.566-0.809l0.782,0.408c-0.153,0.362-0.369,0.682-0.647,0.958c-0.279,0.276-0.589,0.509-0.93,0.699
		c-0.342,0.19-0.704,0.335-1.085,0.435c-0.382,0.1-0.757,0.149-1.126,0.149c-0.656,0-1.258-0.145-1.807-0.435
		s-1.02-0.668-1.416-1.135c-0.396-0.466-0.704-0.996-0.924-1.589C13.388,52.052,13.278,51.447,13.278,50.831z"/>
	<path fill="#C48D81" d="M25.966,55.858c-0.513,0-0.982-0.098-1.409-0.292c-0.427-0.194-0.795-0.46-1.105-0.795
		s-0.551-0.725-0.721-1.169c-0.171-0.443-0.256-0.91-0.256-1.399c0-0.498,0.087-0.969,0.263-1.413
		c0.175-0.443,0.418-0.833,0.728-1.168c0.311-0.335,0.679-0.603,1.106-0.802c0.427-0.199,0.892-0.299,1.396-0.299
		c0.503,0,0.968,0.1,1.395,0.299c0.427,0.199,0.796,0.467,1.106,0.802s0.553,0.725,0.728,1.168c0.175,0.444,0.263,0.915,0.263,1.413
		c0,0.489-0.087,0.956-0.263,1.399c-0.175,0.444-0.418,0.834-0.728,1.169s-0.679,0.601-1.106,0.795
		C26.934,55.761,26.469,55.858,25.966,55.858z M23.417,52.217c0,0.399,0.065,0.768,0.195,1.107s0.31,0.639,0.54,0.897
		c0.229,0.258,0.499,0.459,0.809,0.604c0.311,0.145,0.641,0.217,0.991,0.217s0.681-0.074,0.991-0.224
		c0.311-0.149,0.582-0.354,0.816-0.611c0.234-0.259,0.418-0.56,0.553-0.904c0.135-0.344,0.202-0.715,0.202-1.114
		c0-0.389-0.067-0.758-0.202-1.106s-0.319-0.652-0.553-0.911c-0.234-0.258-0.503-0.462-0.809-0.611s-0.634-0.224-0.984-0.224
		c-0.351,0-0.681,0.074-0.991,0.224s-0.58,0.355-0.809,0.618c-0.229,0.263-0.411,0.568-0.546,0.917
		C23.485,51.445,23.417,51.818,23.417,52.217z"/>
	<path fill="#C48D81" d="M41.403,55.723h-0.917v-3.954c0-0.824-0.128-1.431-0.384-1.82s-0.645-0.585-1.167-0.585
		c-0.27,0-0.523,0.051-0.762,0.15s-0.458,0.239-0.661,0.421c-0.202,0.181-0.38,0.396-0.532,0.646
		c-0.153,0.249-0.27,0.522-0.351,0.822v4.32h-0.917v-3.954c0-0.842-0.126-1.454-0.377-1.834c-0.252-0.381-0.638-0.571-1.16-0.571
		c-0.53,0-1.002,0.187-1.416,0.558c-0.414,0.371-0.71,0.86-0.89,1.468v4.334h-0.917v-7.079h0.836v1.604
		c0.288-0.544,0.665-0.967,1.132-1.271s0.984-0.455,1.551-0.455c0.593,0,1.069,0.168,1.429,0.503
		c0.359,0.335,0.575,0.774,0.647,1.317c0.656-1.214,1.564-1.82,2.724-1.82c0.386,0,0.716,0.072,0.991,0.217
		c0.274,0.146,0.494,0.352,0.661,0.619c0.167,0.267,0.288,0.589,0.364,0.964c0.076,0.376,0.115,0.795,0.115,1.257V55.723z"/>
	<path fill="#C48D81" d="M46.904,55.858c-0.593,0-1.119-0.151-1.577-0.455c-0.458-0.304-0.827-0.687-1.106-1.148v4.362h-0.917
		v-9.974h0.822v1.372c0.288-0.443,0.661-0.804,1.119-1.08s0.957-0.414,1.497-0.414c0.485,0,0.933,0.102,1.341,0.306
		c0.409,0.204,0.762,0.476,1.059,0.815s0.528,0.731,0.694,1.175c0.166,0.444,0.25,0.901,0.25,1.372c0,0.499-0.077,0.97-0.229,1.413
		c-0.153,0.444-0.371,0.834-0.654,1.169s-0.62,0.601-1.011,0.795C47.801,55.761,47.371,55.858,46.904,55.858z M46.648,55.043
		c0.377,0,0.719-0.081,1.024-0.244s0.568-0.378,0.789-0.646c0.22-0.267,0.389-0.57,0.505-0.91s0.175-0.69,0.175-1.054
		c0-0.38-0.067-0.742-0.202-1.087c-0.135-0.344-0.319-0.647-0.553-0.91c-0.234-0.263-0.51-0.471-0.829-0.625
		c-0.319-0.153-0.663-0.23-1.032-0.23c-0.234,0-0.477,0.047-0.728,0.143c-0.252,0.095-0.49,0.222-0.714,0.38
		c-0.225,0.159-0.416,0.345-0.573,0.558s-0.254,0.437-0.29,0.672v2.175c0.108,0.253,0.245,0.489,0.412,0.706
		c0.166,0.218,0.355,0.405,0.566,0.564c0.211,0.158,0.44,0.283,0.688,0.373C46.133,54.998,46.387,55.043,46.648,55.043z"/>
	<path fill="#C48D81" d="M53.456,55.858c-0.359,0-0.688-0.057-0.984-0.17c-0.297-0.113-0.551-0.27-0.762-0.469
		c-0.211-0.199-0.375-0.43-0.492-0.692c-0.117-0.263-0.175-0.539-0.175-0.829c0-0.326,0.072-0.623,0.215-0.89
		c0.144-0.268,0.346-0.496,0.607-0.687s0.573-0.338,0.937-0.441c0.364-0.104,0.766-0.156,1.207-0.156
		c0.351,0,0.71,0.031,1.079,0.095s0.697,0.154,0.984,0.271v-0.639c0-0.625-0.178-1.12-0.533-1.487s-0.833-0.551-1.436-0.551
		c-0.377,0-0.753,0.073-1.126,0.218c-0.373,0.146-0.753,0.354-1.139,0.625l-0.324-0.611c0.458-0.308,0.903-0.539,1.335-0.693
		c0.431-0.153,0.881-0.23,1.348-0.23c0.854,0,1.532,0.249,2.036,0.747s0.755,1.187,0.755,2.065v3.193c0,0.253,0.108,0.38,0.323,0.38
		v0.815c-0.072,0.009-0.139,0.016-0.202,0.021c-0.063,0.004-0.117,0.007-0.162,0.007c-0.18,0-0.344-0.055-0.492-0.163
		s-0.231-0.271-0.25-0.489l-0.027-0.557c-0.306,0.416-0.708,0.74-1.207,0.971C54.474,55.743,53.969,55.858,53.456,55.858z
		 M53.686,55.152c0.404,0,0.807-0.089,1.207-0.266s0.717-0.419,0.951-0.727c0.063-0.082,0.117-0.17,0.162-0.265
		c0.045-0.096,0.067-0.184,0.067-0.266v-1.154c-0.306-0.118-0.625-0.209-0.957-0.272c-0.333-0.063-0.656-0.095-0.971-0.095
		c-0.656,0-1.189,0.134-1.598,0.4c-0.409,0.268-0.613,0.637-0.613,1.107c0,0.19,0.036,0.376,0.108,0.558
		c0.072,0.182,0.182,0.344,0.33,0.489c0.148,0.145,0.331,0.263,0.546,0.353C53.133,55.106,53.389,55.152,53.686,55.152z"/>
	<path fill="#C48D81" d="M64.889,55.723h-0.917v-3.954c0-0.842-0.121-1.454-0.364-1.834c-0.243-0.381-0.62-0.571-1.133-0.571
		c-0.27,0-0.539,0.051-0.809,0.15c-0.27,0.1-0.521,0.239-0.755,0.421c-0.234,0.181-0.438,0.396-0.613,0.646
		s-0.308,0.519-0.398,0.809v4.334h-0.917v-7.079h0.836v1.604c0.144-0.254,0.321-0.487,0.532-0.7c0.211-0.213,0.447-0.396,0.708-0.55
		s0.537-0.271,0.829-0.354c0.292-0.081,0.596-0.122,0.91-0.122c0.396,0,0.726,0.072,0.991,0.217c0.265,0.146,0.479,0.35,0.64,0.612
		c0.162,0.263,0.279,0.584,0.351,0.964c0.072,0.381,0.108,0.802,0.108,1.264V55.723z"/>
	<path fill="#C48D81" d="M67.06,57.91c0.045,0.009,0.09,0.016,0.135,0.021s0.09,0.007,0.135,0.007c0.09,0,0.187-0.009,0.29-0.027
		c0.103-0.019,0.177-0.036,0.223-0.055c0.045-0.018,0.092-0.057,0.142-0.115c0.049-0.059,0.112-0.163,0.188-0.313
		s0.173-0.357,0.29-0.625c0.117-0.268,0.265-0.627,0.445-1.08l-3.061-7.079h0.957l2.603,6.223l2.4-6.223h0.876l-3.654,9.131
		c-0.135,0.335-0.317,0.584-0.546,0.747c-0.229,0.163-0.551,0.245-0.964,0.245c-0.171,0-0.324-0.014-0.458-0.041V57.91z"/>
</g>
<g>
	<path fill="#C48D81" d="M13.898,70.818v-9.647h3.964c0.414,0,0.793,0.089,1.14,0.266c0.346,0.177,0.645,0.407,0.896,0.692
		c0.251,0.285,0.447,0.609,0.586,0.972c0.139,0.362,0.209,0.729,0.209,1.101c0,0.398-0.065,0.781-0.195,1.148
		c-0.131,0.366-0.317,0.69-0.56,0.972c-0.243,0.28-0.533,0.507-0.87,0.679c-0.337,0.173-0.713,0.259-1.126,0.259h-3.115v3.56H13.898
		z M14.829,66.416h3.061c0.279,0,0.533-0.062,0.762-0.184c0.229-0.122,0.424-0.285,0.586-0.489c0.162-0.203,0.288-0.438,0.377-0.706
		s0.135-0.546,0.135-0.836c0-0.299-0.052-0.582-0.155-0.849c-0.103-0.268-0.243-0.501-0.418-0.7
		c-0.175-0.199-0.382-0.355-0.62-0.469s-0.488-0.17-0.748-0.17h-2.98V66.416z"/>
	<path fill="#C48D81" d="M24.914,70.954c-0.513,0-0.982-0.098-1.409-0.292c-0.427-0.194-0.795-0.46-1.105-0.795
		s-0.551-0.725-0.721-1.169c-0.171-0.443-0.256-0.91-0.256-1.399c0-0.498,0.087-0.969,0.263-1.413
		c0.175-0.443,0.418-0.833,0.728-1.168c0.311-0.335,0.679-0.603,1.106-0.802c0.427-0.199,0.892-0.299,1.396-0.299
		c0.503,0,0.968,0.1,1.395,0.299c0.427,0.199,0.796,0.467,1.106,0.802s0.553,0.725,0.728,1.168c0.175,0.444,0.263,0.915,0.263,1.413
		c0,0.489-0.087,0.956-0.263,1.399c-0.175,0.444-0.418,0.834-0.728,1.169s-0.679,0.601-1.106,0.795
		C25.882,70.856,25.417,70.954,24.914,70.954z M22.366,67.313c0,0.399,0.065,0.768,0.195,1.107s0.31,0.639,0.54,0.897
		c0.229,0.258,0.499,0.459,0.809,0.604c0.311,0.145,0.641,0.217,0.991,0.217s0.681-0.074,0.991-0.224
		c0.311-0.149,0.582-0.354,0.816-0.611c0.234-0.259,0.418-0.56,0.553-0.904c0.135-0.344,0.202-0.715,0.202-1.114
		c0-0.389-0.067-0.758-0.202-1.106s-0.319-0.652-0.553-0.911c-0.234-0.258-0.503-0.462-0.809-0.611s-0.634-0.224-0.984-0.224
		c-0.351,0-0.681,0.074-0.991,0.224s-0.58,0.355-0.809,0.618c-0.229,0.263-0.411,0.568-0.546,0.917
		C22.433,66.541,22.366,66.914,22.366,67.313z"/>
	<path fill="#C48D81" d="M32.262,70.954c-0.548,0-1.083-0.091-1.604-0.271c-0.521-0.182-0.971-0.443-1.348-0.788l0.418-0.625
		c0.396,0.326,0.797,0.57,1.207,0.733s0.847,0.245,1.314,0.245c0.566,0,1.018-0.116,1.355-0.347c0.337-0.231,0.506-0.56,0.506-0.985
		c0-0.199-0.045-0.364-0.135-0.496c-0.09-0.131-0.223-0.246-0.398-0.347c-0.175-0.099-0.396-0.188-0.661-0.265
		s-0.573-0.156-0.923-0.237c-0.405-0.1-0.755-0.199-1.052-0.299c-0.297-0.1-0.542-0.213-0.735-0.34s-0.337-0.283-0.432-0.469
		c-0.094-0.186-0.142-0.419-0.142-0.7c0-0.354,0.07-0.666,0.209-0.938c0.14-0.271,0.328-0.496,0.566-0.673
		c0.238-0.176,0.517-0.31,0.836-0.4s0.658-0.136,1.018-0.136c0.539,0,1.029,0.088,1.47,0.265c0.44,0.177,0.795,0.41,1.065,0.7
		l-0.445,0.543c-0.261-0.271-0.578-0.476-0.951-0.611s-0.762-0.204-1.166-0.204c-0.243,0-0.468,0.025-0.674,0.075
		c-0.207,0.05-0.389,0.129-0.546,0.237c-0.158,0.109-0.281,0.247-0.371,0.415s-0.135,0.364-0.135,0.591
		c0,0.19,0.032,0.345,0.095,0.462c0.063,0.118,0.166,0.22,0.31,0.306c0.144,0.086,0.326,0.163,0.546,0.231
		c0.22,0.067,0.487,0.138,0.802,0.21c0.449,0.109,0.845,0.218,1.187,0.326c0.341,0.109,0.627,0.236,0.856,0.381
		c0.229,0.145,0.402,0.321,0.519,0.529c0.117,0.209,0.175,0.463,0.175,0.762c0,0.651-0.247,1.168-0.741,1.549
		C33.763,70.764,33.098,70.954,32.262,70.954z"/>
	<path fill="#C48D81" d="M36.468,62.258v-1.358h0.917v1.358H36.468z M36.468,70.818v-7.079h0.917v7.079H36.468z"/>
	<path fill="#C48D81" d="M42.751,70.479c-0.054,0.027-0.133,0.063-0.236,0.108c-0.104,0.046-0.223,0.091-0.357,0.137
		c-0.135,0.045-0.288,0.086-0.458,0.122s-0.351,0.054-0.539,0.054c-0.198,0-0.387-0.026-0.566-0.081s-0.337-0.138-0.472-0.251
		s-0.243-0.256-0.324-0.429c-0.081-0.172-0.122-0.371-0.122-0.598v-5.068h-0.971v-0.733h0.971v-2.392h0.917v2.392h1.618v0.733
		h-1.618v4.811c0.018,0.263,0.108,0.455,0.27,0.577c0.162,0.122,0.355,0.184,0.58,0.184c0.26,0,0.49-0.043,0.688-0.129
		s0.324-0.147,0.377-0.184L42.751,70.479z"/>
	<path fill="#C48D81" d="M43.83,62.258v-1.358h0.917v1.358H43.83z M43.83,70.818v-7.079h0.917v7.079H43.83z"/>
	<path fill="#C48D81" d="M49.749,70.954c-0.513,0-0.982-0.098-1.409-0.292c-0.427-0.194-0.795-0.46-1.105-0.795
		s-0.551-0.725-0.721-1.169c-0.171-0.443-0.256-0.91-0.256-1.399c0-0.498,0.087-0.969,0.263-1.413
		c0.175-0.443,0.418-0.833,0.728-1.168c0.311-0.335,0.679-0.603,1.106-0.802c0.427-0.199,0.892-0.299,1.396-0.299
		c0.503,0,0.968,0.1,1.395,0.299c0.427,0.199,0.796,0.467,1.106,0.802s0.553,0.725,0.728,1.168c0.175,0.444,0.263,0.915,0.263,1.413
		c0,0.489-0.087,0.956-0.263,1.399c-0.175,0.444-0.418,0.834-0.728,1.169s-0.679,0.601-1.106,0.795
		C50.717,70.856,50.251,70.954,49.749,70.954z M47.2,67.313c0,0.399,0.065,0.768,0.195,1.107s0.31,0.639,0.54,0.897
		c0.229,0.258,0.499,0.459,0.809,0.604c0.311,0.145,0.641,0.217,0.991,0.217s0.681-0.074,0.991-0.224
		c0.311-0.149,0.582-0.354,0.816-0.611c0.234-0.259,0.418-0.56,0.553-0.904c0.135-0.344,0.202-0.715,0.202-1.114
		c0-0.389-0.067-0.758-0.202-1.106s-0.319-0.652-0.553-0.911c-0.234-0.258-0.503-0.462-0.809-0.611s-0.634-0.224-0.984-0.224
		c-0.351,0-0.681,0.074-0.991,0.224s-0.58,0.355-0.809,0.618c-0.229,0.263-0.411,0.568-0.546,0.917
		C47.268,66.541,47.2,66.914,47.2,67.313z"/>
	<path fill="#C48D81" d="M60.642,70.818h-0.917v-3.954c0-0.842-0.121-1.454-0.364-1.834c-0.243-0.381-0.62-0.571-1.133-0.571
		c-0.27,0-0.539,0.051-0.809,0.15c-0.27,0.1-0.521,0.239-0.755,0.421c-0.234,0.181-0.438,0.396-0.613,0.646
		s-0.308,0.519-0.398,0.809v4.334h-0.917v-7.079h0.836v1.604c0.144-0.254,0.321-0.487,0.532-0.7c0.211-0.213,0.447-0.396,0.708-0.55
		s0.537-0.271,0.829-0.354c0.292-0.081,0.596-0.122,0.91-0.122c0.396,0,0.726,0.072,0.991,0.217c0.265,0.146,0.479,0.35,0.64,0.612
		c0.162,0.263,0.279,0.584,0.351,0.964c0.072,0.381,0.108,0.802,0.108,1.264V70.818z"/>
</g>
<g>
	<path fill="#C48D81" d="M12.887,85.914l4.004-9.647h0.769l4.004,9.647h-1.011l-1.24-3.017h-4.301l-1.227,3.017H12.887z
		 M17.283,77.381l-1.969,4.77h3.883L17.283,77.381z"/>
	<path fill="#C48D81" d="M25.521,86.05c-0.485,0-0.935-0.102-1.348-0.306c-0.414-0.204-0.771-0.474-1.072-0.809
		c-0.301-0.335-0.535-0.722-0.701-1.161c-0.167-0.439-0.25-0.899-0.25-1.38c0-0.498,0.081-0.971,0.243-1.42
		c0.162-0.448,0.384-0.84,0.667-1.175s0.62-0.6,1.011-0.795c0.391-0.194,0.82-0.292,1.288-0.292c0.593,0,1.119,0.156,1.577,0.469
		c0.458,0.313,0.823,0.69,1.092,1.135v-4.321h0.917v8.724c0,0.253,0.108,0.38,0.323,0.38v0.815
		c-0.153,0.027-0.274,0.041-0.364,0.041c-0.225,0-0.409-0.065-0.553-0.197c-0.144-0.131-0.216-0.287-0.216-0.469v-0.747
		c-0.288,0.462-0.667,0.828-1.139,1.101C26.525,85.914,26.033,86.05,25.521,86.05z M25.709,85.234c0.233,0,0.479-0.045,0.735-0.136
		c0.256-0.09,0.494-0.215,0.714-0.373c0.22-0.159,0.411-0.345,0.573-0.558c0.162-0.213,0.26-0.441,0.296-0.687v-2.188
		c-0.09-0.244-0.223-0.473-0.398-0.686s-0.373-0.401-0.593-0.564s-0.454-0.289-0.701-0.38c-0.248-0.091-0.492-0.136-0.735-0.136
		c-0.377,0-0.722,0.081-1.032,0.244s-0.573,0.378-0.789,0.646s-0.384,0.573-0.505,0.917c-0.122,0.345-0.182,0.698-0.182,1.06
		c0,0.381,0.067,0.743,0.202,1.087c0.135,0.345,0.319,0.646,0.553,0.904c0.234,0.258,0.51,0.464,0.829,0.618
		S25.341,85.234,25.709,85.234z"/>
	<path fill="#C48D81" d="M33.92,86.05c-0.485,0-0.935-0.102-1.348-0.306c-0.414-0.204-0.771-0.474-1.072-0.809
		c-0.301-0.335-0.535-0.722-0.701-1.161c-0.167-0.439-0.25-0.899-0.25-1.38c0-0.498,0.081-0.971,0.243-1.42
		c0.162-0.448,0.384-0.84,0.667-1.175s0.62-0.6,1.011-0.795c0.391-0.194,0.82-0.292,1.288-0.292c0.593,0,1.119,0.156,1.577,0.469
		c0.458,0.313,0.823,0.69,1.092,1.135v-4.321h0.917v8.724c0,0.253,0.108,0.38,0.323,0.38v0.815
		c-0.153,0.027-0.274,0.041-0.364,0.041c-0.225,0-0.409-0.065-0.553-0.197c-0.144-0.131-0.216-0.287-0.216-0.469v-0.747
		c-0.288,0.462-0.667,0.828-1.139,1.101C34.924,85.914,34.432,86.05,33.92,86.05z M34.109,85.234c0.233,0,0.479-0.045,0.735-0.136
		c0.256-0.09,0.494-0.215,0.714-0.373c0.22-0.159,0.411-0.345,0.573-0.558c0.162-0.213,0.26-0.441,0.296-0.687v-2.188
		c-0.09-0.244-0.223-0.473-0.398-0.686s-0.373-0.401-0.593-0.564s-0.454-0.289-0.701-0.38c-0.248-0.091-0.492-0.136-0.735-0.136
		c-0.377,0-0.722,0.081-1.032,0.244s-0.573,0.378-0.789,0.646s-0.384,0.573-0.505,0.917c-0.122,0.345-0.182,0.698-0.182,1.06
		c0,0.381,0.067,0.743,0.202,1.087c0.135,0.345,0.319,0.646,0.553,0.904c0.234,0.258,0.51,0.464,0.829,0.618
		S33.74,85.234,34.109,85.234z"/>
	<path fill="#C48D81" d="M42.913,79.65c-0.62,0.019-1.16,0.19-1.618,0.517c-0.458,0.326-0.782,0.774-0.971,1.345v4.402h-0.917
		v-7.079h0.863v1.698c0.243-0.498,0.562-0.912,0.957-1.243c0.396-0.33,0.823-0.496,1.281-0.496c0.081,0,0.157,0,0.229,0
		c0.072,0,0.13,0.005,0.175,0.014V79.65z"/>
	<path fill="#C48D81" d="M47.213,86.05c-0.512,0-0.984-0.098-1.416-0.292s-0.805-0.462-1.119-0.802s-0.56-0.731-0.735-1.175
		c-0.175-0.444-0.263-0.92-0.263-1.427c0-0.498,0.087-0.967,0.263-1.406s0.42-0.824,0.735-1.155s0.686-0.593,1.112-0.788
		c0.427-0.194,0.897-0.292,1.409-0.292s0.982,0.098,1.409,0.292c0.427,0.195,0.793,0.46,1.099,0.795
		c0.305,0.335,0.543,0.72,0.714,1.155c0.171,0.435,0.256,0.896,0.256,1.386c0,0.072-0.002,0.145-0.007,0.217
		c-0.004,0.073-0.011,0.123-0.02,0.149h-6c0.027,0.381,0.115,0.732,0.263,1.054c0.148,0.321,0.337,0.6,0.566,0.835
		c0.229,0.236,0.494,0.42,0.795,0.551s0.623,0.197,0.964,0.197c0.233,0,0.463-0.032,0.688-0.096s0.431-0.149,0.62-0.258
		s0.357-0.242,0.506-0.401c0.148-0.158,0.263-0.332,0.344-0.522l0.795,0.217c-0.108,0.264-0.261,0.501-0.458,0.714
		s-0.427,0.398-0.688,0.557c-0.261,0.159-0.548,0.281-0.863,0.367C47.87,86.007,47.546,86.05,47.213,86.05z M49.802,82.001
		c-0.027-0.381-0.115-0.727-0.263-1.039c-0.148-0.313-0.337-0.582-0.566-0.809c-0.229-0.227-0.497-0.403-0.802-0.53
		c-0.306-0.127-0.629-0.19-0.971-0.19c-0.342,0-0.666,0.063-0.971,0.19c-0.306,0.127-0.573,0.304-0.802,0.53
		c-0.229,0.227-0.414,0.498-0.553,0.814c-0.14,0.317-0.223,0.662-0.25,1.033H49.802z"/>
	<path fill="#C48D81" d="M54.414,86.05c-0.548,0-1.083-0.091-1.604-0.271c-0.521-0.182-0.971-0.443-1.348-0.788l0.418-0.625
		c0.396,0.326,0.797,0.57,1.207,0.733s0.847,0.245,1.314,0.245c0.566,0,1.018-0.116,1.355-0.347c0.337-0.231,0.506-0.56,0.506-0.985
		c0-0.199-0.045-0.364-0.135-0.496c-0.09-0.131-0.223-0.246-0.398-0.347c-0.175-0.099-0.396-0.188-0.661-0.265
		s-0.573-0.156-0.923-0.237c-0.405-0.1-0.755-0.199-1.052-0.299c-0.297-0.1-0.542-0.213-0.735-0.34s-0.337-0.283-0.432-0.469
		c-0.094-0.186-0.142-0.419-0.142-0.7c0-0.354,0.07-0.666,0.209-0.938c0.14-0.271,0.328-0.496,0.566-0.673
		c0.238-0.176,0.517-0.31,0.836-0.4s0.658-0.136,1.018-0.136c0.539,0,1.029,0.088,1.47,0.265c0.44,0.177,0.795,0.41,1.065,0.7
		l-0.445,0.543c-0.261-0.271-0.578-0.476-0.951-0.611s-0.762-0.204-1.166-0.204c-0.243,0-0.468,0.025-0.674,0.075
		c-0.207,0.05-0.389,0.129-0.546,0.237c-0.158,0.109-0.281,0.247-0.371,0.415s-0.135,0.364-0.135,0.591
		c0,0.19,0.032,0.345,0.095,0.462c0.063,0.118,0.166,0.22,0.31,0.306c0.144,0.086,0.326,0.163,0.546,0.231
		c0.22,0.067,0.487,0.138,0.802,0.21c0.449,0.109,0.845,0.218,1.187,0.326c0.341,0.109,0.627,0.236,0.856,0.381
		c0.229,0.145,0.402,0.321,0.519,0.529c0.117,0.209,0.175,0.463,0.175,0.762c0,0.651-0.247,1.168-0.741,1.549
		C55.915,85.859,55.25,86.05,54.414,86.05z"/>
	<path fill="#C48D81" d="M60.979,86.05c-0.548,0-1.083-0.091-1.604-0.271c-0.521-0.182-0.971-0.443-1.348-0.788l0.418-0.625
		c0.396,0.326,0.797,0.57,1.207,0.733s0.847,0.245,1.314,0.245c0.566,0,1.018-0.116,1.355-0.347c0.337-0.231,0.506-0.56,0.506-0.985
		c0-0.199-0.045-0.364-0.135-0.496c-0.09-0.131-0.223-0.246-0.398-0.347c-0.175-0.099-0.396-0.188-0.661-0.265
		s-0.573-0.156-0.923-0.237c-0.405-0.1-0.755-0.199-1.052-0.299c-0.297-0.1-0.542-0.213-0.735-0.34s-0.337-0.283-0.432-0.469
		c-0.094-0.186-0.142-0.419-0.142-0.7c0-0.354,0.07-0.666,0.209-0.938c0.14-0.271,0.328-0.496,0.566-0.673
		c0.238-0.176,0.517-0.31,0.836-0.4s0.658-0.136,1.018-0.136c0.539,0,1.029,0.088,1.47,0.265c0.44,0.177,0.795,0.41,1.065,0.7
		l-0.445,0.543c-0.261-0.271-0.578-0.476-0.951-0.611s-0.762-0.204-1.166-0.204c-0.243,0-0.468,0.025-0.674,0.075
		c-0.207,0.05-0.389,0.129-0.546,0.237c-0.158,0.109-0.281,0.247-0.371,0.415s-0.135,0.364-0.135,0.591
		c0,0.19,0.032,0.345,0.095,0.462c0.063,0.118,0.166,0.22,0.31,0.306c0.144,0.086,0.326,0.163,0.546,0.231
		c0.22,0.067,0.487,0.138,0.802,0.21c0.449,0.109,0.845,0.218,1.187,0.326c0.341,0.109,0.627,0.236,0.856,0.381
		c0.229,0.145,0.402,0.321,0.519,0.529c0.117,0.209,0.175,0.463,0.175,0.762c0,0.651-0.247,1.168-0.741,1.549
		C62.48,85.859,61.815,86.05,60.979,86.05z"/>
</g>
<g>
	<path fill="#C48D81" d="M12.887,101.077l4.004-9.647h0.769l4.004,9.647h-1.011l-1.24-3.017h-4.301l-1.227,3.017H12.887z
		 M17.283,92.544l-1.969,4.77h3.883L17.283,92.544z"/>
	<path fill="#C48D81" d="M25.521,101.213c-0.485,0-0.935-0.102-1.348-0.306c-0.414-0.204-0.771-0.474-1.072-0.809
		c-0.301-0.335-0.535-0.722-0.701-1.161c-0.167-0.439-0.25-0.899-0.25-1.38c0-0.498,0.081-0.971,0.243-1.42
		c0.162-0.448,0.384-0.84,0.667-1.175s0.62-0.6,1.011-0.795c0.391-0.194,0.82-0.292,1.288-0.292c0.593,0,1.119,0.156,1.577,0.469
		c0.458,0.313,0.823,0.69,1.092,1.135v-4.321h0.917v8.724c0,0.253,0.108,0.38,0.323,0.38v0.815
		c-0.153,0.027-0.274,0.041-0.364,0.041c-0.225,0-0.409-0.065-0.553-0.197c-0.144-0.131-0.216-0.287-0.216-0.469v-0.747
		c-0.288,0.462-0.667,0.828-1.139,1.101C26.525,101.077,26.033,101.213,25.521,101.213z M25.709,100.397
		c0.233,0,0.479-0.045,0.735-0.136c0.256-0.09,0.494-0.215,0.714-0.373c0.22-0.159,0.411-0.345,0.573-0.558
		c0.162-0.213,0.26-0.441,0.296-0.687v-2.188c-0.09-0.244-0.223-0.473-0.398-0.686s-0.373-0.401-0.593-0.564
		s-0.454-0.289-0.701-0.38c-0.248-0.091-0.492-0.136-0.735-0.136c-0.377,0-0.722,0.081-1.032,0.244s-0.573,0.378-0.789,0.646
		s-0.384,0.573-0.505,0.917c-0.122,0.345-0.182,0.698-0.182,1.06c0,0.381,0.067,0.743,0.202,1.087
		c0.135,0.345,0.319,0.646,0.553,0.904c0.234,0.258,0.51,0.464,0.829,0.618S25.341,100.397,25.709,100.397z"/>
	<path fill="#C48D81" d="M33.92,101.213c-0.485,0-0.935-0.102-1.348-0.306c-0.414-0.204-0.771-0.474-1.072-0.809
		c-0.301-0.335-0.535-0.722-0.701-1.161c-0.167-0.439-0.25-0.899-0.25-1.38c0-0.498,0.081-0.971,0.243-1.42
		c0.162-0.448,0.384-0.84,0.667-1.175s0.62-0.6,1.011-0.795c0.391-0.194,0.82-0.292,1.288-0.292c0.593,0,1.119,0.156,1.577,0.469
		c0.458,0.313,0.823,0.69,1.092,1.135v-4.321h0.917v8.724c0,0.253,0.108,0.38,0.323,0.38v0.815
		c-0.153,0.027-0.274,0.041-0.364,0.041c-0.225,0-0.409-0.065-0.553-0.197c-0.144-0.131-0.216-0.287-0.216-0.469v-0.747
		c-0.288,0.462-0.667,0.828-1.139,1.101C34.924,101.077,34.432,101.213,33.92,101.213z M34.109,100.397
		c0.233,0,0.479-0.045,0.735-0.136c0.256-0.09,0.494-0.215,0.714-0.373c0.22-0.159,0.411-0.345,0.573-0.558
		c0.162-0.213,0.26-0.441,0.296-0.687v-2.188c-0.09-0.244-0.223-0.473-0.398-0.686s-0.373-0.401-0.593-0.564
		s-0.454-0.289-0.701-0.38c-0.248-0.091-0.492-0.136-0.735-0.136c-0.377,0-0.722,0.081-1.032,0.244s-0.573,0.378-0.789,0.646
		s-0.384,0.573-0.505,0.917c-0.122,0.345-0.182,0.698-0.182,1.06c0,0.381,0.067,0.743,0.202,1.087
		c0.135,0.345,0.319,0.646,0.553,0.904c0.234,0.258,0.51,0.464,0.829,0.618S33.74,100.397,34.109,100.397z"/>
	<path fill="#C48D81" d="M42.913,94.813c-0.62,0.019-1.16,0.19-1.618,0.517c-0.458,0.326-0.782,0.774-0.971,1.345v4.402h-0.917
		v-7.079h0.863v1.698c0.243-0.498,0.562-0.912,0.957-1.243c0.396-0.33,0.823-0.496,1.281-0.496c0.081,0,0.157,0,0.229,0
		c0.072,0,0.13,0.005,0.175,0.014V94.813z"/>
	<path fill="#C48D81" d="M47.213,101.213c-0.512,0-0.984-0.098-1.416-0.292s-0.805-0.462-1.119-0.802s-0.56-0.731-0.735-1.175
		c-0.175-0.444-0.263-0.92-0.263-1.427c0-0.498,0.087-0.967,0.263-1.406s0.42-0.824,0.735-1.155s0.686-0.593,1.112-0.788
		c0.427-0.194,0.897-0.292,1.409-0.292s0.982,0.098,1.409,0.292c0.427,0.195,0.793,0.46,1.099,0.795
		c0.305,0.335,0.543,0.72,0.714,1.155c0.171,0.435,0.256,0.896,0.256,1.386c0,0.072-0.002,0.145-0.007,0.217
		c-0.004,0.073-0.011,0.123-0.02,0.149h-6c0.027,0.381,0.115,0.732,0.263,1.054c0.148,0.321,0.337,0.6,0.566,0.835
		c0.229,0.236,0.494,0.42,0.795,0.551s0.623,0.197,0.964,0.197c0.233,0,0.463-0.032,0.688-0.096s0.431-0.149,0.62-0.258
		s0.357-0.242,0.506-0.401c0.148-0.158,0.263-0.332,0.344-0.522l0.795,0.217c-0.108,0.264-0.261,0.501-0.458,0.714
		s-0.427,0.398-0.688,0.557c-0.261,0.159-0.548,0.281-0.863,0.367C47.87,101.17,47.546,101.213,47.213,101.213z M49.802,97.164
		c-0.027-0.381-0.115-0.727-0.263-1.039c-0.148-0.313-0.337-0.582-0.566-0.809c-0.229-0.227-0.497-0.403-0.802-0.53
		c-0.306-0.127-0.629-0.19-0.971-0.19c-0.342,0-0.666,0.063-0.971,0.19c-0.306,0.127-0.573,0.304-0.802,0.53
		c-0.229,0.227-0.414,0.498-0.553,0.814c-0.14,0.317-0.223,0.662-0.25,1.033H49.802z"/>
	<path fill="#C48D81" d="M54.414,101.213c-0.548,0-1.083-0.091-1.604-0.271c-0.521-0.182-0.971-0.443-1.348-0.788l0.418-0.625
		c0.396,0.326,0.797,0.57,1.207,0.733s0.847,0.245,1.314,0.245c0.566,0,1.018-0.116,1.355-0.347c0.337-0.231,0.506-0.56,0.506-0.985
		c0-0.199-0.045-0.364-0.135-0.496c-0.09-0.131-0.223-0.246-0.398-0.347c-0.175-0.099-0.396-0.188-0.661-0.265
		s-0.573-0.156-0.923-0.237c-0.405-0.1-0.755-0.199-1.052-0.299c-0.297-0.1-0.542-0.213-0.735-0.34s-0.337-0.283-0.432-0.469
		c-0.094-0.186-0.142-0.419-0.142-0.7c0-0.354,0.07-0.666,0.209-0.938c0.14-0.271,0.328-0.496,0.566-0.673
		c0.238-0.176,0.517-0.31,0.836-0.4s0.658-0.136,1.018-0.136c0.539,0,1.029,0.088,1.47,0.265c0.44,0.177,0.795,0.41,1.065,0.7
		l-0.445,0.543c-0.261-0.271-0.578-0.476-0.951-0.611s-0.762-0.204-1.166-0.204c-0.243,0-0.468,0.025-0.674,0.075
		c-0.207,0.05-0.389,0.129-0.546,0.237c-0.158,0.109-0.281,0.247-0.371,0.415s-0.135,0.364-0.135,0.591
		c0,0.19,0.032,0.345,0.095,0.462c0.063,0.118,0.166,0.22,0.31,0.306c0.144,0.086,0.326,0.163,0.546,0.231
		c0.22,0.067,0.487,0.138,0.802,0.21c0.449,0.109,0.845,0.218,1.187,0.326c0.341,0.109,0.627,0.236,0.856,0.381
		c0.229,0.145,0.402,0.321,0.519,0.529c0.117,0.209,0.175,0.463,0.175,0.762c0,0.651-0.247,1.168-0.741,1.549
		C55.915,101.022,55.25,101.213,54.414,101.213z"/>
	<path fill="#C48D81" d="M60.979,101.213c-0.548,0-1.083-0.091-1.604-0.271c-0.521-0.182-0.971-0.443-1.348-0.788l0.418-0.625
		c0.396,0.326,0.797,0.57,1.207,0.733s0.847,0.245,1.314,0.245c0.566,0,1.018-0.116,1.355-0.347c0.337-0.231,0.506-0.56,0.506-0.985
		c0-0.199-0.045-0.364-0.135-0.496c-0.09-0.131-0.223-0.246-0.398-0.347c-0.175-0.099-0.396-0.188-0.661-0.265
		s-0.573-0.156-0.923-0.237c-0.405-0.1-0.755-0.199-1.052-0.299c-0.297-0.1-0.542-0.213-0.735-0.34s-0.337-0.283-0.432-0.469
		c-0.094-0.186-0.142-0.419-0.142-0.7c0-0.354,0.07-0.666,0.209-0.938c0.14-0.271,0.328-0.496,0.566-0.673
		c0.238-0.176,0.517-0.31,0.836-0.4s0.658-0.136,1.018-0.136c0.539,0,1.029,0.088,1.47,0.265c0.44,0.177,0.795,0.41,1.065,0.7
		l-0.445,0.543c-0.261-0.271-0.578-0.476-0.951-0.611s-0.762-0.204-1.166-0.204c-0.243,0-0.468,0.025-0.674,0.075
		c-0.207,0.05-0.389,0.129-0.546,0.237c-0.158,0.109-0.281,0.247-0.371,0.415s-0.135,0.364-0.135,0.591
		c0,0.19,0.032,0.345,0.095,0.462c0.063,0.118,0.166,0.22,0.31,0.306c0.144,0.086,0.326,0.163,0.546,0.231
		c0.22,0.067,0.487,0.138,0.802,0.21c0.449,0.109,0.845,0.218,1.187,0.326c0.341,0.109,0.627,0.236,0.856,0.381
		c0.229,0.145,0.402,0.321,0.519,0.529c0.117,0.209,0.175,0.463,0.175,0.762c0,0.651-0.247,1.168-0.741,1.549
		C62.48,101.022,61.815,101.213,60.979,101.213z"/>
</g>
<g>
	<path fill="#C48D81" d="M13.898,116.377v-9.647h3.964c0.414,0,0.793,0.089,1.14,0.266c0.346,0.177,0.645,0.407,0.896,0.692
		c0.251,0.285,0.447,0.609,0.586,0.972c0.139,0.362,0.209,0.729,0.209,1.101c0,0.398-0.065,0.781-0.195,1.148
		c-0.131,0.366-0.317,0.69-0.56,0.972c-0.243,0.28-0.533,0.507-0.87,0.679c-0.337,0.173-0.713,0.259-1.126,0.259h-3.115v3.56H13.898
		z M14.829,111.975h3.061c0.279,0,0.533-0.062,0.762-0.184c0.229-0.122,0.424-0.285,0.586-0.489
		c0.162-0.203,0.288-0.438,0.377-0.706s0.135-0.546,0.135-0.836c0-0.299-0.052-0.582-0.155-0.849
		c-0.103-0.268-0.243-0.501-0.418-0.7c-0.175-0.199-0.382-0.355-0.62-0.469s-0.488-0.17-0.748-0.17h-2.98V111.975z"/>
	<path fill="#C48D81" d="M27.947,116.377H27.03v-3.954c0-0.806-0.137-1.408-0.411-1.807s-0.676-0.599-1.207-0.599
		c-0.261,0-0.519,0.053-0.775,0.156c-0.256,0.104-0.497,0.247-0.721,0.429c-0.225,0.181-0.42,0.394-0.586,0.639
		c-0.167,0.244-0.29,0.512-0.371,0.802v4.334h-0.917v-9.919h0.917v4.443c0.288-0.534,0.679-0.956,1.173-1.264
		c0.494-0.308,1.024-0.462,1.591-0.462c0.404,0,0.748,0.074,1.031,0.224s0.513,0.358,0.688,0.625
		c0.175,0.268,0.303,0.589,0.384,0.965c0.081,0.376,0.121,0.791,0.121,1.243V116.377z"/>
	<path fill="#C48D81" d="M32.882,116.513c-0.513,0-0.982-0.098-1.409-0.292c-0.427-0.194-0.795-0.46-1.105-0.795
		s-0.551-0.725-0.721-1.169c-0.171-0.443-0.256-0.91-0.256-1.399c0-0.498,0.087-0.969,0.263-1.413
		c0.175-0.443,0.418-0.833,0.728-1.168c0.311-0.335,0.679-0.603,1.106-0.802c0.427-0.199,0.892-0.299,1.396-0.299
		c0.503,0,0.968,0.1,1.395,0.299c0.427,0.199,0.796,0.467,1.106,0.802s0.553,0.725,0.728,1.168c0.175,0.444,0.263,0.915,0.263,1.413
		c0,0.489-0.087,0.956-0.263,1.399c-0.175,0.444-0.418,0.834-0.728,1.169s-0.679,0.601-1.106,0.795
		C33.851,116.415,33.385,116.513,32.882,116.513z M30.334,112.871c0,0.399,0.065,0.768,0.195,1.107s0.31,0.639,0.54,0.897
		c0.229,0.258,0.499,0.459,0.809,0.604c0.311,0.145,0.641,0.217,0.991,0.217s0.681-0.074,0.991-0.224
		c0.311-0.149,0.582-0.354,0.816-0.611c0.234-0.259,0.418-0.56,0.553-0.904c0.135-0.344,0.202-0.715,0.202-1.114
		c0-0.389-0.067-0.758-0.202-1.106s-0.319-0.652-0.553-0.911c-0.234-0.258-0.503-0.462-0.809-0.611s-0.634-0.224-0.984-0.224
		c-0.351,0-0.681,0.074-0.991,0.224s-0.58,0.355-0.809,0.618c-0.229,0.263-0.411,0.568-0.546,0.917
		C30.401,112.1,30.334,112.473,30.334,112.871z"/>
	<path fill="#C48D81" d="M43.776,116.377h-0.917v-3.954c0-0.842-0.121-1.454-0.364-1.834c-0.243-0.381-0.62-0.571-1.133-0.571
		c-0.27,0-0.539,0.051-0.809,0.15c-0.27,0.1-0.521,0.239-0.755,0.421c-0.234,0.181-0.438,0.396-0.613,0.646
		s-0.308,0.519-0.398,0.809v4.334h-0.917v-7.079h0.836v1.604c0.144-0.254,0.321-0.487,0.532-0.7c0.211-0.213,0.447-0.396,0.708-0.55
		s0.537-0.271,0.829-0.354c0.292-0.081,0.596-0.122,0.91-0.122c0.396,0,0.726,0.072,0.991,0.217c0.265,0.146,0.479,0.35,0.64,0.612
		c0.162,0.263,0.279,0.584,0.351,0.964c0.072,0.381,0.108,0.802,0.108,1.264V116.377z"/>
	<path fill="#C48D81" d="M48.75,116.513c-0.512,0-0.984-0.098-1.416-0.292s-0.805-0.462-1.119-0.802s-0.56-0.731-0.735-1.175
		c-0.175-0.444-0.263-0.92-0.263-1.427c0-0.498,0.087-0.967,0.263-1.406s0.42-0.824,0.735-1.155s0.686-0.593,1.112-0.788
		c0.427-0.194,0.897-0.292,1.409-0.292s0.982,0.098,1.409,0.292c0.427,0.195,0.793,0.46,1.099,0.795
		c0.305,0.335,0.543,0.72,0.714,1.155c0.171,0.435,0.256,0.896,0.256,1.386c0,0.072-0.002,0.145-0.007,0.217
		c-0.004,0.073-0.011,0.123-0.02,0.149h-6c0.027,0.381,0.115,0.732,0.263,1.054c0.148,0.321,0.337,0.6,0.566,0.835
		c0.229,0.236,0.494,0.42,0.795,0.551s0.623,0.197,0.964,0.197c0.233,0,0.463-0.032,0.688-0.096s0.431-0.149,0.62-0.258
		s0.357-0.242,0.506-0.401c0.148-0.158,0.263-0.332,0.344-0.522l0.795,0.217c-0.108,0.264-0.261,0.501-0.458,0.714
		s-0.427,0.398-0.688,0.557c-0.261,0.159-0.548,0.281-0.863,0.367C49.407,116.47,49.083,116.513,48.75,116.513z M51.339,112.464
		c-0.027-0.381-0.115-0.727-0.263-1.039c-0.148-0.313-0.337-0.582-0.566-0.809c-0.229-0.227-0.497-0.403-0.802-0.53
		c-0.306-0.127-0.629-0.19-0.971-0.19c-0.342,0-0.666,0.063-0.971,0.19c-0.306,0.127-0.573,0.304-0.802,0.53
		c-0.229,0.227-0.414,0.498-0.553,0.814c-0.14,0.317-0.223,0.662-0.25,1.033H51.339z"/>
	<path fill="#C48D81" d="M62.948,116.377h-0.917v-3.954c0-0.842-0.121-1.454-0.364-1.834c-0.243-0.381-0.62-0.571-1.133-0.571
		c-0.27,0-0.539,0.051-0.809,0.15c-0.27,0.1-0.521,0.239-0.755,0.421c-0.234,0.181-0.438,0.396-0.613,0.646
		s-0.308,0.519-0.398,0.809v4.334h-0.917v-7.079h0.836v1.604c0.144-0.254,0.321-0.487,0.532-0.7c0.211-0.213,0.447-0.396,0.708-0.55
		s0.537-0.271,0.829-0.354c0.292-0.081,0.596-0.122,0.91-0.122c0.396,0,0.726,0.072,0.991,0.217c0.265,0.146,0.479,0.35,0.64,0.612
		c0.162,0.263,0.279,0.584,0.351,0.964c0.072,0.381,0.108,0.802,0.108,1.264V116.377z"/>
	<path fill="#C48D81" d="M67.02,116.513c-0.737,0-1.294-0.256-1.672-0.768c-0.377-0.512-0.566-1.274-0.566-2.289v-4.158h0.917v3.995
		c0,1.603,0.544,2.404,1.631,2.404c0.27,0,0.535-0.045,0.796-0.136c0.26-0.09,0.501-0.222,0.721-0.394s0.418-0.376,0.593-0.611
		c0.175-0.236,0.317-0.503,0.425-0.802v-4.457h0.917v5.884c0,0.253,0.112,0.38,0.337,0.38v0.815
		c-0.18,0.027-0.306,0.041-0.378,0.041c-0.207,0-0.384-0.063-0.532-0.19c-0.148-0.127-0.223-0.285-0.223-0.476v-0.979
		c-0.314,0.553-0.732,0.98-1.254,1.284S67.64,116.513,67.02,116.513z"/>
	<path fill="#C48D81" d="M83.307,116.377H82.39v-3.954c0-0.824-0.128-1.431-0.384-1.82s-0.645-0.585-1.167-0.585
		c-0.27,0-0.523,0.051-0.762,0.15s-0.458,0.239-0.661,0.421c-0.202,0.181-0.38,0.396-0.532,0.646
		c-0.153,0.249-0.27,0.522-0.351,0.822v4.32h-0.917v-3.954c0-0.842-0.126-1.454-0.377-1.834c-0.252-0.381-0.638-0.571-1.16-0.571
		c-0.53,0-1.002,0.187-1.416,0.558c-0.414,0.371-0.71,0.86-0.89,1.468v4.334h-0.917v-7.079h0.836v1.604
		c0.288-0.544,0.665-0.967,1.132-1.271s0.984-0.455,1.551-0.455c0.593,0,1.069,0.168,1.429,0.503
		c0.359,0.335,0.575,0.774,0.647,1.317c0.656-1.214,1.564-1.82,2.724-1.82c0.386,0,0.716,0.072,0.991,0.217
		c0.274,0.146,0.494,0.352,0.661,0.619c0.167,0.267,0.288,0.589,0.364,0.964c0.076,0.376,0.115,0.795,0.115,1.257V116.377z"/>
	<path fill="#C48D81" d="M88.646,116.513c-0.548,0-1.056-0.141-1.523-0.421c-0.468-0.281-0.832-0.644-1.092-1.087v1.372h-0.822
		v-9.919h0.917v4.321c0.315-0.48,0.692-0.867,1.133-1.162c0.44-0.294,0.957-0.441,1.55-0.441c0.485,0,0.926,0.104,1.321,0.313
		s0.73,0.487,1.004,0.836c0.274,0.349,0.486,0.742,0.634,1.182c0.148,0.439,0.223,0.89,0.223,1.352c0,0.499-0.085,0.97-0.256,1.413
		c-0.171,0.444-0.407,0.832-0.708,1.162c-0.301,0.331-0.656,0.594-1.065,0.788S89.113,116.513,88.646,116.513z M88.43,115.697
		c0.386,0,0.739-0.079,1.059-0.237c0.319-0.158,0.593-0.371,0.822-0.639c0.229-0.268,0.409-0.57,0.54-0.91
		c0.13-0.34,0.195-0.691,0.195-1.054c0-0.371-0.061-0.729-0.182-1.073c-0.121-0.344-0.292-0.649-0.512-0.917
		c-0.22-0.267-0.483-0.479-0.789-0.639c-0.306-0.158-0.643-0.237-1.011-0.237c-0.279,0-0.54,0.047-0.782,0.143
		c-0.243,0.095-0.467,0.224-0.674,0.387c-0.207,0.163-0.393,0.352-0.559,0.564c-0.167,0.213-0.304,0.437-0.412,0.672v2.201
		c0.036,0.245,0.133,0.474,0.29,0.687s0.348,0.396,0.573,0.551c0.225,0.153,0.462,0.276,0.714,0.366
		C87.953,115.652,88.196,115.697,88.43,115.697z"/>
	<path fill="#C48D81" d="M96.587,116.513c-0.512,0-0.984-0.098-1.416-0.292s-0.805-0.462-1.119-0.802s-0.56-0.731-0.735-1.175
		c-0.175-0.444-0.263-0.92-0.263-1.427c0-0.498,0.087-0.967,0.263-1.406s0.42-0.824,0.735-1.155s0.686-0.593,1.112-0.788
		c0.427-0.194,0.897-0.292,1.409-0.292s0.982,0.098,1.409,0.292c0.427,0.195,0.793,0.46,1.099,0.795
		c0.305,0.335,0.543,0.72,0.714,1.155c0.171,0.435,0.256,0.896,0.256,1.386c0,0.072-0.002,0.145-0.007,0.217
		c-0.004,0.073-0.011,0.123-0.02,0.149h-6c0.027,0.381,0.115,0.732,0.263,1.054c0.148,0.321,0.337,0.6,0.566,0.835
		c0.229,0.236,0.494,0.42,0.795,0.551s0.623,0.197,0.964,0.197c0.233,0,0.463-0.032,0.688-0.096s0.431-0.149,0.62-0.258
		s0.357-0.242,0.506-0.401c0.148-0.158,0.263-0.332,0.344-0.522l0.795,0.217c-0.108,0.264-0.261,0.501-0.458,0.714
		s-0.427,0.398-0.688,0.557c-0.261,0.159-0.548,0.281-0.863,0.367C97.243,116.47,96.919,116.513,96.587,116.513z M99.176,112.464
		c-0.027-0.381-0.115-0.727-0.263-1.039c-0.148-0.313-0.337-0.582-0.566-0.809c-0.229-0.227-0.497-0.403-0.802-0.53
		c-0.306-0.127-0.629-0.19-0.971-0.19c-0.342,0-0.666,0.063-0.971,0.19c-0.306,0.127-0.573,0.304-0.802,0.53
		c-0.229,0.227-0.414,0.498-0.553,0.814c-0.14,0.317-0.223,0.662-0.25,1.033H99.176z"/>
	<path fill="#C48D81" d="M104.933,110.113c-0.62,0.019-1.16,0.19-1.618,0.517c-0.458,0.326-0.782,0.774-0.971,1.345v4.402h-0.917
		v-7.079h0.863v1.698c0.243-0.498,0.562-0.912,0.957-1.243c0.396-0.33,0.823-0.496,1.281-0.496c0.081,0,0.157,0,0.229,0
		c0.072,0,0.13,0.005,0.175,0.014V110.113z"/>
</g>
<g>
	<path fill="#C48D81" d="M167.075,48.63h0.89l-3.007,7.079h-0.769l-1.496-3.614l-1.497,3.614h-0.768l-3.007-7.079h0.876l2.562,6.128
		l1.335-3.233l-1.2-2.881h0.782l0.917,2.31l0.903-2.31h0.782l-1.187,2.881l1.335,3.233L167.075,48.63z"/>
	<path fill="#C48D81" d="M172.239,55.845c-0.513,0-0.984-0.098-1.416-0.292s-0.805-0.462-1.119-0.802s-0.56-0.731-0.734-1.175
		c-0.176-0.444-0.264-0.92-0.264-1.427c0-0.498,0.088-0.967,0.264-1.406c0.175-0.439,0.42-0.824,0.734-1.155
		s0.686-0.593,1.112-0.788c0.427-0.194,0.896-0.292,1.409-0.292s0.981,0.098,1.409,0.292c0.427,0.195,0.793,0.46,1.099,0.795
		s0.544,0.72,0.715,1.155c0.17,0.435,0.256,0.896,0.256,1.386c0,0.072-0.002,0.145-0.007,0.217
		c-0.005,0.073-0.012,0.123-0.021,0.149h-5.999c0.026,0.381,0.114,0.732,0.263,1.054s0.337,0.6,0.566,0.835
		c0.229,0.236,0.494,0.42,0.795,0.551s0.622,0.197,0.964,0.197c0.234,0,0.463-0.032,0.688-0.096s0.432-0.149,0.621-0.258
		c0.188-0.108,0.356-0.242,0.505-0.401c0.148-0.158,0.263-0.332,0.344-0.522l0.796,0.217c-0.108,0.264-0.261,0.501-0.459,0.714
		c-0.197,0.213-0.427,0.398-0.688,0.557c-0.261,0.159-0.548,0.281-0.862,0.367C172.895,55.802,172.571,55.845,172.239,55.845z
		 M174.828,51.796c-0.027-0.381-0.115-0.727-0.264-1.039s-0.337-0.582-0.566-0.809c-0.229-0.227-0.496-0.403-0.802-0.53
		s-0.629-0.19-0.971-0.19s-0.665,0.063-0.971,0.19s-0.573,0.304-0.803,0.53c-0.229,0.227-0.413,0.498-0.553,0.814
		c-0.14,0.317-0.222,0.662-0.249,1.033H174.828z"/>
	<path fill="#C48D81" d="M180.517,55.845c-0.548,0-1.056-0.141-1.523-0.421c-0.467-0.281-0.831-0.644-1.092-1.087v1.372h-0.822
		V45.79h0.917v4.321c0.314-0.48,0.691-0.867,1.132-1.162c0.44-0.294,0.958-0.441,1.551-0.441c0.485,0,0.926,0.104,1.321,0.313
		s0.73,0.487,1.005,0.836c0.273,0.349,0.485,0.742,0.634,1.182s0.222,0.89,0.222,1.352c0,0.499-0.085,0.97-0.256,1.413
		c-0.171,0.444-0.406,0.832-0.708,1.162c-0.301,0.331-0.656,0.594-1.064,0.788C181.423,55.747,180.984,55.845,180.517,55.845z
		 M180.302,55.029c0.386,0,0.739-0.079,1.058-0.237c0.319-0.158,0.594-0.371,0.823-0.639c0.229-0.268,0.408-0.57,0.539-0.91
		c0.13-0.34,0.195-0.691,0.195-1.054c0-0.371-0.061-0.729-0.182-1.073c-0.122-0.344-0.293-0.649-0.513-0.917
		c-0.221-0.267-0.483-0.479-0.789-0.639c-0.306-0.158-0.643-0.237-1.011-0.237c-0.279,0-0.539,0.047-0.782,0.143
		c-0.242,0.095-0.468,0.224-0.674,0.387c-0.207,0.163-0.394,0.352-0.56,0.564c-0.167,0.213-0.304,0.437-0.411,0.672v2.201
		c0.035,0.245,0.132,0.474,0.29,0.687c0.156,0.213,0.348,0.396,0.572,0.551c0.225,0.153,0.463,0.276,0.715,0.366
		C179.825,54.984,180.067,55.029,180.302,55.029z"/>
	<path fill="#C48D81" d="M187.744,55.845c-0.549,0-1.083-0.091-1.604-0.271c-0.521-0.182-0.971-0.443-1.349-0.788l0.418-0.625
		c0.396,0.326,0.798,0.57,1.207,0.733s0.847,0.245,1.314,0.245c0.566,0,1.019-0.116,1.355-0.347c0.337-0.231,0.505-0.56,0.505-0.985
		c0-0.199-0.045-0.364-0.135-0.496c-0.09-0.131-0.222-0.246-0.397-0.347c-0.175-0.099-0.396-0.188-0.66-0.265
		c-0.266-0.077-0.573-0.156-0.924-0.237c-0.404-0.1-0.755-0.199-1.052-0.299s-0.542-0.213-0.734-0.34
		c-0.194-0.127-0.338-0.283-0.432-0.469c-0.095-0.186-0.142-0.419-0.142-0.7c0-0.354,0.069-0.666,0.209-0.938
		c0.139-0.271,0.328-0.496,0.566-0.673c0.237-0.176,0.517-0.31,0.836-0.4c0.318-0.091,0.658-0.136,1.018-0.136
		c0.539,0,1.029,0.088,1.47,0.265s0.795,0.41,1.065,0.7l-0.445,0.543c-0.261-0.271-0.578-0.476-0.95-0.611
		c-0.373-0.136-0.762-0.204-1.167-0.204c-0.242,0-0.467,0.025-0.674,0.075s-0.389,0.129-0.546,0.237
		c-0.157,0.109-0.281,0.247-0.371,0.415s-0.135,0.364-0.135,0.591c0,0.19,0.031,0.345,0.095,0.462
		c0.063,0.118,0.166,0.22,0.31,0.306s0.326,0.163,0.546,0.231c0.221,0.067,0.488,0.138,0.803,0.21
		c0.449,0.109,0.845,0.218,1.187,0.326c0.342,0.109,0.627,0.236,0.856,0.381c0.229,0.145,0.401,0.321,0.519,0.529
		c0.117,0.209,0.176,0.463,0.176,0.762c0,0.651-0.248,1.168-0.742,1.549C189.245,55.654,188.58,55.845,187.744,55.845z"/>
	<path fill="#C48D81" d="M191.95,47.148V45.79h0.917v1.358H191.95z M191.95,55.709V48.63h0.917v7.079H191.95z"/>
	<path fill="#C48D81" d="M198.233,55.369c-0.054,0.027-0.133,0.063-0.236,0.108c-0.103,0.046-0.222,0.091-0.356,0.137
		c-0.135,0.045-0.288,0.086-0.459,0.122s-0.351,0.054-0.539,0.054c-0.198,0-0.387-0.026-0.566-0.081s-0.337-0.138-0.472-0.251
		s-0.243-0.256-0.324-0.429c-0.08-0.172-0.121-0.371-0.121-0.598v-5.068h-0.971V48.63h0.971v-2.392h0.917v2.392h1.618v0.733h-1.618
		v4.811c0.018,0.263,0.107,0.455,0.27,0.577s0.355,0.184,0.58,0.184c0.261,0,0.489-0.043,0.688-0.129
		c0.197-0.086,0.323-0.147,0.378-0.184L198.233,55.369z"/>
	<path fill="#C48D81" d="M202.386,55.845c-0.513,0-0.984-0.098-1.416-0.292s-0.805-0.462-1.119-0.802s-0.56-0.731-0.734-1.175
		c-0.176-0.444-0.264-0.92-0.264-1.427c0-0.498,0.088-0.967,0.264-1.406c0.175-0.439,0.42-0.824,0.734-1.155
		s0.686-0.593,1.112-0.788c0.427-0.194,0.896-0.292,1.409-0.292s0.981,0.098,1.409,0.292c0.427,0.195,0.793,0.46,1.099,0.795
		s0.544,0.72,0.715,1.155c0.17,0.435,0.256,0.896,0.256,1.386c0,0.072-0.002,0.145-0.007,0.217
		c-0.005,0.073-0.012,0.123-0.021,0.149h-5.999c0.026,0.381,0.114,0.732,0.263,1.054s0.337,0.6,0.566,0.835
		c0.229,0.236,0.494,0.42,0.795,0.551s0.622,0.197,0.964,0.197c0.234,0,0.463-0.032,0.688-0.096s0.432-0.149,0.621-0.258
		c0.188-0.108,0.356-0.242,0.505-0.401c0.148-0.158,0.263-0.332,0.344-0.522l0.796,0.217c-0.108,0.264-0.261,0.501-0.459,0.714
		c-0.197,0.213-0.427,0.398-0.688,0.557c-0.261,0.159-0.548,0.281-0.862,0.367C203.041,55.802,202.718,55.845,202.386,55.845z
		 M204.975,51.796c-0.027-0.381-0.115-0.727-0.264-1.039s-0.337-0.582-0.566-0.809c-0.229-0.227-0.496-0.403-0.802-0.53
		s-0.629-0.19-0.971-0.19s-0.665,0.063-0.971,0.19s-0.573,0.304-0.803,0.53c-0.229,0.227-0.413,0.498-0.553,0.814
		c-0.14,0.317-0.222,0.662-0.249,1.033H204.975z"/>
</g>
<g>
	<path fill="#C48D81" d="M123.149,72.829c-0.512,0-0.984-0.098-1.416-0.292s-0.805-0.462-1.119-0.802s-0.56-0.731-0.735-1.175
		c-0.175-0.444-0.263-0.92-0.263-1.427c0-0.498,0.087-0.967,0.263-1.406s0.42-0.824,0.735-1.155s0.686-0.593,1.112-0.788
		c0.427-0.194,0.897-0.292,1.409-0.292s0.982,0.098,1.409,0.292c0.427,0.195,0.793,0.46,1.099,0.795
		c0.305,0.335,0.543,0.72,0.714,1.155c0.171,0.435,0.256,0.896,0.256,1.386c0,0.072-0.002,0.145-0.007,0.217
		c-0.004,0.073-0.011,0.123-0.02,0.149h-6c0.027,0.381,0.115,0.732,0.263,1.054c0.148,0.321,0.337,0.6,0.566,0.835
		c0.229,0.236,0.494,0.42,0.795,0.551s0.623,0.197,0.964,0.197c0.233,0,0.463-0.032,0.688-0.096s0.431-0.149,0.62-0.258
		s0.357-0.242,0.506-0.401c0.148-0.158,0.263-0.332,0.344-0.522l0.795,0.217c-0.108,0.264-0.261,0.501-0.458,0.714
		s-0.427,0.398-0.688,0.557c-0.261,0.159-0.548,0.281-0.863,0.367C123.806,72.786,123.482,72.829,123.149,72.829z M125.738,68.78
		c-0.027-0.381-0.115-0.727-0.263-1.039c-0.148-0.313-0.337-0.582-0.566-0.809c-0.229-0.227-0.497-0.403-0.802-0.53
		c-0.306-0.127-0.629-0.19-0.971-0.19c-0.342,0-0.666,0.063-0.971,0.19c-0.306,0.127-0.573,0.304-0.802,0.53
		c-0.229,0.227-0.414,0.498-0.553,0.814c-0.14,0.317-0.223,0.662-0.25,1.033H125.738z"/>
	<path fill="#C48D81" d="M138.438,72.693h-0.917v-3.954c0-0.824-0.128-1.431-0.384-1.82s-0.646-0.585-1.166-0.585
		c-0.27,0-0.524,0.051-0.762,0.15c-0.238,0.1-0.459,0.239-0.661,0.421c-0.202,0.181-0.38,0.396-0.532,0.646
		c-0.153,0.249-0.27,0.522-0.351,0.822v4.32h-0.917v-3.954c0-0.842-0.126-1.454-0.378-1.834c-0.251-0.381-0.638-0.571-1.159-0.571
		c-0.53,0-1.002,0.187-1.416,0.558c-0.413,0.371-0.71,0.86-0.89,1.468v4.334h-0.917v-7.079h0.835v1.604
		c0.288-0.544,0.665-0.967,1.133-1.271s0.984-0.455,1.551-0.455c0.593,0,1.069,0.168,1.429,0.503s0.575,0.774,0.647,1.317
		c0.656-1.214,1.564-1.82,2.724-1.82c0.386,0,0.717,0.072,0.991,0.217c0.273,0.146,0.494,0.352,0.66,0.619
		c0.166,0.267,0.288,0.589,0.364,0.964c0.076,0.376,0.114,0.795,0.114,1.257V72.693z"/>
	<path fill="#C48D81" d="M142.2,72.829c-0.359,0-0.688-0.057-0.984-0.17c-0.296-0.113-0.551-0.27-0.762-0.469
		s-0.375-0.43-0.492-0.692c-0.116-0.263-0.175-0.539-0.175-0.829c0-0.326,0.071-0.623,0.216-0.89
		c0.144-0.268,0.346-0.496,0.606-0.687s0.573-0.338,0.938-0.441c0.363-0.104,0.766-0.156,1.206-0.156
		c0.351,0,0.71,0.031,1.079,0.095c0.368,0.063,0.696,0.154,0.984,0.271v-0.639c0-0.625-0.178-1.12-0.533-1.487
		s-0.834-0.551-1.436-0.551c-0.378,0-0.753,0.073-1.126,0.218c-0.373,0.146-0.753,0.354-1.14,0.625l-0.323-0.611
		c0.458-0.308,0.903-0.539,1.335-0.693c0.432-0.153,0.881-0.23,1.348-0.23c0.854,0,1.533,0.249,2.036,0.747
		c0.504,0.498,0.755,1.187,0.755,2.065v3.193c0,0.253,0.108,0.38,0.324,0.38v0.815c-0.072,0.009-0.14,0.016-0.202,0.021
		c-0.063,0.004-0.117,0.007-0.162,0.007c-0.18,0-0.344-0.055-0.492-0.163s-0.231-0.271-0.249-0.489l-0.027-0.557
		c-0.306,0.416-0.708,0.74-1.207,0.971C143.219,72.714,142.713,72.829,142.2,72.829z M142.43,72.123
		c0.404,0,0.807-0.089,1.207-0.266c0.399-0.177,0.716-0.419,0.95-0.727c0.063-0.082,0.116-0.17,0.162-0.265
		c0.044-0.096,0.067-0.184,0.067-0.266v-1.154c-0.306-0.118-0.625-0.209-0.958-0.272c-0.332-0.063-0.656-0.095-0.971-0.095
		c-0.656,0-1.188,0.134-1.598,0.4c-0.409,0.268-0.613,0.637-0.613,1.107c0,0.19,0.036,0.376,0.107,0.558
		c0.072,0.182,0.183,0.344,0.331,0.489c0.148,0.145,0.33,0.263,0.546,0.353C141.877,72.077,142.133,72.123,142.43,72.123z"/>
	<path fill="#C48D81" d="M147.729,64.133v-1.358h0.917v1.358H147.729z M147.729,72.693v-7.079h0.917v7.079H147.729z"/>
	<path fill="#C48D81" d="M150.653,62.774h0.917v8.315c0,0.263,0.072,0.469,0.216,0.618s0.346,0.225,0.606,0.225
		c0.099,0,0.216-0.014,0.351-0.041s0.261-0.063,0.378-0.108l0.162,0.747c-0.171,0.072-0.38,0.132-0.627,0.177
		c-0.248,0.045-0.461,0.067-0.641,0.067c-0.423,0-0.755-0.119-0.998-0.359c-0.242-0.24-0.364-0.578-0.364-1.013V62.774z"/>
	<path fill="#C48D81" d="M159.107,72.829c-0.359,0-0.688-0.057-0.984-0.17c-0.296-0.113-0.551-0.27-0.762-0.469
		s-0.375-0.43-0.492-0.692c-0.116-0.263-0.175-0.539-0.175-0.829c0-0.326,0.071-0.623,0.216-0.89
		c0.144-0.268,0.346-0.496,0.606-0.687s0.573-0.338,0.938-0.441c0.363-0.104,0.766-0.156,1.206-0.156
		c0.351,0,0.71,0.031,1.079,0.095c0.368,0.063,0.696,0.154,0.984,0.271v-0.639c0-0.625-0.178-1.12-0.533-1.487
		s-0.834-0.551-1.436-0.551c-0.378,0-0.753,0.073-1.126,0.218c-0.373,0.146-0.753,0.354-1.14,0.625l-0.323-0.611
		c0.458-0.308,0.903-0.539,1.335-0.693c0.432-0.153,0.881-0.23,1.348-0.23c0.854,0,1.533,0.249,2.036,0.747
		c0.504,0.498,0.755,1.187,0.755,2.065v3.193c0,0.253,0.108,0.38,0.324,0.38v0.815c-0.072,0.009-0.14,0.016-0.202,0.021
		c-0.063,0.004-0.117,0.007-0.162,0.007c-0.18,0-0.344-0.055-0.492-0.163s-0.231-0.271-0.249-0.489l-0.027-0.557
		c-0.306,0.416-0.708,0.74-1.207,0.971C160.126,72.714,159.62,72.829,159.107,72.829z M159.337,72.123
		c0.404,0,0.807-0.089,1.207-0.266c0.399-0.177,0.716-0.419,0.95-0.727c0.063-0.082,0.116-0.17,0.162-0.265
		c0.044-0.096,0.067-0.184,0.067-0.266v-1.154c-0.306-0.118-0.625-0.209-0.958-0.272c-0.332-0.063-0.656-0.095-0.971-0.095
		c-0.656,0-1.188,0.134-1.598,0.4c-0.409,0.268-0.613,0.637-0.613,1.107c0,0.19,0.036,0.376,0.107,0.558
		c0.072,0.182,0.183,0.344,0.331,0.489c0.148,0.145,0.33,0.263,0.546,0.353C158.784,72.077,159.04,72.123,159.337,72.123z"/>
	<path fill="#C48D81" d="M167.547,72.829c-0.485,0-0.935-0.102-1.349-0.306c-0.413-0.204-0.771-0.474-1.071-0.809
		c-0.302-0.335-0.535-0.722-0.701-1.161c-0.167-0.439-0.25-0.899-0.25-1.38c0-0.498,0.081-0.971,0.243-1.42
		c0.162-0.448,0.384-0.84,0.667-1.175s0.62-0.6,1.012-0.795c0.391-0.194,0.82-0.292,1.287-0.292c0.594,0,1.119,0.156,1.578,0.469
		c0.458,0.313,0.822,0.69,1.092,1.135v-4.321h0.917v8.724c0,0.253,0.107,0.38,0.323,0.38v0.815
		c-0.152,0.027-0.274,0.041-0.364,0.041c-0.225,0-0.409-0.065-0.553-0.197c-0.144-0.131-0.216-0.287-0.216-0.469v-0.747
		c-0.287,0.462-0.667,0.828-1.139,1.101C168.552,72.693,168.06,72.829,167.547,72.829z M167.735,72.014
		c0.234,0,0.479-0.045,0.735-0.136c0.256-0.09,0.494-0.215,0.714-0.373c0.221-0.159,0.412-0.345,0.573-0.558
		c0.162-0.213,0.261-0.441,0.297-0.687v-2.188c-0.09-0.244-0.223-0.473-0.397-0.686c-0.176-0.213-0.373-0.401-0.594-0.564
		c-0.22-0.163-0.454-0.289-0.701-0.38s-0.492-0.136-0.734-0.136c-0.378,0-0.722,0.081-1.031,0.244
		c-0.311,0.163-0.573,0.378-0.789,0.646s-0.384,0.573-0.506,0.917c-0.121,0.345-0.182,0.698-0.182,1.06
		c0,0.381,0.067,0.743,0.202,1.087c0.135,0.345,0.319,0.646,0.553,0.904c0.233,0.258,0.51,0.464,0.829,0.618
		S167.367,72.014,167.735,72.014z"/>
	<path fill="#C48D81" d="M175.947,72.829c-0.485,0-0.935-0.102-1.349-0.306c-0.413-0.204-0.771-0.474-1.071-0.809
		c-0.302-0.335-0.535-0.722-0.701-1.161c-0.167-0.439-0.25-0.899-0.25-1.38c0-0.498,0.081-0.971,0.243-1.42
		c0.162-0.448,0.384-0.84,0.667-1.175s0.62-0.6,1.012-0.795c0.391-0.194,0.82-0.292,1.287-0.292c0.594,0,1.119,0.156,1.578,0.469
		c0.458,0.313,0.822,0.69,1.092,1.135v-4.321h0.917v8.724c0,0.253,0.107,0.38,0.323,0.38v0.815
		c-0.152,0.027-0.274,0.041-0.364,0.041c-0.225,0-0.409-0.065-0.553-0.197c-0.144-0.131-0.216-0.287-0.216-0.469v-0.747
		c-0.287,0.462-0.667,0.828-1.139,1.101C176.952,72.693,176.46,72.829,175.947,72.829z M176.136,72.014
		c0.234,0,0.479-0.045,0.735-0.136c0.256-0.09,0.494-0.215,0.714-0.373c0.221-0.159,0.412-0.345,0.573-0.558
		c0.162-0.213,0.261-0.441,0.297-0.687v-2.188c-0.09-0.244-0.223-0.473-0.397-0.686c-0.176-0.213-0.373-0.401-0.594-0.564
		c-0.22-0.163-0.454-0.289-0.701-0.38s-0.492-0.136-0.734-0.136c-0.378,0-0.722,0.081-1.031,0.244
		c-0.311,0.163-0.573,0.378-0.789,0.646s-0.384,0.573-0.506,0.917c-0.121,0.345-0.182,0.698-0.182,1.06
		c0,0.381,0.067,0.743,0.202,1.087c0.135,0.345,0.319,0.646,0.553,0.904c0.233,0.258,0.51,0.464,0.829,0.618
		S175.768,72.014,176.136,72.014z"/>
	<path fill="#C48D81" d="M184.94,66.43c-0.621,0.019-1.16,0.19-1.618,0.517c-0.459,0.326-0.782,0.774-0.971,1.345v4.402h-0.917
		v-7.079h0.862v1.698c0.243-0.498,0.563-0.912,0.958-1.243c0.396-0.33,0.822-0.496,1.28-0.496c0.081,0,0.157,0,0.229,0
		s0.13,0.005,0.176,0.014V66.43z"/>
	<path fill="#C48D81" d="M189.241,72.829c-0.513,0-0.984-0.098-1.416-0.292s-0.805-0.462-1.119-0.802s-0.56-0.731-0.734-1.175
		c-0.176-0.444-0.264-0.92-0.264-1.427c0-0.498,0.088-0.967,0.264-1.406c0.175-0.439,0.42-0.824,0.734-1.155
		s0.686-0.593,1.112-0.788c0.427-0.194,0.896-0.292,1.409-0.292s0.981,0.098,1.409,0.292c0.427,0.195,0.793,0.46,1.099,0.795
		s0.544,0.72,0.715,1.155c0.17,0.435,0.256,0.896,0.256,1.386c0,0.072-0.002,0.145-0.007,0.217
		c-0.005,0.073-0.012,0.123-0.021,0.149h-5.999c0.026,0.381,0.114,0.732,0.263,1.054s0.337,0.6,0.566,0.835
		c0.229,0.236,0.494,0.42,0.795,0.551s0.622,0.197,0.964,0.197c0.234,0,0.463-0.032,0.688-0.096s0.432-0.149,0.621-0.258
		c0.188-0.108,0.356-0.242,0.505-0.401c0.148-0.158,0.263-0.332,0.344-0.522l0.796,0.217c-0.108,0.264-0.261,0.501-0.459,0.714
		c-0.197,0.213-0.427,0.398-0.688,0.557c-0.261,0.159-0.548,0.281-0.862,0.367C189.896,72.786,189.573,72.829,189.241,72.829z
		 M191.83,68.78c-0.027-0.381-0.115-0.727-0.264-1.039s-0.337-0.582-0.566-0.809c-0.229-0.227-0.496-0.403-0.802-0.53
		s-0.629-0.19-0.971-0.19s-0.665,0.063-0.971,0.19s-0.573,0.304-0.803,0.53c-0.229,0.227-0.413,0.498-0.553,0.814
		c-0.14,0.317-0.222,0.662-0.249,1.033H191.83z"/>
	<path fill="#C48D81" d="M196.44,72.829c-0.549,0-1.083-0.091-1.604-0.271c-0.521-0.182-0.971-0.443-1.349-0.788l0.418-0.625
		c0.396,0.326,0.798,0.57,1.207,0.733s0.847,0.245,1.314,0.245c0.566,0,1.019-0.116,1.355-0.347c0.337-0.231,0.505-0.56,0.505-0.985
		c0-0.199-0.045-0.364-0.135-0.496c-0.09-0.131-0.222-0.246-0.397-0.347c-0.175-0.099-0.396-0.188-0.66-0.265
		c-0.266-0.077-0.573-0.156-0.924-0.237c-0.404-0.1-0.755-0.199-1.052-0.299s-0.542-0.213-0.734-0.34
		c-0.194-0.127-0.338-0.283-0.432-0.469c-0.095-0.186-0.142-0.419-0.142-0.7c0-0.354,0.069-0.666,0.209-0.938
		c0.139-0.271,0.328-0.496,0.566-0.673c0.237-0.176,0.517-0.31,0.836-0.4c0.318-0.091,0.658-0.136,1.018-0.136
		c0.539,0,1.029,0.088,1.47,0.265s0.795,0.41,1.065,0.7L198.53,67c-0.261-0.271-0.578-0.476-0.95-0.611
		c-0.373-0.136-0.762-0.204-1.167-0.204c-0.242,0-0.467,0.025-0.674,0.075s-0.389,0.129-0.546,0.237
		c-0.157,0.109-0.281,0.247-0.371,0.415s-0.135,0.364-0.135,0.591c0,0.19,0.031,0.345,0.095,0.462
		c0.063,0.118,0.166,0.22,0.31,0.306s0.326,0.163,0.546,0.231c0.221,0.067,0.488,0.138,0.803,0.21
		c0.449,0.109,0.845,0.218,1.187,0.326c0.342,0.109,0.627,0.236,0.856,0.381c0.229,0.145,0.401,0.321,0.519,0.529
		c0.117,0.209,0.176,0.463,0.176,0.762c0,0.651-0.248,1.168-0.742,1.549C197.941,72.639,197.276,72.829,196.44,72.829z"/>
	<path fill="#C48D81" d="M203.006,72.829c-0.549,0-1.083-0.091-1.604-0.271c-0.521-0.182-0.971-0.443-1.349-0.788l0.418-0.625
		c0.396,0.326,0.798,0.57,1.207,0.733s0.847,0.245,1.314,0.245c0.566,0,1.019-0.116,1.355-0.347c0.337-0.231,0.505-0.56,0.505-0.985
		c0-0.199-0.045-0.364-0.135-0.496c-0.09-0.131-0.222-0.246-0.397-0.347c-0.175-0.099-0.396-0.188-0.66-0.265
		c-0.266-0.077-0.573-0.156-0.924-0.237c-0.404-0.1-0.755-0.199-1.052-0.299s-0.542-0.213-0.734-0.34
		c-0.194-0.127-0.338-0.283-0.432-0.469c-0.095-0.186-0.142-0.419-0.142-0.7c0-0.354,0.069-0.666,0.209-0.938
		c0.139-0.271,0.328-0.496,0.566-0.673c0.237-0.176,0.517-0.31,0.836-0.4c0.318-0.091,0.658-0.136,1.018-0.136
		c0.539,0,1.029,0.088,1.47,0.265s0.795,0.41,1.065,0.7L205.096,67c-0.261-0.271-0.578-0.476-0.95-0.611
		c-0.373-0.136-0.762-0.204-1.167-0.204c-0.242,0-0.467,0.025-0.674,0.075s-0.389,0.129-0.546,0.237
		c-0.157,0.109-0.281,0.247-0.371,0.415s-0.135,0.364-0.135,0.591c0,0.19,0.031,0.345,0.095,0.462
		c0.063,0.118,0.166,0.22,0.31,0.306s0.326,0.163,0.546,0.231c0.221,0.067,0.488,0.138,0.803,0.21
		c0.449,0.109,0.845,0.218,1.187,0.326c0.342,0.109,0.627,0.236,0.856,0.381c0.229,0.145,0.401,0.321,0.519,0.529
		c0.117,0.209,0.176,0.463,0.176,0.762c0,0.651-0.248,1.168-0.742,1.549C204.507,72.639,203.842,72.829,203.006,72.829z"/>
</g>
</svg>
