<?xml version="1.0" encoding="utf-8"?>
<!-- Generator: Adobe Illustrator 16.0.0, SVG Export Plug-In . SVG Version: 6.00 Build 0)  -->
<!DOCTYPE svg PUBLIC "-//W3C//DTD SVG 1.1//EN" "http://www.w3.org/Graphics/SVG/1.1/DTD/svg11.dtd">
<svg version="1.1" id="Layer_1" xmlns="http://www.w3.org/2000/svg" xmlns:xlink="http://www.w3.org/1999/xlink" x="0px" y="0px"
	 width="276px" height="133px" viewBox="0 0 276 133" enable-background="new 0 0 276 133" xml:space="preserve">
<g>
	<path fill="#D95B43" d="M276.783,122.36c0,5.876-4.752,10.64-10.615,10.64H11.398c-5.862,0-10.615-4.764-10.615-10.64V10.641
		C0.783,4.765,5.536,0,11.398,0h254.77c5.863,0,10.615,4.765,10.615,10.641V122.36z"/>
	<g>
		<rect x="128.084" y="9.312" fill="#542437" width="136.673" height="12.413"/>
		<rect x="128.084" y="29.704" fill="#542437" width="136.673" height="12.413"/>
		<rect x="128.084" y="50.098" fill="#542437" width="136.673" height="12.413"/>
		<rect x="128.084" y="70.49" fill="#542437" width="136.673" height="12.412"/>
		<rect x="12.642" y="90.883" fill="#542437" width="252.116" height="12.413"/>
		<rect x="12.642" y="111.276" fill="#542437" width="252.116" height="12.413"/>
		<g>
			<ellipse fill="#542437" cx="25.428" cy="22.56" rx="10.687" ry="10.71"/>
			<path fill="#542437" d="M118.796,82.902V56.025c-6.354-4.212-14.657-6.768-23.749-6.768c-18.105,0-33.101,10.111-35.748,23.311
				c-4.6-4.445-11.657-7.294-19.576-7.294c-13.055,0-23.781,7.738-24.982,17.628H118.796z"/>
		</g>
	</g>
</g>
</svg>
