<?xml version="1.0" encoding="utf-8"?>
<!-- Generator: Adobe Illustrator 16.0.0, SVG Export Plug-In . SVG Version: 6.00 Build 0)  -->
<!DOCTYPE svg PUBLIC "-//W3C//DTD SVG 1.1//EN" "http://www.w3.org/Graphics/SVG/1.1/DTD/svg11.dtd">
<svg version="1.1" id="Layer_1" xmlns="http://www.w3.org/2000/svg" xmlns:xlink="http://www.w3.org/1999/xlink" x="0px" y="0px"
	 width="277px" height="130px" viewBox="0 0 277 130" enable-background="new 0 0 277 130" xml:space="preserve">
<g>
	<path fill="#D95B43" d="M277.121,119.601c0,5.743-4.769,10.399-10.653,10.399H10.775c-5.884,0-10.654-4.656-10.654-10.399V10.4
		C0.122,4.657,4.892,0,10.775,0h255.692c5.885,0,10.653,4.657,10.653,10.4V119.601z"/>
	<g>
		<rect x="127.884" y="9.102" fill="#542437" width="137.168" height="12.132"/>
		<rect x="127.884" y="29.034" fill="#542437" width="137.168" height="12.133"/>
		<rect x="127.884" y="48.967" fill="#542437" width="137.168" height="12.134"/>
		<rect x="127.884" y="68.9" fill="#542437" width="137.168" height="12.133"/>
		<rect x="12.024" y="88.833" fill="#542437" width="253.029" height="12.133"/>
		<rect x="12.024" y="108.766" fill="#542437" width="253.029" height="12.134"/>
		<g>
			<ellipse fill="#542437" cx="24.856" cy="22.051" rx="10.725" ry="10.468"/>
			<path fill="#542437" d="M118.562,81.033V54.762c-6.376-4.117-14.71-6.615-23.834-6.615c-18.171,0-33.22,9.883-35.877,22.784
				c-4.617-4.345-11.7-7.129-19.647-7.129c-13.103,0-23.867,7.564-25.072,17.231H118.562z"/>
		</g>
	</g>
</g>
</svg>
