<?xml version="1.0" encoding="utf-8"?>
<!-- Generator: Adobe Illustrator 15.0.2, SVG Export Plug-In . SVG Version: 6.00 Build 0)  -->
<!DOCTYPE svg PUBLIC "-//W3C//DTD SVG 1.1//EN" "http://www.w3.org/Graphics/SVG/1.1/DTD/svg11.dtd">
<svg version="1.1" id="Layer_1" xmlns="http://www.w3.org/2000/svg" xmlns:xlink="http://www.w3.org/1999/xlink" x="0px" y="0px"
	 width="255px" height="123px" viewBox="0 0 255 123" enable-background="new 0 0 255 123" xml:space="preserve">
<rect x="36.72" fill="#BA2025" width="38.618" height="123"/>
<g>
	<defs>
		<rect id="SVGID_1_" width="255" height="123"/>
	</defs>
	<clipPath id="SVGID_2_">
		<use xlink:href="#SVGID_1_"  overflow="visible"/>
	</clipPath>
	<path clip-path="url(#SVGID_2_)" fill="#B2A99C" d="M9.808,0C4.391,0,0,4.404,0,9.84v76.063v27.258c0,5.434,4.391,9.84,9.808,9.84
		h24.595h2.318V0H9.808z"/>
	<path clip-path="url(#SVGID_2_)" fill="#B2A99C" d="M245.193,0H75.339v123h51.189h118.665c5.416,0,9.807-4.406,9.807-9.84V96.619
		V9.84C255,4.404,250.609,0,245.193,0"/>
	<path clip-path="url(#SVGID_2_)" fill="#BA2025" d="M92.596,94.887c0.501,0.343,1.144,0.64,1.93,0.891
		c0.785,0.252,1.667,0.377,2.646,0.377c1.23,0,2.215-0.223,2.955-0.668c0.739-0.445,1.303-1.102,1.69-1.971
		c0.387-0.868,0.637-1.936,0.752-3.204c0.113-1.267,0.171-2.712,0.171-4.334V73.642h2.39v12.336c0,1.851-0.085,3.535-0.256,5.055
		c-0.171,1.52-0.529,2.814-1.076,3.889c-0.546,1.074-1.344,1.907-2.391,2.501s-2.458,0.892-4.235,0.892
		c-2.049,0-3.803-0.503-5.259-1.508L92.596,94.887z"/>
	<path clip-path="url(#SVGID_2_)" fill="#BA2025" d="M117.767,98.279c-1.298,0-2.488-0.245-3.568-0.737
		c-1.082-0.49-2.016-1.158-2.801-2.004c-0.785-0.846-1.395-1.828-1.827-2.947c-0.433-1.119-0.649-2.296-0.649-3.529
		c0-1.256,0.222-2.444,0.666-3.563s1.059-2.102,1.844-2.947c0.786-0.845,1.718-1.519,2.8-2.021c1.082-0.502,2.261-0.754,3.535-0.754
		c1.275,0,2.453,0.252,3.535,0.754c1.081,0.503,2.016,1.177,2.801,2.021c0.785,0.846,1.399,1.828,1.844,2.947
		c0.445,1.119,0.666,2.308,0.666,3.563c0,1.233-0.221,2.41-0.666,3.529c-0.444,1.119-1.059,2.102-1.844,2.947
		s-1.72,1.514-2.801,2.004C120.22,98.034,119.042,98.279,117.767,98.279 M111.312,89.096c0,1.005,0.165,1.937,0.496,2.793
		c0.33,0.856,0.785,1.61,1.365,2.261c0.581,0.651,1.264,1.16,2.051,1.525c0.784,0.366,1.621,0.548,2.508,0.548
		c0.89,0,1.727-0.188,2.512-0.565s1.474-0.891,2.066-1.542c0.592-0.65,1.059-1.409,1.399-2.278c0.342-0.867,0.513-1.805,0.513-2.81
		c0-0.981-0.171-1.913-0.513-2.793c-0.341-0.879-0.808-1.645-1.399-2.296c-0.593-0.65-1.275-1.165-2.05-1.542
		s-1.604-0.565-2.493-0.565c-0.888,0-1.725,0.188-2.51,0.565s-1.469,0.897-2.049,1.56c-0.581,0.663-1.042,1.434-1.384,2.313
		C111.482,87.148,111.312,88.091,111.312,89.096"/>
	<path clip-path="url(#SVGID_2_)" fill="#BA2025" d="M145.362,97.937h-2.323v-9.972c0-2.033-0.346-3.552-1.041-4.558
		c-0.694-1.005-1.714-1.508-3.057-1.508c-0.661,0-1.314,0.132-1.964,0.395c-0.649,0.264-1.258,0.622-1.827,1.079
		c-0.569,0.458-1.065,0.994-1.486,1.61c-0.421,0.617-0.733,1.291-0.938,2.022v10.931h-2.322V72.923h2.322v11.205
		c0.729-1.349,1.719-2.41,2.971-3.188c1.252-0.776,2.596-1.165,4.031-1.165c1.024,0,1.895,0.189,2.612,0.565
		c0.717,0.377,1.298,0.902,1.741,1.575c0.444,0.676,0.77,1.486,0.975,2.435c0.204,0.948,0.307,1.993,0.307,3.135V97.937z"/>
	<path clip-path="url(#SVGID_2_)" fill="#BA2025" d="M165.137,97.937h-2.322v-9.972c0-2.124-0.308-3.666-0.922-4.625
		c-0.615-0.96-1.571-1.44-2.868-1.44c-0.685,0-1.367,0.126-2.05,0.377c-0.684,0.252-1.321,0.606-1.913,1.063
		c-0.593,0.457-1.11,0.999-1.554,1.627c-0.444,0.629-0.78,1.308-1.008,2.039v10.931h-2.322V80.084h2.117v4.044
		c0.364-0.64,0.814-1.229,1.35-1.766c0.535-0.536,1.133-0.999,1.793-1.388c0.66-0.388,1.359-0.685,2.101-0.891
		c0.74-0.205,1.508-0.309,2.305-0.309c1.002,0,1.839,0.184,2.511,0.548c0.672,0.366,1.213,0.88,1.622,1.542
		c0.409,0.663,0.706,1.475,0.889,2.434c0.181,0.959,0.272,2.021,0.272,3.187V97.937z"/>
	<path clip-path="url(#SVGID_2_)" fill="#BA2025" d="M179.275,97.937V73.607h8.197c1.936,0,3.632,0.32,5.089,0.959
		c1.456,0.641,2.669,1.509,3.638,2.605c0.968,1.096,1.69,2.381,2.169,3.854c0.478,1.474,0.717,3.044,0.717,4.712
		c0,1.851-0.273,3.523-0.82,5.02c-0.546,1.496-1.32,2.775-2.322,3.837c-1.002,1.063-2.22,1.885-3.653,2.468
		c-1.436,0.582-3.04,0.874-4.816,0.874H179.275z M196.694,85.738c0-1.463-0.204-2.805-0.614-4.026s-1.008-2.279-1.793-3.17
		c-0.785-0.892-1.748-1.581-2.887-2.073c-1.14-0.491-2.447-0.737-3.928-0.737h-5.841v20.08h5.841c1.503,0,2.828-0.257,3.979-0.771
		c1.148-0.515,2.11-1.223,2.886-2.125c0.772-0.901,1.36-1.964,1.758-3.187C196.495,88.508,196.694,87.177,196.694,85.738"/>
	<path clip-path="url(#SVGID_2_)" fill="#BA2025" d="M210.901,98.279c-1.299,0-2.487-0.245-3.567-0.737
		c-1.083-0.49-2.018-1.158-2.802-2.004c-0.785-0.846-1.396-1.828-1.827-2.947c-0.434-1.119-0.649-2.296-0.649-3.529
		c0-1.256,0.222-2.444,0.666-3.563s1.06-2.102,1.844-2.947c0.785-0.845,1.72-1.519,2.801-2.021c1.083-0.502,2.26-0.754,3.535-0.754
		c1.274,0,2.453,0.252,3.534,0.754c1.081,0.503,2.017,1.177,2.801,2.021c0.786,0.846,1.399,1.828,1.846,2.947
		c0.442,1.119,0.666,2.308,0.666,3.563c0,1.233-0.224,2.41-0.666,3.529c-0.446,1.119-1.06,2.102-1.846,2.947
		c-0.784,0.846-1.72,1.514-2.801,2.004C213.354,98.034,212.176,98.279,210.901,98.279 M204.447,89.096
		c0,1.005,0.163,1.937,0.494,2.793c0.33,0.856,0.785,1.61,1.366,2.261c0.58,0.651,1.263,1.16,2.049,1.525
		c0.786,0.366,1.622,0.548,2.511,0.548c0.888,0,1.726-0.188,2.511-0.565s1.474-0.891,2.065-1.542c0.593-0.65,1.06-1.409,1.4-2.278
		c0.342-0.867,0.512-1.805,0.512-2.81c0-0.981-0.17-1.913-0.512-2.793c-0.341-0.879-0.808-1.645-1.4-2.296
		c-0.592-0.65-1.274-1.165-2.049-1.542c-0.773-0.377-1.604-0.565-2.493-0.565c-0.889,0-1.726,0.188-2.511,0.565
		c-0.786,0.377-1.467,0.897-2.049,1.56c-0.581,0.663-1.041,1.434-1.382,2.313C204.618,87.148,204.447,88.091,204.447,89.096"/>
	<path clip-path="url(#SVGID_2_)" fill="#BA2025" d="M231.323,98.279c-1.296,0-2.493-0.246-3.585-0.737
		c-1.093-0.49-2.038-1.165-2.836-2.021c-0.795-0.857-1.417-1.846-1.86-2.965c-0.443-1.118-0.666-2.318-0.666-3.598
		c0-1.257,0.223-2.438,0.666-3.547c0.443-1.107,1.065-2.078,1.86-2.913c0.798-0.833,1.738-1.496,2.82-1.986
		c1.08-0.491,2.27-0.737,3.567-0.737s2.487,0.246,3.57,0.737c1.081,0.49,2.008,1.159,2.783,2.004
		c0.773,0.846,1.378,1.816,1.809,2.913c0.434,1.096,0.65,2.262,0.65,3.495c0,0.183-0.005,0.365-0.018,0.549
		c-0.013,0.182-0.028,0.307-0.052,0.376h-15.198c0.067,0.96,0.29,1.845,0.666,2.656c0.376,0.811,0.855,1.513,1.435,2.106
		c0.582,0.594,1.252,1.057,2.015,1.388c0.763,0.332,1.577,0.497,2.442,0.497c0.593,0,1.173-0.08,1.742-0.239
		c0.568-0.159,1.093-0.377,1.57-0.651c0.479-0.274,0.905-0.611,1.28-1.011c0.377-0.399,0.667-0.84,0.873-1.319l2.014,0.548
		c-0.271,0.663-0.66,1.264-1.161,1.799c-0.501,0.537-1.082,1.007-1.741,1.405c-0.66,0.4-1.391,0.708-2.187,0.925
		C232.985,98.17,232.165,98.279,231.323,98.279 M237.881,88.067c-0.067-0.959-0.29-1.833-0.666-2.621
		c-0.374-0.788-0.853-1.467-1.435-2.039c-0.58-0.569-1.257-1.016-2.031-1.336c-0.773-0.32-1.595-0.479-2.459-0.479
		c-0.866,0-1.685,0.159-2.46,0.479c-0.772,0.32-1.45,0.767-2.032,1.336c-0.578,0.572-1.047,1.257-1.398,2.057
		c-0.354,0.8-0.564,1.668-0.632,2.604H237.881z"/>
	<path clip-path="url(#SVGID_2_)" fill="#BA2025" d="M78.33,8.602c0-0.58,0.102-1.156,0.305-1.731
		c0.203-0.576,0.499-1.09,0.887-1.542c0.388-0.454,0.867-0.823,1.436-1.107c0.568-0.285,1.214-0.429,1.936-0.429
		c0.858,0,1.589,0.195,2.194,0.584c0.605,0.39,1.057,0.897,1.354,1.522l-0.758,0.461c-0.154-0.316-0.338-0.584-0.555-0.801
		c-0.217-0.217-0.452-0.395-0.704-0.53c-0.253-0.136-0.515-0.233-0.786-0.292c-0.27-0.059-0.537-0.088-0.799-0.088
		c-0.578,0-1.088,0.117-1.53,0.353c-0.443,0.236-0.815,0.544-1.117,0.925c-0.303,0.381-0.531,0.807-0.685,1.283
		c-0.153,0.477-0.229,0.958-0.229,1.447c0,0.535,0.092,1.046,0.277,1.535c0.185,0.49,0.438,0.922,0.758,1.298
		c0.321,0.376,0.7,0.675,1.138,0.897c0.438,0.221,0.914,0.332,1.429,0.332c0.27,0,0.548-0.033,0.832-0.102
		c0.285-0.068,0.56-0.178,0.826-0.326c0.267-0.148,0.513-0.335,0.739-0.559c0.225-0.221,0.415-0.489,0.569-0.807l0.785,0.406
		c-0.154,0.363-0.37,0.684-0.65,0.959c-0.28,0.275-0.591,0.51-0.934,0.7c-0.343,0.19-0.707,0.335-1.091,0.435
		c-0.383,0.1-0.76,0.149-1.13,0.149c-0.66,0-1.264-0.146-1.815-0.435c-0.551-0.289-1.025-0.668-1.422-1.136
		c-0.397-0.466-0.706-0.995-0.928-1.589C78.44,9.823,78.33,9.219,78.33,8.602"/>
	<path clip-path="url(#SVGID_2_)" fill="#BA2025" d="M91.075,13.63c-0.515,0-0.987-0.099-1.416-0.293
		c-0.429-0.195-0.799-0.459-1.111-0.794c-0.311-0.335-0.553-0.725-0.724-1.169c-0.172-0.444-0.258-0.91-0.258-1.4
		c0-0.498,0.089-0.969,0.265-1.413c0.176-0.443,0.42-0.832,0.731-1.168c0.311-0.335,0.682-0.602,1.111-0.802
		c0.428-0.199,0.896-0.299,1.402-0.299c0.505,0,0.972,0.1,1.401,0.299c0.429,0.2,0.799,0.467,1.11,0.802
		c0.312,0.336,0.555,0.725,0.732,1.168c0.176,0.444,0.264,0.915,0.264,1.413c0,0.49-0.088,0.956-0.264,1.4
		c-0.177,0.444-0.42,0.834-0.732,1.169c-0.311,0.335-0.681,0.599-1.11,0.794C92.046,13.531,91.58,13.63,91.075,13.63 M88.515,9.988
		c0,0.398,0.065,0.768,0.196,1.106c0.131,0.34,0.311,0.64,0.542,0.897c0.23,0.258,0.501,0.459,0.812,0.604
		c0.312,0.144,0.643,0.218,0.995,0.218c0.353,0,0.684-0.076,0.996-0.225c0.312-0.15,0.584-0.354,0.819-0.611
		c0.235-0.259,0.42-0.56,0.556-0.904c0.135-0.344,0.203-0.715,0.203-1.113c0-0.391-0.068-0.76-0.203-1.107
		c-0.136-0.349-0.321-0.652-0.556-0.91c-0.235-0.259-0.506-0.463-0.812-0.611c-0.307-0.15-0.636-0.225-0.988-0.225
		s-0.685,0.074-0.997,0.225c-0.311,0.148-0.581,0.355-0.812,0.617c-0.23,0.264-0.413,0.568-0.548,0.918
		C88.582,9.216,88.515,9.59,88.515,9.988"/>
	<path clip-path="url(#SVGID_2_)" fill="#BA2025" d="M106.58,13.493h-0.921V9.539c0-0.824-0.128-1.431-0.386-1.82
		c-0.257-0.39-0.648-0.584-1.171-0.584c-0.271,0-0.526,0.049-0.765,0.149c-0.239,0.101-0.461,0.24-0.664,0.421
		c-0.203,0.182-0.381,0.396-0.534,0.645c-0.154,0.25-0.271,0.523-0.352,0.824v4.319h-0.922V9.539c0-0.842-0.126-1.453-0.379-1.834
		c-0.253-0.381-0.641-0.57-1.164-0.57c-0.533,0-1.007,0.186-1.423,0.557c-0.415,0.371-0.713,0.861-0.893,1.468v4.334h-0.921V6.414
		h0.84v1.604c0.288-0.543,0.667-0.967,1.137-1.271c0.469-0.303,0.989-0.455,1.557-0.455c0.596,0,1.075,0.168,1.436,0.503
		c0.361,0.336,0.578,0.774,0.65,1.318c0.659-1.214,1.571-1.821,2.735-1.821c0.389,0,0.721,0.073,0.996,0.218
		s0.497,0.351,0.664,0.617c0.167,0.268,0.289,0.59,0.366,0.965c0.076,0.377,0.114,0.795,0.114,1.258V13.493z"/>
	<path clip-path="url(#SVGID_2_)" fill="#BA2025" d="M112.104,13.629c-0.596,0-1.124-0.15-1.584-0.455
		c-0.461-0.303-0.831-0.686-1.111-1.148v4.363h-0.92V6.415h0.825v1.372c0.289-0.444,0.664-0.805,1.125-1.08
		c0.46-0.275,0.961-0.415,1.503-0.415c0.488,0,0.938,0.103,1.348,0.306c0.412,0.203,0.766,0.476,1.063,0.815
		c0.299,0.34,0.531,0.731,0.698,1.175c0.167,0.444,0.251,0.902,0.251,1.372c0,0.499-0.078,0.97-0.23,1.414
		c-0.154,0.442-0.373,0.834-0.658,1.169c-0.283,0.334-0.621,0.6-1.014,0.794C113.006,13.532,112.575,13.629,112.104,13.629
		 M111.848,12.814c0.379,0,0.722-0.082,1.03-0.246c0.306-0.162,0.57-0.377,0.791-0.645c0.222-0.267,0.391-0.57,0.509-0.91
		c0.117-0.34,0.175-0.69,0.175-1.054c0-0.38-0.066-0.742-0.203-1.086c-0.135-0.345-0.32-0.647-0.555-0.911
		c-0.234-0.262-0.514-0.47-0.832-0.625c-0.32-0.152-0.667-0.23-1.037-0.23c-0.235,0-0.479,0.047-0.731,0.143
		c-0.253,0.096-0.493,0.223-0.718,0.38c-0.226,0.159-0.418,0.345-0.575,0.558c-0.158,0.213-0.256,0.438-0.292,0.672v2.175
		c0.109,0.254,0.246,0.489,0.414,0.707c0.167,0.217,0.356,0.405,0.568,0.563s0.443,0.283,0.691,0.373
		C111.331,12.77,111.586,12.814,111.848,12.814"/>
	<path clip-path="url(#SVGID_2_)" fill="#BA2025" d="M118.688,13.63c-0.362,0-0.69-0.058-0.99-0.17
		c-0.297-0.114-0.552-0.271-0.764-0.47c-0.213-0.199-0.377-0.43-0.495-0.692c-0.117-0.263-0.176-0.539-0.176-0.829
		c0-0.326,0.072-0.623,0.217-0.89s0.348-0.496,0.609-0.687s0.576-0.338,0.941-0.441c0.365-0.104,0.77-0.156,1.211-0.156
		c0.354,0,0.715,0.032,1.084,0.096c0.37,0.063,0.699,0.153,0.988,0.271V9.023c0-0.625-0.178-1.121-0.534-1.488
		c-0.356-0.366-0.838-0.551-1.442-0.551c-0.379,0-0.756,0.074-1.131,0.218c-0.375,0.146-0.756,0.354-1.145,0.626l-0.325-0.612
		c0.46-0.308,0.908-0.539,1.341-0.692c0.434-0.154,0.885-0.231,1.354-0.231c0.858,0,1.539,0.25,2.045,0.747
		c0.506,0.499,0.758,1.188,0.758,2.066v3.192c0,0.253,0.108,0.38,0.325,0.38v0.814c-0.072,0.01-0.141,0.017-0.203,0.021
		c-0.063,0.004-0.117,0.008-0.162,0.008c-0.181,0-0.345-0.056-0.494-0.164c-0.15-0.108-0.232-0.271-0.25-0.488l-0.027-0.557
		c-0.307,0.416-0.711,0.739-1.213,0.971C119.708,13.514,119.202,13.63,118.688,13.63 M118.917,12.923
		c0.406,0,0.811-0.088,1.211-0.265c0.402-0.178,0.721-0.42,0.955-0.728c0.063-0.081,0.117-0.17,0.164-0.265
		c0.045-0.096,0.066-0.184,0.066-0.266v-1.154c-0.307-0.117-0.627-0.208-0.961-0.271s-0.659-0.095-0.975-0.095
		c-0.66,0-1.194,0.133-1.605,0.399c-0.411,0.268-0.616,0.638-0.616,1.108c0,0.19,0.036,0.375,0.108,0.556
		c0.072,0.183,0.183,0.346,0.332,0.49c0.148,0.145,0.332,0.262,0.548,0.354C118.361,12.878,118.62,12.923,118.917,12.923"/>
	<path clip-path="url(#SVGID_2_)" fill="#BA2025" d="M130.17,13.493h-0.921V9.539c0-0.842-0.121-1.453-0.364-1.834
		c-0.244-0.381-0.623-0.57-1.138-0.57c-0.271,0-0.543,0.049-0.813,0.149c-0.271,0.101-0.524,0.24-0.76,0.421
		c-0.234,0.182-0.439,0.396-0.615,0.645c-0.176,0.25-0.309,0.52-0.4,0.81v4.334h-0.921V6.414h0.841v1.604
		c0.145-0.254,0.321-0.486,0.534-0.699c0.212-0.213,0.449-0.396,0.711-0.551c0.263-0.154,0.54-0.272,0.833-0.354
		c0.293-0.082,0.598-0.122,0.914-0.122c0.397,0,0.729,0.073,0.995,0.218c0.267,0.145,0.481,0.349,0.644,0.611
		c0.163,0.264,0.279,0.584,0.353,0.965c0.072,0.381,0.107,0.801,0.107,1.264V13.493z"/>
	<path clip-path="url(#SVGID_2_)" fill="#BA2025" d="M132.351,15.682c0.045,0.009,0.09,0.015,0.135,0.021
		c0.046,0.004,0.091,0.006,0.137,0.006c0.09,0,0.187-0.009,0.29-0.026c0.104-0.02,0.179-0.037,0.225-0.056
		c0.045-0.018,0.092-0.056,0.142-0.114c0.05-0.06,0.112-0.164,0.189-0.313s0.174-0.356,0.291-0.624
		c0.118-0.268,0.266-0.628,0.447-1.081l-3.074-7.079h0.962l2.614,6.225l2.409-6.225h0.881l-3.671,9.131
		c-0.135,0.336-0.317,0.584-0.548,0.747s-0.554,0.245-0.969,0.245c-0.171,0-0.325-0.014-0.46-0.041V15.682z"/>
	<path clip-path="url(#SVGID_2_)" fill="#BA2025" d="M78.953,28.588v-9.646h3.982c0.415,0,0.797,0.088,1.144,0.265
		c0.348,0.177,0.648,0.408,0.901,0.692c0.253,0.285,0.449,0.609,0.589,0.972c0.14,0.362,0.21,0.729,0.21,1.101
		c0,0.399-0.066,0.781-0.196,1.148c-0.132,0.367-0.319,0.691-0.563,0.971c-0.243,0.281-0.535,0.508-0.873,0.68
		c-0.339,0.172-0.716,0.259-1.131,0.259h-3.128v3.56H78.953z M79.888,24.186h3.074c0.28,0,0.535-0.062,0.765-0.184
		c0.23-0.123,0.427-0.285,0.589-0.488c0.163-0.205,0.289-0.44,0.379-0.707c0.091-0.268,0.136-0.545,0.136-0.836
		c0-0.299-0.052-0.582-0.156-0.85c-0.103-0.268-0.244-0.5-0.42-0.699c-0.176-0.199-0.384-0.355-0.622-0.469
		c-0.24-0.113-0.491-0.17-0.752-0.17h-2.993V24.186z"/>
	<path clip-path="url(#SVGID_2_)" fill="#BA2025" d="M90.004,28.725c-0.515,0-0.987-0.099-1.416-0.293
		c-0.429-0.195-0.799-0.459-1.11-0.795c-0.312-0.335-0.554-0.725-0.725-1.169s-0.257-0.909-0.257-1.399
		c0-0.498,0.088-0.969,0.264-1.412c0.176-0.445,0.42-0.834,0.731-1.17c0.312-0.334,0.682-0.602,1.111-0.801
		c0.428-0.199,0.896-0.299,1.402-0.299c0.505,0,0.972,0.1,1.401,0.299s0.799,0.467,1.11,0.801c0.312,0.336,0.556,0.725,0.732,1.17
		c0.176,0.443,0.264,0.914,0.264,1.412c0,0.49-0.088,0.955-0.264,1.399c-0.176,0.444-0.42,0.834-0.732,1.169
		c-0.311,0.336-0.681,0.6-1.11,0.795C90.976,28.626,90.509,28.725,90.004,28.725 M87.444,25.082c0,0.398,0.065,0.768,0.196,1.107
		c0.131,0.34,0.311,0.639,0.542,0.896c0.23,0.258,0.501,0.46,0.813,0.605c0.311,0.145,0.643,0.217,0.995,0.217
		s0.683-0.075,0.995-0.223c0.312-0.15,0.584-0.354,0.819-0.612c0.235-0.259,0.42-0.56,0.556-0.904
		c0.135-0.344,0.203-0.715,0.203-1.114c0-0.39-0.068-0.759-0.203-1.107c-0.136-0.348-0.321-0.651-0.556-0.909
		c-0.235-0.259-0.506-0.463-0.812-0.612c-0.307-0.15-0.636-0.224-0.988-0.224s-0.685,0.073-0.996,0.224
		c-0.312,0.149-0.582,0.356-0.813,0.618c-0.23,0.263-0.413,0.567-0.548,0.917C87.512,24.311,87.444,24.684,87.444,25.082"/>
	<path clip-path="url(#SVGID_2_)" fill="#BA2025" d="M97.371,28.724c-0.551,0-1.088-0.09-1.612-0.272
		c-0.523-0.181-0.975-0.442-1.354-0.787l0.42-0.625c0.397,0.326,0.801,0.57,1.212,0.733c0.41,0.163,0.851,0.244,1.32,0.244
		c0.569,0,1.023-0.115,1.361-0.347c0.339-0.23,0.508-0.559,0.508-0.984c0-0.199-0.045-0.365-0.135-0.496
		c-0.091-0.131-0.224-0.247-0.4-0.346c-0.175-0.1-0.397-0.188-0.663-0.266c-0.267-0.078-0.576-0.156-0.928-0.237
		c-0.406-0.101-0.758-0.2-1.057-0.3c-0.297-0.099-0.544-0.213-0.737-0.34c-0.195-0.125-0.339-0.283-0.434-0.469
		c-0.094-0.185-0.142-0.418-0.142-0.699c0-0.353,0.07-0.666,0.21-0.938c0.139-0.271,0.329-0.496,0.569-0.673
		c0.239-0.177,0.519-0.31,0.839-0.401c0.321-0.09,0.661-0.135,1.023-0.135c0.542,0,1.034,0.088,1.476,0.265s0.799,0.409,1.07,0.7
		l-0.447,0.543c-0.262-0.271-0.58-0.477-0.954-0.611c-0.376-0.136-0.766-0.203-1.172-0.203c-0.244,0-0.47,0.024-0.678,0.074
		c-0.207,0.049-0.39,0.129-0.547,0.237c-0.159,0.108-0.283,0.247-0.373,0.415c-0.09,0.167-0.136,0.365-0.136,0.591
		c0,0.19,0.032,0.345,0.095,0.462c0.063,0.118,0.167,0.219,0.312,0.307c0.144,0.084,0.327,0.162,0.548,0.229
		c0.221,0.067,0.49,0.14,0.806,0.211c0.451,0.109,0.849,0.218,1.192,0.326c0.343,0.108,0.629,0.235,0.859,0.38
		c0.231,0.145,0.405,0.322,0.522,0.531c0.117,0.208,0.176,0.462,0.176,0.76c0,0.653-0.249,1.169-0.745,1.551
		C98.879,28.533,98.211,28.724,97.371,28.724"/>
	<path clip-path="url(#SVGID_2_)" fill="#BA2025" d="M101.596,18.669h0.92v1.358h-0.92V18.669z M101.596,21.509h0.92v7.079h-0.92
		V21.509z"/>
	<path clip-path="url(#SVGID_2_)" fill="#BA2025" d="M107.907,28.248c-0.054,0.027-0.133,0.063-0.237,0.107
		c-0.103,0.047-0.223,0.092-0.359,0.138c-0.135,0.045-0.289,0.086-0.46,0.122c-0.172,0.035-0.353,0.054-0.542,0.054
		c-0.198,0-0.388-0.026-0.569-0.081c-0.181-0.054-0.338-0.138-0.474-0.252c-0.135-0.111-0.243-0.255-0.325-0.428
		c-0.081-0.172-0.121-0.371-0.121-0.598v-5.067h-0.976v-0.734h0.976v-2.391h0.92v2.391h1.625v0.734h-1.625v4.809
		c0.019,0.263,0.109,0.455,0.271,0.577c0.162,0.123,0.357,0.184,0.582,0.184c0.262,0,0.492-0.043,0.691-0.127
		c0.199-0.088,0.326-0.148,0.379-0.185L107.907,28.248z"/>
	<path clip-path="url(#SVGID_2_)" fill="#BA2025" d="M108.99,18.669h0.92v1.358h-0.92V18.669z M108.99,21.509h0.92v7.079h-0.92
		V21.509z"/>
	<path clip-path="url(#SVGID_2_)" fill="#BA2025" d="M114.937,28.725c-0.516,0-0.988-0.099-1.416-0.293
		c-0.43-0.195-0.799-0.459-1.111-0.795c-0.311-0.335-0.553-0.725-0.724-1.169c-0.172-0.444-0.258-0.909-0.258-1.399
		c0-0.498,0.089-0.969,0.265-1.412c0.176-0.445,0.42-0.834,0.73-1.17c0.312-0.334,0.683-0.602,1.111-0.801
		c0.428-0.199,0.896-0.299,1.402-0.299c0.505,0,0.973,0.1,1.4,0.299c0.43,0.199,0.8,0.467,1.11,0.801
		c0.312,0.336,0.556,0.725,0.732,1.17c0.176,0.443,0.264,0.914,0.264,1.412c0,0.49-0.088,0.955-0.264,1.399
		c-0.177,0.444-0.421,0.834-0.732,1.169c-0.311,0.336-0.681,0.6-1.11,0.795C115.909,28.626,115.441,28.725,114.937,28.725
		 M112.376,25.082c0,0.398,0.065,0.768,0.196,1.107c0.132,0.34,0.312,0.639,0.542,0.896s0.502,0.46,0.813,0.605
		c0.312,0.145,0.643,0.217,0.996,0.217c0.352,0,0.683-0.075,0.994-0.223c0.313-0.15,0.584-0.354,0.819-0.612
		c0.235-0.259,0.421-0.56,0.556-0.904c0.136-0.344,0.203-0.715,0.203-1.114c0-0.39-0.067-0.759-0.203-1.107
		c-0.135-0.348-0.32-0.651-0.556-0.909c-0.235-0.259-0.506-0.463-0.812-0.612c-0.307-0.15-0.637-0.224-0.988-0.224
		s-0.686,0.073-0.997,0.224c-0.312,0.149-0.581,0.356-0.812,0.618c-0.23,0.263-0.414,0.567-0.549,0.917
		C112.443,24.311,112.376,24.684,112.376,25.082"/>
	<path clip-path="url(#SVGID_2_)" fill="#BA2025" d="M125.878,28.588h-0.92v-3.954c0-0.842-0.123-1.454-0.367-1.834
		c-0.244-0.381-0.623-0.571-1.137-0.571c-0.271,0-0.541,0.051-0.813,0.15s-0.524,0.238-0.76,0.421
		c-0.233,0.181-0.439,0.396-0.615,0.646c-0.176,0.248-0.309,0.518-0.4,0.809v4.334h-0.92v-7.079h0.84v1.603
		c0.145-0.252,0.322-0.486,0.534-0.699s0.449-0.396,0.711-0.551c0.263-0.153,0.54-0.271,0.833-0.353
		c0.293-0.082,0.598-0.122,0.914-0.122c0.398,0,0.729,0.072,0.995,0.217c0.267,0.146,0.481,0.35,0.644,0.611
		c0.164,0.264,0.279,0.585,0.353,0.965c0.071,0.381,0.108,0.803,0.108,1.264V28.588z"/>
	<path clip-path="url(#SVGID_2_)" fill="#BA2025" d="M77.937,43.683l4.022-9.647h0.773l4.022,9.647h-1.016l-1.246-3.017h-4.32
		l-1.233,3.017H77.937z M82.352,35.149l-1.977,4.769h3.9L82.352,35.149z"/>
	<path clip-path="url(#SVGID_2_)" fill="#BA2025" d="M90.613,43.818c-0.488,0-0.939-0.103-1.354-0.307
		c-0.416-0.203-0.774-0.473-1.077-0.808c-0.303-0.335-0.537-0.722-0.704-1.162c-0.167-0.438-0.251-0.899-0.251-1.379
		c0-0.498,0.081-0.972,0.244-1.421c0.163-0.447,0.386-0.84,0.67-1.174c0.285-0.336,0.623-0.601,1.016-0.795
		c0.393-0.195,0.824-0.293,1.293-0.293c0.596,0,1.124,0.156,1.585,0.469c0.46,0.313,0.826,0.691,1.097,1.136v-4.321h0.921v8.723
		c0,0.254,0.108,0.381,0.325,0.381v0.814c-0.154,0.028-0.276,0.041-0.366,0.041c-0.226,0-0.411-0.066-0.555-0.197
		c-0.145-0.131-0.217-0.287-0.217-0.467v-0.748c-0.289,0.461-0.67,0.828-1.144,1.1C91.621,43.682,91.127,43.818,90.613,43.818
		 M90.803,43.003c0.234,0,0.48-0.045,0.738-0.136c0.257-0.092,0.496-0.217,0.717-0.373c0.222-0.159,0.413-0.346,0.576-0.559
		c0.162-0.213,0.262-0.44,0.298-0.686v-2.188c-0.09-0.244-0.224-0.474-0.399-0.686c-0.177-0.213-0.375-0.4-0.597-0.564
		c-0.221-0.164-0.456-0.289-0.704-0.381c-0.249-0.091-0.494-0.136-0.738-0.136c-0.379,0-0.724,0.082-1.036,0.245
		c-0.311,0.163-0.576,0.378-0.792,0.645c-0.217,0.268-0.386,0.573-0.508,0.918c-0.122,0.344-0.183,0.697-0.183,1.06
		c0,0.381,0.068,0.743,0.203,1.087c0.136,0.345,0.321,0.646,0.555,0.902c0.235,0.26,0.513,0.465,0.833,0.619
		C90.087,42.926,90.432,43.003,90.803,43.003"/>
	<path clip-path="url(#SVGID_2_)" fill="#BA2025" d="M99.05,43.818c-0.487,0-0.939-0.103-1.354-0.307
		c-0.415-0.203-0.774-0.473-1.077-0.808c-0.302-0.335-0.537-0.722-0.704-1.162c-0.167-0.438-0.251-0.899-0.251-1.379
		c0-0.498,0.082-0.972,0.244-1.421c0.163-0.447,0.386-0.84,0.67-1.174c0.285-0.336,0.623-0.601,1.016-0.795
		c0.393-0.195,0.824-0.293,1.294-0.293c0.596,0,1.123,0.156,1.584,0.469s0.826,0.691,1.097,1.136v-4.321h0.921v8.723
		c0,0.254,0.108,0.381,0.325,0.381v0.814c-0.154,0.028-0.275,0.041-0.366,0.041c-0.226,0-0.411-0.066-0.555-0.197
		c-0.145-0.131-0.217-0.287-0.217-0.467v-0.748c-0.289,0.461-0.67,0.828-1.144,1.1S99.565,43.818,99.05,43.818 M99.24,43.003
		c0.234,0,0.48-0.045,0.738-0.136c0.257-0.092,0.496-0.217,0.718-0.373c0.221-0.159,0.413-0.346,0.575-0.559
		c0.163-0.213,0.262-0.44,0.298-0.686v-2.188c-0.09-0.244-0.224-0.474-0.399-0.686c-0.177-0.213-0.375-0.4-0.597-0.564
		c-0.22-0.164-0.455-0.289-0.704-0.381c-0.248-0.091-0.494-0.136-0.737-0.136c-0.38,0-0.725,0.082-1.037,0.245
		c-0.311,0.163-0.575,0.378-0.792,0.645c-0.217,0.268-0.386,0.573-0.507,0.918c-0.123,0.344-0.183,0.697-0.183,1.06
		c0,0.381,0.067,0.743,0.202,1.087c0.136,0.345,0.321,0.646,0.556,0.902c0.235,0.26,0.512,0.465,0.832,0.619
		C98.524,42.926,98.869,43.003,99.24,43.003"/>
	<path clip-path="url(#SVGID_2_)" fill="#BA2025" d="M108.083,37.418c-0.624,0.02-1.165,0.191-1.625,0.518
		c-0.461,0.326-0.786,0.773-0.976,1.344v4.402h-0.92v-7.078h0.867v1.698c0.243-0.497,0.564-0.913,0.961-1.243
		c0.398-0.33,0.826-0.496,1.287-0.496h0.23c0.072,0,0.131,0.004,0.176,0.014V37.418z"/>
	<path clip-path="url(#SVGID_2_)" fill="#BA2025" d="M112.402,43.818c-0.515,0-0.988-0.098-1.421-0.293
		c-0.434-0.194-0.809-0.461-1.124-0.801c-0.317-0.34-0.562-0.731-0.738-1.176c-0.177-0.443-0.265-0.919-0.265-1.427
		c0-0.498,0.088-0.968,0.265-1.406c0.176-0.438,0.421-0.823,0.738-1.155c0.315-0.33,0.688-0.593,1.117-0.787
		c0.428-0.195,0.901-0.293,1.415-0.293c0.515,0,0.986,0.098,1.414,0.293c0.43,0.194,0.798,0.459,1.104,0.795
		c0.308,0.334,0.546,0.72,0.718,1.154s0.258,0.897,0.258,1.387c0,0.072-0.004,0.145-0.008,0.217s-0.012,0.122-0.02,0.15h-6.027
		c0.028,0.379,0.115,0.73,0.264,1.053c0.15,0.32,0.339,0.599,0.569,0.834c0.231,0.236,0.497,0.42,0.799,0.551
		c0.303,0.132,0.625,0.197,0.969,0.197c0.234,0,0.465-0.031,0.689-0.094c0.227-0.064,0.434-0.15,0.623-0.26
		c0.19-0.109,0.359-0.242,0.508-0.4c0.149-0.158,0.265-0.334,0.346-0.523l0.8,0.218c-0.108,0.263-0.263,0.5-0.461,0.714
		c-0.199,0.213-0.429,0.398-0.69,0.557c-0.263,0.158-0.552,0.281-0.867,0.367S112.736,43.818,112.402,43.818 M115.003,39.77
		c-0.026-0.381-0.115-0.728-0.264-1.041c-0.15-0.312-0.339-0.58-0.568-0.808c-0.23-0.228-0.5-0.403-0.807-0.53
		c-0.307-0.125-0.632-0.189-0.975-0.189c-0.344,0-0.668,0.064-0.975,0.189c-0.307,0.127-0.576,0.303-0.806,0.53
		s-0.416,0.498-0.555,0.815c-0.14,0.318-0.224,0.66-0.251,1.033H115.003z"/>
	<path clip-path="url(#SVGID_2_)" fill="#BA2025" d="M119.635,43.818c-0.551,0-1.088-0.091-1.612-0.271
		c-0.522-0.182-0.974-0.444-1.354-0.789l0.42-0.625c0.396,0.326,0.801,0.572,1.212,0.733c0.411,0.163,0.851,0.245,1.319,0.245
		c0.57,0,1.023-0.115,1.361-0.346c0.34-0.232,0.508-0.559,0.508-0.986c0-0.199-0.045-0.363-0.135-0.496
		c-0.091-0.131-0.224-0.246-0.4-0.346c-0.174-0.1-0.396-0.188-0.662-0.266c-0.268-0.076-0.576-0.155-0.928-0.237
		c-0.406-0.099-0.758-0.199-1.058-0.298c-0.297-0.1-0.544-0.213-0.737-0.34c-0.194-0.127-0.338-0.283-0.434-0.469
		c-0.094-0.186-0.143-0.42-0.143-0.699c0-0.354,0.07-0.666,0.211-0.938c0.139-0.272,0.328-0.496,0.568-0.673
		c0.239-0.178,0.52-0.311,0.84-0.401c0.32-0.09,0.662-0.135,1.022-0.135c0.542,0,1.034,0.087,1.476,0.265
		c0.442,0.176,0.799,0.409,1.07,0.699l-0.447,0.544c-0.262-0.272-0.58-0.476-0.953-0.61c-0.377-0.138-0.767-0.205-1.172-0.205
		c-0.244,0-0.471,0.024-0.678,0.074c-0.208,0.051-0.391,0.131-0.548,0.238c-0.159,0.109-0.283,0.247-0.373,0.415
		c-0.09,0.167-0.136,0.364-0.136,0.59c0,0.191,0.031,0.345,0.095,0.464c0.063,0.116,0.167,0.219,0.312,0.305s0.328,0.162,0.549,0.23
		c0.222,0.068,0.49,0.139,0.806,0.211c0.451,0.109,0.849,0.217,1.192,0.326c0.343,0.109,0.629,0.234,0.859,0.38
		s0.404,0.322,0.521,0.53c0.117,0.209,0.176,0.462,0.176,0.761c0,0.653-0.249,1.168-0.745,1.55
		C121.143,43.629,120.475,43.818,119.635,43.818"/>
	<path clip-path="url(#SVGID_2_)" fill="#BA2025" d="M126.229,43.818c-0.551,0-1.088-0.091-1.611-0.271
		c-0.523-0.182-0.975-0.444-1.354-0.789l0.42-0.625c0.396,0.326,0.801,0.572,1.211,0.733c0.41,0.163,0.852,0.245,1.32,0.245
		c0.569,0,1.023-0.115,1.361-0.346c0.339-0.232,0.508-0.559,0.508-0.986c0-0.199-0.045-0.363-0.135-0.496
		c-0.092-0.131-0.225-0.246-0.4-0.346c-0.175-0.1-0.396-0.188-0.662-0.266c-0.268-0.076-0.576-0.155-0.929-0.237
		c-0.405-0.099-0.758-0.199-1.058-0.298c-0.297-0.1-0.543-0.213-0.736-0.34c-0.195-0.127-0.339-0.283-0.434-0.469
		c-0.094-0.186-0.143-0.42-0.143-0.699c0-0.354,0.07-0.666,0.209-0.938c0.141-0.272,0.33-0.496,0.57-0.673
		c0.238-0.178,0.52-0.311,0.839-0.401c0.321-0.09,0.661-0.135,1.022-0.135c0.543,0,1.035,0.087,1.477,0.265
		c0.442,0.176,0.799,0.409,1.07,0.699l-0.447,0.544c-0.262-0.272-0.58-0.476-0.954-0.61c-0.376-0.138-0.767-0.205-1.172-0.205
		c-0.244,0-0.47,0.024-0.679,0.074c-0.207,0.051-0.39,0.131-0.547,0.238c-0.158,0.109-0.283,0.247-0.373,0.415
		c-0.09,0.167-0.135,0.364-0.135,0.59c0,0.191,0.031,0.345,0.094,0.464c0.063,0.116,0.168,0.219,0.313,0.305s0.327,0.162,0.548,0.23
		c0.222,0.068,0.49,0.139,0.806,0.211c0.451,0.109,0.85,0.217,1.192,0.326s0.629,0.234,0.859,0.38s0.403,0.322,0.521,0.53
		c0.117,0.209,0.176,0.462,0.176,0.761c0,0.653-0.248,1.168-0.744,1.55C127.737,43.629,127.069,43.818,126.229,43.818"/>
	<path clip-path="url(#SVGID_2_)" fill="#BA2025" d="M77.937,58.85l4.022-9.647h0.773l4.022,9.647h-1.016l-1.246-3.017h-4.32
		l-1.233,3.017H77.937z M82.352,50.316l-1.977,4.769h3.9L82.352,50.316z"/>
	<path clip-path="url(#SVGID_2_)" fill="#BA2025" d="M90.613,58.984c-0.488,0-0.939-0.102-1.354-0.305
		c-0.416-0.204-0.774-0.473-1.077-0.809c-0.303-0.334-0.537-0.723-0.704-1.162c-0.167-0.438-0.251-0.898-0.251-1.379
		c0-0.498,0.081-0.972,0.244-1.42c0.163-0.449,0.386-0.841,0.67-1.176c0.285-0.335,0.623-0.6,1.016-0.794s0.824-0.292,1.293-0.292
		c0.596,0,1.124,0.154,1.585,0.468c0.46,0.313,0.826,0.691,1.097,1.136V48.93h0.921v8.724c0,0.253,0.108,0.38,0.325,0.38v0.816
		c-0.154,0.027-0.276,0.041-0.366,0.041c-0.226,0-0.411-0.066-0.555-0.198c-0.145-0.131-0.217-0.287-0.217-0.468v-0.748
		c-0.289,0.462-0.67,0.828-1.144,1.102C91.621,58.85,91.127,58.984,90.613,58.984 M90.803,58.17c0.234,0,0.48-0.045,0.738-0.137
		c0.257-0.09,0.496-0.215,0.717-0.373c0.222-0.158,0.413-0.345,0.576-0.557c0.162-0.213,0.262-0.441,0.298-0.686v-2.188
		c-0.09-0.245-0.224-0.474-0.399-0.687c-0.177-0.213-0.375-0.4-0.597-0.563c-0.221-0.164-0.456-0.29-0.704-0.381
		c-0.249-0.091-0.494-0.136-0.738-0.136c-0.379,0-0.724,0.082-1.036,0.244c-0.311,0.164-0.576,0.379-0.792,0.646
		c-0.217,0.268-0.386,0.572-0.508,0.917c-0.122,0.344-0.183,0.696-0.183,1.06c0,0.381,0.068,0.742,0.203,1.088
		c0.136,0.344,0.321,0.645,0.555,0.902c0.235,0.258,0.513,0.464,0.833,0.618C90.087,58.092,90.432,58.17,90.803,58.17"/>
	<path clip-path="url(#SVGID_2_)" fill="#BA2025" d="M99.05,58.984c-0.487,0-0.939-0.102-1.354-0.305
		c-0.415-0.204-0.774-0.473-1.077-0.809c-0.302-0.334-0.537-0.723-0.704-1.162c-0.167-0.438-0.251-0.898-0.251-1.379
		c0-0.498,0.082-0.972,0.244-1.42c0.163-0.449,0.386-0.841,0.67-1.176c0.285-0.335,0.623-0.6,1.016-0.794s0.824-0.292,1.294-0.292
		c0.596,0,1.123,0.154,1.584,0.468s0.826,0.691,1.097,1.136V48.93h0.921v8.724c0,0.253,0.108,0.38,0.325,0.38v0.816
		c-0.154,0.027-0.275,0.041-0.366,0.041c-0.226,0-0.411-0.066-0.555-0.198c-0.145-0.131-0.217-0.287-0.217-0.468v-0.748
		c-0.289,0.462-0.67,0.828-1.144,1.102C100.059,58.85,99.565,58.984,99.05,58.984 M99.24,58.17c0.234,0,0.48-0.045,0.738-0.137
		c0.257-0.09,0.496-0.215,0.718-0.373c0.221-0.158,0.413-0.345,0.575-0.557c0.163-0.213,0.262-0.441,0.298-0.686v-2.188
		c-0.09-0.245-0.224-0.474-0.399-0.687c-0.177-0.213-0.375-0.4-0.597-0.563c-0.22-0.164-0.455-0.29-0.704-0.381
		c-0.248-0.091-0.494-0.136-0.737-0.136c-0.38,0-0.725,0.082-1.037,0.244c-0.311,0.164-0.575,0.379-0.792,0.646
		s-0.386,0.572-0.507,0.917c-0.123,0.344-0.183,0.696-0.183,1.06c0,0.381,0.067,0.742,0.202,1.088
		c0.136,0.344,0.321,0.645,0.556,0.902s0.512,0.464,0.832,0.618C98.524,58.092,98.869,58.17,99.24,58.17"/>
	<path clip-path="url(#SVGID_2_)" fill="#BA2025" d="M108.083,52.585c-0.624,0.019-1.165,0.19-1.625,0.517
		c-0.461,0.326-0.786,0.774-0.976,1.344v4.404h-0.92v-7.08h0.867v1.698c0.243-0.497,0.564-0.911,0.961-1.243
		c0.398-0.33,0.826-0.496,1.287-0.496h0.23c0.072,0,0.131,0.006,0.176,0.015V52.585z"/>
	<path clip-path="url(#SVGID_2_)" fill="#BA2025" d="M112.402,58.984c-0.515,0-0.988-0.097-1.421-0.292
		c-0.434-0.194-0.809-0.462-1.124-0.801c-0.317-0.341-0.562-0.731-0.738-1.177c-0.177-0.443-0.265-0.918-0.265-1.426
		c0-0.498,0.088-0.967,0.265-1.406c0.176-0.439,0.421-0.824,0.738-1.155c0.315-0.33,0.688-0.593,1.117-0.788
		c0.428-0.193,0.901-0.292,1.415-0.292c0.515,0,0.986,0.099,1.414,0.292c0.43,0.195,0.798,0.46,1.104,0.795
		c0.308,0.335,0.546,0.721,0.718,1.155s0.258,0.897,0.258,1.386c0,0.073-0.004,0.145-0.008,0.219
		c-0.004,0.071-0.012,0.121-0.02,0.148h-6.027c0.028,0.38,0.115,0.73,0.264,1.053c0.15,0.321,0.339,0.6,0.569,0.835
		c0.231,0.236,0.497,0.421,0.799,0.552c0.303,0.131,0.625,0.196,0.969,0.196c0.234,0,0.465-0.03,0.689-0.095
		c0.227-0.064,0.434-0.15,0.623-0.258c0.19-0.109,0.359-0.242,0.508-0.401c0.149-0.159,0.265-0.333,0.346-0.522l0.8,0.217
		c-0.108,0.263-0.263,0.5-0.461,0.713c-0.199,0.213-0.429,0.398-0.69,0.558c-0.263,0.158-0.552,0.28-0.867,0.366
		S112.736,58.984,112.402,58.984 M115.003,54.936c-0.026-0.38-0.115-0.727-0.264-1.039c-0.15-0.313-0.339-0.582-0.568-0.809
		c-0.23-0.227-0.5-0.402-0.807-0.529s-0.632-0.191-0.975-0.191c-0.344,0-0.668,0.064-0.975,0.191s-0.576,0.303-0.806,0.529
		s-0.416,0.498-0.555,0.814c-0.14,0.318-0.224,0.662-0.251,1.033H115.003z"/>
	<path clip-path="url(#SVGID_2_)" fill="#BA2025" d="M119.635,58.984c-0.551,0-1.088-0.09-1.612-0.271
		c-0.522-0.182-0.974-0.443-1.354-0.788l0.42-0.625c0.396,0.326,0.801,0.571,1.212,0.733c0.411,0.164,0.851,0.244,1.319,0.244
		c0.57,0,1.023-0.114,1.361-0.346c0.34-0.23,0.508-0.559,0.508-0.984c0-0.199-0.045-0.365-0.135-0.496
		c-0.091-0.131-0.224-0.247-0.4-0.346c-0.174-0.101-0.396-0.188-0.662-0.267c-0.268-0.077-0.576-0.155-0.928-0.237
		c-0.406-0.1-0.758-0.199-1.058-0.299c-0.297-0.099-0.544-0.213-0.737-0.34c-0.194-0.126-0.338-0.283-0.434-0.469
		c-0.094-0.186-0.143-0.418-0.143-0.699c0-0.354,0.07-0.666,0.211-0.938c0.139-0.272,0.328-0.496,0.568-0.674
		c0.239-0.176,0.52-0.31,0.84-0.4c0.32-0.09,0.662-0.135,1.022-0.135c0.542,0,1.034,0.088,1.476,0.265
		c0.442,0.176,0.799,0.409,1.07,0.7l-0.447,0.543c-0.262-0.272-0.58-0.477-0.953-0.611c-0.377-0.137-0.767-0.204-1.172-0.204
		c-0.244,0-0.471,0.024-0.678,0.074c-0.208,0.051-0.391,0.13-0.548,0.237c-0.159,0.109-0.283,0.248-0.373,0.416
		c-0.09,0.166-0.136,0.365-0.136,0.59c0,0.191,0.031,0.345,0.095,0.463c0.063,0.117,0.167,0.219,0.312,0.306
		c0.145,0.085,0.328,0.162,0.549,0.229c0.222,0.068,0.49,0.14,0.806,0.211c0.451,0.109,0.849,0.218,1.192,0.326
		c0.343,0.109,0.629,0.236,0.859,0.381s0.404,0.322,0.521,0.531c0.117,0.207,0.176,0.461,0.176,0.76c0,0.652-0.249,1.168-0.745,1.55
		C121.143,58.795,120.475,58.984,119.635,58.984"/>
	<path clip-path="url(#SVGID_2_)" fill="#BA2025" d="M126.229,58.984c-0.551,0-1.088-0.09-1.611-0.271s-0.975-0.443-1.354-0.788
		l0.42-0.625c0.396,0.326,0.801,0.571,1.211,0.733c0.41,0.164,0.852,0.244,1.32,0.244c0.569,0,1.023-0.114,1.361-0.346
		c0.339-0.23,0.508-0.559,0.508-0.984c0-0.199-0.045-0.365-0.135-0.496c-0.092-0.131-0.225-0.247-0.4-0.346
		c-0.175-0.101-0.396-0.188-0.662-0.267c-0.268-0.077-0.576-0.155-0.929-0.237c-0.405-0.1-0.758-0.199-1.058-0.299
		c-0.297-0.099-0.543-0.213-0.736-0.34c-0.195-0.126-0.339-0.283-0.434-0.469c-0.094-0.186-0.143-0.418-0.143-0.699
		c0-0.354,0.07-0.666,0.209-0.938c0.141-0.272,0.33-0.496,0.57-0.674c0.238-0.176,0.52-0.31,0.839-0.4
		c0.321-0.09,0.661-0.135,1.022-0.135c0.543,0,1.035,0.088,1.477,0.265c0.442,0.176,0.799,0.409,1.07,0.7l-0.447,0.543
		c-0.262-0.272-0.58-0.477-0.954-0.611c-0.376-0.137-0.767-0.204-1.172-0.204c-0.244,0-0.47,0.024-0.679,0.074
		c-0.207,0.051-0.39,0.13-0.547,0.237c-0.158,0.109-0.283,0.248-0.373,0.416c-0.09,0.166-0.135,0.365-0.135,0.59
		c0,0.191,0.031,0.345,0.094,0.463c0.063,0.117,0.168,0.219,0.313,0.306c0.145,0.085,0.327,0.162,0.548,0.229
		c0.222,0.068,0.49,0.14,0.806,0.211c0.451,0.109,0.85,0.218,1.192,0.326c0.343,0.109,0.629,0.236,0.859,0.381
		s0.403,0.322,0.521,0.531c0.117,0.207,0.176,0.461,0.176,0.76c0,0.652-0.248,1.168-0.744,1.55
		C127.737,58.795,127.069,58.984,126.229,58.984"/>
	<path clip-path="url(#SVGID_2_)" fill="#BA2025" d="M159.331,14.385V4.738h3.982c0.415,0,0.797,0.088,1.144,0.266
		c0.348,0.176,0.648,0.408,0.901,0.692c0.253,0.285,0.448,0.608,0.589,0.972c0.14,0.361,0.21,0.729,0.21,1.1
		c0,0.4-0.066,0.781-0.196,1.148c-0.132,0.367-0.318,0.691-0.562,0.971c-0.244,0.281-0.535,0.509-0.874,0.68
		c-0.339,0.173-0.716,0.259-1.131,0.259h-3.129v3.56H159.331z M160.266,9.982h3.074c0.28,0,0.535-0.061,0.766-0.184
		s0.427-0.284,0.59-0.488c0.162-0.204,0.288-0.439,0.379-0.707c0.09-0.268,0.135-0.545,0.135-0.836c0-0.299-0.052-0.581-0.156-0.85
		c-0.103-0.267-0.243-0.5-0.42-0.699c-0.176-0.198-0.383-0.355-0.622-0.469s-0.489-0.17-0.752-0.17h-2.993V9.982z"/>
	<path clip-path="url(#SVGID_2_)" fill="#BA2025" d="M173.443,14.385h-0.922v-3.953c0-0.807-0.138-1.408-0.412-1.807
		c-0.275-0.4-0.68-0.599-1.213-0.599c-0.262,0-0.521,0.052-0.778,0.155c-0.257,0.105-0.499,0.248-0.725,0.429
		s-0.423,0.394-0.59,0.64c-0.167,0.243-0.291,0.51-0.372,0.801v4.334h-0.921V4.467h0.921v4.442c0.289-0.534,0.683-0.956,1.179-1.264
		s1.028-0.462,1.598-0.462c0.407,0,0.752,0.076,1.036,0.224c0.284,0.149,0.515,0.358,0.69,0.626
		c0.177,0.268,0.306,0.589,0.387,0.965c0.081,0.377,0.122,0.79,0.122,1.242V14.385z"/>
	<path clip-path="url(#SVGID_2_)" fill="#BA2025" d="M178.399,14.521c-0.515,0-0.986-0.098-1.416-0.293
		c-0.429-0.194-0.799-0.459-1.109-0.794c-0.313-0.335-0.555-0.726-0.726-1.169c-0.172-0.444-0.258-0.91-0.258-1.399
		c0-0.498,0.089-0.969,0.266-1.413c0.176-0.445,0.42-0.834,0.73-1.169c0.312-0.335,0.682-0.602,1.111-0.802
		c0.428-0.199,0.896-0.298,1.401-0.298c0.505,0,0.973,0.099,1.401,0.298c0.429,0.2,0.799,0.467,1.11,0.802s0.555,0.724,0.731,1.169
		c0.176,0.444,0.265,0.915,0.265,1.413c0,0.489-0.089,0.955-0.265,1.399c-0.177,0.443-0.42,0.834-0.731,1.169s-0.682,0.6-1.11,0.794
		C179.372,14.424,178.904,14.521,178.399,14.521 M175.84,10.879c0,0.399,0.064,0.769,0.196,1.107
		c0.131,0.34,0.311,0.639,0.542,0.896c0.229,0.259,0.501,0.461,0.812,0.605c0.313,0.145,0.645,0.217,0.996,0.217
		c0.353,0,0.683-0.074,0.995-0.223c0.312-0.15,0.584-0.354,0.819-0.611c0.234-0.26,0.42-0.561,0.556-0.904
		c0.135-0.344,0.204-0.715,0.204-1.114c0-0.39-0.069-0.759-0.204-1.106c-0.136-0.35-0.321-0.652-0.556-0.91
		c-0.235-0.26-0.507-0.463-0.813-0.612C179.081,8.073,178.752,8,178.399,8c-0.352,0-0.685,0.073-0.996,0.224
		c-0.312,0.149-0.581,0.356-0.813,0.618c-0.23,0.263-0.413,0.567-0.548,0.916C175.908,10.107,175.84,10.481,175.84,10.879"/>
	<path clip-path="url(#SVGID_2_)" fill="#BA2025" d="M189.341,14.385h-0.921v-3.953c0-0.842-0.122-1.454-0.364-1.834
		c-0.244-0.381-0.623-0.571-1.139-0.571c-0.271,0-0.542,0.05-0.812,0.149c-0.272,0.1-0.525,0.24-0.759,0.422
		c-0.235,0.181-0.441,0.396-0.616,0.645c-0.176,0.249-0.311,0.518-0.4,0.809v4.334h-0.921V7.307h0.84v1.603
		c0.146-0.253,0.322-0.487,0.535-0.7c0.211-0.213,0.449-0.396,0.711-0.55c0.262-0.153,0.539-0.272,0.832-0.353
		c0.294-0.082,0.6-0.123,0.914-0.123c0.398,0,0.73,0.072,0.996,0.218s0.481,0.349,0.644,0.61c0.162,0.264,0.279,0.586,0.353,0.966
		c0.072,0.381,0.107,0.802,0.107,1.263V14.385z"/>
	<path clip-path="url(#SVGID_2_)" fill="#BA2025" d="M194.338,14.521c-0.514,0-0.989-0.097-1.421-0.292
		c-0.434-0.193-0.809-0.462-1.124-0.802c-0.317-0.339-0.563-0.729-0.739-1.175c-0.176-0.444-0.264-0.92-0.264-1.426
		c0-0.5,0.088-0.967,0.264-1.407c0.177-0.439,0.422-0.824,0.739-1.155c0.315-0.33,0.688-0.593,1.117-0.788
		c0.428-0.194,0.899-0.292,1.415-0.292c0.514,0,0.985,0.098,1.415,0.292c0.428,0.195,0.797,0.46,1.103,0.795
		c0.309,0.335,0.547,0.72,0.718,1.155c0.173,0.436,0.259,0.896,0.259,1.386c0,0.073-0.003,0.146-0.008,0.218
		s-0.012,0.123-0.02,0.149h-6.027c0.028,0.38,0.115,0.731,0.265,1.054c0.148,0.32,0.339,0.6,0.568,0.834
		c0.231,0.236,0.496,0.42,0.8,0.551c0.303,0.131,0.625,0.197,0.969,0.197c0.233,0,0.465-0.031,0.689-0.095
		c0.227-0.063,0.435-0.149,0.623-0.258c0.19-0.109,0.36-0.242,0.508-0.401c0.148-0.158,0.265-0.333,0.347-0.523l0.799,0.218
		c-0.109,0.262-0.263,0.5-0.461,0.713c-0.199,0.213-0.429,0.399-0.691,0.558c-0.262,0.158-0.551,0.28-0.865,0.366
		C194.998,14.478,194.672,14.521,194.338,14.521 M196.939,10.472c-0.027-0.38-0.115-0.728-0.266-1.039
		c-0.148-0.313-0.339-0.582-0.567-0.81c-0.23-0.226-0.499-0.401-0.808-0.528c-0.306-0.127-0.631-0.19-0.974-0.19
		s-0.668,0.063-0.977,0.19c-0.306,0.127-0.574,0.303-0.806,0.528c-0.229,0.228-0.415,0.5-0.554,0.815
		c-0.142,0.318-0.225,0.662-0.251,1.033H196.939z"/>
	<path clip-path="url(#SVGID_2_)" fill="#BA2025" d="M208.598,14.385h-0.921v-3.953c0-0.842-0.121-1.454-0.364-1.834
		c-0.243-0.381-0.623-0.571-1.14-0.571c-0.269,0-0.541,0.05-0.81,0.149c-0.272,0.1-0.525,0.24-0.76,0.422
		c-0.234,0.181-0.44,0.396-0.616,0.645s-0.31,0.518-0.4,0.809v4.334h-0.921V7.307h0.84v1.603c0.146-0.253,0.322-0.487,0.535-0.7
		c0.212-0.213,0.449-0.396,0.71-0.55c0.263-0.153,0.541-0.272,0.834-0.353c0.293-0.082,0.597-0.123,0.914-0.123
		c0.398,0,0.729,0.072,0.995,0.218c0.267,0.146,0.482,0.349,0.643,0.61c0.163,0.264,0.28,0.586,0.354,0.966
		c0.072,0.381,0.106,0.802,0.106,1.263V14.385z"/>
	<path clip-path="url(#SVGID_2_)" fill="#BA2025" d="M212.688,14.521c-0.74,0-1.301-0.256-1.681-0.769
		c-0.379-0.511-0.567-1.274-0.567-2.289V7.307h0.92v3.994c0,1.604,0.547,2.405,1.64,2.405c0.271,0,0.537-0.046,0.798-0.136
		c0.262-0.092,0.504-0.223,0.726-0.395c0.221-0.172,0.42-0.376,0.596-0.611c0.175-0.235,0.319-0.502,0.427-0.801V7.307h0.92v5.883
		c0,0.254,0.114,0.381,0.338,0.381v0.814c-0.18,0.027-0.305,0.041-0.379,0.041c-0.207,0-0.385-0.064-0.534-0.189
		c-0.147-0.127-0.224-0.285-0.224-0.477v-0.978c-0.315,0.552-0.736,0.981-1.258,1.282C213.884,14.37,213.311,14.521,212.688,14.521"
		/>
	<path clip-path="url(#SVGID_2_)" fill="#BA2025" d="M229.048,14.385h-0.922v-3.953c0-0.824-0.129-1.432-0.386-1.821
		c-0.256-0.39-0.646-0.584-1.171-0.584c-0.271,0-0.527,0.05-0.765,0.149c-0.24,0.1-0.46,0.24-0.663,0.422
		c-0.203,0.181-0.382,0.396-0.536,0.645c-0.153,0.249-0.271,0.523-0.353,0.822v4.32h-0.921v-3.953c0-0.842-0.127-1.454-0.379-1.834
		c-0.253-0.381-0.64-0.571-1.165-0.571c-0.531,0-1.007,0.187-1.422,0.558c-0.416,0.37-0.713,0.86-0.893,1.467v4.334h-0.921V7.307
		h0.84v1.603c0.289-0.543,0.668-0.967,1.137-1.271c0.47-0.303,0.988-0.455,1.557-0.455c0.598,0,1.075,0.168,1.437,0.503
		s0.579,0.774,0.65,1.317c0.658-1.213,1.569-1.82,2.734-1.82c0.39,0,0.72,0.072,0.995,0.218c0.276,0.146,0.498,0.351,0.664,0.618
		c0.168,0.268,0.289,0.589,0.366,0.965s0.115,0.795,0.115,1.256V14.385z"/>
	<path clip-path="url(#SVGID_2_)" fill="#BA2025" d="M234.41,14.521c-0.552,0-1.062-0.14-1.529-0.421
		c-0.47-0.281-0.836-0.643-1.098-1.087v1.373h-0.826V4.467h0.921v4.32c0.316-0.48,0.696-0.867,1.137-1.162
		c0.443-0.295,0.962-0.44,1.559-0.44c0.486,0,0.931,0.104,1.326,0.312c0.397,0.209,0.734,0.487,1.011,0.836
		c0.274,0.349,0.486,0.742,0.636,1.183c0.147,0.438,0.223,0.89,0.223,1.353c0,0.498-0.086,0.969-0.258,1.412
		c-0.171,0.444-0.408,0.832-0.71,1.161c-0.303,0.331-0.66,0.595-1.071,0.788C235.319,14.424,234.88,14.521,234.41,14.521
		 M234.193,13.705c0.389,0,0.743-0.078,1.063-0.237c0.321-0.158,0.596-0.371,0.827-0.638c0.229-0.268,0.41-0.571,0.543-0.912
		c0.13-0.338,0.194-0.69,0.194-1.051c0-0.373-0.062-0.73-0.183-1.074c-0.122-0.344-0.293-0.65-0.514-0.918
		c-0.223-0.267-0.487-0.479-0.792-0.639c-0.308-0.158-0.647-0.238-1.018-0.238c-0.279,0-0.541,0.049-0.783,0.144
		c-0.245,0.095-0.471,0.226-0.678,0.388c-0.209,0.163-0.396,0.352-0.562,0.564c-0.167,0.212-0.307,0.436-0.414,0.672v2.201
		c0.036,0.244,0.133,0.473,0.292,0.686c0.157,0.213,0.349,0.396,0.575,0.551c0.225,0.154,0.465,0.276,0.718,0.367
		C233.715,13.66,233.958,13.705,234.193,13.705"/>
	<path clip-path="url(#SVGID_2_)" fill="#BA2025" d="M242.387,14.521c-0.514,0-0.989-0.097-1.421-0.292
		c-0.435-0.193-0.81-0.462-1.124-0.802c-0.317-0.339-0.563-0.729-0.739-1.175c-0.177-0.444-0.264-0.92-0.264-1.426
		c0-0.5,0.087-0.967,0.264-1.407c0.176-0.439,0.422-0.824,0.739-1.155c0.314-0.33,0.687-0.593,1.117-0.788
		c0.428-0.194,0.899-0.292,1.415-0.292c0.514,0,0.985,0.098,1.415,0.292c0.428,0.195,0.797,0.46,1.104,0.795
		c0.308,0.335,0.546,0.72,0.717,1.155c0.173,0.436,0.259,0.896,0.259,1.386c0,0.073-0.003,0.146-0.008,0.218
		s-0.011,0.123-0.019,0.149h-6.027c0.027,0.38,0.114,0.731,0.264,1.054c0.148,0.32,0.339,0.6,0.568,0.834
		c0.231,0.236,0.497,0.42,0.799,0.551c0.303,0.131,0.627,0.197,0.97,0.197c0.233,0,0.464-0.031,0.689-0.095
		c0.227-0.063,0.434-0.149,0.622-0.258c0.19-0.109,0.36-0.242,0.509-0.401c0.148-0.158,0.265-0.333,0.347-0.523l0.799,0.218
		c-0.109,0.262-0.263,0.5-0.461,0.713c-0.199,0.213-0.429,0.399-0.69,0.558c-0.263,0.158-0.552,0.28-0.868,0.366
		C243.047,14.478,242.721,14.521,242.387,14.521 M244.988,10.472c-0.027-0.38-0.115-0.728-0.266-1.039
		c-0.148-0.313-0.339-0.582-0.568-0.81c-0.229-0.226-0.498-0.401-0.807-0.528c-0.306-0.127-0.631-0.19-0.974-0.19
		c-0.345,0-0.668,0.063-0.977,0.19c-0.306,0.127-0.574,0.303-0.806,0.528c-0.229,0.228-0.415,0.5-0.554,0.815
		c-0.142,0.318-0.224,0.662-0.251,1.033H244.988z"/>
	<path clip-path="url(#SVGID_2_)" fill="#BA2025" d="M250.769,8.121c-0.621,0.018-1.162,0.191-1.624,0.518
		c-0.461,0.325-0.785,0.773-0.976,1.344v4.402h-0.92V7.307h0.867v1.697c0.243-0.498,0.563-0.912,0.961-1.242
		c0.396-0.33,0.826-0.496,1.287-0.496h0.229c0.072,0,0.132,0.004,0.176,0.014V8.121z"/>
	<polygon clip-path="url(#SVGID_2_)" fill="#BA2025" points="156.266,108.132 157.159,108.132 154.14,115.211 153.367,115.211 
		151.864,111.597 150.36,115.211 149.589,115.211 146.569,108.132 147.449,108.132 150.022,114.26 151.363,111.025 150.157,108.145 
		150.943,108.145 151.864,110.455 152.771,108.145 153.558,108.145 152.365,111.025 153.706,114.26 	"/>
	<path clip-path="url(#SVGID_2_)" fill="#BA2025" d="M161.452,115.347c-0.515,0-0.988-0.098-1.422-0.292
		c-0.434-0.195-0.809-0.462-1.124-0.803c-0.316-0.339-0.562-0.73-0.737-1.175c-0.177-0.443-0.266-0.919-0.266-1.426
		c0-0.499,0.089-0.968,0.266-1.407c0.176-0.438,0.421-0.824,0.737-1.154c0.315-0.33,0.688-0.594,1.117-0.788
		c0.43-0.194,0.901-0.292,1.415-0.292c0.516,0,0.987,0.098,1.415,0.292c0.429,0.194,0.797,0.46,1.104,0.795
		c0.307,0.335,0.546,0.72,0.718,1.154c0.171,0.436,0.257,0.897,0.257,1.387c0,0.072-0.002,0.145-0.006,0.217
		c-0.005,0.073-0.012,0.123-0.021,0.15h-6.025c0.026,0.38,0.115,0.73,0.263,1.053c0.15,0.32,0.339,0.6,0.569,0.835
		s0.497,0.419,0.799,0.551c0.303,0.131,0.625,0.197,0.969,0.197c0.234,0,0.465-0.032,0.691-0.096
		c0.225-0.063,0.433-0.149,0.622-0.259c0.189-0.108,0.359-0.242,0.508-0.4s0.264-0.332,0.346-0.523l0.799,0.218
		c-0.108,0.263-0.263,0.5-0.461,0.713c-0.197,0.214-0.429,0.399-0.689,0.558c-0.264,0.159-0.552,0.281-0.867,0.367
		C162.111,115.304,161.786,115.347,161.452,115.347 M164.053,111.298c-0.027-0.381-0.115-0.728-0.264-1.04
		c-0.15-0.313-0.34-0.581-0.569-0.809c-0.23-0.226-0.499-0.401-0.806-0.53c-0.308-0.126-0.633-0.189-0.976-0.189
		s-0.668,0.063-0.975,0.189c-0.308,0.129-0.576,0.305-0.807,0.53c-0.229,0.228-0.414,0.498-0.555,0.815
		c-0.14,0.317-0.223,0.661-0.251,1.033H164.053z"/>
	<path clip-path="url(#SVGID_2_)" fill="#BA2025" d="M169.768,115.347c-0.552,0-1.061-0.141-1.53-0.421
		c-0.469-0.281-0.835-0.644-1.097-1.088v1.372h-0.826v-9.918h0.921v4.321c0.316-0.481,0.695-0.868,1.138-1.163
		c0.442-0.294,0.961-0.439,1.558-0.439c0.487,0,0.93,0.103,1.326,0.312c0.397,0.208,0.733,0.487,1.01,0.835
		c0.274,0.349,0.487,0.743,0.637,1.183c0.148,0.439,0.223,0.89,0.223,1.352c0,0.499-0.086,0.969-0.257,1.414
		c-0.172,0.443-0.409,0.83-0.711,1.161c-0.303,0.331-0.66,0.593-1.07,0.788C170.677,115.249,170.237,115.347,169.768,115.347
		 M169.552,114.531c0.388,0,0.741-0.079,1.063-0.238c0.32-0.157,0.595-0.371,0.826-0.638c0.229-0.268,0.41-0.571,0.542-0.911
		c0.13-0.339,0.196-0.69,0.196-1.053c0-0.371-0.062-0.729-0.184-1.073s-0.294-0.649-0.514-0.918
		c-0.222-0.267-0.486-0.479-0.793-0.638c-0.308-0.158-0.646-0.238-1.016-0.238c-0.279,0-0.542,0.048-0.785,0.144
		c-0.244,0.095-0.471,0.224-0.678,0.387c-0.208,0.163-0.395,0.351-0.562,0.563s-0.305,0.438-0.413,0.673v2.201
		c0.036,0.244,0.133,0.474,0.291,0.687s0.35,0.396,0.576,0.551c0.225,0.153,0.465,0.276,0.718,0.366
		C169.072,114.486,169.316,114.531,169.552,114.531"/>
	<path clip-path="url(#SVGID_2_)" fill="#BA2025" d="M177.014,115.347c-0.551,0-1.088-0.091-1.612-0.272
		c-0.523-0.181-0.975-0.442-1.354-0.787l0.42-0.625c0.396,0.325,0.8,0.57,1.212,0.732c0.41,0.163,0.851,0.245,1.32,0.245
		c0.568,0,1.022-0.115,1.36-0.346c0.339-0.231,0.509-0.56,0.509-0.986c0-0.198-0.046-0.364-0.136-0.495
		c-0.091-0.132-0.224-0.247-0.399-0.346c-0.176-0.1-0.397-0.188-0.663-0.266c-0.268-0.077-0.576-0.156-0.928-0.238
		c-0.406-0.1-0.76-0.199-1.058-0.298c-0.297-0.101-0.544-0.213-0.737-0.341c-0.194-0.127-0.339-0.282-0.434-0.469
		c-0.094-0.185-0.142-0.419-0.142-0.699c0-0.353,0.069-0.666,0.209-0.938c0.14-0.272,0.33-0.496,0.569-0.673
		c0.239-0.176,0.52-0.311,0.839-0.401c0.321-0.09,0.661-0.135,1.023-0.135c0.542,0,1.034,0.088,1.476,0.265
		c0.442,0.177,0.8,0.409,1.069,0.699l-0.446,0.544c-0.262-0.271-0.58-0.476-0.954-0.611c-0.376-0.136-0.766-0.204-1.172-0.204
		c-0.243,0-0.47,0.024-0.678,0.074c-0.207,0.051-0.39,0.13-0.548,0.238c-0.158,0.109-0.283,0.247-0.372,0.415
		c-0.091,0.167-0.136,0.364-0.136,0.591c0,0.19,0.032,0.344,0.095,0.462c0.063,0.117,0.167,0.22,0.313,0.306
		c0.144,0.086,0.326,0.163,0.548,0.23c0.221,0.068,0.489,0.139,0.806,0.211c0.451,0.109,0.849,0.217,1.192,0.326
		c0.343,0.109,0.629,0.235,0.858,0.38c0.231,0.146,0.405,0.322,0.522,0.531c0.117,0.208,0.176,0.461,0.176,0.76
		c0,0.653-0.249,1.168-0.745,1.549C178.521,115.156,177.853,115.347,177.014,115.347"/>
	<path clip-path="url(#SVGID_2_)" fill="#BA2025" d="M181.239,105.292h0.921v1.358h-0.921V105.292z M181.239,108.132h0.921v7.079
		h-0.921V108.132z"/>
	<path clip-path="url(#SVGID_2_)" fill="#BA2025" d="M187.549,114.871c-0.054,0.027-0.134,0.063-0.236,0.108
		c-0.104,0.046-0.224,0.091-0.359,0.137c-0.135,0.045-0.289,0.086-0.461,0.122c-0.171,0.035-0.352,0.054-0.542,0.054
		c-0.198,0-0.387-0.027-0.568-0.082c-0.181-0.054-0.338-0.138-0.474-0.251c-0.135-0.113-0.244-0.255-0.325-0.428
		c-0.081-0.172-0.122-0.371-0.122-0.597v-5.069h-0.975v-0.733h0.975v-2.391h0.921v2.391h1.625v0.733h-1.625v4.81
		c0.02,0.264,0.108,0.455,0.271,0.577c0.163,0.123,0.357,0.185,0.583,0.185c0.261,0,0.491-0.043,0.69-0.13
		c0.197-0.086,0.324-0.146,0.379-0.184L187.549,114.871z"/>
	<path clip-path="url(#SVGID_2_)" fill="#BA2025" d="M191.72,115.347c-0.514,0-0.988-0.098-1.421-0.292
		c-0.434-0.195-0.809-0.462-1.124-0.803c-0.317-0.339-0.563-0.73-0.739-1.175c-0.176-0.443-0.264-0.919-0.264-1.426
		c0-0.499,0.088-0.968,0.264-1.407c0.176-0.438,0.422-0.824,0.739-1.154c0.315-0.33,0.688-0.594,1.117-0.788
		c0.428-0.194,0.899-0.292,1.415-0.292c0.514,0,0.985,0.098,1.415,0.292c0.428,0.194,0.797,0.46,1.104,0.795
		c0.308,0.335,0.546,0.72,0.717,1.154c0.173,0.436,0.259,0.897,0.259,1.387c0,0.072-0.002,0.145-0.008,0.217
		c-0.004,0.073-0.012,0.123-0.02,0.15h-6.027c0.028,0.38,0.115,0.73,0.266,1.053c0.147,0.32,0.338,0.6,0.567,0.835
		c0.231,0.235,0.496,0.419,0.799,0.551c0.304,0.131,0.625,0.197,0.97,0.197c0.233,0,0.465-0.032,0.689-0.096
		c0.227-0.063,0.435-0.149,0.623-0.259c0.19-0.108,0.36-0.242,0.508-0.4c0.148-0.158,0.265-0.332,0.347-0.523l0.799,0.218
		c-0.109,0.263-0.263,0.5-0.461,0.713c-0.199,0.214-0.429,0.399-0.691,0.558c-0.262,0.159-0.551,0.281-0.866,0.367
		S192.054,115.347,191.72,115.347 M194.32,111.298c-0.026-0.381-0.114-0.728-0.265-1.04c-0.148-0.313-0.339-0.581-0.567-0.809
		c-0.23-0.226-0.499-0.401-0.808-0.53c-0.306-0.126-0.631-0.189-0.974-0.189s-0.668,0.063-0.976,0.189
		c-0.307,0.129-0.575,0.305-0.807,0.53c-0.229,0.228-0.415,0.498-0.554,0.815c-0.142,0.317-0.225,0.661-0.25,1.033H194.32z"/>
	<path clip-path="url(#SVGID_2_)" fill="#BA2025" d="M166.214,28.723c-0.515,0-0.988-0.096-1.421-0.291
		c-0.435-0.194-0.81-0.463-1.124-0.803c-0.317-0.338-0.563-0.729-0.738-1.175c-0.177-0.444-0.266-0.919-0.266-1.426
		c0-0.499,0.089-0.967,0.266-1.407c0.176-0.439,0.421-0.824,0.738-1.154c0.314-0.33,0.688-0.594,1.116-0.789
		c0.43-0.193,0.901-0.291,1.415-0.291c0.516,0,0.987,0.098,1.415,0.291c0.43,0.195,0.797,0.461,1.104,0.795
		c0.307,0.336,0.546,0.721,0.718,1.156c0.171,0.435,0.257,0.896,0.257,1.385c0,0.074-0.003,0.146-0.006,0.219
		c-0.005,0.072-0.012,0.122-0.021,0.148h-6.026c0.027,0.381,0.115,0.731,0.263,1.053c0.15,0.322,0.339,0.601,0.569,0.836
		c0.23,0.236,0.497,0.42,0.799,0.551c0.303,0.131,0.625,0.197,0.969,0.197c0.234,0,0.465-0.031,0.691-0.096
		c0.225-0.063,0.433-0.149,0.622-0.258c0.189-0.109,0.359-0.242,0.508-0.4c0.149-0.159,0.264-0.334,0.346-0.523l0.799,0.217
		c-0.108,0.262-0.263,0.5-0.461,0.713c-0.197,0.213-0.429,0.399-0.689,0.559c-0.263,0.158-0.552,0.279-0.867,0.365
		C166.873,28.68,166.548,28.723,166.214,28.723 M168.814,24.674c-0.027-0.379-0.115-0.727-0.264-1.039
		c-0.15-0.313-0.339-0.582-0.569-0.809c-0.229-0.227-0.499-0.402-0.806-0.529c-0.308-0.127-0.632-0.19-0.976-0.19
		c-0.343,0-0.668,0.063-0.975,0.19s-0.576,0.303-0.806,0.529c-0.23,0.227-0.415,0.499-0.556,0.814
		c-0.14,0.318-0.223,0.662-0.251,1.033H168.814z"/>
	<path clip-path="url(#SVGID_2_)" fill="#BA2025" d="M181.57,28.588h-0.92v-3.954c0-0.823-0.129-1.431-0.386-1.821
		c-0.257-0.389-0.647-0.584-1.172-0.584c-0.27,0-0.526,0.051-0.765,0.15c-0.239,0.1-0.46,0.238-0.664,0.421
		c-0.202,0.181-0.381,0.396-0.534,0.646c-0.154,0.248-0.271,0.522-0.353,0.822v4.32h-0.921v-3.954c0-0.842-0.127-1.454-0.38-1.834
		c-0.253-0.381-0.64-0.571-1.164-0.571c-0.532,0-1.007,0.187-1.422,0.558c-0.416,0.37-0.714,0.86-0.894,1.468v4.334h-0.921v-7.079
		h0.84v1.603c0.289-0.543,0.668-0.967,1.137-1.27c0.47-0.304,0.989-0.455,1.558-0.455c0.597,0,1.074,0.167,1.436,0.502
		c0.361,0.336,0.578,0.775,0.649,1.318c0.659-1.213,1.571-1.82,2.736-1.82c0.388,0,0.72,0.072,0.995,0.217
		c0.275,0.146,0.497,0.352,0.664,0.618c0.167,0.269,0.289,0.589,0.366,0.966c0.076,0.375,0.113,0.795,0.113,1.256V28.588z"/>
	<path clip-path="url(#SVGID_2_)" fill="#BA2025" d="M185.351,28.725c-0.362,0-0.692-0.058-0.99-0.17
		c-0.298-0.115-0.552-0.271-0.764-0.47c-0.213-0.198-0.377-0.43-0.496-0.692c-0.117-0.264-0.175-0.539-0.175-0.83
		c0-0.325,0.072-0.623,0.216-0.889c0.145-0.268,0.348-0.496,0.61-0.687c0.262-0.19,0.574-0.339,0.94-0.441
		c0.366-0.104,0.771-0.157,1.212-0.157c0.354,0,0.713,0.032,1.083,0.096c0.371,0.064,0.7,0.154,0.989,0.271v-0.639
		c0-0.624-0.178-1.121-0.535-1.488c-0.355-0.365-0.837-0.549-1.441-0.549c-0.38,0-0.757,0.072-1.132,0.217s-0.756,0.354-1.144,0.625
		l-0.325-0.611c0.46-0.309,0.908-0.539,1.341-0.692c0.434-0.155,0.885-0.231,1.354-0.231c0.857,0,1.539,0.25,2.045,0.748
		c0.505,0.498,0.758,1.186,0.758,2.064v3.193c0,0.252,0.109,0.379,0.325,0.379v0.816c-0.072,0.01-0.14,0.016-0.203,0.02
		c-0.063,0.006-0.117,0.008-0.163,0.008c-0.18,0-0.344-0.055-0.494-0.163c-0.148-0.108-0.231-0.272-0.25-0.489l-0.026-0.557
		c-0.308,0.417-0.711,0.74-1.213,0.971C186.373,28.607,185.863,28.725,185.351,28.725 M185.58,28.018
		c0.405,0,0.811-0.088,1.212-0.266c0.401-0.177,0.72-0.419,0.955-0.727c0.063-0.082,0.116-0.17,0.161-0.264
		c0.047-0.097,0.068-0.185,0.068-0.267V25.34c-0.307-0.117-0.627-0.207-0.961-0.271c-0.334-0.064-0.66-0.095-0.975-0.095
		c-0.659,0-1.194,0.133-1.605,0.399c-0.411,0.269-0.617,0.638-0.617,1.108c0,0.189,0.036,0.375,0.109,0.556
		c0.072,0.183,0.183,0.345,0.332,0.49c0.148,0.146,0.332,0.262,0.549,0.353C185.024,27.973,185.281,28.018,185.58,28.018"/>
	<path clip-path="url(#SVGID_2_)" fill="#BA2025" d="M190.902,18.669h0.921v1.358h-0.921V18.669z M190.902,21.509h0.921v7.079
		h-0.921V21.509z"/>
	<path clip-path="url(#SVGID_2_)" fill="#BA2025" d="M193.84,18.67h0.922v8.314c0,0.264,0.071,0.469,0.217,0.618
		c0.144,0.149,0.347,0.226,0.608,0.226c0.101,0,0.218-0.015,0.353-0.041c0.135-0.029,0.262-0.063,0.38-0.109l0.162,0.746
		c-0.171,0.074-0.381,0.133-0.63,0.178c-0.248,0.045-0.462,0.068-0.644,0.068c-0.425,0-0.759-0.121-1.003-0.36
		c-0.243-0.24-0.365-0.577-0.365-1.013V18.67z"/>
	<path clip-path="url(#SVGID_2_)" fill="#BA2025" d="M202.332,28.725c-0.362,0-0.691-0.058-0.99-0.17
		c-0.297-0.115-0.552-0.271-0.764-0.47c-0.212-0.198-0.377-0.43-0.495-0.692c-0.117-0.264-0.176-0.539-0.176-0.83
		c0-0.325,0.071-0.623,0.217-0.889c0.145-0.268,0.347-0.496,0.61-0.687c0.262-0.19,0.574-0.339,0.94-0.441
		c0.366-0.104,0.77-0.157,1.211-0.157c0.354,0,0.714,0.032,1.084,0.096c0.369,0.064,0.7,0.154,0.989,0.271v-0.639
		c0-0.624-0.178-1.121-0.536-1.488c-0.355-0.365-0.837-0.549-1.44-0.549c-0.381,0-0.758,0.072-1.132,0.217
		c-0.375,0.145-0.757,0.354-1.144,0.625l-0.326-0.611c0.46-0.309,0.908-0.539,1.341-0.692c0.435-0.155,0.886-0.231,1.355-0.231
		c0.856,0,1.539,0.25,2.045,0.748c0.505,0.498,0.757,1.186,0.757,2.064v3.193c0,0.252,0.11,0.379,0.326,0.379v0.816
		c-0.073,0.01-0.14,0.016-0.204,0.02c-0.063,0.006-0.116,0.008-0.163,0.008c-0.18,0-0.344-0.055-0.493-0.163
		s-0.231-0.272-0.252-0.489l-0.025-0.557c-0.307,0.417-0.711,0.74-1.212,0.971C203.354,28.607,202.846,28.725,202.332,28.725
		 M202.562,28.018c0.406,0,0.812-0.088,1.213-0.266c0.4-0.177,0.72-0.419,0.953-0.727c0.063-0.082,0.117-0.17,0.163-0.264
		c0.045-0.097,0.068-0.185,0.068-0.267V25.34c-0.307-0.117-0.628-0.207-0.962-0.271c-0.333-0.064-0.659-0.095-0.975-0.095
		c-0.659,0-1.194,0.133-1.605,0.399c-0.411,0.269-0.616,0.638-0.616,1.108c0,0.189,0.036,0.375,0.109,0.556
		c0.072,0.183,0.182,0.345,0.332,0.49c0.147,0.146,0.331,0.262,0.548,0.353C202.006,27.973,202.264,28.018,202.562,28.018"/>
	<path clip-path="url(#SVGID_2_)" fill="#BA2025" d="M210.81,28.723c-0.488,0-0.939-0.102-1.355-0.305
		c-0.415-0.203-0.773-0.473-1.075-0.808c-0.304-0.335-0.538-0.724-0.705-1.162c-0.166-0.438-0.25-0.899-0.25-1.379
		c0-0.498,0.082-0.972,0.244-1.42c0.16-0.449,0.386-0.841,0.67-1.177c0.283-0.334,0.622-0.6,1.015-0.793
		c0.393-0.195,0.824-0.293,1.293-0.293c0.597,0,1.124,0.155,1.585,0.469c0.461,0.313,0.827,0.691,1.098,1.135v-4.32h0.92v8.723
		c0,0.252,0.108,0.379,0.325,0.379v0.816c-0.153,0.027-0.274,0.041-0.364,0.041c-0.228,0-0.411-0.066-0.557-0.197
		c-0.144-0.131-0.216-0.289-0.216-0.469v-0.748c-0.289,0.463-0.67,0.83-1.144,1.102C211.817,28.588,211.322,28.723,210.81,28.723
		 M210.998,27.908c0.233,0,0.48-0.045,0.738-0.137c0.257-0.09,0.496-0.215,0.717-0.372c0.224-0.159,0.414-0.345,0.576-0.558
		s0.262-0.441,0.299-0.686v-2.188c-0.091-0.246-0.225-0.475-0.399-0.687c-0.176-0.213-0.374-0.401-0.597-0.563
		c-0.221-0.164-0.455-0.291-0.703-0.381c-0.248-0.091-0.495-0.137-0.737-0.137c-0.38,0-0.727,0.082-1.037,0.245
		c-0.312,0.163-0.576,0.379-0.793,0.646c-0.216,0.268-0.386,0.572-0.507,0.918c-0.122,0.344-0.184,0.696-0.184,1.06
		c0,0.38,0.068,0.741,0.202,1.087c0.137,0.344,0.321,0.645,0.557,0.902c0.234,0.259,0.513,0.465,0.833,0.619
		C210.282,27.831,210.629,27.908,210.998,27.908"/>
	<path clip-path="url(#SVGID_2_)" fill="#BA2025" d="M219.246,28.723c-0.488,0-0.939-0.102-1.355-0.305
		c-0.414-0.203-0.772-0.473-1.074-0.808c-0.305-0.335-0.538-0.724-0.705-1.162s-0.251-0.899-0.251-1.379
		c0-0.498,0.082-0.972,0.243-1.42c0.163-0.449,0.387-0.841,0.671-1.177c0.283-0.334,0.624-0.6,1.016-0.793
		c0.392-0.195,0.825-0.293,1.293-0.293c0.596,0,1.125,0.155,1.585,0.469c0.461,0.313,0.826,0.691,1.097,1.135v-4.32h0.92v8.723
		c0,0.252,0.108,0.379,0.327,0.379v0.816c-0.153,0.027-0.275,0.041-0.365,0.041c-0.229,0-0.412-0.066-0.557-0.197
		s-0.216-0.289-0.216-0.469v-0.748c-0.29,0.463-0.67,0.83-1.146,1.102C220.254,28.588,219.76,28.723,219.246,28.723 M219.437,27.908
		c0.233,0,0.48-0.045,0.736-0.137c0.257-0.09,0.498-0.215,0.718-0.372c0.223-0.159,0.413-0.345,0.575-0.558
		c0.163-0.213,0.263-0.441,0.299-0.686v-2.188c-0.09-0.246-0.224-0.475-0.399-0.687c-0.176-0.213-0.374-0.401-0.596-0.563
		c-0.222-0.164-0.455-0.291-0.704-0.381c-0.248-0.091-0.494-0.137-0.737-0.137c-0.379,0-0.726,0.082-1.037,0.245
		c-0.311,0.163-0.576,0.379-0.792,0.646c-0.216,0.268-0.386,0.572-0.507,0.918c-0.123,0.344-0.184,0.696-0.184,1.06
		c0,0.38,0.067,0.741,0.203,1.087c0.135,0.344,0.32,0.645,0.556,0.902c0.233,0.259,0.512,0.465,0.833,0.619
		C218.72,27.831,219.066,27.908,219.437,27.908"/>
	<path clip-path="url(#SVGID_2_)" fill="#BA2025" d="M228.278,22.324c-0.622,0.018-1.164,0.19-1.626,0.517
		c-0.46,0.325-0.783,0.774-0.974,1.344v4.403h-0.921v-7.079h0.866v1.698c0.245-0.498,0.563-0.912,0.962-1.243
		c0.397-0.33,0.826-0.496,1.287-0.496h0.229c0.073,0,0.132,0.005,0.177,0.015V22.324z"/>
	<path clip-path="url(#SVGID_2_)" fill="#BA2025" d="M232.598,28.723c-0.513,0-0.987-0.096-1.421-0.291
		c-0.434-0.194-0.808-0.463-1.124-0.803c-0.316-0.338-0.563-0.729-0.738-1.175c-0.177-0.444-0.264-0.919-0.264-1.426
		c0-0.499,0.087-0.967,0.264-1.407c0.175-0.439,0.422-0.824,0.738-1.154s0.688-0.594,1.117-0.789c0.429-0.193,0.9-0.291,1.415-0.291
		s0.986,0.098,1.415,0.291c0.429,0.195,0.798,0.461,1.104,0.795c0.308,0.336,0.547,0.721,0.718,1.156
		c0.173,0.435,0.258,0.896,0.258,1.385c0,0.074-0.003,0.146-0.008,0.219c-0.004,0.072-0.011,0.122-0.019,0.148h-6.027
		c0.027,0.381,0.114,0.731,0.266,1.053c0.147,0.322,0.338,0.601,0.567,0.836c0.23,0.236,0.496,0.42,0.798,0.551
		c0.304,0.131,0.626,0.197,0.971,0.197c0.232,0,0.464-0.031,0.689-0.096c0.226-0.063,0.434-0.149,0.622-0.258
		c0.19-0.109,0.36-0.242,0.508-0.4c0.149-0.159,0.266-0.334,0.348-0.523l0.798,0.217c-0.109,0.262-0.263,0.5-0.461,0.713
		c-0.199,0.213-0.428,0.399-0.69,0.559c-0.263,0.158-0.552,0.279-0.866,0.365C233.258,28.68,232.933,28.723,232.598,28.723
		 M235.198,24.674c-0.025-0.379-0.113-0.727-0.265-1.039c-0.147-0.313-0.338-0.582-0.568-0.809
		c-0.229-0.227-0.497-0.402-0.806-0.529c-0.307-0.127-0.632-0.19-0.975-0.19s-0.668,0.063-0.975,0.19
		c-0.308,0.127-0.575,0.303-0.807,0.529c-0.229,0.227-0.415,0.499-0.555,0.814c-0.141,0.318-0.224,0.662-0.249,1.033H235.198z"/>
	<path clip-path="url(#SVGID_2_)" fill="#BA2025" d="M239.83,28.724c-0.552,0-1.089-0.09-1.611-0.272
		c-0.524-0.181-0.975-0.442-1.354-0.787l0.418-0.625c0.398,0.326,0.803,0.57,1.214,0.733c0.409,0.163,0.851,0.244,1.319,0.244
		c0.569,0,1.023-0.115,1.362-0.347c0.338-0.23,0.507-0.559,0.507-0.984c0-0.199-0.044-0.365-0.135-0.496
		c-0.09-0.131-0.225-0.247-0.401-0.346c-0.174-0.1-0.396-0.188-0.663-0.266c-0.266-0.078-0.575-0.156-0.928-0.237
		c-0.406-0.101-0.758-0.2-1.055-0.3c-0.298-0.099-0.545-0.213-0.738-0.34c-0.195-0.125-0.338-0.283-0.433-0.469
		c-0.096-0.185-0.145-0.418-0.145-0.699c0-0.353,0.072-0.666,0.21-0.938c0.142-0.271,0.33-0.496,0.57-0.673
		c0.239-0.177,0.519-0.31,0.839-0.401c0.322-0.09,0.661-0.135,1.022-0.135c0.543,0,1.033,0.088,1.478,0.265
		c0.441,0.177,0.798,0.409,1.068,0.7l-0.446,0.543c-0.261-0.271-0.58-0.477-0.954-0.611c-0.376-0.136-0.766-0.203-1.172-0.203
		c-0.245,0-0.469,0.024-0.677,0.074c-0.208,0.049-0.392,0.129-0.55,0.237c-0.157,0.108-0.281,0.247-0.371,0.415
		c-0.092,0.167-0.137,0.365-0.137,0.591c0,0.19,0.032,0.345,0.096,0.462c0.062,0.118,0.167,0.219,0.311,0.307
		c0.144,0.084,0.328,0.162,0.55,0.229c0.22,0.067,0.49,0.14,0.805,0.211c0.451,0.109,0.849,0.218,1.192,0.326
		c0.342,0.108,0.629,0.235,0.86,0.38c0.229,0.145,0.402,0.322,0.521,0.531c0.117,0.208,0.177,0.462,0.177,0.76
		c0,0.653-0.248,1.169-0.745,1.551C241.338,28.533,240.67,28.724,239.83,28.724"/>
	<path clip-path="url(#SVGID_2_)" fill="#BA2025" d="M246.426,28.724c-0.553,0-1.089-0.09-1.611-0.272
		c-0.524-0.181-0.976-0.442-1.354-0.787l0.419-0.625c0.397,0.326,0.802,0.57,1.212,0.733s0.852,0.244,1.32,0.244
		c0.569,0,1.024-0.115,1.362-0.347c0.338-0.23,0.507-0.559,0.507-0.984c0-0.199-0.044-0.365-0.135-0.496
		c-0.09-0.131-0.225-0.247-0.4-0.346c-0.175-0.1-0.396-0.188-0.664-0.266c-0.266-0.078-0.575-0.156-0.927-0.237
		c-0.406-0.101-0.758-0.2-1.056-0.3c-0.298-0.099-0.545-0.213-0.738-0.34c-0.195-0.125-0.338-0.283-0.433-0.469
		c-0.096-0.185-0.144-0.418-0.144-0.699c0-0.353,0.071-0.666,0.209-0.938c0.143-0.271,0.331-0.496,0.571-0.673
		c0.238-0.177,0.518-0.31,0.838-0.401c0.322-0.09,0.662-0.135,1.023-0.135c0.541,0,1.032,0.088,1.477,0.265
		c0.442,0.177,0.798,0.409,1.069,0.7l-0.446,0.543c-0.262-0.271-0.581-0.477-0.955-0.611c-0.376-0.136-0.766-0.203-1.171-0.203
		c-0.245,0-0.47,0.024-0.677,0.074c-0.209,0.049-0.393,0.129-0.55,0.237c-0.158,0.108-0.281,0.247-0.372,0.415
		c-0.091,0.167-0.137,0.365-0.137,0.591c0,0.19,0.032,0.345,0.096,0.462c0.063,0.118,0.167,0.219,0.312,0.307
		c0.144,0.084,0.327,0.162,0.549,0.229c0.221,0.067,0.49,0.14,0.806,0.211c0.45,0.109,0.849,0.218,1.191,0.326
		s0.629,0.235,0.86,0.38c0.229,0.145,0.402,0.322,0.521,0.531c0.118,0.208,0.178,0.462,0.178,0.76c0,0.653-0.248,1.169-0.745,1.551
		C247.934,28.533,247.266,28.724,246.426,28.724"/>
</g>
</svg>
