<?xml version="1.0" encoding="utf-8"?>
<!-- Generator: Adobe Illustrator 15.0.2, SVG Export Plug-In . SVG Version: 6.00 Build 0)  -->
<!DOCTYPE svg PUBLIC "-//W3C//DTD SVG 1.1//EN" "http://www.w3.org/Graphics/SVG/1.1/DTD/svg11.dtd">
<svg version="1.1" id="Layer_1" xmlns="http://www.w3.org/2000/svg" xmlns:xlink="http://www.w3.org/1999/xlink" x="0px" y="0px"
	 width="255px" height="123px" viewBox="0 0 255 123" enable-background="new 0 0 255 123" xml:space="preserve">
<g>
	<defs>
		<rect id="SVGID_1_" width="255" height="123"/>
	</defs>
	<clipPath id="SVGID_2_">
		<use xlink:href="#SVGID_1_"  overflow="visible"/>
	</clipPath>
	<path clip-path="url(#SVGID_2_)" fill="#191419" d="M245.191,0H75.337H36.719H9.807C4.391,0,0,4.404,0,9.84v76.063v27.258
		c0,5.434,4.39,9.84,9.806,9.84h24.595h2.318h38.618h51.192h118.662c5.418,0,9.809-4.406,9.809-9.84V96.619V9.84
		C255,4.404,250.609,0,245.191,0"/>
	<path clip-path="url(#SVGID_2_)" fill="#B2835C" d="M164.776,34.617c0.501,0.343,1.146,0.641,1.929,0.891
		c0.787,0.252,1.669,0.377,2.647,0.377c1.23,0,2.216-0.223,2.956-0.668c0.739-0.445,1.303-1.102,1.69-1.971
		c0.386-0.867,0.638-1.936,0.75-3.203c0.114-1.268,0.173-2.713,0.173-4.335V13.373h2.388v12.335c0,1.851-0.083,3.535-0.255,5.056
		c-0.17,1.519-0.529,2.814-1.076,3.888s-1.342,1.907-2.389,2.502c-1.05,0.593-2.461,0.892-4.237,0.892
		c-2.048,0-3.802-0.504-5.259-1.509L164.776,34.617z"/>
	<path clip-path="url(#SVGID_2_)" fill="#B2835C" d="M189.946,38.01c-1.298,0-2.488-0.246-3.568-0.737
		c-1.082-0.491-2.015-1.159-2.802-2.004c-0.784-0.845-1.393-1.827-1.827-2.946c-0.432-1.119-0.647-2.297-0.647-3.529
		c0-1.258,0.223-2.445,0.665-3.564c0.445-1.119,1.061-2.102,1.845-2.947c0.785-0.845,1.72-1.518,2.8-2.021
		c1.082-0.502,2.26-0.753,3.535-0.753c1.274,0,2.454,0.251,3.536,0.753c1.08,0.504,2.015,1.177,2.799,2.021
		c0.787,0.846,1.402,1.828,1.846,2.947c0.442,1.119,0.665,2.307,0.665,3.564c0,1.232-0.223,2.41-0.665,3.529
		c-0.443,1.119-1.059,2.102-1.846,2.946c-0.784,0.845-1.719,1.513-2.799,2.004C192.4,37.764,191.221,38.01,189.946,38.01
		 M183.493,28.826c0,1.006,0.163,1.937,0.493,2.793c0.331,0.856,0.787,1.61,1.367,2.262c0.579,0.65,1.263,1.158,2.05,1.525
		c0.784,0.364,1.622,0.547,2.511,0.547c0.886,0,1.725-0.188,2.508-0.564c0.787-0.377,1.475-0.891,2.067-1.542
		c0.591-0.651,1.059-1.41,1.4-2.278c0.341-0.869,0.514-1.805,0.514-2.811c0-0.98-0.173-1.912-0.514-2.792
		c-0.342-0.879-0.81-1.646-1.4-2.296c-0.593-0.651-1.276-1.165-2.05-1.542c-0.773-0.378-1.604-0.566-2.493-0.566
		c-0.888,0-1.724,0.188-2.51,0.566c-0.785,0.377-1.469,0.897-2.047,1.559c-0.583,0.663-1.044,1.433-1.386,2.313
		C183.662,26.88,183.493,27.822,183.493,28.826"/>
	<path clip-path="url(#SVGID_2_)" fill="#B2835C" d="M217.541,37.667h-2.32v-9.972c0-2.032-0.349-3.551-1.043-4.557
		c-0.694-1.005-1.713-1.509-3.058-1.509c-0.659,0-1.313,0.134-1.961,0.394c-0.65,0.265-1.259,0.623-1.828,1.08
		c-0.57,0.459-1.064,0.994-1.485,1.61c-0.423,0.618-0.736,1.291-0.941,2.022v10.931h-2.32V12.652h2.32v11.205
		c0.729-1.346,1.72-2.409,2.972-3.187c1.252-0.776,2.597-1.165,4.031-1.165c1.025,0,1.896,0.189,2.612,0.564
		c0.719,0.378,1.298,0.904,1.741,1.576c0.445,0.676,0.77,1.486,0.975,2.435s0.306,1.993,0.306,3.135V37.667z"/>
	<path clip-path="url(#SVGID_2_)" fill="#B2835C" d="M237.315,37.667h-2.321v-9.972c0-2.125-0.309-3.666-0.923-4.625
		c-0.613-0.961-1.569-1.44-2.868-1.44c-0.684,0-1.367,0.126-2.05,0.377c-0.684,0.252-1.32,0.606-1.911,1.063
		c-0.593,0.457-1.111,1-1.554,1.627c-0.445,0.629-0.78,1.308-1.01,2.039v10.931h-2.321V19.814h2.116v4.043
		c0.366-0.639,0.815-1.228,1.352-1.765c0.533-0.536,1.131-0.999,1.792-1.387c0.659-0.39,1.359-0.685,2.101-0.892
		c0.738-0.205,1.508-0.309,2.306-0.309c1,0,1.838,0.184,2.511,0.549c0.67,0.365,1.212,0.881,1.622,1.541
		c0.41,0.663,0.705,1.475,0.886,2.434c0.184,0.959,0.273,2.021,0.273,3.187V37.667z"/>
	<path clip-path="url(#SVGID_2_)" fill="#B2835C" d="M177.823,78.786V54.457h8.195c1.936,0,3.633,0.32,5.09,0.959
		c1.457,0.64,2.669,1.508,3.637,2.605c0.968,1.096,1.69,2.381,2.169,3.854c0.479,1.473,0.719,3.044,0.719,4.711
		c0,1.851-0.273,3.524-0.82,5.02c-0.546,1.496-1.322,2.775-2.323,3.838c-1.003,1.062-2.22,1.885-3.654,2.468
		c-1.435,0.582-3.04,0.874-4.816,0.874H177.823z M195.241,66.587c0-1.462-0.205-2.804-0.615-4.026
		c-0.409-1.222-1.007-2.279-1.792-3.168c-0.787-0.893-1.748-1.582-2.888-2.074c-1.137-0.491-2.446-0.737-3.928-0.737h-5.84v20.08
		h5.84c1.504,0,2.83-0.257,3.981-0.771c1.148-0.514,2.109-1.221,2.885-2.124c0.773-0.901,1.36-1.965,1.759-3.187
		C195.041,69.356,195.241,68.026,195.241,66.587"/>
	<path clip-path="url(#SVGID_2_)" fill="#B2835C" d="M209.449,79.128c-1.298,0-2.488-0.246-3.57-0.736
		c-1.08-0.491-2.015-1.159-2.8-2.004c-0.784-0.846-1.395-1.828-1.827-2.947c-0.432-1.119-0.647-2.296-0.647-3.53
		c0-1.256,0.22-2.444,0.665-3.563c0.443-1.119,1.059-2.103,1.843-2.947c0.787-0.845,1.72-1.52,2.802-2.021
		c1.08-0.502,2.26-0.754,3.535-0.754c1.274,0,2.454,0.252,3.534,0.754c1.082,0.502,2.015,1.177,2.802,2.021
		c0.784,0.845,1.399,1.828,1.842,2.947c0.445,1.118,0.668,2.307,0.668,3.563c0,1.234-0.223,2.411-0.668,3.53
		c-0.442,1.119-1.058,2.102-1.842,2.947c-0.787,0.845-1.72,1.513-2.802,2.004C211.903,78.882,210.724,79.128,209.449,79.128
		 M202.993,69.945c0,1.005,0.166,1.936,0.496,2.792c0.329,0.856,0.785,1.611,1.367,2.262c0.579,0.651,1.263,1.159,2.048,1.524
		c0.786,0.366,1.622,0.549,2.51,0.549c0.889,0,1.727-0.188,2.511-0.566c0.785-0.376,1.475-0.891,2.065-1.541
		c0.593-0.65,1.061-1.41,1.402-2.278s0.511-1.805,0.511-2.811c0-0.981-0.169-1.912-0.511-2.792c-0.342-0.879-0.81-1.645-1.402-2.296
		c-0.591-0.65-1.273-1.165-2.048-1.542c-0.775-0.377-1.606-0.565-2.493-0.565c-0.888,0-1.726,0.188-2.51,0.565
		c-0.787,0.377-1.471,0.896-2.05,1.56c-0.58,0.662-1.041,1.433-1.383,2.313S202.993,68.94,202.993,69.945"/>
	<path clip-path="url(#SVGID_2_)" fill="#B2835C" d="M229.872,79.128c-1.299,0-2.493-0.246-3.587-0.737
		c-1.093-0.49-2.036-1.164-2.834-2.021c-0.798-0.857-1.418-1.845-1.86-2.964c-0.445-1.119-0.666-2.319-0.666-3.599
		c0-1.256,0.221-2.438,0.666-3.547c0.442-1.106,1.063-2.078,1.86-2.912s1.736-1.495,2.816-1.987
		c1.083-0.491,2.272-0.736,3.571-0.736c1.296,0,2.487,0.245,3.568,0.736c1.08,0.492,2.008,1.16,2.784,2.005
		c0.773,0.845,1.375,1.815,1.81,2.912c0.432,1.097,0.648,2.262,0.648,3.495c0,0.184-0.007,0.365-0.018,0.549
		c-0.012,0.183-0.029,0.308-0.051,0.377h-15.198c0.068,0.959,0.291,1.844,0.665,2.654c0.377,0.813,0.855,1.515,1.436,2.107
		c0.579,0.595,1.252,1.058,2.015,1.388c0.763,0.332,1.576,0.497,2.442,0.497c0.593,0,1.173-0.079,1.741-0.239
		c0.568-0.159,1.093-0.378,1.571-0.65c0.479-0.274,0.905-0.611,1.28-1.012c0.375-0.399,0.666-0.839,0.871-1.319l2.015,0.549
		c-0.273,0.663-0.659,1.262-1.159,1.799c-0.503,0.537-1.082,1.005-1.744,1.404c-0.658,0.4-1.388,0.709-2.184,0.926
		C231.533,79.02,230.714,79.128,229.872,79.128 M236.43,68.917c-0.068-0.959-0.291-1.833-0.666-2.622
		c-0.377-0.787-0.855-1.467-1.435-2.038c-0.58-0.571-1.259-1.017-2.032-1.337c-0.774-0.319-1.594-0.479-2.458-0.479
		c-0.866,0-1.687,0.159-2.46,0.479c-0.773,0.32-1.453,0.766-2.032,1.337c-0.58,0.571-1.047,1.256-1.399,2.057
		c-0.354,0.8-0.564,1.668-0.633,2.604H236.43z"/>
	<path clip-path="url(#SVGID_2_)" fill-rule="evenodd" clip-rule="evenodd" fill="#312827" d="M64.661,7.33
		c27.425,1.459,49.405,23.514,50.862,51.029H101c-1.415-19.48-16.924-35.045-36.339-36.467V7.33z"/>
	<path clip-path="url(#SVGID_2_)" fill-rule="evenodd" clip-rule="evenodd" fill="#312827" d="M58.857,115.21
		C31.433,113.748,9.449,91.694,7.99,64.177h14.521c1.422,19.48,16.931,35.048,36.346,36.466V115.21z"/>
	<path clip-path="url(#SVGID_2_)" fill-rule="evenodd" clip-rule="evenodd" fill="#312827" d="M7.995,58.359
		C9.452,30.843,31.432,8.788,58.857,7.327l0.002,14.571c-19.417,1.42-34.93,16.981-36.347,36.461H7.995z"/>
	<path clip-path="url(#SVGID_2_)" fill-rule="evenodd" clip-rule="evenodd" fill="#312827" d="M115.523,64.177
		c-1.457,27.519-23.437,49.571-50.862,51.036v-14.57c19.415-1.42,34.925-16.985,36.341-36.466H115.523z"/>
	<path clip-path="url(#SVGID_2_)" fill-rule="evenodd" clip-rule="evenodd" fill="#312827" d="M63.211,34.299
		c13.71,0.731,24.704,11.758,25.43,25.516H81.38c-0.708-9.739-8.467-17.523-18.169-18.232V34.299z"/>
	<path clip-path="url(#SVGID_2_)" fill-rule="evenodd" clip-rule="evenodd" fill="#312827" d="M60.31,88.24
		c-13.715-0.731-24.705-11.758-25.435-25.518h7.261c0.71,9.741,8.465,17.524,18.174,18.232V88.24z"/>
	<path clip-path="url(#SVGID_2_)" fill-rule="evenodd" clip-rule="evenodd" fill="#312827" d="M34.877,59.814
		c0.728-13.758,11.718-24.786,25.433-25.518v7.287c-9.709,0.709-17.466,8.492-18.174,18.23H34.877z"/>
	<path clip-path="url(#SVGID_2_)" fill-rule="evenodd" clip-rule="evenodd" fill="#312827" d="M88.641,62.723
		c-0.726,13.76-11.72,24.787-25.43,25.52v-7.286c9.709-0.71,17.461-8.492,18.171-18.233H88.641z"/>
	<path clip-path="url(#SVGID_2_)" fill="#B2835C" d="M7.71,14.265c0-0.58,0.102-1.157,0.305-1.733
		c0.204-0.574,0.499-1.089,0.887-1.541c0.389-0.453,0.868-0.822,1.436-1.107s1.215-0.428,1.936-0.428
		c0.859,0,1.589,0.194,2.195,0.584c0.603,0.39,1.055,0.896,1.353,1.521l-0.758,0.462c-0.154-0.317-0.337-0.584-0.556-0.801
		c-0.216-0.218-0.45-0.396-0.703-0.531c-0.253-0.136-0.515-0.233-0.785-0.292c-0.271-0.059-0.538-0.088-0.799-0.088
		c-0.578,0-1.088,0.118-1.531,0.354s-0.815,0.543-1.117,0.924c-0.303,0.38-0.531,0.808-0.684,1.283
		c-0.154,0.477-0.231,0.959-0.231,1.447c0,0.535,0.093,1.047,0.278,1.535c0.185,0.49,0.439,0.922,0.758,1.298
		c0.321,0.376,0.7,0.675,1.138,0.897c0.439,0.222,0.914,0.333,1.429,0.333c0.27,0,0.548-0.034,0.832-0.103
		c0.284-0.068,0.56-0.177,0.827-0.326c0.267-0.148,0.512-0.334,0.738-0.558c0.225-0.221,0.414-0.489,0.569-0.808l0.785,0.406
		c-0.153,0.363-0.37,0.683-0.65,0.959c-0.28,0.276-0.591,0.51-0.934,0.701c-0.343,0.189-0.706,0.334-1.09,0.434
		c-0.384,0.1-0.761,0.15-1.131,0.15c-0.659,0-1.264-0.146-1.815-0.436c-0.55-0.29-1.024-0.668-1.422-1.135
		c-0.398-0.467-0.706-0.996-0.928-1.59C7.82,15.486,7.71,14.881,7.71,14.265"/>
	<path clip-path="url(#SVGID_2_)" fill="#B2835C" d="M20.456,19.292c-0.516,0-0.988-0.099-1.416-0.292
		c-0.429-0.195-0.799-0.46-1.111-0.795c-0.311-0.335-0.553-0.725-0.724-1.169c-0.172-0.443-0.258-0.91-0.258-1.399
		c0-0.498,0.088-0.969,0.264-1.412c0.176-0.445,0.421-0.834,0.732-1.17c0.31-0.335,0.681-0.602,1.111-0.801
		c0.427-0.2,0.895-0.299,1.402-0.299c0.504,0,0.972,0.099,1.4,0.299c0.43,0.199,0.8,0.466,1.11,0.801
		c0.314,0.336,0.556,0.725,0.732,1.17c0.176,0.443,0.264,0.914,0.264,1.412c0,0.489-0.088,0.956-0.264,1.399
		c-0.176,0.444-0.418,0.834-0.732,1.169c-0.31,0.335-0.68,0.6-1.11,0.795C21.428,19.193,20.959,19.292,20.456,19.292 M17.895,15.65
		c0,0.398,0.065,0.768,0.196,1.106c0.132,0.341,0.313,0.64,0.541,0.897c0.232,0.259,0.502,0.459,0.814,0.604
		c0.311,0.146,0.643,0.218,0.995,0.218c0.351,0,0.684-0.074,0.995-0.224c0.313-0.149,0.585-0.354,0.82-0.612
		c0.234-0.258,0.419-0.559,0.556-0.904c0.135-0.344,0.203-0.715,0.203-1.113c0-0.389-0.068-0.76-0.203-1.107
		c-0.137-0.348-0.322-0.652-0.556-0.91c-0.235-0.259-0.507-0.461-0.813-0.611c-0.306-0.15-0.636-0.225-0.987-0.225
		c-0.353,0-0.685,0.074-0.997,0.225c-0.31,0.15-0.582,0.355-0.812,0.617c-0.231,0.264-0.413,0.569-0.549,0.918
		C17.961,14.879,17.895,15.252,17.895,15.65"/>
	<path clip-path="url(#SVGID_2_)" fill="#B2835C" d="M35.96,19.156h-0.921v-3.955c0-0.823-0.129-1.43-0.386-1.82
		c-0.256-0.389-0.647-0.584-1.171-0.584c-0.271,0-0.527,0.05-0.765,0.15c-0.24,0.099-0.46,0.24-0.663,0.42
		c-0.203,0.183-0.381,0.396-0.535,0.646s-0.272,0.522-0.352,0.822v4.321h-0.922v-3.955c0-0.842-0.127-1.453-0.379-1.834
		c-0.253-0.381-0.64-0.57-1.165-0.57c-0.532,0-1.006,0.186-1.422,0.557c-0.415,0.372-0.713,0.861-0.893,1.469v4.334h-0.92v-7.08
		h0.839v1.604c0.289-0.543,0.668-0.966,1.137-1.27c0.47-0.305,0.988-0.455,1.557-0.455c0.597,0,1.075,0.166,1.436,0.502
		s0.579,0.775,0.65,1.318c0.659-1.213,1.57-1.82,2.735-1.82c0.39,0,0.72,0.072,0.995,0.217c0.276,0.145,0.498,0.352,0.665,0.618
		c0.167,0.268,0.288,0.589,0.365,0.965c0.077,0.376,0.115,0.795,0.115,1.257V19.156z"/>
	<path clip-path="url(#SVGID_2_)" fill="#B2835C" d="M41.485,19.291c-0.596,0-1.124-0.15-1.585-0.455
		c-0.46-0.303-0.83-0.686-1.111-1.147v4.362h-0.92v-9.975h0.826v1.373c0.289-0.443,0.663-0.805,1.124-1.08
		c0.461-0.276,0.962-0.414,1.503-0.414c0.488,0,0.937,0.102,1.348,0.306c0.411,0.202,0.766,0.476,1.064,0.815
		c0.297,0.34,0.529,0.731,0.696,1.174c0.167,0.445,0.251,0.902,0.251,1.373c0,0.498-0.077,0.97-0.23,1.414
		c-0.154,0.442-0.372,0.832-0.657,1.168c-0.285,0.334-0.623,0.6-1.015,0.795C42.386,19.195,41.956,19.291,41.485,19.291
		 M41.228,18.477c0.38,0,0.724-0.082,1.029-0.245c0.307-0.163,0.572-0.378,0.793-0.646c0.222-0.266,0.391-0.57,0.508-0.909
		c0.117-0.341,0.177-0.69,0.177-1.054c0-0.381-0.069-0.742-0.203-1.086c-0.137-0.345-0.323-0.648-0.556-0.912
		c-0.235-0.262-0.514-0.471-0.833-0.625c-0.32-0.152-0.666-0.23-1.036-0.23c-0.235,0-0.479,0.048-0.732,0.143
		c-0.252,0.096-0.492,0.223-0.717,0.381c-0.226,0.158-0.418,0.345-0.576,0.558c-0.157,0.212-0.255,0.437-0.292,0.672v2.175
		c0.11,0.254,0.248,0.488,0.415,0.707c0.167,0.217,0.356,0.404,0.569,0.563c0.211,0.157,0.441,0.282,0.689,0.373
		C40.711,18.432,40.966,18.477,41.228,18.477"/>
	<path clip-path="url(#SVGID_2_)" fill="#B2835C" d="M48.068,19.293c-0.362,0-0.691-0.059-0.99-0.17
		c-0.298-0.115-0.552-0.271-0.765-0.47c-0.211-0.2-0.377-0.43-0.494-0.692c-0.117-0.264-0.176-0.539-0.176-0.83
		c0-0.326,0.073-0.623,0.217-0.89s0.347-0.495,0.61-0.687c0.262-0.19,0.575-0.338,0.94-0.441c0.366-0.104,0.77-0.156,1.213-0.156
		c0.352,0,0.712,0.032,1.082,0.096c0.37,0.063,0.701,0.154,0.99,0.271v-0.639c0-0.625-0.178-1.121-0.536-1.488
		c-0.357-0.365-0.838-0.55-1.441-0.55c-0.379,0-0.756,0.071-1.131,0.217s-0.756,0.353-1.145,0.626l-0.325-0.611
		c0.46-0.309,0.909-0.539,1.341-0.693c0.434-0.154,0.885-0.23,1.355-0.23c0.857,0,1.539,0.25,2.045,0.746
		c0.505,0.499,0.757,1.188,0.757,2.066v3.193c0,0.252,0.11,0.379,0.326,0.379v0.815c-0.074,0.009-0.14,0.017-0.204,0.021
		c-0.063,0.004-0.116,0.008-0.163,0.008c-0.18,0-0.344-0.055-0.493-0.163c-0.15-0.108-0.233-0.272-0.252-0.489l-0.026-0.558
		c-0.307,0.417-0.711,0.739-1.212,0.972C49.09,19.176,48.581,19.293,48.068,19.293 M48.297,18.586c0.407,0,0.811-0.09,1.212-0.266
		c0.402-0.177,0.721-0.419,0.955-0.727c0.063-0.082,0.117-0.17,0.163-0.266c0.045-0.096,0.068-0.183,0.068-0.265v-1.155
		c-0.307-0.117-0.628-0.208-0.962-0.271s-0.659-0.096-0.975-0.096c-0.659,0-1.194,0.135-1.606,0.401
		c-0.409,0.267-0.615,0.638-0.615,1.106c0,0.191,0.036,0.377,0.109,0.558c0.072,0.183,0.183,0.345,0.331,0.489
		c0.149,0.145,0.333,0.263,0.549,0.354C47.742,18.541,47.999,18.586,48.297,18.586"/>
	<path clip-path="url(#SVGID_2_)" fill="#B2835C" d="M59.552,19.156H58.63v-3.955c0-0.842-0.121-1.453-0.365-1.834
		c-0.244-0.381-0.623-0.57-1.138-0.57c-0.271,0-0.542,0.05-0.812,0.15c-0.272,0.099-0.524,0.24-0.759,0.42
		c-0.234,0.183-0.44,0.396-0.615,0.646c-0.177,0.249-0.31,0.519-0.401,0.81v4.334h-0.92v-7.08h0.84v1.604
		c0.144-0.253,0.321-0.486,0.534-0.699c0.212-0.213,0.449-0.396,0.711-0.551c0.263-0.154,0.54-0.271,0.833-0.354
		s0.598-0.121,0.914-0.121c0.398,0,0.729,0.072,0.996,0.217c0.266,0.145,0.48,0.35,0.643,0.611c0.163,0.263,0.28,0.584,0.353,0.965
		c0.072,0.381,0.108,0.802,0.108,1.264V19.156z"/>
	<path clip-path="url(#SVGID_2_)" fill="#B2835C" d="M61.731,21.344c0.044,0.009,0.091,0.016,0.135,0.02
		c0.046,0.004,0.09,0.008,0.136,0.008c0.089,0,0.187-0.01,0.291-0.027c0.104-0.02,0.178-0.037,0.223-0.055
		c0.046-0.019,0.092-0.057,0.143-0.115c0.049-0.059,0.112-0.163,0.189-0.313c0.076-0.149,0.174-0.358,0.291-0.625
		c0.117-0.268,0.266-0.627,0.446-1.08l-3.073-7.08h0.961l2.614,6.224l2.411-6.224h0.88l-3.669,9.131
		c-0.136,0.336-0.319,0.584-0.549,0.748c-0.231,0.162-0.554,0.244-0.968,0.244c-0.172,0-0.326-0.014-0.461-0.041V21.344z"/>
	<path clip-path="url(#SVGID_2_)" fill="#B2835C" d="M8.333,34.25v-9.647h3.982c0.415,0,0.796,0.089,1.143,0.267
		c0.349,0.176,0.649,0.406,0.902,0.692c0.253,0.285,0.448,0.609,0.589,0.972c0.139,0.361,0.209,0.729,0.209,1.1
		c0,0.4-0.065,0.781-0.197,1.148c-0.13,0.367-0.317,0.691-0.561,0.972c-0.242,0.28-0.535,0.508-0.873,0.679
		c-0.34,0.173-0.717,0.26-1.131,0.26H9.269v3.559H8.333z M9.269,29.848h3.073c0.28,0,0.535-0.061,0.766-0.184
		c0.23-0.123,0.427-0.284,0.59-0.488c0.162-0.204,0.288-0.439,0.379-0.707c0.089-0.268,0.134-0.545,0.134-0.836
		c0-0.299-0.051-0.581-0.155-0.85c-0.104-0.267-0.244-0.5-0.42-0.699c-0.177-0.198-0.384-0.355-0.623-0.469
		c-0.239-0.113-0.49-0.17-0.752-0.17H9.269V29.848z"/>
	<path clip-path="url(#SVGID_2_)" fill="#B2835C" d="M19.384,34.387c-0.514,0-0.987-0.098-1.415-0.293
		c-0.429-0.194-0.799-0.459-1.112-0.794c-0.31-0.335-0.553-0.726-0.723-1.169c-0.171-0.444-0.257-0.91-0.257-1.399
		c0-0.499,0.088-0.969,0.264-1.414c0.175-0.444,0.419-0.833,0.731-1.168c0.311-0.335,0.682-0.603,1.11-0.802
		c0.43-0.199,0.897-0.298,1.402-0.298s0.973,0.099,1.402,0.298c0.429,0.199,0.799,0.467,1.11,0.802s0.556,0.724,0.733,1.168
		c0.175,0.445,0.262,0.915,0.262,1.414c0,0.489-0.087,0.955-0.262,1.399c-0.177,0.443-0.422,0.834-0.733,1.169
		s-0.681,0.6-1.11,0.794C20.357,34.289,19.889,34.387,19.384,34.387 M16.825,30.744c0,0.399,0.064,0.769,0.196,1.107
		c0.13,0.34,0.311,0.639,0.542,0.896c0.23,0.259,0.5,0.461,0.812,0.605s0.642,0.217,0.996,0.217c0.352,0,0.683-0.074,0.995-0.224
		s0.585-0.353,0.818-0.61c0.237-0.26,0.421-0.561,0.556-0.904c0.137-0.344,0.204-0.715,0.204-1.114c0-0.39-0.067-0.759-0.204-1.108
		c-0.135-0.348-0.319-0.652-0.556-0.908c-0.233-0.26-0.505-0.463-0.81-0.613c-0.308-0.149-0.638-0.223-0.99-0.223
		s-0.684,0.073-0.996,0.223c-0.311,0.15-0.582,0.355-0.812,0.619c-0.23,0.263-0.413,0.567-0.549,0.916
		C16.893,29.973,16.825,30.347,16.825,30.744"/>
	<path clip-path="url(#SVGID_2_)" fill="#B2835C" d="M26.752,34.387c-0.552,0-1.088-0.092-1.613-0.272
		c-0.522-0.181-0.974-0.442-1.353-0.788l0.42-0.625c0.397,0.326,0.801,0.57,1.211,0.732c0.411,0.164,0.851,0.246,1.32,0.246
		c0.569,0,1.023-0.115,1.363-0.347c0.338-0.231,0.506-0.559,0.506-0.985c0-0.198-0.043-0.364-0.134-0.496
		c-0.09-0.131-0.225-0.246-0.4-0.346c-0.175-0.1-0.398-0.188-0.664-0.266c-0.266-0.077-0.576-0.156-0.927-0.236
		c-0.407-0.101-0.758-0.201-1.057-0.3c-0.298-0.101-0.544-0.213-0.737-0.34c-0.196-0.127-0.339-0.283-0.434-0.47
		c-0.095-0.185-0.142-0.418-0.142-0.698c0-0.353,0.07-0.666,0.209-0.938c0.14-0.271,0.329-0.496,0.57-0.673
		c0.238-0.176,0.518-0.31,0.839-0.401c0.321-0.09,0.661-0.135,1.023-0.135c0.541,0,1.033,0.088,1.476,0.266
		c0.442,0.176,0.799,0.408,1.07,0.699l-0.446,0.543c-0.263-0.271-0.581-0.476-0.955-0.61c-0.376-0.136-0.766-0.205-1.173-0.205
		c-0.243,0-0.469,0.024-0.677,0.075c-0.207,0.05-0.39,0.13-0.549,0.238c-0.157,0.108-0.281,0.246-0.372,0.414
		s-0.135,0.365-0.135,0.592c0,0.189,0.032,0.344,0.095,0.461c0.062,0.117,0.167,0.22,0.312,0.306
		c0.143,0.086,0.327,0.163,0.548,0.231c0.22,0.067,0.49,0.139,0.806,0.211c0.45,0.109,0.849,0.217,1.191,0.326
		c0.344,0.108,0.63,0.234,0.86,0.379c0.231,0.146,0.404,0.322,0.522,0.531c0.116,0.209,0.176,0.461,0.176,0.76
		c0,0.654-0.249,1.168-0.745,1.55C28.259,34.196,27.592,34.387,26.752,34.387"/>
	<path clip-path="url(#SVGID_2_)" fill="#B2835C" d="M30.976,24.332h0.922v1.357h-0.922V24.332z M30.976,27.171h0.922v7.079h-0.922
		V27.171z"/>
	<path clip-path="url(#SVGID_2_)" fill="#B2835C" d="M37.288,33.91c-0.055,0.027-0.134,0.063-0.237,0.108
		c-0.104,0.046-0.223,0.091-0.36,0.138c-0.134,0.045-0.289,0.086-0.461,0.121c-0.171,0.036-0.351,0.055-0.541,0.055
		c-0.198,0-0.387-0.027-0.568-0.082c-0.181-0.053-0.339-0.139-0.474-0.252c-0.135-0.112-0.244-0.254-0.325-0.428
		c-0.082-0.172-0.121-0.371-0.121-0.597v-5.069h-0.976v-0.732h0.976v-2.391h0.92v2.391h1.625v0.732h-1.625v4.811
		c0.019,0.263,0.109,0.455,0.271,0.576c0.162,0.123,0.356,0.185,0.582,0.185c0.261,0,0.493-0.043,0.691-0.129
		c0.198-0.086,0.325-0.147,0.379-0.185L37.288,33.91z"/>
	<path clip-path="url(#SVGID_2_)" fill="#B2835C" d="M38.371,24.332h0.92v1.357h-0.92V24.332z M38.371,27.171h0.92v7.079h-0.92
		V27.171z"/>
	<path clip-path="url(#SVGID_2_)" fill="#B2835C" d="M44.317,34.387c-0.514,0-0.988-0.098-1.416-0.293
		c-0.429-0.194-0.799-0.459-1.111-0.794c-0.31-0.335-0.554-0.726-0.724-1.169c-0.171-0.444-0.257-0.91-0.257-1.399
		c0-0.499,0.089-0.969,0.264-1.414c0.176-0.444,0.419-0.833,0.732-1.168c0.311-0.335,0.681-0.603,1.109-0.802
		c0.43-0.199,0.898-0.298,1.403-0.298s0.972,0.099,1.401,0.298s0.799,0.467,1.111,0.802c0.311,0.335,0.555,0.724,0.732,1.168
		c0.175,0.445,0.263,0.915,0.263,1.414c0,0.489-0.088,0.955-0.263,1.399c-0.177,0.443-0.421,0.834-0.732,1.169
		c-0.312,0.335-0.682,0.6-1.111,0.794C45.289,34.289,44.822,34.387,44.317,34.387 M41.757,30.744c0,0.399,0.065,0.769,0.196,1.107
		c0.13,0.34,0.311,0.639,0.542,0.896c0.23,0.259,0.5,0.461,0.813,0.605c0.311,0.145,0.642,0.217,0.995,0.217
		c0.352,0,0.683-0.074,0.995-0.224s0.585-0.353,0.819-0.61c0.236-0.26,0.421-0.561,0.555-0.904c0.137-0.344,0.204-0.715,0.204-1.114
		c0-0.39-0.067-0.759-0.204-1.108c-0.134-0.348-0.319-0.652-0.555-0.908c-0.234-0.26-0.505-0.463-0.811-0.613
		c-0.308-0.149-0.637-0.223-0.989-0.223c-0.353,0-0.684,0.073-0.997,0.223c-0.311,0.15-0.582,0.355-0.811,0.619
		c-0.231,0.263-0.414,0.567-0.549,0.916C41.825,29.973,41.757,30.347,41.757,30.744"/>
	<path clip-path="url(#SVGID_2_)" fill="#B2835C" d="M55.258,34.25h-0.92v-3.954c0-0.842-0.123-1.453-0.365-1.834
		c-0.245-0.38-0.624-0.571-1.139-0.571c-0.269,0-0.541,0.051-0.812,0.15s-0.525,0.24-0.758,0.421
		c-0.236,0.183-0.442,0.397-0.617,0.646c-0.176,0.25-0.309,0.519-0.4,0.809v4.334h-0.921v-7.079h0.84v1.603
		c0.146-0.252,0.323-0.485,0.535-0.698c0.212-0.214,0.45-0.396,0.711-0.552c0.262-0.153,0.539-0.271,0.832-0.353
		c0.294-0.082,0.599-0.122,0.915-0.122c0.397,0,0.73,0.073,0.995,0.219c0.266,0.144,0.482,0.348,0.644,0.61s0.279,0.584,0.352,0.965
		c0.073,0.38,0.108,0.802,0.108,1.263V34.25z"/>
	<path clip-path="url(#SVGID_2_)" fill="#B2835C" d="M7.318,49.345l4.022-9.647h0.772l4.022,9.647H15.12l-1.247-3.017h-4.32
		L8.32,49.345H7.318z M11.733,40.812L9.755,45.58h3.9L11.733,40.812z"/>
	<path clip-path="url(#SVGID_2_)" fill="#B2835C" d="M19.994,49.48c-0.488,0-0.939-0.103-1.355-0.306
		c-0.414-0.204-0.773-0.473-1.075-0.808c-0.304-0.335-0.538-0.723-0.706-1.162c-0.166-0.439-0.25-0.898-0.25-1.379
		c0-0.498,0.082-0.973,0.244-1.42c0.163-0.449,0.386-0.842,0.67-1.176c0.284-0.336,0.624-0.6,1.016-0.795
		c0.392-0.194,0.825-0.291,1.293-0.291c0.596,0,1.124,0.154,1.585,0.467c0.461,0.313,0.827,0.691,1.097,1.136v-4.321h0.921v8.723
		c0,0.254,0.107,0.381,0.326,0.381v0.816c-0.154,0.026-0.276,0.041-0.366,0.041c-0.228,0-0.412-0.066-0.556-0.199
		c-0.145-0.131-0.216-0.287-0.216-0.467v-0.748c-0.29,0.461-0.67,0.828-1.145,1.101S20.508,49.48,19.994,49.48 M20.184,48.665
		c0.234,0,0.48-0.045,0.738-0.136c0.256-0.09,0.496-0.215,0.717-0.373c0.222-0.159,0.413-0.346,0.575-0.557
		c0.163-0.213,0.263-0.442,0.299-0.687v-2.188c-0.09-0.244-0.224-0.474-0.4-0.686c-0.176-0.213-0.374-0.4-0.595-0.564
		c-0.222-0.164-0.456-0.289-0.705-0.379c-0.248-0.092-0.494-0.138-0.737-0.138c-0.38,0-0.725,0.082-1.037,0.246
		c-0.312,0.163-0.576,0.378-0.792,0.646c-0.216,0.267-0.386,0.571-0.507,0.916c-0.123,0.344-0.183,0.697-0.183,1.061
		c0,0.38,0.067,0.742,0.203,1.087c0.134,0.344,0.32,0.646,0.555,0.903c0.234,0.258,0.512,0.463,0.832,0.617
		C19.468,48.588,19.813,48.665,20.184,48.665"/>
	<path clip-path="url(#SVGID_2_)" fill="#B2835C" d="M28.43,49.48c-0.487,0-0.939-0.103-1.354-0.306
		c-0.415-0.204-0.773-0.473-1.076-0.808c-0.303-0.335-0.537-0.723-0.704-1.162c-0.168-0.439-0.252-0.898-0.252-1.379
		c0-0.498,0.082-0.973,0.245-1.42c0.163-0.449,0.386-0.842,0.67-1.176c0.284-0.336,0.624-0.6,1.016-0.795
		c0.392-0.194,0.824-0.291,1.294-0.291c0.595,0,1.123,0.154,1.583,0.467c0.461,0.313,0.827,0.691,1.097,1.136v-4.321h0.922v8.723
		c0,0.254,0.107,0.381,0.325,0.381v0.816c-0.153,0.026-0.275,0.041-0.366,0.041c-0.226,0-0.411-0.066-0.556-0.199
		c-0.144-0.131-0.216-0.287-0.216-0.467v-0.748c-0.29,0.461-0.67,0.828-1.145,1.101C29.439,49.346,28.946,49.48,28.43,49.48
		 M28.621,48.665c0.234,0,0.48-0.045,0.737-0.136c0.258-0.09,0.497-0.215,0.718-0.373c0.221-0.159,0.413-0.346,0.576-0.557
		c0.163-0.213,0.262-0.442,0.297-0.687v-2.188c-0.09-0.244-0.223-0.474-0.398-0.686c-0.177-0.213-0.375-0.4-0.597-0.564
		s-0.455-0.289-0.704-0.379c-0.249-0.092-0.494-0.138-0.738-0.138c-0.379,0-0.725,0.082-1.037,0.246
		c-0.31,0.163-0.575,0.378-0.791,0.646c-0.217,0.267-0.385,0.571-0.508,0.916c-0.122,0.344-0.183,0.697-0.183,1.061
		c0,0.38,0.067,0.742,0.203,1.087c0.136,0.344,0.321,0.646,0.556,0.903c0.234,0.258,0.512,0.463,0.832,0.617
		C27.905,48.588,28.25,48.665,28.621,48.665"/>
	<path clip-path="url(#SVGID_2_)" fill="#B2835C" d="M37.463,43.08c-0.623,0.02-1.164,0.191-1.624,0.518
		c-0.461,0.326-0.786,0.773-0.976,1.345v4.402h-0.921v-7.079h0.867v1.699c0.244-0.499,0.564-0.913,0.962-1.244
		c0.397-0.33,0.826-0.496,1.287-0.496h0.229c0.072,0,0.132,0.005,0.176,0.014V43.08z"/>
	<path clip-path="url(#SVGID_2_)" fill="#B2835C" d="M41.783,49.48c-0.514,0-0.988-0.097-1.421-0.293
		c-0.434-0.193-0.809-0.461-1.124-0.801c-0.317-0.34-0.562-0.73-0.739-1.176c-0.177-0.443-0.264-0.918-0.264-1.426
		c0-0.498,0.087-0.968,0.264-1.406c0.177-0.439,0.422-0.824,0.739-1.155c0.315-0.331,0.687-0.593,1.117-0.788
		c0.428-0.195,0.9-0.292,1.415-0.292c0.515,0,0.987,0.097,1.416,0.292c0.428,0.195,0.797,0.46,1.103,0.795
		c0.307,0.335,0.546,0.721,0.717,1.155c0.172,0.435,0.258,0.897,0.258,1.386c0,0.072-0.002,0.145-0.007,0.217
		c-0.004,0.072-0.011,0.123-0.019,0.15h-6.027c0.027,0.38,0.114,0.73,0.264,1.053c0.148,0.321,0.338,0.6,0.568,0.835
		c0.231,0.236,0.497,0.419,0.799,0.55c0.303,0.133,0.626,0.197,0.969,0.197c0.235,0,0.464-0.031,0.691-0.094
		c0.225-0.064,0.432-0.15,0.621-0.26c0.19-0.108,0.36-0.241,0.51-0.4c0.147-0.158,0.264-0.333,0.345-0.523l0.799,0.219
		c-0.108,0.262-0.262,0.5-0.46,0.713c-0.2,0.212-0.43,0.398-0.691,0.557c-0.263,0.159-0.551,0.281-0.867,0.366
		C42.443,49.438,42.117,49.48,41.783,49.48 M44.384,45.432c-0.027-0.38-0.115-0.727-0.264-1.04c-0.15-0.312-0.34-0.581-0.569-0.808
		c-0.23-0.228-0.499-0.403-0.807-0.53c-0.306-0.127-0.631-0.19-0.974-0.19c-0.344,0-0.667,0.063-0.975,0.19
		c-0.307,0.127-0.575,0.303-0.806,0.53c-0.23,0.227-0.416,0.498-0.555,0.814c-0.14,0.317-0.223,0.661-0.25,1.033H44.384z"/>
	<path clip-path="url(#SVGID_2_)" fill="#B2835C" d="M49.016,49.48c-0.552,0-1.089-0.09-1.611-0.271
		c-0.526-0.182-0.976-0.443-1.355-0.789l0.42-0.625c0.397,0.326,0.8,0.572,1.212,0.734c0.41,0.163,0.851,0.244,1.32,0.244
		c0.569,0,1.023-0.115,1.361-0.346c0.339-0.231,0.508-0.559,0.508-0.985c0-0.198-0.045-0.364-0.136-0.496
		c-0.09-0.131-0.223-0.247-0.399-0.346c-0.176-0.101-0.397-0.188-0.664-0.267c-0.266-0.076-0.575-0.155-0.927-0.236
		c-0.406-0.1-0.758-0.2-1.056-0.299c-0.298-0.1-0.545-0.213-0.738-0.34c-0.195-0.127-0.339-0.283-0.434-0.47
		c-0.095-0.185-0.142-0.418-0.142-0.698c0-0.354,0.07-0.666,0.209-0.938c0.14-0.272,0.33-0.496,0.569-0.673
		c0.24-0.176,0.52-0.311,0.84-0.401c0.321-0.09,0.662-0.135,1.023-0.135c0.542,0,1.033,0.088,1.477,0.265
		c0.44,0.176,0.797,0.409,1.069,0.7l-0.448,0.543c-0.261-0.272-0.579-0.476-0.954-0.61c-0.375-0.137-0.765-0.205-1.17-0.205
		c-0.245,0-0.47,0.025-0.679,0.076c-0.208,0.049-0.391,0.129-0.547,0.236c-0.159,0.109-0.283,0.248-0.373,0.415
		s-0.137,0.365-0.137,0.591c0,0.19,0.033,0.344,0.095,0.463c0.064,0.117,0.168,0.219,0.313,0.305
		c0.143,0.086,0.327,0.162,0.548,0.23c0.222,0.068,0.49,0.139,0.806,0.211c0.451,0.109,0.849,0.217,1.192,0.326
		c0.342,0.109,0.628,0.236,0.86,0.38c0.229,0.146,0.403,0.322,0.52,0.531c0.117,0.208,0.176,0.462,0.176,0.76
		c0,0.653-0.248,1.169-0.745,1.55C50.523,49.291,49.855,49.48,49.016,49.48"/>
	<path clip-path="url(#SVGID_2_)" fill="#B2835C" d="M55.61,49.48c-0.551,0-1.089-0.09-1.611-0.271
		c-0.525-0.182-0.976-0.443-1.355-0.789l0.42-0.625c0.397,0.326,0.8,0.572,1.212,0.734c0.41,0.163,0.852,0.244,1.32,0.244
		c0.57,0,1.024-0.115,1.361-0.346c0.34-0.231,0.509-0.559,0.509-0.985c0-0.198-0.046-0.364-0.136-0.496
		c-0.091-0.131-0.223-0.247-0.4-0.346c-0.176-0.101-0.396-0.188-0.663-0.267c-0.267-0.076-0.576-0.155-0.928-0.236
		c-0.406-0.1-0.758-0.2-1.056-0.299c-0.297-0.1-0.544-0.213-0.738-0.34c-0.195-0.127-0.338-0.283-0.433-0.47
		c-0.095-0.185-0.143-0.418-0.143-0.698c0-0.354,0.07-0.666,0.209-0.938c0.141-0.272,0.33-0.496,0.57-0.673
		c0.24-0.176,0.519-0.311,0.84-0.401c0.32-0.09,0.661-0.135,1.022-0.135c0.542,0,1.034,0.088,1.477,0.265
		c0.441,0.176,0.797,0.409,1.069,0.7l-0.447,0.543c-0.262-0.272-0.58-0.476-0.955-0.61c-0.374-0.137-0.765-0.205-1.17-0.205
		c-0.245,0-0.47,0.025-0.678,0.076c-0.208,0.049-0.392,0.129-0.548,0.236c-0.159,0.109-0.283,0.248-0.372,0.415
		c-0.091,0.167-0.137,0.365-0.137,0.591c0,0.19,0.032,0.344,0.095,0.463c0.063,0.117,0.167,0.219,0.312,0.305
		c0.144,0.086,0.327,0.162,0.548,0.23c0.222,0.068,0.49,0.139,0.806,0.211c0.452,0.109,0.849,0.217,1.192,0.326
		c0.342,0.109,0.628,0.236,0.86,0.38c0.229,0.146,0.403,0.322,0.52,0.531c0.118,0.208,0.177,0.462,0.177,0.76
		c0,0.653-0.248,1.169-0.745,1.55C57.118,49.291,56.45,49.48,55.61,49.48"/>
	<path clip-path="url(#SVGID_2_)" fill="#B2835C" d="M7.318,64.512l4.022-9.647h0.772l4.022,9.647H15.12l-1.247-3.016h-4.32
		L8.32,64.512H7.318z M11.733,55.979l-1.978,4.77h3.9L11.733,55.979z"/>
	<path clip-path="url(#SVGID_2_)" fill="#B2835C" d="M19.994,64.647c-0.488,0-0.939-0.103-1.355-0.306
		c-0.414-0.204-0.773-0.473-1.075-0.809c-0.304-0.335-0.538-0.723-0.706-1.162c-0.166-0.438-0.25-0.898-0.25-1.378
		c0-0.499,0.082-0.972,0.244-1.42c0.163-0.449,0.386-0.841,0.67-1.177c0.284-0.334,0.624-0.6,1.016-0.793
		c0.392-0.195,0.825-0.293,1.293-0.293c0.596,0,1.124,0.155,1.585,0.469c0.461,0.313,0.827,0.691,1.097,1.135v-4.321h0.921v8.723
		c0,0.254,0.107,0.381,0.326,0.381v0.815c-0.154,0.027-0.276,0.04-0.366,0.04c-0.228,0-0.412-0.064-0.556-0.196
		c-0.145-0.132-0.216-0.288-0.216-0.469v-0.748c-0.29,0.462-0.67,0.829-1.145,1.101C21.001,64.512,20.508,64.647,19.994,64.647
		 M20.184,63.832c0.234,0,0.48-0.045,0.738-0.136c0.256-0.09,0.496-0.215,0.717-0.373c0.222-0.159,0.413-0.346,0.575-0.558
		c0.163-0.213,0.263-0.441,0.299-0.686v-2.188c-0.09-0.246-0.224-0.475-0.4-0.687c-0.176-0.213-0.374-0.401-0.595-0.563
		c-0.222-0.164-0.456-0.291-0.705-0.381c-0.248-0.091-0.494-0.137-0.737-0.137c-0.38,0-0.725,0.082-1.037,0.245
		s-0.576,0.379-0.792,0.646s-0.386,0.572-0.507,0.918c-0.123,0.344-0.183,0.696-0.183,1.06c0,0.38,0.067,0.741,0.203,1.087
		c0.134,0.344,0.32,0.645,0.555,0.903c0.234,0.258,0.512,0.464,0.832,0.617C19.468,63.755,19.813,63.832,20.184,63.832"/>
	<path clip-path="url(#SVGID_2_)" fill="#B2835C" d="M28.43,64.647c-0.487,0-0.939-0.103-1.354-0.306
		c-0.415-0.204-0.773-0.473-1.076-0.809c-0.303-0.335-0.537-0.723-0.704-1.162c-0.168-0.438-0.252-0.898-0.252-1.378
		c0-0.499,0.082-0.972,0.245-1.42c0.163-0.449,0.386-0.841,0.67-1.177c0.284-0.334,0.624-0.6,1.016-0.793
		c0.392-0.195,0.824-0.293,1.294-0.293c0.595,0,1.123,0.155,1.583,0.469c0.461,0.313,0.827,0.691,1.097,1.135v-4.321h0.922v8.723
		c0,0.254,0.107,0.381,0.325,0.381v0.815c-0.153,0.027-0.275,0.04-0.366,0.04c-0.226,0-0.411-0.064-0.556-0.196
		c-0.144-0.132-0.216-0.288-0.216-0.469v-0.748c-0.29,0.462-0.67,0.829-1.145,1.101C29.439,64.512,28.946,64.647,28.43,64.647
		 M28.621,63.832c0.234,0,0.48-0.045,0.737-0.136c0.258-0.09,0.497-0.215,0.718-0.373c0.221-0.159,0.413-0.346,0.576-0.558
		c0.163-0.213,0.262-0.441,0.297-0.686v-2.188c-0.09-0.246-0.223-0.475-0.398-0.687c-0.177-0.213-0.375-0.401-0.597-0.563
		c-0.222-0.164-0.455-0.291-0.704-0.381c-0.249-0.091-0.494-0.137-0.738-0.137c-0.379,0-0.725,0.082-1.037,0.245
		c-0.31,0.163-0.575,0.379-0.791,0.646c-0.217,0.267-0.385,0.572-0.508,0.918c-0.122,0.344-0.183,0.696-0.183,1.06
		c0,0.38,0.067,0.741,0.203,1.087c0.136,0.344,0.321,0.645,0.556,0.903c0.234,0.258,0.512,0.464,0.832,0.617
		C27.905,63.755,28.25,63.832,28.621,63.832"/>
	<path clip-path="url(#SVGID_2_)" fill="#B2835C" d="M37.463,58.248c-0.623,0.018-1.164,0.19-1.624,0.516
		c-0.461,0.326-0.786,0.775-0.976,1.345v4.403h-0.921v-7.079h0.867v1.698c0.244-0.498,0.564-0.912,0.962-1.243
		c0.397-0.33,0.826-0.496,1.287-0.496h0.229c0.072,0,0.132,0.005,0.176,0.015V58.248z"/>
	<path clip-path="url(#SVGID_2_)" fill="#B2835C" d="M41.783,64.647c-0.514,0-0.988-0.098-1.421-0.292
		c-0.434-0.195-0.809-0.462-1.124-0.803c-0.317-0.339-0.562-0.73-0.739-1.175c-0.177-0.444-0.264-0.919-0.264-1.426
		c0-0.499,0.087-0.968,0.264-1.407c0.177-0.439,0.422-0.824,0.739-1.154c0.315-0.33,0.687-0.594,1.117-0.789
		c0.428-0.193,0.9-0.291,1.415-0.291c0.515,0,0.987,0.098,1.416,0.291c0.428,0.195,0.797,0.461,1.103,0.795
		c0.307,0.336,0.546,0.721,0.717,1.156c0.172,0.435,0.258,0.896,0.258,1.385c0,0.074-0.002,0.146-0.007,0.219
		c-0.004,0.072-0.011,0.122-0.019,0.148h-6.027c0.027,0.381,0.114,0.731,0.264,1.054c0.148,0.32,0.338,0.6,0.568,0.835
		c0.231,0.235,0.497,0.419,0.799,0.551c0.303,0.131,0.626,0.197,0.969,0.197c0.235,0,0.464-0.032,0.691-0.096
		c0.225-0.063,0.432-0.149,0.621-0.258c0.19-0.109,0.36-0.242,0.51-0.4c0.147-0.159,0.264-0.333,0.345-0.523l0.799,0.217
		c-0.108,0.263-0.262,0.5-0.46,0.713c-0.2,0.213-0.43,0.399-0.691,0.558c-0.263,0.159-0.551,0.28-0.867,0.367
		C42.443,64.604,42.117,64.647,41.783,64.647 M44.384,60.598c-0.027-0.379-0.115-0.727-0.264-1.039
		c-0.15-0.313-0.34-0.582-0.569-0.809c-0.23-0.227-0.499-0.402-0.807-0.529c-0.306-0.127-0.631-0.19-0.974-0.19
		c-0.344,0-0.667,0.063-0.975,0.19c-0.307,0.127-0.575,0.303-0.806,0.529c-0.23,0.227-0.416,0.498-0.555,0.814
		c-0.14,0.318-0.223,0.662-0.25,1.033H44.384z"/>
	<path clip-path="url(#SVGID_2_)" fill="#B2835C" d="M49.016,64.647c-0.552,0-1.089-0.091-1.611-0.271
		c-0.526-0.182-0.976-0.443-1.355-0.788l0.42-0.625c0.397,0.325,0.8,0.57,1.212,0.733c0.41,0.163,0.851,0.244,1.32,0.244
		c0.569,0,1.023-0.115,1.361-0.346c0.339-0.231,0.508-0.56,0.508-0.986c0-0.198-0.045-0.364-0.136-0.495
		c-0.09-0.132-0.223-0.246-0.399-0.346c-0.176-0.1-0.397-0.188-0.664-0.266c-0.266-0.078-0.575-0.156-0.927-0.237
		c-0.406-0.101-0.758-0.2-1.056-0.3c-0.298-0.1-0.545-0.213-0.738-0.34c-0.195-0.125-0.339-0.283-0.434-0.469
		c-0.095-0.185-0.142-0.418-0.142-0.699c0-0.353,0.07-0.666,0.209-0.938c0.14-0.271,0.33-0.496,0.569-0.673
		c0.24-0.177,0.52-0.31,0.84-0.401c0.321-0.09,0.662-0.135,1.023-0.135c0.542,0,1.033,0.088,1.477,0.266
		c0.44,0.176,0.797,0.408,1.069,0.699l-0.448,0.543c-0.261-0.271-0.579-0.477-0.954-0.611c-0.375-0.136-0.765-0.205-1.17-0.205
		c-0.245,0-0.47,0.025-0.679,0.076c-0.208,0.049-0.391,0.129-0.547,0.237c-0.159,0.108-0.283,0.247-0.373,0.415
		c-0.09,0.167-0.137,0.365-0.137,0.591c0,0.19,0.033,0.345,0.095,0.462c0.064,0.118,0.168,0.219,0.313,0.305
		c0.143,0.086,0.327,0.164,0.548,0.231c0.222,0.068,0.49,0.14,0.806,0.211c0.451,0.109,0.849,0.218,1.192,0.326
		c0.342,0.108,0.628,0.235,0.86,0.38c0.229,0.145,0.403,0.322,0.52,0.531c0.117,0.208,0.176,0.461,0.176,0.76
		c0,0.653-0.248,1.169-0.745,1.55C50.523,64.457,49.855,64.647,49.016,64.647"/>
	<path clip-path="url(#SVGID_2_)" fill="#B2835C" d="M55.61,64.647c-0.551,0-1.089-0.091-1.611-0.271
		c-0.525-0.182-0.976-0.443-1.355-0.788l0.42-0.625c0.397,0.325,0.8,0.57,1.212,0.733c0.41,0.163,0.852,0.244,1.32,0.244
		c0.57,0,1.024-0.115,1.361-0.346c0.34-0.231,0.509-0.56,0.509-0.986c0-0.198-0.046-0.364-0.136-0.495
		c-0.091-0.132-0.223-0.246-0.4-0.346c-0.176-0.1-0.396-0.188-0.663-0.266c-0.267-0.078-0.576-0.156-0.928-0.237
		c-0.406-0.101-0.758-0.2-1.056-0.3c-0.297-0.1-0.544-0.213-0.738-0.34c-0.195-0.125-0.338-0.283-0.433-0.469
		c-0.095-0.185-0.143-0.418-0.143-0.699c0-0.353,0.07-0.666,0.209-0.938c0.141-0.271,0.33-0.496,0.57-0.673
		c0.24-0.177,0.519-0.31,0.84-0.401c0.32-0.09,0.661-0.135,1.022-0.135c0.542,0,1.034,0.088,1.477,0.266
		c0.441,0.176,0.797,0.408,1.069,0.699l-0.447,0.543c-0.262-0.271-0.58-0.477-0.955-0.611c-0.374-0.136-0.765-0.205-1.17-0.205
		c-0.245,0-0.47,0.025-0.678,0.076c-0.208,0.049-0.392,0.129-0.548,0.237c-0.159,0.108-0.283,0.247-0.372,0.415
		c-0.091,0.167-0.137,0.365-0.137,0.591c0,0.19,0.032,0.345,0.095,0.462c0.063,0.118,0.167,0.219,0.312,0.305
		c0.144,0.086,0.327,0.164,0.548,0.231c0.222,0.068,0.49,0.14,0.806,0.211c0.452,0.109,0.849,0.218,1.192,0.326
		c0.342,0.108,0.628,0.235,0.86,0.38c0.229,0.145,0.403,0.322,0.52,0.531c0.118,0.208,0.177,0.461,0.177,0.76
		c0,0.653-0.248,1.169-0.745,1.55C57.118,64.457,56.45,64.647,55.61,64.647"/>
	<path clip-path="url(#SVGID_2_)" fill="#B2835C" d="M8.333,79.817V70.17h3.982c0.415,0,0.796,0.089,1.143,0.266
		c0.349,0.176,0.649,0.407,0.902,0.693c0.253,0.285,0.448,0.608,0.589,0.971c0.139,0.362,0.209,0.73,0.209,1.1
		c0,0.4-0.065,0.782-0.197,1.149c-0.13,0.367-0.317,0.691-0.561,0.971c-0.242,0.281-0.535,0.508-0.873,0.68
		c-0.34,0.173-0.717,0.259-1.131,0.259H9.269v3.56H8.333z M9.269,75.415h3.073c0.28,0,0.535-0.062,0.766-0.184
		c0.23-0.123,0.427-0.285,0.59-0.489c0.162-0.203,0.288-0.439,0.379-0.707c0.089-0.267,0.134-0.545,0.134-0.836
		c0-0.298-0.051-0.581-0.155-0.849c-0.104-0.267-0.244-0.5-0.42-0.699c-0.177-0.199-0.384-0.355-0.623-0.469
		c-0.239-0.113-0.49-0.17-0.752-0.17H9.269V75.415z"/>
	<path clip-path="url(#SVGID_2_)" fill="#B2835C" d="M22.444,79.817h-0.92v-3.955c0-0.806-0.139-1.407-0.413-1.806
		c-0.276-0.399-0.681-0.599-1.213-0.599c-0.261,0-0.521,0.053-0.779,0.156c-0.257,0.104-0.498,0.247-0.724,0.428
		c-0.226,0.182-0.422,0.395-0.59,0.64c-0.166,0.244-0.291,0.511-0.372,0.801v4.335h-0.921v-9.919h0.921v4.443
		c0.288-0.535,0.682-0.956,1.179-1.265c0.496-0.307,1.029-0.461,1.599-0.461c0.405,0,0.751,0.074,1.035,0.224
		c0.285,0.149,0.513,0.358,0.69,0.626c0.176,0.267,0.306,0.589,0.386,0.964c0.081,0.376,0.122,0.791,0.122,1.243V79.817z"/>
	<path clip-path="url(#SVGID_2_)" fill="#B2835C" d="M27.401,79.953c-0.514,0-0.987-0.098-1.415-0.293
		c-0.429-0.194-0.799-0.459-1.111-0.794c-0.311-0.335-0.554-0.725-0.724-1.169c-0.171-0.443-0.257-0.91-0.257-1.399
		c0-0.498,0.089-0.969,0.264-1.413c0.176-0.444,0.419-0.833,0.731-1.168s0.682-0.603,1.11-0.803c0.43-0.198,0.897-0.298,1.402-0.298
		s0.973,0.1,1.402,0.298c0.429,0.2,0.799,0.468,1.11,0.803c0.312,0.335,0.556,0.724,0.733,1.168
		c0.175,0.444,0.262,0.915,0.262,1.413c0,0.489-0.087,0.956-0.262,1.399c-0.177,0.444-0.421,0.834-0.733,1.169
		c-0.311,0.335-0.681,0.6-1.11,0.794C28.374,79.855,27.906,79.953,27.401,79.953 M24.842,76.312c0,0.399,0.064,0.768,0.196,1.107
		c0.13,0.34,0.311,0.639,0.542,0.896c0.23,0.258,0.5,0.46,0.813,0.605c0.311,0.145,0.642,0.217,0.995,0.217
		c0.352,0,0.683-0.075,0.995-0.225s0.585-0.353,0.818-0.61c0.237-0.259,0.422-0.561,0.556-0.904
		c0.137-0.344,0.204-0.715,0.204-1.114c0-0.39-0.067-0.759-0.204-1.107c-0.134-0.349-0.319-0.652-0.556-0.91
		c-0.233-0.258-0.504-0.462-0.81-0.611c-0.308-0.149-0.638-0.225-0.99-0.225s-0.683,0.075-0.996,0.225
		c-0.311,0.149-0.582,0.355-0.812,0.618s-0.413,0.568-0.549,0.917C24.91,75.539,24.842,75.913,24.842,76.312"/>
	<path clip-path="url(#SVGID_2_)" fill="#B2835C" d="M38.343,79.817h-0.921v-3.955c0-0.841-0.122-1.453-0.364-1.833
		c-0.245-0.381-0.624-0.571-1.139-0.571c-0.27,0-0.541,0.051-0.812,0.15c-0.271,0.099-0.525,0.239-0.758,0.421
		c-0.236,0.181-0.442,0.396-0.617,0.646c-0.176,0.249-0.309,0.518-0.4,0.808v4.335h-0.921v-7.079h0.84v1.604
		c0.146-0.253,0.322-0.487,0.535-0.7c0.212-0.213,0.449-0.396,0.711-0.55c0.262-0.154,0.539-0.272,0.832-0.354
		c0.293-0.082,0.599-0.122,0.915-0.122c0.397,0,0.73,0.072,0.995,0.217c0.266,0.146,0.482,0.35,0.644,0.611
		c0.162,0.263,0.279,0.585,0.352,0.965c0.073,0.381,0.108,0.802,0.108,1.264V79.817z"/>
	<path clip-path="url(#SVGID_2_)" fill="#B2835C" d="M43.339,79.953c-0.513,0-0.988-0.098-1.421-0.292
		c-0.434-0.195-0.809-0.462-1.124-0.803c-0.316-0.339-0.563-0.73-0.738-1.175c-0.177-0.443-0.264-0.919-0.264-1.426
		c0-0.499,0.087-0.968,0.264-1.407c0.175-0.438,0.422-0.824,0.738-1.154c0.315-0.33,0.688-0.594,1.117-0.788
		c0.429-0.194,0.901-0.292,1.415-0.292c0.515,0,0.987,0.098,1.415,0.292c0.429,0.194,0.798,0.46,1.104,0.795
		c0.307,0.335,0.547,0.72,0.718,1.154c0.172,0.436,0.257,0.897,0.257,1.387c0,0.072-0.003,0.145-0.007,0.217
		c-0.005,0.073-0.011,0.123-0.02,0.149h-6.026c0.027,0.381,0.114,0.731,0.264,1.054c0.149,0.32,0.339,0.6,0.569,0.835
		c0.229,0.235,0.496,0.419,0.798,0.551c0.303,0.131,0.626,0.197,0.97,0.197c0.233,0,0.464-0.032,0.689-0.096
		c0.226-0.063,0.434-0.149,0.623-0.259c0.19-0.108,0.36-0.241,0.508-0.4c0.149-0.158,0.265-0.332,0.347-0.523l0.798,0.218
		c-0.109,0.263-0.263,0.5-0.461,0.713c-0.199,0.214-0.428,0.399-0.691,0.558c-0.262,0.159-0.551,0.281-0.865,0.367
		C43.999,79.91,43.674,79.953,43.339,79.953 M45.94,75.903c-0.026-0.38-0.114-0.727-0.265-1.039
		c-0.148-0.313-0.338-0.581-0.568-0.809c-0.229-0.226-0.498-0.402-0.806-0.53c-0.307-0.126-0.632-0.189-0.975-0.189
		c-0.343,0-0.668,0.063-0.975,0.189c-0.307,0.128-0.575,0.305-0.807,0.53c-0.228,0.228-0.414,0.498-0.554,0.815
		c-0.14,0.317-0.223,0.661-0.25,1.032H45.94z"/>
	<path clip-path="url(#SVGID_2_)" fill="#B2835C" d="M57.601,79.817H56.68v-3.955c0-0.841-0.121-1.453-0.366-1.833
		c-0.243-0.381-0.623-0.571-1.138-0.571c-0.27,0-0.542,0.051-0.811,0.15c-0.272,0.099-0.525,0.239-0.76,0.421
		c-0.233,0.181-0.439,0.396-0.615,0.646c-0.176,0.249-0.31,0.518-0.4,0.808v4.335h-0.921v-7.079h0.84v1.604
		c0.144-0.253,0.322-0.487,0.535-0.7c0.211-0.213,0.449-0.396,0.71-0.55c0.263-0.154,0.541-0.272,0.834-0.354
		c0.293-0.082,0.597-0.122,0.913-0.122c0.399,0,0.729,0.072,0.996,0.217c0.266,0.146,0.48,0.35,0.643,0.611
		c0.163,0.263,0.28,0.585,0.354,0.965c0.071,0.381,0.107,0.802,0.107,1.264V79.817z"/>
	<path clip-path="url(#SVGID_2_)" fill="#B2835C" d="M61.689,79.953c-0.74,0-1.301-0.256-1.68-0.768
		c-0.379-0.512-0.568-1.275-0.568-2.29v-4.157h0.921v3.994c0,1.604,0.547,2.405,1.639,2.405c0.271,0,0.537-0.046,0.799-0.137
		c0.262-0.09,0.502-0.221,0.725-0.393c0.221-0.172,0.419-0.376,0.596-0.612c0.175-0.235,0.318-0.502,0.425-0.801v-4.457h0.921v5.883
		c0,0.254,0.114,0.38,0.339,0.38v0.816c-0.18,0.026-0.305,0.041-0.379,0.041c-0.207,0-0.385-0.064-0.535-0.19
		c-0.148-0.128-0.223-0.285-0.223-0.476v-0.979c-0.316,0.552-0.736,0.98-1.259,1.283C62.887,79.802,62.313,79.953,61.689,79.953"/>
	<path clip-path="url(#SVGID_2_)" fill="#B2835C" d="M78.049,79.817h-0.921v-3.955c0-0.823-0.128-1.43-0.386-1.82
		c-0.256-0.389-0.648-0.584-1.17-0.584c-0.271,0-0.527,0.051-0.766,0.15c-0.239,0.099-0.459,0.239-0.663,0.421
		c-0.203,0.181-0.382,0.396-0.535,0.646c-0.155,0.249-0.271,0.522-0.353,0.821v4.321h-0.921v-3.955c0-0.841-0.126-1.453-0.379-1.833
		c-0.253-0.381-0.64-0.571-1.164-0.571c-0.533,0-1.008,0.186-1.422,0.558c-0.417,0.371-0.714,0.86-0.894,1.467v4.335h-0.921v-7.079
		h0.84v1.604c0.289-0.544,0.668-0.968,1.137-1.271c0.47-0.303,0.989-0.454,1.557-0.454c0.597,0,1.075,0.167,1.436,0.502
		c0.361,0.335,0.578,0.775,0.65,1.318c0.659-1.213,1.571-1.82,2.735-1.82c0.389,0,0.721,0.072,0.996,0.217
		c0.276,0.146,0.497,0.352,0.664,0.618c0.168,0.268,0.289,0.589,0.366,0.965c0.077,0.376,0.114,0.795,0.114,1.257V79.817z"/>
	<path clip-path="url(#SVGID_2_)" fill="#B2835C" d="M83.412,79.953c-0.551,0-1.061-0.141-1.529-0.422
		c-0.47-0.28-0.836-0.643-1.098-1.087v1.373h-0.827v-9.919h0.922v4.321c0.316-0.481,0.695-0.868,1.136-1.163
		c0.444-0.294,0.961-0.439,1.559-0.439c0.487,0,0.929,0.103,1.327,0.312c0.397,0.208,0.732,0.487,1.009,0.835
		c0.275,0.349,0.487,0.743,0.636,1.183s0.224,0.89,0.224,1.352c0,0.499-0.086,0.969-0.258,1.414
		c-0.171,0.443-0.409,0.83-0.711,1.161c-0.302,0.331-0.66,0.593-1.07,0.788C84.321,79.855,83.882,79.953,83.412,79.953
		 M83.196,79.138c0.388,0,0.741-0.079,1.062-0.238c0.32-0.157,0.595-0.371,0.827-0.638c0.229-0.268,0.41-0.571,0.541-0.911
		c0.132-0.339,0.196-0.69,0.196-1.053c0-0.371-0.061-0.729-0.182-1.073c-0.123-0.344-0.294-0.65-0.515-0.918
		c-0.221-0.267-0.486-0.479-0.791-0.638c-0.308-0.158-0.647-0.238-1.017-0.238c-0.28,0-0.542,0.048-0.786,0.143
		c-0.243,0.096-0.469,0.225-0.677,0.388s-0.395,0.351-0.561,0.563c-0.168,0.213-0.306,0.438-0.413,0.673v2.201
		c0.035,0.244,0.132,0.474,0.291,0.687c0.158,0.213,0.35,0.396,0.575,0.551c0.225,0.153,0.465,0.276,0.719,0.366
		C82.717,79.093,82.96,79.138,83.196,79.138"/>
	<path clip-path="url(#SVGID_2_)" fill="#B2835C" d="M91.389,79.953c-0.516,0-0.99-0.098-1.421-0.292
		c-0.435-0.195-0.81-0.462-1.125-0.803c-0.317-0.339-0.562-0.73-0.738-1.175c-0.177-0.443-0.264-0.919-0.264-1.426
		c0-0.499,0.087-0.968,0.264-1.407c0.176-0.438,0.421-0.824,0.738-1.154c0.315-0.33,0.688-0.594,1.118-0.788
		c0.427-0.194,0.899-0.292,1.415-0.292c0.513,0,0.985,0.098,1.415,0.292c0.427,0.194,0.796,0.46,1.103,0.795
		c0.308,0.335,0.545,0.72,0.718,1.154c0.172,0.436,0.258,0.897,0.258,1.387c0,0.072-0.003,0.145-0.007,0.217
		c-0.005,0.073-0.013,0.123-0.021,0.149h-6.027c0.028,0.381,0.116,0.731,0.264,1.054c0.15,0.32,0.34,0.6,0.569,0.835
		c0.231,0.235,0.496,0.419,0.8,0.551c0.302,0.131,0.625,0.197,0.968,0.197c0.234,0,0.465-0.032,0.69-0.096
		c0.227-0.063,0.434-0.149,0.623-0.259c0.19-0.108,0.36-0.241,0.508-0.4c0.149-0.158,0.264-0.332,0.345-0.523l0.801,0.218
		c-0.11,0.263-0.263,0.5-0.461,0.713c-0.199,0.214-0.43,0.399-0.692,0.558c-0.262,0.159-0.551,0.281-0.867,0.367
		C92.049,79.91,91.721,79.953,91.389,79.953 M93.989,75.903c-0.027-0.38-0.116-0.727-0.264-1.039
		c-0.149-0.313-0.339-0.581-0.568-0.809c-0.231-0.226-0.501-0.402-0.807-0.53c-0.306-0.126-0.632-0.189-0.974-0.189
		c-0.344,0-0.669,0.063-0.977,0.189c-0.306,0.128-0.575,0.305-0.805,0.53c-0.231,0.228-0.416,0.498-0.554,0.815
		c-0.142,0.317-0.225,0.661-0.252,1.032H93.989z"/>
	<path clip-path="url(#SVGID_2_)" fill="#B2835C" d="M99.771,73.553c-0.623,0.019-1.164,0.19-1.624,0.517
		c-0.461,0.326-0.787,0.774-0.977,1.345v4.403h-0.92v-7.079h0.868v1.698c0.242-0.498,0.564-0.912,0.961-1.243
		c0.396-0.331,0.826-0.496,1.287-0.496h0.229c0.072,0,0.131,0.005,0.176,0.014V73.553z"/>
	<polygon clip-path="url(#SVGID_2_)" fill="#B2835C" points="17.918,87.361 18.811,87.361 15.791,94.44 15.02,94.44 13.517,90.826 
		12.013,94.44 11.241,94.44 8.222,87.361 9.102,87.361 11.675,93.489 13.016,90.256 11.811,87.375 12.595,87.375 13.517,89.685 
		14.425,87.375 15.209,87.375 14.017,90.256 15.357,93.489 	"/>
	<path clip-path="url(#SVGID_2_)" fill="#B2835C" d="M23.104,94.576c-0.515,0-0.989-0.097-1.421-0.292
		c-0.434-0.195-0.809-0.462-1.125-0.802c-0.317-0.339-0.561-0.731-0.738-1.175c-0.176-0.444-0.264-0.919-0.264-1.428
		c0-0.498,0.088-0.967,0.264-1.405c0.177-0.439,0.421-0.824,0.738-1.155c0.316-0.33,0.688-0.593,1.119-0.788
		c0.426-0.194,0.898-0.292,1.415-0.292c0.513,0,0.985,0.098,1.415,0.292c0.427,0.195,0.796,0.46,1.102,0.795
		c0.308,0.335,0.546,0.72,0.718,1.155c0.172,0.435,0.258,0.896,0.258,1.386c0,0.072-0.002,0.146-0.007,0.217
		c-0.004,0.073-0.012,0.123-0.02,0.15h-6.027c0.027,0.38,0.115,0.73,0.264,1.053c0.149,0.321,0.339,0.6,0.568,0.835
		c0.232,0.236,0.497,0.419,0.8,0.55c0.303,0.133,0.625,0.198,0.968,0.198c0.235,0,0.465-0.032,0.691-0.095
		c0.226-0.064,0.433-0.15,0.623-0.259c0.19-0.109,0.359-0.242,0.508-0.401c0.148-0.158,0.264-0.332,0.345-0.522l0.8,0.218
		c-0.109,0.262-0.262,0.5-0.46,0.713c-0.2,0.213-0.431,0.398-0.692,0.557c-0.263,0.159-0.551,0.281-0.867,0.367
		C23.764,94.533,23.437,94.576,23.104,94.576 M25.704,90.527c-0.027-0.38-0.115-0.727-0.263-1.04
		c-0.15-0.312-0.34-0.581-0.569-0.808c-0.231-0.227-0.5-0.403-0.807-0.53c-0.305-0.126-0.632-0.19-0.973-0.19
		c-0.344,0-0.669,0.064-0.977,0.19c-0.307,0.127-0.575,0.304-0.805,0.53c-0.231,0.227-0.417,0.498-0.555,0.814
		c-0.141,0.318-0.224,0.661-0.251,1.033H25.704z"/>
	<path clip-path="url(#SVGID_2_)" fill="#B2835C" d="M31.419,94.577c-0.551,0-1.061-0.142-1.529-0.422
		c-0.47-0.28-0.836-0.644-1.098-1.087v1.372h-0.826v-9.919h0.921v4.321c0.317-0.48,0.696-0.868,1.137-1.162
		c0.443-0.295,0.962-0.441,1.558-0.441c0.487,0,0.931,0.104,1.327,0.313c0.397,0.209,0.733,0.487,1.01,0.835
		c0.275,0.349,0.486,0.744,0.636,1.183c0.148,0.439,0.223,0.891,0.223,1.353c0,0.498-0.086,0.969-0.258,1.413
		c-0.171,0.443-0.408,0.831-0.71,1.161c-0.303,0.331-0.66,0.594-1.071,0.788C32.329,94.479,31.889,94.577,31.419,94.577
		 M31.203,93.761c0.388,0,0.742-0.079,1.062-0.237c0.321-0.159,0.596-0.371,0.827-0.639c0.23-0.267,0.41-0.571,0.542-0.911
		c0.131-0.339,0.196-0.689,0.196-1.052c0-0.372-0.062-0.729-0.183-1.074c-0.122-0.344-0.293-0.649-0.514-0.917
		c-0.222-0.267-0.487-0.479-0.793-0.639c-0.306-0.158-0.646-0.238-1.016-0.238c-0.28,0-0.541,0.048-0.785,0.143
		c-0.244,0.096-0.469,0.226-0.676,0.389c-0.209,0.163-0.396,0.351-0.562,0.563c-0.168,0.213-0.306,0.437-0.414,0.672v2.201
		c0.036,0.245,0.133,0.475,0.292,0.688c0.157,0.213,0.348,0.395,0.575,0.55c0.225,0.154,0.465,0.276,0.717,0.366
		C30.724,93.716,30.967,93.761,31.203,93.761"/>
	<path clip-path="url(#SVGID_2_)" fill="#B2835C" d="M38.665,94.577c-0.551,0-1.088-0.092-1.612-0.272
		c-0.523-0.181-0.974-0.443-1.354-0.788l0.42-0.625c0.398,0.326,0.802,0.571,1.212,0.733c0.411,0.163,0.851,0.245,1.32,0.245
		c0.569,0,1.023-0.115,1.363-0.347c0.338-0.231,0.506-0.559,0.506-0.985c0-0.199-0.043-0.364-0.134-0.496
		c-0.091-0.131-0.225-0.246-0.401-0.346c-0.174-0.1-0.397-0.188-0.663-0.266c-0.266-0.077-0.576-0.156-0.928-0.238
		c-0.407-0.099-0.758-0.198-1.057-0.298c-0.297-0.1-0.543-0.213-0.737-0.34c-0.195-0.127-0.338-0.283-0.433-0.469
		s-0.143-0.419-0.143-0.699c0-0.354,0.07-0.666,0.21-0.938c0.14-0.271,0.329-0.495,0.57-0.673c0.238-0.177,0.518-0.31,0.839-0.4
		c0.32-0.09,0.661-0.136,1.022-0.136c0.541,0,1.034,0.088,1.476,0.266c0.443,0.176,0.8,0.409,1.07,0.699l-0.446,0.544
		c-0.262-0.272-0.581-0.477-0.954-0.611c-0.376-0.137-0.766-0.205-1.173-0.205c-0.244,0-0.47,0.025-0.677,0.075
		s-0.39,0.13-0.549,0.238c-0.157,0.108-0.282,0.247-0.372,0.415c-0.091,0.167-0.135,0.363-0.135,0.59
		c0,0.19,0.031,0.345,0.095,0.463c0.061,0.117,0.166,0.219,0.311,0.305c0.144,0.086,0.328,0.163,0.548,0.231
		c0.221,0.067,0.49,0.138,0.806,0.211c0.451,0.108,0.849,0.217,1.191,0.326c0.344,0.108,0.631,0.234,0.861,0.38
		c0.231,0.145,0.404,0.321,0.522,0.53c0.116,0.208,0.176,0.461,0.176,0.761c0,0.652-0.249,1.168-0.745,1.549
		C40.173,94.387,39.505,94.577,38.665,94.577"/>
	<path clip-path="url(#SVGID_2_)" fill="#B2835C" d="M42.89,84.522h0.922v1.357H42.89V84.522z M42.89,87.361h0.922v7.079H42.89
		V87.361z"/>
	<path clip-path="url(#SVGID_2_)" fill="#B2835C" d="M49.2,94.102c-0.053,0.026-0.132,0.063-0.235,0.107
		c-0.104,0.046-0.224,0.091-0.36,0.136c-0.135,0.046-0.289,0.087-0.461,0.123c-0.172,0.035-0.352,0.055-0.542,0.055
		c-0.198,0-0.387-0.027-0.569-0.082c-0.181-0.055-0.337-0.139-0.474-0.251c-0.133-0.113-0.242-0.255-0.324-0.429
		c-0.081-0.172-0.122-0.371-0.122-0.597v-5.069h-0.975v-0.733h0.975V84.97h0.92v2.392h1.626v0.733h-1.626v4.811
		c0.02,0.263,0.109,0.455,0.271,0.577c0.164,0.123,0.358,0.184,0.583,0.184c0.262,0,0.492-0.043,0.692-0.129
		c0.198-0.086,0.324-0.147,0.379-0.184L49.2,94.102z"/>
	<path clip-path="url(#SVGID_2_)" fill="#B2835C" d="M53.372,94.576c-0.514,0-0.988-0.097-1.421-0.292s-0.808-0.462-1.125-0.802
		c-0.316-0.339-0.562-0.731-0.737-1.175c-0.177-0.444-0.264-0.919-0.264-1.428c0-0.498,0.087-0.967,0.264-1.405
		c0.175-0.439,0.421-0.824,0.737-1.155c0.317-0.33,0.689-0.593,1.118-0.788c0.428-0.194,0.9-0.292,1.415-0.292
		c0.514,0,0.986,0.098,1.415,0.292c0.428,0.195,0.797,0.46,1.103,0.795c0.308,0.335,0.547,0.72,0.719,1.155
		c0.172,0.435,0.257,0.896,0.257,1.386c0,0.072-0.002,0.146-0.007,0.217c-0.004,0.073-0.012,0.123-0.02,0.15h-6.027
		c0.027,0.38,0.115,0.73,0.265,1.053c0.149,0.321,0.339,0.6,0.568,0.835c0.231,0.236,0.496,0.419,0.799,0.55
		c0.303,0.133,0.625,0.198,0.969,0.198c0.233,0,0.465-0.032,0.69-0.095c0.226-0.064,0.434-0.15,0.623-0.259
		c0.19-0.109,0.36-0.242,0.508-0.401c0.149-0.158,0.264-0.332,0.346-0.522l0.799,0.218c-0.11,0.262-0.263,0.5-0.461,0.713
		c-0.199,0.213-0.429,0.398-0.691,0.557c-0.263,0.159-0.552,0.281-0.866,0.367C54.032,94.533,53.706,94.576,53.372,94.576
		 M55.972,90.527c-0.026-0.38-0.114-0.727-0.264-1.04c-0.148-0.312-0.338-0.581-0.568-0.808s-0.499-0.403-0.806-0.53
		c-0.307-0.126-0.633-0.19-0.975-0.19c-0.343,0-0.669,0.064-0.975,0.19c-0.307,0.127-0.576,0.304-0.806,0.53
		s-0.416,0.498-0.555,0.814c-0.141,0.318-0.224,0.661-0.25,1.033H55.972z"/>
	<path clip-path="url(#SVGID_2_)" fill="#B2835C" d="M12.066,110.425c-0.515,0-0.989-0.097-1.421-0.292
		c-0.435-0.194-0.81-0.462-1.125-0.802c-0.316-0.34-0.562-0.731-0.739-1.175c-0.176-0.444-0.263-0.919-0.263-1.428
		c0-0.497,0.087-0.967,0.263-1.405c0.177-0.439,0.423-0.824,0.739-1.155c0.315-0.331,0.688-0.593,1.118-0.788
		c0.428-0.195,0.9-0.292,1.415-0.292c0.514,0,0.986,0.097,1.415,0.292c0.428,0.195,0.797,0.46,1.104,0.795
		c0.307,0.335,0.545,0.72,0.716,1.155c0.172,0.434,0.259,0.896,0.259,1.386c0,0.072-0.003,0.146-0.007,0.217
		c-0.005,0.072-0.012,0.122-0.02,0.15H9.493c0.027,0.38,0.115,0.731,0.264,1.053s0.339,0.6,0.569,0.835
		c0.23,0.236,0.496,0.419,0.799,0.551c0.302,0.132,0.626,0.196,0.969,0.196c0.234,0,0.464-0.031,0.69-0.094
		c0.226-0.064,0.433-0.15,0.622-0.259c0.19-0.109,0.36-0.242,0.509-0.401c0.148-0.158,0.264-0.333,0.345-0.522l0.8,0.218
		c-0.109,0.262-0.263,0.5-0.461,0.713c-0.199,0.212-0.429,0.399-0.691,0.557c-0.262,0.159-0.551,0.281-0.867,0.367
		S12.399,110.425,12.066,110.425 M14.667,106.376c-0.027-0.38-0.116-0.727-0.265-1.04c-0.149-0.312-0.339-0.581-0.568-0.808
		c-0.23-0.228-0.5-0.403-0.807-0.53c-0.306-0.127-0.631-0.19-0.974-0.19c-0.344,0-0.668,0.063-0.976,0.19
		c-0.307,0.127-0.575,0.303-0.806,0.53c-0.23,0.227-0.415,0.498-0.555,0.814c-0.14,0.317-0.223,0.661-0.25,1.033H14.667z"/>
	<path clip-path="url(#SVGID_2_)" fill="#B2835C" d="M27.423,110.289h-0.921v-3.954c0-0.824-0.129-1.431-0.385-1.821
		c-0.256-0.389-0.648-0.584-1.172-0.584c-0.271,0-0.527,0.051-0.764,0.15c-0.24,0.099-0.461,0.24-0.664,0.421
		c-0.202,0.182-0.381,0.396-0.535,0.646s-0.272,0.522-0.352,0.821v4.321h-0.922v-3.954c0-0.842-0.126-1.454-0.379-1.834
		c-0.252-0.381-0.64-0.571-1.165-0.571c-0.532,0-1.006,0.187-1.422,0.558c-0.415,0.372-0.713,0.86-0.893,1.468v4.334h-0.92v-7.079
		h0.84v1.604c0.288-0.543,0.668-0.967,1.136-1.271c0.47-0.304,0.989-0.455,1.557-0.455c0.598,0,1.075,0.167,1.436,0.502
		c0.362,0.335,0.579,0.775,0.65,1.319c0.659-1.214,1.57-1.821,2.735-1.821c0.39,0,0.72,0.072,0.995,0.217
		c0.277,0.146,0.498,0.352,0.665,0.618c0.167,0.269,0.288,0.589,0.366,0.965c0.076,0.376,0.114,0.795,0.114,1.257V110.289z"/>
	<path clip-path="url(#SVGID_2_)" fill="#B2835C" d="M31.203,110.426c-0.362,0-0.692-0.058-0.99-0.171
		c-0.297-0.112-0.552-0.27-0.764-0.469c-0.213-0.199-0.377-0.43-0.495-0.692c-0.118-0.264-0.176-0.539-0.176-0.829
		c0-0.326,0.071-0.622,0.217-0.891c0.144-0.267,0.347-0.496,0.609-0.686c0.262-0.19,0.575-0.337,0.941-0.441
		c0.366-0.104,0.77-0.157,1.211-0.157c0.354,0,0.715,0.032,1.085,0.096c0.37,0.063,0.698,0.154,0.988,0.271v-0.639
		c0-0.624-0.178-1.121-0.534-1.488c-0.357-0.366-0.838-0.549-1.444-0.549c-0.379,0-0.756,0.072-1.13,0.217
		c-0.375,0.146-0.757,0.354-1.144,0.625l-0.325-0.611c0.46-0.309,0.907-0.539,1.341-0.692c0.433-0.155,0.884-0.231,1.353-0.231
		c0.859,0,1.54,0.249,2.046,0.747c0.505,0.498,0.758,1.188,0.758,2.065v3.193c0,0.253,0.108,0.38,0.325,0.38v0.815
		c-0.072,0.009-0.14,0.016-0.203,0.021s-0.118,0.007-0.162,0.007c-0.18,0-0.345-0.055-0.495-0.163
		c-0.148-0.108-0.232-0.272-0.25-0.489l-0.027-0.557c-0.308,0.417-0.711,0.74-1.213,0.971
		C32.224,110.31,31.717,110.426,31.203,110.426 M31.433,109.719c0.405,0,0.81-0.089,1.212-0.266
		c0.401-0.176,0.719-0.419,0.954-0.727c0.063-0.082,0.117-0.17,0.162-0.265c0.046-0.096,0.068-0.184,0.068-0.266v-1.155
		c-0.307-0.117-0.627-0.208-0.961-0.271c-0.334-0.064-0.66-0.095-0.975-0.095c-0.659,0-1.194,0.133-1.605,0.399
		c-0.412,0.269-0.617,0.637-0.617,1.108c0,0.189,0.036,0.376,0.109,0.556c0.072,0.182,0.182,0.345,0.333,0.49
		c0.148,0.145,0.33,0.262,0.547,0.353C30.876,109.673,31.135,109.719,31.433,109.719"/>
	<path clip-path="url(#SVGID_2_)" fill="#B2835C" d="M36.753,100.371h0.922v1.357h-0.922V100.371z M36.753,103.21h0.922v7.079
		h-0.922V103.21z"/>
	<path clip-path="url(#SVGID_2_)" fill="#B2835C" d="M39.692,100.37h0.921v8.315c0,0.263,0.072,0.469,0.217,0.618
		c0.144,0.149,0.346,0.225,0.609,0.225c0.1,0,0.216-0.014,0.353-0.041c0.134-0.026,0.261-0.063,0.379-0.108l0.162,0.747
		c-0.171,0.072-0.381,0.132-0.629,0.177c-0.249,0.045-0.463,0.067-0.644,0.067c-0.425,0-0.759-0.119-1.003-0.359
		c-0.243-0.24-0.365-0.577-0.365-1.013V100.37z"/>
	<path clip-path="url(#SVGID_2_)" fill="#B2835C" d="M48.185,110.426c-0.362,0-0.693-0.058-0.991-0.171
		c-0.297-0.112-0.552-0.27-0.764-0.469s-0.377-0.43-0.495-0.692c-0.117-0.264-0.175-0.539-0.175-0.829
		c0-0.326,0.071-0.622,0.216-0.891c0.145-0.267,0.348-0.496,0.61-0.686c0.262-0.19,0.575-0.337,0.941-0.441
		c0.366-0.104,0.77-0.157,1.211-0.157c0.352,0,0.714,0.032,1.084,0.096c0.37,0.063,0.699,0.154,0.988,0.271v-0.639
		c0-0.624-0.177-1.121-0.534-1.488c-0.357-0.366-0.838-0.549-1.443-0.549c-0.379,0-0.756,0.072-1.13,0.217
		c-0.375,0.146-0.757,0.354-1.145,0.625l-0.325-0.611c0.461-0.309,0.908-0.539,1.341-0.692c0.434-0.155,0.885-0.231,1.354-0.231
		c0.859,0,1.54,0.249,2.045,0.747c0.506,0.498,0.757,1.188,0.757,2.065v3.193c0,0.253,0.11,0.38,0.327,0.38v0.815
		c-0.073,0.009-0.141,0.016-0.203,0.021c-0.064,0.005-0.118,0.007-0.163,0.007c-0.18,0-0.346-0.055-0.494-0.163
		c-0.149-0.108-0.233-0.272-0.251-0.489l-0.026-0.557c-0.308,0.417-0.712,0.74-1.213,0.971
		C49.206,110.31,48.698,110.426,48.185,110.426 M48.414,109.719c0.406,0,0.811-0.089,1.212-0.266
		c0.401-0.176,0.72-0.419,0.954-0.727c0.064-0.082,0.117-0.17,0.163-0.265c0.044-0.096,0.067-0.184,0.067-0.266v-1.155
		c-0.307-0.117-0.626-0.208-0.961-0.271c-0.333-0.064-0.66-0.095-0.975-0.095c-0.659,0-1.194,0.133-1.605,0.399
		c-0.411,0.269-0.617,0.637-0.617,1.108c0,0.189,0.037,0.376,0.11,0.556c0.071,0.182,0.182,0.345,0.331,0.49
		c0.15,0.145,0.332,0.262,0.55,0.353C47.858,109.673,48.116,109.719,48.414,109.719"/>
	<path clip-path="url(#SVGID_2_)" fill="#B2835C" d="M56.661,110.425c-0.487,0-0.939-0.103-1.354-0.306
		c-0.415-0.204-0.774-0.473-1.076-0.808c-0.303-0.335-0.538-0.723-0.705-1.162s-0.25-0.899-0.25-1.379
		c0-0.498,0.081-0.972,0.243-1.42c0.163-0.449,0.386-0.841,0.67-1.176c0.284-0.335,0.624-0.6,1.017-0.794
		c0.391-0.195,0.824-0.292,1.293-0.292c0.595,0,1.124,0.154,1.585,0.468c0.46,0.313,0.826,0.69,1.096,1.135v-4.321h0.921v8.724
		c0,0.253,0.107,0.38,0.326,0.38v0.815c-0.154,0.027-0.275,0.041-0.366,0.041c-0.227,0-0.412-0.065-0.556-0.197
		c-0.145-0.132-0.216-0.287-0.216-0.469v-0.747c-0.29,0.461-0.67,0.828-1.144,1.101C57.668,110.289,57.176,110.425,56.661,110.425
		 M56.852,109.609c0.233,0,0.48-0.045,0.737-0.136c0.257-0.09,0.497-0.215,0.717-0.373c0.222-0.158,0.414-0.345,0.576-0.558
		c0.163-0.213,0.262-0.441,0.298-0.686v-2.188c-0.09-0.244-0.224-0.474-0.399-0.686c-0.177-0.213-0.375-0.401-0.596-0.564
		c-0.222-0.163-0.456-0.289-0.705-0.38c-0.248-0.091-0.494-0.137-0.737-0.137c-0.379,0-0.724,0.082-1.037,0.246
		c-0.311,0.163-0.576,0.378-0.791,0.645c-0.216,0.268-0.386,0.572-0.507,0.917c-0.124,0.345-0.184,0.697-0.184,1.061
		c0,0.38,0.067,0.742,0.203,1.087c0.135,0.344,0.32,0.645,0.556,0.903c0.233,0.258,0.511,0.464,0.832,0.617
		C56.135,109.532,56.481,109.609,56.852,109.609"/>
	<path clip-path="url(#SVGID_2_)" fill="#B2835C" d="M65.098,110.425c-0.488,0-0.94-0.103-1.354-0.306
		c-0.416-0.204-0.773-0.473-1.077-0.808c-0.303-0.335-0.536-0.723-0.704-1.162s-0.251-0.899-0.251-1.379
		c0-0.498,0.081-0.972,0.244-1.42c0.163-0.449,0.386-0.841,0.67-1.176c0.285-0.335,0.624-0.6,1.016-0.794
		c0.393-0.195,0.824-0.292,1.294-0.292c0.595,0,1.123,0.154,1.584,0.468c0.46,0.313,0.826,0.69,1.097,1.135v-4.321h0.921v8.724
		c0,0.253,0.108,0.38,0.325,0.38v0.815c-0.153,0.027-0.275,0.041-0.366,0.041c-0.226,0-0.411-0.065-0.556-0.197
		c-0.143-0.132-0.216-0.287-0.216-0.469v-0.747c-0.29,0.461-0.67,0.828-1.144,1.101C66.106,110.289,65.613,110.425,65.098,110.425
		 M65.288,109.609c0.234,0,0.48-0.045,0.737-0.136c0.258-0.09,0.497-0.215,0.719-0.373c0.22-0.158,0.412-0.345,0.575-0.558
		c0.163-0.213,0.262-0.441,0.298-0.686v-2.188c-0.091-0.244-0.223-0.474-0.399-0.686c-0.177-0.213-0.375-0.401-0.597-0.564
		c-0.221-0.163-0.455-0.289-0.704-0.38s-0.493-0.137-0.738-0.137c-0.379,0-0.724,0.082-1.037,0.246
		c-0.31,0.163-0.575,0.378-0.791,0.645c-0.216,0.268-0.385,0.572-0.507,0.917c-0.123,0.345-0.184,0.697-0.184,1.061
		c0,0.38,0.067,0.742,0.203,1.087c0.136,0.344,0.321,0.645,0.556,0.903c0.234,0.258,0.513,0.464,0.832,0.617
		C64.572,109.532,64.918,109.609,65.288,109.609"/>
	<path clip-path="url(#SVGID_2_)" fill="#B2835C" d="M74.13,104.024c-0.622,0.02-1.163,0.191-1.624,0.518s-0.786,0.773-0.976,1.345
		v4.402h-0.92v-7.079h0.867v1.699c0.243-0.499,0.564-0.913,0.961-1.244c0.397-0.33,0.826-0.496,1.287-0.496h0.229
		c0.072,0,0.132,0.005,0.176,0.014V104.024z"/>
	<path clip-path="url(#SVGID_2_)" fill="#B2835C" d="M78.45,110.425c-0.514,0-0.988-0.097-1.42-0.292
		c-0.435-0.194-0.81-0.462-1.125-0.802c-0.317-0.34-0.562-0.731-0.739-1.175c-0.176-0.444-0.264-0.919-0.264-1.428
		c0-0.497,0.088-0.967,0.264-1.405c0.177-0.439,0.422-0.824,0.739-1.155c0.315-0.331,0.688-0.593,1.118-0.788
		c0.428-0.195,0.9-0.292,1.415-0.292c0.514,0,0.986,0.097,1.415,0.292c0.428,0.195,0.797,0.46,1.104,0.795
		c0.306,0.335,0.545,0.72,0.716,1.155c0.172,0.434,0.258,0.896,0.258,1.386c0,0.072-0.002,0.146-0.006,0.217
		c-0.005,0.072-0.012,0.122-0.02,0.15h-6.027c0.027,0.38,0.115,0.731,0.264,1.053c0.148,0.321,0.338,0.6,0.568,0.835
		c0.231,0.236,0.497,0.419,0.8,0.551c0.302,0.132,0.626,0.196,0.969,0.196c0.234,0,0.464-0.031,0.69-0.094
		c0.225-0.064,0.433-0.15,0.622-0.259c0.19-0.109,0.36-0.242,0.509-0.401c0.148-0.158,0.264-0.333,0.345-0.522l0.799,0.218
		c-0.108,0.262-0.262,0.5-0.46,0.713c-0.199,0.212-0.429,0.399-0.691,0.557c-0.262,0.159-0.551,0.281-0.867,0.367
		S78.784,110.425,78.45,110.425 M81.052,106.376c-0.028-0.38-0.116-0.727-0.265-1.04c-0.15-0.312-0.339-0.581-0.568-0.808
		c-0.23-0.228-0.5-0.403-0.808-0.53c-0.305-0.127-0.63-0.19-0.973-0.19c-0.344,0-0.668,0.063-0.976,0.19
		c-0.307,0.127-0.575,0.303-0.806,0.53c-0.23,0.227-0.415,0.498-0.555,0.814c-0.14,0.317-0.223,0.661-0.25,1.033H81.052z"/>
	<path clip-path="url(#SVGID_2_)" fill="#B2835C" d="M85.683,110.425c-0.551,0-1.089-0.09-1.611-0.272
		c-0.525-0.181-0.976-0.442-1.355-0.787l0.42-0.625c0.397,0.325,0.8,0.57,1.212,0.733c0.41,0.163,0.852,0.244,1.32,0.244
		c0.57,0,1.024-0.115,1.361-0.346c0.34-0.231,0.508-0.56,0.508-0.985c0-0.199-0.045-0.364-0.135-0.496
		c-0.091-0.131-0.223-0.247-0.4-0.346c-0.176-0.1-0.396-0.188-0.663-0.267c-0.267-0.076-0.576-0.155-0.928-0.236
		c-0.406-0.101-0.758-0.2-1.056-0.299c-0.298-0.1-0.544-0.213-0.738-0.341c-0.195-0.126-0.338-0.282-0.434-0.469
		c-0.095-0.185-0.142-0.418-0.142-0.699c0-0.353,0.07-0.666,0.209-0.938c0.141-0.272,0.33-0.496,0.57-0.673
		c0.24-0.176,0.519-0.311,0.84-0.4c0.32-0.091,0.661-0.136,1.022-0.136c0.542,0,1.034,0.088,1.477,0.265
		c0.441,0.176,0.797,0.409,1.069,0.7l-0.447,0.543c-0.262-0.271-0.58-0.476-0.955-0.611c-0.374-0.136-0.765-0.203-1.17-0.203
		c-0.245,0-0.47,0.024-0.678,0.074c-0.209,0.051-0.392,0.129-0.548,0.237c-0.159,0.109-0.283,0.248-0.373,0.415
		s-0.136,0.365-0.136,0.591c0,0.19,0.032,0.345,0.095,0.462c0.063,0.118,0.167,0.22,0.312,0.307
		c0.144,0.085,0.327,0.161,0.548,0.229c0.222,0.068,0.49,0.139,0.806,0.211c0.452,0.109,0.849,0.217,1.192,0.326
		c0.342,0.109,0.628,0.236,0.86,0.381c0.229,0.145,0.403,0.321,0.52,0.53c0.118,0.208,0.177,0.462,0.177,0.76
		c0,0.653-0.248,1.169-0.745,1.55C87.19,110.234,86.522,110.425,85.683,110.425"/>
	<path clip-path="url(#SVGID_2_)" fill="#B2835C" d="M92.277,110.425c-0.551,0-1.089-0.09-1.611-0.272
		c-0.525-0.181-0.975-0.442-1.355-0.787l0.42-0.625c0.398,0.325,0.801,0.57,1.213,0.733c0.409,0.163,0.851,0.244,1.32,0.244
		c0.569,0,1.023-0.115,1.36-0.346c0.34-0.231,0.509-0.56,0.509-0.985c0-0.199-0.046-0.364-0.136-0.496
		c-0.091-0.131-0.223-0.247-0.4-0.346c-0.175-0.1-0.396-0.188-0.663-0.267c-0.266-0.076-0.575-0.155-0.928-0.236
		c-0.406-0.101-0.758-0.2-1.055-0.299c-0.298-0.1-0.545-0.213-0.739-0.341c-0.194-0.126-0.338-0.282-0.433-0.469
		c-0.095-0.185-0.143-0.418-0.143-0.699c0-0.353,0.07-0.666,0.21-0.938c0.14-0.272,0.329-0.496,0.569-0.673
		c0.24-0.176,0.52-0.311,0.84-0.4c0.32-0.091,0.661-0.136,1.022-0.136c0.543,0,1.034,0.088,1.478,0.265
		c0.44,0.176,0.797,0.409,1.068,0.7l-0.447,0.543c-0.261-0.271-0.58-0.476-0.954-0.611c-0.375-0.136-0.766-0.203-1.171-0.203
		c-0.245,0-0.47,0.024-0.678,0.074c-0.208,0.051-0.392,0.129-0.548,0.237c-0.158,0.109-0.283,0.248-0.372,0.415
		c-0.091,0.167-0.137,0.365-0.137,0.591c0,0.19,0.032,0.345,0.095,0.462c0.063,0.118,0.167,0.22,0.312,0.307
		c0.144,0.085,0.327,0.161,0.548,0.229c0.222,0.068,0.49,0.139,0.806,0.211c0.452,0.109,0.849,0.217,1.192,0.326
		c0.342,0.109,0.629,0.236,0.861,0.381c0.228,0.145,0.403,0.321,0.519,0.53c0.118,0.208,0.177,0.462,0.177,0.76
		c0,0.653-0.248,1.169-0.745,1.55C93.785,110.234,93.117,110.425,92.277,110.425"/>
</g>
</svg>
