<?xml version="1.0" encoding="utf-8"?>
<!-- Generator: Adobe Illustrator 16.0.0, SVG Export Plug-In . SVG Version: 6.00 Build 0)  -->
<!DOCTYPE svg PUBLIC "-//W3C//DTD SVG 1.1//EN" "http://www.w3.org/Graphics/SVG/1.1/DTD/svg11.dtd">
<svg version="1.1" id="Layer_1" xmlns="http://www.w3.org/2000/svg" xmlns:xlink="http://www.w3.org/1999/xlink" x="0px" y="0px"
	 width="55px" height="150px" viewBox="0 0 55 150" enable-background="new 0 0 55 150" xml:space="preserve">
<rect x="9.825" y="17.861" fill="#D85B43" width="23.843" height="23.844"/>
<rect x="12.806" y="20.843" fill="#ECD078" width="17.883" height="17.882"/>
<rect x="9.825" y="67.695" fill="#D85B43" width="23.843" height="23.844"/>
<rect x="12.806" y="70.676" fill="#ECD078" width="17.883" height="17.883"/>
<rect x="9.825" y="117.398" fill="#D85B43" width="23.843" height="23.844"/>
<rect x="12.806" y="120.38" fill="#ECD078" width="17.883" height="17.882"/>
<path fill="#542437" d="M20.556,88.559l19.958-22.399L20.556,81.732c-2.146-5.121-6.496-6.826-6.496-6.826l-4.234,4.053
	C17.766,81.518,20.556,88.559,20.556,88.559z"/>
<path fill="#542437" d="M20.556,138.262l19.958-22.4l-19.958,15.574c-2.146-5.119-6.497-6.824-6.497-6.824l-4.234,4.052
	C17.766,131.221,20.556,138.262,20.556,138.262z"/>
<rect x="-78.614" y="3.663" fill="#D85B43" width="28.063" height="28.064"/>
<rect x="-75.074" y="7.204" fill="#ECD078" width="20.983" height="20.983"/>
<rect x="-78.614" y="53.663" fill="#D85B43" width="28.063" height="28.064"/>
<rect x="-75.074" y="57.204" fill="#ECD078" width="20.983" height="20.983"/>
<rect x="-78.614" y="103.662" fill="#D85B43" width="28.063" height="28.064"/>
<rect x="-75.074" y="107.203" fill="#ECD078" width="20.983" height="20.983"/>
<path fill="#542437" d="M-67.038,127.873l23.181-26.019l-23.181,18.088c-2.493-5.944-7.545-7.927-7.545-7.927l-4.917,4.708
	C-70.278,119.695-67.038,127.873-67.038,127.873z"/>
</svg>
