<?xml version="1.0" encoding="utf-8"?>
<!-- Generator: Adobe Illustrator 16.0.0, SVG Export Plug-In . SVG Version: 6.00 Build 0)  -->
<!DOCTYPE svg PUBLIC "-//W3C//DTD SVG 1.1//EN" "http://www.w3.org/Graphics/SVG/1.1/DTD/svg11.dtd">
<svg version="1.1" id="Layer_1" xmlns="http://www.w3.org/2000/svg" xmlns:xlink="http://www.w3.org/1999/xlink" x="0px" y="0px"
	 width="55px" height="150px" viewBox="0 0 55 150" enable-background="new 0 0 55 150" xml:space="preserve">
<rect x="1.886" y="21.936" fill="#542437" width="28.063" height="28.064"/>
<rect x="5.426" y="25.477" fill="#ECD078" width="20.983" height="20.983"/>
<rect x="1.886" y="71.936" fill="#542437" width="28.063" height="28.064"/>
<rect x="5.426" y="75.477" fill="#ECD078" width="20.983" height="20.983"/>
<rect x="1.886" y="121.936" fill="#542437" width="28.063" height="28.064"/>
<rect x="5.426" y="125.477" fill="#ECD078" width="20.983" height="20.983"/>
<path fill="#D85B43" d="M13.462,146.146l23.181-26.019l-23.181,18.088c-2.493-5.944-7.545-7.927-7.545-7.927L1,134.997
	C10.222,137.969,13.462,146.146,13.462,146.146z"/>
<g>
	<rect x="-65.067" y="61.609" fill="#542437" width="27.735" height="27.737"/>
	<rect x="-61.601" y="65.076" fill="#ECD078" width="20.801" height="20.803"/>
</g>
<rect x="-54.116" y="118.784" fill="#D85B43" width="23.216" height="23.216"/>
</svg>
