<?xml version="1.0" encoding="utf-8"?>
<!-- Generator: Adobe Illustrator 16.0.0, SVG Export Plug-In . SVG Version: 6.00 Build 0)  -->
<!DOCTYPE svg PUBLIC "-//W3C//DTD SVG 1.1//EN" "http://www.w3.org/Graphics/SVG/1.1/DTD/svg11.dtd">
<svg version="1.1" id="Layer_1" xmlns="http://www.w3.org/2000/svg" xmlns:xlink="http://www.w3.org/1999/xlink" x="0px" y="0px"
	 width="55px" height="150px" viewBox="0 0 55 150" enable-background="new 0 0 55 150" xml:space="preserve">
<rect x="-81.187" y="58.699" fill="#D95B43" width="29.792" height="29.615"/>
<g>
	<rect x="86.332" y="45.449" fill="#C02943" width="40" height="40"/>
	<rect x="91.332" y="50.449" fill="#542437" width="30" height="30"/>
</g>
<g>
	<rect x="1.886" y="21.936" fill="#ECD078" width="28.063" height="28.064"/>
	<rect x="5.426" y="25.477" fill="#542437" width="20.983" height="20.983"/>
</g>
<g>
	<rect x="1.886" y="71.936" fill="#ECD078" width="28.063" height="28.064"/>
	<rect x="5.426" y="75.477" fill="#542437" width="20.983" height="20.983"/>
</g>
<g>
	<rect x="1.886" y="121.936" fill="#ECD078" width="28.063" height="28.064"/>
	<rect x="5.426" y="125.477" fill="#542437" width="20.983" height="20.983"/>
</g>
<path fill="#D95B43" d="M13.462,146.146l23.18-26.017l-23.18,18.088c-2.493-5.945-7.545-7.927-7.545-7.927L1,134.997
	C10.222,137.969,13.462,146.146,13.462,146.146z"/>
</svg>
