<?xml version="1.0" encoding="utf-8"?>
<!-- Generator: Adobe Illustrator 16.0.0, SVG Export Plug-In . SVG Version: 6.00 Build 0)  -->
<!DOCTYPE svg PUBLIC "-//W3C//DTD SVG 1.1//EN" "http://www.w3.org/Graphics/SVG/1.1/DTD/svg11.dtd">
<svg version="1.1" id="Layer_1" xmlns="http://www.w3.org/2000/svg" xmlns:xlink="http://www.w3.org/1999/xlink" x="0px" y="0px"
	 width="53.668px" height="50px" viewBox="-10.209 -9.125 53.668 50" enable-background="new -10.209 -9.125 53.668 50"
	 xml:space="preserve">
<g>
	<g>
		<path fill="#ECD078" d="M34.031,33.028c3.641-4.087,5.854-9.473,5.854-15.374c0-5.904-2.213-11.291-5.854-15.378v5.013
			c1.82,3.029,2.869,6.574,2.869,10.365c0,3.789-1.049,7.334-2.869,10.361V33.028L34.031,33.028z M34.031,18.162v-0.965h1.791l0,0
			c0.268,0,0.484,0.216,0.484,0.484c0,0.266-0.217,0.48-0.484,0.48H34.031z M16.752,40.784c6.871-0.001,13.043-2.999,17.279-7.756
			v-5.013c-3.523,5.859-9.943,9.781-17.279,9.781V40.784L16.752,40.784z M34.031,2.276C29.795-2.482,23.623-5.48,16.752-5.48v2.982
			c7.336,0,13.756,3.925,17.279,9.787V2.276L34.031,2.276z M34.031,17.197v0.965h-1.793c-0.266,0-0.48-0.215-0.48-0.48
			c0-0.269,0.215-0.484,0.48-0.484H34.031L34.031,17.197z M16.752,37.225v-4.544c0.018-0.003,0.035-0.003,0.053-0.003l0,0
			c0.266,0.004,0.482,0.217,0.482,0.485v3.583c0,0.268-0.217,0.48-0.482,0.48C16.787,37.227,16.77,37.226,16.752,37.225
			L16.752,37.225z M16.752,18.846V8.376c0.021-0.002,0.043-0.003,0.066-0.003c0.385,0,0.689,0.213,0.689,0.475v7.854
			c0.164,0.099,0.301,0.241,0.398,0.406h10.814l0,0c0.344,0,0.619,0.293,0.619,0.652c0,0.363-0.275,0.65-0.619,0.65H17.805
			c-0.213,0.27-0.539,0.445-0.904,0.445C16.848,18.855,16.799,18.852,16.752,18.846L16.752,18.846z M16.752,2.68v-4.545
			c0.018-0.002,0.035-0.003,0.053-0.003c0.266,0,0.482,0.218,0.482,0.486V2.2c0,0.265-0.217,0.482-0.482,0.482l0,0
			C16.787,2.683,16.77,2.682,16.752,2.68z M16.75-5.48c-6.865,0-13.029,2.992-17.266,7.741v5.005
			C3.01,1.415,9.424-2.498,16.75-2.498h0.002V-5.48H16.75L16.75-5.48z M-0.516,33.043c4.236,4.75,10.4,7.741,17.266,7.741h0.002
			v-2.987H16.75l0,0c-7.326,0-13.74-3.91-17.266-9.758V33.043L-0.516,33.043z M16.752-1.865V2.68
			c-0.244-0.026-0.43-0.232-0.43-0.479v-3.582C16.322-1.633,16.508-1.838,16.752-1.865L16.752-1.865z M16.752,8.376v10.47
			c-0.027-0.002-0.055-0.006-0.082-0.012l-4.838,11.824c-0.143,0.354-0.344,0.606-0.451,0.564c-0.104-0.042-0.072-0.363,0.072-0.721
			l4.84-11.82c-0.334-0.205-0.561-0.574-0.561-0.992c0-0.344,0.15-0.652,0.393-0.869V8.848C16.125,8.602,16.398,8.398,16.752,8.376
			L16.752,8.376z M16.752,32.681v4.544c-0.244-0.027-0.43-0.229-0.43-0.479v-3.583C16.322,32.914,16.508,32.707,16.752,32.681
			L16.752,32.681z M-0.516,18.162V17.2h1.791l0,0c0.266-0.003,0.482,0.213,0.482,0.481c0,0.266-0.217,0.48-0.482,0.48H-0.516z
			 M-0.516,2.261c-3.648,4.089-5.865,9.481-5.865,15.394c0,5.909,2.217,11.301,5.865,15.389v-5.004
			c-1.828-3.033-2.883-6.586-2.883-10.385c0-3.801,1.055-7.355,2.883-10.389V2.261L-0.516,2.261z M-0.516,17.2v0.962h-1.793
			c-0.268,0-0.482-0.215-0.482-0.48c0-0.269,0.215-0.484,0.482-0.481H-0.516z"/>
	</g>
</g>
</svg>
