<?xml version="1.0" encoding="utf-8"?>
<!-- Generator: Adobe Illustrator 16.0.0, SVG Export Plug-In . SVG Version: 6.00 Build 0)  -->
<!DOCTYPE svg PUBLIC "-//W3C//DTD SVG 1.1//EN" "http://www.w3.org/Graphics/SVG/1.1/DTD/svg11.dtd">
<svg version="1.1" id="Layer_1" xmlns="http://www.w3.org/2000/svg" xmlns:xlink="http://www.w3.org/1999/xlink" x="0px" y="0px"
	 width="56px" height="44.508px" viewBox="0 0 56 44.508" enable-background="new 0 0 56 44.508" xml:space="preserve">
<g>
	<path fill="#542437" d="M2.735,10.508C0.58,10.508,0,12.731,0,14.887v25.371c0,2.156,0.58,4.25,2.735,4.25H8v-34H2.735z"/>
	<path fill="#542437" d="M51.528,44.508c2.156,0,4.472-2.094,4.472-4.25V14.887c0-2.156-2.315-4.379-4.472-4.379H48v34H51.528z"/>
	<polyline fill="#542437" points="46,10.508 10,10.508 10,44.508 46,44.508 	"/>
	<path fill="#542437" d="M40,13.514c0,2.758-2.236,4.994-4.994,4.994H19.994c-2.758,0-4.994-2.236-4.994-4.994V5.502
		c0-2.758,2.236-4.994,4.994-4.994h15.012C37.764,0.508,40,2.744,40,5.502V13.514z M36,6.172c0-0.919-0.745-1.665-1.664-1.665
		H19.664C18.745,4.508,18,5.253,18,6.172v8.671c0,0.919,0.745,1.665,1.664,1.665h14.672c0.919,0,1.664-0.745,1.664-1.665V6.172z"/>
</g>
</svg>
