<?xml version="1.0" encoding="utf-8"?>
<!-- Generator: Adobe Illustrator 16.0.0, SVG Export Plug-In . SVG Version: 6.00 Build 0)  -->
<!DOCTYPE svg PUBLIC "-//W3C//DTD SVG 1.1//EN" "http://www.w3.org/Graphics/SVG/1.1/DTD/svg11.dtd">
<svg version="1.1" id="Layer_1" xmlns="http://www.w3.org/2000/svg" xmlns:xlink="http://www.w3.org/1999/xlink" x="0px" y="0px"
	 width="255px" height="123px" viewBox="0 0 255 123" enable-background="new 0 0 255 123" xml:space="preserve">
<g>
	<path fill="#458A94" d="M245.191,0H9.807C4.391,0,0,4.405,0,9.84v76.063c2.547-0.759,5.243-1.172,8.036-1.172
		c15.566,0,28.183,12.658,28.183,28.274c0,3.52-0.646,6.886-1.818,9.995h92.129h118.662c5.418,0,9.809-4.405,9.809-9.841v-16.54
		V9.84C255,4.405,250.609,0,245.191,0z"/>
	<path fill="#D87250" d="M8.037,84.73c-2.793,0-5.489,0.413-8.036,1.172v27.257C0,118.595,4.391,123,9.807,123h24.594
		c1.173-3.109,1.818-6.476,1.818-9.995C36.219,97.389,23.603,84.73,8.037,84.73z"/>
	
		<path id="path4389_1_" sodipodi:rx="22.988461" sodipodi:ry="22.988461" sodipodi:cy="849.84454" sodipodi:type="arc" sodipodi:cx="71.931633" fill="#D87250" d="
		M180.342,70.57c0,15.616-12.617,28.276-28.182,28.276s-28.183-12.66-28.183-28.276s12.619-28.275,28.183-28.275
		S180.342,54.954,180.342,70.57z"/>
	
		<path id="path4391_1_" sodipodi:rx="34.853474" sodipodi:ry="34.853474" sodipodi:cy="852.81079" sodipodi:type="arc" sodipodi:cx="109.0098" fill="#D87250" d="
		M242.797,74.218c0,23.677-19.131,42.87-42.729,42.87c-23.6,0-42.729-19.193-42.729-42.87c0-23.676,19.129-42.869,42.729-42.869
		C223.666,31.349,242.797,50.542,242.797,74.218z"/>
	<g>
		<path fill="#391E22" d="M9.002,24.951c0.373,0.255,0.853,0.477,1.438,0.664s1.243,0.28,1.972,0.28c0.917,0,1.65-0.166,2.202-0.498
			s0.971-0.82,1.26-1.468c0.289-0.646,0.475-1.442,0.56-2.388c0.085-0.944,0.127-2.021,0.127-3.23V9.119h1.782v9.192
			c0,1.379-0.064,2.635-0.191,3.767c-0.127,1.133-0.395,2.099-0.802,2.898c-0.407,0.801-1.001,1.422-1.782,1.864
			c-0.781,0.442-1.833,0.664-3.156,0.664c-1.527,0-2.833-0.375-3.919-1.124L9.002,24.951z"/>
		<path fill="#391E22" d="M27.76,27.479c-0.967,0-1.854-0.183-2.66-0.549c-0.806-0.365-1.501-0.863-2.087-1.493
			s-1.04-1.362-1.362-2.196s-0.483-1.711-0.483-2.63c0-0.937,0.166-1.821,0.496-2.656c0.331-0.834,0.789-1.565,1.375-2.196
			c0.585-0.629,1.281-1.132,2.087-1.506c0.806-0.374,1.684-0.563,2.634-0.563s1.828,0.188,2.634,0.563
			c0.806,0.374,1.501,0.877,2.087,1.506c0.585,0.631,1.043,1.362,1.375,2.196c0.331,0.835,0.497,1.72,0.497,2.656
			c0,0.919-0.166,1.796-0.497,2.63s-0.789,1.566-1.375,2.196s-1.281,1.128-2.087,1.493C29.588,27.296,28.71,27.479,27.76,27.479z
			 M22.95,20.636c0,0.749,0.123,1.442,0.369,2.081s0.585,1.2,1.018,1.686c0.433,0.484,0.942,0.864,1.527,1.136
			c0.585,0.272,1.209,0.409,1.871,0.409s1.285-0.141,1.871-0.422c0.585-0.28,1.099-0.664,1.54-1.149
			c0.441-0.484,0.789-1.051,1.043-1.697c0.254-0.647,0.382-1.345,0.382-2.095c0-0.731-0.127-1.425-0.382-2.081
			c-0.254-0.654-0.603-1.226-1.043-1.711c-0.441-0.484-0.951-0.868-1.527-1.148c-0.577-0.281-1.196-0.422-1.858-0.422
			s-1.285,0.141-1.871,0.422c-0.585,0.28-1.094,0.668-1.527,1.162c-0.433,0.493-0.776,1.068-1.031,1.724
			C23.077,19.185,22.95,19.887,22.95,20.636z"/>
		<path fill="#391E22" d="M48.325,27.224h-1.731v-7.431c0-1.515-0.259-2.647-0.776-3.396s-1.277-1.123-2.278-1.123
			c-0.492,0-0.979,0.098-1.463,0.293c-0.483,0.196-0.938,0.465-1.362,0.805c-0.424,0.341-0.793,0.74-1.107,1.2
			s-0.547,0.962-0.7,1.507v8.146h-1.731V8.583h1.731v8.35c0.542-1.004,1.281-1.796,2.214-2.374c0.933-0.579,1.935-0.869,3.003-0.869
			c0.764,0,1.413,0.141,1.947,0.422c0.534,0.281,0.967,0.673,1.298,1.175s0.573,1.106,0.726,1.813
			c0.152,0.707,0.229,1.485,0.229,2.337V27.224z"/>
		<path fill="#391E22" d="M63.061,27.224H61.33v-7.431c0-1.583-0.229-2.732-0.687-3.447s-1.171-1.072-2.138-1.072
			c-0.509,0-1.018,0.094-1.527,0.28c-0.509,0.188-0.984,0.451-1.425,0.792c-0.441,0.341-0.827,0.745-1.158,1.213
			c-0.331,0.469-0.581,0.975-0.75,1.52v8.146h-1.731V13.92h1.578v3.013c0.271-0.477,0.606-0.915,1.005-1.314
			c0.398-0.4,0.844-0.745,1.336-1.034c0.492-0.29,1.014-0.511,1.565-0.664c0.551-0.153,1.124-0.23,1.718-0.23
			c0.747,0,1.37,0.137,1.871,0.409c0.5,0.272,0.903,0.655,1.209,1.149c0.305,0.493,0.525,1.098,0.662,1.813
			c0.135,0.715,0.204,1.507,0.204,2.375V27.224z"/>
		<path fill="#391E22" d="M73.598,27.224V9.094h6.108c1.442,0,2.707,0.238,3.792,0.715c1.085,0.477,1.989,1.123,2.71,1.94
			s1.26,1.775,1.616,2.873s0.535,2.269,0.535,3.511c0,1.379-0.204,2.626-0.611,3.741s-0.984,2.068-1.731,2.86
			c-0.747,0.791-1.654,1.404-2.723,1.838c-1.069,0.435-2.265,0.651-3.589,0.651H73.598z M86.578,18.133c0-1.089-0.153-2.089-0.458-3
			c-0.306-0.91-0.751-1.698-1.336-2.362s-1.302-1.179-2.15-1.545c-0.849-0.365-1.824-0.549-2.927-0.549h-4.352v14.964h4.352
			c1.12,0,2.108-0.191,2.965-0.575c0.856-0.383,1.573-0.91,2.15-1.583c0.577-0.672,1.014-1.464,1.311-2.374
			C86.429,20.197,86.578,19.205,86.578,18.133z"/>
		<path fill="#391E22" d="M97.166,27.479c-0.967,0-1.854-0.183-2.66-0.549c-0.806-0.365-1.501-0.863-2.087-1.493
			s-1.04-1.362-1.362-2.196s-0.483-1.711-0.483-2.63c0-0.937,0.166-1.821,0.496-2.656c0.331-0.834,0.789-1.565,1.375-2.196
			c0.585-0.629,1.281-1.132,2.087-1.506c0.806-0.374,1.684-0.563,2.634-0.563s1.828,0.188,2.634,0.563
			c0.806,0.374,1.501,0.877,2.087,1.506c0.585,0.631,1.043,1.362,1.375,2.196c0.331,0.835,0.497,1.72,0.497,2.656
			c0,0.919-0.166,1.796-0.497,2.63s-0.789,1.566-1.375,2.196s-1.281,1.128-2.087,1.493C98.994,27.296,98.116,27.479,97.166,27.479z
			 M92.355,20.636c0,0.749,0.123,1.442,0.369,2.081s0.585,1.2,1.018,1.686c0.433,0.484,0.942,0.864,1.527,1.136
			c0.585,0.272,1.209,0.409,1.871,0.409s1.285-0.141,1.871-0.422c0.585-0.28,1.099-0.664,1.54-1.149
			c0.441-0.484,0.789-1.051,1.043-1.697c0.254-0.647,0.382-1.345,0.382-2.095c0-0.731-0.127-1.425-0.382-2.081
			c-0.254-0.654-0.603-1.226-1.043-1.711c-0.441-0.484-0.951-0.868-1.527-1.148c-0.577-0.281-1.196-0.422-1.858-0.422
			s-1.285,0.141-1.871,0.422c-0.585,0.28-1.094,0.668-1.527,1.162c-0.433,0.493-0.776,1.068-1.031,1.724
			C92.482,19.185,92.355,19.887,92.355,20.636z"/>
		<path fill="#391E22" d="M112.385,27.479c-0.967,0-1.858-0.183-2.673-0.549c-0.814-0.365-1.519-0.868-2.112-1.506
			c-0.594-0.639-1.056-1.375-1.387-2.209c-0.331-0.834-0.496-1.728-0.496-2.682c0-0.936,0.166-1.816,0.496-2.643
			c0.331-0.825,0.793-1.549,1.387-2.171c0.594-0.621,1.294-1.114,2.1-1.48s1.693-0.55,2.66-0.55c0.967,0,1.854,0.184,2.66,0.55
			c0.806,0.366,1.498,0.864,2.075,1.493c0.577,0.63,1.026,1.354,1.349,2.171s0.484,1.686,0.484,2.604
			c0,0.137-0.004,0.272-0.013,0.408c-0.009,0.137-0.021,0.23-0.039,0.281h-11.326c0.051,0.715,0.216,1.375,0.496,1.979
			c0.28,0.604,0.636,1.128,1.069,1.57c0.433,0.442,0.933,0.787,1.501,1.034c0.568,0.247,1.175,0.37,1.82,0.37
			c0.441,0,0.874-0.06,1.298-0.179c0.424-0.119,0.814-0.281,1.171-0.485s0.674-0.455,0.955-0.753
			c0.28-0.298,0.496-0.626,0.649-0.983l1.501,0.408c-0.204,0.494-0.492,0.941-0.865,1.341c-0.374,0.4-0.806,0.749-1.298,1.047
			c-0.493,0.298-1.035,0.528-1.629,0.689C113.624,27.398,113.013,27.479,112.385,27.479z M117.272,19.869
			c-0.051-0.715-0.217-1.366-0.497-1.953s-0.636-1.094-1.069-1.52c-0.433-0.425-0.938-0.757-1.515-0.996
			c-0.577-0.237-1.188-0.357-1.833-0.357s-1.256,0.12-1.833,0.357c-0.577,0.239-1.082,0.571-1.514,0.996
			c-0.433,0.426-0.781,0.937-1.043,1.532c-0.263,0.596-0.42,1.243-0.471,1.94H117.272z"/>
	</g>
	<g>
		<g>
			<g>
				<g>
					<path fill="#CCA36E" d="M9.968,48.932c0-0.579,0.102-1.157,0.305-1.732s0.499-1.089,0.887-1.542s0.867-0.822,1.436-1.107
						s1.214-0.428,1.937-0.428c0.858,0,1.589,0.194,2.194,0.584s1.057,0.896,1.354,1.521l-0.758,0.462
						c-0.154-0.316-0.339-0.584-0.555-0.801c-0.217-0.218-0.452-0.395-0.705-0.53s-0.515-0.233-0.785-0.292
						c-0.271-0.059-0.538-0.089-0.799-0.089c-0.578,0-1.088,0.118-1.53,0.354s-0.815,0.544-1.117,0.924
						c-0.303,0.381-0.53,0.809-0.684,1.284c-0.153,0.476-0.23,0.958-0.23,1.447c0,0.534,0.092,1.046,0.277,1.535
						s0.438,0.922,0.759,1.298c0.32,0.376,0.699,0.675,1.137,0.896s0.915,0.333,1.429,0.333c0.271,0,0.548-0.034,0.833-0.102
						c0.285-0.068,0.56-0.177,0.826-0.326s0.512-0.335,0.738-0.558c0.226-0.222,0.415-0.491,0.569-0.809l0.785,0.408
						c-0.153,0.362-0.37,0.682-0.65,0.958s-0.591,0.509-0.935,0.699s-0.707,0.335-1.09,0.435s-0.76,0.149-1.13,0.149
						c-0.659,0-1.264-0.145-1.815-0.435c-0.551-0.289-1.025-0.668-1.422-1.135c-0.397-0.466-0.707-0.996-0.928-1.589
						C10.079,50.152,9.968,49.548,9.968,48.932z"/>
					<path fill="#CCA36E" d="M22.712,53.959c-0.515,0-0.986-0.098-1.415-0.292c-0.429-0.194-0.799-0.46-1.11-0.795
						c-0.312-0.335-0.553-0.725-0.725-1.168c-0.172-0.444-0.257-0.911-0.257-1.4c0-0.498,0.088-0.969,0.264-1.413
						c0.176-0.443,0.419-0.833,0.731-1.168s0.682-0.603,1.111-0.802c0.429-0.199,0.896-0.299,1.401-0.299s0.973,0.1,1.402,0.299
						c0.429,0.199,0.799,0.467,1.11,0.802s0.555,0.725,0.731,1.168c0.176,0.444,0.264,0.915,0.264,1.413
						c0,0.489-0.088,0.956-0.264,1.4c-0.176,0.443-0.42,0.833-0.731,1.168s-0.682,0.601-1.11,0.795
						C23.685,53.861,23.218,53.959,22.712,53.959z M20.152,50.317c0,0.399,0.065,0.768,0.196,1.107s0.312,0.639,0.542,0.897
						c0.23,0.258,0.501,0.459,0.813,0.604c0.312,0.145,0.643,0.217,0.995,0.217c0.353,0,0.684-0.074,0.996-0.224
						s0.584-0.354,0.819-0.611c0.235-0.259,0.42-0.56,0.555-0.904c0.136-0.344,0.203-0.715,0.203-1.113
						c0-0.39-0.067-0.759-0.203-1.107c-0.135-0.349-0.32-0.652-0.555-0.911c-0.235-0.258-0.506-0.462-0.813-0.611
						c-0.307-0.149-0.637-0.224-0.989-0.224s-0.684,0.074-0.995,0.224s-0.583,0.355-0.813,0.618
						c-0.23,0.263-0.413,0.569-0.548,0.917C20.22,49.546,20.152,49.919,20.152,50.317z"/>
					<path fill="#CCA36E" d="M38.218,53.823h-0.921v-3.954c0-0.824-0.129-1.431-0.386-1.82s-0.648-0.584-1.171-0.584
						c-0.271,0-0.526,0.05-0.765,0.149s-0.46,0.239-0.664,0.421s-0.381,0.396-0.535,0.646c-0.153,0.249-0.271,0.522-0.352,0.822
						v4.32h-0.921v-3.954c0-0.842-0.126-1.454-0.379-1.834c-0.253-0.381-0.641-0.57-1.165-0.57c-0.533,0-1.006,0.186-1.422,0.557
						c-0.415,0.371-0.713,0.86-0.894,1.468v4.334h-0.921v-7.079h0.839v1.604c0.289-0.544,0.668-0.967,1.138-1.271
						c0.469-0.304,0.989-0.455,1.558-0.455c0.596,0,1.074,0.168,1.436,0.503c0.361,0.335,0.578,0.774,0.65,1.317
						c0.659-1.214,1.571-1.82,2.736-1.82c0.388,0,0.72,0.072,0.995,0.218c0.275,0.145,0.497,0.351,0.664,0.618
						c0.167,0.267,0.289,0.589,0.366,0.964c0.077,0.376,0.115,0.795,0.115,1.257V53.823z"/>
					<path fill="#CCA36E" d="M43.744,53.959c-0.596,0-1.124-0.151-1.584-0.455s-0.831-0.687-1.11-1.148v4.362h-0.921v-9.974h0.826
						v1.372c0.289-0.443,0.664-0.804,1.124-1.08s0.961-0.414,1.503-0.414c0.488,0,0.937,0.102,1.348,0.306
						c0.411,0.204,0.765,0.476,1.063,0.815s0.53,0.731,0.698,1.175c0.167,0.444,0.25,0.901,0.25,1.373
						c0,0.498-0.077,0.969-0.23,1.413c-0.153,0.443-0.373,0.833-0.657,1.168s-0.623,0.601-1.016,0.795S44.213,53.959,43.744,53.959z
						 M43.486,53.144c0.379,0,0.722-0.081,1.029-0.244c0.307-0.163,0.571-0.378,0.792-0.646c0.221-0.267,0.39-0.57,0.508-0.91
						c0.117-0.34,0.176-0.69,0.176-1.053c0-0.381-0.067-0.743-0.203-1.088c-0.135-0.344-0.32-0.647-0.555-0.91
						s-0.513-0.471-0.833-0.625c-0.32-0.153-0.666-0.23-1.036-0.23c-0.235,0-0.479,0.047-0.731,0.143
						c-0.253,0.095-0.492,0.222-0.718,0.38c-0.226,0.159-0.418,0.345-0.576,0.558c-0.158,0.213-0.255,0.437-0.291,0.673v2.174
						c0.108,0.253,0.246,0.489,0.413,0.706c0.167,0.218,0.356,0.405,0.569,0.564c0.212,0.158,0.442,0.283,0.69,0.373
						C42.969,53.099,43.225,53.144,43.486,53.144z"/>
					<path fill="#CCA36E" d="M50.325,53.959c-0.361,0-0.69-0.057-0.988-0.17c-0.298-0.113-0.553-0.27-0.766-0.469
						c-0.212-0.199-0.377-0.43-0.494-0.692s-0.176-0.539-0.176-0.829c0-0.326,0.072-0.623,0.216-0.89
						c0.145-0.268,0.348-0.496,0.609-0.687s0.576-0.337,0.941-0.441s0.77-0.156,1.212-0.156c0.352,0,0.713,0.031,1.083,0.095
						s0.7,0.154,0.989,0.271v-0.639c0-0.625-0.178-1.12-0.535-1.487c-0.356-0.367-0.837-0.551-1.442-0.551
						c-0.379,0-0.756,0.073-1.131,0.218c-0.375,0.146-0.756,0.354-1.145,0.625l-0.325-0.611c0.46-0.308,0.908-0.539,1.341-0.693
						c0.434-0.153,0.885-0.23,1.354-0.23c0.857,0,1.539,0.249,2.045,0.747c0.505,0.498,0.758,1.187,0.758,2.065v3.193
						c0,0.253,0.108,0.38,0.325,0.38v0.815c-0.073,0.009-0.14,0.016-0.203,0.021c-0.063,0.004-0.118,0.007-0.163,0.007
						c-0.181,0-0.346-0.055-0.495-0.163s-0.232-0.271-0.25-0.489l-0.027-0.557c-0.307,0.416-0.711,0.74-1.212,0.971
						C51.348,53.844,50.84,53.959,50.325,53.959z M50.556,53.253c0.406,0,0.81-0.089,1.212-0.266s0.72-0.419,0.955-0.727
						c0.063-0.082,0.117-0.17,0.163-0.265c0.045-0.096,0.068-0.184,0.068-0.266v-1.154c-0.307-0.118-0.627-0.209-0.961-0.272
						c-0.334-0.063-0.659-0.095-0.975-0.095c-0.659,0-1.194,0.134-1.605,0.4c-0.411,0.268-0.616,0.637-0.616,1.107
						c0,0.19,0.036,0.376,0.108,0.558s0.183,0.344,0.332,0.489c0.149,0.145,0.332,0.263,0.549,0.354
						C50,53.207,50.258,53.253,50.556,53.253z"/>
					<path fill="#CCA36E" d="M61.81,53.823h-0.921v-3.954c0-0.842-0.122-1.454-0.366-1.834c-0.244-0.381-0.623-0.57-1.138-0.57
						c-0.271,0-0.542,0.05-0.813,0.149s-0.524,0.239-0.758,0.421c-0.235,0.182-0.44,0.396-0.616,0.646
						c-0.176,0.249-0.31,0.519-0.399,0.809v4.334h-0.921v-7.079h0.839v1.604c0.145-0.254,0.323-0.487,0.535-0.7
						c0.212-0.212,0.449-0.396,0.711-0.55c0.262-0.154,0.54-0.271,0.833-0.354c0.293-0.081,0.598-0.122,0.914-0.122
						c0.397,0,0.729,0.072,0.995,0.218c0.267,0.145,0.481,0.349,0.644,0.611s0.28,0.584,0.352,0.964
						c0.072,0.381,0.108,0.802,0.108,1.264V53.823z"/>
					<path fill="#CCA36E" d="M63.99,56.011c0.045,0.009,0.09,0.016,0.135,0.021c0.045,0.004,0.09,0.007,0.135,0.007
						c0.09,0,0.188-0.009,0.292-0.027c0.104-0.019,0.178-0.036,0.223-0.055c0.045-0.018,0.093-0.057,0.143-0.115
						c0.049-0.059,0.113-0.163,0.189-0.313s0.174-0.357,0.291-0.625s0.266-0.627,0.447-1.08l-3.074-7.079h0.961l2.614,6.223
						l2.411-6.223h0.88l-3.67,9.131c-0.135,0.335-0.318,0.584-0.548,0.747c-0.23,0.163-0.553,0.245-0.968,0.245
						c-0.172,0-0.325-0.014-0.46-0.041V56.011z"/>
				</g>
			</g>
			<g>
				<g>
					<path fill="#CCA36E" d="M10.591,68.916v-9.647h3.981c0.416,0,0.797,0.089,1.145,0.266s0.648,0.407,0.901,0.692
						c0.252,0.286,0.449,0.609,0.589,0.972c0.14,0.362,0.21,0.729,0.21,1.101c0,0.398-0.065,0.781-0.196,1.148
						c-0.131,0.367-0.318,0.69-0.562,0.972c-0.244,0.28-0.535,0.507-0.874,0.679c-0.339,0.173-0.716,0.259-1.131,0.259h-3.128v3.56
						H10.591z M11.526,64.514H14.6c0.28,0,0.535-0.062,0.765-0.184c0.23-0.122,0.427-0.285,0.589-0.489
						c0.163-0.203,0.289-0.438,0.379-0.706s0.135-0.546,0.135-0.836c0-0.299-0.052-0.582-0.156-0.849
						c-0.104-0.268-0.244-0.501-0.419-0.7c-0.176-0.199-0.384-0.355-0.623-0.469s-0.49-0.17-0.751-0.17h-2.993V64.514z"/>
					<path fill="#CCA36E" d="M21.642,69.052c-0.515,0-0.986-0.098-1.415-0.292c-0.429-0.194-0.799-0.46-1.11-0.795
						c-0.312-0.335-0.553-0.725-0.725-1.168c-0.172-0.444-0.257-0.911-0.257-1.4c0-0.498,0.088-0.969,0.264-1.413
						c0.176-0.443,0.419-0.833,0.731-1.168s0.682-0.603,1.111-0.802c0.429-0.199,0.896-0.299,1.401-0.299s0.973,0.1,1.402,0.299
						c0.429,0.199,0.799,0.467,1.11,0.802s0.555,0.725,0.731,1.168c0.176,0.444,0.264,0.915,0.264,1.413
						c0,0.489-0.088,0.956-0.264,1.4c-0.176,0.443-0.42,0.833-0.731,1.168s-0.682,0.601-1.11,0.795
						C22.615,68.954,22.148,69.052,21.642,69.052z M19.083,65.41c0,0.399,0.065,0.768,0.196,1.107s0.312,0.639,0.542,0.897
						c0.23,0.258,0.501,0.459,0.813,0.604c0.312,0.145,0.643,0.217,0.995,0.217c0.353,0,0.684-0.074,0.996-0.224
						s0.584-0.354,0.819-0.611c0.235-0.259,0.42-0.56,0.555-0.904c0.136-0.344,0.203-0.715,0.203-1.113
						c0-0.39-0.067-0.759-0.203-1.107c-0.135-0.349-0.32-0.652-0.555-0.911c-0.235-0.258-0.506-0.462-0.813-0.611
						c-0.307-0.149-0.637-0.224-0.989-0.224s-0.684,0.074-0.995,0.224s-0.583,0.355-0.813,0.618
						c-0.23,0.263-0.413,0.569-0.548,0.917C19.15,64.639,19.083,65.012,19.083,65.41z"/>
					<path fill="#CCA36E" d="M29.009,69.052c-0.551,0-1.088-0.091-1.611-0.271c-0.524-0.182-0.975-0.443-1.354-0.788l0.42-0.625
						c0.397,0.326,0.801,0.57,1.212,0.733c0.411,0.163,0.851,0.245,1.321,0.245c0.569,0,1.022-0.116,1.361-0.347
						c0.338-0.231,0.508-0.56,0.508-0.985c0-0.199-0.045-0.364-0.135-0.496c-0.09-0.131-0.224-0.246-0.399-0.347
						c-0.176-0.099-0.397-0.188-0.664-0.265c-0.267-0.077-0.576-0.156-0.928-0.237c-0.406-0.1-0.758-0.199-1.057-0.299
						c-0.298-0.1-0.544-0.213-0.738-0.34c-0.194-0.127-0.339-0.283-0.434-0.469s-0.142-0.419-0.142-0.7
						c0-0.354,0.07-0.666,0.21-0.938c0.14-0.271,0.33-0.496,0.569-0.673c0.239-0.176,0.519-0.31,0.839-0.4
						c0.321-0.091,0.662-0.136,1.022-0.136c0.542,0,1.034,0.088,1.477,0.265c0.442,0.177,0.799,0.41,1.07,0.7l-0.447,0.543
						c-0.262-0.271-0.58-0.476-0.955-0.611s-0.765-0.204-1.171-0.204c-0.244,0-0.47,0.025-0.677,0.075s-0.391,0.129-0.548,0.237
						c-0.158,0.109-0.282,0.247-0.373,0.415s-0.135,0.364-0.135,0.591c0,0.19,0.031,0.345,0.095,0.462
						c0.063,0.118,0.167,0.22,0.312,0.306c0.144,0.086,0.327,0.163,0.548,0.231c0.221,0.067,0.49,0.138,0.806,0.21
						c0.452,0.109,0.849,0.218,1.192,0.326c0.343,0.109,0.63,0.236,0.86,0.381c0.23,0.145,0.404,0.321,0.521,0.529
						c0.117,0.209,0.176,0.463,0.176,0.762c0,0.651-0.249,1.168-0.745,1.549C30.517,68.861,29.849,69.052,29.009,69.052z"/>
					<path fill="#CCA36E" d="M33.235,60.356v-1.359h0.921v1.359H33.235z M33.235,68.916v-7.079h0.921v7.079H33.235z"/>
					<path fill="#CCA36E" d="M39.545,68.576c-0.054,0.027-0.133,0.063-0.237,0.108c-0.104,0.046-0.224,0.091-0.359,0.137
						c-0.136,0.045-0.289,0.086-0.46,0.122c-0.172,0.036-0.352,0.054-0.542,0.054c-0.199,0-0.388-0.026-0.569-0.081
						s-0.338-0.138-0.474-0.251c-0.136-0.113-0.244-0.256-0.325-0.429c-0.081-0.172-0.122-0.371-0.122-0.598V62.57h-0.975v-0.733
						h0.975v-2.392h0.921v2.392h1.625v0.733h-1.625v4.811c0.018,0.263,0.108,0.455,0.271,0.577s0.356,0.184,0.583,0.184
						c0.262,0,0.492-0.043,0.69-0.129s0.325-0.147,0.379-0.184L39.545,68.576z"/>
					<path fill="#CCA36E" d="M40.629,60.356v-1.359h0.921v1.359H40.629z M40.629,68.916v-7.079h0.921v7.079H40.629z"/>
					<path fill="#CCA36E" d="M46.574,69.052c-0.515,0-0.986-0.098-1.415-0.292c-0.429-0.194-0.799-0.46-1.11-0.795
						c-0.312-0.335-0.553-0.725-0.725-1.168c-0.172-0.444-0.257-0.911-0.257-1.4c0-0.498,0.088-0.969,0.264-1.413
						c0.176-0.443,0.419-0.833,0.731-1.168s0.682-0.603,1.111-0.802c0.429-0.199,0.896-0.299,1.401-0.299s0.973,0.1,1.402,0.299
						c0.429,0.199,0.799,0.467,1.11,0.802s0.555,0.725,0.731,1.168c0.176,0.444,0.264,0.915,0.264,1.413
						c0,0.489-0.088,0.956-0.264,1.4c-0.176,0.443-0.42,0.833-0.731,1.168s-0.682,0.601-1.11,0.795
						C47.546,68.954,47.08,69.052,46.574,69.052z M44.014,65.41c0,0.399,0.065,0.768,0.196,1.107s0.312,0.639,0.542,0.897
						c0.23,0.258,0.501,0.459,0.813,0.604c0.312,0.145,0.643,0.217,0.995,0.217c0.353,0,0.684-0.074,0.996-0.224
						s0.584-0.354,0.819-0.611c0.235-0.259,0.42-0.56,0.555-0.904c0.136-0.344,0.203-0.715,0.203-1.113
						c0-0.39-0.067-0.759-0.203-1.107c-0.135-0.349-0.32-0.652-0.555-0.911c-0.235-0.258-0.506-0.462-0.813-0.611
						c-0.307-0.149-0.637-0.224-0.989-0.224s-0.684,0.074-0.995,0.224s-0.583,0.355-0.813,0.618
						c-0.23,0.263-0.413,0.569-0.548,0.917C44.082,64.639,44.014,65.012,44.014,65.41z"/>
					<path fill="#CCA36E" d="M57.516,68.916h-0.921v-3.954c0-0.842-0.122-1.454-0.366-1.834c-0.244-0.381-0.623-0.57-1.138-0.57
						c-0.271,0-0.542,0.05-0.813,0.149s-0.524,0.239-0.758,0.421c-0.235,0.182-0.44,0.396-0.616,0.646
						c-0.176,0.249-0.31,0.519-0.399,0.809v4.334h-0.921v-7.079h0.839v1.604c0.145-0.254,0.323-0.487,0.535-0.7
						c0.212-0.212,0.449-0.396,0.711-0.55c0.262-0.154,0.54-0.271,0.833-0.354c0.293-0.081,0.598-0.122,0.914-0.122
						c0.397,0,0.729,0.072,0.995,0.218c0.267,0.145,0.481,0.349,0.644,0.611s0.28,0.584,0.352,0.964
						c0.072,0.381,0.108,0.802,0.108,1.264V68.916z"/>
				</g>
			</g>
			<g>
				<g>
					<path fill="#CCA36E" d="M9.576,84.012l4.022-9.647h0.772l4.022,9.647h-1.016l-1.246-3.017h-4.32l-1.232,3.017H9.576z
						 M13.991,75.479l-1.978,4.77h3.9L13.991,75.479z"/>
					<path fill="#CCA36E" d="M22.252,84.147c-0.488,0-0.939-0.102-1.354-0.306c-0.416-0.204-0.774-0.473-1.077-0.809
						c-0.303-0.335-0.537-0.722-0.704-1.161c-0.167-0.439-0.25-0.899-0.25-1.38c0-0.498,0.081-0.971,0.244-1.42
						c0.163-0.448,0.386-0.84,0.67-1.175c0.284-0.335,0.623-0.6,1.016-0.795c0.393-0.194,0.824-0.292,1.293-0.292
						c0.596,0,1.124,0.156,1.584,0.469s0.826,0.69,1.097,1.135v-4.321h0.921v8.724c0,0.253,0.108,0.38,0.325,0.38v0.815
						c-0.154,0.027-0.275,0.041-0.366,0.041c-0.226,0-0.411-0.065-0.555-0.197c-0.145-0.131-0.217-0.287-0.217-0.469V82.64
						c-0.289,0.462-0.67,0.828-1.144,1.101C23.261,84.012,22.767,84.147,22.252,84.147z M22.441,83.332
						c0.234,0,0.48-0.045,0.738-0.136c0.257-0.09,0.497-0.215,0.718-0.373c0.221-0.159,0.413-0.345,0.576-0.558
						s0.262-0.441,0.298-0.686v-2.188c-0.09-0.244-0.223-0.473-0.399-0.686c-0.176-0.213-0.375-0.401-0.596-0.564
						s-0.456-0.289-0.704-0.38c-0.249-0.091-0.495-0.136-0.738-0.136c-0.379,0-0.725,0.081-1.036,0.244s-0.576,0.379-0.792,0.646
						c-0.217,0.268-0.386,0.573-0.508,0.917c-0.122,0.345-0.183,0.698-0.183,1.06c0,0.381,0.068,0.743,0.203,1.088
						c0.136,0.344,0.32,0.645,0.555,0.903c0.235,0.258,0.513,0.464,0.833,0.618S22.071,83.332,22.441,83.332z"/>
					<path fill="#CCA36E" d="M30.688,84.147c-0.488,0-0.939-0.102-1.354-0.306c-0.416-0.204-0.774-0.473-1.077-0.809
						c-0.303-0.335-0.537-0.722-0.704-1.161c-0.167-0.439-0.25-0.899-0.25-1.38c0-0.498,0.081-0.971,0.244-1.42
						c0.163-0.448,0.386-0.84,0.67-1.175c0.284-0.335,0.623-0.6,1.016-0.795c0.393-0.194,0.824-0.292,1.293-0.292
						c0.596,0,1.124,0.156,1.584,0.469s0.826,0.69,1.097,1.135v-4.321h0.921v8.724c0,0.253,0.108,0.38,0.325,0.38v0.815
						c-0.154,0.027-0.275,0.041-0.366,0.041c-0.226,0-0.411-0.065-0.555-0.197c-0.145-0.131-0.217-0.287-0.217-0.469V82.64
						c-0.289,0.462-0.67,0.828-1.144,1.101C31.697,84.012,31.203,84.147,30.688,84.147z M30.878,83.332
						c0.234,0,0.48-0.045,0.738-0.136c0.257-0.09,0.497-0.215,0.718-0.373c0.221-0.159,0.413-0.345,0.576-0.558
						s0.262-0.441,0.298-0.686v-2.188c-0.09-0.244-0.223-0.473-0.399-0.686c-0.176-0.213-0.375-0.401-0.596-0.564
						s-0.456-0.289-0.704-0.38c-0.249-0.091-0.495-0.136-0.738-0.136c-0.379,0-0.725,0.081-1.036,0.244s-0.576,0.379-0.792,0.646
						c-0.217,0.268-0.386,0.573-0.508,0.917c-0.122,0.345-0.183,0.698-0.183,1.06c0,0.381,0.068,0.743,0.203,1.088
						c0.136,0.344,0.32,0.645,0.555,0.903c0.235,0.258,0.513,0.464,0.833,0.618S30.507,83.332,30.878,83.332z"/>
					<path fill="#CCA36E" d="M39.721,77.748c-0.623,0.019-1.165,0.19-1.625,0.517s-0.786,0.774-0.975,1.345v4.402H36.2v-7.079h0.867
						v1.698c0.244-0.498,0.564-0.912,0.961-1.243c0.397-0.33,0.826-0.496,1.287-0.496c0.081,0,0.158,0,0.23,0
						s0.131,0.005,0.176,0.014V77.748z"/>
					<path fill="#CCA36E" d="M44.041,84.147c-0.515,0-0.988-0.098-1.422-0.292c-0.433-0.194-0.808-0.462-1.124-0.802
						s-0.562-0.731-0.738-1.175c-0.176-0.444-0.264-0.92-0.264-1.427c0-0.498,0.088-0.967,0.264-1.406
						c0.176-0.439,0.422-0.824,0.738-1.155c0.316-0.33,0.688-0.593,1.117-0.788c0.429-0.194,0.901-0.292,1.416-0.292
						s0.986,0.098,1.415,0.292c0.429,0.195,0.797,0.46,1.104,0.795c0.307,0.335,0.546,0.72,0.718,1.155
						c0.171,0.435,0.257,0.896,0.257,1.386c0,0.072-0.002,0.145-0.006,0.217c-0.005,0.073-0.012,0.123-0.021,0.149h-6.026
						c0.027,0.381,0.115,0.732,0.264,1.054c0.149,0.321,0.339,0.6,0.569,0.835c0.23,0.236,0.497,0.42,0.799,0.551
						c0.302,0.131,0.625,0.197,0.968,0.197c0.234,0,0.465-0.032,0.69-0.096s0.434-0.149,0.623-0.258
						c0.19-0.108,0.359-0.242,0.508-0.401c0.149-0.158,0.264-0.332,0.346-0.522l0.799,0.217c-0.108,0.264-0.262,0.501-0.46,0.714
						c-0.199,0.213-0.429,0.398-0.691,0.557c-0.262,0.159-0.551,0.281-0.867,0.367S44.375,84.147,44.041,84.147z M46.642,80.099
						c-0.027-0.381-0.115-0.727-0.264-1.039s-0.339-0.582-0.569-0.809c-0.23-0.227-0.499-0.403-0.806-0.53
						c-0.307-0.127-0.632-0.19-0.975-0.19c-0.343,0-0.668,0.063-0.975,0.19c-0.307,0.127-0.576,0.304-0.806,0.53
						c-0.23,0.227-0.415,0.498-0.555,0.815c-0.14,0.316-0.223,0.661-0.25,1.032H46.642z"/>
					<path fill="#CCA36E" d="M51.273,84.147c-0.551,0-1.088-0.091-1.611-0.271c-0.524-0.182-0.975-0.443-1.354-0.788l0.42-0.625
						c0.397,0.326,0.801,0.57,1.212,0.733c0.411,0.163,0.851,0.245,1.321,0.245c0.569,0,1.022-0.116,1.361-0.347
						c0.338-0.231,0.508-0.56,0.508-0.985c0-0.199-0.045-0.364-0.135-0.496c-0.09-0.131-0.224-0.246-0.399-0.347
						c-0.176-0.099-0.397-0.188-0.664-0.265c-0.267-0.077-0.576-0.156-0.928-0.237c-0.406-0.1-0.758-0.199-1.057-0.299
						c-0.298-0.1-0.544-0.213-0.738-0.34c-0.194-0.127-0.339-0.283-0.434-0.469s-0.142-0.419-0.142-0.7
						c0-0.354,0.07-0.666,0.21-0.938c0.14-0.271,0.33-0.496,0.569-0.673c0.239-0.176,0.519-0.31,0.839-0.4
						c0.321-0.091,0.662-0.136,1.022-0.136c0.542,0,1.034,0.088,1.477,0.265c0.442,0.177,0.799,0.41,1.07,0.7l-0.447,0.543
						c-0.262-0.271-0.58-0.476-0.955-0.611s-0.765-0.204-1.171-0.204c-0.244,0-0.47,0.025-0.677,0.075s-0.391,0.129-0.548,0.237
						c-0.158,0.109-0.282,0.247-0.373,0.415s-0.135,0.364-0.135,0.591c0,0.19,0.031,0.345,0.095,0.462
						c0.063,0.118,0.167,0.22,0.312,0.306c0.144,0.086,0.327,0.163,0.548,0.231c0.221,0.067,0.49,0.138,0.806,0.21
						c0.452,0.109,0.849,0.218,1.192,0.326c0.343,0.109,0.63,0.236,0.86,0.381c0.23,0.145,0.404,0.321,0.521,0.529
						c0.117,0.209,0.176,0.463,0.176,0.762c0,0.651-0.249,1.168-0.745,1.549C52.781,83.957,52.113,84.147,51.273,84.147z"/>
					<path fill="#CCA36E" d="M57.868,84.147c-0.551,0-1.088-0.091-1.611-0.271c-0.524-0.182-0.975-0.443-1.354-0.788l0.42-0.625
						c0.397,0.326,0.801,0.57,1.212,0.733c0.411,0.163,0.851,0.245,1.321,0.245c0.569,0,1.022-0.116,1.361-0.347
						c0.338-0.231,0.508-0.56,0.508-0.985c0-0.199-0.045-0.364-0.135-0.496c-0.09-0.131-0.224-0.246-0.399-0.347
						c-0.176-0.099-0.397-0.188-0.664-0.265c-0.267-0.077-0.576-0.156-0.928-0.237c-0.406-0.1-0.758-0.199-1.057-0.299
						c-0.298-0.1-0.544-0.213-0.738-0.34c-0.194-0.127-0.339-0.283-0.434-0.469s-0.142-0.419-0.142-0.7
						c0-0.354,0.07-0.666,0.21-0.938c0.14-0.271,0.33-0.496,0.569-0.673c0.239-0.176,0.519-0.31,0.839-0.4
						c0.321-0.091,0.662-0.136,1.022-0.136c0.542,0,1.034,0.088,1.477,0.265c0.442,0.177,0.799,0.41,1.07,0.7l-0.447,0.543
						c-0.262-0.271-0.58-0.476-0.955-0.611s-0.765-0.204-1.171-0.204c-0.244,0-0.47,0.025-0.677,0.075s-0.391,0.129-0.548,0.237
						c-0.158,0.109-0.282,0.247-0.373,0.415s-0.135,0.364-0.135,0.591c0,0.19,0.031,0.345,0.095,0.462
						c0.063,0.118,0.167,0.22,0.312,0.306c0.144,0.086,0.327,0.163,0.548,0.231c0.221,0.067,0.49,0.138,0.806,0.21
						c0.452,0.109,0.849,0.218,1.192,0.326c0.343,0.109,0.63,0.236,0.86,0.381c0.23,0.145,0.404,0.321,0.521,0.529
						c0.117,0.209,0.176,0.463,0.176,0.762c0,0.651-0.249,1.168-0.745,1.549C59.376,83.957,58.708,84.147,57.868,84.147z"/>
				</g>
			</g>
			<g>
				<g>
					<path fill="#CCA36E" d="M9.576,99.178l4.022-9.647h0.772l4.022,9.647h-1.016l-1.246-3.017h-4.32l-1.232,3.017H9.576z
						 M13.991,90.645l-1.978,4.77h3.9L13.991,90.645z"/>
					<path fill="#CCA36E" d="M22.252,99.313c-0.488,0-0.939-0.102-1.354-0.306c-0.416-0.204-0.774-0.473-1.077-0.809
						c-0.303-0.335-0.537-0.722-0.704-1.161c-0.167-0.439-0.25-0.899-0.25-1.38c0-0.498,0.081-0.971,0.244-1.42
						c0.163-0.448,0.386-0.84,0.67-1.175c0.284-0.335,0.623-0.6,1.016-0.795c0.393-0.194,0.824-0.292,1.293-0.292
						c0.596,0,1.124,0.156,1.584,0.469s0.826,0.69,1.097,1.135v-4.321h0.921v8.724c0,0.253,0.108,0.38,0.325,0.38v0.815
						c-0.154,0.027-0.275,0.041-0.366,0.041c-0.226,0-0.411-0.065-0.555-0.197c-0.145-0.131-0.217-0.287-0.217-0.469v-0.747
						c-0.289,0.462-0.67,0.828-1.144,1.101C23.261,99.178,22.767,99.313,22.252,99.313z M22.441,98.498
						c0.234,0,0.48-0.045,0.738-0.136c0.257-0.09,0.497-0.215,0.718-0.373c0.221-0.159,0.413-0.345,0.576-0.558
						s0.262-0.441,0.298-0.686v-2.188c-0.09-0.244-0.223-0.473-0.399-0.686c-0.176-0.213-0.375-0.401-0.596-0.564
						s-0.456-0.289-0.704-0.38c-0.249-0.091-0.495-0.136-0.738-0.136c-0.379,0-0.725,0.081-1.036,0.244s-0.576,0.379-0.792,0.646
						c-0.217,0.268-0.386,0.573-0.508,0.917c-0.122,0.345-0.183,0.698-0.183,1.06c0,0.381,0.068,0.743,0.203,1.088
						c0.136,0.344,0.32,0.645,0.555,0.903c0.235,0.258,0.513,0.464,0.833,0.618S22.071,98.498,22.441,98.498z"/>
					<path fill="#CCA36E" d="M30.688,99.313c-0.488,0-0.939-0.102-1.354-0.306c-0.416-0.204-0.774-0.473-1.077-0.809
						c-0.303-0.335-0.537-0.722-0.704-1.161c-0.167-0.439-0.25-0.899-0.25-1.38c0-0.498,0.081-0.971,0.244-1.42
						c0.163-0.448,0.386-0.84,0.67-1.175c0.284-0.335,0.623-0.6,1.016-0.795c0.393-0.194,0.824-0.292,1.293-0.292
						c0.596,0,1.124,0.156,1.584,0.469s0.826,0.69,1.097,1.135v-4.321h0.921v8.724c0,0.253,0.108,0.38,0.325,0.38v0.815
						c-0.154,0.027-0.275,0.041-0.366,0.041c-0.226,0-0.411-0.065-0.555-0.197c-0.145-0.131-0.217-0.287-0.217-0.469v-0.747
						c-0.289,0.462-0.67,0.828-1.144,1.101C31.697,99.178,31.203,99.313,30.688,99.313z M30.878,98.498
						c0.234,0,0.48-0.045,0.738-0.136c0.257-0.09,0.497-0.215,0.718-0.373c0.221-0.159,0.413-0.345,0.576-0.558
						s0.262-0.441,0.298-0.686v-2.188c-0.09-0.244-0.223-0.473-0.399-0.686c-0.176-0.213-0.375-0.401-0.596-0.564
						s-0.456-0.289-0.704-0.38c-0.249-0.091-0.495-0.136-0.738-0.136c-0.379,0-0.725,0.081-1.036,0.244s-0.576,0.379-0.792,0.646
						c-0.217,0.268-0.386,0.573-0.508,0.917c-0.122,0.345-0.183,0.698-0.183,1.06c0,0.381,0.068,0.743,0.203,1.088
						c0.136,0.344,0.32,0.645,0.555,0.903c0.235,0.258,0.513,0.464,0.833,0.618S30.507,98.498,30.878,98.498z"/>
					<path fill="#CCA36E" d="M39.721,92.914c-0.623,0.019-1.165,0.19-1.625,0.517s-0.786,0.774-0.975,1.345v4.402H36.2v-7.079h0.867
						v1.698c0.244-0.498,0.564-0.912,0.961-1.243c0.397-0.33,0.826-0.496,1.287-0.496c0.081,0,0.158,0,0.23,0
						s0.131,0.005,0.176,0.014V92.914z"/>
					<path fill="#CCA36E" d="M44.041,99.313c-0.515,0-0.988-0.098-1.422-0.292c-0.433-0.194-0.808-0.462-1.124-0.802
						s-0.562-0.731-0.738-1.175c-0.176-0.444-0.264-0.92-0.264-1.427c0-0.498,0.088-0.967,0.264-1.406
						c0.176-0.439,0.422-0.824,0.738-1.155c0.316-0.33,0.688-0.593,1.117-0.788c0.429-0.194,0.901-0.292,1.416-0.292
						s0.986,0.098,1.415,0.292c0.429,0.195,0.797,0.46,1.104,0.795c0.307,0.335,0.546,0.72,0.718,1.155
						c0.171,0.435,0.257,0.896,0.257,1.386c0,0.072-0.002,0.145-0.006,0.217c-0.005,0.073-0.012,0.123-0.021,0.149h-6.026
						c0.027,0.381,0.115,0.732,0.264,1.054c0.149,0.321,0.339,0.6,0.569,0.835c0.23,0.236,0.497,0.42,0.799,0.551
						c0.302,0.131,0.625,0.197,0.968,0.197c0.234,0,0.465-0.032,0.69-0.096s0.434-0.149,0.623-0.258
						c0.19-0.108,0.359-0.242,0.508-0.401c0.149-0.158,0.264-0.332,0.346-0.522l0.799,0.217c-0.108,0.264-0.262,0.501-0.46,0.714
						c-0.199,0.213-0.429,0.398-0.691,0.557c-0.262,0.159-0.551,0.281-0.867,0.367S44.375,99.313,44.041,99.313z M46.642,95.265
						c-0.027-0.381-0.115-0.727-0.264-1.039s-0.339-0.582-0.569-0.809c-0.23-0.227-0.499-0.403-0.806-0.53
						c-0.307-0.127-0.632-0.19-0.975-0.19c-0.343,0-0.668,0.063-0.975,0.19c-0.307,0.127-0.576,0.304-0.806,0.53
						c-0.23,0.227-0.415,0.498-0.555,0.815c-0.14,0.316-0.223,0.661-0.25,1.032H46.642z"/>
					<path fill="#CCA36E" d="M51.273,99.313c-0.551,0-1.088-0.091-1.611-0.271c-0.524-0.182-0.975-0.443-1.354-0.788l0.42-0.625
						c0.397,0.326,0.801,0.57,1.212,0.733c0.411,0.163,0.851,0.245,1.321,0.245c0.569,0,1.022-0.116,1.361-0.347
						c0.338-0.231,0.508-0.56,0.508-0.985c0-0.199-0.045-0.364-0.135-0.496c-0.09-0.131-0.224-0.246-0.399-0.347
						c-0.176-0.099-0.397-0.188-0.664-0.265c-0.267-0.077-0.576-0.156-0.928-0.237c-0.406-0.1-0.758-0.199-1.057-0.299
						c-0.298-0.1-0.544-0.213-0.738-0.34c-0.194-0.127-0.339-0.283-0.434-0.469s-0.142-0.419-0.142-0.7
						c0-0.354,0.07-0.666,0.21-0.938c0.14-0.271,0.33-0.496,0.569-0.673c0.239-0.176,0.519-0.31,0.839-0.4
						c0.321-0.091,0.662-0.136,1.022-0.136c0.542,0,1.034,0.088,1.477,0.265c0.442,0.177,0.799,0.41,1.07,0.7l-0.447,0.543
						c-0.262-0.271-0.58-0.476-0.955-0.611s-0.765-0.204-1.171-0.204c-0.244,0-0.47,0.025-0.677,0.075s-0.391,0.129-0.548,0.237
						c-0.158,0.109-0.282,0.247-0.373,0.415s-0.135,0.364-0.135,0.591c0,0.19,0.031,0.345,0.095,0.462
						c0.063,0.118,0.167,0.22,0.312,0.306c0.144,0.086,0.327,0.163,0.548,0.231c0.221,0.067,0.49,0.138,0.806,0.21
						c0.452,0.109,0.849,0.218,1.192,0.326c0.343,0.109,0.63,0.236,0.86,0.381c0.23,0.145,0.404,0.321,0.521,0.529
						c0.117,0.209,0.176,0.463,0.176,0.762c0,0.651-0.249,1.168-0.745,1.549C52.781,99.123,52.113,99.313,51.273,99.313z"/>
					<path fill="#CCA36E" d="M57.868,99.313c-0.551,0-1.088-0.091-1.611-0.271c-0.524-0.182-0.975-0.443-1.354-0.788l0.42-0.625
						c0.397,0.326,0.801,0.57,1.212,0.733c0.411,0.163,0.851,0.245,1.321,0.245c0.569,0,1.022-0.116,1.361-0.347
						c0.338-0.231,0.508-0.56,0.508-0.985c0-0.199-0.045-0.364-0.135-0.496c-0.09-0.131-0.224-0.246-0.399-0.347
						c-0.176-0.099-0.397-0.188-0.664-0.265c-0.267-0.077-0.576-0.156-0.928-0.237c-0.406-0.1-0.758-0.199-1.057-0.299
						c-0.298-0.1-0.544-0.213-0.738-0.34c-0.194-0.127-0.339-0.283-0.434-0.469s-0.142-0.419-0.142-0.7
						c0-0.354,0.07-0.666,0.21-0.938c0.14-0.271,0.33-0.496,0.569-0.673c0.239-0.176,0.519-0.31,0.839-0.4
						c0.321-0.091,0.662-0.136,1.022-0.136c0.542,0,1.034,0.088,1.477,0.265c0.442,0.177,0.799,0.41,1.07,0.7l-0.447,0.543
						c-0.262-0.271-0.58-0.476-0.955-0.611s-0.765-0.204-1.171-0.204c-0.244,0-0.47,0.025-0.677,0.075s-0.391,0.129-0.548,0.237
						c-0.158,0.109-0.282,0.247-0.373,0.415s-0.135,0.364-0.135,0.591c0,0.19,0.031,0.345,0.095,0.462
						c0.063,0.118,0.167,0.22,0.312,0.306c0.144,0.086,0.327,0.163,0.548,0.231c0.221,0.067,0.49,0.138,0.806,0.21
						c0.452,0.109,0.849,0.218,1.192,0.326c0.343,0.109,0.63,0.236,0.86,0.381c0.23,0.145,0.404,0.321,0.521,0.529
						c0.117,0.209,0.176,0.463,0.176,0.762c0,0.651-0.249,1.168-0.745,1.549C59.376,99.123,58.708,99.313,57.868,99.313z"/>
				</g>
			</g>
			<g>
				<g>
					<path fill="#CCA36E" d="M10.591,114.483v-9.647h3.981c0.416,0,0.797,0.089,1.145,0.266s0.648,0.407,0.901,0.692
						c0.252,0.286,0.449,0.609,0.589,0.972c0.14,0.362,0.21,0.729,0.21,1.101c0,0.398-0.065,0.781-0.196,1.148
						c-0.131,0.367-0.318,0.69-0.562,0.972c-0.244,0.28-0.535,0.507-0.874,0.679c-0.339,0.173-0.716,0.259-1.131,0.259h-3.128v3.56
						H10.591z M11.526,110.081H14.6c0.28,0,0.535-0.062,0.765-0.184c0.23-0.122,0.427-0.285,0.589-0.489
						c0.163-0.203,0.289-0.438,0.379-0.706s0.135-0.546,0.135-0.836c0-0.299-0.052-0.582-0.156-0.849
						c-0.104-0.268-0.244-0.501-0.419-0.7c-0.176-0.199-0.384-0.355-0.623-0.469s-0.49-0.17-0.751-0.17h-2.993V110.081z"/>
					<path fill="#CCA36E" d="M24.703,114.483h-0.921v-3.954c0-0.806-0.138-1.408-0.413-1.807s-0.68-0.598-1.212-0.598
						c-0.262,0-0.521,0.052-0.779,0.156c-0.257,0.104-0.499,0.246-0.725,0.428c-0.226,0.181-0.422,0.394-0.589,0.639
						c-0.167,0.244-0.291,0.512-0.372,0.802v4.334h-0.921v-9.919h0.921v4.443c0.289-0.534,0.682-0.956,1.178-1.264
						c0.496-0.308,1.029-0.462,1.598-0.462c0.407,0,0.752,0.074,1.036,0.224c0.285,0.15,0.515,0.358,0.691,0.625
						c0.176,0.268,0.305,0.59,0.386,0.965c0.082,0.376,0.122,0.791,0.122,1.243V114.483z"/>
					<path fill="#CCA36E" d="M29.659,114.619c-0.515,0-0.986-0.098-1.415-0.292c-0.429-0.194-0.799-0.46-1.11-0.795
						c-0.312-0.335-0.553-0.725-0.725-1.168c-0.172-0.444-0.257-0.911-0.257-1.4c0-0.498,0.088-0.969,0.264-1.413
						c0.176-0.443,0.419-0.833,0.731-1.168s0.682-0.603,1.111-0.802c0.429-0.199,0.896-0.299,1.401-0.299s0.973,0.1,1.402,0.299
						c0.429,0.199,0.799,0.467,1.11,0.802s0.555,0.725,0.731,1.168c0.176,0.444,0.264,0.915,0.264,1.413
						c0,0.489-0.088,0.956-0.264,1.4c-0.176,0.443-0.42,0.833-0.731,1.168s-0.682,0.601-1.11,0.795
						C30.632,114.521,30.165,114.619,29.659,114.619z M27.1,110.978c0,0.399,0.065,0.768,0.196,1.107s0.312,0.639,0.542,0.897
						c0.23,0.258,0.501,0.459,0.813,0.604c0.312,0.145,0.643,0.217,0.995,0.217c0.353,0,0.684-0.074,0.996-0.224
						s0.584-0.354,0.819-0.611c0.235-0.259,0.42-0.56,0.555-0.904c0.136-0.344,0.203-0.715,0.203-1.113
						c0-0.39-0.067-0.759-0.203-1.107c-0.135-0.349-0.32-0.652-0.555-0.911c-0.235-0.258-0.506-0.462-0.813-0.611
						c-0.307-0.149-0.637-0.224-0.989-0.224s-0.684,0.074-0.995,0.224s-0.583,0.355-0.813,0.618
						c-0.23,0.263-0.413,0.569-0.548,0.917C27.167,110.206,27.1,110.579,27.1,110.978z"/>
					<path fill="#CCA36E" d="M40.602,114.483h-0.921v-3.954c0-0.842-0.122-1.454-0.366-1.834c-0.244-0.381-0.623-0.57-1.138-0.57
						c-0.271,0-0.542,0.05-0.813,0.149s-0.524,0.239-0.758,0.421c-0.235,0.182-0.44,0.396-0.616,0.646
						c-0.176,0.249-0.31,0.519-0.399,0.809v4.334H34.67v-7.079h0.839v1.604c0.145-0.254,0.323-0.487,0.535-0.7
						c0.212-0.212,0.449-0.396,0.711-0.55c0.262-0.154,0.54-0.271,0.833-0.354c0.293-0.081,0.598-0.122,0.914-0.122
						c0.397,0,0.729,0.072,0.995,0.218c0.267,0.145,0.481,0.349,0.644,0.611s0.28,0.584,0.352,0.964
						c0.072,0.381,0.108,0.802,0.108,1.264V114.483z"/>
					<path fill="#CCA36E" d="M45.599,114.619c-0.515,0-0.988-0.098-1.422-0.292c-0.433-0.194-0.808-0.462-1.124-0.802
						s-0.562-0.731-0.738-1.175c-0.176-0.444-0.264-0.92-0.264-1.427c0-0.498,0.088-0.967,0.264-1.406
						c0.176-0.439,0.422-0.824,0.738-1.155c0.316-0.33,0.688-0.593,1.117-0.788c0.429-0.194,0.901-0.292,1.416-0.292
						s0.986,0.098,1.415,0.292c0.429,0.195,0.797,0.46,1.104,0.795c0.307,0.335,0.546,0.72,0.718,1.155
						c0.171,0.435,0.257,0.896,0.257,1.386c0,0.072-0.002,0.145-0.006,0.217c-0.005,0.073-0.012,0.123-0.021,0.149h-6.026
						c0.027,0.381,0.115,0.732,0.264,1.054c0.149,0.321,0.339,0.6,0.569,0.835c0.23,0.236,0.497,0.42,0.799,0.551
						c0.302,0.131,0.625,0.197,0.968,0.197c0.234,0,0.465-0.032,0.69-0.096s0.434-0.149,0.623-0.258
						c0.19-0.108,0.359-0.242,0.508-0.401c0.149-0.158,0.264-0.332,0.346-0.522l0.799,0.217c-0.108,0.264-0.262,0.501-0.46,0.714
						c-0.199,0.213-0.429,0.398-0.691,0.557c-0.262,0.159-0.551,0.281-0.867,0.367S45.933,114.619,45.599,114.619z M48.199,110.57
						c-0.027-0.381-0.115-0.727-0.264-1.039s-0.339-0.582-0.569-0.809c-0.23-0.227-0.499-0.403-0.806-0.53
						c-0.307-0.127-0.632-0.19-0.975-0.19c-0.343,0-0.668,0.063-0.975,0.19c-0.307,0.127-0.576,0.304-0.806,0.53
						c-0.23,0.227-0.415,0.498-0.555,0.815c-0.14,0.316-0.223,0.661-0.25,1.032H48.199z"/>
					<path fill="#CCA36E" d="M59.859,114.483h-0.921v-3.954c0-0.842-0.122-1.454-0.366-1.834c-0.244-0.381-0.623-0.57-1.138-0.57
						c-0.271,0-0.542,0.05-0.813,0.149s-0.524,0.239-0.758,0.421c-0.235,0.182-0.44,0.396-0.616,0.646
						c-0.176,0.249-0.31,0.519-0.399,0.809v4.334h-0.921v-7.079h0.839v1.604c0.145-0.254,0.323-0.487,0.535-0.7
						c0.212-0.212,0.449-0.396,0.711-0.55c0.262-0.154,0.54-0.271,0.833-0.354c0.293-0.081,0.598-0.122,0.914-0.122
						c0.397,0,0.729,0.072,0.995,0.218c0.267,0.145,0.481,0.349,0.644,0.611s0.28,0.584,0.352,0.964
						c0.072,0.381,0.108,0.802,0.108,1.264V114.483z"/>
					<path fill="#CCA36E" d="M63.949,114.619c-0.74,0-1.3-0.256-1.679-0.768s-0.569-1.274-0.569-2.289v-4.158h0.921v3.995
						c0,1.603,0.546,2.404,1.639,2.404c0.271,0,0.537-0.045,0.799-0.136c0.262-0.09,0.503-0.222,0.725-0.394s0.42-0.376,0.596-0.611
						c0.176-0.235,0.318-0.503,0.426-0.802v-4.457h0.921v5.884c0,0.253,0.113,0.38,0.339,0.38v0.815
						c-0.181,0.027-0.307,0.041-0.379,0.041c-0.208,0-0.386-0.063-0.535-0.19c-0.149-0.127-0.224-0.285-0.224-0.476v-0.979
						c-0.316,0.553-0.736,0.98-1.259,1.284C65.145,114.468,64.572,114.619,63.949,114.619z"/>
					<path fill="#CCA36E" d="M80.309,114.483h-0.921v-3.954c0-0.824-0.129-1.431-0.386-1.82s-0.648-0.584-1.171-0.584
						c-0.271,0-0.526,0.05-0.765,0.149s-0.46,0.239-0.664,0.421s-0.381,0.396-0.535,0.646c-0.153,0.249-0.271,0.522-0.352,0.822
						v4.32h-0.921v-3.954c0-0.842-0.126-1.454-0.379-1.834c-0.253-0.381-0.641-0.57-1.165-0.57c-0.533,0-1.006,0.186-1.422,0.557
						c-0.415,0.371-0.713,0.86-0.894,1.468v4.334h-0.921v-7.079h0.839v1.604c0.289-0.544,0.668-0.967,1.138-1.271
						c0.469-0.304,0.989-0.455,1.558-0.455c0.596,0,1.074,0.168,1.436,0.503c0.361,0.335,0.578,0.774,0.65,1.317
						c0.659-1.214,1.571-1.82,2.736-1.82c0.388,0,0.72,0.072,0.995,0.218c0.275,0.145,0.497,0.351,0.664,0.618
						c0.167,0.267,0.289,0.589,0.366,0.964c0.077,0.376,0.115,0.795,0.115,1.257V114.483z"/>
					<path fill="#CCA36E" d="M85.671,114.619c-0.551,0-1.061-0.141-1.53-0.421c-0.47-0.281-0.835-0.644-1.097-1.087v1.372h-0.826
						v-9.919h0.921v4.321c0.316-0.48,0.695-0.867,1.137-1.162c0.442-0.294,0.962-0.441,1.558-0.441c0.488,0,0.93,0.104,1.327,0.313
						s0.733,0.487,1.009,0.836s0.488,0.742,0.637,1.182s0.224,0.89,0.224,1.352c0,0.499-0.086,0.97-0.257,1.413
						c-0.172,0.444-0.409,0.832-0.711,1.162c-0.303,0.331-0.659,0.594-1.07,0.788C86.581,114.521,86.141,114.619,85.671,114.619z
						 M85.455,113.804c0.388,0,0.743-0.079,1.063-0.237c0.32-0.158,0.596-0.371,0.826-0.639c0.23-0.268,0.411-0.57,0.542-0.91
						s0.196-0.69,0.196-1.054c0-0.371-0.061-0.729-0.183-1.073c-0.122-0.344-0.293-0.649-0.515-0.917
						c-0.221-0.267-0.485-0.479-0.792-0.639c-0.307-0.158-0.646-0.237-1.016-0.237c-0.28,0-0.542,0.047-0.786,0.143
						c-0.244,0.095-0.469,0.224-0.677,0.387c-0.208,0.163-0.395,0.352-0.562,0.564c-0.167,0.213-0.305,0.437-0.413,0.672v2.201
						c0.036,0.245,0.133,0.474,0.291,0.687c0.158,0.213,0.35,0.396,0.576,0.551c0.226,0.153,0.465,0.276,0.718,0.366
						C84.976,113.759,85.22,113.804,85.455,113.804z"/>
					<path fill="#CCA36E" d="M93.648,114.619c-0.515,0-0.988-0.098-1.422-0.292c-0.433-0.194-0.808-0.462-1.124-0.802
						s-0.562-0.731-0.738-1.175c-0.176-0.444-0.264-0.92-0.264-1.427c0-0.498,0.088-0.967,0.264-1.406
						c0.176-0.439,0.422-0.824,0.738-1.155c0.316-0.33,0.688-0.593,1.117-0.788c0.429-0.194,0.901-0.292,1.416-0.292
						s0.986,0.098,1.415,0.292c0.429,0.195,0.797,0.46,1.104,0.795c0.307,0.335,0.546,0.72,0.718,1.155
						c0.171,0.435,0.257,0.896,0.257,1.386c0,0.072-0.002,0.145-0.006,0.217c-0.005,0.073-0.012,0.123-0.021,0.149h-6.026
						c0.027,0.381,0.115,0.732,0.264,1.054c0.149,0.321,0.339,0.6,0.569,0.835c0.23,0.236,0.497,0.42,0.799,0.551
						c0.302,0.131,0.625,0.197,0.968,0.197c0.234,0,0.465-0.032,0.69-0.096s0.434-0.149,0.623-0.258
						c0.19-0.108,0.359-0.242,0.508-0.401c0.149-0.158,0.264-0.332,0.346-0.522l0.799,0.217c-0.108,0.264-0.262,0.501-0.46,0.714
						c-0.199,0.213-0.429,0.398-0.691,0.557c-0.262,0.159-0.551,0.281-0.867,0.367S93.982,114.619,93.648,114.619z M96.249,110.57
						c-0.027-0.381-0.115-0.727-0.264-1.039s-0.339-0.582-0.569-0.809c-0.23-0.227-0.499-0.403-0.806-0.53
						c-0.307-0.127-0.632-0.19-0.975-0.19c-0.343,0-0.668,0.063-0.975,0.19c-0.307,0.127-0.576,0.304-0.806,0.53
						c-0.23,0.227-0.415,0.498-0.555,0.815c-0.14,0.316-0.223,0.661-0.25,1.032H96.249z"/>
					<path fill="#CCA36E" d="M102.031,108.22c-0.623,0.019-1.165,0.19-1.625,0.517s-0.786,0.774-0.975,1.345v4.402H98.51v-7.079
						h0.867v1.698c0.244-0.498,0.564-0.912,0.961-1.243c0.397-0.33,0.826-0.496,1.287-0.496c0.081,0,0.158,0,0.23,0
						s0.131,0.005,0.176,0.014V108.22z"/>
				</g>
			</g>
		</g>
		<g>
			<g>
				<path fill="#391E22" d="M206.865,87.125h0.895l-3.02,7.079h-0.773l-1.502-3.614l-1.504,3.614h-0.771l-3.02-7.079h0.879
					l2.574,6.128l1.34-3.233l-1.205-2.881h0.785l0.922,2.31l0.906-2.31h0.787l-1.193,2.881l1.342,3.233L206.865,87.125z"/>
				<path fill="#391E22" d="M212.053,94.34c-0.516,0-0.988-0.098-1.422-0.292s-0.809-0.462-1.125-0.802s-0.561-0.731-0.738-1.175
					c-0.176-0.444-0.264-0.92-0.264-1.427c0-0.498,0.088-0.967,0.264-1.406c0.178-0.439,0.422-0.824,0.738-1.155
					c0.316-0.33,0.689-0.593,1.117-0.788c0.43-0.194,0.9-0.292,1.416-0.292c0.514,0,0.986,0.098,1.416,0.292
					c0.428,0.195,0.795,0.46,1.104,0.795c0.307,0.335,0.545,0.72,0.717,1.155c0.172,0.435,0.258,0.896,0.258,1.386
					c0,0.072-0.002,0.145-0.008,0.217c-0.004,0.073-0.01,0.123-0.02,0.149h-6.027c0.027,0.381,0.115,0.732,0.266,1.054
					c0.148,0.321,0.338,0.6,0.568,0.835c0.23,0.236,0.496,0.42,0.799,0.551s0.625,0.197,0.969,0.197
					c0.234,0,0.465-0.032,0.689-0.096c0.227-0.063,0.434-0.149,0.623-0.258s0.359-0.242,0.508-0.401
					c0.15-0.158,0.266-0.332,0.346-0.522l0.799,0.217c-0.107,0.264-0.262,0.501-0.461,0.714c-0.197,0.213-0.428,0.398-0.689,0.557
					c-0.262,0.159-0.551,0.281-0.867,0.367S212.387,94.34,212.053,94.34z M214.652,90.291c-0.027-0.381-0.115-0.727-0.264-1.039
					s-0.338-0.582-0.568-0.809s-0.5-0.403-0.807-0.53s-0.631-0.19-0.975-0.19s-0.668,0.063-0.975,0.19
					c-0.309,0.127-0.576,0.304-0.807,0.53s-0.416,0.498-0.555,0.815c-0.141,0.316-0.225,0.661-0.25,1.032H214.652z"/>
				<path fill="#391E22" d="M220.367,94.34c-0.551,0-1.061-0.141-1.529-0.421c-0.471-0.281-0.836-0.644-1.098-1.087v1.372h-0.826
					v-9.919h0.92v4.321c0.316-0.48,0.695-0.867,1.139-1.162c0.441-0.294,0.961-0.441,1.557-0.441c0.488,0,0.93,0.104,1.328,0.313
					c0.396,0.208,0.732,0.487,1.008,0.836s0.488,0.742,0.637,1.182c0.15,0.439,0.225,0.89,0.225,1.352
					c0,0.499-0.086,0.97-0.258,1.413c-0.172,0.444-0.408,0.832-0.711,1.162c-0.303,0.331-0.66,0.594-1.07,0.788
					S220.836,94.34,220.367,94.34z M220.15,93.524c0.389,0,0.742-0.079,1.063-0.237s0.598-0.371,0.826-0.639
					c0.23-0.268,0.412-0.57,0.543-0.91s0.195-0.69,0.195-1.054c0-0.371-0.061-0.729-0.182-1.073
					c-0.123-0.344-0.295-0.649-0.516-0.917c-0.221-0.267-0.484-0.479-0.791-0.639c-0.309-0.158-0.646-0.237-1.016-0.237
					c-0.281,0-0.543,0.047-0.787,0.143c-0.242,0.095-0.469,0.224-0.676,0.387c-0.209,0.163-0.396,0.352-0.563,0.564
					c-0.168,0.213-0.305,0.437-0.414,0.672v2.201c0.037,0.245,0.135,0.474,0.293,0.687c0.156,0.213,0.35,0.396,0.574,0.551
					c0.227,0.153,0.465,0.276,0.719,0.366C219.672,93.479,219.916,93.524,220.15,93.524z"/>
				<path fill="#391E22" d="M227.613,94.34c-0.551,0-1.088-0.091-1.611-0.271c-0.523-0.182-0.977-0.443-1.355-0.788l0.42-0.625
					c0.398,0.326,0.801,0.57,1.213,0.733c0.41,0.163,0.852,0.245,1.32,0.245c0.568,0,1.021-0.116,1.361-0.347
					c0.338-0.231,0.508-0.56,0.508-0.985c0-0.199-0.045-0.364-0.137-0.496c-0.09-0.131-0.223-0.246-0.398-0.347
					c-0.176-0.099-0.398-0.188-0.664-0.265s-0.576-0.156-0.928-0.237c-0.406-0.1-0.758-0.199-1.057-0.299
					c-0.297-0.1-0.543-0.213-0.738-0.34c-0.193-0.127-0.338-0.283-0.432-0.469c-0.096-0.186-0.143-0.419-0.143-0.7
					c0-0.354,0.068-0.666,0.209-0.938s0.33-0.496,0.568-0.673c0.24-0.176,0.52-0.31,0.84-0.4s0.662-0.136,1.023-0.136
					c0.541,0,1.033,0.088,1.477,0.265c0.441,0.177,0.799,0.41,1.068,0.7l-0.445,0.543c-0.264-0.271-0.58-0.476-0.955-0.611
					s-0.766-0.204-1.172-0.204c-0.244,0-0.469,0.025-0.678,0.075c-0.207,0.05-0.391,0.129-0.549,0.237
					c-0.156,0.109-0.281,0.247-0.371,0.415s-0.137,0.364-0.137,0.591c0,0.19,0.033,0.345,0.096,0.462
					c0.063,0.118,0.166,0.22,0.311,0.306s0.328,0.163,0.549,0.231c0.223,0.067,0.49,0.138,0.807,0.21
					c0.451,0.109,0.848,0.218,1.191,0.326c0.344,0.109,0.629,0.236,0.859,0.381s0.404,0.321,0.521,0.529
					c0.117,0.209,0.176,0.463,0.176,0.762c0,0.651-0.248,1.168-0.744,1.549C229.121,94.149,228.453,94.34,227.613,94.34z"/>
				<path fill="#391E22" d="M231.838,85.645v-1.359h0.922v1.359H231.838z M231.838,94.204v-7.079h0.922v7.079H231.838z"/>
				<path fill="#391E22" d="M238.148,93.864c-0.053,0.027-0.133,0.063-0.236,0.108c-0.104,0.046-0.223,0.091-0.359,0.137
					c-0.135,0.045-0.289,0.086-0.461,0.122c-0.17,0.036-0.352,0.054-0.541,0.054c-0.199,0-0.389-0.026-0.568-0.081
					c-0.182-0.055-0.34-0.138-0.475-0.251s-0.244-0.256-0.324-0.429c-0.082-0.172-0.123-0.371-0.123-0.598v-5.068h-0.975v-0.733
					h0.975v-2.392h0.922v2.392h1.625v0.733h-1.625v4.811c0.018,0.263,0.107,0.455,0.271,0.577c0.162,0.122,0.355,0.184,0.582,0.184
					c0.262,0,0.492-0.043,0.689-0.129c0.199-0.086,0.326-0.147,0.379-0.184L238.148,93.864z"/>
				<path fill="#391E22" d="M242.32,94.34c-0.516,0-0.988-0.098-1.422-0.292s-0.809-0.462-1.125-0.802s-0.561-0.731-0.738-1.175
					c-0.176-0.444-0.264-0.92-0.264-1.427c0-0.498,0.088-0.967,0.264-1.406c0.178-0.439,0.422-0.824,0.738-1.155
					c0.316-0.33,0.689-0.593,1.117-0.788c0.43-0.194,0.9-0.292,1.416-0.292c0.514,0,0.986,0.098,1.416,0.292
					c0.428,0.195,0.795,0.46,1.104,0.795c0.307,0.335,0.545,0.72,0.717,1.155c0.172,0.435,0.258,0.896,0.258,1.386
					c0,0.072-0.002,0.145-0.008,0.217c-0.004,0.073-0.01,0.123-0.02,0.149h-6.027c0.027,0.381,0.115,0.732,0.266,1.054
					c0.148,0.321,0.338,0.6,0.568,0.835c0.23,0.236,0.496,0.42,0.799,0.551s0.625,0.197,0.969,0.197
					c0.234,0,0.465-0.032,0.689-0.096c0.227-0.063,0.434-0.149,0.623-0.258s0.359-0.242,0.508-0.401
					c0.15-0.158,0.266-0.332,0.346-0.522l0.799,0.217c-0.107,0.264-0.262,0.501-0.461,0.714c-0.197,0.213-0.428,0.398-0.689,0.557
					c-0.262,0.159-0.551,0.281-0.867,0.367S242.654,94.34,242.32,94.34z M244.92,90.291c-0.027-0.381-0.115-0.727-0.264-1.039
					s-0.338-0.582-0.568-0.809s-0.5-0.403-0.807-0.53s-0.631-0.19-0.975-0.19s-0.668,0.063-0.975,0.19
					c-0.309,0.127-0.576,0.304-0.807,0.53s-0.416,0.498-0.555,0.815c-0.141,0.316-0.225,0.661-0.25,1.032H244.92z"/>
			</g>
		</g>
		<g>
			<g>
				<path fill="#391E22" d="M162.744,111.321c-0.514,0-0.988-0.098-1.422-0.292s-0.807-0.462-1.123-0.802s-0.563-0.731-0.738-1.175
					c-0.176-0.444-0.264-0.92-0.264-1.427c0-0.498,0.088-0.967,0.264-1.406s0.422-0.824,0.738-1.155
					c0.316-0.33,0.688-0.593,1.117-0.788c0.428-0.194,0.9-0.292,1.414-0.292c0.516,0,0.986,0.098,1.416,0.292
					c0.43,0.195,0.797,0.46,1.104,0.795s0.547,0.72,0.719,1.155c0.17,0.435,0.256,0.896,0.256,1.386
					c0,0.072-0.002,0.145-0.006,0.217c-0.004,0.073-0.012,0.123-0.021,0.149h-6.025c0.027,0.381,0.115,0.732,0.264,1.054
					s0.338,0.6,0.568,0.835c0.23,0.236,0.498,0.42,0.799,0.551c0.303,0.131,0.625,0.197,0.969,0.197
					c0.234,0,0.465-0.032,0.691-0.096c0.225-0.063,0.434-0.149,0.623-0.258s0.359-0.242,0.508-0.401
					c0.148-0.158,0.264-0.332,0.346-0.522l0.799,0.217c-0.109,0.264-0.262,0.501-0.461,0.714s-0.43,0.398-0.691,0.557
					c-0.262,0.159-0.551,0.281-0.865,0.367C163.404,111.278,163.078,111.321,162.744,111.321z M165.346,107.272
					c-0.027-0.381-0.115-0.727-0.266-1.039c-0.148-0.313-0.338-0.582-0.568-0.809s-0.498-0.403-0.805-0.53
					c-0.309-0.127-0.633-0.19-0.977-0.19c-0.342,0-0.668,0.063-0.975,0.19s-0.576,0.304-0.805,0.53
					c-0.23,0.227-0.416,0.498-0.557,0.815c-0.139,0.316-0.223,0.661-0.25,1.032H165.346z"/>
				<path fill="#391E22" d="M178.102,111.186h-0.92v-3.954c0-0.824-0.129-1.431-0.387-1.82s-0.648-0.584-1.172-0.584
					c-0.27,0-0.525,0.05-0.764,0.149c-0.24,0.1-0.461,0.239-0.664,0.421s-0.383,0.396-0.535,0.646
					c-0.154,0.249-0.271,0.522-0.352,0.822v4.32h-0.922v-3.954c0-0.842-0.127-1.454-0.379-1.834c-0.254-0.381-0.641-0.57-1.164-0.57
					c-0.533,0-1.008,0.186-1.422,0.557c-0.416,0.371-0.715,0.86-0.895,1.468v4.334h-0.922v-7.079h0.84v1.604
					c0.289-0.544,0.668-0.967,1.139-1.271c0.469-0.304,0.988-0.455,1.557-0.455c0.596,0,1.074,0.168,1.436,0.503
					s0.578,0.774,0.65,1.317c0.658-1.214,1.57-1.82,2.736-1.82c0.387,0,0.719,0.072,0.994,0.218
					c0.275,0.145,0.496,0.351,0.664,0.618c0.168,0.267,0.289,0.589,0.365,0.964c0.076,0.376,0.115,0.795,0.115,1.257V111.186z"/>
				<path fill="#391E22" d="M181.881,111.321c-0.361,0-0.691-0.057-0.988-0.17c-0.299-0.113-0.555-0.27-0.766-0.469
					c-0.213-0.199-0.377-0.43-0.494-0.692s-0.176-0.539-0.176-0.829c0-0.326,0.072-0.623,0.217-0.89
					c0.143-0.268,0.346-0.496,0.609-0.687c0.262-0.19,0.574-0.337,0.941-0.441c0.365-0.104,0.77-0.156,1.211-0.156
					c0.352,0,0.713,0.031,1.084,0.095c0.369,0.063,0.699,0.154,0.988,0.271v-0.639c0-0.625-0.178-1.12-0.535-1.487
					s-0.838-0.551-1.441-0.551c-0.381,0-0.758,0.073-1.131,0.218c-0.375,0.146-0.758,0.354-1.145,0.625l-0.326-0.611
					c0.461-0.308,0.908-0.539,1.342-0.693c0.434-0.153,0.885-0.23,1.354-0.23c0.857,0,1.539,0.249,2.045,0.747
					s0.758,1.187,0.758,2.065v3.193c0,0.253,0.109,0.38,0.326,0.38v0.815c-0.072,0.009-0.141,0.016-0.203,0.021
					c-0.064,0.004-0.117,0.007-0.162,0.007c-0.182,0-0.346-0.055-0.494-0.163c-0.15-0.108-0.232-0.271-0.252-0.489l-0.027-0.557
					c-0.307,0.416-0.711,0.74-1.211,0.971C182.902,111.206,182.395,111.321,181.881,111.321z M182.111,110.615
					c0.406,0,0.811-0.089,1.211-0.266c0.402-0.177,0.721-0.419,0.955-0.727c0.063-0.082,0.117-0.17,0.162-0.265
					c0.045-0.096,0.068-0.184,0.068-0.266v-1.154c-0.307-0.118-0.627-0.209-0.961-0.272c-0.334-0.063-0.66-0.095-0.977-0.095
					c-0.658,0-1.193,0.134-1.604,0.4c-0.412,0.268-0.617,0.637-0.617,1.107c0,0.19,0.037,0.376,0.109,0.558s0.182,0.344,0.332,0.489
					c0.148,0.145,0.332,0.263,0.547,0.354C181.555,110.569,181.813,110.615,182.111,110.615z"/>
				<path fill="#391E22" d="M187.432,102.626v-1.359h0.922v1.359H187.432z M187.432,111.186v-7.079h0.922v7.079H187.432z"/>
				<path fill="#391E22" d="M190.371,101.267h0.922v8.315c0,0.263,0.072,0.469,0.217,0.618s0.348,0.225,0.609,0.225
					c0.1,0,0.217-0.014,0.352-0.041s0.262-0.063,0.379-0.108l0.162,0.747c-0.172,0.072-0.381,0.132-0.629,0.177
					s-0.463,0.067-0.643,0.067c-0.426,0-0.76-0.119-1.004-0.359c-0.242-0.24-0.365-0.578-0.365-1.013V101.267z"/>
				<path fill="#391E22" d="M198.863,111.321c-0.361,0-0.691-0.057-0.988-0.17c-0.299-0.113-0.555-0.27-0.766-0.469
					c-0.213-0.199-0.377-0.43-0.494-0.692s-0.176-0.539-0.176-0.829c0-0.326,0.072-0.623,0.217-0.89
					c0.143-0.268,0.346-0.496,0.609-0.687c0.262-0.19,0.574-0.337,0.941-0.441c0.365-0.104,0.77-0.156,1.211-0.156
					c0.352,0,0.713,0.031,1.084,0.095c0.369,0.063,0.699,0.154,0.988,0.271v-0.639c0-0.625-0.178-1.12-0.535-1.487
					s-0.838-0.551-1.441-0.551c-0.381,0-0.758,0.073-1.131,0.218c-0.375,0.146-0.758,0.354-1.145,0.625l-0.326-0.611
					c0.461-0.308,0.908-0.539,1.342-0.693c0.434-0.153,0.885-0.23,1.354-0.23c0.857,0,1.539,0.249,2.045,0.747
					s0.758,1.187,0.758,2.065v3.193c0,0.253,0.109,0.38,0.326,0.38v0.815c-0.072,0.009-0.141,0.016-0.203,0.021
					c-0.064,0.004-0.117,0.007-0.162,0.007c-0.182,0-0.346-0.055-0.494-0.163c-0.15-0.108-0.232-0.271-0.252-0.489l-0.027-0.557
					c-0.307,0.416-0.711,0.74-1.211,0.971C199.885,111.206,199.377,111.321,198.863,111.321z M199.094,110.615
					c0.406,0,0.811-0.089,1.211-0.266c0.402-0.177,0.721-0.419,0.955-0.727c0.063-0.082,0.117-0.17,0.162-0.265
					c0.045-0.096,0.068-0.184,0.068-0.266v-1.154c-0.307-0.118-0.627-0.209-0.961-0.272c-0.334-0.063-0.66-0.095-0.977-0.095
					c-0.658,0-1.193,0.134-1.604,0.4c-0.412,0.268-0.617,0.637-0.617,1.107c0,0.19,0.037,0.376,0.109,0.558s0.182,0.344,0.332,0.489
					c0.148,0.145,0.332,0.263,0.547,0.354C198.537,110.569,198.795,110.615,199.094,110.615z"/>
				<path fill="#391E22" d="M207.34,111.321c-0.486,0-0.939-0.102-1.354-0.306c-0.416-0.204-0.775-0.473-1.076-0.809
					c-0.303-0.335-0.539-0.722-0.705-1.161c-0.168-0.439-0.25-0.899-0.25-1.38c0-0.498,0.08-0.971,0.242-1.42
					c0.164-0.448,0.387-0.84,0.672-1.175c0.283-0.335,0.623-0.6,1.016-0.795c0.393-0.194,0.824-0.292,1.293-0.292
					c0.596,0,1.123,0.156,1.584,0.469s0.826,0.69,1.098,1.135v-4.321h0.92v8.724c0,0.253,0.109,0.38,0.326,0.38v0.815
					c-0.154,0.027-0.275,0.041-0.365,0.041c-0.227,0-0.412-0.065-0.557-0.197c-0.145-0.131-0.217-0.287-0.217-0.469v-0.747
					c-0.289,0.462-0.67,0.828-1.145,1.101C208.35,111.186,207.855,111.321,207.34,111.321z M207.529,110.506
					c0.234,0,0.48-0.045,0.738-0.136c0.258-0.09,0.496-0.215,0.719-0.373c0.221-0.159,0.412-0.345,0.574-0.558
					c0.164-0.213,0.262-0.441,0.299-0.686v-2.188c-0.09-0.244-0.225-0.473-0.4-0.686s-0.375-0.401-0.596-0.564
					s-0.455-0.289-0.703-0.38c-0.25-0.091-0.494-0.136-0.738-0.136c-0.379,0-0.725,0.081-1.037,0.244
					c-0.311,0.163-0.574,0.379-0.791,0.646c-0.217,0.268-0.387,0.573-0.508,0.917c-0.123,0.345-0.184,0.698-0.184,1.06
					c0,0.381,0.068,0.743,0.203,1.088c0.135,0.344,0.32,0.645,0.555,0.903c0.234,0.258,0.514,0.464,0.834,0.618
					S207.16,110.506,207.529,110.506z"/>
				<path fill="#391E22" d="M215.777,111.321c-0.488,0-0.939-0.102-1.355-0.306c-0.414-0.204-0.773-0.473-1.076-0.809
					c-0.303-0.335-0.537-0.722-0.705-1.161c-0.166-0.439-0.25-0.899-0.25-1.38c0-0.498,0.082-0.971,0.244-1.42
					c0.162-0.448,0.387-0.84,0.67-1.175c0.285-0.335,0.623-0.6,1.016-0.795c0.393-0.194,0.824-0.292,1.293-0.292
					c0.598,0,1.125,0.156,1.586,0.469c0.459,0.313,0.826,0.69,1.096,1.135v-4.321h0.922v8.724c0,0.253,0.107,0.38,0.324,0.38v0.815
					c-0.152,0.027-0.275,0.041-0.365,0.041c-0.227,0-0.41-0.065-0.555-0.197c-0.145-0.131-0.217-0.287-0.217-0.469v-0.747
					c-0.289,0.462-0.67,0.828-1.145,1.101C216.785,111.186,216.291,111.321,215.777,111.321z M215.967,110.506
					c0.234,0,0.48-0.045,0.738-0.136c0.256-0.09,0.496-0.215,0.717-0.373c0.221-0.159,0.414-0.345,0.576-0.558
					s0.262-0.441,0.297-0.686v-2.188c-0.09-0.244-0.223-0.473-0.398-0.686s-0.375-0.401-0.596-0.564
					c-0.223-0.163-0.457-0.289-0.705-0.38s-0.494-0.136-0.738-0.136c-0.379,0-0.725,0.081-1.035,0.244
					c-0.313,0.163-0.576,0.379-0.793,0.646c-0.217,0.268-0.385,0.573-0.508,0.917c-0.121,0.345-0.182,0.698-0.182,1.06
					c0,0.381,0.066,0.743,0.203,1.088c0.135,0.344,0.32,0.645,0.555,0.903c0.234,0.258,0.512,0.464,0.832,0.618
					S215.596,110.506,215.967,110.506z"/>
				<path fill="#391E22" d="M224.811,104.922c-0.623,0.019-1.166,0.19-1.625,0.517c-0.461,0.326-0.785,0.774-0.977,1.345v4.402
					h-0.92v-7.079h0.867v1.698c0.244-0.498,0.564-0.912,0.961-1.243c0.396-0.33,0.826-0.496,1.287-0.496c0.08,0,0.158,0,0.23,0
					s0.131,0.005,0.176,0.014V104.922z"/>
				<path fill="#391E22" d="M229.129,111.321c-0.514,0-0.988-0.098-1.422-0.292s-0.807-0.462-1.123-0.802s-0.563-0.731-0.738-1.175
					c-0.176-0.444-0.264-0.92-0.264-1.427c0-0.498,0.088-0.967,0.264-1.406s0.422-0.824,0.738-1.155
					c0.316-0.33,0.688-0.593,1.117-0.788c0.428-0.194,0.9-0.292,1.414-0.292c0.516,0,0.986,0.098,1.416,0.292
					c0.43,0.195,0.797,0.46,1.104,0.795s0.547,0.72,0.719,1.155c0.17,0.435,0.256,0.896,0.256,1.386
					c0,0.072-0.002,0.145-0.006,0.217c-0.004,0.073-0.012,0.123-0.021,0.149h-6.025c0.027,0.381,0.115,0.732,0.264,1.054
					s0.338,0.6,0.568,0.835c0.23,0.236,0.498,0.42,0.799,0.551c0.303,0.131,0.625,0.197,0.969,0.197
					c0.234,0,0.465-0.032,0.691-0.096c0.225-0.063,0.434-0.149,0.623-0.258s0.359-0.242,0.508-0.401
					c0.148-0.158,0.264-0.332,0.346-0.522l0.799,0.217c-0.109,0.264-0.262,0.501-0.461,0.714s-0.43,0.398-0.691,0.557
					c-0.262,0.159-0.551,0.281-0.865,0.367C229.789,111.278,229.463,111.321,229.129,111.321z M231.73,107.272
					c-0.027-0.381-0.115-0.727-0.266-1.039c-0.148-0.313-0.338-0.582-0.568-0.809s-0.498-0.403-0.805-0.53
					c-0.309-0.127-0.633-0.19-0.977-0.19c-0.342,0-0.668,0.063-0.975,0.19s-0.576,0.304-0.805,0.53
					c-0.23,0.227-0.416,0.498-0.557,0.815c-0.139,0.316-0.223,0.661-0.25,1.032H231.73z"/>
				<path fill="#391E22" d="M236.361,111.321c-0.551,0-1.088-0.091-1.611-0.271c-0.523-0.182-0.975-0.443-1.354-0.788l0.42-0.625
					c0.396,0.326,0.801,0.57,1.211,0.733c0.412,0.163,0.852,0.245,1.32,0.245c0.57,0,1.023-0.116,1.361-0.347
					c0.34-0.231,0.508-0.56,0.508-0.985c0-0.199-0.045-0.364-0.135-0.496c-0.09-0.131-0.223-0.246-0.4-0.347
					c-0.176-0.099-0.396-0.188-0.662-0.265c-0.268-0.077-0.576-0.156-0.928-0.237c-0.406-0.1-0.76-0.199-1.057-0.299
					c-0.299-0.1-0.545-0.213-0.738-0.34c-0.195-0.127-0.338-0.283-0.434-0.469c-0.094-0.186-0.143-0.419-0.143-0.7
					c0-0.354,0.07-0.666,0.211-0.938c0.139-0.271,0.328-0.496,0.568-0.673c0.238-0.176,0.52-0.31,0.84-0.4s0.66-0.136,1.021-0.136
					c0.543,0,1.035,0.088,1.477,0.265c0.443,0.177,0.799,0.41,1.07,0.7l-0.447,0.543c-0.262-0.271-0.58-0.476-0.955-0.611
					s-0.764-0.204-1.172-0.204c-0.242,0-0.469,0.025-0.676,0.075c-0.209,0.05-0.391,0.129-0.549,0.237
					c-0.158,0.109-0.283,0.247-0.373,0.415s-0.135,0.364-0.135,0.591c0,0.19,0.031,0.345,0.094,0.462
					c0.064,0.118,0.168,0.22,0.313,0.306s0.326,0.163,0.549,0.231c0.221,0.067,0.488,0.138,0.805,0.21
					c0.451,0.109,0.85,0.218,1.193,0.326c0.342,0.109,0.629,0.236,0.859,0.381s0.404,0.321,0.521,0.529
					c0.117,0.209,0.176,0.463,0.176,0.762c0,0.651-0.248,1.168-0.744,1.549C237.869,111.131,237.201,111.321,236.361,111.321z"/>
				<path fill="#391E22" d="M242.957,111.321c-0.551,0-1.088-0.091-1.611-0.271c-0.523-0.182-0.977-0.443-1.355-0.788l0.42-0.625
					c0.398,0.326,0.801,0.57,1.213,0.733c0.41,0.163,0.852,0.245,1.32,0.245c0.568,0,1.021-0.116,1.361-0.347
					c0.338-0.231,0.508-0.56,0.508-0.985c0-0.199-0.045-0.364-0.137-0.496c-0.09-0.131-0.223-0.246-0.398-0.347
					c-0.176-0.099-0.398-0.188-0.664-0.265s-0.576-0.156-0.928-0.237c-0.406-0.1-0.758-0.199-1.057-0.299
					c-0.297-0.1-0.543-0.213-0.738-0.34c-0.193-0.127-0.338-0.283-0.432-0.469c-0.096-0.186-0.143-0.419-0.143-0.7
					c0-0.354,0.068-0.666,0.209-0.938s0.33-0.496,0.568-0.673c0.24-0.176,0.52-0.31,0.84-0.4s0.662-0.136,1.023-0.136
					c0.541,0,1.033,0.088,1.477,0.265c0.441,0.177,0.799,0.41,1.068,0.7l-0.445,0.543c-0.264-0.271-0.58-0.476-0.955-0.611
					s-0.766-0.204-1.172-0.204c-0.244,0-0.469,0.025-0.678,0.075c-0.207,0.05-0.391,0.129-0.549,0.237
					c-0.156,0.109-0.281,0.247-0.371,0.415s-0.137,0.364-0.137,0.591c0,0.19,0.033,0.345,0.096,0.462
					c0.063,0.118,0.166,0.22,0.311,0.306s0.328,0.163,0.549,0.231c0.223,0.067,0.49,0.138,0.807,0.21
					c0.451,0.109,0.848,0.218,1.191,0.326c0.344,0.109,0.629,0.236,0.859,0.381s0.404,0.321,0.521,0.529
					c0.117,0.209,0.176,0.463,0.176,0.762c0,0.651-0.248,1.168-0.744,1.549C244.465,111.131,243.797,111.321,242.957,111.321z"/>
			</g>
		</g>
	</g>
</g>
</svg>
