<?xml version="1.0" encoding="utf-8"?>
<!-- Generator: Adobe Illustrator 16.0.0, SVG Export Plug-In . SVG Version: 6.00 Build 0)  -->
<!DOCTYPE svg PUBLIC "-//W3C//DTD SVG 1.1//EN" "http://www.w3.org/Graphics/SVG/1.1/DTD/svg11.dtd">
<svg version="1.1" id="Layer_1" xmlns="http://www.w3.org/2000/svg" xmlns:xlink="http://www.w3.org/1999/xlink" x="0px" y="0px"
	 width="150px" height="150px" viewBox="0 0 150 150" enable-background="new 0 0 150 150" xml:space="preserve">
<rect x="-526" y="-894" fill="#542437" width="1200" height="1936.647"/>
<g>
	<circle fill="#ECD078" cx="75" cy="75.5" r="74.5"/>
	<circle fill="#542437" cx="75" cy="75.5" r="69.535"/>
	<path fill="#ECD078" d="M33.202,108.153h83.597c0,0,0.682-5.984-1.59-9.516c-2.523-3.938-11.016-6.395-19.406-9.893
		c-8.406-3.504-10.402-4.72-10.402-4.72l-2.273-8.055c0,0,5.35-2.423,6.32-10.001c1.977,0.566,4.035-5.138,4.148-6.984
		c0.109-1.771-0.275-4.526-2.68-4.024c0.057-0.382,0.104-0.765,0.145-1.143c0-0.022,0-0.039,0.01-0.05
		c0.412-3.241,0.672-6.071,0.531-7.636c-0.389-4.041-3.006-8.207-7.309-10.785c-0.035-0.01-0.064-0.022-0.098-0.034
		c-2.293-0.931-5.764-2.326-9.622-2.47c-3.4,0.086-6.626,0.675-8.809,2.47c-0.355,0.291-0.932,1.04-1.34,1.24
		c-0.134,0.063-3.078,0.669-4.395,2.869c-1.952,3.246-1.443,11.819-0.957,15.539c-2.406-0.502-2.778,2.252-2.669,4.024
		c0.112,1.847,2.172,7.551,4.149,6.984c0.966,7.578,6.321,10.001,6.321,10.001l-2.286,8.055c0,0-1.983,1.216-10.39,4.72
		c-8.404,3.498-16.882,5.954-19.417,9.893C32.52,102.169,33.202,108.153,33.202,108.153z"/>
</g>
</svg>
