<?xml version="1.0" encoding="utf-8"?>
<!-- Generator: Adobe Illustrator 16.0.0, SVG Export Plug-In . SVG Version: 6.00 Build 0)  -->
<!DOCTYPE svg PUBLIC "-//W3C//DTD SVG 1.1//EN" "http://www.w3.org/Graphics/SVG/1.1/DTD/svg11.dtd">
<svg version="1.1" id="Layer_1" xmlns="http://www.w3.org/2000/svg" xmlns:xlink="http://www.w3.org/1999/xlink" x="0px" y="0px"
	 width="364.864px" height="81px" viewBox="0 0 364.864 81" enable-background="new 0 0 364.864 81" xml:space="preserve">
<g>
	<rect x="-4.5" y="-0.563" fill="#D95B43" width="372.754" height="81"/>
	<rect x="4.952" y="4.936" fill="#542437" width="353.849" height="70.002"/>
</g>
<g>
	<g>
		
			<rect x="115.899" y="12.005" transform="matrix(0.9936 0.113 -0.113 0.9936 5.4058 -15.4562)" fill="#D95B43" width="46.411" height="55.948"/>
		
			<rect x="118.809" y="13.901" transform="matrix(0.9936 0.1129 -0.1129 0.9936 4.6571 -15.5808)" fill="#542437" width="42.107" height="38.835"/>
	</g>
	<g>
		
			<rect x="106.872" y="12.005" transform="matrix(0.9941 -0.108 0.108 0.9941 -3.5576 14.2861)" fill="#D95B43" width="46.41" height="55.947"/>
		
			<rect x="108.3" y="13.898" transform="matrix(0.9941 -0.108 0.108 0.9941 -2.8418 14.1667)" fill="#542437" width="42.105" height="38.835"/>
	</g>
</g>
<g>
	<g>
		
			<rect x="201.179" y="12.526" transform="matrix(0.9936 0.113 -0.113 0.9936 6.0104 -25.0852)" fill="#D95B43" width="46.411" height="55.948"/>
		
			<rect x="204.088" y="14.423" transform="matrix(0.9936 0.1129 -0.1129 0.9936 5.2614 -25.2073)" fill="#542437" width="42.107" height="38.835"/>
	</g>
	<g>
		
			<rect x="192.151" y="12.526" transform="matrix(0.9941 -0.108 0.108 0.9941 -3.1148 23.5018)" fill="#D95B43" width="46.41" height="55.947"/>
		
			<rect x="193.579" y="14.419" transform="matrix(0.9941 -0.108 0.108 0.9941 -2.3991 23.381)" fill="#542437" width="42.105" height="38.835"/>
	</g>
</g>
</svg>
