<?xml version="1.0" encoding="utf-8"?>
<!-- Generator: Adobe Illustrator 16.0.0, SVG Export Plug-In . SVG Version: 6.00 Build 0)  -->
<!DOCTYPE svg PUBLIC "-//W3C//DTD SVG 1.1//EN" "http://www.w3.org/Graphics/SVG/1.1/DTD/svg11.dtd">
<svg version="1.1" id="Layer_1" xmlns="http://www.w3.org/2000/svg" xmlns:xlink="http://www.w3.org/1999/xlink" x="0px" y="0px"
	 width="81.286px" height="71.242px" viewBox="0 0 81.286 71.242" enable-background="new 0 0 81.286 71.242" xml:space="preserve">
<g>
	<path fill="#54777A" d="M48.164,2.146v17.469h24.889c3.362,0,6.087,2.725,6.087,6.087v37.307c0,3.362-2.725,6.087-6.087,6.087
		H8.229c-3.358,0-6.083-2.725-6.083-6.087V25.702c0-3.362,2.725-6.087,6.083-6.087h24.894V2.146H48.164 M40.644,10.682
		c1.328,0,2.402-1.073,2.402-2.402c0-1.324-1.074-2.401-2.402-2.401c-1.325,0-2.402,1.077-2.402,2.401
		C38.241,9.608,39.318,10.682,40.644,10.682 M34.946,22.978c-0.952,0-1.71-0.742-1.791-1.673h-7.219
		c-0.977,0-1.765,0.788-1.765,1.765c0,0.974,0.788,1.765,1.765,1.765H55.35c0.973,0,1.765-0.791,1.765-1.765
		c0-0.977-0.792-1.765-1.765-1.765h-7.215c-0.083,0.931-0.843,1.673-1.798,1.673H34.946 M16.249,44.915
		c-0.059-0.013-0.113-0.021-0.164-0.021c-0.566,0-0.654,0.725-0.625,1.207c0.033,0.516,0.586,2.071,1.145,2.071
		c0.025,0,0.055-0.005,0.08-0.013c0.285,2.234,1.861,2.947,1.861,2.947l-0.675,2.372c0,0-0.583,0.36-3.06,1.393
		c-2.478,1.031-4.98,1.756-5.727,2.917c-0.667,1.045-0.465,2.805-0.465,2.805h24.65c0,0,0.201-1.76-0.469-2.805
		c-0.747-1.161-3.249-1.886-5.723-2.917c-2.478-1.032-3.068-1.393-3.068-1.393l-0.671-2.372c0,0,1.581-0.713,1.866-2.947
		c0.029,0.008,0.055,0.013,0.083,0.013c0.558,0,1.111-1.556,1.14-2.071c0.03-0.482-0.067-1.207-0.628-1.207
		c-0.05,0-0.104,0.008-0.164,0.021c0.017-0.112,0.029-0.226,0.042-0.34c0-0.004,0-0.013,0.004-0.013
		c0.122-0.956,0.197-1.789,0.155-2.25c-0.113-1.196-0.884-2.424-2.155-3.183c-0.008-0.004-0.017-0.009-0.025-0.009
		c-0.679-0.276-1.702-0.688-2.838-0.729c-1.002,0.026-1.954,0.198-2.599,0.729c-0.104,0.084-0.272,0.307-0.394,0.365
		c-0.038,0.017-0.906,0.196-1.295,0.847C15.956,41.289,16.102,43.816,16.249,44.915 M36.904,40.631h32.821v-2.146H36.904V40.631
		 M36.904,44.924h32.821v-2.146H36.904V44.924 M36.904,49.216h32.821v-2.146H36.904V49.216 M36.904,53.371h24.894v-1.87H36.904
		V53.371 M40.644,6.31c1.09,0,1.975,0.88,1.975,1.97s-0.885,1.976-1.975,1.976c-1.09,0-1.971-0.886-1.971-1.976
		S39.553,6.31,40.644,6.31 M48.164,0H33.123c-1.187,0-2.146,0.959-2.146,2.146v15.322H8.229C3.693,17.469,0,21.162,0,25.702v37.307
		c0,4.54,3.693,8.233,8.229,8.233h64.824c4.54,0,8.233-3.693,8.233-8.233V25.702c0-4.54-3.693-8.233-8.233-8.233H50.311V2.146
		C50.311,0.959,49.351,0,48.164,0L48.164,0z"/>
	<path fill="#542437" d="M73.053,19.615H48.164V2.146H33.123v17.469H8.229c-3.358,0-6.083,2.725-6.083,6.087v37.307
		c0,3.362,2.725,6.087,6.083,6.087h64.824c3.362,0,6.087-2.725,6.087-6.087V25.702C79.14,22.34,76.415,19.615,73.053,19.615z
		 M33.269,60.594H8.619c0,0-0.201-1.76,0.465-2.805c0.747-1.161,3.249-1.886,5.727-2.917c2.478-1.032,3.06-1.393,3.06-1.393
		l0.675-2.372c0,0-1.576-0.713-1.861-2.947c-0.583,0.167-1.191-1.518-1.224-2.059c-0.034-0.524,0.075-1.337,0.788-1.187
		c-0.147-1.099-0.293-3.626,0.281-4.582c0.39-0.65,1.258-0.83,1.295-0.847c0.122-0.059,0.29-0.281,0.394-0.365
		c0.646-0.531,1.597-0.703,2.599-0.729c1.136,0.042,2.159,0.453,2.838,0.729c0.009,0,0.017,0.005,0.025,0.009
		c1.271,0.759,2.042,1.986,2.155,3.183c0.042,0.461-0.033,1.294-0.155,2.25c-0.004,0-0.004,0.009-0.004,0.013
		c-0.013,0.114-0.025,0.228-0.042,0.34c0.708-0.15,0.822,0.662,0.792,1.187c-0.033,0.541-0.641,2.226-1.224,2.059
		c-0.285,2.234-1.866,2.947-1.866,2.947l0.671,2.372c0,0,0.591,0.36,3.068,1.393c2.474,1.031,4.976,1.756,5.723,2.917
		C33.47,58.834,33.269,60.594,33.269,60.594z M55.35,24.834H25.937c-0.977,0-1.765-0.791-1.765-1.765
		c0-0.977,0.788-1.765,1.765-1.765h7.219c0.08,0.931,0.839,1.673,1.791,1.673h11.391c0.955,0,1.715-0.742,1.798-1.673h7.215
		c0.973,0,1.765,0.788,1.765,1.765C57.114,24.043,56.322,24.834,55.35,24.834z M43.046,8.279c0,1.329-1.074,2.402-2.402,2.402
		c-1.325,0-2.402-1.073-2.402-2.402c0-1.324,1.077-2.401,2.402-2.401C41.972,5.878,43.046,6.955,43.046,8.279z M42.618,8.279
		c0,1.09-0.885,1.976-1.975,1.976c-1.09,0-1.971-0.886-1.971-1.976s0.88-1.97,1.971-1.97C41.733,6.31,42.618,7.189,42.618,8.279z
		 M69.725,40.631H36.904v-2.146h32.821V40.631z M69.725,44.924H36.904v-2.146h32.821V44.924z M69.725,49.216H36.904v-2.146h32.821
		V49.216z M61.798,53.371H36.904v-1.87h24.894V53.371z"/>
	<g>
		<linearGradient id="SVGID_1_" gradientUnits="userSpaceOnUse" x1="40.6431" y1="6.0059" x2="40.6431" y2="10.6716">
			<stop  offset="0" style="stop-color:#4D4D4D"/>
			<stop  offset="0.9869" style="stop-color:#808080"/>
		</linearGradient>
		<circle fill="url(#SVGID_1_)" cx="40.644" cy="8.279" r="2.402"/>
	</g>
	<g>
		<path fill="#54777A" d="M42.618,8.279c0,1.09-0.885,1.976-1.975,1.976c-1.09,0-1.971-0.886-1.971-1.976s0.88-1.97,1.971-1.97
			C41.733,6.31,42.618,7.189,42.618,8.279z"/>
	</g>
</g>
</svg>
