<?xml version="1.0" encoding="utf-8"?>
<!-- Generator: Adobe Illustrator 16.0.0, SVG Export Plug-In . SVG Version: 6.00 Build 0)  -->
<!DOCTYPE svg PUBLIC "-//W3C//DTD SVG 1.1//EN" "http://www.w3.org/Graphics/SVG/1.1/DTD/svg11.dtd">
<svg version="1.1" id="Layer_1" xmlns="http://www.w3.org/2000/svg" xmlns:xlink="http://www.w3.org/1999/xlink" x="0px" y="0px"
	 width="270px" height="236px" viewBox="0 0 270 236" enable-background="new 0 0 270 236" xml:space="preserve">
<g>
	<path fill="#54777A" d="M160.12,7.112v57.869h82.669c11.176,0,20.222,9.023,20.222,20.158v123.583
		c0,11.142-9.046,20.172-20.222,20.172H27.476c-11.146,0-20.2-9.03-20.2-20.172V85.139c0-11.134,9.054-20.158,20.2-20.158h82.689
		V7.112H160.12 M135.14,35.384c4.419,0,7.98-3.561,7.98-7.958c0-4.383-3.562-7.958-7.98-7.958c-4.392,0-7.981,3.575-7.981,7.958
		C127.159,31.823,130.748,35.384,135.14,35.384 M116.214,76.11c-3.156,0-5.674-2.456-5.938-5.534H86.299
		c-3.242,0-5.868,2.606-5.868,5.842c0,3.228,2.626,5.847,5.868,5.847h97.695c3.225,0,5.854-2.619,5.854-5.847
		c0-3.236-2.63-5.842-5.854-5.842h-23.972c-0.275,3.078-2.796,5.534-5.972,5.534H116.214 M54.115,148.785
		c-0.196-0.039-0.376-0.065-0.534-0.065c-1.884,0-2.18,2.404-2.082,3.998c0.107,1.709,1.947,6.858,3.802,6.858
		c0.085,0,0.184-0.013,0.266-0.039c0.949,7.406,6.182,9.763,6.182,9.763l-2.246,7.854c0,0-1.931,1.2-10.167,4.617
		c-8.225,3.416-16.538,5.814-19.017,9.664c-2.213,3.462-1.544,9.291-1.544,9.291h81.875c0,0,0.671-5.829-1.562-9.291
		c-2.479-3.85-10.792-6.248-19.006-9.664c-8.227-3.417-10.191-4.617-10.191-4.617l-2.229-7.854c0,0,5.249-2.356,6.197-9.763
		c0.096,0.026,0.181,0.039,0.28,0.039c1.843,0,3.689-5.149,3.785-6.858c0.102-1.594-0.224-3.998-2.089-3.998
		c-0.17,0-0.352,0.026-0.544,0.065c0.059-0.37,0.095-0.746,0.142-1.126c0-0.014,0-0.036,0.016-0.036
		c0.399-3.173,0.652-5.933,0.511-7.454c-0.373-3.968-2.937-8.031-7.152-10.546c-0.026-0.018-0.062-0.027-0.089-0.027
		c-2.257-0.92-5.649-2.278-9.424-2.422c-3.329,0.091-6.485,0.664-8.633,2.422c-0.345,0.276-0.907,1.016-1.313,1.209
		c-0.121,0.053-3,0.648-4.3,2.802C53.144,136.775,53.63,145.147,54.115,148.785 M122.725,134.596h109.013v-7.111H122.725V134.596
		 M122.725,148.814h109.013v-7.107H122.725V148.814 M122.725,163.033h109.013v-7.11H122.725V163.033 M122.725,176.801h82.683V170.6
		h-82.683V176.801 M135.14,20.901c3.622,0,6.559,2.914,6.559,6.525c0,3.607-2.937,6.542-6.559,6.542
		c-3.618,0-6.547-2.935-6.547-6.542C128.593,23.815,131.521,20.901,135.14,20.901 M160.12,0h-49.955
		c-3.943,0-7.127,3.175-7.127,7.112v50.755H27.476c-15.063,0-27.331,12.235-27.331,27.271v123.583
		C0.145,223.766,12.412,236,27.476,236h215.313c15.082,0,27.356-12.234,27.356-27.278V85.139c0-15.037-12.274-27.271-27.356-27.271
		h-75.535V7.112C167.254,3.175,164.063,0,160.12,0L160.12,0z"/>
	<path fill="#542437" d="M242.789,64.981H160.12V7.112h-49.955v57.869H27.476c-11.146,0-20.2,9.023-20.2,20.158v123.583
		c0,11.142,9.054,20.172,20.2,20.172h215.313c11.176,0,20.222-9.03,20.222-20.172V85.139
		C263.011,74.005,253.965,64.981,242.789,64.981z M110.65,200.726H28.775c0,0-0.669-5.829,1.544-9.291
		c2.479-3.85,10.792-6.248,19.017-9.664c8.236-3.417,10.167-4.617,10.167-4.617l2.246-7.854c0,0-5.233-2.356-6.182-9.763
		c-1.937,0.55-3.96-5.025-4.068-6.819c-0.109-1.736,0.247-4.434,2.616-3.933c-0.485-3.638-0.971-12.01,0.934-15.179
		c1.299-2.153,4.179-2.749,4.3-2.802c0.407-0.193,0.969-0.933,1.313-1.209c2.148-1.758,5.305-2.331,8.633-2.422
		c3.774,0.144,7.167,1.502,9.424,2.422c0.027,0,0.063,0.01,0.089,0.027c4.215,2.515,6.779,6.578,7.152,10.546
		c0.142,1.521-0.111,4.281-0.511,7.454c-0.016,0-0.016,0.022-0.016,0.036c-0.047,0.38-0.083,0.756-0.142,1.126
		c2.356-0.501,2.735,2.196,2.633,3.933c-0.105,1.794-2.132,7.369-4.065,6.819c-0.949,7.406-6.197,9.763-6.197,9.763l2.229,7.854
		c0,0,1.964,1.2,10.191,4.617c8.214,3.416,16.526,5.814,19.006,9.664C111.321,194.896,110.65,200.726,110.65,200.726z
		 M183.994,82.265H86.299c-3.242,0-5.868-2.619-5.868-5.847c0-3.236,2.626-5.842,5.868-5.842h23.977
		c0.264,3.078,2.782,5.534,5.938,5.534h37.837c3.176,0,5.696-2.456,5.972-5.534h23.972c3.225,0,5.854,2.606,5.854,5.842
		C189.849,79.646,187.219,82.265,183.994,82.265z M143.12,27.426c0,4.397-3.562,7.958-7.98,7.958c-4.392,0-7.981-3.561-7.981-7.958
		c0-4.383,3.589-7.958,7.981-7.958C139.559,19.468,143.12,23.042,143.12,27.426z M141.698,27.426c0,3.607-2.937,6.542-6.559,6.542
		c-3.618,0-6.547-2.935-6.547-6.542c0-3.611,2.929-6.525,6.547-6.525C138.762,20.901,141.698,23.815,141.698,27.426z
		 M231.737,134.596H122.725v-7.111h109.013V134.596z M231.737,148.814H122.725v-7.107h109.013V148.814z M231.737,163.033H122.725
		v-7.11h109.013V163.033z M205.407,176.801h-82.683V170.6h82.683V176.801z"/>
	<g>
		<linearGradient id="SVGID_1_" gradientUnits="userSpaceOnUse" x1="135.1392" y1="19.8916" x2="135.1392" y2="35.3506">
			<stop  offset="0" style="stop-color:#4D4D4D"/>
			<stop  offset="0.9869" style="stop-color:#808080"/>
		</linearGradient>
		<path fill="url(#SVGID_1_)" d="M143.12,27.426c0,4.397-3.562,7.958-7.98,7.958c-4.392,0-7.981-3.561-7.981-7.958
			c0-4.383,3.589-7.958,7.981-7.958C139.559,19.468,143.12,23.042,143.12,27.426z"/>
	</g>
	<g>
		<path fill="#54777A" d="M141.698,27.426c0,3.607-2.937,6.542-6.559,6.542c-3.618,0-6.547-2.935-6.547-6.542
			c0-3.611,2.929-6.525,6.547-6.525C138.762,20.901,141.698,23.815,141.698,27.426z"/>
	</g>
</g>
</svg>
