<?xml version="1.0" encoding="utf-8"?>
<!-- Generator: Adobe Illustrator 16.0.0, SVG Export Plug-In . SVG Version: 6.00 Build 0)  -->
<!DOCTYPE svg PUBLIC "-//W3C//DTD SVG 1.1//EN" "http://www.w3.org/Graphics/SVG/1.1/DTD/svg11.dtd">
<svg version="1.1" id="Layer_1" xmlns="http://www.w3.org/2000/svg" xmlns:xlink="http://www.w3.org/1999/xlink" x="0px" y="0px"
	 width="196px" height="173px" viewBox="0 0 196 173" enable-background="new 0 0 196 173" xml:space="preserve">
<path fill="#ECD078" d="M196,165.115c0,4.419-3.516,8-7.85,8H7.849c-4.334,0-7.849-3.581-7.849-8V8c0-4.418,3.514-8,7.849-8h180.303
	C192.484,0,196,3.582,196,8V165.115z"/>
<g>
	<path fill="#542437" d="M39.887,100.42v-28.4h9.6c2.267,0,4.254,0.373,5.961,1.12c1.705,0.747,3.125,1.76,4.26,3.04
		c1.133,1.279,1.979,2.779,2.539,4.5c0.561,1.72,0.84,3.554,0.84,5.5c0,2.16-0.319,4.113-0.959,5.859
		c-0.641,1.747-1.547,3.24-2.721,4.48s-2.6,2.199-4.279,2.88s-3.561,1.021-5.641,1.021H39.887z M60.287,86.18
		c0-1.707-0.24-3.273-0.721-4.7s-1.18-2.66-2.1-3.7s-2.047-1.846-3.381-2.42c-1.333-0.573-2.866-0.859-4.6-0.859h-6.84v23.439h6.84
		c1.76,0,3.313-0.3,4.66-0.9c1.346-0.6,2.473-1.426,3.381-2.479c0.906-1.054,1.592-2.294,2.059-3.72
		C60.053,89.413,60.287,87.859,60.287,86.18z"/>
	<path fill="#542437" d="M77.046,100.819c-1.521,0-2.92-0.286-4.2-0.86c-1.279-0.572-2.387-1.359-3.32-2.359s-1.66-2.153-2.18-3.46
		s-0.779-2.706-0.779-4.2c0-1.467,0.26-2.846,0.779-4.141c0.52-1.293,1.246-2.426,2.18-3.399s2.033-1.746,3.301-2.319
		c1.266-0.574,2.66-0.861,4.18-0.861s2.913,0.287,4.18,0.861c1.267,0.573,2.354,1.354,3.26,2.34s1.613,2.119,2.121,3.399
		c0.506,1.28,0.76,2.64,0.76,4.08c0,0.214-0.007,0.427-0.021,0.64c-0.014,0.215-0.033,0.36-0.06,0.44H69.445
		c0.08,1.12,0.34,2.153,0.781,3.101c0.439,0.946,1,1.766,1.68,2.459c0.68,0.694,1.466,1.234,2.359,1.621s1.847,0.579,2.86,0.579
		c0.692,0,1.373-0.093,2.04-0.28c0.666-0.186,1.279-0.439,1.84-0.76s1.061-0.713,1.5-1.18s0.779-0.98,1.02-1.54l2.36,0.64
		c-0.319,0.773-0.773,1.475-1.36,2.1c-0.586,0.627-1.267,1.174-2.039,1.641c-0.774,0.467-1.627,0.827-2.561,1.08
		S78.032,100.819,77.046,100.819z M84.727,88.899c-0.08-1.12-0.341-2.14-0.781-3.06c-0.439-0.92-1-1.713-1.68-2.381
		c-0.68-0.666-1.474-1.186-2.38-1.56c-0.907-0.373-1.866-0.56-2.88-0.56s-1.974,0.187-2.88,0.56c-0.907,0.374-1.7,0.894-2.38,1.56
		c-0.68,0.668-1.227,1.467-1.641,2.4s-0.66,1.947-0.74,3.04H84.727z"/>
	<path fill="#542437" d="M91.525,71.219h2.72v24.48c0,0.773,0.213,1.381,0.641,1.82c0.426,0.439,1.025,0.66,1.8,0.66
		c0.293,0,0.64-0.04,1.04-0.12c0.399-0.08,0.772-0.187,1.12-0.32l0.479,2.2c-0.507,0.214-1.127,0.387-1.859,0.52
		c-0.734,0.134-1.367,0.201-1.9,0.201c-1.254,0-2.24-0.354-2.96-1.061s-1.08-1.7-1.08-2.98V71.219z"/>
	<path fill="#542437" d="M111.085,100.819c-1.521,0-2.92-0.286-4.2-0.86c-1.28-0.572-2.387-1.359-3.32-2.359s-1.659-2.153-2.18-3.46
		c-0.52-1.307-0.78-2.706-0.78-4.2c0-1.467,0.261-2.846,0.78-4.141c0.521-1.293,1.246-2.426,2.18-3.399s2.033-1.746,3.301-2.319
		c1.266-0.574,2.66-0.861,4.18-0.861s2.913,0.287,4.18,0.861c1.267,0.573,2.354,1.354,3.261,2.34
		c0.906,0.986,1.612,2.119,2.119,3.399s0.761,2.64,0.761,4.08c0,0.214-0.007,0.427-0.021,0.64c-0.014,0.215-0.033,0.36-0.06,0.44
		h-17.8c0.079,1.12,0.34,2.153,0.779,3.101c0.44,0.946,1,1.766,1.681,2.459c0.68,0.694,1.466,1.234,2.359,1.621
		s1.847,0.579,2.86,0.579c0.693,0,1.373-0.093,2.04-0.28c0.666-0.186,1.28-0.439,1.84-0.76s1.06-0.713,1.5-1.18s0.78-0.98,1.02-1.54
		l2.36,0.64c-0.32,0.773-0.773,1.475-1.36,2.1c-0.586,0.627-1.267,1.174-2.039,1.641c-0.774,0.467-1.627,0.827-2.561,1.08
		S112.071,100.819,111.085,100.819z M118.765,88.899c-0.08-1.12-0.34-2.14-0.779-3.06c-0.44-0.92-1-1.713-1.681-2.381
		c-0.68-0.666-1.474-1.186-2.38-1.56c-0.907-0.373-1.867-0.56-2.88-0.56c-1.014,0-1.974,0.187-2.88,0.56
		c-0.907,0.374-1.7,0.894-2.38,1.56c-0.681,0.668-1.228,1.467-1.641,2.4s-0.659,1.947-0.739,3.04H118.765z"/>
	<path fill="#542437" d="M135.325,99.42c-0.16,0.08-0.394,0.187-0.7,0.319c-0.307,0.134-0.66,0.267-1.06,0.4
		c-0.4,0.134-0.854,0.253-1.36,0.36c-0.507,0.105-1.04,0.16-1.6,0.16c-0.587,0-1.147-0.08-1.681-0.24s-1-0.406-1.399-0.74
		c-0.4-0.334-0.72-0.754-0.96-1.26c-0.24-0.507-0.36-1.094-0.36-1.76V81.739h-2.88V79.58h2.88v-7.041h2.72v7.041h4.801v2.159h-4.801
		v14.16c0.054,0.774,0.32,1.34,0.801,1.7c0.479,0.359,1.053,0.54,1.72,0.54c0.773,0,1.453-0.126,2.04-0.38
		c0.586-0.254,0.96-0.434,1.12-0.541L135.325,99.42z"/>
	<path fill="#542437" d="M147.645,100.819c-1.521,0-2.92-0.286-4.2-0.86c-1.28-0.572-2.387-1.359-3.32-2.359s-1.659-2.153-2.18-3.46
		c-0.52-1.307-0.78-2.706-0.78-4.2c0-1.467,0.261-2.846,0.78-4.141c0.521-1.293,1.246-2.426,2.18-3.399s2.033-1.746,3.301-2.319
		c1.266-0.574,2.66-0.861,4.18-0.861s2.913,0.287,4.18,0.861c1.267,0.573,2.354,1.354,3.261,2.34
		c0.906,0.986,1.612,2.119,2.119,3.399s0.761,2.64,0.761,4.08c0,0.214-0.007,0.427-0.021,0.64c-0.014,0.215-0.033,0.36-0.06,0.44
		h-17.8c0.079,1.12,0.34,2.153,0.779,3.101c0.44,0.946,1,1.766,1.681,2.459c0.68,0.694,1.466,1.234,2.359,1.621
		s1.847,0.579,2.86,0.579c0.693,0,1.373-0.093,2.04-0.28c0.666-0.186,1.28-0.439,1.84-0.76s1.06-0.713,1.5-1.18s0.78-0.98,1.02-1.54
		l2.36,0.64c-0.32,0.773-0.773,1.475-1.36,2.1c-0.586,0.627-1.267,1.174-2.039,1.641c-0.774,0.467-1.627,0.827-2.561,1.08
		S148.631,100.819,147.645,100.819z M155.324,88.899c-0.08-1.12-0.34-2.14-0.779-3.06c-0.44-0.92-1-1.713-1.681-2.381
		c-0.68-0.666-1.474-1.186-2.38-1.56c-0.907-0.373-1.867-0.56-2.88-0.56c-1.014,0-1.974,0.187-2.88,0.56
		c-0.907,0.374-1.7,0.894-2.38,1.56c-0.681,0.668-1.228,1.467-1.641,2.4s-0.659,1.947-0.739,3.04H155.324z"/>
</g>
</svg>
