<?xml version="1.0" encoding="utf-8"?>
<!-- Generator: Adobe Illustrator 16.0.0, SVG Export Plug-In . SVG Version: 6.00 Build 0)  -->
<!DOCTYPE svg PUBLIC "-//W3C//DTD SVG 1.1//EN" "http://www.w3.org/Graphics/SVG/1.1/DTD/svg11.dtd">
<svg version="1.1" id="Layer_1" xmlns="http://www.w3.org/2000/svg" xmlns:xlink="http://www.w3.org/1999/xlink" x="0px" y="0px"
	 width="63px" height="72px" viewBox="458.5 139 63 72" enable-background="new 458.5 139 63 72" xml:space="preserve">
<g>
	<path fill="#542437" d="M515.911,164.592c-0.579-0.147-1.184-0.231-1.806-0.231h-0.924v2.745v0.402h-9.242v-0.402v-2.745h-2.73
		h-22.421h-2.729v2.745v0.402h-9.24v-0.402v-2.745h-0.926c-0.624,0-1.228,0.084-1.805,0.231c-3.21,0.812-5.589,3.725-5.589,7.207
		v8.521h6.7c1.02,0,1.85,0.833,1.85,1.858c0,1.028-0.83,1.86-1.85,1.86h-6.7v4.648h6.7c1.02,0,1.85,0.833,1.85,1.859
		c0,1.027-0.83,1.861-1.85,1.861h-6.7v4.646h6.7c1.02,0,1.85,0.833,1.85,1.86c0,1.026-0.83,1.86-1.85,1.86h-6.7v2.788
		c0,4.108,3.31,7.437,7.394,7.437h48.212c4.084,0,7.395-3.328,7.395-7.437v-31.763C521.5,168.316,519.12,165.402,515.911,164.592z
		 M492.957,192.854v7.017h-5.913v-7.017c-2.677-1.153-4.548-3.827-4.548-6.942c0-4.17,3.356-7.549,7.505-7.549
		c4.146,0,7.506,3.378,7.506,7.549C497.506,189.026,495.633,191.7,492.957,192.854z"/>
	<path fill="#542437" d="M476.06,155.287c0.008-3.86,3.111-6.985,6.948-6.991h13.982c3.835,0.006,6.942,3.131,6.949,6.991v9.073
		h9.242v-9.073c-0.002-8.998-7.246-16.285-16.191-16.287h-13.982c-8.943,0.002-16.188,7.289-16.189,16.287v9.073h9.24
		L476.06,155.287L476.06,155.287z"/>
</g>
</svg>
