<?xml version="1.0" encoding="utf-8"?>
<!-- Generator: Adobe Illustrator 16.0.0, SVG Export Plug-In . SVG Version: 6.00 Build 0)  -->
<!DOCTYPE svg PUBLIC "-//W3C//DTD SVG 1.1//EN" "http://www.w3.org/Graphics/SVG/1.1/DTD/svg11.dtd">
<svg version="1.1" id="Layer_1" xmlns="http://www.w3.org/2000/svg" xmlns:xlink="http://www.w3.org/1999/xlink" x="0px" y="0px"
	 width="143.352px" height="91.829px" viewBox="0 0 143.352 91.829" enable-background="new 0 0 143.352 91.829"
	 xml:space="preserve">
<g>
	<g>
		<g opacity="0.6">
			<rect x="-534.195" y="-2.055" fill="#542437" width="145.477" height="94.494"/>
			<rect x="-379.688" y="-2.055" fill="#542437" width="145.477" height="94.494"/>
			<rect x="-225.182" y="-2.055" fill="#542437" width="102.846" height="94.494"/>
			<rect x="-113.591" y="-2.055" fill="#542437" width="102.846" height="94.494"/>
			<rect x="-2.124" y="-2.055" fill="#542437" width="145.476" height="94.494"/>
			<rect x="152.753" y="-2.055" fill="#542437" width="145.476" height="94.494"/>
			<rect x="307.63" y="-2.055" fill="#542437" width="145.476" height="94.494"/>
		</g>
		<g opacity="0.6">
			<rect x="-534.195" y="99.939" fill="#542437" width="145.477" height="44.998"/>
			<rect x="-379.688" y="99.939" fill="#542437" width="145.477" height="44.998"/>
			<rect x="-225.182" y="99.939" fill="#542437" width="102.846" height="44.998"/>
			<rect x="-113.591" y="99.939" fill="#542437" width="102.846" height="44.998"/>
			<rect x="-2.124" y="99.939" fill="#542437" width="145.476" height="44.998"/>
			<rect x="152.753" y="99.939" fill="#542437" width="145.476" height="44.998"/>
			<rect x="307.63" y="99.939" fill="#542437" width="145.476" height="44.998"/>
		</g>
		<g opacity="0.6">
			<rect x="-534.195" y="153.854" fill="#542437" width="145.477" height="44.998"/>
			<rect x="-379.688" y="153.854" fill="#542437" width="145.477" height="44.998"/>
			<rect x="-225.182" y="153.854" fill="#542437" width="102.846" height="44.998"/>
			<rect x="-113.591" y="153.854" fill="#542437" width="102.846" height="44.998"/>
			<rect x="-2.124" y="153.854" fill="#542437" width="145.476" height="44.998"/>
			<rect x="152.753" y="153.854" fill="#542437" width="145.476" height="44.998"/>
			<rect x="307.63" y="153.854" fill="#542437" width="145.476" height="44.998"/>
		</g>
		<g opacity="0.6">
			<rect x="-534.195" y="207.77" fill="#542437" width="145.477" height="44.998"/>
			<rect x="-379.688" y="207.77" fill="#542437" width="145.477" height="44.998"/>
			<rect x="-225.182" y="207.77" fill="#542437" width="102.846" height="44.998"/>
			<rect x="-113.591" y="207.77" fill="#542437" width="102.846" height="44.998"/>
			<rect x="-2.124" y="207.77" fill="#542437" width="145.476" height="44.998"/>
			<rect x="152.753" y="207.77" fill="#542437" width="145.476" height="44.998"/>
			<rect x="307.63" y="207.77" fill="#542437" width="145.476" height="44.998"/>
		</g>
		<g opacity="0.6">
			<rect x="-534.195" y="261.685" fill="#542437" width="145.477" height="44.998"/>
			<rect x="-379.688" y="261.685" fill="#542437" width="145.477" height="44.998"/>
			<rect x="-225.182" y="261.685" fill="#542437" width="102.846" height="44.998"/>
			<rect x="-113.591" y="261.685" fill="#542437" width="102.846" height="44.998"/>
			<rect x="-2.124" y="261.685" fill="#542437" width="145.476" height="44.998"/>
			<rect x="152.753" y="261.685" fill="#542437" width="145.476" height="44.998"/>
			<rect x="307.63" y="261.685" fill="#542437" width="145.476" height="44.998"/>
		</g>
		<g opacity="0.6">
			<rect x="-534.195" y="315.6" fill="#542437" width="145.477" height="44.998"/>
			<rect x="-379.688" y="315.6" fill="#542437" width="145.477" height="44.998"/>
			<rect x="-225.182" y="315.6" fill="#542437" width="102.846" height="44.998"/>
			<rect x="-113.591" y="315.6" fill="#542437" width="102.846" height="44.998"/>
			<rect x="-2.124" y="315.6" fill="#542437" width="145.476" height="44.998"/>
			<rect x="152.753" y="315.6" fill="#542437" width="145.476" height="44.998"/>
			<rect x="307.63" y="315.6" fill="#542437" width="145.476" height="44.998"/>
		</g>
	</g>
	<g>
		<path fill="#542437" stroke="#542437" stroke-width="3" stroke-miterlimit="10" d="M-534.195,355.138
			c1.98,2.216,2.98,3.26,5.461,5.314"/>
		<path fill="#542437" stroke="#542437" stroke-width="3" stroke-miterlimit="10" d="M-534.195,302.367
			c19.98,19.473,39.98,39.319,59.658,58.051"/>
		<path fill="#542437" stroke="#542437" stroke-width="3" stroke-miterlimit="10" d="M-534.195,249.599
			c38.98,35.682,74.98,74.332,113.793,110.724"/>
		<path fill="#542437" stroke="#542437" stroke-width="3" stroke-miterlimit="10" d="M-534.195,196.823
			c55.98,55.032,111.98,108.304,168.171,163.639"/>
		<path fill="#542437" stroke="#542437" stroke-width="3" stroke-miterlimit="10" d="M-534.195,144.052
			c60.98,58.71,118.98,116.16,180.98,176.744c14,13.578,28,26.112,41.395,39.637"/>
		<path fill="#542437" stroke="#542437" stroke-width="3" stroke-miterlimit="10" d="M-534.195,91.28
			c72.98,71.788,144.98,141.773,219.98,214.892c4,3.133,7,6.267,11,9.4c1,1.044,2,3.134,3,4.177c4,3.135,7,6.269,11,9.402
			c1,1.044,2,3.134,3,4.178c4,3.134,7,6.268,11,9.401c5,5.223,11,9.4,15.457,15.591"/>
		<path fill="#542437" stroke="#542437" stroke-width="3" stroke-miterlimit="10" d="M-534.195,38.513
			c24.98,22.191,46.98,46.217,70.98,70.241c23,21.936,46,40.737,67,64.761c2,2.09,5,4.178,8,6.268
			c62,61.628,122,119.076,182.68,178.529"/>
		<path fill="#542437" stroke="#542437" stroke-width="3" stroke-miterlimit="10" d="M-524.198-4.532
			c33.808,32.896,67.614,65.794,101.423,98.689c34.055,33.135,68.108,66.271,102.162,99.408
			c33.926,33.011,67.851,66.021,101.776,99.03c22.537,21.929,45.073,43.857,67.608,65.787"/>
		<path fill="#542437" stroke="#542437" stroke-width="3" stroke-miterlimit="10" d="M-307.215,154.714
			c72,68.938,140,135.79,210.057,203.51l-222.413-216.418L-307.215,154.714z"/>
		<path fill="#542437" stroke="#542437" stroke-width="3" stroke-miterlimit="10" d="M-456.215,9.522
			c2.113,1.655,3.948,3.312,5.798,4.967l-9.722-9.46C-459.119,6.601-458.037,8.253-456.215,9.522z"/>
		<path fill="#542437" stroke="#542437" stroke-width="3" stroke-miterlimit="10" d="M-409.847,53.966l-29.467-28.674
			C-429.618,35.491-419.654,44.75-409.847,53.966z"/>
		<path fill="#542437" stroke="#542437" stroke-width="3" stroke-miterlimit="10" d="M-396.215,66.972
			c-4.48-4.387-9.039-8.692-13.632-13.006l90.275,87.84l-11.644-12.162C-353.215,108.754-374.215,88.906-396.215,66.972z"/>
		<path fill="#542437" stroke="#542437" stroke-width="3" stroke-miterlimit="10" d="M-472.466-7.415
			c-0.155-0.001-0.312-0.003-0.466-0.004l12.793,12.448c-0.658-1.016-1.291-1.999-2.076-2.818
			C-465.686-0.981-469.095-4.192-472.466-7.415z"/>
		<path fill="#542437" stroke="#542437" stroke-width="3" stroke-miterlimit="10" d="M-450.417,14.489l11.104,10.803
			c-1.979-2.08-3.948-4.202-5.901-6.369C-447.102,17.444-448.766,15.966-450.417,14.489z"/>
		<path fill="#542437" stroke="#542437" stroke-width="3" stroke-miterlimit="10" d="M-197.799,207.525l-16.135-15.7
			C-208.688,197.251-203.279,202.392-197.799,207.525z"/>
		<path fill="#542437" stroke="#542437" stroke-width="3" stroke-miterlimit="10" d="M-229.215,177.692
			c0.982,1.027,2.448,2.053,3.922,3.08l-6.692-6.512C-231.014,175.354-230.08,176.489-229.215,177.692z"/>
		<path fill="#542437" stroke="#542437" stroke-width="3" stroke-miterlimit="10" d="M-97.215,306.172
			c19,17.759,36,34.468,54.236,52l-102.902-100.129C-129.691,273.956-113.779,290.063-97.215,306.172z"/>
		<path fill="#542437" stroke="#542437" stroke-width="3" stroke-miterlimit="10" d="M-183.215,222.608
			c8.189,7.413,16.151,14.908,23.996,22.456l-25.958-25.257C-184.523,220.798-183.869,221.925-183.215,222.608z"/>
		<path fill="#542437" stroke="#542437" stroke-width="3" stroke-miterlimit="10" d="M-258.215,149.491
			c0.948,0.66,1.894,1.319,2.811,1.981l-49.213-47.886C-289.177,118.728-273.711,134.001-258.215,149.491z"/>
		<path fill="#542437" stroke="#542437" stroke-width="3" stroke-miterlimit="10" d="M-145.881,258.043
			c-4.418-4.343-8.859-8.668-13.338-12.979L-145.881,258.043z"/>
		<path fill="#542437" stroke="#542437" stroke-width="3" stroke-miterlimit="10" d="M-239.916,166.543l-7.336-7.138
			C-244.965,161.95-242.446,164.253-239.916,166.543z"/>
		<path fill="#542437" stroke="#542437" stroke-width="3" stroke-miterlimit="10" d="M-225.293,180.772l11.359,11.053
			c-2.465-2.551-4.9-5.151-7.281-7.865C-222.232,182.896-223.767,181.835-225.293,180.772z"/>
		<path fill="#542437" stroke="#542437" stroke-width="3" stroke-miterlimit="10" d="M-197.799,207.525l12.622,12.282
			c-0.347-0.527-0.692-1.018-1.038-1.378C-190.089,214.722-193.959,211.122-197.799,207.525z"/>
		<path fill="#542437" stroke="#542437" stroke-width="3" stroke-miterlimit="10" d="M-239.916,166.543l7.931,7.718
			C-234.443,171.494-237.181,169.021-239.916,166.543z"/>
		<path fill="#542437" stroke="#542437" stroke-width="3" stroke-miterlimit="10" d="M-418.602-6.892
			c18.475,17.831,36.988,35.669,55.545,53.613l-55.095-53.608C-418.302-6.891-418.452-6.891-418.602-6.892z"/>
		<path fill="#542437" stroke="#542437" stroke-width="3" stroke-miterlimit="10" d="M-304.617,103.587
			c-19.523-19.145-39.005-38.07-58.439-56.865L-304.617,103.587z"/>
		<path fill="#542437" stroke="#542437" stroke-width="3" stroke-miterlimit="10" d="M-255.404,151.473l8.152,7.933
			c-1.042-1.158-2.041-2.363-2.963-3.648C-251.583,154.33-253.422,152.901-255.404,151.473z"/>
		<path fill="#542437" stroke="#542437" stroke-width="3" stroke-miterlimit="10" d="M-75.215,274.835
			c30,28.203,57,56.405,86.697,83.556l-118.045-114.861C-96.178,253.763-85.894,263.683-75.215,274.835z"/>
		<path fill="#542437" stroke="#542437" stroke-width="3" stroke-miterlimit="10" d="M-198.384,154.183l91.821,89.347
			c-6.148-6.058-12.331-12.228-18.652-18.832C-150.077,200.823-174.293,177.454-198.384,154.183z"/>
		<path fill="#542437" stroke="#542437" stroke-width="3" stroke-miterlimit="10" d="M-307.215,49.214
			c37.138,35.665,72.844,70.207,108.831,104.969L-320.21,35.64L-307.215,49.214z"/>
		<path fill="#542437" stroke="#542437" stroke-width="3" stroke-miterlimit="10" d="M-362.816-5.817l42.606,41.457l-11.005-11.493
			C-341.909,13.99-352.365,4.084-362.816-5.817z"/>
		<path fill="#542437" stroke="#542437" stroke-width="3" stroke-miterlimit="10" d="M-308.896-6.121l64.814,63.067
			c-21.419-21.625-42.889-41.924-64.615-63.067H-308.896z"/>
		<path fill="#542437" stroke="#542437" stroke-width="3" stroke-miterlimit="10" d="M-229.215,72.194
			c1.57,1.093,2.867,2.188,4.176,3.281l-19.043-18.529C-239.125,61.949-234.17,67.021-229.215,72.194z"/>
		<path fill="#542437" stroke="#542437" stroke-width="3" stroke-miterlimit="10" d="M-167.222,131.734
			C-89.087,208.526-12.34,282.757,65.627,358.307L-167.222,131.734z"/>
		<path fill="#542437" stroke="#542437" stroke-width="3" stroke-miterlimit="10" d="M-221.215,78.461
			c-1.43-0.995-2.632-1.991-3.824-2.985l57.817,56.259C-185.137,114.128-203.123,96.385-221.215,78.461z"/>
		<path fill="#542437" stroke="#542437" stroke-width="3" stroke-miterlimit="10" d="M8.785,250.811
			c0.725,0.503,1.447,1.01,2.158,1.515l-3.586-3.489C7.832,249.58,8.309,250.313,8.785,250.811z"/>
		<path fill="#542437" stroke="#542437" stroke-width="3" stroke-miterlimit="10" d="M-254.19-5.838
			c-0.061,0-0.122-0.001-0.183-0.001L-91.678,152.47c-17.069-16.836-33.877-33.264-51.537-51.028
			C-180.744,65.462-217.632,29.73-254.19-5.838z"/>
		<path fill="#542437" stroke="#542437" stroke-width="3" stroke-miterlimit="10" d="M-64.215,179.782
			c0.729,0.507,1.456,1.015,2.17,1.521l-29.633-28.834C-82.652,161.374-73.555,170.389-64.215,179.782z"/>
		<path fill="#542437" stroke="#542437" stroke-width="3" stroke-miterlimit="10" d="M-2.215,240.365
			c1.441,1.506,3.404,3.011,5.51,4.516l-49.223-47.894C-31.357,211.978-16.787,225.146-2.215,240.365z"/>
		<path fill="#542437" stroke="#542437" stroke-width="3" stroke-miterlimit="10" d="M37.785,279.015
			c0.703,0.489,1.408,0.98,2.1,1.471l-3.5-3.407C36.852,277.81,37.318,278.526,37.785,279.015z"/>
		<path fill="#542437" stroke="#542437" stroke-width="3" stroke-miterlimit="10" d="M26.785,268.567
			c1.699,1.184,3.08,2.369,4.504,3.553l-6.348-6.176C25.555,266.891,26.17,267.926,26.785,268.567z"/>
		<path fill="#542437" stroke="#542437" stroke-width="3" stroke-miterlimit="10" d="M10.943,252.325l8.379,8.154
			c-0.891-1.009-1.717-2.114-2.537-3.4C15.268,255.494,13.174,253.909,10.943,252.325z"/>
		<path fill="#542437" stroke="#542437" stroke-width="3" stroke-miterlimit="10" d="M-56.215,186.05
			c-1.515-1.582-3.604-3.163-5.83-4.746l16.117,15.684C-49.357,193.459-52.786,189.831-56.215,186.05z"/>
		<path fill="#542437" stroke="#542437" stroke-width="3" stroke-miterlimit="10" d="M45.785,285.28
			c-1.531-1.598-3.646-3.197-5.9-4.795l18.84,18.331C54.363,294.408,50.041,289.913,45.785,285.28z"/>
		<path fill="#542437" stroke="#542437" stroke-width="3" stroke-miterlimit="10" d="M81.957,321.423l37.863,36.843
			C107.535,345.521,94.738,333.56,81.957,321.423z"/>
		<path fill="#542437" stroke="#542437" stroke-width="3" stroke-miterlimit="10" d="M58.725,298.816
			c7.658,7.744,15.441,15.21,23.232,22.606L58.725,298.816z"/>
		<path fill="#542437" stroke="#542437" stroke-width="3" stroke-miterlimit="10" d="M3.295,244.881l4.063,3.955
			c-0.525-0.821-1.049-1.656-1.572-2.203C4.945,246.05,4.111,245.466,3.295,244.881z"/>
		<path fill="#542437" stroke="#542437" stroke-width="3" stroke-miterlimit="10" d="M21.76,262.849l3.182,3.096
			c-0.387-0.594-0.771-1.151-1.156-1.555C23.055,263.882,22.387,263.374,21.76,262.849z"/>
		<path fill="#542437" stroke="#542437" stroke-width="3" stroke-miterlimit="10" d="M31.289,272.12l5.096,4.958
			c-0.533-0.833-1.066-1.687-1.6-2.243C33.484,273.932,32.375,273.025,31.289,272.12z"/>
		<path fill="#542437" stroke="#542437" stroke-width="3" stroke-miterlimit="10" d="M-194.326-0.182
			c33.938,33.022,67.875,66.044,101.813,99.066c34.05,33.133,68.1,66.266,102.15,99.397c34.047,33.129,68.094,66.258,102.141,99.386
			c20.744,20.188,41.49,40.372,62.234,60.558"/>
		<path fill="#542437" stroke="#542437" stroke-width="3" stroke-miterlimit="10" d="M26.785,163.068
			c1.822,1.272,3.279,2.54,4.813,3.813l-6.736-6.556C25.502,161.304,26.143,162.4,26.785,163.068z"/>
		<path fill="#542437" stroke="#542437" stroke-width="3" stroke-miterlimit="10" d="M37.785,173.515
			c4.199,3.804,8.316,7.607,12.381,11.434l-13.857-13.482C36.801,172.235,37.293,173.001,37.785,173.515z"/>
		<path fill="#542437" stroke="#542437" stroke-width="3" stroke-miterlimit="10" d="M8.785,145.312
			c0.781,0.546,1.563,1.089,2.326,1.636l-56.645-55.118C-27.811,109.969-9.514,126.2,8.785,145.312z"/>
		<path fill="#542437" stroke="#542437" stroke-width="3" stroke-miterlimit="10" d="M211.785,342.73
			c1.404,1.102,2.684,2.2,3.93,3.303l-11.219-10.917L211.785,342.73z"/>
		<path fill="#542437" stroke="#542437" stroke-width="3" stroke-miterlimit="10" d="M80.785,215.298
			c0.955,0.664,1.805,1.33,2.623,1.997l-13.137-12.782C73.787,208.052,77.285,211.642,80.785,215.298z"/>
		<path fill="#542437" stroke="#542437" stroke-width="3" stroke-miterlimit="10" d="M70.271,204.513
			c-6.609-6.66-13.281-13.144-20.105-19.564L70.271,204.513z"/>
		<path fill="#542437" stroke="#542437" stroke-width="3" stroke-miterlimit="10" d="M-144.607-5.413
			c-0.287-0.001-0.574-0.001-0.863-0.002l69.609,67.732C-98,39.89-120.245,19.049-143.215-4.057
			C-143.681-4.51-144.142-4.96-144.607-5.413z"/>
		<path fill="#542437" stroke="#542437" stroke-width="3" stroke-miterlimit="10" d="M88.785,221.563
			c-2.045-1.424-3.629-2.847-5.377-4.269l121.088,117.821l-12.711-13.276C156.785,287.369,123.785,256.034,88.785,221.563z"/>
		<path fill="#542437" stroke="#542437" stroke-width="3" stroke-miterlimit="10" d="M222.785,352.131
			c-2.596-2.032-4.771-4.066-7.07-6.098l14.797,14.397C227.785,357.354,224.785,355.265,222.785,352.131z"/>
		<path fill="#542437" stroke="#542437" stroke-width="3" stroke-miterlimit="10" d="M-64.215,74.283
			c0.786,0.549,1.571,1.095,2.34,1.644l-13.986-13.609C-71.978,66.252-68.096,70.23-64.215,74.283z"/>
		<path fill="#542437" stroke="#542437" stroke-width="3" stroke-miterlimit="10" d="M31.598,166.881l4.711,4.585
			c-0.508-0.797-1.016-1.6-1.523-2.129C33.607,168.518,32.586,167.698,31.598,166.881z"/>
		<path fill="#542437" stroke="#542437" stroke-width="3" stroke-miterlimit="10" d="M-56.215,80.55
			c-1.477-1.541-3.498-3.082-5.66-4.623l16.342,15.902C-49.117,88.159-52.682,84.418-56.215,80.55z"/>
		<path fill="#542437" stroke="#542437" stroke-width="3" stroke-miterlimit="10" d="M11.111,146.947l7.926,7.712
			c-0.783-0.922-1.518-1.93-2.252-3.078C15.305,150.035,13.279,148.491,11.111,146.947z"/>
		<path fill="#542437" stroke="#542437" stroke-width="3" stroke-miterlimit="10" d="M-63.97,21.116
			c17.065,16.605,34.132,33.21,51.196,49.816c16.977,16.519,33.953,33.039,50.932,49.557c16.385,15.946,32.771,31.889,49.158,47.835
			L-88.839-3.082C-80.549,4.984-72.26,13.05-63.97,21.116z"/>
		<path fill="#542437" stroke="#542437" stroke-width="3" stroke-miterlimit="10" d="M271.67,347.708l13.064,12.712l-34.713-33.778
			C257.238,333.664,264.453,340.687,271.67,347.708z"/>
		<path fill="#542437" stroke="#542437" stroke-width="3" stroke-miterlimit="10" d="M137.262,216.923
			c15.73,15.306,31.461,30.613,47.191,45.92c5.721,5.566,11.443,11.133,17.164,16.7L88.484,169.463L137.262,216.923z"/>
		<path fill="#542437" stroke="#542437" stroke-width="3" stroke-miterlimit="10" d="M201.617,279.543l48.404,47.099
			c-6.867-6.682-13.734-13.364-20.602-20.045C220.152,297.579,210.885,288.561,201.617,279.543z"/>
		<path fill="#542437" stroke="#542437" stroke-width="3" stroke-miterlimit="10" d="M-31.717-0.271
			C2.326,32.855,36.369,65.979,70.412,99.104c33.955,33.04,67.908,66.077,101.863,99.115c33.977,33.062,67.953,66.123,101.93,99.185
			c21.588,21.007,43.176,42.013,64.764,63.018"/>
		<path fill="#542437" stroke="#542437" stroke-width="3" stroke-miterlimit="10" d="M136.785,111.887
			c63.775,62.022,125.939,121.802,188.225,182.183L117.025,91.69C123.611,98.68,130.197,105.008,136.785,111.887z"/>
		<path fill="#542437" stroke="#542437" stroke-width="3" stroke-miterlimit="10" d="M17.365-5.077
			c15.217,14.722,30.482,29.291,45.42,44.891c1.154,0.804,2.307,1.608,3.404,2.412L17.576-5.077
			C17.506-5.077,17.436-5.077,17.365-5.077z"/>
		<path fill="#542437" stroke="#542437" stroke-width="3" stroke-miterlimit="10" d="M70.785,46.081
			c-1.23-1.285-2.842-2.571-4.596-3.855l50.836,49.465c-2.414-2.562-4.828-5.205-7.24-8.006
			C96.785,71.149,83.785,59.659,70.785,46.081z"/>
		<path fill="#542437" stroke="#542437" stroke-width="3" stroke-miterlimit="10" d="M325.01,294.069l68.176,66.337
			C370.389,338.122,347.691,316.056,325.01,294.069z"/>
		<path fill="#542437" stroke="#542437" stroke-width="3" stroke-miterlimit="10" d="M271.67,189.396
			c13.016,12.662,26.029,25.326,39.045,37.991c7.531,7.328,15.063,14.655,22.594,21.984l-77.535-75.444
			C261.072,179.083,266.371,184.24,271.67,189.396z"/>
		<path fill="#542437" stroke="#542437" stroke-width="3" stroke-miterlimit="10" d="M377.223,292.102l1.633,1.59l-8.551-8.321
			C372.611,287.613,374.916,289.857,377.223,292.102z"/>
		<path fill="#542437" stroke="#542437" stroke-width="3" stroke-miterlimit="10" d="M137.262,58.608
			c15.73,15.307,31.461,30.613,47.191,45.921c3.334,3.244,6.668,6.49,10.002,9.732l-92.43-89.938
			C113.77,35.752,125.516,47.181,137.262,58.608z"/>
		<path fill="#542437" stroke="#542437" stroke-width="3" stroke-miterlimit="10" d="M440.688,353.855
			c2.262,2.2,4.523,4.399,6.785,6.602l-15.488-15.071C434.885,348.209,437.785,351.031,440.688,353.855z"/>
		<path fill="#542437" stroke="#542437" stroke-width="3" stroke-miterlimit="10" d="M403.707,317.871l-24.852-24.18l53.129,51.694
			c-2.32-2.258-4.639-4.515-6.959-6.77C417.92,331.701,410.814,324.786,403.707,317.871z"/>
		<path fill="#542437" stroke="#542437" stroke-width="3" stroke-miterlimit="10" d="M71.791-5.095L71.791-5.095l30.234,29.419
			c-4.564-4.442-9.129-8.884-13.693-13.325C82.818,5.634,77.305,0.269,71.791-5.095z"/>
		<path fill="#542437" stroke="#542437" stroke-width="3" stroke-miterlimit="10" d="M333.309,249.371l36.996,35.999
			c-8.082-7.863-16.162-15.728-24.242-23.588C341.811,257.644,337.559,253.508,333.309,249.371z"/>
		<path fill="#542437" stroke="#542437" stroke-width="3" stroke-miterlimit="10" d="M194.455,114.262l61.318,59.665
			c-8.783-8.547-17.568-17.096-26.354-25.645C217.766,136.943,206.109,125.604,194.455,114.262z"/>
		<path fill="#542437" stroke="#542437" stroke-width="3" stroke-miterlimit="10" d="M130.988-0.269
			c49.258,49.006,99.258,96.01,149.258,146.148c59,56.404,115,111.765,172.859,167.286"/>
		<path fill="#542437" stroke="#542437" stroke-width="3" stroke-miterlimit="10" d="M185.146-0.341
			c7.1,6.25,14.1,13.563,21.1,19.832c6,7.309,13,13.577,20,20.89c43,41.781,84,81.475,127,123.256c4,3.134,7,6.267,11,9.399
			c16,17.758,34,32.382,50,50.139c2,2.091,6,4.179,8,6.269c3,4.177,5,7.31,9,10.443c9,6.269,15,13.579,21.859,20.507"/>
		<path fill="#542437" stroke="#542437" stroke-width="3" stroke-miterlimit="10" d="M239.396-0.323
			c27.85,27.123,54.85,53.239,82.85,81.441c4,3.133,7,6.267,11,9.401c17,17.757,34,32.381,50,50.138c2,2.089,5,4.178,8,6.266
			c1,1.046,2,3.135,3,4.178c3,2.091,6,4.181,8,6.268c6,8.358,14,13.58,20,20.893c10,10.445,20,19.846,30.859,29.363"/>
		<path fill="#542437" stroke="#542437" stroke-width="3" stroke-miterlimit="10" d="M291.623-2.274
			c45.623,44.744,90.623,89.659,138.623,135.62c8,7.312,15,14.623,22.859,21.507"/>
		<path fill="#542437" stroke="#542437" stroke-width="3" stroke-miterlimit="10" d="M345.729-2.4
			c29.518,28.157,58.518,57.405,88.518,86.651c7,6.269,13,11.49,18.859,17.83"/>
		<path fill="#542437" stroke="#542437" stroke-width="3" stroke-miterlimit="10" d="M399.928-2.434
			c17.318,17.746,36.318,34.458,53.178,51.742"/>
		<path fill="#542437" stroke="#542437" stroke-width="3" stroke-miterlimit="10" d="M453.105,355.138
			c-2.32,2.216-3.32,3.26-5.461,5.314"/>
		<path fill="#542437" stroke="#542437" stroke-width="3" stroke-miterlimit="10" d="M453.105,302.367
			c-18.32,20.517-40.32,37.229-59.66,58.051"/>
		<path fill="#542437" stroke="#542437" stroke-width="3" stroke-miterlimit="10" d="M453.105,249.599
			c-16.32,14.791-32.32,30.459-47.32,47.172c-8,7.312-17,13.58-24,22.979c-3,3.135-7,6.269-11,9.402
			c-10,10.445-22,19.847-31.473,31.171"/>
		<path fill="#542437" stroke="#542437" stroke-width="3" stroke-miterlimit="10" d="M453.105,196.823
			c-56.32,55.032-112.32,109.349-168.172,163.639"/>
		<path fill="#542437" stroke="#542437" stroke-width="3" stroke-miterlimit="10" d="M453.105,144.052
			c-16.32,14.839-32.32,30.507-47.32,47.221c-8,7.312-18,13.578-24,22.98c-23,18.801-42,40.735-64,60.582
			c-30,29.247-58,56.405-87.055,85.598"/>
		<path fill="#542437" stroke="#542437" stroke-width="3" stroke-miterlimit="10" d="M453.105,91.28
			c-91.32,89.546-183.32,177.287-274.439,267.041"/>
		<path fill="#542437" stroke="#542437" stroke-width="3" stroke-miterlimit="10" d="M453.105,38.513
			c-1.154,1.121-2.309,2.245-3.461,3.367c-3.354,3.261-6.705,6.523-10.057,9.785c-5.387,5.241-10.773,10.484-16.162,15.725
			c-7.258,7.063-14.518,14.126-21.775,21.189c-8.967,8.726-17.934,17.451-26.9,26.177c-10.514,10.228-21.025,20.456-31.537,30.684
			c-11.893,11.575-23.787,23.147-35.68,34.72c-13.113,12.76-26.225,25.518-39.336,38.276c-14.168,13.784-28.334,27.568-42.5,41.354
			c-15.059,14.65-30.117,29.303-45.176,43.956c-15.785,15.361-31.572,30.722-47.359,46.083c-2.906,2.827-5.813,5.655-8.719,8.482"/>
		<path fill="#542437" stroke="#542437" stroke-width="3" stroke-miterlimit="10" d="M186.293,245.358
			c-39.078,37.729-78.027,74.836-116.156,113.024L186.293,245.358z"/>
		<path fill="#542437" stroke="#542437" stroke-width="3" stroke-miterlimit="10" d="M230.15,202.682l-43.857,42.677
			C200.906,231.247,215.537,217.057,230.15,202.682z"/>
		<path fill="#542437" stroke="#542437" stroke-width="3" stroke-miterlimit="10" d="M230.15,202.682l41.057-39.948
			c-1.104,0.81-2.262,1.617-3.422,2.424C255.268,177.835,242.717,190.324,230.15,202.682z"/>
		<path fill="#542437" stroke="#542437" stroke-width="3" stroke-miterlimit="10" d="M445.412-6.774L432.439,5.849
			c4.338-4.176,8.676-8.389,13.018-12.623C445.441-6.774,445.426-6.774,445.412-6.774z"/>
		<path fill="#542437" stroke="#542437" stroke-width="3" stroke-miterlimit="10" d="M271.207,162.733
			c1.746-1.279,3.352-2.562,4.578-3.843c8-8.354,16-15.668,25-24.024c6.002-6.27,12.008-12.395,18.029-18.458L271.207,162.733z"/>
		<path fill="#542437" stroke="#542437" stroke-width="3" stroke-miterlimit="10" d="M370.785,64.884
			c-17.736,17.751-34.924,34.369-51.971,51.524L432.439,5.849C412.078,25.454,391.711,44.586,370.785,64.884z"/>
		<path fill="#542437" stroke="#542437" stroke-width="3" stroke-miterlimit="10" d="M386.424-2.147
			c-33.961,33.045-67.92,66.088-101.881,99.133c-33.996,33.08-67.994,66.161-101.99,99.242c-34,33.08-68,66.163-101.998,99.246
			c-21.496,20.917-42.992,41.835-64.488,62.75"/>
		<path fill="#542437" stroke="#542437" stroke-width="3" stroke-miterlimit="10" d="M40.17,281.999l11.766-11.448
			c-1.551,1.081-3.117,2.16-4.15,3.24C45.271,276.579,42.727,279.304,40.17,281.999z"/>
		<path fill="#542437" stroke="#542437" stroke-width="3" stroke-miterlimit="10" d="M335.324-5.923
			c-17.531,16.822-34.949,33.445-52.09,51.41l52.84-51.415C335.824-5.925,335.574-5.924,335.324-5.923z"/>
		<path fill="#542437" stroke="#542437" stroke-width="3" stroke-miterlimit="10" d="M55.785,267.522
			c2.066-2.354,4.18-4.621,6.311-6.857l-10.16,9.886C53.385,269.542,54.818,268.532,55.785,267.522z"/>
		<path fill="#542437" stroke="#542437" stroke-width="3" stroke-miterlimit="10" d="M-2.215,323.931
			c14.33-14.09,28.652-27.449,42.385-41.932l-78.283,76.173C-25.215,347.953-15.215,335.418-2.215,323.931z"/>
		<path fill="#542437" stroke="#542437" stroke-width="3" stroke-miterlimit="10" d="M272.514,55.919
			c1.016-0.842,2.061-1.685,3.271-2.527c2.477-2.67,4.961-5.296,7.449-7.904L272.514,55.919z"/>
		<path fill="#542437" stroke="#542437" stroke-width="3" stroke-miterlimit="10" d="M90.785,232.009
			c-9.746,10.178-19.48,18.996-28.689,28.656L272.514,55.919c-1.504,1.248-2.939,2.494-4.729,3.74
			C207.785,119.198,150.785,173.515,90.785,232.009z"/>
		<path fill="#542437" stroke="#542437" stroke-width="3" stroke-miterlimit="10" d="M280.785-5.628
			c-105.42,102.631-206.41,200.634-313,304.486c-6.283,6.563-12.566,12.904-18.859,19.152L281.535-5.63
			C281.285-5.63,281.035-5.628,280.785-5.628z"/>
		<path fill="#542437" stroke="#542437" stroke-width="3" stroke-miterlimit="10" d="M-51.074,318.011l-41.499,40.38
			C-78.609,344.784-64.815,331.649-51.074,318.011z"/>
		<path fill="#542437" stroke="#542437" stroke-width="3" stroke-miterlimit="10" d="M6.377,209.338l16.969-16.513
			C17.643,198.257,11.938,203.685,6.377,209.338z"/>
		<path fill="#542437" stroke="#542437" stroke-width="3" stroke-miterlimit="10" d="M-92.273,305.329l84.996-82.705
			c-0.957,0.69-1.945,1.383-2.938,2.073C-38.32,252.181-65.352,278.913-92.273,305.329z"/>
		<path fill="#542437" stroke="#542437" stroke-width="3" stroke-miterlimit="10" d="M-92.273,305.329l-54.445,52.978
			C-128.426,340.707-110.374,323.089-92.273,305.329z"/>
		<path fill="#542437" stroke="#542437" stroke-width="3" stroke-miterlimit="10" d="M-2.215,218.43
			c2.809-3.116,5.682-6.134,8.592-9.092l-13.654,13.286C-5.344,221.225-3.555,219.829-2.215,218.43z"/>
		<path fill="#542437" stroke="#542437" stroke-width="3" stroke-miterlimit="10" d="M226.717-5.407
			c-45.355,44.354-89.758,86.901-135.932,131.918c-9.535,9.961-19.063,18.614-28.096,28.032L227.07-5.408
			C226.953-5.408,226.836-5.407,226.717-5.407z"/>
		<path fill="#542437" stroke="#542437" stroke-width="3" stroke-miterlimit="10" d="M23.346,192.825
			c5.18-4.932,10.355-9.875,15.414-14.999L23.346,192.825z"/>
		<path fill="#542437" stroke="#542437" stroke-width="3" stroke-miterlimit="10" d="M62.689,154.543l-10.922,10.629
			c1.506-1.05,3.014-2.1,4.018-3.146C58.043,159.45,60.354,156.978,62.689,154.543z"/>
		<path fill="#542437" stroke="#542437" stroke-width="3" stroke-miterlimit="10" d="M47.785,168.292
			c-2.949,3.273-5.967,6.438-9.025,9.534l13.008-12.654C50.273,166.212,48.781,167.251,47.785,168.292z"/>
		<path fill="#542437" stroke="#542437" stroke-width="3" stroke-miterlimit="10" d="M167.281,0
			C133.297,33.068,99.311,66.138,65.326,99.207C31.357,132.258-2.609,165.31-36.576,198.362
			c-34.043,33.125-68.085,66.249-102.128,99.373c-20.735,20.179-41.472,40.356-62.208,60.53"/>
		<path fill="#542437" stroke="#542437" stroke-width="3" stroke-miterlimit="10" d="M-92.063,199.581l-16.054,15.621
			C-102.722,210.063-97.329,204.922-92.063,199.581z"/>
		<path fill="#542437" stroke="#542437" stroke-width="3" stroke-miterlimit="10" d="M-133.215,240.365
			c2.866-3.181,5.799-6.26,8.771-9.276l-12.707,12.365C-135.673,242.423-134.201,241.394-133.215,240.365z"/>
		<path fill="#542437" stroke="#542437" stroke-width="3" stroke-miterlimit="10" d="M-108.117,215.202
			c-5.486,5.228-10.973,10.453-16.326,15.887L-108.117,215.202z"/>
		<path fill="#542437" stroke="#542437" stroke-width="3" stroke-miterlimit="10" d="M-158.709,264.43l-12.2,11.873
			C-166.804,272.378-162.74,268.428-158.709,264.43z"/>
		<path fill="#542437" stroke="#542437" stroke-width="3" stroke-miterlimit="10" d="M21.154,89.417
			c-4.605,4.387-9.199,8.794-13.705,13.335L21.154,89.417z"/>
		<path fill="#542437" stroke="#542437" stroke-width="3" stroke-miterlimit="10" d="M39.604,71.465L21.154,89.417
			C27.354,83.509,33.564,77.622,39.604,71.465z"/>
		<path fill="#542437" stroke="#542437" stroke-width="3" stroke-miterlimit="10" d="M-190.215,295.726
			c0.505-0.527,1.01-1.321,1.515-2.113l-6.854,6.67C-193.857,298.763-192.154,297.245-190.215,295.726z"/>
		<path fill="#542437" stroke="#542437" stroke-width="3" stroke-miterlimit="10" d="M-2.215,112.933
			c3.152-3.5,6.385-6.876,9.664-10.181L-7.449,117.25C-5.449,115.811-3.594,114.37-2.215,112.933z"/>
		<path fill="#542437" stroke="#542437" stroke-width="3" stroke-miterlimit="10" d="M-75.215,183.96
			c2.868-3.14,5.758-6.195,8.661-9.199l-12.712,12.367C-77.749,186.073-76.227,185.017-75.215,183.96z"/>
		<path fill="#542437" stroke="#542437" stroke-width="3" stroke-miterlimit="10" d="M117.596-5.146
			c-8.906,8.595-17.83,17.283-26.811,26.158c-2.203,2.51-4.5,4.92-6.83,7.298l34.383-33.458
			C118.09-5.146,117.844-5.146,117.596-5.146z"/>
		<path fill="#542437" stroke="#542437" stroke-width="3" stroke-miterlimit="10" d="M-92.063,199.581l12.798-12.453
			c-1.482,1.034-2.961,2.067-3.949,3.1C-86.106,193.438-89.064,196.541-92.063,199.581z"/>
		<path fill="#542437" stroke="#542437" stroke-width="3" stroke-miterlimit="10" d="M39.604,71.465l12.004-11.68
			c-1.439,1.003-2.863,2.004-3.822,3.009C45.107,65.765,42.373,68.641,39.604,71.465z"/>
		<path fill="#542437" stroke="#542437" stroke-width="3" stroke-miterlimit="10" d="M-66.554,174.761l59.104-57.511
			c-0.904,0.648-1.834,1.3-2.766,1.948C-29.211,139.038-48.203,155.771-66.554,174.761z"/>
		<path fill="#542437" stroke="#542437" stroke-width="3" stroke-miterlimit="10" d="M-204.215,309.305
			c0.479-0.501,0.96-1.245,1.439-1.995l-6.236,6.069C-207.492,312.02-205.948,310.663-204.215,309.305z"/>
		<path fill="#542437" stroke="#542437" stroke-width="3" stroke-miterlimit="10" d="M51.607,59.785
			c1.559-1.085,3.137-2.174,4.178-3.26c8.797-10.024,18.859-18.727,28.17-28.215L51.607,59.785z"/>
		<path fill="#542437" stroke="#542437" stroke-width="3" stroke-miterlimit="10" d="M-158.709,264.43l21.559-20.976
			c-1.521,1.059-3.051,2.119-4.064,3.179C-147.026,252.702-152.84,258.613-158.709,264.43z"/>
		<path fill="#542437" stroke="#542437" stroke-width="3" stroke-miterlimit="10" d="M-255.104,358.226l46.092-44.847
			c-1.989,1.775-3.937,3.551-6.203,5.327C-228.215,332.285-242.215,343.776-255.104,358.226z"/>
		<path fill="#542437" stroke="#542437" stroke-width="3" stroke-miterlimit="10" d="M-202.775,307.31l7.222-7.027
			c-1.804,1.615-3.601,3.229-5.661,4.845C-201.735,305.669-202.255,306.495-202.775,307.31z"/>
		<path fill="#542437" stroke="#542437" stroke-width="3" stroke-miterlimit="10" d="M-188.7,293.612l17.791-17.31
			c-5.345,5.108-10.763,10.179-16.306,15.245C-187.71,292.064-188.205,292.837-188.7,293.612z"/>
		<path fill="#542437" stroke="#542437" stroke-width="3" stroke-miterlimit="10" d="M-247.408,297.968
			c-21.389,20.691-42.78,41.458-64.194,62.463L-247.408,297.968z"/>
		<path fill="#542437" stroke="#542437" stroke-width="3" stroke-miterlimit="10" d="M-77.536,132.676l38.03-37.007
			c-1.188,0.879-2.447,1.76-3.709,2.639C-54.671,109.876-66.11,121.321-77.536,132.676z"/>
		<path fill="#542437" stroke="#542437" stroke-width="3" stroke-miterlimit="10" d="M-77.536,132.676l-169.872,165.292
			C-190.88,243.284-134.373,189.151-77.536,132.676z"/>
		<path fill="#542437" stroke="#542437" stroke-width="3" stroke-miterlimit="10" d="M-29.867,86.292l21.779-21.193
			C-15.414,72.06-22.801,78.926-29.867,86.292z"/>
		<path fill="#542437" stroke="#542437" stroke-width="3" stroke-miterlimit="10" d="M-35.215,92.04
			c1.756-1.957,3.541-3.867,5.348-5.748l-9.639,9.377C-37.871,94.461-36.373,93.251-35.215,92.04z"/>
		<path fill="#542437" stroke="#542437" stroke-width="3" stroke-miterlimit="10" d="M33.559,24.574L16.82,40.86
			c0.965-0.697,1.963-1.394,2.965-2.092C24.375,33.974,28.967,29.251,33.559,24.574z"/>
		<path fill="#542437" stroke="#542437" stroke-width="3" stroke-miterlimit="10" d="M-8.088,65.099
			c3.736-3.552,7.457-7.128,11.109-10.811L-8.088,65.099z"/>
		<path fill="#542437" stroke="#542437" stroke-width="3" stroke-miterlimit="10" d="M63.303-5.093
			c-9.93,9.732-19.84,19.58-29.744,29.667l30.49-29.667C63.799-5.093,63.551-5.093,63.303-5.093z"/>
		<path fill="#542437" stroke="#542437" stroke-width="3" stroke-miterlimit="10" d="M11.785,45.037
			c-2.857,3.183-5.789,6.252-8.764,9.251L16.82,40.86C14.896,42.252,13.117,43.644,11.785,45.037z"/>
		<path fill="#542437" stroke="#542437" stroke-width="3" stroke-miterlimit="10" d="M9.801-5.081L-365.826,360.42
			c126.081-122.563,250.526-243.299,376-365.501C10.053-5.081,9.926-5.081,9.801-5.081z"/>
		<path fill="#542437" stroke="#542437" stroke-width="3" stroke-miterlimit="10" d="M-44.707-5.16
			c-125.307,121.841-249.666,243.003-375.354,365.582L-44.35-5.16C-44.469-5.16-44.586-5.16-44.707-5.16z"/>
		<path fill="#542437" stroke="#542437" stroke-width="3" stroke-miterlimit="10" d="M-98.458-5.281l-375.817,365.688
			C-348.563,239.099-225.573,118.646-97.682-5.279C-97.941-5.279-98.198-5.279-98.458-5.281z"/>
		<path fill="#542437" stroke="#542437" stroke-width="3" stroke-miterlimit="10" d="M-152.733-5.438
			c-125.287,121.692-250.099,242.912-375.829,365.896L-152.531-5.438C-152.599-5.438-152.666-5.438-152.733-5.438z"/>
		<path fill="#542437" stroke="#542437" stroke-width="3" stroke-miterlimit="10" d="M-209.9-2.387
			c-15.853,14.564-31.853,30.233-47.853,45.901c-4,5.223-9,9.401-14,13.579c-1,1.045-2,3.133-3,4.178c-4,3.134-7,6.269-11,9.401
			c-1,1.045-2,3.134-3,4.178c-12,11.49-23,22.979-35,34.47c-15,13.58-29,27.159-43,41.78c-3,2.091-5,4.181-8,6.268
			c-54,53.271-106,103.412-159.442,155.798"/>
		<path fill="#542437" stroke="#542437" stroke-width="3" stroke-miterlimit="10" d="M-264.158-2.362
			c-48.595,45.877-94.595,92.882-144.595,139.885c-28,28.204-54,53.271-82,81.475c-15,13.578-29,28.203-43.442,41.396"/>
		<path fill="#542437" stroke="#542437" stroke-width="3" stroke-miterlimit="10" d="M-318.331-2.421
			c-59.422,59.515-119.422,115.92-180.422,176.503c-7,6.268-15,12.534-22,19.847c-4,5.223-10,8.355-13.442,13.695"/>
		<path fill="#542437" stroke="#542437" stroke-width="3" stroke-miterlimit="10" d="M-372.715-2.274
			c-37.038,35.343-73.038,69.814-110.038,106.372c-17,17.758-36,32.382-51.442,50.755"/>
		<path fill="#542437" stroke="#542437" stroke-width="3" stroke-miterlimit="10" d="M-426.819-2.4
			c-14.934,14.578-29.934,28.157-44.934,42.781c-6,7.313-13,13.579-20,19.846c-1,1.045-2,3.135-3,4.179c-7,5.223-11,11.49-17,16.713
			c-8,6.267-15,13.579-22.442,20.963"/>
		<path fill="#542437" stroke="#542437" stroke-width="3" stroke-miterlimit="10" d="M-481.02-2.434
			c-17.733,17.746-35.733,34.458-53.176,51.742"/>
	</g>
</g>
</svg>
