<?xml version="1.0" encoding="utf-8"?>
<!-- Generator: Adobe Illustrator 16.0.0, SVG Export Plug-In . SVG Version: 6.00 Build 0)  -->
<!DOCTYPE svg PUBLIC "-//W3C//DTD SVG 1.1//EN" "http://www.w3.org/Graphics/SVG/1.1/DTD/svg11.dtd">
<svg version="1.1" id="Layer_1" xmlns="http://www.w3.org/2000/svg" xmlns:xlink="http://www.w3.org/1999/xlink" x="0px" y="0px"
	 width="79px" height="43px" viewBox="0 0 79 43" enable-background="new 0 0 79 43" xml:space="preserve">
<path fill="#542437" d="M79,34.951C79,39.396,75.412,43,70.987,43H8.013C3.588,43,0,39.396,0,34.951V8.049C0,3.604,3.588,0,8.013,0
	h62.974C75.412,0,79,3.604,79,8.049V34.951z"/>
<g>
	<path fill="#D95B43" d="M6.25,30.102v-17.75h6c1.417,0,2.658,0.233,3.725,0.7c1.066,0.467,1.954,1.1,2.663,1.899
		c0.708,0.801,1.237,1.738,1.587,2.813c0.35,1.075,0.525,2.222,0.525,3.438c0,1.351-0.2,2.572-0.6,3.664s-0.967,2.023-1.7,2.799
		c-0.734,0.775-1.625,1.375-2.675,1.801c-1.05,0.424-2.225,0.637-3.525,0.637H6.25z M19,21.202c0-1.066-0.15-2.045-0.45-2.938
		c-0.3-0.891-0.737-1.662-1.313-2.313c-0.575-0.649-1.279-1.153-2.112-1.512c-0.833-0.358-1.792-0.538-2.875-0.538H7.975v14.651
		h4.275c1.1,0,2.071-0.188,2.913-0.563c0.841-0.375,1.545-0.893,2.112-1.551c0.566-0.658,0.996-1.434,1.288-2.324
		C18.854,23.223,19,22.252,19,21.202z"/>
	<path fill="#D95B43" d="M31.4,30.227c-1.234,0-2.363-0.254-3.388-0.762s-1.904-1.184-2.638-2.025s-1.3-1.805-1.7-2.887
		c-0.4-1.084-0.6-2.191-0.6-3.326c0-1.184,0.212-2.316,0.638-3.4c0.425-1.083,1.012-2.041,1.762-2.875
		c0.75-0.833,1.633-1.495,2.65-1.987c1.017-0.491,2.117-0.737,3.3-0.737c1.233,0,2.362,0.263,3.387,0.787
		c1.025,0.525,1.9,1.213,2.625,2.063c0.725,0.851,1.288,1.813,1.688,2.888c0.4,1.075,0.6,2.171,0.6,3.288
		c0,1.183-0.212,2.316-0.637,3.4c-0.425,1.084-1.009,2.037-1.75,2.861c-0.742,0.826-1.621,1.484-2.638,1.977
		C33.683,29.98,32.583,30.227,31.4,30.227z M24.825,21.227c0,0.966,0.158,1.896,0.475,2.787c0.316,0.893,0.766,1.684,1.35,2.375
		c0.583,0.693,1.275,1.242,2.075,1.65c0.8,0.408,1.691,0.613,2.675,0.613c1,0,1.908-0.217,2.725-0.65s1.508-1,2.075-1.699
		c0.566-0.701,1.004-1.492,1.313-2.375c0.308-0.885,0.462-1.783,0.462-2.701c0-0.967-0.163-1.896-0.487-2.787
		c-0.325-0.892-0.779-1.68-1.363-2.363c-0.583-0.683-1.275-1.229-2.075-1.637c-0.8-0.408-1.684-0.613-2.65-0.613
		c-1,0-1.909,0.213-2.725,0.638c-0.817,0.425-1.509,0.987-2.075,1.688c-0.567,0.7-1.004,1.492-1.313,2.375
		C24.979,19.411,24.825,20.311,24.825,21.227z"/>
	<path fill="#D95B43" d="M44.824,15.602v14.5H43.1v-17.75h1.35l11.75,14.775v-14.75h1.726v17.724h-1.5L44.824,15.602z"/>
	<path fill="#D95B43" d="M74.35,28.553v1.549H62.424v-17.75h11.701v1.55h-9.976v6.4h8.7v1.475h-8.7v6.776H74.35z"/>
</g>
</svg>
