<?xml version="1.0" encoding="utf-8"?>
<!-- Generator: Adobe Illustrator 16.0.0, SVG Export Plug-In . SVG Version: 6.00 Build 0)  -->
<!DOCTYPE svg PUBLIC "-//W3C//DTD SVG 1.1//EN" "http://www.w3.org/Graphics/SVG/1.1/DTD/svg11.dtd">
<svg version="1.1" id="Layer_1" xmlns="http://www.w3.org/2000/svg" xmlns:xlink="http://www.w3.org/1999/xlink" x="0px" y="0px"
	 width="18px" height="11px" viewBox="0 0 18 11" enable-background="new 0 0 18 11" xml:space="preserve">
<g>
	<g>
		<path fill="#542437" d="M12.07,6.611l-2.799,2.83c-0.117,0.115-0.32,0.117-0.436,0L6.064,6.65l-5.549,4.047
			c0.064,0.031,0.137,0.053,0.213,0.053H17.27c0.078,0,0.15-0.021,0.217-0.055L12.07,6.611z"/>
		<path fill="#542437" d="M17.902,10.35c0.01-0.037,0.018-0.078,0.018-0.119V0.834l-5.402,5.456L17.902,10.35z"/>
		<path fill="#542437" d="M5.617,6.376L0.08,0.801v9.476c0,0.043,0.006,0.086,0.018,0.125L5.617,6.376z"/>
	</g>
	<path fill="#542437" d="M9.223,8.758l8.396-8.485L0.379,0.25l8.445,8.505C8.932,8.865,9.115,8.865,9.223,8.758z"/>
</g>
</svg>
