<?xml version="1.0" encoding="utf-8"?>
<!-- Generator: Adobe Illustrator 16.0.0, SVG Export Plug-In . SVG Version: 6.00 Build 0)  -->
<!DOCTYPE svg PUBLIC "-//W3C//DTD SVG 1.1//EN" "http://www.w3.org/Graphics/SVG/1.1/DTD/svg11.dtd">
<svg version="1.1" id="Layer_1" xmlns="http://www.w3.org/2000/svg" xmlns:xlink="http://www.w3.org/1999/xlink" x="0px" y="0px"
	 width="33.102px" height="29.525px" viewBox="0 0 33.102 29.525" enable-background="new 0 0 33.102 29.525" xml:space="preserve">
<g>
	<g>
		<path fill="#ECD078" d="M22.251,17.348l-5.197,5.25c-0.215,0.218-0.59,0.219-0.807,0l-5.142-5.179L0.812,24.93
			c0.119,0.059,0.25,0.097,0.393,0.097h30.694c0.145,0,0.279-0.038,0.398-0.101L22.251,17.348z"/>
		<path fill="#ECD078" d="M33.07,24.288c0.018-0.072,0.031-0.146,0.031-0.225V6.631L23.08,16.755L33.07,24.288z"/>
		<path fill="#ECD078" d="M10.274,16.914L0,6.568v17.584c0,0.081,0.015,0.157,0.035,0.232L10.274,16.914z"/>
	</g>
	<path fill="#ECD078" d="M16.964,21.331L32.546,5.59L0.555,5.548L16.226,21.33C16.425,21.53,16.767,21.53,16.964,21.331z"/>
</g>
</svg>
