<?xml version="1.0" encoding="utf-8"?>
<!-- Generator: Adobe Illustrator 16.0.0, SVG Export Plug-In . SVG Version: 6.00 Build 0)  -->
<!DOCTYPE svg PUBLIC "-//W3C//DTD SVG 1.1//EN" "http://www.w3.org/Graphics/SVG/1.1/DTD/svg11.dtd">
<svg version="1.1" id="Layer_1" xmlns="http://www.w3.org/2000/svg" xmlns:xlink="http://www.w3.org/1999/xlink" x="0px" y="0px"
	 width="258px" height="71px" viewBox="-34 -18.5 258 71" enable-background="new -34 -18.5 258 71" xml:space="preserve">
<path fill="#ECD078" d="M224,38.809c0,7.008-5.5,12.691-12.285,12.691H-21.714C-28.5,51.5-34,45.816-34,38.809V-4.809
	c0-7.008,5.5-12.691,12.286-12.691h233.429C218.5-17.5,224-11.817,224-4.809V38.809z"/>
<g>
	<path fill="#542437" d="M57.622,26.545v2.893h-16.87V3.771h16.555v2.892H43.901v8.314h11.655v2.71H43.901v8.857H57.622z"/>
	<path fill="#542437" d="M65.251,9.844v19.593h-3.15V3.771h2.45l15.4,19.989V3.807h3.15v25.631h-2.66L65.251,9.844z"/>
	<path fill="#542437" d="M107.006,6.663h-8.575v22.775h-3.15V6.663h-8.575V3.771h20.3V6.663z"/>
	<path fill="#542437" d="M127.48,26.545v2.893h-16.869V3.771h16.555v2.892H113.76v8.314h11.656v2.71H113.76v8.857H127.48z"/>
	<path fill="#542437" d="M131.961,29.438V3.771H142.6c1.098,0,2.105,0.235,3.027,0.705s1.715,1.097,2.381,1.879
		c0.664,0.784,1.184,1.664,1.557,2.639c0.373,0.976,0.561,1.971,0.561,2.983c0,0.892-0.123,1.753-0.367,2.584
		c-0.246,0.832-0.596,1.585-1.051,2.26s-1.004,1.253-1.645,1.736c-0.643,0.48-1.359,0.83-2.152,1.047l6.02,9.834h-3.57l-5.67-9.219
		h-6.58v9.219H131.961z M135.109,17.327h7.525c0.652,0,1.242-0.145,1.768-0.434s0.975-0.681,1.348-1.176
		c0.373-0.492,0.666-1.065,0.875-1.716c0.211-0.651,0.314-1.325,0.314-2.024c0-0.723-0.121-1.404-0.367-2.043
		c-0.244-0.639-0.572-1.205-0.98-1.699c-0.408-0.494-0.887-0.879-1.434-1.157c-0.549-0.277-1.127-0.416-1.732-0.416h-7.316V17.327z"
		/>
</g>
</svg>
