<?xml version="1.0" encoding="utf-8"?>
<!-- Generator: Adobe Illustrator 16.0.0, SVG Export Plug-In . SVG Version: 6.00 Build 0)  -->
<!DOCTYPE svg PUBLIC "-//W3C//DTD SVG 1.1//EN" "http://www.w3.org/Graphics/SVG/1.1/DTD/svg11.dtd">
<svg version="1.1" id="Layer_1" xmlns="http://www.w3.org/2000/svg" xmlns:xlink="http://www.w3.org/1999/xlink" x="0px" y="0px"
	 width="120px" height="121px" viewBox="0 0 120 121" enable-background="new 0 0 120 121" xml:space="preserve">
<g>
	<path fill="#542437" d="M-31.168,112.15c0,3.09-2.152,5.594-4.804,5.594h-110.393c-2.651,0-4.804-2.504-4.804-5.594V2.334
		c0-3.087,2.152-5.591,4.804-5.591h110.393c2.651,0,4.804,2.504,4.804,5.591V112.15z"/>
	<g>
		<path fill="#ECD078" d="M-101.122,71.811c-0.32-0.361-0.75-0.654-1.288-0.877c-0.539-0.223-1.145-0.336-1.816-0.336
			c-1.015,0-1.75,0.189-2.209,0.566c-0.459,0.379-0.688,0.891-0.688,1.539c0,0.342,0.061,0.619,0.184,0.838
			c0.123,0.217,0.314,0.406,0.576,0.566c0.261,0.158,0.592,0.297,0.992,0.414c0.399,0.117,0.873,0.234,1.417,0.35
			c0.607,0.129,1.151,0.27,1.632,0.424c0.479,0.154,0.891,0.35,1.231,0.59c0.342,0.238,0.603,0.531,0.784,0.877
			s0.272,0.773,0.272,1.283c0,0.521-0.102,0.973-0.304,1.355c-0.203,0.383-0.486,0.701-0.849,0.957
			c-0.362,0.254-0.795,0.443-1.296,0.566c-0.501,0.121-1.046,0.182-1.632,0.182c-1.782,0-3.303-0.547-4.562-1.641l0.544-0.91
			c0.416,0.438,0.977,0.805,1.681,1.109c0.704,0.303,1.488,0.453,2.353,0.453c0.907,0,1.616-0.162,2.128-0.486
			c0.513-0.322,0.769-0.814,0.769-1.475c0-0.35-0.072-0.645-0.216-0.885c-0.145-0.238-0.36-0.447-0.648-0.621
			c-0.288-0.176-0.648-0.328-1.08-0.455s-0.931-0.256-1.496-0.383c-0.599-0.139-1.121-0.281-1.568-0.432
			c-0.448-0.146-0.824-0.334-1.128-0.557c-0.305-0.223-0.534-0.492-0.688-0.805c-0.154-0.314-0.232-0.699-0.232-1.156
			c0-0.521,0.099-0.986,0.297-1.396c0.197-0.408,0.474-0.748,0.831-1.02s0.784-0.479,1.28-0.621
			c0.496-0.145,1.043-0.217,1.642-0.217c0.746,0,1.416,0.115,2.008,0.344s1.128,0.549,1.607,0.965L-101.122,71.811z"/>
		<path fill="#ECD078" d="M-96.081,81.17c-0.427,0-0.816-0.066-1.168-0.199s-0.653-0.316-0.904-0.549
			c-0.25-0.234-0.445-0.506-0.584-0.814c-0.139-0.307-0.208-0.633-0.208-0.973c0-0.383,0.086-0.73,0.256-1.043
			c0.171-0.314,0.411-0.582,0.721-0.807c0.309-0.223,0.68-0.396,1.111-0.518c0.433-0.123,0.909-0.184,1.433-0.184
			c0.416,0,0.842,0.037,1.279,0.111c0.438,0.074,0.828,0.182,1.17,0.318v-0.748c0-0.734-0.211-1.316-0.633-1.746
			c-0.422-0.432-0.99-0.646-1.705-0.646c-0.447,0-0.893,0.086-1.336,0.256c-0.442,0.17-0.894,0.414-1.352,0.732l-0.384-0.717
			c0.544-0.361,1.071-0.633,1.584-0.814c0.512-0.18,1.045-0.271,1.6-0.271c1.014,0,1.819,0.293,2.417,0.879
			c0.598,0.584,0.896,1.393,0.896,2.424v3.746c0,0.297,0.128,0.447,0.384,0.447v0.957c-0.086,0.01-0.166,0.018-0.24,0.023
			s-0.139,0.008-0.192,0.008c-0.213,0-0.407-0.064-0.584-0.191c-0.176-0.127-0.274-0.32-0.296-0.574l-0.031-0.654
			c-0.363,0.49-0.841,0.869-1.434,1.141C-94.873,81.035-95.472,81.17-96.081,81.17z M-95.808,80.342
			c0.479,0,0.957-0.105,1.432-0.313s0.852-0.49,1.129-0.852c0.074-0.096,0.139-0.199,0.192-0.313c0.053-0.109,0.08-0.215,0.08-0.311
			v-1.355c-0.363-0.139-0.742-0.244-1.138-0.318c-0.395-0.074-0.778-0.111-1.151-0.111c-0.779,0-1.411,0.156-1.896,0.471
			c-0.485,0.313-0.728,0.746-0.728,1.299c0,0.225,0.042,0.441,0.128,0.654c0.085,0.213,0.216,0.404,0.392,0.574
			s0.393,0.309,0.648,0.414S-96.161,80.342-95.808,80.342z"/>
		<path fill="#ECD078" d="M-87.311,81.012l-3.393-8.309h1.136l2.865,7.303l2.88-7.303h1.057l-3.393,8.309H-87.311z"/>
		<path fill="#ECD078" d="M-77.677,81.17c-0.608,0-1.168-0.115-1.681-0.342c-0.512-0.229-0.954-0.543-1.328-0.941
			c-0.373-0.398-0.664-0.857-0.872-1.379s-0.312-1.08-0.312-1.676c0-0.584,0.104-1.133,0.312-1.648s0.499-0.969,0.872-1.355
			c0.374-0.389,0.813-0.697,1.32-0.926s1.064-0.344,1.672-0.344c0.609,0,1.166,0.115,1.673,0.344s0.941,0.539,1.305,0.934
			c0.362,0.393,0.645,0.846,0.848,1.355c0.202,0.51,0.304,1.051,0.304,1.625c0,0.086-0.003,0.172-0.008,0.256
			c-0.006,0.086-0.014,0.145-0.023,0.176h-7.121c0.031,0.445,0.136,0.859,0.312,1.234c0.176,0.379,0.4,0.705,0.672,0.982
			c0.272,0.275,0.587,0.49,0.944,0.645s0.738,0.232,1.144,0.232c0.278,0,0.551-0.037,0.817-0.113
			c0.267-0.072,0.512-0.174,0.736-0.303c0.224-0.127,0.424-0.283,0.6-0.469s0.312-0.393,0.408-0.615l0.943,0.256
			c-0.128,0.309-0.309,0.588-0.544,0.836c-0.234,0.252-0.507,0.469-0.815,0.654c-0.31,0.186-0.651,0.33-1.024,0.432
			C-76.898,81.119-77.282,81.17-77.677,81.17z M-74.605,76.418c-0.031-0.445-0.136-0.852-0.312-1.219s-0.4-0.684-0.672-0.949
			c-0.272-0.266-0.59-0.473-0.952-0.621c-0.363-0.15-0.747-0.225-1.153-0.225c-0.405,0-0.789,0.074-1.151,0.225
			c-0.363,0.148-0.681,0.355-0.952,0.621c-0.272,0.266-0.491,0.584-0.656,0.957c-0.166,0.373-0.264,0.775-0.296,1.211H-74.605z"/>
		<path fill="#ECD078" d="M-108.858,100.305c-0.704,0-1.328-0.178-1.873-0.533c-0.544-0.357-0.981-0.807-1.313-1.348v5.117h-1.088
			V91.838h0.976v1.611c0.342-0.521,0.784-0.943,1.328-1.27c0.545-0.324,1.138-0.486,1.777-0.486c0.576,0,1.106,0.119,1.592,0.359
			s0.904,0.559,1.256,0.957c0.353,0.398,0.627,0.857,0.824,1.379s0.296,1.059,0.296,1.611c0,0.584-0.091,1.137-0.271,1.658
			c-0.182,0.52-0.44,0.979-0.776,1.371s-0.736,0.705-1.2,0.934C-107.794,100.189-108.304,100.305-108.858,100.305z M-109.163,99.348
			c0.448,0,0.854-0.096,1.216-0.287c0.363-0.191,0.675-0.443,0.937-0.756c0.261-0.314,0.461-0.67,0.6-1.07
			c0.139-0.398,0.208-0.811,0.208-1.234c0-0.447-0.08-0.871-0.239-1.277c-0.16-0.402-0.379-0.758-0.656-1.066
			s-0.605-0.553-0.984-0.734s-0.786-0.27-1.224-0.27c-0.277,0-0.565,0.055-0.864,0.166c-0.3,0.111-0.582,0.26-0.849,0.445
			c-0.267,0.188-0.494,0.406-0.681,0.654c-0.187,0.25-0.301,0.514-0.344,0.789v2.551c0.128,0.299,0.291,0.574,0.488,0.83
			s0.421,0.477,0.672,0.662c0.25,0.186,0.522,0.332,0.817,0.439C-109.773,99.295-109.472,99.348-109.163,99.348z"/>
		<path fill="#ECD078" d="M-99.128,92.795c-0.737,0.021-1.377,0.223-1.921,0.605s-0.928,0.908-1.152,1.578v5.166h-1.088v-8.307
			h1.024v1.992c0.288-0.584,0.666-1.07,1.136-1.457c0.469-0.389,0.976-0.582,1.52-0.582c0.097,0,0.187,0,0.272,0
			s0.155,0.004,0.209,0.016V92.795z"/>
		<path fill="#ECD078" d="M-94.457,100.305c-0.607,0-1.165-0.115-1.672-0.342c-0.507-0.229-0.943-0.541-1.312-0.934
			s-0.653-0.852-0.856-1.371c-0.202-0.521-0.304-1.068-0.304-1.643c0-0.584,0.104-1.137,0.312-1.658s0.496-0.979,0.864-1.371
			s0.806-0.707,1.313-0.941c0.506-0.234,1.059-0.352,1.655-0.352c0.598,0,1.15,0.117,1.657,0.352s0.944,0.549,1.313,0.941
			c0.367,0.393,0.655,0.85,0.863,1.371s0.313,1.074,0.313,1.658c0,0.574-0.104,1.121-0.313,1.643
			c-0.208,0.52-0.496,0.979-0.863,1.371c-0.368,0.393-0.806,0.705-1.313,0.934C-93.306,100.189-93.859,100.305-94.457,100.305z
			 M-97.48,96.031c0,0.469,0.077,0.902,0.231,1.299c0.155,0.4,0.368,0.75,0.641,1.053c0.271,0.303,0.592,0.541,0.96,0.711
			s0.76,0.254,1.176,0.254s0.809-0.088,1.177-0.264c0.368-0.174,0.69-0.414,0.969-0.717c0.276-0.303,0.495-0.656,0.655-1.061
			c0.16-0.402,0.24-0.84,0.24-1.307c0-0.457-0.08-0.891-0.24-1.301c-0.16-0.408-0.379-0.766-0.655-1.068
			c-0.278-0.303-0.598-0.541-0.961-0.717c-0.362-0.176-0.753-0.262-1.169-0.262s-0.808,0.086-1.176,0.262s-0.688,0.418-0.96,0.725
			c-0.271,0.309-0.488,0.668-0.647,1.076C-97.4,95.125-97.48,95.563-97.48,96.031z"/>
		<path fill="#ECD078" d="M-88.086,93.672h-1.153v-0.861h1.153v-1.195c0-0.383,0.056-0.771,0.168-1.164s0.288-0.744,0.527-1.053
			c0.24-0.309,0.547-0.561,0.921-0.758c0.373-0.195,0.815-0.295,1.327-0.295c0.598,0,1.104,0.092,1.521,0.271
			s0.716,0.34,0.896,0.479l-0.496,0.781c-0.182-0.16-0.438-0.295-0.769-0.406c-0.331-0.113-0.693-0.168-1.088-0.168
			c-0.342,0-0.632,0.068-0.872,0.207s-0.438,0.314-0.592,0.527c-0.155,0.211-0.27,0.455-0.344,0.732
			c-0.075,0.275-0.112,0.547-0.112,0.813v1.229h4.177v7.334h-1.089v-6.473h-3.088v6.473h-1.088V93.672z"/>
		<path fill="#ECD078" d="M-80.438,88.506h1.088v9.758c0,0.309,0.086,0.551,0.256,0.725c0.171,0.176,0.411,0.264,0.721,0.264
			c0.117,0,0.256-0.016,0.416-0.047s0.309-0.074,0.448-0.129l0.192,0.877c-0.204,0.086-0.452,0.154-0.745,0.207
			c-0.293,0.055-0.547,0.08-0.76,0.08c-0.502,0-0.896-0.141-1.184-0.422c-0.288-0.281-0.433-0.678-0.433-1.188V88.506z"/>
		<path fill="#ECD078" d="M-72.613,100.305c-0.608,0-1.168-0.115-1.681-0.342c-0.512-0.229-0.954-0.543-1.328-0.941
			c-0.373-0.398-0.664-0.859-0.872-1.379c-0.208-0.521-0.312-1.08-0.312-1.676c0-0.584,0.104-1.133,0.312-1.648
			c0.208-0.518,0.499-0.969,0.872-1.357c0.374-0.387,0.813-0.695,1.32-0.924s1.064-0.344,1.672-0.344
			c0.609,0,1.166,0.115,1.673,0.344s0.941,0.539,1.305,0.932c0.362,0.395,0.645,0.846,0.848,1.357
			c0.202,0.51,0.304,1.051,0.304,1.625c0,0.086-0.003,0.17-0.008,0.256c-0.006,0.086-0.014,0.145-0.023,0.174h-7.121
			c0.031,0.447,0.136,0.859,0.312,1.236c0.176,0.379,0.4,0.705,0.672,0.982c0.272,0.275,0.587,0.49,0.944,0.645
			s0.738,0.232,1.144,0.232c0.277,0,0.551-0.037,0.817-0.113c0.267-0.074,0.512-0.174,0.736-0.303
			c0.224-0.127,0.424-0.283,0.6-0.469c0.176-0.188,0.312-0.393,0.408-0.615l0.943,0.256c-0.128,0.309-0.309,0.588-0.544,0.836
			c-0.234,0.25-0.507,0.469-0.815,0.654c-0.31,0.186-0.651,0.33-1.024,0.43C-71.833,100.254-72.218,100.305-72.613,100.305z
			 M-69.541,95.553c-0.031-0.445-0.136-0.854-0.312-1.219c-0.176-0.367-0.4-0.684-0.672-0.949c-0.272-0.266-0.59-0.473-0.952-0.623
			c-0.363-0.148-0.748-0.223-1.153-0.223s-0.789,0.074-1.151,0.223c-0.363,0.15-0.681,0.357-0.952,0.623
			c-0.272,0.266-0.491,0.584-0.656,0.957c-0.166,0.371-0.264,0.775-0.296,1.211H-69.541z"/>
	</g>
	<g>
		<path fill="#ECD078" d="M-111.152,35.204c-4.348,0-8.296,1.98-11.24,5.209c-3.213,3.527-5.226,8.543-5.226,14.115h5.226h10.023
			c1.65-6.762,5.548-12.423,10.684-15.807C-104.363,36.508-107.627,35.204-111.152,35.204z"/>
		<ellipse fill="#ECD078" cx="-111.152" cy="26.441" rx="7.541" ry="7.514"/>
		<path fill="#ECD078" d="M-60.316,39.478c-2.899-2.994-6.703-4.813-10.867-4.813c-3.489,0-6.719,1.276-9.379,3.446
			c5.481,3.203,9.703,8.931,11.535,15.877h8.711h5.599C-54.717,48.207-56.886,43.02-60.316,39.478z"/>
		<ellipse fill="#ECD078" cx="-90.63" cy="23.286" rx="10.104" ry="10.069"/>
		<path fill="#ECD078" d="M-70.148,53.987c-1.83-6.675-5.952-12.152-11.268-15.131c-2.796-1.567-5.919-2.444-9.215-2.444
			c-3.698,0-7.177,1.105-10.219,3.047c-4.97,3.17-8.759,8.578-10.404,15.069c-0.539,2.13-0.854,4.374-0.895,6.696h43.033
			C-69.16,58.705-69.521,56.277-70.148,53.987z"/>
		<ellipse fill="#ECD078" cx="-71.183" cy="25.902" rx="7.54" ry="7.515"/>
	</g>
</g>
<g>
	<path fill="#D95B43" d="M120,115.41c0,3.089-2.152,5.59-4.806,5.59H4.806C2.152,121,0,118.499,0,115.41V5.591
		C0,2.504,2.152,0,4.806,0h110.389C117.848,0,120,2.504,120,5.591V115.41z"/>
	<g>
		<path fill="#542437" d="M13.127,83.279v0.988H5.494V72.946h7.489v0.988H6.598v4.082h5.569v0.941H6.598v4.321H13.127z"/>
		<path fill="#542437" d="M15.239,75.96l2.497,3.253l0.128,0.239l0.144-0.239l2.48-3.253h1.168l-3.185,4.178l3.185,4.13h-1.168
			l-2.48-3.237l-0.144-0.223l-0.128,0.223l-2.48,3.237h-1.185l3.185-4.13l-3.185-4.178H15.239z"/>
		<path fill="#542437" d="M23.032,74.222v-1.595h1.089v1.595H23.032z M23.032,84.268V75.96h1.089v8.308H23.032z"/>
		<path fill="#542437" d="M30.49,83.869c-0.064,0.031-0.158,0.074-0.28,0.127c-0.123,0.054-0.264,0.106-0.424,0.16
			c-0.16,0.053-0.342,0.101-0.544,0.144c-0.203,0.042-0.417,0.063-0.641,0.063c-0.234,0-0.459-0.032-0.672-0.096
			c-0.214-0.063-0.4-0.162-0.561-0.295s-0.288-0.3-0.384-0.502s-0.144-0.437-0.144-0.702v-5.947h-1.152V75.96h1.152v-2.807h1.088
			v2.807h1.92v0.861h-1.92v5.645c0.021,0.309,0.128,0.534,0.32,0.678c0.191,0.144,0.421,0.215,0.688,0.215
			c0.31,0,0.581-0.05,0.816-0.151c0.234-0.101,0.384-0.173,0.448-0.215L30.49,83.869z"/>
		<path fill="#542437" d="M39.899,83.869c-0.064,0.031-0.158,0.074-0.28,0.127c-0.123,0.054-0.264,0.106-0.424,0.16
			c-0.16,0.053-0.342,0.101-0.544,0.144c-0.203,0.042-0.417,0.063-0.641,0.063c-0.234,0-0.459-0.032-0.672-0.096
			c-0.214-0.063-0.4-0.162-0.561-0.295s-0.288-0.3-0.384-0.502s-0.144-0.437-0.144-0.702v-5.947h-1.152V75.96h1.152v-2.807h1.088
			v2.807h1.92v0.861h-1.92v5.645c0.021,0.309,0.128,0.534,0.32,0.678c0.191,0.144,0.421,0.215,0.688,0.215
			c0.31,0,0.581-0.05,0.816-0.151c0.234-0.101,0.384-0.173,0.448-0.215L39.899,83.869z"/>
		<path fill="#542437" d="M48.188,84.268H47.1v-4.64c0-0.946-0.162-1.653-0.487-2.121c-0.326-0.468-0.804-0.702-1.433-0.702
			c-0.31,0-0.616,0.062-0.92,0.184c-0.305,0.122-0.59,0.29-0.856,0.503c-0.267,0.212-0.499,0.462-0.696,0.749
			s-0.344,0.601-0.439,0.94v5.087h-1.089V72.627h1.089v5.215c0.341-0.627,0.805-1.122,1.392-1.483s1.217-0.542,1.889-0.542
			c0.479,0,0.888,0.088,1.224,0.264c0.336,0.175,0.608,0.42,0.816,0.733s0.36,0.69,0.456,1.132s0.145,0.928,0.145,1.459V84.268z"/>
		<path fill="#542437" d="M50.444,74.222v-1.595h1.089v1.595H50.444z M50.444,84.268V75.96h1.089v8.308H50.444z"/>
		<path fill="#542437" d="M56.669,84.427c-0.651,0-1.286-0.106-1.904-0.318c-0.619-0.213-1.152-0.521-1.601-0.925l0.496-0.733
			c0.47,0.382,0.947,0.669,1.433,0.86s1.005,0.287,1.561,0.287c0.672,0,1.208-0.136,1.607-0.406c0.4-0.271,0.601-0.656,0.601-1.156
			c0-0.233-0.054-0.428-0.16-0.582s-0.264-0.289-0.472-0.406s-0.47-0.221-0.784-0.312c-0.315-0.09-0.681-0.183-1.097-0.278
			c-0.479-0.117-0.896-0.234-1.248-0.352c-0.353-0.116-0.643-0.249-0.872-0.398c-0.229-0.148-0.4-0.332-0.512-0.55
			c-0.112-0.218-0.169-0.492-0.169-0.821c0-0.415,0.083-0.781,0.248-1.101c0.166-0.318,0.39-0.582,0.673-0.789
			c0.282-0.207,0.613-0.364,0.992-0.471c0.378-0.105,0.781-0.159,1.208-0.159c0.64,0,1.222,0.104,1.744,0.311
			c0.522,0.208,0.944,0.481,1.265,0.821l-0.528,0.639c-0.31-0.319-0.686-0.559-1.128-0.718c-0.443-0.16-0.904-0.239-1.385-0.239
			c-0.288,0-0.555,0.029-0.8,0.088c-0.246,0.059-0.462,0.151-0.648,0.278c-0.187,0.128-0.333,0.29-0.44,0.486
			c-0.106,0.197-0.159,0.429-0.159,0.694c0,0.223,0.037,0.403,0.111,0.542c0.075,0.138,0.197,0.258,0.368,0.358
			c0.171,0.102,0.387,0.191,0.648,0.271c0.261,0.079,0.578,0.162,0.952,0.247c0.533,0.127,1.003,0.255,1.408,0.383
			c0.405,0.127,0.744,0.276,1.016,0.446c0.272,0.17,0.478,0.377,0.616,0.622c0.139,0.244,0.208,0.542,0.208,0.893
			c0,0.766-0.293,1.371-0.88,1.818C58.45,84.204,57.661,84.427,56.669,84.427z"/>
		<path fill="#542437" d="M70.031,84.427c-0.704,0-1.328-0.178-1.872-0.534c-0.544-0.355-0.981-0.805-1.312-1.347v5.118h-1.089
			V75.96h0.977v1.61c0.341-0.521,0.784-0.943,1.328-1.268s1.136-0.486,1.776-0.486c0.576,0,1.106,0.12,1.592,0.358
			c0.485,0.239,0.904,0.559,1.257,0.957c0.352,0.398,0.626,0.858,0.824,1.38c0.197,0.521,0.296,1.058,0.296,1.61
			c0,0.584-0.091,1.138-0.272,1.658s-0.439,0.978-0.776,1.371c-0.336,0.394-0.735,0.704-1.2,0.933
			C71.096,84.313,70.586,84.427,70.031,84.427z M69.728,83.471c0.448,0,0.854-0.096,1.217-0.287
			c0.362-0.191,0.674-0.444,0.936-0.758s0.462-0.67,0.601-1.068c0.138-0.398,0.208-0.811,0.208-1.235c0-0.446-0.08-0.872-0.24-1.276
			c-0.16-0.403-0.379-0.76-0.656-1.068c-0.277-0.308-0.605-0.552-0.984-0.733c-0.379-0.181-0.787-0.271-1.224-0.271
			c-0.278,0-0.566,0.056-0.864,0.167c-0.299,0.112-0.582,0.261-0.849,0.446c-0.267,0.187-0.493,0.404-0.68,0.654
			s-0.302,0.513-0.344,0.789v2.552c0.128,0.297,0.29,0.573,0.487,0.829c0.197,0.255,0.422,0.476,0.673,0.661
			c0.25,0.187,0.522,0.333,0.815,0.438C69.117,83.417,69.418,83.471,69.728,83.471z"/>
		<path fill="#542437" d="M79.248,84.427c-0.607,0-1.168-0.114-1.68-0.343c-0.513-0.229-0.955-0.542-1.328-0.94
			c-0.374-0.398-0.664-0.858-0.872-1.38c-0.208-0.521-0.313-1.078-0.313-1.674c0-0.584,0.104-1.135,0.313-1.65
			s0.498-0.967,0.872-1.355c0.373-0.388,0.813-0.696,1.32-0.925c0.506-0.229,1.063-0.343,1.672-0.343s1.165,0.114,1.672,0.343
			s0.941,0.54,1.305,0.933c0.362,0.394,0.646,0.846,0.848,1.355c0.203,0.511,0.305,1.053,0.305,1.627
			c0,0.085-0.003,0.17-0.008,0.255c-0.006,0.085-0.014,0.144-0.024,0.176h-7.121c0.032,0.446,0.136,0.858,0.312,1.235
			c0.177,0.378,0.4,0.704,0.673,0.98c0.271,0.276,0.586,0.492,0.944,0.646c0.356,0.154,0.738,0.231,1.144,0.231
			c0.277,0,0.55-0.037,0.816-0.111s0.512-0.176,0.736-0.303c0.224-0.128,0.424-0.284,0.6-0.471c0.176-0.186,0.313-0.391,0.408-0.614
			l0.944,0.256c-0.128,0.308-0.31,0.587-0.544,0.837c-0.235,0.25-0.507,0.468-0.816,0.653c-0.31,0.187-0.651,0.33-1.024,0.431
			S79.643,84.427,79.248,84.427z M82.321,79.676c-0.032-0.447-0.137-0.854-0.313-1.221c-0.176-0.366-0.4-0.683-0.672-0.948
			c-0.272-0.266-0.59-0.473-0.952-0.622c-0.363-0.148-0.747-0.224-1.152-0.224s-0.79,0.075-1.152,0.224
			c-0.362,0.149-0.68,0.356-0.952,0.622c-0.271,0.266-0.49,0.585-0.656,0.957c-0.165,0.372-0.264,0.775-0.296,1.212H82.321z"/>
		<path fill="#542437" d="M89.154,76.917c-0.736,0.021-1.376,0.223-1.921,0.605c-0.544,0.383-0.928,0.909-1.151,1.579v5.166h-1.089
			V75.96h1.024v1.993c0.288-0.584,0.667-1.07,1.136-1.459c0.47-0.388,0.977-0.582,1.521-0.582c0.096,0,0.187,0,0.272,0
			c0.085,0,0.154,0.006,0.208,0.016V76.917z"/>
		<path fill="#542437" d="M93.331,84.427c-0.651,0-1.286-0.106-1.904-0.318c-0.619-0.213-1.152-0.521-1.601-0.925l0.496-0.733
			c0.47,0.382,0.947,0.669,1.433,0.86s1.005,0.287,1.561,0.287c0.672,0,1.208-0.136,1.607-0.406c0.4-0.271,0.601-0.656,0.601-1.156
			c0-0.233-0.054-0.428-0.16-0.582s-0.264-0.289-0.472-0.406s-0.47-0.221-0.784-0.312c-0.315-0.09-0.681-0.183-1.097-0.278
			c-0.479-0.117-0.896-0.234-1.248-0.352c-0.353-0.116-0.643-0.249-0.872-0.398c-0.229-0.148-0.4-0.332-0.512-0.55
			c-0.112-0.218-0.169-0.492-0.169-0.821c0-0.415,0.083-0.781,0.248-1.101c0.166-0.318,0.39-0.582,0.673-0.789
			c0.282-0.207,0.613-0.364,0.992-0.471c0.378-0.105,0.781-0.159,1.208-0.159c0.64,0,1.222,0.104,1.744,0.311
			c0.522,0.208,0.944,0.481,1.265,0.821l-0.528,0.639c-0.31-0.319-0.686-0.559-1.128-0.718c-0.443-0.16-0.904-0.239-1.385-0.239
			c-0.288,0-0.555,0.029-0.8,0.088c-0.246,0.059-0.462,0.151-0.648,0.278c-0.187,0.128-0.333,0.29-0.44,0.486
			c-0.106,0.197-0.159,0.429-0.159,0.694c0,0.223,0.037,0.403,0.111,0.542c0.075,0.138,0.197,0.258,0.368,0.358
			c0.171,0.102,0.387,0.191,0.648,0.271c0.261,0.079,0.578,0.162,0.952,0.247c0.533,0.127,1.003,0.255,1.408,0.383
			c0.405,0.127,0.744,0.276,1.016,0.446c0.272,0.17,0.478,0.377,0.616,0.622c0.139,0.244,0.208,0.542,0.208,0.893
			c0,0.766-0.293,1.371-0.88,1.818C95.112,84.204,94.323,84.427,93.331,84.427z"/>
		<path fill="#542437" d="M101.924,84.427c-0.607,0-1.165-0.114-1.672-0.343s-0.944-0.539-1.313-0.933s-0.653-0.851-0.856-1.371
			c-0.202-0.521-0.304-1.068-0.304-1.643c0-0.585,0.104-1.138,0.313-1.658s0.496-0.978,0.864-1.371
			c0.367-0.394,0.805-0.707,1.312-0.941c0.507-0.233,1.059-0.351,1.656-0.351s1.149,0.117,1.656,0.351
			c0.507,0.234,0.944,0.548,1.313,0.941s0.656,0.851,0.864,1.371s0.312,1.073,0.312,1.658c0,0.574-0.104,1.122-0.312,1.643
			s-0.496,0.978-0.864,1.371s-0.806,0.704-1.313,0.933S102.521,84.427,101.924,84.427z M98.899,80.153
			c0,0.468,0.077,0.901,0.232,1.3c0.154,0.398,0.368,0.75,0.64,1.053c0.272,0.303,0.593,0.539,0.96,0.709
			c0.368,0.171,0.761,0.256,1.177,0.256s0.808-0.088,1.176-0.264c0.368-0.175,0.69-0.414,0.969-0.718
			c0.277-0.303,0.496-0.656,0.656-1.06c0.159-0.404,0.239-0.84,0.239-1.308c0-0.457-0.08-0.891-0.239-1.3
			c-0.16-0.409-0.379-0.766-0.656-1.068c-0.278-0.303-0.598-0.542-0.961-0.718c-0.362-0.175-0.752-0.263-1.168-0.263
			s-0.808,0.088-1.176,0.263c-0.368,0.176-0.688,0.418-0.96,0.726c-0.272,0.309-0.488,0.667-0.648,1.076
			S98.899,79.686,98.899,80.153z"/>
		<path fill="#542437" d="M114.854,84.268h-1.089v-4.64c0-0.989-0.144-1.707-0.432-2.153s-0.736-0.67-1.345-0.67
			c-0.319,0-0.64,0.059-0.96,0.176s-0.619,0.282-0.896,0.494c-0.278,0.213-0.521,0.466-0.729,0.758s-0.365,0.608-0.472,0.948v5.087
			h-1.089V75.96h0.992v1.882c0.171-0.298,0.382-0.571,0.632-0.821c0.251-0.25,0.531-0.465,0.841-0.646
			c0.309-0.181,0.637-0.319,0.984-0.415c0.346-0.096,0.706-0.144,1.08-0.144c0.469,0,0.861,0.085,1.176,0.255
			c0.314,0.171,0.568,0.41,0.76,0.718c0.192,0.309,0.331,0.686,0.416,1.132c0.086,0.447,0.129,0.941,0.129,1.483V84.268z"/>
		<path fill="#542437" d="M21.32,103.402v-6.474h-1.152v-0.861h1.152v-1.196c0-1.021,0.219-1.82,0.656-2.399s1.04-0.869,1.809-0.869
			c0.319,0,0.634,0.048,0.943,0.144s0.576,0.224,0.801,0.383l-0.336,0.781c-0.149-0.117-0.334-0.207-0.553-0.271
			c-0.219-0.064-0.435-0.096-0.647-0.096c-0.513,0-0.904,0.196-1.177,0.59c-0.271,0.394-0.408,0.962-0.408,1.706v1.228h2.305v0.861
			h-2.305v6.474H21.32z"/>
		<path fill="#542437" d="M30.554,96.052c-0.736,0.021-1.376,0.223-1.921,0.605c-0.544,0.383-0.928,0.909-1.151,1.579v5.166h-1.089
			v-8.308h1.024v1.993c0.288-0.584,0.667-1.07,1.136-1.459c0.47-0.388,0.977-0.582,1.521-0.582c0.096,0,0.187,0,0.272,0
			c0.085,0,0.154,0.006,0.208,0.016V96.052z"/>
		<path fill="#542437" d="M35.227,103.562c-0.607,0-1.165-0.114-1.672-0.343s-0.944-0.539-1.313-0.933s-0.653-0.851-0.856-1.371
			c-0.202-0.521-0.304-1.068-0.304-1.643c0-0.585,0.104-1.138,0.313-1.658s0.496-0.978,0.864-1.371
			c0.367-0.394,0.805-0.707,1.312-0.941c0.507-0.233,1.059-0.351,1.656-0.351s1.149,0.117,1.656,0.351
			c0.507,0.234,0.944,0.548,1.313,0.941s0.656,0.851,0.864,1.371s0.312,1.073,0.312,1.658c0,0.574-0.104,1.122-0.312,1.643
			s-0.496,0.978-0.864,1.371s-0.806,0.704-1.313,0.933S35.824,103.562,35.227,103.562z M32.202,99.288
			c0,0.468,0.077,0.901,0.232,1.3c0.154,0.398,0.368,0.75,0.64,1.053c0.272,0.303,0.593,0.539,0.96,0.709
			c0.368,0.171,0.761,0.256,1.177,0.256s0.808-0.088,1.176-0.264c0.368-0.175,0.69-0.414,0.969-0.718
			c0.277-0.303,0.496-0.656,0.656-1.06c0.159-0.404,0.239-0.84,0.239-1.308c0-0.457-0.08-0.891-0.239-1.3
			c-0.16-0.409-0.379-0.766-0.656-1.068c-0.278-0.303-0.598-0.542-0.961-0.718c-0.362-0.175-0.752-0.263-1.168-0.263
			s-0.808,0.088-1.176,0.263c-0.368,0.176-0.688,0.418-0.96,0.726c-0.272,0.309-0.488,0.667-0.648,1.076S32.202,98.82,32.202,99.288
			z"/>
		<path fill="#542437" d="M53.55,103.402h-1.088v-4.64c0-0.968-0.152-1.68-0.456-2.137c-0.305-0.457-0.766-0.687-1.385-0.687
			c-0.32,0-0.621,0.059-0.904,0.176c-0.282,0.117-0.544,0.282-0.784,0.494c-0.239,0.213-0.45,0.466-0.632,0.758
			s-0.32,0.613-0.416,0.965v5.07h-1.088v-4.64c0-0.989-0.149-1.707-0.448-2.153s-0.758-0.67-1.376-0.67
			c-0.63,0-1.19,0.219-1.681,0.654c-0.491,0.436-0.843,1.01-1.056,1.722v5.087h-1.089v-8.308h0.992v1.882
			c0.342-0.638,0.79-1.135,1.345-1.491c0.555-0.355,1.168-0.534,1.84-0.534c0.704,0,1.27,0.197,1.696,0.59
			c0.427,0.394,0.683,0.909,0.769,1.547c0.778-1.424,1.856-2.137,3.232-2.137c0.458,0,0.851,0.085,1.176,0.255
			c0.325,0.171,0.587,0.412,0.784,0.726s0.342,0.691,0.433,1.133c0.09,0.44,0.136,0.933,0.136,1.475V103.402z"/>
		<path fill="#542437" d="M63.55,103.562c-0.607,0-1.168-0.114-1.68-0.343c-0.513-0.229-0.955-0.542-1.328-0.94
			c-0.374-0.398-0.664-0.858-0.872-1.38c-0.208-0.521-0.313-1.078-0.313-1.674c0-0.584,0.104-1.135,0.313-1.65
			s0.498-0.967,0.872-1.355c0.373-0.388,0.813-0.696,1.32-0.925c0.506-0.229,1.063-0.343,1.672-0.343s1.165,0.114,1.672,0.343
			s0.941,0.54,1.305,0.933c0.362,0.394,0.646,0.846,0.848,1.355c0.203,0.511,0.305,1.053,0.305,1.627
			c0,0.085-0.003,0.17-0.008,0.255c-0.006,0.085-0.014,0.144-0.024,0.176H60.51c0.032,0.446,0.136,0.858,0.312,1.235
			c0.177,0.378,0.4,0.704,0.673,0.98c0.271,0.276,0.586,0.492,0.944,0.646c0.356,0.154,0.738,0.231,1.144,0.231
			c0.277,0,0.55-0.037,0.816-0.111s0.512-0.176,0.736-0.303c0.224-0.128,0.424-0.284,0.6-0.471c0.176-0.186,0.313-0.391,0.408-0.614
			l0.944,0.256c-0.128,0.308-0.31,0.587-0.544,0.837c-0.235,0.25-0.507,0.468-0.816,0.653c-0.31,0.187-0.651,0.33-1.024,0.431
			S63.944,103.562,63.55,103.562z M66.623,98.811c-0.032-0.447-0.137-0.854-0.313-1.221c-0.176-0.366-0.4-0.683-0.672-0.948
			c-0.272-0.266-0.59-0.473-0.952-0.622c-0.363-0.148-0.747-0.224-1.152-0.224s-0.79,0.075-1.152,0.224
			c-0.362,0.149-0.68,0.356-0.952,0.622c-0.271,0.266-0.49,0.585-0.656,0.957c-0.165,0.372-0.264,0.775-0.296,1.212H66.623z"/>
		<path fill="#542437" d="M71.568,103.402l-3.393-8.308h1.136l2.864,7.303l2.881-7.303h1.056l-3.393,8.308H71.568z"/>
		<path fill="#542437" d="M81.201,103.562c-0.607,0-1.168-0.114-1.68-0.343c-0.513-0.229-0.955-0.542-1.328-0.94
			c-0.374-0.398-0.664-0.858-0.872-1.38c-0.208-0.521-0.313-1.078-0.313-1.674c0-0.584,0.104-1.135,0.313-1.65
			s0.498-0.967,0.872-1.355c0.373-0.388,0.813-0.696,1.32-0.925c0.506-0.229,1.063-0.343,1.672-0.343s1.165,0.114,1.672,0.343
			s0.941,0.54,1.305,0.933c0.362,0.394,0.646,0.846,0.848,1.355c0.203,0.511,0.305,1.053,0.305,1.627
			c0,0.085-0.003,0.17-0.008,0.255c-0.006,0.085-0.014,0.144-0.024,0.176h-7.121c0.032,0.446,0.136,0.858,0.312,1.235
			c0.177,0.378,0.4,0.704,0.673,0.98c0.271,0.276,0.586,0.492,0.944,0.646c0.356,0.154,0.738,0.231,1.144,0.231
			c0.277,0,0.55-0.037,0.816-0.111s0.512-0.176,0.736-0.303c0.224-0.128,0.424-0.284,0.6-0.471c0.176-0.186,0.313-0.391,0.408-0.614
			l0.944,0.256c-0.128,0.308-0.31,0.587-0.544,0.837c-0.235,0.25-0.507,0.468-0.816,0.653c-0.31,0.187-0.651,0.33-1.024,0.431
			S81.596,103.562,81.201,103.562z M84.274,98.811c-0.032-0.447-0.137-0.854-0.313-1.221c-0.176-0.366-0.4-0.683-0.672-0.948
			c-0.272-0.266-0.59-0.473-0.952-0.622c-0.363-0.148-0.747-0.224-1.152-0.224s-0.79,0.075-1.152,0.224
			c-0.362,0.149-0.68,0.356-0.952,0.622c-0.271,0.266-0.49,0.585-0.656,0.957c-0.165,0.372-0.264,0.775-0.296,1.212H84.274z"/>
		<path fill="#542437" d="M93.956,103.402h-1.089v-4.64c0-0.989-0.144-1.707-0.432-2.153s-0.736-0.67-1.345-0.67
			c-0.319,0-0.64,0.059-0.96,0.176s-0.619,0.282-0.896,0.494c-0.278,0.213-0.521,0.466-0.729,0.758s-0.365,0.608-0.472,0.948v5.087
			h-1.089v-8.308h0.992v1.882c0.171-0.298,0.382-0.571,0.632-0.821c0.251-0.25,0.531-0.465,0.841-0.646
			c0.309-0.181,0.637-0.319,0.984-0.415c0.346-0.096,0.706-0.144,1.08-0.144c0.469,0,0.861,0.085,1.176,0.255
			c0.314,0.171,0.568,0.41,0.76,0.718c0.192,0.309,0.331,0.686,0.416,1.132c0.086,0.447,0.129,0.941,0.129,1.483V103.402z"/>
		<path fill="#542437" d="M100.181,103.004c-0.064,0.031-0.158,0.074-0.28,0.127c-0.123,0.054-0.264,0.106-0.424,0.16
			c-0.16,0.053-0.342,0.101-0.544,0.144c-0.203,0.042-0.417,0.063-0.641,0.063c-0.234,0-0.459-0.032-0.672-0.096
			c-0.214-0.063-0.4-0.162-0.561-0.295s-0.288-0.3-0.384-0.502s-0.144-0.437-0.144-0.702v-5.947H95.38v-0.861h1.152v-2.807h1.088
			v2.807h1.92v0.861h-1.92v5.645c0.021,0.309,0.128,0.534,0.32,0.678c0.191,0.144,0.421,0.215,0.688,0.215
			c0.31,0,0.581-0.05,0.816-0.151c0.234-0.101,0.384-0.173,0.448-0.215L100.181,103.004z"/>
	</g>
	<g>
		<path fill="#542437" d="M67.993,20.237c2.286-0.843,3.454-3.373,2.608-5.651c-0.848-2.277-3.386-3.44-5.673-2.597
			c-2.286,0.843-3.452,3.373-2.606,5.65C63.169,19.917,65.708,21.081,67.993,20.237z M83.418,22.864
			c-0.891-1.056-2.472-1.193-3.53-0.307l-5.892,4.933l-8.472-5.211c-0.379-0.338-0.822-0.617-1.322-0.814l-0.309-0.19l-0.045,0.069
			c-0.672-0.202-1.362-0.237-2.021-0.124l-0.018-0.056l-12.912,4.252c-1.072,0.282-1.863,1.253-1.861,2.409l0.002,9.481
			c0,1.378,1.121,2.495,2.504,2.494c1.383,0,2.505-1.117,2.505-2.495v-7.671l4.789-1.577l-3.588,9.043
			c-0.502,1.261-0.377,2.614,0.227,3.72l-1.711,3.732l-12.404-0.27l-0.002,0.051c-0.952,0.107-1.823,0.695-2.251,1.625L35.301,49.9
			c-0.645,1.411-0.021,3.077,1.395,3.722c1.416,0.646,3.089,0.023,3.735-1.388l1.047-2.287l11.85,0.258
			c1.148,0.094,2.285-0.527,2.793-1.634l2.151-4.695l5.382,2.257l0.381,12.699l0.057-0.001c0.162,0.966,0.809,1.827,1.789,2.213
			l3.714,1.465c1.486,0.586,3.168-0.141,3.758-1.623c0.588-1.482-0.141-3.16-1.629-3.746l-1.967-0.775l-0.365-12.188
			c0-0.073-0.002-0.144-0.006-0.215V43.96c-0.072-1.077-0.749-2.071-1.823-2.495l-5.179-3.317l3.769-9.618l6.624,4.076
			c0.906,0.637,2.16,0.615,3.05-0.128l7.286-6.098C84.17,25.493,84.307,23.919,83.418,22.864z"/>
	</g>
</g>
</svg>
