<?xml version="1.0" encoding="utf-8"?>
<!-- Generator: Adobe Illustrator 16.0.0, SVG Export Plug-In . SVG Version: 6.00 Build 0)  -->
<!DOCTYPE svg PUBLIC "-//W3C//DTD SVG 1.1//EN" "http://www.w3.org/Graphics/SVG/1.1/DTD/svg11.dtd">
<svg version="1.1" id="Layer_1" xmlns="http://www.w3.org/2000/svg" xmlns:xlink="http://www.w3.org/1999/xlink" x="0px" y="0px"
	 width="61px" height="61px" viewBox="0 0 61 61" enable-background="new 0 0 61 61" xml:space="preserve">
<path fill="#36609F" d="M51.125,0.5H9.875C4.698,0.5,0.5,4.7,0.5,9.875v41.25c0,5.179,4.198,9.375,9.375,9.375h41.25
	c5.178,0,9.375-4.196,9.375-9.375V9.875C60.5,4.7,56.303,0.5,51.125,0.5z M36.927,30.511h-4.203c0,6.72,0,14.989,0,14.989h-6.23
	c0,0,0-8.189,0-14.989h-2.962v-5.296h2.962v-3.427c0-2.45,1.165-6.288,6.286-6.288l4.615,0.018v5.142c0,0-2.807,0-3.35,0
	c-0.546,0-1.321,0.274-1.321,1.443v3.112h4.749L36.927,30.511z"/>
</svg>
