<?xml version="1.0" encoding="utf-8"?>
<!-- Generator: Adobe Illustrator 16.0.0, SVG Export Plug-In . SVG Version: 6.00 Build 0)  -->
<!DOCTYPE svg PUBLIC "-//W3C//DTD SVG 1.1//EN" "http://www.w3.org/Graphics/SVG/1.1/DTD/svg11.dtd">
<svg version="1.1" id="Layer_1" xmlns="http://www.w3.org/2000/svg" xmlns:xlink="http://www.w3.org/1999/xlink" x="0px" y="0px"
	 width="18px" height="26px" viewBox="0 0 18 26" enable-background="new 0 0 18 26" xml:space="preserve">
<g>
	<path fill="#542437" d="M17.516,8.08V3.984c0-2.092-1.244-3.784-2.779-3.784H3.497c-1.535,0-2.778,1.692-2.778,3.784v4.281
		c0,0.088,0.005,0.174,0.008,0.261v3.542v3.812c0,0.979,0.797,1.775,1.777,1.775c0.979,0,1.773-0.797,1.773-1.775v-3.812v-0.018
		H5.15v0.018v3.812c0,0.979,0.791,1.775,1.772,1.775c0.979,0,1.774-0.797,1.774-1.775v-3.812v-0.018h0.87v0.018v3.812
		c0,0.979,0.794,1.775,1.775,1.775s1.773-0.797,1.773-1.775v-3.812v-0.018h0.869v11.933c0,0.984,0.799,1.778,1.775,1.778
		c0.982,0,1.775-0.794,1.775-1.778V8.278C17.535,8.209,17.523,8.147,17.516,8.08z"/>
	<path fill="#C02943" d="M0.732,12.474c0-1.176,0.795-2.134,1.773-2.134c0.979,0,1.777,0.958,1.777,2.134v0.433h0.232v-0.619
		c0-1.304-0.901-2.365-2.01-2.365c-1.107,0-2.004,1.061-2.004,2.365v0.619h0.232V12.474z"/>
	<path fill="#C02943" d="M5.141,12.474c0-1.176,0.794-2.134,1.773-2.134c0.98,0,1.778,0.958,1.778,2.134v0.433h0.231v-0.619
		c0-1.304-0.901-2.365-2.01-2.365c-1.106,0-2.004,1.061-2.004,2.365v0.619h0.232V12.474z"/>
	<path fill="#C02943" d="M9.549,12.474c0-1.176,0.794-2.134,1.773-2.134c0.98,0,1.779,0.958,1.779,2.134v0.433h0.23v-0.619
		c0-1.304-0.9-2.365-2.01-2.365c-1.105,0-2.004,1.061-2.004,2.365v0.619h0.231V12.474z"/>
</g>
</svg>
