<?xml version="1.0" encoding="utf-8"?>
<!-- Generator: Adobe Illustrator 16.0.0, SVG Export Plug-In . SVG Version: 6.00 Build 0)  -->
<!DOCTYPE svg PUBLIC "-//W3C//DTD SVG 1.1//EN" "http://www.w3.org/Graphics/SVG/1.1/DTD/svg11.dtd">
<svg version="1.1" id="Layer_1" xmlns="http://www.w3.org/2000/svg" xmlns:xlink="http://www.w3.org/1999/xlink" x="0px" y="0px"
	 width="34px" height="35.536px" viewBox="0 -2.286 34 35.536" enable-background="new 0 -2.286 34 35.536" xml:space="preserve">
<g>
	<path fill="#542437" d="M29.132,8.59V2.938c0-2.888-1.717-5.224-3.837-5.224H9.782c-2.12,0-3.834,2.336-3.834,5.224v5.91
		c0,0.122,0.007,0.24,0.01,0.36v4.889v5.263c0,1.351,1.1,2.45,2.453,2.45c1.352,0,2.448-1.1,2.448-2.45v-5.263v-0.024h1.204v0.024
		v5.263c0,1.351,1.092,2.45,2.448,2.45c1.351,0,2.448-1.1,2.448-2.45v-5.263v-0.024h1.202v0.024v5.263
		c0,1.351,1.097,2.45,2.451,2.45c1.354,0,2.447-1.1,2.447-2.45v-5.263v-0.024h1.199v16.474c0,1.359,1.104,2.454,2.45,2.454
		c1.356,0,2.45-1.095,2.45-2.454V8.865C29.158,8.77,29.144,8.683,29.132,8.59z"/>
	<path fill="#C02943" d="M5.963,14.657c0-1.624,1.097-2.946,2.448-2.946c1.353,0,2.453,1.322,2.453,2.946v0.598h0.319V14.4
		c0-1.8-1.243-3.265-2.774-3.265c-1.527,0-2.767,1.465-2.767,3.265v0.855h0.32V14.657z"/>
	<path fill="#C02943" d="M12.05,14.657c0-1.624,1.097-2.946,2.448-2.946c1.353,0,2.453,1.322,2.453,2.946v0.598h0.319V14.4
		c0-1.8-1.243-3.265-2.774-3.265c-1.527,0-2.767,1.465-2.767,3.265v0.855h0.32V14.657z"/>
	<path fill="#C02943" d="M18.137,14.657c0-1.624,1.096-2.946,2.447-2.946c1.354,0,2.453,1.322,2.453,2.946v0.598h0.32V14.4
		c0-1.8-1.244-3.265-2.775-3.265c-1.527,0-2.766,1.465-2.766,3.265v0.855h0.32V14.657z"/>
</g>
</svg>
