<?xml version="1.0" encoding="utf-8"?>
<!-- Generator: Adobe Illustrator 16.0.0, SVG Export Plug-In . SVG Version: 6.00 Build 0)  -->
<!DOCTYPE svg PUBLIC "-//W3C//DTD SVG 1.1//EN" "http://www.w3.org/Graphics/SVG/1.1/DTD/svg11.dtd">
<svg version="1.1" id="Layer_1" xmlns="http://www.w3.org/2000/svg" xmlns:xlink="http://www.w3.org/1999/xlink" x="0px" y="0px"
	 width="176px" height="58px" viewBox="0 0 176 58" enable-background="new 0 0 176 58" xml:space="preserve">
<g>
	<path fill="#542437" d="M36.561,36.64l4.521-11.464h1.809l4.504,11.464h-2.357l-1.05-2.857h-4.021l-1.049,2.857H36.561z
		 M41.986,27.582l-1.647,4.634h3.245L41.986,27.582z"/>
	<path fill="#542437" d="M47.879,32.409c0-0.592,0.102-1.151,0.307-1.679s0.5-0.99,0.888-1.389c0.387-0.398,0.855-0.716,1.405-0.953
		c0.549-0.236,1.167-0.354,1.857-0.354c0.925,0,1.714,0.199,2.365,0.597c0.651,0.398,1.138,0.921,1.461,1.566l-2.115,0.646
		c-0.183-0.312-0.425-0.551-0.727-0.718c-0.302-0.167-0.635-0.251-1.001-0.251c-0.312,0-0.603,0.063-0.872,0.187
		c-0.27,0.123-0.503,0.296-0.703,0.517s-0.355,0.486-0.468,0.799c-0.113,0.313-0.169,0.656-0.169,1.033s0.059,0.722,0.178,1.033
		c0.118,0.313,0.277,0.582,0.476,0.808s0.434,0.401,0.703,0.524c0.269,0.124,0.554,0.186,0.855,0.186
		c0.388,0,0.746-0.097,1.074-0.29c0.329-0.194,0.557-0.431,0.687-0.711l2.115,0.646c-0.291,0.646-0.77,1.173-1.437,1.582
		c-0.668,0.409-1.47,0.613-2.406,0.613c-0.689,0-1.308-0.118-1.857-0.354c-0.549-0.237-1.017-0.558-1.405-0.961
		c-0.388-0.404-0.686-0.872-0.896-1.405C47.984,33.548,47.879,32.99,47.879,32.409z"/>
	<path fill="#542437" d="M56.986,32.409c0-0.592,0.102-1.151,0.307-1.679s0.5-0.99,0.888-1.389c0.387-0.398,0.855-0.716,1.405-0.953
		c0.549-0.236,1.167-0.354,1.857-0.354c0.925,0,1.714,0.199,2.365,0.597c0.651,0.398,1.138,0.921,1.461,1.566l-2.115,0.646
		c-0.183-0.312-0.425-0.551-0.727-0.718c-0.302-0.167-0.635-0.251-1.001-0.251c-0.312,0-0.603,0.063-0.872,0.187
		c-0.27,0.123-0.503,0.296-0.703,0.517s-0.355,0.486-0.468,0.799c-0.113,0.313-0.169,0.656-0.169,1.033s0.059,0.722,0.178,1.033
		c0.118,0.313,0.277,0.582,0.476,0.808s0.434,0.401,0.703,0.524c0.269,0.124,0.554,0.186,0.855,0.186
		c0.388,0,0.746-0.097,1.074-0.29c0.329-0.194,0.557-0.431,0.687-0.711l2.115,0.646c-0.291,0.646-0.77,1.173-1.437,1.582
		c-0.668,0.409-1.47,0.613-2.406,0.613c-0.689,0-1.308-0.118-1.857-0.354c-0.549-0.237-1.017-0.558-1.405-0.961
		c-0.388-0.404-0.686-0.872-0.896-1.405C57.091,33.548,56.986,32.99,56.986,32.409z"/>
	<path fill="#542437" d="M70.549,36.801c-0.678,0-1.292-0.115-1.841-0.347s-1.017-0.546-1.405-0.944s-0.686-0.861-0.896-1.389
		s-0.315-1.082-0.315-1.663c0-0.603,0.102-1.171,0.307-1.704c0.205-0.532,0.5-1.001,0.888-1.404
		c0.387-0.403,0.858-0.724,1.413-0.961c0.554-0.236,1.176-0.354,1.865-0.354c0.688,0,1.305,0.118,1.849,0.354
		c0.543,0.237,1.006,0.555,1.389,0.953c0.382,0.398,0.672,0.861,0.872,1.389s0.299,1.076,0.299,1.646
		c0,0.14-0.003,0.274-0.008,0.403c-0.005,0.13-0.019,0.237-0.04,0.323h-6.54c0.033,0.334,0.113,0.63,0.242,0.888
		c0.129,0.259,0.296,0.479,0.501,0.662c0.204,0.184,0.436,0.323,0.694,0.42c0.259,0.097,0.527,0.146,0.808,0.146
		c0.43,0,0.837-0.104,1.219-0.314c0.382-0.21,0.643-0.487,0.783-0.832l1.857,0.517c-0.313,0.646-0.81,1.177-1.494,1.591
		S71.496,36.801,70.549,36.801z M72.745,31.699c-0.054-0.636-0.288-1.144-0.703-1.526c-0.415-0.382-0.917-0.573-1.51-0.573
		c-0.291,0-0.563,0.052-0.815,0.153c-0.253,0.103-0.477,0.245-0.67,0.429c-0.194,0.183-0.353,0.403-0.476,0.661
		c-0.124,0.259-0.197,0.544-0.218,0.856H72.745z"/>
	<path fill="#542437" d="M79.639,36.801c-0.345,0-0.702-0.026-1.074-0.08c-0.372-0.055-0.735-0.13-1.09-0.227
		c-0.355-0.097-0.694-0.215-1.017-0.355c-0.323-0.14-0.608-0.296-0.856-0.468l0.872-1.47c1.076,0.7,2.115,1.05,3.116,1.05
		c0.452,0,0.807-0.081,1.065-0.242s0.388-0.393,0.388-0.694c0-0.301-0.153-0.524-0.46-0.67c-0.307-0.146-0.821-0.304-1.542-0.477
		c-0.549-0.129-1.018-0.264-1.405-0.403c-0.388-0.14-0.7-0.302-0.937-0.484c-0.237-0.183-0.409-0.393-0.517-0.63
		c-0.108-0.236-0.162-0.517-0.162-0.84c0-0.43,0.086-0.817,0.258-1.162c0.172-0.345,0.412-0.638,0.718-0.88
		c0.307-0.242,0.667-0.428,1.082-0.558c0.414-0.129,0.864-0.193,1.348-0.193c0.603,0,1.203,0.095,1.8,0.282
		c0.598,0.188,1.154,0.444,1.671,0.768l-0.888,1.34c-0.474-0.301-0.92-0.52-1.34-0.654c-0.419-0.134-0.839-0.201-1.259-0.201
		c-0.388,0-0.713,0.075-0.977,0.226c-0.264,0.151-0.396,0.394-0.396,0.727c0,0.291,0.126,0.501,0.379,0.63s0.703,0.274,1.349,0.436
		c0.603,0.151,1.116,0.302,1.542,0.452c0.425,0.151,0.775,0.323,1.05,0.517c0.274,0.194,0.474,0.418,0.597,0.671
		c0.124,0.253,0.186,0.557,0.186,0.912c0,0.409-0.083,0.78-0.25,1.114c-0.167,0.333-0.401,0.616-0.702,0.848
		c-0.302,0.231-0.67,0.409-1.106,0.532C80.648,36.739,80.166,36.801,79.639,36.801z"/>
	<path fill="#542437" d="M87.841,36.801c-0.345,0-0.702-0.026-1.074-0.08c-0.372-0.055-0.735-0.13-1.09-0.227
		c-0.355-0.097-0.694-0.215-1.017-0.355c-0.323-0.14-0.608-0.296-0.856-0.468l0.872-1.47c1.076,0.7,2.115,1.05,3.116,1.05
		c0.452,0,0.807-0.081,1.065-0.242c0.259-0.161,0.389-0.393,0.389-0.694c0-0.301-0.154-0.524-0.461-0.67s-0.821-0.304-1.542-0.477
		c-0.549-0.129-1.018-0.264-1.405-0.403c-0.388-0.14-0.7-0.302-0.937-0.484c-0.237-0.183-0.409-0.393-0.517-0.63
		c-0.108-0.236-0.162-0.517-0.162-0.84c0-0.43,0.086-0.817,0.258-1.162c0.172-0.345,0.412-0.638,0.718-0.88
		c0.307-0.242,0.667-0.428,1.082-0.558c0.414-0.129,0.864-0.193,1.348-0.193c0.603,0,1.203,0.095,1.801,0.282
		c0.598,0.188,1.154,0.444,1.671,0.768l-0.888,1.34c-0.475-0.301-0.921-0.52-1.341-0.654c-0.419-0.134-0.839-0.201-1.259-0.201
		c-0.388,0-0.713,0.075-0.977,0.226c-0.264,0.151-0.396,0.394-0.396,0.727c0,0.291,0.126,0.501,0.379,0.63s0.703,0.274,1.349,0.436
		c0.602,0.151,1.116,0.302,1.542,0.452c0.426,0.151,0.775,0.323,1.05,0.517c0.274,0.194,0.474,0.418,0.597,0.671
		c0.125,0.253,0.187,0.557,0.187,0.912c0,0.409-0.083,0.78-0.251,1.114c-0.166,0.333-0.4,0.616-0.701,0.848
		c-0.303,0.231-0.671,0.409-1.106,0.532C88.85,36.739,88.368,36.801,87.841,36.801z"/>
	<path fill="#542437" d="M100.5,36.801c-0.679,0-1.293-0.115-1.842-0.347s-1.017-0.546-1.404-0.944s-0.686-0.861-0.896-1.389
		c-0.209-0.527-0.314-1.082-0.314-1.663c0-0.603,0.102-1.171,0.307-1.704c0.205-0.532,0.5-1.001,0.889-1.404
		c0.387-0.403,0.857-0.724,1.412-0.961c0.555-0.236,1.176-0.354,1.865-0.354c0.688,0,1.305,0.118,1.849,0.354
		c0.544,0.237,1.007,0.555,1.389,0.953s0.673,0.861,0.872,1.389s0.299,1.076,0.299,1.646c0,0.14-0.004,0.274-0.009,0.403
		c-0.005,0.13-0.019,0.237-0.04,0.323h-6.539c0.032,0.334,0.113,0.63,0.242,0.888c0.129,0.259,0.296,0.479,0.5,0.662
		c0.205,0.184,0.436,0.323,0.694,0.42s0.527,0.146,0.808,0.146c0.43,0,0.837-0.104,1.219-0.314c0.383-0.21,0.643-0.487,0.783-0.832
		l1.857,0.517c-0.313,0.646-0.811,1.177-1.494,1.591S101.446,36.801,100.5,36.801z M102.695,31.699
		c-0.055-0.636-0.288-1.144-0.703-1.526c-0.414-0.382-0.917-0.573-1.51-0.573c-0.29,0-0.563,0.052-0.814,0.153
		c-0.254,0.103-0.477,0.245-0.67,0.429c-0.194,0.183-0.354,0.403-0.477,0.661c-0.124,0.259-0.197,0.544-0.219,0.856H102.695z"/>
	<path fill="#542437" d="M108.266,36.64l-3.116-8.461h2.229l2.147,6.701l2.164-6.701h2.033l-3.115,8.461H108.266z"/>
	<path fill="#542437" d="M118.729,36.801c-0.678,0-1.292-0.115-1.841-0.347s-1.017-0.546-1.405-0.944
		c-0.387-0.398-0.686-0.861-0.896-1.389s-0.315-1.082-0.315-1.663c0-0.603,0.103-1.171,0.307-1.704
		c0.205-0.532,0.501-1.001,0.889-1.404c0.387-0.403,0.858-0.724,1.412-0.961c0.555-0.236,1.177-0.354,1.865-0.354
		c0.689,0,1.305,0.118,1.85,0.354c0.543,0.237,1.006,0.555,1.389,0.953c0.381,0.398,0.672,0.861,0.871,1.389
		s0.299,1.076,0.299,1.646c0,0.14-0.003,0.274-0.008,0.403c-0.006,0.13-0.02,0.237-0.041,0.323h-6.539
		c0.033,0.334,0.113,0.63,0.242,0.888c0.129,0.259,0.297,0.479,0.501,0.662c0.204,0.184,0.436,0.323,0.694,0.42
		c0.258,0.097,0.527,0.146,0.807,0.146c0.431,0,0.838-0.104,1.219-0.314c0.383-0.21,0.644-0.487,0.783-0.832l1.857,0.517
		c-0.313,0.646-0.811,1.177-1.494,1.591S119.676,36.801,118.729,36.801z M120.924,31.699c-0.054-0.636-0.287-1.144-0.702-1.526
		c-0.415-0.382-0.917-0.573-1.51-0.573c-0.29,0-0.563,0.052-0.815,0.153c-0.253,0.103-0.477,0.245-0.67,0.429
		c-0.193,0.183-0.353,0.403-0.477,0.661c-0.123,0.259-0.196,0.544-0.218,0.856H120.924z"/>
	<path fill="#542437" d="M132.34,36.64h-2.164v-4.747c0-0.678-0.118-1.173-0.355-1.485c-0.236-0.313-0.564-0.468-0.984-0.468
		c-0.215,0-0.436,0.043-0.662,0.129c-0.226,0.086-0.438,0.207-0.638,0.363s-0.38,0.342-0.54,0.557
		c-0.162,0.216-0.281,0.452-0.355,0.711v4.94h-2.164v-8.461h1.953v1.566c0.313-0.538,0.765-0.958,1.357-1.26
		c0.592-0.301,1.259-0.451,2.002-0.451c0.527,0,0.957,0.097,1.291,0.29c0.334,0.194,0.592,0.447,0.775,0.759
		c0.183,0.313,0.309,0.668,0.379,1.065c0.07,0.398,0.105,0.803,0.105,1.211V36.64z"/>
	<path fill="#542437" d="M139.25,36.204c-0.291,0.129-0.648,0.258-1.074,0.387c-0.425,0.13-0.869,0.194-1.332,0.194
		c-0.301,0-0.584-0.038-0.848-0.113s-0.494-0.196-0.693-0.363s-0.358-0.382-0.477-0.646c-0.119-0.264-0.178-0.584-0.178-0.961v-4.86
		h-1.098v-1.663h1.098v-2.744h2.164v2.744h1.792v1.663h-1.792v4.134c0,0.302,0.08,0.514,0.242,0.638
		c0.161,0.124,0.355,0.186,0.581,0.186s0.446-0.037,0.661-0.113c0.216-0.075,0.389-0.14,0.518-0.193L139.25,36.204z"/>
</g>
<g>
	<path fill="#54777A" d="M175.588,49.588c0,4.418-3.582,8-8,8H8c-4.418,0-8-3.582-8-8V8c0-4.419,3.582-8,8-8h159.588
		c4.418,0,8,3.581,8,8V49.588z"/>
	<g>
		<path fill="#542437" d="M63.382,21.869c-0.883,0.915-1.9,1.373-3.052,1.373c-0.732,0-1.421-0.162-2.067-0.484
			c-0.646-0.323-1.208-0.757-1.687-1.3c-0.479-0.544-0.856-1.171-1.131-1.881c-0.274-0.711-0.411-1.448-0.411-2.213
			c0-0.785,0.137-1.525,0.411-2.22s0.656-1.303,1.146-1.824c0.49-0.522,1.065-0.937,1.728-1.243
			c0.662-0.308,1.381-0.461,2.155-0.461c1.044,0,1.938,0.227,2.681,0.679c0.743,0.452,1.303,1.061,1.68,1.824l-1.663,1.228
			c-0.28-0.57-0.665-1.007-1.155-1.309c-0.489-0.301-1.03-0.452-1.622-0.452c-0.474,0-0.901,0.103-1.284,0.308
			c-0.382,0.204-0.708,0.484-0.977,0.839c-0.27,0.355-0.479,0.765-0.63,1.228c-0.15,0.463-0.226,0.952-0.226,1.47
			c0,0.538,0.08,1.041,0.242,1.509c0.161,0.469,0.388,0.875,0.678,1.22c0.291,0.345,0.633,0.616,1.025,0.815s0.826,0.299,1.3,0.299
			c1.055,0,2.008-0.522,2.858-1.566v-0.808h-2.31v-1.631h4.149v5.894h-1.84V21.869z"/>
		<path fill="#542437" d="M70.841,23.322c-0.689,0-1.309-0.118-1.857-0.354c-0.549-0.237-1.015-0.558-1.396-0.961
			c-0.382-0.404-0.676-0.869-0.88-1.396S66.4,19.528,66.4,18.947c0-0.592,0.103-1.152,0.307-1.68s0.498-0.993,0.88-1.396
			s0.848-0.724,1.396-0.961c0.549-0.236,1.168-0.354,1.857-0.354c0.688,0,1.305,0.118,1.849,0.354
			c0.543,0.237,1.006,0.558,1.389,0.961c0.382,0.403,0.675,0.869,0.88,1.396c0.204,0.527,0.307,1.088,0.307,1.68
			c0,0.581-0.103,1.136-0.307,1.663c-0.205,0.527-0.495,0.992-0.872,1.396c-0.377,0.403-0.84,0.724-1.389,0.961
			C72.148,23.204,71.529,23.322,70.841,23.322z M68.629,18.947c0,0.377,0.056,0.718,0.169,1.025c0.113,0.307,0.27,0.573,0.469,0.799
			s0.433,0.401,0.702,0.524c0.269,0.124,0.56,0.186,0.872,0.186c0.312,0,0.603-0.062,0.872-0.186
			c0.269-0.123,0.503-0.299,0.702-0.524s0.355-0.495,0.468-0.808c0.113-0.312,0.17-0.656,0.17-1.033c0-0.365-0.057-0.705-0.17-1.017
			c-0.112-0.313-0.269-0.582-0.468-0.808c-0.199-0.227-0.434-0.401-0.702-0.524c-0.27-0.124-0.561-0.187-0.872-0.187
			c-0.313,0-0.604,0.065-0.872,0.194c-0.27,0.129-0.503,0.307-0.702,0.532c-0.199,0.227-0.355,0.496-0.469,0.808
			C68.685,18.242,68.629,18.581,68.629,18.947z"/>
		<path fill="#542437" d="M85.356,23.322c-0.646,0-1.222-0.145-1.728-0.436s-0.904-0.688-1.195-1.195v1.47h-1.889V11.374h2.164
			v4.812c0.301-0.517,0.696-0.917,1.187-1.202c0.489-0.285,1.058-0.428,1.703-0.428c0.549,0,1.052,0.118,1.51,0.354
			c0.457,0.237,0.851,0.555,1.179,0.953s0.581,0.866,0.759,1.404s0.267,1.104,0.267,1.695c0,0.614-0.1,1.185-0.299,1.712
			s-0.477,0.987-0.832,1.38c-0.354,0.394-0.774,0.703-1.259,0.929C86.438,23.209,85.916,23.322,85.356,23.322z M84.759,21.481
			c0.345,0,0.659-0.066,0.945-0.201c0.284-0.135,0.532-0.315,0.742-0.541c0.21-0.227,0.371-0.489,0.484-0.791s0.17-0.624,0.17-0.969
			s-0.055-0.673-0.162-0.985c-0.107-0.312-0.261-0.586-0.46-0.823c-0.199-0.236-0.434-0.425-0.702-0.565
			c-0.27-0.14-0.565-0.21-0.888-0.21c-0.484,0-0.918,0.159-1.3,0.477c-0.383,0.317-0.676,0.708-0.88,1.171v2.019
			c0.075,0.215,0.186,0.409,0.33,0.581c0.146,0.172,0.31,0.32,0.493,0.443c0.183,0.124,0.382,0.221,0.598,0.291
			C84.345,21.447,84.555,21.481,84.759,21.481z"/>
		<path fill="#542437" d="M93.091,23.322c-0.409,0-0.791-0.067-1.146-0.201c-0.355-0.135-0.662-0.323-0.92-0.565
			c-0.259-0.242-0.461-0.524-0.605-0.848c-0.146-0.323-0.219-0.678-0.219-1.065c0-0.398,0.089-0.768,0.267-1.106
			s0.425-0.627,0.743-0.863c0.317-0.237,0.696-0.423,1.138-0.558c0.441-0.134,0.926-0.201,1.453-0.201
			c0.377,0,0.745,0.032,1.106,0.097c0.36,0.064,0.681,0.156,0.961,0.274V17.8c0-0.56-0.159-0.99-0.477-1.292
			c-0.317-0.301-0.789-0.452-1.413-0.452c-0.452,0-0.894,0.081-1.324,0.242c-0.431,0.162-0.871,0.398-1.323,0.711l-0.662-1.373
			c1.087-0.721,2.261-1.081,3.52-1.081c1.217,0,2.161,0.298,2.834,0.896s1.009,1.461,1.009,2.592v2.632
			c0,0.226,0.043,0.388,0.129,0.484c0.087,0.097,0.237,0.15,0.452,0.161v1.841c-0.204,0.043-0.396,0.072-0.573,0.089
			c-0.177,0.016-0.33,0.024-0.46,0.024c-0.409-0.011-0.721-0.105-0.937-0.283c-0.215-0.177-0.35-0.417-0.403-0.718l-0.049-0.469
			c-0.377,0.495-0.834,0.872-1.372,1.131C94.28,23.193,93.704,23.322,93.091,23.322z M93.704,21.74c0.366,0,0.713-0.064,1.042-0.193
			c0.328-0.13,0.583-0.302,0.767-0.517c0.236-0.184,0.355-0.388,0.355-0.614v-0.969c-0.259-0.097-0.539-0.175-0.84-0.233
			c-0.302-0.06-0.592-0.089-0.872-0.089c-0.56,0-1.018,0.126-1.372,0.379c-0.355,0.253-0.533,0.573-0.533,0.961
			c0,0.366,0.14,0.67,0.42,0.912S93.295,21.74,93.704,21.74z"/>
		<path fill="#542437" d="M99.581,18.93c0-0.592,0.103-1.151,0.307-1.679s0.501-0.99,0.888-1.389
			c0.388-0.398,0.856-0.716,1.405-0.953c0.549-0.236,1.168-0.354,1.856-0.354c0.926,0,1.714,0.199,2.365,0.597
			c0.651,0.398,1.139,0.921,1.462,1.566l-2.115,0.646c-0.184-0.312-0.426-0.551-0.727-0.718c-0.302-0.167-0.636-0.251-1.001-0.251
			c-0.313,0-0.604,0.063-0.872,0.187c-0.27,0.123-0.503,0.296-0.702,0.517s-0.355,0.486-0.469,0.799s-0.169,0.656-0.169,1.033
			s0.059,0.722,0.177,1.033c0.119,0.313,0.277,0.582,0.477,0.808s0.434,0.401,0.702,0.524c0.27,0.124,0.555,0.186,0.856,0.186
			c0.388,0,0.745-0.097,1.073-0.29c0.328-0.194,0.558-0.431,0.687-0.711l2.115,0.646c-0.291,0.646-0.77,1.173-1.438,1.582
			c-0.667,0.409-1.469,0.613-2.405,0.613c-0.689,0-1.308-0.118-1.857-0.354c-0.549-0.237-1.017-0.558-1.404-0.961
			c-0.388-0.404-0.687-0.872-0.896-1.405C99.686,20.069,99.581,19.511,99.581,18.93z"/>
		<path fill="#542437" d="M114.984,23.161l-2.454-3.665l-1.162,1.146v2.519h-2.164V11.374h2.164v7.153l3.391-3.811h2.309
			l-3.165,3.584l3.391,4.86H114.984z"/>
		<path fill="#542437" d="M42.206,42.1c-0.29,0.129-0.648,0.258-1.073,0.387c-0.426,0.131-0.87,0.195-1.332,0.195
			c-0.302,0-0.584-0.039-0.848-0.113c-0.265-0.076-0.496-0.197-0.694-0.363c-0.199-0.168-0.358-0.383-0.477-0.646
			c-0.119-0.264-0.178-0.584-0.178-0.961v-4.859h-1.098v-1.664h1.098V31.33h2.164v2.744h1.792v1.664h-1.792v4.133
			c0,0.303,0.08,0.514,0.242,0.639c0.161,0.123,0.354,0.186,0.581,0.186c0.226,0,0.446-0.037,0.662-0.113
			c0.215-0.076,0.387-0.141,0.517-0.193L42.206,42.1z"/>
		<path fill="#542437" d="M47.082,42.697c-0.689,0-1.309-0.119-1.857-0.355s-1.015-0.557-1.396-0.961s-0.676-0.869-0.88-1.396
			s-0.307-1.082-0.307-1.662c0-0.592,0.103-1.152,0.307-1.68s0.498-0.994,0.88-1.396c0.382-0.404,0.848-0.725,1.396-0.961
			s1.168-0.355,1.857-0.355c0.688,0,1.305,0.119,1.849,0.355c0.543,0.236,1.006,0.557,1.389,0.961
			c0.382,0.402,0.675,0.869,0.88,1.396c0.204,0.527,0.307,1.088,0.307,1.68c0,0.58-0.103,1.135-0.307,1.662
			c-0.205,0.527-0.495,0.992-0.872,1.396s-0.84,0.725-1.389,0.961S47.771,42.697,47.082,42.697z M44.87,38.322
			c0,0.377,0.056,0.717,0.169,1.025c0.113,0.307,0.27,0.572,0.469,0.799c0.199,0.225,0.433,0.4,0.702,0.523
			c0.269,0.125,0.56,0.186,0.872,0.186c0.312,0,0.603-0.061,0.872-0.186c0.269-0.123,0.503-0.299,0.702-0.523
			c0.199-0.227,0.355-0.496,0.468-0.809c0.113-0.311,0.17-0.656,0.17-1.033c0-0.365-0.057-0.705-0.17-1.016
			c-0.112-0.313-0.269-0.582-0.468-0.809s-0.434-0.4-0.702-0.523c-0.27-0.125-0.561-0.188-0.872-0.188
			c-0.313,0-0.604,0.066-0.872,0.195c-0.27,0.129-0.503,0.307-0.702,0.531c-0.199,0.227-0.355,0.496-0.469,0.809
			S44.87,37.955,44.87,38.322z"/>
		<path fill="#542437" d="M64.649,42.535h-2.164v-4.746c0-0.668-0.123-1.16-0.371-1.479c-0.248-0.316-0.598-0.475-1.05-0.475
			c-0.193,0-0.397,0.043-0.613,0.129c-0.215,0.086-0.42,0.207-0.613,0.363c-0.194,0.156-0.371,0.342-0.533,0.557
			c-0.161,0.215-0.279,0.451-0.354,0.711v4.939h-2.164V30.748h2.164v4.893c0.312-0.549,0.734-0.971,1.267-1.268
			c0.533-0.295,1.123-0.443,1.769-0.443c0.549,0,0.995,0.094,1.34,0.283c0.345,0.188,0.613,0.438,0.808,0.75
			c0.193,0.313,0.328,0.668,0.403,1.066s0.113,0.807,0.113,1.227V42.535z"/>
		<path fill="#542437" d="M70.43,42.697c-0.689,0-1.309-0.119-1.857-0.355s-1.015-0.557-1.396-0.961s-0.676-0.869-0.88-1.396
			s-0.307-1.082-0.307-1.662c0-0.592,0.103-1.152,0.307-1.68s0.498-0.994,0.88-1.396c0.382-0.404,0.848-0.725,1.396-0.961
			s1.168-0.355,1.857-0.355c0.688,0,1.305,0.119,1.849,0.355c0.543,0.236,1.006,0.557,1.389,0.961
			c0.382,0.402,0.675,0.869,0.88,1.396c0.204,0.527,0.307,1.088,0.307,1.68c0,0.58-0.103,1.135-0.307,1.662
			c-0.205,0.527-0.495,0.992-0.872,1.396s-0.84,0.725-1.389,0.961S71.118,42.697,70.43,42.697z M68.218,38.322
			c0,0.377,0.056,0.717,0.169,1.025c0.113,0.307,0.27,0.572,0.469,0.799c0.199,0.225,0.433,0.4,0.702,0.523
			c0.269,0.125,0.56,0.186,0.872,0.186c0.312,0,0.603-0.061,0.872-0.186c0.269-0.123,0.503-0.299,0.702-0.523
			c0.199-0.227,0.355-0.496,0.468-0.809c0.113-0.311,0.17-0.656,0.17-1.033c0-0.365-0.057-0.705-0.17-1.016
			c-0.112-0.313-0.269-0.582-0.468-0.809s-0.434-0.4-0.702-0.523c-0.27-0.125-0.561-0.188-0.872-0.188
			c-0.313,0-0.604,0.066-0.872,0.195c-0.27,0.129-0.503,0.307-0.702,0.531c-0.199,0.227-0.355,0.496-0.469,0.809
			S68.218,37.955,68.218,38.322z"/>
		<path fill="#542437" d="M89.417,42.535h-2.163v-4.746c0-0.678-0.118-1.174-0.355-1.486c-0.236-0.313-0.56-0.467-0.969-0.467
			c-0.42,0-0.818,0.164-1.194,0.492c-0.377,0.328-0.646,0.756-0.808,1.283v4.924h-2.164v-4.746c0-0.678-0.115-1.174-0.347-1.486
			s-0.552-0.467-0.961-0.467c-0.42,0-0.82,0.16-1.203,0.484c-0.382,0.322-0.653,0.748-0.814,1.275v4.939h-2.164v-8.461h1.954v1.566
			c0.312-0.549,0.739-0.971,1.283-1.268c0.543-0.295,1.165-0.443,1.865-0.443c0.71,0,1.256,0.172,1.639,0.518
			c0.382,0.344,0.632,0.77,0.751,1.275c0.344-0.582,0.78-1.025,1.308-1.332s1.13-0.461,1.809-0.461c0.517,0,0.941,0.098,1.275,0.291
			c0.333,0.193,0.592,0.447,0.774,0.758c0.184,0.313,0.31,0.668,0.38,1.066s0.104,0.803,0.104,1.211V42.535z"/>
		<path fill="#542437" d="M95.213,42.697c-0.678,0-1.291-0.115-1.841-0.348c-0.549-0.23-1.017-0.545-1.404-0.943
			s-0.687-0.861-0.896-1.389s-0.314-1.082-0.314-1.664c0-0.602,0.103-1.17,0.307-1.703s0.501-1.002,0.888-1.404
			c0.388-0.404,0.858-0.725,1.413-0.961s1.176-0.355,1.865-0.355c0.688,0,1.305,0.119,1.849,0.355
			c0.543,0.236,1.006,0.555,1.389,0.953c0.382,0.398,0.673,0.861,0.872,1.389c0.198,0.527,0.298,1.076,0.298,1.646
			c0,0.139-0.002,0.273-0.008,0.402c-0.005,0.131-0.019,0.238-0.04,0.324H93.05c0.032,0.334,0.112,0.629,0.242,0.887
			c0.129,0.26,0.296,0.48,0.5,0.662c0.205,0.184,0.437,0.324,0.694,0.42c0.259,0.098,0.527,0.146,0.808,0.146
			c0.431,0,0.837-0.105,1.219-0.314c0.382-0.211,0.644-0.488,0.783-0.832l1.856,0.516c-0.312,0.646-0.81,1.178-1.493,1.592
			S96.16,42.697,95.213,42.697z M97.409,37.596c-0.054-0.637-0.288-1.145-0.702-1.527c-0.415-0.381-0.918-0.572-1.51-0.572
			c-0.291,0-0.563,0.051-0.815,0.152c-0.253,0.104-0.477,0.246-0.67,0.43c-0.194,0.182-0.354,0.402-0.477,0.66
			c-0.124,0.26-0.196,0.545-0.218,0.857H97.409z"/>
		<path fill="#542437" d="M106.015,42.697c-0.656,0-1.232-0.148-1.728-0.443c-0.495-0.297-0.883-0.697-1.162-1.203v4.924h-2.164
			v-11.9h1.889v1.453c0.313-0.494,0.716-0.885,1.211-1.17s1.066-0.428,1.712-0.428c0.57,0,1.098,0.115,1.582,0.348
			c0.484,0.23,0.901,0.543,1.252,0.936c0.35,0.393,0.624,0.855,0.823,1.389s0.299,1.096,0.299,1.688
			c0,0.613-0.092,1.189-0.274,1.729c-0.184,0.537-0.438,1.006-0.768,1.404c-0.328,0.398-0.721,0.711-1.179,0.936
			C107.051,42.584,106.553,42.697,106.015,42.697z M105.305,40.855c0.322,0,0.621-0.068,0.896-0.209s0.509-0.328,0.702-0.564
			c0.194-0.236,0.345-0.512,0.452-0.824s0.162-0.635,0.162-0.969c0-0.355-0.06-0.686-0.178-0.992
			c-0.119-0.307-0.282-0.574-0.492-0.801c-0.21-0.225-0.458-0.402-0.743-0.531s-0.595-0.195-0.929-0.195
			c-0.204,0-0.414,0.035-0.629,0.105c-0.216,0.07-0.415,0.17-0.598,0.299c-0.184,0.129-0.348,0.279-0.493,0.453
			c-0.145,0.172-0.255,0.359-0.33,0.564v1.986c0.193,0.484,0.489,0.885,0.888,1.203C104.411,40.697,104.842,40.855,105.305,40.855z"
			/>
		<path fill="#542437" d="M113.491,42.697c-0.409,0-0.791-0.068-1.146-0.201c-0.355-0.135-0.662-0.324-0.92-0.566
			c-0.259-0.242-0.461-0.523-0.605-0.848c-0.146-0.322-0.219-0.678-0.219-1.064c0-0.398,0.089-0.768,0.267-1.107
			c0.178-0.338,0.425-0.627,0.743-0.863c0.317-0.236,0.696-0.422,1.138-0.557s0.926-0.201,1.453-0.201
			c0.377,0,0.745,0.031,1.106,0.096c0.36,0.064,0.681,0.156,0.961,0.275v-0.484c0-0.561-0.159-0.99-0.477-1.293
			c-0.317-0.301-0.789-0.451-1.413-0.451c-0.452,0-0.894,0.08-1.324,0.242s-0.871,0.398-1.323,0.711l-0.662-1.373
			c1.087-0.721,2.261-1.082,3.52-1.082c1.217,0,2.161,0.299,2.834,0.896s1.009,1.461,1.009,2.592v2.631
			c0,0.227,0.043,0.389,0.129,0.484c0.087,0.098,0.237,0.15,0.452,0.162v1.84c-0.204,0.043-0.396,0.072-0.573,0.09
			c-0.177,0.016-0.33,0.023-0.46,0.023c-0.409-0.01-0.721-0.105-0.937-0.283c-0.215-0.176-0.35-0.416-0.403-0.717l-0.049-0.469
			c-0.377,0.494-0.834,0.871-1.372,1.131C114.681,42.568,114.104,42.697,113.491,42.697z M114.104,41.115
			c0.366,0,0.713-0.064,1.042-0.193c0.328-0.131,0.583-0.303,0.767-0.518c0.236-0.184,0.355-0.387,0.355-0.613v-0.969
			c-0.259-0.098-0.539-0.176-0.84-0.234c-0.302-0.059-0.592-0.088-0.872-0.088c-0.56,0-1.018,0.125-1.372,0.379
			c-0.355,0.252-0.533,0.572-0.533,0.961c0,0.365,0.14,0.67,0.42,0.912S113.695,41.115,114.104,41.115z"/>
		<path fill="#542437" d="M123.808,42.584c-0.56,0-1.073-0.113-1.542-0.34c-0.468-0.225-0.869-0.535-1.202-0.928
			c-0.334-0.393-0.593-0.848-0.775-1.363c-0.183-0.518-0.274-1.066-0.274-1.648c0-0.613,0.097-1.184,0.291-1.711
			c0.193-0.527,0.462-0.99,0.807-1.389s0.757-0.711,1.235-0.936c0.479-0.227,1.009-0.34,1.591-0.34c0.667,0,1.248,0.148,1.743,0.443
			c0.495,0.297,0.899,0.693,1.211,1.188v-1.486h1.89v8.059c0,0.623-0.116,1.184-0.348,1.678c-0.231,0.496-0.557,0.916-0.977,1.26
			s-0.915,0.607-1.485,0.791s-1.195,0.275-1.873,0.275c-0.937,0-1.72-0.154-2.35-0.461c-0.629-0.307-1.17-0.74-1.622-1.299
			l1.179-1.146c0.322,0.398,0.729,0.709,1.219,0.936c0.489,0.227,1.015,0.34,1.574,0.34c0.334,0,0.654-0.047,0.961-0.137
			c0.307-0.092,0.575-0.234,0.807-0.43c0.231-0.193,0.415-0.441,0.55-0.742c0.134-0.301,0.201-0.656,0.201-1.064v-1.066
			c-0.279,0.484-0.673,0.859-1.179,1.123S124.39,42.584,123.808,42.584z M124.551,40.855c0.236,0,0.463-0.037,0.678-0.111
			c0.216-0.076,0.412-0.178,0.59-0.307c0.178-0.131,0.336-0.281,0.477-0.453c0.14-0.172,0.247-0.355,0.322-0.549v-2.018
			c-0.193-0.496-0.495-0.895-0.904-1.195s-0.839-0.453-1.291-0.453c-0.334,0-0.638,0.074-0.912,0.219
			c-0.275,0.145-0.509,0.34-0.703,0.582c-0.193,0.242-0.342,0.52-0.443,0.83c-0.103,0.313-0.153,0.637-0.153,0.969
			c0,0.346,0.059,0.668,0.177,0.969c0.119,0.303,0.283,0.566,0.493,0.791c0.21,0.227,0.457,0.404,0.742,0.533
			S124.217,40.855,124.551,40.855z"/>
		<path fill="#542437" d="M134.658,42.697c-0.678,0-1.291-0.115-1.841-0.348c-0.549-0.23-1.017-0.545-1.404-0.943
			s-0.687-0.861-0.896-1.389s-0.314-1.082-0.314-1.664c0-0.602,0.103-1.17,0.307-1.703s0.501-1.002,0.888-1.404
			c0.388-0.404,0.858-0.725,1.413-0.961s1.176-0.355,1.865-0.355c0.688,0,1.305,0.119,1.849,0.355
			c0.543,0.236,1.006,0.555,1.389,0.953c0.382,0.398,0.673,0.861,0.872,1.389c0.198,0.527,0.298,1.076,0.298,1.646
			c0,0.139-0.002,0.273-0.008,0.402c-0.005,0.131-0.019,0.238-0.04,0.324h-6.539c0.032,0.334,0.112,0.629,0.242,0.887
			c0.129,0.26,0.296,0.48,0.5,0.662c0.205,0.184,0.437,0.324,0.694,0.42c0.259,0.098,0.527,0.146,0.808,0.146
			c0.431,0,0.837-0.105,1.219-0.314c0.382-0.211,0.644-0.488,0.783-0.832l1.856,0.516c-0.312,0.646-0.81,1.178-1.493,1.592
			S135.605,42.697,134.658,42.697z M136.854,37.596c-0.054-0.637-0.288-1.145-0.702-1.527c-0.415-0.381-0.918-0.572-1.51-0.572
			c-0.291,0-0.563,0.051-0.815,0.152c-0.253,0.104-0.477,0.246-0.67,0.43c-0.194,0.182-0.354,0.402-0.477,0.66
			c-0.124,0.26-0.196,0.545-0.218,0.857H136.854z"/>
	</g>
</g>
</svg>
