<?xml version="1.0" encoding="utf-8"?>
<!-- Generator: Adobe Illustrator 16.0.0, SVG Export Plug-In . SVG Version: 6.00 Build 0)  -->
<!DOCTYPE svg PUBLIC "-//W3C//DTD SVG 1.1//EN" "http://www.w3.org/Graphics/SVG/1.1/DTD/svg11.dtd">
<svg version="1.1" id="Layer_1" xmlns="http://www.w3.org/2000/svg" xmlns:xlink="http://www.w3.org/1999/xlink" x="0px" y="0px"
	 width="61px" height="61px" viewBox="0 0 61 61" enable-background="new 0 0 61 61" xml:space="preserve">
<g>
	<path fill="#DC5442" d="M24.409,16.939c-2.382-0.069-3.983,2.326-3.569,5.456c0.41,3.128,2.676,5.314,5.06,5.387
		c2.382,0.069,3.751-1.944,3.341-5.072C28.83,19.58,26.791,17.012,24.409,16.939z"/>
	<path fill="#DC5442" d="M25.41,34.188c-3.552-0.041-6.561,2.244-6.561,4.888c0,2.702,2.566,4.947,6.116,4.947
		c4.992,0,6.733-2.109,6.733-4.808c0-0.326-0.041-0.645-0.114-0.953c-0.393-1.53-1.945-2.365-3.875-3.705
		C27.01,34.331,26.238,34.195,25.41,34.188z"/>
	<path fill="#DC5442" d="M51.125,0.5H9.875C4.699,0.5,0.5,4.7,0.5,9.875v41.25c0,5.179,4.199,9.375,9.375,9.375h41.25
		c5.18,0,9.375-4.196,9.375-9.375V9.875C60.5,4.7,56.305,0.5,51.125,0.5z M32.792,22.575c0,1.955-1.082,3.53-2.612,4.728
		c-1.494,1.165-1.775,1.655-1.775,2.644c0,0.846,1.783,2.11,2.603,2.726c2.855,2.138,3.433,3.486,3.433,6.167
		c0,3.34-3.6,6.664-9.457,6.664c-5.137,0-9.473-2.091-9.473-5.43c0-3.396,3.596-6.93,8.733-6.93c0.56,0,1.073-0.015,1.604-0.015
		c-0.703-0.684-1.271-1.274-1.271-2.307c0-0.612,0.194-1.197,0.47-1.725c-0.279,0.022-0.564,0.037-0.857,0.037
		c-4.221,0-6.678-2.963-6.678-6.684c0-3.64,3.741-6.947,8.227-6.947c2.312,0,8.843,0,8.843,0l-1.976,2.073h-2.322
		C31.923,18.514,32.792,20.448,32.792,22.575z M45.488,22.029H41.41v4.08h-2.041v-4.08h-4.077v-2.04h4.077v-4.08h2.041v4.08h4.078
		V22.029z"/>
</g>
</svg>
