<?xml version="1.0" encoding="utf-8"?>
<!-- Generator: Adobe Illustrator 16.0.0, SVG Export Plug-In . SVG Version: 6.00 Build 0)  -->
<!DOCTYPE svg PUBLIC "-//W3C//DTD SVG 1.1//EN" "http://www.w3.org/Graphics/SVG/1.1/DTD/svg11.dtd">
<svg version="1.1" id="Layer_1" xmlns="http://www.w3.org/2000/svg" xmlns:xlink="http://www.w3.org/1999/xlink" x="0px" y="0px"
	 width="412px" height="75px" viewBox="0 0 412 75" enable-background="new 0 0 412 75" xml:space="preserve">
<path fill="#ECD078" d="M412,67.172c0,4.444-3.582,8.048-8,8.048H8.001C3.583,75.22,0,71.616,0,67.172V8.268
	C0,3.822,3.583,0.22,8.001,0.22H404c4.418,0,8,3.603,8,8.048V67.172z"/>
<g>
	<path fill="#542437" d="M69.249,46.219c-2.64,2.881-5.667,4.32-9.08,4.32c-1.92,0-3.687-0.412-5.3-1.24
		c-1.614-0.826-3.014-1.92-4.2-3.279c-1.187-1.36-2.114-2.9-2.78-4.62s-1-3.486-1-5.3c0-1.893,0.327-3.706,0.98-5.44
		c0.653-1.733,1.56-3.26,2.72-4.58c1.16-1.32,2.546-2.374,4.16-3.16c1.613-0.786,3.366-1.18,5.26-1.18
		c1.386,0,2.646,0.154,3.78,0.46c1.133,0.307,2.146,0.734,3.04,1.28c0.893,0.547,1.673,1.2,2.34,1.96
		c0.666,0.76,1.226,1.594,1.68,2.5l-2.16,1.44c-0.934-1.76-2.147-3.053-3.64-3.88c-1.494-0.826-3.187-1.24-5.08-1.24
		c-1.574,0-2.994,0.334-4.26,1c-1.267,0.667-2.347,1.554-3.24,2.66c-0.894,1.107-1.58,2.374-2.06,3.8
		c-0.48,1.427-0.72,2.9-0.72,4.42c0,1.6,0.273,3.121,0.82,4.56c0.546,1.439,1.3,2.7,2.26,3.78s2.086,1.94,3.38,2.58
		c1.293,0.64,2.7,0.96,4.22,0.96c1.626,0,3.173-0.381,4.64-1.141c1.466-0.76,2.88-1.953,4.24-3.58v-4.76h-6.28v-2.16h8.68v13.96
		h-2.4V46.219z"/>
	<path fill="#542437" d="M85.888,50.739c-1.52,0-2.914-0.286-4.18-0.86c-1.267-0.572-2.36-1.353-3.28-2.34
		c-0.92-0.986-1.634-2.133-2.14-3.439c-0.507-1.307-0.76-2.68-0.76-4.12c0-1.466,0.26-2.853,0.78-4.16
		c0.52-1.306,1.24-2.453,2.16-3.44c0.92-0.986,2.013-1.773,3.28-2.36c1.267-0.586,2.646-0.88,4.14-0.88
		c1.493,0,2.873,0.294,4.14,0.88c1.266,0.587,2.36,1.374,3.28,2.36c0.92,0.987,1.64,2.134,2.16,3.44
		c0.52,1.307,0.78,2.694,0.78,4.16c0,1.44-0.26,2.813-0.78,4.12s-1.24,2.453-2.16,3.439c-0.92,0.987-2.014,1.768-3.28,2.34
		C88.761,50.453,87.381,50.739,85.888,50.739z M78.328,40.02c0,1.174,0.193,2.26,0.58,3.26c0.386,1,0.92,1.88,1.6,2.641
		c0.68,0.76,1.48,1.354,2.4,1.779c0.92,0.428,1.9,0.641,2.94,0.641s2.02-0.221,2.94-0.66c0.92-0.44,1.727-1.041,2.42-1.801
		c0.693-0.76,1.24-1.646,1.64-2.66c0.4-1.013,0.6-2.105,0.6-3.279c0-1.146-0.2-2.233-0.6-3.26c-0.4-1.026-0.947-1.92-1.64-2.68
		c-0.694-0.76-1.494-1.36-2.4-1.8c-0.907-0.44-1.88-0.66-2.92-0.66s-2.02,0.22-2.94,0.66s-1.72,1.047-2.4,1.82
		c-0.68,0.773-1.22,1.673-1.62,2.7C78.528,37.746,78.328,38.846,78.328,40.02z"/>
	<path fill="#542437" d="M121.007,49.34c-0.16,0.08-0.394,0.187-0.7,0.319c-0.307,0.134-0.66,0.267-1.06,0.4
		c-0.4,0.134-0.854,0.253-1.36,0.36c-0.507,0.105-1.04,0.16-1.6,0.16c-0.586,0-1.146-0.08-1.68-0.24c-0.534-0.16-1-0.406-1.4-0.74
		c-0.4-0.334-0.72-0.754-0.96-1.26c-0.24-0.507-0.36-1.094-0.36-1.76V31.659h-2.88V29.5h2.88v-7.04h2.72v7.04h4.8v2.16h-4.8v14.16
		c0.053,0.774,0.32,1.34,0.8,1.7c0.48,0.359,1.053,0.54,1.72,0.54c0.773,0,1.453-0.126,2.04-0.38c0.586-0.254,0.96-0.434,1.12-0.541
		L121.007,49.34z"/>
	<path fill="#542437" d="M132.767,50.739c-1.52,0-2.914-0.286-4.18-0.86c-1.267-0.572-2.36-1.353-3.28-2.34
		c-0.92-0.986-1.634-2.133-2.14-3.439c-0.507-1.307-0.76-2.68-0.76-4.12c0-1.466,0.26-2.853,0.78-4.16
		c0.52-1.306,1.24-2.453,2.16-3.44c0.92-0.986,2.013-1.773,3.28-2.36c1.267-0.586,2.646-0.88,4.14-0.88
		c1.493,0,2.873,0.294,4.14,0.88c1.266,0.587,2.36,1.374,3.28,2.36c0.92,0.987,1.64,2.134,2.16,3.44
		c0.52,1.307,0.78,2.694,0.78,4.16c0,1.44-0.26,2.813-0.78,4.12s-1.24,2.453-2.16,3.439c-0.92,0.987-2.014,1.768-3.28,2.34
		C135.64,50.453,134.26,50.739,132.767,50.739z M125.207,40.02c0,1.174,0.193,2.26,0.58,3.26c0.386,1,0.92,1.88,1.6,2.641
		c0.68,0.76,1.48,1.354,2.4,1.779c0.92,0.428,1.9,0.641,2.94,0.641s2.02-0.221,2.94-0.66c0.92-0.44,1.727-1.041,2.42-1.801
		c0.693-0.76,1.24-1.646,1.64-2.66c0.4-1.013,0.6-2.105,0.6-3.279c0-1.146-0.2-2.233-0.6-3.26c-0.4-1.026-0.947-1.92-1.64-2.68
		c-0.694-0.76-1.494-1.36-2.4-1.8c-0.907-0.44-1.88-0.66-2.92-0.66s-2.02,0.22-2.94,0.66s-1.72,1.047-2.4,1.82
		c-0.68,0.773-1.22,1.673-1.62,2.7C125.407,37.746,125.207,38.846,125.207,40.02z"/>
	<path fill="#542437" d="M175.326,50.34h-2.72V38.699c0-2.373-0.407-4.146-1.22-5.32c-0.814-1.173-2.007-1.76-3.58-1.76
		c-0.773,0-1.54,0.154-2.3,0.46c-0.76,0.307-1.474,0.727-2.14,1.26c-0.667,0.534-1.247,1.16-1.74,1.88
		c-0.494,0.72-0.86,1.507-1.1,2.36v12.76h-2.72V21.139h2.72v13.08c0.853-1.573,2.013-2.813,3.48-3.72
		c1.466-0.906,3.04-1.36,4.72-1.36c1.2,0,2.22,0.22,3.06,0.66c0.84,0.44,1.52,1.054,2.04,1.84c0.52,0.787,0.9,1.734,1.14,2.84
		c0.24,1.107,0.36,2.327,0.36,3.66V50.34z"/>
	<path fill="#542437" d="M189.966,50.739c-1.52,0-2.914-0.286-4.18-0.86c-1.267-0.572-2.36-1.353-3.28-2.34
		c-0.92-0.986-1.634-2.133-2.14-3.439c-0.507-1.307-0.76-2.68-0.76-4.12c0-1.466,0.26-2.853,0.78-4.16
		c0.52-1.306,1.24-2.453,2.16-3.44c0.92-0.986,2.013-1.773,3.28-2.36c1.267-0.586,2.646-0.88,4.14-0.88
		c1.493,0,2.873,0.294,4.14,0.88c1.266,0.587,2.36,1.374,3.28,2.36c0.92,0.987,1.641,2.134,2.16,3.44
		c0.52,1.307,0.78,2.694,0.78,4.16c0,1.44-0.261,2.813-0.78,4.12s-1.24,2.453-2.16,3.439c-0.92,0.987-2.014,1.768-3.28,2.34
		C192.839,50.453,191.459,50.739,189.966,50.739z M182.406,40.02c0,1.174,0.193,2.26,0.58,3.26c0.386,1,0.92,1.88,1.6,2.641
		c0.68,0.76,1.48,1.354,2.4,1.779c0.92,0.428,1.9,0.641,2.94,0.641s2.02-0.221,2.94-0.66c0.92-0.44,1.727-1.041,2.42-1.801
		c0.693-0.76,1.24-1.646,1.64-2.66c0.4-1.013,0.601-2.105,0.601-3.279c0-1.146-0.2-2.233-0.601-3.26
		c-0.399-1.026-0.946-1.92-1.64-2.68c-0.694-0.76-1.494-1.36-2.4-1.8c-0.907-0.44-1.88-0.66-2.92-0.66s-2.02,0.22-2.94,0.66
		s-1.72,1.047-2.4,1.82c-0.68,0.773-1.22,1.673-1.62,2.7C182.606,37.746,182.406,38.846,182.406,40.02z"/>
	<path fill="#542437" d="M235.766,50.34h-2.721V38.699c0-2.426-0.379-4.213-1.141-5.36c-0.76-1.146-1.912-1.72-3.459-1.72
		c-0.801,0-1.555,0.147-2.26,0.44c-0.707,0.293-1.359,0.707-1.961,1.24c-0.6,0.534-1.127,1.167-1.58,1.9
		c-0.453,0.734-0.799,1.54-1.039,2.42V50.34h-2.721V38.699c0-2.48-0.373-4.28-1.119-5.4c-0.748-1.12-1.895-1.68-3.439-1.68
		c-1.574,0-2.975,0.547-4.201,1.64c-1.227,1.094-2.107,2.534-2.641,4.32v12.76h-2.719V29.5h2.48v4.72
		c0.852-1.6,1.973-2.846,3.359-3.74c1.387-0.893,2.92-1.34,4.6-1.34c1.76,0,3.174,0.494,4.24,1.48c1.066,0.987,1.707,2.28,1.92,3.88
		c1.945-3.573,4.641-5.36,8.08-5.36c1.146,0,2.127,0.214,2.939,0.64c0.814,0.427,1.467,1.034,1.961,1.82
		c0.492,0.787,0.854,1.734,1.08,2.84c0.227,1.107,0.34,2.34,0.34,3.7V50.34z"/>
	<path fill="#542437" d="M250.525,50.739c-1.521,0-2.92-0.286-4.201-0.86c-1.279-0.572-2.387-1.359-3.32-2.359
		s-1.658-2.153-2.18-3.46c-0.52-1.307-0.779-2.706-0.779-4.2c0-1.466,0.26-2.846,0.779-4.14c0.521-1.293,1.246-2.426,2.18-3.4
		c0.934-0.973,2.033-1.746,3.301-2.32c1.266-0.573,2.66-0.86,4.18-0.86s2.914,0.287,4.18,0.86c1.268,0.574,2.354,1.354,3.262,2.34
		c0.906,0.987,1.611,2.12,2.119,3.4c0.506,1.28,0.76,2.64,0.76,4.08c0,0.214-0.006,0.427-0.02,0.64
		c-0.014,0.215-0.033,0.36-0.061,0.44h-17.799c0.078,1.12,0.34,2.153,0.779,3.101c0.439,0.946,1,1.766,1.68,2.459
		c0.68,0.694,1.467,1.234,2.359,1.621c0.895,0.387,1.848,0.579,2.861,0.579c0.693,0,1.373-0.093,2.039-0.28
		c0.666-0.186,1.281-0.439,1.84-0.76c0.561-0.32,1.061-0.713,1.5-1.18c0.441-0.467,0.781-0.98,1.02-1.54l2.361,0.64
		c-0.32,0.773-0.773,1.475-1.361,2.1c-0.586,0.627-1.266,1.174-2.039,1.641s-1.627,0.827-2.561,1.08S251.512,50.739,250.525,50.739z
		 M258.205,38.819c-0.08-1.12-0.34-2.14-0.779-3.06c-0.441-0.92-1-1.713-1.682-2.38c-0.68-0.667-1.473-1.187-2.379-1.56
		c-0.908-0.373-1.867-0.56-2.881-0.56s-1.973,0.187-2.879,0.56c-0.908,0.374-1.701,0.894-2.381,1.56
		c-0.68,0.667-1.227,1.467-1.641,2.4c-0.412,0.934-0.658,1.947-0.738,3.04H258.205z"/>
	<path fill="#542437" d="M285.803,50.739c-1.76,0-3.318-0.446-4.68-1.34c-1.359-0.894-2.453-2.021-3.279-3.38v12.84h-2.721V29.5
		h2.441v4.04c0.852-1.307,1.959-2.366,3.318-3.18c1.361-0.813,2.84-1.22,4.441-1.22c1.439,0,2.766,0.3,3.979,0.9
		c1.215,0.6,2.262,1.4,3.141,2.4c0.881,1,1.566,2.154,2.061,3.46c0.492,1.307,0.74,2.653,0.74,4.04c0,1.467-0.227,2.854-0.68,4.16
		c-0.455,1.307-1.102,2.453-1.941,3.439c-0.84,0.987-1.84,1.768-3,2.34C288.463,50.453,287.189,50.739,285.803,50.739z
		 M285.043,48.34c1.121,0,2.133-0.24,3.041-0.721c0.906-0.48,1.686-1.113,2.34-1.9c0.652-0.785,1.152-1.68,1.5-2.68
		c0.346-1,0.52-2.033,0.52-3.1c0-1.12-0.199-2.187-0.6-3.2c-0.4-1.013-0.947-1.906-1.641-2.68s-1.514-1.386-2.459-1.84
		c-0.947-0.453-1.967-0.68-3.061-0.68c-0.693,0-1.414,0.14-2.16,0.42c-0.746,0.28-1.453,0.654-2.119,1.12
		c-0.668,0.467-1.234,1.014-1.701,1.64c-0.467,0.627-0.754,1.287-0.859,1.98v6.4c0.32,0.746,0.727,1.439,1.221,2.08
		c0.492,0.64,1.053,1.193,1.68,1.66c0.625,0.467,1.307,0.834,2.039,1.1C283.518,48.206,284.27,48.34,285.043,48.34z"/>
	<path fill="#542437" d="M305.244,50.739c-1.068,0-2.041-0.167-2.922-0.5c-0.879-0.333-1.633-0.793-2.26-1.38
		c-0.627-0.586-1.113-1.266-1.459-2.04c-0.348-0.772-0.52-1.587-0.52-2.44c0-0.959,0.213-1.832,0.639-2.619
		c0.428-0.787,1.027-1.461,1.801-2.021s1.699-0.993,2.779-1.3c1.08-0.306,2.273-0.46,3.58-0.46c1.041,0,2.107,0.094,3.201,0.28
		c1.092,0.187,2.066,0.454,2.92,0.8v-1.88c0-1.84-0.527-3.3-1.58-4.38c-1.055-1.08-2.475-1.62-4.26-1.62
		c-1.121,0-2.234,0.214-3.342,0.64c-1.105,0.427-2.232,1.04-3.379,1.84l-0.961-1.8c1.361-0.906,2.682-1.586,3.961-2.04
		c1.279-0.453,2.613-0.68,4-0.68c2.533,0,4.547,0.734,6.039,2.2c1.494,1.467,2.24,3.494,2.24,6.08v9.4c0,0.747,0.32,1.12,0.961,1.12
		v2.4c-0.215,0.025-0.414,0.046-0.6,0.06c-0.188,0.013-0.348,0.021-0.48,0.021c-0.533,0-1.02-0.16-1.461-0.48
		c-0.439-0.32-0.686-0.801-0.74-1.439l-0.08-1.641c-0.906,1.227-2.1,2.18-3.578,2.859C308.264,50.399,306.764,50.739,305.244,50.739
		z M305.924,48.659c1.199,0,2.393-0.26,3.58-0.78c1.186-0.52,2.125-1.232,2.818-2.14c0.188-0.239,0.348-0.5,0.48-0.78
		c0.133-0.279,0.201-0.539,0.201-0.779v-3.4c-0.908-0.346-1.854-0.613-2.84-0.8c-0.988-0.187-1.947-0.28-2.881-0.28
		c-1.947,0-3.527,0.395-4.74,1.18c-1.213,0.787-1.82,1.874-1.82,3.26c0,0.561,0.107,1.107,0.32,1.641s0.541,1.014,0.98,1.439
		c0.439,0.428,0.98,0.774,1.619,1.041C304.283,48.526,305.043,48.659,305.924,48.659z"/>
	<path fill="#542437" d="M330.084,50.619c-1.441,0-2.754-0.3-3.941-0.9c-1.186-0.6-2.213-1.393-3.08-2.379s-1.539-2.121-2.02-3.4
		c-0.48-1.28-0.721-2.6-0.721-3.96c0-1.44,0.234-2.82,0.701-4.14s1.125-2.473,1.98-3.46c0.852-0.986,1.873-1.773,3.059-2.36
		c1.188-0.586,2.5-0.88,3.941-0.88c1.785,0,3.332,0.447,4.639,1.34c1.307,0.894,2.428,2.02,3.361,3.38V29.5h2.439v20.92
		c0,1.439-0.273,2.713-0.82,3.819s-1.279,2.033-2.199,2.78c-0.92,0.746-2.008,1.307-3.26,1.68c-1.254,0.373-2.574,0.561-3.961,0.561
		c-2.373,0-4.293-0.428-5.76-1.28c-1.467-0.854-2.654-2-3.561-3.44l1.68-1.32c0.826,1.334,1.92,2.314,3.281,2.94
		c1.359,0.626,2.813,0.94,4.359,0.94c1.014,0,1.98-0.141,2.9-0.42c0.92-0.28,1.719-0.693,2.4-1.24c0.68-0.547,1.219-1.24,1.619-2.08
		s0.6-1.82,0.6-2.939v-4.121c-0.826,1.334-1.926,2.387-3.299,3.16C333.049,50.232,331.604,50.619,330.084,50.619z M330.844,48.34
		c0.799,0,1.586-0.146,2.359-0.44c0.773-0.293,1.473-0.687,2.1-1.181c0.627-0.492,1.154-1.045,1.58-1.659
		c0.426-0.613,0.707-1.24,0.84-1.88v-6.44c-0.293-0.746-0.699-1.44-1.219-2.08c-0.521-0.64-1.102-1.186-1.74-1.64
		c-0.641-0.453-1.328-0.813-2.061-1.08c-0.734-0.266-1.475-0.4-2.221-0.4c-1.174,0-2.213,0.247-3.119,0.74
		c-0.906,0.494-1.68,1.14-2.32,1.94c-0.641,0.8-1.127,1.707-1.459,2.72c-0.334,1.014-0.5,2.04-0.5,3.08
		c0,1.119,0.199,2.187,0.6,3.199c0.4,1.014,0.945,1.9,1.639,2.66s1.514,1.36,2.461,1.801C328.729,48.119,329.75,48.34,330.844,48.34
		z"/>
	<path fill="#542437" d="M355.402,50.739c-1.52,0-2.92-0.286-4.199-0.86c-1.281-0.572-2.387-1.359-3.32-2.359s-1.66-2.153-2.18-3.46
		s-0.781-2.706-0.781-4.2c0-1.466,0.262-2.846,0.781-4.14c0.52-1.293,1.246-2.426,2.18-3.4c0.934-0.973,2.033-1.746,3.301-2.32
		c1.266-0.573,2.66-0.86,4.18-0.86s2.912,0.287,4.18,0.86c1.266,0.574,2.354,1.354,3.26,2.34c0.906,0.987,1.613,2.12,2.119,3.4
		c0.508,1.28,0.762,2.64,0.762,4.08c0,0.214-0.008,0.427-0.021,0.64c-0.014,0.215-0.033,0.36-0.059,0.44h-17.801
		c0.08,1.12,0.34,2.153,0.779,3.101c0.441,0.946,1,1.766,1.682,2.459c0.68,0.694,1.465,1.234,2.359,1.621
		c0.893,0.387,1.846,0.579,2.859,0.579c0.693,0,1.373-0.093,2.041-0.28c0.666-0.186,1.279-0.439,1.84-0.76
		c0.559-0.32,1.059-0.713,1.5-1.18c0.439-0.467,0.779-0.98,1.02-1.54l2.359,0.64c-0.32,0.773-0.773,1.475-1.359,2.1
		c-0.586,0.627-1.268,1.174-2.039,1.641c-0.775,0.467-1.627,0.827-2.561,1.08S356.389,50.739,355.402,50.739z M363.082,38.819
		c-0.08-1.12-0.34-2.14-0.779-3.06s-1-1.713-1.68-2.38c-0.68-0.667-1.475-1.187-2.381-1.56c-0.906-0.373-1.867-0.56-2.879-0.56
		c-1.014,0-1.975,0.187-2.881,0.56c-0.906,0.374-1.699,0.894-2.379,1.56c-0.682,0.667-1.229,1.467-1.641,2.4
		c-0.414,0.934-0.66,1.947-0.74,3.04H363.082z"/>
</g>
</svg>
