<?xml version="1.0" encoding="utf-8"?>
<!-- Generator: Adobe Illustrator 16.0.0, SVG Export Plug-In . SVG Version: 6.00 Build 0)  -->
<!DOCTYPE svg PUBLIC "-//W3C//DTD SVG 1.1//EN" "http://www.w3.org/Graphics/SVG/1.1/DTD/svg11.dtd">
<svg version="1.1" id="Layer_1" xmlns="http://www.w3.org/2000/svg" xmlns:xlink="http://www.w3.org/1999/xlink" x="0px" y="0px"
	 width="412px" height="75px" viewBox="0 0 412 75" enable-background="new 0 0 412 75" xml:space="preserve">
<g>
	<path fill="#ECD078" d="M411.934,66.995c0,4.418-3.582,8-8,8H8c-4.418,0-8-3.582-8-8V8.445c0-4.419,3.582-8,8-8h395.934
		c4.418,0,8,3.581,8,8V66.995z"/>
	<g>
		<path fill="#542437" d="M70.849,46.219c-2.64,2.881-5.667,4.32-9.08,4.32c-1.92,0-3.687-0.412-5.3-1.24
			c-1.614-0.826-3.014-1.92-4.2-3.279c-1.187-1.36-2.114-2.9-2.78-4.62s-1-3.486-1-5.299c0-1.894,0.327-3.707,0.98-5.44
			s1.56-3.26,2.72-4.579c1.16-1.32,2.546-2.374,4.16-3.16c1.613-0.787,3.366-1.181,5.26-1.181c1.386,0,2.646,0.153,3.78,0.46
			c1.133,0.307,2.146,0.734,3.04,1.28c0.893,0.547,1.673,1.2,2.34,1.96c0.666,0.76,1.226,1.594,1.68,2.5l-2.16,1.439
			c-0.934-1.76-2.147-3.053-3.64-3.879c-1.494-0.826-3.187-1.24-5.08-1.24c-1.574,0-2.994,0.334-4.26,1
			c-1.267,0.666-2.347,1.553-3.24,2.66c-0.894,1.106-1.58,2.373-2.06,3.799c-0.48,1.428-0.72,2.9-0.72,4.42
			c0,1.601,0.273,3.121,0.82,4.56c0.546,1.439,1.3,2.7,2.26,3.78s2.086,1.94,3.38,2.58c1.293,0.64,2.7,0.96,4.22,0.96
			c1.626,0,3.173-0.381,4.64-1.141c1.466-0.76,2.88-1.953,4.24-3.58v-4.76h-6.28v-2.16h8.68v13.96h-2.4V46.219z"/>
		<path fill="#542437" d="M87.488,50.739c-1.52,0-2.914-0.286-4.18-0.86c-1.267-0.572-2.36-1.353-3.28-2.34
			c-0.92-0.986-1.634-2.133-2.14-3.439c-0.507-1.307-0.76-2.68-0.76-4.12c0-1.466,0.26-2.852,0.78-4.16
			c0.52-1.306,1.24-2.453,2.16-3.44c0.92-0.986,2.013-1.772,3.28-2.359c1.267-0.586,2.646-0.881,4.14-0.881
			c1.493,0,2.873,0.295,4.14,0.881c1.266,0.587,2.36,1.373,3.28,2.359c0.92,0.987,1.64,2.135,2.16,3.44
			c0.52,1.308,0.78,2.694,0.78,4.16c0,1.44-0.26,2.813-0.78,4.12s-1.24,2.453-2.16,3.439c-0.92,0.987-2.014,1.768-3.28,2.34
			C90.361,50.453,88.981,50.739,87.488,50.739z M79.928,40.02c0,1.174,0.193,2.26,0.58,3.26c0.386,1,0.92,1.88,1.6,2.641
			c0.68,0.76,1.48,1.354,2.4,1.779c0.92,0.428,1.9,0.641,2.94,0.641s2.02-0.221,2.94-0.66c0.92-0.44,1.727-1.041,2.42-1.801
			c0.693-0.76,1.24-1.646,1.64-2.66c0.4-1.013,0.6-2.105,0.6-3.279c0-1.146-0.2-2.233-0.6-3.259s-0.947-1.92-1.64-2.68
			c-0.694-0.761-1.494-1.361-2.4-1.801c-0.907-0.439-1.88-0.66-2.92-0.66s-2.02,0.221-2.94,0.66s-1.72,1.047-2.4,1.82
			c-0.68,0.773-1.22,1.674-1.62,2.699C80.128,37.747,79.928,38.846,79.928,40.02z"/>
		<path fill="#542437" d="M122.607,49.34c-0.16,0.08-0.394,0.187-0.7,0.319c-0.307,0.134-0.66,0.267-1.06,0.4
			c-0.4,0.134-0.854,0.253-1.36,0.36c-0.507,0.105-1.04,0.16-1.6,0.16c-0.586,0-1.146-0.08-1.68-0.24c-0.534-0.16-1-0.406-1.4-0.74
			c-0.4-0.334-0.72-0.754-0.96-1.26c-0.24-0.507-0.36-1.094-0.36-1.76V31.66h-2.88V29.5h2.88v-7.041h2.72V29.5h4.8v2.159h-4.8v14.16
			c0.053,0.774,0.32,1.34,0.8,1.7c0.48,0.359,1.053,0.54,1.72,0.54c0.773,0,1.453-0.126,2.04-0.38
			c0.586-0.254,0.96-0.434,1.12-0.541L122.607,49.34z"/>
		<path fill="#542437" d="M134.367,50.739c-1.52,0-2.914-0.286-4.18-0.86c-1.267-0.572-2.36-1.353-3.28-2.34
			c-0.92-0.986-1.634-2.133-2.14-3.439c-0.507-1.307-0.76-2.68-0.76-4.12c0-1.466,0.26-2.852,0.78-4.16
			c0.52-1.306,1.24-2.453,2.16-3.44c0.92-0.986,2.013-1.772,3.28-2.359c1.267-0.586,2.646-0.881,4.14-0.881
			c1.493,0,2.873,0.295,4.14,0.881c1.266,0.587,2.36,1.373,3.28,2.359c0.92,0.987,1.64,2.135,2.16,3.44
			c0.52,1.308,0.78,2.694,0.78,4.16c0,1.44-0.26,2.813-0.78,4.12s-1.24,2.453-2.16,3.439c-0.92,0.987-2.014,1.768-3.28,2.34
			C137.24,50.453,135.86,50.739,134.367,50.739z M126.807,40.02c0,1.174,0.193,2.26,0.58,3.26c0.386,1,0.92,1.88,1.6,2.641
			c0.68,0.76,1.48,1.354,2.4,1.779c0.92,0.428,1.9,0.641,2.94,0.641s2.02-0.221,2.94-0.66c0.92-0.44,1.727-1.041,2.42-1.801
			c0.693-0.76,1.24-1.646,1.64-2.66c0.4-1.013,0.6-2.105,0.6-3.279c0-1.146-0.2-2.233-0.6-3.259s-0.947-1.92-1.64-2.68
			c-0.694-0.761-1.494-1.361-2.4-1.801c-0.907-0.439-1.88-0.66-2.92-0.66s-2.02,0.221-2.94,0.66s-1.72,1.047-2.4,1.82
			c-0.68,0.773-1.22,1.674-1.62,2.699C127.007,37.747,126.807,38.846,126.807,40.02z"/>
		<path fill="#542437" d="M168.526,50.739c-1.52,0-2.92-0.286-4.2-0.86c-1.28-0.572-2.387-1.359-3.32-2.359
			c-0.934-1-1.66-2.153-2.18-3.46s-0.78-2.706-0.78-4.2c0-1.466,0.26-2.845,0.78-4.14c0.52-1.293,1.247-2.426,2.18-3.399
			c0.933-0.974,2.033-1.746,3.3-2.319c1.267-0.574,2.66-0.861,4.18-0.861s2.913,0.287,4.18,0.861c1.266,0.573,2.353,1.354,3.26,2.34
			c0.906,0.986,1.613,2.119,2.12,3.399c0.506,1.28,0.76,2.64,0.76,4.08c0,0.214-0.007,0.427-0.02,0.64
			c-0.014,0.215-0.034,0.36-0.06,0.44h-17.8c0.08,1.12,0.34,2.153,0.78,3.101c0.44,0.946,1,1.766,1.68,2.459
			c0.68,0.694,1.466,1.234,2.36,1.621s1.847,0.579,2.86,0.579c0.693,0,1.373-0.093,2.04-0.28c0.666-0.186,1.28-0.439,1.84-0.76
			s1.06-0.713,1.5-1.18s0.78-0.98,1.02-1.54l2.36,0.64c-0.32,0.773-0.773,1.475-1.36,2.1c-0.587,0.627-1.267,1.174-2.04,1.641
			c-0.774,0.467-1.627,0.827-2.56,1.08C170.473,50.612,169.513,50.739,168.526,50.739z M176.207,38.819
			c-0.08-1.12-0.34-2.139-0.78-3.059s-1-1.713-1.68-2.381c-0.68-0.666-1.474-1.186-2.38-1.56c-0.907-0.373-1.867-0.56-2.88-0.56
			c-1.014,0-1.974,0.187-2.88,0.56c-0.907,0.374-1.7,0.894-2.38,1.56c-0.68,0.668-1.227,1.467-1.64,2.4
			c-0.414,0.934-0.66,1.947-0.74,3.04H176.207z"/>
		<path fill="#542437" d="M188.566,50.34l-8.48-20.839h2.84l7.16,18.319l7.2-18.319h2.639l-8.479,20.839H188.566z"/>
		<path fill="#542437" d="M212.646,50.739c-1.521,0-2.92-0.286-4.201-0.86c-1.279-0.572-2.386-1.359-3.32-2.359
			c-0.934-1-1.659-2.153-2.18-3.46c-0.52-1.307-0.78-2.706-0.78-4.2c0-1.466,0.261-2.845,0.78-4.14
			c0.521-1.293,1.246-2.426,2.18-3.399c0.934-0.974,2.033-1.746,3.3-2.319c1.266-0.574,2.66-0.861,4.18-0.861
			s2.914,0.287,4.18,0.861c1.268,0.573,2.354,1.354,3.262,2.34c0.906,0.986,1.611,2.119,2.119,3.399c0.506,1.28,0.76,2.64,0.76,4.08
			c0,0.214-0.006,0.427-0.02,0.64c-0.014,0.215-0.033,0.36-0.061,0.44h-17.799c0.079,1.12,0.339,2.153,0.779,3.101
			c0.441,0.946,1,1.766,1.681,2.459c0.68,0.694,1.467,1.234,2.359,1.621c0.895,0.387,1.848,0.579,2.861,0.579
			c0.693,0,1.373-0.093,2.039-0.28c0.666-0.186,1.281-0.439,1.84-0.76c0.561-0.32,1.061-0.713,1.5-1.18
			c0.441-0.467,0.781-0.98,1.02-1.54l2.361,0.64c-0.32,0.773-0.773,1.475-1.361,2.1c-0.586,0.627-1.266,1.174-2.039,1.641
			s-1.627,0.827-2.561,1.08S213.633,50.739,212.646,50.739z M220.326,38.819c-0.08-1.12-0.34-2.139-0.779-3.059
			c-0.441-0.92-1-1.713-1.682-2.381c-0.68-0.666-1.473-1.186-2.379-1.56c-0.908-0.373-1.867-0.56-2.881-0.56
			s-1.973,0.187-2.879,0.56c-0.908,0.374-1.701,0.894-2.381,1.56c-0.681,0.668-1.228,1.467-1.64,2.4
			c-0.414,0.934-0.66,1.947-0.74,3.04H220.326z"/>
		<path fill="#542437" d="M244.525,50.34h-2.721V38.699c0-2.48-0.359-4.279-1.08-5.4c-0.719-1.119-1.84-1.68-3.359-1.68
			c-0.799,0-1.6,0.146-2.4,0.44c-0.799,0.294-1.547,0.706-2.24,1.239c-0.693,0.534-1.299,1.168-1.818,1.9
			c-0.521,0.734-0.914,1.527-1.182,2.381V50.34h-2.719V29.5h2.48v4.719c0.426-0.746,0.953-1.433,1.58-2.06
			c0.625-0.626,1.326-1.166,2.1-1.62c0.773-0.453,1.592-0.8,2.459-1.039c0.867-0.24,1.768-0.361,2.701-0.361
			c1.172,0,2.152,0.215,2.939,0.641c0.785,0.427,1.42,1.027,1.9,1.801c0.479,0.773,0.826,1.719,1.039,2.84
			c0.213,1.119,0.32,2.359,0.32,3.719V50.34z"/>
		<path fill="#542437" d="M260.086,49.34c-0.16,0.08-0.395,0.187-0.701,0.319c-0.307,0.134-0.66,0.267-1.059,0.4
			c-0.4,0.134-0.854,0.253-1.361,0.36c-0.506,0.105-1.039,0.16-1.6,0.16c-0.586,0-1.146-0.08-1.68-0.24s-1-0.406-1.4-0.74
			s-0.719-0.754-0.959-1.26c-0.24-0.507-0.361-1.094-0.361-1.76V31.66h-2.879V29.5h2.879v-7.041h2.721V29.5h4.801v2.159h-4.801
			v14.16c0.053,0.774,0.32,1.34,0.801,1.7c0.479,0.359,1.053,0.54,1.719,0.54c0.773,0,1.453-0.126,2.041-0.38
			c0.586-0.254,0.959-0.434,1.119-0.541L260.086,49.34z"/>
		<path fill="#542437" d="M284.205,50.739c-1.76,0-3.32-0.446-4.68-1.34c-1.361-0.894-2.455-2.021-3.281-3.38v12.84h-2.719V29.5
			h2.439v4.039c0.854-1.307,1.961-2.365,3.32-3.18c1.359-0.813,2.84-1.221,4.439-1.221c1.439,0,2.768,0.301,3.98,0.9
			s2.26,1.4,3.141,2.4c0.879,1,1.566,2.154,2.059,3.46c0.494,1.307,0.74,2.653,0.74,4.04c0,1.467-0.227,2.854-0.68,4.16
			s-1.1,2.453-1.939,3.439c-0.84,0.987-1.84,1.768-3,2.34C286.865,50.453,285.592,50.739,284.205,50.739z M283.445,48.34
			c1.119,0,2.133-0.24,3.039-0.721s1.688-1.113,2.34-1.9c0.654-0.785,1.154-1.68,1.5-2.68c0.348-1,0.521-2.033,0.521-3.1
			c0-1.12-0.201-2.186-0.602-3.2c-0.398-1.013-0.945-1.906-1.639-2.68s-1.514-1.386-2.461-1.841c-0.947-0.453-1.967-0.68-3.059-0.68
			c-0.695,0-1.414,0.141-2.16,0.42c-0.748,0.28-1.455,0.654-2.121,1.121s-1.234,1.014-1.699,1.639
			c-0.467,0.627-0.754,1.287-0.861,1.98v6.4c0.32,0.746,0.727,1.439,1.221,2.08c0.494,0.64,1.053,1.193,1.68,1.66
			s1.307,0.834,2.041,1.1C281.918,48.206,282.672,48.34,283.445,48.34z"/>
		<path fill="#542437" d="M303.645,50.739c-1.066,0-2.039-0.167-2.92-0.5s-1.633-0.793-2.26-1.38
			c-0.627-0.586-1.113-1.266-1.461-2.04c-0.346-0.772-0.52-1.587-0.52-2.44c0-0.959,0.213-1.832,0.641-2.619
			c0.426-0.787,1.025-1.461,1.799-2.021s1.701-0.993,2.781-1.299c1.08-0.307,2.273-0.46,3.58-0.46c1.039,0,2.105,0.094,3.199,0.28
			s2.066,0.453,2.92,0.799V37.18c0-1.84-0.527-3.301-1.58-4.381s-2.473-1.619-4.26-1.619c-1.119,0-2.234,0.213-3.34,0.64
			c-1.107,0.427-2.234,1.04-3.381,1.84l-0.959-1.8c1.359-0.906,2.68-1.586,3.959-2.04c1.281-0.453,2.613-0.681,4-0.681
			c2.533,0,4.547,0.734,6.041,2.201c1.492,1.467,2.24,3.493,2.24,6.08v9.399c0,0.747,0.32,1.12,0.959,1.12v2.4
			c-0.213,0.025-0.414,0.046-0.6,0.06c-0.188,0.013-0.346,0.021-0.48,0.021c-0.533,0-1.02-0.16-1.459-0.48s-0.688-0.801-0.74-1.439
			l-0.08-1.641c-0.906,1.227-2.1,2.18-3.58,2.859C306.664,50.399,305.164,50.739,303.645,50.739z M304.324,48.659
			c1.201,0,2.393-0.26,3.58-0.78c1.188-0.52,2.127-1.232,2.82-2.14c0.186-0.239,0.346-0.5,0.48-0.78
			c0.133-0.279,0.199-0.539,0.199-0.779v-3.4c-0.906-0.346-1.854-0.613-2.84-0.8s-1.947-0.28-2.879-0.28
			c-1.947,0-3.527,0.395-4.74,1.18c-1.215,0.787-1.82,1.874-1.82,3.26c0,0.561,0.105,1.107,0.32,1.641
			c0.213,0.533,0.539,1.014,0.979,1.439c0.441,0.428,0.98,0.774,1.621,1.041S303.445,48.659,304.324,48.659z"/>
		<path fill="#542437" d="M328.484,50.619c-1.439,0-2.754-0.3-3.939-0.9c-1.188-0.6-2.215-1.393-3.08-2.379
			c-0.867-0.986-1.541-2.121-2.02-3.4c-0.48-1.28-0.721-2.6-0.721-3.96c0-1.44,0.232-2.82,0.699-4.139
			c0.467-1.32,1.127-2.474,1.98-3.461c0.854-0.986,1.873-1.772,3.061-2.359c1.186-0.586,2.5-0.881,3.939-0.881
			c1.787,0,3.334,0.447,4.641,1.341s2.426,2.021,3.359,3.38V29.5h2.439V50.42c0,1.439-0.273,2.713-0.818,3.819
			c-0.547,1.106-1.281,2.033-2.201,2.78c-0.92,0.746-2.006,1.307-3.26,1.68s-2.574,0.561-3.959,0.561
			c-2.375,0-4.295-0.428-5.762-1.28c-1.467-0.854-2.652-2-3.559-3.44l1.68-1.32c0.826,1.334,1.92,2.314,3.279,2.94
			c1.361,0.626,2.814,0.94,4.361,0.94c1.012,0,1.979-0.141,2.898-0.42c0.92-0.28,1.721-0.693,2.4-1.24s1.221-1.24,1.621-2.08
			c0.398-0.84,0.6-1.82,0.6-2.939v-4.121c-0.828,1.334-1.928,2.387-3.301,3.16S330.004,50.619,328.484,50.619z M329.244,48.34
			c0.801,0,1.586-0.146,2.361-0.44c0.771-0.293,1.473-0.687,2.1-1.181c0.625-0.492,1.152-1.045,1.58-1.659
			c0.426-0.613,0.705-1.24,0.84-1.88v-6.44c-0.295-0.746-0.701-1.44-1.221-2.08s-1.1-1.187-1.74-1.64
			c-0.639-0.453-1.326-0.813-2.059-1.08c-0.734-0.266-1.475-0.4-2.221-0.4c-1.174,0-2.215,0.247-3.121,0.74
			c-0.906,0.494-1.68,1.141-2.318,1.939c-0.641,0.801-1.127,1.707-1.461,2.721s-0.5,2.04-0.5,3.08c0,1.119,0.199,2.187,0.6,3.199
			c0.4,1.014,0.947,1.9,1.641,2.66s1.514,1.36,2.459,1.801C327.131,48.119,328.15,48.34,329.244,48.34z"/>
		<path fill="#542437" d="M353.805,50.739c-1.521,0-2.92-0.286-4.201-0.86c-1.279-0.572-2.387-1.359-3.32-2.359
			s-1.658-2.153-2.18-3.46c-0.52-1.307-0.779-2.706-0.779-4.2c0-1.466,0.26-2.845,0.779-4.14c0.521-1.293,1.246-2.426,2.18-3.399
			s2.033-1.746,3.301-2.319c1.266-0.574,2.66-0.861,4.18-0.861s2.914,0.287,4.18,0.861c1.268,0.573,2.354,1.354,3.262,2.34
			c0.906,0.986,1.611,2.119,2.119,3.399c0.506,1.28,0.76,2.64,0.76,4.08c0,0.214-0.006,0.427-0.02,0.64
			c-0.014,0.215-0.033,0.36-0.061,0.44h-17.799c0.078,1.12,0.34,2.153,0.779,3.101c0.439,0.946,1,1.766,1.68,2.459
			c0.68,0.694,1.467,1.234,2.359,1.621c0.895,0.387,1.848,0.579,2.861,0.579c0.693,0,1.373-0.093,2.039-0.28
			c0.666-0.186,1.281-0.439,1.84-0.76c0.561-0.32,1.061-0.713,1.5-1.18c0.441-0.467,0.781-0.98,1.02-1.54l2.361,0.64
			c-0.32,0.773-0.773,1.475-1.361,2.1c-0.586,0.627-1.266,1.174-2.039,1.641s-1.627,0.827-2.561,1.08S354.791,50.739,353.805,50.739
			z M361.484,38.819c-0.08-1.12-0.34-2.139-0.779-3.059c-0.441-0.92-1-1.713-1.682-2.381c-0.68-0.666-1.473-1.186-2.379-1.56
			c-0.908-0.373-1.867-0.56-2.881-0.56s-1.973,0.187-2.879,0.56c-0.908,0.374-1.701,0.894-2.381,1.56
			c-0.68,0.668-1.227,1.467-1.641,2.4c-0.412,0.934-0.658,1.947-0.738,3.04H361.484z"/>
	</g>
</g>
</svg>
