<?xml version="1.0" encoding="utf-8"?>
<!-- Generator: Adobe Illustrator 16.0.0, SVG Export Plug-In . SVG Version: 6.00 Build 0)  -->
<!DOCTYPE svg PUBLIC "-//W3C//DTD SVG 1.1//EN" "http://www.w3.org/Graphics/SVG/1.1/DTD/svg11.dtd">
<svg version="1.1" id="Layer_1" xmlns="http://www.w3.org/2000/svg" xmlns:xlink="http://www.w3.org/1999/xlink" x="0px" y="0px"
	 width="68px" height="780px" viewBox="0 0 68 780" enable-background="new 0 0 68 780" xml:space="preserve">
<rect x="87" y="-24" fill="#FFFFFF" width="224" height="839"/>
<g>
	<path fill="#542437" d="M24.88,141.664c0,1.2-0.24,2.254-0.72,3.16c-0.48,0.907-1.14,1.667-1.98,2.28
		c-0.84,0.613-1.814,1.08-2.92,1.399c-1.107,0.32-2.287,0.48-3.54,0.48H2v-28.4h15.2c0.986,0,1.88,0.214,2.68,0.641
		c0.8,0.427,1.48,0.979,2.04,1.66c0.56,0.68,0.993,1.453,1.3,2.319c0.306,0.867,0.46,1.74,0.46,2.62c0,1.387-0.347,2.688-1.04,3.9
		c-0.694,1.214-1.707,2.113-3.04,2.7c1.626,0.479,2.913,1.34,3.86,2.579C24.406,138.244,24.88,139.798,24.88,141.664z M7.52,125.305
		v7.16h7.36c0.933,0,1.727-0.32,2.38-0.961c0.653-0.64,0.98-1.52,0.98-2.64c0-1.093-0.3-1.96-0.9-2.6
		c-0.6-0.641-1.34-0.96-2.22-0.96H7.52z M19.32,140.624c0-0.506-0.086-0.993-0.26-1.46c-0.174-0.466-0.407-0.873-0.7-1.22
		s-0.64-0.62-1.04-0.82c-0.4-0.199-0.84-0.3-1.32-0.3H7.52v7.48h8.2c0.506,0,0.98-0.094,1.42-0.28s0.82-0.446,1.14-0.78
		c0.32-0.333,0.573-0.726,0.76-1.18C19.226,141.611,19.32,141.131,19.32,140.624z"/>
</g>
<g>
	<path fill="#542437" d="M58.839,141.664c0,1.2-0.239,2.254-0.72,3.16c-0.48,0.907-1.141,1.667-1.98,2.28s-1.813,1.08-2.92,1.399
		c-1.106,0.32-2.287,0.48-3.539,0.48H35.959v-28.4h15.2c0.986,0,1.88,0.214,2.68,0.641s1.479,0.979,2.04,1.66
		c0.561,0.68,0.993,1.453,1.301,2.319c0.306,0.867,0.459,1.74,0.459,2.62c0,1.387-0.347,2.688-1.039,3.9
		c-0.694,1.214-1.707,2.113-3.041,2.7c1.627,0.479,2.914,1.34,3.86,2.579C58.365,138.244,58.839,139.798,58.839,141.664z
		 M41.479,125.305v7.16h7.36c0.933,0,1.727-0.32,2.38-0.961c0.653-0.64,0.98-1.52,0.98-2.64c0-1.093-0.301-1.96-0.9-2.6
		c-0.6-0.641-1.34-0.96-2.22-0.96H41.479z M53.279,140.624c0-0.506-0.087-0.993-0.26-1.46c-0.174-0.466-0.407-0.873-0.701-1.22
		c-0.293-0.347-0.639-0.62-1.039-0.82c-0.4-0.199-0.84-0.3-1.32-0.3h-8.48v7.48h8.201c0.506,0,0.979-0.094,1.42-0.28
		c0.439-0.187,0.819-0.446,1.14-0.78c0.319-0.333,0.573-0.726,0.76-1.18C53.186,141.611,53.279,141.131,53.279,140.624z"/>
</g>
<image overflow="visible" width="68" height="780" xlink:href="icons.png"  transform="matrix(1 0 0 1 97 0)">
</image>
<g>
	<path fill="#542437" d="M6.1,179.316l6.547-28.36h0.8l-6.547,28.36H6.1z"/>
</g>
<g>
	<path fill="#542437" d="M40.059,179.316l6.547-28.36h0.8l-6.548,28.36H40.059z"/>
</g>
<g>
	<g>
		<path fill="#542437" d="M12.85,205.328c1.93,0,3.529-0.336,4.795-1.009c1.267-0.672,2.269-1.546,3.004-2.623
			c0.736-1.076,1.255-2.297,1.557-3.665c0.301-1.367,0.453-2.745,0.453-4.135v-11.936h0.723v11.936c0,1.591-0.175,3.116-0.525,4.573
			c-0.35,1.457-0.935,2.74-1.755,3.85c-0.82,1.109-1.9,2-3.24,2.672c-1.339,0.672-2.998,1.009-4.977,1.009
			c-2.027,0-3.716-0.347-5.067-1.042c-1.352-0.694-2.432-1.614-3.239-2.757c-0.81-1.143-1.382-2.437-1.72-3.883
			c-0.338-1.446-0.506-2.919-0.506-4.421v-11.936h0.724v11.936c0,1.435,0.15,2.836,0.453,4.202c0.301,1.368,0.826,2.589,1.575,3.665
			c0.748,1.076,1.75,1.939,3.004,2.589C9.362,205.003,10.943,205.328,12.85,205.328z"/>
	</g>
	<g>
		<path fill="#542437" d="M0,208.069h25.663v0.799H0V208.069z"/>
	</g>
</g>
<g>
	<g>
		<path fill="#542437" d="M46.809,205.328c1.93,0,3.529-0.336,4.795-1.009c1.268-0.672,2.269-1.546,3.004-2.623
			c0.736-1.076,1.256-2.297,1.558-3.665c0.301-1.367,0.452-2.745,0.452-4.135v-11.936h0.723v11.936c0,1.591-0.174,3.116-0.524,4.573
			c-0.35,1.457-0.935,2.74-1.755,3.85c-0.82,1.109-1.9,2-3.24,2.672c-1.339,0.672-2.998,1.009-4.977,1.009
			c-2.027,0-3.716-0.347-5.066-1.042c-1.353-0.694-2.432-1.614-3.24-2.757c-0.809-1.143-1.382-2.437-1.719-3.883
			c-0.338-1.446-0.507-2.919-0.507-4.421v-11.936h0.724v11.936c0,1.435,0.15,2.836,0.453,4.202c0.301,1.368,0.826,2.589,1.574,3.665
			s1.75,1.939,3.004,2.589C43.32,205.003,44.902,205.328,46.809,205.328z"/>
	</g>
	<g>
		<path fill="#542437" d="M33.959,208.069h25.663v0.799H33.959V208.069z"/>
	</g>
</g>
<rect x="218.35" y="160.981" fill="#ECD078" width="816.318" height="104.12"/>
<g>
	<g>
		<path fill="#542437" d="M24.046,214.843c-1.075-1.178-2.195-1.984-3.36-2.419c-1.165-0.435-2.553-0.652-4.166-0.652
			c-1.562,0-2.899,0.153-4.013,0.46c-1.114,0.308-2.029,0.749-2.745,1.325c-0.717,0.576-1.242,1.262-1.574,2.055
			c-0.333,0.794-0.5,1.689-0.5,2.688c0,0.973,0.167,1.786,0.5,2.438c0.332,0.652,0.844,1.203,1.536,1.65
			c0.691,0.448,1.58,0.833,2.668,1.152c1.088,0.32,2.387,0.633,3.897,0.941c1.51,0.307,2.879,0.639,4.108,0.999
			c1.229,0.358,2.271,0.806,3.129,1.343c0.857,0.538,1.517,1.204,1.978,1.997c0.461,0.794,0.691,1.792,0.691,2.995
			c0,2.227-0.851,3.929-2.553,5.107c-1.703,1.177-4.051,1.766-7.046,1.766c-2.201,0-4.153-0.339-5.855-1.018
			c-1.703-0.678-3.283-1.747-4.742-3.206l0.576-0.499c1.382,1.433,2.886,2.47,4.512,3.109c1.625,0.64,3.475,0.96,5.548,0.96
			c2.713,0,4.857-0.504,6.432-1.516c1.574-1.011,2.361-2.54,2.361-4.588c0-1.024-0.18-1.888-0.538-2.592
			c-0.359-0.704-0.909-1.312-1.651-1.824c-0.743-0.511-1.69-0.946-2.841-1.305c-1.152-0.358-2.509-0.691-4.07-0.998
			c-1.51-0.281-2.848-0.582-4.012-0.903c-1.165-0.32-2.15-0.729-2.956-1.228c-0.807-0.5-1.415-1.127-1.824-1.881
			c-0.41-0.755-0.614-1.696-0.614-2.822c0-1.178,0.224-2.221,0.672-3.129c0.447-0.908,1.088-1.676,1.919-2.304
			c0.832-0.627,1.83-1.1,2.995-1.42c1.165-0.321,2.477-0.48,3.936-0.48c1.741,0,3.257,0.25,4.55,0.748
			c1.292,0.5,2.477,1.338,3.552,2.515L24.046,214.843z"/>
	</g>
	<g>
		<path fill="#542437" d="M6,226.537h23.36v0.768H6V226.537z"/>
	</g>
</g>
<g>
	<g>
		<path fill="#542437" d="M57.603,214.843c-1.075-1.178-2.195-1.984-3.359-2.419c-1.165-0.435-2.554-0.652-4.166-0.652
			c-1.562,0-2.899,0.153-4.013,0.46c-1.113,0.308-2.028,0.749-2.745,1.325c-0.717,0.576-1.241,1.262-1.574,2.055
			c-0.332,0.794-0.499,1.689-0.499,2.688c0,0.973,0.167,1.786,0.499,2.438c0.333,0.652,0.846,1.203,1.536,1.65
			c0.69,0.448,1.579,0.833,2.669,1.152c1.087,0.32,2.387,0.633,3.896,0.941c1.511,0.307,2.88,0.639,4.108,0.999
			c1.229,0.358,2.271,0.806,3.13,1.343c0.856,0.538,1.517,1.204,1.978,1.997c0.46,0.794,0.689,1.792,0.689,2.995
			c0,2.227-0.851,3.929-2.552,5.107c-1.704,1.177-4.051,1.766-7.047,1.766c-2.201,0-4.152-0.339-5.854-1.018
			c-1.703-0.678-3.283-1.747-4.742-3.206l0.576-0.499c1.382,1.433,2.885,2.47,4.512,3.109c1.624,0.64,3.475,0.96,5.548,0.96
			c2.713,0,4.857-0.504,6.431-1.516c1.575-1.011,2.362-2.54,2.362-4.588c0-1.024-0.18-1.888-0.538-2.592
			c-0.357-0.704-0.909-1.312-1.65-1.824c-0.743-0.511-1.69-0.946-2.842-1.305c-1.151-0.358-2.508-0.691-4.069-0.998
			c-1.512-0.281-2.849-0.582-4.013-0.903c-1.165-0.32-2.15-0.729-2.956-1.228c-0.807-0.5-1.416-1.127-1.824-1.881
			c-0.41-0.755-0.614-1.696-0.614-2.822c0-1.178,0.224-2.221,0.672-3.129c0.447-0.908,1.088-1.676,1.92-2.304
			c0.831-0.627,1.83-1.1,2.994-1.42c1.164-0.321,2.477-0.48,3.937-0.48c1.74,0,3.257,0.25,4.549,0.748
			c1.293,0.5,2.477,1.338,3.553,2.515L57.603,214.843z"/>
	</g>
	<g>
		<path fill="#542437" d="M39.557,226.537h23.36v0.768h-23.36V226.537z"/>
	</g>
</g>
<g>
	<g>
		<path fill="#542437" d="M5,418.215h25.262v1.602H5V418.215z"/>
	</g>
	<g>
		<path fill="#542437" d="M5,423.556h21.087v1.603H5V423.556z"/>
	</g>
	<g>
		<path fill="#542437" d="M5,428.898h25.262v1.602H5V428.898z"/>
	</g>
	<g>
		<path fill="#542437" d="M5,434.239h21.087v1.603H5V434.239z"/>
	</g>
	<g>
		<path fill="#542437" d="M5,439.581h25.262v1.604H5V439.581z"/>
	</g>
	<g>
		<path fill="#542437" d="M5,444.924h21.087v1.602H5V444.924z"/>
	</g>
</g>
<g>
	<g>
		<path fill="#542437" d="M38.959,418.215h25.263v1.602H38.959V418.215z"/>
	</g>
	<g>
		<path fill="#542437" d="M38.959,423.556h21.086v1.603H38.959V423.556z"/>
	</g>
	<g>
		<path fill="#542437" d="M38.959,428.898h25.263v1.602H38.959V428.898z"/>
	</g>
	<g>
		<path fill="#542437" d="M38.959,434.239h21.086v1.603H38.959V434.239z"/>
	</g>
	<g>
		<path fill="#542437" d="M38.959,439.581h25.263v1.604H38.959V439.581z"/>
	</g>
	<g>
		<path fill="#542437" d="M38.959,444.924h21.086v1.602H38.959V444.924z"/>
	</g>
</g>
<g>
	<g>
		<path fill="#542437" d="M3,453.659h25.262v1.602H3V453.659z"/>
	</g>
	<g>
		<path fill="#542437" d="M7.574,459h16.513v1.603H7.574V459z"/>
	</g>
	<g>
		<path fill="#542437" d="M3,464.343h25.262v1.602H3V464.343z"/>
	</g>
	<g>
		<path fill="#542437" d="M7.574,469.684h16.513v1.603H7.574V469.684z"/>
	</g>
	<g>
		<path fill="#542437" d="M3,475.025h25.262v1.604H3V475.025z"/>
	</g>
</g>
<g>
	<g>
		<path fill="#542437" d="M36.959,453.659h25.262v1.602H36.959V453.659z"/>
	</g>
	<g>
		<path fill="#542437" d="M41.533,459h16.513v1.603H41.533V459z"/>
	</g>
	<g>
		<path fill="#542437" d="M36.959,464.343h25.262v1.602H36.959V464.343z"/>
	</g>
	<g>
		<path fill="#542437" d="M41.533,469.684h16.513v1.603H41.533V469.684z"/>
	</g>
	<g>
		<path fill="#542437" d="M36.959,475.025h25.262v1.604H36.959V475.025z"/>
	</g>
</g>
<g>
	<g>
		<path fill="#542437" d="M64.221,506.013H43.133v-1.603h21.088V506.013z"/>
	</g>
	<g>
		<path fill="#542437" d="M64.221,500.67H38.959v-1.602h25.262V500.67z"/>
	</g>
	<g>
		<path fill="#542437" d="M64.221,495.329H43.133v-1.603h21.088V495.329z"/>
	</g>
	<g>
		<path fill="#542437" d="M64.221,489.987H38.959v-1.604h25.262V489.987z"/>
	</g>
	<g>
		<path fill="#542437" d="M64.221,484.645H43.133v-1.602h21.088V484.645z"/>
	</g>
</g>
<g>
	<g>
		<path fill="#542437" d="M30.263,506.013H9.177v-1.603h21.086V506.013z"/>
	</g>
	<g>
		<path fill="#542437" d="M30.263,500.67H5v-1.602h25.263V500.67z"/>
	</g>
	<g>
		<path fill="#542437" d="M30.263,495.329H9.177v-1.603h21.086V495.329z"/>
	</g>
	<g>
		<path fill="#542437" d="M30.263,489.987H5v-1.604h25.263V489.987z"/>
	</g>
	<g>
		<path fill="#542437" d="M30.263,484.645H9.177v-1.602h21.086V484.645z"/>
	</g>
</g>
<g>
	<g>
		<path fill="#542437" d="M30.262,535.944H5v-1.603h25.263V535.944z"/>
	</g>
	<g>
		<path fill="#542437" d="M30.262,530.602H5V529h25.263V530.602z"/>
	</g>
	<g>
		<path fill="#542437" d="M30.262,525.261H5v-1.603h25.263V525.261z"/>
	</g>
	<g>
		<path fill="#542437" d="M30.262,519.919H5v-1.604h25.263V519.919z"/>
	</g>
	<g>
		<path fill="#542437" d="M30.262,514.576H5v-1.602h25.263V514.576z"/>
	</g>
</g>
<g>
	<g>
		<path fill="#542437" d="M64.221,535.944H38.959v-1.603h25.262V535.944z"/>
	</g>
	<g>
		<path fill="#542437" d="M64.221,530.602H38.959V529h25.262V530.602z"/>
	</g>
	<g>
		<path fill="#542437" d="M64.221,525.261H38.959v-1.603h25.262V525.261z"/>
	</g>
	<g>
		<path fill="#542437" d="M64.221,519.919H38.959v-1.604h25.262V519.919z"/>
	</g>
	<g>
		<path fill="#542437" d="M64.221,514.576H38.959v-1.602h25.262V514.576z"/>
	</g>
</g>
</svg>
