<?xml version="1.0" encoding="utf-8"?>
<!-- Generator: Adobe Illustrator 16.0.0, SVG Export Plug-In . SVG Version: 6.00 Build 0)  -->
<!DOCTYPE svg PUBLIC "-//W3C//DTD SVG 1.1//EN" "http://www.w3.org/Graphics/SVG/1.1/DTD/svg11.dtd">
<svg version="1.1" id="Layer_1" xmlns="http://www.w3.org/2000/svg" xmlns:xlink="http://www.w3.org/1999/xlink" x="0px" y="0px"
	 width="61.798px" height="63px" viewBox="0 0 61.798 63" enable-background="new 0 0 61.798 63" xml:space="preserve">
<g>
	<rect x="8.73" y="21.734" fill="#542437" width="10.449" height="31.422"/>
	<path fill="#542437" d="M13.952,17.439h-0.068c-3.502,0-5.77-2.416-5.77-5.43c0-3.083,2.338-5.432,5.907-5.432
		c3.575,0,5.776,2.349,5.842,5.432C19.863,15.023,17.596,17.439,13.952,17.439z"/>
	<path fill="#542437" d="M56.845,53.156H46.399V36.344c0-4.224-1.512-7.108-5.293-7.108c-2.883,0-4.606,1.951-5.362,3.824
		c-0.273,0.672-0.344,1.603-0.344,2.546v17.551H24.957c0,0,0.135-28.479,0-31.422H35.4v4.449c1.393-2.147,3.872-5.187,9.415-5.187
		c6.873,0,12.029,4.485,12.029,14.14V53.156z"/>
</g>
</svg>
