<?xml version="1.0" encoding="utf-8"?>
<!-- Generator: Adobe Illustrator 16.0.0, SVG Export Plug-In . SVG Version: 6.00 Build 0)  -->
<!DOCTYPE svg PUBLIC "-//W3C//DTD SVG 1.1//EN" "http://www.w3.org/Graphics/SVG/1.1/DTD/svg11.dtd">
<svg version="1.1" id="Layer_1" xmlns="http://www.w3.org/2000/svg" xmlns:xlink="http://www.w3.org/1999/xlink" x="0px" y="0px"
	 width="74px" height="83.146px" viewBox="0 0 74 83.146" enable-background="new 0 0 74 83.146" xml:space="preserve">
<g>
	<rect x="5.079" y="33.384" fill="#542437" width="14.424" height="43.375"/>
	<path fill="#542437" d="M12.288,27.456h-0.095c-4.835,0-7.965-3.335-7.965-7.496c0-4.255,3.227-7.499,8.155-7.499
		c4.934,0,7.972,3.244,8.063,7.499C20.446,24.121,17.317,27.456,12.288,27.456z"/>
	<path fill="#542437" d="M71.497,76.759h-14.42V53.552c0-5.83-2.085-9.813-7.307-9.813c-3.979,0-6.357,2.693-7.4,5.279
		c-0.379,0.928-0.475,2.211-0.475,3.515v24.226H27.479c0,0,0.186-39.311,0-43.375h14.417v6.144c1.922-2.966,5.345-7.16,12.997-7.16
		c9.485,0,16.604,6.19,16.604,19.519V76.759z"/>
</g>
</svg>
