<?xml version="1.0" encoding="utf-8"?>
<!-- Generator: Adobe Illustrator 16.0.0, SVG Export Plug-In . SVG Version: 6.00 Build 0)  -->
<!DOCTYPE svg PUBLIC "-//W3C//DTD SVG 1.1//EN" "http://www.w3.org/Graphics/SVG/1.1/DTD/svg11.dtd">
<svg version="1.1" id="Layer_1" xmlns="http://www.w3.org/2000/svg" xmlns:xlink="http://www.w3.org/1999/xlink" x="0px" y="0px"
	 width="61px" height="61px" viewBox="0 0 61 61" enable-background="new 0 0 61 61" xml:space="preserve">
<g>
	<path fill="#0A6C9B" d="M51.125,0.5H9.875C4.696,0.5,0.5,4.7,0.5,9.875v41.25c0,5.179,4.196,9.375,9.375,9.375h41.25
		c5.177,0,9.375-4.196,9.375-9.375V9.875C60.5,4.7,56.302,0.5,51.125,0.5z M22.312,44.837h-6.433V25.494h6.433V44.837z
		 M19.094,22.854h-0.042c-2.156,0-3.552-1.49-3.552-3.344c0-1.901,1.438-3.347,3.637-3.347c2.2,0,3.555,1.445,3.596,3.347
		C22.732,21.363,21.337,22.854,19.094,22.854z M45.5,44.837h-6.432v-10.35c0-2.599-0.93-4.375-3.258-4.375
		c-1.774,0-2.836,1.2-3.301,2.354c-0.169,0.413-0.212,0.988-0.212,1.567v10.803h-6.43c0,0,0.083-17.53,0-19.343h6.43v2.738
		c0.857-1.317,2.384-3.192,5.797-3.192c4.229,0,7.405,2.765,7.405,8.708V44.837z"/>
	<path fill="#0A6C9B" d="M32.298,28.296v-0.063c-0.011,0.022-0.027,0.045-0.042,0.063H32.298z"/>
</g>
</svg>
