<?xml version="1.0" encoding="utf-8"?>
<!-- Generator: Adobe Illustrator 16.0.0, SVG Export Plug-In . SVG Version: 6.00 Build 0)  -->
<!DOCTYPE svg PUBLIC "-//W3C//DTD SVG 1.1//EN" "http://www.w3.org/Graphics/SVG/1.1/DTD/svg11.dtd">
<svg version="1.1" id="Layer_1" xmlns="http://www.w3.org/2000/svg" xmlns:xlink="http://www.w3.org/1999/xlink" x="0px" y="0px"
	 width="24.727px" height="35.74px" viewBox="0 0 24.727 35.74" enable-background="new 0 0 24.727 35.74" xml:space="preserve">
<g>
	<path fill="#54777A" d="M24.468,12.935c0-6.701-5.433-12.133-12.134-12.133C5.632,0.802,0.2,6.234,0.2,12.935
		c0,5.648,3.86,10.396,9.088,11.749l3.046,11.056l3.046-11.056C20.606,23.332,24.468,18.583,24.468,12.935z"/>
	<defs>
		<filter id="Adobe_OpacityMaskFilter" filterUnits="userSpaceOnUse" x="0.566" y="1.167" width="23.535" height="32.613">
			<feFlood  style="flood-color:white;flood-opacity:1" result="back"/>
			<feBlend  in="SourceGraphic" in2="back" mode="normal"/>
		</filter>
	</defs>
	<mask maskUnits="userSpaceOnUse" x="0.566" y="1.167" width="23.535" height="32.613" id="SVGID_1_">
		<g filter="url(#Adobe_OpacityMaskFilter)">
			<defs>
				<filter id="Adobe_OpacityMaskFilter_1_" filterUnits="userSpaceOnUse" x="0.566" y="1.167" width="23.535" height="32.613">
					<feFlood  style="flood-color:white;flood-opacity:1" result="back"/>
					<feBlend  in="SourceGraphic" in2="back" mode="normal"/>
				</filter>
			</defs>
			<mask maskUnits="userSpaceOnUse" x="0.566" y="1.167" width="23.535" height="32.613" id="SVGID_1_">
				<g filter="url(#Adobe_OpacityMaskFilter_1_)">
				</g>
			</mask>
			<linearGradient id="SVGID_2_" gradientUnits="userSpaceOnUse" x1="12.3335" y1="-1.292" x2="12.3335" y2="37.8993">
				<stop  offset="0" style="stop-color:#FFFFFF"/>
				<stop  offset="0.0477" style="stop-color:#E4E4E4"/>
				<stop  offset="0.1519" style="stop-color:#AFAFAF"/>
				<stop  offset="0.2602" style="stop-color:#808080"/>
				<stop  offset="0.3707" style="stop-color:#595959"/>
				<stop  offset="0.4836" style="stop-color:#393939"/>
				<stop  offset="0.6" style="stop-color:#202020"/>
				<stop  offset="0.7211" style="stop-color:#0E0E0E"/>
				<stop  offset="0.8499" style="stop-color:#030303"/>
				<stop  offset="1" style="stop-color:#000000"/>
			</linearGradient>
			<path mask="url(#SVGID_1_)" fill="url(#SVGID_2_)" d="M9.604,24.388l-0.225-0.06c-5.19-1.344-8.813-6.027-8.813-11.394
				c0-6.49,5.279-11.768,11.768-11.768c6.488,0,11.768,5.277,11.768,11.768c0,5.366-3.624,10.05-8.813,11.394l-0.226,0.06
				l-2.729,9.393L9.604,24.388z"/>
		</g>
	</mask>
	<linearGradient id="SVGID_3_" gradientUnits="userSpaceOnUse" x1="12.3335" y1="-1.292" x2="12.3335" y2="37.8993">
		<stop  offset="0" style="stop-color:#FFFFFF"/>
		<stop  offset="0.0693" style="stop-color:#FFFFFF"/>
		<stop  offset="1" style="stop-color:#FFFFFF"/>
	</linearGradient>
	<path opacity="0.2" fill="url(#SVGID_3_)" d="M9.604,24.388l-0.225-0.06c-5.19-1.344-8.813-6.027-8.813-11.394
		c0-6.49,5.279-11.768,11.768-11.768c6.488,0,11.768,5.277,11.768,11.768c0,5.366-3.624,10.05-8.813,11.394l-0.226,0.06
		l-2.729,9.393L9.604,24.388z"/>
	<defs>
		<filter id="Adobe_OpacityMaskFilter_2_" filterUnits="userSpaceOnUse" x="1.039" y="1.677" width="22.591" height="22.59">
			<feFlood  style="flood-color:white;flood-opacity:1" result="back"/>
			<feBlend  in="SourceGraphic" in2="back" mode="normal"/>
		</filter>
	</defs>
	<mask maskUnits="userSpaceOnUse" x="1.039" y="1.677" width="22.591" height="22.59" id="SVGID_4_">
		<g filter="url(#Adobe_OpacityMaskFilter_2_)">
			<defs>
				<filter id="Adobe_OpacityMaskFilter_3_" filterUnits="userSpaceOnUse" x="1.039" y="1.677" width="22.591" height="22.59">
					<feFlood  style="flood-color:white;flood-opacity:1" result="back"/>
					<feBlend  in="SourceGraphic" in2="back" mode="normal"/>
				</filter>
			</defs>
			<mask maskUnits="userSpaceOnUse" x="1.039" y="1.677" width="22.591" height="22.59" id="SVGID_4_">
				<g filter="url(#Adobe_OpacityMaskFilter_3_)">
				</g>
			</mask>
			<linearGradient id="SVGID_5_" gradientUnits="userSpaceOnUse" x1="12.334" y1="-0.0264" x2="12.334" y2="27.12">
				<stop  offset="0" style="stop-color:#FFFFFF"/>
				<stop  offset="0.0477" style="stop-color:#E4E4E4"/>
				<stop  offset="0.1519" style="stop-color:#AFAFAF"/>
				<stop  offset="0.2602" style="stop-color:#808080"/>
				<stop  offset="0.3707" style="stop-color:#595959"/>
				<stop  offset="0.4836" style="stop-color:#393939"/>
				<stop  offset="0.6" style="stop-color:#202020"/>
				<stop  offset="0.7211" style="stop-color:#0E0E0E"/>
				<stop  offset="0.8499" style="stop-color:#030303"/>
				<stop  offset="1" style="stop-color:#000000"/>
			</linearGradient>
			<path mask="url(#SVGID_4_)" fill="url(#SVGID_5_)" d="M12.334,1.677c-6.239,0-11.295,5.057-11.295,11.295
				c0,6.239,5.057,11.295,11.295,11.295c6.237,0,11.296-5.056,11.296-11.295C23.63,6.734,18.571,1.677,12.334,1.677z M12.334,24.046
				c-6.117,0-11.076-4.957-11.076-11.074c0-6.116,4.959-11.077,11.076-11.077c6.116,0,11.075,4.961,11.075,11.077
				C23.409,19.089,18.45,24.046,12.334,24.046z"/>
		</g>
	</mask>
	<linearGradient id="SVGID_6_" gradientUnits="userSpaceOnUse" x1="12.334" y1="-0.0264" x2="12.334" y2="27.12">
		<stop  offset="0" style="stop-color:#FFFFFF"/>
		<stop  offset="0.0693" style="stop-color:#FFFFFF"/>
		<stop  offset="1" style="stop-color:#FFFFFF"/>
	</linearGradient>
	<path fill="url(#SVGID_6_)" d="M12.334,1.677c-6.239,0-11.295,5.057-11.295,11.295c0,6.239,5.057,11.295,11.295,11.295
		c6.237,0,11.296-5.056,11.296-11.295C23.63,6.734,18.571,1.677,12.334,1.677z M12.334,24.046c-6.117,0-11.076-4.957-11.076-11.074
		c0-6.116,4.959-11.077,11.076-11.077c6.116,0,11.075,4.961,11.075,11.077C23.409,19.089,18.45,24.046,12.334,24.046z"/>
	<circle fill="#406C34" cx="11.959" cy="12.645" r="9.018"/>
	<path fill="#542437" d="M21.335,12.958c0,4.984-4.036,9.02-9.017,9.02c-4.98,0-9.018-4.035-9.018-9.02
		c0-4.979,4.037-9.018,9.018-9.018C17.299,3.94,21.335,7.978,21.335,12.958z"/>
</g>
</svg>
