<?xml version="1.0" encoding="utf-8"?>
<!-- Generator: Adobe Illustrator 16.0.0, SVG Export Plug-In . SVG Version: 6.00 Build 0)  -->
<!DOCTYPE svg PUBLIC "-//W3C//DTD SVG 1.1//EN" "http://www.w3.org/Graphics/SVG/1.1/DTD/svg11.dtd">
<svg version="1.1" id="Layer_1" xmlns="http://www.w3.org/2000/svg" xmlns:xlink="http://www.w3.org/1999/xlink" x="0px" y="0px"
	 width="53.668px" height="50px" viewBox="-10.209 -9.125 53.668 50" enable-background="new -10.209 -9.125 53.668 50"
	 xml:space="preserve">
<g>
	<path fill="#ECD078" d="M29.094,17.979c0-6.701-5.434-12.133-12.135-12.133S4.824,11.278,4.824,17.979
		c0,5.648,3.861,10.396,9.088,11.748l3.047,11.057l3.047-11.057C25.23,28.376,29.094,23.628,29.094,17.979z"/>
	<defs>
		<filter id="Adobe_OpacityMaskFilter" filterUnits="userSpaceOnUse" x="5.191" y="6.212" width="23.535" height="32.613">
			<feFlood  style="flood-color:white;flood-opacity:1" result="back"/>
			<feBlend  in="SourceGraphic" in2="back" mode="normal"/>
		</filter>
	</defs>
	<mask maskUnits="userSpaceOnUse" x="5.191" y="6.212" width="23.535" height="32.613" id="SVGID_1_">
		<g filter="url(#Adobe_OpacityMaskFilter)">
			<defs>
				<filter id="Adobe_OpacityMaskFilter_1_" filterUnits="userSpaceOnUse" x="5.191" y="6.212" width="23.535" height="32.613">
					<feFlood  style="flood-color:white;flood-opacity:1" result="back"/>
					<feBlend  in="SourceGraphic" in2="back" mode="normal"/>
				</filter>
			</defs>
			<mask maskUnits="userSpaceOnUse" x="5.191" y="6.212" width="23.535" height="32.613" id="SVGID_1_">
				<g filter="url(#Adobe_OpacityMaskFilter_1_)">
				</g>
			</mask>
			<linearGradient id="SVGID_2_" gradientUnits="userSpaceOnUse" x1="16.9585" y1="3.7524" x2="16.9585" y2="42.9438">
				<stop  offset="0" style="stop-color:#FFFFFF"/>
				<stop  offset="0.0477" style="stop-color:#E4E4E4"/>
				<stop  offset="0.1519" style="stop-color:#AFAFAF"/>
				<stop  offset="0.2602" style="stop-color:#808080"/>
				<stop  offset="0.3707" style="stop-color:#595959"/>
				<stop  offset="0.4836" style="stop-color:#393939"/>
				<stop  offset="0.6" style="stop-color:#202020"/>
				<stop  offset="0.7211" style="stop-color:#0E0E0E"/>
				<stop  offset="0.8499" style="stop-color:#030303"/>
				<stop  offset="1" style="stop-color:#000000"/>
			</linearGradient>
			<path mask="url(#SVGID_1_)" fill="url(#SVGID_2_)" d="M14.229,29.433l-0.225-0.061c-5.189-1.344-8.813-6.027-8.813-11.393
				c0-6.49,5.279-11.768,11.768-11.768s11.768,5.277,11.768,11.768c0,5.365-3.625,10.049-8.813,11.393l-0.227,0.061l-2.729,9.393
				L14.229,29.433z"/>
		</g>
	</mask>
	<linearGradient id="SVGID_3_" gradientUnits="userSpaceOnUse" x1="16.9585" y1="3.7524" x2="16.9585" y2="42.9438">
		<stop  offset="0" style="stop-color:#FFFFFF"/>
		<stop  offset="0.0693" style="stop-color:#FFFFFF"/>
		<stop  offset="1" style="stop-color:#FFFFFF"/>
	</linearGradient>
	<path opacity="0.2" fill="url(#SVGID_3_)" d="M14.229,29.433l-0.225-0.061c-5.189-1.344-8.813-6.027-8.813-11.393
		c0-6.49,5.279-11.768,11.768-11.768s11.768,5.277,11.768,11.768c0,5.365-3.625,10.049-8.813,11.393l-0.227,0.061l-2.729,9.393
		L14.229,29.433z"/>
	<defs>
		<filter id="Adobe_OpacityMaskFilter_2_" filterUnits="userSpaceOnUse" x="5.664" y="6.722" width="22.59" height="22.59">
			<feFlood  style="flood-color:white;flood-opacity:1" result="back"/>
			<feBlend  in="SourceGraphic" in2="back" mode="normal"/>
		</filter>
	</defs>
	<mask maskUnits="userSpaceOnUse" x="5.664" y="6.722" width="22.59" height="22.59" id="SVGID_4_">
		<g filter="url(#Adobe_OpacityMaskFilter_2_)">
			<defs>
				<filter id="Adobe_OpacityMaskFilter_3_" filterUnits="userSpaceOnUse" x="5.664" y="6.722" width="22.59" height="22.59">
					<feFlood  style="flood-color:white;flood-opacity:1" result="back"/>
					<feBlend  in="SourceGraphic" in2="back" mode="normal"/>
				</filter>
			</defs>
			<mask maskUnits="userSpaceOnUse" x="5.664" y="6.722" width="22.59" height="22.59" id="SVGID_4_">
				<g filter="url(#Adobe_OpacityMaskFilter_3_)">
				</g>
			</mask>
			<linearGradient id="SVGID_5_" gradientUnits="userSpaceOnUse" x1="16.9585" y1="5.0181" x2="16.9585" y2="32.1644">
				<stop  offset="0" style="stop-color:#FFFFFF"/>
				<stop  offset="0.0477" style="stop-color:#E4E4E4"/>
				<stop  offset="0.1519" style="stop-color:#AFAFAF"/>
				<stop  offset="0.2602" style="stop-color:#808080"/>
				<stop  offset="0.3707" style="stop-color:#595959"/>
				<stop  offset="0.4836" style="stop-color:#393939"/>
				<stop  offset="0.6" style="stop-color:#202020"/>
				<stop  offset="0.7211" style="stop-color:#0E0E0E"/>
				<stop  offset="0.8499" style="stop-color:#030303"/>
				<stop  offset="1" style="stop-color:#000000"/>
			</linearGradient>
			<path mask="url(#SVGID_4_)" fill="url(#SVGID_5_)" d="M16.959,6.722c-6.238,0-11.295,5.057-11.295,11.295
				s5.057,11.295,11.295,11.295s11.295-5.057,11.295-11.295S23.197,6.722,16.959,6.722z M16.959,29.091
				c-6.117,0-11.076-4.957-11.076-11.074S10.842,6.938,16.959,6.938s11.076,4.961,11.076,11.078S23.076,29.091,16.959,29.091z"/>
		</g>
	</mask>
	<linearGradient id="SVGID_6_" gradientUnits="userSpaceOnUse" x1="16.9585" y1="5.0181" x2="16.9585" y2="32.1644">
		<stop  offset="0" style="stop-color:#FFFFFF"/>
		<stop  offset="0.0693" style="stop-color:#FFFFFF"/>
		<stop  offset="1" style="stop-color:#FFFFFF"/>
	</linearGradient>
	<path fill="url(#SVGID_6_)" d="M16.959,6.722c-6.238,0-11.295,5.057-11.295,11.295s5.057,11.295,11.295,11.295
		s11.295-5.057,11.295-11.295S23.197,6.722,16.959,6.722z M16.959,29.091c-6.117,0-11.076-4.957-11.076-11.074
		S10.842,6.938,16.959,6.938s11.076,4.961,11.076,11.078S23.076,29.091,16.959,29.091z"/>
	<path fill="#542437" d="M25.961,18.001c0,4.984-4.037,9.02-9.018,9.02s-9.018-4.035-9.018-9.02c0-4.979,4.037-9.018,9.018-9.018
		S25.961,13.022,25.961,18.001z"/>
</g>
</svg>
