<?xml version="1.0" encoding="utf-8"?>
<!-- Generator: Adobe Illustrator 16.0.0, SVG Export Plug-In . SVG Version: 6.00 Build 0)  -->
<!DOCTYPE svg PUBLIC "-//W3C//DTD SVG 1.1//EN" "http://www.w3.org/Graphics/SVG/1.1/DTD/svg11.dtd">
<svg version="1.1" id="Layer_1" xmlns="http://www.w3.org/2000/svg" xmlns:xlink="http://www.w3.org/1999/xlink" x="0px" y="0px"
	 width="33.25px" height="50px" viewBox="0 -9.125 33.25 50" enable-background="new 0 -9.125 33.25 50" xml:space="preserve">
<path fill="#ECD078" d="M32.352-2.48l0.445-1.326l-5.857-1.959l-1.326-0.438L25.17-4.879L21.414,6.355H0.5l14.436,16.769V38.71
	c-4.594,0.106-8.406,0.983-9.816,2.165h21.498c-1.412-1.182-5.223-2.059-9.816-2.165V23.124L31.236,6.355h-8.348l3.607-10.791
	L32.352-2.48z"/>
<g>
	<g>
		<path fill="#ECD078" d="M63.42,30.644c0.879,0,1.59-1.183,1.59-2.643v-4.936c0-1.462-0.711-2.645-1.59-2.645
			c-0.877,0-1.588,1.183-1.588,2.645v4.936C61.832,29.461,62.543,30.644,63.42,30.644z"/>
		<path fill="#ECD078" d="M74.271,30.644c0.877,0,1.588-1.183,1.588-2.643v-4.936c0-1.462-0.711-2.645-1.588-2.645
			c-0.879,0-1.59,1.183-1.59,2.645v4.936C72.682,29.461,73.393,30.644,74.271,30.644z"/>
		<path fill="#ECD078" d="M52.57,30.644c0.879,0,1.59-1.183,1.59-2.643v-4.936c0-1.462-0.711-2.645-1.59-2.645
			c-0.877,0-1.59,1.183-1.59,2.645v4.936C50.98,29.461,51.693,30.644,52.57,30.644z"/>
		<path fill="#ECD078" d="M84.291,25.05h-7.537v2.223c0,0.202-0.018,0.398-0.057,0.586c0.797,0.748,1.301,1.866,1.301,3.119
			c0,2.25-1.631,4.072-3.643,4.072c-2.014,0-3.645-1.822-3.645-4.072c0-1.182,0.451-2.24,1.17-2.986
			c-0.057-0.229-0.094-0.467-0.094-0.719V25.05h-5.881v2.223c0,0.226-0.033,0.441-0.076,0.651c0.756,0.747,1.236,1.835,1.236,3.054
			c0,2.25-1.633,4.072-3.646,4.072c-2.012,0-3.643-1.822-3.643-4.072c0-1.217,0.479-2.306,1.234-3.054
			c-0.045-0.21-0.076-0.426-0.076-0.651V25.05h-5.881v2.223c0,0.25-0.039,0.49-0.096,0.719c0.721,0.743,1.172,1.805,1.172,2.986
			c0,2.25-1.631,4.072-3.645,4.072c-2.012,0-3.645-1.822-3.645-4.072c0-1.252,0.508-2.371,1.303-3.119
			c-0.037-0.188-0.059-0.384-0.059-0.586V25.05h-7.537c-3.293,0-5.963,2.986-5.963,6.667v5.72v26.135
			c0,3.683,2.67,6.668,5.963,6.668h41.742c3.295,0,5.963-2.985,5.963-6.668V37.437v-5.72C90.254,28.036,87.586,25.05,84.291,25.05z"
			/>
	</g>
	<text transform="matrix(1 0 0 1 47.3047 47.6445)"><tspan x="0" y="0" fill="#542437" font-family="'Raleway'" font-size="14">03.15</tspan><tspan x="0" y="16.8" fill="#542437" font-family="'Raleway'" font-size="14">2013</tspan></text>
</g>
</svg>
