<?xml version="1.0" encoding="utf-8"?>
<!-- Generator: Adobe Illustrator 16.0.0, SVG Export Plug-In . SVG Version: 6.00 Build 0)  -->
<!DOCTYPE svg PUBLIC "-//W3C//DTD SVG 1.1//EN" "http://www.w3.org/Graphics/SVG/1.1/DTD/svg11.dtd">
<svg version="1.1" id="Layer_1" xmlns="http://www.w3.org/2000/svg" xmlns:xlink="http://www.w3.org/1999/xlink" x="0px" y="0px"
	 width="130.833px" height="85.839px" viewBox="0 0 130.833 85.839" enable-background="new 0 0 130.833 85.839"
	 xml:space="preserve">
<g>
	<path fill="#542437" d="M36.684,29.24l24.707,24.959l-50.728,0.068l24.85-25.027C35.828,28.924,36.373,28.924,36.684,29.24z"/>
	<g>
		<path fill="#B3B4B5" d="M54.091,76.799V49.515h-0.164h-4.741c-2.207,0-4.279-0.861-5.839-2.419
			c-1.559-1.56-2.418-3.633-2.418-5.838v-4.695H25.041c-3.9,0-7.064,3.164-7.064,7.066v33.171c0,3.903,3.164,7.065,7.064,7.065
			h21.985C50.93,83.865,54.091,80.703,54.091,76.799z M24.821,53.192c0-0.766,0.623-1.386,1.391-1.386h19.644
			c0.768,0,1.389,0.62,1.389,1.386c0,0.768-0.621,1.39-1.389,1.39H26.212C25.444,54.582,24.821,53.96,24.821,53.192z M26.857,60.212
			c0-0.78,0.631-1.413,1.414-1.413h15.526c0.781,0,1.416,0.633,1.416,1.413c-0.002,0.781-0.633,1.414-1.416,1.414H28.271
			C27.489,61.626,26.857,60.994,26.857,60.212z M45.856,68.622H26.212c-0.768,0-1.391-0.622-1.391-1.388
			c0-0.768,0.623-1.39,1.391-1.39h19.644c0.768,0,1.389,0.622,1.389,1.39C47.245,68,46.624,68.622,45.856,68.622z"/>
		<polygon fill="#B3B4B5" points="42.12,36.563 42.166,36.563 42.12,36.515 		"/>
		<path fill="#B3B4B5" d="M42.12,41.257c0,1.95,0.791,3.717,2.069,4.996c1.278,1.278,3.047,2.071,4.997,2.071h4.739L42.166,36.563
			H42.12V41.257z"/>
	</g>
	<g>
		<path fill="#542437" d="M45.066,72.827l-8.24,8.323c-0.342,0.347-0.935,0.347-1.279,0l-8.155-8.211L11.069,84.847
			c0.189,0.095,0.399,0.154,0.622,0.154h48.671c0.23,0,0.443-0.061,0.634-0.16L45.066,72.827z"/>
		<path fill="#542437" d="M62.221,83.831c0.03-0.114,0.051-0.233,0.051-0.358V55.83l-15.89,16.051L62.221,83.831z"/>
		<path fill="#542437" d="M26.074,72.135L9.782,55.73v27.883c0,0.128,0.024,0.251,0.057,0.369L26.074,72.135z"/>
	</g>
</g>
</svg>
