<?xml version="1.0" encoding="utf-8"?>
<!-- Generator: Adobe Illustrator 16.0.0, SVG Export Plug-In . SVG Version: 6.00 Build 0)  -->
<!DOCTYPE svg PUBLIC "-//W3C//DTD SVG 1.1//EN" "http://www.w3.org/Graphics/SVG/1.1/DTD/svg11.dtd">
<svg version="1.1" id="Layer_1" xmlns="http://www.w3.org/2000/svg" xmlns:xlink="http://www.w3.org/1999/xlink" x="0px" y="0px"
	 width="56.25px" height="85.839px" viewBox="7.917 0 56.25 85.839" enable-background="new 7.917 0 56.25 85.839"
	 xml:space="preserve">
<g>
	<path fill="#542437" d="M36.684,29.24l24.707,24.958l-50.728,0.068l24.85-25.027C35.828,28.924,36.373,28.924,36.684,29.24z"/>
	<g>
		<path fill="#B3B4B5" d="M54.091,76.798V49.515h-0.164h-4.741c-2.207,0-4.279-0.861-5.839-2.419
			c-1.559-1.56-2.418-3.634-2.418-5.838v-4.695H25.041c-3.9,0-7.064,3.164-7.064,7.065V76.8c0,3.902,3.164,7.064,7.064,7.064h21.985
			C50.93,83.865,54.091,80.703,54.091,76.798z M24.821,53.192c0-0.767,0.623-1.386,1.391-1.386h19.644
			c0.768,0,1.389,0.619,1.389,1.386c0,0.769-0.621,1.39-1.389,1.39H26.212C25.444,54.582,24.821,53.96,24.821,53.192z
			 M26.857,60.212c0-0.78,0.631-1.414,1.414-1.414h15.526c0.781,0,1.416,0.634,1.416,1.414c-0.002,0.781-0.633,1.414-1.416,1.414
			H28.271C27.489,61.626,26.857,60.994,26.857,60.212z M45.856,68.623H26.212c-0.768,0-1.391-0.623-1.391-1.389
			c0-0.768,0.623-1.391,1.391-1.391h19.644c0.768,0,1.389,0.623,1.389,1.391C47.245,68,46.624,68.623,45.856,68.623z"/>
		<polygon fill="#B3B4B5" points="42.12,36.563 42.166,36.563 42.12,36.515 		"/>
		<path fill="#B3B4B5" d="M42.12,41.257c0,1.95,0.791,3.717,2.069,4.997c1.278,1.277,3.047,2.07,4.997,2.07h4.739L42.166,36.563
			H42.12V41.257z"/>
	</g>
	<g>
		<path fill="#542437" d="M45.066,72.828l-8.24,8.322c-0.342,0.348-0.935,0.348-1.279,0l-8.155-8.211L11.069,84.847
			c0.189,0.095,0.399,0.154,0.622,0.154h48.671c0.23,0,0.443-0.062,0.634-0.16L45.066,72.828z"/>
		<path fill="#542437" d="M62.221,83.832c0.03-0.115,0.051-0.233,0.051-0.358V55.83L46.382,71.88L62.221,83.832z"/>
		<path fill="#542437" d="M26.074,72.134L9.782,55.73v27.883c0,0.129,0.024,0.252,0.057,0.369L26.074,72.134z"/>
	</g>
</g>
</svg>
