<?xml version="1.0" encoding="utf-8"?>
<!-- Generator: Adobe Illustrator 16.0.0, SVG Export Plug-In . SVG Version: 6.00 Build 0)  -->
<!DOCTYPE svg PUBLIC "-//W3C//DTD SVG 1.1//EN" "http://www.w3.org/Graphics/SVG/1.1/DTD/svg11.dtd">
<svg version="1.1" id="Layer_1" xmlns="http://www.w3.org/2000/svg" xmlns:xlink="http://www.w3.org/1999/xlink" x="0px" y="0px"
	 width="130.833px" height="85.839px" viewBox="0 0 130.833 85.839" enable-background="new 0 0 130.833 85.839"
	 xml:space="preserve">
<g>
	<path fill="#542437" d="M37.028,79.396l27.479-27.757L8.093,51.563l27.634,27.832C36.077,79.748,36.683,79.748,37.028,79.396z"/>
	<g>
		<path fill="#542437" d="M46.884,71.582l-9.649,9.746c-0.401,0.405-1.095,0.405-1.497-0.001l-9.548-9.614L7.075,85.657
			c0.222,0.111,0.467,0.183,0.729,0.183h56.992c0.271,0,0.52-0.073,0.741-0.188L46.884,71.582z"/>
		<path fill="#542437" d="M66.971,84.468c0.036-0.136,0.061-0.274,0.061-0.421V51.678L48.423,70.475L66.971,84.468z"/>
		<path fill="#542437" d="M24.645,70.772L5.568,51.563v32.651c0,0.15,0.028,0.294,0.066,0.431L24.645,70.772z"/>
	</g>
</g>
</svg>
