<?xml version="1.0" encoding="utf-8"?>
<!-- Generator: Adobe Illustrator 16.0.0, SVG Export Plug-In . SVG Version: 6.00 Build 0)  -->
<!DOCTYPE svg PUBLIC "-//W3C//DTD SVG 1.1//EN" "http://www.w3.org/Graphics/SVG/1.1/DTD/svg11.dtd">
<svg version="1.1" id="Layer_1" xmlns="http://www.w3.org/2000/svg" xmlns:xlink="http://www.w3.org/1999/xlink" x="0px" y="0px"
	 width="130.833px" height="134.417px" viewBox="0 0 130.833 134.417" enable-background="new 0 0 130.833 134.417"
	 xml:space="preserve">
<g>
	<path fill="#542437" d="M45.829,85.491l39.534-39.933L4.2,45.448l39.757,40.042C44.461,85.997,45.333,85.997,45.829,85.491z"/>
	<g>
		<path fill="#542437" d="M60.009,74.249L46.126,88.272c-0.576,0.582-1.575,0.582-2.153-0.002L30.236,74.438L2.736,94.5
			c0.318,0.16,0.671,0.262,1.049,0.262h81.994c0.389,0,0.748-0.105,1.066-0.27L60.009,74.249z"/>
		<path fill="#542437" d="M88.908,92.788c0.051-0.193,0.086-0.393,0.086-0.604V45.615l-26.77,27.043L88.908,92.788z"/>
		<path fill="#542437" d="M28.013,73.086L0.568,45.448v46.976c0,0.215,0.04,0.422,0.095,0.619L28.013,73.086z"/>
	</g>
</g>
</svg>
