<?xml version="1.0" encoding="utf-8"?>
<!-- Generator: Adobe Illustrator 16.0.0, SVG Export Plug-In . SVG Version: 6.00 Build 0)  -->
<!DOCTYPE svg PUBLIC "-//W3C//DTD SVG 1.1//EN" "http://www.w3.org/Graphics/SVG/1.1/DTD/svg11.dtd">
<svg version="1.1" id="Layer_1" xmlns="http://www.w3.org/2000/svg" xmlns:xlink="http://www.w3.org/1999/xlink" x="0px" y="0px"
	 width="95px" height="55px" viewBox="0 0 95 55" enable-background="new 0 0 95 55" xml:space="preserve">
<g>
	<path fill="#542437" d="M48.549,42.886L88.081,2.953L6.919,2.844l39.757,40.042C47.18,43.392,48.053,43.392,48.549,42.886z"/>
	<g>
		<path fill="#542437" d="M62.729,31.644L48.846,45.667c-0.576,0.582-1.576,0.582-2.154-0.001L32.955,31.833l-27.5,20.063
			c0.318,0.16,0.671,0.261,1.049,0.261h81.993c0.389,0,0.748-0.104,1.068-0.269L62.729,31.644z"/>
		<path fill="#542437" d="M91.627,50.183c0.051-0.193,0.086-0.393,0.086-0.604V3.011l-26.77,27.043L91.627,50.183z"/>
		<path fill="#542437" d="M30.732,30.483L3.287,2.844v46.976c0,0.215,0.04,0.421,0.095,0.62L30.732,30.483z"/>
	</g>
</g>
</svg>
