<?xml version="1.0" encoding="utf-8"?>
<!-- Generator: Adobe Illustrator 16.0.0, SVG Export Plug-In . SVG Version: 6.00 Build 0)  -->
<!DOCTYPE svg PUBLIC "-//W3C//DTD SVG 1.1//EN" "http://www.w3.org/Graphics/SVG/1.1/DTD/svg11.dtd">
<svg version="1.1" id="Layer_1" xmlns="http://www.w3.org/2000/svg" xmlns:xlink="http://www.w3.org/1999/xlink" x="0px" y="0px"
	 width="113.667px" height="134.417px" viewBox="0 0 113.667 134.417" enable-background="new 0 0 113.667 134.417"
	 xml:space="preserve">
<g>
	<path fill="#542437" d="M45.888,0.822L87.513,42.87L2.052,42.984L43.915,0.822C44.446,0.29,45.364,0.29,45.888,0.822z"/>
	<g>
		<path fill="#B3B4B5" d="M75.214,80.942V34.977h-0.278h-7.985c-3.718,0-7.209-1.449-9.837-4.075
			c-2.626-2.628-4.074-6.12-4.074-9.835v-7.91H26.273c-6.572,0-11.902,5.33-11.902,11.904v55.881c0,6.576,5.33,11.906,11.902,11.906
			H63.31C69.888,92.848,75.214,87.518,75.214,80.942z M25.904,41.173c0-1.29,1.049-2.335,2.342-2.335h33.095
			c1.293,0,2.338,1.045,2.338,2.335c0,1.295-1.045,2.342-2.338,2.342H28.246C26.953,43.515,25.904,42.468,25.904,41.173z M29.334,53
			c0-1.314,1.062-2.381,2.382-2.381h26.157c1.317,0,2.385,1.067,2.385,2.381c-0.002,1.316-1.066,2.382-2.385,2.382H31.716
			C30.396,55.382,29.334,54.316,29.334,53z M61.341,67.166H28.246c-1.293,0-2.342-1.047-2.342-2.339
			c0-1.291,1.049-2.339,2.342-2.339h33.095c1.293,0,2.338,1.048,2.338,2.339S62.634,67.166,61.341,67.166z"/>
		<polygon fill="#B3B4B5" points="55.046,13.157 55.124,13.157 55.046,13.077 		"/>
		<path fill="#B3B4B5" d="M55.046,21.066c0,3.285,1.333,6.263,3.487,8.416c2.152,2.154,5.133,3.488,8.418,3.488h7.984L55.124,13.157
			h-0.078V21.066z"/>
	</g>
	<g>
		<path fill="#542437" d="M60.011,74.25L46.128,88.273c-0.576,0.582-1.576,0.582-2.154-0.001L30.236,74.438l-27.5,20.063
			c0.318,0.16,0.671,0.261,1.049,0.261h81.994c0.389,0,0.748-0.104,1.067-0.271L60.011,74.25z"/>
		<path fill="#542437" d="M88.91,92.789c0.051-0.193,0.086-0.394,0.086-0.604V45.617L62.226,72.66L88.91,92.789z"/>
		<path fill="#542437" d="M28.014,73.089L0.568,45.449v46.974c0,0.216,0.04,0.423,0.095,0.621L28.014,73.089z"/>
	</g>
</g>
</svg>
