<?xml version="1.0" encoding="utf-8"?>
<!-- Generator: Adobe Illustrator 16.0.0, SVG Export Plug-In . SVG Version: 6.00 Build 0)  -->
<!DOCTYPE svg PUBLIC "-//W3C//DTD SVG 1.1//EN" "http://www.w3.org/Graphics/SVG/1.1/DTD/svg11.dtd">
<svg version="1.1" id="Layer_1" xmlns="http://www.w3.org/2000/svg" xmlns:xlink="http://www.w3.org/1999/xlink" x="0px" y="0px"
	 width="79px" height="43px" viewBox="0 0 79 43" enable-background="new 0 0 79 43" xml:space="preserve">
<path fill="#542437" d="M79,34.951C79,39.396,75.412,43,70.987,43H8.013C3.588,43,0,39.396,0,34.951V8.049C0,3.604,3.588,0,8.013,0
	h62.974C75.412,0,79,3.604,79,8.049V34.951z"/>
<g>
	<path fill="#D95B43" d="M13.416,16.096v14.588h-1.728V12.826h1.352L24.809,27.69V12.851h1.728v17.833h-1.502L13.416,16.096z"/>
	<path fill="#D95B43" d="M38.256,30.81c-1.235,0-2.366-0.256-3.393-0.768c-1.026-0.511-1.907-1.19-2.642-2.037
		c-0.735-0.847-1.302-1.814-1.703-2.905c-0.401-1.09-0.601-2.204-0.601-3.345c0-1.19,0.213-2.331,0.638-3.421
		c0.426-1.09,1.014-2.054,1.766-2.893c0.751-0.838,1.636-1.505,2.654-2c1.018-0.494,2.12-0.742,3.306-0.742
		c1.235,0,2.366,0.264,3.393,0.792c1.027,0.528,1.904,1.22,2.629,2.075c0.727,0.855,1.291,1.823,1.691,2.905s0.6,2.185,0.6,3.308
		c0,1.191-0.213,2.331-0.639,3.42c-0.424,1.091-1.01,2.05-1.752,2.88s-1.623,1.493-2.642,1.987
		C40.543,30.563,39.441,30.81,38.256,30.81z M31.67,21.755c0,0.973,0.158,1.907,0.476,2.805c0.317,0.896,0.768,1.693,1.352,2.389
		c0.584,0.696,1.277,1.25,2.079,1.66c0.801,0.411,1.694,0.616,2.679,0.616c1.002,0,1.912-0.218,2.729-0.653
		c0.817-0.437,1.511-1.007,2.079-1.711c0.566-0.704,1.006-1.5,1.314-2.39c0.309-0.889,0.463-1.793,0.463-2.716
		c0-0.973-0.162-1.907-0.488-2.805c-0.326-0.897-0.781-1.689-1.365-2.377c-0.584-0.687-1.277-1.236-2.078-1.647
		c-0.801-0.411-1.686-0.616-2.654-0.616c-1.001,0-1.912,0.214-2.729,0.642c-0.818,0.427-1.511,0.993-2.078,1.698
		c-0.568,0.704-1.006,1.501-1.315,2.389C31.824,19.927,31.67,20.833,31.67,21.755z"/>
	<path fill="#D95B43" d="M55.96,12.952h1.678l2.504,6.338l2.529-6.338h1.652l-3.104,7.621l3.405,8.074l6.436-15.821h1.903
		L65.45,30.684h-1.553l-3.73-8.828l-3.757,8.828h-1.552l-7.487-17.858h1.853l6.461,15.821l3.38-8.074L55.96,12.952z"/>
</g>
</svg>
