<?xml version="1.0" encoding="utf-8"?>
<!-- Generator: Adobe Illustrator 16.0.0, SVG Export Plug-In . SVG Version: 6.00 Build 0)  -->
<!DOCTYPE svg PUBLIC "-//W3C//DTD SVG 1.1//EN" "http://www.w3.org/Graphics/SVG/1.1/DTD/svg11.dtd">
<svg version="1.1" id="Layer_1" xmlns="http://www.w3.org/2000/svg" xmlns:xlink="http://www.w3.org/1999/xlink" x="0px" y="0px"
	 width="110.333px" height="43.333px" viewBox="39.167 66.333 110.333 43.333"
	 enable-background="new 39.167 66.333 110.333 43.333" xml:space="preserve">
<g>
	<g>
		<path fill="#ECD078" d="M57.598,107.852c-6.478,0-12.155-2.99-14.131-7.438l-0.135-0.313h1.742l0.075,0.162
			c1.846,3.826,6.849,6.4,12.448,6.4s10.603-2.574,12.45-6.4l0.073-0.162h1.292h0.453l-0.139,0.313
			C69.754,104.861,64.075,107.852,57.598,107.852z"/>
	</g>
	<g>
		<g>
			<path fill="#ECD078" d="M48.079,91.283c-1.02,0-1.98-0.215-2.88-0.645s-1.685-1.01-2.355-1.74c-0.67-0.73-1.2-1.585-1.59-2.565
				c-0.39-0.98-0.585-2.01-0.585-3.09c0-1.1,0.195-2.134,0.585-3.105c0.39-0.97,0.925-1.825,1.605-2.565
				c0.68-0.74,1.47-1.325,2.37-1.755c0.9-0.43,1.85-0.645,2.85-0.645s1.95,0.215,2.85,0.645c0.9,0.43,1.685,1.015,2.355,1.755
				c0.67,0.74,1.205,1.595,1.605,2.565c0.4,0.971,0.6,2.005,0.6,3.105c0,1.08-0.195,2.11-0.585,3.09s-0.92,1.834-1.59,2.565
				c-0.67,0.73-1.455,1.311-2.355,1.74C50.059,91.068,49.099,91.283,48.079,91.283z M41.269,83.303c0,1,0.18,1.95,0.54,2.85
				c0.36,0.899,0.845,1.685,1.455,2.354c0.61,0.671,1.325,1.201,2.145,1.591c0.82,0.39,1.7,0.585,2.64,0.585
				c0.919,0,1.795-0.199,2.625-0.6c0.83-0.4,1.56-0.94,2.19-1.621c0.63-0.68,1.125-1.47,1.485-2.37c0.36-0.9,0.54-1.86,0.54-2.88
				c0-1-0.18-1.95-0.54-2.85c-0.36-0.9-0.85-1.69-1.47-2.37c-0.62-0.68-1.345-1.219-2.175-1.62c-0.83-0.4-1.705-0.6-2.625-0.6
				s-1.795,0.2-2.625,0.6c-0.83,0.4-1.555,0.945-2.175,1.635c-0.62,0.69-1.11,1.49-1.47,2.4
				C41.449,81.319,41.269,82.283,41.269,83.303z"/>
			<path fill="#ECD078" d="M66.35,91.283c-0.701,0-1.36-0.105-1.98-0.314c-0.621-0.211-1.2-0.49-1.74-0.84s-1.03-0.76-1.47-1.23
				c-0.44-0.47-0.83-0.965-1.17-1.484v9.959h-0.6V75.414h0.6v3.3c0.32-0.52,0.71-0.995,1.17-1.425s0.955-0.805,1.485-1.125
				c0.53-0.32,1.084-0.565,1.665-0.735c0.58-0.169,1.17-0.255,1.77-0.255c1.1,0,2.11,0.235,3.03,0.705
				c0.92,0.47,1.71,1.085,2.37,1.845s1.175,1.62,1.545,2.58c0.37,0.96,0.555,1.94,0.555,2.94c0,1.061-0.175,2.075-0.525,3.045
				s-0.84,1.825-1.47,2.565s-1.39,1.33-2.28,1.77S67.429,91.283,66.35,91.283z M66.35,90.684c1.02,0,1.935-0.215,2.745-0.645
				c0.81-0.431,1.505-0.995,2.085-1.695s1.025-1.495,1.335-2.385c0.31-0.89,0.465-1.795,0.465-2.715c0-0.979-0.18-1.92-0.54-2.82
				s-0.851-1.695-1.47-2.385c-0.62-0.69-1.35-1.24-2.19-1.65c-0.84-0.41-1.74-0.615-2.7-0.615c-0.6,0-1.25,0.13-1.95,0.39
				c-0.7,0.26-1.35,0.61-1.95,1.05c-0.6,0.44-1.105,0.95-1.515,1.53c-0.41,0.581-0.635,1.181-0.675,1.8v5.61
				c0.28,0.641,0.64,1.235,1.08,1.785s0.935,1.024,1.485,1.425s1.145,0.721,1.785,0.96C64.979,90.563,65.649,90.684,66.35,90.684z"
				/>
			<path fill="#ECD078" d="M83.419,90.264c-0.3,0.199-0.575,0.35-0.825,0.449c-0.25,0.101-0.545,0.195-0.885,0.285
				c-0.34,0.09-0.72,0.135-1.14,0.135c-0.72,0-1.35-0.219-1.89-0.659s-0.81-1.021-0.81-1.74v-12.72h-2.25v-0.6h2.25v-5.43h0.6v5.43
				h3.75v0.6h-3.75v12.72c0,0.58,0.22,1.025,0.66,1.335c0.439,0.311,0.919,0.465,1.44,0.465c0.34,0,0.66-0.035,0.96-0.105
				c0.3-0.069,0.565-0.149,0.795-0.239s0.41-0.175,0.54-0.255c0.13-0.08,0.205-0.13,0.225-0.15L83.419,90.264z"/>
			<path fill="#ECD078" d="M86.12,71.394v-2.31h0.6v2.31H86.12z M86.12,90.983v-15.57h0.6v15.57H86.12z"/>
			<path fill="#ECD078" d="M98.029,91.283c-1.02,0-1.98-0.215-2.88-0.645s-1.685-1.01-2.355-1.74c-0.67-0.73-1.2-1.585-1.59-2.565
				c-0.39-0.98-0.585-2.01-0.585-3.09c0-1.1,0.195-2.134,0.585-3.105c0.39-0.97,0.925-1.825,1.605-2.565
				c0.68-0.74,1.47-1.325,2.37-1.755c0.9-0.43,1.85-0.645,2.85-0.645c1,0,1.95,0.215,2.85,0.645c0.9,0.43,1.685,1.015,2.355,1.755
				c0.67,0.74,1.204,1.595,1.604,2.565c0.399,0.971,0.601,2.005,0.601,3.105c0,1.08-0.195,2.11-0.586,3.09
				c-0.39,0.98-0.92,1.834-1.59,2.565s-1.455,1.311-2.354,1.74C100.009,91.068,99.049,91.283,98.029,91.283z M91.219,83.303
				c0,1,0.18,1.95,0.54,2.85c0.36,0.899,0.845,1.685,1.455,2.354c0.61,0.671,1.325,1.201,2.145,1.591
				c0.82,0.39,1.7,0.585,2.64,0.585c0.919,0,1.795-0.199,2.625-0.6c0.829-0.4,1.56-0.94,2.19-1.621
				c0.629-0.68,1.125-1.47,1.484-2.37c0.36-0.9,0.54-1.86,0.54-2.88c0-1-0.18-1.95-0.54-2.85c-0.359-0.9-0.85-1.69-1.47-2.37
				c-0.62-0.68-1.345-1.219-2.175-1.62c-0.83-0.4-1.705-0.6-2.625-0.6c-0.92,0-1.795,0.2-2.625,0.6
				c-0.83,0.4-1.555,0.945-2.175,1.635c-0.62,0.69-1.11,1.49-1.47,2.4C91.399,81.319,91.219,82.283,91.219,83.303z"/>
			<path fill="#ECD078" d="M121.43,90.983h-0.601v-8.67c0-2.28-0.315-3.94-0.944-4.98c-0.631-1.04-1.646-1.56-3.045-1.56
				c-0.762,0-1.506,0.135-2.236,0.405c-0.729,0.27-1.404,0.645-2.024,1.125s-1.16,1.05-1.62,1.71c-0.46,0.66-0.8,1.371-1.02,2.13
				v9.84h-0.6v-15.57h0.6v4.02c0.319-0.62,0.729-1.195,1.229-1.725c0.5-0.53,1.05-0.98,1.65-1.35c0.6-0.37,1.239-0.66,1.92-0.87
				c0.68-0.21,1.37-0.315,2.069-0.315c1.601,0,2.771,0.575,3.511,1.725c0.739,1.15,1.11,2.955,1.11,5.415V90.983z"/>
			<path fill="#ECD078" d="M129.919,91.283c-0.7,0-1.36-0.125-1.979-0.375c-0.621-0.25-1.156-0.59-1.605-1.02
				c-0.45-0.43-0.806-0.936-1.065-1.516s-0.39-1.199-0.39-1.86c0-0.66,0.154-1.26,0.465-1.8s0.75-1.005,1.32-1.395
				s1.25-0.695,2.039-0.915c0.791-0.22,1.655-0.33,2.596-0.33c0.9,0,1.81,0.075,2.73,0.225c0.919,0.15,1.75,0.365,2.489,0.645v-1.77
				c0-0.8-0.12-1.535-0.36-2.205c-0.239-0.67-0.584-1.24-1.035-1.71c-0.449-0.47-0.989-0.835-1.619-1.095
				c-0.631-0.26-1.325-0.39-2.085-0.39c-0.761,0-1.57,0.165-2.431,0.495c-0.859,0.33-1.729,0.805-2.609,1.425l-0.36-0.48
				c2-1.36,3.8-2.04,5.4-2.04c0.859,0,1.645,0.14,2.354,0.42c0.71,0.28,1.311,0.68,1.801,1.2c0.489,0.52,0.869,1.15,1.14,1.89
				s0.405,1.57,0.405,2.49v8.61c0,0.4,0.16,0.6,0.479,0.6v0.601c-0.22,0-0.36-0.02-0.42-0.06c-0.2-0.08-0.36-0.226-0.479-0.436
				c-0.121-0.21-0.181-0.445-0.181-0.705v-1.439c-0.72,0.939-1.66,1.664-2.819,2.175C132.539,91.028,131.279,91.283,129.919,91.283z
				 M129.919,90.684c1.339,0,2.565-0.25,3.675-0.75s1.936-1.17,2.475-2.01c0.301-0.42,0.45-0.83,0.45-1.23v-3.09
				c-1.601-0.62-3.341-0.93-5.22-0.93c-0.881,0-1.676,0.09-2.385,0.27c-0.711,0.18-1.32,0.44-1.83,0.78s-0.905,0.745-1.186,1.215
				c-0.279,0.47-0.42,0.995-0.42,1.575c0,0.581,0.115,1.125,0.346,1.635c0.229,0.51,0.545,0.955,0.944,1.335s0.87,0.675,1.41,0.885
				S129.299,90.684,129.919,90.684z"/>
			<path fill="#ECD078" d="M142.129,69.083h0.6v19.59c0,0.58,0.18,1.039,0.539,1.379c0.361,0.341,0.841,0.511,1.441,0.511
				c0.219,0,0.484-0.024,0.795-0.075c0.309-0.05,0.594-0.115,0.854-0.195l0.21,0.48c-0.28,0.1-0.625,0.186-1.035,0.255
				s-0.755,0.104-1.035,0.104c-0.7,0-1.27-0.225-1.71-0.674c-0.44-0.451-0.659-1.045-0.659-1.785V69.083z"/>
		</g>
		<g>
			<path fill="#ECD078" d="M67.97,83.662c0,0.352-0.063,0.681-0.19,0.989s-0.303,0.574-0.527,0.798s-0.488,0.403-0.791,0.535
				s-0.63,0.198-0.981,0.198c-0.342,0-0.666-0.066-0.975-0.198c-0.307-0.132-0.576-0.31-0.805-0.535
				c-0.23-0.225-0.41-0.491-0.543-0.798c-0.131-0.308-0.197-0.637-0.197-0.989c0-0.342,0.066-0.664,0.197-0.967
				c0.133-0.303,0.313-0.566,0.543-0.791c0.229-0.225,0.498-0.403,0.805-0.535c0.309-0.132,0.633-0.198,0.975-0.198
				c0.352,0,0.679,0.066,0.981,0.198s0.566,0.31,0.791,0.535s0.4,0.488,0.527,0.791S67.97,83.32,67.97,83.662z"/>
		</g>
		<g>
			<path fill="#ECD078" d="M50.623,83.662c0,0.352-0.063,0.681-0.19,0.989s-0.303,0.574-0.527,0.798s-0.488,0.403-0.791,0.535
				s-0.63,0.198-0.981,0.198c-0.342,0-0.666-0.066-0.975-0.198c-0.307-0.132-0.576-0.31-0.805-0.535
				c-0.23-0.225-0.41-0.491-0.543-0.798c-0.131-0.308-0.197-0.637-0.197-0.989c0-0.342,0.066-0.664,0.197-0.967
				c0.133-0.303,0.313-0.566,0.543-0.791c0.229-0.225,0.498-0.403,0.805-0.535c0.309-0.132,0.633-0.198,0.975-0.198
				c0.352,0,0.679,0.066,0.981,0.198s0.566,0.31,0.791,0.535s0.4,0.488,0.527,0.791S50.623,83.32,50.623,83.662z"/>
		</g>
	</g>
</g>
</svg>
