<?xml version="1.0" encoding="utf-8"?>
<!-- Generator: Adobe Illustrator 16.0.0, SVG Export Plug-In . SVG Version: 6.00 Build 0)  -->
<!DOCTYPE svg PUBLIC "-//W3C//DTD SVG 1.1//EN" "http://www.w3.org/Graphics/SVG/1.1/DTD/svg11.dtd">
<svg version="1.1" id="Layer_1" xmlns="http://www.w3.org/2000/svg" xmlns:xlink="http://www.w3.org/1999/xlink" x="0px" y="0px"
	 width="54.924px" height="59.061px" viewBox="0 0 54.924 59.061" enable-background="new 0 0 54.924 59.061" xml:space="preserve">
<g>
	<path fill="#542437" d="M37.249,21.011c0,0.9-0.3,1.318-0.899,1.318h-0.66c-0.538,0-0.838,0.359-0.838,1.079l-0.119,1.258
		c-0.48,0.24-0.898,0.359-1.199,0.359l-1.139-0.359l0.061-3.535c0-0.899,0.359-1.379,1.078-1.379h0.539
		c0.6,0,0.898-0.359,0.898-1.078c0-0.898-0.42-1.317-1.258-1.317c-0.839-0.062-1.258-0.481-1.258-1.379v-4.733
		c0-0.898,0.359-1.379,1.078-1.379h0.539c0.6,0,0.898-0.359,0.898-1.078c0-0.898-0.42-1.317-1.258-1.317
		c-0.839-0.06-1.258-0.479-1.258-1.378V0.519C33.174,0.281,33.533,0.1,33.713,0.1s0.539,0.12,1.02,0.419l0.119,3.296
		c0,0.778,0.42,1.14,1.197,1.14c0.781,0,1.2,0.419,1.2,1.197v5.034c0,0.898-0.36,1.317-1.079,1.317h-0.48
		c-0.658,0-0.957,0.361-0.957,1.08c0,0.838,0.419,1.258,1.258,1.318c0.84,0.059,1.259,0.537,1.259,1.437V21.011L37.249,21.011z
		 M27.48,19.035c0,0.779-0.419,1.139-1.257,1.139c-0.778,0-1.197,0.419-1.197,1.197l-0.061,3.296c-0.54,0.3-0.9,0.42-1.019,0.42
		c-0.479-0.18-0.899-0.301-1.319-0.42v-5.572c0-0.898,0.42-1.379,1.26-1.379c0.898,0,1.318-0.42,1.318-1.318
		c0-0.719-0.359-1.078-1.019-1.078h-0.6c-0.659-0.18-0.96-0.359-0.96-1.379V9.208c0-0.9,0.42-1.378,1.26-1.378
		c0.898,0,1.318-0.419,1.318-1.317c0-0.721-0.359-1.08-1.019-1.08h-0.6c-0.659-0.18-0.96-0.359-0.96-1.379l-0.059-3.535
		C23.288,0.22,23.707,0.1,23.768,0.1c0.179,0,0.539,0.12,1.197,0.419l0.061,1.26c0,0.719,0.357,1.078,1.018,1.078h0.6
		c0.539,0,0.837,0.42,0.837,1.258v4.734c0,0.898-0.419,1.379-1.257,1.438c-0.84,0.061-1.258,0.48-1.258,1.318
		c0,0.719,0.299,1.078,0.959,1.078h0.598c0.54,0.061,0.958,0.061,0.958,1.318V19.035L27.48,19.035z M54.924,38.389
		c0,3.415-1.497,5.813-4.493,7.25c-2.038,1.019-4.674,1.497-7.851,1.497c-1.917,0-2.516,0-3.294-0.18l1.557-2.936l1.737,0.06
		c2.338,0,4.195-0.3,5.693-0.898c2.337-0.958,3.475-2.517,3.475-4.733c0-2.098-0.539-3.596-1.617-4.375
		c-0.779-0.539-1.918-0.838-3.535-0.838l1.678-3.295c1.857,0,3.236,0.42,4.254,1.258C54.146,32.576,54.924,34.974,54.924,38.389
		L54.924,38.389L54.924,38.389z M17.475,21.011c0,0.9-0.3,1.318-0.898,1.318h-0.658c-0.54,0-0.839,0.359-0.839,1.079l-0.12,1.258
		c-0.48,0.24-0.899,0.359-1.199,0.359l-1.139-0.359l0.061-3.535c0-0.899,0.359-1.379,1.078-1.379h0.539
		c0.6,0,0.898-0.359,0.898-1.078c0-0.898-0.418-1.317-1.258-1.317c-0.838-0.062-1.258-0.481-1.258-1.379v-4.733
		c0-0.898,0.359-1.379,1.078-1.379h0.539c0.6,0,0.898-0.359,0.898-1.078c0-0.898-0.418-1.317-1.258-1.317
		c-0.838-0.06-1.258-0.479-1.258-1.378V0.519C13.401,0.281,13.76,0.1,13.94,0.1s0.539,0.12,1.02,0.419l0.12,3.296
		c0,0.778,0.419,1.14,1.198,1.14s1.197,0.419,1.197,1.197v5.034c0,0.898-0.359,1.317-1.078,1.317h-0.479
		c-0.66,0-0.959,0.361-0.959,1.08c0,0.838,0.419,1.258,1.258,1.318c0.84,0.059,1.258,0.537,1.258,1.437V21.011L17.475,21.011z
		 M46.896,27.362c-3.716,8.21-7.071,14.62-10.065,19.174c-2.098,3.178-3.956,5.453-5.634,6.712
		c-0.778,0.538-1.497,1.019-2.276,1.559h-9.048c-0.897-0.48-1.856-0.958-2.756-1.499c-2.036-1.258-4.193-3.475-6.472-6.65
		C7.47,42.224,3.934,35.812,0.1,27.362H46.896L46.896,27.362z M51.629,59.061H0.459v-2.038h51.169V59.061L51.629,59.061z
		 M27.062,50.192"/>
</g>
</svg>
