<?xml version="1.0" encoding="utf-8"?>
<!-- Generator: Adobe Illustrator 16.0.0, SVG Export Plug-In . SVG Version: 6.00 Build 0)  -->
<!DOCTYPE svg PUBLIC "-//W3C//DTD SVG 1.1//EN" "http://www.w3.org/Graphics/SVG/1.1/DTD/svg11.dtd">
<svg version="1.1" id="Layer_1" xmlns="http://www.w3.org/2000/svg" xmlns:xlink="http://www.w3.org/1999/xlink" x="0px" y="0px"
	 width="72.034px" height="109.746px" viewBox="0 0 72.034 109.746" enable-background="new 0 0 72.034 109.746"
	 xml:space="preserve">
<g>
	<path fill="#C02943" d="M64.604,61.182c-0.582-0.146-1.188-0.23-1.813-0.23h-0.93v2.742v0.402h-9.283v-0.402v-2.742h-2.742H27.313
		h-2.741v2.742v0.402h-9.283v-0.402v-2.742h-0.929c-0.628,0-1.233,0.084-1.813,0.23c-3.224,0.811-5.614,3.721-5.614,7.197v8.51h6.73
		c1.025,0,1.858,0.832,1.858,1.855c0,1.027-0.833,1.857-1.858,1.857h-6.73v4.643h6.73c1.025,0,1.858,0.832,1.858,1.855
		c0,1.027-0.833,1.859-1.858,1.859h-6.73V93.6h6.73c1.025,0,1.858,0.832,1.858,1.857s-0.833,1.857-1.858,1.857h-6.73v2.785
		c0,4.102,3.324,7.426,7.428,7.426h48.432c4.102,0,7.428-3.324,7.428-7.426V68.379C70.219,64.902,67.828,61.992,64.604,61.182z
		 M41.545,89.406v7.008h-5.94v-7.008c-2.688-1.152-4.569-3.822-4.569-6.932c0-4.166,3.373-7.539,7.539-7.539
		c4.164,0,7.541,3.373,7.541,7.539C46.115,85.584,44.232,88.254,41.545,89.406z"/>
	<path fill="#C02943" d="M24.571,51.891c0.008-3.855,3.126-6.977,6.981-6.982h14.045c3.852,0.006,6.973,3.127,6.98,6.982v9.061
		h9.283v-9.061c-0.002-8.986-7.279-16.264-16.264-16.266H31.553c-8.985,0.002-16.263,7.279-16.265,16.266v9.061h9.283V51.891z"/>
</g>
</svg>
