<?xml version="1.0" encoding="utf-8"?>
<!-- Generator: Adobe Illustrator 16.0.0, SVG Export Plug-In . SVG Version: 6.00 Build 0)  -->
<!DOCTYPE svg PUBLIC "-//W3C//DTD SVG 1.1//EN" "http://www.w3.org/Graphics/SVG/1.1/DTD/svg11.dtd">
<svg version="1.1" id="Layer_1" xmlns="http://www.w3.org/2000/svg" xmlns:xlink="http://www.w3.org/1999/xlink" x="0px" y="0px"
	 width="72.035px" height="91.373px" viewBox="0 18.373 72.035 91.373" enable-background="new 0 18.373 72.035 91.373"
	 xml:space="preserve">
<g>
	<path fill="#ECD078" stroke="#ECD077" stroke-width="2" stroke-miterlimit="10" d="M13.807,48.318
		c-2.828-2.484-3.119-6.785-0.648-9.619l8.876-10.158l-6.83-5.969l-8.876,10.16C0.558,39.34,1.235,49.369,7.843,55.145l6.665,5.822
		l5.964-6.826L13.807,48.318z"/>
	<path fill="#ECD078" stroke="#ECD077" stroke-width="2" stroke-miterlimit="10" d="M64.736,62.262
		c-0.57-0.141-1.162-0.227-1.771-0.227H62.4h-0.344H52.99h-2.678h-4.145H28.312h-2.674v2.68v0.395H16.57v-0.395v-2.68h-0.906
		c-0.613,0-1.205,0.086-1.773,0.227c-3.146,0.793-5.482,3.633-5.482,7.029v8.313h6.572c1.004,0,1.816,0.812,1.816,1.813
		s-0.813,1.813-1.816,1.813H8.408v4.533h6.572c1.004,0,1.816,0.813,1.816,1.813s-0.813,1.813-1.816,1.813H8.408v4.534h6.572
		c1.004,0,1.816,0.813,1.816,1.813c0,1.002-0.813,1.814-1.816,1.814H8.408v2.721c0,4.006,3.248,7.254,7.256,7.254h47.3
		c4.007,0,7.254-3.248,7.254-7.254v-30.98C70.218,65.895,67.884,63.055,64.736,62.262z M42.313,88.465v7.076h-6v-7.076
		c-2.715-1.166-4.616-3.861-4.616-7.002c0-4.205,3.408-7.615,7.614-7.615c4.207,0,7.617,3.41,7.617,7.615
		C46.928,84.604,45.027,87.299,42.313,88.465z"/>
</g>
</svg>
