<?xml version="1.0" encoding="utf-8"?>
<!-- Generator: Adobe Illustrator 16.0.0, SVG Export Plug-In . SVG Version: 6.00 Build 0)  -->
<!DOCTYPE svg PUBLIC "-//W3C//DTD SVG 1.1//EN" "http://www.w3.org/Graphics/SVG/1.1/DTD/svg11.dtd">
<svg version="1.1" id="Layer_1" xmlns="http://www.w3.org/2000/svg" xmlns:xlink="http://www.w3.org/1999/xlink" x="0px" y="0px"
	 width="72.035px" height="91.373px" viewBox="0 18.373 72.035 91.373" enable-background="new 0 18.373 72.035 91.373"
	 xml:space="preserve">
<g>
	<path fill="#D95B43" d="M23.746,51.289c0.01-3.764,3.057-6.813,6.816-6.816h13.492v-9.07H30.563
		c-8.773,0.002-15.881,7.111-15.881,15.887v8.851h9.064V51.289z"/>
	<path fill="#D95B43" d="M62.736,62.262c-0.57-0.141-1.162-0.227-1.771-0.227H60.4h-0.344H50.99h-2.678h-4.145H26.311h-2.674v2.68
		v0.395h-9.068v-0.395v-2.68h-0.906c-0.613,0-1.205,0.086-1.773,0.227c-3.146,0.793-5.482,3.633-5.482,7.029v8.313h6.572
		c1.004,0,1.816,0.812,1.816,1.813s-0.813,1.813-1.816,1.813H6.406v4.533h6.572c1.004,0,1.816,0.813,1.816,1.813
		s-0.813,1.813-1.816,1.813H6.406v4.534h6.572c1.004,0,1.816,0.813,1.816,1.813c0,1.002-0.813,1.814-1.816,1.814H6.406v2.721
		c0,4.006,3.248,7.254,7.256,7.254h47.302c4.007,0,7.254-3.248,7.254-7.254v-30.98C68.218,65.895,65.884,63.055,62.736,62.262z
		 M40.313,88.465v7.076h-6.002v-7.076c-2.715-1.166-4.615-3.861-4.615-7.002c0-4.205,3.408-7.615,7.614-7.615
		c4.208,0,7.618,3.41,7.618,7.615C44.928,84.604,43.027,87.299,40.313,88.465z"/>
</g>
</svg>
