<?xml version="1.0" encoding="utf-8"?>
<!-- Generator: Adobe Illustrator 16.0.0, SVG Export Plug-In . SVG Version: 6.00 Build 0)  -->
<!DOCTYPE svg PUBLIC "-//W3C//DTD SVG 1.1//EN" "http://www.w3.org/Graphics/SVG/1.1/DTD/svg11.dtd">
<svg version="1.1" id="Layer_1" xmlns="http://www.w3.org/2000/svg" xmlns:xlink="http://www.w3.org/1999/xlink" x="0px" y="0px"
	 width="26.421px" height="29.525px" viewBox="0 0 26.421 29.525" enable-background="new 0 0 26.421 29.525" xml:space="preserve">
<g>
	<g>
		<path fill="#ECD078" d="M7.866,7.256c0.004-1.49,1.211-2.698,2.7-2.699h5.342V0.965h-5.342C7.092,0.966,4.277,3.78,4.277,7.256
			v3.505h3.589V7.256z"/>
		<path fill="#ECD078" d="M23.307,11.601c-0.227-0.056-0.461-0.09-0.701-0.09h-0.225h-0.136h-3.59h-1.062h-1.641h-7.07h-1.06v1.062
			v0.156H4.232v-0.156v-1.062H3.873c-0.242,0-0.477,0.034-0.702,0.09C1.925,11.915,1,13.04,1,14.385v3.292h2.604
			c0.396,0,0.719,0.32,0.719,0.718c0,0.396-0.322,0.718-0.719,0.718H1v1.795h2.604c0.396,0,0.719,0.321,0.719,0.719
			c0,0.396-0.322,0.718-0.719,0.718H1v1.796h2.604c0.396,0,0.719,0.321,0.719,0.718S4,25.575,3.604,25.575H1v1.078
			c0,1.586,1.286,2.872,2.873,2.872h18.732c1.586,0,2.872-1.286,2.872-2.872V14.385C25.478,13.04,24.553,11.915,23.307,11.601z
			 M14.426,21.978v2.802h-2.375v-2.802c-1.075-0.462-1.828-1.529-1.828-2.772c0-1.665,1.35-3.016,3.016-3.016
			s3.016,1.351,3.016,3.016C16.254,20.448,15.502,21.516,14.426,21.978z"/>
	</g>
	<path fill="#ECD078" d="M7.866,7.256c0.004-1.49,1.211-2.698,2.7-2.699h5.342V0.965h-5.342C7.092,0.966,4.277,3.78,4.277,7.256
		v3.505h3.589V7.256z M15.953,11.511h-7.07h-1.06v1.062v0.156H4.232v-0.156v-1.062H3.873c-0.242,0-0.477,0.034-0.702,0.09
		c-1.104,0.278-1.951,1.192-2.132,2.332c1.035,0.079,2.014,0.125,2.909,0.125c5.2,0,8.517-1.512,12.225-2.547H15.953z"/>
</g>
</svg>
