<?xml version="1.0" encoding="utf-8"?>
<!-- Generator: Adobe Illustrator 16.0.0, SVG Export Plug-In . SVG Version: 6.00 Build 0)  -->
<!DOCTYPE svg PUBLIC "-//W3C//DTD SVG 1.1//EN" "http://www.w3.org/Graphics/SVG/1.1/DTD/svg11.dtd">
<svg version="1.1" id="Layer_1" xmlns="http://www.w3.org/2000/svg" xmlns:xlink="http://www.w3.org/1999/xlink" x="0px" y="0px"
	 width="344px" height="60px" viewBox="-144.5 45 344 60" enable-background="new -144.5 45 344 60" xml:space="preserve">
<g>
	<path fill="#ECD078" d="M199.5,99.107c0,3.155-2.646,5.714-5.912,5.714h-332.174c-3.267,0-5.914-2.559-5.914-5.714V50.536
		c0-3.156,2.647-5.714,5.914-5.714h332.174c3.266,0,5.912,2.559,5.912,5.714V99.107z"/>
	<g>
		<g>
			<path fill="#1B3664" d="M-114.66,86.988V74.309h5.562c0.604,0,1.161,0.122,1.672,0.366c0.511,0.244,0.951,0.566,1.321,0.964
				c0.37,0.399,0.659,0.852,0.868,1.357c0.209,0.507,0.314,1.016,0.314,1.527c0,0.536-0.099,1.057-0.296,1.563
				c-0.197,0.506-0.474,0.955-0.831,1.349c-0.358,0.393-0.789,0.708-1.293,0.946c-0.505,0.238-1.06,0.357-1.663,0.357h-3.104v4.25
				H-114.66z M-112.11,80.577h2.956c0.468,0,0.859-0.185,1.173-0.554s0.471-0.869,0.471-1.5c0-0.321-0.049-0.61-0.148-0.866
				c-0.099-0.256-0.228-0.474-0.388-0.651c-0.161-0.179-0.348-0.313-0.563-0.402c-0.216-0.089-0.434-0.134-0.656-0.134h-2.845
				V80.577z"/>
			<path fill="#1B3664" d="M-100.969,87.167c-0.468,0-0.905-0.074-1.312-0.224c-0.406-0.148-0.757-0.356-1.053-0.625
				c-0.295-0.268-0.526-0.58-0.693-0.938c-0.166-0.357-0.25-0.75-0.25-1.179c0-0.44,0.102-0.848,0.305-1.223
				c0.203-0.375,0.486-0.693,0.85-0.956c0.363-0.262,0.797-0.467,1.303-0.616c0.505-0.148,1.059-0.223,1.663-0.223
				c0.432,0,0.853,0.035,1.266,0.106c0.413,0.072,0.779,0.173,1.1,0.304V81.06c0-0.619-0.182-1.096-0.545-1.429
				c-0.363-0.333-0.903-0.5-1.617-0.5c-0.518,0-1.023,0.089-1.515,0.268c-0.493,0.179-0.998,0.44-1.515,0.786l-0.758-1.519
				c1.244-0.797,2.587-1.196,4.028-1.196c1.392,0,2.473,0.33,3.242,0.991c0.77,0.661,1.155,1.616,1.155,2.866v2.911
				c0,0.25,0.049,0.429,0.148,0.535c0.098,0.107,0.271,0.167,0.518,0.179v2.036c-0.234,0.048-0.453,0.08-0.656,0.099
				c-0.203,0.018-0.379,0.026-0.526,0.026c-0.469-0.012-0.826-0.116-1.072-0.313c-0.247-0.196-0.4-0.461-0.462-0.795l-0.055-0.518
				c-0.431,0.548-0.955,0.964-1.57,1.25C-99.608,87.024-100.267,87.167-100.969,87.167z M-100.267,85.417
				c0.418,0,0.816-0.071,1.192-0.215c0.375-0.143,0.667-0.333,0.877-0.571c0.271-0.202,0.406-0.429,0.406-0.679v-1.071
				c-0.295-0.107-0.616-0.193-0.96-0.259c-0.345-0.065-0.678-0.099-0.998-0.099c-0.641,0-1.165,0.141-1.571,0.42
				c-0.406,0.28-0.609,0.634-0.609,1.063c0,0.405,0.16,0.741,0.48,1.009C-101.129,85.283-100.735,85.417-100.267,85.417z"/>
			<path fill="#1B3664" d="M-93.19,88.81c0.222,0.06,0.425,0.102,0.61,0.125c0.185,0.024,0.345,0.036,0.48,0.036
				c0.16,0,0.302-0.027,0.425-0.08c0.124-0.054,0.243-0.152,0.361-0.295c0.117-0.143,0.233-0.343,0.351-0.599
				c0.117-0.256,0.243-0.592,0.378-1.009l-3.843-9.357h2.55l2.642,7.286l2.328-7.286h2.329l-4.084,11.215
				c-0.258,0.714-0.671,1.265-1.238,1.651c-0.567,0.387-1.226,0.581-1.977,0.581c-0.432,0-0.869-0.065-1.313-0.196V88.81z"/>
			<path fill="#1B3664" d="M-70.315,86.988h-2.476v-5.25c0-0.75-0.135-1.298-0.406-1.644c-0.271-0.345-0.646-0.518-1.127-0.518
				c-0.247,0-0.499,0.048-0.758,0.143c-0.258,0.096-0.501,0.229-0.729,0.402s-0.434,0.378-0.619,0.616
				c-0.185,0.238-0.32,0.5-0.406,0.785v5.465h-2.476v-9.357h2.236v1.731c0.357-0.595,0.875-1.059,1.552-1.393
				c0.677-0.333,1.441-0.5,2.291-0.5c0.604,0,1.096,0.107,1.478,0.321c0.382,0.215,0.678,0.494,0.887,0.84
				c0.209,0.345,0.354,0.738,0.435,1.179s0.12,0.887,0.12,1.339V86.988z"/>
			<path fill="#1B3664" d="M-63.701,87.167c-0.788,0-1.497-0.131-2.125-0.393c-0.628-0.262-1.162-0.616-1.598-1.063
				c-0.438-0.446-0.773-0.961-1.007-1.544c-0.234-0.584-0.352-1.197-0.352-1.84c0-0.654,0.117-1.273,0.352-1.857
				c0.233-0.583,0.569-1.098,1.007-1.545c0.437-0.446,0.97-0.8,1.598-1.063c0.628-0.262,1.336-0.393,2.125-0.393
				c0.789,0,1.494,0.131,2.116,0.393c0.622,0.263,1.152,0.616,1.589,1.063c0.437,0.447,0.772,0.962,1.007,1.545
				c0.234,0.584,0.351,1.203,0.351,1.857c0,0.643-0.117,1.256-0.351,1.84c-0.234,0.583-0.567,1.098-0.998,1.544
				c-0.432,0.447-0.961,0.802-1.589,1.063C-62.205,87.036-62.913,87.167-63.701,87.167z M-66.232,82.327
				c0,0.417,0.065,0.795,0.194,1.134c0.13,0.34,0.308,0.635,0.536,0.885s0.496,0.443,0.804,0.58c0.308,0.137,0.64,0.205,0.998,0.205
				c0.357,0,0.69-0.068,0.998-0.205c0.308-0.137,0.575-0.33,0.804-0.58c0.228-0.25,0.407-0.548,0.536-0.894
				c0.129-0.345,0.194-0.726,0.194-1.143c0-0.404-0.065-0.78-0.194-1.125c-0.129-0.346-0.308-0.644-0.536-0.894
				c-0.229-0.25-0.496-0.443-0.804-0.58c-0.308-0.137-0.641-0.205-0.998-0.205c-0.357,0-0.69,0.071-0.998,0.214
				c-0.308,0.144-0.576,0.34-0.804,0.59s-0.406,0.548-0.536,0.893C-66.167,81.548-66.232,81.923-66.232,82.327z"/>
			<path fill="#1B3664" d="M-45.316,77.631h2.365l-4.046,9.357h-2.033l-1.663-4.107l-1.644,4.107h-2.033l-4.046-9.357h2.347
				l2.882,7.107l1.183-3.036l-1.7-4.054h1.996l1.016,2.875l1.035-2.875h1.995l-1.681,4.054l1.164,3.036L-45.316,77.631z"/>
			<path fill="#1B3664" d="M-26.322,77.631h2.365l-4.046,9.357h-2.033l-1.663-4.107l-1.644,4.107h-2.033l-4.046-9.357h2.347
				l2.882,7.107l1.183-3.036l-1.7-4.054h1.996l1.016,2.875l1.035-2.875h1.996l-1.682,4.054l1.164,3.036L-26.322,77.631z"/>
			<path fill="#1B3664" d="M-22.774,76.327v-2.375h2.476v2.375H-22.774z M-22.774,86.988v-9.357h2.476v9.357H-22.774z"/>
			<path fill="#1B3664" d="M-12.28,86.506c-0.333,0.144-0.742,0.286-1.229,0.429c-0.487,0.143-0.995,0.215-1.524,0.215
				c-0.345,0-0.668-0.042-0.97-0.125c-0.302-0.084-0.567-0.218-0.795-0.402s-0.409-0.422-0.545-0.714s-0.204-0.646-0.204-1.063
				V79.47h-1.256v-1.839h1.256v-3.036h2.477v3.036h2.051v1.839h-2.051v4.572c0,0.333,0.092,0.568,0.277,0.705
				s0.407,0.205,0.665,0.205c0.259,0,0.511-0.041,0.757-0.125c0.247-0.083,0.444-0.154,0.591-0.214L-12.28,86.506z"/>
			<path fill="#1B3664" d="M-2.043,86.988h-2.476v-5.25c0-0.738-0.142-1.283-0.425-1.635c-0.284-0.351-0.684-0.526-1.201-0.526
				c-0.221,0-0.456,0.048-0.702,0.143c-0.247,0.096-0.48,0.229-0.702,0.402s-0.425,0.378-0.61,0.616s-0.32,0.5-0.407,0.785v5.465
				h-2.476V73.952h2.476v5.411c0.357-0.606,0.841-1.074,1.451-1.401s1.284-0.491,2.023-0.491c0.628,0,1.139,0.104,1.534,0.313
				c0.394,0.209,0.702,0.485,0.924,0.83c0.222,0.346,0.375,0.738,0.461,1.179c0.086,0.441,0.13,0.894,0.13,1.357V86.988z"/>
		</g>
		<g>
			<path fill="#33679A" d="M141.313,65.872c-1.669-0.9-4.278-1.355-7.853-1.355c-1.767,0-3.54,0.138-5.322,0.404
				c-1.308,0.193-1.441,0.226-2.254,0.396c-1.671,0.352-1.929,1.969-1.929,1.969l-0.537,2.133c-0.304,1.364,0.501,1.308,0.857,1.202
				c0.73-0.212,1.126-0.424,2.613-0.75c1.424-0.312,2.927-0.545,4.126-0.536c1.759,0,3.097,0.187,3.987,0.545
				c0.889,0.375,1.329,1.014,1.329,1.927c0.003,0.217,0.009,0.422-0.072,0.601c-0.073,0.167-0.213,0.33-0.634,0.384
				c-2.512,0.144-4.312,0.366-6.483,0.672c-2.141,0.292-4.014,0.791-5.58,1.483c-1.67,0.715-2.919,1.672-3.779,2.886
				c-0.84,1.22-1.26,2.695-1.262,4.437c0,1.644,0.612,2.983,1.794,4.024c1.198,1.027,2.753,1.537,4.635,1.537
				c1.178-0.01,2.1-0.091,2.76-0.251c0.652-0.158,1.364-0.386,2.116-0.7c0.563-0.228,1.169-0.556,1.811-0.969
				c0.641-0.413,1.086-0.707,1.655-1.067l0.021,0.034l-0.159,0.683c-0.002,0.008-0.011,0.011-0.011,0.018l0.005,0.012
				c-0.184,0.825,0.328,1.51,1.174,1.591l0.01,0.014h0.075l0.001,0.005c0.562,0,2.484-0.002,3.384-0.005h0.627
				c0.043,0,0.046-0.012,0.063-0.021c0.861-0.103,1.688-0.781,1.883-1.596l3.209-13.39c0.074-0.315,0.132-0.679,0.166-1.097
				c0.042-0.423,0.09-0.771,0.075-1.022C143.821,68.173,142.977,66.772,141.313,65.872z M133.536,81.827
				c-0.546,0.332-1.121,0.617-1.725,0.859c-0.813,0.316-1.582,0.481-2.293,0.481c-1.093,0-1.933-0.149-2.5-0.469
				c-0.567-0.303-0.866-0.829-0.857-1.583c0-0.869,0.209-1.545,0.639-2.075c0.433-0.509,1.076-0.918,1.875-1.225
				c0.795-0.26,1.77-0.474,2.896-0.628c1.004-0.122,2.984-0.342,3.237-0.344c0.255-0.002,0.422-0.138,0.311,0.516
				c-0.052,0.283-0.623,2.554-0.886,3.585C134.156,81.257,133.73,81.707,133.536,81.827z"/>
			<path fill="#1B3664" d="M86.093,64.813c-0.941,0-2.177,0.737-2.762,1.627c0,0-6.299,10.436-6.916,11.478
				c-0.338,0.563-0.679,0.205-0.735-0.002c-0.045-0.255-1.951-11.408-1.951-11.408c-0.215-0.897-1.184-1.668-2.398-1.665
				l-3.926,0.006c-0.948,0-1.538,0.732-1.329,1.618c0,0,3.003,16.447,3.589,20.315c0.291,2.139-0.031,2.518-0.031,2.518
				l-3.892,6.561c-0.569,0.889-0.258,1.617,0.684,1.617l4.553-0.003c0.94,0,2.19-0.726,2.751-1.616l17.509-28.622
				c0,0,1.675-2.445,0.131-2.424C90.314,64.828,86.093,64.813,86.093,64.813"/>
			<path fill="#1B3664" d="M30.82,70.631c-1.324,0.936-3.162,1.406-5.545,1.406h-1.078c-0.951,0-1.55-0.728-1.341-1.622l1.322-5.511
				c0.203-0.887,1.15-1.625,2.099-1.616l1.439-0.009c1.68,0,2.958,0.279,3.819,0.831c0.85,0.539,1.282,1.388,1.266,2.53
				C32.826,68.36,32.151,69.691,30.82,70.631 M40.31,62.138c-0.545-1.03-1.363-1.867-2.409-2.499
				c-1.085-0.646-2.345-1.092-3.814-1.361c-1.48-0.256-3.208-0.381-5.188-0.398l-9.176,0.006c-0.955,0.012-1.888,0.734-2.108,1.62
				L11.428,85.5c-0.213,0.891,0.382,1.626,1.333,1.626h4.395c0.95,0,1.892-0.717,2.104-1.626l1.517-6.308
				c0.202-0.883,1.139-1.612,2.094-1.612h1.255c5.375-0.004,9.544-1.068,12.542-3.195c2.991-2.123,4.487-4.937,4.481-8.417
				C41.155,64.438,40.883,63.159,40.31,62.138"/>
			<path fill="#33679A" d="M110.623,70.737c-1.317,0.925-3.166,1.391-5.544,1.391h-1.094c-0.945,0.01-1.557-0.729-1.332-1.615
				l1.317-5.519c0.197-0.874,1.158-1.617,2.091-1.609l1.444-0.007c1.688,0.007,2.947,0.28,3.82,0.823
				c0.855,0.548,1.271,1.399,1.277,2.532C112.607,68.461,111.946,69.79,110.623,70.737 M120.11,62.232
				c-0.549-1.03-1.375-1.858-2.421-2.505c-1.071-0.644-2.347-1.093-3.822-1.355c-1.458-0.248-3.193-0.389-5.169-0.393l-9.195,0.004
				c-0.948,0.016-1.876,0.735-2.094,1.62l-6.183,26.003c-0.228,0.883,0.388,1.619,1.318,1.615l4.412-0.008
				c0.936,0.008,1.89-0.725,2.109-1.607l1.491-6.311c0.21-0.884,1.162-1.625,2.112-1.613h1.253c5.383,0,9.556-1.068,12.545-3.195
				c2.979-2.138,4.481-4.943,4.481-8.431C120.938,64.533,120.671,63.25,120.11,62.232"/>
			<path fill="#1B3664" d="M61.497,65.852c-1.67-0.899-4.279-1.354-7.853-1.354c-1.767,0-3.54,0.136-5.323,0.404
				c-1.31,0.192-1.439,0.225-2.254,0.395c-1.673,0.353-1.929,1.97-1.929,1.97l-0.537,2.134c-0.303,1.364,0.503,1.308,0.858,1.201
				c0.728-0.212,1.125-0.423,2.614-0.75c1.42-0.311,2.926-0.544,4.124-0.536c1.76,0,3.098,0.186,3.985,0.544
				c0.892,0.375,1.33,1.015,1.33,1.928c0.005,0.217,0.01,0.422-0.068,0.601c-0.075,0.168-0.218,0.33-0.639,0.383
				c-2.508,0.147-4.309,0.368-6.481,0.673c-2.143,0.292-4.015,0.792-5.581,1.481c-1.671,0.716-2.917,1.676-3.778,2.888
				c-0.838,1.22-1.26,2.695-1.264,4.436c0,1.644,0.614,2.984,1.795,4.024c1.196,1.028,2.753,1.536,4.637,1.536
				c1.176-0.007,2.097-0.091,2.759-0.249c0.652-0.161,1.365-0.385,2.115-0.701c0.565-0.227,1.169-0.557,1.812-0.969
				c0.64-0.412,1.087-0.706,1.659-1.066l0.017,0.033l-0.161,0.683c-0.001,0.008-0.009,0.012-0.009,0.019l0.006,0.012
				c-0.184,0.825,0.328,1.51,1.171,1.589l0.012,0.017h0.073l0.004,0.005c0.561,0,2.484-0.002,3.382-0.005h0.626
				c0.043,0,0.049-0.015,0.063-0.022c0.865-0.105,1.688-0.783,1.883-1.595l3.212-13.391c0.072-0.314,0.13-0.678,0.163-1.096
				c0.043-0.425,0.09-0.771,0.078-1.022C64.004,68.153,63.159,66.752,61.497,65.852z M53.718,81.807
				c-0.545,0.333-1.118,0.616-1.724,0.858c-0.812,0.315-1.583,0.483-2.295,0.483c-1.089,0-1.931-0.15-2.499-0.469
				c-0.568-0.303-0.866-0.829-0.858-1.584c0-0.869,0.211-1.546,0.642-2.074c0.433-0.51,1.074-0.921,1.871-1.226
				c0.796-0.262,1.776-0.473,2.9-0.627c1.001-0.121,2.984-0.342,3.238-0.346c0.252-0.001,0.421-0.136,0.307,0.517
				c-0.049,0.283-0.621,2.556-0.884,3.586C54.336,81.236,53.91,81.688,53.718,81.807z"/>
			<g>
				<g>
					<path fill="#33679A" d="M156.469,58.192h-3.935c-0.002,0-0.004,0-0.006,0l-0.002,0c-0.898,0-1.811,0.665-2.066,1.511
						c-0.012,0.036-0.029,0.07-0.038,0.106c0,0-0.1,0.438-0.269,1.185l-5.373,23.541c-0.134,0.573-0.224,0.95-0.25,1.044l0.01,0.014
						c-0.188,0.827,0.328,1.512,1.174,1.588l0.011,0.015h4.081c0.89,0,1.794-0.653,2.062-1.487c0.015-0.043,0.035-0.085,0.046-0.129
						l5.893-25.771l-0.009-0.003C157.996,58.923,157.409,58.192,156.469,58.192z"/>
				</g>
			</g>
			<g>
				<path fill="#33679A" d="M163.913,63.439c-0.134,0.034-0.279,0.062-0.441,0.084c-0.159,0.022-0.303,0.034-0.424,0.034
					c-0.439,0-0.771-0.115-0.997-0.34c-0.229-0.228-0.341-0.592-0.341-1.092v-2.199h-0.488v-0.585h0.488v-1.188h0.717v1.188h1.486
					v0.585h-1.486v1.884c0,0.217,0.007,0.387,0.016,0.509c0.012,0.122,0.049,0.236,0.108,0.342c0.056,0.099,0.134,0.171,0.232,0.217
					c0.099,0.045,0.249,0.068,0.449,0.068c0.118,0,0.239-0.017,0.368-0.051c0.129-0.032,0.219-0.061,0.276-0.083h0.036V63.439z"/>
				<path fill="#33679A" d="M171.028,63.476h-0.721v-2.354c0-0.177-0.008-0.349-0.025-0.514c-0.018-0.166-0.054-0.297-0.105-0.396
					c-0.059-0.105-0.144-0.186-0.253-0.24c-0.11-0.054-0.268-0.082-0.475-0.082c-0.202,0-0.402,0.049-0.604,0.147
					c-0.202,0.097-0.403,0.221-0.605,0.371c0.006,0.058,0.013,0.124,0.02,0.199c0.005,0.075,0.007,0.15,0.007,0.224v2.646h-0.72
					v-2.354c0-0.183-0.009-0.355-0.024-0.521c-0.018-0.164-0.054-0.294-0.105-0.393c-0.061-0.106-0.144-0.186-0.255-0.239
					c-0.108-0.053-0.268-0.08-0.474-0.08c-0.197,0-0.392,0.047-0.591,0.141c-0.199,0.093-0.395,0.213-0.592,0.359v3.087h-0.721
					v-4.135h0.721v0.458c0.226-0.18,0.447-0.321,0.672-0.422c0.225-0.1,0.461-0.151,0.715-0.151c0.289,0,0.538,0.059,0.739,0.177
					c0.204,0.12,0.356,0.283,0.455,0.494c0.291-0.237,0.557-0.408,0.796-0.513c0.24-0.105,0.495-0.158,0.77-0.158
					c0.47,0,0.817,0.138,1.041,0.412c0.224,0.276,0.336,0.66,0.336,1.154V63.476z"/>
			</g>
		</g>
	</g>
</g>
</svg>
