<?xml version="1.0" encoding="utf-8"?>
<!-- Generator: Adobe Illustrator 16.0.0, SVG Export Plug-In . SVG Version: 6.00 Build 0)  -->
<!DOCTYPE svg PUBLIC "-//W3C//DTD SVG 1.1//EN" "http://www.w3.org/Graphics/SVG/1.1/DTD/svg11.dtd">
<svg version="1.1" id="Layer_1" xmlns="http://www.w3.org/2000/svg" xmlns:xlink="http://www.w3.org/1999/xlink" x="0px" y="0px"
	 width="45.953px" height="53.351px" viewBox="0 0 45.953 53.351" enable-background="new 0 0 45.953 53.351" xml:space="preserve">
<g>
	<path fill="#542437" d="M30.069,17.312c-2.111-1.818-2.818-4.52-1.759-6.324l-0.046-0.039L5.075,37.892
		c-0.111,0.1-0.216,0.205-0.315,0.318c-0.195,0.227-0.354,0.475-0.479,0.736c-0.048,0.102-0.089,0.207-0.127,0.313
		c-0.641,1.771,0.123,4.127,2.024,5.764c1.902,1.637,4.344,2.039,6,1.143c0.099-0.053,0.196-0.109,0.29-0.172
		c0.241-0.164,0.462-0.357,0.657-0.582c0.099-0.115,0.187-0.236,0.268-0.359l23.18-26.936
		C34.944,19.423,32.176,19.125,30.069,17.312z"/>
	<path fill="#542437" d="M37.697,14.187c-1.191-0.117-2.453-0.646-3.538-1.58c-1.097-0.943-1.811-2.127-2.101-3.301
		c-0.132-0.533-0.179-1.064-0.126-1.572c0.069-0.691,0.318-1.33,0.752-1.865l-0.004-0.004l-2.546,2.959l-0.208,0.24l0.016,0.016
		c-0.149,0.213-0.271,0.439-0.367,0.678c-0.262,0.65-0.327,1.385-0.211,2.137c0.203,1.313,0.955,2.678,2.189,3.74
		s2.696,1.602,4.023,1.607c0.727,0.002,1.412-0.154,1.998-0.477c0.346-0.191,0.66-0.436,0.925-0.742
		c0.134-0.156,0.245-0.324,0.347-0.5l1.817-2.111c-0.395,0.316-0.853,0.543-1.355,0.672C38.804,14.212,38.259,14.246,37.697,14.187z
		"/>
	<path fill="#542437" d="M43.337,1.943c-2.311-1.988-5.094-2.541-6.219-1.234l0,0L34.527,3.72l-0.163,0.188l0.012,0.012
		c-0.23,0.314-0.402,0.662-0.514,1.033c-0.173,0.574-0.204,1.199-0.105,1.838c0.047,0.301,0.121,0.602,0.225,0.9
		c0.35,1.018,1.012,2.02,1.965,2.84c0.952,0.82,2.041,1.326,3.1,1.52c0.313,0.057,0.621,0.086,0.924,0.088
		c0.646,0.002,1.261-0.123,1.802-0.377c0.425-0.201,0.808-0.479,1.121-0.842c0.134-0.156,0.245-0.326,0.347-0.498l1.906-2.217
		c0.123-0.086,0.239-0.182,0.338-0.297C46.607,6.601,45.647,3.931,43.337,1.943z"/>
	<path fill="#542437" d="M5.044,46.341c-2.204-1.896-2.879-4.756-1.612-6.555c-0.077,0.074-0.176,0.131-0.224,0.229
		C1.908,42.626,0,51.726,0,51.726s8.374-2.58,11.573-4.512c0.092-0.057,0.131-0.17,0.193-0.256
		C10.175,48.478,7.247,48.238,5.044,46.341z"/>
</g>
</svg>
