<?xml version="1.0" encoding="utf-8"?>
<!-- Generator: Adobe Illustrator 16.0.0, SVG Export Plug-In . SVG Version: 6.00 Build 0)  -->
<!DOCTYPE svg PUBLIC "-//W3C//DTD SVG 1.1//EN" "http://www.w3.org/Graphics/SVG/1.1/DTD/svg11.dtd">
<svg version="1.1" id="Layer_1" xmlns="http://www.w3.org/2000/svg" xmlns:xlink="http://www.w3.org/1999/xlink" x="0px" y="0px"
	 width="54.028px" height="38.965px" viewBox="0 0 54.028 38.965" enable-background="new 0 0 54.028 38.965" xml:space="preserve">
<g>
	<path fill-rule="evenodd" clip-rule="evenodd" fill="#542437" d="M8.615,0.1c3.8,0,6.885,3.085,6.885,6.885
		c0,3.012-1.941,5.574-4.646,6.504v2.595h6.377v4.477h-6.377v1.496l6.268,14.221l-3.794,1.67l-3.401-7.71H7.562l-3.399,7.71
		l-3.8-1.67l6.016-13.654v-2.063H0v-4.477h6.377V13.49c-2.701-0.93-4.638-3.492-4.638-6.504C1.739,3.185,4.821,0.1,8.615,0.1
		L8.615,0.1z"/>
	<path fill-rule="evenodd" clip-rule="evenodd" fill="#542437" d="M27.014,0.1c3.8,0,6.886,3.085,6.886,6.885
		c0,3.012-1.942,5.574-4.646,6.504v2.595h6.377v4.477h-6.377v1.496l6.268,14.221l-3.793,1.67l-3.401-7.71H25.96l-3.4,7.71l-3.8-1.67
		l6.016-13.654v-2.063h-6.377v-4.477h6.377V13.49c-2.701-0.93-4.638-3.492-4.638-6.504C20.138,3.185,23.22,0.1,27.014,0.1
		L27.014,0.1z"/>
	<path fill-rule="evenodd" clip-rule="evenodd" fill="#542437" d="M45.411,0.1c3.801,0,6.886,3.085,6.886,6.885
		c0,3.012-1.941,5.574-4.646,6.504v2.595h6.377v4.477h-6.377v1.496l6.268,14.221l-3.793,1.67l-3.402-7.71h-2.365l-3.4,7.71
		l-3.8-1.67l6.016-13.654v-2.063h-6.378v-4.477h6.378V13.49c-2.7-0.93-4.638-3.492-4.638-6.504C38.536,3.185,41.618,0.1,45.411,0.1
		L45.411,0.1z"/>
</g>
</svg>
