<?xml version="1.0" encoding="utf-8"?>
<!-- Generator: Adobe Illustrator 16.0.0, SVG Export Plug-In . SVG Version: 6.00 Build 0)  -->
<!DOCTYPE svg PUBLIC "-//W3C//DTD SVG 1.1//EN" "http://www.w3.org/Graphics/SVG/1.1/DTD/svg11.dtd">
<svg version="1.1" id="Layer_1" xmlns="http://www.w3.org/2000/svg" xmlns:xlink="http://www.w3.org/1999/xlink" x="0px" y="0px"
	 width="107px" height="71px" viewBox="0 0 107 71" enable-background="new 0 0 107 71" xml:space="preserve">
<g>
	<path fill="#542437" d="M24.001,32.518c-6.381,0-12.18,2.928-16.498,7.703c-4.718,5.216-7.671,12.636-7.671,20.876h7.671h14.712
		c2.421-10.001,8.14-18.374,15.68-23.378C33.966,34.445,29.174,32.518,24.001,32.518z"/>
	<ellipse fill="#542437" cx="24.001" cy="19.558" rx="11.069" ry="11.114"/>
	<path fill="#542437" d="M98.617,38.839c-4.258-4.429-9.837-7.121-15.954-7.121c-5.117,0-9.858,1.887-13.765,5.097
		c8.046,4.736,14.242,13.21,16.932,23.483h12.787h8.216C106.833,51.747,103.651,44.077,98.617,38.839z"/>
	<ellipse fill="#542437" cx="54.12" cy="14.892" rx="14.832" ry="14.892"/>
	<path fill="#542437" d="M84.186,60.299c-2.688-9.874-8.736-17.975-16.54-22.381c-4.103-2.316-8.688-3.614-13.525-3.614
		c-5.425,0-10.532,1.634-14.999,4.507c-7.292,4.688-12.856,12.687-15.269,22.286C23.06,64.246,22.6,67.565,22.539,71H85.7
		C85.637,67.274,85.105,63.684,84.186,60.299z"/>
	<ellipse fill="#542437" cx="82.663" cy="18.758" rx="11.071" ry="11.114"/>
</g>
</svg>
