<?xml version="1.0" encoding="utf-8"?>
<!-- Generator: Adobe Illustrator 16.0.0, SVG Export Plug-In . SVG Version: 6.00 Build 0)  -->
<!DOCTYPE svg PUBLIC "-//W3C//DTD SVG 1.1//EN" "http://www.w3.org/Graphics/SVG/1.1/DTD/svg11.dtd">
<svg version="1.1" id="Layer_1" xmlns="http://www.w3.org/2000/svg" xmlns:xlink="http://www.w3.org/1999/xlink" x="0px" y="0px"
	 width="115.164px" height="76.563px" viewBox="0 0 115.164 76.563" enable-background="new 0 0 115.164 76.563"
	 xml:space="preserve">
<g>
	<path fill="#542437" d="M26.014,35.31c-6.868,0-13.109,3.14-17.758,8.259C3.179,49.161,0,57.114,0,65.946h8.256h15.836
		c2.605-10.721,8.761-19.695,16.876-25.061C36.737,37.377,31.581,35.31,26.014,35.31z"/>
	<circle fill="#542437" cx="26.014" cy="21.417" r="11.914"/>
	<path fill="#542437" d="M106.321,42.086c-4.581-4.748-10.587-7.632-17.17-7.632c-5.509,0-10.612,2.022-14.816,5.462
		c8.66,5.078,15.33,14.16,18.224,25.174h13.763h8.843C115.164,55.924,111.74,47.702,106.321,42.086z"/>
	<circle fill="#542437" cx="58.43" cy="16.415" r="15.963"/>
	<path fill="#542437" d="M90.789,65.09c-2.894-10.584-9.402-19.268-17.803-23.992c-4.415-2.482-9.351-3.874-14.557-3.874
		c-5.839,0-11.336,1.752-16.143,4.831c-7.849,5.027-13.838,13.602-16.435,23.891c-0.854,3.377-1.349,6.936-1.414,10.617H92.42
		C92.35,72.569,91.779,68.719,90.789,65.09z"/>
	<circle fill="#542437" cx="89.151" cy="20.561" r="11.914"/>
</g>
</svg>
