<?xml version="1.0" encoding="utf-8"?>
<!-- Generator: Adobe Illustrator 16.0.0, SVG Export Plug-In . SVG Version: 6.00 Build 0)  -->
<!DOCTYPE svg PUBLIC "-//W3C//DTD SVG 1.1//EN" "http://www.w3.org/Graphics/SVG/1.1/DTD/svg11.dtd">
<svg version="1.1" id="Layer_1" xmlns="http://www.w3.org/2000/svg" xmlns:xlink="http://www.w3.org/1999/xlink" x="0px" y="0px"
	 width="130px" height="126px" viewBox="0 0 130 126" enable-background="new 0 0 130 126" xml:space="preserve">
<path fill="#542437" d="M130,117.458c0,4.719-3.832,8.543-8.561,8.543H8.56C3.832,126,0,122.176,0,117.458V8.542
	C0,3.825,3.832,0,8.56,0h112.88C126.168,0,130,3.825,130,8.542V117.458z"/>
<g>
	<path fill="#C02943" d="M15.275,99.608V71.264h11.761c1.226,0,2.353,0.261,3.38,0.779c1.026,0.52,1.913,1.197,2.66,2.036
		c0.746,0.838,1.326,1.79,1.739,2.854s0.62,2.143,0.62,3.232c0,1.172-0.193,2.297-0.58,3.375c-0.387,1.076-0.939,2.029-1.66,2.854
		c-0.72,0.824-1.579,1.49-2.579,1.996s-2.114,0.758-3.341,0.758h-9.239v10.459H15.275z M18.036,86.674h9.08
		c0.826,0,1.579-0.18,2.26-0.539c0.68-0.359,1.26-0.838,1.74-1.438c0.479-0.6,0.853-1.291,1.119-2.076s0.4-1.602,0.4-2.456
		c0-0.878-0.153-1.709-0.46-2.495c-0.307-0.784-0.72-1.47-1.24-2.055c-0.52-0.585-1.134-1.044-1.84-1.378
		c-0.707-0.332-1.447-0.499-2.22-0.499h-8.84V86.674z"/>
	<path fill="#C02943" d="M51.636,99.809c-1.974,0-3.78-0.406-5.42-1.219c-1.641-0.811-3.047-1.889-4.22-3.232
		c-1.174-1.346-2.08-2.881-2.721-4.611c-0.64-1.73-0.96-3.5-0.96-5.311c0-1.889,0.34-3.699,1.021-5.428
		c0.68-1.73,1.62-3.261,2.819-4.592c1.2-1.33,2.613-2.388,4.24-3.174c1.626-0.784,3.387-1.177,5.28-1.177
		c1.973,0,3.78,0.419,5.42,1.257c1.64,0.839,3.04,1.936,4.2,3.294c1.16,1.357,2.06,2.895,2.7,4.611c0.64,1.717,0.96,3.467,0.96,5.25
		c0,1.889-0.341,3.699-1.021,5.43c-0.68,1.729-1.613,3.252-2.8,4.57c-1.187,1.316-2.594,2.369-4.22,3.152
		C55.289,99.417,53.528,99.809,51.636,99.809z M41.115,85.436c0,1.545,0.254,3.029,0.761,4.451c0.506,1.424,1.226,2.689,2.159,3.793
		c0.934,1.105,2.04,1.982,3.32,2.635s2.706,0.979,4.28,0.979c1.6,0,3.053-0.346,4.36-1.039c1.306-0.691,2.413-1.596,3.319-2.715
		c0.906-1.117,1.606-2.381,2.101-3.791c0.493-1.41,0.739-2.848,0.739-4.313c0-1.543-0.26-3.027-0.779-4.451
		c-0.521-1.422-1.247-2.681-2.181-3.773c-0.934-1.09-2.04-1.962-3.319-2.613c-1.28-0.652-2.694-0.979-4.24-0.979
		c-1.601,0-3.054,0.339-4.36,1.019c-1.307,0.678-2.413,1.575-3.319,2.693c-0.907,1.118-1.607,2.382-2.101,3.793
		C41.362,82.536,41.115,83.973,41.115,85.436z"/>
	<path fill="#C02943" d="M86.996,76.574c-0.8-0.905-1.874-1.637-3.221-2.196c-1.347-0.559-2.859-0.838-4.54-0.838
		c-2.533,0-4.373,0.473-5.52,1.417c-1.146,0.945-1.72,2.229-1.72,3.853c0,0.852,0.153,1.55,0.46,2.095
		c0.306,0.547,0.786,1.02,1.439,1.418s1.48,0.746,2.48,1.037c1,0.293,2.18,0.586,3.54,0.879c1.52,0.32,2.88,0.672,4.08,1.059
		c1.2,0.385,2.226,0.877,3.08,1.477c0.853,0.6,1.506,1.33,1.96,2.195c0.453,0.865,0.68,1.938,0.68,3.213
		c0,1.307-0.254,2.436-0.76,3.395c-0.507,0.957-1.214,1.756-2.12,2.396c-0.907,0.637-1.987,1.109-3.24,1.416
		c-1.254,0.305-2.613,0.459-4.08,0.459c-4.453,0-8.254-1.371-11.399-4.111l1.359-2.275c1.04,1.09,2.44,2.016,4.2,2.773
		s3.72,1.139,5.88,1.139c2.267,0,4.04-0.406,5.32-1.219c1.28-0.811,1.92-2.041,1.92-3.691c0-0.879-0.18-1.617-0.54-2.217
		s-0.9-1.117-1.62-1.557s-1.62-0.818-2.7-1.137c-1.08-0.32-2.326-0.639-3.739-0.959c-1.494-0.346-2.801-0.705-3.921-1.078
		c-1.119-0.373-2.06-0.838-2.819-1.396s-1.334-1.23-1.721-2.018c-0.387-0.783-0.579-1.748-0.579-2.894
		c0-1.303,0.246-2.468,0.739-3.493c0.493-1.023,1.187-1.876,2.08-2.554c0.894-0.679,1.96-1.198,3.2-1.557
		c1.24-0.36,2.606-0.539,4.1-0.539c1.866,0,3.54,0.285,5.021,0.857c1.479,0.573,2.82,1.377,4.02,2.415L86.996,76.574z"/>
	<path fill="#C02943" d="M114.676,73.739h-10.12v25.869h-2.8V73.739h-10.12v-2.476h23.04V73.739z"/>
</g>
<path fill="#C02943" d="M88.835,34.867c0-10.962-10.672-19.85-23.834-19.85c-13.164,0-23.836,8.887-23.836,19.85
	c0,10.967,10.672,19.85,23.836,19.85c7.989,0,13.765-3.641,13.765-3.641l9.327,3.641l-4.465-7.464
	C83.628,47.252,88.835,42.183,88.835,34.867z"/>
</svg>
