<?xml version="1.0" encoding="utf-8"?>
<!-- Generator: Adobe Illustrator 16.0.0, SVG Export Plug-In . SVG Version: 6.00 Build 0)  -->
<!DOCTYPE svg PUBLIC "-//W3C//DTD SVG 1.1//EN" "http://www.w3.org/Graphics/SVG/1.1/DTD/svg11.dtd">
<svg version="1.1" id="Layer_1" xmlns="http://www.w3.org/2000/svg" xmlns:xlink="http://www.w3.org/1999/xlink" x="0px" y="0px"
	 width="61px" height="61px" viewBox="0 0 61 61" enable-background="new 0 0 61 61" xml:space="preserve">
<path fill="#CB2027" d="M51.125,0.5H9.875C4.696,0.5,0.5,4.7,0.5,9.875v41.25c0,5.179,4.196,9.375,9.375,9.375h41.25
	c5.178,0,9.375-4.196,9.375-9.375V9.875C60.5,4.7,56.303,0.5,51.125,0.5z M33.598,37.183c-1.861,0-3.611-1.007-4.21-2.149
	c0,0-1.001,3.97-1.212,4.739c-0.747,2.706-2.943,5.416-3.111,5.636c-0.119,0.158-0.383,0.106-0.41-0.096
	c-0.048-0.348-0.608-3.764,0.051-6.551c0.331-1.398,2.217-9.39,2.217-9.39s-0.551-1.098-0.551-2.724c0-2.556,1.48-4.461,3.325-4.461
	c1.567,0,2.322,1.176,2.322,2.585c0,1.579-1.002,3.934-1.52,6.116c-0.432,1.827,0.916,3.318,2.72,3.318
	c3.264,0,5.463-4.194,5.463-9.16c0-3.778-2.543-6.606-7.171-6.606c-5.226,0-8.483,3.9-8.483,8.254c0,1.502,0.444,2.56,1.138,3.381
	c0.318,0.376,0.362,0.526,0.247,0.958c-0.084,0.319-0.271,1.08-0.351,1.384c-0.114,0.436-0.47,0.59-0.862,0.429
	c-2.409-0.981-3.529-3.618-3.529-6.581c0-4.896,4.128-10.767,12.316-10.767c6.579,0,10.909,4.761,10.909,9.873
	C42.896,32.133,39.137,37.183,33.598,37.183z"/>
</svg>
