<?xml version="1.0" encoding="utf-8"?>
<!-- Generator: Adobe Illustrator 16.0.0, SVG Export Plug-In . SVG Version: 6.00 Build 0)  -->
<!DOCTYPE svg PUBLIC "-//W3C//DTD SVG 1.1//EN" "http://www.w3.org/Graphics/SVG/1.1/DTD/svg11.dtd">
<svg version="1.1" id="Layer_1" xmlns="http://www.w3.org/2000/svg" xmlns:xlink="http://www.w3.org/1999/xlink" x="0px" y="0px"
	 width="322px" height="131px" viewBox="-85.938 -48.5 322 131" enable-background="new -85.938 -48.5 322 131"
	 xml:space="preserve">
<path fill="#ECD078" d="M236.063,74.724c0,4.436-3.575,8.031-7.985,8.031H-77.952c-4.411,0-7.985-3.596-7.985-8.031V-40.214
	c0-4.436,3.575-8.031,7.985-8.031h306.029c4.41,0,7.985,3.596,7.985,8.031V74.724z"/>
<g>
	<path fill="#542437" d="M11.163,5.255v-28.4h11.76c1.227,0,2.353,0.261,3.38,0.78c1.026,0.521,1.913,1.2,2.66,2.04
		s1.326,1.794,1.74,2.86c0.413,1.066,0.62,2.146,0.62,3.239c0,1.174-0.193,2.301-0.58,3.381c-0.387,1.08-0.94,2.033-1.66,2.859
		c-0.72,0.827-1.58,1.494-2.58,2c-1,0.507-2.114,0.76-3.34,0.76h-9.24v10.48H11.163z M13.923-7.705h9.08
		c0.826,0,1.58-0.18,2.26-0.54c0.68-0.36,1.26-0.84,1.74-1.44c0.48-0.6,0.853-1.293,1.12-2.079c0.266-0.787,0.4-1.606,0.4-2.461
		c0-0.88-0.154-1.713-0.46-2.5c-0.307-0.786-0.72-1.473-1.24-2.06c-0.52-0.586-1.133-1.046-1.84-1.38
		c-0.707-0.333-1.447-0.5-2.22-0.5h-8.84V-7.705z"/>
	<path fill="#542437" d="M41.762,5.655c-2.187,0-3.84-0.754-4.96-2.261c-1.12-1.506-1.68-3.753-1.68-6.739v-12.24h2.72v11.76
		c0,4.72,1.613,7.08,4.84,7.08c0.8,0,1.586-0.133,2.36-0.4c0.773-0.266,1.486-0.652,2.14-1.159s1.24-1.106,1.76-1.801
		c0.52-0.692,0.94-1.479,1.26-2.359v-13.12h2.72v17.32c0,0.746,0.333,1.119,1,1.119v2.4c-0.534,0.08-0.907,0.12-1.12,0.12
		c-0.614,0-1.14-0.187-1.58-0.561c-0.44-0.373-0.66-0.84-0.66-1.399v-2.88c-0.934,1.627-2.174,2.887-3.72,3.779
		C45.295,5.209,43.603,5.655,41.762,5.655z"/>
	<path fill="#542437" d="M69.282,5.655c-1.627,0-3.134-0.413-4.52-1.24c-1.387-0.826-2.467-1.894-3.24-3.2v4.04h-2.44v-29.2h2.72
		v12.72c0.933-1.413,2.053-2.553,3.36-3.42c1.306-0.866,2.84-1.3,4.6-1.3c1.44,0,2.746,0.307,3.92,0.92
		c1.173,0.614,2.166,1.434,2.98,2.46c0.813,1.027,1.439,2.188,1.88,3.48c0.44,1.294,0.66,2.62,0.66,3.979
		c0,1.467-0.254,2.854-0.761,4.16c-0.506,1.307-1.206,2.447-2.1,3.42c-0.894,0.974-1.947,1.747-3.16,2.32
		C71.968,5.368,70.668,5.655,69.282,5.655z M68.642,3.255c1.146,0,2.193-0.233,3.14-0.7c0.946-0.466,1.76-1.093,2.44-1.88
		c0.68-0.786,1.213-1.68,1.6-2.68c0.387-1,0.58-2.033,0.58-3.101c0-1.093-0.18-2.146-0.54-3.159s-0.867-1.914-1.52-2.7
		c-0.654-0.786-1.434-1.413-2.34-1.88c-0.907-0.467-1.907-0.7-3-0.7c-0.827,0-1.6,0.14-2.32,0.42s-1.387,0.66-2,1.14
		c-0.614,0.48-1.167,1.034-1.66,1.66c-0.494,0.627-0.9,1.287-1.22,1.98v6.479c0.106,0.72,0.393,1.394,0.86,2.021
		c0.466,0.627,1.033,1.166,1.7,1.619c0.666,0.454,1.373,0.814,2.12,1.08C67.229,3.122,67.948,3.255,68.642,3.255z"/>
	<path fill="#542437" d="M83.842-23.945h2.721v24.48c0,0.773,0.213,1.38,0.64,1.819c0.427,0.44,1.026,0.66,1.8,0.66
		c0.293,0,0.641-0.04,1.041-0.12c0.399-0.08,0.772-0.186,1.119-0.319l0.48,2.199c-0.508,0.214-1.127,0.388-1.86,0.521
		s-1.366,0.2-1.899,0.2c-1.254,0-2.24-0.354-2.961-1.061c-0.72-0.706-1.08-1.699-1.08-2.979V-23.945z"/>
	<path fill="#542437" d="M94.281-19.945v-4h2.721v4H94.281z M94.281,5.255v-20.84h2.721v20.84H94.281z"/>
	<path fill="#542437" d="M109.842,5.655c-1.627,0-3.215-0.268-4.76-0.801c-1.547-0.533-2.881-1.306-4-2.319l1.239-1.84
		c1.173,0.96,2.366,1.68,3.58,2.159c1.214,0.48,2.513,0.721,3.899,0.721c1.681,0,3.021-0.34,4.021-1.021c1-0.68,1.5-1.646,1.5-2.899
		c0-0.587-0.134-1.073-0.399-1.46c-0.268-0.387-0.66-0.727-1.181-1.021c-0.521-0.293-1.173-0.553-1.96-0.78
		c-0.787-0.226-1.699-0.46-2.74-0.699c-1.199-0.294-2.24-0.587-3.119-0.881c-0.881-0.293-1.607-0.626-2.181-1
		c-0.573-0.373-1-0.833-1.28-1.38c-0.279-0.546-0.42-1.232-0.42-2.06c0-1.04,0.207-1.96,0.621-2.76
		c0.412-0.801,0.973-1.46,1.68-1.98c0.706-0.52,1.533-0.913,2.479-1.18s1.953-0.4,3.021-0.4c1.6,0,3.053,0.26,4.359,0.78
		c1.307,0.52,2.36,1.207,3.16,2.06l-1.32,1.601c-0.773-0.8-1.713-1.4-2.82-1.8c-1.105-0.4-2.26-0.601-3.459-0.601
		c-0.721,0-1.387,0.074-2,0.22c-0.614,0.147-1.154,0.381-1.62,0.7c-0.468,0.32-0.834,0.728-1.101,1.221s-0.399,1.073-0.399,1.739
		c0,0.561,0.093,1.014,0.28,1.36c0.186,0.347,0.492,0.646,0.92,0.9c0.426,0.253,0.966,0.479,1.619,0.68
		c0.654,0.2,1.447,0.406,2.381,0.62c1.332,0.319,2.506,0.64,3.52,0.96c1.014,0.319,1.859,0.693,2.54,1.12s1.193,0.946,1.54,1.56
		c0.346,0.614,0.52,1.36,0.52,2.24c0,1.92-0.733,3.439-2.199,4.56C114.295,5.095,112.321,5.655,109.842,5.655z"/>
	<path fill="#542437" d="M139.842,5.255h-2.721v-11.64c0-2.373-0.406-4.146-1.22-5.32c-0.813-1.173-2.007-1.76-3.58-1.76
		c-0.773,0-1.54,0.153-2.3,0.46s-1.474,0.727-2.141,1.26c-0.666,0.534-1.246,1.16-1.739,1.88c-0.494,0.72-0.86,1.507-1.101,2.36
		v12.76h-2.72v-29.2h2.72v13.08c0.854-1.573,2.014-2.813,3.48-3.72s3.04-1.36,4.72-1.36c1.2,0,2.22,0.22,3.06,0.66
		c0.841,0.44,1.521,1.054,2.041,1.84c0.52,0.787,0.899,1.734,1.14,2.84c0.239,1.107,0.36,2.327,0.36,3.66V5.255z"/>
	<path fill="#542437" d="M23.503,53.255h-5.36v-11.76c0-1.681-0.294-2.906-0.88-3.681c-0.587-0.772-1.387-1.159-2.4-1.159
		c-1.04,0-2.027,0.406-2.96,1.22c-0.934,0.813-1.6,1.874-2,3.18v12.2h-5.36v-11.76c0-1.681-0.287-2.906-0.86-3.681
		c-0.574-0.772-1.367-1.159-2.38-1.159c-1.04,0-2.034,0.399-2.98,1.199c-0.947,0.801-1.62,1.854-2.02,3.16v12.24h-5.36v-20.96h4.84
		v3.88c0.773-1.36,1.833-2.406,3.18-3.14c1.346-0.733,2.886-1.101,4.62-1.101c1.76,0,3.113,0.427,4.06,1.28
		c0.946,0.854,1.566,1.907,1.86,3.16c0.853-1.44,1.933-2.54,3.24-3.3c1.306-0.761,2.8-1.141,4.48-1.141
		c1.28,0,2.333,0.24,3.16,0.721c0.826,0.479,1.466,1.106,1.92,1.88c0.453,0.773,0.767,1.653,0.94,2.64
		c0.173,0.987,0.26,1.987,0.26,3V53.255z"/>
	<path fill="#542437" d="M28.383,57.335c0.48,0.133,0.92,0.227,1.32,0.28c0.4,0.053,0.746,0.08,1.04,0.08
		c0.346,0,0.653-0.061,0.92-0.181c0.266-0.12,0.526-0.34,0.78-0.66c0.253-0.319,0.506-0.767,0.76-1.34
		c0.253-0.573,0.526-1.326,0.82-2.26l-8.32-20.96h5.52l5.72,16.32l5.04-16.32h5.04l-8.84,25.12c-0.56,1.6-1.454,2.833-2.68,3.7
		c-1.227,0.866-2.653,1.3-4.28,1.3c-0.934,0-1.88-0.147-2.84-0.44V57.335z"/>
	<path fill="#542437" d="M69.742,53.655c-1.52,0-2.92-0.287-4.2-0.86c-1.28-0.573-2.387-1.36-3.32-2.36
		c-0.934-1-1.66-2.152-2.18-3.46c-0.52-1.306-0.78-2.706-0.78-4.2c0-1.466,0.26-2.846,0.78-4.14c0.52-1.293,1.247-2.426,2.18-3.399
		c0.933-0.974,2.033-1.747,3.3-2.32s2.66-0.86,4.18-0.86s2.913,0.287,4.18,0.86c1.266,0.573,2.353,1.354,3.26,2.34
		c0.906,0.987,1.613,2.12,2.12,3.4c0.506,1.279,0.76,2.64,0.76,4.08c0,0.213-0.007,0.427-0.02,0.64
		c-0.014,0.214-0.034,0.36-0.061,0.439h-17.8c0.08,1.12,0.34,2.154,0.78,3.101c0.44,0.946,1,1.767,1.68,2.46
		c0.68,0.693,1.466,1.233,2.36,1.62s1.847,0.58,2.86,0.58c0.693,0,1.373-0.094,2.04-0.28c0.666-0.187,1.28-0.44,1.84-0.76
		c0.56-0.32,1.06-0.714,1.5-1.181c0.44-0.466,0.78-0.979,1.02-1.54l2.36,0.641c-0.32,0.773-0.773,1.474-1.36,2.1
		c-0.587,0.627-1.267,1.174-2.04,1.641c-0.774,0.467-1.627,0.826-2.56,1.079C71.688,53.528,70.728,53.655,69.742,53.655z
		 M77.422,41.735c-0.08-1.12-0.34-2.141-0.78-3.061s-1-1.713-1.68-2.38c-0.68-0.666-1.474-1.187-2.38-1.56
		c-0.907-0.374-1.867-0.561-2.88-0.561c-1.014,0-1.974,0.187-2.88,0.561c-0.907,0.373-1.7,0.894-2.38,1.56
		c-0.68,0.667-1.227,1.467-1.64,2.4c-0.414,0.934-0.66,1.946-0.74,3.04H77.422z"/>
	<path fill="#542437" d="M89.781,53.255l-8.479-20.84h2.84l7.16,18.32l7.2-18.32h2.64l-8.479,20.84H89.781z"/>
	<path fill="#542437" d="M113.861,53.655c-1.52,0-2.92-0.287-4.199-0.86c-1.28-0.573-2.387-1.36-3.32-2.36s-1.66-2.152-2.18-3.46
		c-0.521-1.306-0.78-2.706-0.78-4.2c0-1.466,0.26-2.846,0.78-4.14c0.52-1.293,1.246-2.426,2.18-3.399s2.033-1.747,3.3-2.32
		s2.66-0.86,4.181-0.86c1.52,0,2.912,0.287,4.18,0.86c1.266,0.573,2.354,1.354,3.26,2.34c0.906,0.987,1.613,2.12,2.12,3.4
		c0.507,1.279,0.76,2.64,0.76,4.08c0,0.213-0.007,0.427-0.021,0.64c-0.014,0.214-0.033,0.36-0.059,0.439h-17.801
		c0.08,1.12,0.34,2.154,0.78,3.101s1,1.767,1.68,2.46c0.681,0.693,1.466,1.233,2.36,1.62c0.893,0.387,1.846,0.58,2.859,0.58
		c0.693,0,1.373-0.094,2.041-0.28c0.666-0.187,1.279-0.44,1.84-0.76c0.56-0.32,1.06-0.714,1.5-1.181
		c0.439-0.466,0.779-0.979,1.02-1.54l2.359,0.641c-0.319,0.773-0.773,1.474-1.359,2.1c-0.587,0.627-1.268,1.174-2.04,1.641
		c-0.774,0.467-1.627,0.826-2.56,1.079C115.809,53.528,114.848,53.655,113.861,53.655z M121.542,41.735
		c-0.08-1.12-0.341-2.141-0.78-3.061s-1-1.713-1.68-2.38c-0.68-0.666-1.475-1.187-2.381-1.56c-0.906-0.374-1.866-0.561-2.879-0.561
		c-1.014,0-1.975,0.187-2.881,0.561c-0.906,0.373-1.699,0.894-2.379,1.56c-0.681,0.667-1.228,1.467-1.641,2.4
		c-0.414,0.934-0.66,1.946-0.74,3.04H121.542z"/>
	<path fill="#542437" d="M145.741,53.255h-2.72v-11.64c0-2.48-0.36-4.28-1.08-5.4c-0.721-1.12-1.84-1.68-3.36-1.68
		c-0.8,0-1.6,0.146-2.399,0.439c-0.801,0.294-1.547,0.707-2.24,1.24c-0.693,0.534-1.301,1.167-1.82,1.9s-0.914,1.526-1.18,2.38
		v12.76h-2.721v-20.84h2.48v4.72c0.426-0.746,0.953-1.433,1.58-2.06s1.326-1.167,2.1-1.62s1.594-0.8,2.461-1.04
		c0.865-0.24,1.766-0.36,2.699-0.36c1.174,0,2.153,0.214,2.94,0.641c0.786,0.427,1.42,1.026,1.899,1.8
		c0.48,0.773,0.826,1.72,1.041,2.84c0.213,1.12,0.319,2.36,0.319,3.72V53.255z"/>
	<path fill="#542437" d="M161.301,52.255c-0.16,0.08-0.393,0.187-0.699,0.32s-0.66,0.267-1.061,0.399
		c-0.4,0.134-0.854,0.254-1.359,0.36c-0.508,0.106-1.041,0.16-1.601,0.16c-0.587,0-1.146-0.08-1.68-0.24
		c-0.534-0.16-1-0.406-1.399-0.74c-0.4-0.333-0.721-0.753-0.961-1.26c-0.24-0.506-0.359-1.093-0.359-1.76v-14.92h-2.881v-2.16h2.881
		v-7.04h2.72v7.04h4.8v2.16h-4.8v14.16c0.054,0.773,0.319,1.34,0.8,1.699c0.48,0.36,1.053,0.54,1.721,0.54
		c0.772,0,1.453-0.126,2.039-0.38c0.586-0.253,0.961-0.433,1.12-0.54L161.301,52.255z"/>
</g>
</svg>
