<?xml version="1.0" encoding="utf-8"?>
<!-- Generator: Adobe Illustrator 16.0.0, SVG Export Plug-In . SVG Version: 6.00 Build 0)  -->
<!DOCTYPE svg PUBLIC "-//W3C//DTD SVG 1.1//EN" "http://www.w3.org/Graphics/SVG/1.1/DTD/svg11.dtd">
<svg version="1.1" id="Layer_1" xmlns="http://www.w3.org/2000/svg" xmlns:xlink="http://www.w3.org/1999/xlink" x="0px" y="0px"
	 width="31px" height="31px" viewBox="41.333 51.708 31 31" enable-background="new 41.333 51.708 31 31" xml:space="preserve">
<circle fill="#C02943" cx="56.833" cy="67.208" r="15.5"/>
<g>
	<path fill="#542437" d="M285.458,31.781l29.215,29.513l-59.982,0.08l29.383-29.593C284.447,31.408,285.09,31.408,285.458,31.781z"
		/>
	<g>
		<path fill="#B3B4B5" d="M306.042,88.017V55.755h-0.195h-5.605c-2.609,0-5.06-1.018-6.904-2.861
			c-1.844-1.844-2.859-4.295-2.859-6.903v-5.552h-18.787c-4.612,0-8.354,3.741-8.354,8.355v39.223c0,4.615,3.741,8.355,8.354,8.355
			h25.996C302.304,96.373,306.042,92.632,306.042,88.017z M271.432,60.104c0-0.906,0.736-1.639,1.644-1.639h23.229
			c0.908,0,1.642,0.733,1.642,1.639c0,0.908-0.733,1.644-1.642,1.644h-23.229C272.168,61.747,271.432,61.012,271.432,60.104z
			 M273.839,68.404c0-0.922,0.746-1.67,1.672-1.67h18.359c0.924,0,1.674,0.749,1.674,1.67c-0.002,0.924-0.749,1.672-1.674,1.672
			h-18.359C274.585,70.076,273.839,69.328,273.839,68.404z M296.304,78.347h-23.229c-0.907,0-1.644-0.734-1.644-1.641
			c0-0.908,0.736-1.643,1.644-1.643h23.229c0.908,0,1.642,0.734,1.642,1.643C297.946,77.613,297.212,78.347,296.304,78.347z"/>
		<polygon fill="#B3B4B5" points="291.886,40.439 291.941,40.439 291.886,40.383 		"/>
		<path fill="#B3B4B5" d="M291.886,45.991c0,2.306,0.936,4.396,2.447,5.907c1.511,1.512,3.603,2.449,5.908,2.449h5.604
			l-13.904-13.907h-0.055V45.991z"/>
	</g>
	<g>
		<path fill="#542437" d="M295.371,83.32l-9.744,9.842c-0.404,0.41-1.105,0.41-1.512,0l-9.643-9.709l-19.302,14.08
			c0.224,0.113,0.472,0.184,0.736,0.184h57.55c0.273,0,0.525-0.072,0.75-0.189L295.371,83.32z"/>
		<path fill="#542437" d="M315.654,96.332c0.037-0.135,0.061-0.275,0.061-0.424V63.223l-18.788,18.98L315.654,96.332z"/>
		<path fill="#542437" d="M272.914,82.503l-19.265-19.398v32.971c0,0.15,0.028,0.297,0.067,0.436L272.914,82.503z"/>
	</g>
</g>
<circle fill="#C02943" cx="329.777" cy="90.517" r="16.387"/>
</svg>
