<?xml version="1.0" encoding="utf-8"?>
<!-- Generator: Adobe Illustrator 16.0.0, SVG Export Plug-In . SVG Version: 6.00 Build 0)  -->
<!DOCTYPE svg PUBLIC "-//W3C//DTD SVG 1.1//EN" "http://www.w3.org/Graphics/SVG/1.1/DTD/svg11.dtd">
<svg version="1.1" id="Layer_1" xmlns="http://www.w3.org/2000/svg" xmlns:xlink="http://www.w3.org/1999/xlink" x="0px" y="0px"
	 width="61px" height="61px" viewBox="0 0 61 61" enable-background="new 0 0 61 61" xml:space="preserve">
<path fill="#F58020" d="M51.125,0.5H9.875C4.698,0.5,0.5,4.7,0.5,9.875v41.25c0,5.179,4.198,9.375,9.375,9.375h41.25
	c5.176,0,9.375-4.196,9.375-9.375V9.875C60.5,4.7,56.301,0.5,51.125,0.5z M19.541,45.467c-2.199,0-3.979-1.783-3.979-3.984
	c0-2.197,1.781-3.98,3.979-3.98c2.202,0,3.984,1.783,3.984,3.98C23.525,43.684,21.742,45.467,19.541,45.467z M29.535,45.493
	c0-3.758-1.456-7.288-4.096-9.94c-2.635-2.651-6.143-4.109-9.875-4.109v-5.749c10.873,0,19.72,8.881,19.72,19.798H29.535z
	 M39.689,45.5c0-13.37-10.818-24.25-24.116-24.25V15.5c16.468,0,29.866,13.458,29.866,30H39.689z"/>
</svg>
