<?xml version="1.0" encoding="utf-8"?>
<!-- Generator: Adobe Illustrator 16.0.0, SVG Export Plug-In . SVG Version: 6.00 Build 0)  -->
<!DOCTYPE svg PUBLIC "-//W3C//DTD SVG 1.1//EN" "http://www.w3.org/Graphics/SVG/1.1/DTD/svg11.dtd">
<svg version="1.1" id="Layer_1" xmlns="http://www.w3.org/2000/svg" xmlns:xlink="http://www.w3.org/1999/xlink" x="0px" y="0px"
	 width="120px" height="121px" viewBox="0 0 120 121" enable-background="new 0 0 120 121" xml:space="preserve">
<g>
	<path fill="#542437" d="M120,115.41c0,3.09-2.152,5.59-4.806,5.59H4.804C2.152,121,0,118.5,0,115.41V5.592
		c0-3.087,2.152-5.591,4.804-5.591h110.391c2.653,0,4.806,2.504,4.806,5.591V115.41z"/>
	<g>
		<path fill="#ECD078" d="M48.901,75.068c-0.32-0.359-0.75-0.652-1.288-0.877c-0.539-0.223-1.145-0.334-1.817-0.334
			c-1.014,0-1.749,0.189-2.208,0.566S42.9,75.313,42.9,75.961c0,0.342,0.061,0.619,0.184,0.838c0.123,0.217,0.314,0.406,0.576,0.566
			c0.261,0.16,0.592,0.297,0.992,0.414c0.399,0.117,0.872,0.234,1.416,0.352c0.608,0.127,1.152,0.268,1.633,0.422
			c0.479,0.156,0.891,0.352,1.231,0.592c0.342,0.236,0.603,0.531,0.784,0.875c0.182,0.348,0.272,0.773,0.272,1.285
			c0,0.52-0.102,0.971-0.304,1.355c-0.203,0.381-0.486,0.699-0.849,0.955c-0.362,0.254-0.795,0.443-1.296,0.566
			s-1.046,0.184-1.633,0.184c-1.781,0-3.302-0.547-4.561-1.643l0.544-0.908c0.416,0.436,0.977,0.805,1.681,1.107
			c0.704,0.305,1.488,0.453,2.352,0.453c0.908,0,1.617-0.16,2.129-0.484c0.513-0.324,0.769-0.814,0.769-1.475
			c0-0.352-0.072-0.646-0.216-0.887c-0.145-0.238-0.36-0.445-0.648-0.621c-0.288-0.174-0.648-0.326-1.08-0.455
			c-0.432-0.127-0.932-0.254-1.497-0.381c-0.598-0.139-1.12-0.283-1.567-0.432c-0.448-0.148-0.824-0.336-1.128-0.557
			c-0.305-0.225-0.534-0.494-0.688-0.807s-0.232-0.699-0.232-1.156c0-0.52,0.099-0.984,0.297-1.396
			c0.197-0.408,0.474-0.748,0.831-1.02c0.357-0.27,0.784-0.479,1.28-0.621s1.043-0.215,1.641-0.215c0.747,0,1.417,0.115,2.009,0.342
			c0.592,0.23,1.128,0.551,1.607,0.965L48.901,75.068z"/>
		<path fill="#ECD078" d="M55.398,84.428c-0.608,0-1.168-0.113-1.681-0.342c-0.512-0.229-0.954-0.541-1.328-0.939
			c-0.373-0.4-0.665-0.859-0.873-1.381c-0.208-0.52-0.312-1.078-0.312-1.674c0-0.584,0.104-1.135,0.312-1.65s0.5-0.967,0.873-1.355
			c0.374-0.389,0.813-0.695,1.32-0.924c0.507-0.23,1.064-0.344,1.672-0.344c0.608,0,1.165,0.113,1.672,0.344
			c0.508,0.229,0.942,0.539,1.306,0.932c0.362,0.395,0.645,0.846,0.848,1.355c0.202,0.51,0.304,1.053,0.304,1.627
			c0,0.086-0.003,0.17-0.008,0.256c-0.006,0.086-0.014,0.143-0.023,0.174h-7.121c0.031,0.447,0.136,0.859,0.312,1.236
			c0.176,0.379,0.4,0.705,0.672,0.98c0.272,0.277,0.587,0.492,0.944,0.645c0.357,0.156,0.738,0.232,1.144,0.232
			c0.277,0,0.55-0.037,0.816-0.111s0.512-0.176,0.736-0.303c0.224-0.127,0.425-0.285,0.601-0.471s0.312-0.391,0.408-0.613
			l0.943,0.254c-0.128,0.311-0.309,0.588-0.544,0.838c-0.234,0.25-0.507,0.469-0.815,0.654c-0.311,0.186-0.652,0.33-1.025,0.43
			C56.177,84.379,55.793,84.428,55.398,84.428z M58.471,79.678c-0.031-0.445-0.136-0.854-0.312-1.221
			c-0.176-0.365-0.4-0.684-0.672-0.947c-0.273-0.268-0.591-0.475-0.953-0.623c-0.363-0.148-0.747-0.223-1.152-0.223
			s-0.789,0.074-1.151,0.223c-0.363,0.148-0.681,0.355-0.952,0.623c-0.272,0.264-0.491,0.584-0.656,0.955
			c-0.166,0.373-0.264,0.777-0.296,1.213H58.471z"/>
		<path fill="#ECD078" d="M68.151,84.27h-1.088v-4.641c0-0.988-0.144-1.705-0.432-2.152s-0.736-0.67-1.345-0.67
			c-0.319,0-0.64,0.059-0.96,0.178c-0.319,0.115-0.618,0.279-0.896,0.492s-0.521,0.465-0.729,0.758
			c-0.208,0.293-0.365,0.607-0.472,0.949v5.086h-1.088v-8.309h0.992v1.883c0.17-0.297,0.381-0.572,0.633-0.822
			c0.251-0.248,0.53-0.465,0.84-0.645c0.31-0.182,0.638-0.32,0.984-0.416s0.706-0.143,1.08-0.143c0.469,0,0.861,0.084,1.176,0.256
			c0.314,0.17,0.568,0.408,0.76,0.717c0.192,0.309,0.331,0.686,0.416,1.133c0.085,0.445,0.128,0.939,0.128,1.482V84.27z"/>
		<path fill="#ECD078" d="M73.866,84.428c-0.577,0-1.11-0.117-1.601-0.357c-0.491-0.238-0.915-0.555-1.272-0.949
			s-0.635-0.848-0.832-1.363s-0.296-1.055-0.296-1.617c0-0.586,0.096-1.141,0.288-1.668c0.191-0.525,0.456-0.984,0.792-1.379
			c0.336-0.393,0.736-0.703,1.2-0.932c0.464-0.23,0.973-0.344,1.528-0.344c0.704,0,1.328,0.184,1.872,0.551s0.977,0.811,1.296,1.33
			v-5.07h1.089v10.236c0,0.299,0.128,0.447,0.384,0.447v0.957c-0.182,0.033-0.326,0.049-0.433,0.049
			c-0.267,0-0.485-0.078-0.655-0.232c-0.171-0.154-0.257-0.336-0.257-0.551V82.66c-0.341,0.541-0.792,0.973-1.352,1.289
			C75.059,84.27,74.475,84.428,73.866,84.428z M74.09,83.473c0.277,0,0.568-0.055,0.872-0.16c0.305-0.105,0.587-0.252,0.849-0.439
			c0.261-0.184,0.487-0.402,0.68-0.652s0.31-0.52,0.352-0.805v-2.568c-0.106-0.285-0.264-0.555-0.472-0.805
			s-0.442-0.471-0.704-0.662s-0.539-0.34-0.832-0.445c-0.293-0.107-0.584-0.16-0.872-0.16c-0.448,0-0.856,0.096-1.225,0.285
			c-0.368,0.193-0.68,0.447-0.937,0.76c-0.256,0.314-0.456,0.672-0.6,1.076c-0.144,0.402-0.216,0.818-0.216,1.244
			c0,0.445,0.08,0.869,0.24,1.275c0.159,0.402,0.378,0.756,0.655,1.061c0.277,0.301,0.605,0.545,0.984,0.725
			S73.652,83.473,74.09,83.473z"/>
		<path fill="#ECD078" d="M14.392,103.564c-0.65,0-1.255-0.166-1.809-0.494c-0.556-0.33-0.987-0.756-1.297-1.277v1.611h-0.976
			V91.766h1.088v5.07c0.373-0.564,0.821-1.018,1.344-1.365c0.522-0.344,1.138-0.518,1.842-0.518c0.575,0,1.098,0.123,1.567,0.365
			c0.47,0.246,0.866,0.572,1.192,0.982c0.325,0.41,0.576,0.871,0.752,1.387s0.264,1.043,0.264,1.588
			c0,0.582-0.102,1.137-0.304,1.658c-0.203,0.521-0.482,0.975-0.84,1.361c-0.357,0.391-0.779,0.697-1.265,0.928
			C15.466,103.449,14.946,103.564,14.392,103.564z M14.136,102.607c0.458,0,0.877-0.094,1.256-0.279s0.704-0.436,0.976-0.75
			c0.272-0.313,0.485-0.668,0.641-1.068c0.154-0.398,0.231-0.809,0.231-1.234c0-0.438-0.071-0.857-0.216-1.26
			c-0.144-0.406-0.347-0.764-0.607-1.076c-0.262-0.314-0.574-0.564-0.937-0.75c-0.362-0.188-0.763-0.279-1.2-0.279
			c-0.33,0-0.64,0.055-0.929,0.168c-0.288,0.111-0.555,0.264-0.8,0.453c-0.246,0.191-0.467,0.414-0.664,0.662
			c-0.197,0.25-0.36,0.514-0.488,0.789v2.584c0.043,0.287,0.157,0.555,0.344,0.805s0.414,0.465,0.681,0.646
			c0.267,0.18,0.549,0.324,0.848,0.43C13.569,102.555,13.858,102.607,14.136,102.607z"/>
		<path fill="#ECD078" d="M22.744,103.564c-0.875,0-1.536-0.301-1.984-0.9c-0.448-0.602-0.672-1.498-0.672-2.689v-4.877h1.088v4.688
			c0,1.881,0.646,2.822,1.937,2.822c0.319,0,0.634-0.053,0.943-0.16c0.31-0.105,0.596-0.262,0.857-0.461
			c0.261-0.203,0.496-0.441,0.704-0.719c0.208-0.275,0.376-0.59,0.504-0.939v-5.23h1.088v6.904c0,0.297,0.133,0.445,0.4,0.445v0.957
			c-0.214,0.031-0.363,0.047-0.448,0.047c-0.246,0-0.456-0.074-0.632-0.221c-0.177-0.15-0.265-0.336-0.265-0.559v-1.148
			c-0.373,0.646-0.869,1.15-1.487,1.506C24.157,103.385,23.48,103.564,22.744,103.564z"/>
		<path fill="#ECD078" d="M32.474,103.564c-0.65,0-1.285-0.107-1.903-0.318c-0.62-0.213-1.153-0.523-1.602-0.926l0.496-0.734
			c0.47,0.383,0.947,0.67,1.433,0.861c0.485,0.193,1.006,0.287,1.561,0.287c0.672,0,1.208-0.135,1.607-0.406
			c0.4-0.27,0.601-0.656,0.601-1.156c0-0.232-0.054-0.428-0.16-0.582s-0.264-0.289-0.472-0.406s-0.47-0.221-0.784-0.313
			c-0.314-0.088-0.68-0.182-1.096-0.277c-0.48-0.117-0.896-0.234-1.248-0.35c-0.353-0.117-0.644-0.252-0.872-0.4
			c-0.23-0.148-0.401-0.332-0.514-0.551c-0.111-0.217-0.168-0.49-0.168-0.82c0-0.416,0.083-0.781,0.248-1.1
			c0.166-0.32,0.391-0.582,0.673-0.789c0.283-0.209,0.613-0.363,0.992-0.471s0.781-0.16,1.208-0.16c0.641,0,1.222,0.104,1.744,0.313
			c0.522,0.205,0.944,0.48,1.265,0.82l-0.528,0.637c-0.31-0.318-0.686-0.557-1.128-0.717c-0.443-0.158-0.904-0.238-1.385-0.238
			c-0.287,0-0.555,0.029-0.8,0.088c-0.245,0.057-0.461,0.15-0.647,0.277c-0.188,0.129-0.334,0.291-0.44,0.486
			c-0.106,0.197-0.16,0.428-0.16,0.693c0,0.225,0.037,0.404,0.112,0.543c0.074,0.139,0.197,0.258,0.368,0.357
			c0.17,0.102,0.387,0.193,0.647,0.273c0.262,0.078,0.579,0.162,0.952,0.244c0.533,0.129,1.003,0.258,1.408,0.385
			c0.405,0.129,0.744,0.275,1.016,0.445c0.272,0.172,0.479,0.377,0.617,0.623c0.139,0.244,0.208,0.541,0.208,0.893
			c0,0.766-0.294,1.371-0.881,1.818C34.255,103.34,33.466,103.564,32.474,103.564z"/>
		<path fill="#ECD078" d="M37.468,93.359v-1.594h1.088v1.594H37.468z M37.468,103.404v-8.307h1.088v8.307H37.468z"/>
		<path fill="#ECD078" d="M47.901,103.404h-1.088v-4.641c0-0.988-0.144-1.707-0.432-2.152c-0.289-0.445-0.737-0.67-1.346-0.67
			c-0.319,0-0.64,0.059-0.96,0.176c-0.319,0.117-0.618,0.283-0.896,0.494c-0.277,0.213-0.521,0.465-0.729,0.758
			c-0.208,0.291-0.365,0.609-0.472,0.949v5.086h-1.089v-8.307h0.993v1.881c0.17-0.297,0.381-0.57,0.632-0.822
			c0.251-0.25,0.53-0.463,0.84-0.645s0.638-0.318,0.984-0.414s0.706-0.145,1.08-0.145c0.469,0,0.861,0.086,1.177,0.256
			c0.314,0.168,0.568,0.408,0.76,0.717c0.192,0.309,0.331,0.686,0.416,1.131c0.085,0.449,0.128,0.943,0.128,1.484V103.404z"/>
		<path fill="#ECD078" d="M53.807,103.564c-0.608,0-1.168-0.115-1.681-0.342c-0.513-0.23-0.955-0.543-1.329-0.943
			c-0.373-0.398-0.664-0.857-0.872-1.377c-0.208-0.521-0.312-1.08-0.312-1.676c0-0.584,0.104-1.133,0.312-1.65
			c0.208-0.516,0.499-0.967,0.872-1.355c0.374-0.387,0.813-0.695,1.321-0.926c0.507-0.227,1.064-0.342,1.672-0.342
			c0.608,0,1.165,0.115,1.672,0.342c0.507,0.23,0.941,0.541,1.305,0.934c0.362,0.393,0.646,0.846,0.849,1.355
			c0.202,0.512,0.304,1.053,0.304,1.627c0,0.084-0.003,0.17-0.008,0.254c-0.006,0.086-0.014,0.145-0.023,0.176h-7.122
			c0.031,0.447,0.136,0.859,0.312,1.236s0.4,0.703,0.672,0.98c0.273,0.277,0.588,0.492,0.945,0.646s0.738,0.23,1.144,0.23
			c0.277,0,0.55-0.035,0.816-0.111c0.267-0.074,0.512-0.176,0.736-0.303c0.224-0.129,0.424-0.283,0.6-0.471
			c0.176-0.186,0.312-0.391,0.408-0.613l0.944,0.256c-0.129,0.307-0.31,0.588-0.545,0.836c-0.234,0.25-0.507,0.467-0.815,0.654
			c-0.31,0.186-0.651,0.328-1.024,0.43S54.201,103.564,53.807,103.564z M56.878,98.811c-0.031-0.445-0.136-0.852-0.312-1.219
			s-0.4-0.682-0.672-0.949c-0.272-0.264-0.59-0.473-0.952-0.621c-0.363-0.15-0.747-0.223-1.152-0.223s-0.789,0.072-1.151,0.223
			c-0.363,0.148-0.681,0.357-0.953,0.621c-0.272,0.268-0.491,0.586-0.656,0.957c-0.166,0.373-0.264,0.777-0.296,1.211H56.878z"/>
		<path fill="#ECD078" d="M62.351,103.564c-0.65,0-1.285-0.107-1.903-0.318c-0.619-0.213-1.152-0.523-1.601-0.926l0.496-0.734
			c0.47,0.383,0.946,0.67,1.432,0.861c0.485,0.193,1.006,0.287,1.561,0.287c0.673,0,1.209-0.135,1.608-0.406
			c0.4-0.27,0.601-0.656,0.601-1.156c0-0.232-0.054-0.428-0.16-0.582s-0.264-0.289-0.472-0.406s-0.47-0.221-0.784-0.313
			c-0.314-0.088-0.681-0.182-1.097-0.277c-0.48-0.117-0.896-0.234-1.248-0.35c-0.353-0.117-0.644-0.252-0.872-0.4
			c-0.229-0.148-0.4-0.332-0.513-0.551c-0.111-0.217-0.168-0.49-0.168-0.82c0-0.416,0.083-0.781,0.248-1.1
			c0.166-0.32,0.39-0.582,0.672-0.789c0.283-0.209,0.613-0.363,0.992-0.471s0.781-0.16,1.208-0.16c0.642,0,1.223,0.104,1.745,0.313
			c0.522,0.205,0.944,0.48,1.264,0.82l-0.527,0.637c-0.31-0.318-0.686-0.557-1.128-0.717c-0.443-0.158-0.904-0.238-1.386-0.238
			c-0.287,0-0.555,0.029-0.8,0.088c-0.245,0.057-0.461,0.15-0.647,0.277c-0.188,0.129-0.334,0.291-0.44,0.486
			c-0.106,0.197-0.16,0.428-0.16,0.693c0,0.225,0.037,0.404,0.112,0.543c0.074,0.139,0.197,0.258,0.368,0.357
			c0.17,0.102,0.387,0.193,0.647,0.273c0.262,0.078,0.579,0.162,0.952,0.244c0.534,0.129,1.004,0.258,1.409,0.385
			c0.405,0.129,0.744,0.275,1.016,0.445c0.272,0.172,0.478,0.377,0.616,0.623c0.139,0.244,0.208,0.541,0.208,0.893
			c0,0.766-0.293,1.371-0.88,1.818C64.133,103.34,63.344,103.564,62.351,103.564z"/>
		<path fill="#ECD078" d="M70.145,103.564c-0.65,0-1.285-0.107-1.903-0.318c-0.62-0.213-1.153-0.523-1.602-0.926l0.496-0.734
			c0.47,0.383,0.946,0.67,1.433,0.861c0.485,0.193,1.006,0.287,1.561,0.287c0.672,0,1.208-0.135,1.607-0.406
			c0.4-0.27,0.601-0.656,0.601-1.156c0-0.232-0.054-0.428-0.16-0.582s-0.264-0.289-0.472-0.406s-0.47-0.221-0.784-0.313
			c-0.314-0.088-0.68-0.182-1.096-0.277c-0.48-0.117-0.896-0.234-1.248-0.35c-0.353-0.117-0.645-0.252-0.873-0.4
			c-0.229-0.148-0.4-0.332-0.513-0.551c-0.111-0.217-0.168-0.49-0.168-0.82c0-0.416,0.083-0.781,0.248-1.1
			c0.166-0.32,0.39-0.582,0.672-0.789c0.284-0.209,0.614-0.363,0.993-0.471s0.781-0.16,1.208-0.16c0.641,0,1.222,0.104,1.744,0.313
			c0.522,0.205,0.944,0.48,1.264,0.82l-0.527,0.637c-0.31-0.318-0.686-0.557-1.128-0.717c-0.443-0.158-0.904-0.238-1.385-0.238
			c-0.287,0-0.555,0.029-0.8,0.088c-0.245,0.057-0.461,0.15-0.647,0.277c-0.188,0.129-0.334,0.291-0.44,0.486
			c-0.106,0.197-0.161,0.428-0.161,0.693c0,0.225,0.037,0.404,0.113,0.543c0.074,0.139,0.197,0.258,0.368,0.357
			c0.17,0.102,0.387,0.193,0.647,0.273c0.262,0.078,0.579,0.162,0.952,0.244c0.533,0.129,1.003,0.258,1.408,0.385
			c0.405,0.129,0.744,0.275,1.016,0.445c0.272,0.172,0.478,0.377,0.616,0.623c0.139,0.244,0.208,0.541,0.208,0.893
			c0,0.766-0.293,1.371-0.88,1.818C71.926,103.34,71.137,103.564,70.145,103.564z"/>
		<path fill="#ECD078" d="M78.689,99.227c0-0.584,0.102-1.137,0.304-1.658c0.204-0.521,0.489-0.977,0.857-1.363
			s0.808-0.693,1.319-0.918c0.513-0.223,1.078-0.334,1.696-0.334c0.789,0,1.478,0.18,2.065,0.533
			c0.586,0.357,1.029,0.84,1.328,1.445l-1.057,0.334c-0.234-0.426-0.56-0.758-0.977-0.996c-0.416-0.24-0.88-0.359-1.393-0.359
			c-0.427,0-0.823,0.084-1.191,0.256c-0.368,0.17-0.688,0.4-0.96,0.693c-0.272,0.291-0.485,0.641-0.641,1.045
			c-0.154,0.402-0.231,0.844-0.231,1.322c0,0.469,0.08,0.908,0.24,1.322c0.159,0.416,0.378,0.775,0.655,1.076
			c0.277,0.305,0.601,0.543,0.969,0.719c0.367,0.176,0.76,0.264,1.176,0.264c0.267,0,0.53-0.037,0.792-0.111
			c0.261-0.074,0.504-0.18,0.728-0.313c0.226-0.131,0.417-0.283,0.577-0.453s0.272-0.352,0.336-0.543l1.057,0.32
			c-0.118,0.297-0.288,0.572-0.513,0.82c-0.224,0.25-0.487,0.467-0.792,0.654c-0.304,0.186-0.641,0.328-1.009,0.43
			s-0.749,0.152-1.144,0.152c-0.608,0-1.168-0.115-1.681-0.342c-0.512-0.23-0.954-0.543-1.328-0.943
			c-0.373-0.398-0.664-0.857-0.873-1.377C78.793,100.381,78.689,99.822,78.689,99.227z"/>
		<path fill="#ECD078" d="M90.244,103.564c-0.428,0-0.817-0.068-1.169-0.201c-0.352-0.131-0.653-0.314-0.904-0.549
			c-0.25-0.232-0.445-0.506-0.584-0.813c-0.139-0.309-0.208-0.633-0.208-0.975c0-0.381,0.086-0.729,0.256-1.043
			c0.171-0.313,0.411-0.582,0.721-0.805c0.309-0.225,0.68-0.398,1.111-0.518c0.433-0.123,0.91-0.186,1.434-0.186
			c0.416,0,0.842,0.039,1.279,0.113s0.827,0.18,1.169,0.318v-0.75c0-0.732-0.211-1.314-0.633-1.744
			c-0.421-0.434-0.989-0.646-1.704-0.646c-0.447,0-0.893,0.086-1.337,0.254c-0.442,0.17-0.894,0.414-1.352,0.734l-0.384-0.719
			c0.544-0.361,1.071-0.633,1.584-0.813c0.513-0.182,1.046-0.271,1.601-0.271c1.014,0,1.818,0.293,2.416,0.879
			c0.598,0.584,0.896,1.391,0.896,2.422v3.748c0,0.297,0.128,0.445,0.384,0.445v0.957c-0.086,0.01-0.166,0.018-0.24,0.023
			s-0.139,0.008-0.192,0.008c-0.213,0-0.407-0.064-0.584-0.189c-0.176-0.129-0.274-0.32-0.296-0.574l-0.031-0.654
			c-0.363,0.488-0.841,0.869-1.433,1.141C91.452,103.428,90.853,103.564,90.244,103.564z M90.517,102.734
			c0.479,0,0.957-0.104,1.432-0.311c0.475-0.209,0.851-0.492,1.128-0.854c0.074-0.094,0.139-0.199,0.192-0.311
			c0.053-0.111,0.08-0.217,0.08-0.311v-1.355c-0.363-0.139-0.742-0.246-1.137-0.318c-0.395-0.074-0.778-0.111-1.151-0.111
			c-0.779,0-1.412,0.154-1.897,0.469c-0.485,0.313-0.728,0.748-0.728,1.301c0,0.223,0.042,0.441,0.128,0.652
			c0.085,0.213,0.216,0.404,0.392,0.574s0.393,0.309,0.648,0.416C89.859,102.682,90.164,102.734,90.517,102.734z"/>
		<path fill="#ECD078" d="M100.966,96.053c-0.737,0.021-1.377,0.225-1.921,0.607c-0.544,0.381-0.928,0.908-1.152,1.578v5.166h-1.088
			v-8.307h1.024v1.992c0.288-0.586,0.666-1.07,1.136-1.459c0.469-0.387,0.976-0.582,1.52-0.582c0.097,0,0.187,0,0.272,0
			s0.154,0.006,0.209,0.016V96.053z"/>
		<path fill="#ECD078" d="M105.51,103.564c-0.576,0-1.109-0.121-1.6-0.359c-0.491-0.24-0.915-0.555-1.272-0.949
			c-0.357-0.393-0.635-0.848-0.832-1.361c-0.197-0.516-0.296-1.055-0.296-1.619c0-0.584,0.096-1.141,0.288-1.668
			c0.191-0.525,0.456-0.986,0.792-1.379s0.736-0.703,1.2-0.934c0.464-0.227,0.973-0.342,1.527-0.342
			c0.704,0,1.329,0.184,1.873,0.551c0.544,0.365,0.977,0.811,1.296,1.332v-5.07h1.089v10.236c0,0.297,0.128,0.445,0.384,0.445v0.957
			c-0.182,0.031-0.326,0.047-0.433,0.047c-0.267,0-0.485-0.076-0.655-0.229c-0.171-0.156-0.257-0.34-0.257-0.551v-0.879
			c-0.341,0.543-0.792,0.973-1.352,1.293C106.703,103.404,106.118,103.564,105.51,103.564z M105.733,102.607
			c0.277,0,0.568-0.053,0.873-0.16c0.305-0.105,0.587-0.252,0.849-0.438c0.261-0.188,0.487-0.406,0.68-0.654
			c0.192-0.25,0.31-0.518,0.352-0.807v-2.566c-0.106-0.287-0.264-0.555-0.472-0.805c-0.208-0.248-0.442-0.471-0.704-0.662
			c-0.262-0.189-0.539-0.34-0.832-0.447c-0.294-0.105-0.585-0.158-0.873-0.158c-0.447,0-0.855,0.096-1.224,0.287
			s-0.68,0.443-0.937,0.758c-0.256,0.313-0.456,0.672-0.6,1.076s-0.216,0.818-0.216,1.244c0,0.445,0.08,0.871,0.24,1.273
			c0.159,0.406,0.378,0.76,0.655,1.061c0.277,0.305,0.605,0.545,0.984,0.727S105.296,102.607,105.733,102.607z"/>
	</g>
	<g>
		<path fill="#ECD078" d="M100.5,59.609c0,2.074-1.395,3.754-3.114,3.754h-74.77c-1.721,0-3.115-1.681-3.115-3.754V20.18
			c0-2.074,1.395-3.755,3.115-3.755h74.77c1.72,0,3.114,1.681,3.114,3.755V59.609z"/>
		<g>
			<rect x="56.86" y="19.711" fill="#542437" width="40.111" height="4.381"/>
			<rect x="56.86" y="26.909" fill="#542437" width="40.111" height="4.38"/>
			<rect x="56.86" y="34.105" fill="#542437" width="40.111" height="4.381"/>
			<rect x="56.86" y="41.303" fill="#542437" width="40.111" height="4.38"/>
			<rect x="22.98" y="48.5" fill="#542437" width="73.991" height="4.381"/>
			<rect x="22.98" y="55.697" fill="#542437" width="73.991" height="4.38"/>
			<g>
				<ellipse fill="#542437" cx="26.733" cy="24.386" rx="3.136" ry="3.781"/>
				<path fill="#542437" d="M54.135,45.683v-9.485c-1.864-1.487-4.302-2.39-6.969-2.39c-5.314,0-9.715,3.569-10.491,8.228
					c-1.352-1.569-3.422-2.575-5.745-2.575c-3.832,0-6.98,2.731-7.333,6.222H54.135z"/>
			</g>
		</g>
	</g>
</g>
</svg>
