<?xml version="1.0" encoding="utf-8"?>
<!-- Generator: Adobe Illustrator 16.0.0, SVG Export Plug-In . SVG Version: 6.00 Build 0)  -->
<!DOCTYPE svg PUBLIC "-//W3C//DTD SVG 1.1//EN" "http://www.w3.org/Graphics/SVG/1.1/DTD/svg11.dtd">
<svg version="1.1" id="Layer_1" xmlns="http://www.w3.org/2000/svg" xmlns:xlink="http://www.w3.org/1999/xlink" x="0px" y="0px"
	 width="120px" height="121px" viewBox="0 0 120 121" enable-background="new 0 0 120 121" xml:space="preserve">
<path fill="#ECD078" d="M120,115.409c0,3.089-2.15,5.591-4.807,5.591H4.806C2.153,121,0,118.498,0,115.409V5.591
	C0,2.504,2.153,0,4.806,0h110.389C117.85,0,120,2.504,120,5.591V115.409z"/>
<g>
	<path fill="#542437" d="M21.595,75.066c-0.32-0.36-0.75-0.652-1.289-0.877c-0.539-0.224-1.145-0.334-1.816-0.334
		c-1.014,0-1.75,0.188-2.208,0.565c-0.459,0.378-0.688,0.89-0.688,1.538c0,0.341,0.061,0.619,0.184,0.837s0.314,0.406,0.576,0.565
		c0.261,0.16,0.592,0.299,0.992,0.414c0.4,0.117,0.873,0.234,1.417,0.352c0.607,0.129,1.151,0.27,1.632,0.423
		c0.48,0.155,0.891,0.353,1.232,0.593c0.342,0.236,0.603,0.53,0.784,0.875c0.182,0.347,0.272,0.772,0.272,1.284
		c0,0.521-0.102,0.972-0.304,1.354c-0.203,0.382-0.486,0.701-0.849,0.955c-0.363,0.256-0.795,0.443-1.296,0.566
		s-1.046,0.184-1.632,0.184c-1.782,0-3.302-0.547-4.562-1.641l0.544-0.91c0.417,0.438,0.977,0.805,1.681,1.107
		c0.704,0.303,1.489,0.454,2.352,0.454c0.907,0,1.616-0.162,2.128-0.483c0.513-0.326,0.769-0.816,0.769-1.477
		c0-0.352-0.072-0.646-0.216-0.887c-0.145-0.238-0.36-0.445-0.648-0.621c-0.289-0.174-0.649-0.326-1.081-0.454
		c-0.432-0.127-0.931-0.257-1.496-0.382c-0.598-0.139-1.121-0.282-1.568-0.434c-0.448-0.146-0.824-0.334-1.128-0.557
		c-0.305-0.225-0.535-0.492-0.689-0.807c-0.154-0.313-0.232-0.697-0.232-1.155c0-0.521,0.099-0.984,0.297-1.396
		c0.197-0.408,0.474-0.75,0.832-1.021s0.784-0.479,1.28-0.621c0.496-0.146,1.043-0.216,1.641-0.216c0.746,0,1.416,0.113,2.008,0.342
		c0.592,0.23,1.128,0.552,1.607,0.966L21.595,75.066z"/>
	<path fill="#542437" d="M28.092,84.427c-0.608,0-1.168-0.114-1.681-0.343c-0.512-0.229-0.955-0.541-1.329-0.939
		c-0.373-0.398-0.664-0.857-0.872-1.381c-0.208-0.52-0.312-1.078-0.312-1.674c0-0.584,0.104-1.135,0.312-1.65
		c0.208-0.515,0.499-0.967,0.872-1.354c0.374-0.391,0.813-0.697,1.321-0.925c0.507-0.229,1.064-0.345,1.672-0.345
		c0.609,0,1.166,0.115,1.672,0.345c0.507,0.228,0.941,0.539,1.305,0.933c0.363,0.393,0.645,0.846,0.848,1.354
		c0.202,0.51,0.304,1.053,0.304,1.627c0,0.086-0.003,0.17-0.008,0.256c-0.006,0.085-0.014,0.144-0.023,0.175h-7.122
		c0.031,0.445,0.136,0.857,0.312,1.236c0.176,0.377,0.4,0.703,0.672,0.98c0.272,0.275,0.587,0.489,0.944,0.645
		c0.357,0.154,0.738,0.23,1.144,0.23c0.277,0,0.55-0.037,0.817-0.111c0.267-0.072,0.512-0.174,0.736-0.303
		c0.224-0.127,0.424-0.283,0.6-0.47c0.176-0.187,0.312-0.391,0.408-0.614l0.944,0.254c-0.128,0.311-0.309,0.588-0.544,0.838
		c-0.234,0.252-0.507,0.47-0.815,0.653c-0.31,0.188-0.651,0.331-1.024,0.431C28.871,84.376,28.486,84.427,28.092,84.427z
		 M31.164,79.676c-0.031-0.445-0.136-0.853-0.312-1.221c-0.176-0.366-0.4-0.684-0.672-0.948c-0.272-0.267-0.59-0.473-0.952-0.622
		c-0.363-0.148-0.748-0.223-1.153-0.223c-0.405,0-0.789,0.074-1.151,0.223c-0.363,0.149-0.681,0.355-0.952,0.622
		c-0.273,0.265-0.492,0.584-0.657,0.956c-0.166,0.374-0.264,0.776-0.296,1.213H31.164z"/>
	<path fill="#542437" d="M40.845,84.268h-1.088v-4.641c0-0.988-0.144-1.705-0.432-2.152c-0.288-0.445-0.736-0.67-1.345-0.67
		c-0.319,0-0.64,0.06-0.96,0.178c-0.32,0.117-0.619,0.279-0.896,0.492c-0.277,0.215-0.521,0.465-0.729,0.76
		c-0.208,0.291-0.365,0.606-0.472,0.947v5.086h-1.088V75.96h0.993v1.882c0.17-0.298,0.381-0.572,0.632-0.82
		c0.251-0.25,0.53-0.465,0.84-0.646c0.31-0.182,0.638-0.318,0.985-0.414c0.347-0.096,0.706-0.145,1.08-0.145
		c0.469,0,0.861,0.086,1.176,0.257c0.315,0.17,0.569,0.409,0.76,0.717c0.192,0.31,0.331,0.687,0.416,1.133
		c0.085,0.445,0.128,0.94,0.128,1.483V84.268z"/>
	<path fill="#542437" d="M46.558,84.427c-0.576,0-1.109-0.118-1.6-0.358c-0.491-0.238-0.915-0.555-1.272-0.948
		s-0.635-0.847-0.832-1.362c-0.197-0.517-0.296-1.056-0.296-1.617c0-0.586,0.096-1.142,0.288-1.668
		c0.191-0.525,0.456-0.986,0.792-1.379c0.336-0.394,0.736-0.705,1.2-0.933c0.464-0.229,0.973-0.345,1.528-0.345
		c0.704,0,1.328,0.186,1.873,0.551c0.544,0.367,0.977,0.813,1.296,1.332v-5.07h1.089v10.236c0,0.298,0.128,0.447,0.384,0.447v0.955
		c-0.182,0.033-0.326,0.049-0.433,0.049c-0.267,0-0.486-0.077-0.656-0.231c-0.171-0.153-0.257-0.336-0.257-0.551v-0.876
		c-0.341,0.541-0.792,0.974-1.352,1.291C47.751,84.268,47.167,84.427,46.558,84.427z M46.782,83.473c0.277,0,0.568-0.056,0.872-0.16
		c0.305-0.107,0.587-0.254,0.849-0.439c0.261-0.186,0.487-0.402,0.68-0.652c0.192-0.25,0.31-0.52,0.352-0.806v-2.567
		c-0.106-0.285-0.264-0.555-0.472-0.806c-0.208-0.25-0.442-0.47-0.704-0.662c-0.262-0.19-0.539-0.339-0.833-0.446
		c-0.293-0.105-0.584-0.158-0.872-0.158c-0.447,0-0.855,0.096-1.224,0.285c-0.368,0.192-0.68,0.445-0.937,0.76
		c-0.256,0.313-0.456,0.672-0.6,1.076c-0.144,0.402-0.216,0.817-0.216,1.244c0,0.445,0.08,0.869,0.24,1.274
		c0.159,0.401,0.378,0.757,0.655,1.062c0.277,0.301,0.606,0.545,0.985,0.724C45.937,83.38,46.344,83.473,46.782,83.473z"/>
	<path fill="#542437" d="M61.441,84.427c-0.705,0-1.329-0.177-1.873-0.532c-0.544-0.356-0.982-0.807-1.313-1.348v5.117h-1.088V75.96
		h0.976v1.61c0.342-0.521,0.785-0.943,1.329-1.269c0.544-0.323,1.136-0.487,1.776-0.487c0.576,0,1.106,0.121,1.593,0.36
		c0.485,0.239,0.904,0.56,1.256,0.956c0.354,0.398,0.627,0.858,0.824,1.38c0.197,0.522,0.296,1.058,0.296,1.609
		c0,0.586-0.091,1.139-0.271,1.657c-0.182,0.522-0.44,0.979-0.776,1.373s-0.735,0.705-1.2,0.933
		C62.505,84.313,61.995,84.427,61.441,84.427z M61.137,83.473c0.448,0,0.854-0.099,1.217-0.289s0.676-0.443,0.938-0.758
		c0.261-0.313,0.461-0.669,0.6-1.068c0.139-0.398,0.209-0.81,0.209-1.235c0-0.445-0.08-0.87-0.24-1.274
		c-0.159-0.404-0.379-0.76-0.655-1.068c-0.277-0.307-0.606-0.553-0.985-0.733c-0.379-0.18-0.785-0.271-1.224-0.271
		c-0.277,0-0.565,0.057-0.864,0.166c-0.299,0.111-0.581,0.262-0.848,0.447c-0.267,0.187-0.494,0.403-0.681,0.653
		c-0.187,0.251-0.301,0.515-0.344,0.79v2.55c0.128,0.298,0.291,0.574,0.489,0.829c0.197,0.257,0.421,0.477,0.672,0.662
		c0.25,0.188,0.522,0.332,0.816,0.439C60.525,83.417,60.827,83.473,61.137,83.473z"/>
	<path fill="#542437" d="M71.171,76.917c-0.735,0.021-1.376,0.224-1.92,0.604c-0.544,0.385-0.928,0.91-1.153,1.58v5.166H67.01V75.96
		h1.024v1.993c0.289-0.584,0.667-1.07,1.137-1.458c0.47-0.39,0.976-0.582,1.521-0.582c0.097,0,0.187,0,0.271,0
		s0.154,0.004,0.208,0.017V76.917L71.171,76.917z"/>
	<path fill="#542437" d="M72.626,74.223v-1.595h1.089v1.595H72.626z M72.626,84.268V75.96h1.089v8.308H72.626z"/>
	<path fill="#542437" d="M78.547,84.268l-3.393-8.308h1.137l2.865,7.304l2.88-7.304h1.056L79.7,84.268H78.547z"/>
	<path fill="#542437" d="M86.533,84.427c-0.428,0-0.816-0.065-1.168-0.198s-0.653-0.316-0.905-0.551
		c-0.25-0.232-0.444-0.504-0.584-0.813s-0.208-0.633-0.208-0.973c0-0.384,0.086-0.73,0.256-1.045
		c0.172-0.313,0.411-0.582,0.723-0.806c0.309-0.224,0.68-0.396,1.11-0.519c0.433-0.123,0.909-0.184,1.433-0.184
		c0.416,0,0.843,0.037,1.279,0.111c0.438,0.074,0.827,0.181,1.17,0.318v-0.75c0-0.732-0.212-1.314-0.634-1.746
		c-0.421-0.43-0.989-0.646-1.704-0.646c-0.447,0-0.893,0.086-1.336,0.256c-0.441,0.171-0.895,0.414-1.352,0.733L84.229,76.9
		c0.545-0.361,1.071-0.633,1.584-0.813s1.045-0.272,1.601-0.272c1.014,0,1.817,0.295,2.416,0.879s0.897,1.394,0.897,2.424v3.746
		c0,0.299,0.127,0.447,0.383,0.447v0.957c-0.086,0.012-0.166,0.02-0.239,0.024c-0.074,0.004-0.14,0.008-0.192,0.008
		c-0.213,0-0.406-0.063-0.584-0.192c-0.177-0.127-0.275-0.319-0.297-0.574l-0.031-0.651c-0.363,0.488-0.841,0.868-1.433,1.14
		S87.143,84.427,86.533,84.427z M86.807,83.598c0.479,0,0.957-0.104,1.432-0.312c0.475-0.206,0.851-0.49,1.128-0.853
		c0.073-0.097,0.139-0.199,0.192-0.313c0.053-0.109,0.08-0.214,0.08-0.311v-1.355c-0.363-0.139-0.742-0.243-1.138-0.316
		c-0.396-0.076-0.778-0.113-1.151-0.113c-0.779,0-1.41,0.158-1.896,0.472s-0.728,0.747-0.728,1.298c0,0.225,0.041,0.441,0.127,0.654
		c0.086,0.214,0.217,0.404,0.393,0.574s0.393,0.31,0.648,0.414C86.148,83.545,86.453,83.598,86.807,83.598z"/>
	<path fill="#542437" d="M97.016,83.868c-0.063,0.032-0.156,0.075-0.279,0.129c-0.123,0.052-0.264,0.106-0.424,0.159
		s-0.342,0.102-0.545,0.145c-0.203,0.04-0.416,0.063-0.642,0.063c-0.233,0-0.458-0.031-0.672-0.096
		c-0.213-0.063-0.399-0.162-0.56-0.293c-0.16-0.136-0.289-0.303-0.385-0.502c-0.097-0.203-0.145-0.438-0.145-0.703v-5.946h-1.151
		V75.96h1.151v-2.808h1.088v2.808h1.921v0.862h-1.921v5.645c0.021,0.309,0.128,0.533,0.32,0.678c0.191,0.143,0.42,0.215,0.688,0.215
		c0.311,0,0.582-0.051,0.816-0.152c0.234-0.1,0.384-0.171,0.447-0.214L97.016,83.868z"/>
	<path fill="#542437" d="M101.943,84.427c-0.607,0-1.168-0.114-1.682-0.343c-0.512-0.229-0.953-0.541-1.328-0.939
		c-0.373-0.398-0.664-0.857-0.871-1.381c-0.209-0.52-0.313-1.078-0.313-1.674c0-0.584,0.104-1.135,0.313-1.65
		c0.207-0.515,0.498-0.967,0.871-1.354c0.375-0.391,0.813-0.697,1.32-0.925c0.508-0.229,1.064-0.345,1.673-0.345
		s1.165,0.115,1.673,0.345c0.506,0.228,0.94,0.539,1.305,0.933c0.361,0.393,0.645,0.846,0.848,1.354
		c0.202,0.51,0.305,1.053,0.305,1.627c0,0.086-0.004,0.17-0.009,0.256c-0.006,0.085-0.014,0.144-0.022,0.175h-7.121
		c0.031,0.445,0.136,0.857,0.312,1.236c0.177,0.377,0.4,0.703,0.673,0.98c0.271,0.275,0.586,0.489,0.943,0.645
		c0.357,0.154,0.738,0.23,1.145,0.23c0.277,0,0.551-0.037,0.816-0.111c0.268-0.072,0.512-0.174,0.736-0.303
		c0.224-0.127,0.424-0.283,0.6-0.47s0.313-0.391,0.408-0.614l0.943,0.254c-0.129,0.311-0.31,0.588-0.545,0.838
		c-0.233,0.252-0.506,0.47-0.814,0.653c-0.311,0.188-0.651,0.331-1.023,0.431C102.723,84.376,102.339,84.427,101.943,84.427z
		 M105.016,79.676c-0.031-0.445-0.136-0.853-0.312-1.221c-0.177-0.366-0.399-0.684-0.672-0.948
		c-0.272-0.267-0.591-0.473-0.952-0.622c-0.363-0.148-0.747-0.223-1.152-0.223c-0.404,0-0.789,0.074-1.152,0.223
		c-0.362,0.149-0.68,0.355-0.951,0.622c-0.272,0.265-0.491,0.584-0.656,0.956c-0.166,0.374-0.264,0.776-0.296,1.213H105.016z"/>
	<path fill="#542437" d="M39.743,103.402h-1.088v-4.641c0-0.968-0.152-1.68-0.456-2.138c-0.305-0.457-0.766-0.685-1.385-0.685
		c-0.319,0-0.621,0.059-0.903,0.175c-0.283,0.116-0.544,0.282-0.784,0.493c-0.24,0.213-0.451,0.467-0.632,0.759
		c-0.182,0.292-0.32,0.612-0.417,0.965v5.071H32.99v-4.641c0-0.99-0.15-1.707-0.448-2.154c-0.299-0.444-0.758-0.668-1.376-0.668
		c-0.63,0-1.189,0.218-1.681,0.653c-0.49,0.437-0.842,1.011-1.056,1.722v5.088H27.34v-8.309h0.992v1.881
		c0.341-0.638,0.79-1.136,1.344-1.492c0.555-0.354,1.168-0.532,1.84-0.532c0.704,0,1.27,0.196,1.696,0.59
		c0.427,0.394,0.683,0.909,0.768,1.548c0.78-1.425,1.857-2.138,3.233-2.138c0.458,0,0.851,0.086,1.176,0.255
		c0.325,0.17,0.587,0.413,0.784,0.727c0.197,0.314,0.341,0.69,0.432,1.131c0.091,0.441,0.137,0.936,0.137,1.477L39.743,103.402
		L39.743,103.402z"/>
	<path fill="#542437" d="M45.647,103.563c-0.608,0-1.168-0.113-1.681-0.342c-0.512-0.229-0.954-0.544-1.328-0.941
		c-0.374-0.399-0.665-0.858-0.873-1.379c-0.208-0.521-0.312-1.08-0.312-1.676c0-0.584,0.104-1.134,0.312-1.648
		c0.208-0.516,0.499-0.969,0.873-1.355c0.374-0.389,0.813-0.695,1.32-0.926c0.507-0.229,1.065-0.343,1.672-0.343
		c0.608,0,1.165,0.114,1.672,0.343c0.507,0.229,0.942,0.539,1.305,0.934c0.362,0.393,0.645,0.847,0.848,1.355
		c0.202,0.51,0.304,1.051,0.304,1.625c0,0.086-0.003,0.172-0.008,0.255c-0.006,0.086-0.014,0.146-0.023,0.177h-7.121
		c0.031,0.446,0.136,0.859,0.312,1.235c0.176,0.377,0.4,0.704,0.672,0.979c0.272,0.276,0.587,0.492,0.944,0.646
		c0.357,0.152,0.739,0.23,1.144,0.23c0.277,0,0.55-0.037,0.816-0.112c0.267-0.073,0.512-0.175,0.736-0.302
		c0.224-0.129,0.424-0.284,0.6-0.471c0.176-0.186,0.312-0.393,0.408-0.613l0.943,0.255c-0.128,0.308-0.309,0.588-0.544,0.837
		c-0.234,0.25-0.507,0.468-0.815,0.654c-0.31,0.185-0.652,0.328-1.025,0.431C46.425,103.512,46.042,103.563,45.647,103.563z
		 M48.719,98.811c-0.031-0.446-0.136-0.854-0.312-1.22c-0.176-0.368-0.4-0.684-0.672-0.95c-0.273-0.265-0.59-0.473-0.953-0.619
		c-0.363-0.15-0.747-0.226-1.152-0.226c-0.405,0-0.79,0.074-1.152,0.226c-0.363,0.146-0.681,0.354-0.952,0.619
		c-0.272,0.268-0.491,0.586-0.656,0.959c-0.166,0.371-0.264,0.775-0.296,1.211H48.719z"/>
	<path fill="#542437" d="M54.192,103.563c-0.65,0-1.286-0.106-1.904-0.318c-0.619-0.212-1.152-0.521-1.601-0.926l0.496-0.732
		c0.47,0.382,0.946,0.67,1.432,0.859c0.485,0.193,1.006,0.289,1.561,0.289c0.672,0,1.208-0.137,1.607-0.407
		c0.401-0.271,0.601-0.655,0.601-1.156c0-0.233-0.054-0.428-0.16-0.581c-0.106-0.154-0.264-0.29-0.472-0.406
		c-0.208-0.117-0.47-0.221-0.784-0.313c-0.314-0.09-0.68-0.184-1.096-0.278c-0.48-0.116-0.897-0.233-1.249-0.351
		c-0.353-0.116-0.644-0.251-0.872-0.398c-0.229-0.15-0.4-0.332-0.513-0.551c-0.111-0.219-0.168-0.491-0.168-0.822
		c0-0.414,0.083-0.779,0.248-1.1c0.166-0.319,0.39-0.582,0.672-0.788c0.283-0.208,0.613-0.364,0.992-0.472
		c0.379-0.106,0.782-0.159,1.208-0.159c0.641,0,1.222,0.104,1.745,0.312c0.522,0.207,0.944,0.48,1.264,0.821l-0.527,0.638
		c-0.31-0.32-0.686-0.558-1.128-0.717c-0.443-0.16-0.904-0.24-1.385-0.24c-0.287,0-0.555,0.029-0.8,0.088
		c-0.246,0.06-0.461,0.152-0.648,0.278c-0.188,0.129-0.334,0.29-0.44,0.486s-0.16,0.429-0.16,0.692c0,0.225,0.037,0.405,0.112,0.543
		c0.074,0.14,0.197,0.258,0.368,0.358c0.17,0.103,0.387,0.192,0.648,0.272c0.262,0.078,0.579,0.16,0.952,0.244
		c0.533,0.129,1.003,0.258,1.408,0.385c0.406,0.128,0.745,0.275,1.016,0.445c0.272,0.172,0.478,0.377,0.616,0.623
		c0.138,0.244,0.208,0.541,0.208,0.894c0,0.765-0.293,1.37-0.88,1.817C55.974,103.339,55.185,103.563,54.192,103.563z"/>
	<path fill="#542437" d="M61.984,103.563c-0.649,0-1.284-0.106-1.902-0.318c-0.619-0.212-1.152-0.521-1.601-0.926l0.497-0.732
		c0.47,0.382,0.946,0.67,1.432,0.859c0.484,0.193,1.006,0.289,1.561,0.289c0.672,0,1.209-0.137,1.608-0.407s0.601-0.655,0.601-1.156
		c0-0.233-0.054-0.428-0.16-0.581c-0.105-0.154-0.264-0.29-0.472-0.406c-0.208-0.117-0.47-0.221-0.784-0.313
		c-0.314-0.09-0.681-0.184-1.097-0.278c-0.479-0.116-0.896-0.233-1.248-0.351c-0.353-0.116-0.644-0.251-0.872-0.398
		c-0.229-0.15-0.4-0.332-0.513-0.551c-0.111-0.219-0.168-0.491-0.168-0.822c0-0.414,0.083-0.779,0.248-1.1
		c0.166-0.319,0.39-0.582,0.672-0.788c0.283-0.208,0.613-0.364,0.991-0.472c0.38-0.106,0.781-0.159,1.209-0.159
		c0.641,0,1.223,0.104,1.744,0.312c0.522,0.207,0.944,0.48,1.265,0.821l-0.527,0.638c-0.31-0.32-0.686-0.558-1.128-0.717
		c-0.443-0.16-0.904-0.24-1.386-0.24c-0.287,0-0.556,0.029-0.8,0.088c-0.245,0.06-0.461,0.152-0.647,0.278
		c-0.188,0.129-0.334,0.29-0.44,0.486s-0.16,0.429-0.16,0.692c0,0.225,0.037,0.405,0.112,0.543c0.074,0.14,0.197,0.258,0.368,0.358
		c0.169,0.103,0.386,0.192,0.647,0.272c0.262,0.078,0.579,0.16,0.952,0.244c0.533,0.129,1.004,0.258,1.408,0.385
		c0.405,0.128,0.744,0.275,1.017,0.445c0.272,0.172,0.478,0.377,0.616,0.623c0.138,0.244,0.207,0.541,0.207,0.894
		c0,0.765-0.293,1.37-0.879,1.817C63.768,103.339,62.979,103.563,61.984,103.563z"/>
	<path fill="#542437" d="M69.188,103.563c-0.426,0-0.815-0.067-1.168-0.199c-0.353-0.133-0.653-0.315-0.904-0.549
		c-0.25-0.233-0.445-0.506-0.584-0.813s-0.208-0.633-0.208-0.974c0-0.383,0.086-0.729,0.256-1.043
		c0.171-0.313,0.411-0.582,0.721-0.808c0.31-0.224,0.681-0.396,1.112-0.518c0.434-0.122,0.908-0.185,1.434-0.185
		c0.416,0,0.842,0.039,1.278,0.112c0.438,0.073,0.827,0.181,1.169,0.317v-0.748c0-0.733-0.211-1.315-0.633-1.746
		c-0.422-0.432-0.989-0.646-1.704-0.646c-0.447,0-0.894,0.086-1.336,0.256c-0.443,0.17-0.896,0.414-1.353,0.733l-0.385-0.719
		c0.544-0.361,1.071-0.632,1.585-0.813c0.513-0.181,1.046-0.271,1.601-0.271c1.014,0,1.817,0.292,2.416,0.878
		c0.598,0.584,0.896,1.392,0.896,2.424V102c0,0.298,0.128,0.445,0.386,0.445v0.957c-0.086,0.011-0.168,0.019-0.242,0.023
		c-0.073,0.006-0.139,0.008-0.191,0.008c-0.213,0-0.407-0.063-0.584-0.19c-0.176-0.128-0.273-0.319-0.296-0.574l-0.031-0.653
		c-0.362,0.488-0.841,0.869-1.433,1.142C70.396,103.427,69.796,103.563,69.188,103.563z M69.46,102.732
		c0.479,0,0.957-0.104,1.433-0.312c0.475-0.208,0.851-0.491,1.127-0.853c0.074-0.096,0.14-0.2,0.192-0.313
		c0.054-0.109,0.08-0.216,0.08-0.313V99.59c-0.362-0.138-0.742-0.244-1.138-0.318c-0.395-0.074-0.777-0.11-1.15-0.11
		c-0.779,0-1.411,0.155-1.896,0.469s-0.729,0.747-0.729,1.3c0,0.226,0.042,0.442,0.128,0.654c0.085,0.212,0.216,0.402,0.392,0.574
		c0.177,0.169,0.395,0.308,0.649,0.415C68.805,102.68,69.107,102.732,69.46,102.732z"/>
	<path fill="#542437" d="M79.125,103.514c-0.577,0-1.104-0.117-1.577-0.356c-0.475-0.24-0.886-0.558-1.231-0.95
		c-0.346-0.395-0.615-0.846-0.809-1.354c-0.191-0.512-0.287-1.037-0.287-1.58c0-0.573,0.094-1.125,0.279-1.649
		s0.45-0.985,0.792-1.378c0.342-0.395,0.749-0.709,1.224-0.941c0.476-0.234,1-0.352,1.576-0.352c0.717,0,1.335,0.18,1.857,0.533
		c0.521,0.355,0.971,0.807,1.344,1.35v-1.738h0.977v8.34c0,0.573-0.109,1.082-0.328,1.521c-0.219,0.442-0.512,0.812-0.879,1.108
		c-0.369,0.299-0.804,0.521-1.306,0.67c-0.501,0.147-1.028,0.225-1.584,0.225c-0.95,0-1.719-0.171-2.305-0.512
		c-0.587-0.34-1.062-0.797-1.425-1.37l0.673-0.524c0.329,0.53,0.768,0.92,1.312,1.172c0.545,0.248,1.127,0.373,1.745,0.373
		c0.405,0,0.792-0.056,1.16-0.168c0.368-0.111,0.688-0.275,0.96-0.494s0.488-0.494,0.648-0.83c0.158-0.334,0.238-0.724,0.238-1.17
		v-1.645c-0.33,0.533-0.771,0.952-1.318,1.262C80.313,103.359,79.732,103.514,79.125,103.514z M79.43,102.604
		c0.319,0,0.635-0.058,0.943-0.174c0.309-0.117,0.589-0.275,0.84-0.472c0.251-0.197,0.461-0.417,0.633-0.662
		c0.17-0.243,0.282-0.494,0.336-0.749V97.98c-0.117-0.297-0.279-0.572-0.488-0.83c-0.207-0.256-0.439-0.471-0.695-0.651
		c-0.256-0.183-0.531-0.325-0.824-0.433c-0.293-0.104-0.589-0.157-0.888-0.157c-0.472,0-0.888,0.098-1.249,0.294
		c-0.363,0.195-0.672,0.455-0.928,0.771c-0.256,0.319-0.451,0.683-0.584,1.084c-0.135,0.405-0.2,0.814-0.2,1.229
		c0,0.448,0.079,0.872,0.239,1.276c0.16,0.402,0.379,0.758,0.656,1.06c0.276,0.304,0.604,0.543,0.983,0.718
		C78.583,102.518,78.99,102.604,79.43,102.604z"/>
	<path fill="#542437" d="M89.254,103.563c-0.607,0-1.168-0.113-1.681-0.342c-0.513-0.229-0.954-0.544-1.328-0.941
		c-0.373-0.399-0.664-0.858-0.872-1.379c-0.208-0.521-0.313-1.08-0.313-1.676c0-0.584,0.104-1.134,0.313-1.648
		c0.208-0.516,0.499-0.969,0.872-1.355c0.374-0.389,0.813-0.695,1.319-0.926c0.508-0.229,1.064-0.343,1.672-0.343
		c0.609,0,1.166,0.114,1.674,0.343c0.507,0.229,0.941,0.539,1.305,0.934c0.362,0.393,0.645,0.847,0.848,1.355
		c0.203,0.51,0.305,1.051,0.305,1.625c0,0.086-0.004,0.172-0.008,0.255c-0.006,0.086-0.014,0.146-0.023,0.177h-7.121
		c0.031,0.446,0.137,0.859,0.313,1.235c0.176,0.377,0.399,0.704,0.672,0.979c0.271,0.276,0.587,0.492,0.943,0.646
		c0.357,0.152,0.738,0.23,1.145,0.23c0.277,0,0.55-0.037,0.816-0.112c0.268-0.073,0.513-0.175,0.736-0.302
		c0.225-0.129,0.424-0.284,0.6-0.471c0.177-0.186,0.313-0.393,0.408-0.613l0.943,0.255c-0.128,0.308-0.309,0.588-0.544,0.837
		c-0.233,0.25-0.507,0.468-0.815,0.654c-0.31,0.185-0.65,0.328-1.023,0.431C90.033,103.512,89.648,103.563,89.254,103.563z
		 M92.326,98.811c-0.031-0.446-0.137-0.854-0.313-1.22c-0.176-0.368-0.4-0.684-0.672-0.95c-0.271-0.265-0.59-0.473-0.951-0.619
		c-0.363-0.15-0.748-0.226-1.154-0.226c-0.404,0-0.788,0.074-1.15,0.226c-0.363,0.146-0.682,0.354-0.952,0.619
		c-0.272,0.268-0.491,0.586-0.655,0.959c-0.166,0.371-0.265,0.775-0.297,1.211H92.326z"/>
</g>
<g>
	<g>
		<path fill="#542437" d="M73.466,43.973L62.102,55.412c-0.474,0.475-1.293,0.476-1.765-0.001L49.091,44.127l-22.51,16.366
			c0.258,0.131,0.545,0.211,0.857,0.211h67.123c0.316,0,0.609-0.083,0.873-0.22L73.466,43.973z"/>
		<path fill="#542437" d="M97.123,59.095c0.043-0.157,0.072-0.32,0.072-0.492V20.618L75.279,42.677L97.123,59.095z"/>
		<path fill="#542437" d="M47.272,43.026L24.805,20.481v38.316c0,0.177,0.031,0.345,0.076,0.507L47.272,43.026z"/>
	</g>
	<path fill="#542437" d="M61.904,52.649L95.98,18.35l-69.962-0.091l34.271,34.39C60.725,53.084,61.475,53.083,61.904,52.649z"/>
</g>
<path fill="#542437" d="M-74.5,62.409c0,3.089-2.15,5.591-4.807,5.591h-110.387c-2.653,0-4.806-2.502-4.806-5.591V-47.409
	c0-3.087,2.153-5.591,4.806-5.591h110.389c2.654,0,4.805,2.504,4.805,5.591V62.409z"/>
<g>
	<g>
		<path fill="#ECD078" d="M3.61-34.027L-7.754-22.588c-0.474,0.475-1.293,0.477-1.765-0.001l-11.246-11.284l-22.51,16.366
			c0.258,0.131,0.545,0.211,0.857,0.211h67.123c0.316,0,0.609-0.083,0.873-0.22L3.61-34.027z"/>
		<path fill="#ECD078" d="M27.268-18.905c0.043-0.157,0.072-0.319,0.072-0.491v-37.985L5.424-35.323L27.268-18.905z"/>
		<path fill="#ECD078" d="M-22.583-34.975L-45.05-57.519v38.316c0,0.178,0.031,0.346,0.076,0.508L-22.583-34.975z"/>
	</g>
	<path fill="#ECD078" d="M-7.951-25.352L26.125-59.65l-69.962-0.091l34.271,34.39C-9.131-24.916-8.381-24.917-7.951-25.352z"/>
</g>
</svg>
