<?xml version="1.0" encoding="utf-8"?>
<!-- Generator: Adobe Illustrator 16.0.0, SVG Export Plug-In . SVG Version: 6.00 Build 0)  -->
<!DOCTYPE svg PUBLIC "-//W3C//DTD SVG 1.1//EN" "http://www.w3.org/Graphics/SVG/1.1/DTD/svg11.dtd">
<svg version="1.1" id="Layer_1" xmlns="http://www.w3.org/2000/svg" xmlns:xlink="http://www.w3.org/1999/xlink" x="0px" y="0px"
	 width="120px" height="121px" viewBox="0 0 120 121" enable-background="new 0 0 120 121" xml:space="preserve">
<path fill="#ECD078" d="M120,115.41c0,3.09-2.152,5.59-4.807,5.59H4.804C2.152,121,0,118.5,0,115.41V5.592
	c0-3.087,2.152-5.591,4.804-5.591h110.391c2.652,0,4.806,2.504,4.806,5.591L120,115.41L120,115.41z"/>
<g>
	<path fill="#542437" d="M48.901,75.068c-0.32-0.359-0.75-0.652-1.288-0.877c-0.539-0.224-1.145-0.334-1.817-0.334
		c-1.014,0-1.749,0.188-2.208,0.565s-0.688,0.89-0.688,1.538c0,0.342,0.061,0.619,0.184,0.838c0.123,0.217,0.314,0.406,0.576,0.566
		c0.261,0.16,0.592,0.297,0.992,0.414c0.399,0.117,0.872,0.234,1.416,0.352c0.608,0.127,1.152,0.268,1.633,0.422
		c0.479,0.156,0.891,0.352,1.231,0.592c0.342,0.236,0.603,0.531,0.784,0.875c0.182,0.349,0.272,0.773,0.272,1.285
		c0,0.521-0.102,0.971-0.304,1.355c-0.203,0.381-0.486,0.699-0.849,0.955c-0.362,0.254-0.795,0.443-1.296,0.566
		s-1.046,0.184-1.633,0.184c-1.781,0-3.302-0.547-4.561-1.643l0.544-0.908c0.416,0.436,0.977,0.805,1.681,1.106
		c0.704,0.306,1.488,0.453,2.352,0.453c0.908,0,1.617-0.16,2.129-0.483c0.513-0.324,0.769-0.814,0.769-1.476
		c0-0.353-0.072-0.646-0.216-0.888c-0.145-0.237-0.36-0.444-0.648-0.62c-0.288-0.175-0.648-0.326-1.08-0.455
		c-0.432-0.127-0.932-0.254-1.497-0.382c-0.598-0.139-1.12-0.282-1.567-0.432c-0.448-0.147-0.824-0.336-1.128-0.557
		c-0.305-0.225-0.534-0.494-0.688-0.807c-0.154-0.313-0.232-0.699-0.232-1.156c0-0.52,0.099-0.984,0.297-1.396
		c0.197-0.408,0.474-0.748,0.831-1.02c0.357-0.27,0.784-0.479,1.28-0.621s1.043-0.215,1.641-0.215c0.747,0,1.417,0.115,2.009,0.342
		c0.592,0.23,1.128,0.551,1.607,0.965L48.901,75.068z"/>
	<path fill="#542437" d="M55.398,84.428c-0.608,0-1.168-0.113-1.681-0.342c-0.512-0.229-0.954-0.541-1.328-0.939
		c-0.373-0.399-0.665-0.858-0.873-1.381c-0.208-0.52-0.312-1.078-0.312-1.674c0-0.584,0.104-1.135,0.312-1.65
		c0.208-0.515,0.5-0.967,0.873-1.354c0.374-0.389,0.813-0.694,1.32-0.924s1.064-0.345,1.672-0.345s1.165,0.113,1.672,0.345
		c0.508,0.229,0.942,0.539,1.306,0.932c0.362,0.396,0.645,0.847,0.848,1.355c0.202,0.51,0.304,1.053,0.304,1.627
		c0,0.086-0.003,0.17-0.008,0.256c-0.006,0.086-0.014,0.144-0.023,0.174h-7.121c0.031,0.447,0.136,0.859,0.312,1.236
		c0.176,0.379,0.4,0.705,0.672,0.979c0.272,0.277,0.587,0.492,0.944,0.646c0.357,0.155,0.738,0.231,1.144,0.231
		c0.277,0,0.55-0.037,0.816-0.111c0.266-0.073,0.512-0.176,0.736-0.303s0.425-0.285,0.601-0.471s0.312-0.391,0.408-0.613
		l0.943,0.254c-0.128,0.312-0.309,0.588-0.544,0.838c-0.234,0.25-0.507,0.47-0.815,0.654c-0.311,0.187-0.652,0.33-1.025,0.43
		C56.177,84.379,55.793,84.428,55.398,84.428z M58.471,79.678c-0.031-0.445-0.136-0.854-0.312-1.221
		c-0.176-0.365-0.4-0.684-0.672-0.947c-0.273-0.268-0.591-0.475-0.953-0.623c-0.363-0.147-0.747-0.223-1.152-0.223
		c-0.405,0-0.789,0.074-1.151,0.223c-0.363,0.148-0.681,0.355-0.952,0.623c-0.272,0.264-0.491,0.584-0.656,0.955
		c-0.166,0.373-0.264,0.777-0.296,1.213H58.471z"/>
	<path fill="#542437" d="M68.15,84.27h-1.088v-4.641c0-0.988-0.144-1.705-0.432-2.152s-0.736-0.67-1.345-0.67
		c-0.319,0-0.64,0.06-0.96,0.178c-0.319,0.115-0.618,0.279-0.896,0.492c-0.277,0.213-0.521,0.465-0.729,0.758
		s-0.365,0.607-0.473,0.949v5.086h-1.088v-8.309h0.992v1.883c0.17-0.297,0.381-0.572,0.633-0.822c0.252-0.248,0.53-0.465,0.84-0.645
		c0.311-0.182,0.639-0.32,0.984-0.416s0.706-0.143,1.08-0.143c0.469,0,0.861,0.084,1.176,0.256c0.314,0.17,0.568,0.408,0.76,0.717
		c0.192,0.309,0.332,0.686,0.416,1.133c0.086,0.445,0.129,0.939,0.129,1.482V84.27L68.15,84.27z"/>
	<path fill="#542437" d="M73.866,84.428c-0.577,0-1.11-0.117-1.601-0.357c-0.492-0.237-0.916-0.555-1.272-0.948
		c-0.357-0.394-0.636-0.849-0.832-1.363c-0.197-0.515-0.296-1.055-0.296-1.616c0-0.586,0.096-1.142,0.287-1.668
		c0.191-0.525,0.457-0.984,0.793-1.379c0.336-0.394,0.736-0.703,1.199-0.933c0.465-0.229,0.974-0.345,1.528-0.345
		c0.704,0,1.328,0.185,1.872,0.552c0.544,0.366,0.977,0.812,1.296,1.33v-5.07h1.089v10.236c0,0.299,0.129,0.446,0.385,0.446v0.957
		c-0.183,0.033-0.326,0.049-0.434,0.049c-0.268,0-0.484-0.077-0.654-0.231c-0.172-0.153-0.258-0.336-0.258-0.551V82.66
		c-0.341,0.541-0.792,0.973-1.352,1.289C75.059,84.27,74.475,84.428,73.866,84.428z M74.09,83.473c0.277,0,0.568-0.055,0.872-0.16
		c0.306-0.104,0.587-0.252,0.849-0.438c0.262-0.185,0.487-0.401,0.681-0.651c0.192-0.25,0.31-0.521,0.352-0.806V78.85
		c-0.106-0.285-0.264-0.556-0.472-0.806s-0.441-0.471-0.704-0.662c-0.263-0.19-0.539-0.34-0.832-0.444
		c-0.293-0.107-0.584-0.16-0.872-0.16c-0.447,0-0.855,0.096-1.225,0.285c-0.368,0.192-0.68,0.446-0.938,0.76
		c-0.256,0.313-0.455,0.672-0.6,1.076c-0.145,0.401-0.217,0.817-0.217,1.244c0,0.444,0.08,0.868,0.24,1.274
		c0.159,0.401,0.379,0.756,0.655,1.062c0.277,0.301,0.604,0.545,0.983,0.725C73.243,83.383,73.652,83.473,74.09,83.473z"/>
	<path fill="#542437" d="M14.392,103.564c-0.65,0-1.255-0.166-1.809-0.494c-0.556-0.33-0.987-0.756-1.297-1.277v1.611H10.31V91.766
		h1.088v5.07c0.373-0.564,0.821-1.018,1.344-1.365c0.522-0.344,1.138-0.518,1.842-0.518c0.575,0,1.098,0.123,1.567,0.365
		c0.47,0.246,0.866,0.572,1.192,0.981c0.325,0.41,0.576,0.871,0.752,1.388c0.176,0.516,0.264,1.043,0.264,1.588
		c0,0.582-0.102,1.137-0.304,1.658c-0.203,0.521-0.482,0.975-0.84,1.36c-0.357,0.392-0.779,0.697-1.265,0.929
		C15.466,103.449,14.946,103.564,14.392,103.564z M14.136,102.607c0.458,0,0.877-0.094,1.256-0.279s0.704-0.436,0.976-0.75
		c0.272-0.313,0.485-0.668,0.641-1.068c0.154-0.398,0.231-0.809,0.231-1.234c0-0.438-0.071-0.856-0.216-1.26
		c-0.144-0.406-0.347-0.764-0.607-1.076c-0.262-0.313-0.574-0.563-0.937-0.75c-0.362-0.188-0.763-0.278-1.2-0.278
		c-0.33,0-0.64,0.055-0.929,0.168c-0.288,0.11-0.555,0.264-0.8,0.453c-0.246,0.19-0.467,0.413-0.664,0.661
		c-0.197,0.25-0.36,0.515-0.488,0.789v2.584c0.043,0.287,0.157,0.556,0.344,0.806s0.414,0.465,0.681,0.646
		c0.267,0.181,0.549,0.324,0.848,0.431C13.569,102.555,13.858,102.607,14.136,102.607z"/>
	<path fill="#542437" d="M22.744,103.564c-0.875,0-1.536-0.301-1.984-0.9c-0.448-0.602-0.672-1.498-0.672-2.689v-4.877h1.088v4.688
		c0,1.881,0.646,2.821,1.937,2.821c0.319,0,0.634-0.053,0.943-0.159c0.31-0.105,0.596-0.263,0.857-0.462
		c0.261-0.202,0.496-0.44,0.704-0.719c0.208-0.274,0.376-0.59,0.504-0.938V95.1h1.088v6.903c0,0.297,0.133,0.445,0.4,0.445v0.956
		c-0.214,0.031-0.363,0.048-0.448,0.048c-0.246,0-0.456-0.074-0.632-0.222c-0.177-0.149-0.265-0.336-0.265-0.559v-1.148
		c-0.373,0.646-0.869,1.15-1.487,1.506C24.157,103.385,23.48,103.564,22.744,103.564z"/>
	<path fill="#542437" d="M32.474,103.564c-0.65,0-1.285-0.107-1.903-0.318c-0.62-0.213-1.153-0.523-1.602-0.926l0.496-0.734
		c0.47,0.383,0.947,0.67,1.433,0.861c0.485,0.193,1.006,0.287,1.561,0.287c0.672,0,1.208-0.135,1.607-0.406
		c0.4-0.27,0.601-0.656,0.601-1.156c0-0.232-0.054-0.428-0.16-0.582s-0.264-0.289-0.472-0.406s-0.47-0.221-0.784-0.313
		c-0.314-0.088-0.68-0.182-1.096-0.277c-0.48-0.117-0.896-0.234-1.248-0.35c-0.353-0.117-0.644-0.252-0.872-0.4
		c-0.23-0.148-0.401-0.332-0.514-0.551c-0.111-0.217-0.168-0.49-0.168-0.82c0-0.416,0.083-0.781,0.248-1.1
		c0.166-0.32,0.391-0.582,0.673-0.789c0.283-0.209,0.613-0.363,0.992-0.471c0.379-0.108,0.781-0.16,1.208-0.16
		c0.641,0,1.222,0.104,1.744,0.313c0.522,0.205,0.944,0.48,1.265,0.82l-0.528,0.637c-0.31-0.318-0.686-0.557-1.128-0.717
		c-0.443-0.158-0.904-0.238-1.385-0.238c-0.287,0-0.555,0.029-0.8,0.088c-0.245,0.058-0.461,0.15-0.647,0.277
		c-0.188,0.129-0.334,0.291-0.44,0.486c-0.106,0.197-0.16,0.428-0.16,0.693c0,0.225,0.037,0.403,0.112,0.543
		c0.074,0.139,0.197,0.258,0.368,0.356c0.17,0.103,0.387,0.192,0.647,0.272c0.262,0.078,0.579,0.162,0.952,0.244
		c0.533,0.129,1.003,0.258,1.408,0.386c0.405,0.129,0.744,0.274,1.016,0.444c0.272,0.172,0.479,0.377,0.617,0.623
		c0.139,0.244,0.208,0.541,0.208,0.894c0,0.766-0.294,1.37-0.881,1.817C34.255,103.34,33.466,103.564,32.474,103.564z"/>
	<path fill="#542437" d="M37.468,93.359v-1.594h1.088v1.594H37.468z M37.468,103.404v-8.307h1.088v8.307H37.468z"/>
	<path fill="#542437" d="M47.901,103.404h-1.088v-4.641c0-0.988-0.144-1.707-0.432-2.152c-0.289-0.445-0.737-0.67-1.346-0.67
		c-0.319,0-0.64,0.059-0.96,0.176c-0.319,0.117-0.618,0.283-0.896,0.494c-0.277,0.213-0.521,0.465-0.729,0.758
		c-0.208,0.291-0.365,0.609-0.472,0.949v5.086h-1.089v-8.307h0.993v1.881c0.17-0.297,0.381-0.57,0.632-0.822
		c0.251-0.25,0.53-0.463,0.84-0.645c0.31-0.183,0.638-0.318,0.984-0.414c0.346-0.097,0.706-0.146,1.08-0.146
		c0.469,0,0.861,0.086,1.177,0.256c0.314,0.168,0.568,0.408,0.76,0.717c0.192,0.31,0.331,0.687,0.416,1.132
		c0.085,0.448,0.128,0.942,0.128,1.483v4.864H47.901z"/>
	<path fill="#542437" d="M53.807,103.564c-0.608,0-1.168-0.115-1.681-0.342c-0.513-0.23-0.955-0.543-1.329-0.943
		c-0.373-0.398-0.664-0.857-0.872-1.377c-0.208-0.521-0.312-1.08-0.312-1.676c0-0.584,0.104-1.134,0.312-1.65
		c0.208-0.516,0.499-0.967,0.872-1.355c0.374-0.387,0.813-0.695,1.321-0.926c0.507-0.227,1.064-0.342,1.672-0.342
		s1.165,0.115,1.672,0.342c0.507,0.23,0.941,0.541,1.305,0.934c0.362,0.394,0.646,0.847,0.849,1.355
		c0.202,0.512,0.304,1.053,0.304,1.627c0,0.084-0.003,0.17-0.008,0.254c-0.006,0.086-0.014,0.145-0.023,0.176h-7.122
		c0.031,0.447,0.136,0.859,0.312,1.236c0.176,0.377,0.4,0.703,0.672,0.98c0.273,0.276,0.588,0.492,0.945,0.646
		c0.357,0.154,0.738,0.229,1.144,0.229c0.277,0,0.55-0.034,0.816-0.11c0.267-0.074,0.512-0.177,0.736-0.304
		c0.224-0.129,0.424-0.282,0.6-0.471c0.176-0.186,0.312-0.391,0.408-0.613l0.944,0.257c-0.129,0.307-0.31,0.588-0.545,0.836
		c-0.234,0.25-0.507,0.467-0.815,0.653c-0.31,0.187-0.651,0.328-1.024,0.431S54.201,103.564,53.807,103.564z M56.878,98.811
		c-0.031-0.444-0.136-0.852-0.312-1.219c-0.176-0.367-0.4-0.682-0.672-0.949c-0.272-0.264-0.59-0.473-0.952-0.621
		c-0.363-0.149-0.747-0.223-1.152-0.223c-0.405,0-0.789,0.072-1.151,0.223c-0.363,0.148-0.681,0.357-0.953,0.621
		c-0.272,0.269-0.491,0.586-0.656,0.957c-0.166,0.373-0.264,0.777-0.296,1.211H56.878z"/>
	<path fill="#542437" d="M62.352,103.564c-0.65,0-1.285-0.107-1.903-0.318c-0.619-0.213-1.152-0.523-1.601-0.926l0.496-0.734
		c0.47,0.383,0.946,0.67,1.433,0.861c0.484,0.193,1.006,0.287,1.561,0.287c0.673,0,1.209-0.135,1.607-0.406
		c0.4-0.27,0.602-0.656,0.602-1.156c0-0.232-0.054-0.428-0.16-0.582c-0.105-0.154-0.264-0.289-0.472-0.406s-0.47-0.221-0.784-0.313
		c-0.314-0.088-0.681-0.182-1.097-0.277c-0.48-0.117-0.896-0.234-1.248-0.35c-0.353-0.117-0.644-0.252-0.872-0.4
		c-0.229-0.148-0.4-0.332-0.513-0.551c-0.111-0.217-0.168-0.49-0.168-0.82c0-0.416,0.083-0.781,0.248-1.1
		c0.166-0.32,0.39-0.582,0.672-0.789c0.283-0.209,0.613-0.363,0.992-0.471c0.379-0.108,0.781-0.16,1.209-0.16
		c0.642,0,1.223,0.104,1.744,0.313c0.522,0.205,0.944,0.48,1.264,0.82l-0.526,0.637c-0.31-0.318-0.687-0.557-1.128-0.717
		c-0.443-0.158-0.904-0.238-1.387-0.238c-0.286,0-0.555,0.029-0.799,0.088c-0.246,0.058-0.461,0.15-0.647,0.277
		c-0.188,0.129-0.334,0.291-0.44,0.486c-0.106,0.197-0.16,0.428-0.16,0.693c0,0.225,0.037,0.403,0.112,0.543
		c0.074,0.139,0.197,0.258,0.368,0.356c0.17,0.103,0.387,0.192,0.646,0.272c0.263,0.078,0.58,0.162,0.953,0.244
		c0.533,0.129,1.004,0.258,1.408,0.386c0.405,0.129,0.744,0.274,1.016,0.444c0.272,0.172,0.479,0.377,0.617,0.623
		c0.139,0.244,0.207,0.541,0.207,0.894c0,0.766-0.293,1.37-0.879,1.817C64.133,103.34,63.344,103.564,62.352,103.564z"/>
	<path fill="#542437" d="M70.145,103.564c-0.649,0-1.285-0.107-1.902-0.318c-0.62-0.213-1.153-0.523-1.602-0.926l0.496-0.734
		c0.469,0.383,0.945,0.67,1.432,0.861c0.486,0.193,1.007,0.287,1.562,0.287c0.672,0,1.208-0.135,1.606-0.406
		c0.4-0.27,0.602-0.656,0.602-1.156c0-0.232-0.054-0.428-0.16-0.582c-0.105-0.154-0.264-0.289-0.472-0.406s-0.47-0.221-0.784-0.313
		c-0.314-0.088-0.68-0.182-1.096-0.277c-0.48-0.117-0.896-0.234-1.248-0.35c-0.354-0.117-0.645-0.252-0.873-0.4
		s-0.4-0.332-0.514-0.551c-0.11-0.217-0.168-0.49-0.168-0.82c0-0.416,0.084-0.781,0.248-1.1c0.166-0.32,0.391-0.582,0.672-0.789
		c0.285-0.209,0.615-0.363,0.994-0.471c0.379-0.108,0.78-0.16,1.207-0.16c0.642,0,1.223,0.104,1.744,0.313
		c0.522,0.205,0.944,0.48,1.264,0.82l-0.526,0.637c-0.31-0.318-0.687-0.557-1.128-0.717c-0.443-0.158-0.904-0.238-1.385-0.238
		c-0.287,0-0.555,0.029-0.801,0.088c-0.244,0.058-0.461,0.15-0.646,0.277c-0.188,0.129-0.334,0.291-0.439,0.486
		c-0.106,0.197-0.162,0.428-0.162,0.693c0,0.225,0.037,0.403,0.113,0.543c0.074,0.139,0.197,0.258,0.368,0.356
		c0.17,0.103,0.388,0.192,0.647,0.272c0.262,0.078,0.578,0.162,0.951,0.244c0.533,0.129,1.004,0.258,1.408,0.386
		c0.405,0.129,0.744,0.274,1.016,0.444c0.272,0.172,0.479,0.377,0.617,0.623c0.139,0.244,0.207,0.541,0.207,0.894
		c0,0.766-0.293,1.37-0.879,1.817C71.926,103.34,71.137,103.564,70.145,103.564z"/>
	<path fill="#542437" d="M78.689,99.227c0-0.584,0.102-1.137,0.304-1.658c0.204-0.521,0.489-0.977,0.856-1.362
		c0.368-0.386,0.809-0.692,1.319-0.918c0.513-0.224,1.078-0.334,1.696-0.334c0.789,0,1.478,0.18,2.064,0.532
		c0.586,0.357,1.029,0.841,1.328,1.445l-1.057,0.334c-0.234-0.426-0.561-0.758-0.977-0.996c-0.416-0.24-0.881-0.358-1.394-0.358
		c-0.427,0-0.823,0.084-1.19,0.256c-0.369,0.17-0.688,0.399-0.961,0.692c-0.271,0.291-0.484,0.642-0.641,1.045
		c-0.154,0.402-0.23,0.845-0.23,1.322c0,0.469,0.08,0.908,0.239,1.322c0.159,0.416,0.378,0.775,0.655,1.076
		c0.277,0.305,0.602,0.543,0.969,0.719s0.76,0.264,1.176,0.264c0.268,0,0.53-0.037,0.793-0.11c0.26-0.074,0.504-0.181,0.728-0.313
		c0.226-0.131,0.417-0.283,0.577-0.453s0.271-0.352,0.336-0.543l1.057,0.32c-0.117,0.297-0.288,0.572-0.513,0.82
		c-0.224,0.25-0.487,0.467-0.792,0.654c-0.305,0.186-0.641,0.328-1.01,0.43c-0.367,0.102-0.748,0.152-1.144,0.152
		c-0.608,0-1.168-0.115-1.681-0.342c-0.512-0.23-0.954-0.543-1.328-0.943c-0.373-0.398-0.664-0.857-0.873-1.377
		C78.793,100.381,78.689,99.822,78.689,99.227z"/>
	<path fill="#542437" d="M90.244,103.564c-0.428,0-0.817-0.068-1.169-0.201c-0.353-0.131-0.653-0.314-0.904-0.549
		c-0.25-0.232-0.444-0.506-0.584-0.813c-0.139-0.31-0.208-0.633-0.208-0.976c0-0.381,0.086-0.729,0.256-1.043
		c0.172-0.313,0.411-0.582,0.721-0.805c0.31-0.225,0.681-0.398,1.111-0.518c0.434-0.123,0.91-0.186,1.434-0.186
		c0.416,0,0.843,0.039,1.279,0.112c0.438,0.074,0.827,0.181,1.17,0.317v-0.75c0-0.731-0.211-1.313-0.634-1.743
		c-0.421-0.435-0.989-0.646-1.704-0.646c-0.447,0-0.893,0.086-1.337,0.254c-0.442,0.17-0.894,0.414-1.352,0.733l-0.384-0.719
		c0.543-0.361,1.07-0.634,1.584-0.813c0.513-0.182,1.045-0.271,1.601-0.271c1.015,0,1.817,0.293,2.416,0.879
		c0.599,0.584,0.896,1.391,0.896,2.422v3.748c0,0.297,0.129,0.444,0.385,0.444v0.957c-0.086,0.011-0.166,0.019-0.24,0.023
		c-0.074,0.006-0.139,0.008-0.191,0.008c-0.214,0-0.408-0.063-0.584-0.188c-0.177-0.13-0.275-0.32-0.297-0.574l-0.031-0.653
		c-0.362,0.487-0.84,0.868-1.433,1.141C91.452,103.428,90.854,103.564,90.244,103.564z M90.518,102.734
		c0.479,0,0.957-0.104,1.432-0.312c0.475-0.209,0.851-0.491,1.128-0.854c0.073-0.094,0.139-0.198,0.192-0.311
		c0.053-0.111,0.08-0.217,0.08-0.311v-1.355c-0.363-0.139-0.742-0.246-1.138-0.318c-0.396-0.073-0.778-0.11-1.151-0.11
		c-0.778,0-1.412,0.153-1.896,0.469c-0.484,0.313-0.729,0.748-0.729,1.302c0,0.223,0.043,0.44,0.129,0.651
		c0.084,0.213,0.215,0.404,0.392,0.574c0.176,0.17,0.394,0.309,0.647,0.416C89.859,102.682,90.164,102.734,90.518,102.734z"/>
	<path fill="#542437" d="M100.966,96.053c-0.737,0.021-1.377,0.225-1.921,0.607c-0.544,0.381-0.928,0.908-1.152,1.578v5.166h-1.088
		v-8.307h1.024v1.991c0.288-0.586,0.666-1.069,1.136-1.459c0.469-0.387,0.977-0.582,1.52-0.582c0.098,0,0.188,0,0.272,0
		s0.154,0.007,0.209,0.017V96.053z"/>
	<path fill="#542437" d="M105.51,103.564c-0.576,0-1.109-0.121-1.6-0.359c-0.491-0.24-0.915-0.555-1.271-0.949
		c-0.357-0.393-0.636-0.848-0.832-1.361c-0.197-0.516-0.297-1.055-0.297-1.619c0-0.584,0.096-1.141,0.288-1.668
		c0.191-0.524,0.456-0.985,0.792-1.379c0.336-0.393,0.736-0.703,1.2-0.934c0.464-0.227,0.974-0.342,1.526-0.342
		c0.705,0,1.33,0.184,1.873,0.551c0.545,0.365,0.978,0.811,1.297,1.332v-5.07h1.089v10.236c0,0.297,0.128,0.445,0.384,0.445v0.957
		c-0.182,0.031-0.326,0.047-0.434,0.047c-0.267,0-0.484-0.076-0.654-0.229c-0.171-0.156-0.258-0.341-0.258-0.552v-0.879
		c-0.34,0.543-0.791,0.974-1.352,1.293C106.703,103.404,106.118,103.564,105.51,103.564z M105.732,102.607
		c0.277,0,0.568-0.053,0.873-0.16c0.306-0.105,0.588-0.252,0.85-0.438c0.261-0.188,0.486-0.405,0.68-0.653
		c0.192-0.25,0.311-0.519,0.352-0.808v-2.565c-0.105-0.287-0.264-0.556-0.471-0.806c-0.209-0.247-0.442-0.471-0.705-0.661
		c-0.262-0.189-0.539-0.341-0.832-0.447c-0.293-0.105-0.584-0.158-0.873-0.158c-0.446,0-0.854,0.096-1.224,0.287
		c-0.368,0.191-0.68,0.443-0.937,0.758c-0.256,0.313-0.457,0.672-0.6,1.076c-0.145,0.404-0.217,0.818-0.217,1.244
		c0,0.445,0.08,0.871,0.24,1.272c0.158,0.406,0.378,0.761,0.654,1.062c0.277,0.305,0.605,0.545,0.984,0.727
		S105.296,102.607,105.732,102.607z"/>
</g>
<g>
	<path fill="#542437" d="M100.5,59.609c0,2.075-1.395,3.754-3.113,3.754H22.616c-1.721,0-3.115-1.682-3.115-3.754V20.18
		c0-2.074,1.395-3.755,3.115-3.755h74.771c1.719,0,3.113,1.681,3.113,3.755V59.609z"/>
	<g>
		<rect x="56.86" y="19.711" fill="#ECD078" width="40.111" height="4.381"/>
		<rect x="56.86" y="26.909" fill="#ECD078" width="40.111" height="4.38"/>
		<rect x="56.86" y="34.105" fill="#ECD078" width="40.111" height="4.381"/>
		<rect x="56.86" y="41.303" fill="#ECD078" width="40.111" height="4.38"/>
		<rect x="22.98" y="48.5" fill="#ECD078" width="73.991" height="4.381"/>
		<rect x="22.98" y="55.697" fill="#ECD078" width="73.991" height="4.38"/>
		<g>
			<ellipse fill="#ECD078" cx="26.733" cy="24.386" rx="3.136" ry="3.781"/>
			<path fill="#ECD078" d="M54.135,45.683v-9.485c-1.864-1.487-4.302-2.39-6.969-2.39c-5.314,0-9.715,3.569-10.491,8.228
				c-1.352-1.569-3.422-2.575-5.745-2.575c-3.832,0-6.98,2.731-7.333,6.222H54.135z"/>
		</g>
	</g>
</g>
<g>
	<path fill="#ECD078" d="M-40.167,53.523c0,2.074-1.395,3.754-3.113,3.754h-74.771c-1.721,0-3.115-1.682-3.115-3.754V14.094
		c0-2.074,1.395-3.755,3.115-3.755h74.771c1.719,0,3.113,1.681,3.113,3.755V53.523z"/>
	<g>
		<rect x="-83.807" y="13.625" fill="#542437" width="40.111" height="4.381"/>
		<rect x="-83.807" y="20.823" fill="#542437" width="40.111" height="4.38"/>
		<rect x="-83.807" y="28.019" fill="#542437" width="40.111" height="4.381"/>
		<rect x="-83.807" y="35.217" fill="#542437" width="40.111" height="4.381"/>
		<rect x="-117.687" y="42.414" fill="#542437" width="73.991" height="4.381"/>
		<rect x="-117.687" y="49.611" fill="#542437" width="73.991" height="4.38"/>
		<g>
			<ellipse fill="#542437" cx="-113.934" cy="18.3" rx="3.136" ry="3.781"/>
			<path fill="#542437" d="M-86.532,39.598v-9.485c-1.864-1.487-4.302-2.39-6.969-2.39c-5.314,0-9.715,3.569-10.491,8.228
				c-1.352-1.569-3.422-2.575-5.745-2.575c-3.832,0-6.98,2.73-7.333,6.223H-86.532z"/>
		</g>
	</g>
</g>
</svg>
