<?xml version="1.0" encoding="utf-8"?>
<!-- Generator: Adobe Illustrator 16.0.0, SVG Export Plug-In . SVG Version: 6.00 Build 0)  -->
<!DOCTYPE svg PUBLIC "-//W3C//DTD SVG 1.1//EN" "http://www.w3.org/Graphics/SVG/1.1/DTD/svg11.dtd">
<svg version="1.1" id="Layer_1" xmlns="http://www.w3.org/2000/svg" xmlns:xlink="http://www.w3.org/1999/xlink" x="0px" y="0px"
	 width="120px" height="121px" viewBox="0 0 120 121" enable-background="new 0 0 120 121" xml:space="preserve">
<path fill="#542437" d="M120,115.409c0,3.089-2.15,5.591-4.806,5.591H4.806C2.153,121,0,118.498,0,115.409V5.591
	C0,2.504,2.153,0,4.806,0h110.389C117.85,0,120,2.504,120,5.591V115.409z"/>
<g>
	<path fill="#ECD078" d="M21.595,75.066c-0.32-0.36-0.75-0.652-1.289-0.876c-0.539-0.224-1.145-0.335-1.816-0.335
		c-1.014,0-1.75,0.189-2.208,0.566c-0.459,0.378-0.688,0.89-0.688,1.538c0,0.341,0.061,0.619,0.184,0.837s0.314,0.406,0.576,0.566
		c0.261,0.159,0.592,0.298,0.992,0.414c0.4,0.117,0.873,0.234,1.417,0.351c0.607,0.129,1.151,0.269,1.632,0.423
		c0.48,0.155,0.891,0.353,1.232,0.592c0.342,0.237,0.603,0.531,0.784,0.876c0.182,0.346,0.272,0.772,0.272,1.284
		c0,0.52-0.102,0.972-0.304,1.354c-0.203,0.382-0.486,0.701-0.849,0.956s-0.795,0.443-1.296,0.566
		c-0.501,0.123-1.046,0.183-1.632,0.183c-1.782,0-3.302-0.547-4.562-1.641l0.544-0.909c0.417,0.437,0.977,0.804,1.681,1.107
		s1.489,0.454,2.352,0.454c0.907,0,1.616-0.162,2.128-0.484c0.513-0.325,0.769-0.816,0.769-1.476c0-0.351-0.072-0.646-0.216-0.886
		c-0.145-0.239-0.36-0.446-0.648-0.621c-0.289-0.175-0.649-0.327-1.081-0.455c-0.432-0.127-0.931-0.256-1.496-0.382
		c-0.598-0.139-1.121-0.282-1.568-0.433c-0.448-0.147-0.824-0.334-1.128-0.557c-0.305-0.224-0.535-0.492-0.689-0.806
		s-0.232-0.698-0.232-1.156c0-0.52,0.099-0.984,0.297-1.396c0.197-0.408,0.474-0.749,0.832-1.02s0.784-0.479,1.28-0.621
		c0.496-0.145,1.043-0.216,1.641-0.216c0.746,0,1.416,0.114,2.008,0.342c0.592,0.23,1.128,0.552,1.607,0.966L21.595,75.066z"/>
	<path fill="#ECD078" d="M28.092,84.427c-0.608,0-1.168-0.114-1.681-0.343c-0.512-0.228-0.955-0.541-1.329-0.939
		c-0.373-0.399-0.664-0.858-0.872-1.381c-0.208-0.52-0.312-1.078-0.312-1.674c0-0.584,0.104-1.135,0.312-1.65
		s0.499-0.967,0.872-1.354c0.374-0.39,0.813-0.697,1.321-0.925c0.507-0.229,1.064-0.345,1.672-0.345
		c0.609,0,1.166,0.115,1.672,0.345c0.507,0.228,0.941,0.539,1.305,0.933c0.363,0.393,0.645,0.845,0.848,1.354
		c0.202,0.51,0.304,1.053,0.304,1.627c0,0.086-0.003,0.17-0.008,0.256c-0.006,0.085-0.014,0.144-0.023,0.175h-7.122
		c0.031,0.445,0.136,0.858,0.312,1.236c0.176,0.377,0.4,0.704,0.672,0.98c0.272,0.276,0.587,0.49,0.944,0.645
		c0.357,0.155,0.738,0.231,1.144,0.231c0.277,0,0.55-0.037,0.817-0.111c0.267-0.073,0.512-0.175,0.736-0.303
		c0.224-0.127,0.424-0.284,0.6-0.47c0.176-0.187,0.312-0.391,0.408-0.615l0.944,0.255c-0.128,0.31-0.309,0.588-0.544,0.837
		c-0.234,0.252-0.507,0.47-0.815,0.654c-0.31,0.188-0.651,0.331-1.024,0.431C28.871,84.376,28.486,84.427,28.092,84.427z
		 M31.164,79.676c-0.031-0.446-0.136-0.853-0.312-1.221c-0.176-0.366-0.4-0.684-0.672-0.948c-0.272-0.267-0.59-0.473-0.952-0.622
		c-0.363-0.148-0.748-0.223-1.153-0.223s-0.789,0.074-1.151,0.223c-0.363,0.149-0.681,0.355-0.952,0.622
		c-0.273,0.265-0.492,0.584-0.657,0.956c-0.166,0.374-0.264,0.776-0.296,1.213H31.164z"/>
	<path fill="#ECD078" d="M40.845,84.268h-1.088v-4.641c0-0.989-0.144-1.705-0.432-2.152c-0.288-0.446-0.736-0.67-1.345-0.67
		c-0.319,0-0.64,0.059-0.96,0.177c-0.32,0.117-0.619,0.28-0.896,0.493c-0.277,0.214-0.521,0.465-0.729,0.759
		c-0.208,0.292-0.365,0.607-0.472,0.948v5.086h-1.088V75.96h0.993v1.882c0.17-0.298,0.381-0.572,0.632-0.821s0.53-0.465,0.84-0.646
		c0.31-0.181,0.638-0.319,0.985-0.414c0.347-0.096,0.706-0.145,1.08-0.145c0.469,0,0.861,0.086,1.176,0.257
		c0.315,0.17,0.569,0.409,0.76,0.717c0.192,0.31,0.331,0.686,0.416,1.133c0.085,0.445,0.128,0.94,0.128,1.483V84.268z"/>
	<path fill="#ECD078" d="M46.558,84.427c-0.576,0-1.109-0.118-1.6-0.358c-0.491-0.239-0.915-0.555-1.272-0.949
		c-0.357-0.394-0.635-0.847-0.832-1.362c-0.197-0.517-0.296-1.056-0.296-1.618c0-0.586,0.096-1.141,0.288-1.668
		c0.191-0.525,0.456-0.985,0.792-1.378c0.336-0.394,0.736-0.705,1.2-0.933c0.464-0.229,0.973-0.345,1.528-0.345
		c0.704,0,1.328,0.186,1.873,0.551c0.544,0.368,0.977,0.813,1.296,1.332v-5.07h1.089v10.236c0,0.298,0.128,0.447,0.384,0.447v0.956
		c-0.182,0.033-0.326,0.049-0.433,0.049c-0.267,0-0.486-0.078-0.656-0.232c-0.171-0.153-0.257-0.336-0.257-0.551v-0.876
		c-0.341,0.541-0.792,0.974-1.352,1.291C47.751,84.268,47.167,84.427,46.558,84.427z M46.782,83.472c0.277,0,0.568-0.055,0.872-0.16
		c0.305-0.107,0.587-0.253,0.849-0.439c0.261-0.186,0.487-0.403,0.68-0.652c0.192-0.251,0.31-0.52,0.352-0.806v-2.567
		c-0.106-0.286-0.264-0.555-0.472-0.806c-0.208-0.25-0.442-0.47-0.704-0.662c-0.262-0.19-0.539-0.339-0.833-0.446
		c-0.293-0.106-0.584-0.159-0.872-0.159c-0.447,0-0.855,0.096-1.224,0.286c-0.368,0.192-0.68,0.445-0.937,0.759
		c-0.256,0.313-0.456,0.672-0.6,1.077c-0.144,0.402-0.216,0.817-0.216,1.243c0,0.446,0.08,0.87,0.24,1.275
		c0.159,0.402,0.378,0.757,0.655,1.061c0.277,0.302,0.606,0.545,0.985,0.724C45.937,83.38,46.344,83.472,46.782,83.472z"/>
	<path fill="#ECD078" d="M61.441,84.427c-0.704,0-1.328-0.177-1.872-0.533s-0.982-0.806-1.313-1.347v5.117h-1.088V75.96h0.976v1.611
		c0.342-0.521,0.785-0.944,1.329-1.269c0.544-0.323,1.137-0.487,1.776-0.487c0.576,0,1.106,0.121,1.593,0.36
		c0.485,0.239,0.904,0.559,1.256,0.956c0.353,0.398,0.627,0.858,0.824,1.38s0.296,1.057,0.296,1.609
		c0,0.586-0.091,1.139-0.271,1.658c-0.182,0.522-0.44,0.979-0.776,1.373c-0.336,0.393-0.736,0.704-1.2,0.932
		C62.505,84.313,61.995,84.427,61.441,84.427z M61.137,83.472c0.448,0,0.854-0.098,1.216-0.288c0.363-0.191,0.676-0.444,0.938-0.758
		c0.261-0.313,0.461-0.669,0.6-1.068s0.208-0.81,0.208-1.236c0-0.445-0.08-0.87-0.239-1.274c-0.16-0.405-0.379-0.76-0.656-1.069
		c-0.277-0.307-0.606-0.553-0.985-0.733s-0.786-0.271-1.224-0.271c-0.277,0-0.565,0.057-0.864,0.167
		c-0.299,0.111-0.581,0.261-0.848,0.446c-0.267,0.187-0.494,0.404-0.681,0.654c-0.187,0.251-0.301,0.514-0.344,0.79v2.55
		c0.128,0.298,0.291,0.574,0.489,0.829c0.197,0.257,0.421,0.477,0.672,0.662c0.25,0.187,0.522,0.332,0.816,0.439
		C60.526,83.417,60.827,83.472,61.137,83.472z"/>
	<path fill="#ECD078" d="M71.171,76.917c-0.736,0.021-1.376,0.223-1.92,0.605c-0.544,0.384-0.928,0.909-1.153,1.579v5.166H67.01
		V75.96h1.024v1.993c0.289-0.584,0.667-1.07,1.137-1.458c0.469-0.39,0.976-0.582,1.52-0.582c0.097,0,0.187,0,0.272,0
		c0.085,0,0.154,0.004,0.208,0.016V76.917z"/>
	<path fill="#ECD078" d="M72.626,74.222v-1.594h1.089v1.594H72.626z M72.626,84.268V75.96h1.089v8.308H72.626z"/>
	<path fill="#ECD078" d="M78.547,84.268l-3.392-8.308h1.136l2.865,7.303l2.88-7.303h1.056L79.7,84.268H78.547z"/>
	<path fill="#ECD078" d="M86.533,84.427c-0.427,0-0.816-0.066-1.168-0.198c-0.352-0.133-0.653-0.317-0.905-0.551
		c-0.25-0.233-0.445-0.504-0.584-0.813c-0.139-0.308-0.208-0.633-0.208-0.972c0-0.384,0.086-0.731,0.256-1.045
		c0.171-0.313,0.411-0.582,0.722-0.806c0.309-0.223,0.68-0.396,1.111-0.519c0.433-0.122,0.909-0.183,1.433-0.183
		c0.416,0,0.842,0.037,1.279,0.111c0.438,0.075,0.827,0.181,1.169,0.318v-0.749c0-0.733-0.211-1.315-0.633-1.746
		c-0.421-0.43-0.989-0.646-1.704-0.646c-0.447,0-0.893,0.086-1.336,0.256c-0.442,0.171-0.894,0.414-1.352,0.733l-0.385-0.716
		c0.545-0.362,1.072-0.633,1.585-0.814c0.512-0.181,1.045-0.272,1.6-0.272c1.014,0,1.818,0.294,2.416,0.878
		c0.599,0.584,0.897,1.394,0.897,2.424v3.747c0,0.298,0.128,0.447,0.384,0.447v0.956c-0.086,0.012-0.166,0.02-0.24,0.025
		c-0.074,0.004-0.139,0.008-0.192,0.008c-0.213,0-0.407-0.064-0.584-0.193c-0.177-0.126-0.275-0.319-0.297-0.574l-0.031-0.651
		c-0.363,0.488-0.841,0.868-1.433,1.139C87.741,84.293,87.142,84.427,86.533,84.427z M86.806,83.598
		c0.479,0,0.957-0.104,1.432-0.312c0.475-0.206,0.851-0.49,1.128-0.853c0.074-0.096,0.139-0.198,0.192-0.312
		c0.053-0.11,0.08-0.214,0.08-0.31v-1.356c-0.363-0.138-0.742-0.243-1.137-0.317c-0.395-0.076-0.778-0.112-1.151-0.112
		c-0.779,0-1.411,0.157-1.896,0.471s-0.728,0.747-0.728,1.298c0,0.225,0.042,0.442,0.128,0.654c0.085,0.214,0.216,0.405,0.392,0.574
		c0.176,0.171,0.393,0.31,0.648,0.415C86.149,83.545,86.453,83.598,86.806,83.598z"/>
	<path fill="#ECD078" d="M97.016,83.868c-0.064,0.033-0.157,0.076-0.28,0.129c-0.123,0.052-0.264,0.106-0.424,0.159
		s-0.342,0.102-0.544,0.145c-0.203,0.04-0.417,0.062-0.642,0.062c-0.234,0-0.458-0.031-0.672-0.095
		c-0.213-0.064-0.399-0.162-0.56-0.294c-0.16-0.135-0.288-0.302-0.384-0.502c-0.097-0.203-0.145-0.437-0.145-0.703v-5.946h-1.151
		V75.96h1.151v-2.807h1.088v2.807h1.921v0.862h-1.921v5.645c0.021,0.308,0.128,0.533,0.32,0.678
		c0.192,0.142,0.421,0.214,0.688,0.214c0.31,0,0.582-0.051,0.816-0.152c0.234-0.099,0.384-0.171,0.448-0.214L97.016,83.868z"/>
	<path fill="#ECD078" d="M101.944,84.427c-0.608,0-1.169-0.114-1.682-0.343c-0.512-0.228-0.954-0.541-1.328-0.939
		c-0.373-0.399-0.664-0.858-0.872-1.381c-0.208-0.52-0.312-1.078-0.312-1.674c0-0.584,0.104-1.135,0.312-1.65
		s0.499-0.967,0.872-1.354c0.374-0.39,0.813-0.697,1.32-0.925c0.507-0.229,1.065-0.345,1.673-0.345c0.608,0,1.165,0.115,1.672,0.345
		c0.507,0.228,0.941,0.539,1.305,0.933c0.362,0.393,0.645,0.845,0.848,1.354c0.202,0.51,0.304,1.053,0.304,1.627
		c0,0.086-0.003,0.17-0.008,0.256c-0.006,0.085-0.014,0.144-0.023,0.175h-7.121c0.031,0.445,0.136,0.858,0.312,1.236
		c0.176,0.377,0.4,0.704,0.672,0.98c0.272,0.276,0.587,0.49,0.944,0.645c0.358,0.155,0.739,0.231,1.145,0.231
		c0.277,0,0.55-0.037,0.816-0.111c0.267-0.073,0.512-0.175,0.736-0.303c0.224-0.127,0.424-0.284,0.6-0.47
		c0.176-0.187,0.312-0.391,0.408-0.615l0.943,0.255c-0.128,0.31-0.309,0.588-0.544,0.837c-0.234,0.252-0.507,0.47-0.815,0.654
		c-0.31,0.188-0.651,0.331-1.024,0.431C102.723,84.376,102.339,84.427,101.944,84.427z M105.016,79.676
		c-0.031-0.446-0.136-0.853-0.312-1.221c-0.176-0.366-0.4-0.684-0.672-0.948c-0.272-0.267-0.59-0.473-0.952-0.622
		c-0.363-0.148-0.747-0.223-1.152-0.223s-0.789,0.074-1.152,0.223c-0.363,0.149-0.681,0.355-0.952,0.622
		c-0.272,0.265-0.491,0.584-0.656,0.956c-0.166,0.374-0.264,0.776-0.296,1.213H105.016z"/>
	<path fill="#ECD078" d="M39.743,103.403h-1.088v-4.641c0-0.968-0.152-1.68-0.456-2.138c-0.305-0.457-0.766-0.685-1.385-0.685
		c-0.319,0-0.621,0.059-0.903,0.175c-0.283,0.117-0.544,0.282-0.784,0.494c-0.24,0.213-0.451,0.466-0.632,0.758
		c-0.182,0.292-0.32,0.613-0.417,0.965v5.071h-1.088v-4.641c0-0.989-0.15-1.707-0.448-2.153c-0.299-0.445-0.758-0.669-1.376-0.669
		c-0.63,0-1.189,0.218-1.681,0.654c-0.49,0.436-0.842,1.01-1.056,1.722v5.087H27.34v-8.308h0.992v1.88
		c0.341-0.637,0.79-1.135,1.344-1.491c0.555-0.354,1.168-0.533,1.84-0.533c0.704,0,1.27,0.197,1.696,0.59
		c0.427,0.394,0.683,0.909,0.768,1.548c0.78-1.425,1.857-2.138,3.233-2.138c0.458,0,0.851,0.086,1.176,0.255
		c0.325,0.17,0.587,0.413,0.784,0.727s0.341,0.69,0.432,1.131c0.091,0.441,0.137,0.935,0.137,1.476V103.403z"/>
	<path fill="#ECD078" d="M45.647,103.563c-0.608,0-1.168-0.114-1.681-0.343c-0.512-0.229-0.954-0.543-1.328-0.941
		c-0.374-0.399-0.665-0.858-0.873-1.379c-0.208-0.521-0.312-1.08-0.312-1.676c0-0.584,0.104-1.133,0.312-1.648
		s0.499-0.968,0.873-1.356c0.374-0.388,0.813-0.695,1.32-0.925c0.507-0.228,1.065-0.343,1.672-0.343
		c0.608,0,1.165,0.115,1.672,0.343c0.507,0.229,0.942,0.539,1.305,0.933c0.362,0.393,0.645,0.847,0.848,1.356
		c0.202,0.51,0.304,1.051,0.304,1.625c0,0.086-0.003,0.172-0.008,0.255c-0.006,0.086-0.014,0.145-0.023,0.176h-7.121
		c0.031,0.447,0.136,0.86,0.312,1.236c0.176,0.377,0.4,0.704,0.672,0.98c0.272,0.276,0.587,0.492,0.944,0.646
		c0.357,0.153,0.739,0.231,1.144,0.231c0.277,0,0.55-0.037,0.816-0.113c0.267-0.073,0.512-0.175,0.736-0.302
		c0.224-0.128,0.424-0.284,0.6-0.471c0.176-0.185,0.312-0.392,0.408-0.613l0.943,0.255c-0.128,0.308-0.309,0.588-0.544,0.837
		c-0.234,0.25-0.507,0.468-0.815,0.654c-0.31,0.185-0.652,0.329-1.025,0.431C46.425,103.512,46.042,103.563,45.647,103.563z
		 M48.719,98.81c-0.031-0.446-0.136-0.853-0.312-1.219c-0.176-0.368-0.4-0.684-0.672-0.95c-0.273-0.265-0.59-0.473-0.953-0.62
		c-0.363-0.15-0.747-0.225-1.152-0.225s-0.79,0.074-1.152,0.225c-0.363,0.147-0.681,0.355-0.952,0.62
		c-0.272,0.267-0.491,0.586-0.656,0.958c-0.166,0.372-0.264,0.776-0.296,1.211H48.719z"/>
	<path fill="#ECD078" d="M54.192,103.563c-0.65,0-1.286-0.107-1.904-0.319c-0.619-0.212-1.152-0.521-1.601-0.925l0.496-0.733
		c0.47,0.382,0.946,0.67,1.432,0.86c0.485,0.192,1.006,0.288,1.561,0.288c0.672,0,1.208-0.137,1.607-0.407
		c0.401-0.271,0.601-0.655,0.601-1.156c0-0.233-0.054-0.428-0.16-0.581c-0.106-0.154-0.264-0.29-0.472-0.407
		c-0.208-0.117-0.47-0.22-0.784-0.312c-0.314-0.09-0.68-0.183-1.096-0.278c-0.48-0.117-0.897-0.233-1.249-0.351
		c-0.353-0.116-0.644-0.251-0.872-0.398c-0.229-0.15-0.4-0.333-0.513-0.551c-0.111-0.219-0.168-0.491-0.168-0.822
		c0-0.414,0.083-0.78,0.248-1.1c0.166-0.319,0.39-0.582,0.672-0.788c0.283-0.208,0.613-0.364,0.992-0.471
		c0.379-0.107,0.782-0.16,1.208-0.16c0.641,0,1.222,0.104,1.745,0.312c0.522,0.206,0.944,0.48,1.264,0.821l-0.527,0.637
		c-0.31-0.319-0.686-0.557-1.128-0.716c-0.443-0.16-0.904-0.24-1.385-0.24c-0.287,0-0.555,0.029-0.8,0.088
		c-0.246,0.059-0.461,0.152-0.648,0.278c-0.188,0.129-0.334,0.29-0.44,0.486c-0.106,0.197-0.16,0.429-0.16,0.693
		c0,0.224,0.037,0.405,0.112,0.543c0.074,0.139,0.197,0.257,0.368,0.358c0.17,0.102,0.387,0.192,0.648,0.272
		c0.262,0.078,0.579,0.161,0.952,0.245c0.533,0.129,1.003,0.257,1.408,0.384c0.406,0.128,0.745,0.276,1.016,0.445
		c0.272,0.172,0.478,0.378,0.616,0.623s0.208,0.541,0.208,0.894c0,0.765-0.293,1.37-0.88,1.817
		C55.974,103.339,55.185,103.563,54.192,103.563z"/>
	<path fill="#ECD078" d="M61.985,103.563c-0.65,0-1.285-0.107-1.903-0.319c-0.619-0.212-1.152-0.521-1.601-0.925l0.497-0.733
		c0.47,0.382,0.946,0.67,1.432,0.86c0.485,0.192,1.006,0.288,1.561,0.288c0.672,0,1.209-0.137,1.608-0.407
		c0.4-0.271,0.601-0.655,0.601-1.156c0-0.233-0.054-0.428-0.16-0.581c-0.106-0.154-0.264-0.29-0.472-0.407s-0.47-0.22-0.784-0.312
		c-0.315-0.09-0.681-0.183-1.097-0.278c-0.48-0.117-0.896-0.233-1.248-0.351c-0.353-0.116-0.644-0.251-0.872-0.398
		c-0.229-0.15-0.4-0.333-0.513-0.551c-0.111-0.219-0.168-0.491-0.168-0.822c0-0.414,0.083-0.78,0.248-1.1
		c0.166-0.319,0.39-0.582,0.672-0.788c0.283-0.208,0.613-0.364,0.992-0.471c0.379-0.107,0.781-0.16,1.208-0.16
		c0.641,0,1.223,0.104,1.745,0.312c0.522,0.206,0.944,0.48,1.264,0.821l-0.527,0.637c-0.31-0.319-0.686-0.557-1.128-0.716
		c-0.443-0.16-0.905-0.24-1.386-0.24c-0.287,0-0.555,0.029-0.8,0.088s-0.461,0.152-0.647,0.278c-0.188,0.129-0.334,0.29-0.44,0.486
		c-0.106,0.197-0.16,0.429-0.16,0.693c0,0.224,0.037,0.405,0.112,0.543c0.074,0.139,0.197,0.257,0.368,0.358
		c0.17,0.102,0.387,0.192,0.647,0.272c0.262,0.078,0.579,0.161,0.952,0.245c0.533,0.129,1.004,0.257,1.409,0.384
		c0.405,0.128,0.744,0.276,1.016,0.445c0.272,0.172,0.478,0.378,0.616,0.623s0.208,0.541,0.208,0.894c0,0.765-0.293,1.37-0.88,1.817
		C63.768,103.339,62.979,103.563,61.985,103.563z"/>
	<path fill="#ECD078" d="M69.188,103.563c-0.427,0-0.816-0.068-1.169-0.2c-0.352-0.133-0.653-0.315-0.904-0.549
		c-0.25-0.233-0.445-0.506-0.584-0.813s-0.208-0.633-0.208-0.974c0-0.382,0.086-0.729,0.256-1.043
		c0.171-0.313,0.411-0.582,0.721-0.807c0.309-0.224,0.68-0.396,1.112-0.518c0.433-0.122,0.909-0.185,1.433-0.185
		c0.416,0,0.842,0.039,1.279,0.113c0.438,0.073,0.827,0.181,1.169,0.318v-0.749c0-0.733-0.211-1.315-0.633-1.746
		c-0.421-0.432-0.989-0.646-1.704-0.646c-0.447,0-0.893,0.086-1.336,0.256c-0.443,0.169-0.895,0.414-1.353,0.733l-0.384-0.719
		c0.544-0.361,1.071-0.632,1.585-0.813c0.512-0.181,1.045-0.271,1.6-0.271c1.014,0,1.818,0.292,2.416,0.878
		c0.598,0.584,0.896,1.392,0.896,2.424V102c0,0.298,0.128,0.445,0.385,0.445v0.958c-0.086,0.01-0.167,0.018-0.241,0.023
		s-0.139,0.008-0.192,0.008c-0.213,0-0.407-0.064-0.584-0.191c-0.176-0.128-0.274-0.319-0.296-0.574l-0.031-0.653
		c-0.363,0.488-0.841,0.869-1.433,1.141C70.396,103.427,69.796,103.563,69.188,103.563z M69.46,102.733
		c0.479,0,0.957-0.105,1.432-0.312c0.475-0.208,0.851-0.492,1.128-0.853c0.074-0.096,0.139-0.2,0.192-0.312
		c0.053-0.11,0.08-0.216,0.08-0.312v-1.354c-0.363-0.138-0.742-0.245-1.137-0.319s-0.778-0.11-1.151-0.11
		c-0.779,0-1.411,0.155-1.897,0.469c-0.485,0.313-0.728,0.747-0.728,1.3c0,0.225,0.042,0.442,0.128,0.654
		c0.085,0.212,0.216,0.403,0.392,0.574c0.176,0.169,0.394,0.308,0.649,0.415C68.804,102.679,69.107,102.733,69.46,102.733z"/>
	<path fill="#ECD078" d="M79.125,103.514c-0.577,0-1.103-0.118-1.577-0.357c-0.475-0.24-0.886-0.558-1.231-0.95
		c-0.347-0.394-0.616-0.845-0.809-1.354c-0.191-0.511-0.288-1.036-0.288-1.579c0-0.574,0.094-1.125,0.28-1.65
		s0.45-0.985,0.792-1.378c0.342-0.394,0.749-0.709,1.224-0.942s1-0.351,1.576-0.351c0.716,0,1.335,0.18,1.857,0.533
		c0.522,0.356,0.971,0.807,1.344,1.35v-1.738h0.977v8.339c0,0.574-0.11,1.082-0.328,1.521c-0.219,0.442-0.513,0.812-0.88,1.109
		c-0.368,0.298-0.803,0.521-1.305,0.67c-0.501,0.147-1.029,0.224-1.584,0.224c-0.95,0-1.719-0.171-2.305-0.512
		c-0.587-0.339-1.062-0.796-1.424-1.37l0.672-0.525c0.33,0.531,0.768,0.92,1.312,1.172c0.544,0.249,1.126,0.373,1.745,0.373
		c0.405,0,0.792-0.055,1.16-0.167c0.368-0.111,0.688-0.276,0.96-0.494c0.272-0.219,0.488-0.495,0.648-0.83
		c0.159-0.334,0.239-0.724,0.239-1.171v-1.644c-0.33,0.533-0.771,0.952-1.319,1.262C80.312,103.36,79.733,103.514,79.125,103.514z
		 M79.429,102.604c0.32,0,0.635-0.058,0.944-0.175s0.589-0.274,0.84-0.471c0.251-0.197,0.461-0.417,0.632-0.662
		c0.171-0.243,0.283-0.494,0.336-0.749V97.98c-0.117-0.296-0.279-0.572-0.487-0.829c-0.208-0.256-0.44-0.472-0.696-0.652
		c-0.256-0.182-0.531-0.325-0.824-0.433c-0.293-0.104-0.589-0.157-0.888-0.157c-0.471,0-0.887,0.098-1.249,0.294
		c-0.363,0.196-0.672,0.455-0.928,0.772c-0.256,0.319-0.451,0.682-0.584,1.084c-0.134,0.405-0.2,0.814-0.2,1.229
		c0,0.448,0.08,0.872,0.24,1.277c0.159,0.402,0.378,0.757,0.655,1.059c0.277,0.304,0.605,0.543,0.984,0.718
		C78.583,102.518,78.99,102.604,79.429,102.604z"/>
	<path fill="#ECD078" d="M89.254,103.563c-0.608,0-1.168-0.114-1.681-0.343c-0.512-0.229-0.954-0.543-1.328-0.941
		c-0.373-0.399-0.664-0.858-0.872-1.379c-0.208-0.521-0.312-1.08-0.312-1.676c0-0.584,0.104-1.133,0.312-1.648
		s0.499-0.968,0.872-1.356c0.374-0.388,0.813-0.695,1.32-0.925c0.507-0.228,1.064-0.343,1.672-0.343
		c0.608,0,1.166,0.115,1.673,0.343c0.507,0.229,0.941,0.539,1.305,0.933c0.362,0.393,0.645,0.847,0.848,1.356
		c0.202,0.51,0.304,1.051,0.304,1.625c0,0.086-0.003,0.172-0.008,0.255c-0.006,0.086-0.014,0.145-0.023,0.176h-7.121
		c0.031,0.447,0.136,0.86,0.312,1.236c0.176,0.377,0.4,0.704,0.672,0.98c0.272,0.276,0.587,0.492,0.944,0.646
		c0.357,0.153,0.738,0.231,1.144,0.231c0.277,0,0.55-0.037,0.817-0.113c0.267-0.073,0.512-0.175,0.736-0.302
		c0.224-0.128,0.424-0.284,0.6-0.471c0.176-0.185,0.312-0.392,0.408-0.613l0.943,0.255c-0.128,0.308-0.309,0.588-0.544,0.837
		c-0.234,0.25-0.507,0.468-0.815,0.654c-0.31,0.185-0.651,0.329-1.024,0.431C90.033,103.512,89.648,103.563,89.254,103.563z
		 M92.326,98.81c-0.031-0.446-0.136-0.853-0.312-1.219c-0.176-0.368-0.4-0.684-0.672-0.95c-0.272-0.265-0.59-0.473-0.952-0.62
		c-0.363-0.15-0.748-0.225-1.153-0.225s-0.789,0.074-1.151,0.225c-0.363,0.147-0.681,0.355-0.952,0.62
		c-0.272,0.267-0.491,0.586-0.656,0.958c-0.166,0.372-0.264,0.776-0.296,1.211H92.326z"/>
</g>
<g>
	<g>
		<path fill="#ECD078" d="M73.466,43.973L62.101,55.412c-0.473,0.475-1.293,0.476-1.764-0.001L49.091,44.127l-22.51,16.366
			c0.258,0.131,0.545,0.211,0.857,0.211h67.123c0.316,0,0.609-0.083,0.873-0.22L73.466,43.973z"/>
		<path fill="#ECD078" d="M97.123,59.095c0.043-0.157,0.072-0.32,0.072-0.492V20.618L75.279,42.677L97.123,59.095z"/>
		<path fill="#ECD078" d="M47.272,43.026L24.805,20.481v38.316c0,0.177,0.031,0.345,0.076,0.507L47.272,43.026z"/>
	</g>
	<path fill="#ECD078" d="M61.905,52.649L95.98,18.35l-69.962-0.091l34.271,34.39C60.724,53.084,61.474,53.083,61.905,52.649z"/>
</g>
</svg>
