<?xml version="1.0" encoding="utf-8"?>
<!-- Generator: Adobe Illustrator 16.0.0, SVG Export Plug-In . SVG Version: 6.00 Build 0)  -->
<!DOCTYPE svg PUBLIC "-//W3C//DTD SVG 1.1//EN" "http://www.w3.org/Graphics/SVG/1.1/DTD/svg11.dtd">
<svg version="1.1" id="Layer_1" xmlns="http://www.w3.org/2000/svg" xmlns:xlink="http://www.w3.org/1999/xlink" x="0px" y="0px"
	 width="191.667px" height="131px" viewBox="-0.833 -48.5 191.667 131" enable-background="new -0.833 -48.5 191.667 131"
	 xml:space="preserve">
<g>
	<path fill="#ECD078" d="M19.723,54.396c-0.187-0.188-0.527-0.441-1.02-0.76c-0.494-0.32-1.094-0.635-1.8-0.941
		c-0.707-0.305-1.474-0.566-2.3-0.779s-1.667-0.32-2.52-0.32c-1.52,0-2.653,0.279-3.4,0.84s-1.12,1.348-1.12,2.361
		c0,0.586,0.14,1.072,0.42,1.459c0.28,0.387,0.686,0.727,1.22,1.02c0.533,0.295,1.207,0.561,2.02,0.801
		c0.813,0.24,1.753,0.494,2.82,0.76c1.386,0.373,2.646,0.773,3.78,1.199c1.133,0.428,2.093,0.961,2.88,1.602
		c0.786,0.639,1.393,1.406,1.82,2.299c0.426,0.895,0.64,1.994,0.64,3.301c0,1.52-0.287,2.82-0.86,3.9
		c-0.574,1.08-1.34,1.953-2.3,2.619s-2.08,1.154-3.36,1.461c-1.28,0.305-2.614,0.459-4,0.459c-2.134,0-4.24-0.32-6.32-0.959
		c-2.08-0.641-3.947-1.547-5.6-2.721l2.44-4.76c0.24,0.24,0.673,0.553,1.3,0.939c0.626,0.387,1.366,0.773,2.22,1.16
		c0.853,0.387,1.8,0.713,2.84,0.98c1.04,0.266,2.106,0.4,3.2,0.4c3.04,0,4.56-0.975,4.56-2.92c0-0.641-0.174-1.174-0.52-1.602
		c-0.347-0.426-0.84-0.799-1.48-1.119s-1.414-0.613-2.32-0.881c-0.907-0.266-1.92-0.545-3.04-0.84
		c-1.36-0.373-2.54-0.779-3.54-1.219c-1-0.441-1.834-0.953-2.5-1.541c-0.667-0.586-1.167-1.279-1.5-2.08
		c-0.334-0.799-0.5-1.746-0.5-2.84c0-1.439,0.266-2.721,0.8-3.84c0.533-1.119,1.273-2.053,2.22-2.801
		c0.946-0.746,2.046-1.313,3.3-1.699s2.6-0.58,4.04-0.58c2,0,3.84,0.314,5.52,0.939c1.68,0.627,3.146,1.367,4.4,2.221L19.723,54.396
		z"/>
	<path fill="#ECD078" d="M39.323,70.676c1.306,0,2.406-0.266,3.3-0.801c0.893-0.531,1.613-1.225,2.16-2.078
		c0.546-0.854,0.933-1.834,1.16-2.941c0.226-1.105,0.34-2.246,0.34-3.42v-14.48h5.48v14.48c0,1.947-0.233,3.773-0.7,5.48
		c-0.467,1.707-1.2,3.199-2.2,4.48c-1,1.279-2.287,2.293-3.86,3.039c-1.574,0.748-3.454,1.121-5.64,1.121
		c-2.267,0-4.194-0.395-5.78-1.182c-1.587-0.785-2.874-1.826-3.86-3.119c-0.987-1.293-1.7-2.793-2.14-4.5s-0.66-3.48-0.66-5.32
		v-14.48h5.52v14.48c0,1.201,0.113,2.354,0.34,3.461c0.227,1.105,0.613,2.086,1.16,2.939c0.546,0.854,1.26,1.539,2.14,2.061
		C36.963,70.416,38.043,70.676,39.323,70.676z"/>
	<path fill="#ECD078" d="M55.602,60.955c0-1.732,0.307-3.445,0.92-5.139c0.613-1.693,1.5-3.207,2.66-4.541
		c1.16-1.332,2.58-2.412,4.26-3.24c1.68-0.826,3.6-1.238,5.76-1.238c2.533,0,4.727,0.572,6.58,1.719
		c1.853,1.146,3.22,2.641,4.1,4.48l-4.24,2.92c-0.32-0.801-0.733-1.473-1.24-2.02c-0.507-0.547-1.06-0.98-1.66-1.301
		s-1.22-0.553-1.86-0.699s-1.254-0.221-1.84-0.221c-1.307,0-2.454,0.279-3.44,0.84c-0.987,0.561-1.807,1.287-2.46,2.18
		c-0.654,0.895-1.146,1.908-1.48,3.041s-0.5,2.26-0.5,3.379c0,1.254,0.193,2.461,0.58,3.621c0.386,1.16,0.933,2.18,1.64,3.061
		c0.706,0.879,1.553,1.586,2.54,2.119c0.986,0.533,2.066,0.801,3.24,0.801c0.613,0,1.24-0.08,1.88-0.24
		c0.64-0.16,1.26-0.414,1.86-0.76c0.6-0.348,1.153-0.795,1.66-1.342c0.506-0.545,0.92-1.205,1.24-1.979l4.52,2.6
		c-0.427,1.066-1.047,2.006-1.86,2.82c-0.814,0.813-1.74,1.5-2.78,2.059c-1.04,0.561-2.134,0.988-3.28,1.281
		c-1.147,0.293-2.28,0.439-3.4,0.439c-1.974,0-3.78-0.426-5.42-1.279c-1.64-0.854-3.054-1.967-4.24-3.34
		c-1.187-1.373-2.107-2.934-2.76-4.68C55.929,64.549,55.602,62.77,55.602,60.955z"/>
	<path fill="#ECD078" d="M82.402,60.955c0-1.732,0.307-3.445,0.92-5.139c0.613-1.693,1.5-3.207,2.66-4.541
		c1.16-1.332,2.58-2.412,4.26-3.24c1.68-0.826,3.6-1.238,5.76-1.238c2.533,0,4.727,0.572,6.58,1.719
		c1.853,1.146,3.221,2.641,4.1,4.48l-4.24,2.92c-0.32-0.801-0.733-1.473-1.24-2.02c-0.507-0.547-1.06-0.98-1.66-1.301
		s-1.22-0.553-1.86-0.699s-1.254-0.221-1.84-0.221c-1.307,0-2.454,0.279-3.44,0.84c-0.987,0.561-1.807,1.287-2.46,2.18
		c-0.654,0.895-1.146,1.908-1.48,3.041s-0.5,2.26-0.5,3.379c0,1.254,0.193,2.461,0.58,3.621c0.386,1.16,0.933,2.18,1.64,3.061
		c0.706,0.879,1.553,1.586,2.54,2.119c0.986,0.533,2.066,0.801,3.24,0.801c0.613,0,1.24-0.08,1.88-0.24
		c0.64-0.16,1.26-0.414,1.86-0.76c0.6-0.348,1.153-0.795,1.66-1.342c0.506-0.545,0.92-1.205,1.24-1.979l4.52,2.6
		c-0.427,1.066-1.047,2.006-1.86,2.82c-0.813,0.813-1.74,1.5-2.78,2.059c-1.04,0.561-2.134,0.988-3.28,1.281
		c-1.147,0.293-2.28,0.439-3.4,0.439c-1.974,0-3.78-0.426-5.42-1.279c-1.64-0.854-3.054-1.967-4.24-3.34
		c-1.187-1.373-2.107-2.934-2.76-4.68C82.729,64.549,82.402,62.77,82.402,60.955z"/>
	<path fill="#ECD078" d="M130.603,70.516v4.84h-19.72v-28.4h19.359v4.842h-13.84v6.84h11.96v4.479h-11.96v7.4H130.603z"/>
	<path fill="#ECD078" d="M151.643,54.396c-0.188-0.188-0.527-0.441-1.021-0.76c-0.493-0.32-1.094-0.635-1.8-0.941
		c-0.707-0.305-1.474-0.566-2.301-0.779c-0.826-0.213-1.666-0.32-2.52-0.32c-1.52,0-2.653,0.279-3.4,0.84
		c-0.746,0.561-1.119,1.348-1.119,2.361c0,0.586,0.14,1.072,0.42,1.459c0.279,0.387,0.686,0.727,1.22,1.02
		c0.533,0.295,1.206,0.561,2.021,0.801c0.813,0.24,1.753,0.494,2.82,0.76c1.386,0.373,2.646,0.773,3.779,1.199
		c1.133,0.428,2.094,0.961,2.88,1.602c0.786,0.639,1.394,1.406,1.82,2.299c0.427,0.895,0.64,1.994,0.64,3.301
		c0,1.52-0.287,2.82-0.859,3.9c-0.574,1.08-1.34,1.953-2.301,2.619c-0.959,0.666-2.08,1.154-3.359,1.461
		c-1.28,0.305-2.614,0.459-4,0.459c-2.135,0-4.24-0.32-6.32-0.959c-2.08-0.641-3.947-1.547-5.6-2.721l2.439-4.76
		c0.24,0.24,0.674,0.553,1.301,0.939c0.625,0.387,1.365,0.773,2.219,1.16s1.801,0.713,2.841,0.98c1.04,0.266,2.106,0.4,3.2,0.4
		c3.039,0,4.56-0.975,4.56-2.92c0-0.641-0.174-1.174-0.521-1.602c-0.346-0.426-0.84-0.799-1.479-1.119s-1.413-0.613-2.319-0.881
		c-0.908-0.266-1.92-0.545-3.041-0.84c-1.359-0.373-2.539-0.779-3.539-1.219c-1-0.441-1.834-0.953-2.5-1.541
		c-0.668-0.586-1.168-1.279-1.5-2.08c-0.334-0.799-0.5-1.746-0.5-2.84c0-1.439,0.266-2.721,0.799-3.84s1.273-2.053,2.221-2.801
		c0.946-0.746,2.047-1.313,3.3-1.699s2.601-0.58,4.04-0.58c2,0,3.84,0.314,5.52,0.939c1.681,0.627,3.146,1.367,4.4,2.221
		L151.643,54.396z"/>
	<path fill="#ECD078" d="M176.242,54.396c-0.188-0.188-0.527-0.441-1.021-0.76c-0.493-0.32-1.094-0.635-1.8-0.941
		c-0.707-0.305-1.474-0.566-2.301-0.779c-0.826-0.213-1.666-0.32-2.52-0.32c-1.52,0-2.653,0.279-3.4,0.84
		c-0.746,0.561-1.119,1.348-1.119,2.361c0,0.586,0.14,1.072,0.42,1.459c0.279,0.387,0.686,0.727,1.22,1.02
		c0.533,0.295,1.206,0.561,2.021,0.801c0.813,0.24,1.753,0.494,2.82,0.76c1.386,0.373,2.646,0.773,3.779,1.199
		c1.133,0.428,2.094,0.961,2.88,1.602c0.786,0.639,1.394,1.406,1.82,2.299c0.427,0.895,0.64,1.994,0.64,3.301
		c0,1.52-0.287,2.82-0.859,3.9c-0.574,1.08-1.34,1.953-2.301,2.619c-0.959,0.666-2.08,1.154-3.359,1.461
		c-1.28,0.305-2.614,0.459-4,0.459c-2.135,0-4.24-0.32-6.32-0.959c-2.08-0.641-3.947-1.547-5.6-2.721l2.439-4.76
		c0.24,0.24,0.674,0.553,1.301,0.939c0.625,0.387,1.365,0.773,2.219,1.16s1.801,0.713,2.841,0.98c1.04,0.266,2.106,0.4,3.2,0.4
		c3.039,0,4.56-0.975,4.56-2.92c0-0.641-0.174-1.174-0.521-1.602c-0.346-0.426-0.84-0.799-1.479-1.119s-1.413-0.613-2.319-0.881
		c-0.908-0.266-1.92-0.545-3.041-0.84c-1.359-0.373-2.539-0.779-3.539-1.219c-1-0.441-1.834-0.953-2.5-1.541
		c-0.668-0.586-1.168-1.279-1.5-2.08c-0.334-0.799-0.5-1.746-0.5-2.84c0-1.439,0.266-2.721,0.799-3.84s1.273-2.053,2.221-2.801
		c0.946-0.746,2.047-1.313,3.3-1.699s2.601-0.58,4.04-0.58c2,0,3.84,0.314,5.52,0.939c1.681,0.627,3.146,1.367,4.4,2.221
		L176.242,54.396z"/>
	<path fill="#ECD078" d="M184.041,64.676v-18h5.36v18H184.041z M184.041,75.355v-6.039h5.36v6.039H184.041z"/>
</g>
<g>
	<path fill="#ECD078" d="M93.463-7.224c0,2.578-1.851,4.668-4.137,4.668H74.76c-2.284,0-4.137-2.09-4.137-4.668v-0.584
		c0-2.578,1.853-4.67,4.137-4.67h14.566c2.286,0,4.137,2.092,4.137,4.67V-7.224z"/>
	<path fill="#ECD078" d="M91.737,27.502c0,2.578-1.85,4.67-4.134,4.67H76.225c-2.283,0-4.137-2.092-4.137-4.67v-0.68
		c0-2.578,1.854-4.67,4.137-4.67h11.378c2.284,0,4.134,2.092,4.134,4.67V27.502z"/>
	<path fill="#ECD078" d="M96.58,15.944c0,2.578-1.854,4.667-4.141,4.667H72.101c-2.287,0-4.137-2.09-4.137-4.667v-0.682
		c0-2.578,1.85-4.668,4.137-4.668h20.338c2.287,0,4.141,2.09,4.141,4.668V15.944z"/>
	<path fill="#ECD078" d="M96.58,4.334c0,2.582-1.854,4.672-4.141,4.672H70.463c-2.283,0-4.137-2.09-4.137-4.672V3.752
		c0-2.578,1.854-4.668,4.137-4.668h21.976c2.287,0,4.141,2.09,4.141,4.668V4.334z"/>
	<path fill="#ECD078" d="M118.355-12.462c-3.934-1.67-6.918-5.723-7.99-9.184c-1.254-4.039-2.303-11.484-2.857-15.637
		c-0.389-2.918-3.889-6.201-7.717-6.129c-3.306,0.064-6.874,3.307-7.263,6.617c-0.58,4.943,1.589,16.281,3.697,20.523
		c0.929,1.873-2.919,3.793-2.919,3.793c1.294,1.141,2.117,2.807,2.117,4.67v0.584c0,1.941-0.887,3.67-2.277,4.814
		c3.043,0.408,5.389,3.006,5.391,6.162v0.582l0,0c0,2.359-1.313,4.408-3.242,5.465c1.929,1.059,3.242,3.107,3.242,5.463v0.682
		c-0.002,3.437-2.788,6.224-6.227,6.224h-0.932c1.283,1.141,2.1,2.801,2.1,4.654v0.68c0,1.844-0.806,3.492-2.076,4.633h26.1
		c3.561-0.189,5.637-2.135,6.674-7.582c1.355-7.107,2.088-23.523,1.297-28.015C124.693-7.875,121.76-11.017,118.355-12.462z"/>
</g>
</svg>
