<?xml version="1.0" encoding="utf-8"?>
<!-- Generator: Adobe Illustrator 16.0.0, SVG Export Plug-In . SVG Version: 6.00 Build 0)  -->
<!DOCTYPE svg PUBLIC "-//W3C//DTD SVG 1.1//EN" "http://www.w3.org/Graphics/SVG/1.1/DTD/svg11.dtd">
<svg version="1.1" id="Layer_1" xmlns="http://www.w3.org/2000/svg" xmlns:xlink="http://www.w3.org/1999/xlink" x="0px" y="0px"
	 width="157px" height="41px" viewBox="0 0 157 41" enable-background="new 0 0 157 41" xml:space="preserve">
<g>
	<path fill="#542437" d="M156.588,33.272c0,4.107-3.33,7.438-7.436,7.438H7.849c-4.107,0-7.438-3.33-7.438-7.438V7.708
		c0-4.107,3.33-7.438,7.438-7.438h141.304c4.105,0,7.436,3.33,7.436,7.438V33.272z"/>
	<g>
		<path fill="#ECD078" d="M51.049,17.004c-0.399-0.453-0.937-0.82-1.609-1.1c-0.674-0.28-1.431-0.42-2.271-0.42
			c-1.267,0-2.187,0.237-2.76,0.71c-0.573,0.474-0.86,1.117-0.86,1.93c0,0.427,0.077,0.777,0.23,1.05
			c0.153,0.273,0.393,0.51,0.72,0.71c0.327,0.2,0.74,0.374,1.24,0.52c0.5,0.147,1.09,0.293,1.77,0.44
			c0.761,0.16,1.44,0.337,2.04,0.53c0.601,0.193,1.113,0.44,1.54,0.739c0.427,0.301,0.754,0.668,0.98,1.101
			c0.227,0.434,0.34,0.97,0.34,1.61c0,0.653-0.127,1.22-0.38,1.699c-0.254,0.48-0.607,0.881-1.061,1.201
			c-0.453,0.319-0.993,0.557-1.619,0.709c-0.627,0.153-1.308,0.23-2.04,0.23c-2.228,0-4.127-0.687-5.7-2.061l0.68-1.14
			c0.521,0.547,1.22,1.011,2.101,1.39c0.88,0.381,1.859,0.57,2.939,0.57c1.133,0,2.021-0.203,2.66-0.609
			c0.64-0.407,0.96-1.023,0.96-1.851c0-0.44-0.09-0.81-0.271-1.11c-0.18-0.3-0.449-0.56-0.81-0.779c-0.36-0.221-0.81-0.41-1.35-0.57
			s-1.164-0.32-1.87-0.48c-0.747-0.173-1.4-0.353-1.96-0.54c-0.561-0.187-1.03-0.42-1.41-0.7c-0.38-0.28-0.667-0.617-0.86-1.01
			c-0.193-0.393-0.29-0.876-0.29-1.45c0-0.653,0.123-1.236,0.37-1.75c0.247-0.513,0.594-0.94,1.04-1.28s0.98-0.6,1.601-0.78
			c0.619-0.18,1.303-0.27,2.05-0.27c0.933,0,1.77,0.143,2.51,0.43c0.74,0.287,1.41,0.69,2.01,1.21L51.049,17.004z"/>
		<path fill="#ECD078" d="M60.689,27.384c0.894,0,1.637-0.17,2.229-0.51c0.594-0.34,1.067-0.786,1.421-1.34
			c0.353-0.554,0.6-1.184,0.739-1.89c0.141-0.707,0.21-1.42,0.21-2.141v-7.16h1.4v7.16c0,0.96-0.106,1.87-0.32,2.73
			c-0.213,0.859-0.557,1.616-1.029,2.27c-0.474,0.653-1.091,1.174-1.851,1.561s-1.687,0.58-2.78,0.58
			c-1.133,0-2.079-0.203-2.84-0.61c-0.76-0.407-1.373-0.943-1.84-1.61c-0.467-0.666-0.8-1.426-1-2.279s-0.3-1.734-0.3-2.641v-7.16
			h1.38v7.16c0,0.747,0.073,1.474,0.22,2.18c0.146,0.707,0.396,1.334,0.75,1.881s0.823,0.986,1.41,1.319S59.81,27.384,60.689,27.384
			z"/>
		<path fill="#ECD078" d="M80.709,24.884c0,0.534-0.106,1.023-0.32,1.47c-0.213,0.447-0.5,0.834-0.859,1.16
			c-0.36,0.327-0.78,0.58-1.261,0.76c-0.479,0.181-0.993,0.271-1.539,0.271h-6.681v-14.2h6.82c0.493,0,0.939,0.107,1.34,0.32
			s0.74,0.49,1.021,0.83c0.279,0.34,0.496,0.727,0.649,1.16c0.153,0.434,0.23,0.87,0.23,1.31c0,0.72-0.181,1.377-0.54,1.97
			c-0.36,0.593-0.86,1.037-1.5,1.33c0.813,0.24,1.456,0.687,1.93,1.339C80.472,23.258,80.709,24.018,80.709,24.884z M71.429,15.564
			v5.24h4.88c0.347,0,0.671-0.073,0.971-0.22c0.3-0.146,0.56-0.34,0.779-0.58c0.221-0.24,0.391-0.517,0.511-0.83
			c0.12-0.313,0.18-0.643,0.18-0.99c0-0.36-0.057-0.7-0.17-1.02c-0.113-0.32-0.273-0.597-0.48-0.83
			c-0.206-0.233-0.453-0.42-0.739-0.56c-0.287-0.14-0.598-0.21-0.931-0.21H71.429z M79.309,24.645c0-0.348-0.06-0.684-0.18-1.011
			c-0.12-0.326-0.29-0.612-0.51-0.86c-0.22-0.246-0.48-0.446-0.78-0.6c-0.3-0.152-0.623-0.23-0.97-0.23h-5.44v5.381h5.301
			c0.359,0,0.699-0.073,1.02-0.221c0.32-0.146,0.593-0.343,0.82-0.59c0.227-0.246,0.406-0.533,0.54-0.859
			C79.242,25.327,79.309,24.99,79.309,24.645z"/>
		<path fill="#ECD078" d="M95.989,28.544v-11.66l-5.18,9.021h-0.82l-5.2-9.021v11.66h-1.38v-14.2h1.42l5.561,9.721l5.56-9.721h1.42
			v14.2H95.989z"/>
		<path fill="#ECD078" d="M100.969,28.544v-14.18h1.38v14.18H100.969z"/>
		<path fill="#ECD078" d="M116.049,15.584h-5.061v12.96h-1.399v-12.96h-5.061v-1.24h11.521V15.584z"/>
	</g>
</g>
</svg>
