<?xml version="1.0" encoding="utf-8"?>
<!-- Generator: Adobe Illustrator 16.0.0, SVG Export Plug-In . SVG Version: 6.00 Build 0)  -->
<!DOCTYPE svg PUBLIC "-//W3C//DTD SVG 1.1//EN" "http://www.w3.org/Graphics/SVG/1.1/DTD/svg11.dtd">
<svg version="1.1" id="Layer_1" xmlns="http://www.w3.org/2000/svg" xmlns:xlink="http://www.w3.org/1999/xlink" x="0px" y="0px"
	 width="130px" height="130px" viewBox="0 0 130 130" enable-background="new 0 0 130 130" xml:space="preserve">
<g>
	<path fill="#ECD078" d="M129.221,124.724c0,3.338-2.317,6.044-5.174,6.044H5.173c-2.855,0-5.173-2.706-5.173-6.044V6.044
		C0,2.706,2.317,0,5.173,0h118.874c2.856,0,5.174,2.706,5.174,6.044V124.724z"/>
	<text transform="matrix(1 0 0 1 14.998 102.7744)" fill="#542437" font-family="'Raleway'" font-size="30.2149">Submit</text>
	<g>
		
			<rect x="46.243" y="18.332" transform="matrix(0.9936 0.1129 -0.1129 0.9936 5.6047 -7.4953)" fill="#542437" width="45.46" height="54.801"/>
		
			<rect x="49.093" y="20.191" transform="matrix(0.9936 0.1129 -0.1129 0.9936 4.8725 -7.6199)" fill="#ECD078" width="41.243" height="38.039"/>
	</g>
	<g>
		
			<rect x="37.399" y="18.333" transform="matrix(0.9941 -0.108 0.108 0.9941 -4.589 6.7637)" fill="#542437" width="45.458" height="54.801"/>
		
			<rect x="38.798" y="20.186" transform="matrix(0.9941 -0.108 0.108 0.9941 -3.8874 6.6479)" fill="#ECD078" width="41.243" height="38.04"/>
	</g>
</g>
</svg>
