<?xml version="1.0" encoding="utf-8"?>
<!-- Generator: Adobe Illustrator 16.0.0, SVG Export Plug-In . SVG Version: 6.00 Build 0)  -->
<!DOCTYPE svg PUBLIC "-//W3C//DTD SVG 1.1//EN" "http://www.w3.org/Graphics/SVG/1.1/DTD/svg11.dtd">
<svg version="1.1" id="Layer_1" xmlns="http://www.w3.org/2000/svg" xmlns:xlink="http://www.w3.org/1999/xlink" x="0px" y="0px"
	 width="74px" height="83.146px" viewBox="0 0 74 83.146" enable-background="new 0 0 74 83.146" xml:space="preserve">
<path fill="#542437" d="M64.218,29.758c0.03,0.591,0.043,1.181,0.043,1.781c0,18.238-13.881,39.267-39.269,39.267
	c-7.797,0-15.048-2.282-21.156-6.2c1.083,0.123,2.18,0.19,3.292,0.19c6.471,0,12.416-2.202,17.139-5.903
	c-6.037-0.117-11.136-4.106-12.889-9.585c0.842,0.155,1.703,0.246,2.595,0.246c1.261,0,2.479-0.173,3.633-0.483
	C11.3,47.797,6.536,42.221,6.536,35.538c0-0.058,0-0.116,0-0.172c1.865,1.034,3.991,1.649,6.254,1.725
	c-3.702-2.472-6.138-6.7-6.138-11.488c0-2.53,0.683-4.902,1.867-6.94c6.804,8.352,16.978,13.846,28.444,14.42
	c-0.233-1.011-0.356-2.062-0.356-3.146c0-7.62,6.181-13.795,13.804-13.795c3.966,0,7.556,1.675,10.07,4.354
	c3.143-0.617,6.098-1.766,8.769-3.35c-1.036,3.227-3.221,5.927-6.07,7.635c2.791-0.328,5.452-1.075,7.925-2.167
	C69.257,25.38,66.916,27.811,64.218,29.758z"/>
</svg>
