<?xml version="1.0" encoding="utf-8"?>
<!-- Generator: Adobe Illustrator 16.0.0, SVG Export Plug-In . SVG Version: 6.00 Build 0)  -->
<!DOCTYPE svg PUBLIC "-//W3C//DTD SVG 1.1//EN" "http://www.w3.org/Graphics/SVG/1.1/DTD/svg11.dtd">
<svg version="1.1" id="Layer_1" xmlns="http://www.w3.org/2000/svg" xmlns:xlink="http://www.w3.org/1999/xlink" x="0px" y="0px"
	 width="61.798px" height="63px" viewBox="0 0 61.798 63" enable-background="new 0 0 61.798 63" xml:space="preserve">
<path fill="#542437" d="M55.548,17.88c0.026,0.537,0.038,1.071,0.038,1.616c0,16.556-12.601,35.646-35.647,35.646
	c-7.078,0-13.66-2.071-19.207-5.628c0.985,0.111,1.98,0.172,2.99,0.172c5.874,0,11.27-1.998,15.558-5.357
	c-5.481-0.109-10.109-3.729-11.7-8.702c0.764,0.142,1.546,0.224,2.355,0.224c1.145,0,2.251-0.157,3.298-0.438
	C7.509,34.257,3.184,29.194,3.184,23.128c0-0.053,0-0.106,0-0.157c1.694,0.938,3.624,1.497,5.677,1.564
	c-3.36-2.242-5.57-6.082-5.57-10.427c0-2.298,0.619-4.451,1.695-6.3c6.176,7.582,15.411,12.568,25.819,13.091
	c-0.211-0.918-0.323-1.872-0.323-2.856c0-6.917,5.609-12.523,12.531-12.523c3.601,0,6.858,1.52,9.142,3.952
	c2.854-0.561,5.535-1.604,7.96-3.041c-0.941,2.929-2.924,5.379-5.51,6.93c2.532-0.298,4.949-0.977,7.192-1.968
	C60.121,13.908,57.996,16.113,55.548,17.88z"/>
</svg>
