<?xml version="1.0" encoding="utf-8"?>
<!-- Generator: Adobe Illustrator 16.0.0, SVG Export Plug-In . SVG Version: 6.00 Build 0)  -->
<!DOCTYPE svg PUBLIC "-//W3C//DTD SVG 1.1//EN" "http://www.w3.org/Graphics/SVG/1.1/DTD/svg11.dtd">
<svg version="1.1" id="Layer_1" xmlns="http://www.w3.org/2000/svg" xmlns:xlink="http://www.w3.org/1999/xlink" x="0px" y="0px"
	 width="61px" height="61px" viewBox="0 0 61 61" enable-background="new 0 0 61 61" xml:space="preserve">
<path fill="#2CAAE1" d="M51.125,0.5H9.875C4.697,0.5,0.5,4.7,0.5,9.875v41.25c0,5.179,4.197,9.375,9.375,9.375h41.25
	c5.178,0,9.375-4.196,9.375-9.375V9.875C60.5,4.7,56.303,0.5,51.125,0.5z M42.43,24.384c0.012,0.264,0.018,0.527,0.018,0.794
	c0,8.133-6.19,17.513-17.512,17.513c-3.477,0-6.711-1.019-9.435-2.765c0.483,0.058,0.972,0.084,1.469,0.084
	c2.885,0,5.536-0.981,7.642-2.634c-2.691-0.048-4.966-1.827-5.747-4.272c0.375,0.072,0.761,0.109,1.157,0.109
	c0.563,0,1.106-0.073,1.621-0.217c-2.813-0.564-4.938-3.054-4.938-6.035c0-0.026,0-0.051,0-0.077c0.832,0.461,1.78,0.74,2.789,0.769
	c-1.651-1.102-2.737-2.988-2.737-5.124c0-1.128,0.304-2.182,0.833-3.094c3.034,3.724,7.571,6.173,12.685,6.431
	c-0.104-0.451-0.158-0.919-0.158-1.403c0-3.399,2.756-6.152,6.156-6.152c1.769,0,3.369,0.747,4.49,1.941
	c1.402-0.274,2.721-0.788,3.91-1.49c-0.461,1.435-1.436,2.644-2.707,3.402c1.246-0.147,2.434-0.477,3.535-0.967
	C44.676,22.432,43.633,23.516,42.43,24.384z"/>
</svg>
