<?xml version="1.0" encoding="utf-8"?>
<!-- Generator: Adobe Illustrator 16.0.0, SVG Export Plug-In . SVG Version: 6.00 Build 0)  -->
<!DOCTYPE svg PUBLIC "-//W3C//DTD SVG 1.1//EN" "http://www.w3.org/Graphics/SVG/1.1/DTD/svg11.dtd">
<svg version="1.1" id="Layer_1" xmlns="http://www.w3.org/2000/svg" xmlns:xlink="http://www.w3.org/1999/xlink" x="0px" y="0px"
	 width="208px" height="133px" viewBox="-6 20 208 133" enable-background="new -6 20 208 133" xml:space="preserve">
<path fill="#ECD078" d="M202,146.854c0,3.396-3.73,6.146-8.33,6.146H2.33C-2.27,153-6,150.249-6,146.854V26.146
	C-6,22.752-2.271,20,2.33,20h191.342c4.598,0,8.328,2.752,8.328,6.146V146.854z"/>
<g>
	<path fill="#542437" d="M43.807,125.1c1.786,0,3.273-0.34,4.46-1.02c1.186-0.682,2.133-1.574,2.84-2.682
		c0.707-1.106,1.2-2.365,1.48-3.779c0.28-1.412,0.42-2.84,0.42-4.279V99.021h2.8v14.319c0,1.92-0.214,3.74-0.64,5.459
		c-0.427,1.721-1.114,3.234-2.06,4.541c-0.947,1.307-2.18,2.348-3.7,3.119c-1.52,0.773-3.374,1.16-5.56,1.16
		c-2.267,0-4.16-0.406-5.68-1.221c-1.52-0.813-2.747-1.885-3.68-3.219c-0.933-1.334-1.6-2.854-2-4.562
		c-0.4-1.706-0.6-3.466-0.6-5.279V99.021h2.76v14.319c0,1.493,0.146,2.946,0.44,4.359c0.293,1.414,0.793,2.667,1.5,3.76
		c0.707,1.094,1.646,1.975,2.82,2.641C40.58,124.766,42.046,125.1,43.807,125.1z"/>
	<path fill="#542437" d="M72.526,127.818c-1.76,0-3.32-0.445-4.68-1.34c-1.36-0.894-2.454-2.021-3.28-3.379v12.84h-2.72V106.58h2.44
		v4.039c0.853-1.307,1.96-2.365,3.32-3.18c1.36-0.813,2.84-1.222,4.44-1.222c1.44,0,2.766,0.302,3.98,0.9
		c1.213,0.6,2.26,1.4,3.14,2.4s1.566,2.153,2.06,3.46c0.493,1.307,0.74,2.652,0.74,4.039c0,1.467-0.227,2.854-0.68,4.16
		c-0.454,1.307-1.1,2.453-1.94,3.439c-0.84,0.986-1.84,1.768-3,2.34C75.186,127.533,73.913,127.818,72.526,127.818z M71.766,125.42
		c1.12,0,2.133-0.24,3.04-0.721c0.906-0.48,1.687-1.113,2.34-1.9c0.653-0.785,1.153-1.68,1.5-2.68c0.346-1,0.52-2.033,0.52-3.1
		c0-1.121-0.2-2.188-0.6-3.2s-0.947-1.906-1.64-2.68c-0.694-0.773-1.514-1.387-2.46-1.842c-0.947-0.452-1.967-0.68-3.06-0.68
		c-0.694,0-1.414,0.141-2.16,0.42c-0.747,0.28-1.454,0.654-2.12,1.121c-0.667,0.467-1.234,1.014-1.7,1.639
		c-0.467,0.627-0.754,1.287-0.86,1.98v6.399c0.32,0.746,0.726,1.439,1.22,2.08c0.493,0.641,1.053,1.193,1.68,1.66
		c0.626,0.467,1.306,0.834,2.04,1.1C70.239,125.286,70.993,125.42,71.766,125.42z"/>
	<path fill="#542437" d="M86.566,98.219h2.72v24.48c0,0.773,0.213,1.381,0.641,1.82c0.426,0.438,1.025,0.66,1.8,0.66
		c0.293,0,0.64-0.041,1.04-0.121s0.773-0.187,1.121-0.319l0.479,2.2c-0.506,0.213-1.127,0.387-1.859,0.52
		c-0.734,0.134-1.367,0.201-1.9,0.201c-1.254,0-2.24-0.354-2.96-1.061c-0.72-0.707-1.08-1.701-1.08-2.98v-25.4H86.566z"/>
	<path fill="#542437" d="M105.965,127.818c-1.52,0-2.914-0.285-4.18-0.859c-1.268-0.572-2.359-1.354-3.279-2.34
		s-1.635-2.133-2.141-3.439c-0.506-1.306-0.76-2.68-0.76-4.119c0-1.467,0.26-2.854,0.778-4.16c0.521-1.307,1.24-2.453,2.16-3.44
		c0.92-0.985,2.015-1.771,3.281-2.358c1.266-0.586,2.646-0.881,4.139-0.881c1.494,0,2.873,0.295,4.142,0.881
		c1.266,0.587,2.358,1.373,3.278,2.358c0.921,0.987,1.642,2.136,2.16,3.44c0.521,1.308,0.781,2.693,0.781,4.16
		c0,1.439-0.263,2.813-0.781,4.119s-1.239,2.453-2.16,3.439c-0.92,0.986-2.014,1.768-3.278,2.34
		C108.838,127.533,107.459,127.818,105.965,127.818z M98.406,117.1c0,1.174,0.191,2.26,0.58,3.26c0.385,1,0.92,1.881,1.6,2.642
		c0.68,0.76,1.479,1.354,2.4,1.778c0.92,0.429,1.897,0.642,2.938,0.642c1.039,0,2.021-0.221,2.939-0.66
		c0.92-0.44,1.727-1.04,2.42-1.801c0.692-0.76,1.239-1.646,1.641-2.66c0.4-1.013,0.601-2.104,0.601-3.278
		c0-1.146-0.199-2.233-0.601-3.261c-0.401-1.026-0.946-1.92-1.641-2.68c-0.693-0.761-1.494-1.361-2.4-1.801
		c-0.905-0.44-1.879-0.66-2.92-0.66c-1.039,0-2.021,0.221-2.938,0.66c-0.92,0.438-1.721,1.047-2.4,1.82
		c-0.68,0.772-1.219,1.674-1.619,2.698C98.605,114.826,98.406,115.926,98.406,117.1z"/>
	<path fill="#542437" d="M126.285,127.818c-1.066,0-2.039-0.166-2.92-0.5c-0.881-0.332-1.633-0.793-2.26-1.379
		s-1.113-1.267-1.461-2.041c-0.347-0.771-0.521-1.586-0.521-2.439c0-0.959,0.213-1.832,0.642-2.619
		c0.426-0.787,1.024-1.461,1.799-2.021c0.773-0.56,1.701-0.992,2.781-1.299c1.079-0.308,2.272-0.461,3.579-0.461
		c1.039,0,2.104,0.094,3.199,0.28s2.065,0.453,2.92,0.8v-1.88c0-1.84-0.526-3.301-1.58-4.381c-1.053-1.08-2.473-1.619-4.26-1.619
		c-1.119,0-2.233,0.214-3.34,0.641c-1.107,0.427-2.234,1.04-3.382,1.84l-0.959-1.8c1.359-0.906,2.681-1.586,3.959-2.04
		c1.281-0.453,2.613-0.682,4-0.682c2.533,0,4.548,0.734,6.041,2.201c1.492,1.467,2.24,3.493,2.24,6.08v9.399
		c0,0.746,0.32,1.119,0.959,1.119v2.4c-0.213,0.025-0.414,0.046-0.6,0.061c-0.188,0.013-0.346,0.021-0.48,0.021
		c-0.533,0-1.02-0.16-1.459-0.479c-0.438-0.32-0.688-0.802-0.74-1.439l-0.079-1.641c-0.906,1.227-2.101,2.18-3.58,2.858
		C129.305,127.479,127.805,127.818,126.285,127.818z M126.965,125.739c1.201,0,2.393-0.261,3.58-0.78s2.127-1.232,2.82-2.141
		c0.186-0.238,0.346-0.5,0.48-0.779c0.133-0.279,0.198-0.539,0.198-0.779v-3.4c-0.905-0.346-1.854-0.612-2.84-0.799
		c-0.986-0.188-1.947-0.281-2.879-0.281c-1.947,0-3.527,0.396-4.74,1.181c-1.215,0.787-1.819,1.874-1.819,3.261
		c0,0.561,0.104,1.106,0.319,1.641c0.213,0.533,0.539,1.014,0.979,1.438c0.44,0.429,0.979,0.774,1.621,1.041
		C125.326,125.607,126.086,125.739,126.965,125.739z"/>
	<path fill="#542437" d="M151.324,127.818c-1.439,0-2.773-0.299-4-0.898c-1.227-0.602-2.285-1.395-3.18-2.381
		c-0.894-0.986-1.586-2.126-2.08-3.42c-0.492-1.293-0.74-2.646-0.74-4.061c0-1.466,0.24-2.859,0.721-4.181
		c0.48-1.318,1.141-2.473,1.98-3.459c0.838-0.985,1.84-1.767,3-2.34c1.16-0.574,2.434-0.861,3.82-0.861
		c1.76,0,3.319,0.462,4.68,1.382c1.359,0.92,2.438,2.032,3.24,3.34V98.219h2.719V123.9c0,0.746,0.32,1.119,0.961,1.119v2.4
		c-0.453,0.08-0.814,0.119-1.08,0.119c-0.666,0-1.213-0.193-1.641-0.58c-0.427-0.386-0.64-0.846-0.64-1.379v-2.201
		c-0.854,1.36-1.979,2.439-3.381,3.24C154.305,127.42,152.846,127.818,151.324,127.818z M151.885,125.42
		c0.693,0,1.42-0.134,2.18-0.4c0.761-0.266,1.468-0.633,2.121-1.1c0.652-0.467,1.219-1.014,1.699-1.641s0.773-1.301,0.881-2.021
		v-6.439c-0.268-0.72-0.66-1.395-1.18-2.021c-0.521-0.625-1.107-1.18-1.762-1.658c-0.652-0.479-1.346-0.854-2.078-1.12
		c-0.734-0.267-1.461-0.4-2.182-0.4c-1.119,0-2.14,0.24-3.06,0.721c-0.92,0.479-1.7,1.113-2.34,1.899
		c-0.642,0.787-1.142,1.687-1.5,2.7c-0.36,1.014-0.541,2.054-0.541,3.119c0,1.121,0.199,2.188,0.601,3.2
		c0.4,1.013,0.946,1.9,1.641,2.66c0.693,0.761,1.514,1.366,2.459,1.819C149.771,125.193,150.791,125.42,151.885,125.42z"/>
</g>
<g>
	<path fill="#542437" d="M118.061,42.986c-3.58-3.578-10.422-4.986-14.002-1.404L75.406,70.23c-3.578,3.58-3.578,9.381,0.003,12.959
		c3.577,3.582,9.379,3.582,12.96,0l6.669-6.666l12.558-12.56c3.58-3.578,4.514-8.45,0.937-12.026
		c-3.581-3.582-8.451-2.65-12.029,0.928L83.942,65.426l1.345,1.344l12.561-12.557c2.832-2.832,6.508-3.766,9.338-0.934
		c2.83,2.834,1.899,6.508-0.932,9.338L93.693,75.176l-6.669,6.672c-2.831,2.828-7.44,2.828-10.269,0
		c-2.832-2.834-2.832-7.441,0-10.271l28.649-28.65c2.832-2.832,8.479-1.426,11.311,1.406c2.829,2.832,4.238,8.479,1.405,11.312
		l-25.013,25.01L94.453,82l25.014-25.014C123.045,53.406,121.641,46.564,118.061,42.986z"/>
</g>
</svg>
