<?xml version="1.0" encoding="utf-8"?>
<!-- Generator: Adobe Illustrator 16.0.0, SVG Export Plug-In . SVG Version: 6.00 Build 0)  -->
<!DOCTYPE svg PUBLIC "-//W3C//DTD SVG 1.1//EN" "http://www.w3.org/Graphics/SVG/1.1/DTD/svg11.dtd">
<svg version="1.1" id="Layer_1" xmlns="http://www.w3.org/2000/svg" xmlns:xlink="http://www.w3.org/1999/xlink" x="0px" y="0px"
	 width="130px" height="130px" viewBox="0 0 130 130" enable-background="new 0 0 130 130" xml:space="preserve">
<g>
	<path fill="#ECD078" d="M129.221,320.295c0,3.338-2.317,6.044-5.174,6.044H5.173c-2.855,0-5.173-2.706-5.173-6.044v-118.68
		c0-3.338,2.317-6.044,5.173-6.044h118.874c2.856,0,5.174,2.706,5.174,6.044V320.295z"/>
	<text transform="matrix(1 0 0 1 14.998 298.3457)" fill="#542437" font-family="'Raleway'" font-size="30.2149">Submit</text>
	<g>
		
			<rect x="46.243" y="213.904" transform="matrix(0.9936 0.1129 -0.1129 0.9936 27.6865 -6.2446)" fill="#542437" width="45.46" height="54.801"/>
		
			<rect x="49.093" y="215.762" transform="matrix(0.9936 0.1129 -0.1129 0.9936 26.952 -6.3695)" fill="#ECD078" width="41.243" height="38.039"/>
	</g>
	<g>
		
			<rect x="37.399" y="213.905" transform="matrix(0.9941 -0.108 0.108 0.9941 -25.7176 7.9084)" fill="#542437" width="45.458" height="54.801"/>
		
			<rect x="38.798" y="215.758" transform="matrix(0.9941 -0.108 0.108 0.9941 -25.0129 7.7922)" fill="#ECD078" width="41.243" height="38.04"/>
	</g>
</g>
<g>
	<path fill="#ECD078" d="M129.221,124.725c0,3.338-2.315,6.043-5.173,6.043H5.174c-2.858,0-5.174-2.705-5.174-6.043V6.043
		C0,2.705,2.315,0,5.174,0h118.874c2.857,0,5.173,2.705,5.173,6.043V124.725z"/>
	<text transform="matrix(1 0 0 1 13.2451 102.7734)" fill="#542437" font-family="'Raleway'" font-size="30.2153">Upload</text>
	<g>
		<path fill="#542437" d="M90.663,26.031c-3.58-3.578-10.421-4.986-14.002-1.404L48.01,53.275c-3.579,3.58-3.579,9.381,0.002,12.959
			c3.578,3.582,9.379,3.582,12.961,0l6.668-6.666L80.199,47.01c3.58-3.578,4.513-8.451,0.936-12.027
			c-3.581-3.582-8.451-2.65-12.029,0.928L56.545,48.471l1.344,1.344l12.561-12.557c2.833-2.832,6.509-3.766,9.338-0.934
			c2.831,2.834,1.9,6.508-0.931,9.338L66.295,58.221l-6.668,6.672c-2.832,2.828-7.441,2.828-10.27,0
			c-2.832-2.834-2.832-7.441,0-10.271l28.651-28.65c2.832-2.832,8.479-1.426,11.31,1.406c2.829,2.832,4.238,8.479,1.405,11.311
			l-25.013,25.01l1.346,1.346L92.07,40.029C95.648,36.451,94.243,29.609,90.663,26.031z"/>
	</g>
</g>
</svg>
