<?xml version="1.0" encoding="utf-8"?>
<!-- Generator: Adobe Illustrator 16.0.0, SVG Export Plug-In . SVG Version: 6.00 Build 0)  -->
<!DOCTYPE svg PUBLIC "-//W3C//DTD SVG 1.1//EN" "http://www.w3.org/Graphics/SVG/1.1/DTD/svg11.dtd">
<svg version="1.1" id="Layer_1" xmlns="http://www.w3.org/2000/svg" xmlns:xlink="http://www.w3.org/1999/xlink" x="0px" y="0px"
	 width="196px" height="173px" viewBox="0 0 196 173" enable-background="new 0 0 196 173" xml:space="preserve">
<path fill="#ECD078" d="M196,165.115c0,4.419-3.516,8-7.85,8H7.849c-4.334,0-7.849-3.581-7.849-8V8c0-4.418,3.514-8,7.849-8h180.303
	C192.484,0,196,3.582,196,8V165.115z"/>
<g>
	<path fill="#542437" d="M47.807,98.1c1.786,0,3.273-0.34,4.46-1.02c1.186-0.681,2.133-1.574,2.84-2.681s1.2-2.366,1.48-3.78
		c0.28-1.412,0.42-2.84,0.42-4.279V72.02h2.8v14.32c0,1.92-0.214,3.74-0.64,5.459c-0.427,1.721-1.114,3.234-2.06,4.541
		c-0.947,1.307-2.18,2.347-3.7,3.119c-1.52,0.774-3.374,1.16-5.56,1.16c-2.267,0-4.16-0.406-5.68-1.22s-2.747-1.886-3.68-3.22
		s-1.6-2.854-2-4.561c-0.4-1.706-0.6-3.466-0.6-5.279V72.02h2.76v14.32c0,1.493,0.146,2.946,0.44,4.359
		c0.293,1.414,0.793,2.667,1.5,3.76c0.707,1.094,1.646,1.975,2.82,2.641C44.58,97.766,46.046,98.1,47.807,98.1z"/>
	<path fill="#542437" d="M76.526,100.819c-1.76,0-3.32-0.446-4.68-1.34s-2.454-2.021-3.28-3.38v12.84h-2.72V79.58h2.44v4.039
		c0.853-1.307,1.96-2.365,3.32-3.18c1.36-0.813,2.84-1.221,4.44-1.221c1.44,0,2.766,0.301,3.98,0.9c1.213,0.6,2.26,1.4,3.14,2.4
		c0.88,1,1.566,2.154,2.06,3.46c0.493,1.307,0.74,2.653,0.74,4.04c0,1.467-0.227,2.854-0.68,4.16c-0.454,1.307-1.1,2.453-1.94,3.439
		c-0.84,0.987-1.84,1.768-3,2.34C79.186,100.533,77.913,100.819,76.526,100.819z M75.766,98.42c1.12,0,2.133-0.24,3.04-0.721
		c0.906-0.48,1.687-1.113,2.34-1.9c0.653-0.785,1.153-1.68,1.5-2.68c0.346-1,0.52-2.033,0.52-3.1c0-1.12-0.2-2.187-0.6-3.2
		c-0.4-1.013-0.947-1.906-1.64-2.68c-0.694-0.773-1.514-1.386-2.46-1.841c-0.947-0.453-1.967-0.68-3.06-0.68
		c-0.694,0-1.414,0.141-2.16,0.42c-0.747,0.28-1.454,0.654-2.12,1.121c-0.667,0.467-1.234,1.014-1.7,1.639
		c-0.467,0.627-0.754,1.287-0.86,1.98v6.4c0.32,0.746,0.726,1.439,1.22,2.08c0.493,0.64,1.053,1.193,1.68,1.66
		c0.626,0.467,1.306,0.834,2.04,1.1C74.239,98.286,74.993,98.42,75.766,98.42z"/>
	<path fill="#542437" d="M90.566,71.219h2.72v24.48c0,0.773,0.213,1.381,0.641,1.82c0.426,0.439,1.025,0.66,1.8,0.66
		c0.293,0,0.64-0.04,1.04-0.12c0.4-0.08,0.773-0.187,1.121-0.32l0.479,2.2c-0.506,0.214-1.127,0.387-1.859,0.52
		c-0.734,0.134-1.367,0.201-1.9,0.201c-1.254,0-2.24-0.354-2.96-1.061s-1.08-1.7-1.08-2.98V71.219z"/>
	<path fill="#542437" d="M109.965,100.819c-1.52,0-2.914-0.286-4.18-0.86c-1.268-0.572-2.359-1.353-3.279-2.34
		c-0.92-0.986-1.635-2.133-2.141-3.439s-0.76-2.68-0.76-4.12c0-1.466,0.26-2.853,0.779-4.16c0.521-1.306,1.24-2.453,2.16-3.44
		c0.92-0.986,2.014-1.772,3.281-2.359c1.266-0.586,2.645-0.881,4.139-0.881s2.873,0.295,4.141,0.881
		c1.266,0.587,2.359,1.373,3.279,2.359c0.92,0.987,1.641,2.135,2.16,3.44c0.52,1.308,0.781,2.694,0.781,4.16
		c0,1.44-0.262,2.813-0.781,4.12s-1.24,2.453-2.16,3.439c-0.92,0.987-2.014,1.768-3.279,2.34
		C112.838,100.533,111.459,100.819,109.965,100.819z M102.406,90.1c0,1.174,0.191,2.26,0.58,3.26c0.385,1,0.92,1.88,1.6,2.641
		c0.68,0.76,1.479,1.354,2.4,1.779c0.92,0.428,1.898,0.641,2.939,0.641c1.039,0,2.02-0.221,2.939-0.66
		c0.92-0.44,1.727-1.041,2.42-1.801s1.24-1.646,1.641-2.66c0.4-1.013,0.6-2.105,0.6-3.279c0-1.146-0.199-2.233-0.6-3.26
		s-0.947-1.92-1.641-2.68c-0.693-0.761-1.494-1.361-2.4-1.801s-1.879-0.66-2.92-0.66c-1.039,0-2.02,0.221-2.939,0.66
		s-1.721,1.047-2.4,1.82s-1.219,1.674-1.619,2.699C102.605,87.826,102.406,88.926,102.406,90.1z"/>
	<path fill="#542437" d="M130.285,100.819c-1.066,0-2.039-0.167-2.92-0.5s-1.633-0.793-2.26-1.38
		c-0.627-0.586-1.113-1.266-1.461-2.04c-0.346-0.772-0.52-1.587-0.52-2.44c0-0.959,0.213-1.832,0.641-2.619
		c0.426-0.787,1.025-1.461,1.799-2.021s1.701-0.993,2.781-1.3s2.273-0.46,3.58-0.46c1.039,0,2.105,0.094,3.199,0.28
		s2.066,0.453,2.92,0.8v-1.88c0-1.84-0.527-3.301-1.58-4.381s-2.473-1.619-4.26-1.619c-1.119,0-2.234,0.213-3.34,0.64
		c-1.107,0.427-2.234,1.04-3.381,1.84l-0.959-1.8c1.359-0.906,2.68-1.586,3.959-2.04c1.281-0.453,2.613-0.681,4-0.681
		c2.533,0,4.547,0.734,6.041,2.201c1.492,1.467,2.24,3.493,2.24,6.08v9.399c0,0.747,0.32,1.12,0.959,1.12v2.4
		c-0.213,0.025-0.414,0.046-0.6,0.06c-0.188,0.013-0.346,0.021-0.48,0.021c-0.533,0-1.02-0.16-1.459-0.48s-0.688-0.801-0.74-1.439
		l-0.08-1.641c-0.906,1.227-2.1,2.18-3.58,2.859C133.305,100.479,131.805,100.819,130.285,100.819z M130.965,98.739
		c1.201,0,2.393-0.26,3.58-0.78c1.188-0.52,2.127-1.232,2.82-2.14c0.186-0.239,0.346-0.5,0.48-0.78
		c0.133-0.279,0.199-0.539,0.199-0.779v-3.4c-0.906-0.346-1.854-0.613-2.84-0.8s-1.947-0.28-2.879-0.28
		c-1.947,0-3.527,0.395-4.74,1.18c-1.215,0.787-1.82,1.874-1.82,3.26c0,0.561,0.105,1.107,0.32,1.641
		c0.213,0.533,0.539,1.014,0.979,1.439c0.441,0.428,0.98,0.774,1.621,1.041S130.086,98.739,130.965,98.739z"/>
	<path fill="#542437" d="M155.324,100.819c-1.439,0-2.773-0.3-4-0.899c-1.227-0.601-2.285-1.394-3.18-2.381
		c-0.893-0.986-1.586-2.126-2.08-3.42c-0.492-1.293-0.74-2.646-0.74-4.06c0-1.466,0.24-2.86,0.721-4.181
		c0.48-1.319,1.141-2.473,1.98-3.459s1.84-1.767,3-2.34c1.16-0.574,2.434-0.861,3.82-0.861c1.76,0,3.32,0.461,4.68,1.381
		s2.439,2.033,3.24,3.34V71.219h2.719v25.681c0,0.747,0.32,1.12,0.961,1.12v2.4c-0.453,0.08-0.814,0.119-1.08,0.119
		c-0.666,0-1.213-0.193-1.641-0.58c-0.426-0.386-0.639-0.846-0.639-1.379v-2.201c-0.855,1.36-1.98,2.44-3.381,3.24
		C158.305,100.42,156.846,100.819,155.324,100.819z M155.885,98.42c0.693,0,1.42-0.134,2.18-0.4c0.76-0.266,1.467-0.633,2.121-1.1
		c0.652-0.467,1.219-1.014,1.699-1.641c0.48-0.626,0.773-1.3,0.881-2.02v-6.44c-0.268-0.72-0.66-1.394-1.18-2.021
		c-0.521-0.625-1.107-1.18-1.762-1.659c-0.652-0.479-1.346-0.854-2.078-1.12c-0.734-0.266-1.461-0.4-2.182-0.4
		c-1.119,0-2.139,0.24-3.059,0.721c-0.92,0.479-1.701,1.113-2.34,1.899c-0.641,0.787-1.141,1.687-1.5,2.7
		c-0.361,1.014-0.541,2.054-0.541,3.12c0,1.12,0.199,2.187,0.6,3.2s0.947,1.9,1.641,2.66s1.514,1.366,2.459,1.819
		C153.771,98.193,154.791,98.42,155.885,98.42z"/>
</g>
<text transform="matrix(1 0 0 1 385.4082 289.623)" fill="#542437" font-family="'Raleway'" font-size="40">Delete</text>
</svg>
